<svg version="1.1" id="wapuugotchi_svg__item" xmlns="http://www.w3.org/2000/svg" viewBox="0 0 1000 1000">
    <g class="Ball--group">
        <path fill="#F57610" d="M542.3,506.5v0.5c0,0.5-0.1,1-0.1,1.5c-0.1,0.8-0.2,1.6-0.3,2.4c-0.3,1.8-0.5,3.3-0.8,4.8
		c-0.6,3-1.4,6.1-2.5,9.4c-1.9,6-4.5,12-7.7,17.9c-3.1,5.7-6.7,11.1-10.8,16.2c-4,5-8.5,9.8-13.4,14.2c-5.1,4.6-10.3,8.7-15.3,12.1
		c-1.2,0.8-2.4,1.6-3.5,2.3l-0.5,0.3c-0.5,0.3-1,0.6-1.4,0.8c-0.9,0.5-1.9,1.1-2.8,1.6c-2.4,1.4-5.2,2.8-8.7,4.3
		c-2.8,1.2-5.9,2.3-9.1,3.1c-3,0.8-6.1,1.4-9.4,1.8c-1.8,0.2-3.5,0.3-5,0.4c-1.6,0.1-3.1,0.1-4.6,0c-3.2-0.1-6.1-0.4-8.7-1
		c1.1,0.7,2.2,1.2,3.5,1.8c0.3,0.1,0.7,0.3,1,0.4l1.3,0.5l-0.9,1.1c-0.7,0.9-1.4,1.6-2.1,2.2c-1.3,1.1-2.6,1.9-3.9,2.1
		c-0.2,0-0.4,0-0.5,0.1c-0.9,0-1.8-0.2-2.5-0.7c-0.2-0.1-0.3-0.2-0.5-0.3c-0.6-0.5-1-1-1.3-1.6c-0.2-0.3-0.3-0.6-0.4-0.9l-0.2-0.7
		c-0.1-0.4-0.3-0.7-0.5-1.1c-0.7-1.1-1.5-1.7-2.2-2.3l-0.2-0.2c-0.8-0.6-1.5-1.1-2.4-1.7l-4.6-3c-3.2-2.1-6-4.3-8.7-6.5
		c-10-8.4-19-19.8-27-34c-3.4-6.2-5.8-13-7.2-20.3c-1.4-6.8-1.9-14-1.7-21.6c0.2-6.9,1.1-14.2,2.7-21.6c0.8-3.6,1.7-7.2,2.7-10.6
		s2.1-6.6,3.2-9.4l0.2-0.4l0.6-0.2c0.1,0,0.2,0,0.2-0.1c0.1,0,0.3-0.1,0.4-0.1c1-0.3,2-0.5,2.9-0.8c1.4-0.5,2.9-0.8,4.4-1.2l1.4-0.3
		c6.6-1.6,13.6-2.5,21.5-2.9c0.7,0,1.4-0.1,2.1-0.1c15.2-0.1,31.2,2,47.4,6.2c16.3,4.2,31.6,9.5,45.3,15.9
		c8.4,4.1,14.9,7.9,20.6,12.1l1,0.8c2.8,2.1,5.7,4.3,8.5,6.5L542.3,506.5z"/>
        <path fill="#64301F" d="M560.6,501.5c-1.7,8.9-5,15.1-9.5,17.8c-1.7,1-3.5,1.5-5.4,1.6c-0.2,0-0.4,0-0.5,0H544l0.3-1.2
		c0.2-1.1,0.5-2.2,0.7-3.2c0.3-1.4,0.5-3,0.7-5l-0.1-2.4l1.8,1.6c0.9,0.8,1.6,1.5,2.4,2.2c-0.4-1.6-1.1-3-1.8-4.2
		c-0.9-1.7-2-3.3-3.4-5.2c-0.6-0.7-1.2-1.4-1.8-2.1l-0.3-0.3c-0.5-0.6-1.1-1.2-1.7-1.7l-0.5-0.4c-1.5-1.5-3.1-2.7-4.7-4
		c-5.8-4.5-12.6-8.6-21.1-13c0,0-6.3-3-6.6-3.1c-0.6-0.3-1.2-0.6-1.8-0.8l-2.9-1.2l-5.7-2.3c-1.2-0.5-2.5-0.9-3.8-1.4
		c-0.7-0.2-1.4-0.5-2-0.7c-0.7-0.2-1.4-0.5-2.1-0.7c-1.2-0.5-2.5-0.9-3.8-1.3l-4.3-1.3l-1.5-0.5l-5.9-1.8l-6-1.5l-6-1.5
		c-1.3-0.3-2.6-0.5-3.9-0.7c-0.7-0.1-1.4-0.3-2.1-0.4l-6.1-1.1c-1.4-0.2-2.9-0.4-4.4-0.5l-1.8-0.2c-7.1-1-14.7-1.3-24.7-1
		c-9.1,0.6-17.1,1.8-24.5,3.8l-0.8,0.2c-1.7,0.5-3.4,1-5.1,1.6c-1,0.4-2,0.8-2.9,1.2c-0.7,0.3-1.4,0.7-2,1l-0.7,0.4
		c-3.9,2.1-6.7,4.1-8.9,6.4c1.6-0.6,3.3-1.2,5.3-1.9l2-0.7l-0.8,2c-0.7,1.8-1.3,3.5-1.9,5.4c-0.4,1.4-0.9,2.8-1.3,4.4l-0.2,0.9
		l-0.9-0.1c-1.4-0.2-5.9-1.1-8.2-5c-2.5-4.2-1.8-10.9,2.1-19.4c6-13.2,17.1-26.3,30.5-36.1c16.4-12,35.7-18.8,56-19.8
		c5.9-0.3,12,0,18.1,0.7c3.9,0.5,7.9,1.1,11.9,2c5.3,1.2,10.2,2.7,14.8,4.4c23.7,9.2,38,25.4,46.1,38.4
		C559.6,469.2,562.8,489.8,560.6,501.5z"/>
        <path fill="#4C1D14" d="M560.6,501.5c-1.7,8.9-5,15.1-9.5,17.8c-1.7,1-3.5,1.5-5.4,1.6c-0.2,0-0.4,0-0.5,0H544l0.3-1.2
		c0.2-1.1,0.5-2.2,0.7-3.2c0.3-1.4,0.5-3,0.7-5l-0.1-2.4l1.8,1.6c0.9,0.8,1.6,1.5,2.4,2.2c-0.4-1.6-1.1-3-1.8-4.2
		c-0.9-1.7-2-3.3-3.4-5.2c-0.6-0.7-1.2-1.4-1.8-2.1l-0.3-0.3c-0.5-0.6-1.1-1.2-1.7-1.7l-0.5-0.4c-1.5-1.5-3.1-2.7-4.7-4
		c-5.8-4.5-12.6-8.6-21.1-13c0,0-6.3-3-6.6-3.1c-0.6-0.3-1.2-0.6-1.8-0.8l-2.9-1.2l-5.7-2.3c-1.2-0.5-2.5-0.9-3.8-1.4
		c-0.7-0.2-1.4-0.5-2-0.7c-0.7-0.2-1.4-0.5-2.1-0.7c-1.2-0.5-2.5-0.9-3.8-1.3l-4.3-1.3c2.7-3,19.5-4.1,25.7-23.4
		c5.1-15.9-1.4-28.3-5.9-34.4c23.7,9.2,38,25.4,46.1,38.4C559.6,469.2,562.8,489.8,560.6,501.5z"/>
        <path fill="#64301F" d="M466,364.4c1-0.4,2-0.9,2.9-1.3c0.9-0.5,1.8-1.1,2.8-1.8c0.6-0.5,1.4-1.1,2-1.8c-0.1,0.3-0.2,0.6-0.3,0.9
		c-0.2,0.5-0.5,1-0.9,1.5c-0.6,0.9-1.3,1.7-2.3,2.7c-0.6,0.6-1.3,1.2-2.1,1.7l-1.2,0.9l1.3,0.8c1.9,1.2,4.2,2.6,6.5,3.9l0.3,0.2
		c2,1.1,4,2.3,6.1,3.2c0.5,0.2,1.1,0.4,1.6,0.5l-0.1,0.7c-0.2,2-1.5,12.2-4.6,16.2c-1.2,1.5-3.8,3.5-7.5,5.7l-2.7,1.6l3.2,0.3
		c5.4,0.5,11,1.3,16.4,2.5c1.7,0.4,3.5,0.8,5.4,1.3l3.4,0.9l-2.7-3c-0.4-0.4-0.7-0.8-1.1-1.2l-0.1-0.1c-0.8-0.9-1.5-1.7-2.2-3
		l-0.2-0.3l-0.1-0.3c-0.1-0.1-0.2-0.4-0.2-0.6c-0.1-0.2-0.1-0.4-0.1-0.6l-0.1-0.6c-0.1-0.8,0-1.5,0-2c0.3-2.4,0.8-4.5,1.3-6.5
		l0.1-0.5c0.2-0.9,0.5-1.7,0.7-2.6c0.4-1.4,0.7-2.7,1.1-4c0.3-1.3,0.5-2.3,0.7-3.2c0.2-0.9,0.3-2.1,0.2-2.8v-0.4l-0.3-0.3l-0.2-0.2
		l-0.1-0.1c0,0-0.1-0.1-0.2-0.2l-0.5-0.6c-0.7-0.7-1.4-1.4-2.4-2.3c-1.3-1.2-2.7-2.4-4-3.7l-1-0.9c-1.7-1.5-3.4-3-5.1-4.6l-0.3-0.3
		c-1.6-1.5-3.2-2.9-4.7-4.7l-0.2-0.2c-0.3-0.4-0.7-0.8-1-1.2l-0.5-0.7l-0.7,0.2c-0.4,0.1-0.7,0.2-1.1,0.4c-1.8,0.9-3.6,2.6-4.7,3.8
		c-1.6,1.7-2.8,3.4-3.5,4.9c-0.2,0.4-0.3,0.7-0.4,1L462,365h1.7C464.4,364.9,465.2,364.7,466,364.4z"/>
        <g>
            <g>
                <path d="M402.6,420.3c0.2,2,0.5,3.9,0.9,5.8s0.8,3.9,1.3,5.8c0.3,1,0.5,1.9,0.7,2.9l0.8,2.8c0.6,1.9,1.2,3.7,1.9,5.6l0.5,1.4
				l0.6,1.4c0.4,0.9,0.7,1.8,1.1,2.7c0.9,1.8,1.6,3.6,2.6,5.3c1.8,3.5,3.9,6.9,6.1,10.2l-0.3,0.3c-2.9-2.8-5.6-5.9-7.8-9.3
				c-2.3-3.4-4.1-7.1-5.5-10.9c-1.5-3.8-2.6-7.7-3.2-11.7s-0.9-8.1-0.2-12.2L402.6,420.3z"/>
            </g>
            <g>
                <path d="M377.9,441.1c0.4,2.5,0.9,5,1.5,7.4c0.3,1.2,0.6,2.4,1,3.6s0.8,2.4,1.2,3.6c0.4,1.2,0.9,2.3,1.4,3.5
				c0.5,1.1,1,2.3,1.6,3.4c1.1,2.3,2.4,4.4,3.8,6.6l-0.3,0.3c-2.1-1.6-3.9-3.6-5.4-5.7c-0.4-0.5-0.8-1.1-1.1-1.6l-1-1.7
				c-0.6-1.2-1.2-2.4-1.7-3.6c-1-2.4-1.7-5-2-7.7c-0.3-2.6-0.3-5.3,0.4-8L377.9,441.1z"/>
            </g>
            <g>
                <path d="M431.5,406.1c0.2,2.5,0.6,4.9,0.9,7.4c0.4,2.5,0.8,4.9,1.3,7.3c0.9,4.9,2.2,9.7,3.5,14.5c0.6,2.4,1.5,4.7,2.2,7.1
				l1.3,3.5c0.4,1.2,0.9,2.3,1.4,3.5c0.5,1.1,0.9,2.3,1.4,3.4s1.1,2.2,1.6,3.4c0.3,0.6,0.5,1.1,0.8,1.7l0.9,1.7l1.7,3.3l-0.4,0.2
				c-3.1-4-5.9-8.2-8.1-12.8c-2.3-4.5-4.2-9.3-5.6-14.1c-1.5-4.8-2.6-9.8-3.3-14.8c-0.6-5-0.9-10.1-0.3-15.2L431.5,406.1z"/>
            </g>
            <g>
                <path d="M423.8,424.1c-2.3,0.9-4.6,1.9-6.8,3c-2.3,1-4.5,2.2-6.7,3.3c-4.4,2.3-8.7,4.8-12.9,7.5c-2.1,1.3-4.1,2.8-6.2,4.2l-3,2.2
				c-1,0.7-2,1.5-2.9,2.3c-1,0.8-1.9,1.6-2.9,2.4c-0.9,0.8-1.8,1.7-2.8,2.5c-0.5,0.4-0.9,0.8-1.4,1.2L377,454l-2.7,2.6l-0.3-0.3
				c2.9-4.1,6.2-8,9.9-11.4c3.7-3.5,7.7-6.6,11.9-9.4c4.2-2.8,8.7-5.3,13.3-7.4c4.6-2,9.4-3.7,14.5-4.6L423.8,424.1z"/>
            </g>
            <g>
                <path d="M563.1,489c-1.9-0.2-3.8-0.2-5.7-0.3c-1.9-0.1-3.8-0.1-5.7-0.2c-3.8-0.1-7.6-0.1-11.3-0.1c-3.8,0-7.6,0.2-11.3,0.3
				l-11.4,0.5v-0.4c3.7-1.1,7.5-1.8,11.3-2.3l2.8-0.4c1-0.1,1.9-0.2,2.9-0.2c1.9-0.2,3.8-0.2,5.7-0.3c3.8-0.1,7.7,0,11.5,0.4
				c1.9,0.2,3.8,0.5,5.7,0.9s3.8,0.8,5.6,1.6L563.1,489z"/>
            </g>
            <g>
                <path d="M516,416.5c-5.1,0.6-10.3,1.4-15.4,2.3c-5.1,0.8-10.2,1.8-15.3,2.8c-10.2,2.1-20.2,4.7-30.1,7.8c-5,1.5-9.9,3.2-14.7,5
				c-4.8,1.9-9.6,3.9-14.2,6.2c-4.6,2.3-9.2,4.8-13.5,7.6c-4.3,2.8-8.5,5.9-12.4,9.4l-0.3-0.3c3.5-3.8,7.6-7.2,11.8-10.3
				c4.2-3.1,8.8-5.8,13.4-8.3c2.3-1.3,4.7-2.4,7-3.6c2.4-1.1,4.8-2.2,7.2-3.1c4.8-2,9.8-3.8,14.8-5.3c10-3.2,20.2-5.6,30.5-7.5
				c10.3-1.8,20.7-3,31.1-3.2L516,416.5z"/>
            </g>
            <g>
                <path d="M542.9,441c-4.6-0.6-9.3-0.7-13.9-0.6c-2.3,0-4.7,0.2-7,0.2c-2.3,0.1-4.6,0.4-7,0.5l-6.9,0.8c-2.3,0.3-4.6,0.7-6.9,1
				s-4.6,0.8-6.9,1.3l-3.4,0.6l-3.4,0.7l-6.8,1.5l-6.8,1.7l-3.4,0.9l-3.4,1l-6.7,2c-4.5,1.4-8.9,2.9-13.3,4.3l-13.2,4.7l-0.2-0.4
				c4.2-2,8.5-3.9,12.8-5.8c2.2-0.9,4.4-1.7,6.6-2.5s4.4-1.7,6.6-2.4c4.5-1.5,8.9-3.1,13.4-4.3c2.3-0.6,4.5-1.3,6.8-1.9l6.9-1.6
				c9.2-2.1,18.6-3.5,28-4.1c2.4-0.1,4.7-0.2,7.1-0.3c2.4,0,4.7,0,7.1,0.1c2.4,0.1,4.7,0.3,7.1,0.6c1.2,0.2,2.3,0.3,3.5,0.5
				s2.3,0.4,3.5,0.8L542.9,441z"/>
            </g>
            <g>
                <path d="M559.4,466.8c-2.6-0.3-5.2-0.4-7.8-0.5s-5.2-0.2-7.8-0.2c-5.2-0.1-10.4,0.1-15.6,0.3c-5.2,0.3-10.4,0.7-15.6,1.3
				c-5.2,0.6-10.3,1.4-15.5,2.3l-0.1-0.4c5-1.7,10.1-3.2,15.3-4.1c1.3-0.2,2.6-0.5,3.9-0.7l3.9-0.5c2.6-0.4,5.3-0.6,7.9-0.8
				c5.3-0.4,10.6-0.4,15.9,0c5.3,0.4,10.5,1.1,15.7,2.6L559.4,466.8z"/>
            </g>
            <g>
                <path d="M475.4,468.5c-0.1-2.8-0.2-5.7-0.5-8.5l-0.4-4.3l-0.5-4.2c-0.6-5.7-1.5-11.3-2.6-16.9c-0.5-2.8-1.2-5.6-1.8-8.3
				c-0.3-1.4-0.7-2.8-1.1-4.1l-0.5-2.1l-0.6-2l-1.2-4.1c-0.5-1.3-0.9-2.7-1.4-4l-0.7-2l-0.8-2l-1.5-4l0.4-0.2
				c2.9,5,5.5,10.2,7.4,15.6c2,5.4,3.6,11,4.7,16.7c1.2,5.7,2,11.4,2.3,17.2c0.3,5.8,0.2,11.6-0.7,17.3L475.4,468.5z"/>
            </g>
            <g>
                <path d="M514,483.5c0.2-3.1,0.2-6.2,0.2-9.3l-0.1-4.6l-0.2-4.6c-0.3-6.2-0.9-12.3-1.7-18.4c-0.4-3.1-1-6.1-1.5-9.1l-1-4.5
				l-0.5-2.3l-0.6-2.2c-0.4-1.5-0.7-3-1.1-4.5s-0.9-2.9-1.3-4.4c-0.2-0.7-0.4-1.5-0.7-2.2l-0.8-2.2l-1.5-4.4l0.4-0.2
				c2.9,5.5,5.4,11.3,7.2,17.3c1.9,6,3.3,12.1,4.2,18.3c1,6.2,1.4,12.5,1.4,18.7c0,6.3-0.5,12.5-1.9,18.7L514,483.5z"/>
            </g>
            <g>
                <path d="M542.2,504.1c0.5-3,0.7-6,1-9.1c0.1-1.5,0.2-3,0.3-4.6c0-1.5,0.1-3,0.1-4.6l0.1-4.6l-0.1-4.6c-0.1-3-0.3-6.1-0.5-9.1
				s-0.6-6-1-9.1l-0.7-4.5c-0.2-1.5-0.5-3-0.8-4.5s-0.6-3-1-4.5s-0.8-2.9-1.1-4.4c-0.2-0.7-0.4-1.5-0.6-2.2l-0.7-2.2l-1.4-4.4
				l0.4-0.2c2.7,5.5,5,11.3,6.5,17.3c1.7,6,2.7,12.1,3.3,18.3c0.6,6.2,0.7,12.4,0.2,18.6c-0.1,1.5-0.3,3.1-0.5,4.6s-0.5,3.1-0.7,4.6
				c-0.3,1.5-0.6,3-1,4.5c-0.3,1.5-0.8,3-1.3,4.5L542.2,504.1z"/>
            </g>
        </g>
        <path fill="#D65A05" d="M542.3,506.5v0.5c0,0.5-0.1,1-0.1,1.5c-0.1,0.8-0.2,1.6-0.3,2.4c-0.3,1.8-0.5,3.3-0.8,4.8
		c-0.6,3-1.4,6.1-2.5,9.4c-1.9,6-4.5,12-7.7,17.9c-3.1,5.7-6.7,11.1-10.8,16.2c-4,5-8.5,9.8-13.4,14.2c-5.1,4.6-10.3,8.7-15.3,12.1
		c-1.2,0.8-2.4,1.6-3.5,2.3l-0.5,0.3c-0.5,0.3-1,0.6-1.4,0.8c-0.9,0.5-1.9,1.1-2.8,1.6c-2.4,1.4-5.2,2.8-8.7,4.3
		c-2.8,1.2-5.9,2.3-9.1,3.1c-3,0.8-6.1,1.4-9.4,1.8c-1.8,0.2-3.5,0.3-5,0.4c-1.6,0.1-3.1,0.1-4.6,0c-3.2-0.1-6.1-0.4-8.7-1
		c1.1,0.7,2.2,1.2,3.5,1.8c0.3,0.1,0.7,0.3,1,0.4l1.3,0.5l-0.9,1.1c-0.7,0.9-1.4,1.6-2.1,2.2c-1.3,1.1-2.6,1.9-3.9,2.1
		c-0.2,0-0.4,0-0.5,0.1c-0.9,0-1.8-0.2-2.5-0.7c0.3-0.2,0.5-0.5,0.9-0.6c7.3-4.5,1.2-5.8,0.6-7.8s0.8-3.9,14.7-6.7
		c14-2.8,33-19.3,46.2-43.6s13.3-35.3-12.1-53.6c-25.4-18.3-97.6-23-97.6-23l0.1-1.1c0.1,0,0.3-0.1,0.4-0.1c1-0.3,2-0.5,2.9-0.8
		c1.4-0.5,2.9-0.8,4.4-1.2l1.4-0.3c6.6-1.6,13.6-2.5,21.5-2.9c0.7,0,1.4-0.1,2.1-0.1c15.2-0.1,31.2,2,47.4,6.2
		c16.3,4.2,31.6,9.5,45.3,15.9c8.4,4.1,14.9,7.9,20.6,12.1l1,0.8c2.8,2.1,5.7,4.3,8.5,6.5L542.3,506.5z"/>
        <path d="M506.5,407.8c0,0-7.7-7.2-10.5-10.3c-0.7-0.8-1.4-1.6-1.7-2.2l-0.1-0.1l0,0l0,0l0,0l0,0l0,0c0,0,0,0,0-0.1v-0.2
		c0-0.3,0-0.7,0-1.2c0.2-1.9,0.7-4.1,1.3-6.2c0.6-2.2,1.2-4.4,1.7-6.7c0.3-1.2,0.5-2.3,0.7-3.6c0.2-1.3,0.4-2.5,0.2-4.3
		c0-0.2-0.1-0.5-0.1-0.7c-0.1-0.3-0.2-0.6-0.3-0.8c-0.1-0.3-0.3-0.7-0.5-0.9L497,370l-0.4-0.5c-0.1-0.2-0.2-0.3-0.3-0.4l-0.7-0.7
		c-0.9-0.9-1.7-1.7-2.6-2.5c-1.7-1.6-3.4-3.1-5.1-4.6s-3.4-3-5.1-4.5c-1.6-1.5-3.3-3-4.7-4.6c-0.3-0.4-0.7-0.8-0.9-1.1l-0.2-0.3
		l-0.2-0.3l-0.3-0.4c-0.2-0.3-0.5-0.5-0.8-0.7s-0.6-0.4-0.9-0.5c-1.3-0.6-2.5-0.5-3.3-0.3c-0.9,0.2-1.6,0.4-2.3,0.7
		c-2.6,1.2-4.5,2.8-6.4,4.6c-0.9,0.9-1.7,1.9-2.5,2.9c-0.8,1.1-1.5,2.2-2,3.6c-0.3,0.7-0.5,1.5-0.6,2.4s-0.1,2,0.4,3.2
		c0.1,0.3,0.3,0.6,0.4,0.8c0.2,0.3,0.3,0.5,0.6,0.7c0.2,0.2,0.5,0.5,0.7,0.6c0.3,0.2,0.5,0.4,0.8,0.5c0.7,0.3,1.4,0.5,2,0.5
		c3.7,1.6,7.4,3.2,11.1,4.6c1.6,0.6,3.2,1.2,4.9,1.7c-0.2,2.1-0.7,5.1-1.3,7.9c-0.7,2.8-1.5,5.3-2.5,6.6c-1.9,2.4-8.9,6.3-13.8,8.6
		c-18.4,0.1-35.9,4.5-51.9,13.3c-19.4,10.7-35.3,27.3-43.8,45.6c-4.7,10.3-5.3,18.4-1.9,24.2c3.1,5.2,8.6,6.8,11.2,7.3
		c-0.1,0.2-0.1,0.4-0.1,0.6c-0.8,3.7-1.5,7.4-2,11.2c-0.5,3.8-0.8,7.5-0.9,11.3c-0.3,7.6,0.2,15.3,1.7,22.8s4.1,14.9,7.7,21.7
		c3.7,6.7,7.8,13,12.4,19s9.9,11.6,15.7,16.5c2.9,2.5,6,4.8,9.2,6.9l4.7,3c0.7,0.5,1.5,1,2.1,1.5c0.6,0.4,1.1,0.9,1.2,1.1l0,0l0,0
		l0,0l0,0l0.1,0.2l0.1,0.5c0.2,0.6,0.5,1.2,0.8,1.7c0.6,1.1,1.4,2.1,2.4,3c1,0.8,2.2,1.5,3.6,1.9c1.3,0.4,2.8,0.5,4.1,0.2
		c2.7-0.5,4.7-1.8,6.4-3.3c1.7-1.5,3-3.1,4.1-4.8c0-0.1,0.1-0.1,0.1-0.2c2.7,0.4,5.4,0.6,8.1,0.5c3.5-0.1,7-0.7,10.3-1.5
		c3.4-0.8,6.7-1.8,9.9-3.1c6.4-2.5,12.5-5.8,18.1-9.6c5.7-3.8,11-8,16-12.6s9.6-9.6,13.8-15s8-11.1,11.2-17.1s5.9-12.3,7.8-18.9
		c0.1-0.2,0.1-0.5,0.2-0.7c0.7,0.1,1.5,0.1,2.3,0.1c2.2-0.1,4.8-0.6,7.5-2.2c6-3.5,10.1-10.6,12.1-21.3
		C570.3,477.6,553.3,427.9,506.5,407.8z M472.2,354L472.2,354C472.3,354.1,472.3,354.1,472.2,354C472.3,354,472.3,354,472.2,354
		L472.2,354z M478.8,393.3c3.3-4.2,4.6-14.3,4.8-16.7c0.4,0,0.8,0,1.1,0c1.3-0.1,2.5-0.3,3.7-0.8c0.2-0.1,0.4-0.3,0.3-0.6
		c-0.1-0.3-0.3-0.4-0.6-0.4H488c-1,0.3-2.2,0.3-3.4,0.2c-1.1-0.1-2.3-0.3-3.3-0.7c-2.1-0.9-4.2-2.1-6.3-3.3
		c-2.2-1.3-4.3-2.6-6.5-3.9c0.8-0.6,1.5-1.2,2.2-1.8c0.9-0.9,1.7-1.8,2.4-2.9c0.4-0.5,0.7-1.1,1-1.7s0.5-1.3,0.5-2.1
		c0-0.3-0.1-0.5-0.4-0.7c-0.4-0.2-0.9-0.1-1.1,0.2l-0.1,0.2c-0.4,0.6-1.2,1.4-2.1,2c-0.8,0.6-1.7,1.2-2.7,1.7
		c-0.9,0.5-1.8,1-2.7,1.3c-0.8,0.3-1.6,0.5-2.1,0.5l0,0c0.1-0.2,0.2-0.5,0.3-0.9c0.7-1.5,2-3.1,3.3-4.6s3-2.9,4.5-3.6
		c0.3-0.2,0.6-0.3,0.9-0.3l0.1,0.1c0.4,0.6,0.8,1.1,1.3,1.5c1.7,1.9,3.4,3.4,5.1,5s3.4,3.1,5.1,4.6s3.4,3,5,4.5
		c0.8,0.8,1.6,1.5,2.3,2.3l0.5,0.5c0.1,0.1,0.2,0.2,0.2,0.3l0.1,0.2l0.1,0.1v0.1c0.1,0.5,0,1.6-0.2,2.5c-0.2,1-0.4,2.1-0.7,3.1
		c-0.5,2.1-1.1,4.3-1.7,6.6c-0.6,2.3-1.2,4.5-1.5,7.2c-0.1,0.7-0.1,1.4,0,2.2l0.1,0.6c0,0.2,0.1,0.5,0.2,0.7c0,0.2,0.2,0.6,0.3,0.8
		l0.1,0.2l0.2,0.4c0.8,1.4,1.6,2.3,2.4,3.3c0.5,0.6,1,1.1,1.5,1.6c-1.8-0.5-3.6-0.9-5.5-1.4c-5.6-1.2-11.1-2.1-16.6-2.5
		C474.1,397.3,477.3,395.1,478.8,393.3z M541.2,508.4c-0.1,0.8-0.2,1.6-0.3,2.3c-0.2,1.6-0.5,3.1-0.8,4.7c-0.6,3.1-1.5,6.2-2.5,9.3
		c-1.9,6.1-4.5,12-7.6,17.7c-3.1,5.6-6.7,11-10.7,16.1c-4,5-8.5,9.7-13.3,14.1c-4.8,4.3-9.9,8.4-15.2,12c-1.3,0.9-2.7,1.8-4.1,2.6
		s-2.7,1.7-4.2,2.4c-2.8,1.6-5.7,3-8.6,4.2c-2.9,1.3-5.9,2.3-9,3.1c-3,0.8-6.2,1.4-9.3,1.8c-3.1,0.4-6.3,0.6-9.4,0.4
		c-3.1-0.1-6.4-0.4-9.4-1.2h-0.1c-0.3-0.1-0.6,0-0.8,0.3c-0.3,0.3-0.2,0.8,0.1,1.1c1.5,1.1,3,1.8,4.6,2.6c0.4,0.2,0.7,0.3,1.1,0.4
		c-0.6,0.8-1.3,1.5-1.9,2.1c-1.1,1-2.3,1.6-3.4,1.8c-1,0.2-1.9-0.1-2.7-0.8c-0.4-0.4-0.8-0.8-1.1-1.3c-0.1-0.3-0.2-0.5-0.3-0.8
		l-0.2-0.6c-0.2-0.5-0.4-0.9-0.6-1.3c-0.9-1.4-1.9-2.1-2.7-2.7c-0.8-0.6-1.6-1.2-2.4-1.7l-4.6-3c-3-2-5.9-4.1-8.6-6.5
		c-11-9.2-19.7-21.1-26.7-33.7c-3.4-6.2-5.7-13-7.1-20s-1.9-14.2-1.6-21.4c0.2-7.2,1.2-14.4,2.7-21.5c0.8-3.5,1.7-7.1,2.7-10.5
		c0.9-3.1,2-6.3,3.2-9.3c0.3-0.1,0.6-0.2,0.8-0.3c1-0.3,1.9-0.5,2.8-0.8c1.9-0.6,3.8-1,5.7-1.5c7.6-1.8,15.5-2.7,23.4-2.9
		c15.8-0.1,31.7,2.1,47.1,6.2c15.5,4,30.7,9.2,45.1,15.8c7.1,3.5,14.1,7.3,20.4,12c3.2,2.4,6.4,4.8,9.5,7.3
		C541.3,507.4,541.2,507.9,541.2,508.4z M559.6,501.3c-1.6,8.6-4.8,14.6-9.1,17.1c-2,1.2-3.9,1.5-5.4,1.5c0.2-1.1,0.5-2.2,0.7-3.3
		c0.3-1.7,0.5-3.4,0.7-5.1c0-0.1,0-0.1,0-0.2c1.2,1,2.3,2.1,3.5,3.3l0.1,0.1c0.1,0.1,0.3,0.2,0.4,0.1c0.3,0,0.5-0.3,0.4-0.6
		c-0.4-2.2-1.2-4.2-2.2-6.1s-2.2-3.7-3.5-5.4c-0.7-0.8-1.4-1.6-2.1-2.4c-0.7-0.8-1.5-1.5-2.2-2.2c-1.5-1.5-3.2-2.8-4.8-4.1
		c-6.7-5.1-13.9-9.3-21.3-13.1l-5.6-2.7c-0.9-0.4-1.9-0.9-2.8-1.3l-2.9-1.2l-5.7-2.4c-1.9-0.8-3.9-1.4-5.8-2.1s-3.9-1.4-5.8-2.1
		l-5.9-1.8l-5.9-1.8l-6-1.5l-6-1.5c-2-0.4-4.1-0.8-6.1-1.1l-6.1-1.1c-2.1-0.3-4.1-0.5-6.2-0.8c-8.2-1.1-16.6-1.2-24.9-1
		c-8.3,0.5-16.6,1.6-24.7,3.8c-2,0.6-4.1,1.1-6,1.9c-1,0.4-2,0.8-2.9,1.2c-1,0.4-1.9,0.9-2.8,1.4c-3.7,2-7.3,4.3-10.1,7.7
		c-0.2,0.2-0.2,0.4-0.1,0.7c0.1,0.4,0.5,0.5,0.9,0.4h0.1c2.1-0.8,4.2-1.6,6.4-2.3c-0.7,1.8-1.3,3.6-1.9,5.4c-0.5,1.5-0.9,3-1.3,4.4
		c-1.3-0.2-5.4-1-7.5-4.5c-2.3-3.9-1.6-10.3,2.2-18.5c13.1-28.5,54.6-66,115.3-52.6c32.5,7.1,50.7,27,60.3,42.4
		C558.6,469.5,561.8,489.8,559.6,501.3z"/>
    </g>
</svg>
