<svg xmlns="http://www.w3.org/2000/svg" viewBox="0 0 1000 1000">
    <g class="Ball--group">
        <path fill="#F57610" d="M542.3 506.5v.5c0 .5-.1 1-.1 1.5l-.3 2.4c-.3 1.8-.5 3.3-.8 4.8-.6 3-1.4 6.1-2.5 9.4-1.9 6-4.5 12-7.7 17.9-3.1 5.7-6.7 11.1-10.8 16.2-4 5-8.5 9.8-13.4 14.2-5.1 4.6-10.3 8.7-15.3 12.1-1.2.8-2.4 1.6-3.5 2.3l-.5.3c-.5.3-1 .6-1.4.8-.9.5-1.9 1.1-2.8 1.6-2.4 1.4-5.2 2.8-8.7 4.3-2.8 1.2-5.9 2.3-9.1 3.1-3 .8-6.1 1.4-9.4 1.8-1.8.2-3.5.3-5 .4-1.6.1-3.1.1-4.6 0-3.2-.1-6.1-.4-8.7-1 1.1.7 2.2 1.2 3.5 1.8.3.1.7.3 1 .4l1.3.5-.9 1.1c-.7.9-1.4 1.6-2.1 2.2-1.3 1.1-2.6 1.9-3.9 2.1-.2 0-.4 0-.5.1-.9 0-1.8-.2-2.5-.7-.2-.1-.3-.2-.5-.3-.6-.5-1-1-1.3-1.6-.2-.3-.3-.6-.4-.9l-.2-.7c-.1-.4-.3-.7-.5-1.1-.7-1.1-1.5-1.7-2.2-2.3l-.2-.2c-.8-.6-1.5-1.1-2.4-1.7l-4.6-3c-3.2-2.1-6-4.3-8.7-6.5-10-8.4-19-19.8-27-34-3.4-6.2-5.8-13-7.2-20.3-1.4-6.8-1.9-14-1.7-21.6.2-6.9 1.1-14.2 2.7-21.6.8-3.6 1.7-7.2 2.7-10.6s2.1-6.6 3.2-9.4l.2-.4.6-.2c.1 0 .2 0 .2-.1.1 0 .3-.1.4-.1 1-.3 2-.5 2.9-.8 1.4-.5 2.9-.8 4.4-1.2l1.4-.3c6.6-1.6 13.6-2.5 21.5-2.9.7 0 1.4-.1 2.1-.1 15.2-.1 31.2 2 47.4 6.2 16.3 4.2 31.6 9.5 45.3 15.9 8.4 4.1 14.9 7.9 20.6 12.1l1 .8c2.8 2.1 5.7 4.3 8.5 6.5l.5.3z"/>
        <path fill="#64301F" d="M560.6 501.5c-1.7 8.9-5 15.1-9.5 17.8-1.7 1-3.5 1.5-5.4 1.6H544l.3-1.2c.2-1.1.5-2.2.7-3.2.3-1.4.5-3 .7-5l-.1-2.4 1.8 1.6c.9.8 1.6 1.5 2.4 2.2-.4-1.6-1.1-3-1.8-4.2-.9-1.7-2-3.3-3.4-5.2l-1.8-2.1-.3-.3c-.5-.6-1.1-1.2-1.7-1.7l-.5-.4c-1.5-1.5-3.1-2.7-4.7-4-5.8-4.5-12.6-8.6-21.1-13 0 0-6.3-3-6.6-3.1-.6-.3-1.2-.6-1.8-.8l-2.9-1.2-5.7-2.3c-1.2-.5-2.5-.9-3.8-1.4-.7-.2-1.4-.5-2-.7-.7-.2-1.4-.5-2.1-.7-1.2-.5-2.5-.9-3.8-1.3l-4.3-1.3-1.5-.5-5.9-1.8-6-1.5-6-1.5c-1.3-.3-2.6-.5-3.9-.7-.7-.1-1.4-.3-2.1-.4l-6.1-1.1c-1.4-.2-2.9-.4-4.4-.5l-1.8-.2c-7.1-1-14.7-1.3-24.7-1-9.1.6-17.1 1.8-24.5 3.8l-.8.2c-1.7.5-3.4 1-5.1 1.6-1 .4-2 .8-2.9 1.2-.7.3-1.4.7-2 1l-.7.4c-3.9 2.1-6.7 4.1-8.9 6.4 1.6-.6 3.3-1.2 5.3-1.9l2-.7-.8 2c-.7 1.8-1.3 3.5-1.9 5.4-.4 1.4-.9 2.8-1.3 4.4l-.2.9-.9-.1c-1.4-.2-5.9-1.1-8.2-5-2.5-4.2-1.8-10.9 2.1-19.4 6-13.2 17.1-26.3 30.5-36.1 16.4-12 35.7-18.8 56-19.8 5.9-.3 12 0 18.1.7 3.9.5 7.9 1.1 11.9 2 5.3 1.2 10.2 2.7 14.8 4.4 23.7 9.2 38 25.4 46.1 38.4 11.9 19.4 15.1 40 12.9 51.7z"/>
        <path fill="#4C1D14" d="M560.6 501.5c-1.7 8.9-5 15.1-9.5 17.8-1.7 1-3.5 1.5-5.4 1.6H544l.3-1.2c.2-1.1.5-2.2.7-3.2.3-1.4.5-3 .7-5l-.1-2.4 1.8 1.6c.9.8 1.6 1.5 2.4 2.2-.4-1.6-1.1-3-1.8-4.2-.9-1.7-2-3.3-3.4-5.2l-1.8-2.1-.3-.3c-.5-.6-1.1-1.2-1.7-1.7l-.5-.4c-1.5-1.5-3.1-2.7-4.7-4-5.8-4.5-12.6-8.6-21.1-13 0 0-6.3-3-6.6-3.1-.6-.3-1.2-.6-1.8-.8l-2.9-1.2-5.7-2.3c-1.2-.5-2.5-.9-3.8-1.4-.7-.2-1.4-.5-2-.7-.7-.2-1.4-.5-2.1-.7-1.2-.5-2.5-.9-3.8-1.3l-4.3-1.3c2.7-3 19.5-4.1 25.7-23.4 5.1-15.9-1.4-28.3-5.9-34.4 23.7 9.2 38 25.4 46.1 38.4 12.2 19.4 15.4 40 13.2 51.7z"/>
        <path fill="#64301F" d="M466 364.4c1-.4 2-.9 2.9-1.3.9-.5 1.8-1.1 2.8-1.8.6-.5 1.4-1.1 2-1.8l-.3.9c-.2.5-.5 1-.9 1.5-.6.9-1.3 1.7-2.3 2.7-.6.6-1.3 1.2-2.1 1.7l-1.2.9 1.3.8c1.9 1.2 4.2 2.6 6.5 3.9l.3.2c2 1.1 4 2.3 6.1 3.2.5.2 1.1.4 1.6.5l-.1.7c-.2 2-1.5 12.2-4.6 16.2-1.2 1.5-3.8 3.5-7.5 5.7l-2.7 1.6 3.2.3c5.4.5 11 1.3 16.4 2.5 1.7.4 3.5.8 5.4 1.3l3.4.9-2.7-3c-.4-.4-.7-.8-1.1-1.2l-.1-.1c-.8-.9-1.5-1.7-2.2-3l-.2-.3-.1-.3c-.1-.1-.2-.4-.2-.6-.1-.2-.1-.4-.1-.6l-.1-.6c-.1-.8 0-1.5 0-2 .3-2.4.8-4.5 1.3-6.5l.1-.5c.2-.9.5-1.7.7-2.6.4-1.4.7-2.7 1.1-4 .3-1.3.5-2.3.7-3.2.2-.9.3-2.1.2-2.8v-.4l-.3-.3-.2-.2-.1-.1-.2-.2-.5-.6c-.7-.7-1.4-1.4-2.4-2.3-1.3-1.2-2.7-2.4-4-3.7l-1-.9c-1.7-1.5-3.4-3-5.1-4.6l-.3-.3c-1.6-1.5-3.2-2.9-4.7-4.7l-.2-.2c-.3-.4-.7-.8-1-1.2l-.5-.7-.7.2c-.4.1-.7.2-1.1.4-1.8.9-3.6 2.6-4.7 3.8-1.6 1.7-2.8 3.4-3.5 4.9-.2.4-.3.7-.4 1l-.6 1.4h1.7c.7-.1 1.5-.3 2.3-.6z"/>
        <path d="M402.6 420.3c.2 2 .5 3.9.9 5.8s.8 3.9 1.3 5.8c.3 1 .5 1.9.7 2.9l.8 2.8c.6 1.9 1.2 3.7 1.9 5.6l.5 1.4.6 1.4c.4.9.7 1.8 1.1 2.7.9 1.8 1.6 3.6 2.6 5.3 1.8 3.5 3.9 6.9 6.1 10.2l-.3.3c-2.9-2.8-5.6-5.9-7.8-9.3-2.3-3.4-4.1-7.1-5.5-10.9-1.5-3.8-2.6-7.7-3.2-11.7s-.9-8.1-.2-12.2l.5-.1zM377.9 441.1c.4 2.5.9 5 1.5 7.4.3 1.2.6 2.4 1 3.6l1.2 3.6c.4 1.2.9 2.3 1.4 3.5.5 1.1 1 2.3 1.6 3.4 1.1 2.3 2.4 4.4 3.8 6.6l-.3.3c-2.1-1.6-3.9-3.6-5.4-5.7-.4-.5-.8-1.1-1.1-1.6l-1-1.7c-.6-1.2-1.2-2.4-1.7-3.6-1-2.4-1.7-5-2-7.7-.3-2.6-.3-5.3.4-8l.6-.1zM431.5 406.1c.2 2.5.6 4.9.9 7.4.4 2.5.8 4.9 1.3 7.3.9 4.9 2.2 9.7 3.5 14.5.6 2.4 1.5 4.7 2.2 7.1l1.3 3.5c.4 1.2.9 2.3 1.4 3.5.5 1.1.9 2.3 1.4 3.4s1.1 2.2 1.6 3.4c.3.6.5 1.1.8 1.7l.9 1.7 1.7 3.3-.4.2c-3.1-4-5.9-8.2-8.1-12.8-2.3-4.5-4.2-9.3-5.6-14.1-1.5-4.8-2.6-9.8-3.3-14.8-.6-5-.9-10.1-.3-15.2l.7-.1z"/>
        <path d="M423.8 424.1c-2.3.9-4.6 1.9-6.8 3-2.3 1-4.5 2.2-6.7 3.3-4.4 2.3-8.7 4.8-12.9 7.5-2.1 1.3-4.1 2.8-6.2 4.2l-3 2.2c-1 .7-2 1.5-2.9 2.3-1 .8-1.9 1.6-2.9 2.4-.9.8-1.8 1.7-2.8 2.5-.5.4-.9.8-1.4 1.2L377 454l-2.7 2.6-.3-.3c2.9-4.1 6.2-8 9.9-11.4 3.7-3.5 7.7-6.6 11.9-9.4 4.2-2.8 8.7-5.3 13.3-7.4 4.6-2 9.4-3.7 14.5-4.6l.2.6zM563.1 489c-1.9-.2-3.8-.2-5.7-.3-1.9-.1-3.8-.1-5.7-.2-3.8-.1-7.6-.1-11.3-.1-3.8 0-7.6.2-11.3.3l-11.4.5v-.4c3.7-1.1 7.5-1.8 11.3-2.3l2.8-.4c1-.1 1.9-.2 2.9-.2 1.9-.2 3.8-.2 5.7-.3 3.8-.1 7.7 0 11.5.4 1.9.2 3.8.5 5.7.9s3.8.8 5.6 1.6l-.1.5zM516 416.5c-5.1.6-10.3 1.4-15.4 2.3-5.1.8-10.2 1.8-15.3 2.8-10.2 2.1-20.2 4.7-30.1 7.8-5 1.5-9.9 3.2-14.7 5-4.8 1.9-9.6 3.9-14.2 6.2-4.6 2.3-9.2 4.8-13.5 7.6-4.3 2.8-8.5 5.9-12.4 9.4l-.3-.3c3.5-3.8 7.6-7.2 11.8-10.3 4.2-3.1 8.8-5.8 13.4-8.3 2.3-1.3 4.7-2.4 7-3.6 2.4-1.1 4.8-2.2 7.2-3.1 4.8-2 9.8-3.8 14.8-5.3 10-3.2 20.2-5.6 30.5-7.5 10.3-1.8 20.7-3 31.1-3.2l.1.5zM542.9 441c-4.6-.6-9.3-.7-13.9-.6-2.3 0-4.7.2-7 .2-2.3.1-4.6.4-7 .5l-6.9.8c-2.3.3-4.6.7-6.9 1s-4.6.8-6.9 1.3l-3.4.6-3.4.7-6.8 1.5-6.8 1.7-3.4.9-3.4 1-6.7 2c-4.5 1.4-8.9 2.9-13.3 4.3l-13.2 4.7-.2-.4c4.2-2 8.5-3.9 12.8-5.8 2.2-.9 4.4-1.7 6.6-2.5s4.4-1.7 6.6-2.4c4.5-1.5 8.9-3.1 13.4-4.3 2.3-.6 4.5-1.3 6.8-1.9l6.9-1.6c9.2-2.1 18.6-3.5 28-4.1 2.4-.1 4.7-.2 7.1-.3 2.4 0 4.7 0 7.1.1 2.4.1 4.7.3 7.1.6 1.2.2 2.3.3 3.5.5s2.3.4 3.5.8l-.2.7zM559.4 466.8c-2.6-.3-5.2-.4-7.8-.5s-5.2-.2-7.8-.2c-5.2-.1-10.4.1-15.6.3-5.2.3-10.4.7-15.6 1.3-5.2.6-10.3 1.4-15.5 2.3l-.1-.4c5-1.7 10.1-3.2 15.3-4.1 1.3-.2 2.6-.5 3.9-.7l3.9-.5c2.6-.4 5.3-.6 7.9-.8 5.3-.4 10.6-.4 15.9 0 5.3.4 10.5 1.1 15.7 2.6l-.2.7z"/>
        <path d="M475.4 468.5c-.1-2.8-.2-5.7-.5-8.5l-.4-4.3-.5-4.2c-.6-5.7-1.5-11.3-2.6-16.9-.5-2.8-1.2-5.6-1.8-8.3-.3-1.4-.7-2.8-1.1-4.1l-.5-2.1-.6-2-1.2-4.1c-.5-1.3-.9-2.7-1.4-4l-.7-2-.8-2-1.5-4 .4-.2c2.9 5 5.5 10.2 7.4 15.6 2 5.4 3.6 11 4.7 16.7 1.2 5.7 2 11.4 2.3 17.2.3 5.8.2 11.6-.7 17.3l-.5-.1zM514 483.5c.2-3.1.2-6.2.2-9.3l-.1-4.6-.2-4.6c-.3-6.2-.9-12.3-1.7-18.4-.4-3.1-1-6.1-1.5-9.1l-1-4.5-.5-2.3-.6-2.2c-.4-1.5-.7-3-1.1-4.5s-.9-2.9-1.3-4.4c-.2-.7-.4-1.5-.7-2.2l-.8-2.2-1.5-4.4.4-.2c2.9 5.5 5.4 11.3 7.2 17.3 1.9 6 3.3 12.1 4.2 18.3 1 6.2 1.4 12.5 1.4 18.7 0 6.3-.5 12.5-1.9 18.7l-.5-.1zM542.2 504.1c.5-3 .7-6 1-9.1.1-1.5.2-3 .3-4.6 0-1.5.1-3 .1-4.6l.1-4.6-.1-4.6c-.1-3-.3-6.1-.5-9.1s-.6-6-1-9.1l-.7-4.5c-.2-1.5-.5-3-.8-4.5s-.6-3-1-4.5-.8-2.9-1.1-4.4c-.2-.7-.4-1.5-.6-2.2l-.7-2.2-1.4-4.4.4-.2c2.7 5.5 5 11.3 6.5 17.3 1.7 6 2.7 12.1 3.3 18.3.6 6.2.7 12.4.2 18.6-.1 1.5-.3 3.1-.5 4.6s-.5 3.1-.7 4.6c-.3 1.5-.6 3-1 4.5-.3 1.5-.8 3-1.3 4.5l-.5.2z"/>
        <path fill="#D65A05" d="M542.3 506.5v.5c0 .5-.1 1-.1 1.5l-.3 2.4c-.3 1.8-.5 3.3-.8 4.8-.6 3-1.4 6.1-2.5 9.4-1.9 6-4.5 12-7.7 17.9-3.1 5.7-6.7 11.1-10.8 16.2-4 5-8.5 9.8-13.4 14.2-5.1 4.6-10.3 8.7-15.3 12.1-1.2.8-2.4 1.6-3.5 2.3l-.5.3c-.5.3-1 .6-1.4.8-.9.5-1.9 1.1-2.8 1.6-2.4 1.4-5.2 2.8-8.7 4.3-2.8 1.2-5.9 2.3-9.1 3.1-3 .8-6.1 1.4-9.4 1.8-1.8.2-3.5.3-5 .4-1.6.1-3.1.1-4.6 0-3.2-.1-6.1-.4-8.7-1 1.1.7 2.2 1.2 3.5 1.8.3.1.7.3 1 .4l1.3.5-.9 1.1c-.7.9-1.4 1.6-2.1 2.2-1.3 1.1-2.6 1.9-3.9 2.1-.2 0-.4 0-.5.1-.9 0-1.8-.2-2.5-.7.3-.2.5-.5.9-.6 7.3-4.5 1.2-5.8.6-7.8s.8-3.9 14.7-6.7c14-2.8 33-19.3 46.2-43.6s13.3-35.3-12.1-53.6c-25.4-18.3-97.6-23-97.6-23l.1-1.1c.1 0 .3-.1.4-.1 1-.3 2-.5 2.9-.8 1.4-.5 2.9-.8 4.4-1.2l1.4-.3c6.6-1.6 13.6-2.5 21.5-2.9.7 0 1.4-.1 2.1-.1 15.2-.1 31.2 2 47.4 6.2 16.3 4.2 31.6 9.5 45.3 15.9 8.4 4.1 14.9 7.9 20.6 12.1l1 .8c2.8 2.1 5.7 4.3 8.5 6.5l.4.2z"/>
        <path d="M506.5 407.8s-7.7-7.2-10.5-10.3c-.7-.8-1.4-1.6-1.7-2.2l-.1-.1v-1.5c.2-1.9.7-4.1 1.3-6.2.6-2.2 1.2-4.4 1.7-6.7.3-1.2.5-2.3.7-3.6.2-1.3.4-2.5.2-4.3 0-.2-.1-.5-.1-.7-.1-.3-.2-.6-.3-.8-.1-.3-.3-.7-.5-.9l-.2-.5-.4-.5c-.1-.2-.2-.3-.3-.4l-.7-.7c-.9-.9-1.7-1.7-2.6-2.5-1.7-1.6-3.4-3.1-5.1-4.6l-5.1-4.5c-1.6-1.5-3.3-3-4.7-4.6-.3-.4-.7-.8-.9-1.1l-.2-.3-.2-.3-.3-.4c-.2-.3-.5-.5-.8-.7s-.6-.4-.9-.5c-1.3-.6-2.5-.5-3.3-.3-.9.2-1.6.4-2.3.7-2.6 1.2-4.5 2.8-6.4 4.6-.9.9-1.7 1.9-2.5 2.9-.8 1.1-1.5 2.2-2 3.6-.3.7-.5 1.5-.6 2.4s-.1 2 .4 3.2c.1.3.3.6.4.8.2.3.3.5.6.7.2.2.5.5.7.6.3.2.5.4.8.5.7.3 1.4.5 2 .5 3.7 1.6 7.4 3.2 11.1 4.6 1.6.6 3.2 1.2 4.9 1.7-.2 2.1-.7 5.1-1.3 7.9-.7 2.8-1.5 5.3-2.5 6.6-1.9 2.4-8.9 6.3-13.8 8.6-18.4.1-35.9 4.5-51.9 13.3-19.4 10.7-35.3 27.3-43.8 45.6-4.7 10.3-5.3 18.4-1.9 24.2 3.1 5.2 8.6 6.8 11.2 7.3-.1.2-.1.4-.1.6-.8 3.7-1.5 7.4-2 11.2-.5 3.8-.8 7.5-.9 11.3-.3 7.6.2 15.3 1.7 22.8s4.1 14.9 7.7 21.7c3.7 6.7 7.8 13 12.4 19s9.9 11.6 15.7 16.5c2.9 2.5 6 4.8 9.2 6.9l4.7 3c.7.5 1.5 1 2.1 1.5.6.4 1.1.9 1.2 1.1l.1.2.1.5c.2.6.5 1.2.8 1.7.6 1.1 1.4 2.1 2.4 3 1 .8 2.2 1.5 3.6 1.9 1.3.4 2.8.5 4.1.2 2.7-.5 4.7-1.8 6.4-3.3 1.7-1.5 3-3.1 4.1-4.8 0-.1.1-.1.1-.2 2.7.4 5.4.6 8.1.5 3.5-.1 7-.7 10.3-1.5 3.4-.8 6.7-1.8 9.9-3.1 6.4-2.5 12.5-5.8 18.1-9.6 5.7-3.8 11-8 16-12.6s9.6-9.6 13.8-15 8-11.1 11.2-17.1 5.9-12.3 7.8-18.9c.1-.2.1-.5.2-.7.7.1 1.5.1 2.3.1 2.2-.1 4.8-.6 7.5-2.2 6-3.5 10.1-10.6 12.1-21.3 5-24.7-12-74.4-58.8-94.5zM472.2 354c.1.1.1.1 0 0 .1 0 .1 0 0 0zm6.6 39.3c3.3-4.2 4.6-14.3 4.8-16.7h1.1c1.3-.1 2.5-.3 3.7-.8.2-.1.4-.3.3-.6-.1-.3-.3-.4-.6-.4h-.1c-1 .3-2.2.3-3.4.2-1.1-.1-2.3-.3-3.3-.7-2.1-.9-4.2-2.1-6.3-3.3-2.2-1.3-4.3-2.6-6.5-3.9.8-.6 1.5-1.2 2.2-1.8.9-.9 1.7-1.8 2.4-2.9.4-.5.7-1.1 1-1.7s.5-1.3.5-2.1c0-.3-.1-.5-.4-.7-.4-.2-.9-.1-1.1.2l-.1.2c-.4.6-1.2 1.4-2.1 2-.8.6-1.7 1.2-2.7 1.7-.9.5-1.8 1-2.7 1.3-.8.3-1.6.5-2.1.5.1-.2.2-.5.3-.9.7-1.5 2-3.1 3.3-4.6s3-2.9 4.5-3.6c.3-.2.6-.3.9-.3l.1.1c.4.6.8 1.1 1.3 1.5 1.7 1.9 3.4 3.4 5.1 5s3.4 3.1 5.1 4.6 3.4 3 5 4.5c.8.8 1.6 1.5 2.3 2.3l.5.5c.1.1.2.2.2.3l.1.2.1.1v.1c.1.5 0 1.6-.2 2.5-.2 1-.4 2.1-.7 3.1-.5 2.1-1.1 4.3-1.7 6.6-.6 2.3-1.2 4.5-1.5 7.2-.1.7-.1 1.4 0 2.2l.1.6c0 .2.1.5.2.7 0 .2.2.6.3.8l.1.2.2.4c.8 1.4 1.6 2.3 2.4 3.3.5.6 1 1.1 1.5 1.6-1.8-.5-3.6-.9-5.5-1.4-5.6-1.2-11.1-2.1-16.6-2.5 3.3-1.6 6.5-3.8 8-5.6zm62.4 115.1c-.1.8-.2 1.6-.3 2.3-.2 1.6-.5 3.1-.8 4.7-.6 3.1-1.5 6.2-2.5 9.3-1.9 6.1-4.5 12-7.6 17.7-3.1 5.6-6.7 11-10.7 16.1-4 5-8.5 9.7-13.3 14.1-4.8 4.3-9.9 8.4-15.2 12-1.3.9-2.7 1.8-4.1 2.6s-2.7 1.7-4.2 2.4c-2.8 1.6-5.7 3-8.6 4.2-2.9 1.3-5.9 2.3-9 3.1-3 .8-6.2 1.4-9.3 1.8-3.1.4-6.3.6-9.4.4-3.1-.1-6.4-.4-9.4-1.2h-.1c-.3-.1-.6 0-.8.3-.3.3-.2.8.1 1.1 1.5 1.1 3 1.8 4.6 2.6.4.2.7.3 1.1.4-.6.8-1.3 1.5-1.9 2.1-1.1 1-2.3 1.6-3.4 1.8-1 .2-1.9-.1-2.7-.8-.4-.4-.8-.8-1.1-1.3-.1-.3-.2-.5-.3-.8l-.2-.6c-.2-.5-.4-.9-.6-1.3-.9-1.4-1.9-2.1-2.7-2.7-.8-.6-1.6-1.2-2.4-1.7l-4.6-3c-3-2-5.9-4.1-8.6-6.5-11-9.2-19.7-21.1-26.7-33.7-3.4-6.2-5.7-13-7.1-20s-1.9-14.2-1.6-21.4c.2-7.2 1.2-14.4 2.7-21.5.8-3.5 1.7-7.1 2.7-10.5.9-3.1 2-6.3 3.2-9.3.3-.1.6-.2.8-.3 1-.3 1.9-.5 2.8-.8 1.9-.6 3.8-1 5.7-1.5 7.6-1.8 15.5-2.7 23.4-2.9 15.8-.1 31.7 2.1 47.1 6.2 15.5 4 30.7 9.2 45.1 15.8 7.1 3.5 14.1 7.3 20.4 12 3.2 2.4 6.4 4.8 9.5 7.3.1.5 0 1 0 1.5zm18.4-7.1c-1.6 8.6-4.8 14.6-9.1 17.1-2 1.2-3.9 1.5-5.4 1.5.2-1.1.5-2.2.7-3.3.3-1.7.5-3.4.7-5.1v-.2c1.2 1 2.3 2.1 3.5 3.3l.1.1c.1.1.3.2.4.1.3 0 .5-.3.4-.6-.4-2.2-1.2-4.2-2.2-6.1s-2.2-3.7-3.5-5.4l-2.1-2.4c-.7-.8-1.5-1.5-2.2-2.2-1.5-1.5-3.2-2.8-4.8-4.1-6.7-5.1-13.9-9.3-21.3-13.1l-5.6-2.7c-.9-.4-1.9-.9-2.8-1.3l-2.9-1.2-5.7-2.4c-1.9-.8-3.9-1.4-5.8-2.1s-3.9-1.4-5.8-2.1l-5.9-1.8-5.9-1.8-6-1.5-6-1.5c-2-.4-4.1-.8-6.1-1.1l-6.1-1.1c-2.1-.3-4.1-.5-6.2-.8-8.2-1.1-16.6-1.2-24.9-1-8.3.5-16.6 1.6-24.7 3.8-2 .6-4.1 1.1-6 1.9-1 .4-2 .8-2.9 1.2-1 .4-1.9.9-2.8 1.4-3.7 2-7.3 4.3-10.1 7.7-.2.2-.2.4-.1.7.1.4.5.5.9.4h.1c2.1-.8 4.2-1.6 6.4-2.3-.7 1.8-1.3 3.6-1.9 5.4-.5 1.5-.9 3-1.3 4.4-1.3-.2-5.4-1-7.5-4.5-2.3-3.9-1.6-10.3 2.2-18.5 13.1-28.5 54.6-66 115.3-52.6 32.5 7.1 50.7 27 60.3 42.4 11.6 19.6 14.8 39.9 12.6 51.4z"/>
    </g>
</svg>