<svg version="1.1" id="wapuugotchi_svg__item" viewBox="0 0 1e3 1e3" xmlns="http://www.w3.org/2000/svg">
    <g class="RightArm--group">
        <path d="M436.59 504.77c-4.5 5.1-10.5 7.9-17 7.9-9.1 0-18.5-5.5-24.4-14.4-7.8-11.6-15.5-21.2-22.3-27.9l-4.8-4.7c-2-2-1.1-5.3 1.6-6.1l6.5-1.7c3.2-.9 6.4-2.7 9.1-5.5 3-3 4.8-6.7 5.2-10.4v-11.2c0-1.3 1.5-2.1 2.5-1.3l9.3 6.9c.7.5 1.7 1.1 2.9 1.7 10.2 4.9 31.7 27.4 35.7 46.7 2.1 10.1-1.2 16.5-4.3 20z"/>
        <path d="M402.09 444.87q-2.3-1-4.2-2.4c-.5 5.5-3 11-7.3 15.3-3.7 3.7-8.1 6.2-12.5 7.4 8.7 8.6 17 19.8 23.2 29.1 4.5 6.7 11.6 11.1 18.3 11.1 4.1 0 8.1-1.6 11.4-5.4 13-14.8-17.3-49.6-28.9-55.1z" fill="#4848EE"/>
    </g>
    <g class="Body--group">
        <path d="M401.886 436.443h-.2c-.9 0-1.6.7-1.6 1.6 1.3 44.5-28.9 84.7-25.3 97.1.2.7.8 1.1 1.5 1.1.3 0 .6-.1.9-.2 8.2-5.1 26.3-8.6 54.7-8.6 12.5 0 26.9.7 43.3 2.2 104 9.6 155.8 30.3 167 48.4.3.5.8.8 1.4.8.7 0 1.4-.5 1.6-1.3 13-68 4.6-129.1-8.1-170.5-.2-.7-.8-1.1-1.5-1.1h-.4c-93.523 41.432-152.27 38.548-233.3 30.5z"/>
        <path d="M410.786 445.143c-1-.134-2-.234-3-.3-.9 25.8-10.8 49.4-18.2 67-1.8 4.3-4 9.5-5.5 13.8 13.8-4.2 32.9-5.2 48.1-5.2 13.2 0 28 .7 44 2.2 49.1 4.5 89.4 11.7 119.9 21.3 20 6.3 34.7 13.4 44.1 21.1 10.5-66.5.1-120.7-8.4-150.4-79.614 34.164-122.39 37.206-221 30.5z" fill="#4848EE" />
        <g transform="matrix(0.62774344,0.07,-0.07764745,0.86377557,415, 460)">
            <path d="M26,10.28c6.68,0,10.53,3.51,12.14,7.54l-5.61,1.85a6.9,6.9,0,0,0-6.81-4.35c-5.16,0-9.53,4.41-9.53,10.24,0,4.16,3,7.27,7.71,7.27a8.75,8.75,0,0,0,6.43-3.09l4.47,3a14.27,14.27,0,0,1-11.22,5.13c-7.53,0-13.44-4.66-13.45-11.93C10.07,16.5,17.43,10.3,26,10.28Z" transform="translate(0)" fill="#FFFFFF"/>
            <polygon points="42.82 10.7 48.63 10.69 43.79 32.36 55.3 32.35 54.2 37.34 36.83 37.37 42.82 10.7" fill="#FFFFFF" />
            <path d="M73.13,10.22A15.57,15.57,0,0,0,57.26,25.87c0,7.31,5.88,11.94,13.45,11.93A15.55,15.55,0,0,0,86.54,22.11C86.53,14.84,80.67,10.21,73.13,10.22ZM71,32.76c-4.39,0-7.71-2.74-7.71-7.26,0-5.71,4.16-10.23,9.44-10.24,4.39,0,7.71,2.79,7.71,7.26C80.49,28.24,76.28,32.76,71,32.76Z" transform="translate(0)" fill="#FFFFFF" />
            <path d="M89,28.46a16.08,16.08,0,0,1,.32-2.75l3.38-15.07h5.9L95.23,25.74a7.31,7.31,0,0,0-.29,2.16c0,2.75,1.93,4.87,5.66,4.87,4.22,0,6.22-2.57,7-6.29l3.58-15.87h5.9l-3.58,16c-1.47,6.48-4.86,11.16-13.26,11.17C92.91,37.77,89,34,89,28.46Z" transform="translate(0)" fill="#FFFFFF" />
            <path d="M132.86,10.58l-10.57,0-6,26.66H127c12.82,0,17.68-8.22,17.67-15.21A11.58,11.58,0,0,0,132.86,10.58Zm-4.77,21.67h-4.83L127,15.59h4.75a6.64,6.64,0,0,1,6.89,6.82C138.66,27.72,134.69,32.24,128.09,32.25Z" transform="translate(0)" fill="#FFFFFF" />
            <polygon points="151.23 10.56 170.56 10.53 169.42 15.41 155.95 15.43 154.69 21.22 166.52 21.21 165.42 26.09 153.54 26.1 151.06 37.22 145.25 37.22 151.23 10.56" fill="#FFFFFF" />
            <polygon points="174.56 10.53 193.89 10.5 192.75 15.38 179.28 15.4 178.01 21.19 189.85 21.18 188.75 26.05 176.87 26.07 175.49 32.27 188.96 32.25 187.91 37.17 168.57 37.19 174.56 10.53" fill="#FFFFFF" />
            <path d="M195.46,28.56a11.89,11.89,0,0,0,9.26,4.11c2.91,0,4.09-1.65,4.09-3.08,0-1.6-2.09-2.44-4.67-3.36-3.81-1.31-8.57-3-8.57-7.82,0-4,3.88-8.31,10.64-8.32,4.34,0,8.44,1.54,10.86,4.3l-3.6,4a10.92,10.92,0,0,0-8-3.39c-2.25,0-3.8,1.33-3.8,2.81S203.76,20,206.34,21c3.81,1.31,8.65,3.1,8.66,7.74s-4,8.91-10.72,8.92c-5.37,0-10.08-2-12.38-4.94Z" transform="translate(0)" fill="#FFFFFF" />
            <polygon points="227.33 15.45 219.34 15.46 220.48 10.47 242.27 10.44 241.17 15.44 233.19 15.45 228.34 37.11 222.48 37.12 227.33 15.45" fill="#FFFFFF" />
            <path d="M0,0V48H252.33V0ZM247.29,43H5.05V5.06H247.29Z" transform="translate(0)" fill="#FFFFFF" />
        </g>
    </g>
    <g class="LeftArm--group">
        <path d="m591.41 420.96c-1.2277-0.35973-16.635-10.734-40.905-15.5-1.7-0.4-3.683 1.211-4.083 2.111 2.54 0.686 2.583 0.73 2.583 0.73 0.9 1.5 1.6 3.258 2.2 5.758 0.2 0.8 0.4 1.7 0.6 2.7 0.5 3 0.9 6.6 1 10.9 0.3 9.7-2.1 17.2-5.5 22.3-1.7 2.6-3.7 4.601-5.8 5.901-0.2 0.2-0.5 0.2-0.8 0.2h-0.3c-2.8-0.5-5.8-0.7-8.7-0.7 0 0 2.4 6.5 7.5 8 0.2 0.1 0.4 0.1 0.6 0.1 0.2 0.1 0.4 0.1 0.6 0.1 26.6 2.7 41.147 11.538 65.465 44.61 0.7 1.3 2 2 3.3 2 0.6 0 1.2-0.101 1.7-0.401 0.50795-0.26026 0.9441-0.64145 1.27-1.11 0.0628-0.09 0.12419-0.18098 0.184-0.273 4.81-11.512-4.6908-55.107-4.2398-70.343 2.6362 0.59893 5.6578-4.6047 1.485-6.8806-1.5519-0.75093-10.695-6.0373-18.159-10.203z" style="fill:#000000" />
        <path d="M612.796 440.859c-19.666-11.75-24.38-16.3-53.722-26.453.1.3.1.6.2.9.733 3.467 1.134 7.467 1.2 12 .4 13-3.5 21.7-6.8 26.6-.8 1.1-1.6 2.2-2.5 3.2 31.328 7.613 49.466 33.842 61.756 49.582 20.91-14.779 22.188-53.708-.134-65.83z" fill="#4848EE" />
    </g>
</svg>
