<svg xmlns="http://www.w3.org/2000/svg" id="wapuugotchi_svg__wapuu" x="0" y="0" version="1.1" viewBox="0 0 1000 1000">
  <g id="wapuugotchi_type__wapuu">
    <g id="">
      <path d="m332.1 323.3.1.2h.2c.3 0 .7.1 1.3.1 2.5 0 6.8-.4 8.2-.9h.1l.1-.1c.5-.9.6-3.5.5-5.7v-.3h-.3c-3.7.4-7.3 1-10.6 1.6l-.3.1v.3c.2 2 .5 3.9.7 4.7z" fill="#fe8301"/>
      <radialGradient id="SVGID_1_pumpkin_lantern" cx="359.108" cy="331.547" r="25.03" gradientUnits="userSpaceOnUse">
        <stop offset="0" stop-color="#fff9de"/>
        <stop offset=".5" stop-color="#ffe773"/>
        <stop offset="1" stop-color="#ffda00"/>
      </radialGradient>
      <path fill="url(#SVGID_1_pumpkin_lantern)" d="M362.2 347.3h.4l-.1-.3c-.8-2.9-1.5-6.6.3-8 1.5-1.2 8.8-4 11.6-4 .3 0 .5 0 .7.1.5.2 1.9.6 4.1 7.1l.1.3.3-.2c8.8-4.5 15.3-11.4 19.5-20.6l.1-.3-.3-.1c-4.9-1.7-18.6-5.7-39.3-5.7h-.2l-.1-.1h-.1c-4.4 0-8.9.2-13.3.6h-.3v.3c.3 4.9-.5 7.9-2.2 8.7-1.2.6-5.8 1.3-9.3 1.3-1.7 0-3-.2-3.5-.5-.4-.3-1.5-.9-2.1-6.8v-.3l-.3.1c-4.3 1-7.2 1.9-8.5 2.4l-.3.1.1.3c11.2 25 36.7 25.7 39.6 25.7h.4c.1.1 1.1.1 2.7-.1z"/>
      <path d="M440.3 412.5v1.4c-.2 1.5-1.2 2.9-2.6 3.6-.4.2-.7.3-1.1.4-.3.1-.6.1-1 .1h-6.8c-.7 0-1.5-.3-2.2-.7-1.3-.8-2.2-2.4-2.2-4l.1-32.7.2-35.7v-9c4.3-13.3 4.4-29.1.2-42.3l.1-17.4v-6.6c0-2.1-.1-4.3-.2-6.6-.3-4.5-.9-8.9-1.8-13.1-2-9.5-5.5-17.7-10.4-24.4-2.6-3.6-5.8-6.8-9.4-9.6-3.6-2.7-7.5-4.9-11.8-6.5-5.8-2.3-12.2-3.5-18.4-3.5h-2.2c-1.9.1-3.9.3-5.7.6-2.4.4-4.7 1-6.9 1.8-.6.2-1.3.5-1.9.8-1.4.6-2.7 1.3-3.9 2-4.3 2.6-7.5 6-9.5 9.8-1.1 2.2-1.7 4.5-1.8 6.8-.1 2.5.4 4.9 1.5 7 1 2.1 2.7 4 4.7 5.4 1 .7 2.1 1.3 3.3 1.7l.4.1-.2.3c-1.2 1.8-2.3 3.7-3.4 5.7-.4.8-.8 1.6-1.2 2.5l-.1.2-.3-.1c-2.9-1.1-5.5-2.8-7.8-4.8-3-2.7-5.2-6.1-6.5-9.9-1.3-3.8-1.7-7.9-1.1-11.9.6-3.9 2.1-7.8 4.3-11.3 1.6-2.5 3.6-4.9 5.9-7 .8-.7 1.6-1.4 2.4-2 3.1-2.5 6.8-4.5 10.8-6 6.1-2.3 12.9-3.5 20-3.5 1.6 0 3.2.1 4.8.2 4.1.3 8.3 1 12.4 2.2 4.1 1.1 8.1 2.7 11.8 4.6 7.4 3.8 14.2 9.2 19.5 15.8 5.1 6.3 9.1 13.8 11.9 22.3 2.5 7.7 4.1 16.1 4.8 25.1.3 4.1.3 8.2.4 12.5l.1 13.5.2 26.1.4 52.2.3 39.2v3.3l-.1 1.4z" fill="#738688"/>
      <path d="M347.4 248c-.4.8-.8 1.6-1.2 2.5l-.1.2-.3-.1c-2.9-1.1-5.5-2.8-7.8-4.8-3-2.7-5.2-6.1-6.5-9.9-1.3-3.8-1.7-7.9-1.1-11.9.6-3.9 2.1-7.8 4.3-11.3 1.6-2.5 3.6-4.9 5.9-7-5.8 6.2-6.9 12.8-6.9 12.8s-.1 2.1 2.2.8c2-1.1 4.9-3.4 5.6-3.9-8 6.4-7.1 19-3.2 25.6 3.4 5.3 7.7 6.7 9.1 7z" fill="#474947"/>
      <path d="m371.9 248-.5 1 .9-.6c3.4-2.1 5.9-5.2 7.1-8.6 1.3-3.6 1.4-7.7.1-11.4-.6-1.9-1.5-3.6-2.7-5.1-1.2-1.6-2.6-2.9-4.2-3.9-1.5-1-3.4-1.7-5.3-2-.8-.1-1.5-.2-2.4-.2h-.4c-1 0-2 .1-3 .2-4.6.7-8.4 2-11.3 4-1.7 1.2-3.1 2.6-4.1 4.2-1 1.5-1.7 3.3-2.1 5.5v.2c.2.8.5 1.5.8 2.2.9 1.7 2.2 3.2 3.9 4.2 1.1.7 2.4 1.3 3.8 1.6h.2l.63.436c1.5-1.9 3-3.818 4.7-5.218l-.23-.618.2-.1c.3-.3.6-.5 1-.8h.2v-.5c-.4-.6-.5-1.2-.5-1.9 0-.6.3-1.3.8-1.8.5-.6 1.2-1 1.8-1.1.2-.1.5-.1.7-.1.4 0 .8.1 1.2.3-.5.1-.9.2-1.3.5l-.1.1-.4.3.4.2c.6.3 1.1.7 1.6 1.1l.1.1.2-.1c.6-.3 1.2-.4 1.9-.4.9 0 1.8.3 2.6.8l.7.5-.3-.8c-.1-.2-.2-.5-.3-.8-.4-.7-.8-1.3-1.5-1.9-.1-.1-.3-.2-.4-.3-.1 0-.2-.1-.3-.2l-.2-.1c-.3-.2-.7-.4-.9-.5-.1-.1-.2-.1-.5-.1h-2.2c-.9.1-1.8.3-2.8.6-1 .3-1.8.8-2.6 1.3-.8.6-1.5 1.3-1.8 1.9-.1.3-.2.6-.2.9 0 .3.2.7.5 1.1.5.6 1.2 1.1 1.8 1.5h-.2c-.9 0-1.6-.2-2.4-.5-.4-.2-.258-.647-.658-1.347-.3-.6-.347-1.553-.147-2.253.4-1.5 1.035-1.917 1.835-2.717.9-.8 1.688-1.706 2.788-2.206 1.1-.6 1.982-1.477 3.182-1.777.6-.1 1.2-.2 1.9-.3h1.1c.3 0 .6 0 1 .1.7.1 1.3.3 2.1.6.3.1.6.3 1 .5l.9.6c1 .8 1.9 1.9 2.5 3.2.6 1.2 1 2.5 1.1 3.8.1 1.3.1 2.5-.2 3.7v.1l.1.1c1.4 1.7 2.1 3.3 2.1 4.8 0 1.8-.9 3.4-2.1 5.4-.3.9-.8 1.7-1.2 2.6z" fill="#474947"/>
      <path d="m361.2 231.6-2-1.1v2.3s.5.6.6.5 1.4-1.7 1.4-1.7z" fill="#738688"/>
      <path fill="#944c00" d="M355.5 209.1c.9-.3 1.8-.5 2.7-.8-.6.2-1.3.5-1.9.8h-.8z"/>
      <path d="M435.2 289.6c0 5-3.2 130.2-3.2 130.2l-9.2-3.9 1.9-79.9c4.3-13.3 4.4-29.1.2-42.3l.1-17.4v-6.6c0-2.1-.1-4.3-.2-6.6-.3-4.5-.9-8.9-1.8-13.1-2-9.5-5.5-17.7-10.4-24.4-2.6-3.6-5.8-6.8-9.4-9.6-3.6-2.7-7.5-4.9-11.8-6.5-5.8-2.3-12.2-3.5-18.4-3.5h-2.2c37.7-3.8 54.9 26.1 56 31.7 1.3 6.3.8 11.7 4.8 24.1 3.9 12.3 3.6 22.8 3.6 27.8z" fill="#474947"/>
      <path d="M421.8 293.7c-.6-1.9-1.3-3.7-2.1-5.4-7.7-16.8-17.8-23.1-24.9-25.5l-.3.5.8.6.8.8c.1.1 2.8 2.9 2.8 2.9.5.6 1 1.2 1.4 1.8.2.3.5.6.7.9l1 1.4c.3.4.7.9.9 1.4l.9 1.5c.9 1.4 1.8 2.9 2.5 4.4.3.6.6 1.3.9 1.9.5 1 .9 2 1.4 3-.7-.9-1.4-1.9-2-2.8-.4-.5-.7-1-1.1-1.5-.4-.6-.9-1.2-1.3-1.7-.3-.3-.5-.6-.8-.9l-2.1-2.6c-1-1.2-2.1-2.3-3.1-3.4-.4-.5-.9-.9-1.3-1.4 0 0-2.7-2.5-2.9-2.6-.2-.2-.5-.4-.7-.7l-2.6-1.9c-.4-.3-.9-.7-1.4-.9l-2.8-1.6-2.9-1.2-3-.9c-.4-.1-.8-.1-1.2-.2-.6-.1-1.2-.2-1.9-.3l-1.5-.1h-1.5c-.6 0-1.1 0-1.6.1-.1 0-.3 0-.4.1l-.9.1.6.4c.3.3.7.5 1 .8 1.6 1.4 3.1 3.2 4.6 5.5.5.8.9 1.6 1.3 2.4l.4.7c.4.9.7 1.9 1.1 2.8-.5-.6-1-1.2-1.5-1.9l-.4-.4c-.3-.4-.7-.7-1-1.1-.4-.5-.8-.9-1.3-1.4l-.9-.9c-.5-.5-1-1-1.5-1.4-.2-.1-.3-.3-.5-.4-.2-.2-.5-.4-.8-.7l-.3-.2c-.3-.2-.7-.5-1-.7-1.8-1.3-3.7-2.3-5.7-2.9-1.1-.4-2.1-.6-3-.8-.5-.1-1-.2-1.5-.2-.4-.1-.9-.1-1.3-.1h-1.6c-.3 0-.8 0-1.3.1-.5 0-1 .1-1.5.2-.9.2-1.9.4-3 .8-1.9.7-3.8 1.7-5.7 2.9-.3.2-.6.5-1 .7l-.4.3c-.3.2-.5.4-.8.7l-.4.4c-.6.4-1.1.9-1.5 1.4l-.9.9c-.4.4-.8.9-1.2 1.3-.3.4-.7.8-1.1 1.2l-.4.5c-.5.6-.9 1.2-1.4 1.8.3-.8.6-1.6.9-2.3l.2-.4c.2-.3.3-.6.5-.9.4-.7.8-1.5 1.2-2.2 1.5-2.3 3-4.1 4.6-5.5.3-.3.7-.5 1-.8l.6-.4-.9-.1c-.1 0-.3 0-.4-.1-.5-.1-1-.1-1.6-.1h-1.5l-1.5.1c-.6 0-1.3.2-1.9.3-.4.1-.8.1-1.2.2l-3 .9-2.9 1.2-2.7 1.6c-.5.2-.9.5-1.4.9l-2.6 1.9c-.3.2-.5.5-.8.7-.1.1-2.9 2.6-2.9 2.6-.4.5-.9.9-1.3 1.4-1 1.1-2.1 2.3-3.2 3.5l-2.1 2.6c-.2.3-.5.6-.8 1-.4.5-.9 1.1-1.3 1.7-.4.5-.8 1.1-1.1 1.6-.6.9-1.3 1.8-2 2.8.4-1 .9-2 1.3-2.9.3-.7.6-1.3.9-2 .7-1.5 1.6-2.9 2.5-4.3.3-.5.6-1.1 1-1.6.3-.5.6-1 .9-1.4l1-1.4c.3-.3.5-.7.8-1 .4-.6.9-1.1 1.3-1.7l2.4-2.5.3-.3.9-.9.8-.6-.3-.5c-7.1 2.4-17.2 8.7-24.9 25.5-8.5 18.5-6.8 44.1 4 59.5 2.8 4 7.5 9 14.2 10.6l1 .2-.8-.7c-1.1-1-2.1-2.2-3.2-3.5-.9-1.1-1.7-2.2-2.3-3.3-.8-1.2-1.5-2.4-2-3.5-2.1-3.9-3.7-8.3-4.8-13.3 2.1 4.9 4.2 8.8 6.5 12.3 1.4 2.1 2.9 4.1 4.7 6 1.8 1.9 3.7 3.6 5.6 5 4 2.9 8.8 4.7 13.6 5.5 1.8.3 3.6.4 5.3.4.7 0 1.4 0 2.1-.1.9 0 1.9-.1 3-.3l.7-.1-.7-.6c-.2-.1-.4-.3-.5-.4-1.6-1.4-3.2-3.2-4.6-5.5-.4-.7-.8-1.5-1.2-2.2-.2-.3-.3-.6-.4-.9l-.1-.3c-.3-.8-.7-1.7-1-2.5l1.5 1.8.4.5c.4.4.7.8 1 1.2.4.5.8.9 1.3 1.4l.9.9c.5.5 1 1 1.5 1.4.2.1.3.3.5.4.2.2.5.4.8.7.4.3.9.6 1.3 1 1.8 1.3 3.7 2.3 5.6 2.9 1.1.4 2.1.6 3 .8.5.1 1 .2 1.5.2.4.1.9.1 1.3.1h1.4c.3 0 .8 0 1.3-.1.5 0 1-.1 1.5-.2.9-.2 1.9-.4 3-.8 1.9-.7 3.8-1.7 5.7-2.9.4-.3.8-.6 1.3-1 .2-.2.5-.4.7-.6.2-.2.3-.3.5-.4.6-.4 1.1-.9 1.5-1.4l.9-.9c.4-.5.9-.9 1.3-1.4.3-.4.7-.7 1-1.1l.3-.4c.5-.6 1-1.2 1.5-1.9-.3 1-.7 1.9-1 2.8l-.4.7c-.4.8-.8 1.6-1.3 2.4-1.5 2.3-3 4.1-4.6 5.5-.1.1-.3.2-.4.3l-.8.6.7.1c1.1.2 2.1.3 3 .3.7 0 1.4.1 2.1.1 1.7 0 3.5-.1 5.3-.4 4.9-.7 9.6-2.6 13.6-5.5 1.9-1.4 3.8-3.1 5.6-5 1.8-2 3.4-4 4.7-6 2.3-3.5 4.5-7.5 6.5-12.3-1.1 5-2.7 9.3-4.8 13.3-.7 1.4-1.4 2.5-2 3.5-.7 1.1-1.5 2.2-2.3 3.3-1 1.2-2.1 2.4-3.2 3.5l-.8.7 1-.2c6.7-1.6 11.4-6.6 14.2-10.6 2.3-3.4 4.3-7.3 5.8-11.6 5.1-13.9 5.2-29.8.8-43.1zm-62.6 56.7h-.1c-1.3 0-31.5-.3-43.2-29.3-.3-.8 0-1.6.8-1.9 1.6-.7 16.6-6.5 42.4-6.5h.2c25.8 0 40.7 5.9 42.4 6.5.7.3 1.1 1.2.8 1.9-11.8 29-42 29.4-43.3 29.3zm7.1-49.8c.8-5.3 5.2-15.5 16.5-15.5.5 0 1.1 0 1.6.1 12.4 1 16.2 14.3 16.4 21.2 0 .5-.2 1-.7 1.3-.2.2-.5.2-.8.2-.2 0-.4 0-.6-.1-10.7-5-21.3-5.7-26.6-5.7-2.6 0-4.1.2-4.1.2h-.2c-.4 0-.8-.2-1.1-.4-.3-.4-.4-.9-.4-1.3zm-14.8 1.2c-.3.3-.7.5-1.1.5h-.2s-1.5-.2-4.1-.2c-5.4 0-16 .7-26.7 5.7-.2.1-.4.1-.6.1-.3 0-.6-.1-.8-.2-.4-.3-.7-.8-.7-1.3.3-6.9 4.1-20.2 16.4-21.2.6 0 1.1-.1 1.6-.1 11.3 0 15.7 10.1 16.5 15.5.1.4 0 .9-.3 1.2z" fill="#fe8301"/>
      <path fill="#95b13c" d="M347.2 255.8v.1l-.2.3.3.1h.3l.3.1c.5.1 1 .3 1.4.5.3.1.5.2.8.3l.1.1.3-.1c.2-.1.4-.2.7-.3 0 0 .1 0 .2-.1 1.2-.4 2.4-.8 3.6-.9.5-.1 1.2-.1 1.9-.1h.2c.6 0 1.1 0 1.8.2h.3c.7-.1 1.2-.2 1.8-.2h.2c.5 0 1.2 0 1.9.1s1.3.2 2 .4c.5.1 1 .3 1.5.5l.4.2v-1.4c0-1.8.2-3.5.6-5.2.7-2.6 1.9-4.6 2.9-6.4.8-1.5 1.6-2.8 1.6-3.8 0-.4-.1-.8-.4-1.3-.6-1.1-1.7-2.5-3.3-4-.6-.6-1.3-1.1-2-1.7-.1-.1-.2-.2-.4-.2l-.7-.3.3.7.1.2c.8 1.9 1 4.2.4 6.4-.5 1.8-1.3 3.6-2.5 5.5-1.2 1.8-2.4 3.2-3.8 4.5l-.5.2.4.3c.4.3.9.6 1.4.8.3.2.6.3 1 .4.2.1.4.1.6.2l.9.3c.2 0 .3.1.5.1-.8.4-1.483.411-2.483.411-.4 0-.8 0-1.2-.1-1.2-.2-2.156-.628-3.156-1.528s-1.7-2-2.1-3.1c-.5-1.5-.677-2.346-.117-3.466l.217-.434c.413-.824.239 2.117.839 3.017.3.4.961.583 1.361 1.083l-.061.517.2-.3s0-.1.1-.2l.1-.1c.8-1 1.9-2.5 3-4.2.9-1.6 1.6-3.2 2-4.6.4-1.6.4-3.1 0-4.4 0-.1-.1-.2-.1-.2l-.1-.3-.3.2c-2 1.3-3.9 3-5.8 5-.9 1-1.9 2.2-2.8 3.5-1.8 2.5-3.4 5.3-4.8 8.3-.8 2-1.4 3.6-1.7 4.4z"/>
      <radialGradient id="SVGID_2_pumpkin_lantern" cx="383.685" cy="296.089" r="11.382" gradientUnits="userSpaceOnUse">
        <stop offset="0" stop-color="#fff9de"/>
        <stop offset=".5" stop-color="#ffe773"/>
        <stop offset="1" stop-color="#ffda00"/>
      </radialGradient>
      <path fill="url(#SVGID_2_pumpkin_lantern)" d="M372.3 299.1c4.9 0 14.6.6 24.9 4.8l.5.2-.1-.5c-.9-5.4-3.9-14.6-13.4-15.4-.5 0-.9-.1-1.4-.1-8.9 0-12.1 7.5-13 10.7l-.1.4h.4c.7-.1 1.4-.1 2.2-.1z"/>
      <radialGradient id="SVGID_3_pumpkin_lantern" cx="334.536" cy="296.089" r="11.385" gradientUnits="userSpaceOnUse">
        <stop offset="0" stop-color="#fff9de"/>
        <stop offset=".5" stop-color="#ffe773"/>
        <stop offset="1" stop-color="#ffda00"/>
      </radialGradient>
      <path fill="url(#SVGID_3_pumpkin_lantern)" d="M335.4 288.1c-.4 0-.9 0-1.4.1-9.5.8-12.5 10-13.4 15.4l-.1.5.5-.2c9.8-3.9 18.9-4.8 24.9-4.8h2.6l-.1-.4c-1.2-3.9-4.5-10.6-13-10.6z"/>
      <path d="M444.1 410.9v-3.3l-.1-13.1-.1-26.1-.3-52.2-.1-26.1-.1-13.1c0-4.3 0-8.8-.4-13.2-.6-8.8-2.1-17.6-4.9-26.1-2.8-8.4-6.9-16.6-12.6-23.6-5.6-7-12.8-12.9-20.8-17-4-2-8.3-3.7-12.6-4.9-4.3-1.2-8.8-2-13.3-2.4-9-.7-18.1.4-26.7 3.6-8.5 3.2-16.3 9-21.3 16.8-2.5 3.9-4.3 8.4-5 13-.7 4.7-.3 9.5 1.2 14s4.2 8.6 7.7 11.8c2.6 2.4 5.8 4.4 9.1 5.7-.1.3-.2.5-.2.7-2.4-.2-4.7 0-7 .5-1.2.3-2.3.7-3.5 1l-2.4 1.1c-4.5.1-23 1.9-35.3 28.8-8.9 19.5-7.1 46.5 4.3 62.8 5.6 8.1 13.1 12.5 21.1 12.5h.9c3.8 2.5 8.2 4.1 12.7 4.8 2.8.4 5.5.5 8.3.2 1.4-.1 2.7-.3 4.1-.6 1.1-.2 2.1-.5 3.2-.8.4.2.8.3 1.2.5 1.2.5 2.4.8 3.7.9.6.1 1.3.1 1.9.1.7 0 1.3 0 2.1-.2h.2c.8.1 1.4.2 2.1.2.7 0 1.3-.1 1.9-.1 1.3-.2 2.5-.5 3.7-.9.4-.1.8-.3 1.2-.5 1.1.4 2.1.6 3.2.8 1.4.3 2.7.5 4.1.6 2.8.3 5.5.2 8.3-.2 4.5-.6 8.9-2.3 12.7-4.8h.9c8 0 15.5-4.4 21.2-12.5 1-1.4 1.9-2.9 2.8-4.5l-.3 35.5-.2 26.1v6.5c0 1.4.3 2.8 1 4.1.7 1.2 1.7 2.3 2.9 3.1 1.2.8 2.6 1.2 4 1.3h6.7c.5 0 1.3 0 2-.1s1.4-.3 2-.6c2.6-1.1 4.5-3.7 4.9-6.6.1-.3.1-.7.1-1.1v-.8l-.2-1.6zm-22.9-74.8c-1.5 4.2-3.4 8.1-5.8 11.5-3 4.2-7.6 9-14 10.5 1.1-1.1 2.2-2.3 3.2-3.5.8-1.1 1.7-2.2 2.4-3.3.8-1.1 1.4-2.3 2-3.5 2.5-4.7 4.1-9.9 5.2-15 0-.1 0-.1-.1-.2-.1 0-.2 0-.2.1-2 4.8-4.3 9.5-7.2 13.8-1.4 2.1-3 4.1-4.7 6-1.7 1.8-3.6 3.5-5.6 4.9-4 2.9-8.7 4.7-13.5 5.4-2.4.3-4.9.5-7.4.3-1 0-2-.1-3-.3.2-.2.5-.4.7-.5 1.9-1.6 3.4-3.6 4.7-5.6.6-1 1.1-2.1 1.7-3.2.4-1.1.9-2.2 1.2-3.3 0-.1 0-.2-.1-.2-.1-.1-.2-.1-.3 0-.8.9-1.5 1.8-2.2 2.7-.8.8-1.5 1.7-2.3 2.5-.8.8-1.5 1.6-2.4 2.3-.4.3-.8.7-1.2 1.1-.4.3-.9.6-1.3 1-1.8 1.2-3.6 2.2-5.6 2.9-1 .3-2 .6-3 .8-.5.1-1 .2-1.5.2-.5.1-1 .1-1.4.1h-.3c-.1 0-.2 0-.3.1-.1 0-.2-.1-.3-.1h-.3c-.3 0-.9 0-1.4-.1-.5 0-1-.1-1.5-.2-1-.2-2-.5-3-.8-2-.7-3.8-1.7-5.6-2.9-.4-.3-.9-.6-1.3-1-.4-.3-.8-.7-1.2-1.1-.9-.7-1.6-1.5-2.4-2.3-.8-.8-1.5-1.7-2.3-2.5-.7-.9-1.4-1.8-2.2-2.7-.1-.1-.2-.1-.3 0-.1.1-.1.1-.1.2l1.2 3.3c.6 1 1.1 2.1 1.7 3.2 1.3 2 2.8 4 4.7 5.6.2.2.5.4.7.5l-3 .3c-2.5.2-4.9 0-7.4-.3-4.8-.7-9.5-2.6-13.5-5.4-2-1.4-3.9-3.1-5.6-4.9-1.7-1.8-3.3-3.8-4.7-6-2.8-4.2-5.1-8.9-7.2-13.8 0-.1-.1-.1-.2-.1s-.1.1-.1.2c1 5.1 2.7 10.3 5.2 15 .6 1.2 1.3 2.4 2 3.5.7 1.2 1.5 2.2 2.4 3.3 1 1.2 2.1 2.4 3.2 3.5-6.4-1.5-11.1-6.2-14-10.5-10.7-15.3-12.4-40.8-4-59.2 7.7-16.8 17.8-23 24.8-25.4l-.8.6-1.2 1.2-2.4 2.5-2.1 2.7-1 1.4c-.4.4-.7.9-1 1.4-1.2 2-2.4 3.9-3.4 5.9-.9 2.1-1.9 4.1-2.8 6.2 0 .1 0 .2.1.2h.2c1.4-1.8 2.6-3.6 3.9-5.4.6-.9 1.4-1.7 2.1-2.6l2.1-2.6c1.4-1.7 3-3.2 4.4-4.8l2.4-2.2c.4-.3.8-.7 1.2-1.1l1.3-1 1.3-.9c.4-.3.8-.6 1.3-.9l2.7-1.6 2.9-1.2 3-.9c1-.1 2-.4 3-.5l1.5-.1h1.5c.5 0 1 0 1.5.1.2 0 .4.1.6.1-.3.3-.7.5-1 .8-1.9 1.6-3.4 3.6-4.7 5.6-.6 1-1.1 2.1-1.7 3.2-.4 1.1-.9 2.2-1.2 3.3 0 .1 0 .2.1.2s.2 0 .2-.1c.8-.9 1.5-1.8 2.2-2.7.8-.8 1.5-1.7 2.3-2.5.8-.8 1.5-1.6 2.4-2.3.4-.4.8-.7 1.2-1.1.4-.3.9-.6 1.3-1 1.8-1.2 3.6-2.2 5.6-2.9 1-.3 2-.6 3-.8.5-.1 1-.2 1.5-.2.5-.1 1-.1 1.4-.1h1.2c.3 0 .9 0 1.4.1.5 0 1 .1 1.5.2 1 .2 2 .5 3 .8 2 .7 3.8 1.7 5.6 2.9.4.3.9.6 1.3 1 .4.3.8.7 1.2 1.1.9.7 1.6 1.5 2.4 2.3.8.8 1.5 1.7 2.3 2.5.7.9 1.4 1.8 2.2 2.7 0 .1.1.1.2.1s.2-.2.1-.2l-1.2-3.3c-.5-1-1.1-2.1-1.7-3.2-1.3-2-2.8-4-4.7-5.6-.3-.3-.7-.5-1-.8.2 0 .4-.1.6-.1.5-.1 1-.1 1.5-.1s1-.1 1.5 0l1.5.1c1 .1 2 .3 3 .5l3 .9 2.9 1.2 2.7 1.6c.5.2.9.6 1.3.9l1.3.9 1.3 1c.4.3.8.7 1.2 1.1l2.4 2.2c1.5 1.6 3 3.2 4.4 4.8l2.1 2.6c.7.9 1.5 1.7 2.1 2.6l3.9 5.4s.1.1.2 0c.1 0 .1-.1.1-.2-.9-2.1-1.8-4.1-2.8-6.2-1-2-2.3-3.9-3.4-5.9-.3-.5-.6-1-1-1.4l-1-1.4c-.7-.9-1.4-1.9-2.1-2.7l-2.4-2.5c-.4-.4-.8-.9-1.2-1.2l-.8-.6c7 2.3 17.1 8.6 24.8 25.4.8 1.7 1.5 3.5 2.1 5.4 4.9 13.4 4.6 29.3.1 42.3zM384 227c-1.5-4.6-4.5-8.8-8.8-11.5-1-.7-2.2-1.2-3.4-1.7-1.1-.4-2.4-.8-3.6-1-1.2-.2-2.5-.3-3.7-.2-1.2 0-2.4.1-3.5.3-2.3.4-4.6.9-6.8 1.8-1.5.6-3.1 1.3-4.5 2.2 1.3-1.2 2.7-2.3 4.2-3.2 1.7-1 3.6-1.9 5.6-2.6 1.9-.7 4-1.2 6-1.5 16.6-2.7 34.7 4.1 44.5 17.8 5 6.8 8.1 14.9 9.8 23.2.8 4.2 1.4 8.4 1.6 12.7.1 2.1.2 4.3.2 6.4v6.5l-.1 8.5c-12.3-24.7-29.9-26.5-34.2-26.5l-2.4-1.1c-1.1-.4-2.3-.7-3.5-1-2.4-.5-4.9-.8-7.3-.5-.6.1-1.2.1-1.8.3-.6.1-1.2.2-1.8.4h-.1v-1.7c1.4-.6 2.8-1.3 4.1-2.1 2.1-1.3 3.9-2.9 5.5-4.7 1.6-1.8 2.9-4 3.8-6.3 1.7-4.7 1.7-9.9.2-14.5zm-33.4-5.3c3.2-2.2 7.2-3.3 11.1-3.9 1-.1 2-.2 3-.2s1.9 0 2.8.2c1.8.3 3.6 1 5.2 2s2.9 2.3 4.1 3.8c1.1 1.5 2 3.2 2.6 5 1.2 3.6 1.2 7.6-.1 11.2-1.2 3.4-3.8 6.4-7 8.4.4-.9.9-1.7 1.4-2.5 1.1-1.9 2.1-3.6 2.1-5.5 0-1.5-.7-3.2-2.1-5 .3-1.3.4-2.6.2-3.8-.2-1.4-.6-2.7-1.2-3.9-.6-1.2-1.5-2.4-2.6-3.3-.3-.2-.6-.5-.9-.7-.4-.2-.7-.4-1-.5-.6-.3-1.3-.5-2.1-.6-.5-.1-.8-.1-1.1-.1h-1c-.7.1-1.3.2-1.9.3-1.2.3-2.4.7-3.5 1.3-1.1.6-2.1 1.3-3 2.2-.9.9-1.8 1.9-2.2 3.5-.2.7-.1 1.7.2 2.4.4.8 1 1.3 1.6 1.6.9.4 1.7.6 2.6.6-1.8 1.5-3.3 3.2-4.7 5-1.3-.3-2.6-.9-3.7-1.6-1.6-1-2.9-2.4-3.8-4.1-.3-.7-.6-1.4-.8-2.1.4-2 1.1-3.9 2.1-5.4.7-1.8 2.1-3.2 3.7-4.3zm13.2 6.4-.1-.1c-.7-.6-1.6-.6-2.3-.4-.8.2-1.5.6-2 1.2s-.8 1.3-.9 2c-.1.7.1 1.4.5 2.1-.4.3-.7.6-1 .8-.8-.5-1.5-1.1-2-1.6-.3-.3-.5-.7-.5-1 0-.3 0-.5.2-.8.3-.6.9-1.2 1.7-1.8.8-.5 1.6-.9 2.5-1.2.9-.3 1.8-.5 2.7-.6.5 0 .9-.1 1.3 0h.6c.2 0 .4 0 .5.1.3.1.6.3.9.5.2.1.4.2.4.3.1.1.3.2.4.3.5.5 1 1.1 1.4 1.8.1.2.2.5.3.7-1.4-1-3.2-1.1-4.8-.4-.5-.4-1.1-.8-1.6-1.1l.1-.1c.5-.3 1.1-.5 1.6-.5 0 0 .1 0 .1-.1.1.1 0 0 0-.1zm-3.2 3.6c-.4.2-.7.5-1 .7v-.2c.1-.3.2-.6.3-.8 0-.1.1-.2.2-.3v.1c.2.2.3.4.5.5zm-6.4 11.4c.8-1.2 1.8-2.4 2.8-3.5 1.7-1.9 3.6-3.6 5.7-5 0 .1.1.1.1.2.4 1.3.4 2.7 0 4.2s-1.1 3-1.9 4.5c-.8 1.5-1.9 2.9-2.9 4.2l-.1.1c-.1.1-.1.2-.1.2-.4-.4-.7-.8-1-1.3-.6-.9-1.1-1.9-1.2-2.9 0-.1-.1-.1-.1-.2-.1 0-.3 0-.3.1l-.1.2c-.7 1.4-.5 2.9-.1 4.1.4 1.3 1.2 2.4 2.2 3.2 1 .9 2.1 1.5 3.4 1.7 1.3.2 2.6.1 4-.6l.2-.1c.1 0 .1-.1.1-.1 0-.1 0-.2-.2-.3-.5-.2-1-.3-1.5-.4l-1.5-.6c-.5-.2-.9-.5-1.4-.8h.1c1.5-1.4 2.7-2.9 3.8-4.5 1.1-1.7 2-3.5 2.5-5.6.6-2 .5-4.5-.4-6.6 0-.1 0-.1-.1-.2.1 0 .2.1.3.2.7.5 1.4 1.1 2 1.7 1.6 1.4 2.7 2.8 3.2 3.9.2.5.3.9.3 1.2 0 .9-.7 2.2-1.6 3.7-1 1.8-2.2 3.9-3 6.5-.4 1.6-.7 3.3-.7 5.3v.9c-.5-.2-1-.4-1.6-.5-.7-.2-1.3-.3-2-.4-.6-.1-1.3-.1-1.9-.1-.7 0-1.3 0-2.1.2h-.2c-.8-.1-1.4-.2-2.1-.2-.7 0-1.3.1-1.9.1-1.3.2-2.5.5-3.7.9-.1 0-.1 0-.2.1-.3.1-.5.2-.8.3-.3-.1-.5-.2-.8-.3l-1.8-.6c-.1 0-.2-.1-.3-.1v-.1c.4-1 1-2.6 1.9-4.5 1.3-2.3 2.9-5.3 5-8.2zM440 413.3v.5c-.1 1.4-1.1 2.8-2.5 3.4-.3.1-.7.3-1 .3-.4.1-.7.1-1.3.1h-6.4c-.7 0-1.5-.2-2.1-.6-1.3-.8-2-2.2-2-3.7v-6.5l.1-26.1.2-44.7c4.3-13.2 4.4-28.9.2-42.4l.1-17.4v-6.6c0-2.2-.1-4.4-.2-6.6-.3-4.4-.9-8.8-1.8-13.2-1.8-8.7-5.1-17.3-10.5-24.5-2.7-3.6-5.9-6.9-9.5-9.6-3.6-2.7-7.6-4.9-11.8-6.5-8.4-3.2-17.6-4.3-26.5-2.8-4.5.7-8.9 2.2-12.8 4.6-3.9 2.4-7.4 5.7-9.6 9.9-1.1 2.1-1.7 4.5-1.8 6.9-.1 2.4.4 4.9 1.6 7.1 1.1 2.2 2.8 4.1 4.8 5.5 1.1.7 2.2 1.3 3.4 1.7-2 2.9-3.5 5.8-4.6 8.2-2.8-1.1-5.5-2.7-7.7-4.8-2.9-2.7-5.2-6.1-6.4-9.8-1.3-3.7-1.6-7.8-1-11.7.6-4 2.1-7.8 4.2-11.2 2.2-3.4 5-6.5 8.2-9 3.2-2.5 6.8-4.5 10.7-6 7.7-3 16.3-4 24.6-3.3 4.2.3 8.3 1.1 12.4 2.2s8 2.6 11.7 4.5c7.5 3.8 14.1 9.2 19.4 15.7 5.3 6.6 9.2 14.1 11.8 22.2 2.7 8 4.1 16.5 4.7 25 .3 4.3.3 8.6.4 12.9l.1 13 .2 26.1.4 52.2.2 26.1.1 13.1v5.8z"/>
      <path d="M384.5 284.9c-12.7-1-17.6 9.8-18.4 15.6-.1.5.1 1.1.5 1.5.4.4.9.6 1.5.5.2 0 15.3-1.6 30.6 5.5.2.1.5.2.8.2.4 0 .7-.1 1-.3.5-.3.8-.9.8-1.6-.4-6.9-4.2-20.4-16.8-21.4zm-12.2 13.9h-2.2c1.1-3.8 4.6-11.1 14.1-10.4 9.4.8 12.2 10.2 13.1 15.1-10.1-4-19.6-4.7-25-4.7z"/>
      <path id="path1-9" fill="#fe8301" d="m365.201 346.656.1.2h.2c.3 0 .66-.09 1.255-.173 2.59-.363 7.845-1.99 9.245-2.49h.1l.1-.1c.5-.9-1.172-3.59-1.726-5.836v-.3h-.3c-3.7.4-5.938 1.863-9.238 2.872l-.3.1v.3c.2 2 .364 4.627.564 5.427z" />
      <path d="M401.7 319c-.6-.3-15.7-6.6-42.5-6.6h-.2c-26.8 0-41.9 6.3-42.5 6.6-.9.4-1.3 1.4-1 2.3 11.7 29.1 42.2 29.5 43.4 29.5h.1c.1 0 0 0 0 0 1.2 0 31.7-.4 43.4-29.5.6-.9.2-2-.7-2.3zm-59.5-2.1c.1 2.4-.1 4.8-.5 5.5-1.6.6-7.4 1.1-9.3.8-.3-.8-.6-2.7-.8-4.7 3.1-.6 6.6-1.2 10.6-1.6zm23.6 29.6c-.6-2.2-1-4.4-.8-5.1 1.4-.9 6.9-2.9 8.8-3.1.6.8 1.5 3.1 2.2 5.3-3.8 1.6-7.4 2.4-10.2 2.9zm13.5-4.4c-2.2-6.7-3.6-7.1-4.3-7.3-2.1-.7-10.9 2.6-12.5 4-1.8 1.4-1.3 5-.3 8.3-1.5.1-2.5.2-2.8.2h-.4c-2.2 0-28.1-.6-39.3-25.5 1.7-.6 4.5-1.5 8.5-2.4.6 6 1.7 6.7 2.2 7.1.6.4 2 .5 3.7.5 3.5 0 8.1-.7 9.4-1.3 2.3-1.1 2.6-5.3 2.3-9 4-.3 8.5-.6 13.3-.6h.2c21 0 34.8 4.1 39.4 5.7-4.9 10.5-12.3 16.7-19.4 20.3z"/>
      <path d="M352.2 300.5c-.8-5.9-5.8-16.7-18.4-15.6-12.6 1-16.4 14.5-16.7 21.5 0 .6.3 1.2.8 1.6.3.2.6.3 1 .3.3 0 .5-.1.8-.2 15.3-7.2 30.5-5.5 30.6-5.5.5.1 1.1-.1 1.5-.5.3-.5.5-1 .4-1.6zm-6.3-1.7c-5.4 0-14.9.7-25 4.8.8-5 3.6-14.4 13.1-15.1 9.4-.8 12.9 6.6 14.1 10.4-.6-.1-1.4-.1-2.2-.1z"/>
      <path d="m432.7 331.9 1.4-23.6c.4-7.9.8-15.8 1.1-23.7.1 7.9 0 15.8-.1 23.7l-.4 23.7-2-.1z"/>
      <path d="M422.8 284.1c.9-4.2 1.7-8.4 2.4-12.6.7-4.2 1.2-8.5 1.6-12.8.4-4.3.6-8.6.5-12.8-.1-4.3-.4-8.6-1.5-12.8 1.3 4.1 1.8 8.4 2 12.7.3 4.3.2 8.6 0 12.9-.2 4.3-.6 8.6-1.1 12.9-.5 4.3-1.1 8.6-1.9 12.8l-2-.3z"/>
      <path d="M430.2 223.7c.7 3.3 1.3 6.6 1.8 10 .5 3.3 1 6.7 1.3 10 .7 6.7 1.1 13.5.4 20.2.4-6.7-.4-13.4-1.4-20.1-.5-3.3-1.1-6.6-1.8-9.9-.7-3.3-1.5-6.6-2.3-9.8l2-.4z"/>
      <path d="m418.7 222.4-1.6-2.2-1.7-2.2c-.6-.7-1.1-1.4-1.7-2.1-.6-.7-1.2-1.4-1.8-2-2.5-2.7-5.2-5.1-8.1-7.3-2.9-2.2-6.1-3.9-9.4-5.6-1.6-.8-3.3-1.5-5-2.2-1.7-.7-3.4-1.4-5.2-2 3.6.8 7.2 1.9 10.6 3.3.9.3 1.7.7 2.6 1.1l1.3.6 1.2.7 1.2.7 1.2.7c.8.5 1.6 1 2.3 1.6 1.6 1 3 2.3 4.3 3.5 1.4 1.3 2.7 2.6 3.9 4 .6.7 1.1 1.5 1.7 2.2.5.8 1.1 1.5 1.6 2.3.9 1.6 1.8 3.2 2.6 4.9z"/>
      <path d="M352.3 204.4c-1.9.5-3.6 1.3-5.3 2.3-1.7.9-3.3 2-4.7 3.3-3 2.4-5.5 5.4-7.5 8.6-2 3.2-3.5 6.9-4.1 10.6-.3 1.9-.4 3.8-.1 5.7.2 1.9.8 3.8 1.7 5.5-1.2-1.6-1.9-3.5-2.3-5.4-.4-1.9-.4-4-.2-6 .1-1 .3-2 .5-3s.5-1.9.9-2.9c.7-1.9 1.6-3.7 2.6-5.4 1-1.7 2.2-3.3 3.6-4.8 1.3-1.5 2.8-2.8 4.4-4.1 1.6-1.2 3.3-2.2 5.1-3 1.6-.5 3.4-1.1 5.4-1.4z"/>
      <path d="M341.8 215.2c-1.3 1.1-2.4 2.4-3.3 3.8-.9 1.4-1.5 3-1.9 4.6-.9 3.2-.9 6.6-.4 9.9.5 3.3 1.8 6.4 3.7 9.1 2 2.7 4.8 4.8 8.1 5.6-1.7-.1-3.4-.7-4.9-1.6-1.5-.9-2.8-2.1-4-3.4-.6-.7-1.1-1.4-1.5-2.1-.4-.8-.8-1.5-1.2-2.3-.7-1.6-1.2-3.3-1.5-5-.3-1.7-.4-3.5-.3-5.2.1-1.7.4-3.5.9-5.2.6-1.7 1.3-3.3 2.4-4.7 1.1-1.5 2.4-2.7 3.9-3.5z"/>

    </g>
    <g id="RightArm--group">
      <path d="M436.6 504c-4.5 5.1-10.5 7.9-17 7.9-9.1 0-18.5-5.5-24.4-14.4-7.8-11.6-15.5-21.2-22.3-27.9l-4.8-4.7c-2-2-1.1-5.3 1.6-6.1l6.5-1.7c3.2-.9 6.4-2.7 9.1-5.5 3-3 4.8-6.7 5.2-10.4V430c0-1.3 1.5-2.1 2.5-1.3l9.3 6.9c.7.5 1.7 1.1 2.9 1.7 10.2 4.9 31.7 27.4 35.7 46.7 2.1 10.1-1.2 16.5-4.3 20z"/>
      <path d="M402.1 444.1c-1.5-.7-2.9-1.5-4.2-2.4-.5 5.5-3 11-7.3 15.3-3.7 3.7-8.1 6.2-12.5 7.4 8.7 8.6 17 19.8 23.2 29.1 4.5 6.7 11.6 11.1 18.3 11.1 4.1 0 8.1-1.6 11.4-5.4 13-14.8-17.3-49.6-28.9-55.1z" fill="#fc0"/>
    </g>
    <g id="Tail--group">
      <path d="M599.1 649.5c-9 25.7-26.4 50-50.3 70.3-23.8 20.3-51.8 34.7-81 41.6-6.9 1.6-14.1 2.5-21.5 2.5-30.8 0-58.9-13.9-74.8-27-13.6-11.1-21.2-23.3-20.9-33.5.4-12 6.7-20.7 16.8-23.3 2.1-.5 4.3-.8 6.7-.8 11.2 0 27.2 6.7 38.5 25.7 7.8 13.2 22 20.1 41.1 20.1h1.2c40.7-.8 87.6-31.2 109.1-70.8 7.7-14.1 13.2-29.6 17.1-40.8 1.9-5.4 3.6-10.1 5.1-13.5 1.3-3.1 4.1-9.4 10.4-9.4 4.1 0 7.6 1.8 9.9 5 5.5 7.6 3.3 23.3-7.4 53.9z"/>
      <path d="M570.5 657.8c-22.7 41.7-72.5 73.9-115.5 74.7h-1.4c-21.6 0-38.3-8.4-47.4-23.8-9-15.1-22-22.1-32.1-22.1-1.7 0-3.3.2-4.8.6-7 1.8-11 7.6-11.3 16.4-.3 7.7 6.6 18 18.2 27.5 16.8 13.7 43.2 25.3 70.1 25.3 6.6 0 13.3-.7 19.8-2.3 57.2-13.5 108.5-57.4 126-107.1 5.4-15.3 16.7-49.2 4.5-49.2-4.5.1-10.8 31.8-26.1 60z" fill="#f80"/>
    </g>
    <g id="Body--group">
      <path d="M649.7 531.9c-2 24-6.7 45.1-13.9 62.9-8.5 20.9-20.3 36.6-35.1 46.8-34 23.4-64.8 26-76.4 26-1.3 0-2.5 0-3.8-.1-18.4-.8-26-4.4-32.7-7.5-5.9-2.8-11-5.2-24.9-5.7-37.5-1.5-67-9.9-83.1-23.6-.2-.1-.5-.4-.9-.7-4.8-3.5-19.3-14.3-25-24.7-5.3-9.7-6.2-22.3-2.3-31.4 13.4-31.2 24.5-40.5 33.5-48 3.6-3 6.4-5.3 8.8-8.7 2.2-3.1 3.8-7.1 4.9-12.2 0-.1 0-.2.1-.3 3.9-15 3.4-34.9 2.8-56-.2-5.7-.3-11.7-.4-17.5v-.1c0-18.6 9.6-40.7 25.7-59.2 18.1-20.8 41.6-33.6 66.1-36.2 20.2-2.1 34.3-3.1 45.9-3.1 43.7 0 58.6 14.8 82.2 48.4 7.5 10.6 12.1 22.5 16 33.7 11.1 30.4 15.9 76.5 12.5 117.2z"/>
      <path d="M358.5 576.7c-3 7-2.2 17.4 2 25 5.6 10.3 23 22.2 24.1 23.2 15.1 12.9 43.7 20.5 78.7 21.9 31.2 1.3 24.3 11.8 57.6 13.3 1.1 0 2.2.1 3.5.1 16.7 0 43.7-5 72.2-24.7 58-39.9 52.9-165.3 34-218.6-3.9-11.1-8.3-22.2-15.1-31.9-23.5-33.5-36.6-45.2-76.2-45.2-12.2 0-26.9 1.1-45.1 3.1-49.9 5.3-85.3 55.3-85.3 88.1.3 27.4 2.5 55.1-2.7 75.5-1.4 6.5-3.4 11.2-6 14.9-9.8 13.5-23.4 12.4-41.7 55.3z" fill="#fc0"/>
    </g>
    <g id="Ball--group" />
    <g id="RightFoot--group">
      <path d="M384.3 648c-2.4 3.7-6.4 5.7-11.5 5.7-1.9 0-4-.3-6.2-.8-25-6-59.3-43.6-63.6-64.5-1.9-9.4-.2-18 5-24.4 4.6-5.7 11.4-8.8 18.9-8.8 6.8 0 13.6 2.5 19.8 7.3 12.2 9.4 32.9 50.5 37.3 60.7 2.5 5.8 4.9 17.7.3 24.8z"/>
      <path d="M310.1 586.8c3.8 18.2 36.2 53.6 58.1 58.8 1.7.4 3.2.6 4.5.6 3.4 0 4.7-1.3 5.4-2.3 2.3-3.5 1.5-12.1-1-17.9-6.1-13.9-25.3-50.3-35.1-57.8-4.9-3.8-10.2-5.8-15.3-5.8-5.3 0-10 2.2-13.2 6.1-3.6 4.7-4.8 11.2-3.4 18.3z" fill="#fc0"/>
    </g>
    <g id="FullHead--group">
      <g id="BeforeHead--group" />
      <g id="RightEar--group">
        <path d="M413.3 399.4c-.4 4.4-3.8 8.4-11.1 12.9-4.7 3-10.2 5.5-13.9 6.5-6.5 1.7-12.3 2.6-17.3 2.6-6.7 0-10.6-1.6-12.7-2.9-4.8-3-4.4-7.2-4.2-8.5.5-3.1 2.9-5.5 5.9-6.2 3.5-.8 13.5-5.8 23.6-12.6 4.2-2.9 10.7-4.8 16.1-4.8 5.8 0 9.1 2.2 10.8 4.1 2.1 2.4 3.1 5.5 2.8 8.9z"/>
        <path d="M361.4 411.3c0 .3.4.7.9.9 1.1.7 3.6 1.8 8.8 1.8 4.3 0 9.5-.8 15.4-2.3 5.2-1.4 19.1-8.8 19.5-13 .1-1.3-.2-2.4-.9-3.2-1-1.1-2.8-1.7-5.3-1.7-3.9 0-8.9 1.5-11.9 3.5-8.5 5.7-20.5 12.5-26.1 13.7-.3.1-.4.2-.4.3z" fill="#f80"/>
      </g>
      <g id="Head--group">
        <path d="M516.4 328.1c1.6 0 3.2 0 4.8.1 20.6.6 39.5 6.5 55.9 17 11.2 7.2 17.5 11.4 25.9 25.2 1.5 2.5 9 .8 7.9-1.1-10.1-17.6-17.5-22.3-29.8-30.3-17.7-11.4-37.8-17.6-59.7-18.2-1.6 0-3.3-.1-5-.1-1.6 0-3.3 0-4.9.1-24.3.6-47.8 6.6-67.8 17.1-20.2 10.6-37.1 26.1-48.9 44.7-7.7 12.3-10.3 23.9-7.4 33.5 2.4 7.8 7.9 12.7 12.3 14.6 1.4.6 2.9.9 4.7.9 9.3 0 34.7-9.3 45.7-24.8 8.4 4.5 17.6 6.7 28.1 6.7 12.6 0 25-3.2 36.4-6.9 3-1 3.8-2.2 3.9-4.1 0-1.3-1.2-3.6-3.8-3.5-.3 0-.7.1-1 .2-11.2 3.6-23.3 6.9-35.4 6.9-9.3 0-18.6-2-27.4-7.4-.6-.4-1.3-.5-1.9-.5-1.3 0-2.5.6-3.2 1.8l-.1.1c-7.9 14.3-33.3 24.1-41.2 24.1-.7 0-1.3-.1-1.7-.3-2.8-1.2-6.6-4.6-8.2-10-2.3-7.5 0-17 6.6-27.4 22.5-35.7 63.4-57.1 110.6-58.3 1.4-.1 3-.1 4.6-.1"/>
        <path d="M516.6 399.4c-1-.4-2-.7-3-.3-19.7 6.3-42.5 12-62.8-.5-1.7-1.1-4-.5-5.1 1.2l-.1.1c-8.6 15.7-38.3 26-43 23.9-2.8-1.2-6.6-4.6-8.2-10-2.3-7.5 0-17 6.6-27.4 22.5-35.7 63.4-57.1 110.6-58.3 3.1-.1 6.3-.1 9.5 0 20.6.6 39.5 6.5 55.9 17 13.2 8.5 19.7 12.7 30.6 33.6 5.6 10.5-84.4 23.5-91 20.7z" fill="#fc0"/>
      </g>
      <g id="LeftEar--group">
        <path d="M701.4 357.1c-.5 1.7-1.2 3.4-2 5.2-5 10-17.7 23-38 29.1-4.5 1.4-9.3 2-14 2h-.1c-13 0-34.2-4.9-61.6-28.3-1.9-1.7-5.1-4.8-7.1-7-2.3-2.5-2.8-6.1-1.5-9.1s4.4-5.1 7.8-5.1h.5c13.9.8 30.1 1.2 48.4 1.2 8.1 0 14.8-.1 19.3-.1h4.5c7.4 0 13.3-.1 18.2-.1 8.1 0 13.7.1 17.1.2 2.9.1 5.6 1.5 7.3 3.9 1.5 2.3 2 5.2 1.2 8.1z"/>
        <path d="M590.4 359.4c25.7 21.9 45.1 26.5 56.8 26.5h.1c4 0 8-.6 11.9-1.7 18.1-5.4 29.2-16.6 33.5-25.3.8-1.5 1.2-2.8 1.5-3.9.4-1.3-.6-2.6-1.9-2.7-3.3-.1-8.9-.2-16.7-.2-5.4 0-11.6 0-18.2.1-3.3 0-12.2.2-23.9.2-13.9 0-31.7-.2-48.8-1.2h-.1c-.9 0-1.5 1.1-.8 1.8 2 2.2 5 5.1 6.6 6.4z" fill="#f80"/>
      </g>
      <g id="Face--group">
        <path d="M417.6 376.2c-4.1 0-7.4 3.3-7.4 7.4 0 9.9 14.8 9.9 14.8 0 0-4.1-3.3-7.4-7.4-7.4z"/>
        <path d="M503.2 355.7c-4.1 0-7.4 3.3-7.4 7.4 0 9.9 14.8 9.9 14.8 0 0-4.1-3.3-7.4-7.4-7.4z"/>
        <path id="Face--group__nose" d="M457.9 375.4c-7.4.8-12.3 2.5-15.6 4.9-5.9 4.4-4.1 9.9 2.5 10.7 6.6.8 7.1 1.2 13.2-3.3 6.5-4.9 7.3-13.1-.1-12.3z"/>
      </g>
    </g>
    <g id="LeftLeg--group">
      <path d="M512.4 655.2c-4.6-5.2-3.7-15.7-1.9-29.4 2.6-19.8 5-34.5 25.4-50.8 24.4-19.5 62.2-15 76.2-.5 3.6 3.7 6.7 10.9 7.3 18.8.9 11.4-22.2 42.4-44.8 51.8-22.6 9.6-54 19.3-62.2 10.1z" fill="#fc0"/>
      <path d="M512.4 658.9c-1.2 0-2.3-.5-3-1.6-4.7-6.7-4.5-17.2-2.6-32 2.5-19 4.6-35.5 26.8-53.2 26.8-21.4 63.7-14 78.4.7 1.4 1.4 1.4 3.8 0 5.2-1.4 1.4-3.8 1.4-5.2 0-12.5-12.5-45.4-18.7-68.6-.1-18.9 15.1-21.4 28.2-24.1 48.4-1.4 11-2.3 21.8 1.3 26.7 1.2 1.7.8 4-.9 5.2-.6.5-1.4.7-2.1.7z"/>
    </g>
    <g id="LeftFoot--group">
      <path d="M523.7 651.2c-.4 1.9-2 9.1-6.7 16.2-7 10.6-17.8 16.5-30.4 16.5-7.2 0-12.9-2.1-16.8-6.2-7.5-7.8-7.1-21-6.7-33.7v-.1c.2-6.4.4-13.1-.4-18.5-.7-4.4-1.8-9.1-3.1-14.5-2.4-10.2-4.6-20.1-4.3-28.7.4-10.7 4.7-18.9 12.8-24.4 3.5-2.4 7.4-3.5 11.4-3.5 9.3 0 18.9 6.2 28.7 18.6 7.1 8.9 13.1 20 15.4 28.1 6.4 21.8 4.9 34.9.1 50.2z"/>
      <path d="M477 670.8c2 2.1 5.2 3.1 9.6 3.1 22.6 0 27-23.7 27.2-24.7 0-.2.1-.4.1-.6 4.4-13.9 5.7-25.2 0-44.8-3.7-13.2-21.1-39.4-34.4-39.4-2 0-4 .6-5.8 1.9-11.7 7.8-9.3 21.8-4.4 42.4 1.2 5.1 2.5 10.4 3.2 15.3 1 6.4.8 13.5.5 20.4-.2 10.6-.6 21.6 4 26.4z" fill="#fc0"/>
    </g>
    <g id="LeftArm--group">
      <g id="BeforeLeftArm--part"/>
      <path d="M478 413.3c-6.4 2.9-12.4 6.6-17.6 11.1-12.1 10.6-12.6 19.4-10.8 24.8 2.5 7.7 11.1 13.4 21.9 14.6 7.1.7 16.2-1.3 26.7-3.6 13.9-3.1 29.7-6.6 42.9-3.9 19.6 4.1 33.3 15 53.1 32.7l10.3 9.2c1.5 1.3 3.9 1.2 5.2-.4 1.3-1.5 1.2-3.9-.4-5.2l-2.9-2.6c-24-21.7-39.9-36-63.8-41-14.8-3.1-31.3.6-46 3.9-9.5 2.1-18.5 4.1-24.3 3.5-7.8-.8-14.1-4.6-15.7-9.5-1.5-4.7 1.6-10.7 8.7-17 20.7-18.2 59.1-23.7 87.5-12.5 4.7 1.9 7.4-5.1 2.7-6.9-11.4-4.4-24.6-6.6-37.7-6.2-10.1.4-30.5 4.8-39.8 9z"/>
      <path d="M615.4 451c11.7 12.2 17 60.3-6 41.6l-2.9-2.6c-24-21.7-39.9-36-63.8-41-14.8-3.1-31.3.6-46 3.9-9.5 2.1-18.5 4.1-24.3 3.5-7.8-.8-14.1-4.6-15.7-9.5-1.5-4.7 1.6-10.7 8.7-17 20.7-18.2 59.3-24 87.5-12.5 4.6 2 46.1 16.5 62.5 33.6z" fill="#fc0"/>
    </g>
    <g id="RightHand--group">
      <g id="BeforeRightHand--part"/>
      <path d="M390.6 457c-5.2 5.1-11.7 8.1-17.8 8.1-8.1 0-14-5.1-15.6-13.3-1-5.4.9-11.3 5.4-16.7 5.8-6.9 14.9-12 21.7-12.1h.2c1.3 0 2.6.2 3.8.6h.2l.1.1c4.5 1.8 7.9 6.2 9.1 11.8 1.4 7.5-1.2 15.5-7.1 21.5z"/>
      <path d="M385.4 451.7c4.2-4.2 6-9.6 5-14.7-.6-3.1-2.3-5.5-4.6-6.4-.4-.1-.9-.2-1.3-.2h-.1c-4 0-11.3 3.6-16.1 9.4-1.8 2.1-4.6 6.3-3.8 10.6 1.1 6 5.1 7.3 8.3 7.3 4.1 0 8.8-2.2 12.6-6z" fill="#fc0"/>
    </g>
    <g id="Front--group">
    </g>
  </g>
</svg>
