<svg version="1.1" id="wapuugotchi_svg__item" viewBox="0 0 1e3 1e3" xmlns="http://www.w3.org/2000/svg">
	<g class="Body--group">
		<circle transform="rotate(-45.001 470.59 529.33)" cx="470.6" cy="529.3" r="133.5"/>
		<circle cx="470.6" cy="529.3" r="126.1" fill="#fff"/>
		<path d="M465.7 495.6c1.2-6-3.1-12-9.4-13.4-5.8-1.3-11.4 1.8-13.3 7l-.1-.1c-8.6-6.2-18-.7-18-.7-8.5 5.3-16.9 10.7-25.4 16.1 2.7 3.9 4 5.9 6.7 9.8 8.2-5.1 12.3-7.7 20.4-12.7 9.5-6 12.8.1 12.8.1 5 6.1-1.9 10.6-1.9 10.6 2.8 3.8 4.2 5.8 7.1 9.5 8.5-5.9 10.1-12 8.9-17.4 5.8.5 11.1-3.2 12.2-8.8" fill="#f9ae41"/>
		<path d="m445.8 544.1.1-.1c6.1-8.3-.1-17.2-.1-17.2-5.9-8-11.7-16.2-17.4-24.5-3.9 2.5-5.8 3.8-9.7 6.4 5.4 8.1 8.1 12 13.5 19.8 6.5 9.1.3 12.2.3 12.2-6.3 4.9-11.3-1.8-11.3-1.8-4 2.7-6 4.1-10.1 6.8 6.3 8.2 13 9.6 18.8 8.4-.4 5.6 3.8 10.6 9.9 11.4 6.6.9 12.9-3.3 14-9.3 1.1-5.2-2.4-10.4-8-12.1" fill="#ee4035"/>
		<path d="M424.9 520.8c-8.2 5.1-12.3 7.7-20.5 13-9.7 6.3-13 .1-13 .1-5-6.2 2.1-11 2.1-11-2.8-4-4.1-6-6.9-10.1-8.6 6-10.4 12.6-9.4 18.3-5.9-.5-11.5 3.5-12.8 9.5-1.4 6.5 2.8 12.8 9.3 14 6 1.1 11.8-2.3 13.8-7.7l.1.1c8.8 6.1 18.5 0 18.5 0 8.5-5.6 17.1-11.2 25.6-16.7-2.7-3.9-4.1-5.7-6.8-9.5" fill="#4f91cd"/>
		<path d="M399 506.1c-6.3-9.7 0-12.8 0-12.8 6.3-4.7 11 2.4 11 2.4 4-2.6 6-3.9 9.9-6.5-6.1-8.6-12.5-10.6-18.1-9.8.5-5.9-3.4-11.5-9.2-13.1-6.3-1.7-12.5 2.1-13.9 8.6-1.3 5.9 2 11.9 7.4 14.1l-.1.1c-6.3 8.5-.4 18.3-.4 18.3 5.5 8.6 11.2 17.1 17 25.5 3.9-2.7 5.9-4 9.8-6.6-5.5-7.9-8.2-12-13.4-20.2" fill="#7ac043"/>
	</g>
</svg>
