<?xml version="1.0" encoding="utf-8"?>
<!-- Generator: Adobe Illustrator 25.2.0, SVG Export Plug-In . SVG Version: 6.00 Build 0)  -->
<svg version="1.1" id="Layer_1" xmlns="http://www.w3.org/2000/svg" xmlns:xlink="http://www.w3.org/1999/xlink" x="0px" y="0px"
	 viewBox="0 0 1000 1000" style="enable-background:new 0 0 1000 1000;" xml:space="preserve">
<style type="text/css">
	.st0{fill:#FFFFFF;}
	.st1{fill:#F9AE41;}
	.st2{fill:#EE4035;}
	.st3{fill:#4F91CD;}
	.st4{fill:#7AC043;}
</style>
<g id="Ball--group">
	
		<ellipse id="Ball-bg" transform="matrix(0.7071 -0.7071 0.7071 0.7071 -236.4523 487.7926)" cx="470.6" cy="529.3" rx="133.5" ry="133.5"/>
	<circle id="Ball_1_" class="st0" cx="470.6" cy="529.3" r="126.1"/>
	<g>
		<g>
			<path class="st1" d="M465.7,495.6c1.2-6-3.1-12-9.4-13.4c-5.8-1.3-11.4,1.8-13.3,7c-0.1-0.1-0.1-0.1-0.1-0.1
				c-8.6-6.2-18-0.7-18-0.7c-8.5,5.3-16.9,10.7-25.4,16.1c2.7,3.9,4,5.9,6.7,9.8c8.2-5.1,12.3-7.7,20.4-12.7
				c9.5-6,12.8,0.1,12.8,0.1c5,6.1-1.9,10.6-1.9,10.6c2.8,3.8,4.2,5.8,7.1,9.5c8.5-5.9,10.1-12,8.9-17.4
				C459.3,504.9,464.6,501.2,465.7,495.6"/>
			<path class="st2" d="M445.8,544.1c0.1-0.1,0.1-0.1,0.1-0.1c6.1-8.3-0.1-17.2-0.1-17.2c-5.9-8-11.7-16.2-17.4-24.5
				c-3.9,2.5-5.8,3.8-9.7,6.4c5.4,8.1,8.1,12,13.5,19.8c6.5,9.1,0.3,12.2,0.3,12.2c-6.3,4.9-11.3-1.8-11.3-1.8
				c-4,2.7-6,4.1-10.1,6.8c6.3,8.2,13,9.6,18.8,8.4c-0.4,5.6,3.8,10.6,9.9,11.4c6.6,0.9,12.9-3.3,14-9.3
				C454.9,551,451.4,545.8,445.8,544.1"/>
			<path class="st3" d="M424.9,520.8c-8.2,5.1-12.3,7.7-20.5,13c-9.7,6.3-13,0.1-13,0.1c-5-6.2,2.1-11,2.1-11c-2.8-4-4.1-6-6.9-10.1
				c-8.6,6-10.4,12.6-9.4,18.3c-5.9-0.5-11.5,3.5-12.8,9.5c-1.4,6.5,2.8,12.8,9.3,14c6,1.1,11.8-2.3,13.8-7.7
				c0.1,0.1,0.1,0.1,0.1,0.1c8.8,6.1,18.5,0,18.5,0c8.5-5.6,17.1-11.2,25.6-16.7C429,526.4,427.6,524.6,424.9,520.8"/>
			<path class="st4" d="M399,506.1c-6.3-9.7,0-12.8,0-12.8c6.3-4.7,11,2.4,11,2.4c4-2.6,6-3.9,9.9-6.5c-6.1-8.6-12.5-10.6-18.1-9.8
				c0.5-5.9-3.4-11.5-9.2-13.1c-6.3-1.7-12.5,2.1-13.9,8.6c-1.3,5.9,2,11.9,7.4,14.1c-0.1,0.1-0.1,0.1-0.1,0.1
				c-6.3,8.5-0.4,18.3-0.4,18.3c5.5,8.6,11.2,17.1,17,25.5c3.9-2.7,5.9-4,9.8-6.6C406.9,518.4,404.2,514.3,399,506.1"/>
		</g>
	</g>
</g>
</svg>
