<svg xmlns="http://www.w3.org/2000/svg" id="Layer_1" x="0" y="0" version="1.1" viewBox="0 0 1000 1000">
	<g id="RightArm_1_">
		<path id="RightArm--bg" d="M436.6 504c-4.5 5.1-10.5 7.9-17 7.9-9.1 0-18.5-5.5-24.4-14.4-7.8-11.6-15.5-21.2-22.3-27.9l-4.8-4.7c-2-2-1.1-5.3 1.6-6.1l6.5-1.7c3.2-.9 6.4-2.7 9.1-5.5 3-3 4.8-6.7 5.2-10.4V430c0-1.3 1.5-2.1 2.5-1.3l9.3 6.9c.7.5 1.7 1.1 2.9 1.7 10.2 4.9 31.7 27.4 35.7 46.7 2.1 10.1-1.2 16.5-4.3 20z"/>
		<path id="RightArm" d="M402.1 444.1c-1.5-.7-2.9-1.5-4.2-2.4-.5 5.5-3 11-7.3 15.3-3.7 3.7-8.1 6.2-12.5 7.4 8.7 8.6 17 19.8 23.2 29.1 4.5 6.7 11.6 11.1 18.3 11.1 4.1 0 8.1-1.6 11.4-5.4 13-14.8-17.3-49.6-28.9-55.1z" class="st0" fill="#fc0"/>
	</g>
	<g id="Tail--group">
		<path id="Tail--bg" d="M599.1 649.5c-9 25.7-26.4 50-50.3 70.3-23.8 20.3-51.8 34.7-81 41.6-6.9 1.6-14.1 2.5-21.5 2.5-30.8 0-58.9-13.9-74.8-27-13.6-11.1-21.2-23.3-20.9-33.5.4-12 6.7-20.7 16.8-23.3 2.1-.5 4.3-.8 6.7-.8 11.2 0 27.2 6.7 38.5 25.7 7.8 13.2 22 20.1 41.1 20.1h1.2c40.7-.8 87.6-31.2 109.1-70.8 7.7-14.1 13.2-29.6 17.1-40.8 1.9-5.4 3.6-10.1 5.1-13.5 1.3-3.1 4.1-9.4 10.4-9.4 4.1 0 7.6 1.8 9.9 5 5.5 7.6 3.3 23.3-7.4 53.9z"/>
		<path id="Tail_2_" d="M570.5 657.8c-22.7 41.7-72.5 73.9-115.5 74.7h-1.4c-21.6 0-38.3-8.4-47.4-23.8-9-15.1-22-22.1-32.1-22.1-1.7 0-3.3.2-4.8.6-7 1.8-11 7.6-11.3 16.4-.3 7.7 6.6 18 18.2 27.5 16.8 13.7 43.2 25.3 70.1 25.3 6.6 0 13.3-.7 19.8-2.3 57.2-13.5 108.5-57.4 126-107.1 5.4-15.3 16.7-49.2 4.5-49.2-4.5.1-10.8 31.8-26.1 60z" class="st1" fill="#f80"/>
	</g>
	<g id="Body--group">
		<path id="Body--bg" d="M649.7 531.9c-2 24-6.7 45.1-13.9 62.9-8.5 20.9-20.3 36.6-35.1 46.8-34 23.4-64.8 26-76.4 26-1.3 0-2.5 0-3.8-.1-18.4-.8-26-4.4-32.7-7.5-5.9-2.8-11-5.2-24.9-5.7-37.5-1.5-67-9.9-83.1-23.6-.2-.1-.5-.4-.9-.7-4.8-3.5-19.3-14.3-25-24.7-5.3-9.7-6.2-22.3-2.3-31.4 13.4-31.2 24.5-40.5 33.5-48 3.6-3 6.4-5.3 8.8-8.7 2.2-3.1 3.8-7.1 4.9-12.2 0-.1 0-.2.1-.3 3.9-15 3.4-34.9 2.8-56-.2-5.7-.3-11.7-.4-17.5v-.1c0-18.6 9.6-40.7 25.7-59.2 18.1-20.8 41.6-33.6 66.1-36.2 20.2-2.1 34.3-3.1 45.9-3.1 43.7 0 58.6 14.8 82.2 48.4 7.5 10.6 12.1 22.5 16 33.7 11.1 30.4 15.9 76.5 12.5 117.2z"/>
		<path id="Body_1_" d="M358.5 576.7c-3 7-2.2 17.4 2 25 5.6 10.3 23 22.2 24.1 23.2 15.1 12.9 43.7 20.5 78.7 21.9 31.2 1.3 24.3 11.8 57.6 13.3 1.1 0 2.2.1 3.5.1 16.7 0 43.7-5 72.2-24.7 58-39.9 52.9-165.3 34-218.6-3.9-11.1-8.3-22.2-15.1-31.9-23.5-33.5-36.6-45.2-76.2-45.2-12.2 0-26.9 1.1-45.1 3.1-49.9 5.3-85.3 55.3-85.3 88.1.3 27.4 2.5 55.1-2.7 75.5-1.4 6.5-3.4 11.2-6 14.9-9.8 13.5-23.4 12.4-41.7 55.3z" class="st0" fill="#fc0"/>
		<g id="Ball--group">
			<g class="Ball--group">
				<defs>
					<clipPath id="halloween_cauldron_1__ball">
						<path d="M386.147 454.616c43.608 22.833 135.03 33.179 168.629 26.117l8.324 6.667 16.4-1.2s4.8-20.3 5.3-20.7c.6-.4-32.7-25.7-33.8-27.1-1.1-1.4-17.6-21.8-17.6-21.8l-48.1-.7s-48.7-7.5-49.4-8.4c-.7-.9-22.9-13.8-27.4-12.6-4.5 1.2-32.9 22.6-32.9 22.6L366 452l7.5 8.2 10.7.3z"/>
					</clipPath>
				</defs>
				<path fill="#000101" d="M597.3 521c-2.3-7.1-6-12-11.1-14.5-2.5-1.3-5.3-1.9-8.3-1.9-1 0-2.1.1-3.1.2-.9-2-1.5-3.5-2-4.6 9.9-5.2 15.6-12.5 17-21.5v-.2l.1-.8h-.1c1.1-20.4-53.8-39.5-106.8-47.2-17.7-2.6-35.8-3.9-52.3-3.9-38.5 0-61.7 7.1-63.7 19.6v.2c-1.3 8.7 2.3 17.2 10.5 25.1-.9 1-2 2.3-3.4 4-1.8-.7-4.3-1.5-7.2-1.5-1 0-2.1.1-3.1.3-5.6 1-10.6 4.6-14.8 10.8-4.2 6.1-5.7 12-4.5 17.6.7 3.5 2.4 6.6 5 9.4-15.8 29.6-19.9 55.8-12.1 77.9 11.6 32.9 49.8 54.3 113.3 63.5 15.5 2.2 29.9 3.4 42.9 3.4 40.1 0 68.3-10.8 83.8-32.1 13.6-18.7 17.2-44.8 10.7-77.3 2.4-1.2 6.2-3.7 8.6-8.2 2.7-5.2 2.9-11.3.6-18.3z"/>
				<path fill="#182b47" d="m576.5 521.9-.5.4c-.9.8-1.8 1.5-2.7 2.3-1.5 1.4-3.1 2.7-4.8 3.9l-2.8 1.9c-.3.2-.6.4-.9.5-.4.2-.7.4-1.1.6l-1.1.6c-1.6.9-3.3 1.7-5 2.3l-1.4.6c-8.1 3.1-17.4 4.3-27.6 3.4-1.8-.1-3.8-.3-5.7-.6-7.4-1.1-14.4-3.3-21.6-5.8-1.6-.7-3.2-1.4-4.8-2-2.8-1.2-5.6-2.3-8.3-3.6l-11.9-6.3.6-3.9c.5-3.4-1.9-6.5-5.2-7-3.4-.5-6.5 1.9-7 5.2l-.5 3.2-13.1 2.6c-2.9.5-5.8.8-8.6 1.1l-5.4.6c-7.3.3-14.9.5-22.4-.6-2-.3-3.9-.7-5.8-1.1-10-2.1-18.6-5.9-25.4-11.1l-1.2-1c-1.4-1.1-2.8-2.2-4.1-3.6-.3-.3-.6-.5-.9-.8l-1.6-1.6-2.2-2.7c-1.4-1.6-2.4-3.4-3.5-5.1-.6-.9-1.2-1.8-1.8-2.8l-.4-.5.4-.5c5.8-8.1 10.9-14.2 13.4-17l.6-.7.7.5c17 13.5 47.7 24.2 86.8 30.1.9.2 1.8.3 2.7.4 41.9 6.1 74.7 4.9 94.8-3.3l.8-.3.4.8c1.2 2.6 4.4 9.9 7.9 20.1z"/>
				<path fill="#182b47" d="M482.5 435c-64-9.3-109-1.3-110.9 12v1.1c0 .5.1.9.3 1.4.3 1 .6 1.9 1.1 2.6.9 1.8 2.2 3.4 3.6 4.9 3 3.2 6.5 5.7 9.7 7.8.3.2.7.5 1.1.7.1 0 .2.1.3.1.9.6 1.7 1.1 2.6 1.6l-4.2-2.1c-3.3-1.9-7.2-4.1-10.7-7.3l-1.4 1.1c9.5 19 46.6 34.8 99.2 42.4 55.1 8 94.4 3.3 107.8-12.9l-1.4-1.2c-.2.1-.4.3-.6.3-3.7 1.8-7.5 2.8-12.1 3.9-1.5.3-3 .6-4.6.8l4.5-1.2c1.1-.4 2.4-.8 3.6-1.2 2.6-.9 5.4-2.1 7.9-3.6 1.7-1.1 3.4-2.2 4.7-3.6.6-.6 1.3-1.4 1.8-2.2.3-.4.5-.9.6-1.2 0-.1.1-.3.2-.5s.1-.5.2-.7c1.5-13.3-39.4-33.7-103.3-43zm-96.7 14.1c1.3-9.2 43.1-10.5 95-3s91.6 20.7 90.3 29.9c-1.3 9.2-43.1 10.5-95 3-51.9-7.6-91.6-20.7-90.3-29.9z"/>
				<path fill="#0b1828" d="m575.9 509.2-1.1.1.4 1.1c.2.6 1.5 4 1.5 4l.7-.1c.9-.1 1.8-.1 2.6 0 1 .2 2 .5 3 .9 2.8 1.4 4.9 4.1 6.1 8 1.2 3.9 1.1 7.3-.3 10-.9 1.7-2.3 3.1-4.1 4.2l-.6.3 1.4 5.9 1-.6c2.8-1.6 4.9-3.6 6.2-6.1 2-3.9 2.2-8.8.3-14.7-1.9-5.9-4.9-9.9-8.8-11.8-1.3-.6-2.7-1.1-4.1-1.3-1.4-.1-2.8-.1-4.2.1z"/>
				<path fill="#8c4d02" d="M521.9 550.5c31.7 4.6 50.7-10.8 57.5-17.6 1.8-1.8 2.8-3.1 3.1-3.5l.1-.1c.1-.1.3-.3.4-.5.4-.5 1.4-1.9 1.5-3.9.1-2.1-.8-5.2-2.8-7.3l-.1-.1-.2-.1c-.6-.3-1.3-.4-2-.5l-1.8-.2.4 1.3c.1.3.5 1.3.5 1.3l.1.7.8-.1c-.1.2-.1.4-.2.7-.6 1.7-1.5 3.2-2.9 4.8-1.4 1.6-3.2 3-4.9 4.4l-1.1.9-3 2.1-2.1 1.2-1.1.6c-1.6 1-3.5 1.8-5.3 2.6l-1.3.6c-8.6 3.4-18.6 4.8-28.8 4-1.9-.1-3.8-.3-5.8-.6-7.8-1.1-15.4-3.6-22.5-6l-3.9-1.8c-3.1-1.4-6.3-2.8-9.3-4.2l-11-6.2-1.2 8.6.5.3c16 10.2 31.7 16.5 46.4 18.6z"/>
				<path fill="#0b1828" d="M464.1 536.4c-.3 2 1.1 3.8 3 4.1 2 .3 3.8-1.1 4.1-3l3.1-21.4c.3-1.9-1.1-3.8-3-4-2-.3-3.8 1.1-4.1 3l-.6 3.9c0 .2 0 .3-.1.5z"/>
				<path fill="#182b47" d="m580.5 535.3-1.1 1c-8.9 8-28.4 20.9-58.4 16.5-14.4-2.1-29.7-8-45.5-17.6l-1.2-.7-.5 3.4c-.5 3.4-3.6 5.8-7 5.3s-5.7-3.7-5.2-7l.6-4-1.3.4c-17.9 4.7-34.3 6.1-48.6 4-29.8-4.3-44.9-22.1-51.2-32.2l-.8-1.3-.8 1.3c-13.7 22.5-27.9 55.4-17.7 84.3 11.1 31.2 48 51.6 109.7 60.6s102.9-.1 122.4-26.9c17.9-24.6 13.7-60 7.1-85.3z"/>
				<path fill="#8c4d02" d="M367 487.9c.1-.1.2-.3.3-.4l.8-1.4h-1.6c-.5 0-1 0-1.5.1-1.6.3-3.1 1.2-4.6 2.7-.6.8-.8 1.5-1.1 2.7-.4 1.4-.2 2.9.4 4.5l.2.4v.1c.1.3.7 1.9 2.1 4.4 4.6 8.4 18.6 28.4 50 32.9 14.7 2.1 31.5.6 50-4.5l.6-.2 1.3-8.6-12.2 2.8c-3.2.6-6.5 1-9.7 1.4-1.6.2-3.2.4-4.7.6-7.5.3-15.4.5-23.2-.6-2-.3-4-.7-5.9-1.1-10.1-2.2-19.2-6.3-26.5-12l-1.1-.9c-1.5-1.2-3-2.5-4.4-4-.3-.4-.7-.7-1-1.1-.5-.5-1-1-1.5-1.6l-2.3-2.9-.9-1.3c-1.2-1.7-2.4-3.5-3.3-5.3-.9-1.8-1.4-3.5-1.6-5.3 0-.4 0-.8-.2-1.2l.9.6z"/>
				<path fill="#0b1828" d="m352.4 508.4.8 1 3-5.3-.4-.5c-1-1.4-1.7-2.8-2-4.3-.6-3 .2-6.3 2.5-9.7 1.8-2.7 3.9-4.5 6.3-5.4.2-.1.4-.2.7-.2.2 0 .3-.1.5-.2s.4-.1.7-.2c1-.2 2-.2 3-.1.6.1 1.1.2 1.6.4l.6.2.4-.5c.8-1 1.5-2 2.2-2.9l.8-1-1.2-.4c-1-.3-2-.6-2.9-.7-1.5-.2-2.9-.2-4.3.1-4.4.8-8.3 3.8-11.8 8.9-3.4 5.1-4.7 9.8-3.9 14.1.5 2.4 1.6 4.6 3.4 6.7zm123.9-30.7c54.7 7.9 92.6 5.4 93.7-1.9 1.1-7.4-34.5-20.6-89.2-28.5-54.7-7.9-92.6-5.4-93.7 2-1.1 7.3 34.5 20.5 89.2 28.4z"/>
				<path fill="#000101" d="M587 546.8c2.3-1 6.3-3.4 8.8-8.1 2.6-4.8 2.7-10.6.6-17.4-2.2-6.8-5.7-11.5-10.6-14-4.6-2.3-9.2-1.9-11.5-1.4-1.1-2.6-2-4.7-2.7-6.1 10-5 16-12.2 17.3-21.2v-.2c2.5-19.4-51.8-39-105.9-46.9-54.1-7.8-111.7-4.4-114.9 14.8v.2c-1.3 8.7 2.6 17.2 10.9 24.9-1 1.1-2.5 2.9-4.4 5.2-2.3-1.1-6.1-2.2-10.4-1.4-5.4 1-10.1 4.4-14.2 10.4-4 5.9-5.5 11.5-4.4 16.8.9 4.5 3.4 7.6 5.2 9.5-12.2 22.7-21.7 51.5-12.4 77.7 11.5 32.6 49.4 53.7 112.5 62.9 63.1 9.2 105.4-.4 125.7-28.3 16.3-22.4 15.6-52.3 10.4-77.4zm-3.1-35.5c3.8 1.9 6.6 5.7 8.4 11.3 1.8 5.6 1.7 10.3-.3 14-1.6 3-4.1 4.8-5.9 5.8-.3-1.4-.6-2.7-1-4 1.4-.8 3.3-2.2 4.5-4.5 1.6-3 1.7-6.6.4-10.7-1.3-4.2-3.6-7.1-6.6-8.6-2.3-1.2-4.5-1.2-6.1-1.1-.4-1.2-.9-2.3-1.3-3.3 1.9-.3 4.9-.4 7.9 1.1zm2.2 19.3c-.1.4-.2.7-.4 1.1-.5.9-1.1 1.6-1.7 2.1-.1-.2-.1-.4-.1-.5.7-.8 1.1-1.3 1.3-1.5.1-.2.5-.6.9-1.2zm-6.5-11.6h-.3c-.2-.4-.3-.8-.5-1.3.7.1 1.4.2 2.1.5 1.9 1.9 2.6 4.8 2.6 6.6 0 1.6-.8 2.8-1.2 3.3-.2.3-.4.4-.4.4l-.3.3c-.2.3-1.2 1.6-3 3.3-9.8 9.9-43.8 35.9-103.1-1.1l1-6.7 9.8 5.5c4.4 2.1 8.9 4 13.3 6 9.2 3.1 18.7 6.1 28.6 6.6 9.8.8 20-.4 29.2-4.1 2.3-1 4.6-1.9 6.8-3.2 1.1-.6 2.2-1.2 3.2-1.9l3.1-2.2c2.1-1.7 4.4-3.4 6.2-5.4 1.3-1.5 2.5-3.1 3.1-5.1.1-.3.2-.5.2-.8.3-.1.1-.6-.4-.7zm-205.1-60.4.2.2c3.3 3 7 5.2 10.7 7.3 3.8 2 7.6 3.7 11.6 5.2 3.9 1.6 7.9 2.9 11.9 4.2-3.9-1.7-7.7-3.3-11.5-5.2-3.8-1.8-7.4-3.9-10.9-6.1-3.4-2.3-6.8-4.8-9.5-7.7-1.3-1.5-2.6-3-3.4-4.7-.5-.8-.8-1.7-1-2.5-.1-.4-.2-.8-.2-1.2v-.9c1.8-12.6 47.4-20.3 109.9-11.3 62.5 9.1 104 29.4 102.2 42 0 .2-.1.4-.2.6 0 .1-.1.2-.1.3-.1.4-.3.8-.5 1.1-.4.7-1 1.4-1.7 2.1-1.3 1.4-2.9 2.5-4.6 3.5-3.4 2-7.4 3.4-11.3 4.7-4 1.2-8 2.1-12.2 2.8-4.1.8-8.3 1.2-12.5 1.7 4.2-.1 8.4-.2 12.6-.6 4.2-.3 8.4-.9 12.5-1.7 4.2-.9 8.3-2 12.3-3.9.3-.1.6-.3.9-.5-13 15.7-52 20.6-107 12.6-52.3-7.6-89-23.7-98.2-42zm7.8 15.6c17.1 13.7 48.6 24.7 90 30.7 42.5 6.2 75.3 4.8 95.2-3.4 1.5 3.3 4.6 10.5 7.9 20-2.5 2.1-4.7 4.4-7.4 6.2l-2.8 1.9c-1 .6-2 1.1-3 1.7-2 1.2-4.2 2-6.3 2.8-8.6 3.3-18 4.1-27.2 3.4-9.3-.4-18.3-3.3-27.1-6.3-4.3-1.9-8.7-3.6-12.9-5.6l-11.3-6 .5-3.2c.6-3.9-2.1-7.5-6-8-3.9-.6-7.5 2.1-8 6l-.4 2.6-12.5 2.5c-4.7.7-9.3 1.1-14 1.7-9.3.4-18.8.5-27.8-1.7-9-1.9-17.8-5.4-25.1-11-1.8-1.4-3.7-2.8-5.2-4.5-.8-.8-1.7-1.6-2.4-2.5l-2.2-2.7c-2-2.5-3.4-5.2-5.2-7.8 6-8.3 11.1-14.3 13.2-16.8zm91.2 41.7-3.1 21.4c-.2 1.5-1.6 2.5-3 2.3-1.5-.2-2.5-1.6-2.3-3l.9-5.9v-.1l1.6-11c.1-.2.1-.4.1-.7l.6-3.8c.2-1.5 1.6-2.5 3-2.2 1.3.2 2.4 1.5 2.2 3zm-108.7-26.5c.2 2 .8 3.9 1.7 5.6 1.1 2.4 2.8 4.6 4.3 6.7l2.3 2.9c.8.9 1.7 1.8 2.6 2.7 1.7 1.9 3.7 3.4 5.6 5 7.9 6.2 17.2 10.2 26.8 12.2 9.7 2.3 19.6 2.2 29.3 1.8 4.8-.7 9.7-1.2 14.5-2l11-2.5-1 6.7c-66.9 18.4-92.1-15.5-99-28-1.3-2.4-1.9-3.9-2-4.3 0-.1-.1-.2-.2-.3 0 0 0-.1-.1-.2-.2-.6-.8-2.1-.4-3.8.3-1.1.5-1.7 1-2.4 1.2-1.3 2.6-2.1 4-2.3.5-.1.9-.1 1.4-.1-.1.2-.3.4-.4.5-.1-.1-.3-.2-.5-.2-.5 0-.8.4-.9.8-.1.4-.1.8 0 1.2zm-14.9 12.1c-.8-4.1.5-8.6 3.7-13.5 3.3-4.9 7.1-7.7 11.2-8.5 2.7-.5 5.1 0 6.8.6-.7.9-1.5 1.9-2.2 2.9-1.4-.4-3.1-.7-5-.3l-1.2.3c-.3 0-.6.1-.9.3-2.5 1-4.7 2.9-6.6 5.7-2.4 3.6-3.3 7.1-2.7 10.4.4 2 1.3 3.5 2.2 4.7l-2.1 3.6c-1.3-1.4-2.7-3.5-3.2-6.2zm223.2 120C553.8 648 513 657 451.6 648.1c-61.4-8.9-98-29.1-109-60-10-28.2 3.5-60.4 17.6-83.5 6.3 10.1 21.5 28.3 51.8 32.7 13.3 1.9 29.5 1.2 49-4l-.4 2.6c-.6 3.9 2.1 7.5 6 8.1 3.9.6 7.5-2.1 8-6l.3-2c17.3 10.5 32.6 15.8 45.9 17.8 30.5 4.4 50.4-8.8 59.2-16.7 6.9 26 10.5 60.4-6.9 84.4z"/>
				<path fill="#000101" d="M587 546.8c2.3-1 6.3-3.4 8.8-8.1 2.6-4.8 2.7-10.6.6-17.4-2.2-6.8-5.7-11.5-10.6-14-4.6-2.3-9.2-1.9-11.5-1.4-1.1-2.6-2-4.7-2.7-6.1 10-5 16-12.2 17.3-21.2v-.2c2.5-19.4-51.8-39-105.9-46.9-54.1-7.8-111.7-4.4-114.9 14.8v.2c-1.3 8.7 2.6 17.2 10.9 24.9-1 1.1-2.5 2.9-4.4 5.2-2.3-1.1-6.1-2.2-10.4-1.4-5.4 1-10.1 4.4-14.2 10.4-4 5.9-5.5 11.5-4.4 16.8.9 4.5 3.4 7.6 5.2 9.5-12.2 22.7-21.7 51.5-12.4 77.7 11.5 32.6 49.4 53.7 112.5 62.9 63.1 9.2 105.4-.4 125.7-28.3 16.3-22.4 15.6-52.3 10.4-77.4zm-3.1-35.5c3.8 1.9 6.6 5.7 8.4 11.3 1.8 5.6 1.7 10.3-.3 14-1.6 3-4.1 4.8-5.9 5.8-.3-1.4-.6-2.7-1-4 1.4-.8 3.3-2.2 4.5-4.5 1.6-3 1.7-6.6.4-10.7-1.3-4.2-3.6-7.1-6.6-8.6-2.3-1.2-4.5-1.2-6.1-1.1-.4-1.2-.9-2.3-1.3-3.3 1.9-.3 4.9-.4 7.9 1.1zm2.2 19.3c-.1.4-.2.7-.4 1.1-.5.9-1.1 1.6-1.7 2.1-.1-.2-.1-.4-.1-.5.7-.8 1.1-1.3 1.3-1.5.1-.2.5-.6.9-1.2zm-6.5-11.6h-.3c-.2-.4-.3-.8-.5-1.3.7.1 1.4.2 2.1.5 1.9 1.9 2.6 4.8 2.6 6.6 0 1.6-.8 2.8-1.2 3.3-.2.3-.4.4-.4.4l-.3.3c-.2.3-1.2 1.6-3 3.3-9.8 9.9-43.8 35.9-103.1-1.1l1-6.7 9.8 5.5c4.4 2.1 8.9 4 13.3 6 9.2 3.1 18.7 6.1 28.6 6.6 9.8.8 20-.4 29.2-4.1 2.3-1 4.6-1.9 6.8-3.2 1.1-.6 2.2-1.2 3.2-1.9l3.1-2.2c2.1-1.7 4.4-3.4 6.2-5.4 1.3-1.5 2.5-3.1 3.1-5.1.1-.3.2-.5.2-.8.3-.1.1-.6-.4-.7zm-205.1-60.4.2.2c3.3 3 7 5.2 10.7 7.3 3.8 2 7.6 3.7 11.6 5.2 3.9 1.6 7.9 2.9 11.9 4.2-3.9-1.7-7.7-3.3-11.5-5.2-3.8-1.8-7.4-3.9-10.9-6.1-3.4-2.3-6.8-4.8-9.5-7.7-1.3-1.5-2.6-3-3.4-4.7-.5-.8-.8-1.7-1-2.5-.1-.4-.2-.8-.2-1.2v-.9c1.8-12.6 47.4-20.3 109.9-11.3 62.5 9.1 104 29.4 102.2 42 0 .2-.1.4-.2.6 0 .1-.1.2-.1.3-.1.4-.3.8-.5 1.1-.4.7-1 1.4-1.7 2.1-1.3 1.4-2.9 2.5-4.6 3.5-3.4 2-7.4 3.4-11.3 4.7-4 1.2-8 2.1-12.2 2.8-4.1.8-8.3 1.2-12.5 1.7 4.2-.1 8.4-.2 12.6-.6 4.2-.3 8.4-.9 12.5-1.7 4.2-.9 8.3-2 12.3-3.9.3-.1.6-.3.9-.5-13 15.7-52 20.6-107 12.6-52.3-7.6-89-23.7-98.2-42zm7.8 15.6c17.1 13.7 48.6 24.7 90 30.7 42.5 6.2 75.3 4.8 95.2-3.4 1.5 3.3 4.6 10.5 7.9 20-2.5 2.1-4.7 4.4-7.4 6.2l-2.8 1.9c-1 .6-2 1.1-3 1.7-2 1.2-4.2 2-6.3 2.8-8.6 3.3-18 4.1-27.2 3.4-9.3-.4-18.3-3.3-27.1-6.3-4.3-1.9-8.7-3.6-12.9-5.6l-11.3-6 .5-3.2c.6-3.9-2.1-7.5-6-8-3.9-.6-7.5 2.1-8 6l-.4 2.6-12.5 2.5c-4.7.7-9.3 1.1-14 1.7-9.3.4-18.8.5-27.8-1.7-9-1.9-17.8-5.4-25.1-11-1.8-1.4-3.7-2.8-5.2-4.5-.8-.8-1.7-1.6-2.4-2.5l-2.2-2.7c-2-2.5-3.4-5.2-5.2-7.8 6-8.3 11.1-14.3 13.2-16.8zm91.2 41.7-3.1 21.4c-.2 1.5-1.6 2.5-3 2.3-1.5-.2-2.5-1.6-2.3-3l.9-5.9v-.1l1.6-11c.1-.2.1-.4.1-.7l.6-3.8c.2-1.5 1.6-2.5 3-2.2 1.3.2 2.4 1.5 2.2 3zm-108.7-26.5c.2 2 .8 3.9 1.7 5.6 1.1 2.4 2.8 4.6 4.3 6.7l2.3 2.9c.8.9 1.7 1.8 2.6 2.7 1.7 1.9 3.7 3.4 5.6 5 7.9 6.2 17.2 10.2 26.8 12.2 9.7 2.3 19.6 2.2 29.3 1.8 4.8-.7 9.7-1.2 14.5-2l11-2.5-1 6.7c-66.9 18.4-92.1-15.5-99-28-1.3-2.4-1.9-3.9-2-4.3 0-.1-.1-.2-.2-.3 0 0 0-.1-.1-.2-.2-.6-.8-2.1-.4-3.8.3-1.1.5-1.7 1-2.4 1.2-1.3 2.6-2.1 4-2.3.5-.1.9-.1 1.4-.1-.1.2-.3.4-.4.5-.1-.1-.3-.2-.5-.2-.5 0-.8.4-.9.8-.1.4-.1.8 0 1.2zm-14.9 12.1c-.8-4.1.5-8.6 3.7-13.5 3.3-4.9 7.1-7.7 11.2-8.5 2.7-.5 5.1 0 6.8.6-.7.9-1.5 1.9-2.2 2.9-1.4-.4-3.1-.7-5-.3l-1.2.3c-.3 0-.6.1-.9.3-2.5 1-4.7 2.9-6.6 5.7-2.4 3.6-3.3 7.1-2.7 10.4.4 2 1.3 3.5 2.2 4.7l-2.1 3.6c-1.3-1.4-2.7-3.5-3.2-6.2zm223.2 120C553.8 648 513 657 451.6 648.1c-61.4-8.9-98-29.1-109-60-10-28.2 3.5-60.4 17.6-83.5 6.3 10.1 21.5 28.3 51.8 32.7 13.3 1.9 29.5 1.2 49-4l-.4 2.6c-.6 3.9 2.1 7.5 6 8.1 3.9.6 7.5-2.1 8-6l.3-2c17.3 10.5 32.6 15.8 45.9 17.8 30.5 4.4 50.4-8.8 59.2-16.7 6.9 26 10.5 60.4-6.9 84.4z"/>
				<path fill="#000101" d="M481 445.2c-45.3-6.6-94.4-7.5-96.1 3.8-1.6 11.2 45.7 24.3 91 30.9 45.3 6.6 94.4 7.5 96.1-3.7 1.7-11.4-45.7-24.4-91-31zm-4.6 31.6c-56.1-8.1-89.3-21.5-88.5-27.5.9-6 36.5-9.3 92.6-1.2 56.1 8.1 89.3 21.5 88.5 27.5-.8 6-36.5 9.4-92.6 1.2zm-27 58c-.6-.1-1-.6-1-1.2.8-12.2 12.1-14.6 12.2-14.7.6-.1 1.2.3 1.3.9.1.6-.3 1.2-.9 1.3-.4.1-9.7 2.1-10.4 12.6 0 .7-.5 1.2-1.2 1.1zm-12.6 1.7c-.6-.1-1-.6-1-1.2.8-12.2 12.1-14.6 12.2-14.7.6-.1 1.2.3 1.3.9.1.6-.3 1.2-.9 1.3-.4.1-9.7 2.1-10.4 12.6 0 .7-.5 1.2-1.2 1.1.1 0 0 0 0 0zm-13.3 1.4c-.6-.1-1-.6-1-1.2.8-12.2 12.1-14.6 12.2-14.7.6-.1 1.2.3 1.3.9.1.6-.3 1.2-.9 1.3-.4.1-9.7 2.1-10.4 12.6 0 .7-.5 1.2-1.2 1.1 0 .1 0 0 0 0zm-13.5-1.1c-.6-.1-1-.7-1-1.3 1.4-9.9 10.5-13.2 10.9-13.3.6-.2 1.2.1 1.4.7.2.6-.1 1.2-.7 1.4-.3.1-8.3 3.1-9.4 11.5 0 .6-.6 1-1.2 1zm-14.8-5.5c-.1 0-.3-.1-.4-.2-.5-.3-.7-1-.4-1.6 6.3-10.5 17.4-7.5 17.6-7.5.6.2 1 .8.8 1.4-.2.6-.8.9-1.4.8-.4-.1-9.6-2.5-15 6.5-.3.5-.8.7-1.2.6zm-12.5-4.8c-.1 0-.3-.1-.4-.2-.5-.3-.7-1-.4-1.6 6.3-10.5 17.4-7.5 17.6-7.5.6.2 1 .8.8 1.4-.2.6-.8.9-1.4.8-.4-.1-9.6-2.5-15 6.5-.3.5-.8.7-1.2.6zm-10.5-7.9c-.2 0-.3-.1-.5-.2-.5-.4-.6-1.1-.3-1.6 5.8-8.2 14.3-6.3 14.6-6.2.6.1 1 .8.8 1.4-.1.6-.8 1-1.4.8-.3-.1-7.4-1.6-12.2 5.3-.1.4-.6.6-1 .5zm-7.4-9.6c-.1 0-.3-.1-.4-.1-.5-.3-.7-1-.4-1.6 4.7-8 11.7-4.9 11.8-4.9.6.3.8.9.6 1.5-.3.6-.9.8-1.5.6-.2-.1-5.2-2.2-8.9 3.9-.3.4-.8.7-1.2.6zm-6.8-9.9c-.2 0-.3-.1-.5-.2-.5-.4-.6-1.1-.3-1.6 2.2-3.2 4.7-5 7.2-5.4 2.6-.4 4.3.9 4.3.9.5.4.6 1.1.2 1.6-.4.5-1.1.6-1.6.2-.1 0-1.1-.8-2.7-.5-1.8.3-3.8 1.8-5.6 4.4-.1.5-.6.6-1 .6zm217.6 39.6c-.5.2-1.1.1-1.4-.4-5.2-9.4 3.2-17 3.3-17 .5-.4 1.2-.4 1.6 0 .4.4.4 1-.1 1.4-.3.3-7.2 6.6-2.8 14.6.3.5 0 1.1-.6 1.4.1 0 0 0 0 0zm-11.1 7.5c-.6.1-1.1-.3-1.3-.9-2.8-11.9 7.2-17.6 7.4-17.6.5-.3 1.2-.1 1.5.5.3.5.1 1.2-.4 1.5-.4.2-8.6 4.9-6.2 15.1.1.7-.3 1.3-1 1.4.1 0 0 0 0 0zm-15 5.4c-.6 0-1.1-.4-1.1-1-1-12.2 9.8-16.3 9.9-16.3.6-.2 1.2.1 1.5.7.2.6-.1 1.2-.7 1.5-.4.1-9.3 3.6-8.4 14 0 .5-.5 1.1-1.2 1.1.1 0 0 0 0 0zm-13.5 2.5c-.6 0-1.1-.5-1.1-1.1 0-10 8.7-14.5 9.1-14.7.6-.3 1.2-.1 1.5.5.3.6.1 1.2-.5 1.5-.3.2-7.8 4.1-7.8 12.7 0 .6-.5 1.1-1.2 1.1zm-14.3-1.2h-.4c-.6-.1-1-.8-.8-1.4 2.9-11.9 14.5-12.3 14.6-12.3.6 0 1.1.5 1.2 1.1 0 .6-.5 1.1-1.1 1.2-.4 0-9.9.4-12.4 10.6-.2.4-.6.7-1.1.8zm-12.3-1.8h-.4c-.6-.1-1-.8-.8-1.4 2.9-11.9 14.5-12.3 14.6-12.3.6 0 1.1.5 1.2 1.1 0 .6-.5 1.1-1.1 1.2-.4 0-9.9.4-12.4 10.6-.3.4-.7.7-1.1.8zm-12.3-4.6h-.5c-.6-.2-.9-.8-.7-1.4 3.1-9.5 11.8-10.2 12.1-10.2.6 0 1.2.4 1.2 1.1 0 .6-.4 1.2-1 1.2-.3 0-7.5.6-10.1 8.7-.2.2-.6.5-1 .6zm-11-6h-.4c-.6-.1-1-.8-.8-1.4 2.2-9 9.7-8.1 9.8-8.1.6.1 1.1.7 1 1.3-.1.6-.6 1.1-1.3 1-.2 0-5.6-.6-7.3 6.4-.1.4-.5.7-1 .8zm-9.3-7.5h-.5c-.6-.2-.9-.8-.7-1.4 1.2-3.7 3-6.1 5.3-7.3 2.3-1.1 4.3-.4 4.4-.4.6.2.9.9.7 1.5-.2.6-.9.9-1.4.7-.1 0-1.3-.4-2.7.3-1.7.8-3.1 2.9-4.1 5.9-.3.3-.6.6-1 .7z"/>
				<g clip-path="url(#halloween_cauldron_1__ball)" transform="translate(5.648 -.87)">
					<path fill="#b1ffb1" d="m437.06 452.663-.259.151c-.345.202-.74.317-1.086.519-.741.317-1.533.548-2.325.779-7.981 1.998-16.65-1.74-20.506-9.331-.872-1.691-1.434-3.447-1.637-5.182-1.04-6.34 1.367-12.727 6.339-16.905.64-.49 1.28-.98 2.057-1.433l1.296-.757c8.937-4.526 19.75-.883 24.226 7.968 2.263 4.469 2.497 9.428.988 13.784a18.323 18.323 0 0 1-9.092 10.407z"/>
					<path fill="#000101" d="m421.407 421.504.432-.252-.101-.173-.05-.086-.05-.086a.756.756 0 0 1-.397.115c-.259.151-.568.216-.914.418l-.172.1.151.26.151.259c.295-.288.554-.44.95-.555zm16.172 32.245.173-.1.432-.253 1.554-.908c3.475-2.377 6.122-5.776 7.423-9.894 1.652-4.903 1.268-10.122-1.096-14.763-2.314-4.555-6.304-8.015-11.156-9.581a19.126 19.126 0 0 0-12.453.094l-1.705.648-.432.253-.086.05-.519.303-.777.454-.086.05c-.518.303-.9.641-1.418.944-.259.151-.467.389-.726.54-5.23 4.33-7.919 11.227-6.763 17.964l.065.31c.08.532.246 1.014.325 1.547l.346 1.187c.116.396.318.741.433 1.137.166.482.418.914.584 1.396l.151.26.605 1.035c.202.346.404.691.692.986.692.986 1.52 2.008 2.384 2.892.05.087.188.123.238.209a18.316 18.316 0 0 0 5.343 3.596c3.924 1.761 8.43 2.14 12.576 1.108.31-.065.62-.13.878-.281.569-.217 1.05-.383 1.62-.599l.086-.05c.259-.152.568-.217.827-.368l.26-.151c.05.086.136.036.222-.015zm-22.952-8.364-.606-1.037-.151-.259c-.252-.431-.418-.914-.584-1.396-.115-.396-.317-.74-.432-1.137l-.101-.172c-.065-.31-.18-.706-.246-1.015-.115-.396-.23-.792-.21-1.152l-.05-.086c-.91-5.722 1.217-11.597 5.584-15.422l.26-.151.085-.05c.295-.289.554-.44.9-.642.345-.202.554-.44.9-.641l.086-.05.259-.152.95-.555.431-.252.086-.05c.346-.202.742-.318 1.138-.433.395-.115.74-.317 1.137-.433.964-.331 1.943-.44 3.008-.599 2.404-.246 4.837-.046 7.177.788 4.305 1.422 7.77 4.379 9.78 8.416 1.024 1.95 1.514 3.98 1.782 6.023.196 2.318-.055 4.665-.766 6.817a7.551 7.551 0 0 1-.654 1.656c-1.129 2.628-2.956 4.854-5.308 6.576-.346.201-.64.49-.986.691l-1.036.605-.087.05-.431.253-.087.05-.086.051-.086.05c-.26.152-.432.253-.742.318l-.259.15-.086.051c-.396.116-.655.267-1.05.382-.397.116-.706.18-1.102.296l-.086.05c-6.708 1.603-13.692-1.035-17.64-6.604-.288-.295-.49-.64-.691-.985zm6.78-23.88.432-.253-.101-.173-.05-.086-.05-.086a.756.756 0 0 1-.397.115c-.259.151-.568.216-.914.418l-.172.1.151.26.151.259c.295-.288.554-.44.95-.555z"/>
					<path fill="#b1ffb1" d="M425.895 438.108c-2.732-5.47-5.154-11.003-7.1-16.12-.433-1.137.2-2.433 1.25-2.815 1.137-.433 2.297.164 2.73 1.301a142.343 142.343 0 0 0 6.933 15.637c2.681 5.383 5.607 10.391 8.453 14.867.691.985.419 2.303-.567 2.994-.986.692-2.303.42-3.045-.653-2.897-4.562-5.923-9.742-8.654-15.211z"/>
					<path fill="#000101" d="M438.286 454.958a3.84 3.84 0 0 0 1.43-2.11c.037-.137.073-.273.022-.36.057-.496-.058-.892-.173-1.288-.065-.31-.217-.569-.318-.741l-.201-.346c-2.09-3.18-4.208-6.807-6.154-10.534-.67-1.346-1.427-2.64-2.047-3.9-2.53-5.124-4.937-10.435-6.682-15.206l-.1-.173-.05-.086c-.152-.259-.217-.568-.404-.69-.253-.432-.627-.677-1.002-.921-.136-.036-.187-.123-.324-.159-.784-.352-1.727-.38-2.519-.15a3.121 3.121 0 0 0-1.906 1.694c-.195.46-.302.87-.273 1.317.029.446.058.892.173 1.288.05.087.152.26.116.396.151.26.166.482.317.741 1.882 4.808 4.188 9.946 6.667 14.983 2.566 4.987 5.355 9.959 8.1 14.262.202.345.403.69.742 1.072l.05.086c.101.173.288.295.44.554.187.122.288.295.425.331a4.44 4.44 0 0 0 1.245.546c.77.13 1.699-.066 2.426-.606zm-2.003-1.841c-.086.05-.136-.036 0 0-.324-.159-.51-.28-.612-.453l-.302-.519-.505-.863c-2.694-4.217-5.332-8.93-7.797-13.744a150.924 150.924 0 0 1-6.45-14.414c-.066-.31-.267-.655-.332-.964-.101-.173-.116-.396-.217-.569l-.05-.086c-.101-.173-.115-.396-.044-.67l.036-.136c.087-.05.036-.137.122-.187.123-.188.295-.288.468-.39a.55.55 0 0 1 .583.007l.274.072c.05.087.137.036.187.123l.202.345c.05.086.1.173.115.396 1.795 4.857 4.102 9.996 6.632 15.12l.151.258c2.58 5.21 5.556 10.304 8.352 14.694l.201.345c.101.173.116.396.13.619.05.086-.036.137-.072.274-.122.187-.158.324-.417.475-.172.1-.345.202-.568.216.05.087-.087.05-.087.05z"/>
					<path fill="#e1ffe6" d="m432.866 456.743-.157-.256c-.208-.341-.332-.735-.54-1.076-.332-.735-.579-1.521-.826-2.308-2.159-7.94 1.403-16.682 8.916-20.69 1.673-.906 3.417-1.504 5.147-1.742 6.319-1.168 12.752 1.11 17.03 5.997.502.63 1.005 1.26 1.475 2.028l.782 1.28c4.705 8.844 1.281 19.73-7.478 24.382-4.422 2.353-9.376 2.686-13.761 1.265a18.323 18.323 0 0 1-10.588-8.88z"/>
					<path fill="#000101" d="m463.703 440.465.26.426.171-.104.085-.052.086-.053a.756.756 0 0 1-.124-.393c-.156-.256-.227-.564-.436-.905l-.104-.17c-.086.051-.171.103-.256.156l-.256.156c.294.29.45.545.574.939zm-31.913 16.819.104.17.261.427.94 1.535c2.446 3.427 5.898 6.005 10.042 7.222 4.935 1.553 10.145 1.064 14.737-1.393 4.508-2.405 7.887-6.464 9.355-11.347a19.126 19.126 0 0 0-.345-12.448l-.683-1.692-.261-.427-.052-.085-.313-.512-.47-.768-.052-.085c-.313-.512-.66-.887-.972-1.399-.157-.255-.399-.46-.555-.715-4.434-5.142-11.384-7.69-18.096-6.4l-.308.072c-.531.09-1.01.266-1.541.356l-1.18.37c-.394.123-.735.332-1.128.456-.48.175-.906.436-1.384.611l-.256.157-1.024.626c-.341.209-.683.417-.972.711a23.759 23.759 0 0 0-2.843 2.443c-.086.052-.119.19-.204.241a18.316 18.316 0 0 0-3.487 5.415c-1.682 3.959-1.97 8.472-.855 12.596.071.308.143.616.3.872.227.564.402 1.043.63 1.607l.052.085c.157.256.228.564.385.82l.156.256c-.085.052-.033.137.02.223zm7.9-23.117 1.024-.626.256-.157c.427-.26.905-.436 1.384-.612.393-.123.735-.332 1.128-.455l.17-.104c.309-.072.702-.195 1.01-.266.394-.124.787-.247 1.148-.233l.085-.052c5.702-1.026 11.619.983 15.531 5.272l.157.256.052.085c.294.289.45.545.659.886.209.341.45.545.66.886l.051.086.157.256.574.938.26.427.053.085c.208.341.332.735.455 1.128.124.393.332.735.456 1.128.35.958.479 1.934.66 2.996.294 2.399.143 4.835-.643 7.191-1.336 4.334-4.222 7.857-8.217 9.948-1.93 1.063-3.949 1.594-5.987 1.903-2.313.242-4.664.04-6.831-.628a7.551 7.551 0 0 1-1.669-.621c-2.65-1.075-4.912-2.857-6.68-5.175-.21-.34-.503-.63-.712-.971l-.626-1.024-.052-.085-.261-.427-.052-.085-.052-.085-.053-.086c-.156-.256-.26-.426-.332-.734l-.156-.256-.052-.086c-.124-.393-.28-.65-.404-1.042-.123-.394-.194-.702-.317-1.095l-.053-.086c-1.737-6.674.76-13.71 6.248-17.769.289-.294.63-.502.971-.711zm24.013 6.298.26.426.171-.104.085-.052.086-.053a.756.756 0 0 1-.124-.393c-.156-.256-.227-.564-.436-.905l-.104-.17c-.086.051-.171.103-.256.156l-.256.156c.294.29.45.545.574.939z"/>
					<path fill="#e1ffe6" d="M447.193 445.286c5.413-2.841 10.897-5.374 15.973-7.424 1.128-.455 2.437.151 2.84 1.194.455 1.128-.118 2.3-1.246 2.755a142.343 142.343 0 0 0-15.494 7.248c-5.328 2.788-10.276 5.814-14.693 8.75-.972.711-2.294.465-3.006-.506-.711-.972-.465-2.295.592-3.058 4.502-2.988 9.621-6.118 15.034-8.96z"/>
					<path fill="#000101" d="M430.596 458.014a3.84 3.84 0 0 0 2.138 1.388c.138.033.275.067.36.014.498.048.892-.076 1.285-.199.308-.071.564-.228.735-.332l.34-.209c3.138-2.153 6.722-4.344 10.409-6.365 1.332-.697 2.612-1.48 3.858-2.124 5.072-2.633 10.333-5.147 15.068-6.987l.17-.105.086-.052c.256-.157.564-.228.682-.417.427-.261.664-.64.9-1.02.034-.137.12-.19.152-.327.337-.792.346-1.735.1-2.522a3.121 3.121 0 0 0-1.732-1.872c-.464-.185-.877-.284-1.322-.246-.446.038-.891.076-1.285.2-.085.052-.256.156-.393.123-.256.156-.479.175-.735.332-4.768 1.978-9.859 4.388-14.845 6.968-4.934 2.666-9.849 5.554-14.096 8.385-.34.209-.682.418-1.057.764l-.085.052c-.17.104-.289.294-.545.45-.118.19-.289.294-.322.432a4.44 4.44 0 0 0-.521 1.256c-.114.773.1 1.697.655 2.413zm1.8-2.039c-.052-.085.034-.137 0 0 .152-.327.27-.517.441-.621l.512-.313.853-.522c4.161-2.779 8.82-5.51 13.584-8.072a150.924 150.924 0 0 1 14.28-6.74c.309-.072.65-.28.958-.351.171-.105.394-.124.564-.228l.086-.052c.17-.105.393-.124.668-.057l.138.033c.052.085.137.033.19.118.189.119.293.29.398.46a.55.55 0 0 1 .005.583l-.067.275c-.085.052-.033.137-.118.19l-.341.208a.756.756 0 0 1-.394.124c-4.82 1.892-9.91 4.302-14.982 6.935l-.256.156c-5.157 2.685-10.19 5.763-14.523 8.646l-.34.209c-.171.104-.394.123-.617.142-.085.052-.138-.033-.275-.066-.19-.118-.327-.152-.484-.408-.104-.17-.208-.34-.227-.564-.086.053-.053-.085-.053-.085z"/>
					<path fill="#e6e9ed" d="M417.7 468.9h-.1l-.9-.3c-.1 0-.2-.1-.3-.1l-.9-.3c-2-.7-3.7-1.5-5.2-2.3-.3-.2-.6-.3-.9-.5-.2-.1-.4-.2-.5-.3-.3-.2-.6-.4-.8-.6l-2-10.5c-.5-2.6-.9-5.3-1.5-7.9-.9-3.8-3.5-7.1-7.1-8.7-3.9-1.7-8.7-1.3-12.2 1.2s-5.6 6.9-5.2 11.1c.1 1 .3 2 .1 3-.3 1.7-1.6 3.2-3.3 3.5-1.7.3-3.5-.4-4.4-1.9-.6-.9-.8-1.9-.9-3-1-8.3 3.4-16.8 10.7-20.9.7-.4 1.4-.7 2.1-1 2.7-1.1 5.6-1.7 8.5-1.6 3.1 0 6.2.8 9 2.2 5.6 2.8 9.8 7.9 11.2 14 .1.3.1.6.2.8l2.1 11.1 2.3 11.8z"/>
					<path fill="#f54421" d="M417.7 469h-.1l-.9-.3.6-1 .1-.1zm-2.6-13.3-.1.1-.8 1.3-4.3 6.4-.6.9-.4.5c-.3-.2-.6-.4-.8-.6l-2-10.5.9-1.4.6-.9 4.3-6.4.7-1.1.2-.2c.1.3.1.6.2.8zm-6.7-20.6-5.2 7.6c-1.4-2.6-3.8-4.6-6.5-5.7l4.9-7.2c2.6 1.3 4.9 3.1 6.8 5.3zm-24.8 4.6c-2.2 2.1-3.5 4.9-3.7 7.9l-7.7-5.2c.9-2.8 2.3-5.3 4.2-7.5zm9-12.1 1.7 8.8c-2.9-.5-5.9.1-8.5 1.6l-1.7-8.8c2.7-1.1 5.6-1.6 8.5-1.6z"/>
					<path fill="#000101" d="M414.1 444.4c-.1-.3-.1-.6-.2-.9-.8-3.4-2.4-6.5-4.6-9.2-2-2.4-4.4-4.2-7.2-5.6-2.9-1.5-6.2-2.3-9.5-2.3-3.1 0-6.1.5-8.9 1.7-2.4 1-4.5 2.4-6.4 4.1-1.8 1.7-3.4 3.7-4.6 5.9-1.2 2.2-2 4.6-2.4 7.1-.4 2.5-.4 5.1.1 7.6.3 1.4 1.1 2.7 2.3 3.5 1.2.8 2.7 1.1 4.1.8 3-.6 4.9-3.5 4.3-6.4-.2-1-.3-2-.2-3.1.2-2.7 1.4-5.2 3.4-7.1.6-.6 1.3-1.1 2-1.5 2.3-1.4 5-1.9 7.6-1.5.7.1 1.4.3 2.1.6 3.6 1.4 6.3 4.6 7.1 8.4l3.2 16.5c.4.4.8.8 1.2 1.1.1.1.2.1.3.2.3.2.5.4.8.6.2.1.4.2.5.3l-.2-.9-2.3-11.9-1.2-6.4c-.3-1.6-.9-3.1-1.7-4.4-.4-.6-.8-1.2-1.3-1.8-1.4-1.7-3.3-3-5.3-3.9-.1 0-.2-.1-.3-.1-.8-.3-1.7-.6-2.6-.7-.1 0-.3 0-.4-.1-2.9-.4-5.9.2-8.5 1.6-.1.1-.2.1-.4.2-.9.5-1.7 1.2-2.4 1.9l-.2.2c-2.1 2.1-3.5 4.9-3.8 7.8 0 .2-.1.4-.1.6-.1 1.2 0 2.5.2 3.7.3 1.7-.8 3.3-2.5 3.7-.8.2-1.6 0-2.3-.5-.1 0-.1-.1-.2-.1-.6-.5-1-1.1-1.1-1.8-.6-3.2-.4-6.3.5-9.3.8-2.8 2.2-5.4 4.1-7.6 1.9-2.1 4.2-3.9 7-5.1.1 0 .2-.1.2-.1 2.5-1.1 5.2-1.6 8-1.5h.2c2.8.1 5.6.8 8.1 2 0 0 .1 0 .1.1 1.1.5 2.2 1.2 3.1 1.9 1.2.9 2.3 1.9 3.3 3.1.1.1.1.2.2.3 1.9 2.3 3.2 5.1 3.9 8v.1c.1.2.1.5.2.7l.1.3 2.3 11.9 2.2 11.4c.1 0 .2.1.3.1l.9.3h.1c.4.1.9.3 1.3.4z"/>
					<path fill="#ff9d9d" d="m495.28 435.429.192-.23c.256-.308.589-.552.845-.859.589-.55 1.254-1.038 1.92-1.524 6.822-4.6 16.246-4.04 22.458 1.783 1.396 1.293 2.524 2.752 3.305 4.314 3.14 5.606 3.053 12.43-.197 18.053-.435.679-.87 1.357-1.446 2.049l-.96 1.153c-6.86 7.3-18.268 7.561-25.492.765-3.65-3.43-5.56-8.012-5.626-12.622a18.323 18.323 0 0 1 5.001-12.882z"/>
					<path fill="#000101" d="m520.616 459.387-.32.384.153.128.077.064.077.064a.757.757 0 0 1 .333-.243c.192-.23.46-.397.717-.705l.128-.153-.231-.192-.23-.192c-.18.371-.372.602-.704.845zm-26.194-24.803-.128.154-.32.384-1.152 1.383c-2.457 3.42-3.786 7.518-3.605 11.832.117 5.173 2.257 9.948 6.061 13.506 3.727 3.494 8.658 5.387 13.753 5.205a19.126 19.126 0 0 0 11.676-4.332l1.382-1.191.32-.385.064-.076.384-.462.576-.691.064-.077c.384-.461.627-.91 1.01-1.37.193-.231.308-.526.5-.756 3.441-5.853 3.618-13.253.235-19.193l-.166-.269c-.257-.473-.577-.87-.833-1.344l-.73-.998c-.244-.333-.551-.589-.795-.922-.32-.396-.704-.716-1.024-1.113l-.23-.192-.923-.768c-.307-.256-.615-.512-.986-.691a23.759 23.759 0 0 0-3.228-1.906c-.076-.064-.217-.052-.294-.116a18.316 18.316 0 0 0-6.249-1.56c-4.29-.317-8.655.862-12.2 3.245-.27.167-.538.333-.73.564-.46.397-.858.717-1.318 1.114l-.064.077c-.192.23-.461.397-.653.628l-.192.23c-.077-.064-.141.013-.205.09zm24.43.041.922.768.23.192c.384.32.705.717 1.025 1.114.243.333.55.588.794.921l.154.128c.166.269.41.602.576.87.244.333.487.666.59 1.012l.077.064c2.806 5.069 2.808 11.317.006 16.401l-.192.231-.064.077c-.179.371-.37.602-.627.91-.256.307-.37.601-.627.908l-.064.077-.192.23-.704.846-.32.384-.063.077c-.256.308-.59.551-.922.794-.333.244-.589.551-.922.795-.793.64-1.676 1.076-2.624 1.588-2.176 1.051-4.531 1.692-7.015 1.706-4.533.13-8.797-1.469-12.063-4.579-1.627-1.484-2.78-3.225-3.728-5.056-.974-2.112-1.538-4.404-1.603-6.67a7.551 7.551 0 0 1 .05-1.78c.165-2.855 1.125-5.57 2.75-7.99.256-.308.435-.679.69-.986l.769-.922.063-.077.32-.385.064-.076.064-.077.064-.077c.192-.23.32-.384.59-.55.063-.078.127-.155.191-.231l.064-.077c.333-.244.525-.474.858-.718.332-.243.601-.41.934-.653l.064-.077c5.76-3.792 13.225-3.693 18.834.197.372.18.68.435.987.691zm1.764 24.762-.32.384.153.128.077.064.077.064a.757.757 0 0 1 .333-.243c.192-.23.46-.397.717-.705l.128-.153-.231-.192-.23-.192c-.18.371-.372.602-.704.845z"/>
					<path fill="#ff9d9d" d="M510.738 445.307c4.432 4.21 8.595 8.588 12.169 12.735.794.921.641 2.355-.216 3.073-.922.794-2.215.628-3.01-.294a142.343 142.343 0 0 0-11.848-12.338c-4.355-4.146-8.812-7.857-13.013-11.095-.986-.691-1.179-2.023-.488-3.009.691-.986 2.023-1.179 3.086-.424 4.278 3.302 8.889 7.141 13.32 11.352z"/>
					<path fill="#000101" d="M493.346 433.688a3.84 3.84 0 0 0-.626 2.472c.013.14.026.281.102.345.116.487.36.82.603 1.152.166.27.397.461.55.59l.308.255c3.048 2.278 6.276 4.965 9.375 7.807 1.089 1.036 2.242 1.996 3.254 2.969 4.124 3.954 8.197 8.127 11.464 12.018l.153.128.077.064c.23.192.397.46.615.512.384.32.82.422 1.255.524.14-.013.218.051.359.038.857.064 1.754-.23 2.42-.718a3.121 3.121 0 0 0 1.215-2.24c.025-.5-.014-.923-.193-1.332-.18-.41-.359-.82-.602-1.152-.077-.064-.23-.192-.244-.333-.23-.192-.32-.397-.55-.589-3.408-3.878-7.327-7.923-11.375-11.813-4.111-3.814-8.428-7.538-12.475-10.648-.307-.256-.615-.512-1.063-.755l-.077-.064c-.154-.128-.371-.179-.602-.37-.217-.052-.371-.18-.512-.167a4.44 4.44 0 0 0-1.357-.09c-.768.142-1.575.642-2.074 1.397zm2.51 1.05c.064-.078.141-.014 0 0 .359.037.576.089.73.216l.461.384.769.64c3.97 3.046 8.056 6.578 12.014 10.264a150.924 150.924 0 0 1 10.977 11.352c.167.27.474.525.64.794.154.128.244.333.398.46l.076.065c.154.128.244.333.27.614l.012.141c-.064.077.013.14-.05.218-.052.217-.18.371-.308.525a.55.55 0 0 1-.55.192l-.282.026c-.077-.064-.14.013-.218-.051l-.307-.256c-.077-.064-.154-.128-.243-.333-3.344-3.955-7.263-8-11.388-11.954l-.23-.192c-4.202-4.019-8.736-7.794-12.86-10.968l-.307-.256c-.154-.128-.243-.332-.333-.537-.077-.064-.013-.141-.026-.282.051-.218.038-.358.23-.589.128-.154.256-.307.461-.397-.077-.064.064-.077.064-.077z"/>
					<path fill="#e6e9ed" d="M477 446.5c0 .6-.1 1.1-.2 1.7-.2 1-.4 2.1-1.1 3-1 1.4-2.9 2.1-4.5 1.6-1.7-.4-3-2-3.1-3.6-.1-1 .1-2 .3-2.9.5-4.2-1.3-8.6-4.6-11.3-3.3-2.6-8-3.4-12-2-3.7 1.4-6.7 4.6-7.7 8.5-.7 2.6-1.3 5.1-1.9 7.7l-2.9 11.8-2.8 11.7v.2c-.4-.1-.8-.1-1.2-.2-.3 0-.5-.1-.8-.1l-5.4-.9c-.4-.1-.7-.1-1.1-.2h-.1l2.2-9.2 2.8-11.7 2.7-11c.1-.3.1-.6.2-.8 2.5-7.2 8.2-13.1 15.8-14.8 9.1-2 18.6 2.5 23 10.7 0 0 0 .1.1.1 1.8 3.7 2.6 7.8 2.3 11.7z"/>
					<path fill="#1ba3fc" d="M436.4 472.8v.2c-.4-.1-.8-.1-1.2-.2-.3 0-.5-.1-.8-.1l-5.4-.9c-.4-.1-.7-.1-1.1-.2h-.1l2.2-9.2.1.1.8 1.3 4 6.6.6.9zm-.9-33-2.7 11 6.3 10.4 2.9-11.8-6.3-10.4c0 .3-.1.5-.2.8zm5.1-9.3 4.8 7.9c1.6-2.5 4-4.5 6.8-5.4l-4.5-7.5c-2.7 1.2-5.1 2.9-7.1 5zm24.5 5.8c2.1 2.2 3.3 5 3.4 8.1l8-4.8c-.7-2.8-2.1-5.4-3.9-7.7zm-8.4-12.5-2.1 8.7c2.9-.3 5.9.4 8.4 2l2.1-8.7c-2.7-1.3-5.5-1.9-8.4-2z"/>
					<path fill="#000101" d="M478.1 442.4c-.3-2.5-1-4.9-2-7.2-1.1-2.3-2.5-4.3-4.3-6.1-1.8-1.8-3.9-3.3-6.2-4.4-2.8-1.3-5.8-2-8.8-2.2-3.3-.1-6.6.5-9.6 1.9-2.8 1.2-5.3 3-7.5 5.3-2.4 2.5-4.1 5.6-5.1 9l-.3.9-7.7 31.9c.4.1.8.2 1.2.2h.1c.3.1.7.1 1.1.2l1.9-8 2.8-11.7 2.9-11.8.1-.3c.1-.3.1-.5.2-.7v-.1c.8-2.9 2.3-5.6 4.3-7.8.1-.1.1-.2.2-.2 1-1.1 2.2-2.1 3.4-2.9 1-.7 2.1-1.3 3.2-1.8 0 0 .1 0 .1-.1 2.6-1.1 5.4-1.7 8.2-1.6h.2c2.8.1 5.4.7 7.9 1.9.1 0 .1.1.2.1 2.7 1.3 4.9 3.2 6.7 5.4 1.8 2.3 3.1 4.9 3.8 7.7.7 3 .8 6.2 0 9.3-.2.7-.6 1.4-1.2 1.8-.1 0-.1.1-.2.1-.7.4-1.5.6-2.4.4-1.7-.4-2.7-2.1-2.3-3.8.3-1.2.4-2.5.4-3.7v-.7c-.2-3-1.5-5.8-3.5-8l-.2-.2c-.7-.8-1.5-1.4-2.3-2-.1-.1-.2-.2-.4-.2-2.5-1.6-5.4-2.3-8.4-2h-.4c-.9.1-1.8.3-2.7.6-.1 0-.2.1-.3.1-2.1.7-4 2-5.5 3.6-.5.5-.9 1.1-1.3 1.7-.9 1.3-1.5 2.8-1.9 4.4l-1.5 6.3-2.9 11.8-2.8 11.7-.4 1.4c.4.1.8.1 1.2.2.4.1.8.1 1.2.1l7.6-31.1c.9-3.8 3.8-6.8 7.5-8 .7-.2 1.4-.4 2.2-.5 2.7-.3 5.3.3 7.6 1.8.7.5 1.3 1 1.9 1.6 1.9 2 2.9 4.6 3 7.3 0 1-.1 2.1-.3 3.1-.7 2.9 1.1 5.9 4 6.6 1.4.3 2.9.1 4.2-.6 1.3-.8 2.1-2 2.5-3.4.7-2.2.9-4.7.6-7.3z"/>
					<path fill="#fffc96" d="m482.672 433.03.293-.065c.39-.087.802-.077 1.193-.164.802-.077 1.627-.057 2.451-.036 8.212.52 15.336 6.714 16.703 15.118.318 1.876.32 3.72-.014 5.434-.934 6.357-5.168 11.71-11.173 14.181-.76.272-1.518.545-2.396.741l-1.464.328c-9.89 1.597-19.086-5.158-20.662-14.95-.799-4.945.485-9.741 3.246-13.433a18.323 18.323 0 0 1 11.823-7.154z"/>
					<path fill="#000101" d="m488.122 467.471-.488.11.044.195.022.097.022.098a.756.756 0 0 1 .412.01c.293-.065.607-.033.998-.12l.195-.044-.066-.293-.065-.293c-.369.185-.661.25-1.074.24zm-5.614-35.633-.195.043-.488.11-1.757.392c-4.033 1.21-7.587 3.645-10.077 7.173-3.064 4.17-4.282 9.258-3.44 14.399.82 5.042 3.571 9.55 7.719 12.516a19.126 19.126 0 0 0 11.893 3.693l1.822-.1.488-.11.098-.021.585-.131.878-.197.098-.021c.586-.131 1.052-.338 1.637-.47.293-.065.564-.228.857-.293 6.298-2.536 10.954-8.292 11.899-15.061l.032-.315c.086-.531.074-1.041.16-1.573l.031-1.236c.01-.412-.077-.803-.067-1.215-.011-.51-.12-.998-.132-1.507l-.066-.293-.262-1.171c-.087-.39-.174-.781-.36-1.15a23.759 23.759 0 0 0-1.392-3.48c-.022-.097-.142-.173-.163-.27a18.316 18.316 0 0 0-4-5.05c-3.203-2.869-7.381-4.598-11.644-4.874-.315-.032-.63-.065-.922 0-.608.034-1.117.046-1.725.08l-.097.021c-.293.066-.608.034-.9.099l-.293.066c-.022-.098-.12-.076-.217-.054zm19.328 14.94.262 1.172.065.292c.11.488.12.998.132 1.508-.01.412.078.802.067 1.214l.044.196c-.032.314-.042.726-.075 1.041-.01.412-.02.824-.15 1.16l.022.098c-.87 5.729-4.681 10.68-10.004 12.998l-.292.065-.098.022c-.369.185-.661.25-1.052.338-.39.087-.661.25-1.051.338l-.098.021-.293.066-1.073.24-.488.11-.098.021c-.39.087-.802.077-1.214.067-.413-.01-.803.077-1.215.067-1.02.023-1.985-.171-3.048-.343-2.366-.496-4.623-1.425-6.6-2.93-3.67-2.663-6.072-6.532-6.761-10.989-.383-2.169-.234-4.252.132-6.28.517-2.268 1.469-4.428 2.8-6.263a7.551 7.551 0 0 1 1.126-1.379c1.874-2.16 4.29-3.726 7.055-4.652.39-.087.759-.272 1.149-.36l1.171-.262.098-.021.488-.11.097-.021.098-.022.097-.022c.293-.066.488-.11.803-.077l.293-.066.097-.022c.412.01.705-.055 1.117-.044.412.01.727.042 1.14.052l.097-.022c6.877.511 12.73 5.145 14.8 11.65.185.369.272.76.36 1.15zm-13.714 20.693-.488.11.044.195.022.097.022.098a.756.756 0 0 1 .412.01c.293-.065.607-.033.998-.12l.195-.044-.066-.293-.065-.293c-.369.185-.661.25-1.074.24z"/>
					<path fill="#fffc96" d="M488.89 450.29c.941 6.04 1.568 12.048 1.869 17.514.066 1.215-.93 2.257-2.047 2.302-1.215.067-2.138-.854-2.205-2.068a142.343 142.343 0 0 0-1.857-17.005c-.92-5.943-2.186-11.603-3.538-16.731-.36-1.15.3-2.322 1.45-2.681 1.149-.36 2.321.3 2.703 1.547 1.374 5.226 2.684 11.081 3.625 17.121z"/>
					<path fill="#000101" d="M482.202 430.471a3.84 3.84 0 0 0-2.004 1.576c-.076.12-.152.239-.13.336-.205.456-.216.868-.226 1.28-.032.315.033.608.077.803l.087.39c1.025 3.665 1.942 7.764 2.664 11.906.23 1.486.557 2.95.765 4.338.854 5.65 1.535 11.44 1.748 16.517l.044.195.022.097c.065.293.033.608.174.781.11.488.392.835.674 1.181.12.076.142.174.261.25.64.573 1.53.887 2.355.907a3.121 3.121 0 0 0 2.33-1.034c.326-.38.553-.738.66-1.172.109-.434.216-.868.227-1.28-.022-.098-.066-.293.01-.412-.066-.293-.012-.51-.077-.803-.333-5.151-.97-10.747-1.802-16.3-.93-5.53-2.077-11.114-3.385-16.048-.087-.39-.175-.78-.382-1.247l-.021-.097c-.044-.195-.185-.369-.25-.661-.142-.174-.186-.369-.305-.445a4.44 4.44 0 0 0-1.021-.898c-.695-.357-1.638-.454-2.495-.16zm1.348 2.363c.098-.022.12.076 0 0 .261.25.402.422.446.618l.131.585.218.976c1.287 4.836 2.368 10.127 3.254 15.463a150.924 150.924 0 0 1 1.769 15.692c-.032.315.055.705.023 1.02.044.195-.01.412.033.607l.022.097c.044.196-.01.413-.162.652l-.075.119c-.098.022-.076.12-.174.141-.173.141-.368.185-.563.229a.55.55 0 0 1-.554-.184l-.239-.151c-.021-.098-.119-.076-.14-.174-.023-.097-.066-.292-.088-.39-.022-.098-.044-.195.01-.412-.235-5.174-.872-10.77-1.726-16.42l-.065-.292c-.876-5.748-2.164-11.505-3.495-16.536l-.087-.39c-.044-.196.01-.413.064-.63-.022-.097.076-.12.152-.239.173-.14.249-.26.541-.326.196-.043.39-.087.608-.033-.022-.098.097-.022.097-.022z"/>
					<path fill="#fffea1" d="M425.975 455.888v.3c0 .4-.1.8-.1 1.2-.1.8-.3 1.6-.5 2.4-2.3 7.9-9.9 13.5-18.4 13-1.9-.1-3.7-.5-5.3-1.2-6-2.3-10.3-7.6-11.4-14-.1-.8-.2-1.6-.2-2.5v-1.5c.6-10 9.2-17.5 19.1-16.9 5 .3 9.4 2.6 12.4 6.1 3 3.5 4.7 8.1 4.4 13.1z"/>
					<path fill="#000101" d="M391.175 453.688v-.5h-.4c0 .1 0 .2-.1.4 0 .3-.1.6-.1 1v.2h.6c-.1-.4-.1-.7 0-1.1zm36 2.3v-2.5c-.3-4.2-1.9-8.2-4.8-11.4-3.4-3.9-8.1-6.2-13.3-6.5-5.1-.3-10.1 1.4-13.9 4.8-3.2 2.8-5.4 6.6-6.2 10.8l-.3 1.8v2.2c0 .6.1 1.1.1 1.7 0 .3.1.6.1.9 1.1 6.7 5.7 12.5 12.1 14.9l.3.1c.5.2 1 .3 1.5.5l1.2.3c.4.1.8.1 1.2.2.5.1 1 .1 1.5.2h1.5c.4 0 .8 0 1.2-.1 1.2-.1 2.5-.3 3.7-.6.1 0 .2-.1.3-.1 2.1-.6 4-1.5 5.8-2.8 3.5-2.5 6.1-6.2 7.3-10.3.1-.3.2-.6.2-.9.1-.6.2-1.1.3-1.7v-.1c0-.3.1-.6.1-.9v-.3c.1 0 .1-.1.1-.2zm-18.8 15.6h-1.5c-.5 0-1-.1-1.5-.2-.4-.1-.8-.1-1.2-.2h-.2c-.3-.1-.7-.2-1-.3-.4-.1-.8-.2-1.1-.4h-.1c-5.4-2.1-9.4-6.9-10.5-12.6v-.4c-.1-.4-.1-.7-.1-1.1 0-.4-.1-.7-.1-1.1v-2.1c0-.4.1-.8.2-1.2.1-.4.1-.8.2-1.2.2-1 .6-1.9 1-2.9 1-2.2 2.4-4.2 4.3-5.8 3.4-3 7.7-4.5 12.2-4.2 2.2.1 4.2.7 6.1 1.5 2.1 1 4 2.4 5.5 4.1.4.4.8.9 1.1 1.4 1.7 2.3 2.7 5 3 7.9 0 .4.1.8.1 1.2v2.1c0 .3 0 .5-.1.8v.4c-.1.4-.1.7-.2 1.1-.1.4-.2.7-.3 1.1v.1c-2 6.6-7.8 11.3-14.6 11.9-.4.1-.8.1-1.2.1zm-17.2-17.9v-.5h-.4c0 .1 0 .2-.1.4 0 .3-.1.6-.1 1v.2h.6c-.1-.4-.1-.7 0-1.1z"/>
					<path fill="#fffea1" d="M407.775 458.188c-6.1-.4-12.1-1.1-17.5-2-1.2-.2-2-1.4-1.8-2.5.2-1.2 1.3-1.9 2.5-1.7 5.2.9 11 1.6 17 1.9 6 .4 11.8.4 17.1.2 1.2-.1 2.2.8 2.3 2 .1 1.2-.8 2.2-2.1 2.3-5.4.2-11.4.2-17.5-.2z"/>
					<path fill="#000101" d="M428.575 455.988c-.1-.9-.5-1.7-1.1-2.3-.1-.1-.2-.2-.3-.2-.4-.3-.8-.4-1.2-.5-.3-.1-.6-.1-.8-.1h-.4c-3.8.2-8 .2-12.2 0-1.5-.1-3-.1-4.4-.2-5.7-.4-11.5-1-16.5-1.9h-.3c-.3 0-.6-.1-.8 0-.5 0-.9.2-1.3.4-.1.1-.2.1-.3.2-.7.5-1.2 1.3-1.4 2.1-.2.9 0 1.8.5 2.5.3.4.6.7 1 .9.4.2.8.4 1.2.5.1 0 .3 0 .4.1.3 0 .5.1.8.1 5.1.8 10.7 1.4 16.3 1.8 5.6.3 11.3.4 16.4.2.4 0 .8 0 1.3-.1h.1c.2 0 .4-.1.7-.1.2-.1.4-.1.5-.2.4-.2.8-.5 1.1-.8.5-.6.8-1.5.7-2.4zm-2.6.8c0 .1-.1.1 0 0-.3.2-.5.3-.7.3h-1.6c-5 .2-10.4.1-15.8-.2-5.4-.3-10.8-.9-15.7-1.7-.3-.1-.7-.1-1-.2-.2 0-.4-.1-.6-.1h-.1c-.2 0-.4-.1-.6-.3l-.1-.1c0-.1-.1-.1-.1-.2-.1-.2-.1-.4-.1-.6 0-.2.1-.4.3-.5l.2-.2c.1 0 .1-.1.2-.1h.4c.1 0 .2 0 .4.1 5.1.9 10.7 1.5 16.4 1.9h.3c5.8.4 11.7.4 16.9.2h.4c.2 0 .4.1.6.2.1 0 .1.1.2.2.1.2.2.3.2.6 0 .2 0 .4-.1.6.1 0 0 .1 0 .1z"/>
					<path fill="#a3f2f3" d="m415.859 458.548.113-.278c.151-.37.395-.703.546-1.073.395-.703.883-1.368 1.37-2.033 5.115-6.445 14.267-8.758 21.948-5.083 1.722.81 3.237 1.86 4.454 3.114 4.686 4.396 6.664 10.928 5.264 17.27-.21.778-.42 1.556-.76 2.39l-.566 1.388c-4.335 9.032-15.131 12.726-24.07 8.43-4.516-2.167-7.72-5.96-9.176-10.334a18.323 18.323 0 0 1 .877-13.791z"/>
					<path fill="#000101" d="m447.247 473.735-.189.463.185.076.093.037.093.038a.748.748 0 0 1 .243-.332c.114-.278.32-.518.47-.888l.076-.186-.277-.113-.278-.113a2.054 2.054 0 0 1-.416 1.018zm-32.461-15.733-.076.185-.189.463-.68 1.666c-1.31 4.002-1.34 8.31.136 12.369 1.674 4.896 5.157 8.801 9.858 11.044 4.608 2.205 9.88 2.52 14.683.808a19.126 19.126 0 0 0 9.821-7.656l.958-1.553.19-.463.037-.093.227-.555.34-.833.038-.093c.226-.555.323-1.056.55-1.612.113-.277.134-.593.247-.87 1.513-6.62-.554-13.728-5.572-18.368l-.24-.206c-.388-.374-.813-.656-1.2-1.03l-.998-.731c-.332-.244-.703-.395-1.035-.639-.425-.281-.888-.47-1.314-.752l-.277-.113-1.111-.454c-.37-.15-.741-.302-1.15-.36a23.759 23.759 0 0 0-3.651-.843c-.093-.038-.223.017-.316-.021a18.316 18.316 0 0 0-6.428.4c-4.185.993-7.99 3.436-10.651 6.778-.206.24-.412.48-.525.758-.32.518-.601.943-.92 1.46l-.038.093c-.114.278-.32.518-.433.796l-.113.277c-.093-.037-.13.055-.168.148zm23.3-7.34 1.112.454.277.114c.463.188.888.47 1.314.752.332.243.702.394 1.035.638l.185.076c.24.206.573.45.813.655.332.244.665.488.867.786l.093.038c4.206 3.985 6.095 9.94 4.96 15.634l-.114.277-.037.093c-.059.408-.172.686-.324 1.056-.15.37-.171.686-.323 1.057l-.037.092-.114.278-.415 1.018-.19.463-.037.093c-.151.37-.395.703-.639 1.035-.244.333-.395.703-.638 1.036-.564.85-1.274 1.532-2.022 2.307-1.757 1.659-3.81 2.981-6.173 3.745-4.282 1.493-8.83 1.256-12.883-.722-1.999-.924-3.624-2.235-5.08-3.694-1.567-1.72-2.797-3.733-3.543-5.874a7.551 7.551 0 0 1-.49-1.712c-.705-2.772-.61-5.65.208-8.448.151-.37.21-.778.36-1.149l.454-1.11.038-.093c.076-.185.113-.278.19-.463l.037-.093.038-.092.037-.093c.114-.278.19-.463.395-.703l.114-.278.037-.092c.244-.333.358-.61.601-.943.244-.333.45-.572.694-.905l.038-.093c4.345-5.354 11.491-7.514 18.014-5.5.408.058.778.21 1.149.36zm9.161 23.073-.189.463.185.076.093.037.093.038a.748.748 0 0 1 .243-.332c.114-.278.32-.518.47-.888l.076-.186-.277-.113-.278-.113a2.054 2.054 0 0 1-.416 1.018z"/>
					<path fill="#a3f2f3" d="M433.578 463.296c5.497 2.675 10.788 5.59 15.447 8.465 1.036.638 1.323 2.052.722 2.994-.639 1.036-1.922 1.268-2.957.63a142.343 142.343 0 0 0-15.022-8.184c-5.404-2.637-10.773-4.829-15.756-6.647-1.149-.36-1.735-1.572-1.374-2.72.361-1.15 1.572-1.735 2.814-1.336 5.075 1.855 10.63 4.122 16.126 6.798z"/>
					<path fill="#000101" d="M413.49 457.473a3.84 3.84 0 0 0 .149 2.545c.054.13.11.26.202.298.257.43.59.673.922.917.24.206.518.32.703.395l.37.15c3.594 1.252 7.483 2.839 11.296 4.611 1.35.66 2.74 1.226 3.998 1.848 5.126 2.524 10.27 5.271 14.558 7.994l.186.076.092.037c.278.114.518.32.74.303.464.189.91.155 1.356.12.13-.054.223-.016.353-.071.837-.199 1.602-.75 2.09-1.415a3.12 3.12 0 0 0 .481-2.504c-.126-.484-.29-.875-.585-1.211-.295-.336-.59-.673-.922-.916-.093-.038-.278-.114-.333-.244-.278-.114-.425-.282-.703-.395-4.42-2.668-9.377-5.34-14.411-7.826-5.071-2.394-10.311-4.64-15.108-6.383-.37-.15-.741-.302-1.242-.398l-.092-.038c-.186-.076-.409-.059-.686-.172-.223.017-.408-.059-.539-.004a4.44 4.44 0 0 0-1.32.325c-.69.367-1.308 1.087-1.556 1.958zm2.709.242c.038-.093.13-.055 0 0 .353-.072.576-.09.761-.014l.556.227.926.378c4.705 1.704 9.666 3.837 14.553 6.156a150.924 150.924 0 0 1 13.893 7.506c.24.206.61.358.85.563.186.076.333.244.518.32l.093.038c.185.075.332.243.442.504l.055.13c-.038.093.054.13.017.223.017.223-.059.409-.134.594a.55.55 0 0 1-.467.35l-.26.109c-.094-.038-.131.055-.224.017l-.37-.151a.762.762 0 0 1-.333-.244c-4.382-2.76-9.34-5.432-14.466-7.956l-.278-.114c-5.218-2.562-10.68-4.791-15.57-6.571l-.371-.151c-.185-.076-.333-.244-.48-.412-.093-.038-.055-.13-.11-.261-.017-.223-.072-.353.042-.631.075-.185.151-.37.32-.518-.093-.038.037-.092.037-.092z"/>
					<path fill="#e1efff" d="m451.413 487.095-.217-.206c-.29-.276-.512-.624-.802-.899-.511-.623-.954-1.319-1.397-2.015-4.146-7.106-2.976-16.474 3.238-22.295 1.38-1.31 2.91-2.34 4.52-3.018 5.798-2.769 12.602-2.239 18.002 1.37.649.477 1.298.956 1.95 1.575l1.088 1.033c6.84 7.319 6.36 18.72-.89 25.487-3.66 3.42-8.357 5.029-12.961 4.795a18.323 18.323 0 0 1-12.53-5.827z"/>
					<path fill="#000101" d="m476.966 463.369.362.344.138-.145.069-.073.069-.072a.76.76 0 0 1-.222-.348c-.217-.207-.366-.486-.656-.761l-.145-.138-.207.218-.206.217c.359.203.576.41.798.758zm-26.451 24.528.145.137.362.345 1.306 1.239c3.253 2.674 7.255 4.267 11.573 4.366 5.17.219 10.073-1.607 13.87-5.172 3.729-3.492 5.938-8.29 6.088-13.386a19.126 19.126 0 0 0-3.565-11.932l-1.1-1.457-.362-.344-.073-.069-.435-.413-.653-.62-.072-.068c-.435-.413-.867-.685-1.302-1.098-.218-.206-.504-.34-.722-.547-5.617-3.815-12.99-4.47-19.137-1.481l-.279.149c-.49.225-.906.518-1.395.743l-1.044.664c-.348.222-.623.512-.971.733-.417.294-.76.656-1.178.95l-.206.218-.826.87c-.276.29-.551.58-.754.94a23.903 23.903 0 0 0-2.112 3.096c-.069.073-.065.214-.134.287a18.316 18.316 0 0 0-1.962 6.134c-.596 4.26.298 8.693 2.446 12.386.148.279.297.558.515.764.366.486.66.903 1.026 1.388l.073.069c.217.206.366.486.584.692l.217.207c-.069.072.004.14.077.21zm1.627-24.375.826-.87.206-.218c.345-.363.761-.657 1.178-.95.348-.222.623-.512.971-.733l.138-.145c.279-.15.627-.37.906-.52.348-.22.696-.442 1.047-.522l.07-.072c5.24-2.471 11.475-2.068 16.367 1.058l.217.206.073.07c.359.202.576.409.866.684.29.275.577.41.867.685l.073.069.217.206.798.757.363.345.072.068c.29.276.512.624.733.972.221.347.511.623.733.97.587.834.965 1.744 1.415 2.722.907 2.24 1.394 4.633 1.246 7.112-.164 4.531-2.037 8.683-5.352 11.74-1.587 1.527-3.4 2.565-5.287 3.392-2.171.835-4.495 1.25-6.76 1.167a7.551 7.551 0 0 1-1.773-.166c-2.839-.35-5.485-1.484-7.795-3.263-.29-.275-.65-.478-.94-.753l-.87-.826-.073-.07-.362-.343-.073-.07-.072-.068-.073-.069c-.217-.206-.362-.344-.511-.623l-.218-.207-.072-.068c-.222-.348-.44-.555-.66-.903-.222-.348-.37-.627-.592-.975l-.072-.068c-3.41-5.995-2.827-13.437 1.42-18.782.202-.36.477-.65.753-.94zm24.824-.153.362.344.138-.145.069-.073.069-.072a.76.76 0 0 1-.222-.348c-.217-.207-.366-.486-.656-.761l-.145-.138-.207.218-.206.217c.359.203.576.41.798.758z"/>
					<path fill="#e1efff" d="M462.274 472.311c4.49-4.149 9.128-8.019 13.498-11.316.971-.733 2.392-.487 3.052.415.733.972.484 2.251-.488 2.984a142.343 142.343 0 0 0-13.08 11.022c-4.421 4.077-8.414 8.284-11.918 12.266-.753.939-2.094 1.045-3.034.291-.939-.754-1.045-2.095-.222-3.107 3.572-4.054 7.703-8.406 12.192-12.555z"/>
					<path fill="#000101" d="M449.55 488.912a3.84 3.84 0 0 0 2.426.786c.142-.004.283-.008.352-.08.493-.084.84-.305 1.189-.526.279-.15.485-.367.623-.512l.275-.29c2.471-2.894 5.362-5.94 8.399-8.849 1.105-1.019 2.138-2.107 3.174-3.053 4.214-3.86 8.642-7.653 12.737-10.66l.138-.145.068-.073c.207-.217.486-.366.551-.58.344-.363.475-.79.605-1.218-.004-.142.065-.214.061-.356.12-.852-.116-1.765-.559-2.46a3.121 3.121 0 0 0-2.157-1.36c-.497-.057-.921-.046-1.342.107-.42.152-.84.305-1.188.526-.07.072-.207.217-.348.221-.207.218-.417.294-.624.511-4.09 3.149-8.381 6.798-12.526 10.584-4.073 3.855-8.07 7.92-11.435 11.758-.276.29-.551.58-.823 1.011l-.069.073c-.137.145-.202.359-.409.576-.065.214-.203.36-.2.5a4.44 4.44 0 0 0-.176 1.35c.09.775.537 1.612 1.259 2.16zm1.21-2.436c-.072-.07-.003-.142 0 0 .062-.356.127-.57.265-.715l.413-.435.688-.725c3.297-3.764 7.087-7.612 11.022-11.322a150.924 150.924 0 0 1 12.041-10.218c.28-.148.555-.438.834-.587.137-.145.348-.222.485-.367l.07-.072c.137-.145.347-.221.63-.229l.141-.003c.073.068.142-.004.214.065.214.065.36.203.504.34a.55.55 0 0 1 .156.562l.008.283c-.07.072.003.141-.065.214-.07.072-.207.217-.276.29-.069.072-.138.145-.348.221-4.163 3.08-8.454 6.728-12.668 10.587l-.206.218c-4.283 3.931-8.345 8.21-11.78 12.12l-.275.29c-.138.145-.348.221-.558.298-.069.072-.141.003-.283.007-.214-.065-.355-.061-.573-.268-.145-.138-.29-.275-.366-.485-.069.072-.073-.07-.073-.07z"/>
					<path fill="#e6e9ed" d="M523.1 484.6h1.3c.3 0 .7 0 1-.1 2.1-.2 4-.4 5.6-.8.3-.1.7-.2 1-.2.2-.1.4-.1.6-.2.3-.1.7-.2 1-.3l4.9-9.5c1.2-2.4 2.4-4.8 3.7-7.1 1.9-3.4 5.4-5.8 9.2-6.3 4.2-.6 8.7 1.3 11.4 4.6 2.7 3.4 3.4 8.1 1.8 12.1-.4.9-.8 1.8-1 2.8-.2 1.7.7 3.5 2.2 4.3 1.5.8 3.5.6 4.8-.5.8-.7 1.3-1.6 1.7-2.6 3.3-7.7 1.6-17.1-4.3-23.1-.5-.6-1.1-1.1-1.7-1.6-2.2-1.8-4.8-3.2-7.6-4-3-.8-6.2-1-9.2-.5-6.2 1.1-11.6 4.8-14.7 10.3-.2.2-.3.5-.4.8l-5.2 10-5.6 10.7z"/>
					<path fill="#f54421" d="M523 484.7h1l-.3-1.1v-.2z"/>
					<path fill="#dd1b9c" d="M529.3 472.7v.2l.5 1.4 2.3 7.4.3 1 .2.6c.3-.1.7-.2 1-.3l4.9-9.5-.5-1.6-.3-1-2.3-7.4-.4-1.3-.1-.3c-.2.2-.3.5-.4.8zm12.3-17.9 2.8 8.8c2.1-2.1 4.9-3.4 7.9-3.6l-2.6-8.3c-3 .5-5.7 1.5-8.1 3.1zm22.4 11.5c1.5 2.6 2 5.7 1.3 8.6l8.9-2.8c0-2.9-.7-5.8-1.9-8.4zm-5.2-14.2-4.1 7.9c2.9.4 5.7 1.8 7.6 4l4.1-7.9c-2.2-1.8-4.8-3.2-7.6-4z"/>
					<path fill="#000101" d="M521.7 484.7h2.7l5.4-10.3 5.6-10.8.1-.3c.1-.2.2-.5.4-.6v-.1c1.5-2.6 3.5-4.8 6-6.5.1-.1.2-.1.3-.2 1.3-.8 2.6-1.5 4-2 1.1-.4 2.3-.7 3.6-.9h.2c2.7-.5 5.6-.3 8.3.4.1 0 .2 0 .2.1 2.7.7 5.1 2 7.2 3.7l.2.2c2.3 1.9 4 4.3 5.2 6.9 1.2 2.6 1.8 5.5 1.8 8.4 0 3.1-.7 6.2-2.2 9.1-.3.7-.9 1.2-1.6 1.4-.1 0-.2.1-.2.1-.8.3-1.6.2-2.4-.2-1.5-.8-2.1-2.7-1.3-4.2.6-1.1 1-2.3 1.2-3.5 0-.2.1-.4.1-.6.5-2.9 0-6-1.5-8.6 0-.1-.1-.1-.1-.2-.5-.9-1.1-1.7-1.8-2.5l-.3-.3c-2-2.1-4.7-3.5-7.6-4-.1 0-.3 0-.4-.1-.9-.1-1.8-.2-2.7-.1h-.3c-2.2.2-4.4 1-6.2 2.2-.6.4-1.2.8-1.7 1.3-1.2 1.1-2.2 2.4-2.9 3.8l-3 5.8-5.6 10.8-.4.8c.2-.1.4-.1.6-.2.3-.1.7-.2 1-.3.1 0 .2-.1.3-.1.5-.2 1-.4 1.4-.7l7.8-14.9c1.8-3.4 5.3-5.8 9.2-6 .7-.1 1.5 0 2.2.1 2.7.3 5.1 1.6 6.9 3.6.6.6 1.1 1.3 1.5 2 1.3 2.4 1.8 5.1 1.2 7.8-.2 1-.5 2-1 2.9-1.4 2.7-.3 6 2.3 7.4 1.3.7 2.8.8 4.2.4 1.4-.4 2.5-1.4 3.2-2.7 1.2-2.3 2-4.8 2.3-7.3.3-2.5.2-5-.3-7.4-.5-2.5-1.4-4.8-2.7-6.9-1.3-2.2-3-4.2-5-5.8-2.4-2-5.1-3.4-8.1-4.2-3.2-.9-6.5-1.1-9.7-.5-3 .5-5.9 1.6-8.5 3.3-2.9 1.9-5.3 4.5-7 7.5-.2.3-.3.6-.5.8z"/>
					<path fill="#9dcaff" d="m506.547 461.151-.044-.297c-.059-.395-.019-.806-.077-1.201-.019-.806.061-1.627.142-2.448 1.114-8.152 7.809-14.808 16.29-15.562 1.894-.18 3.733-.05 5.419.408 6.272 1.394 11.304 6.004 13.333 12.173.216.777.433 1.553.565 2.444l.22 1.483c.876 9.98-6.528 18.662-16.41 19.523-4.989.438-9.68-1.19-13.16-4.212a18.323 18.323 0 0 1-6.278-12.31z"/>
					<path fill="#000101" d="m541.293 458.214.073.495.198-.03.099-.014.099-.015c-.015-.099-.03-.198.04-.41-.044-.297.01-.609-.048-1.004l-.03-.198-.296.044-.297.044c.158.381.202.678.162 1.088zm-35.948 3.014.03.198.073.495.265 1.78c.914 4.11 3.084 7.832 6.423 10.571 3.936 3.358 8.923 4.943 14.11 4.476 5.09-.453 9.785-2.87 13.044-6.79a19.126 19.126 0 0 0 4.546-11.594l.032-1.825-.073-.494-.015-.1-.088-.593-.132-.89-.015-.099c-.088-.593-.26-1.073-.349-1.667-.044-.297-.187-.579-.23-.875-2.073-6.466-7.475-11.527-14.159-12.96l-.311-.056c-.524-.124-1.033-.15-1.557-.274l-1.231-.12c-.41-.04-.806.018-1.217-.022-.509-.025-1.003.048-1.513.023l-.296.044-1.187.176c-.396.059-.792.118-1.173.275a23.759 23.759 0 0 0-3.571 1.138c-.1.014-.184.128-.282.143a18.316 18.316 0 0 0-5.326 3.621c-3.095 2.987-5.123 7.03-5.708 11.261-.054.312-.11.623-.065.92-.01.608-.036 1.117-.047 1.725l.015.1c.044.296-.011.607.033.904l.044.297c-.099.015-.084.114-.07.212zm16.304-18.192 1.187-.177.297-.044c.495-.073 1.004-.048 1.513-.022.41.04.806-.02 1.217.021l.197-.03c.312.056.722.096 1.034.15.41.04.82.08 1.146.235l.1-.015c5.65 1.284 10.311 5.444 12.237 10.92l.044.297.014.099c.158.381.202.678.261 1.073.059.396.202.678.26 1.074l.015.099.044.296c.06.396.103.693.162 1.088l.073.495.015.099c.059.396.019.806-.021 1.216-.04.41.018.806-.022 1.217-.05 1.018-.314 1.967-.563 3.015-.666 2.323-1.757 4.507-3.401 6.369-2.922 3.467-6.955 5.582-11.45 5.947-2.191.224-4.258-.075-6.255-.588-2.224-.68-4.31-1.786-6.043-3.247a7.551 7.551 0 0 1-1.293-1.223c-2.02-2.025-3.406-4.55-4.128-7.374-.06-.395-.217-.776-.276-1.172l-.176-1.187-.015-.099-.073-.494-.015-.1-.015-.098-.014-.1c-.044-.296-.074-.494-.019-.805l-.044-.297-.015-.099c.04-.41-.004-.707.037-1.117.04-.41.095-.722.135-1.132l-.015-.1c1.009-6.821 6.055-12.323 12.693-13.915.381-.158.777-.217 1.172-.275zm19.644 15.178.073.495.198-.03.099-.014.099-.015c-.015-.099-.03-.198.04-.41-.044-.297.01-.609-.048-1.004l-.03-.198-.296.044-.297.044c.158.381.202.678.162 1.088z"/>
					<path fill="#9dcaff" d="M524.212 456.202c6.092-.5 12.13-.69 17.604-.593 1.216.021 2.184 1.09 2.147 2.208-.021 1.217-1.006 2.07-2.223 2.05a142.343 142.343 0 0 0-17.094.618c-5.994.486-11.731 1.338-16.944 2.314-1.172.276-2.294-.468-2.57-1.64-.274-1.172.469-2.294 1.74-2.584 5.312-.99 11.247-1.872 17.34-2.373z"/>
					<path fill="#000101" d="M503.96 461.434a3.84 3.84 0 0 0 1.427 2.114c.113.084.227.168.326.153.44.238.85.278 1.26.319.312.054.608.01.806-.019l.396-.059c3.73-.756 7.884-1.373 12.067-1.792 1.499-.122 2.983-.342 4.382-.449 5.697-.442 11.522-.7 16.6-.545l.198-.03.099-.014c.297-.044.608.01.791-.118.495-.073.861-.33 1.227-.586.085-.114.184-.129.268-.242.619-.598.996-1.462 1.076-2.283a3.121 3.121 0 0 0-.862-2.4c-.355-.351-.696-.604-1.121-.743-.425-.139-.85-.278-1.26-.318-.1.015-.297.044-.411-.04-.297.044-.51-.026-.806.018-5.162-.042-10.79.188-16.388.615-5.583.526-11.236 1.265-16.251 2.212-.396.059-.791.117-1.271.29l-.1.014c-.197.03-.38.158-.677.202-.183.128-.38.158-.465.271a4.44 4.44 0 0 0-.97.953c-.407.667-.571 1.602-.34 2.477zm2.455-1.173c-.015-.1.084-.114 0 0 .267-.242.45-.37.648-.4l.594-.088.989-.147c4.916-.932 10.272-1.627 15.658-2.123a150.924 150.924 0 0 1 15.78-.626c.31.055.706-.004 1.018.051.198-.03.41.04.608.01l.099-.014c.198-.03.41.04.637.209l.114.084c.015.099.114.084.128.183.129.183.158.381.187.579a.55.55 0 0 1-.223.539l-.168.227c-.1.015-.085.113-.184.128l-.395.059c-.1.015-.198.03-.41-.04-5.177-.141-10.805.088-16.502.53l-.296.044c-5.796.457-11.632 1.324-16.746 2.285l-.396.06c-.198.029-.41-.041-.623-.11-.099.014-.114-.085-.227-.169-.128-.183-.242-.267-.286-.564-.03-.198-.059-.396.01-.608-.098.014-.014-.1-.014-.1z"/>
					<path fill="#ffe1ee" d="m506.768 490.388-.26.151c-.345.202-.74.317-1.086.52-.741.316-1.533.547-2.325.778-7.981 1.999-16.65-1.74-20.506-9.33-.872-1.692-1.434-3.448-1.637-5.182-1.04-6.341 1.367-12.728 6.339-16.906.64-.49 1.28-.98 2.058-1.433l1.295-.757c8.937-4.526 19.75-.883 24.226 7.968 2.263 4.469 2.497 9.428.988 13.784a18.323 18.323 0 0 1-9.092 10.407z"/>
					<path fill="#000101" d="m491.114 459.23.432-.253-.1-.173-.051-.086-.05-.086a.756.756 0 0 1-.397.115c-.259.152-.568.216-.914.418l-.172.101.151.26.151.258c.295-.288.554-.44.95-.555zm16.172 32.244.173-.1.432-.253 1.554-.908c3.475-2.377 6.122-5.776 7.423-9.894 1.652-4.903 1.268-10.122-1.096-14.763-2.314-4.555-6.304-8.015-11.156-9.581a19.126 19.126 0 0 0-12.453.094l-1.705.649-.432.252-.086.05-.519.303-.777.454-.086.05c-.518.303-.9.641-1.417.944-.26.151-.468.39-.727.54-5.23 4.33-7.918 11.227-6.763 17.964l.065.31c.08.532.246 1.014.325 1.547l.346 1.187c.116.396.318.742.433 1.137.166.483.418.914.584 1.396l.151.26.605 1.036c.202.345.404.69.692.985.692.986 1.52 2.008 2.384 2.893.05.086.188.122.238.208a18.316 18.316 0 0 0 5.343 3.596c3.924 1.761 8.43 2.14 12.576 1.108.31-.065.62-.13.878-.281.569-.216 1.05-.382 1.62-.599l.086-.05c.259-.151.568-.216.827-.368l.26-.151c.05.086.136.036.222-.015zm-22.952-8.364-.606-1.036-.15-.26c-.253-.431-.419-.913-.585-1.396-.115-.395-.317-.74-.432-1.137l-.101-.172c-.065-.31-.18-.706-.246-1.015-.115-.396-.23-.792-.21-1.152l-.05-.086c-.91-5.722 1.217-11.597 5.584-15.422l.26-.151.085-.05c.295-.289.554-.44.9-.642.345-.202.554-.44.9-.641l.086-.05.259-.152.95-.555.431-.252.087-.05c.345-.202.74-.317 1.137-.433.395-.115.74-.317 1.137-.432.964-.332 1.943-.44 3.008-.6 2.404-.246 4.837-.046 7.177.788 4.305 1.422 7.77 4.379 9.78 8.416 1.024 1.95 1.514 3.98 1.782 6.023.196 2.318-.055 4.665-.766 6.818a7.551 7.551 0 0 1-.654 1.656c-1.129 2.628-2.956 4.853-5.308 6.575-.346.201-.64.49-.986.691l-1.036.606-.087.05-.431.252-.087.05-.086.051-.086.05c-.26.152-.432.253-.742.318l-.259.151-.086.05c-.396.116-.655.267-1.05.383-.397.115-.706.18-1.102.295l-.086.05c-6.708 1.603-13.692-1.035-17.64-6.603-.288-.295-.49-.64-.691-.986zm6.78-23.88.432-.253-.1-.173-.051-.086-.05-.086a.756.756 0 0 1-.397.115c-.259.152-.568.216-.914.418l-.172.101.151.26.151.258c.295-.288.554-.44.95-.555z"/>
					<path fill="#ffe1ee" d="M495.602 475.833c-2.732-5.47-5.154-11.003-7.1-16.12-.433-1.137.2-2.433 1.25-2.815 1.137-.433 2.297.164 2.73 1.301a142.343 142.343 0 0 0 6.933 15.638c2.681 5.382 5.607 10.39 8.453 14.866.691.986.419 2.303-.567 2.995-.986.691-2.303.419-3.045-.654-2.897-4.561-5.923-9.742-8.654-15.211z"/>
					<path fill="#000101" d="M507.993 492.683a3.84 3.84 0 0 0 1.43-2.11c.037-.136.073-.273.022-.36.057-.496-.058-.892-.173-1.288-.065-.31-.217-.568-.318-.741l-.201-.345c-2.09-3.18-4.208-6.807-6.154-10.535-.67-1.345-1.427-2.64-2.047-3.9-2.53-5.124-4.937-10.434-6.682-15.206l-.1-.172-.05-.087c-.152-.259-.217-.568-.404-.69-.253-.432-.627-.677-1.001-.921-.137-.036-.188-.122-.324-.158-.785-.353-1.728-.38-2.52-.15a3.121 3.121 0 0 0-1.906 1.693c-.194.46-.302.87-.273 1.317.029.446.058.893.173 1.289.05.086.152.259.116.395.151.26.166.483.317.742 1.882 4.807 4.188 9.945 6.667 14.982 2.566 4.987 5.355 9.96 8.1 14.262.202.345.403.69.742 1.072l.05.086c.101.173.288.295.44.554.187.123.288.295.425.331a4.44 4.44 0 0 0 1.245.546c.77.13 1.699-.065 2.426-.606zm-2.003-1.841c-.086.05-.136-.036 0 0-.324-.158-.51-.28-.612-.453l-.302-.518-.505-.864c-2.694-4.216-5.332-8.93-7.796-13.744a150.924 150.924 0 0 1-6.452-14.414c-.065-.31-.266-.654-.331-.964-.101-.173-.116-.396-.217-.568l-.05-.087c-.1-.172-.115-.396-.044-.67l.036-.136c.087-.05.036-.137.123-.187.122-.187.294-.288.467-.39a.55.55 0 0 1 .583.008l.274.071c.05.087.137.036.187.123l.202.345c.05.086.1.173.115.396 1.795 4.858 4.102 9.996 6.632 15.12l.151.258c2.58 5.21 5.556 10.305 8.352 14.694l.201.345c.101.173.116.396.13.62.05.086-.036.136-.071.273-.123.187-.159.324-.418.475-.172.101-.345.202-.568.216.05.087-.087.05-.087.05z"/>
					<path fill="#e6e9ed" d="M477.842 448.345c-.1.6-.2 1.1-.3 1.7-.1 1.1-.2 2.2.2 3.2.5 1.6 2.2 2.8 3.9 2.9 1.7.1 3.4-1 4-2.6.4-.9.4-1.9.6-2.9.7-4.2 3.7-7.9 7.6-9.5 3.9-1.6 8.7-1 12.1 1.5 3.2 2.4 5.1 6.4 5 10.3-.1 2.6-.3 5.3-.4 7.9l-.6 12.2-.6 12v.2c.4.1.8.1 1.2.2.3 0 .5.1.8.1 1.8.3 3.7.5 5.4.7.4 0 .7.1 1.1.1h.1l.5-9.4.6-12 .6-11.3v-.9c-.4-7.6-4.2-14.9-11-18.7-8.2-4.5-18.6-2.9-25.1 3.7l-.1.1c-2.8 2.9-4.8 6.6-5.6 10.5z"/>
					<path fill="#f54421" d="M509.342 485.045v.2c.4.1.8.1 1.2.2.3 0 .5.1.8.1 1.8.3 3.7.5 5.4.7.4 0 .7.1 1.1.1h.1l.5-9.4-.1.1-1.1 1-5.7 5.2-.8.7zm10.1-31.4-.6 11.3-9 8.2.6-12.2 9-8.1v.8zm-2.1-10.3-6.8 6.2c-.8-2.9-2.5-5.4-5-7.1l6.5-5.9c2.1 1.8 4 4.2 5.3 6.8zm-25.2-1.4c-2.6 1.5-4.6 3.9-5.5 6.8l-6.3-6.9c1.5-2.5 3.5-4.6 5.9-6.3zm11.6-9.7-.4 8.9c-2.7-1.2-5.8-1.3-8.6-.4l.4-8.9c2.9-.5 5.8-.3 8.6.4z"/>
					<path fill="#000101" d="M476.242 451.545c-.1 1.5.4 2.9 1.4 4 1 1.1 2.3 1.7 3.8 1.8 3 .2 5.6-2.2 5.8-5.2 0-1 .2-2 .6-3 .9-2.6 2.6-4.7 5-6.1.7-.4 1.5-.8 2.3-1 2.6-.8 5.3-.7 7.8.4.7.3 1.3.6 1.9 1.1 3.2 2.2 5.1 6 4.9 9.8l-1.6 31.9c.4.1.8.1 1.2.2.4.1.8.1 1.2.2l.1-1.5.6-12 .6-12.2.3-6.5c.1-1.6-.1-3.2-.6-4.7-.2-.7-.5-1.4-.8-2-1-2-2.5-3.7-4.3-5l-.2-.2c-.7-.5-1.5-1-2.4-1.3-.1-.1-.3-.1-.4-.2-2.7-1.1-5.8-1.2-8.6-.4-.1 0-.3.1-.4.1-1 .3-1.9.7-2.8 1.2-.1 0-.1.1-.2.1-2.5 1.5-4.5 3.9-5.6 6.7-.1.2-.2.4-.2.6-.4 1.2-.6 2.4-.7 3.7-.1 1.7-1.6 3-3.3 3-.8 0-1.6-.4-2.2-1l-.2-.2c-.5-.6-.7-1.3-.6-2.1.2-3.2 1.1-6.3 2.7-8.9 1.5-2.5 3.4-4.7 5.8-6.3 2.3-1.6 5-2.8 8-3.3h.2c2.7-.4 5.4-.3 8.1.4.1 0 .2 0 .2.1 2.7.7 5.2 2.1 7.4 3.8l.1.1c.9.8 1.8 1.7 2.6 2.6 1 1.2 1.8 2.4 2.5 3.8 0 .1.1.2.1.3 1.3 2.7 1.9 5.7 1.9 8.7v1.1l-.6 12.2-.6 12-.4 8.2c.4 0 .7.1 1.1.1h.1c.4 0 .8.1 1.2.1l1.6-32.7v-.9c0-3.5-.8-6.9-2.3-10-1.4-2.8-3.3-5.2-5.7-7.2-2.5-2.1-5.5-3.7-8.7-4.5-3-.8-6-.9-9.1-.5-2.5.4-5 1.2-7.2 2.5-2.2 1.2-4.2 2.8-5.8 4.6-1.7 1.9-3 4-4 6.3-.9 2.1-1.5 4.6-1.6 7.2z"/>
					<path fill="#b6eb96" d="m517.035 488.952-.156-.256c-.209-.342-.332-.735-.541-1.076-.332-.735-.579-1.522-.826-2.309-2.159-7.94 1.403-16.682 8.916-20.69 1.673-.906 3.417-1.503 5.147-1.74 6.32-1.169 12.753 1.11 17.03 5.996.503.63 1.005 1.26 1.475 2.028l.782 1.28c4.706 8.844 1.281 19.73-7.478 24.382-4.422 2.353-9.375 2.686-13.76 1.265a18.323 18.323 0 0 1-10.589-8.88z"/>
					<path fill="#000101" d="m547.872 472.673.26.427.171-.105.086-.052.085-.052a.756.756 0 0 1-.124-.393c-.156-.256-.227-.564-.436-.906l-.104-.17-.256.156-.256.157c.294.289.45.545.574.938zm-31.913 16.82.105.17.26.426.94 1.536c2.447 3.427 5.898 6.005 10.042 7.222 4.935 1.553 10.145 1.063 14.738-1.394 4.507-2.404 7.886-6.463 9.354-11.346a19.126 19.126 0 0 0-.345-12.449l-.683-1.692-.261-.426-.052-.086-.313-.512-.47-.767-.052-.086c-.313-.512-.66-.886-.972-1.398-.157-.256-.399-.46-.555-.716-4.434-5.142-11.384-7.69-18.096-6.399l-.308.072c-.531.09-1.01.265-1.54.356l-1.181.37c-.394.123-.735.332-1.128.455-.479.176-.906.437-1.384.612l-.256.157-1.024.626c-.341.208-.682.417-.972.711a23.759 23.759 0 0 0-2.843 2.442c-.085.052-.119.19-.204.242a18.316 18.316 0 0 0-3.487 5.415c-1.682 3.958-1.97 8.471-.855 12.595.072.308.143.616.3.872.227.564.403 1.043.63 1.607l.052.086c.157.256.228.564.385.82l.156.255c-.085.053-.033.138.02.223zm7.9-23.118 1.024-.626.256-.156c.427-.26.905-.436 1.384-.612.394-.123.735-.332 1.128-.455l.17-.105c.31-.07.702-.194 1.01-.265.394-.124.787-.247 1.148-.233l.085-.052c5.702-1.026 11.62.982 15.531 5.271l.157.256.052.086c.294.289.45.545.66.886.208.341.45.545.658.886l.053.085.156.256.574.939.26.426.053.086c.209.34.332.734.455 1.128.124.393.332.734.456 1.128.35.957.48 1.934.66 2.996.294 2.398.143 4.835-.643 7.191-1.336 4.333-4.221 7.856-8.217 9.948-1.93 1.062-3.948 1.594-5.987 1.903-2.313.242-4.664.039-6.83-.629a7.551 7.551 0 0 1-1.67-.62c-2.65-1.076-4.912-2.857-6.68-5.175-.21-.341-.503-.63-.712-.972l-.626-1.023-.052-.086-.26-.426-.053-.085-.052-.086-.052-.085c-.157-.256-.261-.427-.332-.735l-.157-.256-.052-.085c-.124-.393-.28-.65-.403-1.043-.124-.393-.195-.701-.318-1.095l-.053-.085c-1.736-6.674.76-13.71 6.248-17.77.289-.293.63-.502.971-.71zm24.013 6.298.26.427.171-.105.086-.052.085-.052a.756.756 0 0 1-.124-.393c-.156-.256-.227-.564-.436-.906l-.104-.17-.256.156-.256.157c.294.289.45.545.574.938z"/>
					<path fill="#b6eb96" d="M531.362 477.494c5.413-2.84 10.897-5.374 15.973-7.423 1.128-.456 2.437.15 2.84 1.194.456 1.128-.118 2.299-1.246 2.754a142.343 142.343 0 0 0-15.494 7.248c-5.328 2.79-10.276 5.815-14.693 8.75-.972.712-2.294.466-3.006-.506-.71-.971-.465-2.294.592-3.057 4.503-2.988 9.621-6.118 15.034-8.96z"/>
					<path fill="#000101" d="M514.765 490.223a3.84 3.84 0 0 0 2.138 1.388c.138.033.275.066.36.014.498.047.892-.076 1.285-.2.308-.07.564-.227.735-.331l.341-.21c3.138-2.152 6.72-4.343 10.408-6.364 1.332-.697 2.612-1.48 3.858-2.125 5.072-2.632 10.333-5.146 15.068-6.987l.17-.104.086-.052c.256-.157.564-.228.683-.418.426-.26.663-.64.9-1.02.033-.137.118-.189.152-.326.336-.792.345-1.735.098-2.522a3.121 3.121 0 0 0-1.73-1.872c-.465-.185-.878-.284-1.323-.246-.446.038-.891.076-1.285.2-.085.051-.256.156-.393.122-.256.157-.479.176-.735.333-4.768 1.978-9.859 4.387-14.845 6.968-4.934 2.665-9.849 5.554-14.096 8.385-.34.209-.682.417-1.056.763l-.086.053c-.17.104-.289.294-.545.45-.118.19-.289.294-.322.432a4.44 4.44 0 0 0-.521 1.256c-.114.773.1 1.697.655 2.413zm1.8-2.04c-.052-.085.034-.137 0 0 .152-.326.27-.516.441-.62l.512-.313.853-.522c4.162-2.78 8.82-5.511 13.584-8.072a150.924 150.924 0 0 1 14.281-6.74c.308-.072.65-.28.958-.352.17-.104.393-.123.564-.228l.085-.052c.17-.104.393-.123.668-.057l.138.033c.052.086.137.033.19.119.19.118.293.289.398.46a.55.55 0 0 1 .005.583l-.067.275c-.085.052-.033.137-.118.19l-.341.208a.756.756 0 0 1-.394.123c-4.82 1.893-9.91 4.303-14.982 6.935l-.256.157c-5.157 2.684-10.19 5.762-14.522 8.646l-.342.209c-.17.104-.393.123-.616.142-.085.052-.137-.033-.275-.066-.19-.119-.327-.152-.484-.408-.104-.17-.208-.341-.227-.564-.086.052-.052-.085-.052-.085z"/>
				</g>
			</g>
		</g>
	</g>
	<g id="RightHand--group">
		<path id="RightHand--bg" d="M390.6 457c-5.2 5.1-11.7 8.1-17.8 8.1-8.1 0-14-5.1-15.6-13.3-1-5.4.9-11.3 5.4-16.7 5.8-6.9 14.9-12 21.7-12.1h.2c1.3 0 2.6.2 3.8.6h.2l.1.1c4.5 1.8 7.9 6.2 9.1 11.8 1.4 7.5-1.2 15.5-7.1 21.5z"/>
		<path id="RightHand" d="M385.4 451.7c4.2-4.2 6-9.6 5-14.7-.6-3.1-2.3-5.5-4.6-6.4-.4-.1-.9-.2-1.3-.2h-.1c-4 0-11.3 3.6-16.1 9.4-1.8 2.1-4.6 6.3-3.8 10.6 1.1 6 5.1 7.3 8.3 7.3 4.1 0 8.8-2.2 12.6-6z" class="st0" fill="#fc0"/>
	</g>
	<g id="RightFootGroup">
		<path id="RightFoot--bg" d="M384.3 648c-2.4 3.7-6.4 5.7-11.5 5.7-1.9 0-4-.3-6.2-.8-25-6-59.3-43.6-63.6-64.5-1.9-9.4-.2-18 5-24.4 4.6-5.7 11.4-8.8 18.9-8.8 6.8 0 13.6 2.5 19.8 7.3 12.2 9.4 32.9 50.5 37.3 60.7 2.5 5.8 4.9 17.7.3 24.8z"/>
		<path id="RightFoot_1_" d="M310.1 586.8c3.8 18.2 36.2 53.6 58.1 58.8 1.7.4 3.2.6 4.5.6 3.4 0 4.7-1.3 5.4-2.3 2.3-3.5 1.5-12.1-1-17.9-6.1-13.9-25.3-50.3-35.1-57.8-4.9-3.8-10.2-5.8-15.3-5.8-5.3 0-10 2.2-13.2 6.1-3.6 4.7-4.8 11.2-3.4 18.3z" class="st0" fill="#fc0"/>
	</g>
	<g id="RightEar--group">
		<path id="RightEar--bg" d="M413.3 399.4c-.4 4.4-3.8 8.4-11.1 12.9-4.7 3-10.2 5.5-13.9 6.5-6.5 1.7-12.3 2.6-17.3 2.6-6.7 0-10.6-1.6-12.7-2.9-4.8-3-4.4-7.2-4.2-8.5.5-3.1 2.9-5.5 5.9-6.2 3.5-.8 13.5-5.8 23.6-12.6 4.2-2.9 10.7-4.8 16.1-4.8 5.8 0 9.1 2.2 10.8 4.1 2.1 2.4 3.1 5.5 2.8 8.9z"/>
		<path id="RightEar" d="M361.4 411.3c0 .3.4.7.9.9 1.1.7 3.6 1.8 8.8 1.8 4.3 0 9.5-.8 15.4-2.3 5.2-1.4 19.1-8.8 19.5-13 .1-1.3-.2-2.4-.9-3.2-1-1.1-2.8-1.7-5.3-1.7-3.9 0-8.9 1.5-11.9 3.5-8.5 5.7-20.5 12.5-26.1 13.7-.3.1-.4.2-.4.3z" class="st1" fill="#f80"/>
	</g>
	<g id="Head--group">
		<path id="Head--bg" d="M516.4 328.1c1.6 0 3.2 0 4.8.1 20.6.6 39.5 6.5 55.9 17 11.2 7.2 17.5 11.4 25.9 25.2 1.5 2.5 9 .8 7.9-1.1-10.1-17.6-17.5-22.3-29.8-30.3-17.7-11.4-37.8-17.6-59.7-18.2-1.6 0-3.3-.1-5-.1-1.6 0-3.3 0-4.9.1-24.3.6-47.8 6.6-67.8 17.1-20.2 10.6-37.1 26.1-48.9 44.7-7.7 12.3-10.3 23.9-7.4 33.5 2.4 7.8 7.9 12.7 12.3 14.6 1.4.6 2.9.9 4.7.9 9.3 0 34.7-9.3 45.7-24.8 8.4 4.5 17.6 6.7 28.1 6.7 12.6 0 25-3.2 36.4-6.9 3-1 3.8-2.2 3.9-4.1 0-1.3-1.2-3.6-3.8-3.5-.3 0-.7.1-1 .2-11.2 3.6-23.3 6.9-35.4 6.9-9.3 0-18.6-2-27.4-7.4-.6-.4-1.3-.5-1.9-.5-1.3 0-2.5.6-3.2 1.8l-.1.1c-7.9 14.3-33.3 24.1-41.2 24.1-.7 0-1.3-.1-1.7-.3-2.8-1.2-6.6-4.6-8.2-10-2.3-7.5 0-17 6.6-27.4 22.5-35.7 63.4-57.1 110.6-58.3 1.4-.1 3-.1 4.6-.1"/>
		<path id="Head" d="M516.6 399.4c-1-.4-2-.7-3-.3-19.7 6.3-42.5 12-62.8-.5-1.7-1.1-4-.5-5.1 1.2l-.1.1c-8.6 15.7-38.3 26-43 23.9-2.8-1.2-6.6-4.6-8.2-10-2.3-7.5 0-17 6.6-27.4 22.5-35.7 63.4-57.1 110.6-58.3 3.1-.1 6.3-.1 9.5 0 20.6.6 39.5 6.5 55.9 17 13.2 8.5 19.7 12.7 30.6 33.6 5.6 10.5-84.4 23.5-91 20.7z" class="st0" fill="#fc0"/>
	</g>
	<g id="LeftEar--group">
		<path id="LeftEar--bg" d="M701.4 357.1c-.5 1.7-1.2 3.4-2 5.2-5 10-17.7 23-38 29.1-4.5 1.4-9.3 2-14 2h-.1c-13 0-34.2-4.9-61.6-28.3-1.9-1.7-5.1-4.8-7.1-7-2.3-2.5-2.8-6.1-1.5-9.1s4.4-5.1 7.8-5.1h.5c13.9.8 30.1 1.2 48.4 1.2 8.1 0 14.8-.1 19.3-.1h4.5c7.4 0 13.3-.1 18.2-.1 8.1 0 13.7.1 17.1.2 2.9.1 5.6 1.5 7.3 3.9 1.5 2.3 2 5.2 1.2 8.1z"/>
		<path id="LeftEar" d="M590.4 359.4c25.7 21.9 45.1 26.5 56.8 26.5h.1c4 0 8-.6 11.9-1.7 18.1-5.4 29.2-16.6 33.5-25.3.8-1.5 1.2-2.8 1.5-3.9.4-1.3-.6-2.6-1.9-2.7-3.3-.1-8.9-.2-16.7-.2-5.4 0-11.6 0-18.2.1-3.3 0-12.2.2-23.9.2-13.9 0-31.7-.2-48.8-1.2h-.1c-.9 0-1.5 1.1-.8 1.8 2 2.2 5 5.1 6.6 6.4z" class="st1" fill="#f80"/>
	</g>
	<g id="Face--group">
		<path id="RightEye" d="M417.6 376.2c-4.1 0-7.4 3.3-7.4 7.4 0 9.9 14.8 9.9 14.8 0 0-4.1-3.3-7.4-7.4-7.4z"/>
		<path id="LeftEye" d="M503.2 355.7c-4.1 0-7.4 3.3-7.4 7.4 0 9.9 14.8 9.9 14.8 0 0-4.1-3.3-7.4-7.4-7.4z"/>
		<path id="Nose" d="M457.9 375.4c-7.4.8-12.3 2.5-15.6 4.9-5.9 4.4-4.1 9.9 2.5 10.7 6.6.8 7.1 1.2 13.2-3.3 6.5-4.9 7.3-13.1-.1-12.3z"/>
	</g>
	<g id="LeftLEg--group">
		<path id="LetLeg" d="M512.4 655.2c-4.6-5.2-3.7-15.7-1.9-29.4 2.6-19.8 5-34.5 25.4-50.8 24.4-19.5 62.2-15 76.2-.5 3.6 3.7 6.7 10.9 7.3 18.8.9 11.4-22.2 42.4-44.8 51.8-22.6 9.6-54 19.3-62.2 10.1z" class="st0" fill="#fc0"/>
		<path id="LeftLeg--bg_1_" d="M512.4 658.9c-1.2 0-2.3-.5-3-1.6-4.7-6.7-4.5-17.2-2.6-32 2.5-19 4.6-35.5 26.8-53.2 26.8-21.4 63.7-14 78.4.7 1.4 1.4 1.4 3.8 0 5.2-1.4 1.4-3.8 1.4-5.2 0-12.5-12.5-45.4-18.7-68.6-.1-18.9 15.1-21.4 28.2-24.1 48.4-1.4 11-2.3 21.8 1.3 26.7 1.2 1.7.8 4-.9 5.2-.6.5-1.4.7-2.1.7z"/>
	</g>
	<g id="LeftFoot--group">
		<path id="LeftFoot--bg" d="M523.7 651.2c-.4 1.9-2 9.1-6.7 16.2-7 10.6-17.8 16.5-30.4 16.5-7.2 0-12.9-2.1-16.8-6.2-7.5-7.8-7.1-21-6.7-33.7v-.1c.2-6.4.4-13.1-.4-18.5-.7-4.4-1.8-9.1-3.1-14.5-2.4-10.2-4.6-20.1-4.3-28.7.4-10.7 4.7-18.9 12.8-24.4 3.5-2.4 7.4-3.5 11.4-3.5 9.3 0 18.9 6.2 28.7 18.6 7.1 8.9 13.1 20 15.4 28.1 6.4 21.8 4.9 34.9.1 50.2z"/>
		<path id="LeftFoot_1_" d="M477 670.8c2 2.1 5.2 3.1 9.6 3.1 22.6 0 27-23.7 27.2-24.7 0-.2.1-.4.1-.6 4.4-13.9 5.7-25.2 0-44.8-3.7-13.2-21.1-39.4-34.4-39.4-2 0-4 .6-5.8 1.9-11.7 7.8-9.3 21.8-4.4 42.4 1.2 5.1 2.5 10.4 3.2 15.3 1 6.4.8 13.5.5 20.4-.2 10.6-.6 21.6 4 26.4z" class="st0" fill="#fc0"/>
	</g>
	<g id="LeftArm--group">
		<path id="LeftArm--bg" d="M478 413.3c-6.4 2.9-12.4 6.6-17.6 11.1-12.1 10.6-12.6 19.4-10.8 24.8 2.5 7.7 11.1 13.4 21.9 14.6 7.1.7 16.2-1.3 26.7-3.6 13.9-3.1 29.7-6.6 42.9-3.9 19.6 4.1 33.3 15 53.1 32.7l10.3 9.2c1.5 1.3 3.9 1.2 5.2-.4 1.3-1.5 1.2-3.9-.4-5.2l-2.9-2.6c-24-21.7-39.9-36-63.8-41-14.8-3.1-31.3.6-46 3.9-9.5 2.1-18.5 4.1-24.3 3.5-7.8-.8-14.1-4.6-15.7-9.5-1.5-4.7 1.6-10.7 8.7-17 20.7-18.2 59.1-23.7 87.5-12.5 4.7 1.9 7.4-5.1 2.7-6.9-11.4-4.4-24.6-6.6-37.7-6.2-10.1.4-30.5 4.8-39.8 9z"/>
		<path id="LeftArm" d="M615.4 451c11.7 12.2 17 60.3-6 41.6l-2.9-2.6c-24-21.7-39.9-36-63.8-41-14.8-3.1-31.3.6-46 3.9-9.5 2.1-18.5 4.1-24.3 3.5-7.8-.8-14.1-4.6-15.7-9.5-1.5-4.7 1.6-10.7 8.7-17 20.7-18.2 59.3-24 87.5-12.5 4.6 2 46.1 16.5 62.5 33.6z" class="st0" fill="#fc0"/>
	</g>
</svg>
