<svg xmlns="http://www.w3.org/2000/svg" xml:space="preserve" width="60" height="90">
        <path class="wapuu_svg_border" d="M31.243 1.12c-7.125.189-13.308 3.427-16.744 8.826-1.41 1.39-4.12 2.934-5.03 3.137-.42.093-.737.377-.85.756-.112.385.01.805.325 1.125.29.292.892.654 2.096.654.648 0 1.471-.107 2.513-.385.391.886 1.066 1.45 1.616 1.694.09.04.198.069.316.088.002.23.01.447.014.677a3.45 3.45 0 0 1-.385-.359c-.209-.225-.408-.487-.688-.707a2.004 2.004 0 0 0-.855-.68 1.637 1.637 0 0 0-.604-.107c-.98 0-2.297.73-3.132 1.734-.642.774-.917 1.627-.772 2.397.173.925.736 1.574 1.527 1.814 1.682 1.386 3.651 4.082 4.565 5.672l-.031.133-.002.012-.002.01c-.178.845-.42 1.373-.713 1.79-1.038 1.472-3.248 1.801-5.84 7.604-.364-.469-.716-.879-1.024-1.115-.893-.687-1.875-1.05-2.843-1.05-1.075 0-2.069.462-2.727 1.268-.743.912-.998 2.157-.719 3.504.623 3.011 5.553 8.417 9.155 9.282.294.074.595.113.898.117.93 0 1.417-.447 1.662-.82.343-.526.407-1.2.358-1.833 2.548 1.646 6.437 2.498 10.974 2.674.011 1.344.183 2.604.987 3.434.564.583 1.372.879 2.404.879 2.135 0 3.515-1.113 4.342-2.356.188.007.387.014.605.014 1.374 0 3.31-.173 5.54-.852-3.33 5.173-9.596 9.023-15.067 9.127-1.962.042-4.622-.434-6.086-2.894-1.777-2.988-4.614-4.062-6.496-3.576-1.483.382-2.365 1.606-2.422 3.357-.047 1.46 1.05 3.214 3.01 4.815 2.576 2.105 6.637 3.876 10.779 3.876 1.028 0 2.061-.11 3.078-.35 9.033-2.137 17.102-9.413 19.273-17.345 2.443-1.744 4.054-4.35 5.108-7.174 1.055-2.824 1.552-5.865 1.773-8.482.56-6.671-.476-13.295-1.752-16.899a25.873 25.873 0 0 0-1.572-3.568c1.186.398 2.187.527 2.973.527a7.1 7.1 0 0 0 2.039-.292c4.155-1.246 5.891-4.317 5.861-5.608-.01-.51-.266-.873-.68-.976-.257-.064-.869-.104-3.125-.104-.781 0-1.673.003-2.62.008-1.073.005-2.218.012-3.362.012-1.96 0-4.71-.016-6.566-.14-2.753-2.071-6.024-3.232-9.647-3.341-.483-.015-.96-.016-1.435-.004Z"
              style="display:inline;color:#000;opacity:1;fill:#000;-inkscape-stroke:none" transform="translate(-.19 21.333)"/>
        <path class="wapuu_svg_body" d="M31.276 2.187c.453-.012.91-.013 1.371.001 2.966.09 5.682.939 8.047 2.452a.82.82 0 0 0-.33.414c-.08.219-.32.88 1.426 2.334l.127.11c1.578 1.343 3.01 2.258 4.283 2.878a24.013 24.013 0 0 1 2.174 4.588c2.712 7.66 3.447 25.701-4.89 31.437-4.4 3.03-8.539 3.544-10.882 3.537A6.18 6.18 0 0 0 33 48.665c.69-2.198.906-4.095-.006-7.22a6.004 6.004 0 0 0-.162-.485c1.74-3.456 4.81-4.264 6.496-4.434 2.315-.233 4.658.46 5.578 1.65.437.547 1.261-.092.842-.652-.33-.427-.791-.799-1.34-1.109l-.98-.453c-1.227-.454-2.716-.648-4.208-.496-2.946.298-5.422 1.844-6.93 4.283-1.107-2.162-3.252-5.008-5.613-5.008-.575 0-1.124.17-1.627.506-2.627 1.75-1.88 4.863-1.222 7.61.176.735.341 1.43.441 2.08.12.787.09 1.746.059 2.673-.005.14-.004.28-.008.42-5.029-.202-9.165-1.32-11.316-3.156-.03-.082-.062-.2-.088-.26-.46-1.051-2.12-4.37-3.668-6.672 2.619-6.16 4.597-6.006 5.978-7.962.377-.536.67-1.217.87-2.15.755-2.928.43-6.91.39-10.854 1.83-.29 4.645-1.693 5.94-3.489 1.296.688 2.647.953 4.013.951-.925.427-1.784.954-2.527 1.596-1.74 1.53-1.808 2.784-1.559 3.565.353 1.11 1.592 1.932 3.156 2.097 1.018.107 2.327-.183 3.842-.52 2-.442 4.267-.947 6.166-.554 2.825.584 4.79 2.154 7.639 4.707l1.48 1.33a.53.53 0 0 0 .696-.8l-.42-.381c-3.455-3.123-5.738-5.185-9.178-5.897-2.123-.44-4.508.09-6.611.557-1.365.303-2.654.588-3.5.5-1.127-.12-2.032-.667-2.254-1.362-.216-.677.227-1.543 1.248-2.441 2.977-2.618 8.506-3.407 12.59-1.797.669.28 1.07-.74.388-.99-1.636-.636-3.52-.93-5.42-.887a.53.53 0 0 0-.62-.775c-2.84.908-6.113 1.726-9.026-.065a.534.534 0 0 0-.746.198c-1.24 2.255-5.51 3.734-6.18 3.435-.397-.176-.944-.658-1.183-1.443-.327-1.077-.001-2.439.943-3.936 3.237-5.132 9.118-8.208 15.914-8.388z"
              style="display:inline;color:#000;opacity:1;fill:#ffcc00;-inkscape-stroke:none" transform="translate(-.19 21.333)"/>
        <path class="wapuu_svg_tail" d="M42.85 48.063c-2.515 7.108-9.9 13.46-18.123 15.407-4.755 1.126-9.924-.853-12.937-3.315-1.675-1.369-2.656-2.849-2.62-3.957.04-1.264.619-2.101 1.624-2.36 1.5-.386 3.806.55 5.316 3.089 1.346 2.262 3.822 3.468 7.02 3.416 6.191-.117 13.328-4.733 16.613-10.74 1-.396 2.043-.904 3.107-1.54z"
              style="display:inline;color:#000;opacity:1;fill:#ff8800;-inkscape-stroke:none" transform="translate(-.19 21.333)"/>
        <path class="wapuu_svg_foot" d="M4.7 35.905c-.764 0-1.439.31-1.899.875-.538.66-.717 1.59-.504 2.617.543 2.621 5.203 7.704 8.36 8.461.24.058.46.088.65.088.492 0 .675-.193.77-.338.334-.511.206-1.526-.032-2.246.018.017.04.032.057.05l-.06-.061c-.035-.105-.065-.223-.104-.311-.875-1.996-3.643-7.23-5.043-8.307-.705-.543-1.464-.828-2.195-.828zm21.976.256c-.294 0-.57.088-.84.268-1.677 1.118-1.336 3.138-.628 6.095.175.731.354 1.49.464 2.196.141.918.108 1.944.075 2.937-.051 1.54-.106 3.134.558 3.82.291.302.745.448 1.387.448 3.246 0 3.89-3.408 3.916-3.553a.665.665 0 0 1 .021-.092c.633-2.003.82-3.625-.003-6.449-.528-1.897-3.035-5.67-4.95-5.67z"
              style="display:inline;color:#000;opacity:1;fill:#ffcc00;-inkscape-stroke:none" transform="translate(-.19 21.333)"/>
        <path class="wapuu_svg_arm" d="M12.967 16.903c-.573 0-1.62.516-2.312 1.35-.253.305-.66.906-.545 1.52.163.867.74 1.05 1.193 1.05.598 0 1.277-.32 1.813-.855.598-.598.866-1.388.717-2.112-.092-.45-.338-.794-.657-.921a.574.574 0 0 0-.209-.032zm1.955 1.61c-.065.798-.43 1.583-1.054 2.207-.53.53-1.158.895-1.797 1.062 1.254 1.235 2.475 2.839 3.344 4.18.235-2.015.161-4.524.105-7.1a3.103 3.103 0 0 1-.598-.35z"
              style="display:inline;color:#000;opacity:1;fill:#ffcc00;-inkscape-stroke:none" transform="translate(-.19 21.333)"/>
        <path class="wapuu_svg_ear" d="M41.622 5.49c-.069-.001-.128 0-.174.003.139.227.48.623 1.023 1.076l.137.118c3.7 3.153 6.485 3.816 8.17 3.816a6.023 6.023 0 0 0 1.732-.248c2.6-.78 4.196-2.39 4.823-3.637.233-.465.28-.772.28-.916-.352-.036-1.271-.053-2.74-.053-.78 0-1.67.004-2.615.01-1.075.004-2.223.01-3.369.01-2.12 0-5.155-.018-7.039-.17a3.347 3.347 0 0 0-.228-.01zm-28.16 6.657c-1.392.968-2.96 1.797-3.76 1.975-.05.011-.067.027-.067.027.004-.003.037.057.155.137.216.146 1.096.556 3.478-.08-.073-.553-.047-1.24.193-2.059z"
              style="display:inline;color:#000;opacity:1;fill:#ff8800;-inkscape-stroke:none" transform="translate(-.19 21.333)"/>
        <path class="wapuu_svg_face" d="M17.753 9.106c-.59 0-1.068.478-1.067 1.067 0 1.421 2.13 1.421 2.131 0 0-.589-.476-1.066-1.064-1.067ZM30.06 6.15c-.59 0-1.066.477-1.065 1.066-.001 1.421 2.13 1.421 2.13 0a1.065 1.065 0 0 0-1.066-1.067zm-6.509 2.84c-1.065.118-1.775.353-2.25.708-.847.635-.59 1.421.356 1.54.947.117 1.02.179 1.894-.475.946-.71 1.065-1.892 0-1.774z"
              style="display:inline;color:#000;opacity:1;fill:#000;-inkscape-stroke:none" transform="translate(-.19 21.333)"/>
</svg>