<svg xmlns="http://www.w3.org/2000/svg" id="wapuugotchi_svg__wapuu" x="0" y="0" version="1.1" viewBox="0 0 1000 1000">
    <g id="wapuugotchi_type__squirrel" class="wapuugotchi_type__squirrel">
        <g id="Background--group" />
        <g id="RightArm--group">
            <path d="M436.6 504c-4.5 5.1-10.5 7.9-17 7.9-9.1 0-18.5-5.5-24.4-14.4-7.8-11.6-15.5-21.2-22.3-27.9l-4.8-4.7c-2-2-1.1-5.3 1.6-6.1l6.5-1.7c3.2-.9 6.4-2.7 9.1-5.5 3-3 4.8-6.7 5.2-10.4V430c0-1.3 1.5-2.1 2.5-1.3l9.3 6.9c.7.5 1.7 1.1 2.9 1.7 10.2 4.9 31.7 27.4 35.7 46.7 2.1 10.1-1.2 16.5-4.3 20z"/>
            <path fill="#FFFAF3" fill-opacity="1" d="M402.1 444.1c-1.5-.7-2.9-1.5-4.2-2.4-.5 5.5-3 11-7.3 15.3-3.7 3.7-8.1 6.2-12.5 7.4 8.7 8.6 17 19.8 23.2 29.1 4.5 6.7 11.6 11.1 18.3 11.1 4.1 0 8.1-1.6 11.4-5.4 13-14.8-17.3-49.6-28.9-55.1z"/>
        </g>
        <g id="Tail--group">
            <path fill="#FFFF" d="M653.4,629.2l-0.2-2.2c-0.8,4-3.5,7.8-8.7,9.7c-17.2,6.5-30.6-15.2-24.4-39.9c1.6-6.2,4.9-12,9.9-16c4.4-3.6,10.7-5.9,19.2-4.9c10,1.2,17.9,11.4,17.8,21.7l0.3-0.8C677.2,606.2,670.5,631.9,653.4,629.2z"/>
            <path fill="none" stroke="#000000" stroke-width="7" d="M667.4,596.9c9.8,9.3,3.1,35-14,32.4"/>
            <path d="M652.9,618c1.4,1.3,2.4,3.1,2.9,5c0.5,1.9,0.6,4,0.2,6.1c-0.4,2.1-1.4,4.1-2.8,5.8c-1.4,1.7-3.1,3.1-4.9,4.1
				c-1.8,1-3.7,1.7-5.7,2.2c-2,0.5-4.1,0.6-6.2,0.4c-4.3-0.4-8.3-2.4-11.3-5.1c-3.1-2.7-5.3-6-6.9-9.5c-1.6-3.5-2.6-7.1-3.2-10.8
				c-0.6-3.7-0.7-7.4-0.4-11.1c0.1-1.8,0.4-3.7,0.7-5.5c0.3-1.8,0.7-3.5,1.2-5.4c2.2-7.3,6.7-14,13.4-18.3c3.4-2.1,7.2-3.4,11.1-3.9
				c1.9-0.2,3.9-0.3,5.7-0.2c0.9,0,1.9,0.2,2.8,0.3l1.5,0.3c0.5,0.1,1,0.2,1.5,0.4c4,1.1,7.4,3.4,10.1,6.2c2.7,2.8,4.8,6.2,6,9.9
				c1.2,3.6,1.8,7.7,0.9,11.5c-0.9,3.8-3.1,7.3-6.2,9.3c-0.4,0.3-0.9,0.1-1.2-0.3c-0.1-0.2-0.2-0.5-0.1-0.7l0,0
				c1.1-3.3,1.7-6.2,1.8-9.1c0.1-2.9-0.3-5.8-1.3-8.5c-2-5.4-6.7-10-11.9-11.3l-1-0.2l-1-0.1c-0.8-0.1-1.5-0.1-2.3-0.1
				c-1.5,0-3,0-4.4,0.3c-2.9,0.4-5.6,1.4-7.9,2.9c-1.2,0.8-2.3,1.7-3.3,2.7c-1,1-1.9,2.1-2.8,3.4c-1.7,2.4-2.9,5.1-3.7,8
				c-1.7,5.9-2.2,12.3-1.3,18.4c0.4,3,1.2,6,2.4,8.7c1.2,2.7,2.8,5.1,4.8,7c2,1.9,4.4,3,6.9,3.4c1.3,0.2,2.6,0.1,3.9-0.1
				c1.3-0.3,2.7-0.7,3.8-1.3c1.2-0.6,2.1-1.4,2.9-2.3c0.8-0.9,1.4-2,2-3.1c0.6-1.2,1-2.5,1.4-4c0.4-1.5,0.7-3.1,0.9-4.9l0,0
				c0-0.2,0.3-0.4,0.5-0.4C652.8,617.9,652.9,617.9,652.9,618z"/>
        </g>
        <g id="Body--group">
            <path d="M649.7 531.9c-2 24-6.7 45.1-13.9 62.9-8.5 20.9-20.3 36.6-35.1 46.8-34 23.4-64.8 26-76.4 26-1.3 0-2.5 0-3.8-.1-18.4-.8-26-4.4-32.7-7.5-5.9-2.8-11-5.2-24.9-5.7-37.5-1.5-67-9.9-83.1-23.6-.2-.1-.5-.4-.9-.7-4.8-3.5-19.3-14.3-25-24.7-5.3-9.7-6.2-22.3-2.3-31.4 13.4-31.2 24.5-40.5 33.5-48 3.6-3 6.4-5.3 8.8-8.7 2.2-3.1 3.8-7.1 4.9-12.2 0-.1 0-.2.1-.3 3.9-15 3.4-34.9 2.8-56-.2-5.7-.3-11.7-.4-17.5v-.1c0-18.6 9.6-40.7 25.7-59.2 18.1-20.8 41.6-33.6 66.1-36.2 20.2-2.1 34.3-3.1 45.9-3.1 43.7 0 58.6 14.8 82.2 48.4 7.5 10.6 12.1 22.5 16 33.7 11.1 30.4 15.9 76.5 12.5 117.2z"/>
            <path fill="#FFFAF3" fill-opacity="1" d="M358.5 576.7c-3 7-2.2 17.4 2 25 5.6 10.3 23 22.2 24.1 23.2 15.1 12.9 43.7 20.5 78.7 21.9 31.2 1.3 24.3 11.8 57.6 13.3 1.1 0 2.2.1 3.5.1 16.7 0 43.7-5 72.2-24.7 58-39.9 52.9-165.3 34-218.6-3.9-11.1-8.3-22.2-15.1-31.9-23.5-33.5-36.6-45.2-76.2-45.2-12.2 0-26.9 1.1-45.1 3.1-49.9 5.3-85.3 55.3-85.3 88.1.3 27.4 2.5 55.1-2.7 75.5-1.4 6.5-3.4 11.2-6 14.9-9.8 13.5-23.4 12.4-41.7 55.3z"/>
        </g>
        <g id="Ball--group" />
        <g id="RightFoot--group">
            <path d="M384.3 648c-2.4 3.7-6.4 5.7-11.5 5.7-1.9 0-4-.3-6.2-.8-25-6-59.3-43.6-63.6-64.5-1.9-9.4-.2-18 5-24.4 4.6-5.7 11.4-8.8 18.9-8.8 6.8 0 13.6 2.5 19.8 7.3 12.2 9.4 32.9 50.5 37.3 60.7 2.5 5.8 4.9 17.7.3 24.8z"/>
            <path fill="#FFFAF3" fill-opacity="1" d="M310.1 586.8c3.8 18.2 36.2 53.6 58.1 58.8 1.7.4 3.2.6 4.5.6 3.4 0 4.7-1.3 5.4-2.3 2.3-3.5 1.5-12.1-1-17.9-6.1-13.9-25.3-50.3-35.1-57.8-4.9-3.8-10.2-5.8-15.3-5.8-5.3 0-10 2.2-13.2 6.1-3.6 4.7-4.8 11.2-3.4 18.3z"/>
        </g>
        <g id="FullHead--group">
            <g id="BeforeHead--group" />
            <g id="RightEar--group">
                <path fill="#FFFAF3" d="M529.8,337.4c0,0-6.7-25.1-36.7-71.6c-28.9-44.7-27.4-54.6-33.8-59.1c-7.6-5.3-23.1,8.4-24.1,44.9c-1,40.9,25.4,78.4,58.2,100.9"/>
                <path fill="#FFBBB0" d="M519.1,340.3c0,0-11.8-25.7-23.3-45.2c-13.4-22.6-26.7-36.9-39.3-65.4c-2.8-6.3-13.8,27.5,3.2,62.4c17,34.8,42.2,51.6,42.2,51.6"/>
                <path fill="none" stroke="#000000" stroke-width="7" d="M529.8,337.4c0,0-6.7-25.1-36.7-71.6c-28.9-44.7-27.4-54.6-33.8-59.1c-7.6-5.3-23.1,8.4-24.1,44.9c-1,40.9,25.4,78.4,58.2,100.9"/>
                <path d="M518.7,340.5c-5.6-9.4-10.8-18.9-16.2-28.3c-2.6-4.7-5.4-9.4-8.1-14.1c-1.4-2.3-2.8-4.6-4.2-6.9l-4.3-6.9
                c-5.8-9.1-11.7-18.4-16.9-28.1c-2.6-4.8-5.1-9.7-7.5-14.6c-0.6-1.2-1.2-2.5-1.7-3.7c-0.6-1.2-1.2-2.5-1.7-3.7l-1.7-3.7
                c-0.1-0.3-0.3-0.7-0.4-0.8c-0.1-0.1-0.1-0.2-0.2-0.2c0,0-0.1,0-0.1,0c-0.3,0.1-0.8,0.7-1.1,1.3c-1.2,2.3-1.8,5-2.3,7.6
                c-0.5,2.7-0.7,5.4-0.8,8c-0.1,2.7-0.1,5.4,0.1,8.1c0.2,2.7,0.5,5.4,0.9,8c1.8,10.6,5.5,20.7,10.6,30
                c10.1,18.8,23.3,35.9,39.3,50.5l0,0c0.3,0.3,0.3,0.8,0,1.1c-0.2,0.3-0.6,0.3-0.9,0.2c-4.9-2.7-9.3-6-13.5-9.7
                c-1-0.9-2.1-1.8-3.1-2.8l-3-2.9l-2.9-3c-1-1-1.8-2.1-2.7-3.1l-1.4-1.6l-1.3-1.6c-0.9-1.1-1.7-2.2-2.6-3.3
                c-1.6-2.3-3.3-4.5-4.8-6.8l-2.2-3.5l-2.1-3.6c-1.4-2.4-2.6-4.9-3.8-7.4c-5-10-7.7-21.1-8.5-32.2c-0.2-2.8-0.3-5.5-0.3-8.3
                c0-2.8,0.2-5.5,0.4-8.3c0.3-2.7,0.7-5.5,1.2-8.2c0.3-1.3,0.6-2.7,1-4c0.4-1.3,0.9-2.6,1.6-3.9c0.2-0.3,0.4-0.6,0.6-0.9
                c0.3-0.3,0.5-0.6,1-0.8c0.3-0.1,0.6-0.1,0.9,0.1c0.3,0.1,0.4,0.3,0.5,0.5c0.2,0.4,0.3,0.7,0.5,1l1.7,3.7c1.2,2.4,2.4,4.9,3.8,7.2
                c2.6,4.8,5.5,9.4,8.6,13.8c6.2,8.9,13,17.4,19.1,26.5c6.2,9.1,11.5,18.8,16.4,28.6c2.4,4.9,4.7,9.9,6.8,14.9
                c2.1,5,4.2,10.1,5.9,15.3c0.1,0.2,0,0.5-0.3,0.6C519,340.8,518.8,340.7,518.7,340.5z"/>
            </g>
            <g id="Head--group">
                <path fill="#fff" d="M444.5,412.9c0,0,5.5,10.4,7.5,11c2,0.6,5.8-1.3,5.8-1.3s3.9,0.5,6.2-2.6s0.9-12.2,0.9-12.2l-14.7-2.6L444.5,412.9z"/>
                <path d="M466.4,409.2l-3,0.1c-0.1,2.4-0.2,4.8-0.3,7.2l-0.1,1.8c0,0.6-0.1,1.2-0.2,1.5c0,0.1,0,0,0,0c0,0,0,0,0,0
			c-0.1,0.1-0.2,0.2-0.4,0.3c-0.3,0.3-0.8,0.5-1.3,0.7c-0.5,0.2-1,0.4-1.4,0.5c-0.2,0.1-0.5,0.1-0.6,0.1c-0.1,0-0.1,0-0.2,0
			c0,0,0,0-0.1-0.1c-0.1-0.2-0.3-0.4-0.5-0.6c-0.3-0.5-0.6-1-0.9-1.5c-1.2-2.1-2.3-4.2-3.7-6.3c0.2,2.5,0.7,4.9,1.5,7.3
			c0.2,0.6,0.4,1.2,0.7,1.7c-1.3,0.9-3.1,0.9-3.7,0.4c-0.8-0.7-4.2-6.6-7.1-11.8l-2.6,1.4c2.4,4.3,6.5,11.7,7.8,12.7
			c0.8,0.7,2,1,3.2,1c1.5,0,3-0.5,4.3-1.4c0,0,0,0,0.1,0c0.1,0,0.2,0,0.2,0.1c0.2,0,0.3,0.1,0.4,0.1c0.2,0,0.5,0,0.7,0
			c0.4,0,0.8-0.1,1.2-0.1c0.7-0.1,1.4-0.3,2.1-0.6c0.7-0.3,1.3-0.6,1.9-1c0.3-0.2,0.7-0.5,1-0.9c0.2-0.2,0.3-0.4,0.5-0.7
			c0.2-0.4,0.2-0.6,0.3-0.8c0.2-0.8,0.2-1.4,0.2-2.1c0-0.6,0.1-1.3,0.1-1.9C466.6,414.1,466.5,411.6,466.4,409.2z"/>
                <path fill="#FFFAF3" fill-opacity="1" d="M516.6 399.4c-1-.4-2-.7-3-.3-19.7 6.3-42.5 12-62.8-.5-1.7-1.1-4-.5-5.1 1.2l-.1.1c-8.6 15.7-38.3 26-43 23.9-2.8-1.2-6.6-4.6-8.2-10-2.3-7.5 0-17 6.6-27.4 22.5-35.7 63.4-57.1 110.6-58.3 3.1-.1 6.3-.1 9.5 0 20.6.6 39.5 6.5 55.9 17 13.2 8.5 19.7 12.7 30.6 33.6-33.782-1.673-55.4 2.019-91 20.7z"/>
                <path d="M516.4 328.1c1.6 0 3.2 0 4.8.1 20.6.6 39.5 6.5 55.9 17 11.2 7.2 17.226 11.374 27.002 24.387 1.736 2.343 9 .752 7.78-1.073C600.604 351.504 593.4 347 581.1 339c-17.7-11.4-37.8-17.6-59.7-18.2-1.6 0-3.3-.1-5-.1-1.6 0-3.3 0-4.9.1-24.3.6-47.8 6.6-67.8 17.1-20.2 10.6-37.1 26.1-48.9 44.7-7.7 12.3-10.3 23.9-7.4 33.5 2.4 7.8 7.9 12.7 12.3 14.6 1.4.6 2.9.9 4.7.9 9.3 0 34.7-9.3 45.7-24.8 8.4 4.5 17.6 6.7 28.1 6.7 12.6 0 25-3.2 36.4-6.9 3-1 3.8-2.2 3.9-4.1 0-1.3-1.2-3.6-3.8-3.5-.3 0-.7.1-1 .2-11.2 3.6-23.3 6.9-35.4 6.9-9.3 0-18.6-2-27.4-7.4-.6-.4-1.3-.5-1.9-.5-1.3 0-2.5.6-3.2 1.8l-.1.1c-7.9 14.3-33.3 24.1-41.2 24.1-.7 0-1.3-.1-1.7-.3-2.8-1.2-6.6-4.6-8.2-10-2.3-7.5 0-17 6.6-27.4 22.5-35.7 63.4-57.1 110.6-58.3 1.4-.1 3-.1 4.6-.1"/>

            </g>
            <g id="LeftEar--group">
                    <path fill="#FFFAF3" d="M568.1,372.6c0,0-30.1-39.4-26.3-103.8c0,0,2.2-62.1,24-70.5c17.3-6.6,44,58.8,47.2,110.6
		c2.2,35.8-17.4,54.7-22.8,65.5"/>
                    <path d="M567.6,373c-2.9-2.9-5.3-6.2-7.5-9.6c-2.2-3.4-4.2-7-6-10.6c-1.8-3.7-3.4-7.4-4.8-11.2c-1.5-3.8-2.7-7.7-3.9-11.6
		c-2.3-7.8-4-15.8-5.1-23.9c-1.1-8.1-1.7-16.2-1.7-24.3c0.1-16.2,1.4-32.4,4.7-48.3c1.7-8,3.9-15.9,7.7-23.5
		c1.9-3.8,4.2-7.5,7.6-10.6c1.7-1.6,3.7-2.9,5.9-3.8c0.5-0.2,1.3-0.5,2-0.6c0.7-0.1,1.4-0.2,2.2-0.2c1.4,0,2.8,0.4,4,0.8
		c2.4,0.9,4.3,2.4,6,3.8c1.7,1.5,3.1,3.1,4.5,4.8c2.7,3.3,4.9,6.8,6.9,10.4c4.1,7.2,7.4,14.6,10.3,22.2c5.8,15.2,10,30.8,12.9,46.8
		c1.4,8,2.4,16,2.9,24.2c0.5,8.2,0,16.6-1.8,24.7c-0.9,4-2.1,8-3.6,11.9c-1.5,3.8-3.3,7.6-5.3,11.1c-2,3.6-4.4,6.9-6.9,10.1
		c-2.5,3.2-5.1,6.1-7.6,9.3l0,0c-0.2,0.2-0.5,0.3-0.8,0.1c-0.2-0.1-0.3-0.4-0.2-0.6c1.2-4,3.3-7.5,5.2-11c1.9-3.5,3.8-6.9,5.6-10.4
		c3.6-6.9,6.5-14.1,8-21.7c1.6-7.5,2-15.3,1.4-23c-0.6-7.8-1.7-15.7-3.1-23.4c-2.8-15.5-7-30.9-12.7-45.6c-2.8-7.3-6-14.6-9.8-21.3
		c-1.9-3.4-4-6.6-6.3-9.6c-1.2-1.5-2.4-2.8-3.7-4c-1.3-1.2-2.7-2.1-4-2.7c-0.7-0.3-1.3-0.4-1.8-0.4c-0.6,0-1,0.1-1.7,0.3
		c-1.4,0.6-2.8,1.5-4.1,2.6c-2.5,2.3-4.6,5.4-6.3,8.8c-3.4,6.7-5.5,14.3-7.2,22c-3.2,15.4-4.7,31.2-4.6,47
		c0.1,7.9,0.7,15.7,1.8,23.5c0.3,1.9,0.6,3.9,0.9,5.8c0.3,1.9,0.7,3.9,1.1,5.8c0.8,3.8,1.7,7.7,2.8,11.4c1,3.8,2.2,7.6,3.4,11.3
		c1.3,3.7,2.7,7.4,4.1,11c1.5,3.6,3,7.3,4.7,10.9c1.6,3.6,3.3,7.2,5.2,10.7l0,0c0.2,0.3,0,0.7-0.3,0.9
		C568.1,373.3,567.8,373.2,567.6,373z"/>
                    <path fill="#FFBBB0" d="M579.5,363.7c0,0-20.7-43.5-21.9-85.8c-1.2-41.9,12.3-64.7,12.3-64.7c2.6,3.1,25,55.6,26,91.1
		C597,344,579.5,363.7,579.5,363.7z"/>
                    <path d="M579.5,364.2c-0.2,0-0.4-0.3-0.4-0.4l-0.1-0.1l-0.1-0.3l-0.3-0.5l-0.5-1.1l-1.1-2.2c-0.7-1.5-1.3-3-2-4.5
		c-1.3-3-2.5-6-3.7-9c-2.4-6-4.5-12.2-6.4-18.5c-1.9-6.2-3.6-12.5-5-18.9c-1.3-6.4-2.4-12.9-3.1-19.4c-0.7-6.5-1-13.1-0.9-19.6
		c0.1-6.5,0.7-13.1,1.6-19.6c0.9-6.5,2.4-12.9,4.4-19.1c0.5-1.6,1-3.1,1.6-4.7c0.6-1.5,1.2-3,1.8-4.5c1.3-3,2.7-6,4.5-8.7l0,0
		c0-0.1,0.2-0.1,0.3-0.1c0,0,0,0,0.1,0.1l0,0c1.1,1.4,1.8,2.8,2.7,4.3c0.8,1.5,1.5,2.9,2.3,4.4c1.5,3,2.9,6,4.2,9
		c1.4,3,2.6,6.1,3.9,9.2c1.2,3.1,2.4,6.2,3.5,9.3c1.1,3.1,2.2,6.3,3.2,9.4c1,3.2,1.9,6.4,2.8,9.6c0.9,3.2,1.7,6.4,2.5,9.7
		c0.7,3.3,1.4,6.5,1.9,9.8c0.6,3.3,1,6.6,1.3,10c0.3,3.4,0.4,6.8,0.4,10.1c0,6.7-0.7,13.5-2,20.1c-1.4,6.6-3.3,13.1-6.1,19.3
		c-1.4,3.1-3,6-4.8,8.9c-0.9,1.4-1.8,2.8-2.8,4.2c-0.5,0.7-1,1.3-1.6,2c-0.3,0.3-0.6,0.6-0.8,0.9l-0.4,0.5l-0.2,0.2l-0.1,0.1
		l-0.1,0.1C579.9,364.1,579.6,364.2,579.5,364.2z M579.6,363.2c-0.1-0.1-0.3,0-0.4,0.1l0-0.1l0.1-0.1l0.2-0.3l0.3-0.5l0.6-1
		c0.4-0.7,0.8-1.4,1.2-2.1c0.8-1.4,1.5-2.9,2.2-4.3c1.4-2.9,2.5-6,3.5-9c2-6.1,3.5-12.4,4.4-18.8c0.5-3.2,0.8-6.4,1-9.6
		c0.2-3.2,0.3-6.4,0.3-9.7c0-3.2-0.2-6.4-0.5-9.6c-0.3-3.2-0.6-6.4-1.2-9.6c-0.5-3.2-1.1-6.4-1.7-9.6c-0.6-3.2-1.3-6.4-2.1-9.6
		c-0.8-3.2-1.6-6.3-2.4-9.5c-0.8-3.2-1.7-6.3-2.6-9.5l-2.8-9.4l-3-9.4c-1-3.1-2.1-6.2-3.2-9.3c-0.6-1.5-1.2-3.1-1.7-4.6
		c-0.6-1.5-1.2-3.1-2-4.5l0.3,0l0,0c-1.2,3-2.3,6-3.2,9.1c-0.5,1.5-0.9,3.1-1.2,4.7c-0.4,1.5-0.8,3.1-1.1,4.7
		c-1.4,6.3-2.4,12.6-3.1,18.9c-0.3,3.2-0.6,6.4-0.8,9.5c-0.2,3.2-0.3,6.4-0.4,9.6c-0.1,6.4,0.1,12.8,0.7,19.1
		c0.6,6.4,1.5,12.7,2.7,19c1.2,6.3,2.6,12.6,4.2,18.8c1.6,6.2,3.6,12.4,5.5,18.6c1,3.1,2,6.1,3.1,9.2l1.7,4.6l0.8,2.3l0.4,1.1
		l0.2,0.6l0.1,0.3l0.1,0.1C579.9,363.3,579.7,363.1,579.6,363.2z"/>
            </g>
            <g id="Face--group">
                <path d="M417.6 376.2c-4.1 0-7.4 3.3-7.4 7.4 0 9.9 14.8 9.9 14.8 0 0-4.1-3.3-7.4-7.4-7.4z"/>
                <path d="M503.2 355.7c-4.1 0-7.4 3.3-7.4 7.4 0 9.9 14.8 9.9 14.8 0 0-4.1-3.3-7.4-7.4-7.4z"/>
                <path id="Face--group__nose" d="M457.9 375.4c-7.4.8-12.3 2.5-15.6 4.9-5.9 4.4-4.1 9.9 2.5 10.7 6.6.8 7.1 1.2 13.2-3.3 6.5-4.9 7.3-13.1-.1-12.3z" />
            </g>
        </g>
        <g id="LeftLeg--group">
            <path fill="#FFFAF3" fill-opacity="1" d="M512.4 655.2c-4.6-5.2-3.7-15.7-1.9-29.4 2.6-19.8 5-34.5 25.4-50.8 24.4-19.5 62.2-15 76.2-.5 3.6 3.7 6.7 10.9 7.3 18.8.9 11.4-22.2 42.4-44.8 51.8-22.6 9.6-54 19.3-62.2 10.1z"/>
            <path d="M512.4 658.9c-1.2 0-2.3-.5-3-1.6-4.7-6.7-4.5-17.2-2.6-32 2.5-19 4.6-35.5 26.8-53.2 26.8-21.4 63.7-14 78.4.7 1.4 1.4 1.4 3.8 0 5.2-1.4 1.4-3.8 1.4-5.2 0-12.5-12.5-45.4-18.7-68.6-.1-18.9 15.1-21.4 28.2-24.1 48.4-1.4 11-2.3 21.8 1.3 26.7 1.2 1.7.8 4-.9 5.2-.6.5-1.4.7-2.1.7z"/>
        </g>
        <g id="LeftFoot--group">
            <path d="M523.7 651.2c-.4 1.9-2 9.1-6.7 16.2-7 10.6-17.8 16.5-30.4 16.5-7.2 0-12.9-2.1-16.8-6.2-7.5-7.8-7.1-21-6.7-33.7v-.1c.2-6.4.4-13.1-.4-18.5-.7-4.4-1.8-9.1-3.1-14.5-2.4-10.2-4.6-20.1-4.3-28.7.4-10.7 4.7-18.9 12.8-24.4 3.5-2.4 7.4-3.5 11.4-3.5 9.3 0 18.9 6.2 28.7 18.6 7.1 8.9 13.1 20 15.4 28.1 6.4 21.8 4.9 34.9.1 50.2z"/>
            <path fill="#FFFAF3" fill-opacity="1" d="M477 670.8c2 2.1 5.2 3.1 9.6 3.1 22.6 0 27-23.7 27.2-24.7 0-.2.1-.4.1-.6 4.4-13.9 5.7-25.2 0-44.8-3.7-13.2-21.1-39.4-34.4-39.4-2 0-4 .6-5.8 1.9-11.7 7.8-9.3 21.8-4.4 42.4 1.2 5.1 2.5 10.4 3.2 15.3 1 6.4.8 13.5.5 20.4-.2 10.6-.6 21.6 4 26.4z"/>
        </g>
        <g id="LeftArm--group">
            <g id="BeforeLeftArm--part"/>
            <path d="M478 413.3c-6.4 2.9-12.4 6.6-17.6 11.1-12.1 10.6-12.6 19.4-10.8 24.8 2.5 7.7 11.1 13.4 21.9 14.6 7.1.7 16.2-1.3 26.7-3.6 13.9-3.1 29.7-6.6 42.9-3.9 19.6 4.1 33.3 15 53.1 32.7l10.3 9.2c1.5 1.3 3.9 1.2 5.2-.4 1.3-1.5 1.2-3.9-.4-5.2l-2.9-2.6c-24-21.7-39.9-36-63.8-41-14.8-3.1-31.3.6-46 3.9-9.5 2.1-18.5 4.1-24.3 3.5-7.8-.8-14.1-4.6-15.7-9.5-1.5-4.7 1.6-10.7 8.7-17 20.7-18.2 59.1-23.7 87.5-12.5 4.7 1.9 7.4-5.1 2.7-6.9-11.4-4.4-24.6-6.6-37.7-6.2-10.1.4-30.5 4.8-39.8 9z"/>
            <path fill="#FFFAF3" fill-opacity="1" d="M615.4 451c11.7 12.2 17 60.3-6 41.6l-2.9-2.6c-24-21.7-39.9-36-63.8-41-14.8-3.1-31.3.6-46 3.9-9.5 2.1-18.5 4.1-24.3 3.5-7.8-.8-14.1-4.6-15.7-9.5-1.5-4.7 1.6-10.7 8.7-17 20.7-18.2 59.3-24 87.5-12.5 4.6 2 46.1 16.5 62.5 33.6z"/>
        </g>
        <g id="RightHand--group">
            <g id="BeforeRightHand--part"/>
            <path d="M390.6 457c-5.2 5.1-11.7 8.1-17.8 8.1-8.1 0-14-5.1-15.6-13.3-1-5.4.9-11.3 5.4-16.7 5.8-6.9 14.9-12 21.7-12.1h.2c1.3 0 2.6.2 3.8.6h.2l.1.1c4.5 1.8 7.9 6.2 9.1 11.8 1.4 7.5-1.2 15.5-7.1 21.5z"/>
            <path fill="#FFFAF3" fill-opacity="1" d="M385.4 451.7c4.2-4.2 6-9.6 5-14.7-.6-3.1-2.3-5.5-4.6-6.4-.4-.1-.9-.2-1.3-.2h-.1c-4 0-11.3 3.6-16.1 9.4-1.8 2.1-4.6 6.3-3.8 10.6 1.1 6 5.1 7.3 8.3 7.3 4.1 0 8.8-2.2 12.6-6z"/>
        </g>
        <g id="Front--group" />
    </g>
</svg>