<svg version="1.1" id="wapuugotchi_svg__item" viewBox="0 0 1e3 1e3" xmlns="http://www.w3.org/2000/svg">
    <g class="RightHand--group">
        <path d="M526.99 341.955a15.267 15.267 0 0 0 6.206 14.359 15.252 15.252 0 0 0 9.984-12.038c1.34-9.345-5.119-21.829-5.119-21.829s-9.716 10.163-11.07 19.508z"
              style="fill:#727171;stroke:#000;stroke-width:2.97599px;stroke-linecap:round;stroke-linejoin:round"/>
        <path d="M522.765 409.658 497.588 555.81a3.527 3.527 0 0 0 4.196.833l26.784-148.233 1.488-9.047 4.464-28.272-6.354-.908-3.72 26.65z"
              style="fill:#a48b78;stroke:#000;stroke-width:2.97599px;stroke-linecap:round;stroke-linejoin:round"/>
        <path d="M-291.327 575.203h16.68v6.428h-16.68z"
              style="fill:#b5b5b6;stroke:#000;stroke-width:2.97599px;stroke-linecap:round;stroke-linejoin:round"
              transform="rotate(-81.83)"/>
        <path d="m536.425 385.553-51.098 164.661c1.012 2.039 2.158 2.634 4.88 2.485l59.52-160.703 3.08-8.511 7.44-20.728-15.817-5.208-5.67 19.88z"
              style="fill:#a48b78;stroke:#000;stroke-width:2.97599px;stroke-linecap:round;stroke-linejoin:round"/>
        <path d="M550.56 327.164c-4.24 13.094 5.342 22.156 5.342 22.156s13.08-1.71 17.336-14.88c4.255-13.168-1.95-32.572-1.95-32.572s-16.442 12.187-20.727 25.296z"
              style="fill:#727171;stroke:#000;stroke-width:2.97599px;stroke-linecap:round;stroke-linejoin:round"/>
        <path d="m97.56 28.11 8.5 2.75-2.37 11.02-10.66-3.46z"
              style="fill:#b5b5b6;stroke:#000;stroke-width:2px;stroke-linecap:round;stroke-linejoin:round"
              transform="matrix(1.488 0 0 1.488 406.047 300.38)"/>
    </g>
</svg>