<?xml version="1.0" encoding="utf-8"?>
<!-- Generator: Adobe Illustrator 25.2.0, SVG Export Plug-In . SVG Version: 6.00 Build 0)  -->
<svg version="1.1" id="Layer_1" xmlns="http://www.w3.org/2000/svg" xmlns:xlink="http://www.w3.org/1999/xlink" x="0px" y="0px"
	 viewBox="0 0 1000 1000" style="enable-background:new 0 0 1000 1000;" xml:space="preserve">
<style type="text/css">
	.st0{fill:#FFFFFF;}
	.st1{fill-rule:evenodd;clip-rule:evenodd;fill:#151D23;}
	.st2{filter:url(#Adobe_OpacityMaskFilter);}
	.st3{fill-rule:evenodd;clip-rule:evenodd;fill:#FFFFFF;}
	.st4{mask:url(#b_3_);fill-rule:evenodd;clip-rule:evenodd;fill:#151D23;}
	.st5{filter:url(#Adobe_OpacityMaskFilter_1_);}
	.st6{mask:url(#b_2_);fill-rule:evenodd;clip-rule:evenodd;fill:#FFB199;}
	.st7{filter:url(#Adobe_OpacityMaskFilter_2_);}
	.st8{mask:url(#b_1_);fill-rule:evenodd;clip-rule:evenodd;fill:#165260;}
</style>
<g id="Ball--group">
	
		<ellipse id="Ball--bg" transform="matrix(0.7071 -0.7071 0.7071 0.7071 -236.4377 487.8127)" cx="470.6" cy="529.3" rx="133.5" ry="133.5"/>
	<circle id="Ball" class="st0" cx="470.6" cy="529.3" r="126.1"/>
	<g>
		<g>
			<path class="st1" d="M367.8,513.7c-1.6,0.1-2.3,0.1-3.9,0.1c-0.5-1.2-1.1-2.1-2.8-2.8c-1.9-0.8-4.6-0.3-5.7,2.4
				c-1.1,2.7,0.4,4.9,2.4,5.7c1.7,0.7,2.8,0.5,4,0c1.1,1.1,1.7,1.7,2.8,2.8c-2.5,1.8-5.3,2-8.3,0.8c-3.5-1.5-7.2-5.9-5-11.1
				c2.2-5.2,7.9-5.8,11.3-4.4C365.3,508.5,367.3,510.6,367.8,513.7 M370.5,519.6c-1,2.7,0.5,4.9,2.5,5.7c2,0.8,4.6,0.1,5.7-2.6
				c1-2.8-0.5-5-2.5-5.8C374.2,516.3,371.5,516.9,370.5,519.6 M382.8,524.3c-2,5.4-7.7,6.1-11.3,4.7c-3.6-1.4-7.4-5.8-5.3-11.1
				c2.1-5.3,7.8-6,11.3-4.7C381.1,514.7,384.8,519,382.8,524.3 M396.1,529c1-2.8-0.6-4.9-2.7-5.7c-2.2-0.8-4.5,0-5.5,2.7
				c-1,2.8,0.4,4.9,2.5,5.7C392.5,532.6,395.1,531.8,396.1,529C396.1,529,396.1,529,396.1,529z M404.7,517.1
				c-2.9,8.4-4.3,12.6-7.1,21.1c-1.8-0.6-2.7-0.9-4.5-1.5c0.3-1,0.5-1.5,0.8-2.4c-0.4,1.1-3,2-5.8,1c-3.4-1.2-6.7-5.3-4.7-10.8
				c1.9-5.3,7-6.4,10.4-5.2c2.7,0.9,4.1,3.4,3.9,4.1c1.1-3.1,1.6-4.6,2.7-7.7C402.2,516.3,403,516.5,404.7,517.1
				C404.8,517.1,404.8,517.1,404.7,517.1z M406.7,530.9c3.1,1,4.6,1.5,7.7,2.5c0.1-2.1-1.3-3.6-2.9-4.1
				C409.8,528.8,407.9,529.2,406.7,530.9 M417.3,537.7c-4.7-1.5-7-2.2-11.7-3.7c-0.1,2.1,1.2,3.7,3.4,4.4c2,0.7,3,0.5,4.3,0.2
				c0.7,1.2,1,1.9,1.7,3.1c-1.9,1-4.2,1.3-7.4,0.3c-4-1.3-7.8-5.5-6-10.9c1.8-5.4,7.3-6.6,10.9-5.4
				C416.2,526.8,420.4,531,417.3,537.7 M422.8,537.7c-0.9,2.9,0.6,4.9,2.8,5.6c2.2,0.7,4.7-0.2,5.6-3.1c0.8-2.8-0.8-4.9-3-5.5
				C426,534,423.7,534.8,422.8,537.7 M432.6,534.4c0.3-0.9,0.4-1.3,0.6-2.2c1.8,0.5,2.7,0.8,4.4,1.3c-1.8,6.3-2.7,9.5-4.5,15.9
				c-1.8-0.5-2.7-0.8-4.5-1.3c0.3-1,0.4-1.5,0.7-2.5c-0.3,1.1-2.9,2.2-5.7,1.4c-3.4-1-7-5-5.2-10.5c1.7-5.4,6.7-6.8,10.1-5.8
				C431.3,531.3,432.9,533.7,432.6,534.4 M450.7,545.4c0.7-2.9-0.8-4.8-3-5.4s-4.7,0.3-5.5,3.2c-0.8,2.9,0.9,5,3.2,5.6
				C447.6,549.4,449.9,548.4,450.7,545.4 M455.1,546.6c-1.4,5.7-6.5,7.3-10,6.3c-2.8-0.7-4.5-3-4.2-4.1c-0.3,1-0.4,1.5-0.7,2.5
				c-1.8-0.5-2.7-0.7-4.6-1.3c2.4-8.6,3.6-13,6-21.6c1.8,0.5,2.6,0.7,4.4,1.2c-0.9,3.2-1.3,4.8-2.1,8c0.2-0.7,2.8-2,5.5-1.2
				C452.8,537.2,456.4,541,455.1,546.6"/>
			<defs>
				<filter id="Adobe_OpacityMaskFilter" filterUnits="userSpaceOnUse" x="454.6" y="533.2" width="24.9" height="26.1">
					<feColorMatrix  type="matrix" values="1 0 0 0 0  0 1 0 0 0  0 0 1 0 0  0 0 0 1 0"/>
				</filter>
			</defs>
			<mask maskUnits="userSpaceOnUse" x="454.6" y="533.2" width="24.9" height="26.1" id="b_3_">
				<g class="st2">
					<path id="a_3_" class="st3" d="M284.5,506.2c60.6,32.1,124.7,56.7,191.9,70.8c3.4-16.3,6.8-32.6,10.2-48.9
						c-62.8-12.8-122.5-34.9-179.4-64.2C299.6,478,292.1,492.1,284.5,506.2z"/>
				</g>
			</mask>
			<path class="st4" d="M454.6,555c1.8,0.5,2.8,0.7,4.6,1.1c2.1-8.8,3.2-13.1,5.3-21.9c-1.8-0.4-2.7-0.6-4.4-1.1
				C457.9,541.9,456.8,546.3,454.6,555z M467.6,547.9c3.1,0.7,4.7,1.1,7.9,1.8c-0.1-2.1-1.7-3.5-3.3-3.9
				C470.6,545.5,468.7,546.1,467.6,547.9 M478.8,553.7c-4.8-1-7.2-1.6-12-2.7c0.1,2.1,1.5,3.6,3.7,4.1c2.1,0.5,3,0.2,4.3-0.2
				c0.8,1.2,1.2,1.8,2,3c-1.8,1.2-4.1,1.7-7.3,1c-4.2-0.9-8.2-4.8-6.9-10.4c1.3-5.6,6.7-7.3,10.4-6.5
				C476.8,542.9,481.4,546.7,478.8,553.7"/>
			<defs>
				<filter id="Adobe_OpacityMaskFilter_1_" filterUnits="userSpaceOnUse" x="418.4" y="486" width="31.4" height="29">
					<feColorMatrix  type="matrix" values="1 0 0 0 0  0 1 0 0 0  0 0 1 0 0  0 0 0 1 0"/>
				</filter>
			</defs>
			<mask maskUnits="userSpaceOnUse" x="418.4" y="486" width="31.4" height="29" id="b_2_">
				<g class="st5">
					<path id="a_2_" class="st3" d="M399.2,503.6c59.1,21.6,120.5,36,183.4,40.5c1.1-15.3,2.1-30.5,3.2-45.8
						c-58.7-3.8-115.9-16.4-171.3-36C409.4,476,404.3,489.8,399.2,503.6z"/>
				</g>
			</mask>
			<path class="st6" d="M419.2,495.2c-2.6,7.7,2,16.4,10.5,19.1c8.5,2.7,17.3-1.6,19.6-9.5c2.3-7.9-2.5-16.2-10.6-18.7
				c-1.8,5.6-2.7,8.5-4.5,14.1C428.1,498.2,425.1,497.2,419.2,495.2z"/>
			<defs>
				<filter id="Adobe_OpacityMaskFilter_2_" filterUnits="userSpaceOnUse" x="404.3" y="462.3" width="38.8" height="32.9">
					<feColorMatrix  type="matrix" values="1 0 0 0 0  0 1 0 0 0  0 0 1 0 0  0 0 0 1 0"/>
				</filter>
			</defs>
			<mask maskUnits="userSpaceOnUse" x="404.3" y="462.3" width="38.8" height="32.9" id="b_1_">
				<g class="st7">
					<path id="a_1_" class="st3" d="M399.2,503.6c59.1,21.6,120.5,36,183.4,40.5c1.1-15.3,2.1-30.5,3.2-45.8
						c-58.7-3.8-115.9-16.4-171.3-36C409.4,476,404.3,489.8,399.2,503.6z"/>
				</g>
			</mask>
			<path class="st8" d="M438.6,486c1.8-5.6,2.7-8.5,4.5-14.1c-9.6-3-19.1-6.2-28.5-9.6c-3.4,9.2-6.8,18.4-10.2,27.6
				c5.9,2.2,8.9,3.3,14.9,5.3c1.9-5.6,2.9-8.4,4.8-13.9C429.8,483.2,432.7,484.2,438.6,486z"/>
		</g>
	</g>
</g>
</svg>
