<svg version="1.1" id="wapuugotchi_svg__item" viewBox="0 0 1e3 1e3" xmlns="http://www.w3.org/2000/svg">
	<g class="Ball--group">
		<ellipse transform="matrix(.7071 -.7071 .7071 .7071 -236.44 487.81)" cx="470.6" cy="529.3" rx="133.5" ry="133.5"/>
		<circle cx="470.6" cy="529.3" r="126.1" fill="#fff"/>
		<path d="m367.8 513.7c-1.6 0.1-2.3 0.1-3.9 0.1-0.5-1.2-1.1-2.1-2.8-2.8-1.9-0.8-4.6-0.3-5.7 2.4s0.4 4.9 2.4 5.7c1.7 0.7 2.8 0.5 4 0l2.8 2.8c-2.5 1.8-5.3 2-8.3 0.8-3.5-1.5-7.2-5.9-5-11.1s7.9-5.8 11.3-4.4c2.7 1.3 4.7 3.4 5.2 6.5m2.7 5.9c-1 2.7 0.5 4.9 2.5 5.7s4.6 0.1 5.7-2.6c1-2.8-0.5-5-2.5-5.8-2-0.6-4.7 0-5.7 2.7m12.3 4.7c-2 5.4-7.7 6.1-11.3 4.7s-7.4-5.8-5.3-11.1 7.8-6 11.3-4.7c3.6 1.5 7.3 5.8 5.3 11.1m13.3 4.7c1-2.8-0.6-4.9-2.7-5.7-2.2-0.8-4.5 0-5.5 2.7-1 2.8 0.4 4.9 2.5 5.7 2.1 0.9 4.7 0.1 5.7-2.7zm8.6-11.9c-2.9 8.4-4.3 12.6-7.1 21.1-1.8-0.6-2.7-0.9-4.5-1.5 0.3-1 0.5-1.5 0.8-2.4-0.4 1.1-3 2-5.8 1-3.4-1.2-6.7-5.3-4.7-10.8 1.9-5.3 7-6.4 10.4-5.2 2.7 0.9 4.1 3.4 3.9 4.1 1.1-3.1 1.6-4.6 2.7-7.7 1.8 0.6 2.6 0.8 4.3 1.4 0.1 0 0.1 0 0 0zm2 13.8c3.1 1 4.6 1.5 7.7 2.5 0.1-2.1-1.3-3.6-2.9-4.1-1.7-0.5-3.6-0.1-4.8 1.6m10.6 6.8c-4.7-1.5-7-2.2-11.7-3.7-0.1 2.1 1.2 3.7 3.4 4.4 2 0.7 3 0.5 4.3 0.2 0.7 1.2 1 1.9 1.7 3.1-1.9 1-4.2 1.3-7.4 0.3-4-1.3-7.8-5.5-6-10.9s7.3-6.6 10.9-5.4c3.7 1.1 7.9 5.3 4.8 12m5.5 0c-0.9 2.9 0.6 4.9 2.8 5.6s4.7-0.2 5.6-3.1c0.8-2.8-0.8-4.9-3-5.5-2.2-0.7-4.5 0.1-5.4 3m9.8-3.3c0.3-0.9 0.4-1.3 0.6-2.2 1.8 0.5 2.7 0.8 4.4 1.3-1.8 6.3-2.7 9.5-4.5 15.9-1.8-0.5-2.7-0.8-4.5-1.3 0.3-1 0.4-1.5 0.7-2.5-0.3 1.1-2.9 2.2-5.7 1.4-3.4-1-7-5-5.2-10.5 1.7-5.4 6.7-6.8 10.1-5.8 2.8 0.6 4.4 3 4.1 3.7m18.1 11c0.7-2.9-0.8-4.8-3-5.4s-4.7 0.3-5.5 3.2 0.9 5 3.2 5.6c2.2 0.6 4.5-0.4 5.3-3.4m4.4 1.2c-1.4 5.7-6.5 7.3-10 6.3-2.8-0.7-4.5-3-4.2-4.1-0.3 1-0.4 1.5-0.7 2.5-1.8-0.5-2.7-0.7-4.6-1.3 2.4-8.6 3.6-13 6-21.6 1.8 0.5 2.6 0.7 4.4 1.2-0.9 3.2-1.3 4.8-2.1 8 0.2-0.7 2.8-2 5.5-1.2 3.4 0.8 7 4.6 5.7 10.2" fill="#151D23"/>
		<mask x="454.6" y="533.2" width="24.9" height="26.1" maskUnits="userSpaceOnUse">
			<path d="m284.5 506.2c60.6 32.1 124.7 56.7 191.9 70.8l10.2-48.9c-62.8-12.8-122.5-34.9-179.4-64.2-7.6 14.1-15.1 28.2-22.7 42.3z" fill="#fff"/>
		</mask>
		<path class="st4" d="m454.6 555c1.8 0.5 2.8 0.7 4.6 1.1 2.1-8.8 3.2-13.1 5.3-21.9-1.8-0.4-2.7-0.6-4.4-1.1-2.2 8.8-3.3 13.2-5.5 21.9zm13-7.1c3.1 0.7 4.7 1.1 7.9 1.8-0.1-2.1-1.7-3.5-3.3-3.9-1.6-0.3-3.5 0.3-4.6 2.1m11.2 5.8c-4.8-1-7.2-1.6-12-2.7 0.1 2.1 1.5 3.6 3.7 4.1 2.1 0.5 3 0.2 4.3-0.2l2 3c-1.8 1.2-4.1 1.7-7.3 1-4.2-0.9-8.2-4.8-6.9-10.4s6.7-7.3 10.4-6.5c3.8 0.9 8.4 4.7 5.8 11.7"/>
		<mask x="418.4" y="486" width="31.4" height="29" maskUnits="userSpaceOnUse">
			<path d="m399.2 503.6c59.1 21.6 120.5 36 183.4 40.5 1.1-15.3 2.1-30.5 3.2-45.8-58.7-3.8-115.9-16.4-171.3-36-5.1 13.7-10.2 27.5-15.3 41.3z" fill="#fff"/>
		</mask>
		<path d="m419.2 495.2c-2.6 7.7 2 16.4 10.5 19.1s17.3-1.6 19.6-9.5-2.5-16.2-10.6-18.7c-1.8 5.6-2.7 8.5-4.5 14.1-6.1-2-9.1-3-15-5z" fill="#FFB199"/>
		<mask x="404.3" y="462.3" width="38.8" height="32.9" maskUnits="userSpaceOnUse">
			<path d="m399.2 503.6c59.1 21.6 120.5 36 183.4 40.5 1.1-15.3 2.1-30.5 3.2-45.8-58.7-3.8-115.9-16.4-171.3-36-5.1 13.7-10.2 27.5-15.3 41.3z" fill="#fff"/>
		</mask>
		<path d="m438.6 486c1.8-5.6 2.7-8.5 4.5-14.1-9.6-3-19.1-6.2-28.5-9.6l-10.2 27.6c5.9 2.2 8.9 3.3 14.9 5.3 1.9-5.6 2.9-8.4 4.8-13.9 5.7 1.9 8.6 2.9 14.5 4.7z" fill="#165260"/>
	</g>
</svg>
