<?xml version="1.0" encoding="UTF-8" standalone="no"?>
<!DOCTYPE svg PUBLIC "-//W3C//DTD SVG 1.1//EN" "http://www.w3.org/Graphics/SVG/1.1/DTD/svg11.dtd">
<svg xmlns="http://www.w3.org/2000/svg" xmlns:xlink="http://www.w3.org/1999/xlink" version="1.1" width="572.2222pt" height="615.2778pt" viewBox="0 0 572.2222 615.2778">
<g enable-background="new">
<g id="Layer-1" data-name="レイヤー 1">
<clipPath id="cp0">
<path transform="matrix(2.7777777,0,0,-2.7777777,0,615.2778)" d="M 0 221.5 L 206 221.5 L 206 0 L 0 0 Z "/>
</clipPath>
<g clip-path="url(#cp0)">
<path transform="matrix(2.7777777,0,0,-2.7777777,514.14669,78.614719)" d="M 0 0 C -1.04 .26 -2.735 .384 -9.555 .384 C -11.757 .384 -14.26 .371 -16.921 .358 C -19.925 .343 -23.132 .327 -26.333 .327 C -31.478 .327 -38.685 .364 -43.813 .658 C -52.025 6.629 -61.486 9.816 -71.956 10.132 C -94.643 10.828 -114.729 1.019 -125.607 -15.841 C -129.283 -19.337 -136.199 -23.224 -138.068 -23.639 C -141.204 -24.336 -143.234 -27.082 -142.896 -30.167 C -142.651 -32.391 -141.07 -34.89 -137.543 -36.051 C -137.95 -36.452 -138.338 -36.872 -138.699 -37.307 C -141.09 -40.188 -142.09 -43.462 -141.515 -46.529 C -141.398 -47.145 -141.238 -47.733 -141.032 -48.292 C -146.205 -57.096 -148.926 -67.089 -148.926 -77.365 C -148.926 -79.959 -148.751 -82.542 -148.404 -85.099 C -149.218 -84.958 -150.036 -84.885 -150.853 -84.885 C -154.788 -84.885 -158.435 -86.591 -160.857 -89.566 C -163.531 -92.852 -164.47 -97.247 -163.498 -101.944 C -161.519 -111.509 -147.028 -127.634 -135.475 -130.408 C -134.337 -130.68 -133.25 -130.819 -132.245 -130.819 C -129.154 -130.819 -126.601 -129.516 -125.054 -127.15 C -124.563 -126.398 -124.208 -125.6 -123.962 -124.784 C -116.077 -130.222 -106.962 -133.589 -97.306 -134.568 C -95.214 -141.394 -89.597 -142.532 -86.092 -142.532 C -80.808 -142.532 -76.243 -140.383 -72.987 -136.423 C -72.693 -136.428 -72.398 -136.431 -72.103 -136.431 C -69.869 -136.431 -67.093 -136.278 -63.917 -135.788 C -74.083 -147.196 -88.769 -153.76 -99.583 -153.762 L -99.586 -153.762 C -104.144 -153.762 -110.267 -152.6 -113.557 -147.066 C -117.91 -139.744 -124.888 -135.195 -131.766 -135.195 C -138.991 -135.195 -144.011 -140.295 -144.256 -147.886 C -144.389 -151.996 -142.235 -156.464 -138.028 -160.809 C -130.952 -168.118 -117.228 -175.493 -102.521 -175.493 C -99.271 -175.493 -96.086 -175.128 -93.055 -174.411 C -66.991 -168.238 -43.638 -147.37 -36.845 -124.418 C -11.967 -105.412 -13.938 -53.162 -22.183 -29.865 C -22.755 -28.247 -23.373 -26.664 -24.036 -25.118 C -23.032 -25.233 -22.041 -25.292 -21.064 -25.292 C -18.786 -25.292 -16.565 -24.972 -14.465 -24.342 C -1.534 -20.463 4.309 -10.863 4.187 -5.597 C 4.122 -2.817 2.479 -.62 0 0 "/>
<path transform="matrix(2.7777777,0,0,-2.7777777,214.81472,167.3611)" d="M 0 0 C -.072 .001 -.152 -.007 -.225 -.007 C -4.522 -2.814 -9.682 -4.489 -11.758 -4.385 C -13.124 -4.316 -14.172 -3.652 -14.967 -2.809 C -15.683 -3.183 -16.351 -3.615 -16.93 -4.121 C -20.903 -7.59 -24.534 -11.273 -27.514 -15.651 C -30.495 -20.03 -32.815 -24.855 -34.363 -29.922 C -35.895 -34.936 -36.666 -40.174 -36.666 -45.416 C -36.666 -54.815 -34.207 -63.635 -29.916 -71.288 C -22.545 -78.381 -12.535 -82.75 -1.498 -82.75 C 21.145 -82.75 39.502 -64.394 39.502 -41.75 C 39.502 -19.331 22.333 -.359 0 0 " fill="#00709c"/>
<path transform="matrix(2.7777777,0,0,-2.7777777,399.89414,246.95362)" d="M 0 0 C -12.13 21.906 -28.407 28.985 -42.818 32.327 C -53.262 31.292 -57.544 33.264 -59.26 35.333 C -59.712 35.415 -60.153 35.499 -60.591 35.583 C -62.901 28.857 -74.928 24.096 -78.386 24.268 C -79.876 24.343 -80.991 25.122 -81.808 26.072 C -94.649 16.398 -103.295 .552 -103.295 -16.763 C -103.295 -45.248 -80.822 -68.483 -52.641 -69.711 C -52.641 -69.711 -41.225 -60.338 -32.535 -44.847 C -28 -33.134 -12.509 -27.088 .511 -31.905 C 1.939 -27.107 2.705 -22.024 2.705 -16.763 C 2.705 -10.904 2.689 -4.858 0 0 " fill="#005683"/>
<path transform="matrix(2.7777777,0,0,-2.7777777,204.25081,185.16722)" d="M 0 0 C -26.362 -2.176 -43.481 -41.9 -20.165 -62.689 C 3.465 -83.758 32.659 -56.536 31.65 -31.277 C 30.868 -11.695 14.653 .704 0 0 M -24.212 -18.249 C -16.191 -5.902 -.85 4.141 15.989 -8.191 C 15.876 -8.186 5.194 -8.677 12.958 -20.161 C 17.153 -26.367 17.421 -31.346 14.102 -41.471 C 12.903 -46.463 12.542 -47.97 11.472 -53.109 C 6.349 -40.866 2.168 -30.441 -1.134 -17.111 C 1.768 -16.686 5.058 -16.203 3.368 -14.335 C 3.155 -14.1 -12.138 -15.617 -12.283 -15.642 C -13.457 -15.842 -13.663 -17.224 -13.665 -17.237 C -13.787 -18.328 -13.589 -18.316 -10.276 -18.117 C -9.403 -22.823 -9.005 -24.972 -6.845 -31.841 C -8.404 -38.324 -10.019 -45.027 -10.239 -55.409 C -17.207 -41.54 -19.996 -31.907 -20.528 -19.865 C -19.539 -19.264 -18.218 -19.5 -17.344 -18.604 C -16.748 -17.994 -16.458 -16.616 -17.201 -16.456 C -19.836 -15.888 -21.848 -17.755 -24.212 -18.249 M 12.413 -61.495 C 15.231 -49.346 19.918 -37.731 22.675 -25.564 C 23.207 -23.213 23.668 -19.553 22.839 -15.472 C 31.052 -28.302 30.108 -48.229 12.413 -61.495 M -11.642 -65.095 C -29.412 -57.018 -32.674 -37.875 -26.711 -23.138 C -26.484 -37.722 -22.4 -49.093 -11.642 -65.095 M -1.226 -66.809 C -3.496 -66.956 -5.344 -66.825 -7.602 -66.356 C -8.282 -59.57 -8.722 -51.092 -5.302 -36.313 C .909 -52.4 7.75 -64.195 7.799 -64.261 C 6.636 -64.815 3.098 -66.504 -1.226 -66.809 " fill="#ffffff"/>
<path transform="matrix(2.7777777,0,0,-2.7777777,365.74443,436.11109)" d="M 0 0 C -14.333 -26.333 -52.766 -39.561 -64 -20.667 C -71.333 -8.333 -85.958 -7.696 -86.333 -19.333 C -86.667 -29.667 -62.46 -46.494 -40.667 -41.333 C -15.333 -35.333 7 -14.667 12.667 7 Z M 7.333 125 C 1.344 125.485 6 120.999 8 119.333 C 10 117.667 24.333 104.667 37.667 108.667 C 51 112.667 55.001 123.666 52.333 124.333 C 49.667 125 19.667 124 7.333 125 M -72.333 97.667 C -85.333 94.001 -86.667 100 -83.667 100.667 C -80.667 101.334 -72.667 106 -68.667 110 Z " fill="#ff8800"/>
<path transform="matrix(2.7777777,0,0,-2.7777777,440.74443,165.74169)" d="M 0 0 C -1.737 4.908 -3.905 9.452 -6.47 13.56 C -12.938 16.624 -17.885 21.072 -19 22 C -21 23.666 -25.656 28.152 -19.667 27.667 C -19.458 27.65 -19.231 27.635 -19.012 27.619 C -26.43 33.323 -35.394 36.689 -45.667 37 C -67.667 37.666 -86 28 -95.667 12.667 C -102.187 2.326 -97.333 -3.332 -94.333 -4.666 C -91.333 -6 -78.667 -1 -75 5.667 C -66.333 .334 -58.49 2.094 -50.156 4.76 L -38.307 2.409 L -38.307 2.41 L -38.051 2.335 C -38.576 2.442 -39.105 2.532 -39.636 2.614 C -39.989 2.67 -40.344 2.718 -40.699 2.764 C -40.754 2.771 -40.809 2.781 -40.863 2.788 C -40.854 2.785 -40.844 2.783 -40.834 2.781 C -42.575 3 -44.33 3.113 -46.079 3.108 C -34.35 .587 -5.251 -8.75 -14.684 -29.224 C -14.751 -29.32 -14.387 -29.755 -14.328 -30.04 C -14.112 -31.093 -12.575 -37.506 -12.04 -44.547 C -11.994 -45.163 -12.001 -45.953 -12.001 -46.576 C -12.001 -48.374 -12.105 -49.441 -12.229 -50.95 C -12.481 -53.988 -12.945 -57.119 -14.3 -61.119 C -9.399 -65.04 -5.123 -70.893 -4.415 -79.517 C 9.114 -57.328 6.41 -18.113 0 0 " fill="#ffd200"/>
<path transform="matrix(2.7777777,0,0,-2.7777777,114.819438,334.25834)" d="M 0 0 C -8.139 6.262 -17.334 .666 -15.334 -9 C -13.691 -16.942 -.266 -31.696 9.333 -34 C 17.666 -36 15.982 -27.008 14.666 -24 C 12.333 -18.667 4.333 -3.334 0 0 " fill="#ffd200"/>
<path transform="matrix(2.7777777,0,0,-2.7777777,406.81416,317.85807)" d="M 0 0 C -.367 -2.512 -1.039 -4.765 -2.153 -6.474 C -11.967 -.813 -29.697 -7.217 -35.008 -19.283 C -37.664 -12.519 -46.427 .334 -53.785 -4.571 C -61.785 -9.904 -56.452 -21.237 -55.118 -29.904 C -53.785 -38.571 -58.452 -51.904 -47.452 -51.904 C -41.712 -51.904 -38.425 -48.727 -36.592 -45.689 C -28.419 -46.304 -15.346 -44.678 -2.118 -35.571 C 4.52 -31 9.162 -23.818 12.266 -15.363 C 10.104 -7.937 5.032 -3.098 0 0 " fill="#ffd200"/>
<path transform="matrix(2.7777777,0,0,-2.7777777,401.0225,335.5172)" d="M 0 0 C -.024 -.038 -.044 -.08 -.068 -.117 C -9.882 5.545 -27.612 -.86 -32.923 -12.926 C -35.579 -6.162 -44.342 6.691 -51.7 1.786 C -59.7 -3.547 -54.367 -14.88 -53.033 -23.547 C -51.7 -32.214 -56.367 -45.547 -45.367 -45.547 C -39.627 -45.547 -36.34 -42.37 -34.507 -39.332 C -26.334 -39.947 -13.261 -38.321 -.033 -29.214 C 3.965 -26.461 7.232 -22.751 9.885 -18.398 C 9.177 -9.774 4.901 -3.921 0 0 " fill="#ffd200"/>
<path transform="matrix(2.7777777,0,0,-2.7777777,162.96666,178.70275)" d="M 0 0 C -3.333 1.333 -11.667 -4.334 -10.667 -9.667 C -9.667 -15 -3.667 -15 .333 -11 C 4.333 -7 3.231 -1.292 0 0 " fill="#ffd200"/>
<path transform="matrix(2.7777777,0,0,-2.7777777,334.33583,159.04833)" d="M 0 0 L .256 -.075 C -11.196 2.273 -23.908 -.81 -31.026 -7.076 C -39.36 -14.41 -33.692 -19.744 -27.36 -20.41 C -21.026 -21.076 -8.694 -15.41 .974 -17.41 C 10.64 -19.41 13.605 -22.952 23.939 -32.285 C 23.939 -32.285 23.96 -32.369 23.996 -32.518 C 38.665 -12.871 14.397 -3.613 0 0 " fill="#ffd200"/>
<path transform="matrix(2.7777777,0,0,-2.7777777,429.41249,130.95584)" d="M 0 0 C -1.804 .706 -3.517 1.551 -5.102 2.443 C -2.003 -2.055 .614 -7.226 2.665 -13.023 C 10.306 -34.614 12.372 -85.456 -11.104 -101.62 C -26.02 -111.89 -39.862 -111.908 -45.121 -111.444 C -45.929 -111.375 -46.674 -111.979 -46.748 -112.805 C -46.821 -113.63 -46.211 -114.359 -45.386 -114.432 C -44.407 -114.519 -43.148 -114.59 -41.651 -114.59 C -34.62 -114.59 -22.364 -113.015 -9.403 -104.091 C 4.716 -94.37 9.173 -74.554 10.426 -59.644 C 12.006 -40.842 9.087 -22.178 5.493 -12.022 C 3.956 -7.677 2.114 -3.663 0 0 M -43.797 -8.618 C -52.618 -11.44 -61.92 -13.382 -70.424 -8.868 C -75.157 -15.439 -87.167 -20.201 -90.863 -18.56 C -92.638 -17.77 -94.88 -15.794 -95.845 -12.618 C -96.67 -9.902 -96.821 -5.345 -92.856 .944 C -82.557 17.28 -63.377 26.647 -41.543 25.977 C -30.43 25.64 -20.498 21.795 -12.338 14.944 C -13.514 15 -14.611 15.065 -15.588 15.144 C -16.407 15.211 -17.021 15.181 -17.476 15.081 C -24.479 19.973 -32.649 22.706 -41.632 22.978 C -62.395 23.606 -80.592 14.771 -90.319 -.656 C -92.978 -4.874 -93.897 -8.709 -92.974 -11.745 C -92.302 -13.957 -90.76 -15.322 -89.644 -15.818 C -87.755 -16.66 -75.729 -12.486 -72.235 -6.133 C -72.037 -5.773 -71.701 -5.51 -71.303 -5.406 C -70.905 -5.302 -70.483 -5.364 -70.134 -5.579 C -61.93 -10.627 -52.709 -8.319 -44.711 -5.76 C -43.919 -5.509 -43.078 -5.943 -42.825 -6.732 C -42.573 -7.521 -43.007 -8.365 -43.797 -8.618 "/>
<path transform="matrix(2.7777777,0,0,-2.7777777,229.65499,557.7203)" d="M 0 0 C -11.666 0 -23.107 4.995 -30.363 10.926 C -35.883 15.438 -38.973 20.384 -38.84 24.495 C -38.681 29.432 -36.195 32.881 -32.02 33.956 C -26.718 35.325 -18.726 32.3 -13.719 23.879 C -9.596 16.946 -2.104 15.602 3.422 15.722 C 19.892 16.034 38.916 28.405 47.675 44.496 C 48.07 45.224 48.982 45.493 49.709 45.097 C 50.436 44.701 50.706 43.79 50.31 43.063 C 41.076 26.098 20.943 13.054 3.48 12.723 C -5.527 12.574 -12.506 15.971 -16.297 22.346 C -20.55 29.498 -27.046 32.14 -31.271 31.051 C -34.104 30.321 -35.727 27.959 -35.842 24.398 C -35.942 21.274 -33.185 17.106 -28.465 13.248 C -19.979 6.311 -5.417 .732 7.98 3.906 C 32.607 9.738 54.572 29.611 60.208 51.159 C 60.418 51.961 61.232 52.44 62.039 52.23 C 62.84 52.021 63.32 51.201 63.11 50.399 C 57.21 27.842 34.315 7.061 8.671 .986 C 5.808 .309 2.896 0 0 0 "/>
<path transform="matrix(2.7777777,0,0,-2.7777777,410.18888,259.7222)" d="M 0 0 C -.359 0 -.719 .127 -1.006 .387 L -2.191 1.46 C -11.892 10.23 -17.746 15.524 -26.637 17.364 C -31.986 18.47 -38.37 17.054 -44.002 15.805 C -48.271 14.857 -51.956 14.037 -54.824 14.341 C -59.23 14.805 -62.721 17.124 -63.716 20.249 C -64.417 22.451 -64.225 25.98 -59.324 30.293 C -50.169 38.351 -33.239 40.812 -20.782 35.895 C -20.012 35.591 -19.634 34.72 -19.937 33.949 C -20.242 33.178 -21.114 32.799 -21.884 33.105 C -33.384 37.643 -48.958 35.42 -57.342 28.041 C -60.217 25.511 -61.466 23.067 -60.857 21.16 C -60.233 19.2 -57.683 17.658 -54.51 17.325 C -52.125 17.077 -48.496 17.88 -44.651 18.734 C -38.726 20.049 -32.008 21.54 -26.029 20.302 C -16.339 18.297 -9.91 12.484 -.18 3.685 L 1.006 2.613 C 1.62 2.058 1.668 1.109 1.113 .495 C .817 .167 .409 0 0 0 "/>
<path transform="matrix(2.7777777,0,0,-2.7777777,382.62803,92.999988)" d="M 0 0 C .391 -.639 1.35 -1.758 2.882 -3.035 L 3.268 -3.362 C 13.689 -12.247 21.533 -14.113 26.278 -14.114 L 26.28 -14.114 C 27.975 -14.114 29.615 -13.879 31.158 -13.417 C 38.479 -11.22 42.976 -6.683 44.742 -3.17 C 45.401 -1.857 45.535 -.995 45.535 -.59 C 44.539 -.489 41.949 -.438 37.815 -.438 C 35.615 -.438 33.113 -.45 30.452 -.464 C 27.425 -.479 24.191 -.495 20.964 -.495 C 14.992 -.495 6.438 -.445 1.134 -.015 C .672 .022 .264 .022 0 0 M 26.28 -17.114 L 26.278 -17.114 C 21.029 -17.113 12.438 -15.123 1.321 -5.645 L .962 -5.339 C -3.953 -1.245 -3.275 .626 -3.053 1.241 C -2.627 2.419 -1.457 3.017 .422 3.017 C .71 3.017 1.027 3.003 1.376 2.975 C 6.572 2.554 15.044 2.505 20.964 2.505 C 24.186 2.505 27.414 2.521 30.436 2.536 C 33.104 2.55 35.611 2.562 37.815 2.562 C 44.167 2.562 45.893 2.45 46.619 2.268 C 47.784 1.977 48.501 .946 48.534 -.488 C 48.618 -4.127 43.722 -12.779 32.02 -16.29 C 30.197 -16.836 28.267 -17.114 26.28 -17.114 "/>
<path transform="matrix(2.7777777,0,0,-2.7777777,267.05445,333.0839)" d="M 0 0 C -.829 0 -1.602 -.247 -2.362 -.754 C -7.086 -3.903 -6.133 -9.602 -4.138 -17.934 C -3.645 -19.996 -3.135 -22.128 -2.828 -24.118 C -2.43 -26.707 -2.526 -29.6 -2.619 -32.395 C -2.764 -36.738 -2.913 -41.229 -1.041 -43.164 C -.222 -44.011 1.055 -44.423 2.861 -44.423 C 12.006 -44.423 13.818 -34.821 13.892 -34.413 C 13.906 -34.327 13.928 -34.237 13.954 -34.154 C 15.737 -28.509 16.263 -23.941 13.941 -15.983 C 12.456 -10.636 5.395 0 0 0 M 2.861 -48.423 C -.046 -48.423 -2.325 -47.589 -3.916 -45.945 C -6.967 -42.79 -6.789 -37.438 -6.617 -32.263 C -6.53 -29.649 -6.44 -26.947 -6.781 -24.727 C -7.062 -22.899 -7.531 -20.939 -8.028 -18.865 C -9.88 -11.128 -11.979 -2.357 -4.581 2.574 C -3.162 3.521 -1.621 4 0 4 C 8.687 4 16.344 -9.686 17.788 -14.888 C 20.358 -23.696 19.75 -29.04 17.808 -35.233 C 16.959 -39.877 12.796 -48.423 2.861 -48.423 "/>
<path transform="matrix(2.7777777,0,0,-2.7777777,365.19639,327.63667)" d="M 0 0 C -9.199 -.932 -16.787 -6.176 -20.816 -14.39 C -21.182 -15.134 -20.874 -16.032 -20.131 -16.398 C -19.918 -16.502 -19.692 -16.551 -19.471 -16.551 C -18.917 -16.551 -18.384 -16.242 -18.123 -15.712 C -13.244 -5.768 -4.485 -3.47 .302 -2.984 C 6.82 -2.328 13.419 -4.282 16.011 -7.635 C 16.516 -8.291 17.46 -8.411 18.114 -7.904 C 18.769 -7.398 18.891 -6.456 18.384 -5.801 C 17.453 -4.596 16.156 -3.547 14.61 -2.673 C 15.99 2.168 16.696 7.195 16.696 12.283 C 16.696 18.179 15.761 23.978 13.914 29.52 C 13.652 30.306 12.803 30.73 12.018 30.469 C 11.231 30.207 10.807 29.358 11.068 28.572 C 12.813 23.336 13.696 17.856 13.696 12.283 C 13.696 7.632 13.07 3.036 11.852 -1.398 C 8.395 -.118 4.203 .427 0 0 "/>
<path transform="matrix(2.7777777,0,0,-2.7777777,95.10916,331.0736)" d="M 0 0 C -2.153 0 -4.054 -.877 -5.35 -2.469 C -6.864 -4.329 -7.368 -6.947 -6.77 -9.843 C -5.241 -17.229 7.887 -31.554 16.778 -33.688 C 17.458 -33.851 18.074 -33.934 18.608 -33.934 C 19.995 -33.934 20.511 -33.391 20.778 -32.982 C 21.862 -31.322 21.248 -27.715 20.388 -25.748 C 17.926 -20.121 10.124 -5.369 6.181 -2.335 C 4.195 -.808 2.059 0 0 0 M 18.608 -36.934 L 18.608 -36.934 C 17.839 -36.934 16.987 -36.823 16.079 -36.605 C 5.934 -34.17 -7.951 -18.937 -9.707 -10.45 C -10.492 -6.655 -9.771 -3.148 -7.677 -.575 C -5.826 1.696 -3.028 3 0 3 C 2.725 3 5.496 1.977 8.011 .042 C 12.949 -3.758 21.328 -20.412 23.136 -24.545 C 23.888 -26.264 25.381 -31.424 23.289 -34.623 C 22.6 -35.678 21.227 -36.934 18.608 -36.934 "/>
<path transform="matrix(2.7777777,0,0,-2.7777777,159.79555,182.32137)" d="M 0 0 C -1.615 0 -4.566 -1.455 -6.516 -3.804 C -7.228 -4.663 -8.375 -6.361 -8.051 -8.088 C -7.592 -10.535 -5.969 -11.048 -4.687 -11.048 C -3.003 -11.048 -1.097 -10.147 .414 -8.637 C 2.099 -6.952 2.854 -4.728 2.436 -2.688 C 2.176 -1.421 1.483 -.449 .585 -.09 C .437 -.031 .235 0 0 0 M -4.687 -14.048 L -4.687 -14.048 C -7.955 -14.048 -10.374 -11.977 -11 -8.641 C -11.407 -6.468 -10.635 -4.07 -8.824 -1.889 C -6.474 .944 -2.763 3 0 3 C .622 3 1.193 2.897 1.698 2.695 C 3.536 1.96 4.91 .174 5.374 -2.084 C 5.997 -5.115 4.936 -8.358 2.535 -10.758 C .444 -12.849 -2.189 -14.048 -4.687 -14.048 "/>
<path transform="matrix(2.7777777,0,0,-2.7777777,144.70749,172.27109)" d="M 0 0 C -3.393 0 -5.089 1.027 -5.903 1.85 C -6.793 2.751 -7.135 3.936 -6.816 5.019 C -6.501 6.089 -5.605 6.885 -4.419 7.149 C -1.835 7.724 5.902 12.135 9.846 16.078 C 10.432 16.664 11.381 16.664 11.967 16.078 C 12.553 15.493 12.553 14.542 11.967 13.957 C 7.835 9.825 -.4 4.969 -3.768 4.22 C -3.908 4.189 -3.952 4.141 -3.953 4.141 C -3.938 4.146 -3.85 3.979 -3.518 3.754 C -2.893 3.332 -.307 2.115 6.833 4.128 C 7.629 4.35 8.459 3.889 8.684 3.092 C 8.909 2.294 8.444 1.466 7.648 1.241 C 4.441 .336 1.942 0 0 0 "/>
<path transform="matrix(2.7777777,0,0,-2.7777777,293.52223,98.149997)" d="M 0 0 C -1.657 0 -3 -1.343 -3 -3 C -3 -4.657 -1.657 -6 0 -6 C 1.657 -6 3 -4.657 3 -3 C 3 -1.343 1.657 0 0 0 M -34.667 -8.333 C -36.323 -8.333 -37.667 -9.676 -37.667 -11.333 C -37.667 -12.99 -36.323 -14.333 -34.667 -14.333 C -33.01 -14.333 -31.667 -12.99 -31.667 -11.333 C -31.667 -9.676 -33.01 -8.333 -34.667 -8.333 M -18.333 -7.999 C -15.333 -7.665 -15.667 -10.999 -18.333 -12.999 C -20.792 -14.843 -21 -14.666 -23.667 -14.333 C -26.333 -14 -27.052 -11.788 -24.667 -9.999 C -23.333 -8.999 -21.333 -8.333 -18.333 -7.999 "/>
</g>
</g>
</g>
</svg>
