<svg xmlns="http://www.w3.org/2000/svg" xml:space="preserve" width="60" height="90">
    <path d="M96.299 123.12s.209-.101 2.845-2.613c3.075-4.27 6.587-14.732 10.38-15.142 5.922-1.37 11.278 2.344 11.188 4.128-.346.944-5.229-1.563-7.012-.744-1.152.513-1.117 1.726-1.2 2.652-.402 3.494 2.535 11.94 4.235 13.172-1.011.06-7.743.227-12.907.126-4.347-.981-7.53-1.578-7.53-1.578z"
        style="fill:#3e3a39;stroke:#000;" transform="matrix(.968 0 0 .968 -72.194 -97.625)"/>
    <path d="M114.453 115.438c.629.76.81 1.505.866 2.24-.273.676-.612.888-1.164 1.045-.493-.051-1.03-.04-1.852-.328.461-1.125 1.133-2.372 2.15-2.957z"
        style="fill:#0f9a49;stroke:#000;" transform="matrix(.968 0 0 .968 -72.194 -97.625)"/>
    <path d="M117.124 122.019a3.492 3.492 0 0 1-3.491 3.491 3.492 3.492 0 0 1-3.492-3.491 3.492 3.492 0 0 1 3.492-3.492 3.492 3.492 0 0 1 3.491 3.492z"
        style="fill:#f60;stroke:#060606" transform="matrix(.968 0 0 .968 -72.194 -97.625)"/>
    <path d="M119.668 118.558c-.233.626-1.515 1.746-2.447 1.923-.813.13-1.686-.023-1.686-.023s-1.677-.502-1.662-.926c.015-.188.6-1.005 1.567-1.33.68-.235 1.815.09 2.63.148 1.05-.035 1.672.014 1.598.208z"
        style="fill:#0f9a49;stroke:#000;" transform="matrix(.968 0 0 .968 -72.194 -97.625)"/>
    <path d="M94.336 122.963c-2.494-.006-5.129.206-7.482 1.655 0 0-1.48.59-1.555 1.997.646 1.392 4.668 1.926 8.497 1.937 3.53.012 6.07.633 11.278.32 1.966-.327 4.698-1.103 7.025-2.164 3.844-1.126 6.464-2.088 8.746-2.28-3.814.135-11.685.6-17.09.2-3.995-.577-6.03-1.616-9.42-1.665zm26.916 1.49c-1.938.018-4.027.901-5.946 1.355-2.38.729-.312-.286 2.13 2.31 7.7.095 1.114.015 7.2.072.103-2.33.027-2.591-1.02-3.21-.821-.585-4.056-.572-2.434-.535z"
        style="fill:#3e3a39;stroke:#000;" transform="matrix(.968 0 0 .968 -72.194 -97.625)"/>
</svg>