<svg version="1.1" viewBox="0 0 1e3 1e3" xmlns="http://www.w3.org/2000/svg">
	<g class="Head--group">
		<path d="m639.1 347.5c-1.1 2.8-3.8 4.7-6.9 4.7h-0.1l-49.2-0.5c-2.1 0-4.1-0.9-5.5-2.5-0.7-0.8-3.3-1.3-6-1.8-1.9-0.4-4.1-0.8-6.5-1.4-2.9-0.8-7.8-2.8-9.8-3.6-2.9-1.1-4.7-3.9-4.6-7s2-5.8 5-6.8c20.4-7.1 36.5-11 50.7-12.2h0.3 2.4c8.5 0 15.9 1.8 20.5 4.9 10.1 6.1 13.7 15.9 9.7 26.2z"/>
		<path d="m625.5 327.6c-2.8-2-8.7-3.8-16.5-3.8h-2.1c-13.3 1.1-28.7 4.7-48.9 11.8 3.1 1.2 7 2.7 9.1 3.3 6.7 1.9 12.5 1.5 16 5.5l49.2 0.5c2.6-7.2 0.3-13.2-6.8-17.3z"/>
		<path d="m613.2 224.8c-0.7 3.6-3.8 7.5-10.4 7.5-4.3 0-10-1.6-16.7-3.4-7.2-2-15.4-4.2-21.1-4.2-2.1 0-3 0.3-3.2 0.4-2.5 1.1-3 3.2-3.5 9.5-0.1 0.8-0.1 1.6-0.2 2.3-1 9.5 2.5 28 8.7 47 6.8 20.6 13.9 32.8 16.8 34.9 2.5 1.8 3.6 5.1 2.8 8.1s-3.5 5.1-6.7 5.3c-0.8 0-2.2 0.2-4.1 0.3-9.3 0.7-28.6 2.3-49.7 2.3-13 0-24.6-0.6-34.4-1.8-15.7-1.9-29-4.8-37.4-6.8-4.8-1.2-8.5-2.2-10.8-2.9-1.3-0.4-2.3-0.7-2.9-0.9-0.3-0.1-0.6-0.2-0.8-0.2-5.1-1.7-5.4-6.2-5.4-7.1 0-2.3 1.1-4.5 3-5.9 0.8-0.6 1.7-1 2.7-1.3 1.2-0.7 5.4-3.9 15.3-15.3 8.3-9.5 16.2-25.8 23.8-41.6 13.8-28.4 28-57.7 50-62.6 6.4-1.4 12.9-2.1 19.5-2.1 26.5 0 50.2 11.9 59.8 23.7 5.3 6.3 5.6 11.5 4.9 14.8z"/>
		<path d="m606 223.3c2-10-24.2-29.7-57.4-29.7-5.8 0-11.8 0.6-17.9 2-30 6.7-46.6 75.2-69.9 101.9-14.7 16.9-18.5 17.6-19.1 17.6h-0.1s20.9 7 50.7 10.6c10.6 1.3 22.2 1.7 33.5 1.7 25.4 0 48.7-2.3 53.4-2.6-11.4-8.3-30.9-65.1-28.5-88.6 0.6-6.2 0.3-14.4 8.1-17.8 1.7-0.8 3.8-1.1 6.3-1.1 11.8 0 30.4 7.6 37.8 7.6 1.7 0 2.8-0.5 3.1-1.6z" fill="#3E3A39"/>
		<path d="m577 279.6c-1.2 7.6-6.6 12.6-14.5 13.3-0.8 0.1-1.5 0.1-2.3 0.1-3.9 0-7.9-0.8-13.3-2.7l-7.4-2.6 3-7.2c4.8-11.8 10.6-19.5 17.6-23.5l5.4-3.1 4 4.8c6.1 7.3 8.5 14.1 7.5 20.9z"/>
		<path d="m549.4 283.2c4.6 1.6 7.9 2.3 10.8 2.3 0.6 0 1.1 0 1.6-0.1 3.8-0.3 7.1-2.2 7.8-7 0.8-4.9-1.6-10-5.8-15.1-6.8 4-11.3 12.4-14.4 19.9z" fill="#0F9A49"/>
		<path d="m589.2 307.6c0 17-13.9 30.9-30.9 30.9s-30.9-13.9-30.9-30.9 13.9-30.9 30.9-30.9c17.1 0 30.9 13.9 30.9 30.9z"/>
		<path d="m558.3 284.1c-13 0-23.5 10.5-23.5 23.5s10.5 23.5 23.5 23.5 23.5-10.5 23.5-23.5c0-12.9-10.5-23.5-23.5-23.5z" fill="#f60"/>
		<path d="m633.7 333.1c-5.1-6.1-22.7-2.2-26.2-1.9-14.8 1.2-32.9 6-56.9 14.9-1.6 0.6-3.1 1.2-4.7 1.8-15.4 5.8-31.4 11.8-44.3 13.2-8.2 0.9-16 1.4-23.8 1.4-11.3 0-20.5-0.9-29.5-1.9-7.9-0.8-15.3-1.6-23.5-1.6-10.8 0-26.2-0.6-38.8-2.9-10-1.8-23.5-5.5-25.6-16.2-0.9-4.8 0.6-9.9 4.4-14.4 9.9-12 33.1-19 63.7-19h0.1c14.2 0.2 25.1 2.9 36.8 5.7 8.2 2 16.6 4 27.3 5.6 9.4 0.7 20.7 1 33.8 1 22.7 0 47-1 64.7-1.8 5.9-0.2 11-0.5 15.4-0.6h0.3c3.9 0 19.2 3 23.3 8.9 0.3 0.4 4 8.4 3.5 7.8z"/>
		<path d="m367.7 338.6c2 10.1 31.4 13 57.2 13 17.9 0.1 32.1 3.5 53 3.5 6.8 0 14.3-0.4 22.9-1.3 13.3-1.5 31.1-8.6 47.3-14.6 25.3-9.4 43.5-14.1 58.9-15.3-18.3 0.6-50.3 2.4-80.4 2.4-12.2 0-24.1-0.3-34.6-1.1-26.9-3.9-40.6-10.9-63.4-11.2-45.3 0-62.7 15.2-60.9 24.6z" fill="#3E3A39"/>
		<path d="m608.6 279.5-2.8 7.4c-2.5 6.6-13.2 16.1-22.1 17.7-2.5 0.5-4.8 0.7-7 0.7-3.2 0-5.6-0.5-7.4-0.9-2.1-0.5-5.3-1.5-8.1-2.8-6-2.8-9-6.5-8.7-11.1 0.3-5.1 7.1-12.8 15.7-15.6 2.8-0.9 6-1.3 9.8-1.3 10.6 0 22.5 3.5 23 3.7l7.6 2.2z"/>
		<path d="m559.9 290.9c-0.2 2.9 8.1 5.5 11.2 6.2 1.6 0.4 3.4 0.7 5.6 0.7 1.6 0 3.5-0.2 5.7-0.6 6.3-1.1 14.9-8.7 16.5-12.9 0 0-11.3-3.4-20.9-3.4-2.7 0-5.3 0.3-7.5 1-6.5 2.1-10.5 7.7-10.6 9z" fill="#0F9A49"/>
	</g>
</svg>
