<?xml version="1.0" encoding="utf-8"?>
<!-- Generator: Adobe Illustrator 25.2.0, SVG Export Plug-In . SVG Version: 6.00 Build 0)  -->
<svg version="1.1" id="Layer_1" xmlns="http://www.w3.org/2000/svg" xmlns:xlink="http://www.w3.org/1999/xlink" x="0px" y="0px"
	 viewBox="0 0 1000 1000" style="enable-background:new 0 0 1000 1000;" xml:space="preserve">
<style type="text/css">
	.st0{fill-rule:evenodd;clip-rule:evenodd;fill:#3E3A39;}
	.st1{fill-rule:evenodd;clip-rule:evenodd;fill:#0F9A49;}
	.st2{fill-rule:evenodd;clip-rule:evenodd;fill:#FF6600;}
</style>
<g id="HatBack--group">
	<path id="HatBack--bg" d="M639.1,347.5c-1.1,2.8-3.8,4.7-6.9,4.7h-0.1l-49.2-0.5c-2.1,0-4.1-0.9-5.5-2.5c-0.7-0.8-3.3-1.3-6-1.8
		c-1.9-0.4-4.1-0.8-6.5-1.4c-2.9-0.8-7.8-2.8-9.8-3.6c-2.9-1.1-4.7-3.9-4.6-7c0.1-3.1,2-5.8,5-6.8c20.4-7.1,36.5-11,50.7-12.2
		c0.1,0,0.2,0,0.3,0c0.8,0,1.6,0,2.4,0c8.5,0,15.9,1.8,20.5,4.9C639.5,327.4,643.1,337.2,639.1,347.5z"/>
	<path id="HatBack" class="st0" d="M625.5,327.6c-2.8-2-8.7-3.8-16.5-3.8c-0.7,0-1.4,0-2.1,0c-13.3,1.1-28.7,4.7-48.9,11.8
		c3.1,1.2,7,2.7,9.1,3.3c6.7,1.9,12.5,1.5,16,5.5l49.2,0.5C634.9,337.7,632.6,331.7,625.5,327.6z"/>
</g>
<g id="Hat--group">
	<g id="HatTop--group">
		<path id="HatTop--bg" d="M613.2,224.8c-0.7,3.6-3.8,7.5-10.4,7.5c-4.3,0-10-1.6-16.7-3.4c-7.2-2-15.4-4.2-21.1-4.2
			c-2.1,0-3,0.3-3.2,0.4c-2.5,1.1-3,3.2-3.5,9.5c-0.1,0.8-0.1,1.6-0.2,2.3c-1,9.5,2.5,28,8.7,47c6.8,20.6,13.9,32.8,16.8,34.9
			c2.5,1.8,3.6,5.1,2.8,8.1s-3.5,5.1-6.7,5.3c-0.8,0-2.2,0.2-4.1,0.3c-9.3,0.7-28.6,2.3-49.7,2.3c-13,0-24.6-0.6-34.4-1.8
			c-15.7-1.9-29-4.8-37.4-6.8c-4.8-1.2-8.5-2.2-10.8-2.9c-1.3-0.4-2.3-0.7-2.9-0.9c-0.3-0.1-0.6-0.2-0.8-0.2
			c-5.1-1.7-5.4-6.2-5.4-7.1c0-2.3,1.1-4.5,3-5.9c0.8-0.6,1.7-1,2.7-1.3c1.2-0.7,5.4-3.9,15.3-15.3c8.3-9.5,16.2-25.8,23.8-41.6
			c13.8-28.4,28-57.7,50-62.6c6.4-1.4,12.9-2.1,19.5-2.1c26.5,0,50.2,11.9,59.8,23.7C613.6,216.3,613.9,221.5,613.2,224.8z"/>
		<path id="HatTop" class="st0" d="M606,223.3c2-10-24.2-29.7-57.4-29.7c-5.8,0-11.8,0.6-17.9,2c-30,6.7-46.6,75.2-69.9,101.9
			c-14.7,16.9-18.5,17.6-19.1,17.6c-0.1,0-0.1,0-0.1,0v0c0,0,20.9,7,50.7,10.6c10.6,1.3,22.2,1.7,33.5,1.7c25.4,0,48.7-2.3,53.4-2.6
			c-11.4-8.3-30.9-65.1-28.5-88.6c0.6-6.2,0.3-14.4,8.1-17.8c1.7-0.8,3.8-1.1,6.3-1.1c11.8,0,30.4,7.6,37.8,7.6
			C604.6,224.9,605.7,224.4,606,223.3z"/>
	</g>
	<g id="LeafBack--group">
		<path id="LeavBack--bg" d="M577,279.6c-1.2,7.6-6.6,12.6-14.5,13.3c-0.8,0.1-1.5,0.1-2.3,0.1c-3.9,0-7.9-0.8-13.3-2.7l-7.4-2.6
			l3-7.2c4.8-11.8,10.6-19.5,17.6-23.5l5.4-3.1l4,4.8C575.6,266,578,272.8,577,279.6z"/>
		<path id="LeafBack" class="st1" d="M549.4,283.2c4.6,1.6,7.9,2.3,10.8,2.3c0.6,0,1.1,0,1.6-0.1c3.8-0.3,7.1-2.2,7.8-7
			c0.8-4.9-1.6-10-5.8-15.1C557,267.3,552.5,275.7,549.4,283.2z"/>
	</g>
	<g id="Orange--group">
		<path id="Orange--bg" d="M589.2,307.6c0,17-13.9,30.9-30.9,30.9c-17,0-30.9-13.9-30.9-30.9c0-17,13.9-30.9,30.9-30.9
			C575.4,276.7,589.2,290.6,589.2,307.6z"/>
		<path id="Orange" class="st2" d="M558.3,284.1L558.3,284.1c-13,0-23.5,10.5-23.5,23.5v0c0,13,10.5,23.5,23.5,23.5h0
			c13,0,23.5-10.5,23.5-23.5v0C581.8,294.7,571.3,284.1,558.3,284.1z"/>
	</g>
	<g id="HatFront--group">
		<path id="HatFront--bg" d="M633.7,333.1c-5.1-6.1-22.7-2.2-26.2-1.9c-14.8,1.2-32.9,6-56.9,14.9c-1.6,0.6-3.1,1.2-4.7,1.8
			c-15.4,5.8-31.4,11.8-44.3,13.2c-8.2,0.9-16,1.4-23.8,1.4c-11.3,0-20.5-0.9-29.5-1.9c-7.9-0.8-15.3-1.6-23.5-1.6
			c-10.8,0-26.2-0.6-38.8-2.9c-10-1.8-23.5-5.5-25.6-16.2c-0.9-4.8,0.6-9.9,4.4-14.4c9.9-12,33.1-19,63.7-19h0.1
			c14.2,0.2,25.1,2.9,36.8,5.7c8.2,2,16.6,4,27.3,5.6c9.4,0.7,20.7,1,33.8,1c22.7,0,47-1,64.7-1.8c5.9-0.2,11-0.5,15.4-0.6h0.3
			c3.9,0,19.2,3,23.3,8.9C630.5,325.7,634.2,333.7,633.7,333.1z"/>
		<path id="HatFront" class="st0" d="M367.7,338.6c2,10.1,31.4,13,57.2,13c17.9,0.1,32.1,3.5,53,3.5c6.8,0,14.3-0.4,22.9-1.3
			c13.3-1.5,31.1-8.6,47.3-14.6c25.3-9.4,43.5-14.1,58.9-15.3c-18.3,0.6-50.3,2.4-80.4,2.4c-12.2,0-24.1-0.3-34.6-1.1
			c-26.9-3.9-40.6-10.9-63.4-11.2l0,0C383.3,314,365.9,329.2,367.7,338.6z"/>
	</g>
	<g id="LeafFront--group">
		<path id="LeafFront--bg" d="M608.6,279.5l-2.8,7.4c-2.5,6.6-13.2,16.1-22.1,17.7c-2.5,0.5-4.8,0.7-7,0.7c-3.2,0-5.6-0.5-7.4-0.9
			c-2.1-0.5-5.3-1.5-8.1-2.8c-6-2.8-9-6.5-8.7-11.1c0.3-5.1,7.1-12.8,15.7-15.6c2.8-0.9,6-1.3,9.8-1.3c10.6,0,22.5,3.5,23,3.7
			L608.6,279.5z"/>
		<path id="LeafFront" class="st1" d="M559.9,290.9c-0.2,2.9,8.1,5.5,11.2,6.2c1.6,0.4,3.4,0.7,5.6,0.7c1.6,0,3.5-0.2,5.7-0.6
			c6.3-1.1,14.9-8.7,16.5-12.9c0,0-11.3-3.4-20.9-3.4c-2.7,0-5.3,0.3-7.5,1C564,284,560,289.6,559.9,290.9z"/>
	</g>
</g>
</svg>
