<svg id="wapuugotchi_svg__wapuu" x="0" y="0" version="1.1" viewBox="0 0 1000 1000" xmlns="http://www.w3.org/2000/svg">
    <g id="wapuugotchi_type__bear">
        <g id="Background--group"/>
        <g id="RightArm--group">
            <path d="M436.6 504c-4.5 5.1-10.5 7.9-17 7.9-9.1 0-18.5-5.5-24.4-14.4-7.8-11.6-15.5-21.2-22.3-27.9l-4.8-4.7c-2-2-1.1-5.3 1.6-6.1l6.5-1.7c3.2-.9 6.4-2.7 9.1-5.5 3-3 4.8-6.7 5.2-10.4V430c0-1.3 1.5-2.1 2.5-1.3l9.3 6.9c.7.5 1.7 1.1 2.9 1.7 10.2 4.9 31.7 27.4 35.7 46.7 2.1 10.1-1.2 16.5-4.3 20z" />
            <path fill="#eee" d="M402.1 444.1c-1.5-.7-2.9-1.5-4.2-2.4-.5 5.5-3 11-7.3 15.3-3.7 3.7-8.1 6.2-12.5 7.4 8.7 8.6 17 19.8 23.2 29.1 4.5 6.7 11.6 11.1 18.3 11.1 4.1 0 8.1-1.6 11.4-5.4 13-14.8-17.3-49.6-28.9-55.1z" />
        </g>
        <g id="Tail--group">
            <path fill="#eee" d="M617.128 620.697c30.317 28.287-11.02 52.217-39.656 31.377-43.828-31.817 13.832-51.272 39.656-31.377z" />
            <path d="M596.403 605.62c16.863 4.853 28.715 13.046 32.374 22.511 4.454 11.295 2.147 21.556-6.284 28.079-10.659 8.272-31.738 9.227-51.226-5.011-16.067-11.693-10.42-16.704 4.375-5.966 16.625 12.09 33.885 11.693 42.396 5.17 5.727-4.375 7.08-11.295 3.898-19.488-2.784-7.159-13.124-13.92-27.522-18.056-26.01-7.636-20.203-13.681 1.989-7.238z" />
        </g>
        <g id="Body--group">
            <path d="M649.7 531.9c-2 24-6.7 45.1-13.9 62.9-8.5 20.9-20.3 36.6-35.1 46.8-34 23.4-64.8 26-76.4 26-1.3 0-2.5 0-3.8-.1-18.4-.8-26-4.4-32.7-7.5-5.9-2.8-11-5.2-24.9-5.7-37.5-1.5-67-9.9-83.1-23.6-.2-.1-.5-.4-.9-.7-4.8-3.5-19.3-14.3-25-24.7-5.3-9.7-6.2-22.3-2.3-31.4 13.4-31.2 24.5-40.5 33.5-48 3.6-3 6.4-5.3 8.8-8.7 2.2-3.1 3.8-7.1 4.9-12.2 0-.1 0-.2.1-.3 3.9-15 3.4-34.9 2.8-56-.2-5.7-.3-11.7-.4-17.5v-.1c0-18.6 9.6-40.7 25.7-59.2 18.1-20.8 41.6-33.6 66.1-36.2 20.2-2.1 34.3-3.1 45.9-3.1 43.7 0 58.6 14.8 82.2 48.4 7.5 10.6 12.1 22.5 16 33.7 11.1 30.4 15.9 76.5 12.5 117.2z" />
            <path fill="#eee" d="M358.5 576.7c-3 7-2.2 17.4 2 25 5.6 10.3 23 22.2 24.1 23.2 15.1 12.9 43.7 20.5 78.7 21.9 31.2 1.3 24.3 11.8 57.6 13.3 1.1 0 2.2.1 3.5.1 16.7 0 43.7-5 72.2-24.7 58-39.9 52.9-165.3 34-218.6-3.9-11.1-8.3-22.2-15.1-31.9-23.5-33.5-36.6-45.2-76.2-45.2-12.2 0-26.9 1.1-45.1 3.1-49.9 5.3-85.3 55.3-85.3 88.1.3 27.4 2.5 55.1-2.7 75.5-1.4 6.5-3.4 11.2-6 14.9-9.8 13.5-23.4 12.4-41.7 55.3z" />
            <g class="remove--part">
                <path fill="#eee" d="M627.028 596.794s2.166 9.705 8.22 9.943c-3.06-13.602-.32-21.238-.32-21.238s8.538 8.67 18.478 8.59c-5.735-11.453-12.68-36.19-12.68-36.19s15.356 5.647 21.09 2.863c-7.837-5.25-22.619-35.476-22.619-35.476s14.59 7.477 22.3 5.01c-8.601-6.601-23.765-29.27-23.765-29.27s9.94.556 17.267.556c-4.524-3.023-18.286-21.874-18.286-21.874s13.57 5.33 22.81-.08c-13.572-8.75-25.741-32.612-25.741-32.612s6.945 5.409 18.095 4.852c-8.41-6.363-26.314-45.34-26.314-45.34" />
                <path d="M627.028 596.794c.382 1.193.828 2.307 1.402 3.341.51 1.034 1.147 2.068 1.847 2.864.701.875 1.53 1.511 2.358 1.988.191.08.446.239.637.318.191.08.446.16.637.239.255.08.446.08.701.08h.7l-.827 1.352c-.192-.875-.446-1.75-.638-2.625-.19-.875-.382-1.75-.573-2.705l-.255-1.352a55.691 55.691 0 0 0-.191-1.352 55.642 55.642 0 0 0-.191-1.352l-.128-1.432c-.063-.477-.063-.954-.063-1.432 0-.477-.064-.954-.064-1.431v-1.432c0-.477 0-.955.064-1.432.063-.477.063-.955.127-1.432l.191-1.432c.064-.477.128-.954.255-1.431l.191-.716c.064-.239.128-.477.255-.796l.765-2.465 1.847 1.67c.255.239.638.557.956.795.319.239.637.557 1.02.796l2.102 1.432a47.978 47.978 0 0 0 4.333 2.386c1.465.636 2.994 1.193 4.523 1.511 1.53.318 3.059.477 4.524.398l-1.975 4.454-1.083-2.227-1.02-2.227c-.382-.716-.637-1.511-.955-2.227-.319-.716-.637-1.512-.956-2.227-.637-1.512-1.21-3.023-1.784-4.534-.573-1.512-1.147-3.023-1.657-4.534-1.083-3.023-2.102-6.125-3.122-9.148l-1.465-4.613c-.51-1.591-.956-3.102-1.465-4.693l-2.23-6.92 5.861 1.909 1.21.397 1.275.398c.828.239 1.72.477 2.549.716 1.72.398 3.377.795 5.097 1.114 1.656.318 3.377.477 4.97.556h1.146c.383 0 .765-.08 1.084-.08.318-.079.7-.079.955-.158.128 0 .255-.08.383-.16l.318-.158-.382 7.795c-.892-.637-1.72-1.273-2.421-1.989-.383-.318-.701-.716-1.02-1.034-.318-.318-.637-.716-.955-1.034a53.02 53.02 0 0 1-1.784-2.148c-.574-.715-1.084-1.431-1.657-2.227-2.166-2.943-4.078-6.045-5.925-9.147-1.848-3.102-3.696-6.284-5.416-9.466-.892-1.59-1.72-3.181-2.612-4.772l-1.275-2.466-1.274-2.466-6.117-12.09 10.896 5.17 1.21.557 1.274.557c.892.397 1.72.715 2.613 1.034 1.72.636 3.504 1.272 5.224 1.75 1.72.477 3.44.795 5.097 1.034.383 0 .829.08 1.21.08h1.148c.382 0 .7-.08 1.083-.08l.51-.08.446-.159-1.083 8.988-1.02-.795-.956-.875a20.544 20.544 0 0 1-1.784-1.75c-1.146-1.193-2.293-2.386-3.376-3.58a158.452 158.452 0 0 1-6.18-7.476c-1.976-2.546-3.887-5.17-5.799-7.796l-2.803-3.977-1.402-1.988-1.402-2.068-5.734-8.511 8.92.477 4.269.238 4.269.16 8.538.238-1.848 8.988a14.576 14.576 0 0 1-1.784-1.431c-.51-.478-.956-.955-1.402-1.352-.892-.955-1.72-1.83-2.548-2.784-1.593-1.91-3.122-3.739-4.652-5.648a180.572 180.572 0 0 1-4.46-5.807l-2.166-2.943-2.166-2.943-9.239-12.647 13.062 5.25a4.7 4.7 0 0 0 1.21.398c.446.159.892.238 1.275.397l2.676.716c1.784.398 3.568.636 5.352.796 1.784.08 3.504.08 5.16-.24.383-.079.829-.158 1.211-.238.382-.08.828-.238 1.21-.318.383-.159.765-.238 1.147-.398a7.048 7.048 0 0 0 1.084-.556l-.128 7.477c-.764-.557-1.465-1.034-2.166-1.591-.701-.557-1.402-1.114-2.103-1.75-.7-.637-1.338-1.193-1.975-1.83l-1.911-1.909c-2.485-2.625-4.715-5.488-6.818-8.431-2.102-2.943-4.141-6.045-5.989-9.227a109.436 109.436 0 0 1-2.74-4.852l-1.338-2.466c-.446-.875-.828-1.67-1.274-2.545l-5.989-12.33 9.366 8.034c.064.08.255.16.382.239.128.08.319.239.446.318.319.239.637.398.956.557.637.398 1.338.716 1.975 1.034.319.16.701.318 1.02.477.318.16.7.318 1.019.398l2.103.716c.382.08.7.159 1.083.318.382.08.7.16 1.083.239l1.083.238 1.083.16c.765.158 1.466.158 2.23.238.382.08.765 0 1.083.08h1.147l-.956 4.454c-.955-.796-1.72-1.67-2.484-2.546a75.148 75.148 0 0 1-2.04-2.704c-1.274-1.83-2.42-3.738-3.567-5.647-2.23-3.898-4.333-7.796-6.244-11.852a523.46 523.46 0 0 1-5.735-12.17c-1.784-4.136-3.631-8.273-5.288-12.488 2.103 3.897 4.142 7.795 6.308 11.692a305.369 305.369 0 0 0 6.499 11.454c2.23 3.739 4.46 7.477 6.88 11.057 1.211 1.75 2.422 3.5 3.696 5.09.637.796 1.275 1.591 1.975 2.307.638.716 1.338 1.352 1.976 1.75l5.798 4.057-6.754.398-1.21.08c-.383 0-.829.079-1.211.079-.829 0-1.657 0-2.485-.08l-1.21-.08-1.211-.159c-.383-.079-.829-.079-1.21-.159-.383-.08-.83-.159-1.211-.238-.829-.16-1.657-.398-2.422-.637a7.17 7.17 0 0 1-1.21-.397c-.382-.16-.828-.318-1.21-.478-.829-.318-1.594-.636-2.358-1.034-.382-.238-.765-.397-1.21-.636-.192-.08-.383-.239-.574-.318-.191-.16-.382-.239-.637-.398l3.377-4.295c.382.716.828 1.511 1.274 2.227l1.338 2.227c.892 1.512 1.848 2.943 2.803 4.375 1.912 2.943 3.887 5.727 5.99 8.352 2.102 2.625 4.268 5.17 6.562 7.477l1.72 1.67a17.907 17.907 0 0 0 1.784 1.512c.574.477 1.21.954 1.784 1.352.574.477 1.21.795 1.848 1.273l6.116 3.977-6.243 3.5c-.51.318-1.084.636-1.593.875-.51.238-1.083.477-1.593.715-.574.16-1.083.398-1.657.557-.573.16-1.083.239-1.656.398a29.538 29.538 0 0 1-6.435.477 40.774 40.774 0 0 1-6.244-.716 21.259 21.259 0 0 1-3.059-.716c-.51-.159-1.02-.238-1.529-.397a28.61 28.61 0 0 1-1.593-.557l3.823-7.397 2.166 2.863 2.167 2.784c1.465 1.91 2.93 3.739 4.396 5.568 1.465 1.83 2.995 3.58 4.46 5.33.765.874 1.53 1.67 2.23 2.465.382.398.765.716 1.083 1.034.319.318.701.557.892.716l12.36 8.909-14.208.08c-2.93 0-5.861 0-8.728-.08l-4.333-.16-4.333-.158 3.186-8.034 2.676 3.897 2.74 3.819a294.998 294.998 0 0 0 5.607 7.477c1.911 2.465 3.823 4.852 5.798 7.079a64.892 64.892 0 0 0 2.994 3.261l1.53 1.432.764.636.7.636 7.901 6.523-8.983 2.466-.956.238-.7-.238c-.638.08-1.211.159-1.785.159h-1.72c-.574 0-1.083-.08-1.657-.08-2.166-.238-4.205-.716-6.18-1.272-1.975-.557-3.95-1.273-5.862-2.069l-2.867-1.193-1.402-.636c-.51-.239-.892-.477-1.465-.716l4.715-6.92 1.147 2.386 1.21 2.386c.829 1.591 1.593 3.182 2.421 4.693 1.657 3.103 3.314 6.205 5.098 9.227 1.72 3.023 3.568 5.966 5.415 8.75.446.716.956 1.352 1.402 1.989.51.636.956 1.272 1.465 1.909.255.318.51.556.701.875.255.318.51.556.701.795.51.557.956.875 1.338 1.193l6.371 5.011-6.753 2.784c-.319.16-.637.239-.956.398-.318.08-.637.16-.892.239a6.41 6.41 0 0 1-1.72.238c-.51.08-1.083.08-1.593.08s-1.02 0-1.53-.08c-1.974-.08-3.886-.477-5.733-.875a69.486 69.486 0 0 1-5.48-1.431c-.892-.24-1.784-.557-2.676-.875l-1.338-.478-1.338-.477 3.823-5.011c.382 1.511.828 3.102 1.274 4.613l1.338 4.614c.892 3.102 1.784 6.125 2.804 9.147.446 1.512.955 3.023 1.465 4.534.51 1.511 1.02 3.023 1.53 4.455.254.715.509 1.51.764 2.227.255.716.51 1.431.828 2.147l.828 2.148.892 2.068 2.04 4.614-4.015-.16a24.366 24.366 0 0 1-5.415-.874c-1.784-.478-3.441-1.273-5.098-2.069-1.656-.875-3.185-1.909-4.714-3.022-.765-.557-1.466-1.193-2.23-1.83-.383-.318-.701-.636-1.084-.954a13.24 13.24 0 0 1-1.083-1.034l2.613-.796c0 .08-.128.239-.128.398-.064.16-.127.398-.191.557-.127.398-.191.795-.255 1.193s-.191.795-.255 1.193c-.063.398-.127.796-.19 1.273-.065.398-.065.875-.128 1.272-.064.398-.064.875-.128 1.273-.063.398-.063.875-.063 1.273 0 .398-.064.875 0 1.273v1.272c0 .398 0 .875.063 1.273 0 .398 0 .875.064 1.273l.127 1.272c.064.875.192 1.75.255 2.625l.383 2.625.254 1.511-1.083-.159c-.255-.08-.573-.08-.828-.159-.255-.08-.573-.159-.828-.238-.255-.08-.51-.24-.765-.398l-.764-.477c-.956-.716-1.784-1.67-2.422-2.705-.637-1.034-1.146-2.227-1.592-3.34-.192-1.194-.51-2.387-.765-3.66z" />
            </g>
        </g>
        <g id="Ball--group"/>
        <g id="RightFoot--group">
            <path fill="#eee" stroke="#000" stroke-width="5.838" d="M344.18 564.319c-20.484-15.77-43.65-1.707-38.61 22.678 4.145 19.997 37.96 57.144 62.101 62.916 20.972 5.04 16.745-17.558 13.413-25.199-5.853-13.33-26.012-52.023-36.904-60.395z" />
            <g class="remove--part">
                <path d="m 332.193,547.716 4.295,10.182 -7.397,1.909 z m 2.732,22.181 a 7.477,5.33 49.282 0 1 -8.916,-2.19 7.477,5.33 49.282 0 1 -0.838,-9.144 7.477,5.33 49.282 0 1 8.916,2.19 7.477,5.33 49.282 0 1 0.838,9.144 z m -37.175,-1.102 8.75,5.011 -4.295,5.489 z m 7.796,-11.295 7.716,6.522 -5.25,4.534 z m 12.011,-8.75 6.761,8.67 -6.681,3.739 z m -4.375,55.919 c -5.727,-7.159 -2.625,-21 4.614,-25.215 10.977,-6.363 22.43,-3.42 26.885,1.193 8.272,10.182 -7.556,10.42 -13.602,15.034 -6.124,4.693 -12.17,16.226 -17.897,8.988 z m 0.213,-24.677 a 6.92,5.01 49.282 0 1 -8.312,-1.976 6.92,5.01 49.282 0 1 -0.716,-8.513 6.92,5.01 49.282 0 1 8.312,1.976 6.92,5.01 49.282 0 1 0.716,8.513 z m 8.938,-8.092 a 7.477,5.409 49.282 0 1 -8.976,-2.138 7.477,5.409 49.282 0 1 -0.778,-9.195 7.477,5.409 49.282 0 1 8.977,2.138 7.477,5.409 49.282 0 1 0.777,9.195 z"/>
            </g>
        </g>
        <g id="FullHead--group">
            <g id="BeforeHead--group"/>
            <g id="RightEar--group">
                <path fill="#eee" stroke="#000" stroke-miterlimit="10" stroke-width="13.92" d="M422.95 395.234c-3.976 13.92-15.59 16.942-23.862 14.556-8.272-2.386-46.135-4.772-45.657-35.953.636-40.726 40.805-34.283 48.6-30.703 18.931 8.829 31.578 14.476 20.92 52.1z" />
                <path fill="#eee" d="M402.508 415.438c-8.272-2.387-49.634-10.42-49.157-41.522.637-40.725 40.646-33.964 48.6-30.703 15.67 6.443 27.602 20.363 24.022 42.635" />
                <path d="M402.508 415.438s-.715-.08-2.147-.319c-1.432-.238-3.5-.477-6.045-.954-2.625-.477-5.807-1.114-9.386-2.148-1.83-.477-3.739-1.113-5.728-1.83-1.988-.715-4.056-1.59-6.204-2.545-2.147-1.034-4.295-2.147-6.443-3.579-2.147-1.432-4.375-3.023-6.443-4.932-2.068-1.909-4.056-4.136-5.727-6.681-1.67-2.546-3.102-5.41-4.056-8.511-.955-3.102-1.432-6.364-1.512-9.625v-2.386c0-.796.08-1.67.08-2.466.08-1.59.238-3.182.557-4.852.477-3.261 1.431-6.522 2.863-9.704.716-1.591 1.511-3.182 2.545-4.614.955-1.511 2.069-2.863 3.341-4.215a28.823 28.823 0 0 1 8.59-6.284c3.183-1.591 6.444-2.546 9.705-3.182 3.261-.636 6.522-.795 9.704-.795 3.182 0 6.284.397 9.307.954 1.511.318 3.022.636 4.454 1.034.716.239 1.511.477 2.227.716l1.193.477.398.16.239.079.477.239c.318.159.557.238.954.477l1.035.557c.715.318 1.272.716 1.909 1.034a39.515 39.515 0 0 1 3.579 2.306c4.613 3.262 8.352 7.318 10.977 11.534a34.32 34.32 0 0 1 4.693 12.409c.636 3.818.557 7.238.318 9.942-.318 2.705-.795 4.773-1.193 6.125a9.885 9.885 0 0 1-.477 1.591 8.39 8.39 0 0 1-.16.557v-2.148c-.08-1.432-.159-3.5-.477-6.045-.397-2.545-.954-5.568-2.227-8.83-.636-1.59-1.352-3.26-2.307-4.93a31.728 31.728 0 0 0-3.42-4.853c-2.625-3.102-6.045-6.045-10.102-8.352a116.4 116.4 0 0 0-3.182-1.67c-.556-.239-1.113-.557-1.67-.716l-.795-.318a8.282 8.282 0 0 1-.955-.398l-.477-.16-.239-.079s.08 0 0 0h-.159l-.716-.238-1.67-.478c-1.193-.238-2.466-.477-3.739-.636a63.112 63.112 0 0 0-7.795-.477c-2.625 0-5.25.318-7.795.795-5.09 1.034-9.704 3.182-13.045 6.682-1.67 1.75-3.023 3.818-4.136 6.045-1.114 2.307-1.83 4.773-2.386 7.318-.239 1.273-.478 2.625-.637 3.977-.08.636-.159 1.273-.159 1.91l-.08 1.113v.954c-.079 2.546.08 5.011.637 7.318 1.034 4.693 3.5 8.909 6.602 12.488 3.102 3.58 6.84 6.364 10.42 8.75 1.83 1.193 3.659 2.227 5.409 3.182 1.75.954 3.5 1.83 5.09 2.545 3.262 1.511 6.205 2.784 8.67 3.739 2.467.954 4.376 1.75 5.728 2.227 1.273.397 1.988.716 1.988.716z" />
                <path d="M409.826 391.654s-.557-1.034-1.511-2.784a137.546 137.546 0 0 0-4.136-7 61.535 61.535 0 0 0-3.023-4.295c-1.113-1.431-2.307-2.943-3.659-4.295a33.593 33.593 0 0 0-4.454-3.738l-.636-.398-.637-.398c-.398-.238-.875-.477-1.273-.716-.397-.238-.874-.397-1.352-.636l-.159-.08c.16.08 0 0 .08 0h-.16l-.397-.159-.796-.318c-1.829-.636-3.897-1.034-5.727-1.113h-1.431c-.478 0-.875.08-1.353.159-.875.159-1.75.397-2.545.795a7.951 7.951 0 0 0-2.227 1.352c-.716.478-1.352 1.114-1.91 1.75-.556.637-1.113 1.352-1.51 2.068-.398.716-.875 1.432-1.194 2.148-1.352 2.943-1.829 5.648-2.068 7.636-.08.955-.08 1.75-.08 2.307v.795s-.079-.238-.238-.795c-.159-.557-.398-1.273-.557-2.307-.318-1.988-.556-5.011.398-8.59.398-1.75 1.193-3.66 2.386-5.489 1.194-1.83 2.864-3.58 5.012-4.852 2.147-1.273 4.772-1.989 7.317-2.148 2.625-.159 5.091.239 7.557.875l.795.239.398.08h.08l.159.079.238.08c.637.238 1.194.397 1.83.715.557.239 1.193.478 1.75.796l.795.477.796.477c2.147 1.353 3.977 3.023 5.488 4.773 1.511 1.75 2.784 3.58 3.739 5.409 1.034 1.83 1.75 3.58 2.386 5.33 1.193 3.34 1.67 6.283 1.909 8.351.08 1.034.159 1.83.159 2.386-.239.716-.239 1.034-.239 1.034z" />
            </g>
            <g id="Head--group">
                <path d="M516.4 328.1c1.6 0 3.2 0 4.8.1 20.6.6 39.5 6.5 55.9 17 11.2 7.2 17.5 11.4 25.9 25.2 1.5 2.5 9 .8 7.9-1.1-10.1-17.6-17.5-22.3-29.8-30.3-17.7-11.4-37.8-17.6-59.7-18.2-1.6 0-3.3-.1-5-.1-1.6 0-3.3 0-4.9.1-24.3.6-47.8 6.6-67.8 17.1-20.2 10.6-37.1 26.1-48.9 44.7-7.7 12.3-10.3 23.9-7.4 33.5 2.4 7.8 7.9 12.7 12.3 14.6 1.4.6 2.9.9 4.7.9 9.3 0 34.7-9.3 45.7-24.8 8.4 4.5 17.6 6.7 28.1 6.7 12.6 0 25-3.2 36.4-6.9 3-1 3.8-2.2 3.9-4.1 0-1.3-1.2-3.6-3.8-3.5-.3 0-.7.1-1 .2-11.2 3.6-23.3 6.9-35.4 6.9-9.3 0-18.6-2-27.4-7.4-.6-.4-1.3-.5-1.9-.5-1.3 0-2.5.6-3.2 1.8l-.1.1c-7.9 14.3-33.3 24.1-41.2 24.1-.7 0-1.3-.1-1.7-.3-2.8-1.2-6.6-4.6-8.2-10-2.3-7.5 0-17 6.6-27.4 22.5-35.7 63.4-57.1 110.6-58.3 1.4-.1 3-.1 4.6-.1" />
                <path fill="#eee" d="M516.6 399.4c-1-.4-2-.7-3-.3-19.7 6.3-42.5 12-62.8-.5-1.7-1.1-4-.5-5.1 1.2l-.1.1c-8.6 15.7-38.3 26-43 23.9-2.8-1.2-6.6-4.6-8.2-10-2.3-7.5 0-17 6.6-27.4 22.5-35.7 63.4-57.1 110.6-58.3 3.1-.1 6.3-.1 9.5 0 20.6.6 39.5 6.5 55.9 17 13.2 8.5 19.7 12.7 30.6 33.6 5.6 10.5-84.4 23.5-91 20.7z" />
                <line fill="none" stroke="#000000" stroke-width="7.95424" stroke-miterlimit="10" x1="448.78339" y1="390.79654" x2="449.022" y2="402.3302" id="line8671" style="display:inline" />
                <g class="remove--part">
                    <path fill="#eee" d="M490.88 337.396s-33.408-6.618-40.169-14.039c-1.511 6.284 7.636 16.847 7.636 16.847s-25.772-3.81-38.26-8.156c1.989 10.362 12.17 17.984 12.17 17.984s-10.26 4.412-26.487 1.939c1.431 6.284 14.635 11.097 14.635 11.097" />
                    <path d="M490.88 337.396c-3.659-.468-7.238-1.07-10.818-1.738-1.83-.334-3.58-.735-5.33-1.136-1.749-.401-3.578-.803-5.328-1.27-1.75-.468-3.5-.936-5.25-1.471s-3.5-1.137-5.25-1.738a85.529 85.529 0 0 1-2.545-1.003c-.875-.401-1.67-.736-2.546-1.204-.397-.2-.875-.468-1.272-.668-.398-.2-.796-.468-1.194-.736-.795-.534-1.59-1.136-2.306-1.871l4.136-.803c0 .268 0 .535-.08.87 0 .267.08.601.08.935 0 .335.159.669.159.936.08.335.16.669.318 1.003.08.334.239.669.398 1.003l.398 1.003.477 1.003c.159.334.398.668.557 1.002.159.335.397.669.556 1.003.24.334.398.669.637.936.398.669.875 1.27 1.352 1.872.477.602.955 1.27 1.432 1.872l.716.936c.238.267.477.602.716.869l4.136 4.68-6.92-.936c-1.67-.2-3.262-.468-4.932-.736l-4.852-.802a222.464 222.464 0 0 1-9.704-1.805c-1.591-.334-3.262-.668-4.852-1.003a126.945 126.945 0 0 1-4.853-1.136l-2.386-.602c-.795-.2-1.59-.401-2.386-.668l-2.386-.736-2.387-.802 3.978-2.607.238 1.136.16.602.158.601.398 1.137.477 1.136c.16.402.318.736.557 1.137.16.401.318.735.557 1.137l.636 1.07c.239.333.477.735.716 1.069.239.334.477.735.716 1.07.239.334.477.735.795 1.07.319.333.557.668.796 1.002l.875 1.003c.636.668 1.193 1.337 1.909 1.939.318.334.636.601.954.936.318.267.716.601.955.869l2.545 2.139-3.102 1.203c-.398.134-.636.268-.954.335a4.45 4.45 0 0 1-.875.267c-.557.2-1.114.334-1.75.468-1.114.267-2.307.535-3.5.669-.557.133-1.193.2-1.75.267-.557.067-1.193.134-1.75.2-.557.067-1.193.134-1.75.134l-1.75.067h-3.5l-1.75-.067-1.75-.134c-.557-.066-1.113-.066-1.75-.2l-1.75-.2c-.556-.067-1.113-.201-1.67-.268l-1.67-.267 1.59-1.338.24.87c.079.267.238.601.397.869.08.267.318.534.557.869l.318.4.318.402.716.802.795.736.875.735c.318.267.637.468.875.735.318.201.637.468.955.669.318.2.636.468.954.669.637.4 1.352.869 2.068 1.27 1.353.802 2.784 1.604 4.296 2.273-1.591-.468-3.182-1.07-4.693-1.672-.796-.334-1.512-.668-2.307-1.002-.398-.2-.716-.402-1.114-.535-.397-.2-.716-.401-1.113-.602-.318-.2-.716-.401-1.034-.668l-1.034-.669-.955-.735-.954-.803-.478-.4-.397-.469c-.239-.334-.557-.601-.796-1.003-.238-.334-.477-.668-.636-1.07l-.477-1.203-.637-1.537 2.227.2 1.67.134c.558.067 1.114.134 1.671.134l1.67.067c.557.066 1.114.066 1.671.066h1.67l1.591-.066c.557 0 1.114-.067 1.591-.067l1.59-.134 1.592-.2c.557-.067 1.034-.134 1.59-.201a13.158 13.158 0 0 0 1.591-.267c.557-.067 1.035-.201 1.591-.335a21.81 21.81 0 0 0 3.023-.802c.477-.134.954-.334 1.432-.468.238-.067.477-.134.716-.267.238-.067.477-.2.636-.268l-.477 3.343c-.478-.334-.875-.669-1.273-1.003l-1.193-1.003a29.938 29.938 0 0 1-2.227-2.072l-1.034-1.07a16.729 16.729 0 0 1-.955-1.136c-.318-.401-.636-.736-.954-1.137-.319-.401-.637-.802-.875-1.203-.319-.401-.557-.803-.875-1.204l-.796-1.27c-.238-.401-.477-.869-.716-1.27a7.287 7.287 0 0 1-.636-1.337l-.636-1.337-.478-1.404-.238-.669-.16-.735-.317-1.404-1.035-4.212 5.012 1.605 2.227.668 2.227.669c.716.2 1.511.4 2.307.601.795.201 1.511.402 2.307.602 1.51.401 3.102.736 4.693 1.07l4.772 1.003a240.72 240.72 0 0 0 9.545 1.805l4.773.869 4.772.802-2.784 3.744c-.318-.401-.557-.669-.795-1.003l-.796-1.003a55.655 55.655 0 0 1-1.431-2.072c-.478-.669-.875-1.404-1.353-2.14-.238-.334-.397-.735-.636-1.07-.239-.334-.398-.735-.557-1.136-.159-.4-.397-.735-.557-1.136l-.954-1.337c-.16-.401-.318-.803-.477-1.204-.16-.4-.239-.802-.398-1.27-.08-.401-.239-.802-.318-1.27-.08-.468-.16-.87-.16-1.337v-1.404c.08-.468.16-1.003.24-1.471l.795-4.345 3.34 3.543c.398.468.876.936 1.512 1.404.318.2.636.468.954.668.319.2.637.401 1.034.602l2.148 1.203c.716.401 1.511.736 2.307 1.137a72.484 72.484 0 0 0 4.772 2.005l5.012 1.805c1.67.602 3.34 1.137 5.09 1.739l5.091 1.604c3.5 1.07 7 2.14 10.42 3.075z" />
                </g>
            </g>
            <g id="LeftEar--group">
                <path fill="#eee" stroke="#000" stroke-miterlimit="10" stroke-width="13.92" d="M632.016 402.941s36.562-1.9 36.085-33.081c-.637-40.726-40.566-37.634-56.26-28.789-24.702 19.253-1.828 7.078 4.305 21.322 5.378 12.49 10.366 31.214 15.87 40.548z" />
                <path fill="#eee" d="M618.943 407.483c8.273-2.386 49.635-6.443 49.158-37.544-.637-40.725-40.647-33.964-48.6-30.703-15.67 6.443-27.602 20.363-24.023 42.635" />
                <path d="M618.943 407.483s.716-.318 1.989-.795a172.894 172.894 0 0 1 5.807-1.91 181.09 181.09 0 0 0 8.829-3.101c3.34-1.273 7-2.864 10.738-5.011 1.83-1.034 3.738-2.228 5.488-3.58 1.83-1.352 3.5-2.863 5.091-4.534 1.511-1.67 2.943-3.58 3.977-5.568 1.114-2.068 1.83-4.215 2.307-6.522.239-1.193.398-2.386.398-3.58.08-1.272 0-2.386-.08-3.738l-.08-1.034-.079-.955-.239-1.909c-.159-1.272-.397-2.625-.715-3.818a30.6 30.6 0 0 0-2.546-7.159c-1.193-2.147-2.545-4.136-4.295-5.806-3.5-3.261-8.113-5.33-13.204-6.284-5.09-.954-10.42-.875-15.431-.08-1.273.16-2.466.398-3.66.716l-1.67.478-.318.08h-.08s-.079 0 0 0h-.079l-.239.079-.954.397c-.636.239-1.114.478-1.67.716-.557.239-1.114.478-1.67.796a54.828 54.828 0 0 0-3.103 1.67c-3.977 2.386-7.398 5.25-9.943 8.352-2.545 3.182-4.375 6.523-5.568 9.704a38.708 38.708 0 0 0-2.147 8.75c-.319 2.545-.398 4.613-.478 5.966v2.147s-.08-.159-.159-.557a23.25 23.25 0 0 0-.477-1.59c-.318-1.353-.875-3.42-1.193-6.046-.239-2.704-.398-5.965.238-9.783a39.465 39.465 0 0 1 1.512-6.046c.716-2.068 1.75-4.215 2.943-6.283 2.466-4.216 6.204-8.193 10.738-11.534a39.515 39.515 0 0 1 3.58-2.307c.636-.398 1.272-.716 1.908-1.034.637-.318 1.353-.716 1.989-1.034l.875-.398.239-.08h.08l.158-.079.16-.08c.238-.079.397-.158.636-.238a26.404 26.404 0 0 1 2.306-.795c1.512-.478 2.943-.796 4.455-1.114 3.022-.557 6.045-.954 9.147-1.034 3.102-.08 6.364.08 9.625.636a39.994 39.994 0 0 1 9.704 2.943 30.406 30.406 0 0 1 8.67 5.887c2.545 2.465 4.614 5.408 6.125 8.51a29.86 29.86 0 0 1 1.909 4.773 25.458 25.458 0 0 1 1.193 4.852c.318 1.591.477 3.182.636 4.773.08.795.16 1.59.16 2.386l.079 1.193v1.114c0 1.511-.08 3.182-.239 4.772-.159 1.591-.477 3.182-.875 4.773-.795 3.102-2.147 6.045-3.818 8.67a29.763 29.763 0 0 1-5.806 6.682c-2.148 1.909-4.375 3.42-6.602 4.693a50.892 50.892 0 0 1-6.682 3.181c-4.375 1.75-8.431 2.784-12.09 3.5-3.66.716-6.841 1.193-9.386 1.432-2.625.318-4.693.477-6.046.636-1.272 0-2.068.16-2.068.16z" />
                <path d="m 611.705,387.677 v -0.875 c 0,-0.556 0,-1.352 0.16,-2.386 0.158,-2.068 0.715,-4.932 1.908,-8.352 0.636,-1.67 1.352,-3.5 2.386,-5.33 1.034,-1.829 2.228,-3.658 3.739,-5.408 1.511,-1.75 3.34,-3.42 5.488,-4.773 l 0.796,-0.477 0.795,-0.477 a 11.793,11.793 0 0 1 1.75,-0.796 44.166,44.166 0 0 1 1.83,-0.715 l 0.238,-0.08 0.16,-0.08 h 0.079 l 0.398,-0.08 0.795,-0.238 c 2.466,-0.716 5.011,-1.034 7.556,-0.875 2.546,0.16 5.17,0.875 7.318,2.148 2.148,1.273 3.898,3.023 5.012,4.852 1.193,1.83 1.909,3.739 2.386,5.488 0.875,3.58 0.636,6.523 0.398,8.591 -0.16,1.034 -0.398,1.75 -0.557,2.307 -0.16,0.477 -0.239,0.795 -0.239,0.795 v -0.795 c 0,-0.557 0,-1.352 -0.08,-2.307 -0.159,-1.909 -0.715,-4.693 -2.068,-7.636 a 14.486,14.486 0 0 0 -1.193,-2.148 c -0.477,-0.716 -0.954,-1.431 -1.511,-2.068 -0.557,-0.636 -1.193,-1.272 -1.909,-1.75 -0.716,-0.557 -1.432,-0.954 -2.227,-1.352 -0.796,-0.398 -1.67,-0.557 -2.546,-0.795 -0.477,-0.08 -0.875,-0.16 -1.352,-0.16 a 4.325,4.325 0 0 0 -1.432,0 c -1.909,0.08 -3.897,0.478 -5.727,1.114 l -0.795,0.318 -0.398,0.16 h -0.159 0.08 l -0.16,0.079 c -0.477,0.239 -0.874,0.398 -1.352,0.636 -0.397,0.239 -0.875,0.478 -1.272,0.716 l -0.637,0.398 -0.636,0.398 a 33.593,33.593 0 0 0 -4.454,3.738 c -1.353,1.352 -2.546,2.864 -3.66,4.295 a 61.535,61.535 0 0 0 -3.022,4.296 c -1.75,2.784 -3.182,5.25 -4.136,7 -1.193,1.59 -1.75,2.624 -1.75,2.624 z" />
            </g>
            <g id="Face--group">
                <path d="m 510.686,363.178 c 0,4.057 -3.34,7.398 -7.397,7.398 a 7.383,7.383 0 0 1 -7.398,-7.398 7.383,7.383 0 0 1 7.398,-7.397 c 4.056,0 7.397,3.34 7.397,7.397 z" />
                <path d="m 425.178,383.7 c 0,4.057 -3.34,7.398 -7.397,7.398 -4.057,0 -7.398,-3.341 -7.398,-7.398 0,-4.056 3.34,-7.397 7.398,-7.397 a 7.383,7.383 0 0 1 7.397,7.397 z" />
                <path d="m 432.655,374.553 c -10.42,7.795 -7.238,17.5 4.375,18.93 11.693,1.512 12.568,2.228 23.306,-5.806 11.692,-8.75 13.124,-23.306 0,-21.874 -13.125,1.511 -21.874,4.375 -27.681,8.75 z" />
            </g>
        </g>
        <g id="LeftLeg--group">
            <path fill="#eee" d="M512.4 655.2c-4.6-5.2-3.7-15.7-1.9-29.4 2.6-19.8 5-34.5 25.4-50.8 24.4-19.5 62.2-15 76.2-.5 3.6 3.7 6.7 10.9 7.3 18.8.9 11.4-22.2 42.4-44.8 51.8-22.6 9.6-54 19.3-62.2 10.1z" />
            <path d="M512.4 658.9c-1.2 0-2.3-.5-3-1.6-4.7-6.7-4.5-17.2-2.6-32 2.5-19 4.6-35.5 26.8-53.2 26.8-21.4 63.7-14 78.4.7 1.4 1.4 1.4 3.8 0 5.2-1.4 1.4-3.8 1.4-5.2 0-12.5-12.5-45.4-18.7-68.6-.1-18.9 15.1-21.4 28.2-24.1 48.4-1.4 11-2.3 21.8 1.3 26.7 1.2 1.7.8 4-.9 5.2-.6.5-1.4.7-2.1.7z" />
            <g class="remove--part">
                <path fill="#eee" d="M581.717 566.886s-19.487-1.75-27.76-6.045c1.352 6.284 2.864 10.897 2.864 10.897s-16.466.875-26.408-2.227c2.386 9.386 7.079 13.045 7.079 13.045" />
                <path d="M581.717 566.886c-1.193.08-2.386.16-3.579.16s-2.386.079-3.58 0c-2.386 0-4.851-.16-7.238-.398-1.193-.16-2.386-.239-3.58-.477-1.192-.16-2.385-.398-3.658-.637-2.386-.557-4.852-1.193-7.318-2.307l3.898-2.943.716 2.625.715 2.625.796 2.625.398 1.273.397 1.272 1.273 3.818-3.898.16-1.75.08h-5.09c-1.114 0-2.307-.08-3.42-.16-1.114-.08-2.307-.16-3.421-.318-1.114-.08-2.227-.239-3.42-.398-1.114-.159-2.227-.398-3.42-.557-.557-.08-1.114-.238-1.671-.397-.557-.16-1.114-.239-1.67-.478l-1.67-.477-1.671-.557 2.545-2.386c.08.557.239 1.193.318 1.75.16.557.239 1.193.398 1.75.16.557.318 1.193.477 1.75.08.318.16.557.239.875l.318.875c.08.318.239.557.318.875.08.318.239.557.318.875.24.557.478 1.113.796 1.67.318.557.557 1.114.875 1.59a18 18 0 0 0 1.034 1.592 11.367 11.367 0 0 1-1.59-1.114c-.478-.398-.955-.875-1.433-1.352-.954-.955-1.75-1.989-2.466-3.023l-.556-.795c-.16-.239-.318-.557-.478-.875-.159-.318-.318-.557-.477-.875l-.477-.875c-.318-.557-.557-1.193-.796-1.83a44.354 44.354 0 0 0-.715-1.829l-1.194-3.102 3.739.716 1.511.318c.478.08 1.034.16 1.591.239.557.08 1.034.159 1.591.238.557.08 1.034.16 1.59.16 1.035.079 2.148.158 3.183.238.556 0 1.034.08 1.59.08l1.591.079c1.114 0 2.148.08 3.261.08h3.262l3.26-.08 1.592-.08 1.59-.079-2.624 3.898-.239-.716-.239-.716-.397-1.432c-.239-.955-.477-1.83-.716-2.784-.239-.954-.477-1.909-.636-2.784l-.478-2.863-.954-5.728 4.852 2.705c.477.239.875.477 1.352.716.477.238.955.477 1.511.636 1.034.398 2.068.796 3.182 1.193 2.148.716 4.375 1.432 6.682 2.068 2.227.637 4.534 1.273 6.84 1.91l3.42.954c1.194.318 2.387.636 3.5.954z" />
            </g>
        </g>
        <g id="LeftFoot--group">
            <path fill="#eee" d="M518.879 649.929s-4.932 28.715-32.056 28.715c-27.124 0-15.59-32.852-18.93-54.248-3.262-21.397-16.466-49.317 3.26-62.441 19.727-13.125 43.59 25.453 47.646 40.248 5.807 19.806 5.012 32.135.08 47.726z" />
            <path d="M479.744 564.261c-2.068 0-3.977.637-5.807 1.83-11.613 7.795-9.306 21.795-4.374 42.396 1.193 5.09 2.465 10.34 3.181 15.272 1.034 6.364.796 13.522.478 20.443-.319 10.738-.716 21.794 3.897 26.567 1.989 2.068 5.17 3.102 9.625 3.102 22.51 0 27.044-23.704 27.203-24.658.08-.239.08-.398.16-.637 4.374-13.92 5.726-25.214 0-44.782-3.66-13.284-9.784-39.85-34.363-39.533zm7.08 119.394c-7.16 0-12.807-2.068-16.705-6.125-7.477-7.795-7.079-21-6.681-33.726.239-6.443.398-13.125-.398-18.613-.716-4.534-1.83-9.306-3.022-14.477-4.614-19.09-9.784-40.725 8.51-52.895 3.5-2.307 7.319-3.5 11.296-3.5 36.032-.16 40.328 33.726 43.828 46.532 6.283 21.715 4.852 34.92 0 50.112-2.069 11.613-12.33 32.692-36.829 32.692z" />
            <g class="remove--part">
                <path d="m 479.571,574.392 a 5.807,8.113 -9.939 0 1 -7.12,-6.99 5.807,8.113 -9.939 0 1 4.32,-8.993 5.807,8.113 -9.939 0 1 7.12,6.989 5.807,8.113 -9.939 0 1 -4.32,8.994 z m 11.603,2.458 a 8.511,6.125 89.223 0 1 -6.24,-8.427 8.511,6.125 89.223 0 1 6.009,-8.593 8.511,6.125 89.223 0 1 6.24,8.427 8.511,6.125 89.223 0 1 -6.01,8.593 z m 10.774,8.934 a 6.125,8.51 9.027 0 1 -4.713,-9.367 6.125,8.51 9.027 0 1 7.384,-7.444 6.125,8.51 9.027 0 1 4.714,9.366 6.125,8.51 9.027 0 1 -7.385,7.445 z m 6.352,-27.647 -5.727,8.829 7.397,2.466 z m -14,-9.387 -3.738,9.546 7.795,1.272 z m -19.726,-2.704 -1.591,10.977 8.67,-0.238 z m -15.431,9.944 1.67,10.896 8.352,-2.147 z m 4.215,38.418 c 0.955,-9.147 12.886,-16.783 20.92,-14.715 12.33,3.181 18.374,13.363 18.295,19.726 -1.273,13.045 -12.727,2.148 -20.284,1.114 -7.477,-0.955 -19.885,2.943 -18.93,-6.125 z m 5.06,-14.655 a 7.477,5.33 78.13 0 1 -6.753,-6.22 7.477,5.33 78.13 0 1 3.677,-8.414 7.477,5.33 78.13 0 1 6.754,6.22 7.477,5.33 78.13 0 1 -3.678,8.414 z"/>
            </g>
        </g>
        <g id="LeftArm--group">
            <g id="BeforeLeftArm--part"/>
            <path d="m 478,413.3 c -6.4,2.9 -12.4,6.6 -17.6,11.1 -12.1,10.6 -12.6,19.4 -10.8,24.8 2.5,7.7 11.1,13.4 21.9,14.6 7.1,0.7 16.2,-1.3 26.7,-3.6 13.9,-3.1 29.7,-6.6 42.9,-3.9 19.6,4.1 33.3,15 53.1,32.7 l 10.3,9.2 c 1.5,1.3 3.9,1.2 5.2,-0.4 1.3,-1.5 1.2,-3.9 -0.4,-5.2 l -2.9,-2.6 c -24,-21.7 -39.9,-36 -63.8,-41 -14.8,-3.1 -31.3,0.6 -46,3.9 -9.5,2.1 -18.5,4.1 -24.3,3.5 -7.8,-0.8 -14.1,-4.6 -15.7,-9.5 -1.5,-4.7 1.6,-10.7 8.7,-17 20.7,-18.2 59.1,-23.7 87.5,-12.5 4.7,1.9 7.4,-5.1 2.7,-6.9 -11.4,-4.4 -24.6,-6.6 -37.7,-6.2 -10.1,0.4 -30.5,4.8 -39.8,9 z" />
            <path fill="#eee" d="M615.4 451c11.7 12.2 17 60.3-6 41.6l-2.9-2.6c-24-21.7-39.9-36-63.8-41-14.8-3.1-31.3.6-46 3.9-9.5 2.1-18.5 4.1-24.3 3.5-7.8-.8-14.1-4.6-15.7-9.5-1.5-4.7 1.6-10.7 8.7-17 20.7-18.2 59.3-24 87.5-12.5 4.6 2 46.1 16.5 62.5 33.6z" />
            <path d="m477.596 471.038.319-10.102 6.84 1.273zm-13.681-1.591 2.148-9.863 6.522 2.465zm-13.283-6.443 4.454-10.102 6.443 4.136zm-7.796-12.488 6.92-8.59 5.17 5.647z" />
        </g>
        <g id="RightHand--group">
            <g id="BeforeRightHand--part"/>
            <path fill="#eee" d="M387.395 427.29c-8.193-3.262-28.794 10.658-26.328 23.862 2.466 13.125 17.26 13.125 27.124 3.261 9.863-9.863 7.159-23.942-.796-27.124z" />
            <path d="M384.611 430.471c-3.977 0-11.215 3.58-16.067 9.386-1.75 2.148-4.614 6.284-3.818 10.58 1.113 6.044 5.09 7.317 8.272 7.317 4.136 0 8.83-2.227 12.568-5.966 4.136-4.136 6.045-9.624 5.011-14.635-.636-3.102-2.307-5.568-4.534-6.443-.398-.16-.875-.239-1.432-.239zm-11.613 34.601c-8.034 0-14-5.09-15.51-13.284-1.035-5.408.874-11.295 5.329-16.624 5.806-7 14.954-12.01 21.715-12.01 1.511 0 2.943.238 4.216.795 4.533 1.83 7.954 6.204 9.067 11.772 1.512 7.477-1.034 15.431-7 21.397-5.17 5.011-11.613 7.954-17.817 7.954z" />
            <path d="m379.998 472.072-.636-10.261-7.557 2.147zm17.261-8.432-5.25-9.704-6.84 5.33zm7.874-16.863-9.306-6.045-3.977 7.636z" />
        </g>
    </g>
</svg>
