<svg xmlns="http://www.w3.org/2000/svg" xml:space="preserve" width="60" height="90"><defs><clipPath id="a" clipPathUnits="userSpaceOnUse"><path fill="#005683" d="M45.266 22.097c-2.291-2.053-3.79-3.22-6.062-3.689-1.527-.316-3.531-.003-5.14.354-1.217.27-2.233.504-3.052.417-1.257-.132-1.908-.502-2.192-1.394-.2-.628-.149-1.292 1.25-2.522.583-.513 2.505-1.583 3.268-1.93-2.443.176-3.872-.108-4.917-.663-1.73 1.73-4.538 3.175-5.593 2.707-.235-.104-.652-.143-.894-.392-.022.018-.281.201-.304.22.278.26.346.74.433 1.166.178.865-.107 1.517-.792 2.202-.596.596-1.002.756-1.715.756-.5 0-.962-.32-1.28-.622-2.163 3.61-2.395 5.634-2.505 8.14-.06 1.346.232 3.263.563 4.506 1.416 1.301 3.47 5.353 3.979 6.516.028.063.477.741.54.79 2.427 2.243 6.176 3.752 9.675 4.022-.044-.578-.102-1.646-.082-2.254.025-.746.065-1.532-.032-2.165-.08-.522-.259-1.11-.4-1.703-.488-2.27-1.008-4.475.783-5.748.404-.27.639-.363 1.101-.363 1.898 0 3.594 2.766 4.52 4.422 1.212-1.961 3.192-3.588 5.56-3.828 1.2-.122 2.385-.026 3.372.34.347-1.266.562-2.912.562-4.239 0-1.588-.254-3.715-.75-5.207" style="font-variation-settings:normal;display:inline;opacity:1;vector-effect:none;fill:none;fill-opacity:1;stroke:#000;stroke-width:.804051;stroke-linecap:butt;stroke-linejoin:miter;stroke-miterlimit:4;stroke-dasharray:none;stroke-dashoffset:0;stroke-opacity:1;-inkscape-stroke:none;stop-color:#000;stop-opacity:1"/></clipPath><clipPath id="b" clipPathUnits="userSpaceOnUse"><path fill="#005683" d="M45.266 22.097c-2.291-2.053-3.79-3.22-6.062-3.689-1.527-.316-3.531-.003-5.14.354-1.217.27-2.233.504-3.052.417-1.257-.132-1.908-.502-2.192-1.394-.2-.628-.149-1.292 1.25-2.522.583-.513 2.505-1.583 3.268-1.93-2.443.176-3.872-.108-4.917-.663-1.73 1.73-4.538 3.175-5.593 2.707-.235-.104-.652-.143-.894-.392-.022.018-.281.201-.304.22.278.26.346.74.433 1.166.178.865-.107 1.517-.792 2.202-.596.596-1.002.756-1.715.756-.5 0-.962-.32-1.28-.622-2.163 3.61-2.395 5.634-2.505 8.14-.06 1.346.232 3.263.563 4.506 1.416 1.301 3.47 5.353 3.979 6.516.028.063.477.741.54.79 2.427 2.243 6.176 3.752 9.675 4.022-.044-.578-.102-1.646-.082-2.254.025-.746.065-1.532-.032-2.165-.08-.522-.259-1.11-.4-1.703-.488-2.27-1.008-4.475.783-5.748.404-.27.639-.363 1.101-.363 1.898 0 3.594 2.766 4.52 4.422 1.212-1.961 3.192-3.588 5.56-3.828 1.2-.122 2.385-.026 3.372.34.347-1.266.562-2.912.562-4.239 0-1.588-.254-3.715-.75-5.207" style="font-variation-settings:normal;display:inline;opacity:1;vector-effect:none;fill:none;fill-opacity:1;stroke:#000;stroke-width:.804051;stroke-linecap:butt;stroke-linejoin:miter;stroke-miterlimit:4;stroke-dasharray:none;stroke-dashoffset:0;stroke-opacity:1;-inkscape-stroke:none;stop-color:#000;stop-opacity:1"/></clipPath><clipPath id="c" clipPathUnits="userSpaceOnUse"><path fill="#005683" d="M45.266 22.097c-2.291-2.053-3.79-3.22-6.062-3.689-1.527-.316-3.531-.003-5.14.354-1.217.27-2.233.504-3.052.417-1.257-.132-1.908-.502-2.192-1.394-.2-.628-.149-1.292 1.25-2.522.583-.513 2.505-1.583 3.268-1.93-2.443.176-3.872-.108-4.917-.663-1.73 1.73-4.538 3.175-5.593 2.707-.235-.104-.652-.143-.894-.392-.022.018-.281.201-.304.22.278.26.346.74.433 1.166.178.865-.107 1.517-.792 2.202-.596.596-1.002.756-1.715.756-.5 0-.962-.32-1.28-.622-2.163 3.61-2.395 5.634-2.505 8.14-.06 1.346.232 3.263.563 4.506 1.416 1.301 3.47 5.353 3.979 6.516.028.063.477.741.54.79 2.427 2.243 6.176 3.752 9.675 4.022-.044-.578-.102-1.646-.082-2.254.025-.746.065-1.532-.032-2.165-.08-.522-.259-1.11-.4-1.703-.488-2.27-1.008-4.475.783-5.748.404-.27.639-.363 1.101-.363 1.898 0 3.594 2.766 4.52 4.422 1.212-1.961 3.192-3.588 5.56-3.828 1.2-.122 2.385-.026 3.372.34.347-1.266.562-2.912.562-4.239 0-1.588-.254-3.715-.75-5.207" style="font-variation-settings:normal;display:inline;opacity:1;vector-effect:none;fill:none;fill-opacity:1;stroke:#000;stroke-width:.804051;stroke-linecap:butt;stroke-linejoin:miter;stroke-miterlimit:4;stroke-dasharray:none;stroke-dashoffset:0;stroke-opacity:1;-inkscape-stroke:none;stop-color:#000;stop-opacity:1"/></clipPath><clipPath id="d" clipPathUnits="userSpaceOnUse"><path fill="#005683" d="M45.266 22.097c-2.291-2.053-3.79-3.22-6.062-3.689-1.527-.316-3.531-.003-5.14.354-1.217.27-2.233.504-3.052.417-1.257-.132-1.908-.502-2.192-1.394-.2-.628-.149-1.292 1.25-2.522.583-.513 2.505-1.583 3.268-1.93-2.443.176-3.872-.108-4.917-.663-1.73 1.73-4.538 3.175-5.593 2.707-.235-.104-.652-.143-.894-.392-.022.018-.281.201-.304.22.278.26.346.74.433 1.166.178.865-.107 1.517-.792 2.202-.596.596-1.002.756-1.715.756-.5 0-.962-.32-1.28-.622-2.163 3.61-2.395 5.634-2.505 8.14-.06 1.346.232 3.263.563 4.506 1.416 1.301 3.47 5.353 3.979 6.516.028.063.477.741.54.79 2.427 2.243 6.176 3.752 9.675 4.022-.044-.578-.102-1.646-.082-2.254.025-.746.065-1.532-.032-2.165-.08-.522-.259-1.11-.4-1.703-.488-2.27-1.008-4.475.783-5.748.404-.27.639-.363 1.101-.363 1.898 0 3.594 2.766 4.52 4.422 1.212-1.961 3.192-3.588 5.56-3.828 1.2-.122 2.385-.026 3.372.34.347-1.266.562-2.912.562-4.239 0-1.588-.254-3.715-.75-5.207" style="font-variation-settings:normal;display:inline;opacity:1;vector-effect:none;fill:none;fill-opacity:1;stroke:#000;stroke-width:.804051;stroke-linecap:butt;stroke-linejoin:miter;stroke-miterlimit:4;stroke-dasharray:none;stroke-dashoffset:0;stroke-opacity:1;-inkscape-stroke:none;stop-color:#000;stop-opacity:1"/></clipPath><clipPath id="e" clipPathUnits="userSpaceOnUse"><path fill="#005683" d="M45.266 22.097c-2.291-2.053-3.79-3.22-6.062-3.689-1.527-.316-3.531-.003-5.14.354-1.217.27-2.233.504-3.052.417-1.257-.132-1.908-.502-2.192-1.394-.2-.628-.149-1.292 1.25-2.522.583-.513 2.505-1.583 3.268-1.93-2.443.176-3.872-.108-4.917-.663-1.73 1.73-4.538 3.175-5.593 2.707-.235-.104-.652-.143-.894-.392-.022.018-.281.201-.304.22.278.26.346.74.433 1.166.178.865-.107 1.517-.792 2.202-.596.596-1.002.756-1.715.756-.5 0-.962-.32-1.28-.622-2.163 3.61-2.395 5.634-2.505 8.14-.06 1.346.232 3.263.563 4.506 1.416 1.301 3.47 5.353 3.979 6.516.028.063.477.741.54.79 2.427 2.243 6.176 3.752 9.675 4.022-.044-.578-.102-1.646-.082-2.254.025-.746.065-1.532-.032-2.165-.08-.522-.259-1.11-.4-1.703-.488-2.27-1.008-4.475.783-5.748.404-.27.639-.363 1.101-.363 1.898 0 3.594 2.766 4.52 4.422 1.212-1.961 3.192-3.588 5.56-3.828 1.2-.122 2.385-.026 3.372.34.347-1.266.562-2.912.562-4.239 0-1.588-.254-3.715-.75-5.207" style="font-variation-settings:normal;display:inline;opacity:1;vector-effect:none;fill:none;fill-opacity:1;stroke:#000;stroke-width:.804051;stroke-linecap:butt;stroke-linejoin:miter;stroke-miterlimit:4;stroke-dasharray:none;stroke-dashoffset:0;stroke-opacity:1;-inkscape-stroke:none;stop-color:#000;stop-opacity:1"/></clipPath></defs><g fill="none" fill-rule="evenodd" style="display:inline"><g style="display:inline"><path fill="#005683" d="M43.279 24.832c-2.85-2.554-4.714-4.005-7.539-4.589-1.899-.392-4.392-.003-6.392.44-1.515.337-2.778.628-3.796.52-1.564-.165-2.373-.625-2.727-1.734-.248-.781-.184-1.607 1.556-3.138.723-.637 3.114-1.967 4.064-2.4-3.04.22-4.816-.134-6.116-.824-2.152 2.15-5.644 3.95-6.956 3.367-.292-.13-.81-.178-1.111-.488-.029.022-.35.25-.38.273.347.324.431.921.54 1.452.221 1.075-.133 1.886-.985 2.737-.742.742-1.246.941-2.134.941-.62 0-1.195-.397-1.592-.774-2.69 4.49-2.977 7.008-3.115 10.124-.074 1.674.289 4.058.7 5.604 1.762 1.618 4.316 6.658 4.949 8.104.034.08.594.922.671.982 3.02 2.79 7.682 4.667 12.033 5.003-.054-.72-.127-2.047-.101-2.804.03-.927.08-1.905-.04-2.692-.1-.649-.322-1.381-.499-2.118-.605-2.822-1.253-5.566.975-7.149.503-.335.794-.45 1.37-.45 2.36 0 4.469 3.44 5.62 5.498 1.508-2.44 3.97-4.462 6.916-4.76 1.492-.152 2.966-.033 4.193.421.433-1.573.7-3.62.7-5.27 0-1.976-.316-4.621-.934-6.477" style="display:inline;stroke:#000;stroke-width:1;stroke-dasharray:none;stroke-opacity:1" transform="translate(-.19 21.333)"/><path fill="#00709c" d="M30.929 20.846a65.14 65.14 0 0 0-1.58.336c-1.516.337-2.825.628-3.843.52-1.564-.165-2.803-.987-3.157-2.097-.248-.78-.18-2.033 1.56-3.564.025-.022.053-.041.079-.063-1.12-.366-2.3-.599-3.522-.681-1.93 1.303-4.362 2.045-5.297 1.63a3.038 3.038 0 0 1-.917-.66 3.923 3.923 0 0 1-.084.068c.346.324.598.778.707 1.308.221 1.075-.155 2.226-1.008 3.078-.742.742-1.676 1.167-2.564 1.167-.62 0-1.15-.216-1.548-.593a18.683 18.683 0 0 0-2.773 9.812c0 1.675.22 3.297.632 4.842 1.182.97 2.877 3.884 4.057 6.138a14.476 14.476 0 0 0 7.797 2.268c1.586 0 3.11-.257 4.54-.726-.058-.253-.119-.51-.182-.773-.657-2.746-1.403-5.857 1.224-7.608a2.892 2.892 0 0 1 1.627-.506c1.815 0 3.5 1.683 4.687 3.443a14.472 14.472 0 0 0 2.66-8.378 14.47 14.47 0 0 0-3.095-8.961" style="display:inline" transform="translate(-.19 21.333)"/><path fill="#fff" d="M18.215 40.973a7.914 7.914 0 0 1-2.264-.16c-.12-1.205-.22-2.559-.137-4.267.082-1.709.347-3.772.954-6.393 2.205 5.708 4.633 9.893 4.65 9.916-.412.197-1.668.796-3.203.904m-3.698-.608c-3.155-1.433-5.022-3.847-5.835-6.557-.814-2.71-.574-5.716.485-8.33.04 2.587.423 4.89 1.273 7.255.85 2.365 2.167 4.793 4.077 7.632m8.61-1.305c.08-.497.1-.978.234-1.442.197-.676.408-1.043.408-1.043.955-3.418 2.143-6.759 2.931-10.236.189-.835.353-2.133.058-3.582 2.111 3.296 2.519 7.912.199 11.996 0 0 .418.061.633.126.215.064.648.265.648.265 1.119-2.1 1.741-4.462 1.649-6.776a12.627 12.627 0 0 0-.344-2.482 11.806 11.806 0 0 0-.778-2.218c-.325-.693-.843-1.506-1.278-2.098l-.94.134c-1.144.03-2.378.013-3.568-1.107-.274.175.065-.104-.239.173-.608.552-.867 1.615.51 3.652.746 1.101 1.142 2.093 1.204 3.26.063 1.165-.208 2.505-.797 4.302-.213.885-.351 1.462-.484 2.045s-.26 1.173-.45 2.085c-.91-2.173-1.735-4.184-2.48-6.243a64.432 64.432 0 0 1-1.995-6.53c.515-.076 1.065-.157 1.41-.301.346-.145.488-.353.188-.685-.038-.042-1.414.072-2.787.197a254.93 254.93 0 0 0-2.77.267.559.559 0 0 0-.401.308c-.07.132-.089.256-.09.258-.02.193-.014.29.145.328.16.038.47.02 1.059-.016.155.835.268 1.443.438 2.147.17.704.397 1.504.78 2.723-.277 1.15-.558 2.32-.78 3.663a32.536 32.536 0 0 0-.425 4.7c-1.237-2.46-2.103-4.546-2.683-6.55-.58-2.003-.875-3.926-.97-6.062.176-.107.38-.14.58-.185.2-.045.395-.104.55-.262a.816.816 0 0 0 .204-.442c.02-.156-.02-.293-.153-.32-.467-.102-.88.014-1.28.176-.4.162-.789.38-1.209.468v-.01c.413-.651 1.378-1.858 1.378-1.858a2.372 2.372 0 0 1-.695-.058c-.18.236-.48.626-.648.875a14.94 14.94 0 0 0-1.632 3.213c-.828 2.27-1.104 4.749-.656 7.12.448 2.37 1.62 4.635 3.69 6.479 3.95 3.52 8.34 3.24 11.84 1.023 0 0-.079-.539-.1-.8-.02-.26-.027-.76-.027-.76-.049.037-.028.047-.078.084m-4.38-21.745a11.12 11.12 0 0 0-3.811 1.01c.002.339-.056.571-.142.867 1.35-.726 2.7-.975 4.148-1.012 2.031.14 3.3.781 3.3.781-.013-.653.244-1.117.244-1.117s-1.1-.344-1.753-.454c-.652-.11-1.294-.104-1.944-.073" style="display:inline" transform="translate(-.19 21.333)"/></g><g style="display:inline" transform="translate(-16.57 28.951)"><path d="M46.65 25.506s-7.194-3.654-16-3.654c-8.804 0-15.34 3.818-15.34 3.818 1.038-7.579 6.92-13.746 15.725-14.02 8.746.165 14.577 6.332 15.615 13.856z" clip-path="url(#a)" style="display:inline;fill:red;stroke:#000;stroke-width:1.50495;stroke-linecap:round;stroke-opacity:1;paint-order:fill markers stroke;stop-color:#000" transform="translate(3.36 -10.29) scale(1.244)"/><path d="M15.208 27.808s7.41-3.792 15.552-3.585C40.6 24.473 46.97 28 46.97 28c-.544 8.868-7.137 15.642-15.936 15.422-8.746-.218-15.665-6.431-15.826-15.614Z" clip-path="url(#b)" style="display:inline;fill:#fff;fill-opacity:1;stroke:#000;stroke-width:1.50016;stroke-linecap:round;stroke-opacity:1;paint-order:fill markers stroke;stop-color:#000" transform="translate(3.36 -10.29) scale(1.244)"/><circle cx="31.035" cy="27.575" r="15.886" clip-path="url(#c)" style="display:inline;fill:none;fill-rule:evenodd;stroke:#000;stroke-width:1.59953;stroke-linecap:round;stroke-dasharray:none;stroke-opacity:1;paint-order:fill markers stroke;stop-color:#000" transform="translate(3.36 -10.29) scale(1.244)"/><path d="m14.993 26.529 8.611-2.95 13.555-.16 9.808 3.19-16.585-4.546-15.389 4.466z" clip-path="url(#d)" style="display:inline;fill:none;stroke:#000;stroke-width:1.03842px;stroke-linecap:butt;stroke-linejoin:miter;stroke-opacity:1" transform="translate(3.36 -10.29) scale(1.244)"/><circle cx="30.82" cy="22.977" r="3.319" clip-path="url(#e)" style="display:inline;fill:#fff;fill-opacity:1;fill-rule:evenodd;stroke:#000;stroke-width:1.735;stroke-linecap:round;stroke-opacity:1;paint-order:fill markers stroke;stop-color:#000" transform="translate(3.36 -10.29) scale(1.244)"/><path fill="#005683" d="M59.657 17.192c-2.85-2.553-4.714-4.004-7.538-4.588-1.9-.392-4.393-.003-6.392.44-1.516.336-2.779.627-3.797.52-1.564-.165-2.373-.625-2.726-1.734-.25-.782-.185-1.608 1.555-3.138.724-.637 3.114-1.968 4.064-2.4-3.04.22-4.815-.134-6.116-.824-2.152 2.15-5.644 3.949-6.956 3.366-.291-.13-.81-.178-1.111-.487-.028.022-.35.25-.379.272.346.324.43.922.54 1.452.22 1.076-.133 1.886-.986 2.738-.742.742-1.246.94-2.133.94-.62 0-1.196-.397-1.593-.774-2.69 4.49-2.977 7.008-3.115 10.124-.074 1.674.289 4.059.7 5.605 1.762 1.618 4.316 6.657 4.95 8.103.034.08.593.923.67.983 3.02 2.79 7.682 4.667 12.034 5.003-.055-.72-.127-2.047-.102-2.804.03-.927.081-1.905-.04-2.693-.1-.648-.322-1.38-.498-2.117-.606-2.823-1.253-5.567.974-7.149.503-.336.795-.451 1.37-.451 2.36 0 4.47 3.44 5.62 5.498 1.508-2.439 3.97-4.461 6.917-4.76 1.492-.151 2.965-.032 4.192.422.433-1.573.7-3.621.7-5.271 0-1.975-.316-4.62-.933-6.476" style="font-variation-settings:normal;display:inline;vector-effect:none;fill:none;fill-opacity:1;stroke:#000;stroke-width:1;stroke-linecap:butt;stroke-linejoin:miter;stroke-miterlimit:4;stroke-dasharray:none;stroke-dashoffset:0;stroke-opacity:1;-inkscape-stroke:none;stop-color:#000"/></g></g></svg>