<svg version="1.1" id="wapuugotchi_svg__item" viewBox="0 0 1e3 1e3" xmlns="http://www.w3.org/2000/svg">
	<g class="Ball--group">
		<circle transform="rotate(-45.001 470.62 529.32)" cx="470.6" cy="529.3" r="133.5"/>
		<path d="M593 498.7c-82.7-33.9-170-30.9-244.5-.7 13.9-54.5 63.4-94.8 122.2-94.8 59 0 108.6 40.6 122.3 95.5z" fill="red"/>
		<path d="M596.7 533c-2 67.9-57.7 122.4-126.1 122.4-68.6 0-124.4-54.8-126.1-123.1 76.5-32.1 167-35.5 252.2.7z" fill="#fff"/>
		<path d="M596.7 529.3c0-10.6-1.3-20.8-3.8-30.6-29.7-12.2-60-19.6-90.1-22.7-5.4-13.4-18.6-22.9-33.9-22.9-15.4 0-28.6 9.6-34 23.1-30 3.3-59.1 10.7-86.6 21.8-2.6 10-3.9 20.5-3.9 31.3v3c29.4-12.3 60.8-20.4 93.2-23.7 6.4 10.5 18 17.5 31.2 17.5 13.3 0 24.9-7.1 31.3-17.7 32.2 3.1 64.7 11 96.4 24.5.2-1.1.2-2.4.2-3.6zM469 468.1c6 0 11.5 2.5 15.4 6.5-10.3-.5-20.7-.4-30.9.1 3.9-4 9.4-6.6 15.5-6.6zm0 43.1c-4.5 0-8.8-1.4-12.2-3.8 8.2-.3 16.3-.4 24.6-.1-3.6 2.4-7.9 3.9-12.4 3.9z"/>
		<path d="m469 468.1c-11.9 0-21.5 9.7-21.5 21.5 0 11.9 9.7 21.5 21.5 21.5 11.9 0 21.5-9.7 21.5-21.5s-9.7-21.5-21.5-21.5z" clip-rule="evenodd" fill="#fff" fill-rule="evenodd"/>
	</g>
</svg>
