<?xml version="1.0" encoding="utf-8"?>
<!-- Generator: Adobe Illustrator 25.2.0, SVG Export Plug-In . SVG Version: 6.00 Build 0)  -->
<svg version="1.1" id="Layer_1" xmlns="http://www.w3.org/2000/svg" xmlns:xlink="http://www.w3.org/1999/xlink" x="0px" y="0px"
	 viewBox="0 0 1000 1000" style="enable-background:new 0 0 1000 1000;" xml:space="preserve">
<style type="text/css">
	.st0{fill:#FF0000;}
	.st1{fill:#FFFFFF;}
	.st2{fill-rule:evenodd;clip-rule:evenodd;fill:#FFFFFF;}
</style>
<g id="Ball--group">
	
		<ellipse id="Ball--bg" transform="matrix(0.7071 -0.7071 0.7071 0.7071 -236.4377 487.8127)" cx="470.6" cy="529.3" rx="133.5" ry="133.5"/>
	<path id="Color2_1_" class="st0" d="M593,498.7c-82.7-33.9-170-30.9-244.5-0.7c13.9-54.5,63.4-94.8,122.2-94.8
		C529.7,403.2,579.3,443.8,593,498.7z"/>
	<path id="Color1_1_" class="st1" d="M596.7,533c-2,67.9-57.7,122.4-126.1,122.4c-68.6,0-124.4-54.8-126.1-123.1
		C421,500.2,511.5,496.8,596.7,533z"/>
	<path id="Belt" d="M596.7,529.3c0-10.6-1.3-20.8-3.8-30.6c-29.7-12.2-60-19.6-90.1-22.7c-5.4-13.4-18.6-22.9-33.9-22.9
		c-15.4,0-28.6,9.6-34,23.1c-30,3.3-59.1,10.7-86.6,21.8c-2.6,10-3.9,20.5-3.9,31.3c0,1,0,2,0,3c29.4-12.3,60.8-20.4,93.2-23.7
		c6.4,10.5,18,17.5,31.2,17.5c13.3,0,24.9-7.1,31.3-17.7c32.2,3.1,64.7,11,96.4,24.5C596.7,531.8,596.7,530.5,596.7,529.3z
		 M469,468.1c6,0,11.5,2.5,15.4,6.5c-10.3-0.5-20.7-0.4-30.9,0.1C457.4,470.7,462.9,468.1,469,468.1z M469,511.2
		c-4.5,0-8.8-1.4-12.2-3.8c8.2-0.3,16.3-0.4,24.6-0.1C477.8,509.7,473.5,511.2,469,511.2z"/>
	<path id="Circle" class="st2" d="M469,468.1c-11.9,0-21.5,9.7-21.5,21.5c0,11.9,9.7,21.5,21.5,21.5c11.9,0,21.5-9.7,21.5-21.5
		C490.5,477.8,480.8,468.1,469,468.1z"/>
</g>
</svg>
