<svg xmlns="http://www.w3.org/2000/svg" viewBox="0 0 1000 1000">
  <path d="M436.6 504c-4.5 5.1-10.5 7.9-17 7.9-9.1 0-18.5-5.5-24.4-14.4-7.8-11.6-15.5-21.2-22.3-27.9l-4.8-4.7c-2-2-1.1-5.3 1.6-6.1l6.5-1.7c3.2-.9 6.4-2.7 9.1-5.5 3-3 4.8-6.7 5.2-10.4V430c0-1.3 1.5-2.1 2.5-1.3l9.3 6.9c.7.5 1.7 1.1 2.9 1.7 10.2 4.9 31.7 27.4 35.7 46.7 2.1 10.1-1.2 16.5-4.3 20z"/>
  <path fill="#fc0" d="M402.1 444.1c-1.5-.7-2.9-1.5-4.2-2.4-.5 5.5-3 11-7.3 15.3-3.7 3.7-8.1 6.2-12.5 7.4 8.7 8.6 17 19.8 23.2 29.1 4.5 6.7 11.6 11.1 18.3 11.1 4.1 0 8.1-1.6 11.4-5.4 13-14.8-17.3-49.6-28.9-55.1z" class="st0"/>
  <path d="M599.1 649.5c-9 25.7-26.4 50-50.3 70.3-23.8 20.3-51.8 34.7-81 41.6-6.9 1.6-14.1 2.5-21.5 2.5-30.8 0-58.9-13.9-74.8-27-13.6-11.1-21.2-23.3-20.9-33.5.4-12 6.7-20.7 16.8-23.3 2.1-.5 4.3-.8 6.7-.8 11.2 0 27.2 6.7 38.5 25.7 7.8 13.2 22 20.1 41.1 20.1h1.2c40.7-.8 87.6-31.2 109.1-70.8 7.7-14.1 13.2-29.6 17.1-40.8 1.9-5.4 3.6-10.1 5.1-13.5 1.3-3.1 4.1-9.4 10.4-9.4 4.1 0 7.6 1.8 9.9 5 5.5 7.6 3.3 23.3-7.4 53.9z"/>
  <path fill="#f80" d="M570.5 657.8c-22.7 41.7-72.5 73.9-115.5 74.7h-1.4c-21.6 0-38.3-8.4-47.4-23.8-9-15.1-22-22.1-32.1-22.1-1.7 0-3.3.2-4.8.6-7 1.8-11 7.6-11.3 16.4-.3 7.7 6.6 18 18.2 27.5 16.8 13.7 43.2 25.3 70.1 25.3 6.6 0 13.3-.7 19.8-2.3 57.2-13.5 108.5-57.4 126-107.1 5.4-15.3 16.7-49.2 4.5-49.2-4.5.1-10.8 31.8-26.1 60z" class="st1"/>
  <path d="M649.7 531.9c-2 24-6.7 45.1-13.9 62.9-8.5 20.9-20.3 36.6-35.1 46.8-34 23.4-64.8 26-76.4 26-1.3 0-2.5 0-3.8-.1-18.4-.8-26-4.4-32.7-7.5-5.9-2.8-11-5.2-24.9-5.7-37.5-1.5-67-9.9-83.1-23.6-.2-.1-.5-.4-.9-.7-4.8-3.5-19.3-14.3-25-24.7-5.3-9.7-6.2-22.3-2.3-31.4 13.4-31.2 24.5-40.5 33.5-48 3.6-3 6.4-5.3 8.8-8.7 2.2-3.1 3.8-7.1 4.9-12.2 0-.1 0-.2.1-.3 3.9-15 3.4-34.9 2.8-56-.2-5.7-.3-11.7-.4-17.5v-.1c0-18.6 9.6-40.7 25.7-59.2 18.1-20.8 41.6-33.6 66.1-36.2 20.2-2.1 34.3-3.1 45.9-3.1 43.7 0 58.6 14.8 82.2 48.4 7.5 10.6 12.1 22.5 16 33.7 11.1 30.4 15.9 76.5 12.5 117.2z"/>
  <path fill="#fc0" d="M358.5 576.7c-3 7-2.2 17.4 2 25 5.6 10.3 23 22.2 24.1 23.2 15.1 12.9 43.7 20.5 78.7 21.9 31.2 1.3 24.3 11.8 57.6 13.3 1.1 0 2.2.1 3.5.1 16.7 0 43.7-5 72.2-24.7 58-39.9 52.9-165.3 34-218.6-3.9-11.1-8.3-22.2-15.1-31.9-23.5-33.5-36.6-45.2-76.2-45.2-12.2 0-26.9 1.1-45.1 3.1-49.9 5.3-85.3 55.3-85.3 88.1.3 27.4 2.5 55.1-2.7 75.5-1.4 6.5-3.4 11.2-6 14.9-9.8 13.5-23.4 12.4-41.7 55.3z" class="st0"/>
  <path d="M384.3 648c-2.4 3.7-6.4 5.7-11.5 5.7-1.9 0-4-.3-6.2-.8-25-6-59.3-43.6-63.6-64.5-1.9-9.4-.2-18 5-24.4 4.6-5.7 11.4-8.8 18.9-8.8 6.8 0 13.6 2.5 19.8 7.3 12.2 9.4 32.9 50.5 37.3 60.7 2.5 5.8 4.9 17.7.3 24.8z"/>
  <path fill="#fc0" d="M310.1 586.8c3.8 18.2 36.2 53.6 58.1 58.8 1.7.4 3.2.6 4.5.6 3.4 0 4.7-1.3 5.4-2.3 2.3-3.5 1.5-12.1-1-17.9-6.1-13.9-25.3-50.3-35.1-57.8-4.9-3.8-10.2-5.8-15.3-5.8-5.3 0-10 2.2-13.2 6.1-3.6 4.7-4.8 11.2-3.4 18.3z" class="st0"/>
  <path d="M413.3 399.4c-.4 4.4-3.8 8.4-11.1 12.9-4.7 3-10.2 5.5-13.9 6.5-6.5 1.7-12.3 2.6-17.3 2.6-6.7 0-10.6-1.6-12.7-2.9-4.8-3-4.4-7.2-4.2-8.5.5-3.1 2.9-5.5 5.9-6.2 3.5-.8 13.5-5.8 23.6-12.6 4.2-2.9 10.7-4.8 16.1-4.8 5.8 0 9.1 2.2 10.8 4.1 2.1 2.4 3.1 5.5 2.8 8.9z"/>
  <path fill="#f80" d="M361.4 411.3c0 .3.4.7.9.9 1.1.7 3.6 1.8 8.8 1.8 4.3 0 9.5-.8 15.4-2.3 5.2-1.4 19.1-8.8 19.5-13 .1-1.3-.2-2.4-.9-3.2-1-1.1-2.8-1.7-5.3-1.7-3.9 0-8.9 1.5-11.9 3.5-8.5 5.7-20.5 12.5-26.1 13.7-.3.1-.4.2-.4.3z" class="st1"/>
  <path d="M516.4 328.1c1.6 0 3.2 0 4.8.1 20.6.6 39.5 6.5 55.9 17 11.2 7.2 17.5 11.4 25.9 25.2 1.5 2.5 9 .8 7.9-1.1-10.1-17.6-17.5-22.3-29.8-30.3-17.7-11.4-37.8-17.6-59.7-18.2-1.6 0-3.3-.1-5-.1-1.6 0-3.3 0-4.9.1-24.3.6-47.8 6.6-67.8 17.1-20.2 10.6-37.1 26.1-48.9 44.7-7.7 12.3-10.3 23.9-7.4 33.5 2.4 7.8 7.9 12.7 12.3 14.6 1.4.6 2.9.9 4.7.9 9.3 0 34.7-9.3 45.7-24.8 8.4 4.5 17.6 6.7 28.1 6.7 12.6 0 25-3.2 36.4-6.9 3-1 3.8-2.2 3.9-4.1 0-1.3-1.2-3.6-3.8-3.5-.3 0-.7.1-1 .2-11.2 3.6-23.3 6.9-35.4 6.9-9.3 0-18.6-2-27.4-7.4-.6-.4-1.3-.5-1.9-.5-1.3 0-2.5.6-3.2 1.8l-.1.1c-7.9 14.3-33.3 24.1-41.2 24.1-.7 0-1.3-.1-1.7-.3-2.8-1.2-6.6-4.6-8.2-10-2.3-7.5 0-17 6.6-27.4 22.5-35.7 63.4-57.1 110.6-58.3 1.4-.1 3-.1 4.6-.1"/>
  <path fill="#fc0" d="M516.6 399.4c-1-.4-2-.7-3-.3-19.7 6.3-42.5 12-62.8-.5-1.7-1.1-4-.5-5.1 1.2l-.1.1c-8.6 15.7-38.3 26-43 23.9-2.8-1.2-6.6-4.6-8.2-10-2.3-7.5 0-17 6.6-27.4 22.5-35.7 63.4-57.1 110.6-58.3 3.1-.1 6.3-.1 9.5 0 20.6.6 39.5 6.5 55.9 17 13.2 8.5 19.7 12.7 30.6 33.6 5.6 10.5-84.4 23.5-91 20.7z" class="st0"/>
  <path d="M701.4 357.1c-.5 1.7-1.2 3.4-2 5.2-5 10-17.7 23-38 29.1-4.5 1.4-9.3 2-14 2h-.1c-13 0-34.2-4.9-61.6-28.3-1.9-1.7-5.1-4.8-7.1-7-2.3-2.5-2.8-6.1-1.5-9.1s4.4-5.1 7.8-5.1h.5c13.9.8 30.1 1.2 48.4 1.2 8.1 0 14.8-.1 19.3-.1h4.5c7.4 0 13.3-.1 18.2-.1 8.1 0 13.7.1 17.1.2 2.9.1 5.6 1.5 7.3 3.9 1.5 2.3 2 5.2 1.2 8.1z"/>
  <path fill="#f80" d="M590.4 359.4c25.7 21.9 45.1 26.5 56.8 26.5h.1c4 0 8-.6 11.9-1.7 18.1-5.4 29.2-16.6 33.5-25.3.8-1.5 1.2-2.8 1.5-3.9.4-1.3-.6-2.6-1.9-2.7-3.3-.1-8.9-.2-16.7-.2-5.4 0-11.6 0-18.2.1-3.3 0-12.2.2-23.9.2-13.9 0-31.7-.2-48.8-1.2h-.1c-.9 0-1.5 1.1-.8 1.8 2 2.2 5 5.1 6.6 6.4z" class="st1"/>
  <path d="M417.6 376.2c-4.1 0-7.4 3.3-7.4 7.4 0 9.9 14.8 9.9 14.8 0 0-4.1-3.3-7.4-7.4-7.4zm85.6-20.5c-4.1 0-7.4 3.3-7.4 7.4 0 9.9 14.8 9.9 14.8 0 0-4.1-3.3-7.4-7.4-7.4zm-45.3 19.7c-7.4.8-12.3 2.5-15.6 4.9-5.9 4.4-4.1 9.9 2.5 10.7 6.6.8 7.1 1.2 13.2-3.3 6.5-4.9 7.3-13.1-.1-12.3z"/>
  <path fill="#fc0" d="M512.4 655.2c-4.6-5.2-3.7-15.7-1.9-29.4 2.6-19.8 5-34.5 25.4-50.8 24.4-19.5 62.2-15 76.2-.5 3.6 3.7 6.7 10.9 7.3 18.8.9 11.4-22.2 42.4-44.8 51.8-22.6 9.6-54 19.3-62.2 10.1z" class="st0"/>
  <path d="M512.4 658.9c-1.2 0-2.3-.5-3-1.6-4.7-6.7-4.5-17.2-2.6-32 2.5-19 4.6-35.5 26.8-53.2 26.8-21.4 63.7-14 78.4.7 1.4 1.4 1.4 3.8 0 5.2-1.4 1.4-3.8 1.4-5.2 0-12.5-12.5-45.4-18.7-68.6-.1-18.9 15.1-21.4 28.2-24.1 48.4-1.4 11-2.3 21.8 1.3 26.7 1.2 1.7.8 4-.9 5.2-.6.5-1.4.7-2.1.7z"/>
  <path d="M523.7 651.2c-.4 1.9-2 9.1-6.7 16.2-7 10.6-17.8 16.5-30.4 16.5-7.2 0-12.9-2.1-16.8-6.2-7.5-7.8-7.1-21-6.7-33.7v-.1c.2-6.4.4-13.1-.4-18.5-.7-4.4-1.8-9.1-3.1-14.5-2.4-10.2-4.6-20.1-4.3-28.7.4-10.7 4.7-18.9 12.8-24.4 3.5-2.4 7.4-3.5 11.4-3.5 9.3 0 18.9 6.2 28.7 18.6 7.1 8.9 13.1 20 15.4 28.1 6.4 21.8 4.9 34.9.1 50.2z"/>
  <path fill="#fc0" d="M477 670.8c2 2.1 5.2 3.1 9.6 3.1 22.6 0 27-23.7 27.2-24.7 0-.2.1-.4.1-.6 4.4-13.9 5.7-25.2 0-44.8-3.7-13.2-21.1-39.4-34.4-39.4-2 0-4 .6-5.8 1.9-11.7 7.8-9.3 21.8-4.4 42.4 1.2 5.1 2.5 10.4 3.2 15.3 1 6.4.8 13.5.5 20.4-.2 10.6-.6 21.6 4 26.4z" class="st0"/>
  <path d="M478 413.3c-6.4 2.9-12.4 6.6-17.6 11.1-12.1 10.6-12.6 19.4-10.8 24.8 2.5 7.7 11.1 13.4 21.9 14.6 7.1.7 16.2-1.3 26.7-3.6 13.9-3.1 29.7-6.6 42.9-3.9 19.6 4.1 33.3 15 53.1 32.7l10.3 9.2c1.5 1.3 3.9 1.2 5.2-.4 1.3-1.5 1.2-3.9-.4-5.2l-2.9-2.6c-24-21.7-39.9-36-63.8-41-14.8-3.1-31.3.6-46 3.9-9.5 2.1-18.5 4.1-24.3 3.5-7.8-.8-14.1-4.6-15.7-9.5-1.5-4.7 1.6-10.7 8.7-17 20.7-18.2 59.1-23.7 87.5-12.5 4.7 1.9 7.4-5.1 2.7-6.9-11.4-4.4-24.6-6.6-37.7-6.2-10.1.4-30.5 4.8-39.8 9z"/>
  <path fill="#fc0" d="M615.4 451c11.7 12.2 17 60.3-6 41.6l-2.9-2.6c-24-21.7-39.9-36-63.8-41-14.8-3.1-31.3.6-46 3.9-9.5 2.1-18.5 4.1-24.3 3.5-7.8-.8-14.1-4.6-15.7-9.5-1.5-4.7 1.6-10.7 8.7-17 20.7-18.2 59.3-24 87.5-12.5 4.6 2 46.1 16.5 62.5 33.6z" class="st0"/>
  <path d="M390.6 457c-5.2 5.1-11.7 8.1-17.8 8.1-8.1 0-14-5.1-15.6-13.3-1-5.4.9-11.3 5.4-16.7 5.8-6.9 14.9-12 21.7-12.1h.2c1.3 0 2.6.2 3.8.6h.2l.1.1c4.5 1.8 7.9 6.2 9.1 11.8 1.4 7.5-1.2 15.5-7.1 21.5z"/>
  <path fill="#fc0" d="M385.4 451.7c4.2-4.2 6-9.6 5-14.7-.6-3.1-2.3-5.5-4.6-6.4-.4-.1-.9-.2-1.3-.2h-.1c-4 0-11.3 3.6-16.1 9.4-1.8 2.1-4.6 6.3-3.8 10.6 1.1 6 5.1 7.3 8.3 7.3 4.1 0 8.8-2.2 12.6-6z" class="st0"/>
  <path fill="#fff" d="M544.005 311.902c-.297-.001-.595.007-.894.025-2.69.162-4.396.6-6.778 1.74-5.7 2.73-9.39 8.081-9.361 13.577.029 5.528 3.683 9.82 9.492 11.142 1.802.41 5.45.289 7.44-.248 2.982-.805 5.922-2.512 8.13-4.723 4.73-4.733 5.85-11.273 2.758-16.091-2.138-3.333-6.325-5.412-10.787-5.422z"/>
  <path fill="#00b4ef" d="M536.464 338.387c-5.808-1.322-9.464-5.613-9.493-11.142-.03-5.496 3.662-10.848 9.362-13.577 2.382-1.14 4.087-1.578 6.777-1.74 4.79-.288 9.401 1.842 11.682 5.397 3.092 4.818 1.971 11.357-2.758 16.091-2.208 2.21-5.148 3.918-8.13 4.723-1.99.536-5.638.658-7.44.248zm8.142-1.363c6.929-2.197 11.548-8.663 10.661-14.922-.741-5.23-5.075-8.907-10.915-9.262-6.482-.394-13.29 3.89-15.479 9.739-2.492 6.66 1.097 13.31 8.034 14.886 2.13.484 5.367.298 7.699-.441zm-8.213-1.362c-.851-.29-1.608-.588-1.682-.662-.074-.074 1.44-2.03 3.364-4.347l3.5-4.212-.151 1.952c-.083 1.074-.151 3.27-.152 4.88v2.929l-1.666-.006a9.905 9.905 0 0 1-3.213-.534zm11.862-4.997c2.318-2.779 4.543-5.64 4.944-6.36l.728-1.309-.14 1.378c-.195 1.925-.91 3.988-1.926 5.556-1.49 2.3-4.338 4.558-6.879 5.455-.913.322-.812.176 3.273-4.72zm-16.587 1.822c-1.675-2.233-2.29-4.595-1.883-7.235.269-1.744 1.433-4.337 2.508-5.586l.692-.804-.138 7.35c-.075 4.041-.165 7.382-.2 7.423-.034.042-.475-.475-.979-1.148zm13.36-2.659c.078-1.484.209-4.114.29-5.844l.147-3.146.946-.07c.765-.055.946-.155.946-.522 0-.389-.292-.507-2.067-.837-1.137-.21-2.66-.556-3.385-.768-1.425-.415-1.782-.344-1.782.355 0 .318.203.493.688.59l.69.138v4.895l-2.316 2.863c-1.273 1.575-2.422 2.967-2.553 3.093-.236.228-.129-5.194.195-9.823l.14-2.014.731.137c.521.098.82.03 1.04-.235.462-.556.069-.793-1.851-1.114-.936-.157-1.688-.381-1.671-.498.044-.309 2.13-1.443 3.615-1.965 4.51-1.585 9.361-.67 12.366 2.335l1.2 1.2-.989.33c-1.511.504-1.945 1.351-1.728 3.38.243 2.266.17 3.421-.271 4.295-.403.797-4.22 5.924-4.412 5.924-.06 0-.047-1.214.031-2.698z"/>
  <path fill="#00b4ef" d="M513.681 286.243a18.91 18.91 0 0 0-2.15.105c-4.132.48-6.65 1.47-8.537 3.357-1.728 1.727-1.896 2.46-2.153 9.406-.373 10.051-.776 12.934-2.223 15.89-.75 1.53-2.345 3.05-4.05 3.856-4.74 2.243-6.654 6.247-6.074 12.713.507 5.644 2.278 9.147 6.033 11.935 3.906 2.9 7.917 3.678 12.632 2.453 4.17-1.083 11.234-4.166 16.887-7.37 3.87-2.192 3.626-1.825 2.412-3.636-.568-.848-1.033-1.62-1.033-1.717 0-.096-1.318.161-2.929.573-8.406 2.148-15.64 1.32-19.701-2.254-1.147-1.01-1.311-1.728-.566-2.472.664-.664 1.12-.575 2.532.49 2.548 1.922 4.905 2.58 9.18 2.562 3.19-.014 5.36-.317 8.668-1.211 1.858-.503 1.89-.524 1.723-1.12-.094-.333-.166-1.588-.159-2.788.015-2.422.562-4.616 1.732-6.932.367-.728.667-1.383.667-1.458 0-.318-2.505-2.745-3.91-3.787-3.771-2.795-8.733-4.508-14.98-5.17-.726-.077-1.475-.295-1.664-.484-.549-.55-.433-1.622.222-2.05.497-.326.857-.34 2.949-.114 7.217.777 13.569 3.568 17.714 7.784l1.364 1.387 1.35-1.25c.741-.687 1.967-1.668 2.722-2.182l1.375-.934-.845-1.534c-2.303-4.185-5.507-8.36-8.161-10.632-2.687-2.301-3.007-2.668-2.837-3.24.415-1.396 1.479-1.414 3.287-.055 3.19 2.397 7.069 7.126 9.705 11.826l1.356 2.42 1.837-.582c1.368-.434 1.836-.684 1.836-.982.001-.552-1.946-4.229-3.554-6.71-4.879-7.531-10.469-13.634-13.595-14.841-1.876-.725-5.94-1.25-9.062-1.252zm75.823 11.541c-2.596-.005-5.65.526-9.008 1.584-6.76 2.13-15.929 6.962-23.033 12.14l-2.431 1.771.876.954c.712.776 1.21 1.48 2.007 2.842.017.027 1.42-.418 3.118-.99 7.595-2.56 15.266-4.108 22.66-4.574 2.296-.145 2.36-.136 2.928.433.694.694.725 1.063.151 1.772-.4.495-.657.543-3.756.695-5.872.289-13.527 1.827-20.546 4.129l-3.538 1.16.184 1.074c.1.59.163 2.03.139 3.198-.053 2.505-.679 2.278 4.914 1.784 8.909-.787 16.553-1.006 20.278-.582 2.05.233 2.755.652 2.755 1.637 0 .763-.869 1.415-1.687 1.265-2.972-.546-11.609-.367-21.163.438-6.598.556-5.976.36-6.888 2.171-.432.857-1.424 2.352-2.204 3.323-1.647 2.047-1.67 1.838.479 4.375 5.764 6.807 18.761 13.54 24.134 12.503 2.04-.394 2.736-.096 2.736 1.173 0 .848-.651 1.29-2.37 1.608-4.352.805-13.996-2.917-20.667-7.974-3.226-2.446-6.627-5.894-7.695-7.8-.18-.324-.41-.252-1.79.567-.87.517-1.918 1.058-2.328 1.2-.411.144-.747.36-.747.481 0 .529 1.68 4.207 2.746 6.011 1.47 2.49 3.338 4.808 5.786 7.18 6.574 6.373 15.6 10.624 27.754 13.072 2.7.543 3.05.538 4.249-.06 3.39-1.691 7.886-6.214 9.584-9.641.803-1.621.957-2.17 1.047-3.731.193-3.336-.747-8.79-2.205-12.785-.375-1.026-1.204-2.66-1.843-3.629-1.322-2.006-1.617-3.214-1.195-4.895.546-2.168 1.282-3.27 6.155-9.211 2.126-2.593 3.092-4.657 3.221-6.885.112-1.923-.212-4.919-.756-7.007-1.357-5.21-4.1-8.828-7.66-10.102-1.25-.448-2.727-.67-4.39-.674z"/>
  <path d="M514.86 282.47c-2.9.005-6.17.256-7.681.67-5.456 1.493-8.935 4.73-9.763 9.082-.145.758-.358 4.323-.475 7.923-.38 11.661-.984 13.635-4.773 15.608-2.214 1.152-3.999 2.7-5.13 4.452l-.877 1.357s-1.18 1.488-1.421 4.287c-.24 2.8-.195 3.32-.195 3.32 0 4.954 1.004 9.203 2.894 12.243 2.402 3.866 6.436 6.903 11.124 8.375 1.42.446 2.205.537 4.585.533 2.443-.004 3.212-.1 5.167-.65 5.167-1.457 13.706-5.328 19.485-8.834 1.494-.907 2.815-1.65 2.934-1.65.12 0 .724.258 1.344.572 2.11 1.069 4.467 1.578 7.356 1.59 1.452.006 2.907-.061 3.232-.15.553-.152.616-.084.973 1.048.485 1.54 2.128 4.919 3.259 6.701 6.697 10.56 19.034 17.99 35.088 21.136 4.746.93 5.739.798 8.824-1.176 0 0 1.188-.688 2.052-1.355.864-.668 2.105-1.786 3.044-2.735.939-.95 2.587-2.941 2.587-2.941.796-1.048 1.452-1.922 1.453-1.944l.004-.002c.032-.005 2.4-3.295 2.102-8.86-.082-1.525-.664-5.938-1.067-7.692-.864-3.751-2.197-7.022-3.743-9.184-.644-.9-.676-1.038-.437-1.837.364-1.215 1.271-2.562 3.592-5.334 5.298-6.328 6.218-8.69 5.677-14.571-.757-8.237-4.088-14.3-9.306-16.94-6.903-3.494-18.03-1.172-31.84 6.645-3.165 1.79-7.8 4.797-10.663 6.917-1.146.848-2.2 1.614-2.342 1.7-.142.086-.865-.089-1.607-.388-1.414-.571-2.991-.928-5.184-1.17l-1.307-.145-.251-1.211c-.67-3.224-7.494-13.488-12.272-18.456-4.48-4.658-6.798-5.906-12.493-6.726-1.01-.145-2.428-.21-3.947-.207zm-1.179 3.773c3.121.003 7.186.527 9.062 1.252 3.126 1.207 8.716 7.31 13.595 14.841 1.608 2.481 3.555 6.158 3.554 6.71 0 .298-.468.548-1.836.982l-1.837.581-1.356-2.419c-2.636-4.7-6.516-9.429-9.705-11.826-1.808-1.36-2.872-1.341-3.287.055-.17.572.15.939 2.837 3.24 2.654 2.273 5.858 6.447 8.161 10.632l.845 1.534-1.375.934c-.756.514-1.98 1.495-2.723 2.182l-1.35 1.25-1.363-1.387c-4.145-4.216-10.497-7.007-17.714-7.784-2.092-.226-2.452-.212-2.95.113-.654.43-.77 1.502-.22 2.05.188.19.937.408 1.664.485 6.246.662 11.208 2.375 14.978 5.17 1.406 1.042 3.911 3.468 3.911 3.787 0 .075-.3.73-.667 1.458-1.17 2.316-1.718 4.51-1.732 6.932-.007 1.2.065 2.455.159 2.789.167.595.135.616-1.723 1.119-3.307.894-5.478 1.197-8.668 1.21-4.275.019-6.632-.639-9.18-2.561-1.412-1.065-1.868-1.154-2.532-.49-.745.744-.58 1.462.566 2.472 4.061 3.575 11.295 4.402 19.701 2.254 1.61-.412 2.929-.67 2.929-.573 0 .096.465.869 1.033 1.717 1.214 1.81 1.458 1.443-2.412 3.636-5.653 3.204-12.717 6.287-16.887 7.37-4.715 1.225-8.726.446-12.632-2.453-3.755-2.788-5.526-6.291-6.033-11.935-.58-6.466 1.333-10.47 6.074-12.713 1.705-.807 3.3-2.326 4.05-3.855 1.447-2.957 1.85-5.84 2.223-15.89.257-6.947.425-7.68 2.153-9.408 1.888-1.886 4.405-2.875 8.536-3.356a18.926 18.926 0 0 1 2.151-.105zm75.823 11.54c1.664.005 3.141.227 4.39.675 3.561 1.274 6.304 4.892 7.661 10.102.544 2.088.868 5.084.756 7.007-.129 2.228-1.095 4.292-3.222 6.885-4.872 5.94-5.609 7.044-6.154 9.211-.423 1.68-.127 2.89 1.195 4.895.64.97 1.468 2.603 1.843 3.63 1.458 3.994 2.398 9.448 2.205 12.784-.09 1.56-.244 2.11-1.047 3.73-1.698 3.428-6.194 7.951-9.583 9.642h-.001c-1.2.598-1.549.603-4.249.06-12.154-2.448-21.18-6.699-27.754-13.071-2.448-2.373-4.315-4.69-5.786-7.18-1.066-1.805-2.746-5.483-2.746-6.012 0-.121.336-.337.746-.48.41-.143 1.46-.684 2.33-1.2 1.38-.82 1.608-.892 1.79-.568 1.066 1.906 4.467 5.354 7.694 7.8 6.67 5.057 16.315 8.779 20.667 7.974 1.719-.317 2.37-.76 2.37-1.608 0-1.27-.695-1.567-2.736-1.173-5.373 1.037-18.37-5.696-24.134-12.503-2.15-2.537-2.126-2.328-.48-4.375.781-.97 1.773-2.466 2.205-3.323.912-1.811.29-1.615 6.888-2.17 9.554-.806 18.19-.985 21.163-.439.818.15 1.687-.502 1.687-1.265 0-.985-.704-1.404-2.755-1.637-3.726-.424-11.37-.205-20.279.582-5.592.494-4.966.72-4.913-1.784.024-1.168-.039-2.607-.14-3.198l-.184-1.074 3.538-1.16c7.02-2.302 14.675-3.84 20.547-4.129 3.099-.152 3.355-.2 3.756-.695.574-.709.543-1.078-.15-1.772-.57-.57-.633-.578-2.929-.433-7.394.466-15.065 2.015-22.66 4.574-1.698.572-3.101 1.017-3.118.99-.797-1.361-1.295-2.066-2.007-2.842l-.877-.954 2.432-1.772c7.104-5.177 16.272-10.01 23.033-12.14 3.358-1.057 6.412-1.588 9.008-1.583zm-45.498 14.12c4.462.01 8.647 2.09 10.786 5.421 3.092 4.82 1.971 11.359-2.758 16.092-2.208 2.21-5.148 3.918-8.13 4.723-1.99.537-5.638.658-7.44.248-5.808-1.323-9.464-5.614-9.493-11.143-.029-5.495 3.662-10.847 9.362-13.576 2.382-1.14 4.087-1.578 6.777-1.74.3-.018.598-.026.896-.025z"/>
</svg>