<svg xmlns="http://www.w3.org/2000/svg" viewBox="0 0 1000 1000">
    <path d="M436.6 504c-4.5 5.1-10.5 7.9-17 7.9-9.1 0-18.5-5.5-24.4-14.4-7.8-11.6-15.5-21.2-22.3-27.9l-4.8-4.7c-2-2-1.1-5.3 1.6-6.1l6.5-1.7c3.2-.9 6.4-2.7 9.1-5.5 3-3 4.8-6.7 5.2-10.4V430c0-1.3 1.5-2.1 2.5-1.3l9.3 6.9c.7.5 1.7 1.1 2.9 1.7 10.2 4.9 31.7 27.4 35.7 46.7 2.1 10.1-1.2 16.5-4.3 20z"/>
    <path fill="#fc0"
          d="M402.1 444.1c-1.5-.7-2.9-1.5-4.2-2.4-.5 5.5-3 11-7.3 15.3-3.7 3.7-8.1 6.2-12.5 7.4 8.7 8.6 17 19.8 23.2 29.1 4.5 6.7 11.6 11.1 18.3 11.1 4.1 0 8.1-1.6 11.4-5.4 13-14.8-17.3-49.6-28.9-55.1z"/>
    <path d="M599.1 649.5c-9 25.7-26.4 50-50.3 70.3-23.8 20.3-51.8 34.7-81 41.6-6.9 1.6-14.1 2.5-21.5 2.5-30.8 0-58.9-13.9-74.8-27-13.6-11.1-21.2-23.3-20.9-33.5.4-12 6.7-20.7 16.8-23.3 2.1-.5 4.3-.8 6.7-.8 11.2 0 27.2 6.7 38.5 25.7 7.8 13.2 22 20.1 41.1 20.1h1.2c40.7-.8 87.6-31.2 109.1-70.8 7.7-14.1 13.2-29.6 17.1-40.8 1.9-5.4 3.6-10.1 5.1-13.5 1.3-3.1 4.1-9.4 10.4-9.4 4.1 0 7.6 1.8 9.9 5 5.5 7.6 3.3 23.3-7.4 53.9z"/>
    <path fill="#f80"
          d="M570.5 657.8c-22.7 41.7-72.5 73.9-115.5 74.7h-1.4c-21.6 0-38.3-8.4-47.4-23.8-9-15.1-22-22.1-32.1-22.1-1.7 0-3.3.2-4.8.6-7 1.8-11 7.6-11.3 16.4-.3 7.7 6.6 18 18.2 27.5 16.8 13.7 43.2 25.3 70.1 25.3 6.6 0 13.3-.7 19.8-2.3 57.2-13.5 108.5-57.4 126-107.1 5.4-15.3 16.7-49.2 4.5-49.2-4.5.1-10.8 31.8-26.1 60z"/>
    <path d="M649.7 531.9c-2 24-6.7 45.1-13.9 62.9-8.5 20.9-20.3 36.6-35.1 46.8-34 23.4-64.8 26-76.4 26-1.3 0-2.5 0-3.8-.1-18.4-.8-26-4.4-32.7-7.5-5.9-2.8-11-5.2-24.9-5.7-37.5-1.5-67-9.9-83.1-23.6-.2-.1-.5-.4-.9-.7-4.8-3.5-19.3-14.3-25-24.7-5.3-9.7-6.2-22.3-2.3-31.4 13.4-31.2 24.5-40.5 33.5-48 3.6-3 6.4-5.3 8.8-8.7 2.2-3.1 3.8-7.1 4.9-12.2 0-.1 0-.2.1-.3 3.9-15 3.4-34.9 2.8-56-.2-5.7-.3-11.7-.4-17.5v-.1c0-18.6 9.6-40.7 25.7-59.2 18.1-20.8 41.6-33.6 66.1-36.2 20.2-2.1 34.3-3.1 45.9-3.1 43.7 0 58.6 14.8 82.2 48.4 7.5 10.6 12.1 22.5 16 33.7 11.1 30.4 15.9 76.5 12.5 117.2z"/>
    <path fill="#fc0"
          d="M358.5 576.7c-3 7-2.2 17.4 2 25 5.6 10.3 23 22.2 24.1 23.2 15.1 12.9 43.7 20.5 78.7 21.9 31.2 1.3 24.3 11.8 57.6 13.3 1.1 0 2.2.1 3.5.1 16.7 0 43.7-5 72.2-24.7 58-39.9 52.9-165.3 34-218.6-3.9-11.1-8.3-22.2-15.1-31.9-23.5-33.5-36.6-45.2-76.2-45.2-12.2 0-26.9 1.1-45.1 3.1-49.9 5.3-85.3 55.3-85.3 88.1.3 27.4 2.5 55.1-2.7 75.5-1.4 6.5-3.4 11.2-6 14.9-9.8 13.5-23.4 12.4-41.7 55.3z"/>
    <path d="M384.3 648c-2.4 3.7-6.4 5.7-11.5 5.7-1.9 0-4-.3-6.2-.8-25-6-59.3-43.6-63.6-64.5-1.9-9.4-.2-18 5-24.4 4.6-5.7 11.4-8.8 18.9-8.8 6.8 0 13.6 2.5 19.8 7.3 12.2 9.4 32.9 50.5 37.3 60.7 2.5 5.8 4.9 17.7.3 24.8z"/>
    <path fill="#fc0"
          d="M310.1 586.8c3.8 18.2 36.2 53.6 58.1 58.8 1.7.4 3.2.6 4.5.6 3.4 0 4.7-1.3 5.4-2.3 2.3-3.5 1.5-12.1-1-17.9-6.1-13.9-25.3-50.3-35.1-57.8-4.9-3.8-10.2-5.8-15.3-5.8-5.3 0-10 2.2-13.2 6.1-3.6 4.7-4.8 11.2-3.4 18.3z"/>
    <path d="M413.3 399.4c-.4 4.4-3.8 8.4-11.1 12.9-4.7 3-10.2 5.5-13.9 6.5-6.5 1.7-12.3 2.6-17.3 2.6-6.7 0-10.6-1.6-12.7-2.9-4.8-3-4.4-7.2-4.2-8.5.5-3.1 2.9-5.5 5.9-6.2 3.5-.8 13.5-5.8 23.6-12.6 4.2-2.9 10.7-4.8 16.1-4.8 5.8 0 9.1 2.2 10.8 4.1 2.1 2.4 3.1 5.5 2.8 8.9z"/>
    <path fill="#f80"
          d="M361.4 411.3c0 .3.4.7.9.9 1.1.7 3.6 1.8 8.8 1.8 4.3 0 9.5-.8 15.4-2.3 5.2-1.4 19.1-8.8 19.5-13 .1-1.3-.2-2.4-.9-3.2-1-1.1-2.8-1.7-5.3-1.7-3.9 0-8.9 1.5-11.9 3.5-8.5 5.7-20.5 12.5-26.1 13.7-.3.1-.4.2-.4.3z"/>
    <path d="M516.4 328.1c1.6 0 3.2 0 4.8.1 20.6.6 39.5 6.5 55.9 17 11.2 7.2 17.5 11.4 25.9 25.2 1.5 2.5 9 .8 7.9-1.1-10.1-17.6-17.5-22.3-29.8-30.3-17.7-11.4-37.8-17.6-59.7-18.2-1.6 0-3.3-.1-5-.1-1.6 0-3.3 0-4.9.1-24.3.6-47.8 6.6-67.8 17.1-20.2 10.6-37.1 26.1-48.9 44.7-7.7 12.3-10.3 23.9-7.4 33.5 2.4 7.8 7.9 12.7 12.3 14.6 1.4.6 2.9.9 4.7.9 9.3 0 34.7-9.3 45.7-24.8 8.4 4.5 17.6 6.7 28.1 6.7 12.6 0 25-3.2 36.4-6.9 3-1 3.8-2.2 3.9-4.1 0-1.3-1.2-3.6-3.8-3.5-.3 0-.7.1-1 .2-11.2 3.6-23.3 6.9-35.4 6.9-9.3 0-18.6-2-27.4-7.4-.6-.4-1.3-.5-1.9-.5-1.3 0-2.5.6-3.2 1.8l-.1.1c-7.9 14.3-33.3 24.1-41.2 24.1-.7 0-1.3-.1-1.7-.3-2.8-1.2-6.6-4.6-8.2-10-2.3-7.5 0-17 6.6-27.4 22.5-35.7 63.4-57.1 110.6-58.3 1.4-.1 3-.1 4.6-.1"/>
    <path fill="#fc0"
          d="M516.6 399.4c-1-.4-2-.7-3-.3-19.7 6.3-42.5 12-62.8-.5-1.7-1.1-4-.5-5.1 1.2l-.1.1c-8.6 15.7-38.3 26-43 23.9-2.8-1.2-6.6-4.6-8.2-10-2.3-7.5 0-17 6.6-27.4 22.5-35.7 63.4-57.1 110.6-58.3 3.1-.1 6.3-.1 9.5 0 20.6.6 39.5 6.5 55.9 17 13.2 8.5 19.7 12.7 30.6 33.6 5.6 10.5-84.4 23.5-91 20.7z"/>
    <path d="M701.4 357.1c-.5 1.7-1.2 3.4-2 5.2-5 10-17.7 23-38 29.1-4.5 1.4-9.3 2-14 2h-.1c-13 0-34.2-4.9-61.6-28.3-1.9-1.7-5.1-4.8-7.1-7-2.3-2.5-2.8-6.1-1.5-9.1s4.4-5.1 7.8-5.1h.5c13.9.8 30.1 1.2 48.4 1.2 8.1 0 14.8-.1 19.3-.1h4.5c7.4 0 13.3-.1 18.2-.1 8.1 0 13.7.1 17.1.2 2.9.1 5.6 1.5 7.3 3.9 1.5 2.3 2 5.2 1.2 8.1z"/>
    <path fill="#f80"
          d="M590.4 359.4c25.7 21.9 45.1 26.5 56.8 26.5h.1c4 0 8-.6 11.9-1.7 18.1-5.4 29.2-16.6 33.5-25.3.8-1.5 1.2-2.8 1.5-3.9.4-1.3-.6-2.6-1.9-2.7-3.3-.1-8.9-.2-16.7-.2-5.4 0-11.6 0-18.2.1-3.3 0-12.2.2-23.9.2-13.9 0-31.7-.2-48.8-1.2h-.1c-.9 0-1.5 1.1-.8 1.8 2 2.2 5 5.1 6.6 6.4z"/>
    <path d="M417.6 376.2c-4.1 0-7.4 3.3-7.4 7.4 0 9.9 14.8 9.9 14.8 0 0-4.1-3.3-7.4-7.4-7.4zm85.6-20.5c-4.1 0-7.4 3.3-7.4 7.4 0 9.9 14.8 9.9 14.8 0 0-4.1-3.3-7.4-7.4-7.4zm-45.3 19.7c-7.4.8-12.3 2.5-15.6 4.9-5.9 4.4-4.1 9.9 2.5 10.7 6.6.8 7.1 1.2 13.2-3.3 6.5-4.9 7.3-13.1-.1-12.3z"/>
    <path fill="#fc0"
          d="M512.4 655.2c-4.6-5.2-3.7-15.7-1.9-29.4 2.6-19.8 5-34.5 25.4-50.8 24.4-19.5 62.2-15 76.2-.5 3.6 3.7 6.7 10.9 7.3 18.8.9 11.4-22.2 42.4-44.8 51.8-22.6 9.6-54 19.3-62.2 10.1z"/>
    <path d="M512.4 658.9c-1.2 0-2.3-.5-3-1.6-4.7-6.7-4.5-17.2-2.6-32 2.5-19 4.6-35.5 26.8-53.2 26.8-21.4 63.7-14 78.4.7 1.4 1.4 1.4 3.8 0 5.2-1.4 1.4-3.8 1.4-5.2 0-12.5-12.5-45.4-18.7-68.6-.1-18.9 15.1-21.4 28.2-24.1 48.4-1.4 11-2.3 21.8 1.3 26.7 1.2 1.7.8 4-.9 5.2-.6.5-1.4.7-2.1.7z"/>
    <path d="M523.7 651.2c-.4 1.9-2 9.1-6.7 16.2-7 10.6-17.8 16.5-30.4 16.5-7.2 0-12.9-2.1-16.8-6.2-7.5-7.8-7.1-21-6.7-33.7v-.1c.2-6.4.4-13.1-.4-18.5-.7-4.4-1.8-9.1-3.1-14.5-2.4-10.2-4.6-20.1-4.3-28.7.4-10.7 4.7-18.9 12.8-24.4 3.5-2.4 7.4-3.5 11.4-3.5 9.3 0 18.9 6.2 28.7 18.6 7.1 8.9 13.1 20 15.4 28.1 6.4 21.8 4.9 34.9.1 50.2z"/>
    <path fill="#fc0"
          d="M477 670.8c2 2.1 5.2 3.1 9.6 3.1 22.6 0 27-23.7 27.2-24.7 0-.2.1-.4.1-.6 4.4-13.9 5.7-25.2 0-44.8-3.7-13.2-21.1-39.4-34.4-39.4-2 0-4 .6-5.8 1.9-11.7 7.8-9.3 21.8-4.4 42.4 1.2 5.1 2.5 10.4 3.2 15.3 1 6.4.8 13.5.5 20.4-.2 10.6-.6 21.6 4 26.4z"/>
    <path d="M500.362 454.126c6.784 1.82 10.24 6.797 11.888 13.282.288 1.134.467 2.33.457 3.492-.03 1.97-1.539 3.576-3.318 3.758-1.878.2-3.394-.954-3.926-3.037-.42-1.644-.59-3.368-1.21-4.93-1.781-4.46-5.045-6.122-10.3-5.245 3.56 2.684 7.15 5.261 7.04 10.112-.094 4.643-2.578 7.811-7.273 9.878 4.897 2.801 7.747 6.789 8.712 12.121 7.352-.054 12.908 2.824 15.547 9.757 2.79 7.324.092 13.255-5.67 18.147 3.121 9.796 1.23 15.418-7.06 21.183 1.884 4.86 1.991 9.82-.795 14.5-2.022 3.396-5.05 5.59-8.834 6.745-8.063 2.474-14.82-1.58-19.348-11.785-.928-.034-1.957-.052-2.972-.13-6.354-.472-10.721-3.791-13.198-9.543-.76-1.77-1.519-3.002-3.491-3.743-4.71-1.779-7.487-5.438-8.917-10.24-.391-1.28-1.106-2.63-2.066-3.546-6.106-5.822-7.132-12.74-2.85-20.16.243-.423.366-.912.68-1.707a7.505 7.505 0 0 0-3.6 1.173l-1.303-1.881c1.33-.915 2.714-1.715 4.084-1.749 4.184-.097 7.665-2.243 11.657-2.727 1.008-4.874 3.983-8.202 8.304-10.963-3.867-2.013-7.029-2.863-10.574-1.081-5.199 2.623-9.543 6.336-13.716 10.306-.957.912-1.583 2.427-3.42 2.241-.071-.485-.302-.978-.156-1.175 4.024-5.212 9.273-9.017 14.591-12.99-4.162.297-8.285.692-12.255 1.679-4.042.997-7.935 2.59-11.892 3.927-.162-.452-.331-.91-.495-1.362 5.246-3.354 11.369-4.6 17.488-6.756-3.497-1.299-6.992-2.608-10.49-3.908.069-.308.14-.612.214-.917.808-.064 1.712-.4 2.409-.154 3.435 1.214 6.817 2.557 10.204 3.895.954.371 1.829 1.192 2.79 1.285 4.154.414 8.326.633 13.116.963-1.888-2.278-3.523-4.12-5.01-6.068-1.499-1.982-4.333-2.865-4.924-5.622 1.591-1.124 2.44-.001 3.142.8 2.988 3.437 6.024 6.854 8.737 10.5 1.4 1.881 2.79 3.102 5.822 3.17a18.05 18.05 0 0 1-.455-1.053l2.113-.918c1.002 2.464 1.608 2.575 5.517 2.642l-.097-8.466 2.226-.023c.059 1.635.482 3.357.731 5.1 2.293-.966 4.407-1.86 6.178-2.61a873.71 873.71 0 0 0-1.965-3.423l1.899-1.09c1.316 2.197 3.57 3.446 6.235 3.499 3.396.06 6.392-2.026 7.494-5.222 1.114-3.22.083-6.449-2.95-8.577-1.265-.884-2.791-1.382-4.152-2.142-.608-.336-1.108-.881-1.671-1.334 3.427-3.808 7.996-4.583 12.088-2.199 3.635 2.12 5.53 5.42 6.299 9.455.212 1.078-.023 2.418 1.727 2.843.25-.418.74-.834.718-1.232-.2-5.09-2.03-9.52-6.273-12.453-5.822-4.025-12.595-2.996-17.162 2.478-1.296 1.558-2.625 2.79-4.548 3.485-1.08.389-2.07 1.103-3.006 1.803-1.01.77-1.706 1.673-1.729 2.813l-2.248.024c-.04-3.603-.084-7.178-.126-10.697-1.027-.008-2.052-.02-3.084-.033l.177-2.213a4.965 4.965 0 0 0 2.651-.907c1.35-.938 1.306-2.426-.205-2.95-2.681-.925-5.282-.946-7.605 1.567l-1.76-1.024c2.038-3.706 7.07-5.006 11.156-2.394 1.634 1.048 2.08 2.547 1.92 4.377-.243 2.862-.41 5.721-.645 9.044 2.575-1.313 5.076-1.912 6.777-4.012 4.161-5.143 9.42-7.409 15.956-5.653"/>
    <path d="M515.776 504.319c-1.617-4.526-6.638-8.927-13.295-8.026-.734 4.944-2.841 9-7.077 11.795.71 2 1.35 3.79 2.016 5.676 5.577-.627 9.664 2.151 13.49 5.193 5.171-4.011 6.794-9.24 4.866-14.638m-15.988-10.86c-.72-4.88-4.485-9.197-9.012-10.326-5.207-1.297-9.902.358-13.298 4.953 4.26 3.252 6.364 7.458 6.823 12.438 1.8.746 3.54 1.319 5.13 2.168 1.578.85 3.01 1.98 4.502 2.985 4.382-2.642 6.583-7.247 5.855-12.218m-8.739 13.264c-4.983-4.736-13.278-4.55-18.083.416-4.67 4.84-4.459 12.862.474 17.7 4.997 4.899 13.104 4.743 17.97-.336 4.564-4.78 4.388-13.253-.36-17.78"/>
    <path d="M481.493 500.606c-.563-7.747-5.432-12.413-12.593-12.346-6.796.07-12.122 5.26-12.387 12.053-.256 6.607 4.246 11.914 10.797 12.595 1.87-7.192 6.713-11.13 14.183-12.302m29.73 26.085c-1.11-6.835-7.086-11.21-13.882-10.023-.823 6.627-4.42 11.22-10.778 13.668.216 6.433 6.907 12.168 14.446 10.814 6.653-1.19 11.316-7.697 10.214-14.46m-9.805 30.415c3.23-4.164 3.511-8.734 1.432-13.297-2.606-.118-4.986.074-7.223-.407-2.337-.511-4.53-1.672-7.05-2.64-1.193 5.374-4.982 8.413-9.531 10.631 1.351 5.712 4.615 9.133 9.914 10.282 5.002 1.091 9.31-.52 12.458-4.569"/>
    <path d="M466.768 515.999c-9.24-2.963-12.064-7.88-13.058-15.35-8.235 1.024-11.872 8.643-11 14.313 1.007 6.552 6.662 11.081 13.294 10.642 5.88-.388 10.653-4.65 10.764-9.605m19.208 20.912c-.504-1.973-1.579-3.806-2.502-5.923-5.176.144-9.716-1.715-13.479-6.06-1.36.771-2.41 1.27-3.36 1.916-3.878 2.62-6.435 8.171-4.565 13.8 1.722 5.193 6.256 8.764 11.616 8.86 5.527.096 10.356-3.03 12.107-8.135.469-1.362.54-3.072.183-4.458m-26.96-.122c.324-4.395 1.913-7.956 5.688-11.377-5.248 1.716-9.489 3.789-14.793 1.792 1.686 5.105 4.118 8.337 9.105 9.585"/>
    <path d="M672.214 46.05c-4.248.017-8.124 2.303-10.647 6.506-1.04 1.736-2.163 3.157-3.957 4.141-1.006.552-1.874 1.41-2.69 2.244-.88.916-1.427 1.918-1.276 3.048.058.47.245.958.568 1.467 1.373-1.405 2.74-2.813 4.106-4.225.856 2.78 1.24 4.689 2.01 6.426a8.521 8.521 0 0 0 1.209 1.967c1.639 1.97 4.056 2.855 6.696 2.497 3.365-.464 6.005-2.986 6.602-6.314.606-3.354-.912-6.383-4.237-8.019-1.384-.68-2.968-.936-4.43-1.48-.651-.236-1.233-.697-1.858-1.06 2.799-4.29 7.195-5.759 11.605-4.033 3.918 1.533 6.3 4.501 7.68 8.372.376 1.032.351 2.392 2.147 2.542.18-.453.6-.938.517-1.33-.984-4.995-3.472-9.094-8.117-11.335-1.992-.963-4-1.423-5.93-1.415zm-7.096 10.685c1.997.017 3.77.74 5.437 2.002 1.6 1.212 2.363 2.74 1.827 4.752-.539 2.018-1.693 3.571-3.793 4.064-2.01.467-3.9.162-5.256-1.621-1.984-2.616-2.09-5.485-1.09-8.768 1.012-.299 1.967-.437 2.875-.43z"
          style="fill:#208c37;fill-opacity:1;stroke-width:1.33333" transform="rotate(8.86 -2061.168 -871.934)"/>
    <path d="M489.545 465.573c-.896-.147-1.86-.158-2.907-.018-1.493 3.09-1.83 5.94-.273 8.83 1.065 1.97 2.886 2.565 4.943 2.41 2.153-.162 3.531-1.52 4.374-3.43.84-1.906.32-3.533-1.073-4.977-1.453-1.504-3.093-2.49-5.064-2.815zm-.517 2.217c1.191.692 2.564 1.208 3.509 2.153.575.57.904 1.975.591 2.673-.337.763-1.524 1.564-2.36 1.592-.805.026-2.119-.756-2.367-1.475-.466-1.348-.327-2.91-.438-4.38.351-.191.707-.378 1.065-.563z"/>
    <path d="M648.258 45.85c1.574.287 1.848 1.748.658 2.883a4.944 4.944 0 0 1-2.48 1.304c-1.672.352-3.61-.124-5.45-1.467 1.907-2.838 4.48-3.221 7.272-2.72"
          style="fill:#208c37;fill-opacity:1;stroke-width:1.33333" transform="rotate(8.86 -2061.168 -871.934)"/>
    <path d="m472.117 456.078-.178 2.215-5.38-.062a80.496 80.496 0 0 0-.25 4.641l-2.267.082c.011-2.417.061-4.831.275-7.226a7.403 7.403 0 0 1 .88-2.963l1.76 1.024c1.613 1.61 3.454 2.379 5.16 2.289"/>
    <path d="M646.6 52.252a508.8 508.8 0 0 0 3.054-.444c.582 3.472 1.177 6.998 1.772 10.551.485 2.875.97 5.777 1.462 8.683l1.4 8.35c-3.872.538-4.488.52-5.857-1.76a35.267 35.267 0 0 1-.533-.92c-3.41-6-5.264-12.434-6.155-19.068a80.48 80.48 0 0 1-.468-4.622l5.325-.77"
          style="fill:#208c37;fill-opacity:1;stroke-width:1.33333" transform="rotate(8.86 -2061.168 -871.934)"/>
    <path d="M482.442 466.992c.419 2.878.504 4.823.996 6.658a8.527 8.527 0 0 0 .89 2.13l-1.898 1.09c-.855-1.488-1.7-2.966-2.55-4.449-1.984 1.583-2.454 3.42-2.394 5.382l-2.227.023c-.039-2.948-.072-5.89-.11-8.805l2.25-.024c-.015.473.096.984.336 1.537 1.422-1.063 2.73-2.048 4.707-3.542"/>
    <path d="M682.631 85.096c6.44-1.916 12.078 1.66 14.372 5.883 2.738 5.036 1.94 10.453-2.553 15.213-4.25-2.417-8.713-4.533-14.128-3.053-.95-1.763-1.856-3.43-2.867-5.299 3.755-3.414 5.214-7.746 5.176-12.744M669.04 73.897c4.645.418 9.031 4.103 10.493 8.812 1.486 4.802.02 9.69-3.903 12.976-1.63-.762-3.217-1.658-4.908-2.256-1.701-.594-3.51-.894-5.403-1.352-1.22-4.85-3.946-8.681-8.657-11.24 2.648-5.062 7.033-7.42 12.377-6.94"
          style="fill:#632482;fill-opacity:1;stroke-width:1.33333" transform="rotate(8.86 -2061.168 -871.934)"/>
    <path d="m464.042 462.953 2.267-.082c-.142 6.691.699 13.336 3.145 19.79.135.365.264.69.385.989l-2.112.917c-1.189-2.83-1.886-5.622-3.647-7.323-4.782-4.586-10.075-8.685-15.391-12.664-2.353-1.76-5.222-2.99-8.923-2.15 1.013 4.867-1.247 7.836-5.069 9.737-1.591.794-3.451 1.105-5.227 1.471-3.533.725-7.193.957-10.806 2.92.746.577 1.204.958 1.687 1.316 4.76 3.482 5.724 6.175 2.802 8.906-.81.76-1.926 1.52-3.34 2.303a42.467 42.467 0 0 0-5.707 3.752l-1.278-1.604c1.47-1.178 2.96-2.329 4.431-3.495.602-.483 1.372-.739 2.05-1.13 3.757-2.192 3.844-3.697.3-6.232-.734-.534-1.591-.894-2.351-1.389-2.37-1.54-2.325-3.243.238-4.65a18.204 18.204 0 0 1 4.354-1.696c2.667-.641 5.425-.901 8.059-1.624 1.955-.532 3.918-1.329 5.628-2.42 1.446-.915 2.061-2.514 1.938-4.429-.212-3.367 1.238-4.754 4.576-4.557 3.365.188 6.347 1.564 8.985 3.547 4.264 3.202 8.408 6.573 12.963 10.154.02-1.206.025-2.162.04-3.12.035-2.407.002-4.82.003-7.237"/>
    <path d="M624.597 62.046c5.866 3.115 11.727 6.348 17.156 10.143 2.003 1.41 3.122 4.06 4.732 6.675.195.333.4.653.612.97-3.005.4-4.568-.592-6.24-2.234-3.244-3.184-6.769-6.094-10.25-9.03-.819-.682-1.83-1.661-3.228-.306 1.008 2.633 3.945 3.07 5.732 4.797 1.768 1.697 3.668 3.264 5.884 5.225-4.784.411-8.94.838-13.108 1.068-.964.055-1.956-.62-2.955-.841-3.553-.8-7.101-1.607-10.684-2.276-.725-.136-1.566.336-2.354.524-.026.312-.051.623-.07.939 3.655.744 7.31 1.5 10.966 2.245-5.715 3.072-11.572 5.245-16.238 9.368l-1.768-1.397c2.467-3.15 1.099-5.662-4.141-8.368-.53-.28-1.041-.587-1.868-1.042 3.267-2.496 6.847-3.289 10.227-4.549 1.697-.635 3.489-1.228 4.938-2.259 3.483-2.466 5.259-5.748 3.508-10.402 3.527-1.4 6.554-.626 9.15.75"
          style="fill:#208c37;fill-opacity:1;stroke-width:1.33333" transform="rotate(8.86 -2061.168 -871.934)"/>
    <path d="M655.14 100.358c3.982-5.645 12.149-7.108 17.802-3.196 5.39 3.742 6.868 12.087 3.095 17.512-4.026 5.768-12.012 7.171-17.704 3.102-5.619-4.022-7.064-11.915-3.194-17.418"
          style="fill:#632482;fill-opacity:1;stroke-width:1.33333" transform="rotate(8.86 -2061.168 -871.934)"/>
    <path d="M648.213 82.332c7.067-1.169 12.595 2.691 14.347 10.259-7.201 2.308-11.379 6.945-12.119 14.34-6.58.336-11.845-4.215-12.609-10.783-.785-6.75 3.678-12.7 10.381-13.816m32.477 23.688c6.534-2.218 13.11 1.182 15.26 7.764 2.13 6.514-1.474 13.66-7.865 15.862-7.24 2.497-14.734-2.139-15.94-8.462 5.907-3.396 8.752-8.49 8.544-15.164"
          style="fill:#632482;fill-opacity:1;stroke-width:1.33333" transform="rotate(8.86 -2061.168 -871.934)"/>
    <path d="M631.163 82.506c3.228-2.306 6.483-1.953 10.614-.56-3.844 3.394-6.27 7.14-6.516 12.114-3.87 1.09-6.979 3.746-11.096 4.488-1.35.244-2.595 1.249-3.768 2.357-.612.565-1.207 1.161-1.78 1.695-1.007.926-1.579 2.305-2.62 3.902-.587-1.413-1-2.329-1.352-3.27-1.607-4.327-4.861-6.244-9.305-6.512-3.904-.232-7.486.878-10.964 2.477-1.158.539-2.316 1.065-4.218 1.941a45.145 45.145 0 0 1 4.62-5.846 42.467 42.467 0 0 1 5.062-4.586c1.276-.994 2.26-1.916 2.944-2.79l1.768 1.397.698 1.27c3.704-1.93 7.306-4.105 11.146-5.713 3.769-1.586 7.782-2.612 11.849-3.546-4.643 4.746-9.243 9.313-12.416 15.082-.113.218.192.67.336 1.138 1.844-.099 2.228-1.694 3.033-2.742 3.512-4.565 7.232-8.902 11.965-12.296"
          style="fill:#208c37;fill-opacity:1;stroke-width:1.33333" transform="rotate(8.86 -2061.168 -871.934)"/>
    <path d="M690.313 131.988c2.758 4.188 3.184 8.747.634 13.359-2.486 4.485-6.495 6.74-11.605 6.432-5.414-.317-9.164-3.196-11.38-8.632 4.154-2.892 7.43-6.477 7.782-11.97 2.636.567 4.983 1.377 7.372 1.52 2.284.133 4.604-.423 7.197-.709m-55.2-35.075c2.132 7.227 5.683 11.651 15.267 13.154.655 4.913-3.407 9.861-9.156 11.15-6.485 1.455-12.77-2.149-14.775-8.468-1.733-5.468.686-13.556 8.664-15.836m34.082 25.391c1.238 1.951 2.582 3.595 3.384 5.467.566 1.316.76 3.015.508 4.435-.946 5.312-5.236 9.145-10.711 9.9-5.311.732-10.34-2.099-12.843-6.963-2.713-5.275-1.043-11.153 2.385-14.34.839-.783 1.802-1.439 3.026-2.41 4.386 3.714 9.16 4.853 14.251 3.911"
          style="fill:#632482;fill-opacity:1;stroke-width:1.33333" transform="rotate(8.86 -2061.168 -871.934)"/>
    <path d="m620.397 100.905 1.58 1.658c-1.146.994-1.976 2.252-2.81 3.516-.978 1.47-1.494 3.784-3.728 3.534-2.299-.253-2.077-2.732-2.685-4.328-1.852-4.87-4.3-6.561-9.54-6.082-3.976.366-7.568 1.91-11.004 3.874-1.424.804-3.012 2.363-4.535.835-1.516-1.523-.14-3.388.833-4.58 1.518-1.867 3.126-3.656 4.759-5.428l1.512 1.388a45.03 45.03 0 0 0-4.62 5.847c1.901-.876 3.06-1.403 4.217-1.942 3.478-1.598 7.06-2.709 10.963-2.476 4.444.267 7.698 2.184 9.306 6.511.351.941.766 1.857 1.352 3.27 1.042-1.597 1.612-2.975 2.62-3.9.574-.535 1.168-1.131 1.78-1.697"
          style="fill:#000;stroke-width:1.33333" transform="rotate(8.86 -2061.168 -871.934)"/>
    <path d="M649.79 119.686c-3.202 3.962-4.225 7.726-3.868 12.118-5.12-.466-8.02-3.284-10.471-8.068 5.549 1.156 9.418-1.546 14.34-4.05"
          style="fill:#632482;fill-opacity:1;stroke-width:1.33333" transform="rotate(8.86 -2061.168 -871.934)"/>
    <path d="M478 413.3c-6.4 2.9-12.4 6.6-17.6 11.1-12.1 10.6-12.6 19.4-10.8 24.8 2.5 7.7 11.1 13.4 21.9 14.6 7.1.7 16.2-1.3 26.7-3.6 13.9-3.1 29.7-6.6 42.9-3.9 19.6 4.1 33.3 15 53.1 32.7l10.3 9.2c1.5 1.3 3.9 1.2 5.2-.4 1.3-1.5 1.2-3.9-.4-5.2l-2.9-2.6c-24-21.7-39.9-36-63.8-41-14.8-3.1-31.3.6-46 3.9-9.5 2.1-18.5 4.1-24.3 3.5-7.8-.8-14.1-4.6-15.7-9.5-1.5-4.7 1.6-10.7 8.7-17 20.7-18.2 59.1-23.7 87.5-12.5 4.7 1.9 7.4-5.1 2.7-6.9-11.4-4.4-24.6-6.6-37.7-6.2-10.1.4-30.5 4.8-39.8 9z"/>
    <path fill="#fc0"
          d="M615.4 451c11.7 12.2 17 60.3-6 41.6l-2.9-2.6c-24-21.7-39.9-36-63.8-41-14.8-3.1-31.3.6-46 3.9-9.5 2.1-18.5 4.1-24.3 3.5-7.8-.8-14.1-4.6-15.7-9.5-1.5-4.7 1.6-10.7 8.7-17 20.7-18.2 59.3-24 87.5-12.5 4.6 2 46.1 16.5 62.5 33.6z"/>
    <path d="M390.6 457c-5.2 5.1-11.7 8.1-17.8 8.1-8.1 0-14-5.1-15.6-13.3-1-5.4.9-11.3 5.4-16.7 5.8-6.9 14.9-12 21.7-12.1h.2c1.3 0 2.6.2 3.8.6h.2l.1.1c4.5 1.8 7.9 6.2 9.1 11.8 1.4 7.5-1.2 15.5-7.1 21.5z"/>
    <path fill="#fc0"
          d="M385.4 451.7c4.2-4.2 6-9.6 5-14.7-.6-3.1-2.3-5.5-4.6-6.4-.4-.1-.9-.2-1.3-.2h-.1c-4 0-11.3 3.6-16.1 9.4-1.8 2.1-4.6 6.3-3.8 10.6 1.1 6 5.1 7.3 8.3 7.3 4.1 0 8.8-2.2 12.6-6z"/>
</svg>