<?xml version="1.0" encoding="UTF-8" standalone="no"?>
<svg
   id="wapuugotchi_svg__item"
   version="1.1"
   viewBox="0 0 1e3 1e3"
   xmlns="http://www.w3.org/2000/svg"
   xmlns:svg="http://www.w3.org/2000/svg">
  <defs
     id="defs2759" />
  <g
     class="RightArm--group"
     id="g2740">
    <path
       d="M436.59 504.77c-4.5 5.1-10.5 7.9-17 7.9-9.1 0-18.5-5.5-24.4-14.4-7.8-11.6-15.5-21.2-22.3-27.9l-4.8-4.7c-2-2-1.1-5.3 1.6-6.1l6.5-1.7c3.2-.9 6.4-2.7 9.1-5.5 3-3 4.8-6.7 5.2-10.4v-11.2c0-1.3 1.5-2.1 2.5-1.3l9.3 6.9c.7.5 1.7 1.1 2.9 1.7 10.2 4.9 31.7 27.4 35.7 46.7 2.1 10.1-1.2 16.5-4.3 20z"
       id="path2736" />
    <path
       d="M402.09 444.87q-2.3-1-4.2-2.4c-.5 5.5-3 11-7.3 15.3-3.7 3.7-8.1 6.2-12.5 7.4 8.7 8.6 17 19.8 23.2 29.1 4.5 6.7 11.6 11.1 18.3 11.1 4.1 0 8.1-1.6 11.4-5.4 13-14.8-17.3-49.6-28.9-55.1z"
       fill="#33322f"
       id="path2738" />
  </g>
  <g
     class="Body--group"
     id="g2748">
    <path
       d="M401.886 436.443h-.2c-.9 0-1.6.7-1.6 1.6 1.3 44.5-28.9 84.7-25.3 97.1.2.7.8 1.1 1.5 1.1.3 0 .6-.1.9-.2 8.2-5.1 26.3-8.6 54.7-8.6 12.5 0 26.9.7 43.3 2.2 104 9.6 155.8 30.3 167 48.4.3.5.8.8 1.4.8.7 0 1.4-.5 1.6-1.3 13-68 4.6-129.1-8.1-170.5-.2-.7-.8-1.1-1.5-1.1h-.4c-93.523 41.432-152.27 38.548-233.3 30.5z"
       id="path2742" />
    <path
       d="m410.79 445.14c-1-0.134-2-0.234-3-0.3-0.9 25.8-10.8 49.4-18.2 67-1.8 4.3-4 9.5-5.5 13.8 13.8-4.2 32.9-5.2 48.1-5.2 13.2 0 28 0.7 44 2.2 49.1 4.5 89.4 11.7 119.9 21.3 20 6.3 34.7 13.4 44.1 21.1 10.5-66.5 0.1-120.7-8.4-150.4-79.614 34.164-122.39 37.206-221 30.5z"
       fill="#33322f"
       id="path2744" />
    <path
       d="m 477.27975,501.96061 c -0.70792,-0.14987 -1.06101,-0.43476 -2.09533,-1.69098 -2.71297,-3.29486 -6.35234,-5.59625 -10.3095,-6.51903 -1.40547,-0.3278 -2.9125,-0.46533 -5.18801,-0.47345 -1.53612,-0.006 -1.55365,-0.008 -1.73551,-0.32864 -0.10115,-0.1777 -0.25572,-0.71044 -0.34365,-1.18383 -0.41288,-2.22319 -1.36093,-4.14598 -3.02575,-6.13667 -1.88745,-2.25686 -4.28318,-4.00892 -7.37823,-5.3956 -1.2841,-0.57538 -1.83123,-1.09389 -2.00669,-1.90164 -0.179,-0.8245 -0.028,-1.22429 0.97901,-2.59025 1.69849,-2.30431 3.30821,-5.45474 4.08921,-8.00366 0.50255,-1.63992 0.90472,-3.49383 0.97141,-4.4777 0.11549,-1.7131 0.48307,-2.32226 1.43719,-2.38598 0.48818,-0.0327 0.60077,0.0288 1.46822,0.79789 3.15641,2.79965 7.18328,4.9491 12.31814,6.57496 1.78824,0.56621 4.26244,1.22223 4.34412,1.15177 0.0298,-0.0257 0.008,-0.39393 -0.0473,-0.81833 -0.0558,-0.42442 -0.0807,-1.59456 -0.0554,-2.60055 0.0706,-2.80285 0.68659,-5.14751 1.96439,-7.47659 0.40268,-0.73396 0.57139,-0.91956 0.92275,-1.01511 0.28169,-0.0765 0.54038,-0.0675 0.75017,0.0266 0.57613,0.25813 1.51066,2.33214 1.45333,3.22542 -0.0534,0.83325 -0.3123,0.7708 4.46364,1.0773 4.77587,0.30652 4.51123,0.3354 4.56466,-0.49788 0.0573,-0.89326 1.24932,-2.83083 1.85377,-3.0131 0.22008,-0.0665 0.47781,-0.0424 0.74741,0.0696 0.33625,0.13967 0.47984,0.34531 0.7854,1.12472 0.9696,2.47337 1.28084,4.87744 0.99256,7.66638 -0.10338,1.00084 -0.2778,2.15822 -0.38737,2.57202 -0.10964,0.41379 -0.17625,0.77805 -0.14814,0.80941 0.0902,0.1006 2.24183,-0.19404 4.61419,-0.63179 5.22557,-0.96424 9.59251,-2.61544 12.83255,-4.85227 0.84023,-0.58007 1.05468,-0.66915 1.53709,-0.6384 0.98552,0.0629 1.31246,0.74998 1.20452,2.53181 -0.059,0.98439 0.10227,2.87437 0.39109,4.56507 0.44884,2.62782 1.64256,5.95829 3.03257,8.46074 0.82405,1.48352 0.92281,1.89928 0.63987,2.69419 -0.2772,0.77869 -0.88613,1.22299 -2.23321,1.62948 -4.83389,1.45875 -8.61672,4.16685 -10.66223,7.63327 -0.63422,1.07475 -0.78751,1.41033 -1.13051,2.47448 -0.14764,0.45827 -0.36918,0.96686 -0.49215,1.13018 -0.22133,0.29398 -0.2391,0.29503 -1.76333,0.10408 -2.25784,-0.28279 -3.77003,-0.33913 -5.20596,-0.1936 -4.01227,0.40642 -7.89499,2.20316 -11.00215,5.09131 -0.72255,0.67159 -1.47142,1.26785 -1.66413,1.32502 -0.46599,0.13817 -1.07848,0.17517 -1.48268,0.0896 z"
       fill="#929292"
       id="path2746"
       style="stroke-width:1.39141;fill:#d8d8d8;fill-opacity:1" />
  </g>
  <g
     class="LeftArm--group"
     id="g2754">
    <path
       d="m591.41 420.96c-1.2277-0.35973-16.635-10.734-40.905-15.5-1.7-0.4-3.683 1.211-4.083 2.111 2.54 0.686 2.583 0.73 2.583 0.73 0.9 1.5 1.6 3.258 2.2 5.758 0.2 0.8 0.4 1.7 0.6 2.7 0.5 3 0.9 6.6 1 10.9 0.3 9.7-2.1 17.2-5.5 22.3-1.7 2.6-3.7 4.601-5.8 5.901-0.2 0.2-0.5 0.2-0.8 0.2h-0.3c-2.8-0.5-5.8-0.7-8.7-0.7 0 0 2.4 6.5 7.5 8 0.2 0.1 0.4 0.1 0.6 0.1 0.2 0.1 0.4 0.1 0.6 0.1 26.6 2.7 41.147 11.538 65.465 44.61 0.7 1.3 2 2 3.3 2 0.6 0 1.2-0.101 1.7-0.401 0.50795-0.26026 0.9441-0.64145 1.27-1.11 0.0628-0.09 0.12419-0.18098 0.184-0.273 4.81-11.512-4.6908-55.107-4.2398-70.343 2.6362 0.59893 5.6578-4.6047 1.485-6.8806-1.5519-0.75093-10.695-6.0373-18.159-10.203z"
       style="fill:#000000"
       id="path2750" />
    <path
       d="M612.796 440.859c-19.666-11.75-24.38-16.3-53.722-26.453.1.3.1.6.2.9.733 3.467 1.134 7.467 1.2 12 .4 13-3.5 21.7-6.8 26.6-.8 1.1-1.6 2.2-2.5 3.2 31.328 7.613 49.466 33.842 61.756 49.582 20.91-14.779 22.188-53.708-.134-65.83z"
       fill="#33322f"
       id="path2752" />
  </g>
</svg>
