<svg xmlns="http://www.w3.org/2000/svg" viewBox="0 0 1000 1000">
  <g class="RightArm--group">
    <path d="M436.59 504.77c-4.5 5.1-10.5 7.9-17 7.9-9.1 0-18.5-5.5-24.4-14.4-7.8-11.6-15.5-21.2-22.3-27.9l-4.8-4.7c-2-2-1.1-5.3 1.6-6.1l6.5-1.7c3.2-.9 6.4-2.7 9.1-5.5 3-3 4.8-6.7 5.2-10.4v-11.2c0-1.3 1.5-2.1 2.5-1.3l9.3 6.9c.7.5 1.7 1.1 2.9 1.7 10.2 4.9 31.7 27.4 35.7 46.7 2.1 10.1-1.2 16.5-4.3 20z"/>
    <path fill="#33322f" d="M402.09 444.87q-2.3-1-4.2-2.4c-.5 5.5-3 11-7.3 15.3-3.7 3.7-8.1 6.2-12.5 7.4 8.7 8.6 17 19.8 23.2 29.1 4.5 6.7 11.6 11.1 18.3 11.1 4.1 0 8.1-1.6 11.4-5.4 13-14.8-17.3-49.6-28.9-55.1z"/>
  </g>
  <g class="Body--group">
    <path d="M635.186 405.943c-93.523 41.432-152.27 38.548-233.3 30.5h-.2c-.9 0-1.6.7-1.6 1.6 1.3 44.5-28.9 84.7-25.3 97.1.2.7.8 1.1 1.5 1.1.3 0 .6-.1.9-.2 8.2-5.1 26.3-8.6 54.7-8.6 12.5 0 26.9.7 43.3 2.2 104 9.6 155.8 30.3 167 48.4.3.5.8.8 1.4.8.7 0 1.4-.5 1.6-1.3 13-68 4.6-129.1-8.1-170.5-.2-.7-.8-1.1-1.5-1.1h-.4zM473.99 457.438a.928.928 0 0 1 .35.076.788.788 0 0 1 .228.175c.08.084.165.19.248.313.084.122.169.26.25.41a7.588 7.588 0 0 1 .443.982c.063.17.117.338.16.5.045.163.08.319.1.461.022.143.031.272.024.383-.007.104-.017.195-.02.274a.543.543 0 0 0 .022.205c.021.058.06.106.127.148a.96.96 0 0 0 .29.11c.132.031.301.06.518.086.218.026.484.05.807.076.647.05 1.525.103 2.719.18 1.194.076 2.073.135 2.72.167.324.017.59.028.81.03a4.47 4.47 0 0 0 .523-.02.969.969 0 0 0 .302-.07.297.297 0 0 0 .145-.133.53.53 0 0 0 .049-.2c.007-.078.008-.168.015-.273.008-.111.033-.24.073-.379a3.98 3.98 0 0 1 .156-.443 7.595 7.595 0 0 1 .79-1.393c.1-.138.2-.264.3-.374.099-.111.194-.206.285-.278a.798.798 0 0 1 .25-.146.929.929 0 0 1 .355-.032c.126.012.258.046.393.102a.927.927 0 0 1 .22.125.892.892 0 0 1 .184.197c.058.083.114.188.176.319.062.13.129.29.205.484a15.804 15.804 0 0 1 .816 2.777 14.867 14.867 0 0 1 .245 1.891 16.246 16.246 0 0 1 .011 1.969c-.017.337-.044.68-.08 1.029-.051.5-.121 1.04-.191 1.506-.07.466-.14.86-.195 1.066a7.525 7.525 0 0 0-.125.55c-.027.146-.038.243-.024.259.023.025.174.026.426.006.251-.02.602-.062 1.025-.12a72.789 72.789 0 0 0 3.164-.517 48.516 48.516 0 0 0 3.754-.85 37.405 37.405 0 0 0 3.406-1.1 31.577 31.577 0 0 0 1.565-.638 27.407 27.407 0 0 0 2.84-1.453c.44-.261.862-.53 1.267-.81.21-.146.382-.26.528-.35.145-.09.265-.154.375-.2a1.2 1.2 0 0 1 .308-.085 1.67 1.67 0 0 1 .326-.004c.124.008.235.024.338.053.103.028.198.068.282.119a.93.93 0 0 1 .222.185c.066.075.122.163.17.264.048.1.088.213.12.342.03.128.052.271.068.43.015.157.025.331.025.52 0 .19-.006.395-.02.618a9.76 9.76 0 0 0-.005.89c.011.343.035.724.07 1.128a30.914 30.914 0 0 0 .326 2.546c.056.329.123.669.201 1.016.079.348.168.704.266 1.065a28.41 28.41 0 0 0 .695 2.197 31.804 31.804 0 0 0 .873 2.176 27.772 27.772 0 0 0 .996 2.007c.206.371.368.676.489.936.12.26.202.476.248.67a1.699 1.699 0 0 1 .039.54 2.34 2.34 0 0 1-.135.55 2.138 2.138 0 0 1-.275.525 1.89 1.89 0 0 1-.198.225 2.204 2.204 0 0 1-.242.203 3.49 3.49 0 0 1-.64.36c-.251.11-.54.214-.877.316-.605.182-1.194.385-1.764.605-.57.22-1.121.458-1.654.715-.534.257-1.048.531-1.541.822-.494.291-.967.599-1.418.922-.452.323-.881.662-1.287 1.016a15.84 15.84 0 0 0-1.67 1.685 14.187 14.187 0 0 0-.926 1.227 13.1 13.1 0 0 0-.403.64c-.317.538-.515.891-.675 1.243-.08.175-.15.35-.223.548a18.29 18.29 0 0 0-.232.684c-.074.23-.167.471-.256.676-.09.205-.175.373-.237.455a.69.69 0 0 1-.154.166.452.452 0 0 1-.238.068 3.302 3.302 0 0 1-.485-.025 39.622 39.622 0 0 1-.886-.106 43.789 43.789 0 0 0-1.565-.17 26.27 26.27 0 0 0-1.347-.087 17.67 17.67 0 0 0-1.192-.006c-.379.01-.742.034-1.101.07a17.679 17.679 0 0 0-2.977.56 18.52 18.52 0 0 0-2.865 1.055 19.345 19.345 0 0 0-2.695 1.52 19.998 19.998 0 0 0-2.467 1.957c-.361.336-.728.652-1.03.892a6.54 6.54 0 0 1-.394.295 1.087 1.087 0 0 1-.24.137 3.115 3.115 0 0 1-.371.084 3.467 3.467 0 0 1-.773.047 2.29 2.29 0 0 1-.818-.191 2.051 2.051 0 0 1-.446-.282 4.808 4.808 0 0 1-.506-.486c-.19-.206-.406-.46-.664-.773a20.15 20.15 0 0 0-2.198-2.28 19.666 19.666 0 0 0-2.49-1.869 18.52 18.52 0 0 0-4.154-1.96 17.68 17.68 0 0 0-1.467-.411 14.55 14.55 0 0 0-1.084-.21 18.15 18.15 0 0 0-1.184-.145 26.417 26.417 0 0 0-1.347-.086c-.483-.02-1.004-.03-1.572-.032a45.256 45.256 0 0 1-.895-.01 3.276 3.276 0 0 1-.482-.037.444.444 0 0 1-.227-.095.697.697 0 0 1-.133-.186 2.663 2.663 0 0 1-.176-.482 7.558 7.558 0 0 1-.168-.701 12.679 12.679 0 0 0-.412-1.618 11.821 11.821 0 0 0-.63-1.539 12.806 12.806 0 0 0-.866-1.496 15.81 15.81 0 0 0-1.117-1.484 18.05 18.05 0 0 0-3.236-3.025 20.05 20.05 0 0 0-1.95-1.26 23.66 23.66 0 0 0-2.193-1.112 7.628 7.628 0 0 1-.83-.425 3.435 3.435 0 0 1-.588-.438 2.23 2.23 0 0 1-.215-.234 1.866 1.866 0 0 1-.373-.805 2.316 2.316 0 0 1-.064-.56 1.495 1.495 0 0 1 .11-.532c.07-.187.176-.39.33-.633.152-.242.351-.523.603-.865a27.806 27.806 0 0 0 1.834-2.873 31.806 31.806 0 0 0 1.066-2.086 28.455 28.455 0 0 0 .86-2.062c.122-.335.232-.664.33-.983a30.875 30.875 0 0 0 .648-2.484c.086-.396.158-.772.213-1.11a9.82 9.82 0 0 0 .11-.882c.028-.429.072-.79.138-1.088.033-.15.071-.284.115-.404.044-.12.094-.227.15-.32a1.24 1.24 0 0 1 .19-.243 1.043 1.043 0 0 1 .514-.281c.101-.026.21-.043.33-.051.122-.008.22-.011.312.002.093.013.18.042.28.096.098.053.21.132.35.246.14.113.31.263.527.455a25.566 25.566 0 0 0 2.533 1.978c.45.31.916.612 1.396.903a33.236 33.236 0 0 0 3.067 1.636c.542.255 1.099.5 1.673.737.575.237 1.166.465 1.774.685.608.22 1.233.432 1.875.635.894.283 1.958.589 2.81.815.427.113.8.207 1.07.267.272.06.443.088.464.07.015-.012.017-.111.007-.26a8.282 8.282 0 0 0-.054-.558c-.028-.212-.049-.61-.059-1.082a35.07 35.07 0 0 1 .002-1.52c.009-.35.027-.692.053-1.029a17.66 17.66 0 0 1 .264-1.953c.062-.315.132-.627.212-.933a14.94 14.94 0 0 1 .6-1.803 15.838 15.838 0 0 1 .836-1.758c.1-.184.188-.333.266-.455a2.15 2.15 0 0 1 .214-.291.9.9 0 0 1 .208-.174.925.925 0 0 1 .234-.096 1.37 1.37 0 0 1 .402-.048z"/>
    <path fill="#33322f" d="M631.79 414.64c-79.615 34.165-122.391 37.207-221 30.5-1-.133-2-.234-3-.3-.9 25.8-10.8 49.4-18.2 67-1.8 4.3-4 9.5-5.5 13.8 13.8-4.2 32.9-5.2 48.1-5.2 13.2 0 28 .7 44 2.2 49.1 4.5 89.4 11.7 119.9 21.3 20 6.3 34.7 13.4 44.1 21.1 10.5-66.5.099-120.7-8.4-150.4zm-157.8 42.798a.928.928 0 0 1 .35.076c.576.258 1.51 2.331 1.453 3.224-.053.834-.313.772 4.463 1.078 4.776.307 4.51.336 4.564-.498.058-.893 1.25-2.831 1.854-3.013.22-.067.478-.042.748.07.336.14.48.346.785 1.125.97 2.473 1.28 4.877.992 7.666-.103 1-.277 2.158-.387 2.572-.11.414-.176.778-.148.809.09.1 2.243-.193 4.615-.631 5.226-.964 9.592-2.615 12.832-4.852.84-.58 1.055-.669 1.537-.638.986.063 1.313.75 1.206 2.531-.06.984.101 2.874.39 4.565.449 2.627 1.641 5.958 3.031 8.46.824 1.484.924 1.9.641 2.696-.277.778-.885 1.222-2.232 1.629-4.834 1.458-8.617 4.166-10.663 7.632-.634 1.075-.787 1.41-1.13 2.475-.148.458-.37.968-.493 1.13-.22.295-.239.295-1.763.104-2.258-.282-3.77-.338-5.205-.193-4.013.407-7.897 2.204-11.004 5.092-.723.671-1.472 1.267-1.664 1.324-.466.138-1.079.176-1.483.09-.708-.15-1.061-.435-2.095-1.691-2.713-3.295-6.352-5.597-10.309-6.52-1.405-.328-2.912-.464-5.188-.473-1.536-.006-1.554-.007-1.736-.328-.101-.177-.256-.71-.344-1.183-.412-2.223-1.36-4.146-3.025-6.137-1.887-2.257-4.284-4.01-7.379-5.397-1.284-.575-1.83-1.094-2.006-1.902-.179-.824-.028-1.224.979-2.59 1.698-2.304 3.309-5.455 4.09-8.004.502-1.64.904-3.492.97-4.476.116-1.713.484-2.323 1.438-2.387.488-.033.601.03 1.469.799 3.156 2.8 7.183 4.948 12.318 6.574 1.788.566 4.262 1.223 4.344 1.153.03-.026.008-.394-.047-.819-.056-.424-.082-1.595-.057-2.601.07-2.803.687-5.148 1.965-7.477.403-.734.57-.92.922-1.016a1.35 1.35 0 0 1 .402-.048z"/>
  </g>
  <g class="LeftArm--group">
    <path d="M591.41 420.96c-1.228-.36-16.635-10.734-40.905-15.5-1.7-.4-3.683 1.211-4.083 2.111 2.54.686 2.583.73 2.583.73.9 1.5 1.6 3.258 2.2 5.758.2.8.4 1.7.6 2.7.5 3 .9 6.6 1 10.9.3 9.7-2.1 17.2-5.5 22.3-1.7 2.6-3.7 4.601-5.8 5.901-.2.2-.5.2-.8.2h-.3c-2.8-.5-5.8-.7-8.7-.7 0 0 2.4 6.5 7.5 8 .2.1.4.1.6.1.2.1.4.1.6.1 26.6 2.7 41.147 11.538 65.465 44.61.7 1.3 2 2 3.3 2 .6 0 1.2-.101 1.7-.401a3.48 3.48 0 0 0 1.27-1.11c.063-.09.124-.181.184-.273 4.81-11.512-4.69-55.107-4.24-70.343 2.636.599 5.658-4.605 1.485-6.88-1.552-.752-10.695-6.038-18.159-10.204z"/>
    <path fill="#33322f" d="M612.796 440.859c-19.666-11.75-24.38-16.3-53.722-26.453.1.3.1.6.2.9.733 3.467 1.134 7.467 1.2 12 .4 13-3.5 21.7-6.8 26.6-.8 1.1-1.6 2.2-2.5 3.2 31.328 7.613 49.466 33.842 61.756 49.582 20.91-14.779 22.188-53.708-.134-65.83z"/>
  </g>
</svg>
