<svg xmlns="http://www.w3.org/2000/svg" viewBox="0 0 1000 1000">
  <g class="RightArm--group">
    <path d="M436.59 504.77c-4.5 5.1-10.5 7.9-17 7.9-9.1 0-18.5-5.5-24.4-14.4-7.8-11.6-15.5-21.2-22.3-27.9l-4.8-4.7c-2-2-1.1-5.3 1.6-6.1l6.5-1.7c3.2-.9 6.4-2.7 9.1-5.5 3-3 4.8-6.7 5.2-10.4v-11.2c0-1.3 1.5-2.1 2.5-1.3l9.3 6.9c.7.5 1.7 1.1 2.9 1.7 10.2 4.9 31.7 27.4 35.7 46.7 2.1 10.1-1.2 16.5-4.3 20z"/>
    <path fill="#33322f" d="M402.09 444.87q-2.3-1-4.2-2.4c-.5 5.5-3 11-7.3 15.3-3.7 3.7-8.1 6.2-12.5 7.4 8.7 8.6 17 19.8 23.2 29.1 4.5 6.7 11.6 11.1 18.3 11.1 4.1 0 8.1-1.6 11.4-5.4 13-14.8-17.3-49.6-28.9-55.1z"/>
  </g>
  <g class="Body--group">
    <path d="M401.886 436.443h-.2c-.9 0-1.6.7-1.6 1.6 1.3 44.5-28.9 84.7-25.3 97.1.2.7.8 1.1 1.5 1.1.3 0 .6-.1.9-.2 8.2-5.1 26.3-8.6 54.7-8.6 12.5 0 26.9.7 43.3 2.2 104 9.6 155.8 30.3 167 48.4.3.5.8.8 1.4.8.7 0 1.4-.5 1.6-1.3 13-68 4.6-129.1-8.1-170.5-.2-.7-.8-1.1-1.5-1.1h-.4c-93.523 41.432-152.27 38.548-233.3 30.5z"/>
    <path fill="#33322f" d="M410.79 445.14c-1-.134-2-.234-3-.3-.9 25.8-10.8 49.4-18.2 67-1.8 4.3-4 9.5-5.5 13.8 13.8-4.2 32.9-5.2 48.1-5.2 13.2 0 28 .7 44 2.2 49.1 4.5 89.4 11.7 119.9 21.3 20 6.3 34.7 13.4 44.1 21.1 10.5-66.5.1-120.7-8.4-150.4-79.614 34.164-122.39 37.206-221 30.5z"/>
    <path fill="#fff" d="M477.28 501.96c-.708-.15-1.061-.434-2.096-1.69-2.713-3.295-6.352-5.597-10.31-6.52-1.405-.327-2.912-.465-5.187-.473-1.536-.006-1.554-.008-1.736-.328-.1-.178-.255-.71-.343-1.184-.413-2.224-1.361-4.146-3.026-6.137-1.887-2.257-4.283-4.009-7.378-5.396-1.284-.575-1.831-1.093-2.007-1.901-.179-.825-.028-1.225.98-2.59 1.698-2.305 3.307-5.455 4.088-8.004.503-1.64.905-3.494.972-4.478.115-1.713.483-2.322 1.437-2.386.488-.033.6.029 1.468.798 3.157 2.8 7.183 4.95 12.318 6.575 1.788.566 4.263 1.222 4.344 1.152.03-.026.008-.394-.047-.819-.056-.424-.08-1.594-.055-2.6.07-2.803.686-5.148 1.964-7.477.403-.734.571-.92.923-1.015.282-.076.54-.067.75.027.576.258 1.51 2.332 1.453 3.225-.053.833-.312.771 4.464 1.078 4.776.306 4.511.335 4.565-.498.057-.894 1.249-2.831 1.853-3.013.22-.067.478-.043.748.07.336.139.48.344.785 1.124.97 2.473 1.281 4.877.993 7.666-.104 1.001-.278 2.158-.388 2.572-.11.414-.176.778-.148.81.09.1 2.242-.194 4.614-.632 5.226-.964 9.593-2.616 12.833-4.852.84-.58 1.055-.67 1.537-.639.986.063 1.313.75 1.205 2.532-.06.984.102 2.874.39 4.565.45 2.628 1.643 5.958 3.033 8.46.824 1.484.923 1.9.64 2.695-.277.779-.886 1.223-2.233 1.63-4.834 1.458-8.617 4.166-10.662 7.633-.635 1.075-.788 1.41-1.13 2.474-.148.459-.37.967-.493 1.13-.221.294-.24.295-1.763.105-2.258-.283-3.77-.34-5.206-.194-4.013.406-7.895 2.203-11.002 5.091-.723.672-1.472 1.268-1.665 1.325-.466.138-1.078.175-1.482.09z"/>
  </g>
  <g class="LeftArm--group">
    <path d="M591.41 420.96c-1.228-.36-16.635-10.734-40.905-15.5-1.7-.4-3.683 1.211-4.083 2.111 2.54.686 2.583.73 2.583.73.9 1.5 1.6 3.258 2.2 5.758.2.8.4 1.7.6 2.7.5 3 .9 6.6 1 10.9.3 9.7-2.1 17.2-5.5 22.3-1.7 2.6-3.7 4.601-5.8 5.901-.2.2-.5.2-.8.2h-.3c-2.8-.5-5.8-.7-8.7-.7 0 0 2.4 6.5 7.5 8 .2.1.4.1.6.1.2.1.4.1.6.1 26.6 2.7 41.147 11.538 65.465 44.61.7 1.3 2 2 3.3 2 .6 0 1.2-.101 1.7-.401a3.48 3.48 0 0 0 1.27-1.11c.063-.09.124-.181.184-.273 4.81-11.512-4.69-55.107-4.24-70.343 2.636.599 5.658-4.605 1.485-6.88-1.552-.752-10.695-6.038-18.159-10.204z"/>
    <path fill="#33322f" d="M612.796 440.859c-19.666-11.75-24.38-16.3-53.722-26.453.1.3.1.6.2.9.733 3.467 1.134 7.467 1.2 12 .4 13-3.5 21.7-6.8 26.6-.8 1.1-1.6 2.2-2.5 3.2 31.328 7.613 49.466 33.842 61.756 49.582 20.91-14.779 22.188-53.708-.134-65.83z"/>
  </g>
</svg>
