<svg id="wapuugotchi_svg__item" version="1.1" viewBox="0 0 1e3 1e3" xmlns="http://www.w3.org/2000/svg">
    <g class="RightArm--group">
        <path d="M436.59 504.77c-4.5 5.1-10.5 7.9-17 7.9-9.1 0-18.5-5.5-24.4-14.4-7.8-11.6-15.5-21.2-22.3-27.9l-4.8-4.7c-2-2-1.1-5.3 1.6-6.1l6.5-1.7c3.2-.9 6.4-2.7 9.1-5.5 3-3 4.8-6.7 5.2-10.4v-11.2c0-1.3 1.5-2.1 2.5-1.3l9.3 6.9c.7.5 1.7 1.1 2.9 1.7 10.2 4.9 31.7 27.4 35.7 46.7 2.1 10.1-1.2 16.5-4.3 20z"/><path d="M402.09 444.87q-2.3-1-4.2-2.4c-.5 5.5-3 11-7.3 15.3-3.7 3.7-8.1 6.2-12.5 7.4 8.7 8.6 17 19.8 23.2 29.1 4.5 6.7 11.6 11.1 18.3 11.1 4.1 0 8.1-1.6 11.4-5.4 13-14.8-17.3-49.6-28.9-55.1z" fill="#33322f"/></g>
    <g class="Body--group">
        <path d="M401.886 436.443h-.2c-.9 0-1.6.7-1.6 1.6 1.3 44.5-28.9 84.7-25.3 97.1.2.7.8 1.1 1.5 1.1.3 0 .6-.1.9-.2 8.2-5.1 26.3-8.6 54.7-8.6 12.5 0 26.9.7 43.3 2.2 104 9.6 155.8 30.3 167 48.4.3.5.8.8 1.4.8.7 0 1.4-.5 1.6-1.3 13-68 4.6-129.1-8.1-170.5-.2-.7-.8-1.1-1.5-1.1h-.4c-93.523 41.432-152.27 38.548-233.3 30.5z"/>
        <path d="m410.79 445.14c-1-0.134-2-0.234-3-0.3-0.9 25.8-10.8 49.4-18.2 67-1.8 4.3-4 9.5-5.5 13.8 13.8-4.2 32.9-5.2 48.1-5.2 13.2 0 28 0.7 44 2.2 49.1 4.5 89.4 11.7 119.9 21.3 20 6.3 34.7 13.4 44.1 21.1 10.5-66.5 0.1-120.7-8.4-150.4-79.614 34.164-122.39 37.206-221 30.5z" fill="#33322f"/>
        <path d="m477.64 496.88c-0.50878-0.10771-0.76254-0.31246-1.5059-1.2153-1.9498-2.368-4.5654-4.022-7.4094-4.6852-1.0101-0.23559-2.0932-0.33443-3.7286-0.34027-1.104-4e-3 -1.1166-6e-3 -1.2473-0.23619-0.0727-0.12771-0.18379-0.51059-0.24698-0.85081-0.29674-1.5978-0.9781-2.9797-2.1746-4.4104-1.3565-1.622-3.0783-2.8812-5.3027-3.8778-0.92288-0.41352-1.3161-0.78617-1.4422-1.3667-0.12865-0.59256-0.0201-0.87989 0.70361-1.8616 1.2207-1.6561 2.3776-3.9203 2.9389-5.7522 0.36118-1.1786 0.65022-2.511 0.69815-3.2181 0.083-1.2312 0.34718-1.669 1.0329-1.7148 0.35085-0.0235 0.43177 0.0207 1.0552 0.57344 2.2685 2.0121 5.1626 3.5569 8.853 4.7254 1.2852 0.40693 3.0634 0.87841 3.1221 0.82777 0.0214-0.0185 6e-3 -0.28311-0.034-0.58813-0.0401-0.30503-0.058-1.146-0.0398-1.869 0.0507-2.0144 0.49345-3.6995 1.4118-5.3734 0.2894-0.52749 0.41065-0.66088 0.66317-0.72955 0.20245-0.055 0.38837-0.0485 0.53915 0.0191 0.41406 0.18552 1.0857 1.6761 1.0445 2.3181-0.0384 0.59885-0.22445 0.55397 3.208 0.77425 3.4324 0.22029 3.2422 0.24105 3.2806-0.35783 0.0412-0.64198 0.89788-2.0345 1.3323-2.1655 0.15817-0.0478 0.3434-0.0305 0.53716 0.05 0.24166 0.10038 0.34486 0.24817 0.56446 0.80833 0.69685 1.7776 0.92054 3.5054 0.71335 5.5098-0.0743 0.7193-0.19965 1.5511-0.2784 1.8485-0.0788 0.29739-0.12667 0.55918-0.10647 0.58172 0.0648 0.0723 1.6112-0.13946 3.3162-0.45407 3.7556-0.69299 6.8941-1.8797 9.2227-3.4873 0.60387-0.4169 0.758-0.48092 1.1047-0.45882 0.70829 0.0452 0.94326 0.53901 0.86569 1.8196-0.0424 0.70748 0.0735 2.0658 0.28107 3.2809 0.32258 1.8886 1.1805 4.2822 2.1795 6.0807 0.59224 1.0662 0.66322 1.365 0.45987 1.9363-0.19922 0.55964-0.63686 0.87896-1.605 1.1711-3.4741 1.0484-6.1928 2.9947-7.6629 5.486-0.45581 0.77242-0.56598 1.0136-0.81249 1.7784-0.10611 0.32936-0.26533 0.69488-0.35371 0.81226-0.15907 0.21128-0.17184 0.21203-1.2673 0.0748-1.6227-0.20324-2.7095-0.24373-3.7415-0.13914-2.8836 0.29209-5.6741 1.5834-7.9072 3.6591-0.51929 0.48267-1.0575 0.9112-1.196 0.95229-0.33491 0.0993-0.7751 0.12589-1.0656 0.0644z" fill="#929292" />
    </g>
    <g class="LeftArm--group">
        <path d="m591.41 420.96c-1.2277-0.35973-16.635-10.734-40.905-15.5-1.7-0.4-3.683 1.211-4.083 2.111 2.54 0.686 2.583 0.73 2.583 0.73 0.9 1.5 1.6 3.258 2.2 5.758 0.2 0.8 0.4 1.7 0.6 2.7 0.5 3 0.9 6.6 1 10.9 0.3 9.7-2.1 17.2-5.5 22.3-1.7 2.6-3.7 4.601-5.8 5.901-0.2 0.2-0.5 0.2-0.8 0.2h-0.3c-2.8-0.5-5.8-0.7-8.7-0.7 0 0 2.4 6.5 7.5 8 0.2 0.1 0.4 0.1 0.6 0.1 0.2 0.1 0.4 0.1 0.6 0.1 26.6 2.7 41.147 11.538 65.465 44.61 0.7 1.3 2 2 3.3 2 0.6 0 1.2-0.101 1.7-0.401 0.50795-0.26026 0.9441-0.64145 1.27-1.11 0.0628-0.09 0.12419-0.18098 0.184-0.273 4.81-11.512-4.6908-55.107-4.2398-70.343 2.6362 0.59893 5.6578-4.6047 1.485-6.8806-1.5519-0.75093-10.695-6.0373-18.159-10.203z" style="fill:#000000"/>
        <path d="M612.796 440.859c-19.666-11.75-24.38-16.3-53.722-26.453.1.3.1.6.2.9.733 3.467 1.134 7.467 1.2 12 .4 13-3.5 21.7-6.8 26.6-.8 1.1-1.6 2.2-2.5 3.2 31.328 7.613 49.466 33.842 61.756 49.582 20.91-14.779 22.188-53.708-.134-65.83z" fill="#33322f"/>
    </g>
</svg>
