<?xml version="1.0" encoding="UTF-8"?>
<svg viewBox="0 0 1e3 1e3" xmlns="http://www.w3.org/2000/svg">
	<path d="M436.6 504c-4.5 5.1-10.5 7.9-17 7.9-9.1 0-18.5-5.5-24.4-14.4-7.8-11.6-15.5-21.2-22.3-27.9l-4.8-4.7c-2-2-1.1-5.3 1.6-6.1l6.5-1.7c3.2-.9 6.4-2.7 9.1-5.5 3-3 4.8-6.7 5.2-10.4V430c0-1.3 1.5-2.1 2.5-1.3l9.3 6.9c.7.5 1.7 1.1 2.9 1.7 10.2 4.9 31.7 27.4 35.7 46.7 2.1 10.1-1.2 16.5-4.3 20z"/>
	<path d="M402.1 444.1c-1.5-.7-2.9-1.5-4.2-2.4-.5 5.5-3 11-7.3 15.3-3.7 3.7-8.1 6.2-12.5 7.4 8.7 8.6 17 19.8 23.2 29.1 4.5 6.7 11.6 11.1 18.3 11.1 4.1 0 8.1-1.6 11.4-5.4 13-14.8-17.3-49.6-28.9-55.1z" fill="#fc0"/>
	<path d="M599.1 649.5c-9 25.7-26.4 50-50.3 70.3-23.8 20.3-51.8 34.7-81 41.6-6.9 1.6-14.1 2.5-21.5 2.5-30.8 0-58.9-13.9-74.8-27-13.6-11.1-21.2-23.3-20.9-33.5.4-12 6.7-20.7 16.8-23.3 2.1-.5 4.3-.8 6.7-.8 11.2 0 27.2 6.7 38.5 25.7 7.8 13.2 22 20.1 41.1 20.1h1.2c40.7-.8 87.6-31.2 109.1-70.8 7.7-14.1 13.2-29.6 17.1-40.8 1.9-5.4 3.6-10.1 5.1-13.5 1.3-3.1 4.1-9.4 10.4-9.4 4.1 0 7.6 1.8 9.9 5 5.5 7.6 3.3 23.3-7.4 53.9z"/>
	<path d="M570.5 657.8c-22.7 41.7-72.5 73.9-115.5 74.7h-1.4c-21.6 0-38.3-8.4-47.4-23.8-9-15.1-22-22.1-32.1-22.1-1.7 0-3.3.2-4.8.6-7 1.8-11 7.6-11.3 16.4-.3 7.7 6.6 18 18.2 27.5 16.8 13.7 43.2 25.3 70.1 25.3 6.6 0 13.3-.7 19.8-2.3 57.2-13.5 108.5-57.4 126-107.1 5.4-15.3 16.7-49.2 4.5-49.2-4.5.1-10.8 31.8-26.1 60z" fill="#f80"/>
	<path d="M649.7 531.9c-2 24-6.7 45.1-13.9 62.9-8.5 20.9-20.3 36.6-35.1 46.8-34 23.4-64.8 26-76.4 26-1.3 0-2.5 0-3.8-.1-18.4-.8-26-4.4-32.7-7.5-5.9-2.8-11-5.2-24.9-5.7-37.5-1.5-67-9.9-83.1-23.6-.2-.1-.5-.4-.9-.7-4.8-3.5-19.3-14.3-25-24.7-5.3-9.7-6.2-22.3-2.3-31.4 13.4-31.2 24.5-40.5 33.5-48 3.6-3 6.4-5.3 8.8-8.7 2.2-3.1 3.8-7.1 4.9-12.2 0-.1 0-.2.1-.3 3.9-15 3.4-34.9 2.8-56-.2-5.7-.3-11.7-.4-17.5v-.1c0-18.6 9.6-40.7 25.7-59.2 18.1-20.8 41.6-33.6 66.1-36.2 20.2-2.1 34.3-3.1 45.9-3.1 43.7 0 58.6 14.8 82.2 48.4 7.5 10.6 12.1 22.5 16 33.7 11.1 30.4 15.9 76.5 12.5 117.2z"/>
	<path d="M358.5 576.7c-3 7-2.2 17.4 2 25 5.6 10.3 23 22.2 24.1 23.2 15.1 12.9 43.7 20.5 78.7 21.9 31.2 1.3 24.3 11.8 57.6 13.3 1.1 0 2.2.1 3.5.1 16.7 0 43.7-5 72.2-24.7 58-39.9 52.9-165.3 34-218.6-3.9-11.1-8.3-22.2-15.1-31.9-23.5-33.5-36.6-45.2-76.2-45.2-12.2 0-26.9 1.1-45.1 3.1-49.9 5.3-85.3 55.3-85.3 88.1.3 27.4 2.5 55.1-2.7 75.5-1.4 6.5-3.4 11.2-6 14.9-9.8 13.5-23.4 12.4-41.7 55.3z" fill="#fc0"/>
	<path d="M390.6 457c-5.2 5.1-11.7 8.1-17.8 8.1-8.1 0-14-5.1-15.6-13.3-1-5.4.9-11.3 5.4-16.7 5.8-6.9 14.9-12 21.7-12.1h.2c1.3 0 2.6.2 3.8.6h.2l.1.1c4.5 1.8 7.9 6.2 9.1 11.8 1.4 7.5-1.2 15.5-7.1 21.5z"/>
	<path d="M385.4 451.7c4.2-4.2 6-9.6 5-14.7-.6-3.1-2.3-5.5-4.6-6.4-.4-.1-.9-.2-1.3-.2h-.1c-4 0-11.3 3.6-16.1 9.4-1.8 2.1-4.6 6.3-3.8 10.6 1.1 6 5.1 7.3 8.3 7.3 4.1 0 8.8-2.2 12.6-6z" fill="#fc0"/>
	<path d="M384.3 648c-2.4 3.7-6.4 5.7-11.5 5.7-1.9 0-4-.3-6.2-.8-25-6-59.3-43.6-63.6-64.5-1.9-9.4-.2-18 5-24.4 4.6-5.7 11.4-8.8 18.9-8.8 6.8 0 13.6 2.5 19.8 7.3 12.2 9.4 32.9 50.5 37.3 60.7 2.5 5.8 4.9 17.7.3 24.8z"/>
	<path d="M310.1 586.8c3.8 18.2 36.2 53.6 58.1 58.8 1.7.4 3.2.6 4.5.6 3.4 0 4.7-1.3 5.4-2.3 2.3-3.5 1.5-12.1-1-17.9-6.1-13.9-25.3-50.3-35.1-57.8-4.9-3.8-10.2-5.8-15.3-5.8-5.3 0-10 2.2-13.2 6.1-3.6 4.7-4.8 11.2-3.4 18.3z" fill="#fc0"/>
	<path transform="matrix(.86831 0 0 .86831 50.255 86.132)" d="M343.41 647.57c-.97 1.55-1.63 3.61-.56 4.74.15.15.27.35.41.64l.07.14.1.11c.07.08.14.16.2.25l.47.62.72-.29c6.24-2.47 12.74-5.87 13.6-12.34l.16-1.18-1.19.02c-1.59.03-3.16.26-4.68.7-4.68 1.35-7.87 4.29-9.3 6.59z" fill="#bf1313"/>
	<path transform="matrix(.86831 0 0 .86831 50.255 86.132)" d="m363.71 641.89-.44 1.89c-2.49 10.69-16.47 15.06-27.7 18.58l-.84.27c-2.6.82-5.06 1.6-7.34 2.44l-1 .37.41.99c.34.81 1.16 2 1.93 2.58l.3.22.37-.02c3.3-.19 8.41-1.24 14.37-2.96 9.58-2.75 21.71-7.39 25.72-11.05l.05-.04.07-.08.58-.57.03-.04.1-.08.08-.1c.38-.52.43-1.01.43-1.31.06-2.21-1.78-5.28-5.8-9.65zm11.96-18.84c-4.68-4.81-11.24-9.67-16.04-13.23l-.16-.12c-4.79-3.54-6.94-5.17-7.78-6.55-4.71-7.79-5.91-17.36-7.18-27.49l-.01-.11c-1.39-10.94-2.82-22.26-8.95-31.49-3.4-5.13-7.07-9.45-10.9-12.85l-3.32-1.73c5.32 8.48 10.75 20.56 12.67 29.92 1.17 5.57 4.97 27.84 2.17 35.16l-.09.23.03.25c.14 1.31 1.49 12.95 5.68 18.82 2.32 3.25 7.46 7.82 12.9 12.65l.08.07c3.54 3.13 7.61 6.78 10.94 10.08l.05.06.05.04c5.59 5.55 8.57 9.64 9.66 13.25l.41 1.36 1.16-.82c6.69-4.74 7.27-9.66 7.12-12.95-.07-1.83-1.05-6.92-8.49-14.55z" fill="#ea3434"/>
	<path transform="matrix(.86831 0 0 .86831 50.255 86.132)" d="m336.84 646.29.99.88.6-1.18c.19-.38.4-.75.63-1.12 2.56-4.12 6.99-7.33 12.17-8.82 1.04-.3 2.12-.53 3.2-.68l2.19-.31-1.65-1.47c-1.25-1.11-2.46-2.19-3.59-3.19-5.69-5.05-11.07-9.82-13.76-13.58-3.31-4.63-5.04-11.56-5.92-16.56l-.23-1.33-1.22.58c-1.76.84-3.78 1.6-6.03 2.24-5.36 1.54-11.69 2.44-17.37 2.48-4.56.03-8.68-.45-12.24-1.44l-1.87-.52.63 1.84c1.41 4.13 4.11 11.48 6.33 14.21 3.43 4.24 10.37 8.85 17.72 13.73 6.37 4.23 13.56 9 19.42 14.24zm-30.01-47.16c5.24-.03 10.88-.84 15.88-2.28 4.15-1.19 7.28-2.64 8.6-3.99l.16-.16.08-.21c1.07-2.94.78-15.73-2.56-32.07-3.6-17.68-13.13-30.26-18.48-36.18a3.174 3.174 0 0 0-2.23-1.06c-.35-.02-.7.03-1.04.12-.5.14-.95.4-1.34.76-20.56 19.34-21.17 63.91-18.27 68.96l.05.09.07.08c3.45 3.89 10.22 6 19.08 5.94z" fill="#ea3434"/>
	<path transform="matrix(.86831 0 0 .86831 50.255 86.132)" d="M357.08 667.77c-3.67 1.4-7.67 2.73-11.57 3.85-6.8 1.96-12.79 3.14-16.45 3.26-3.82.12-7.35-4.73-8-8-.49-2.47.29-4.67 2.15-6.03.12-.1.22-.18.33-.26l.04-.01.09-.07h.02l.05-.03c4.07-2.43 9.1-6.23 10.48-8.38l.21-.33-.29-.27c-5.72-5.34-13.22-10.33-19.84-14.73-7.74-5.14-15.04-9.97-19-14.88-4.34-5.37-8.86-20.82-9.37-22.56l-.04-.15-.12-.09c-.87-.69-1.67-1.44-2.37-2.24-3.64-4.18-3.37-20.15-1.28-33.06 1.77-10.97 6.66-31.1 19.5-43.49l.38-.35a8.84 8.84 0 0 1 2.93-1.84c.94-.36 1.93-.55 2.96-.58h.06l.06-.02c.27-.08.52-.12.76-.12.64 0 16.09.31 31.5 23.55 6.86 10.37 8.38 22.39 9.85 34.01 1.2 9.48 2.33 18.44 6.36 25.18.76.89 3.7 3.06 6.3 4.98 4.75 3.5 11.84 8.74 16.95 13.99 8.04 8.25 9.92 14.48 10.09 18.26.41 9.21-4.82 16.25-16 21.54l-.08.04-.06.06c-.04.04-.09.09-.14.12-2.85 2.63-8.69 5.69-16.46 8.65zm-29.77-1.56c.35.84 1.13 1.89 1.75 2.35l.14.1.17-.01c5.57-.33 16.24-3.13 25.94-6.83 6.76-2.57 11.67-5.07 13.81-7.04l.03-.03.05-.07s-.03.03-.07.06l.61-.58.12-.12.05-.04.04-.05c.29-.39.32-.74.32-1.01.05-2.02-1.79-5.05-5.65-9.25l-.61-.66-.2.88c-1.98 8.5-10.7 12.82-18.08 15.63-3.31 1.26-6.7 2.32-9.98 3.35l-.86.27c-2.59.82-5.03 1.59-7.3 2.43l-.47.17zm-3.73-133.98c5.35 8.54 9.04 17.64 10.97 27.06.06.27 5.41 26.95 2.14 35.47l-.04.11.01.11c.14 1.29 1.47 12.81 5.58 18.56 2.28 3.2 7.4 7.74 12.82 12.55l.08.07c3.55 3.14 7.62 6.79 10.96 10.1l.1.1c5.66 5.62 8.68 9.78 9.8 13.48l.19.63.54-.38c6.4-4.53 7.04-9.05 6.89-12.48-.07-1.77-1.03-6.7-8.33-14.2-4.64-4.77-11.19-9.62-15.96-13.16l-.16-.12c-4.98-3.68-7.03-5.23-7.92-6.71-4.77-7.89-5.97-17.51-7.25-27.7l-.01-.11c-1.38-10.88-2.81-22.13-8.86-31.25-2.76-4.16-5.69-7.78-8.74-10.81-1.2-1.19-2.52-2.24-3.93-3.18zm27.91 109.74c-3.83 1.46-6.44 4-7.61 5.89-1.08 1.73-1.33 3.33-.63 4.07.19.2.35.44.52.78l.03.06.05.05c.08.09.16.19.24.29l.22.29.34-.13c8.64-3.42 12.61-6.98 13.26-11.9l.07-.55-.55.01c-2.05.04-4.04.42-5.94 1.14zm-57.59-38.03c1.4 4.1 4.07 11.38 6.24 14.05 3.38 4.18 10.29 8.76 17.6 13.61 6.37 4.23 13.59 9.02 19.47 14.28l.46.41.28-.55c.2-.39.41-.77.65-1.16 2.27-3.65 6.13-6.73 10.6-8.43 1.66-.63 3.4-1.08 5.16-1.33l1.02-.14-.77-.68c-1.25-1.11-2.46-2.19-3.59-3.19-5.71-5.07-11.11-9.86-13.84-13.67-3.37-4.72-5.13-11.73-6.01-16.78l-.11-.62-.57.27c-.8.38-1.67.76-2.59 1.1-1.1.42-2.29.81-3.52 1.17-5.41 1.55-11.79 2.46-17.52 2.5-4.61.03-8.78-.46-12.39-1.46l-.87-.24zm13.28-80.03c-.33.13-.63.31-.9.56-20.39 19.18-21.04 63.29-18.18 68.3l.02.04.03.04c3.34 3.76 9.97 5.79 18.67 5.73 6.53-.04 13.69-1.31 19.15-3.39 2.35-.89 4.11-1.86 4.95-2.71l.07-.07.04-.1c1.05-2.88.74-15.53-2.58-31.77-3.58-17.55-13.03-30.04-18.35-35.93-.47-.53-1.13-.84-1.85-.87-.37-.02-.73.04-1.07.17z"/>
	<path d="M413.3 399.4c-.4 4.4-3.8 8.4-11.1 12.9-4.7 3-10.2 5.5-13.9 6.5-6.5 1.7-12.3 2.6-17.3 2.6-6.7 0-10.6-1.6-12.7-2.9-4.8-3-4.4-7.2-4.2-8.5.5-3.1 2.9-5.5 5.9-6.2 3.5-.8 13.5-5.8 23.6-12.6 4.2-2.9 10.7-4.8 16.1-4.8 5.8 0 9.1 2.2 10.8 4.1 2.1 2.4 3.1 5.5 2.8 8.9z"/>
	<path d="M361.4 411.3c0 .3.4.7.9.9 1.1.7 3.6 1.8 8.8 1.8 4.3 0 9.5-.8 15.4-2.3 5.2-1.4 19.1-8.8 19.5-13 .1-1.3-.2-2.4-.9-3.2-1-1.1-2.8-1.7-5.3-1.7-3.9 0-8.9 1.5-11.9 3.5-8.5 5.7-20.5 12.5-26.1 13.7-.3.1-.4.2-.4.3z" fill="#f80"/>
	<path d="M516.4 328.1c1.6 0 3.2 0 4.8.1 20.6.6 39.5 6.5 55.9 17 11.2 7.2 17.5 11.4 25.9 25.2 1.5 2.5 9 .8 7.9-1.1-10.1-17.6-17.5-22.3-29.8-30.3-17.7-11.4-37.8-17.6-59.7-18.2-1.6 0-3.3-.1-5-.1-1.6 0-3.3 0-4.9.1-24.3.6-47.8 6.6-67.8 17.1-20.2 10.6-37.1 26.1-48.9 44.7-7.7 12.3-10.3 23.9-7.4 33.5 2.4 7.8 7.9 12.7 12.3 14.6 1.4.6 2.9.9 4.7.9 9.3 0 34.7-9.3 45.7-24.8 8.4 4.5 17.6 6.7 28.1 6.7 12.6 0 25-3.2 36.4-6.9 3-1 3.8-2.2 3.9-4.1 0-1.3-1.2-3.6-3.8-3.5-.3 0-.7.1-1 .2-11.2 3.6-23.3 6.9-35.4 6.9-9.3 0-18.6-2-27.4-7.4-.6-.4-1.3-.5-1.9-.5-1.3 0-2.5.6-3.2 1.8l-.1.1c-7.9 14.3-33.3 24.1-41.2 24.1-.7 0-1.3-.1-1.7-.3-2.8-1.2-6.6-4.6-8.2-10-2.3-7.5 0-17 6.6-27.4 22.5-35.7 63.4-57.1 110.6-58.3 1.4-.1 3-.1 4.6-.1"/>
	<path d="M516.6 399.4c-1-.4-2-.7-3-.3-19.7 6.3-42.5 12-62.8-.5-1.7-1.1-4-.5-5.1 1.2l-.1.1c-8.6 15.7-38.3 26-43 23.9-2.8-1.2-6.6-4.6-8.2-10-2.3-7.5 0-17 6.6-27.4 22.5-35.7 63.4-57.1 110.6-58.3 3.1-.1 6.3-.1 9.5 0 20.6.6 39.5 6.5 55.9 17 13.2 8.5 19.7 12.7 30.6 33.6 5.6 10.5-84.4 23.5-91 20.7z" fill="#fc0"/>
	<path d="M701.4 357.1c-.5 1.7-1.2 3.4-2 5.2-5 10-17.7 23-38 29.1-4.5 1.4-9.3 2-14 2h-.1c-13 0-34.2-4.9-61.6-28.3-1.9-1.7-5.1-4.8-7.1-7-2.3-2.5-2.8-6.1-1.5-9.1s4.4-5.1 7.8-5.1h.5c13.9.8 30.1 1.2 48.4 1.2 8.1 0 14.8-.1 19.3-.1h4.5c7.4 0 13.3-.1 18.2-.1 8.1 0 13.7.1 17.1.2 2.9.1 5.6 1.5 7.3 3.9 1.5 2.3 2 5.2 1.2 8.1z"/>
	<path d="M590.4 359.4c25.7 21.9 45.1 26.5 56.8 26.5h.1c4 0 8-.6 11.9-1.7 18.1-5.4 29.2-16.6 33.5-25.3.8-1.5 1.2-2.8 1.5-3.9.4-1.3-.6-2.6-1.9-2.7-3.3-.1-8.9-.2-16.7-.2-5.4 0-11.6 0-18.2.1-3.3 0-12.2.2-23.9.2-13.9 0-31.7-.2-48.8-1.2h-.1c-.9 0-1.5 1.1-.8 1.8 2 2.2 5 5.1 6.6 6.4z" fill="#f80"/>
	<path d="m417.6 376.2c-4.1 0-7.4 3.3-7.4 7.4 0 9.9 14.8 9.9 14.8 0 0-4.1-3.3-7.4-7.4-7.4zm85.6-20.5c-4.1 0-7.4 3.3-7.4 7.4 0 9.9 14.8 9.9 14.8 0 0-4.1-3.3-7.4-7.4-7.4zm-45.3 19.7c-7.4 0.8-12.3 2.5-15.6 4.9-5.9 4.4-4.1 9.9 2.5 10.7s7.1 1.2 13.2-3.3c6.5-4.9 7.3-13.1-0.1-12.3z"/>
	<path d="M512.4 655.2c-4.6-5.2-3.7-15.7-1.9-29.4 2.6-19.8 5-34.5 25.4-50.8 24.4-19.5 62.2-15 76.2-.5 3.6 3.7 6.7 10.9 7.3 18.8.9 11.4-22.2 42.4-44.8 51.8-22.6 9.6-54 19.3-62.2 10.1z" fill="#fc0"/>
	<path d="M512.4 658.9c-1.2 0-2.3-.5-3-1.6-4.7-6.7-4.5-17.2-2.6-32 2.5-19 4.6-35.5 26.8-53.2 26.8-21.4 63.7-14 78.4.7 1.4 1.4 1.4 3.8 0 5.2-1.4 1.4-3.8 1.4-5.2 0-12.5-12.5-45.4-18.7-68.6-.1-18.9 15.1-21.4 28.2-24.1 48.4-1.4 11-2.3 21.8 1.3 26.7 1.2 1.7.8 4-.9 5.2-.6.5-1.4.7-2.1.7z"/>
	<path d="M523.7 651.2c-.4 1.9-2 9.1-6.7 16.2-7 10.6-17.8 16.5-30.4 16.5-7.2 0-12.9-2.1-16.8-6.2-7.5-7.8-7.1-21-6.7-33.7v-.1c.2-6.4.4-13.1-.4-18.5-.7-4.4-1.8-9.1-3.1-14.5-2.4-10.2-4.6-20.1-4.3-28.7.4-10.7 4.7-18.9 12.8-24.4 3.5-2.4 7.4-3.5 11.4-3.5 9.3 0 18.9 6.2 28.7 18.6 7.1 8.9 13.1 20 15.4 28.1 6.4 21.8 4.9 34.9.1 50.2z"/>
	<path d="M477 670.8c2 2.1 5.2 3.1 9.6 3.1 22.6 0 27-23.7 27.2-24.7 0-.2.1-.4.1-.6 4.4-13.9 5.7-25.2 0-44.8-3.7-13.2-21.1-39.4-34.4-39.4-2 0-4 .6-5.8 1.9-11.7 7.8-9.3 21.8-4.4 42.4 1.2 5.1 2.5 10.4 3.2 15.3 1 6.4.8 13.5.5 20.4-.2 10.6-.6 21.6 4 26.4z" fill="#fc0"/>
	<path transform="rotate(8.646 90.752 895.75) scale(.92317)" d="M470.38 659.64c-1.53 1.16-2.95 2.94-2.32 4.45.09.2.14.45.17.78l.01.16.06.15c.04.1.07.21.1.32l.23.79.82-.01c7.06-.09 14.73-1 18-7.04l.6-1.1-1.18-.43c-1.57-.57-3.2-.93-4.86-1.06-5.13-.43-9.37 1.26-11.63 2.99z" fill="#bf1313"/>
	<path transform="rotate(8.646 90.752 895.75) scale(.92317)" d="m492.46 661.66-1.14 1.69c-6.45 9.57-21.83 8.64-34.19 7.9l-.93-.05c-2.87-.17-5.57-.32-8.13-.35l-1.12-.01.04 1.12c.03.93.39 2.4.94 3.26l.21.33.37.12c3.32 1.05 8.73 1.92 15.24 2.47 10.45.88 24.11.87 29.42-1.24l.06-.02.1-.06.79-.34.04-.02.13-.04.11-.07c.57-.37.8-.83.91-1.12.89-2.15.22-5.86-2.09-11.66zm18.82-14.06c-2.8-6.48-7.43-13.72-10.82-19.01l-.11-.17c-3.39-5.28-4.89-7.68-5.2-9.35-1.71-9.42.69-19.28 3.24-29.72l.03-.11c2.73-11.28 5.56-22.95 2.99-34.31-1.43-6.32-3.41-11.94-5.91-16.72l-2.61-2.94c2.05 10.33 2.87 24.24 1.25 34.17-.93 5.91-5.53 29.24-11.03 35.38l-.17.19-.07.25c-.35 1.34-3.38 13.3-1.46 20.63 1.06 4.06 4.41 10.48 7.95 17.27l.05.1c2.31 4.4 4.94 9.51 6.98 14.01l.03.08.04.06c3.42 7.55 4.82 12.68 4.54 16.65l-.11 1.49 1.45-.37c8.36-2.15 10.76-6.78 11.85-10.07.6-1.84 1.54-7.21-2.91-17.51z" fill="#ea3434"/>
	<path transform="rotate(8.646 90.752 895.75) scale(.92317)" d="m464.39 655.92.64 1.24 1.04-.93c.33-.3.67-.58 1.04-.87 4.05-3.09 9.62-4.59 15.26-4.12 1.14.1 2.29.27 3.4.53l2.26.52-1.07-2.06c-.81-1.56-1.6-3.08-2.34-4.48-3.7-7.1-7.2-13.8-8.44-18.5-1.52-5.79-.63-13.26.38-18.5l.27-1.39-1.41.12c-2.04.17-4.32.15-6.76-.05-5.85-.49-12.41-1.97-18-4.07-4.5-1.68-8.37-3.7-11.5-6l-1.64-1.21-.07 2.04c-.16 4.59-.26 12.83.9 16.35 1.78 5.45 6.88 12.58 12.29 20.13 4.66 6.52 9.95 13.91 13.75 21.25zm-11.85-57.61c5.17 1.93 11.02 3.25 16.47 3.7 4.52.38 8.15.13 9.95-.7l.21-.1.15-.18c2.16-2.49 6.66-15.17 9.49-32.49 3.08-18.73-1.58-34.67-4.63-42.5-.32-.85-.96-1.51-1.8-1.87-.34-.15-.7-.24-1.07-.27-.54-.05-1.08.04-1.61.25-27.45 11.32-44.74 54.91-43.79 60.97l.02.11.04.1c1.96 5.12 7.84 9.72 16.57 12.98z" fill="#ea3434"/>
	<path d="M475.33 687.464a143.142 143.142 0 0 1-11.625-2.281c-6.686-1.596-12.323-3.461-15.462-5.106-3.296-1.724-3.946-7.519-2.938-10.587.764-2.321 2.475-3.807 4.7-4.067.153-.032.278-.05.4-.06l.037.006.114-.011.018.003h.065c4.602-.112 10.673-.917 12.865-2.068l.345-.181-.113-.363c-2.279-7.247-6.245-15.059-9.737-21.94-4.09-8.045-7.944-15.616-8.949-21.66-1.103-6.62 2.462-21.84 2.872-23.553l.031-.144-.054-.14a17.208 17.208 0 0 1-.93-3.026c-1.076-5.271 6.785-18.652 14.725-28.557 6.744-8.425 20.5-23.113 37.284-27.443l.494-.112a8.672 8.672 0 0 1 3.356-.152c.968.147 1.901.457 2.773.925l.052.027.055.008c.26.068.49.15.697.265.542.307 13.46 7.957 15.375 34.973.849 12.044-3.618 22.935-7.935 33.456-3.518 8.588-6.853 16.7-6.667 24.32.223 1.116 1.671 4.362 2.945 7.226 2.342 5.23 5.83 13.054 7.642 19.931 2.847 10.817 1.46 16.993-.195 20.262-4.053 7.984-11.852 11.439-23.83 10.56l-.083-.003-.079.026c-.059.019-.116.029-.174.039-3.676.841-10.08.643-18.075-.573 0 0 .01.001 0 0zm-24.415-15.562c-.105.871.057 2.138.355 2.818l.07.151.15.07c4.866 2.383 15.226 5.116 25.193 6.631 6.945 1.056 12.288 1.29 15.046.654l.049-.011.08-.035s-.04.013-.087.015l.788-.207c.079-.026.118-.038.165-.04l.057-.01.052-.03c.43-.187.623-.475.75-.698 1.011-1.677.89-5.122-.36-10.523l-.198-.851-.594.647c-5.74 6.243-15.174 5.714-22.758 4.56-3.405-.517-6.777-1.244-10.043-1.937l-.86-.177c-2.579-.542-5.011-1.061-7.326-1.441l-.473-.081zM511.82 556.85c.446 9.779-.787 19.237-3.669 28.118-.077.26-8.312 25.377-15.146 31.015l-.085.07-.044.106c-.503 1.156-4.883 11.537-4.154 18.352.403 3.797 2.557 10.082 4.832 16.74l.031.098c1.497 4.345 3.196 9.385 4.44 13.785l.037.127c2.097 7.462 2.668 12.424 1.84 16.089l-.141.623.635-.062c7.578-.772 10.278-4.283 11.786-7.257.784-1.533 2.336-6.153-.259-15.988-1.645-6.254-4.86-13.485-7.204-18.762l-.084-.181c-2.452-5.49-3.447-7.79-3.492-9.458-.255-8.947 3.32-17.667 7.114-26.895l.043-.096c4.04-9.863 8.212-20.05 7.454-30.662-.348-4.833-1.089-9.297-2.224-13.317a24.864 24.864 0 0 0-1.8-4.56zM482.946 662.98c-3.934-.599-7.357.3-9.252 1.338-1.74.94-2.712 2.174-2.475 3.135.072.263.085.545.068.907l-.001.065.018.068c.029.116.038.24.056.363l.05.353.346.053c8.944 1.239 13.997.13 16.907-3.723l.327-.427-.474-.258a17.023 17.023 0 0 0-5.57-1.874zm-30.507-59.695c-.779 4.14-2 11.565-1.438 14.862.852 5.144 4.503 12.33 8.371 19.93 3.363 6.628 7.18 14.127 9.635 21.383l.194.57.497-.325c.354-.236.713-.452 1.102-.673 3.666-2.001 8.403-2.757 12.984-2.06 1.707.26 3.385.71 4.997 1.348l.925.365-.323-.946c-.523-1.536-1.035-3.024-1.514-4.413-2.408-7.015-4.677-13.644-5.165-18.173-.587-5.598 1.273-12.365 2.94-17.06l.2-.578-.61-.045a32.31 32.31 0 0 1-2.718-.302 44.612 44.612 0 0 1-3.536-.696c-5.316-1.275-11.15-3.554-16.005-6.262-3.917-2.183-7.203-4.588-9.78-7.164l-.616-.617zm49.494-61.312a2.792 2.792 0 0 0-1.033.039c-26.41 6.47-48.049 43.454-48.022 49.052l.002.047.012.048c1.03 4.77 5.664 9.667 13.041 13.777 5.536 3.082 12.2 5.44 17.812 6.294 2.42.367 4.358.391 5.48.067l.099-.031.075-.064c2.264-1.934 8.05-12.773 13.012-28.098 5.364-16.544 3.344-31.633 1.658-39.154a2.553 2.553 0 0 0-1.145-1.621 2.788 2.788 0 0 0-.991-.356z"/>
	<path d="M478 413.3c-6.4 2.9-12.4 6.6-17.6 11.1-12.1 10.6-12.6 19.4-10.8 24.8 2.5 7.7 11.1 13.4 21.9 14.6 7.1.7 16.2-1.3 26.7-3.6 13.9-3.1 29.7-6.6 42.9-3.9 19.6 4.1 33.3 15 53.1 32.7l10.3 9.2c1.5 1.3 3.9 1.2 5.2-.4 1.3-1.5 1.2-3.9-.4-5.2l-2.9-2.6c-24-21.7-39.9-36-63.8-41-14.8-3.1-31.3.6-46 3.9-9.5 2.1-18.5 4.1-24.3 3.5-7.8-.8-14.1-4.6-15.7-9.5-1.5-4.7 1.6-10.7 8.7-17 20.7-18.2 59.1-23.7 87.5-12.5 4.7 1.9 7.4-5.1 2.7-6.9-11.4-4.4-24.6-6.6-37.7-6.2-10.1.4-30.5 4.8-39.8 9z"/>
	<path d="M615.4 451c11.7 12.2 17 60.3-6 41.6l-2.9-2.6c-24-21.7-39.9-36-63.8-41-14.8-3.1-31.3.6-46 3.9-9.5 2.1-18.5 4.1-24.3 3.5-7.8-.8-14.1-4.6-15.7-9.5-1.5-4.7 1.6-10.7 8.7-17 20.7-18.2 59.3-24 87.5-12.5 4.6 2 46.1 16.5 62.5 33.6z" fill="#fc0"/>
</svg>
