<svg xmlns="http://www.w3.org/2000/svg" viewBox="0 0 1000 1000">
  <style id="animation--guitar_play_song_2">
    #RightHand--group, #RightArm--group, #Ball--group { transform-origin: 60% 60%; animation: guitar_play_a_song_2_1 2s linear 3 8s forwards}
    @keyframes guitar_play_a_song_2_1 { 100%, 0% {transform: rotate(0deg)} 50% {transform: rotate(-3deg)}}
  </style>
  <style id="animation--guitar_play_song_3">
    #LeftArm--group { transform-origin: 60% 48%; animation: guitar_play_a_song_3_1 1.4s linear 1 6s forwards}
    @keyframes guitar_play_a_song_3_1 { 100%, 0% {transform: rotate(0deg)} 7% {transform: rotate(-10deg)} 14% {transform: rotate(0deg)} 85% {transform: rotate(0deg)} 90% {transform: rotate(-10deg)}}
    #RightHand--group, #RightArm--group, #Ball--group { transform-origin: 60% 60%; animation: guitar_play_a_song_3_2 1.3s linear 1 6.1s forwards}
    @keyframes guitar_play_a_song_3_2 { 100%, 0% {transform: rotate(0deg)} 15% {transform: rotate(-3deg)} 70% {transform: rotate(0deg)} 58% {transform: rotate(0deg)} 65% {transform: rotate(-1deg)} 72% {transform: rotate(0deg)} 79% {transform: rotate(-1deg)} 86% {transform: rotate(0deg)} 93% {transform: rotate(-1deg)}}
  </style>
  <style id="animation--guitar_play_song_1">
    #LeftArm--group { transform-origin: 60% 48%; animation: guitar_play_a_song_1_1 1.5s linear 5 0s forwards}
    @keyframes guitar_play_a_song_1_1 { 100%, 0% {transform: rotate(0deg)} 50% {transform: rotate(-10deg)}}
    .Front--group__colored-guitar .Front--group__colored-guitar_1 { transform-origin: 60% 48%; animation: guitar_play_a_song_1_2 3.7s linear 2 0s forwards}
    .Front--group__colored-guitar .Front--group__colored-guitar_2 { transform-origin: 60% 48%; animation: guitar_play_a_song_1_2 3.7s linear 2 0.8s forwards}
    .Front--group__colored-guitar .Front--group__colored-guitar_3 { transform-origin: 60% 48%; animation: guitar_play_a_song_1_2 3.7s linear 2 1.6s forwards}
    .Front--group__colored-guitar .Front--group__colored-guitar_4 { transform-origin: 60% 48%; animation: guitar_play_a_song_1_2 3.7s linear 2 2.4s forwards}
    @keyframes guitar_play_a_song_1_2 { 100%, 0% {transform: rotate(0deg)} 10% {transform:  opacity: 1} 40% {opacity: 1} 50% {transform: rotate(2deg); opacity: 0}}
  </style>
  <g class="Ball--group">
    <path fill="#214982" d="m374.24 469.043 198.75 73.395c.028 15.176-6.31 31.317-19.382 47.167-5.189 6.29-11.43 12.559-18.547 18.63-3.163 2.698-3.928 5.28-4.737 8.015-.863 2.92-1.843 6.232-5.74 8.929-22.472 15.563-41.073 23.703-64.34 16.21l-.007-.002c-6.843-2.203-13.92-5.692-21.63-10.67-19.946-12.864-22.92-36.57-25.31-55.625-1.465-11.68-2.732-21.772-7.397-26.067-4.34-4.003-9.376-6.837-14.711-9.838-10.86-6.112-22.091-12.435-27.935-29.065-6.078-17.292 2.91-31.434 10.986-41.079z"/>
    <path fill="#c9c9c7" d="m416.526 431.462 65.382 24.142c.285 4.239.24 8.371.143 12.013-.155 5.78-.315 11.761 1.38 13.316.36.333 1.175.852 2.998 1.439 3.503 1.128 8.965 1.951 15.29 2.9 9.071 1.362 20.358 3.057 30.978 6.477 12.794 4.12 22.072 9.879 28.363 17.617 8.118 9.982 11.91 21.24 11.93 33.072l-198.75-73.395c.449-.536.899-1.218 1.34-1.728 6.494-7.477 13.439-14.095 20.645-19.674 2.806-2.172 5.567-4.508 8.239-6.768 4.087-3.456 7.989-6.62 12.062-9.411zM572.99 542.438c-.05.049 0 0 0 0z"/>
    <path fill="#c41e25" d="M461.228 425.752c16.045 5.167 19.884 17.936 20.682 29.853l-65.383-24.143c.42-.29.82-.695 1.245-.973 15.045-9.82 24.395-9.651 40.95-5.455.866.22 1.705.46 2.506.718z"/>
    <path fill="#100f0d" d="M462.027 423.378c23.517 7.573 22.927 29.662 22.538 44.277-.107 4.055-.27 10.176.66 11.515h.002c.043.014.552.363 2 .83 3.31 1.065 8.676 1.87 14.895 2.803 9.16 1.374 20.561 3.088 31.38 6.568 13.263 4.271 22.92 10.294 29.524 18.417 19.339 23.781 16.614 54.175-7.477 83.382-5.285 6.407-11.63 12.784-18.858 18.95-2.591 2.207-3.16 4.137-3.951 6.806-.932 3.16-2.093 7.085-6.73 10.295-23.112 16.006-42.308 24.354-66.564 16.543-7.058-2.273-14.33-5.854-22.23-10.949-20.91-13.49-23.964-37.83-26.418-57.388-1.347-10.737-2.619-20.878-6.621-24.567-4.13-3.805-9.046-6.572-14.25-9.5-10.734-6.042-22.898-12.888-29.051-30.396-6.844-19.47 4.031-35.156 12.807-45.262 6.601-7.605 13.668-14.336 21.005-20.02 2.763-2.137 5.502-4.456 8.152-6.698 4.368-3.7 8.887-7.52 13.565-10.575 15.752-10.282 25.985-10.097 42.966-5.791a42.76 43.346 63.907 0 1 2.656.76zm-1.601 4.749a38.98 38.98 0 0 0-2.35-.674c-16.455-4.172-25-3.979-38.936 5.115-7.154 4.672-13.947 11.28-21.384 17.037-7.947 6.155-14.73 12.942-20.277 19.33-11.016 12.688-17.036 25.586-11.85 40.343 8.338 23.726 28.43 25.413 41.995 37.91 13.564 12.496 1.124 61.283 32.368 81.435 7.553 4.872 14.489 8.278 21.054 10.392 21.876 7.044 39.613-.294 62.114-15.876 6.44-4.46 2.928-10.525 10.27-16.787 7.155-6.101 13.214-12.227 18.238-18.317 23.564-28.571 24.276-56.37 7.427-77.09-6.762-8.315-16.675-13.438-27.195-16.826-17.809-5.733-37.352-6.5-46.274-9.373-1.739-.56-3.076-1.2-3.916-1.973-7.515-6.905 8.778-44.965-21.284-54.646"/>
    <path fill="#336abd" d="m389.293 472.738 135.772 153.648c-29.253 20.258-50.397 21.747-74.411 3.04-29.303-22.828-17.205-71.532-30.77-84.03-13.565-12.497-35.108-12.737-43.447-36.461-5.38-15.31 1.372-25.928 12.856-36.197z"/>
    <path fill="#e71d25" d="M470.324 431.4c19.77 6.859 19.13 38.741 26.836 45.82 7.702 7.08 53.744 12.534 74.182 37.67 16.848 20.718 16.136 48.517-7.428 77.089L431.388 436.512c13.933-9.092 22.917-10.672 38.936-5.113Z"/>
    <path fill="#fff" d="M409.137 453.27c7.434-5.758 15.095-12.087 22.249-16.758l132.528 155.467c-5.022 6.09-11.085 12.215-18.235 18.317-7.343 6.26-14.175 11.63-20.615 16.087L389.293 472.74c6.314-5.647 11.896-13.316 19.844-19.47"/>
    <path fill="none" stroke="#100f0d" stroke-miterlimit="10" stroke-width="8.066" d="M547.58 460.86c-5.586-8.328-11.206-17.313-16.878-24.44-11.05-13.874-19.643-18.442-37.837-18.034-22.45.504-32.73 33.287-42.987 37.986-10.26 4.696-58.941-4.878-88.335 14.077-24.232 15.623-33.036 44.257-18.87 81.198 3.018 7.875 7.084 16.126 12.262 24.712 5.32 8.812 10.425 16.545 15.446 23.218 22.798 30.32 43.781 38.796 74.609 27.585 37.617-13.676 42.013-67.412 60.09-75.718 18.074-8.304 40.055-1.466 56.665-22.96 10.717-13.869 6.291-25.554-.176-41.204-3.448-8.352-8.019-17.517-13.99-26.42z" transform="matrix(-.88724 -.28572 -.29766 .883 1032.152 202.786)"/>
    <path fill="#525052" d="M470.775 573.244a7.055 7.152 63.907 0 0 6.866-1.381l41.07-35.172a6.964 7.06 63.907 0 0 2.46-4.82 6.986 7.082 63.907 0 0-4.794-7.159 7.055 7.152 63.907 0 0-6.865 1.38l-41.072 35.175a7.02 7.116 63.907 0 0-.792 9.916 7 7.095 63.907 0 0 3.127 2.061"/>
    <path fill="#100f0d" d="M517.175 522.338h.002a9.428 9.428 0 0 1 4.24 2.795 9.51 9.64 63.907 0 1-1.072 13.436l-41.072 35.175a9.556 9.687 63.907 0 1-9.298 1.874 9.43 9.43 0 0 1-4.24-2.797 9.433 9.562 63.907 0 1-2.263-6.907 9.439 9.568 63.907 0 1 3.336-6.53l41.07-35.172a9.556 9.687 63.907 0 1 9.3-1.873zm-1.6 4.747a4.633 4.633 0 0 0-4.431.89l-41.07 35.172a4.534 4.596 63.907 0 0-.51 6.397 4.532 4.594 63.907 0 0 6.444.437l41.07-35.172a4.537 4.6 63.907 0 0 .512-6.398 4.504 4.565 63.907 0 0-2.013-1.325"/>
    <path fill="#211816" d="M425.965 540.183c-7.795-9.31-21.815-7.98-24.835-16.126-3.02-8.145 1.07-24.999 23.116-27.464 22.048-2.463 43.416 11.113 42.222 30.334-1.193 19.22-17.249 21.222-19.516 34.36-2.262 13.14-13.472 14.788-14.714 4.347-1.243-10.443-.793-18.903-6.275-25.45"/>
    <path fill="#383434" d="M447.196 477.204 318.109 333.307l-15.941 15.396 127.721 144.204 17.306-15.7"/>
    <path fill="none" stroke="#100f0d" stroke-miterlimit="10" stroke-width="5.378" d="m500.68 472.792 180.564-104.54 10.932 20.974-179.282 105.301Z" transform="matrix(-.88724 -.28572 -.29766 .883 1032.152 202.786)"/>
    <path fill="#33387e" d="M314.499 332.462c-1.107-3.236-3.575-10.268-6.452-17.16-1.508-3.61-6.354-7.334-11.484-11.277-3.55-2.729-7.219-5.55-10.522-8.818-4.514-4.47-6.23-10.923-7.74-16.616-1.371-5.17-2.672-10.054-5.581-11.125-1.272-.41-5.67 4.865-7.552 7.117-1.699 2.039-3.456 4.144-5.308 5.98-3.053 3.026-7.082 4.992-10.64 6.726-3.363 1.64-6.835 3.333-7.573 5.188 1.012 1.257 5.744 3.33 8.935 4.725 7.155 3.13 15.268 6.68 19.17 12.718 2.103 3.253 3.88 6.48 5.597 9.605 3.605 6.55 6.718 12.204 11.122 14.848a205.228 208.039 63.907 0 1 15.466 10.22l12.562-12.131"/>
    <path fill="#fff" d="m273.71 264.494.131.045c8.392 3.087 6.148 20.247 14.434 28.448 8.286 8.203 19.728 14.031 22.678 21.096 3.99 9.55 7.156 19.224 7.156 19.224l-15.941 15.396s-6.742-5.292-17.345-11.657c-7.402-4.443-11.093-15.163-17.723-25.422-6.63-10.265-30.043-13.504-28.61-19.536 1.431-6.035 12.979-7.59 19.158-13.717 5.943-5.894 11.389-15.382 16.062-13.877zm-1.291 6.688c-1.395 1.249-3.4 3.652-4.835 5.375-1.744 2.093-3.55 4.257-5.513 6.201-3.424 3.396-7.708 5.484-11.487 7.329-1.144.557-2.59 1.262-3.796 1.943 1.602.789 3.558 1.646 5.086 2.313 7.187 3.144 16.127 7.055 20.531 13.874 2.162 3.342 3.966 6.622 5.708 9.792 3.39 6.156 6.317 11.475 10.01 13.69a216.413 216.413 0 0 1 13.543 8.827l9.21-8.893c-1.26-3.616-3.361-9.416-5.738-15.11-1.192-2.857-5.935-6.504-10.519-10.027-3.456-2.655-7.37-5.664-10.81-9.067-5.11-5.06-6.937-11.941-8.55-18.011-.722-2.722-1.742-6.562-2.84-8.237"/>
    <path fill="#383434" d="M469.323 507.28a22.688 22.688 0 0 0-14.591-28.922c-12.125-3.904-25.254 2.714-29.322 14.78A22.688 22.688 0 0 0 440 522.061c12.128 3.906 25.254-2.711 29.323-14.781"/>
    <path fill="#211816" d="M441.198 484.453a23.805 23.805 0 0 0-11.227-.82c6.172-5.965 15.36-8.44 24.05-5.642a23.262 23.262 0 0 1 14.962 29.653 23.48 23.801 63.907 0 1-18.84 15.976 23.372 23.692 63.907 0 0 6.015-9.51 23.263 23.263 0 0 0-14.96-29.657"/>
    <path fill="none" stroke="#100f0d" stroke-miterlimit="10" stroke-width="5.378" d="M761.546 332.02c4.182 8.292 15.39 13.68 14.776 20.315-.61 6.636-25.524 2.242-35.784 10.548-10.255 8.3-17.684 18.037-26.732 20.14-12.962 3.015-21.63 6.203-21.63 6.203l-10.932-20.974s6.536-8.84 13.865-17.285c5.42-6.247 19.052-8.436 30.288-14.09 11.235-5.653 14.835-23.922 24.425-24.315 5.372-.22 7.66 11.405 11.724 19.459zM467.875 496.238c0-13.665 11.078-24.746 24.748-24.746 13.665 0 24.746 11.08 24.746 24.746 0 13.67-11.08 24.748-24.746 24.748-13.67 0-24.748-11.078-24.748-24.748z" transform="matrix(-.88724 -.28572 -.29766 .883 1032.152 202.786)"/>
  </g>
  <g class="Front--group">
    <g class="Front--group__colored-guitar">
      <path class="Front--group__colored-guitar_1" d="M345.768 288.077c-3.677-.922-4.774-4.788-2.115-7.447 1.43-1.43 3.675-1.648 5.64-.55.312.174.59.317.616.317.027 0 .048-1.9.048-4.222.001-13.904.079-14.858 1.214-14.853 1.042.004 1.042.004 1.584 1.128.49 1.016.76 1.351 2.803 3.49 2.535 2.653 3.013 3.251 3.537 4.424 1.484 3.321.798 7.41-1.698 10.122-.698.759-1.118.578-.655-.282 2.049-3.809.494-9.093-3.371-11.451-1.312-.8-1.22-1.06-1.233 3.49-.028 9.929-.144 12.386-.625 13.28-1.075 2.001-3.555 3.103-5.745 2.554z" fill="#000" opacity="0" />
      <path class="Front--group__colored-guitar_2" d="M304.227 250.932c-3.017-1.153-3.774-4.327-1.604-6.729 1.356-1.5 3.638-1.681 5.684-.449.908.547.704 1.638 1.56-8.343.387-4.527.737-8.491.777-8.81.063-.507 1.706-.795 2.023-.355.041.057-.686 7.703-1.46 15.353-.628 6.208-.655 6.401-1.03 7.174-.96 1.987-3.751 3-5.95 2.159z" fill="#000" opacity="0" />
      <path class="Front--group__colored-guitar_3" d="M320.607 297.08c-2.132-.586-3.234-2.787-2.33-4.654.92-1.903 3.02-2.58 4.98-1.608 1.012.503 1.037.319 1.484-11.04.03-.782-6.47-4.587-6.934-4.058-.037.042-.181 1.12-.321 2.397-1.023 9.315-1.533 13.129-1.835 13.725-1.638 3.237-6.994 2.285-7.207-1.28-.175-2.935 3.021-4.573 5.67-2.907.688.433.573.824 1.04-3.541.634-5.932 1.301-11.584 1.392-11.787.29-.656 10.046 4.605 10.012 5.398-.067 1.532-.597 10.455-.812 13.66-.186 2.782-.25 3.313-.45 3.704-.826 1.618-2.876 2.489-4.69 1.99z" fill="#000" opacity="0" />
      <path class="Front--group__colored-guitar_4" d="M350.658 236.983c-2.304-.543-3.635-2.867-2.754-4.808 1.038-2.289 3.45-3.013 5.682-1.705.692.405.602.723.773-2.747.081-1.64.181-3.502.223-4.136.076-1.153.076-1.153-3.686-2.826-3.695-1.643-4.015-1.769-4.016-1.577-.003 1.232-1.448 11.727-1.677 12.186-1.495 2.992-6.617 2.62-7.538-.547-.983-3.381 2.954-5.884 5.994-3.81.632.43.564.714 1.125-4.686.53-5.097 1.297-11.624 1.374-11.701.056-.056 10.363 4.853 10.53 5.015.096.093-.18 5.294-.729 13.726-.275 4.232-.352 4.953-.575 5.413-.786 1.625-2.932 2.625-4.726 2.203zm4.212-18.925c.01-.3-7.218-3.974-7.42-3.772-.948.948-.07 1.82 3.558 3.535 4.033 1.906 3.806 1.892 3.862.237z" fill="#000" opacity="0" />
    </g>
  </g>
</svg>
