<svg xmlns="http://www.w3.org/2000/svg" viewBox="0 0 230.813 239.547">
    <path fill="#214982" d="M130.943 92.078 18.256 96.836c-2.593 7.684-2.141 16.896 1.756 27.059 1.547 4.033 3.628 8.227 6.185 12.464 1.136 1.883 1.083 3.316 1.026 4.834-.061 1.62-.13 3.458 1.377 5.46 8.685 11.551 16.68 18.71 29.685 18.71h.004c3.825 0 7.986-.613 12.72-1.877 12.243-3.263 17.772-14.788 22.216-24.052 2.724-5.679 5.078-10.585 8.16-12 2.869-1.32 5.89-1.934 9.09-2.584 6.514-1.325 13.252-2.696 19.025-10.168 6.004-7.769 3.876-16.4 1.443-22.604z"/>
    <path fill="#c9c9c7" d="m116.01 66.139-37.07 1.564c-.864 2.101-1.544 4.202-2.114 6.063-.904 2.954-1.84 6.01-2.959 6.521-.238.11-.737.24-1.756.24-1.958 0-4.852-.474-8.203-1.025-4.805-.79-10.784-1.773-16.72-1.773-7.151 0-12.808 1.404-17.295 4.298-5.79 3.733-9.616 8.818-11.637 14.809l112.687-4.758c-.135-.345-.246-.764-.382-1.094-2.003-4.848-4.38-9.334-7.065-13.336-1.046-1.558-2.041-3.192-3.004-4.773-1.473-2.418-2.903-4.657-4.482-6.736zM18.256 96.836c.017.033 0 0 0 0z"/>
    <path fill="#c41e25" d="M94.441 55.953c-8.968 0-13.074 5.843-15.502 11.75l37.07-1.564c-.162-.215-.295-.486-.462-.696-5.917-7.43-10.66-8.87-19.72-9.445-.474-.03-.938-.045-1.386-.045z"/>
    <path fill="#100f0d" d="M94.442 54.62c-13.145 0-16.602 11.287-18.89 18.755-.635 2.072-1.593 5.2-2.29 5.726h-.001c-.024 0-.34.094-1.149.094-1.85 0-4.693-.468-7.987-1.01-4.852-.798-10.892-1.79-16.938-1.792-7.414 0-13.307 1.476-18.017 4.514-13.793 8.893-17.585 24.736-10.403 43.464 1.576 4.108 3.691 8.374 6.288 12.677.931 1.541.89 2.612.835 4.093-.067 1.753-.149 3.931 1.643 6.314 8.933 11.88 17.193 19.241 30.751 19.241 3.945 0 8.22-.628 13.069-1.92 12.836-3.423 18.513-15.256 23.075-24.765 2.504-5.22 4.869-10.15 7.514-11.366 2.729-1.254 5.678-1.854 8.8-2.488 6.439-1.31 13.736-2.794 19.814-10.66 6.76-8.748 3.943-18.469 1.236-25.021-2.036-4.93-4.455-9.493-7.188-13.57-1.03-1.533-2.017-3.155-2.972-4.723-1.574-2.587-3.203-5.26-5.042-7.571-6.195-7.779-11.386-9.355-20.68-9.944a22.91 22.91 0 0 0-1.468-.048zm0 2.667c.42 0 .854.014 1.299.042 9.006.571 13.282 2.063 18.763 8.944 2.813 3.534 5.115 7.99 7.886 12.12 2.961 4.415 5.227 8.96 6.938 13.102 3.398 8.225 4.241 15.742-.882 22.372-8.237 10.66-18.654 8.237-27.618 12.355-8.963 4.118-10.983 30.865-30.162 35.977-4.636 1.236-8.712 1.83-12.382 1.83-12.227 0-19.923-6.612-28.62-18.177-2.489-3.31.313-5.81-2.325-10.181-2.57-4.258-4.584-8.35-6.082-12.255-7.025-18.32-2.659-32.52 9.358-40.268 4.823-3.11 10.692-4.088 16.572-4.088 9.954.001 19.938 2.801 24.925 2.801.972 0 1.755-.106 2.31-.361 4.963-2.272 3.217-24.213 20.02-24.213"/>
    <path fill="#336abd" d="m122.725 91.494-94.573 55.692c11.306 15.036 21.714 19.24 37.002 13.68 18.655-6.784 20.833-33.433 29.797-37.552 8.964-4.118 19.867-.725 28.104-11.384 5.315-6.879 3.715-13.36-.33-20.436z"/>
    <path fill="#e71d25" d="M88.895 57.33c-11.134.25-16.231 16.507-21.319 18.836-5.087 2.33-29.229-2.418-43.806 6.982-12.017 7.748-16.383 21.948-9.358 40.268l93.246-57.143c-5.48-6.88-9.741-9.146-18.763-8.943z"/>
    <path fill="#ffffff" d="M116.029 78.393c-2.77-4.13-5.557-8.586-8.37-12.12l-93.247 57.143c1.497 3.905 3.513 7.997 6.081 12.255 2.638 4.37 5.17 8.205 7.66 11.514l94.572-55.69c-2.224-3.891-3.735-8.687-6.696-13.102"/>
    <path fill="none" stroke="#100f0d" stroke-miterlimit="10" stroke-width="4" d="M116.029 78.393c-2.77-4.13-5.557-8.586-8.37-12.12-5.48-6.881-9.741-9.146-18.764-8.944-11.133.25-16.231 16.508-21.318 18.838-5.088 2.329-29.23-2.419-43.807 6.981-12.017 7.748-16.383 21.948-9.358 40.268 1.497 3.905 3.513 7.997 6.081 12.255 2.638 4.37 5.17 8.205 7.66 11.514 11.306 15.036 21.712 19.24 37 13.68 18.655-6.782 20.835-33.431 29.8-37.55 8.963-4.118 19.864-.727 28.101-11.386 5.315-6.878 3.12-12.673-.087-20.434-1.71-4.142-3.977-8.687-6.938-13.102z"/>
    <path fill="#525052" d="M64.558 129.12a3.78 3.78 0 0 1-3.227-1.82l-14.73-24.52a3.731 3.731 0 0 1-.421-2.843 3.743 3.743 0 0 1 3.634-2.845 3.78 3.78 0 0 1 3.227 1.819l14.73 24.522a3.761 3.761 0 0 1-1.286 5.153 3.75 3.75 0 0 1-1.927.534"/>
    <path fill="#100f0d" d="M49.815 95.759h-.001c-.92 0-1.824.249-2.613.724a5.095 5.095 0 0 0-1.743 6.982l14.73 24.522a5.12 5.12 0 0 0 4.37 2.466c.92 0 1.824-.25 2.613-.725a5.054 5.054 0 0 0 2.315-3.13 5.057 5.057 0 0 0-.572-3.853l-14.73-24.52a5.12 5.12 0 0 0-4.37-2.466zm0 2.666c.824 0 1.63.419 2.083 1.174l14.73 24.52a2.429 2.429 0 0 1-.83 3.324 2.428 2.428 0 0 1-3.324-.83l-14.73-24.52a2.431 2.431 0 0 1 .83-3.325 2.413 2.413 0 0 1 1.24-.343"/>
    <path fill="#211816" d="M92.771 119.681c5.513-3.445 12.356-.484 15.263-4.118 2.907-3.634 3.71-12.84-6.987-17.686-10.698-4.845-23.78-1.453-26.445 8.48-2.665 9.932 5.09 13.566 4 20.592-1.093 7.026 4.279 9.69 6.68 4.603 2.402-5.088 3.613-9.448 7.49-11.87"/>
    <path fill="#383434" d="m92.771 84.31 89.545-51.843 5.421 10.401-88.909 52.221-6.057-10.778"/>
    <path fill="none" stroke="#100f0d" stroke-miterlimit="10" stroke-width="2.667" d="m92.771 84.31 89.545-51.843 5.421 10.401-88.909 52.221z"/>
    <path fill="#33387e" d="M184.28 32.628c1.108-1.459 3.548-4.619 6.17-7.641 1.374-1.583 4.45-2.679 7.707-3.84 2.254-.803 4.583-1.634 6.804-2.751 3.036-1.528 4.998-4.517 6.727-7.155 1.57-2.396 3.056-4.658 4.705-4.726.711 0 2.032 3.39 2.598 4.838.51 1.31 1.038 2.663 1.66 3.896 1.025 2.031 2.722 3.684 4.221 5.143 1.417 1.38 2.88 2.804 2.937 3.864-.724.472-3.462.75-5.308.936-4.14.419-8.834.893-11.828 3.316-1.613 1.305-3.057 2.65-4.454 3.953-2.931 2.73-5.462 5.087-8.132 5.708a109.957 109.957 0 0 0-9.535 2.655l-4.272-8.196"/>
    <path fill="#ffffff" d="m216.399 4.848-.074.001c-4.756.195-6.541 9.255-12.113 12.058-5.572 2.804-12.332 3.89-15.02 6.988-3.635 4.188-6.876 8.572-6.876 8.572l5.421 10.401s4.299-1.581 10.727-3.076c4.487-1.043 8.17-5.872 13.257-9.988 5.088-4.119 17.443-1.94 17.746-5.23.304-3.291-5.254-5.963-7.328-10.075-1.995-3.956-3.128-9.651-5.74-9.651zm-.486 3.599c.491.86 1.094 2.405 1.524 3.512.524 1.345 1.067 2.736 1.726 4.041 1.149 2.279 2.954 4.036 4.546 5.587.482.469 1.092 1.062 1.584 1.604-.942.138-2.074.253-2.958.342-4.158.42-9.33.943-12.71 3.679-1.658 1.341-3.125 2.708-4.542 4.03-2.756 2.566-5.136 4.783-7.374 5.303-3.497.814-6.376 1.65-8.329 2.262l-3.132-6.008c1.25-1.626 3.295-4.222 5.461-6.719 1.087-1.253 4.098-2.327 7.008-3.364 2.194-.781 4.679-1.667 6.992-2.83 3.436-1.73 5.527-4.918 7.372-7.73.827-1.261 1.994-3.04 2.832-3.71"/>
    <path fill="#383434" d="M76.502 95.937c0-6.777 5.494-12.272 12.273-12.272 6.777 0 12.272 5.495 12.272 12.272 0 6.779-5.495 12.273-12.272 12.273-6.779 0-12.273-5.494-12.273-12.273"/>
    <path fill="#211816" d="M94.563 88.961c2.092 0 4.064.514 5.8 1.416-2.098-4.029-6.31-6.782-11.167-6.782-6.95 0-12.584 5.633-12.584 12.582a12.58 12.58 0 0 0 6.784 11.168 12.522 12.522 0 0 1-1.417-5.8c0-6.95 5.634-12.584 12.584-12.584"/>
    <path fill="none" stroke="#100f0d" stroke-miterlimit="10" stroke-width="2.667" d="M222.139 14.499c2.074 4.112 7.632 6.784 7.328 10.074-.303 3.291-12.658 1.112-17.746 5.231-5.086 4.116-8.77 8.945-13.257 9.988-6.428 1.495-10.727 3.076-10.727 3.076l-5.421-10.401s3.241-4.384 6.876-8.572c2.688-3.098 9.448-4.184 15.02-6.988 5.572-2.803 7.357-11.863 12.113-12.058 2.664-.109 3.799 5.656 5.814 9.65zM76.502 95.937c0-6.777 5.494-12.272 12.273-12.272 6.777 0 12.272 5.495 12.272 12.272 0 6.779-5.495 12.273-12.272 12.273-6.779 0-12.273-5.494-12.273-12.273z"/>
</svg>
