<svg version="1.1" id="wapuugotchi_svg__item" viewBox="0 0 1e3 1e3" xmlns="http://www.w3.org/2000/svg">
    <g class="Body--group">
        <circle transform="rotate(-45.001 470.57 529.31)" cx="470.6" cy="529.3" r="133.5"/>
        <circle cx="470.6" cy="529.3" r="126.1" fill="#f05"/>
        <path d="M443.4 486.4c1.6 1.7 2.4 2.5 3.9 4.2l-1.5 5c-6.5.9-9.7 1.4-16.1 2.1-.6 2-.9 3-1.4 4.9 6.3-.7 9.6-1.1 16-2.1-1.8 6.1-2.8 9.1-4.6 15.1-8.5 1-12.7 1.4-21 2.1-1.5-1.8-2.2-2.6-3.7-4.4.6-2 .8-2.9 1.4-4.9 1.5 1.8 2.3 2.7 3.8 4.5 6.2-.6 9.4-.9 15.7-1.6l1.5-5c-6.4.8-9.5 1.1-15.8 1.7-1.5-1.8-2.3-2.6-3.8-4.4 1.6-5.8 2.5-8.7 4.1-14.5 8.5-.9 12.8-1.4 21.5-2.7zm-31.7 3.8c1.5 1.7 2.2 2.6 3.7 4.3-1.6 5.8-2.4 8.8-4.1 14.6-1.5-1.8-2.2-2.6-3.6-4.4l4-14.5zm24.1-12c1.6 1.7 2.4 2.5 4 4.2-8.7 1.3-13 1.9-21.5 2.9-.5 1.9-.8 2.9-1.3 4.8-1.6-1.7-2.4-2.6-3.9-4.4.5-1.9.8-2.9 1.3-4.8 8.3-.9 12.6-1.4 21.4-2.7z" fill="#fff" />
        <path d="M360.7 509.7c-.1.3-.3.6-.5.8-.2.2-.5.4-.8.5-.3.1-.6.2-.9.2-.3 0-.7 0-1-.2-.3-.1-.6-.3-.9-.5-.3-.2-.5-.5-.6-.8-.2-.3-.2-.6-.3-.9 0-.3 0-.6.1-1 .1-.3.3-.6.5-.8.2-.2.5-.4.7-.5.3-.1.6-.2.9-.2s.7 0 1 .2c.3.1.6.3.9.5s.5.5.6.8c.2.3.3.6.3.9s.1.7 0 1zm-6.1 16.9c-1.4-.6-2.1-.8-3.6-1.4 1.7-5.3 2.5-8 4.2-13.3 1.5.5 2.2.8 3.6 1.3-1.6 5.3-2.4 8-4.2 13.4zm6.2 2.3c-1.4-.5-2.1-.8-3.5-1.4 1.8-5.4 2.6-8.1 4.4-13.5.3.1.5.2.9.3.3.7.5 1 .7 1.7.7-.3 1.5-.5 2.3-.5.8 0 1.6.1 2.4.4.9.3 1.6.8 2.3 1.3.7.6 1.2 1.3 1.6 2 .4.8.6 1.6.7 2.4.1.9 0 1.7-.3 2.6-1 3.2-1.6 4.7-2.6 7.9-1.4-.5-2.1-.8-3.5-1.3 1-3.1 1.6-4.7 2.6-7.8.1-.4.2-.7.1-1.1 0-.4-.1-.7-.3-1-.2-.3-.4-.6-.7-.9-.3-.3-.6-.4-1-.6-.4-.1-.7-.2-1.1-.2-.4 0-.7.1-1 .2-.3.1-.6.4-.8.6-.2.3-.4.6-.5.9-1.2 3.4-1.7 4.9-2.7 8zm24.5 9.8c-.3-.1-.5-.2-.8-.3-.3-1-.4-1.5-.7-2.4-.4.2-.9.4-1.3.5-.5.1-.9.2-1.4.3s-.9.1-1.4 0c-.5 0-.9-.1-1.3-.3-.9-.3-1.8-.9-2.5-1.5-.7-.7-1.2-1.5-1.6-2.4-.4-.9-.6-1.9-.7-2.9-.1-1 .1-2.1.4-3.1.4-1.1.9-2 1.5-2.8.7-.8 1.4-1.4 2.3-1.8.9-.4 1.8-.7 2.7-.8 1-.1 1.9 0 2.9.4.3.1.6.2.9.4l.9.6c.3.2.5.5.7.8.2.3.4.6.4 1 .9-2.7 1.4-4 2.3-6.6 1.4.5 2.1.7 3.5 1.2-2.6 7.7-4 11.7-6.8 19.7zm-.9-8.5c.2-.5.2-1 .2-1.5s-.1-1-.3-1.5c-.2-.5-.5-.9-.8-1.2-.3-.4-.8-.6-1.2-.8-.5-.2-.9-.2-1.4-.2-.5 0-.9.2-1.3.4s-.8.5-1.1.9c-.3.4-.6.9-.8 1.5-.2.5-.3 1-.2 1.6 0 .5.1 1 .3 1.5s.5.9.8 1.2c.3.4.8.6 1.2.8.5.2.9.2 1.4.2.5-.1.9-.2 1.4-.5.4-.2.8-.6 1.2-1 .1-.4.4-.9.6-1.4zm4.6 15.9c.5-1.5.8-2.2 1.3-3.7.8.3 1.2.4 2 .7.3.1.7.2 1.1.2.4 0 .7-.1 1.1-.2.3-.1.7-.3 1-.5s.6-.5.8-.7c-.4 0-.9.1-1.4.1-.5 0-.9 0-1.3-.2-.9-.3-1.6-.8-2.2-1.3-.6-.6-1.1-1.3-1.5-2-.4-.8-.6-1.6-.6-2.6 0-.9.1-1.9.5-2.9 1.1-3.2 1.6-4.7 2.7-7.9 1.4.5 2.1.7 3.6 1.2-1.1 3.2-1.7 4.8-2.8 7.9-.2.5-.3 1-.2 1.4 0 .4.1.8.2 1.2.2.3.4.6.7.9.3.2.6.4 1 .6.4.1.7.2 1.1.1.4-.1.8-.2 1.1-.4.3-.2.7-.5.9-.8.3-.3.5-.7.6-1.1 1.1-3.2 1.7-4.8 2.8-8 1.5.5 2.2.7 3.6 1.2-1.8 5.1-2.7 7.6-4.5 12.7-.4 1-.9 1.9-1.6 2.7-.7.8-1.5 1.4-2.3 1.8-.9.4-1.8.7-2.8.8-1 .1-2-.1-2.9-.4-.9-.4-1.3-.5-2-.8zm21.9 1c-3.2-1.1-4.9-1.7-8.1-2.8.5-1.5.8-2.3 1.3-3.8 3.2 1.1 4.9 1.7 8.1 2.7.2.1.5.1.7-.1.2-.1.4-.3.5-.6.1-.3.1-.5-.1-.6-.1-.1-.3-.3-.6-.3-1.5-.5-2.2-.7-3.7-1.2-.6-.2-1.1-.5-1.6-1s-.8-.9-1-1.5c-.2-.6-.4-1.2-.4-1.8 0-.6.1-1.3.3-2 .2-.7.6-1.2 1-1.7s.9-.9 1.5-1.2c.6-.3 1.1-.5 1.8-.5.6-.1 1.3 0 1.9.2 2.9.9 4.4 1.4 7.3 2.3-.6 1.5-.8 2.3-1.4 3.8-2.9-.9-4.4-1.4-7.3-2.3-.2-.1-.5-.1-.7.1-.2.1-.4.3-.5.6-.1.3-.1.5 0 .8.1.2.3.4.5.5 1.5.5 2.2.7 3.7 1.2.6.2 1.1.5 1.6.9s.8.9 1.1 1.4c.3.5.4 1.1.4 1.7 0 .6-.1 1.3-.3 1.9-.2.7-.6 1.2-1 1.7s-.9.9-1.5 1.2c-.6.3-1.1.5-1.8.5-.5.2-1.1.1-1.7-.1zm13 4.4c-.8-.3-1.6-.7-2.2-1.3-.6-.6-1.1-1.3-1.4-2.1-.3-.8-.5-1.7-.5-2.6 0-.9.1-1.9.5-2.8.7-1.8 1-2.7 1.6-4.5-.7-.2-1-.3-1.7-.5.6-1.5.8-2.3 1.4-3.8.7.2 1 .3 1.7.5.9-2.4 1.3-3.6 2.2-6.1 1.4.4 2.1.6 3.6 1.1-.9 2.4-1.3 3.7-2.2 6.1 2.2.7 3.2 1 5.4 1.6-.6 1.6-.9 2.3-1.4 3.9-2.1-.7-3.2-1-5.4-1.7-.7 1.8-1 2.7-1.7 4.5-.1.4-.2.8-.2 1.2 0 .4.1.8.2 1.1.1.3.3.6.6.9.3.3.6.5 1 .6 1.1.3 1.6.5 2.7.9-.6 1.6-.9 2.3-1.4 3.9-1.2-.4-1.8-.6-2.8-.9zm17.5 6.3c-.3-.1-.5-.2-.8-.3-.2-1-.3-1.5-.5-2.6-.5.2-.9.4-1.4.6-.5.2-1 .3-1.4.4-.5.1-1 .1-1.4.1-.5 0-.9-.1-1.4-.2-1-.3-1.8-.8-2.5-1.4-.7-.6-1.2-1.4-1.6-2.3-.4-.9-.6-1.9-.6-3s.2-2.3.7-3.6c.4-1.2 1-2.2 1.8-3.1.7-.9 1.6-1.6 2.5-2.1.9-.5 1.9-.9 2.9-1 1-.1 2-.1 3 .2.4.1.9.3 1.3.6s.8.6 1.1.9c.3.3.6.7.9 1.1.3.4.5.8.7 1.3.8-.6 1.2-.9 2.1-1.4.3.1.5.1.9.2-2.7 6.3-3.9 9.4-6.3 15.6zm-.5-9c.2-.5.3-1.1.3-1.7 0-.6-.1-1.1-.2-1.6-.2-.5-.4-.9-.8-1.3-.3-.4-.7-.6-1.2-.8s-1-.2-1.5-.1-1 .2-1.4.5c-.4.3-.9.6-1.2 1.1-.4.5-.7 1-.9 1.7-.2.7-.4 1.3-.4 1.9 0 .6.1 1.1.2 1.5.2.5.4.8.8 1.1.4.3.8.5 1.2.7.5.1 1 .2 1.5.1s1-.3 1.5-.6.9-.7 1.2-1.1c.4-.4.7-.9.9-1.4zm20.4.9c-1.5.9-2.2 1.4-3.7 2.2 0-.5 0-.9-.1-1.3s-.2-.7-.4-1.1c-.2-.3-.4-.6-.7-.8-.3-.2-.6-.4-.9-.5-.5-.1-1-.2-1.5-.1s-1 .3-1.5.6-.9.7-1.3 1.2-.7 1.1-1 1.8c-.2.5-.3 1.1-.3 1.6s.1 1 .3 1.5c.2.5.4.8.8 1.2.3.3.8.6 1.2.7.3.1.7.1 1 .1.4 0 .7-.1 1.1-.2.4-.1.7-.3 1-.5.3-.2.6-.5.9-.8.6 1.5.9 2.2 1.4 3.7-.5.4-1.1.8-1.7 1.1-.6.3-1.2.5-1.8.7-.6.1-1.2.2-1.8.2-.6 0-1.2-.1-1.7-.3-1-.3-1.8-.8-2.5-1.5s-1.2-1.5-1.6-2.4c-.4-.9-.5-1.9-.5-3s.2-2.2.6-3.3c.5-1.2 1.1-2.3 1.8-3.2.8-.9 1.6-1.7 2.5-2.3.9-.6 1.9-1 2.9-1.2 1-.2 2-.2 3 .1.6.2 1.1.4 1.6.7.5.3.9.7 1.3 1.2s.7 1 .9 1.6c.4.9.6 1.6.7 2.3zm.1 13.6-3.5-1c3.4-9 5.2-13.5 8.6-22.4 1.4.4 2.1.6 3.6.9-2.2 5.7-3.3 8.5-5.5 14.2 3.3-2.5 4.9-3.8 8.2-6.4 1.6.4 2.4.7 4.1 1.1-2.9 2.2-4.3 3.3-7.2 5.5.4 4.3.5 6.4.9 10.8-1.6-.5-2.4-.7-4-1.2-.2-2.7-.3-4-.5-6.7-1.6 1.2-2.3 1.9-3.9 3.1-.3.8-.5 1.2-.8 2.1z" fill="#1f1130"/>
    </g>
</svg>
