<?xml version="1.0" encoding="utf-8"?>
<!-- Generator: Adobe Illustrator 25.2.0, SVG Export Plug-In . SVG Version: 6.00 Build 0)  -->
<svg version="1.1" id="Layer_1" xmlns="http://www.w3.org/2000/svg" xmlns:xlink="http://www.w3.org/1999/xlink" x="0px" y="0px"
	 viewBox="0 0 1000 1000" style="enable-background:new 0 0 1000 1000;" xml:space="preserve">
<style type="text/css">
	.st0{fill:#FF0055;}
	.st1{fill-rule:evenodd;clip-rule:evenodd;fill:#FFFFFF;}
	.st2{fill:#1F1130;}
	.st3{display:none;}
	.st4{display:inline;}
	.st5{fill:#FFFFFF;}
</style>
<g id="Ball--group">
	
		<ellipse id="Ball-bg" transform="matrix(0.7071 -0.7071 0.7071 0.7071 -236.4424 487.7763)" cx="470.6" cy="529.3" rx="133.5" ry="133.5"/>
	<circle id="Ball_1_" class="st0" cx="470.6" cy="529.3" r="126.1"/>
	<g id="Indystack">
		<g id="Page-1_1_">
			<g id="logo-s_1_">
				<path id="Shape_3_" class="st1" d="M443.4,486.4c1.6,1.7,2.4,2.5,3.9,4.2c-0.6,2-0.9,3-1.5,5c-6.5,0.9-9.7,1.4-16.1,2.1
					c-0.6,2-0.9,3-1.4,4.9c6.3-0.7,9.6-1.1,16-2.1c-1.8,6.1-2.8,9.1-4.6,15.1c-8.5,1-12.7,1.4-21,2.1c-1.5-1.8-2.2-2.6-3.7-4.4
					c0.6-2,0.8-2.9,1.4-4.9c1.5,1.8,2.3,2.7,3.8,4.5c6.2-0.6,9.4-0.9,15.7-1.6c0.6-2,0.9-3,1.5-5c-6.4,0.8-9.5,1.1-15.8,1.7
					c-1.5-1.8-2.3-2.6-3.8-4.4c1.6-5.8,2.5-8.7,4.1-14.5C430.4,488.2,434.7,487.7,443.4,486.4z M411.7,490.2
					c1.5,1.7,2.2,2.6,3.7,4.3c-1.6,5.8-2.4,8.8-4.1,14.6c-1.5-1.8-2.2-2.6-3.6-4.4C409.3,498.9,410.1,496,411.7,490.2z M435.8,478.2
					c1.6,1.7,2.4,2.5,4,4.2c-8.7,1.3-13,1.9-21.5,2.9c-0.5,1.9-0.8,2.9-1.3,4.8c-1.6-1.7-2.4-2.6-3.9-4.4c0.5-1.9,0.8-2.9,1.3-4.8
					C422.7,480,427,479.5,435.8,478.2z"/>
				<path id="Shape_2_" class="st2" d="M360.7,509.7c-0.1,0.3-0.3,0.6-0.5,0.8c-0.2,0.2-0.5,0.4-0.8,0.5c-0.3,0.1-0.6,0.2-0.9,0.2
					c-0.3,0-0.7,0-1-0.2c-0.3-0.1-0.6-0.3-0.9-0.5c-0.3-0.2-0.5-0.5-0.6-0.8c-0.2-0.3-0.2-0.6-0.3-0.9c0-0.3,0-0.6,0.1-1
					c0.1-0.3,0.3-0.6,0.5-0.8c0.2-0.2,0.5-0.4,0.7-0.5c0.3-0.1,0.6-0.2,0.9-0.2s0.7,0,1,0.2c0.3,0.1,0.6,0.3,0.9,0.5
					s0.5,0.5,0.6,0.8c0.2,0.3,0.3,0.6,0.3,0.9S360.8,509.4,360.7,509.7z M354.6,526.6c-1.4-0.6-2.1-0.8-3.6-1.4
					c1.7-5.3,2.5-8,4.2-13.3c1.5,0.5,2.2,0.8,3.6,1.3C357.2,518.5,356.4,521.2,354.6,526.6z M360.8,528.9c-1.4-0.5-2.1-0.8-3.5-1.4
					c1.8-5.4,2.6-8.1,4.4-13.5c0.3,0.1,0.5,0.2,0.9,0.3c0.3,0.7,0.5,1,0.7,1.7c0.7-0.3,1.5-0.5,2.3-0.5c0.8,0,1.6,0.1,2.4,0.4
					c0.9,0.3,1.6,0.8,2.3,1.3c0.7,0.6,1.2,1.3,1.6,2c0.4,0.8,0.6,1.6,0.7,2.4c0.1,0.9,0,1.7-0.3,2.6c-1,3.2-1.6,4.7-2.6,7.9
					c-1.4-0.5-2.1-0.8-3.5-1.3c1-3.1,1.6-4.7,2.6-7.8c0.1-0.4,0.2-0.7,0.1-1.1c0-0.4-0.1-0.7-0.3-1c-0.2-0.3-0.4-0.6-0.7-0.9
					c-0.3-0.3-0.6-0.4-1-0.6c-0.4-0.1-0.7-0.2-1.1-0.2c-0.4,0-0.7,0.1-1,0.2c-0.3,0.1-0.6,0.4-0.8,0.6c-0.2,0.3-0.4,0.6-0.5,0.9
					C362.3,524.3,361.8,525.8,360.8,528.9z M385.3,538.7c-0.3-0.1-0.5-0.2-0.8-0.3c-0.3-1-0.4-1.5-0.7-2.4c-0.4,0.2-0.9,0.4-1.3,0.5
					c-0.5,0.1-0.9,0.2-1.4,0.3s-0.9,0.1-1.4,0c-0.5,0-0.9-0.1-1.3-0.3c-0.9-0.3-1.8-0.9-2.5-1.5c-0.7-0.7-1.2-1.5-1.6-2.4
					c-0.4-0.9-0.6-1.9-0.7-2.9c-0.1-1,0.1-2.1,0.4-3.1c0.4-1.1,0.9-2,1.5-2.8c0.7-0.8,1.4-1.4,2.3-1.8c0.9-0.4,1.8-0.7,2.7-0.8
					c1-0.1,1.9,0,2.9,0.4c0.3,0.1,0.6,0.2,0.9,0.4c0.3,0.2,0.6,0.4,0.9,0.6c0.3,0.2,0.5,0.5,0.7,0.8c0.2,0.3,0.4,0.6,0.4,1
					c0.9-2.7,1.4-4,2.3-6.6c1.4,0.5,2.1,0.7,3.5,1.2C389.5,526.7,388.1,530.7,385.3,538.7z M384.4,530.2c0.2-0.5,0.2-1,0.2-1.5
					c0-0.5-0.1-1-0.3-1.5c-0.2-0.5-0.5-0.9-0.8-1.2c-0.3-0.4-0.8-0.6-1.2-0.8c-0.5-0.2-0.9-0.2-1.4-0.2c-0.5,0-0.9,0.2-1.3,0.4
					c-0.4,0.2-0.8,0.5-1.1,0.9c-0.3,0.4-0.6,0.9-0.8,1.5c-0.2,0.5-0.3,1-0.2,1.6c0,0.5,0.1,1,0.3,1.5s0.5,0.9,0.8,1.2
					c0.3,0.4,0.8,0.6,1.2,0.8c0.5,0.2,0.9,0.2,1.4,0.2c0.5-0.1,0.9-0.2,1.4-0.5c0.4-0.2,0.8-0.6,1.2-1
					C383.9,531.2,384.2,530.7,384.4,530.2z M389,546.1c0.5-1.5,0.8-2.2,1.3-3.7c0.8,0.3,1.2,0.4,2,0.7c0.3,0.1,0.7,0.2,1.1,0.2
					c0.4,0,0.7-0.1,1.1-0.2c0.3-0.1,0.7-0.3,1-0.5s0.6-0.5,0.8-0.7c-0.4,0-0.9,0.1-1.4,0.1c-0.5,0-0.9,0-1.3-0.2
					c-0.9-0.3-1.6-0.8-2.2-1.3c-0.6-0.6-1.1-1.3-1.5-2c-0.4-0.8-0.6-1.6-0.6-2.6c0-0.9,0.1-1.9,0.5-2.9c1.1-3.2,1.6-4.7,2.7-7.9
					c1.4,0.5,2.1,0.7,3.6,1.2c-1.1,3.2-1.7,4.8-2.8,7.9c-0.2,0.5-0.3,1-0.2,1.4c0,0.4,0.1,0.8,0.2,1.2c0.2,0.3,0.4,0.6,0.7,0.9
					c0.3,0.2,0.6,0.4,1,0.6c0.4,0.1,0.7,0.2,1.1,0.1c0.4-0.1,0.8-0.2,1.1-0.4c0.3-0.2,0.7-0.5,0.9-0.8c0.3-0.3,0.5-0.7,0.6-1.1
					c1.1-3.2,1.7-4.8,2.8-8c1.5,0.5,2.2,0.7,3.6,1.2c-1.8,5.1-2.7,7.6-4.5,12.7c-0.4,1-0.9,1.9-1.6,2.7c-0.7,0.8-1.5,1.4-2.3,1.8
					c-0.9,0.4-1.8,0.7-2.8,0.8c-1,0.1-2-0.1-2.9-0.4C390.1,546.5,389.7,546.4,389,546.1z M410.9,547.1c-3.2-1.1-4.9-1.7-8.1-2.8
					c0.5-1.5,0.8-2.3,1.3-3.8c3.2,1.1,4.9,1.7,8.1,2.7c0.2,0.1,0.5,0.1,0.7-0.1c0.2-0.1,0.4-0.3,0.5-0.6c0.1-0.3,0.1-0.5-0.1-0.6
					c-0.1-0.1-0.3-0.3-0.6-0.3c-1.5-0.5-2.2-0.7-3.7-1.2c-0.6-0.2-1.1-0.5-1.6-1s-0.8-0.9-1-1.5c-0.2-0.6-0.4-1.2-0.4-1.8
					c0-0.6,0.1-1.3,0.3-2c0.2-0.7,0.6-1.2,1-1.7s0.9-0.9,1.5-1.2c0.6-0.3,1.1-0.5,1.8-0.5c0.6-0.1,1.3,0,1.9,0.2
					c2.9,0.9,4.4,1.4,7.3,2.3c-0.6,1.5-0.8,2.3-1.4,3.8c-2.9-0.9-4.4-1.4-7.3-2.3c-0.2-0.1-0.5-0.1-0.7,0.1
					c-0.2,0.1-0.4,0.3-0.5,0.6c-0.1,0.3-0.1,0.5,0,0.8c0.1,0.2,0.3,0.4,0.5,0.5c1.5,0.5,2.2,0.7,3.7,1.2c0.6,0.2,1.1,0.5,1.6,0.9
					c0.5,0.4,0.8,0.9,1.1,1.4c0.3,0.5,0.4,1.1,0.4,1.7c0,0.6-0.1,1.3-0.3,1.9c-0.2,0.7-0.6,1.2-1,1.7s-0.9,0.9-1.5,1.2
					c-0.6,0.3-1.1,0.5-1.8,0.5C412.1,547.4,411.5,547.3,410.9,547.1z M423.9,551.5c-0.8-0.3-1.6-0.7-2.2-1.3
					c-0.6-0.6-1.1-1.3-1.4-2.1c-0.3-0.8-0.5-1.7-0.5-2.6c0-0.9,0.1-1.9,0.5-2.8c0.7-1.8,1-2.7,1.6-4.5c-0.7-0.2-1-0.3-1.7-0.5
					c0.6-1.5,0.8-2.3,1.4-3.8c0.7,0.2,1,0.3,1.7,0.5c0.9-2.4,1.3-3.6,2.2-6.1c1.4,0.4,2.1,0.6,3.6,1.1c-0.9,2.4-1.3,3.7-2.2,6.1
					c2.2,0.7,3.2,1,5.4,1.6c-0.6,1.6-0.9,2.3-1.4,3.9c-2.1-0.7-3.2-1-5.4-1.7c-0.7,1.8-1,2.7-1.7,4.5c-0.1,0.4-0.2,0.8-0.2,1.2
					c0,0.4,0.1,0.8,0.2,1.1c0.1,0.3,0.3,0.6,0.6,0.9c0.3,0.3,0.6,0.5,1,0.6c1.1,0.3,1.6,0.5,2.7,0.9c-0.6,1.6-0.9,2.3-1.4,3.9
					C425.5,552,424.9,551.8,423.9,551.5z M441.4,557.8c-0.3-0.1-0.5-0.2-0.8-0.3c-0.2-1-0.3-1.5-0.5-2.6c-0.5,0.2-0.9,0.4-1.4,0.6
					c-0.5,0.2-1,0.3-1.4,0.4c-0.5,0.1-1,0.1-1.4,0.1c-0.5,0-0.9-0.1-1.4-0.2c-1-0.3-1.8-0.8-2.5-1.4c-0.7-0.6-1.2-1.4-1.6-2.3
					c-0.4-0.9-0.6-1.9-0.6-3c0-1.1,0.2-2.3,0.7-3.6c0.4-1.2,1-2.2,1.8-3.1c0.7-0.9,1.6-1.6,2.5-2.1c0.9-0.5,1.9-0.9,2.9-1
					c1-0.1,2-0.1,3,0.2c0.4,0.1,0.9,0.3,1.3,0.6c0.4,0.3,0.8,0.6,1.1,0.9c0.3,0.3,0.6,0.7,0.9,1.1c0.3,0.4,0.5,0.8,0.7,1.3
					c0.8-0.6,1.2-0.9,2.1-1.4c0.3,0.1,0.5,0.1,0.9,0.2C445,548.5,443.8,551.6,441.4,557.8z M440.9,548.8c0.2-0.5,0.3-1.1,0.3-1.7
					c0-0.6-0.1-1.1-0.2-1.6c-0.2-0.5-0.4-0.9-0.8-1.3c-0.3-0.4-0.7-0.6-1.2-0.8s-1-0.2-1.5-0.1s-1,0.2-1.4,0.5
					c-0.4,0.3-0.9,0.6-1.2,1.1c-0.4,0.5-0.7,1-0.9,1.7c-0.2,0.7-0.4,1.3-0.4,1.9c0,0.6,0.1,1.1,0.2,1.5c0.2,0.5,0.4,0.8,0.8,1.1
					c0.4,0.3,0.8,0.5,1.2,0.7c0.5,0.1,1,0.2,1.5,0.1c0.5-0.1,1-0.3,1.5-0.6c0.5-0.3,0.9-0.7,1.2-1.1
					C440.4,549.8,440.7,549.3,440.9,548.8z M461.3,549.7c-1.5,0.9-2.2,1.4-3.7,2.2c0-0.5,0-0.9-0.1-1.3c-0.1-0.4-0.2-0.7-0.4-1.1
					c-0.2-0.3-0.4-0.6-0.7-0.8c-0.3-0.2-0.6-0.4-0.9-0.5c-0.5-0.1-1-0.2-1.5-0.1c-0.5,0.1-1,0.3-1.5,0.6c-0.5,0.3-0.9,0.7-1.3,1.2
					c-0.4,0.5-0.7,1.1-1,1.8c-0.2,0.5-0.3,1.1-0.3,1.6s0.1,1,0.3,1.5c0.2,0.5,0.4,0.8,0.8,1.2c0.3,0.3,0.8,0.6,1.2,0.7
					c0.3,0.1,0.7,0.1,1,0.1c0.4,0,0.7-0.1,1.1-0.2c0.4-0.1,0.7-0.3,1-0.5c0.3-0.2,0.6-0.5,0.9-0.8c0.6,1.5,0.9,2.2,1.4,3.7
					c-0.5,0.4-1.1,0.8-1.7,1.1c-0.6,0.3-1.2,0.5-1.8,0.7c-0.6,0.1-1.2,0.2-1.8,0.2c-0.6,0-1.2-0.1-1.7-0.3c-1-0.3-1.8-0.8-2.5-1.5
					c-0.7-0.7-1.2-1.5-1.6-2.4c-0.4-0.9-0.5-1.9-0.5-3s0.2-2.2,0.6-3.3c0.5-1.2,1.1-2.3,1.8-3.2c0.8-0.9,1.6-1.7,2.5-2.3
					c0.9-0.6,1.9-1,2.9-1.2c1-0.2,2-0.2,3,0.1c0.6,0.2,1.1,0.4,1.6,0.7c0.5,0.3,0.9,0.7,1.3,1.2s0.7,1,0.9,1.6
					C461,548.3,461.2,549,461.3,549.7z M461.4,563.3c-1.4-0.4-2.1-0.6-3.5-1c3.4-9,5.2-13.5,8.6-22.4c1.4,0.4,2.1,0.6,3.6,0.9
					c-2.2,5.7-3.3,8.5-5.5,14.2c3.3-2.5,4.9-3.8,8.2-6.4c1.6,0.4,2.4,0.7,4.1,1.1c-2.9,2.2-4.3,3.3-7.2,5.5
					c0.4,4.3,0.5,6.4,0.9,10.8c-1.6-0.5-2.4-0.7-4-1.2c-0.2-2.7-0.3-4-0.5-6.7c-1.6,1.2-2.3,1.9-3.9,3.1
					C461.9,562,461.7,562.4,461.4,563.3z"/>
			</g>
		</g>
	</g>
	<g class="st3">
		<g class="st4">
			<g>
				<g>
					<path class="st5" d="M427.8,479.8c-5.8-2.1-8.7-3.1-14.4-5.3c1-2.7,1.6-4.1,2.6-6.9c5.7,2.2,8.5,3.2,14.2,5.3
						C429.3,475.7,428.8,477.1,427.8,479.8z"/>
					<path class="st5" d="M443.8,485.2c-5.9-1.9-8.8-2.9-14.6-4.9c1-2.8,1.4-4.1,2.4-6.9c5.7,2,8.6,3,14.4,4.9
						C445.1,481.1,444.6,482.5,443.8,485.2z"/>
					<path class="st5" d="M459.9,490.2c-5.9-1.7-8.9-2.6-14.7-4.5c0.9-2.8,1.3-4.2,2.1-6.9c5.8,1.9,8.7,2.8,14.5,4.5
						C461,486,460.6,487.4,459.9,490.2z"/>
					<path class="st5" d="M476.1,494.6c-6-1.6-8.9-2.4-14.8-4.1c0.8-2.8,1.1-4.2,1.9-6.9c5.8,1.7,8.8,2.5,14.6,4.1
						C477.1,490.5,476.8,491.8,476.1,494.6z"/>
				</g>
				<path class="st5" d="M416.9,485.2c-2.7-1-4-1.5-6.7-2.5c1-2.7,1.6-4.1,2.6-6.9c2.6,1,3.9,1.5,6.6,2.5
					C418.4,481.1,417.9,482.5,416.9,485.2z"/>
				<path class="st5" d="M433,490.9c-5.9-2-8.9-3-14.8-5.2c1-2.8,1.5-4.1,2.5-6.9c5.8,2.1,8.7,3.1,14.6,5.1
					C434.4,486.7,434,488.1,433,490.9z"/>
				<path class="st5" d="M449.4,496.1c-6-1.8-9-2.8-14.9-4.7c0.9-2.8,1.4-4.1,2.3-6.9c5.9,2,8.8,2.9,14.7,4.7
					C450.6,491.9,450.2,493.3,449.4,496.1z"/>
				<path class="st5" d="M465.8,500.8c-6-1.6-9.1-2.5-15-4.3c0.8-2.8,1.2-4.2,2-6.9c5.9,1.8,8.9,2.6,14.8,4.3
					C466.9,496.6,466.5,498,465.8,500.8z"/>
				<path class="st5" d="M474.1,503c-2.7-0.7-4.1-1.1-6.9-1.8c0.7-2.8,1.1-4.2,1.8-7c2.7,0.7,4,1.1,6.8,1.8
					C475.1,498.8,474.8,500.2,474.1,503z"/>
				<path class="st5" d="M410.8,501.7c-2.8-1-4.1-1.5-6.9-2.5c1-2.7,1.6-4.1,2.6-6.9c2.7,1,4.1,1.5,6.8,2.5
					C412.4,497.6,411.9,499,410.8,501.7z"/>
				<path class="st5" d="M427.6,507.4c-6.1-2-9.2-3.1-15.3-5.2c1-2.8,1.5-4.1,2.5-6.9c6,2.2,9,3.2,15.1,5.2
					C428.9,503.3,428.5,504.7,427.6,507.4z"/>
				<path class="st5" d="M444.5,512.7c-6.2-1.8-9.3-2.8-15.4-4.8c0.9-2.8,1.4-4.1,2.3-6.9c6.1,2,9.1,2.9,15.2,4.8
					C445.7,508.5,445.3,509.9,444.5,512.7z"/>
				<path class="st5" d="M461.5,517.5c-6.3-1.7-9.4-2.5-15.6-4.3c0.8-2.8,1.2-4.2,2-6.9c6.1,1.8,9.2,2.7,15.4,4.3
					C462.6,513.3,462.2,514.7,461.5,517.5z"/>
				<path class="st5" d="M470,519.7c-2.8-0.7-4.3-1.1-7.1-1.8c0.7-2.8,1.1-4.2,1.8-7c2.8,0.7,4.2,1.1,7,1.8
					C471.1,515.5,470.7,516.9,470,519.7z"/>
				<g>
					<path class="st5" d="M422.1,496.4c-6-2.1-9-3.2-15-5.4c1-2.7,1.6-4.1,2.6-6.9c5.9,2.2,8.8,3.3,14.7,5.4
						C423.5,492.2,423,493.6,422.1,496.4z"/>
					<path class="st5" d="M438.6,501.8c-6.1-1.9-9.1-2.9-15.1-5c1-2.8,1.4-4.1,2.4-6.9c5.9,2.1,8.9,3,14.9,4.9
						C439.9,497.7,439.4,499.1,438.6,501.8z"/>
					<path class="st5" d="M455.3,506.8c-6.1-1.7-9.2-2.6-15.2-4.5c0.9-2.8,1.3-4.2,2.1-6.9c6,1.9,9,2.8,15,4.5
						C456.4,502.6,456,504,455.3,506.8z"/>
					<path class="st5" d="M472.1,511.3c-6.2-1.6-9.2-2.4-15.4-4.1c0.8-2.8,1.1-4.2,1.9-6.9c6,1.7,9.1,2.5,15.2,4.1
						C473.1,507.1,472.7,508.5,472.1,511.3z"/>
				</g>
				<g>
					<path class="st5" d="M416.3,512.9c-6.2-2.1-9.3-3.2-15.5-5.5c1-2.7,1.6-4.1,2.6-6.9c6.1,2.3,9.1,3.3,15.3,5.4
						C417.7,508.8,417.3,510.1,416.3,512.9z"/>
					<path class="st5" d="M433.4,518.4c-6.3-1.9-9.4-2.9-15.6-5c1-2.8,1.4-4.1,2.4-6.9c6.1,2.1,9.2,3.1,15.4,5
						C434.7,514.3,434.3,515.7,433.4,518.4z"/>
					<path class="st5" d="M450.6,523.5c-6.3-1.8-9.5-2.7-15.8-4.6c0.9-2.8,1.3-4.2,2.1-6.9c6.2,1.9,9.3,2.8,15.6,4.6
						C451.8,519.3,451.4,520.7,450.6,523.5z"/>
					<path class="st5" d="M468,528c-6.4-1.6-9.6-2.4-15.9-4.1c0.8-2.8,1.1-4.2,1.9-6.9c6.2,1.7,9.4,2.6,15.7,4.1
						C469,523.8,468.7,525.2,468,528z"/>
				</g>
			</g>
			<g>
				<path class="st5" d="M365.2,504.4c0.9,0.4,1.3,0.6,2.2,0.9c0,0.1,0,0.1-0.1,0.2c-3.6,3.6-5.5,5.4-9.2,9
					c-0.3-0.1-0.4-0.2-0.7-0.3c0-3.1,0.1-4.7,0.2-7.8c-2.4,2.1-3.6,3.2-6,5.3c-0.3-0.1-0.4-0.2-0.7-0.3c0.3-5.1,0.5-7.6,0.9-12.7
					c0-0.1,0-0.1,0.1-0.2c0.9,0.4,1.3,0.6,2.2,1c-0.2,3.1-0.4,4.7-0.6,7.9c2.1-1.8,3.2-2.8,5.3-4.6c0.3,0.1,0.4,0.2,0.7,0.3
					c0,2.8-0.1,4.1-0.1,6.9C361.8,507.8,363,506.7,365.2,504.4z"/>
				<path class="st5" d="M374.9,508.4c2.5,1,3.5,3.2,2.5,5.4c-0.9,2.1-3.2,3.1-5.7,2.1c-0.6-0.3-1-0.4-1.6-0.6
					c-0.6,1.5-1,2.2-1.6,3.6c-0.8-0.3-1.3-0.5-2.1-0.9c1.9-4.4,2.9-6.6,4.8-11C372.7,507.5,373.4,507.8,374.9,508.4z M372.3,513.9
					c1.3,0.6,2.5,0.2,3-1c0.5-1.2-0.1-2.2-1.4-2.7c-0.6-0.2-0.8-0.3-1.4-0.6c-0.6,1.5-1,2.2-1.6,3.7
					C371.4,513.6,371.7,513.7,372.3,513.9z"/>
				<path class="st5" d="M389.1,514c0.8,0.3,1.2,0.5,2.1,0.8c-1.8,4.5-2.6,6.7-4.4,11.1c-0.8-0.3-1.3-0.5-2.1-0.8
					c0.7-1.8,1.1-2.7,1.8-4.5c-1.6-0.6-2.4-0.9-4-1.5c-0.7,1.8-1.1,2.7-1.8,4.5c-0.8-0.3-1.3-0.5-2.1-0.8c1.8-4.4,2.7-6.7,4.6-11.1
					c0.8,0.3,1.2,0.5,2.1,0.8c-0.8,1.9-1.1,2.8-1.9,4.7c1.6,0.6,2.4,0.9,4,1.5C388,516.8,388.4,515.9,389.1,514z"/>
				<path class="st5" d="M403.7,524.3c-1,2.7-1.5,4.1-2.5,6.8c-0.9-0.3-1.3-0.4-2.1-0.7c0.5-1.2,0.7-1.8,1.1-3
					c-2-0.7-3.1-1.1-5.1-1.8c-0.5,1.2-0.7,1.8-1.2,3c-0.9-0.3-1.3-0.5-2.1-0.8c1-2.7,1.6-4.1,2.6-6.8c1.1-2.8,3.6-3.9,6.3-2.9
					C403.5,519.1,404.7,521.6,403.7,524.3z M395.8,523.6c2,0.7,3,1.1,5.1,1.8c0.3-0.7,0.4-1.1,0.7-1.8c0.6-1.5,0-3-1.5-3.5
					c-1.5-0.5-2.9,0.2-3.5,1.7C396.2,522.5,396.1,522.9,395.8,523.6z"/>
				<path class="st5" d="M407.5,527c1.1-3.2,4.3-5,7.8-3.9c1.5,0.5,2.8,1.5,3.5,2.4c-0.3,0.8-0.4,1.3-0.7,2.1c-0.1,0-0.1,0-0.2,0
					c-0.6-1-1.9-2-3-2.3c-2.2-0.7-4.5,0.4-5.2,2.5c-0.8,2.1,0.5,4.3,2.6,5c1.2,0.4,2.8,0.4,3.9-0.1c0.1,0,0.1,0,0.2,0
					c-0.3,0.8-0.4,1.3-0.7,2.1c-1.1,0.4-2.8,0.4-4.3-0.1C408.1,533.7,406.3,530.5,407.5,527z"/>
				<path class="st5" d="M429,539.7c0,0.1,0,0.1-0.1,0.2c-1.1-0.3-1.6-0.5-2.6-0.8c-1-2.6-1.5-3.9-2.5-6.5c-0.7,2.1-1,3.1-1.7,5.2
					c-0.9-0.3-1.3-0.4-2.2-0.7c1.5-4.5,2.2-6.7,3.7-11.2c0.8,0.3,1.3,0.4,2.1,0.7c-0.7,2.1-1,3.2-1.7,5.3c2.3,0.3,5-2,5.7-4.1
					c0.9,0.3,1.3,0.4,2.1,0.6c-0.7,2.1-2.9,4.5-5.3,5C427.4,536,427.9,537.3,429,539.7z"/>
				<path class="st5" d="M433.5,535.2c1-3.2,4.1-5.2,7.6-4.2c1.5,0.4,2.9,1.4,3.6,2.3c-0.2,0.8-0.4,1.3-0.6,2.1c-0.1,0-0.1,0-0.2,0
					c-0.7-1-1.9-1.9-3.1-2.2c-2.2-0.6-4.4,0.6-5.1,2.7c-0.6,2.2,0.7,4.3,2.9,4.9c1.2,0.3,2.8,0.3,3.9-0.2c0.1,0,0.1,0,0.2,0
					c-0.2,0.8-0.4,1.3-0.6,2.1c-1.1,0.4-2.8,0.5-4.3,0.1C434.4,541.8,432.4,538.7,433.5,535.2z"/>
				<path class="st5" d="M455.6,537.3c-1.8-0.5-2.7-0.7-4.6-1.2c-0.3,1.1-0.5,1.7-0.8,2.8c1.5,0.4,2.2,0.6,3.6,0.9
					c-0.2,0.7-0.3,1.1-0.5,1.8c-1.5-0.4-2.2-0.6-3.6-1c-0.3,1.1-0.4,1.6-0.7,2.6c1.9,0.5,2.8,0.7,4.6,1.2c-0.2,0.8-0.3,1.2-0.5,2
					c-2.7-0.7-4.1-1.1-6.8-1.8c1.2-4.5,1.9-6.8,3.1-11.3c2.7,0.7,4,1.1,6.7,1.8C455.9,536.1,455.8,536.5,455.6,537.3z"/>
				<path class="st5" d="M467.4,546.9c-0.4,1.7-2.1,2.6-4.2,2.1c-2.1-0.5-3.2-0.8-5.4-1.3c1.1-4.5,1.7-6.8,2.8-11.3
					c1.9,0.5,2.8,0.7,4.6,1.1c2.4,0.6,3.4,2.2,3,4c-0.3,1.3-1.4,2-2.5,2C467,544.2,467.7,545.5,467.4,546.9z M464.6,539.4
					c-0.9-0.2-1.3-0.3-2.2-0.5c-0.3,1.2-0.4,1.8-0.7,3c0.8,0.2,1.2,0.3,2.1,0.5c1.2,0.3,2.1-0.1,2.3-1
					C466.3,540.4,465.8,539.7,464.6,539.4z M463,547.1c1.1,0.3,2,0,2.2-0.9c0.2-0.9-0.4-1.7-1.5-1.9c-1-0.2-1.5-0.4-2.5-0.6
					c-0.3,1.1-0.4,1.7-0.7,2.8C461.5,546.7,462,546.8,463,547.1z"/>
				<path class="st5" d="M472,545.2c0.8-3.4,3.8-5.3,7.1-4.6c3.3,0.7,5.3,3.7,4.6,7.1c-0.7,3.4-3.8,5.3-7.1,4.6
					C473.2,551.6,471.2,548.5,472,545.2z M481.4,547.2c0.5-2.2-0.8-4.1-2.8-4.6c-2.1-0.5-3.9,0.9-4.4,3c-0.5,2.1,0.7,4.1,2.8,4.6
					C479,550.7,480.9,549.4,481.4,547.2z"/>
				<path class="st5" d="M489.7,552.7c1.8,0.4,2.7,0.5,4.6,0.9c-0.2,0.8-0.2,1.2-0.4,2.1c-2.7-0.5-4.1-0.8-6.8-1.3
					c0.9-4.5,1.3-6.8,2.2-11.3c0.9,0.2,1.3,0.3,2.2,0.4C490.8,547.1,490.4,549,489.7,552.7z"/>
				<path class="st5" d="M509.1,551.3c-0.4,2.7-0.6,4.1-1.1,6.9c-0.9-0.1-1.3-0.2-2.2-0.4c0.2-1.2,0.3-1.9,0.5-3.1
					c-2.1-0.4-3.2-0.5-5.3-0.9c-0.2,1.2-0.3,1.9-0.5,3.1c-0.9-0.2-1.3-0.2-2.2-0.4c0.5-2.7,0.7-4.1,1.2-6.9c0.5-2.8,2.7-4.3,5.6-3.8
					C507.9,546.3,509.6,548.5,509.1,551.3z M501.3,551.8c2.1,0.4,3.2,0.6,5.3,0.9c0.1-0.7,0.2-1.1,0.3-1.8c0.3-1.6-0.6-2.8-2.2-3.1
					c-1.6-0.3-2.8,0.6-3.1,2.1C501.5,550.7,501.4,551.1,501.3,551.8z"/>
			</g>
		</g>
	</g>
</g>
</svg>
