<?xml version="1.0" encoding="utf-8"?>
<!-- Svg Vector Icons : http://www.onlinewebfonts.com/icon -->
<!DOCTYPE svg PUBLIC "-//W3C//DTD SVG 1.1//EN" "http://www.w3.org/Graphics/SVG/1.1/DTD/svg11.dtd">
<svg version="1.1" xmlns="http://www.w3.org/2000/svg" xmlns:xlink="http://www.w3.org/1999/xlink" x="0px" y="0px" viewBox="0 0 1000 1000" enable-background="new 0 0 1000 1000" xml:space="preserve">
<metadata> Svg Vector Icons : http://www.onlinewebfonts.com/icon </metadata>
<g><g transform="translate(0.000000,512.000000) scale(0.100000,-0.100000)"><path d="M4046.8,4999.1c-241.4-53.6-423.4-139.9-622.7-297c-101.5-80.5-130.3-92-239.5-103.5c-206.9-23-517.3-88.1-705-149.4c-226.1-70.9-1088.2-488.6-1222.4-590.1c-55.6-42.2-141.8-132.2-191.6-201.2c-178.2-251-137.9,46-572.9-4307C276.3-2800.5,100-4582.3,100-4605.3c0-26.8,26.8-72.8,65.1-111.1l65.1-65.1h789.4H1809l65.1,65.1c36.4,36.4,65.1,80.5,65.1,99.6c0,69,193.5,1835.4,201.2,1845c5.7,3.8,9.6-325.7,9.6-731.9v-741.4l51.7-55.6c128.4-136,854.5-327.6,1567.2-411.9c1362.2-162.9,3055.9-23,3874,316.1c231.8,97.7,216.5,36.4,216.5,894.7c0,406.2,3.8,733.8,7.7,730c7.7-7.7,203.1-1781.8,203.1-1846.9c0-17.2,28.7-61.3,65.1-97.7l65.1-65.1H8986h785.5l57.5,47.9c32.6,26.8,63.2,72.8,70.9,101.5c5.7,28.7-166.7,1816.3-381.3,3973.6C9081.8,3705.9,9122,3407,8943.8,3658c-49.8,69-136,159-191.6,201.2c-136,101.5-998.2,519.2-1224.3,592c-205,65.1-494.3,126.5-693.6,147.5c-124.5,11.5-143.7,21.1-266.3,116.9c-145.6,113-342.9,214.6-519.2,266.3c-101.5,30.7-220.3,34.5-996.3,38.3C4347.6,5024.1,4146.4,5020.2,4046.8,4999.1z M5962.7,4579.6c88.1-28.7,241.4-97.7,264.4-116.9c11.5-9.6-1208.9-4531.1-1222.3-4531.1S3770.9,4451.2,3780.5,4460.8c51.7,46,300.8,134.1,429.2,151.4c32.6,5.8,415.8,7.7,852.6,5.8C5771.1,4614.1,5868.8,4610.2,5962.7,4579.6z M2782.3,3704c-126.5-252.9-229.9-482.8-229.9-507.7c0-61.3-92,111.1,1145.7-2143.9C4295.8-32,4782.5-932.5,4782.5-949.7c0-15.3-132.2-785.5-295-1710.9l-297-1684.1l-143.7,13.4c-423.4,36.4-988.6,139.8-1306.7,239.5l-187.8,59.4v2611.4v2611.4l-528.8,1162.9c-427.2,940.7-525,1166.8-505.8,1189.8c23,26.8,534.5,283.5,867.9,434.9c134.1,59.4,532.6,182,611.2,187.8C3004.5,4165.7,2908.7,3958.8,2782.3,3704z M7284.6,4096.8c115-30.7,300.8-103.5,507.7-201.2c570.9-270.1,651.4-314.2,645.7-339.1c-1.9-13.4-224.2-551.8-492.4-1195.5l-488.6-1172.5V-1423v-2609.5l-185.9-59.4c-358.3-111.1-900.5-206.9-1433.1-251c-279.7-23-1205.1-34.5-1224.3-15.3c-5.8,5.8,122.6,766.4,285.5,1691.8c218.4,1237.7,308.5,1701.3,337.2,1760.7c23,44.1,513.5,938.8,1090.2,1986.8C7505,3225,7457.1,3135,7457.1,3190.5c0,21.1-103.5,247.1-229.9,500.1c-126.4,252.9-229.9,463.6-229.9,467.5C6997.3,4167.7,7047.1,4158.1,7284.6,4096.8z M3901.2,2410.8c247.2-915.8,446.4-1666.8,442.6-1670.7c-1.9-1.9-308.5,547.9-680.1,1224.3l-676.3,1230l224.2,450.2c122.6,247.2,228,444.5,233.7,440.7C3449,4079.5,3655.9,3326.6,3901.2,2410.8z M6803.8,3633.1l218.4-438.8l-676.3-1230C5974.2,1288,5667.6,738.2,5663.8,740.1c-1.9,3.8,197.3,756.8,444.5,1672.6c245.2,917.7,448.3,1668.8,448.3,1672.6C6556.6,4117.8,6617.9,4006.7,6803.8,3633.1z M9102.9-595.3C9304-2630,9468.8-4312.1,9468.8-4335.2v-44H8963h-503.9l-11.5,91.9c-3.8,49.8-137.9,1285.6-293.1,2745.5l-283.6,2655.4l419.6,1009.7c229.9,553.7,425.3,1002,431.1,992.4C8729.3,3108.1,8899.7,1439.4,9102.9-595.3z M1740,1993.1l398.5-881.3l-291.2-2730.2c-160.9-1502.1-293.1-2737.8-291.2-2745.5c0-9.6-228-15.3-507.7-15.3H540.7v57.5c0,61.3,699.3,7088.8,720.4,7242.1l11.5,86.2l34.5-67.1C1324.3,2903.2,1519.7,2475.9,1740,1993.1z"/><path d="M5487.5-1974.7c-72.8-61.3-92-138-53.7-226.1c28.8-70.9,111.1-128.3,183.9-128.3c70.9,0,155.2,57.5,183.9,128.3C5882.2-2009.2,5648.5-1840.6,5487.5-1974.7z"/><path d="M5089-3187.5c-105.4-84.3-113-208.8-19.2-302.7c139.9-139.9,337.2-46,337.2,157.1c0,101.6-86.2,180.1-195.4,180.1C5161.8-3153,5112-3166.5,5089-3187.5z"/></g></g>
</svg>