<?xml version="1.0" encoding="UTF-8" standalone="no"?>
<svg
   version="1.1"
   viewBox="0 0 60 66"
   id="svg774"
   sodipodi:docname="wapuu-original_prev.svg"
   xml:space="preserve"
   inkscape:version="1.2.1 (9c6d41e4, 2022-07-14)"
   xmlns:inkscape="http://www.inkscape.org/namespaces/inkscape"
   xmlns:sodipodi="http://sodipodi.sourceforge.net/DTD/sodipodi-0.dtd"
   xmlns:xlink="http://www.w3.org/1999/xlink"
   xmlns="http://www.w3.org/2000/svg"
   xmlns:svg="http://www.w3.org/2000/svg"
   xmlns:rdf="http://www.w3.org/1999/02/22-rdf-syntax-ns#"
   xmlns:cc="http://creativecommons.org/ns#"
   xmlns:dc="http://purl.org/dc/elements/1.1/"><defs
     id="defs778"><linearGradient
       id="linearGradient1036"
       inkscape:swatch="solid"><stop
         style="stop-color:#000000;stop-opacity:1;"
         offset="0"
         id="stop1034" /></linearGradient><linearGradient
       id="linearGradient1949"
       inkscape:swatch="solid"><stop
         style="stop-color:#ff3030;stop-opacity:1;"
         offset="0"
         id="stop1947" /></linearGradient><inkscape:path-effect
       effect="fill_between_many"
       method="originald"
       linkedpaths="#path758,0,1|"
       id="path-effect1028" /><linearGradient
       inkscape:collect="always"
       xlink:href="#linearGradient1036"
       id="linearGradient1038"
       x1="1.1441006"
       y1="32.984609"
       x2="58.680064"
       y2="32.984609"
       gradientUnits="userSpaceOnUse" /></defs><sodipodi:namedview
     id="namedview776"
     pagecolor="#ffffff"
     bordercolor="#666666"
     borderopacity="1.0"
     inkscape:showpageshadow="2"
     inkscape:pageopacity="0.0"
     inkscape:pagecheckerboard="0"
     inkscape:deskcolor="#d1d1d1"
     showgrid="false"
     inkscape:zoom="9.4079875"
     inkscape:cx="19.132678"
     inkscape:cy="37.415016"
     inkscape:window-width="1387"
     inkscape:window-height="732"
     inkscape:window-x="0"
     inkscape:window-y="25"
     inkscape:window-maximized="0"
     inkscape:current-layer="g772" /><title
     id="title732">Artboard</title><desc
     id="desc734">Created with Sketch.</desc><g
     fill="none"
     fill-rule="evenodd"
     id="g772"
     style="display:inline"
     inkscape:label="g772"><path
       d="M 48.374,14.963 C 47.77862,13.2814 47.0473,11.751 46.2002,10.3753 44.9271,9.7554 43.4952,8.8406 41.9171,7.4961 L 41.78964,7.38752 c -1.745,-1.4527 -1.5043,-2.1166 -1.4254,-2.3348 0.0632,-0.17494 0.17538,-0.31155 0.33018,-0.41374 -2.3656,-1.5141 -5.0812,-2.3611 -8.0475,-2.4505 -7.3715,-0.22319 -13.832,2.9118 -17.285,8.3859 -0.94402,1.4971 -1.2703,2.8575 -0.9426,3.9352 0.23858,0.7849 0.78604,1.2689 1.1822,1.4449 1.20371,0.857684 0.448998,0.662084 0.293687,2.425035 -2.456984,-2.341387 -3.514074,-2.257176 -5.011912,-1.13811 -2.0589994,1.863792 -1.575969,2.602314 0.03167,4.35346 1.590551,1.732532 3.643446,3.962299 4.942541,5.754829 0,0 -3.193403,4.588133 -7.2831609,10.239308 -9.30242205,-6.15628 -6.0701435,4.771065 -5.0789198,5.088275 2.4315702,2.908109 4.6366552,5.659936 8.8376397,5.460493 0.45037,-0.731718 0.45886,-1.360463 0.52065,-2.762765 4.565979,3.249049 6.454659,2.714061 12.286832,3.206372 0.435525,3.425695 1.469737,4.158266 4.672056,3.706377 2.500008,-3.244201 4.042948,0.672692 13.91307,-5.549773 8.3347,-5.7356 7.36058,-24.114289 4.64788,-31.775289"
       fill="#ffd200"
       id="path760"
       sodipodi:nodetypes="ccccccccccccsccccccccc"
       style="display:none;fill:#ffcc00"
       inkscape:label="bodycolor" /><path
       d="m 42.852,48.065 c -1.0647,0.63587 -2.1078,1.1419 -3.1086,1.5379 -3.2847,6.0067 -10.42,10.622 -16.611,10.74 -3.1978,0.05252 -5.6751,-1.1525 -7.0211,-3.4146 -1.5099,-2.5382 -3.8162,-3.4753 -5.3166,-3.0892 -1.0054,0.25903 -1.5817,1.0972 -1.6225,2.3607 -0.035858,1.1085 0.94331,2.5875 2.6191,3.9565 3.0128,2.4619 8.1827,4.4412 12.939,3.3149 8.2218,-1.9459 15.606,-8.2975 18.122,-15.406"
       fill="#ff8800"
       id="path754"
       style="display:none"
       inkscape:label="tail"
       sodipodi:nodetypes="ccccccccc" /><path
       d="m 48.891,5.6685 c -2.1202,0 -5.1568,-0.017742 -7.0402,-0.17032 -0.16402,-0.013129 -0.30888,-0.013129 -0.4026,-0.00532 0.13882,0.22674 0.47929,0.62381 1.0232,1.0769 l 0.13704,0.11603 c 3.6998,3.1527 6.4846,3.8152 8.1692,3.8152 h 0.373877 c 0.60178,0 0.810833,-0.08339 1.358633,-0.24768 2.5992,-0.77923 4.1957,-2.3891 4.8227,-3.6357 0.23396,-0.4659 0.28154,-0.77177 0.28154,-0.91548 -0.35361,-0.035839 -1.2731,-0.053935 -2.7408,-0.053935 -0.78107,0 -1.6693,0.00426 -2.6141,0.00923 -1.0747,0.00532 -2.2228,0.011 -3.3685,0.011"
       fill="#ff8800"
       id="path748"
       style="display:none"
       inkscape:label="earR"
       sodipodi:nodetypes="cccccsscccscc" /><path
       d="m 9.7015,14.122 c -0.049704,0.011 -0.06497,0.02803 -0.065325,0.02803 0.00497,-0.0018 0.036568,0.05784 0.15444,0.13732 0.21586,0.14584 1.0956,0.55568 3.4779,-0.08055 -0.07314,-0.55213 -0.04544,-1.2409 0.1942,-2.0591 -1.3921,0.96765 -2.962,1.7969 -3.7612,1.9743"
       fill="#ff8800"
       id="path756"
       style="display:none"
       inkscape:label="earL" /><g
       id="g2334"
       inkscape:label="Border"
       style="display:inline"><a
         id="a876"><path
           id="path758"
           style="display:inline;fill:#000000;fill-opacity:1;stroke:url(#linearGradient1038)"
           inkscape:label="b10"
           d="M 31.242188,1.1210938 C 24.117636,1.3097903 17.935934,4.5478335 14.5,9.9472656 13.090201,11.337864 10.380602,12.879331 9.4707031,13.082031 c -0.4214196,0.09332 -0.7393726,0.37618 -0.8515625,0.75586 -0.1128999,0.384289 0.0086,0.80527 0.3242188,1.125 0.2893497,0.291679 0.8910843,0.65625 2.0957026,0.65625 0.64793,0 1.473927,-0.107819 2.515626,-0.386719 0.391239,0.886389 1.063981,1.451213 1.613281,1.695312 0.190955,0.08474 0.451088,0.115833 0.75,0.109375 l -0.390625,1.13086 -0.650391,-0.515625 c -6.57e-4,-0.0032 -0.0013,-0.0065 -0.002,-0.0098 -0.1647,-0.801199 -0.652498,-1.434503 -1.304688,-1.695312 -0.179289,-0.07168 -0.380732,-0.109375 -0.601562,-0.109375 -0.980599,0 -2.298143,0.729476 -3.1328125,1.734375 -0.6425994,0.774299 -0.9179374,1.625775 -0.7734375,2.396484 0.2204644,1.174524 1.068396,1.908545 2.214844,1.919922 0,0 3.521643,2.845714 4.190953,4.54113 0.669309,1.695417 -6.5835314,10.980354 -6.5835314,10.980354 -0.481195,-0.668833 -0.9426397,-1.214181 -1.3398437,-1.519531 -0.8928991,-0.686599 -1.875941,-1.050781 -2.84375,-1.050781 -1.0750989,0 -2.0694032,0.463342 -2.7265625,1.269531 -0.7434313,0.912599 -0.99940287,2.157308 -0.7207032,3.503906 0.6233994,3.011197 5.5525005,8.416861 9.1542968,9.28125 0.32272,0.07736 0.625068,0.115235 0.898438,0.115235 0.929779,0 1.417489,-0.446313 1.662109,-0.820313 0.467856,-0.715277 0.429817,-1.704025 0.271484,-2.492187 2.397904,1.702746 6.363055,2.656052 11.06836,2.841796 -0.02416,1.524118 0.07816,2.995247 0.978515,3.925782 0.5645,0.583349 1.372298,0.878906 2.404297,0.878906 2.134398,0 3.514498,-1.111317 4.341797,-2.353516 0.18852,0.0071 0.389432,0.01172 0.607422,0.01172 1.373599,0 3.310165,-0.172053 5.539063,-0.851562 -3.330497,5.172794 -9.597065,9.024906 -15.06836,9.128906 -1.962198,0.04258 -4.622139,-0.434414 -6.085937,-2.894531 -1.777599,-2.988097 -4.613696,-4.061972 -6.496094,-3.576172 -1.4825986,0.381449 -2.3654752,1.605923 -2.4218751,3.357422 -0.047219,1.459098 1.0503676,3.213754 3.0097661,4.814453 2.576097,2.104498 6.637601,3.876953 10.779296,3.876953 1.028199,0 2.061326,-0.10903 3.078125,-0.34961 9.033038,-2.138564 17.10344,-9.414278 19.275438,-17.34567 4.885195,-3.488396 6.438607,-10.422255 6.878906,-15.65625 0.56095,-6.671693 -0.473981,-13.294441 -1.75,-16.898437 -0.450889,-1.273499 -0.980456,-2.459461 -1.572265,-3.56836 1.186498,0.39777 2.184604,0.525391 2.970703,0.525391 h 0.002 c 0.705439,0 1.38991,-0.09728 2.037109,-0.291015 4.154596,-1.245799 5.893081,-4.3161237 5.863282,-5.6074224 C 58.667968,5.1571761 58.41361,4.7907599 58,4.6875 H 57.998 C 57.7406,4.622919 57.128168,4.5839844 54.873,4.5839844 c -0.782489,0 -1.672242,0.0048 -2.619141,0.00977 -1.073299,0.00532 -2.218982,0.00977 -3.363281,0.00977 -1.960498,0 -4.708608,-0.01554 -6.566406,-0.1386718 -2.753597,-2.071198 -6.023488,-3.232097 -9.646485,-3.3417969 -0.482818,-0.014792 -0.960576,-0.014533 -1.435546,-0.00195 z m 0.0332,1.0644531 c 3.624577,-0.096297 0.910394,-0.010044 1.371093,0.00391 2.966297,0.089419 5.683231,0.9351403 8.048828,2.4492188 -0.154789,0.1021899 -0.266878,0.2391326 -0.330078,0.4140625 -0.07882,0.2182298 -0.3211,0.8832689 1.423828,2.3359375 l 0.128907,0.1074219 c 1.578098,1.3444986 3.010004,2.2590068 4.283203,2.8789064 0.847099,1.375699 1.578529,2.906292 2.173828,4.587891 h -0.002 c 2.712797,7.660992 3.44602,25.701505 -4.888672,31.4375 -4.401996,3.029297 -8.537662,3.543909 -10.880859,3.537109 0.196689,-0.46058 0.326721,-0.902648 0.394531,-1.273438 0.689819,-2.197897 0.90652,-4.093353 -0.0059,-7.21875 -0.04012,-0.144419 -0.09572,-0.308908 -0.16211,-0.486328 1.740398,-3.455796 4.810796,-4.262894 6.496094,-4.433593 2.314398,-0.23313 4.658226,0.460621 5.578125,1.65039 0.17929,0.23277 0.513904,0.275603 0.746094,0.0957 0.232539,-0.179189 0.275703,-0.513674 0.0957,-0.746093 -0.33018,-0.42723 -0.789401,-0.799286 -1.337891,-1.109375 L 43.42764,35.960939 c -1.226998,-0.45419 -2.715132,-0.647614 -4.207031,-0.496094 -2.945997,0.298419 -5.424142,1.846358 -6.931641,4.285156 -1.106998,-2.162698 -3.252983,-5.007813 -5.613281,-5.007812 -0.575499,0 -1.1216,0.170179 -1.625,0.505859 -2.626897,1.750098 -1.881808,4.862024 -1.224609,7.607422 0.17645,0.736289 0.343599,1.431779 0.443359,2.080078 0.12107,0.787739 0.08912,1.746629 0.05859,2.673828 -0.0091,0.272886 -0.01218,0.545488 -0.01758,0.818359 L 13.121094,45.207031 c -0.0703,-0.244822 -0.145875,-0.454026 -0.207032,-0.59375 -0.493751,-1.127806 -3.6240153,-6.447934 -3.6240153,-6.447934 5.3398013,-6.477166 5.3023813,-7.091133 6.5077543,-8.800465 2.075273,-5.126186 0.06983,-11.785827 0.25863,-12.680153 0.481331,0.803666 0.338007,8.328191 0.251382,10.142343 -1.660497,3.913833 -0.317738,-9.538461 -0.323434,-9.791916 1.771187,-0.07358 5.021682,-1.578874 6.439453,-3.546875 1.300799,0.69016 2.655692,0.953302 4.025391,0.951172 -0.949699,0.43255 -1.817117,0.964673 -2.541016,1.601563 -1.739998,1.530398 -1.807493,2.783054 -1.558594,3.564453 0.35325,1.109199 1.592352,1.931003 3.15625,2.095703 1.018199,0.10787 2.326599,-0.183152 3.841797,-0.519531 1.999498,-0.44319 4.266918,-0.945194 6.166016,-0.552735 2.824597,0.58406 4.789175,2.154034 7.638672,4.707032 l 1.480468,1.330078 c 0.0987,0.08197 0.217181,0.125 0.337891,0.125 0.14521,0 0.289441,-0.05903 0.394531,-0.175782 0.19704,-0.217869 0.180881,-0.555013 -0.03711,-0.751953 L 44.90625,25.484375 c -3.454397,-3.122197 -5.735485,-5.184985 -9.175781,-5.896484 -2.122698,-0.43929 -4.50773,0.09002 -6.611328,0.55664 -1.365099,0.30303 -2.655254,0.586047 -3.501953,0.498047 -1.126499,-0.11816 -2.030054,-0.663896 -2.251954,-1.359375 -0.215859,-0.676679 0.227318,-1.543707 1.248047,-2.441406 2.976597,-2.618398 8.504695,-3.407174 12.587891,-1.796875 0.27337,0.10858 0.583476,-0.0272 0.691406,-0.300781 0.10793,-0.27358 -0.02546,-0.581584 -0.298828,-0.689453 -1.659398,-0.65468 -3.543224,-0.941909 -5.419922,-0.892579 0.0742,-0.126319 0.09871,-0.28119 0.05078,-0.43164 -0.08982,-0.27997 -0.388732,-0.43282 -0.669921,-0.34375 -2.839498,0.908029 -6.114647,1.726775 -9.027344,-0.06445 -0.12391,-0.07629 -0.272403,-0.0994 -0.414063,-0.0625 -0.14095,0.0369 -0.259428,0.130422 -0.330078,0.257812 -1.240499,2.254298 -5.510641,3.7363 -6.181641,3.4375 -0.396209,-0.176 -0.94311,-0.660413 -1.18164,-1.445312 -0.32769,-1.077599 -0.0026,-2.438449 0.941406,-3.935547 C 18.598886,5.4422581 27.650812,2.2818468 31.27539,2.1855499 Z m 10.171875,3.3085937 c 0.09373,-0.00781 0.238324,-0.00922 0.402343,0.00391 1.883398,0.1525798 4.920818,0.171875 7.041016,0.171875 1.145699,0 2.294442,-0.0064 3.369141,-0.011719 0.944729,-0.00497 1.832182,-0.00977 2.613281,-0.00977 1.467698,0 2.386635,0.018849 2.740234,0.054687 0,0.1437099 -0.04728,0.4501161 -0.28125,0.9160156 -0.626979,1.2464988 -2.223168,2.8555664 -4.822265,3.6347658 -0.54781,0.16429 -1.130723,0.248047 -1.732422,0.248047 -1.684599,-3.55e-4 -4.470226,-0.6636897 -8.169922,-3.8164065 L 42.470703,6.5703125 C 41.926794,6.117183 41.586085,5.7208504 41.447266,5.4941406 Z m -11.386719,0.65625 c -0.5883,0 -1.066406,0.4765037 -1.066406,1.0644532 0,0.5879494 0.478126,1.0644531 1.066406,1.0644531 0.588299,0 1.064453,-0.4764837 1.064453,-1.0644531 0,-0.5879495 -0.476174,-1.0644532 -1.064453,-1.0644532 z m -6.414063,2.8320313 c -0.03098,0.00122 -0.06242,0.00216 -0.0957,0.00586 -1.065099,0.1185199 -1.774347,0.3560979 -2.248047,0.7109376 -0.846749,0.6348095 -0.592993,1.4189095 0.353516,1.5371095 0.946859,0.11816 1.021532,0.181663 1.894531,-0.472656 0.916931,-0.687502 1.056186,-1.8189234 0.0957,-1.7812511 z m -5.894531,0.125 c -0.587939,0 -1.064453,0.4764837 -1.064453,1.0644531 0,0.587949 0.476524,1.064453 1.064453,1.064453 0.5883,0 1.064453,-0.476484 1.064453,-1.064453 0,-0.5879494 -0.476173,-1.0644531 -1.064453,-1.0644531 z m -4.289062,3.0390621 c -0.23964,0.81826 -0.268453,1.508448 -0.195313,2.060547 -2.382197,0.63623 -3.260663,0.225918 -3.4765624,0.08008 -0.1178699,-0.07948 -0.15128,-0.138498 -0.15625,-0.136718 3.55e-4,0 0.016702,-0.0183 0.066406,-0.0293 0.7991694,-0.17742 2.3696204,-1.007011 3.7617194,-1.974609 z m -0.494141,4.75586 c 0.08378,0 0.154841,0.01226 0.207031,0.0332 0.31917,0.12739 0.56394,0.472295 0.65625,0.921875 0.14876,0.724199 -0.118577,1.511475 -0.716797,2.109375 -0.536099,0.536159 -1.212677,0.857422 -1.810546,0.857422 -0.45483,0 -1.032353,-0.182842 -1.195313,-1.050781 -0.1153899,-0.61278 0.292142,-1.214722 0.544922,-1.519532 0.692299,-0.833859 1.741084,-1.351562 2.314453,-1.351562 z m 1.941406,0.941406 c 0.164206,0.162367 0.592201,0.191085 0.574219,0.451172 -0.182836,2.644484 0.221658,8.882167 -0.06747,8.614918 -0.756159,-0.698934 -3.73006,-4.063584 -4.414185,-4.706337 0.840711,-0.04567 2.16502,-0.783389 2.864469,-1.4828 0.799621,-0.798871 1.181442,-1.860645 1.042967,-2.876953 z M 4.7011719,35.904297 c 0.7309992,0 1.4886301,0.287889 2.1933593,0.830078 1.3998987,1.076499 4.1708428,6.309943 5.0449218,8.306641 0.30533,0.697599 0.523522,1.977726 0.138672,2.566406 -0.09514,0.14513 -0.279415,0.33789 -0.771484,0.33789 -0.18994,0 -0.407368,-0.0281 -0.648438,-0.08594 C 7.5013063,47.102176 2.8393645,42.017282 2.296875,39.396484 2.0842152,38.369185 2.2629118,37.441599 2.8007812,36.78125 3.2605808,36.216701 3.9367926,35.904297 4.7011719,35.904297 Z m 21.9746091,0.257812 c 1.914998,0 4.42192,3.774277 4.949219,5.671875 0.824019,2.823798 0.638889,4.443868 0.0059,6.447266 -0.0096,0.0291 -0.01811,0.06128 -0.02344,0.0918 -0.02592,0.14477 -0.669609,3.550781 -3.916016,3.550781 -0.641539,0 -1.094066,-0.144763 -1.384765,-0.445312 -0.66462,-0.68661 -0.611677,-2.281568 -0.560547,-3.822266 0.03302,-0.992129 0.06744,-2.018801 -0.07422,-2.9375 -0.10864,-0.706129 -0.289814,-1.46196 -0.464844,-2.193359 -0.708279,-2.956897 -1.045919,-4.977905 0.63086,-6.095703 0.270179,-0.1799 0.543581,-0.267579 0.83789,-0.267579 z M 42.849609,48.064453 C 40.333912,55.172546 32.950107,61.524705 24.728516,63.470703 19.97252,64.597002 14.802159,62.618118 11.789062,60.15625 10.113364,58.787251 9.1341219,57.307818 9.1699219,56.199219 c 0.040828,-1.263599 0.6175879,-2.100376 1.6230471,-2.359375 1.500398,-0.38606 3.806408,0.549753 5.316406,3.08789 1.345899,2.262098 3.823688,3.468516 7.021484,3.416016 6.190994,-0.11745 13.326332,-4.73304 16.611329,-10.740234 1.000798,-0.396 2.042722,-0.903164 3.107421,-1.539063 z"
           sodipodi:nodetypes="zccccscccccccsccczccscccsccccscscccccsscccscssccccscsccszcccccccccccccccccccccsccccccccsccccccccccccscccccccccscccccccccczccscscccccccssscssccscsssscsccccccsccccccscccccssccccsccsscccccccccscccccccccccccc" /></a></g><g
       id="g2343"
       style="display:none"
       inkscape:label="Ball"><path
         d="M 58.258,3.6552 C 57.88877,3.563297 57.28664,3.51894 54.8657,3.51894 c -0.78178,0 -1.6704,0.00461 -2.6151,0.00923 -1.0665,0.00532 -2.2051,0.011 -3.3415,0.011 -1.827,0 -4.3853,-0.013129 -6.2059,-0.11745 -2.9159,-2.1187 -6.2748,-3.2496 -9.9916,-3.3617 -8.0546,-0.24661 -15.186,3.2336 -19.048,9.2162 -1.3051,1.2405 -3.7605,2.6198 -4.4244,2.767 -1.113,0.24732 -1.8341,1.2217 -1.7137,2.3164 0.086627,0.78916 0.64793,1.6759 1.9005,2.0882 -0.1445,0.14194 -0.28225,0.29097 -0.41041,0.44532 -0.84888,1.0223 -1.2039,2.1844 -0.99976,3.2727 0.041183,0.21823 0.098343,0.42687 0.17112,0.62523 -1.8362,3.124 -2.8022,6.6703 -2.8022,10.316 0,0.92081 0.06213,1.837 0.18533,2.7443 -0.28899,-0.05003 -0.57941,-0.07558 -0.86982,-0.07558 -1.3967,0 -2.6915,0.60535 -3.5514,1.6606 -0.9497,1.166 -1.2827,2.7259 -0.93763,4.3922 0.7026,3.394 5.847,9.1158 9.949,10.1 0.40402,0.09652 0.78994,0.14584 1.1467,0.14584 1.0974,0 2.0038,-0.46235 2.553,-1.3019 0.17432,-0.26684 0.30036,-0.55 0.38769,-0.83955 2.7994,1.9296 6.0355,3.1247 9.4637,3.4717 0.74272,2.4221 2.7369,2.8259 3.9813,2.8259 1.876,0 3.4967,-0.76219 4.6523,-2.1674 0.10438,0.0014 0.20911,0.0025 0.3142,0.0025 0.79314,0 1.7787,-0.05429 2.9063,-0.22816 -3.6092,4.048 -8.8232,6.3775 -12.662,6.3782 h -0.0011 c -1.6182,0 -3.7921,-0.41268 -4.9601,-2.3764 -1.5454,-2.5981 -4.0228,-4.2123 -6.4647,-4.2123 -2.5651001,0 -4.3473001,1.81 -4.4343001,4.5036 -0.047219,1.458 0.71716,3.0438 2.2108,4.5852 2.5125001,2.5935 7.3846001,5.2105 12.6060001,5.2105 1.1538,0 2.2846,-0.12916 3.3607,-0.38394 9.2535,-2.1904 17.544,-9.5952 19.956,-17.739 8.8324,-6.7441 8.1323,-25.284 5.2054,-33.551 -0.20308,-0.57377 -0.42249,-1.1358 -0.65787,-1.6844 0.35609,0.04116 0.70828,0.06174 1.0548,0.06174 0.80911,0 1.5973,-0.11355 2.3432,-0.3371 4.5909,-1.3764 6.665,-4.7825002 6.6217,-6.6515002 -0.02272,-0.98645 -0.60639,-1.766 -1.4862,-1.986"
         fill="#000000"
         id="path736"
         style="display:none;fill:#000000" /><path
         d="M 10.294,41.757 C 9.83353,40.91071 9.33293,40.0389 8.8419,39.2554 9.26297,40.12866 9.74794,40.965 10.294,41.757"
         fill="#005683"
         id="path738"
         style="display:none" /><path
         d="m 43.192881,24.762666 c -2.8495,-2.5531 -4.628007,-3.935212 -7.452707,-4.519212 -1.8991,-0.39245 -4.392274,-0.0033 -6.391774,0.439853 -1.5153,0.33639 -2.778565,0.62735 -3.796765,0.51948 -1.5639,-0.16465 -2.373019,-0.624481 -2.726219,-1.733721 -0.24888,-0.78135 -0.184897,-1.607239 1.555113,-3.137639 0.72391,-0.63694 3.114572,-1.967681 4.064272,-2.400181 -3.03925,0.219867 -4.815495,-0.134085 -6.116295,-0.824245 -2.151829,2.150527 -5.643699,3.949101 -6.955899,3.366801 -0.29148,-0.12952 -0.810293,-0.177915 -1.111003,-0.487685 -0.0284,0.022 -0.350415,0.250462 -0.378825,0.272812 0.34615,0.32397 0.430223,0.921093 0.539213,1.451583 0.22118,1.0755 -0.132833,1.886289 -0.985233,2.737889 -0.74201,0.74197 -1.246119,0.940726 -2.133319,0.940726 -0.62059,0 -1.195768,-0.397347 -1.5926683,-0.774187 -2.6897468,4.490319 -2.9771458,7.007678 -3.1149693,10.123918 -0.074031,1.673864 0.2887768,4.058136 0.7002568,5.604136 1.7617,1.618504 4.3159678,6.657633 4.9489678,8.103933 0.03444,0.07913 0.593678,0.922361 0.670954,0.982306 3.0195,2.7905 7.681872,4.667105 12.033272,5.002805 -0.05467,-0.71926 -0.126791,-2.04686 -0.101611,-2.80376 0.03053,-0.92719 0.08106,-1.904878 -0.04,-2.692678 -0.09976,-0.64829 -0.322005,-1.380956 -0.498455,-2.117256 -0.605587,-2.82276 -1.25271,-5.566418 0.974398,-7.148905 0.50343,-0.33568 0.794904,-0.451323 1.370404,-0.451323 2.3602,0 4.468827,3.440111 5.620482,5.498615 1.5075,-2.4388 3.970015,-4.461523 6.916015,-4.759923 1.4918,-0.15152 2.965615,-0.03256 4.192615,0.421635 0.43278,-1.5734 0.699685,-3.620983 0.699685,-5.271283 0,-1.9747 -0.272259,-4.488734 -0.889649,-6.344534"
         fill="#005683"
         id="path740"
         style="display:none;stroke:#000000;stroke-width:1;stroke-dasharray:none;stroke-opacity:1"
         sodipodi:nodetypes="cccccccccccccscsccccccccscccsc" /><path
         d="m 30.929,20.846 c -0.53716,0.10539 -1.0676,0.22248 -1.5806,0.33639 -1.5153,0.33639 -2.8239,0.62735 -3.8421,0.51948 -1.5639,-0.16465 -2.8037,-0.98716 -3.1569,-2.0964 -0.24888,-0.78135 -0.18071,-2.0336 1.5593,-3.564 0.02521,-0.022 0.05361,-0.04187 0.07882,-0.06387 -1.1201,-0.36513 -2.2999,-0.59826 -3.5212,-0.68094 -1.9303,1.3033 -4.3626,2.0456 -5.2978,1.6308 -0.29112,-0.12952 -0.61633,-0.35129 -0.91669,-0.66071 -0.02769,0.02306 -0.05539,0.04577 -0.08379,0.06813 0.34615,0.32397 0.59822,0.77781 0.70722,1.3079 0.22118,1.0755 -0.1555,2.2263 -1.0079,3.0779 -0.74201,0.74197 -1.6768,1.1674 -2.564,1.1674 -0.62095,0 -1.151,-0.2161 -1.5479,-0.59329 -1.7549,2.8568 -2.7735,6.2139 -2.7735,9.8127 0,1.6741 0.22012,3.2968 0.63231,4.8411 1.1815,0.97048 2.8764,3.8848 4.0566,6.138 2.2541,1.4339 4.9267,2.2685 7.7968,2.2685 1.5859,0 3.1111,-0.2569 4.5405,-0.72565 -0.05823,-0.253 -0.11893,-0.50955 -0.18213,-0.77355 -0.65716,-2.7454 -1.4027,-5.8573 1.2241,-7.6074 0.50343,-0.33568 1.0509,-0.506 1.6264,-0.506 1.8153,0 3.5009,1.6823 4.6871,3.443 1.6736,-2.3693 2.6602,-5.258 2.6602,-8.3788 0,-3.382 -1.1578,-6.4911 -3.0948,-8.9607"
         fill="#00709c"
         id="path742"
         style="display:none" /><path
         d="m 18.215,40.973 c -0.80627,0.05216 -1.4624,0.0057 -2.2637,-0.16039 -0.12089,-1.20415 -0.220297,-2.5583 -0.137752,-4.266838 0.08254,-1.708537 0.347042,-3.771462 0.953962,-6.393162 2.2051,5.7079 4.6338,9.8936 4.6512,9.9167 -0.4129,0.19694 -1.669,0.7959 -3.2038,0.90413 m -3.698,-0.60819 C 11.36231,38.9324 9.495485,36.517725 8.681935,33.8076 7.868385,31.097475 8.10811,28.0919 9.16661,25.47725 c 0.040296,2.5875 0.422921,4.88995 1.272947,7.2553 0.850026,2.36535 2.167453,4.7936 4.077353,7.6327 m 8.609505,-1.305242 c 0.08118,-0.496805 0.09983,-0.978222 0.234845,-1.442463 0.196473,-0.675581 0.407367,-1.042655 0.407367,-1.042655 0.955252,-3.417929 2.143006,-6.758459 2.931483,-10.23604 0.18888,-0.83458 0.35254,-2.1333 0.05823,-3.5814 2.111014,3.29593 2.518247,7.912032 0.198281,11.995373 0,0 0.417936,0.06123 0.633314,0.125785 0.215377,0.06455 0.647741,0.265126 0.647741,0.265126 1.119089,-2.100356 1.741758,-4.461349 1.649305,-6.775851 -0.03475,-0.868563 -0.153189,-1.697265 -0.344016,-2.482015 -0.190828,-0.78475 -0.454042,-1.525547 -0.778339,-2.218299 -0.324296,-0.692751 -0.842488,-1.505427 -1.277646,-2.097996 l -0.939658,0.134262 c -1.144516,0.03007 -2.378394,0.0127 -3.568143,-1.106801 -0.274115,0.175241 0.06527,-0.103632 -0.238985,0.172681 -0.608525,0.552622 -0.867517,1.61485 0.510533,3.65235 0.74485,1.10105 1.140975,2.093275 1.203594,3.259325 0.06262,1.16605 -0.208269,2.505925 -0.797444,4.302275 -0.212665,0.8857 -0.351128,1.462225 -0.483909,2.045313 C 23.0402,34.61195 22.9131,35.2016 22.72316,36.11355 21.81376,33.94125 20.98796,31.930375 20.242972,29.871388 19.497985,27.8124 18.83381,25.7053 18.24766,23.34055 c 0.51535,-0.07558 1.064925,-0.156217 1.410662,-0.300815 0.345738,-0.144597 0.487638,-0.353155 0.187638,-0.684575 -0.03781,-0.0417 -1.413985,0.07203 -2.787195,0.197288 -1.37321,0.125257 -2.743455,0.262047 -2.769405,0.266482 -0.2084,0.03548 -0.330885,0.175823 -0.401359,0.307866 -0.07047,0.132044 -0.08894,0.255794 -0.08929,0.258104 -0.02165,0.193565 -0.01491,0.289373 0.144276,0.327918 0.159186,0.03855 0.470814,0.01983 1.058924,-0.01566 0.15497,0.83495 0.26778,1.44305 0.437705,2.147088 0.169925,0.704037 0.396965,1.504012 0.780395,2.722712 -0.276745,1.1502 -0.55837,2.320025 -0.780621,3.662737 -0.222251,1.342713 -0.385129,2.858313 -0.424379,4.700063 -1.2369,-2.46065 -2.1029,-4.5455 -2.683288,-6.549263 -0.580387,-2.003762 -0.875162,-3.926437 -0.969612,-6.062737 0.17556,-0.10663 0.38059,-0.13901 0.580515,-0.18443 0.199925,-0.04542 0.394745,-0.10388 0.549885,-0.26267 0.1058,-0.108405 0.18444,-0.284847 0.203656,-0.441286 0.01922,-0.156439 -0.02099,-0.292874 -0.152886,-0.321264 -0.46775,-0.100775 -0.880125,0.01446 -1.280513,0.1768 -0.400387,0.16234 -0.78852,0.380634 -1.20832,0.468279 l -6.08e-4,-0.0097 c 0.412676,-0.651862 1.378573,-1.858022 1.378573,-1.858022 -0.393027,0.02382 -0.694976,-0.05853 -0.694976,-0.05853 -0.181083,0.236372 -0.481167,0.626286 -0.648068,0.874613 -0.6676044,0.993305 -1.2190474,2.077357 -1.6327005,3.213009 -0.8273063,2.271304 -1.1034531,4.749011 -0.6554109,7.119954 0.4480421,2.370943 1.6202734,4.635122 3.6897234,6.479372 3.950878,3.520625 8.339873,3.24091 11.840685,1.023408 0,0 -0.07941,-0.539077 -0.100203,-0.79973 -0.0208,-0.260652 -0.02734,-0.760721 -0.02734,-0.760721 -0.04873,0.03735 -0.02822,0.04671 -0.07768,0.08377 M 18.746527,17.316155 c -1.501672,0.128543 -2.682377,0.494618 -3.81151,1.009231 0.0021,0.339301 -0.05588,0.571984 -0.142049,0.867965 1.349605,-0.726602 2.699535,-0.975121 4.147981,-1.012179 2.031246,0.140201 3.300152,0.780833 3.300152,0.780833 -0.01352,-0.653299 0.243601,-1.117483 0.243601,-1.117483 0,0 -1.100148,-0.343275 -1.752657,-0.45326 -0.65251,-0.109984 -1.293807,-0.104145 -1.944132,-0.07302"
         fill="#ffffff"
         id="path744"
         style="display:none"
         sodipodi:nodetypes="ccsccccscsccscccczccsscccscscscscscscscscscscscscscsccccssscczccccccccsc" /></g></g><metadata
     id="metadata928"><rdf:RDF><cc:Work
         rdf:about=""><dc:title>Artboard</dc:title></cc:Work></rdf:RDF></metadata></svg>
