<?xml version="1.0" encoding="utf-8"?>
<!-- Generator: Adobe Illustrator 25.2.0, SVG Export Plug-In . SVG Version: 6.00 Build 0)  -->
<svg version="1.1" id="Layer_1" xmlns="http://www.w3.org/2000/svg" xmlns:xlink="http://www.w3.org/1999/xlink" x="0px" y="0px"
	 viewBox="0 0 1000 1000" style="enable-background:new 0 0 1000 1000;" xml:space="preserve">
<style type="text/css">
	.st0{fill:#FFFFFF;}
	.st1{fill-rule:evenodd;clip-rule:evenodd;fill:#1F305F;}
	.st2{fill:#C0765A;}
	.st3{fill:#1F305F;}
	.st4{fill:#A0624D;}
</style>
<g id="Ball--group">
	
		<ellipse id="Ball-bg" transform="matrix(0.7071 -0.7071 0.7071 0.7071 -236.4377 487.8127)" cx="470.6" cy="529.3" rx="133.5" ry="133.5"/>
	<circle id="Ball_1_" class="st0" cx="470.6" cy="529.3" r="126.1"/>
	<g>
		<g id="g4445-4_1_" transform="translate(-1614.3646,-14.177857)">
			<g id="g4447-8_1_">
				<path id="path4449-4_1_" class="st1" d="M2077.8,483.7c-1.3-0.1-1,0.5-3.8,1c-2.9,0.4-6.2-0.3-9.4,0.6
					c-9.1,4-12.5,13.9-21.8,17.8c-6.7,2.4-13.1,2.2-19,2.8c-4.8,0.9-7.8,1.5-11.6,3.5c-2.9,1.5-3.9,3.4-7.1,5.4
					c-3.4,2.8-13-2.4-16.5,1.1c1.2,1.2,2,1.6,4.5,1.8c-0.7,0.8-4.1,1.2-3.8,2.6c0,0,7.5,3.2,14.8,0.9c3.3-0.5,6.6-2.3,11.5-2
					c6.3,0.4,12.9,3.7,20.4,5.5c-2.1,2.6-4,4.1-6.1,6.1c-0.6,0.4,0.3,1.1,2.2,1.1c3.4-0.2,5.9-0.6,8.6-1.8c3.4-1.5,5.1-3.1,8.1-5.7
					c1.7,3.8,9.6,5.6,11.7,2.8c-2.9-1.6-2.5-8.1-1-10.7c1.6-2.5,3.1-6.1,4.7-9.4c1.4-3,2.7-7.7,4.1-10.1c1.7-2.9,4.3-3.6,6.4-5.1
					c2.1-1.5,4.1-2.7,4.6-6.4C2079.5,484.4,2078.9,483.7,2077.8,483.7L2077.8,483.7z"/>
				<path id="path4451-9_1_" class="st2" d="M1990.3,520c4.8,1.3,6.1,1.4,10.2,0.8c3.5-0.6,8.5-3.2,12.6-3.6
					c5.9-0.6,11.9,0.8,17.9,2.5c2,0.6,3.9,1.2,5.4,1.3c2.5-0.9,3.2-4.5,4.6-4.5c-1.6,6.8-5.4,10.7-9.3,14.1
					c6.8,0.1,11.9-3.2,15.3-7.6c1.1-1.3,2.8-3.6,3.7-5.1c0.3,1.2-0.9,1.7-0.6,3c4.8-2.7,7.4-6.3,10-11.7c3-6.2,5.9-11.6,7.5-13.4
					c1.5-1.7,3.6-2.7,5.6-3.8c2.2-1.2,4.2-2.5,4.9-5.1c-2.1-0.4-2.5-0.9-2.6-1.9c-1.1,0.5-2.1,0.5-3.2,0.5c-1-0.1-2-0.2-3.3-0.2
					c-10.7,0.1-12.8,10-21.7,16.2c-0.6,0.4-1.5,1-2.2,1.3c-2.7,1.4-5.4,1.9-8.2,2.5c-4.6,0.9-8.8,0.7-13.1,1.3
					c-3.2,0.5-6.1,1.1-8.9,2.2c-0.7,0.3-1.6,0.8-2.3,1.1c-1.6,0.8-2.8,1.8-4,2.9c-1.2,1.1-2.3,2.2-4,3.2c-2.6,1.6-10.7-1.7-14.1-0.5
					c-0.4,0.1-0.7,0.3-0.9,0.6c1.5,1,2.6,0.9,4.5,1.5C1994.1,519.1,1989.9,519.1,1990.3,520L1990.3,520z"/>
				<path id="path4457-3_1_" class="st1" d="M2064.9,489.2c1.3,1.4,4.6,0.7,4.4-1.9C2067,486.9,2065.5,487.6,2064.9,489.2z"/>
				<path id="path4459-4_1_" class="st3" d="M2075.7,487.2c-0.5,0.8-1.4,1.8-1.8,3.8c-0.1,0.4-0.4,0.6-0.3,0c0.3-2,1-2.9,1.8-4
					C2075.8,486.7,2075.9,486.9,2075.7,487.2z"/>
				<path id="path4461-6_1_" class="st3" d="M2075.4,486.9c-0.6,0.7-1.9,2.1-2.4,4.1c-0.1,0.4-0.4,0.5-0.3,0c0.5-2,1.6-3.2,2.5-4.2
					C2075.5,486.4,2075.6,486.6,2075.4,486.9z"/>
				<path id="path4463-0_1_" class="st3" d="M2075.1,486.4c-0.6,0.7-2.6,2.2-3.3,4.2c-0.1,0.3-0.5,0.5-0.3,0c0.7-2,2.4-3.4,3.4-4.4
					C2075.2,485.9,2075.3,486.1,2075.1,486.4z"/>
				<path id="path4465-8_1_" class="st3" d="M2074.8,486c-0.7,0.6-3.1,2.6-4.1,4.5c-0.2,0.3-0.5,0.4-0.3-0.1c1-1.9,3.1-3.8,4.1-4.6
					C2075.1,485.5,2075.1,485.7,2074.8,486L2074.8,486z"/>
			</g>
		</g>
		<g id="g4483-2_2_" transform="translate(-84.332895,80)">
			<g id="g4485-8_2_" transform="translate(1.2626907,0)">
				<path id="path4487-2_2_" class="st3" d="M511.4,451.1c-0.9,5.6-1.4,8.4-2.3,14c-0.8-0.1-1.1-0.2-1.9-0.3c0.2-1,0.2-1.4,0.4-2.4
					c-2,1.6-4.2,2.2-6.4,1.8c-2.2-0.4-3.9-1.5-5.2-3.2c-1.2-1.7-1.7-3.6-1.3-5.6c0.4-2,1.4-3.6,3.2-4.7c1.8-1.2,3.7-1.6,5.8-1.2
					c2.4,0.4,4.2,1.7,5.4,3.9c0.2-1,0.3-1.5,0.4-2.5C510.3,450.9,510.6,451,511.4,451.1 M508.4,457.8c0.3-1.6-0.1-3-1-4.3
					c-1-1.3-2.3-2.1-3.9-2.4c-1.6-0.3-3.1,0-4.5,0.9c-1.3,0.9-2.1,2.1-2.4,3.6s0.1,3,1,4.3c1,1.3,2.3,2.1,3.9,2.4
					c1.6,0.3,3.1,0,4.5-0.9C507.4,460.7,508.2,459.5,508.4,457.8"/>
			</g>
			<g id="g4489-8_2_" transform="translate(0.50507628,0)">
				<path id="path4491-4_2_" class="st3" d="M513.7,465.7c1.3-7.6,1.9-11.4,3.1-18.9c1.7,0.3,2.5,0.4,4.2,0.6
					c2.9,0.4,4.9,0.9,6.2,1.5c1.3,0.6,2.4,1.4,3.2,2.4c0.8,1,1.4,2.1,1.8,3.5c0.3,1.3,0.4,2.8,0.1,4.5c-0.3,1.7-0.9,3.2-2,4.5
					c-1,1.3-2.3,2.3-3.9,2.8c-1.5,0.5-3.6,0.6-6.2,0.2C517.5,466.4,516.2,466.1,513.7,465.7 M515.9,464.2c0.9,0.2,1.4,0.2,2.3,0.4
					c2.5,0.4,4.2,0.6,5.4,0.5c1.1-0.1,2.2-0.4,3.1-0.9c0.9-0.6,1.7-1.3,2.3-2.2c0.6-0.9,1-2,1.2-3.3c0.2-1.3,0.1-2.5-0.2-3.6
					c-0.3-1.1-0.9-2.1-1.7-2.9c-0.8-0.8-1.8-1.4-3-1.8c-1.2-0.4-3-0.8-5.4-1.2c-0.6-0.1-0.9-0.1-1.4-0.2
					C517.4,455,516.9,458.1,515.9,464.2"/>
			</g>
			<g id="g4493-2_2_" transform="translate(0.50507628,0)">
				<path id="path4495-3_2_" class="st3" d="M491.7,443.5c0.1-0.4,0.3-0.7,0.6-0.9c0.4-0.2,0.8-0.3,1.2-0.2c0.4,0.1,0.8,0.3,1,0.6
					c0.3,0.3,0.4,0.7,0.3,1.1c-0.1,0.4-0.3,0.7-0.7,0.9c-0.3,0.2-0.7,0.3-1.2,0.2c-0.4-0.1-0.8-0.3-1-0.7
					C491.7,444.2,491.6,443.8,491.7,443.5 M491.6,447.4c0.8,0.1,1.2,0.2,1.9,0.4c-1,5.5-1.5,8.3-2.5,13.8c-0.8-0.2-1.2-0.2-1.9-0.4
					C490.1,455.7,490.6,452.9,491.6,447.4"/>
			</g>
			<g id="g4497-1_2_">
				<path id="path4499-4_2_" class="st3" d="M437,448.3c2.6-6.8,3.9-10.2,6.5-17c0.1,0,0.2,0,0.3,0.1c2,6.7,3,10,5,16.8
					c4.4-5,6.6-7.6,11-12.7c0.1,0,0.2,0,0.3,0.1c-0.3,7.5-0.4,11.2-0.7,18.8c-0.8-0.2-1.2-0.3-2-0.5c0.2-5.4,0.4-8,0.6-13.4
					c-3.8,4.5-5.8,6.7-9.6,11.1c-0.2-0.1-0.3-0.1-0.5-0.1c-1.8-5.9-2.7-8.9-4.4-14.8c-1.8,4.9-2.8,7.4-4.6,12.3
					C438.2,448.6,437.8,448.5,437,448.3"/>
			</g>
			<g id="g4501-4_2_" transform="translate(-0.25253814,0)">
				<path id="path4503-0_2_" class="st3" d="M479.6,444.8c-1,5.4-1.5,8.1-2.5,13.6c-0.7-0.2-1.1-0.3-1.9-0.4
					c0.2-0.9,0.3-1.4,0.4-2.3c-2,1.5-4.2,2-6.3,1.4c-2.2-0.5-3.9-1.7-5.1-3.4c-1.2-1.8-1.6-3.6-1.2-5.6c0.4-2,1.5-3.4,3.2-4.5
					c1.8-1,3.7-1.3,5.8-0.9c2.4,0.5,4.2,1.9,5.3,4.1c0.2-1,0.3-1.5,0.5-2.5C478.5,444.6,478.8,444.7,479.6,444.8 M476.5,451.3
					c0.3-1.6,0-3-1-4.3c-0.9-1.3-2.2-2.2-3.9-2.5c-1.6-0.4-3.1-0.1-4.5,0.7c-1.3,0.8-2.2,2-2.4,3.4s0,2.9,1,4.3
					c0.9,1.4,2.2,2.2,3.8,2.6c1.6,0.4,3.1,0.2,4.5-0.6C475.4,454.1,476.2,452.9,476.5,451.3"/>
			</g>
			<g id="g4505-7_2_" transform="translate(-1.0101526,0)">
				<path id="path4507-8_2_" class="st3" d="M483.6,445.5c0.8,0.2,1.2,0.2,2,0.4c-0.1,0.8-0.2,1.2-0.4,2c0.7-0.7,1.3-1.2,1.8-1.5
					c0.6-0.3,1.2-0.4,1.7-0.2c0.6,0.1,1.2,0.4,1.8,0.8c-0.5,0.5-0.8,0.8-1.3,1.3c-0.3-0.2-0.5-0.3-0.8-0.4c-0.6-0.1-1.2,0-1.8,0.5
					c-0.6,0.4-1.1,1.1-1.5,1.9c-0.4,0.8-0.8,2.3-1.2,4.6c-0.3,1.8-0.5,2.8-0.9,4.6c-0.8-0.2-1.2-0.3-2-0.4
					C482,453.7,482.5,450.9,483.6,445.5"/>
			</g>
			<g id="g4509-8_2_" transform="translate(1.0101526,0)">
				<path id="path4511-4_2_" class="st3" d="M535.6,449.5c1.6,0.2,2.4,0.3,4,0.5c2.1,0.3,3.7,0.8,4.6,1.8c1,0.9,1.4,2.2,1.2,3.7
					c-0.1,0.8-0.5,1.6-1,2.3c-0.5,0.7-1.3,1.1-2.2,1.5c1.3,0.6,2.3,1.4,2.9,2.3c0.6,1,0.8,2,0.7,3.2c-0.2,1.6-1,2.9-2.4,3.8
					c-1.4,0.9-3.1,1.2-5,1c-2.3-0.3-3.4-0.4-5.6-0.8C533.8,461,534.4,457.1,535.6,449.5 M537.3,451.6c-0.4,2.5-0.6,3.7-0.9,6.2
					c0.5,0.1,0.7,0.1,1.2,0.1c1.8,0.2,3.1,0.1,4.1-0.3c0.9-0.4,1.5-1.2,1.7-2.4c0.3-1.9-0.9-3-3.6-3.3
					C538.7,451.8,538.2,451.7,537.3,451.6 M536,459.7c-0.5,3-0.7,4.4-1.1,7.4c1,0.1,1.5,0.2,2.5,0.3c1.5,0.2,2.5,0.2,3.3,0
					c0.7-0.2,1.4-0.6,1.9-1.1c0.5-0.5,0.8-1.1,0.9-1.7c0.1-0.6,0-1.2-0.1-1.7c-0.2-0.5-0.5-1-0.9-1.4c-0.4-0.4-1-0.8-1.6-1
					c-0.6-0.3-1.9-0.5-3.7-0.7C536.7,459.8,536.5,459.8,536,459.7"/>
			</g>
		</g>
		<g id="g50_1_">
			<path id="path30_1_" class="st4" d="M357.5,538.9c-1.8-0.5-2.8-0.8-4.6-1.3c-0.4,1.7-0.5,2.6-0.9,4.3c-0.8-0.2-1.2-0.3-2-0.6
				c0.9-4.1,1.3-6.1,2.1-10.1c2.9,0.8,4.3,1.2,7.2,2c-0.1,0.6-0.2,0.9-0.3,1.4c-2.1-0.6-3.2-0.9-5.3-1.5c-0.3,1.2-0.4,1.8-0.6,3
				c1.8,0.5,2.7,0.8,4.6,1.3C357.7,538,357.6,538.3,357.5,538.9z"/>
			<path id="path32_1_" class="st4" d="M361.6,540.5c0.2-0.7,0.5-1.4,0.9-1.9c0.5-0.5,1-0.8,1.7-1c0.7-0.2,1.4-0.1,2.2,0.1
				c1.1,0.3,2,0.9,2.6,1.7c0.6,0.9,0.8,1.8,0.6,3c0,0.2,0,0.2-0.1,0.4c-0.2,0.8-0.4,1.4-0.9,1.9c-0.4,0.5-1,0.8-1.7,1
				c-0.7,0.2-1.4,0.1-2.2-0.1c-1.2-0.3-2.1-1-2.7-1.9C361.5,542.9,361.4,541.8,361.6,540.5C361.6,540.6,361.6,540.6,361.6,540.5
				C361.6,540.5,361.6,540.5,361.6,540.5z M363.5,541.2c-0.2,0.8-0.1,1.4,0.2,2c0.3,0.5,0.7,0.9,1.4,1.1c0.6,0.2,1.2,0.1,1.6-0.3
				s0.8-1,0.9-1.8c0.2-0.8,0.1-1.4-0.2-2c-0.3-0.5-0.7-0.9-1.4-1.1c-0.6-0.2-1.2-0.1-1.6,0.3S363.7,540.3,363.5,541.2z"/>
			<path id="path34_1_" class="st4" d="M378.4,548.3c-0.7,0.5-1.5,0.6-2.6,0.3c-0.9-0.2-1.6-0.7-2-1.3s-0.5-1.4-0.3-2.3
				c0.4-2,0.6-3,1-5c0.8,0.2,1.1,0.3,1.9,0.5c-0.4,2-0.6,3-1,5c-0.2,1,0.2,1.6,1.1,1.8c0.9,0.2,1.6,0.1,2.1-0.4
				c0.4-2.2,0.6-3.3,1.1-5.6c0.8,0.2,1.1,0.3,1.9,0.5c-0.6,3.1-0.9,4.6-1.5,7.7c-0.7-0.2-1.1-0.3-1.8-0.5
				C378.4,548.7,378.4,548.6,378.4,548.3z"/>
			<path id="path36_1_" class="st4" d="M389.1,543.5c0,0.4-0.1,0.5-0.1,0.9c0.8-0.5,1.7-0.7,2.7-0.5c1.8,0.4,2.5,1.5,2.2,3.4
				c-0.4,2.1-0.6,3.1-1,5.2c-0.8-0.2-1.2-0.3-1.9-0.4c0.4-2,0.6-3,0.9-5.1c0.1-0.5,0-0.9-0.1-1.2c-0.2-0.3-0.6-0.5-1.1-0.6
				c-0.8-0.2-1.4,0-1.9,0.6c-0.4,2.2-0.6,3.3-1,5.5c-0.8-0.2-1.2-0.3-1.9-0.5c0.6-3.1,0.9-4.7,1.5-7.8
				C388,543.3,388.3,543.3,389.1,543.5z"/>
			<path id="path38_1_" class="st4" d="M398,549.5c0.2-1.2,0.7-2.1,1.5-2.7c0.7-0.6,1.6-0.8,2.7-0.6c0.9,0.2,1.6,0.6,2.1,1.3
				c0.3-1.6,0.4-2.4,0.7-4c0.8,0.2,1.2,0.2,1.9,0.4c-0.8,4.5-1.2,6.7-2,11.2c-0.7-0.1-1.1-0.2-1.8-0.4c0-0.3,0-0.5,0.1-0.8
				c-0.7,0.5-1.5,0.7-2.5,0.5c-1-0.2-1.8-0.8-2.2-1.7C397.9,551.9,397.7,550.8,398,549.5z M399.9,550.1c-0.1,0.8-0.1,1.5,0.2,2
				c0.3,0.5,0.7,0.9,1.3,1c0.8,0.2,1.4,0,1.9-0.6c0.2-1.3,0.4-2,0.6-3.4c-0.2-0.7-0.8-1.1-1.5-1.3c-0.6-0.1-1.1,0-1.6,0.4
				C400.3,548.6,400,549.2,399.9,550.1z"/>
			<path id="path40_1_" class="st4" d="M415.2,557.3c-0.1-0.2-0.1-0.4-0.1-0.8c-0.7,0.5-1.5,0.6-2.4,0.4c-0.9-0.2-1.5-0.5-2-1.1
				s-0.6-1.2-0.5-1.9c0.1-0.8,0.6-1.4,1.4-1.7c0.8-0.3,1.8-0.4,3.1-0.1c0.5,0.1,0.7,0.1,1.2,0.2c0-0.2,0.1-0.3,0.1-0.5
				c0.1-0.4,0-0.8-0.2-1.1c-0.2-0.3-0.6-0.5-1.1-0.6c-0.4-0.1-0.8-0.1-1.1,0.1c-0.3,0.1-0.5,0.4-0.6,0.7c-0.8-0.2-1.2-0.2-1.9-0.4
				c0.1-0.4,0.3-0.8,0.7-1.1c0.4-0.3,0.9-0.5,1.4-0.6s1.2-0.1,1.9,0c1,0.2,1.8,0.6,2.3,1.2s0.7,1.3,0.6,2.2
				c-0.2,1.4-0.4,2.2-0.6,3.6c-0.1,0.7-0.1,1.3,0,1.8c0,0,0,0.1,0,0.1C416.4,557.5,416,557.5,415.2,557.3z M413.3,555.6
				c0.4,0.1,0.8,0.1,1.1,0c0.4-0.1,0.7-0.3,0.9-0.5c0.1-0.6,0.2-0.9,0.3-1.5c-0.4-0.1-0.6-0.1-1-0.2c-0.7-0.1-1.3-0.1-1.7,0
				c-0.4,0.2-0.6,0.5-0.7,0.9c-0.1,0.3,0,0.6,0.2,0.9C412.6,555.3,412.9,555.5,413.3,555.6z"/>
			<path id="path42_1_" class="st4" d="M426.8,549.2c-0.1,0.8-0.2,1.2-0.3,2c0.6,0.1,0.9,0.2,1.5,0.3c-0.1,0.5-0.1,0.8-0.2,1.3
				c-0.6-0.1-0.9-0.2-1.5-0.3c-0.3,1.8-0.4,2.7-0.7,4.5c-0.1,0.3,0,0.5,0.1,0.7c0.1,0.2,0.3,0.3,0.7,0.3c0.2,0,0.5,0.1,0.7,0
				c-0.1,0.6-0.1,0.8-0.2,1.4c-0.5,0-0.9,0-1.3-0.1c-1.5-0.3-2.1-1.2-1.9-2.7c0.3-1.8,0.5-2.7,0.8-4.6c-0.6-0.1-0.9-0.2-1.4-0.3
				c0.1-0.5,0.1-0.8,0.2-1.3c0.6,0.1,0.9,0.2,1.4,0.3c0.1-0.8,0.2-1.2,0.3-2C425.6,549,426,549,426.8,549.2z"/>
			<path id="path44_1_" class="st4" d="M434,550.3c0-0.3,0.2-0.5,0.4-0.6c0.2-0.2,0.5-0.2,0.9-0.1c0.4,0.1,0.6,0.2,0.8,0.4
				c0.2,0.2,0.2,0.5,0.2,0.7c0,0.3-0.2,0.5-0.4,0.6c-0.2,0.1-0.5,0.2-0.9,0.1c-0.4-0.1-0.6-0.2-0.8-0.4
				C434,550.8,434,550.5,434,550.3z M434.5,560.8c-0.8-0.1-1.2-0.2-2-0.3c0.5-3.2,0.8-4.9,1.3-8.1c0.8,0.1,1.2,0.2,1.9,0.3
				C435.2,555.9,435,557.6,434.5,560.8z"/>
			<path id="path46_1_" class="st4" d="M440.1,557.5c0.1-0.8,0.4-1.5,0.8-2.1c0.4-0.6,1-1,1.7-1.3c0.7-0.3,1.4-0.3,2.2-0.2
				c1.2,0.2,2.1,0.7,2.7,1.5c0.6,0.8,0.9,1.8,0.8,3c0,0.2,0,0.3-0.1,0.4c-0.1,0.8-0.4,1.5-0.8,2.1c-0.4,0.6-1,1-1.6,1.3
				c-0.7,0.3-1.4,0.3-2.2,0.2c-1.2-0.2-2.2-0.7-2.8-1.6C440.1,559.9,439.9,558.8,440.1,557.5C440.1,557.5,440.1,557.5,440.1,557.5
				C440.1,557.5,440.1,557.5,440.1,557.5z M442.1,557.9c-0.1,0.8,0,1.5,0.2,2.1c0.3,0.5,0.8,0.9,1.4,1c0.7,0.1,1.2-0.1,1.7-0.5
				c0.4-0.4,0.7-1.1,0.9-2c0.1-0.8,0-1.5-0.3-2c-0.3-0.5-0.8-0.9-1.4-1c-0.6-0.1-1.2,0.1-1.6,0.5S442.2,557,442.1,557.9z"/>
			<path id="path48_1_" class="st4" d="M455.1,555.6c0,0.4-0.1,0.6-0.1,1c0.8-0.6,1.7-0.9,2.7-0.8c1.8,0.2,2.6,1.3,2.3,3.3
				c-0.3,2.2-0.5,3.3-0.8,5.5c-0.8-0.1-1.2-0.2-2-0.3c0.3-2.1,0.5-3.2,0.8-5.3c0.1-0.5,0-0.9-0.2-1.2c-0.2-0.3-0.6-0.5-1.1-0.5
				c-0.8-0.1-1.4,0.2-1.9,0.8c-0.3,2.3-0.5,3.5-0.9,5.9c-0.8-0.1-1.2-0.2-2-0.3c0.5-3.3,0.7-4.9,1.2-8.2
				C454,555.4,454.4,555.5,455.1,555.6z"/>
		</g>
	</g>
</g>
</svg>
