<?xml version="1.0" encoding="utf-8"?>
<!-- Generator: Adobe Illustrator 25.2.0, SVG Export Plug-In . SVG Version: 6.00 Build 0)  -->
<svg version="1.1" id="Layer_1" xmlns="http://www.w3.org/2000/svg" xmlns:xlink="http://www.w3.org/1999/xlink" x="0px" y="0px"
	 viewBox="0 0 1000 1000" style="enable-background:new 0 0 1000 1000;" xml:space="preserve">
<style type="text/css">
	.st0{fill:#FFCC00;}
	.st1{fill:#FF8800;}
	.st2{fill:#FFFFFF;}
	.st3{fill-rule:evenodd;clip-rule:evenodd;fill:#1F305F;}
	.st4{fill:#C0765A;}
	.st5{fill:#1F305F;}
	.st6{fill:#A0624D;}
</style>
<g id="RightArm_1_">
	<path id="RightArm--bg" d="M436.6,504c-4.5,5.1-10.5,7.9-17,7.9c-9.1,0-18.5-5.5-24.4-14.4c-7.8-11.6-15.5-21.2-22.3-27.9l-4.8-4.7
		c-2-2-1.1-5.3,1.6-6.1l6.5-1.7c3.2-0.9,6.4-2.7,9.1-5.5c3-3,4.8-6.7,5.2-10.4V430c0-1.3,1.5-2.1,2.5-1.3l9.3,6.9
		c0.7,0.5,1.7,1.1,2.9,1.7c10.2,4.9,31.7,27.4,35.7,46.7C443,494.1,439.7,500.5,436.6,504z"/>
	<path id="RightArm" class="st0" d="M402.1,444.1c-1.5-0.7-2.9-1.5-4.2-2.4l0,0c-0.5,5.5-3,11-7.3,15.3c-3.7,3.7-8.1,6.2-12.5,7.4
		c8.7,8.6,17,19.8,23.2,29.1c4.5,6.7,11.6,11.1,18.3,11.1c4.1,0,8.1-1.6,11.4-5.4C444,484.4,413.7,449.6,402.1,444.1z"/>
</g>
<g id="Tail--group">
	<path id="Tail--bg" d="M599.1,649.5c-9,25.7-26.4,50-50.3,70.3c-23.8,20.3-51.8,34.7-81,41.6c-6.9,1.6-14.1,2.5-21.5,2.5
		c-30.8,0-58.9-13.9-74.8-27c-13.6-11.1-21.2-23.3-20.9-33.5c0.4-12,6.7-20.7,16.8-23.3c2.1-0.5,4.3-0.8,6.7-0.8
		c11.2,0,27.2,6.7,38.5,25.7c7.8,13.2,22,20.1,41.1,20.1c0.4,0,0.8,0,1.2,0c40.7-0.8,87.6-31.2,109.1-70.8
		c7.7-14.1,13.2-29.6,17.1-40.8c1.9-5.4,3.6-10.1,5.1-13.5c1.3-3.1,4.1-9.4,10.4-9.4c4.1,0,7.6,1.8,9.9,5
		C612,603.2,609.8,618.9,599.1,649.5z"/>
	<path id="Tail_2_" class="st1" d="M570.5,657.8c-22.7,41.7-72.5,73.9-115.5,74.7c-0.5,0-0.9,0-1.4,0c-21.6,0-38.3-8.4-47.4-23.8
		c-9-15.1-22-22.1-32.1-22.1c-1.7,0-3.3,0.2-4.8,0.6c-7,1.8-11,7.6-11.3,16.4c-0.3,7.7,6.6,18,18.2,27.5
		c16.8,13.7,43.2,25.3,70.1,25.3c6.6,0,13.3-0.7,19.8-2.3c57.2-13.5,108.5-57.4,126-107.1c5.4-15.3,16.7-49.2,4.5-49.2
		C592.1,597.9,585.8,629.6,570.5,657.8z"/>
</g>
<g id="Body--group">
	<path id="Body--bg" d="M649.7,531.9c-2,24-6.7,45.1-13.9,62.9c-8.5,20.9-20.3,36.6-35.1,46.8c-34,23.4-64.8,26-76.4,26
		c-1.3,0-2.5,0-3.8-0.1c-18.4-0.8-26-4.4-32.7-7.5c-5.9-2.8-11-5.2-24.9-5.7c-37.5-1.5-67-9.9-83.1-23.6c-0.2-0.1-0.5-0.4-0.9-0.7
		c-4.8-3.5-19.3-14.3-25-24.7c-5.3-9.7-6.2-22.3-2.3-31.4c13.4-31.2,24.5-40.5,33.5-48c3.6-3,6.4-5.3,8.8-8.7
		c2.2-3.1,3.8-7.1,4.9-12.2c0-0.1,0-0.2,0.1-0.3c3.9-15,3.4-34.9,2.8-56c-0.2-5.7-0.3-11.7-0.4-17.5v-0.1c0-18.6,9.6-40.7,25.7-59.2
		c18.1-20.8,41.6-33.6,66.1-36.2c20.2-2.1,34.3-3.1,45.9-3.1c43.7,0,58.6,14.8,82.2,48.4c7.5,10.6,12.1,22.5,16,33.7
		C648.3,445.1,653.1,491.2,649.7,531.9z"/>
	<path id="Body_1_" class="st0" d="M358.5,576.7c-3,7-2.2,17.4,2,25c5.6,10.3,23,22.2,24.1,23.2c15.1,12.9,43.7,20.5,78.7,21.9
		c31.2,1.3,24.3,11.8,57.6,13.3c1.1,0,2.2,0.1,3.5,0.1c16.7,0,43.7-5,72.2-24.7c58-39.9,52.9-165.3,34-218.6
		c-3.9-11.1-8.3-22.2-15.1-31.9c-23.5-33.5-36.6-45.2-76.2-45.2c-12.2,0-26.9,1.1-45.1,3.1c-49.9,5.3-85.3,55.3-85.3,88.1
		c0.3,27.4,2.5,55.1-2.7,75.5c-1.4,6.5-3.4,11.2-6,14.9C390.4,534.9,376.8,533.8,358.5,576.7z"/>
</g>
<g id="Ball--group">
	
		<ellipse id="Ball-bg" transform="matrix(0.7071 -0.7071 0.7071 0.7071 -236.4377 487.8127)" cx="470.6" cy="529.3" rx="133.5" ry="133.5"/>
	<circle id="Ball_1_" class="st2" cx="470.6" cy="529.3" r="126.1"/>
	<g>
		<g id="g4445-4_1_" transform="translate(-1614.3646,-14.177857)">
			<g id="g4447-8_1_">
				<path id="path4449-4_1_" class="st3" d="M2077.8,483.7c-1.3-0.1-1,0.5-3.8,1c-2.9,0.4-6.2-0.3-9.4,0.6
					c-9.1,4-12.5,13.9-21.8,17.8c-6.7,2.4-13.1,2.2-19,2.8c-4.8,0.9-7.8,1.5-11.6,3.5c-2.9,1.5-3.9,3.4-7.1,5.4
					c-3.4,2.8-13-2.4-16.5,1.1c1.2,1.2,2,1.6,4.5,1.8c-0.7,0.8-4.1,1.2-3.8,2.6c0,0,7.5,3.2,14.8,0.9c3.3-0.5,6.6-2.3,11.5-2
					c6.3,0.4,12.9,3.7,20.4,5.5c-2.1,2.6-4,4.1-6.1,6.1c-0.6,0.4,0.3,1.1,2.2,1.1c3.4-0.2,5.9-0.6,8.6-1.8c3.4-1.5,5.1-3.1,8.1-5.7
					c1.7,3.8,9.6,5.6,11.7,2.8c-2.9-1.6-2.5-8.1-1-10.7c1.6-2.5,3.1-6.1,4.7-9.4c1.4-3,2.7-7.7,4.1-10.1c1.7-2.9,4.3-3.6,6.4-5.1
					c2.1-1.5,4.1-2.7,4.6-6.4C2079.5,484.4,2078.9,483.7,2077.8,483.7L2077.8,483.7z"/>
				<path id="path4451-9_1_" class="st4" d="M1990.3,520c4.8,1.3,6.1,1.4,10.2,0.8c3.5-0.6,8.5-3.2,12.6-3.6
					c5.9-0.6,11.9,0.8,17.9,2.5c2,0.6,3.9,1.2,5.4,1.3c2.5-0.9,3.2-4.5,4.6-4.5c-1.6,6.8-5.4,10.7-9.3,14.1
					c6.8,0.1,11.9-3.2,15.3-7.6c1.1-1.3,2.8-3.6,3.7-5.1c0.3,1.2-0.9,1.7-0.6,3c4.8-2.7,7.4-6.3,10-11.7c3-6.2,5.9-11.6,7.5-13.4
					c1.5-1.7,3.6-2.7,5.6-3.8c2.2-1.2,4.2-2.5,4.9-5.1c-2.1-0.4-2.5-0.9-2.6-1.9c-1.1,0.5-2.1,0.5-3.2,0.5c-1-0.1-2-0.2-3.3-0.2
					c-10.7,0.1-12.8,10-21.7,16.2c-0.6,0.4-1.5,1-2.2,1.3c-2.7,1.4-5.4,1.9-8.2,2.5c-4.6,0.9-8.8,0.7-13.1,1.3
					c-3.2,0.5-6.1,1.1-8.9,2.2c-0.7,0.3-1.6,0.8-2.3,1.1c-1.6,0.8-2.8,1.8-4,2.9c-1.2,1.1-2.3,2.2-4,3.2c-2.6,1.6-10.7-1.7-14.1-0.5
					c-0.4,0.1-0.7,0.3-0.9,0.6c1.5,1,2.6,0.9,4.5,1.5C1994.1,519.1,1989.9,519.1,1990.3,520L1990.3,520z"/>
				<path id="path4457-3_1_" class="st3" d="M2064.9,489.2c1.3,1.4,4.6,0.7,4.4-1.9C2067,486.9,2065.5,487.6,2064.9,489.2z"/>
				<path id="path4459-4_1_" class="st5" d="M2075.7,487.2c-0.5,0.8-1.4,1.8-1.8,3.8c-0.1,0.4-0.4,0.6-0.3,0c0.3-2,1-2.9,1.8-4
					C2075.8,486.7,2075.9,486.9,2075.7,487.2z"/>
				<path id="path4461-6_1_" class="st5" d="M2075.4,486.9c-0.6,0.7-1.9,2.1-2.4,4.1c-0.1,0.4-0.4,0.5-0.3,0c0.5-2,1.6-3.2,2.5-4.2
					C2075.5,486.4,2075.6,486.6,2075.4,486.9z"/>
				<path id="path4463-0_1_" class="st5" d="M2075.1,486.4c-0.6,0.7-2.6,2.2-3.3,4.2c-0.1,0.3-0.5,0.5-0.3,0c0.7-2,2.4-3.4,3.4-4.4
					C2075.2,485.9,2075.3,486.1,2075.1,486.4z"/>
				<path id="path4465-8_1_" class="st5" d="M2074.8,486c-0.7,0.6-3.1,2.6-4.1,4.5c-0.2,0.3-0.5,0.4-0.3-0.1c1-1.9,3.1-3.8,4.1-4.6
					C2075.1,485.5,2075.1,485.7,2074.8,486L2074.8,486z"/>
			</g>
		</g>
		<g id="g4483-2_2_" transform="translate(-84.332895,80)">
			<g id="g4485-8_2_" transform="translate(1.2626907,0)">
				<path id="path4487-2_2_" class="st5" d="M511.4,451.1c-0.9,5.6-1.4,8.4-2.3,14c-0.8-0.1-1.1-0.2-1.9-0.3c0.2-1,0.2-1.4,0.4-2.4
					c-2,1.6-4.2,2.2-6.4,1.8c-2.2-0.4-3.9-1.5-5.2-3.2c-1.2-1.7-1.7-3.6-1.3-5.6c0.4-2,1.4-3.6,3.2-4.7c1.8-1.2,3.7-1.6,5.8-1.2
					c2.4,0.4,4.2,1.7,5.4,3.9c0.2-1,0.3-1.5,0.4-2.5C510.3,450.9,510.6,451,511.4,451.1 M508.4,457.8c0.3-1.6-0.1-3-1-4.3
					c-1-1.3-2.3-2.1-3.9-2.4c-1.6-0.3-3.1,0-4.5,0.9c-1.3,0.9-2.1,2.1-2.4,3.6s0.1,3,1,4.3c1,1.3,2.3,2.1,3.9,2.4
					c1.6,0.3,3.1,0,4.5-0.9C507.4,460.7,508.2,459.5,508.4,457.8"/>
			</g>
			<g id="g4489-8_2_" transform="translate(0.50507628,0)">
				<path id="path4491-4_2_" class="st5" d="M513.7,465.7c1.3-7.6,1.9-11.4,3.1-18.9c1.7,0.3,2.5,0.4,4.2,0.6
					c2.9,0.4,4.9,0.9,6.2,1.5c1.3,0.6,2.4,1.4,3.2,2.4c0.8,1,1.4,2.1,1.8,3.5c0.3,1.3,0.4,2.8,0.1,4.5c-0.3,1.7-0.9,3.2-2,4.5
					c-1,1.3-2.3,2.3-3.9,2.8c-1.5,0.5-3.6,0.6-6.2,0.2C517.5,466.4,516.2,466.1,513.7,465.7 M515.9,464.2c0.9,0.2,1.4,0.2,2.3,0.4
					c2.5,0.4,4.2,0.6,5.4,0.5c1.1-0.1,2.2-0.4,3.1-0.9c0.9-0.6,1.7-1.3,2.3-2.2c0.6-0.9,1-2,1.2-3.3c0.2-1.3,0.1-2.5-0.2-3.6
					c-0.3-1.1-0.9-2.1-1.7-2.9c-0.8-0.8-1.8-1.4-3-1.8c-1.2-0.4-3-0.8-5.4-1.2c-0.6-0.1-0.9-0.1-1.4-0.2
					C517.4,455,516.9,458.1,515.9,464.2"/>
			</g>
			<g id="g4493-2_2_" transform="translate(0.50507628,0)">
				<path id="path4495-3_2_" class="st5" d="M491.7,443.5c0.1-0.4,0.3-0.7,0.6-0.9c0.4-0.2,0.8-0.3,1.2-0.2c0.4,0.1,0.8,0.3,1,0.6
					c0.3,0.3,0.4,0.7,0.3,1.1c-0.1,0.4-0.3,0.7-0.7,0.9c-0.3,0.2-0.7,0.3-1.2,0.2c-0.4-0.1-0.8-0.3-1-0.7
					C491.7,444.2,491.6,443.8,491.7,443.5 M491.6,447.4c0.8,0.1,1.2,0.2,1.9,0.4c-1,5.5-1.5,8.3-2.5,13.8c-0.8-0.2-1.2-0.2-1.9-0.4
					C490.1,455.7,490.6,452.9,491.6,447.4"/>
			</g>
			<g id="g4497-1_2_">
				<path id="path4499-4_2_" class="st5" d="M437,448.3c2.6-6.8,3.9-10.2,6.5-17c0.1,0,0.2,0,0.3,0.1c2,6.7,3,10,5,16.8
					c4.4-5,6.6-7.6,11-12.7c0.1,0,0.2,0,0.3,0.1c-0.3,7.5-0.4,11.2-0.7,18.8c-0.8-0.2-1.2-0.3-2-0.5c0.2-5.4,0.4-8,0.6-13.4
					c-3.8,4.5-5.8,6.7-9.6,11.1c-0.2-0.1-0.3-0.1-0.5-0.1c-1.8-5.9-2.7-8.9-4.4-14.8c-1.8,4.9-2.8,7.4-4.6,12.3
					C438.2,448.6,437.8,448.5,437,448.3"/>
			</g>
			<g id="g4501-4_2_" transform="translate(-0.25253814,0)">
				<path id="path4503-0_2_" class="st5" d="M479.6,444.8c-1,5.4-1.5,8.1-2.5,13.6c-0.7-0.2-1.1-0.3-1.9-0.4
					c0.2-0.9,0.3-1.4,0.4-2.3c-2,1.5-4.2,2-6.3,1.4c-2.2-0.5-3.9-1.7-5.1-3.4c-1.2-1.8-1.6-3.6-1.2-5.6c0.4-2,1.5-3.4,3.2-4.5
					c1.8-1,3.7-1.3,5.8-0.9c2.4,0.5,4.2,1.9,5.3,4.1c0.2-1,0.3-1.5,0.5-2.5C478.5,444.6,478.8,444.7,479.6,444.8 M476.5,451.3
					c0.3-1.6,0-3-1-4.3c-0.9-1.3-2.2-2.2-3.9-2.5c-1.6-0.4-3.1-0.1-4.5,0.7c-1.3,0.8-2.2,2-2.4,3.4s0,2.9,1,4.3
					c0.9,1.4,2.2,2.2,3.8,2.6c1.6,0.4,3.1,0.2,4.5-0.6C475.4,454.1,476.2,452.9,476.5,451.3"/>
			</g>
			<g id="g4505-7_2_" transform="translate(-1.0101526,0)">
				<path id="path4507-8_2_" class="st5" d="M483.6,445.5c0.8,0.2,1.2,0.2,2,0.4c-0.1,0.8-0.2,1.2-0.4,2c0.7-0.7,1.3-1.2,1.8-1.5
					c0.6-0.3,1.2-0.4,1.7-0.2c0.6,0.1,1.2,0.4,1.8,0.8c-0.5,0.5-0.8,0.8-1.3,1.3c-0.3-0.2-0.5-0.3-0.8-0.4c-0.6-0.1-1.2,0-1.8,0.5
					c-0.6,0.4-1.1,1.1-1.5,1.9c-0.4,0.8-0.8,2.3-1.2,4.6c-0.3,1.8-0.5,2.8-0.9,4.6c-0.8-0.2-1.2-0.3-2-0.4
					C482,453.7,482.5,450.9,483.6,445.5"/>
			</g>
			<g id="g4509-8_2_" transform="translate(1.0101526,0)">
				<path id="path4511-4_2_" class="st5" d="M535.6,449.5c1.6,0.2,2.4,0.3,4,0.5c2.1,0.3,3.7,0.8,4.6,1.8c1,0.9,1.4,2.2,1.2,3.7
					c-0.1,0.8-0.5,1.6-1,2.3c-0.5,0.7-1.3,1.1-2.2,1.5c1.3,0.6,2.3,1.4,2.9,2.3c0.6,1,0.8,2,0.7,3.2c-0.2,1.6-1,2.9-2.4,3.8
					c-1.4,0.9-3.1,1.2-5,1c-2.3-0.3-3.4-0.4-5.6-0.8C533.8,461,534.4,457.1,535.6,449.5 M537.3,451.6c-0.4,2.5-0.6,3.7-0.9,6.2
					c0.5,0.1,0.7,0.1,1.2,0.1c1.8,0.2,3.1,0.1,4.1-0.3c0.9-0.4,1.5-1.2,1.7-2.4c0.3-1.9-0.9-3-3.6-3.3
					C538.7,451.8,538.2,451.7,537.3,451.6 M536,459.7c-0.5,3-0.7,4.4-1.1,7.4c1,0.1,1.5,0.2,2.5,0.3c1.5,0.2,2.5,0.2,3.3,0
					c0.7-0.2,1.4-0.6,1.9-1.1c0.5-0.5,0.8-1.1,0.9-1.7c0.1-0.6,0-1.2-0.1-1.7c-0.2-0.5-0.5-1-0.9-1.4c-0.4-0.4-1-0.8-1.6-1
					c-0.6-0.3-1.9-0.5-3.7-0.7C536.7,459.8,536.5,459.8,536,459.7"/>
			</g>
		</g>
		<g id="g50_1_">
			<path id="path30_1_" class="st6" d="M357.5,538.9c-1.8-0.5-2.8-0.8-4.6-1.3c-0.4,1.7-0.5,2.6-0.9,4.3c-0.8-0.2-1.2-0.3-2-0.6
				c0.9-4.1,1.3-6.1,2.1-10.1c2.9,0.8,4.3,1.2,7.2,2c-0.1,0.6-0.2,0.9-0.3,1.4c-2.1-0.6-3.2-0.9-5.3-1.5c-0.3,1.2-0.4,1.8-0.6,3
				c1.8,0.5,2.7,0.8,4.6,1.3C357.7,538,357.6,538.3,357.5,538.9z"/>
			<path id="path32_1_" class="st6" d="M361.6,540.5c0.2-0.7,0.5-1.4,0.9-1.9c0.5-0.5,1-0.8,1.7-1c0.7-0.2,1.4-0.1,2.2,0.1
				c1.1,0.3,2,0.9,2.6,1.7c0.6,0.9,0.8,1.8,0.6,3c0,0.2,0,0.2-0.1,0.4c-0.2,0.8-0.4,1.4-0.9,1.9c-0.4,0.5-1,0.8-1.7,1
				c-0.7,0.2-1.4,0.1-2.2-0.1c-1.2-0.3-2.1-1-2.7-1.9C361.5,542.9,361.4,541.8,361.6,540.5C361.6,540.6,361.6,540.6,361.6,540.5
				C361.6,540.5,361.6,540.5,361.6,540.5z M363.5,541.2c-0.2,0.8-0.1,1.4,0.2,2c0.3,0.5,0.7,0.9,1.4,1.1c0.6,0.2,1.2,0.1,1.6-0.3
				s0.8-1,0.9-1.8c0.2-0.8,0.1-1.4-0.2-2c-0.3-0.5-0.7-0.9-1.4-1.1c-0.6-0.2-1.2-0.1-1.6,0.3S363.7,540.3,363.5,541.2z"/>
			<path id="path34_1_" class="st6" d="M378.4,548.3c-0.7,0.5-1.5,0.6-2.6,0.3c-0.9-0.2-1.6-0.7-2-1.3s-0.5-1.4-0.3-2.3
				c0.4-2,0.6-3,1-5c0.8,0.2,1.1,0.3,1.9,0.5c-0.4,2-0.6,3-1,5c-0.2,1,0.2,1.6,1.1,1.8c0.9,0.2,1.6,0.1,2.1-0.4
				c0.4-2.2,0.6-3.3,1.1-5.6c0.8,0.2,1.1,0.3,1.9,0.5c-0.6,3.1-0.9,4.6-1.5,7.7c-0.7-0.2-1.1-0.3-1.8-0.5
				C378.4,548.7,378.4,548.6,378.4,548.3z"/>
			<path id="path36_1_" class="st6" d="M389.1,543.5c0,0.4-0.1,0.5-0.1,0.9c0.8-0.5,1.7-0.7,2.7-0.5c1.8,0.4,2.5,1.5,2.2,3.4
				c-0.4,2.1-0.6,3.1-1,5.2c-0.8-0.2-1.2-0.3-1.9-0.4c0.4-2,0.6-3,0.9-5.1c0.1-0.5,0-0.9-0.1-1.2c-0.2-0.3-0.6-0.5-1.1-0.6
				c-0.8-0.2-1.4,0-1.9,0.6c-0.4,2.2-0.6,3.3-1,5.5c-0.8-0.2-1.2-0.3-1.9-0.5c0.6-3.1,0.9-4.7,1.5-7.8
				C388,543.3,388.3,543.3,389.1,543.5z"/>
			<path id="path38_1_" class="st6" d="M398,549.5c0.2-1.2,0.7-2.1,1.5-2.7c0.7-0.6,1.6-0.8,2.7-0.6c0.9,0.2,1.6,0.6,2.1,1.3
				c0.3-1.6,0.4-2.4,0.7-4c0.8,0.2,1.2,0.2,1.9,0.4c-0.8,4.5-1.2,6.7-2,11.2c-0.7-0.1-1.1-0.2-1.8-0.4c0-0.3,0-0.5,0.1-0.8
				c-0.7,0.5-1.5,0.7-2.5,0.5c-1-0.2-1.8-0.8-2.2-1.7C397.9,551.9,397.7,550.8,398,549.5z M399.9,550.1c-0.1,0.8-0.1,1.5,0.2,2
				c0.3,0.5,0.7,0.9,1.3,1c0.8,0.2,1.4,0,1.9-0.6c0.2-1.3,0.4-2,0.6-3.4c-0.2-0.7-0.8-1.1-1.5-1.3c-0.6-0.1-1.1,0-1.6,0.4
				C400.3,548.6,400,549.2,399.9,550.1z"/>
			<path id="path40_1_" class="st6" d="M415.2,557.3c-0.1-0.2-0.1-0.4-0.1-0.8c-0.7,0.5-1.5,0.6-2.4,0.4c-0.9-0.2-1.5-0.5-2-1.1
				s-0.6-1.2-0.5-1.9c0.1-0.8,0.6-1.4,1.4-1.7c0.8-0.3,1.8-0.4,3.1-0.1c0.5,0.1,0.7,0.1,1.2,0.2c0-0.2,0.1-0.3,0.1-0.5
				c0.1-0.4,0-0.8-0.2-1.1c-0.2-0.3-0.6-0.5-1.1-0.6c-0.4-0.1-0.8-0.1-1.1,0.1c-0.3,0.1-0.5,0.4-0.6,0.7c-0.8-0.2-1.2-0.2-1.9-0.4
				c0.1-0.4,0.3-0.8,0.7-1.1c0.4-0.3,0.9-0.5,1.4-0.6s1.2-0.1,1.9,0c1,0.2,1.8,0.6,2.3,1.2s0.7,1.3,0.6,2.2
				c-0.2,1.4-0.4,2.2-0.6,3.6c-0.1,0.7-0.1,1.3,0,1.8c0,0,0,0.1,0,0.1C416.4,557.5,416,557.5,415.2,557.3z M413.3,555.6
				c0.4,0.1,0.8,0.1,1.1,0c0.4-0.1,0.7-0.3,0.9-0.5c0.1-0.6,0.2-0.9,0.3-1.5c-0.4-0.1-0.6-0.1-1-0.2c-0.7-0.1-1.3-0.1-1.7,0
				c-0.4,0.2-0.6,0.5-0.7,0.9c-0.1,0.3,0,0.6,0.2,0.9C412.6,555.3,412.9,555.5,413.3,555.6z"/>
			<path id="path42_1_" class="st6" d="M426.8,549.2c-0.1,0.8-0.2,1.2-0.3,2c0.6,0.1,0.9,0.2,1.5,0.3c-0.1,0.5-0.1,0.8-0.2,1.3
				c-0.6-0.1-0.9-0.2-1.5-0.3c-0.3,1.8-0.4,2.7-0.7,4.5c-0.1,0.3,0,0.5,0.1,0.7c0.1,0.2,0.3,0.3,0.7,0.3c0.2,0,0.5,0.1,0.7,0
				c-0.1,0.6-0.1,0.8-0.2,1.4c-0.5,0-0.9,0-1.3-0.1c-1.5-0.3-2.1-1.2-1.9-2.7c0.3-1.8,0.5-2.7,0.8-4.6c-0.6-0.1-0.9-0.2-1.4-0.3
				c0.1-0.5,0.1-0.8,0.2-1.3c0.6,0.1,0.9,0.2,1.4,0.3c0.1-0.8,0.2-1.2,0.3-2C425.6,549,426,549,426.8,549.2z"/>
			<path id="path44_1_" class="st6" d="M434,550.3c0-0.3,0.2-0.5,0.4-0.6c0.2-0.2,0.5-0.2,0.9-0.1c0.4,0.1,0.6,0.2,0.8,0.4
				c0.2,0.2,0.2,0.5,0.2,0.7c0,0.3-0.2,0.5-0.4,0.6c-0.2,0.1-0.5,0.2-0.9,0.1c-0.4-0.1-0.6-0.2-0.8-0.4
				C434,550.8,434,550.5,434,550.3z M434.5,560.8c-0.8-0.1-1.2-0.2-2-0.3c0.5-3.2,0.8-4.9,1.3-8.1c0.8,0.1,1.2,0.2,1.9,0.3
				C435.2,555.9,435,557.6,434.5,560.8z"/>
			<path id="path46_1_" class="st6" d="M440.1,557.5c0.1-0.8,0.4-1.5,0.8-2.1c0.4-0.6,1-1,1.7-1.3c0.7-0.3,1.4-0.3,2.2-0.2
				c1.2,0.2,2.1,0.7,2.7,1.5c0.6,0.8,0.9,1.8,0.8,3c0,0.2,0,0.3-0.1,0.4c-0.1,0.8-0.4,1.5-0.8,2.1c-0.4,0.6-1,1-1.6,1.3
				c-0.7,0.3-1.4,0.3-2.2,0.2c-1.2-0.2-2.2-0.7-2.8-1.6C440.1,559.9,439.9,558.8,440.1,557.5C440.1,557.5,440.1,557.5,440.1,557.5
				C440.1,557.5,440.1,557.5,440.1,557.5z M442.1,557.9c-0.1,0.8,0,1.5,0.2,2.1c0.3,0.5,0.8,0.9,1.4,1c0.7,0.1,1.2-0.1,1.7-0.5
				c0.4-0.4,0.7-1.1,0.9-2c0.1-0.8,0-1.5-0.3-2c-0.3-0.5-0.8-0.9-1.4-1c-0.6-0.1-1.2,0.1-1.6,0.5S442.2,557,442.1,557.9z"/>
			<path id="path48_1_" class="st6" d="M455.1,555.6c0,0.4-0.1,0.6-0.1,1c0.8-0.6,1.7-0.9,2.7-0.8c1.8,0.2,2.6,1.3,2.3,3.3
				c-0.3,2.2-0.5,3.3-0.8,5.5c-0.8-0.1-1.2-0.2-2-0.3c0.3-2.1,0.5-3.2,0.8-5.3c0.1-0.5,0-0.9-0.2-1.2c-0.2-0.3-0.6-0.5-1.1-0.5
				c-0.8-0.1-1.4,0.2-1.9,0.8c-0.3,2.3-0.5,3.5-0.9,5.9c-0.8-0.1-1.2-0.2-2-0.3c0.5-3.3,0.7-4.9,1.2-8.2
				C454,555.4,454.4,555.5,455.1,555.6z"/>
		</g>
	</g>
</g>
<g id="RightHand--group">
	<path id="RightHand--bg" d="M390.6,457c-5.2,5.1-11.7,8.1-17.8,8.1c-8.1,0-14-5.1-15.6-13.3c-1-5.4,0.9-11.3,5.4-16.7
		c5.8-6.9,14.9-12,21.7-12.1h0.2c1.3,0,2.6,0.2,3.8,0.6h0.2l0.1,0.1c4.5,1.8,7.9,6.2,9.1,11.8C399.1,443,396.5,451,390.6,457z"/>
	<path id="RightHand" class="st0" d="M385.4,451.7c4.2-4.2,6-9.6,5-14.7c-0.6-3.1-2.3-5.5-4.6-6.4c-0.4-0.1-0.9-0.2-1.3-0.2h-0.1
		c-4,0-11.3,3.6-16.1,9.4c-1.8,2.1-4.6,6.3-3.8,10.6c1.1,6,5.1,7.3,8.3,7.3C376.9,457.7,381.6,455.5,385.4,451.7z"/>
</g>
<g id="RightFootGroup">
	<path id="RightFoot--bg" d="M384.3,648c-2.4,3.7-6.4,5.7-11.5,5.7c-1.9,0-4-0.3-6.2-0.8c-25-6-59.3-43.6-63.6-64.5
		c-1.9-9.4-0.2-18,5-24.4c4.6-5.7,11.4-8.8,18.9-8.8c6.8,0,13.6,2.5,19.8,7.3c12.2,9.4,32.9,50.5,37.3,60.7
		C386.5,629,388.9,640.9,384.3,648z"/>
	<path id="RightFoot_1_" class="st0" d="M310.1,586.8c3.8,18.2,36.2,53.6,58.1,58.8c1.7,0.4,3.2,0.6,4.5,0.6c3.4,0,4.7-1.3,5.4-2.3
		c2.3-3.5,1.5-12.1-1-17.9c-6.1-13.9-25.3-50.3-35.1-57.8c-4.9-3.8-10.2-5.8-15.3-5.8c-5.3,0-10,2.2-13.2,6.1
		C309.9,573.2,308.7,579.7,310.1,586.8z"/>
</g>
<g id="RightEar--group">
	<path id="RightEar--bg" d="M413.3,399.4c-0.4,4.4-3.8,8.4-11.1,12.9c-4.7,3-10.2,5.5-13.9,6.5c-6.5,1.7-12.3,2.6-17.3,2.6
		c-6.7,0-10.6-1.6-12.7-2.9c-4.8-3-4.4-7.2-4.2-8.5c0.5-3.1,2.9-5.5,5.9-6.2c3.5-0.8,13.5-5.8,23.6-12.6c4.2-2.9,10.7-4.8,16.1-4.8
		c5.8,0,9.1,2.2,10.8,4.1C412.6,392.9,413.6,396,413.3,399.4z"/>
	<path id="RightEar" class="st1" d="M361.4,411.3c0,0.3,0.4,0.7,0.9,0.9c1.1,0.7,3.6,1.8,8.8,1.8c4.3,0,9.5-0.8,15.4-2.3
		c5.2-1.4,19.1-8.8,19.5-13c0.1-1.3-0.2-2.4-0.9-3.2c-1-1.1-2.8-1.7-5.3-1.7c-3.9,0-8.9,1.5-11.9,3.5c-8.5,5.7-20.5,12.5-26.1,13.7
		C361.5,411.1,361.4,411.2,361.4,411.3z"/>
</g>
<g id="Head--group">
	<path id="Head--bg" d="M516.4,328.1c1.6,0,3.2,0,4.8,0.1c20.6,0.6,39.5,6.5,55.9,17c11.2,7.2,17.5,11.4,25.9,25.2
		c1.5,2.5,9,0.8,7.9-1.1c-10.1-17.6-17.5-22.3-29.8-30.3c-17.7-11.4-37.8-17.6-59.7-18.2c-1.6,0-3.3-0.1-5-0.1l0,0
		c-1.6,0-3.3,0-4.9,0.1c-24.3,0.6-47.8,6.6-67.8,17.1c-20.2,10.6-37.1,26.1-48.9,44.7c-7.7,12.3-10.3,23.9-7.4,33.5
		c2.4,7.8,7.9,12.7,12.3,14.6c1.4,0.6,2.9,0.9,4.7,0.9c9.3,0,34.7-9.3,45.7-24.8c8.4,4.5,17.6,6.7,28.1,6.7c12.6,0,25-3.2,36.4-6.9
		c3-1,3.8-2.2,3.9-4.1c0-1.3-1.2-3.6-3.8-3.5c-0.3,0-0.7,0.1-1,0.2c-11.2,3.6-23.3,6.9-35.4,6.9c-9.3,0-18.6-2-27.4-7.4
		c-0.6-0.4-1.3-0.5-1.9-0.5c-1.3,0-2.5,0.6-3.2,1.8l-0.1,0.1c-7.9,14.3-33.3,24.1-41.2,24.1c-0.7,0-1.3-0.1-1.7-0.3
		c-2.8-1.2-6.6-4.6-8.2-10c-2.3-7.5,0-17,6.6-27.4c22.5-35.7,63.4-57.1,110.6-58.3l0,0C513.2,328.1,514.8,328.1,516.4,328.1"/>
	<path id="Head" class="st0" d="M516.6,399.4c-1-0.4-2-0.7-3-0.3c-19.7,6.3-42.5,12-62.8-0.5c-1.7-1.1-4-0.5-5.1,1.2l-0.1,0.1
		c-8.6,15.7-38.3,26-43,23.9c-2.8-1.2-6.6-4.6-8.2-10c-2.3-7.5,0-17,6.6-27.4c22.5-35.7,63.4-57.1,110.6-58.3l0,0
		c3.1-0.1,6.3-0.1,9.5,0c20.6,0.6,39.5,6.5,55.9,17c13.2,8.5,19.7,12.7,30.6,33.6C613.2,389.2,523.2,402.2,516.6,399.4z"/>
</g>
<g id="LeftArm--group">
	<path id="LeftArm--bg" d="M478,413.3c-6.4,2.9-12.4,6.6-17.6,11.1c-12.1,10.6-12.6,19.4-10.8,24.8c2.5,7.7,11.1,13.4,21.9,14.6
		c7.1,0.7,16.2-1.3,26.7-3.6c13.9-3.1,29.7-6.6,42.9-3.9c19.6,4.1,33.3,15,53.1,32.7l10.3,9.2c1.5,1.3,3.9,1.2,5.2-0.4
		c1.3-1.5,1.2-3.9-0.4-5.2l0,0l-2.9-2.6c-24-21.7-39.9-36-63.8-41c-14.8-3.1-31.3,0.6-46,3.9c-9.5,2.1-18.5,4.1-24.3,3.5
		c-7.8-0.8-14.1-4.6-15.7-9.5c-1.5-4.7,1.6-10.7,8.7-17c20.7-18.2,59.1-23.7,87.5-12.5c4.7,1.9,7.4-5.1,2.7-6.9
		c-11.4-4.4-24.6-6.6-37.7-6.2C507.7,404.7,487.3,409.1,478,413.3z"/>
	<path id="LeftArm" class="st0" d="M615.4,451c11.7,12.2,17,60.3-6,41.6l0,0l-2.9-2.6c-24-21.7-39.9-36-63.8-41
		c-14.8-3.1-31.3,0.6-46,3.9c-9.5,2.1-18.5,4.1-24.3,3.5c-7.8-0.8-14.1-4.6-15.7-9.5c-1.5-4.7,1.6-10.7,8.7-17
		c20.7-18.2,59.3-24,87.5-12.5C557.5,419.4,599,433.9,615.4,451z"/>
</g>
<g id="LeftEar--group">
	<path id="LeftEar--bg" d="M701.4,357.1c-0.5,1.7-1.2,3.4-2,5.2c-5,10-17.7,23-38,29.1c-4.5,1.4-9.3,2-14,2h-0.1
		c-13,0-34.2-4.9-61.6-28.3c-1.9-1.7-5.1-4.8-7.1-7c-2.3-2.5-2.8-6.1-1.5-9.1s4.4-5.1,7.8-5.1c0.2,0,0.3,0,0.5,0
		c13.9,0.8,30.1,1.2,48.4,1.2c8.1,0,14.8-0.1,19.3-0.1c2,0,3.5,0,4.5,0c7.4,0,13.3-0.1,18.2-0.1c8.1,0,13.7,0.1,17.1,0.2
		c2.9,0.1,5.6,1.5,7.3,3.9C701.7,351.3,702.2,354.2,701.4,357.1z"/>
	<path id="LeftEar" class="st1" d="M590.4,359.4c25.7,21.9,45.1,26.5,56.8,26.5h0.1c4,0,8-0.6,11.9-1.7
		c18.1-5.4,29.2-16.6,33.5-25.3c0.8-1.5,1.2-2.8,1.5-3.9c0.4-1.3-0.6-2.6-1.9-2.7c-3.3-0.1-8.9-0.2-16.7-0.2c-5.4,0-11.6,0-18.2,0.1
		c-3.3,0-12.2,0.2-23.9,0.2c-13.9,0-31.7-0.2-48.8-1.2c0,0,0,0-0.1,0c-0.9,0-1.5,1.1-0.8,1.8C585.8,355.2,588.8,358.1,590.4,359.4z"
		/>
</g>
<g id="Face--group">
	<path id="RightEye" d="M417.6,376.2c-4.1,0-7.4,3.3-7.4,7.4c0,9.9,14.8,9.9,14.8,0C425,379.5,421.7,376.2,417.6,376.2z"/>
	<path id="LeftEye" d="M503.2,355.7c-4.1,0-7.4,3.3-7.4,7.4c0,9.9,14.8,9.9,14.8,0C510.6,359,507.3,355.7,503.2,355.7L503.2,355.7
		L503.2,355.7z"/>
	<path id="Nose" d="M457.9,375.4c-7.4,0.8-12.3,2.5-15.6,4.9c-5.9,4.4-4.1,9.9,2.5,10.7c6.6,0.8,7.1,1.2,13.2-3.3
		C464.5,382.8,465.3,374.6,457.9,375.4L457.9,375.4z"/>
</g>
<g id="LeftLEg--group">
	<path id="LetLeg" class="st0" d="M512.4,655.2c-4.6-5.2-3.7-15.7-1.9-29.4c2.6-19.8,5-34.5,25.4-50.8c24.4-19.5,62.2-15,76.2-0.5
		c3.6,3.7,6.7,10.9,7.3,18.8c0.9,11.4-22.2,42.4-44.8,51.8C552,654.7,520.6,664.4,512.4,655.2z"/>
	<path id="LeftLeg--bg_1_" d="M512.4,658.9c-1.2,0-2.3-0.5-3-1.6c-4.7-6.7-4.5-17.2-2.6-32c2.5-19,4.6-35.5,26.8-53.2
		c26.8-21.4,63.7-14,78.4,0.7c1.4,1.4,1.4,3.8,0,5.2s-3.8,1.4-5.2,0c-12.5-12.5-45.4-18.7-68.6-0.1c-18.9,15.1-21.4,28.2-24.1,48.4
		c-1.4,11-2.3,21.8,1.3,26.7c1.2,1.7,0.8,4-0.9,5.2C513.9,658.7,513.1,658.9,512.4,658.9z"/>
</g>
<g id="LeftFoot--group">
	<path id="LeftFoot--bg" d="M523.7,651.2c-0.4,1.9-2,9.1-6.7,16.2c-7,10.6-17.8,16.5-30.4,16.5c-7.2,0-12.9-2.1-16.8-6.2
		c-7.5-7.8-7.1-21-6.7-33.7v-0.1c0.2-6.4,0.4-13.1-0.4-18.5c-0.7-4.4-1.8-9.1-3.1-14.5c-2.4-10.2-4.6-20.1-4.3-28.7
		c0.4-10.7,4.7-18.9,12.8-24.4c3.5-2.4,7.4-3.5,11.4-3.5c9.3,0,18.9,6.2,28.7,18.6c7.1,8.9,13.1,20,15.4,28.1
		C530,622.8,528.5,635.9,523.7,651.2z"/>
	<path id="LeftFoot_1_" class="st0" d="M477,670.8c2,2.1,5.2,3.1,9.6,3.1c22.6,0,27-23.7,27.2-24.7c0-0.2,0.1-0.4,0.1-0.6
		c4.4-13.9,5.7-25.2,0-44.8c-3.7-13.2-21.1-39.4-34.4-39.4c-2,0-4,0.6-5.8,1.9c-11.7,7.8-9.3,21.8-4.4,42.4
		c1.2,5.1,2.5,10.4,3.2,15.3c1,6.4,0.8,13.5,0.5,20.4C472.8,655,472.4,666,477,670.8z"/>
</g>
</svg>
