<?xml version="1.0" encoding="utf-8"?>
<!-- Svg Vector Icons : http://www.onlinewebfonts.com/icon -->
<!DOCTYPE svg PUBLIC "-//W3C//DTD SVG 1.1//EN" "http://www.w3.org/Graphics/SVG/1.1/DTD/svg11.dtd">
<svg version="1.1" xmlns="http://www.w3.org/2000/svg" xmlns:xlink="http://www.w3.org/1999/xlink" x="0px" y="0px" viewBox="0 0 1000 1000" enable-background="new 0 0 1000 1000" xml:space="preserve">
<metadata> Svg Vector Icons : http://www.onlinewebfonts.com/icon </metadata>
<g><g transform="translate(0.000000,511.000000) scale(0.100000,-0.100000)"><path d="M825.5,3222.6c-158.9-44-315.9-172.3-392.5-319.8c-67-128.3-191.5-806.1-256.6-1388.2C28.9,204.9,97.9-1273.3,358.3-2428c51.7-233.6,101.5-335.1,218.3-440.4c122.5-109.1,233.6-151.3,402.1-151.3c128.3,0,168.5,9.6,392.5,99.6c1248.5,505.5,2158,967,2594.6,1317.4l105.3,84.2h926.8l926.8-1.9l107.2-82.3c457.6-360,1348-811.9,2558.2-1302.1c245.1-97.7,304.5-114.9,411.7-116.8c227.9-1.9,434.7,111.1,545.7,300.6c78.5,137.9,203,777.4,275.7,1420.8c145.5,1288.7,82.3,2732.4-172.3,3894.7c-61.3,281.5-105.3,377.2-229.8,488.3c-122.5,113-231.7,153.2-400.2,153.2c-134,0-166.6-9.6-488.3-139.8C7335.8,2609.9,6501,2182.9,6031.8,1817.2l-107.2-82.3l-926.8-1.9h-926.8l-105.3,84.3c-444.2,354.2-1380.6,831-2552.4,1298.2C1103.1,3239.9,971,3264.7,825.5,3222.6z M1319.5,2713.3c1152.7-463.4,2089.1-945.9,2452.9-1263.8l84.2-72.8l-67-170.4c-38.3-93.8-82.3-222.1-99.6-285.3c-17.2-63.2-36.4-126.4-40.2-139.8c-5.7-15.3-38.3-3.8-99.6,40.2c-315.9,224-823.4,398.3-1399.7,484.4c-220.2,32.5-237.4,32.5-302.5,1.9c-90-44-134-141.7-103.4-235.5c34.5-103.4,90-132.1,323.6-168.5c746.8-114.9,1327-365.7,1455.2-630c136-281.5-63.2-536.1-582.1-741c-199.1-78.5-593.6-180-869.3-222.1c-239.4-36.4-314-76.6-337-178.1c-17.2-80.4,32.6-183.8,107.2-222.1c76.6-40.2,174.3-32.6,572.5,47.9c457.6,91.9,838.7,233.6,1097.2,407.8c82.3,55.5,134,78.5,137.9,65.1c3.8-13.4,23-74.7,40.2-137.9s61.3-191.5,99.6-285.3l67-170.4l-74.7-65.1c-390.6-333.2-1332.7-819.5-2464.3-1271.4c-304.5-122.5-383-134-459.6-74.7c-59.4,45.9-74.7,93.8-137.9,404c-283.4,1413.1-283.4,3140.3,0,4553.4c63.2,310.2,78.5,358.1,137.9,404C934.6,2847.3,1018.9,2833.9,1319.5,2713.3z M9145.3,2784.1c61.3-53.6,101.5-203,180-666.3C9445.9,1415,9486.1,898,9486.1,107.2c0-911.5-74.7-1675.4-235.5-2410.7c-44-203-59.4-237.4-118.7-277.6c-72.8-51.7-164.7-34.5-453.8,82.3C7512-2027.8,6589.1-1551,6227.1-1237l-84.2,74.7l67,170.4c38.3,93.8,82.3,222.1,99.6,285.3c17.2,63.2,36.4,124.5,40.2,137.9c3.8,13.4,55.5-9.6,137.9-65.1c258.5-174.2,639.5-315.9,1097.2-407.8c398.3-80.4,495.9-88.1,572.5-47.9c74.7,38.3,120.6,135.9,105.3,220.2c-21.1,105.3-93.8,143.6-335.1,180c-120.6,19.1-329.3,63.2-467.2,97.7c-800.4,204.9-1154.6,515.1-984.2,865.5c128.3,266.2,704.7,515.1,1455.3,630c233.6,36.4,289.1,65.1,323.6,168.5c30.6,93.8-13.4,191.5-103.4,235.5c-65.1,30.6-82.3,30.6-302.5-1.9c-576.3-86.2-1083.8-260.4-1399.7-484.4c-61.3-44-93.8-55.5-99.6-40.2c-3.8,13.4-23,76.6-40.2,139.8c-17.2,63.2-61.3,191.5-99.6,285.3l-67,170.4l84.2,74.7c361.9,314,1277.2,787,2449,1261.9C8984.5,2837.7,9066.8,2851.1,9145.3,2784.1z M5781,1166.1c314-681.7,314-1436.1,0-2115.9l-78.5-168.5h-702.7H4297l-78.5,168.5c-314,681.7-314,1432.3,0,2115.9l78.5,166.6h702.7h702.7L5781,1166.1z"/></g></g>
</svg>