<svg version="1.1" id="wapuugotchi_svg__item" viewBox="0 0 1e3 1e3" xmlns="http://www.w3.org/2000/svg">
	<g class="Ball--group">
		<circle transform="rotate(-45.001 470.62 529.32)" cx="470.6" cy="529.3" r="133.5"/>
		<linearGradient id="b" x1="596.7" x2="344.5" y1="529.3" y2="529.3" gradientUnits="userSpaceOnUse">
			<stop stop-color="#570732" offset="0"/>
			<stop stop-color="#610b39" offset=".038"/>
			<stop stop-color="#79164b" offset=".155"/>
			<stop stop-color="#8c1e59" offset=".287"/>
			<stop stop-color="#9a2463" offset=".44"/>
			<stop stop-color="#a22768" offset=".633"/>
			<stop stop-color="#a4286a" offset="1"/>
		  </linearGradient>
		<circle cx="470.6" cy="529.3" r="126.1" fill="url(#b)"/>
		<path fill="#fff" d="M497.4 552.9c2.2-7.1 3.3-10.7 5.6-17.8 2.6.1 3.9.2 6.5.3 1-3.1 1.5-4.6 2.5-7.7-2.6-.1-3.9-.1-6.5-.2 1.2-3.7 1.7-5.6 2.9-9.3-4.1-.2-6.1-.3-10.1-.5-1.1 3.7-1.7 5.6-2.8 9.3-2-.1-3.1-.2-5.1-.4-.9 3.1-1.4 4.6-2.3 7.7 2 .2 3 .3 5 .4-2 6.7-3.1 10-5.1 16.7-2.9 9.5 1.9 15.7 8.5 17.3 2.2-3.1 3.2-4.6 5.4-7.8-4-.9-5.6-4.1-4.5-8zm-48.2-8.8 3.5-13c.1-.5.2-.9.3-1.4.3-12.8-17-13-26.2-12.4.7 3 1 4.5 1.7 7.5 8.4-1.7 12.9.1 14 2.2l.1.1c.5 1.2-.1 2.9-.4 4.3-10-2.1-20.8-3.5-23.3 7.1-1.9 8.1 6.7 16.2 19.4 10.7.2 1.7.4 2.5.6 4.2 3.7.8 5.5 1.2 9.2 1.9.3-4.6.4-8.6 1.1-11.2zm-9.7-2c-9.8 6.8-14.6-2.8-6.6-4.6 2.3-.2 5.1.4 7.6.9-.4 1.5-.6 2.2-1 3.7zm28.5-9.3c.9-3.2 6.7-4 14 .6 2-2.6 3-4 5-6.6-8.9-3.6-24.6-7.4-29 4.5-1.5 5.5 1.2 9.1 5.8 11.7 3.2 1.8 8.1 3.2 7.3 6-1.1 3.7-9.1 3.2-15-3-2 2.8-3 4.1-4.9 6.9 8.9 6.2 25 9.4 30-3.3 3.5-12.2-14.6-12.1-13.2-16.8z"/>
		<linearGradient id="a" x1="374.65" x2="374.65" y1="1226.1" y2="1271.3" gradientTransform="translate(0 -741.7)" gradientUnits="userSpaceOnUse">
			<stop stop-color="#77b227" offset="0"/>
			<stop stop-color="#75b027" offset=".467"/>
			<stop stop-color="#6eab27" offset=".635"/>
			<stop stop-color="#63a027" offset=".755"/>
			<stop stop-color="#529228" offset=".852"/>
			<stop stop-color="#3c7f28" offset=".934"/>
			<stop stop-color="#246b29" offset="1"/>
		  </linearGradient>
		<path d="M388.4 485.9c-6.9 10.6-13.8 21.3-20.5 32.1-1.1-9.2-1.6-13.8-2.8-22.9-3.8-1.7-5.7-2.5-9.5-4.3 2 10.8 4 21.6 5.9 32.4.5 2.7 0 5.4-1.2 7.3-1.7 2.5-4 4.3-8.6 2.7-.5 3.3-.8 4.9-1.3 8.2 8.7 4.4 14.5.7 21.3-10.3 9-13.9 18.1-27.8 27.4-41.5-4.4-1.4-6.5-2.1-10.7-3.7z" fill="url(#a)"/>
		<path fill="#fff" d="m405.9 508.9c-11.8-3.3-18.2 2.8-20 11.4-2 9.7 3.1 19.2 12.7 22.2 11.4 3.6 18.2-3.4 20.1-11.7 2.7-9.9-3.1-19.1-12.8-21.9zm-5.8 26.5c-4.7-1.6-6.3-5.9-5-11.7 1.2-5.8 4.6-9.1 9.3-7.6 4.6 1.5 6.2 6.3 4.9 12.2-1.4 5.7-4.5 8.6-9.2 7.1z"/>
	</g>
</svg>
