<?xml version="1.0" encoding="utf-8"?>
<!-- Generator: Adobe Illustrator 25.2.0, SVG Export Plug-In . SVG Version: 6.00 Build 0)  -->
<svg version="1.1" id="Layer_1" xmlns="http://www.w3.org/2000/svg" xmlns:xlink="http://www.w3.org/1999/xlink" x="0px" y="0px"
	 viewBox="0 0 1000 1000" style="enable-background:new 0 0 1000 1000;" xml:space="preserve">
<style type="text/css">
	.st0{fill:url(#SVGID_1_);}
	.st1{fill:#FFFFFF;}
	.st2{fill:url(#SVGID_2_);}
</style>
<g id="Ball--group">
	<g id="Ball--bg">
		<ellipse transform="matrix(0.7071 -0.7071 0.7071 0.7071 -236.4377 487.8127)" cx="470.6" cy="529.3" rx="133.5" ry="133.5"/>
	</g>
	<g id="Ball">
		<linearGradient id="SVGID_1_" gradientUnits="userSpaceOnUse" x1="596.7" y1="529.3" x2="344.5" y2="529.3">
			<stop  offset="0" style="stop-color:#570732"/>
			<stop  offset="3.755289e-02" style="stop-color:#610B39"/>
			<stop  offset="0.1547" style="stop-color:#79164B"/>
			<stop  offset="0.2866" style="stop-color:#8C1E59"/>
			<stop  offset="0.4398" style="stop-color:#9A2463"/>
			<stop  offset="0.6334" style="stop-color:#A22768"/>
			<stop  offset="1" style="stop-color:#A4286A"/>
		</linearGradient>
		<circle class="st0" cx="470.6" cy="529.3" r="126.1"/>
	</g>
	<g>
		<g id="Yoast_1_">
			<g>
				<path class="st1" d="M497.4,552.9c2.2-7.1,3.3-10.7,5.6-17.8c2.6,0.1,3.9,0.2,6.5,0.3c1-3.1,1.5-4.6,2.5-7.7
					c-2.6-0.1-3.9-0.1-6.5-0.2c1.2-3.7,1.7-5.6,2.9-9.3c-4.1-0.2-6.1-0.3-10.1-0.5c-1.1,3.7-1.7,5.6-2.8,9.3c-2-0.1-3.1-0.2-5.1-0.4
					c-0.9,3.1-1.4,4.6-2.3,7.7c2,0.2,3,0.3,5,0.4c-2,6.7-3.1,10-5.1,16.7c-2.9,9.5,1.9,15.7,8.5,17.3c2.2-3.1,3.2-4.6,5.4-7.8
					C497.9,560,496.3,556.8,497.4,552.9z"/>
				<path class="st1" d="M449.2,544.1c1.4-5.2,2.1-7.8,3.5-13c0.1-0.5,0.2-0.9,0.3-1.4c0.3-12.8-17-13-26.2-12.4
					c0.7,3,1,4.5,1.7,7.5c8.4-1.7,12.9,0.1,14,2.2c0,0,0.1,0.1,0.1,0.1c0,0,0,0,0,0c0.5,1.2-0.1,2.9-0.4,4.3
					c-10-2.1-20.8-3.5-23.3,7.1c-1.9,8.1,6.7,16.2,19.4,10.7c0.2,1.7,0.4,2.5,0.6,4.2c3.7,0.8,5.5,1.2,9.2,1.9
					C448.4,550.7,448.5,546.7,449.2,544.1z M439.5,542.1c-9.8,6.8-14.6-2.8-6.6-4.6c2.3-0.2,5.1,0.4,7.6,0.9
					C440.1,539.9,439.9,540.6,439.5,542.1z"/>
				<path class="st1" d="M468,532.8c0.9-3.2,6.7-4,14,0.6c2-2.6,3-4,5-6.6c-8.9-3.6-24.6-7.4-29,4.5c-1.5,5.5,1.2,9.1,5.8,11.7
					c3.2,1.8,8.1,3.2,7.3,6c-1.1,3.7-9.1,3.2-15-3c-2,2.8-3,4.1-4.9,6.9c8.9,6.2,25,9.4,30-3.3C484.7,537.4,466.6,537.5,468,532.8z"
					/>
				
					<linearGradient id="SVGID_2_" gradientUnits="userSpaceOnUse" x1="374.6481" y1="1226.0925" x2="374.6481" y2="1271.3176" gradientTransform="matrix(1 0 0 1 0 -741.7)">
					<stop  offset="0" style="stop-color:#77B227"/>
					<stop  offset="0.4669" style="stop-color:#75B027"/>
					<stop  offset="0.635" style="stop-color:#6EAB27"/>
					<stop  offset="0.7549" style="stop-color:#63A027"/>
					<stop  offset="0.8518" style="stop-color:#529228"/>
					<stop  offset="0.9339" style="stop-color:#3C7F28"/>
					<stop  offset="1" style="stop-color:#246B29"/>
				</linearGradient>
				<path class="st2" d="M388.4,485.9c-6.9,10.6-13.8,21.3-20.5,32.1c-1.1-9.2-1.6-13.8-2.8-22.9c-3.8-1.7-5.7-2.5-9.5-4.3
					c2,10.8,4,21.6,5.9,32.4c0.5,2.7,0,5.4-1.2,7.3c-1.7,2.5-4,4.3-8.6,2.7c-0.5,3.3-0.8,4.9-1.3,8.2c8.7,4.4,14.5,0.7,21.3-10.3
					c9-13.9,18.1-27.8,27.4-41.5C394.7,488.2,392.6,487.5,388.4,485.9z"/>
			</g>
			<path class="st1" d="M405.9,508.9c-11.8-3.3-18.2,2.8-20,11.4c-2,9.7,3.1,19.2,12.7,22.2c11.4,3.6,18.2-3.4,20.1-11.7
				C421.4,520.9,415.6,511.7,405.9,508.9z M400.1,535.4c-4.7-1.6-6.3-5.9-5-11.7c1.2-5.8,4.6-9.1,9.3-7.6c4.6,1.5,6.2,6.3,4.9,12.2
				C407.9,534,404.8,536.9,400.1,535.4z"/>
		</g>
	</g>
</g>
</svg>
