<svg xmlns="http://www.w3.org/2000/svg" id="wapuugotchi_svg__wapuu" x="0" y="0" version="1.1" viewBox="0 0 1000 1000">
	<g id="RightArm--group">
		<path d="M436.6 504c-4.5 5.1-10.5 7.9-17 7.9-9.1 0-18.5-5.5-24.4-14.4-7.8-11.6-15.5-21.2-22.3-27.9l-4.8-4.7c-2-2-1.1-5.3 1.6-6.1l6.5-1.7c3.2-.9 6.4-2.7 9.1-5.5 3-3 4.8-6.7 5.2-10.4V430c0-1.3 1.5-2.1 2.5-1.3l9.3 6.9c.7.5 1.7 1.1 2.9 1.7 10.2 4.9 31.7 27.4 35.7 46.7 2.1 10.1-1.2 16.5-4.3 20z"/>
		<path d="M402.1 444.1c-1.5-.7-2.9-1.5-4.2-2.4-.5 5.5-3 11-7.3 15.3-3.7 3.7-8.1 6.2-12.5 7.4 8.7 8.6 17 19.8 23.2 29.1 4.5 6.7 11.6 11.1 18.3 11.1 4.1 0 8.1-1.6 11.4-5.4 13-14.8-17.3-49.6-28.9-55.1z" class="st0" fill="#fc0"/>
	</g>
	<g id="Tail--group">
		<path d="M599.1 649.5c-9 25.7-26.4 50-50.3 70.3-23.8 20.3-51.8 34.7-81 41.6-6.9 1.6-14.1 2.5-21.5 2.5-30.8 0-58.9-13.9-74.8-27-13.6-11.1-21.2-23.3-20.9-33.5.4-12 6.7-20.7 16.8-23.3 2.1-.5 4.3-.8 6.7-.8 11.2 0 27.2 6.7 38.5 25.7 7.8 13.2 22 20.1 41.1 20.1h1.2c40.7-.8 87.6-31.2 109.1-70.8 7.7-14.1 13.2-29.6 17.1-40.8 1.9-5.4 3.6-10.1 5.1-13.5 1.3-3.1 4.1-9.4 10.4-9.4 4.1 0 7.6 1.8 9.9 5 5.5 7.6 3.3 23.3-7.4 53.9z"/>
		<path d="M570.5 657.8c-22.7 41.7-72.5 73.9-115.5 74.7h-1.4c-21.6 0-38.3-8.4-47.4-23.8-9-15.1-22-22.1-32.1-22.1-1.7 0-3.3.2-4.8.6-7 1.8-11 7.6-11.3 16.4-.3 7.7 6.6 18 18.2 27.5 16.8 13.7 43.2 25.3 70.1 25.3 6.6 0 13.3-.7 19.8-2.3 57.2-13.5 108.5-57.4 126-107.1 5.4-15.3 16.7-49.2 4.5-49.2-4.5.1-10.8 31.8-26.1 60z" class="st1" fill="#f80"/>
	</g>
	<g id="Body--group">
		<path d="M649.7 531.9c-2 24-6.7 45.1-13.9 62.9-8.5 20.9-20.3 36.6-35.1 46.8-34 23.4-64.8 26-76.4 26-1.3 0-2.5 0-3.8-.1-18.4-.8-26-4.4-32.7-7.5-5.9-2.8-11-5.2-24.9-5.7-37.5-1.5-67-9.9-83.1-23.6-.2-.1-.5-.4-.9-.7-4.8-3.5-19.3-14.3-25-24.7-5.3-9.7-6.2-22.3-2.3-31.4 13.4-31.2 24.5-40.5 33.5-48 3.6-3 6.4-5.3 8.8-8.7 2.2-3.1 3.8-7.1 4.9-12.2 0-.1 0-.2.1-.3 3.9-15 3.4-34.9 2.8-56-.2-5.7-.3-11.7-.4-17.5v-.1c0-18.6 9.6-40.7 25.7-59.2 18.1-20.8 41.6-33.6 66.1-36.2 20.2-2.1 34.3-3.1 45.9-3.1 43.7 0 58.6 14.8 82.2 48.4 7.5 10.6 12.1 22.5 16 33.7 11.1 30.4 15.9 76.5 12.5 117.2z"/>
		<path d="M358.5 576.7c-3 7-2.2 17.4 2 25 5.6 10.3 23 22.2 24.1 23.2 15.1 12.9 43.7 20.5 78.7 21.9 31.2 1.3 24.3 11.8 57.6 13.3 1.1 0 2.2.1 3.5.1 16.7 0 43.7-5 72.2-24.7 58-39.9 52.9-165.3 34-218.6-3.9-11.1-8.3-22.2-15.1-31.9-23.5-33.5-36.6-45.2-76.2-45.2-12.2 0-26.9 1.1-45.1 3.1-49.9 5.3-85.3 55.3-85.3 88.1.3 27.4 2.5 55.1-2.7 75.5-1.4 6.5-3.4 11.2-6 14.9-9.8 13.5-23.4 12.4-41.7 55.3z" class="st0" fill="#fc0"/>
	</g>
	<g id="Ball--group">
		<g class="Front--group_bagpipes">
			<path fill="#444" d="m447.4 451.5 3.3-22.8-8.9-1.6-6.7 21.9z"/>
			<path fill="none" stroke="#000" stroke-width="4" d="m450.7 428.7-3.3 22.8M441.8 427.1l-6.7 21.9"/>
			<path fill="#444" d="m445.9 413.8 1.8-5.8c.4-1.3 1.5-2.1 2.9-2.1 1.7 0 3 1.4 3 3v.4l-.8 5.8"/>
			<path fill="#FCF5F0"
				  d="M452.6 415.2s-.2 4.2 1.7 7.7-3.6 5.8-3.6 5.8l-8.8-1.6s-3.9-4.2-1.4-6.1c3.2-2.5 5.5-7.2 5.5-7.2s3.6-.2 6.6 1.4zM400.2 473.5v1.1c.1 2.5-2 4.6-4.5 4.7h-1.3c-2.6.1-4.7-2-4.7-4.6v-16.9c0-2.5 2-4.6 4.5-4.6h1.1c2.7-.1 4.8 2.2 4.7 4.9l-.1 1.8"/>
			<path fill="#444" d="m389.9 459.1-61.6 5.5.1 8.2 61.5 3.2"/>
			<path fill="#FCF5F0" d="m316.9 477.3 11.5-4.5-.1-8.2-11.3-4.2z"/>
			<path fill="none" stroke="#000" stroke-width="4"
				  d="m445.9 413.8 1.8-5.8c.4-1.3 1.5-2.1 2.9-2.1 1.7 0 3 1.4 3 3v.4l-.8 5.8"/>
			<path fill="none" stroke-linejoin="bevel" stroke="#000" stroke-width="4"
				  d="M452.6 415.2s-.2 4.2 1.7 7.7-3.6 5.8-3.6 5.8l-8.8-1.6s-3.9-4.2-1.4-6.1c3.2-2.5 5.5-7.2 5.5-7.2s3.6-.2 6.6 1.4zM400.3 471.4v3.2c.1 2.5-2 4.6-4.5 4.7h-1.3c-2.6.1-4.7-2-4.7-4.6v-16.9c0-2.5 2-4.6 4.5-4.6h1.1c2.7-.1 4.8 2.2 4.7 4.9l-.2 3.1"/>
			<path fill="none" stroke="#000" stroke-width="4"
				  d="m388.7 458.4-60.4 6.2.1 8.2 61.5 3.2M316.9 477.3l11.5-4.5-.1-8.2-11.3-4.2z"/>
			<path fill="#E54C4B"
				  d="M512.1 596.9s-70.7 8.9-73.6-58.5-37.2-65.2-37.2-65.2v-13.6s17.8 4.7 26.1-1.9 8.1-9.2 8.1-9.2l11 2.5s4 7 14.5 9.9c10.5 2.9 47.5 4.3 58.1-3.2l12.7 13.8s-12.2 5.8-6.6 13.5c4.6 6.5 15.7-3.3 15.7-3.3l10.1 15.8s-15.7 7.6-10.7 16.8 19.8.6 19.8.6l5.8 17.8s-11.7 7.2-6.6 24.4c7.6 26.2-26 37.4-47.2 39.8z"/>
			<path fill="#22436B"
				  d="M512.1 596.9s-70.7 8.9-73.6-58.5-37.2-65.2-37.2-65.2v-13.6s17.8 4.7 26.1-1.9 8.1-9.2 8.1-9.2l11 2.5s4 7 14.5 9.9c10.5 2.9 47.5 4.3 58.1-3.2l12.7 13.8s-12.2 5.8-6.6 13.5c4.6 6.5 15.7-3.3 15.7-3.3l10.1 15.8s-15.7 7.6-10.7 16.8 19.8.6 19.8.6l5.8 17.8s-11.7 7.2-6.6 24.4c7.6 26.2-26 37.4-47.2 39.8z"/>
			<defs>
				<clipPath id="a">
					<path d="M512.1 596.9s-70.7 8.9-73.6-58.5-37.2-65.2-37.2-65.2v-13.6s17.8 4.7 26.1-1.9 8.1-9.2 8.1-9.2l11 2.5s4 7 14.5 9.9c10.5 2.9 47.5 4.3 58.1-3.2l12.7 13.8s-12.2 5.8-6.6 13.5c4.6 6.5 15.7-3.3 15.7-3.3l10.1 15.8s-15.7 7.6-10.7 16.8 19.8.6 19.8.6l5.8 17.8s-11.7 7.2-6.6 24.4c7.6 26.2-26 37.4-47.2 39.8z"/>
				</clipPath>
			</defs>
			<g clip-path="url(#a)">
				<path fill="#2A557F"
					  d="M490.7 591.7c-2.8-6.7-5.4-13.3-7.6-19.8 15.1-12 40.2-37.7 59.3-84.3l6.4 29.3c-6 11.9-28.7 52.7-58.1 74.8z"/>
				<path fill="#8F4253"
					  d="M461.3 608.9c-.4.2-.7.3-1.1.5-5.7-4.7-8.8-10.3-10.9-16.7 1.7-.8 3.6-1.7 5.6-2.8 2 6.2 4.1 12.5 6.4 19z"/>
				<path fill="#2A557F"
					  d="M485.2 595.6c-1.5 1-3 2-4.6 3-2.8-6.2-5.4-12.7-7.8-19.2 1.6-1 3.1-2.2 4.8-3.3 2.2 6.4 4.7 12.9 7.6 19.5z"/>
			</g>
			<g fill="#2A557F" clip-path="url(#a)">
				<path d="M424.1 491.4c-7.2 5-13.4 10.2-18.7 15.2-6.7-3.2-13.9-5.5-21.4-7.3 13.3-14.1 28-24.3 41.1-31.6-.7 7.2-1.1 15.2-1 23.7zM460.5 471.5c-1.9.8-3.8 1.6-5.6 2.4.2-6.6.6-13.3 1.4-20.1 2.6-.9 4.5-1.4 5.5-1.7-.6 5.8-1.1 12.3-1.3 19.4zM435.8 483.9c-1.7 1-3.3 2-4.8 3 .1-8.4.6-16.1 1.2-22.9 1.4-.7 2.8-1.4 4.2-2-.6 6-.8 13.3-.6 21.9zM477.6 465.3c-3.6 1.1-7 2.3-10.3 3.6.2-4.3.4-8.3.8-12l9.5 8.4z"/>
			</g>
			<g clip-path="url(#a)">
				<path fill="#8F4253" d="M456.6 439.2c-5.4 2.2-11.7 4.9-18.6 8.3 1-5.9 1.9-8.8 1.9-8.8l12.8-3.5 3.9 4z"/>
				<path fill="#2A557F"
					  d="M456.3 453.9c-4.7 1.5-11.7 4.1-20 8 .2-2.2.4-4.3.6-6.2 7.5-3.8 14.4-7 20.3-9.4-.3 2.5-.6 5.1-.9 7.6z"/>
				<path fill="#3E719B"
					  d="M454.9 474c-7 3.1-13.3 6.4-19.2 9.9-.2-8.5.1-15.8.6-22 8.3-3.9 15.3-6.5 20-8-.7 6.7-1.2 13.4-1.4 20.1z"/>
				<path fill="#2A557F"
					  d="M454.8 478.9c-.2.1-.4.2-.5.3-5.7 2.8-11.9 6.1-18.4 10-.1-1.8-.1-3.6-.2-5.3 5.8-3.4 12.2-6.8 19.2-9.9 0 1.6 0 3.2-.1 4.9zM468.6 567.4c-5.3 4-11 7.8-17.1 11.2-9.5-33.1-13.7-60.4-15.2-81.9 6.3-3.9 12.6-7.4 18.5-10.4.6 28.3 5.7 55.7 13.8 81.1zM472.8 579.5c-6.6 4.5-12.7 7.8-17.8 10.5-.5-1.6-1-3.1-1.5-4.7 6.2-3.4 12-7.2 17.4-11.1.6 1.7 1.2 3.5 1.9 5.3z"/>
				<path fill="#3E719B"
					  d="M480.5 598.7c-6 3.8-12.4 7.2-19.3 10.2-2.3-6.5-4.4-12.8-6.3-19 5.2-2.6 11.2-6 17.8-10.5 2.5 6.6 5.1 13 7.8 19.3z"/>
				<path fill="#8F4253"
					  d="M483.1 604.3c-5.6 3.4-11.4 6.4-17.6 8.8l-2.4.9c-.4-1.1-.8-2.2-1.2-3.2l-.6-1.8c6.9-3 13.3-6.5 19.3-10.2.8 1.7 1.6 3.6 2.5 5.5z"/>
			</g>
			<g clip-path="url(#a)">
				<path fill="#8F4253"
					  d="M433.8 449.6c-2.4 1.2-4.9 2.5-7.4 3.9 1.6-12.2 3.4-19.9 3.6-20.9l6.5 1.6c0 .2-1.3 5.9-2.7 15.4z"/>
				<path fill="#3E719B"
					  d="M430.9 486.8c-2.4 1.5-4.7 3-6.9 4.6 0-8.5.3-16.5.9-23.7 2.5-1.4 4.9-2.6 7.2-3.8-.6 6.8-1.1 14.6-1.2 22.9z"/>
				<path fill="#2A557F"
					  d="M432.1 463.9c-2.3 1.2-4.7 2.4-7.2 3.8.2-2 .3-4 .5-5.9 2.5-1.4 4.9-2.7 7.3-4-.2 2-.4 4-.6 6.1zM430.9 492.3c-2.2 1.4-4.5 2.9-6.8 4.5 0-1.8-.1-3.6-.1-5.4 2.2-1.5 4.5-3.1 6.9-4.6v5.5z"/>
				<path fill="#8F4253"
					  d="m435.5 538.4-2.1-4.2c-2.2-4.3-4.7-8-7.3-11.3-.8-6.2-1.3-12.3-1.6-18.1 2.2-1.6 4.4-3.1 6.6-4.5.4 12 1.7 25 4.4 38.1zM446.7 574.3l-1.1.5c-.3-1.7-.6-3.5-.9-5.3.6 1.6 1.3 3.2 2 4.8z"/>
			</g>
			<g clip-path="url(#a)">
				<path fill="#8F4253" d="m468.1 456.9-5.6-4.9s-.3.1-.7.2c.2-2.4.5-4.7.8-6.8l6 6.3c-.2 1.7-.4 3.4-.5 5.2z"/>
				<path fill="#3E719B"
					  d="M467.3 468.9c-2.3.9-4.6 1.8-6.8 2.7.2-7.2.7-13.6 1.3-19.3.5-.1.7-.2.7-.2l5.6 4.9c-.4 3.6-.6 7.6-.8 11.9z"/>
				<path fill="#2A557F"
					  d="M467.2 473.2c-2.2.9-4.4 1.9-6.7 3 0-1.6.1-3.1.1-4.6 2.2-.9 4.5-1.8 6.8-2.7-.2 1.4-.2 2.8-.2 4.3zM479 558.9c-1.8 1.6-3.7 3.2-5.6 4.8-9.7-31.6-12.6-59.3-12.9-80 2.3-1.1 4.5-2.1 6.6-3.1v.9c.2 19.8 2.8 46.7 11.9 77.4zM493.2 597.4c-1.8 1.3-3.7 2.6-5.6 3.9-.9-1.9-1.7-3.8-2.5-5.7 1.9-1.3 3.8-2.6 5.6-4 .8 2 1.7 3.9 2.5 5.8z"/>
				<path fill="#3E719B"
					  d="M490.7 591.7c-1.8 1.4-3.7 2.7-5.6 4-2.9-6.6-5.4-13.1-7.6-19.5 1.8-1.3 3.7-2.8 5.6-4.3 2.3 6.4 4.8 13 7.6 19.8z"/>
				<path fill="#2A557F"
					  d="M483.1 571.9c-1.9 1.5-3.8 2.9-5.6 4.3-.7-1.9-1.3-3.8-1.9-5.6 1.9-1.5 3.8-3 5.5-4.6.7 1.9 1.3 3.9 2 5.9z"/>
				<path fill="#8F4253" d="M496.2 603.9c-1.2.7-2.3 1.4-3.4 2 1.1-.7 2.2-1.5 3.3-2.3 0 .1.1.2.1.3z"/>
			</g>
			<g clip-path="url(#a)">
				<path fill="#8F4253" d="M461.7 444.5c-1.4.6-2.9 1.2-4.4 1.8.3-1.9.5-3.7.8-5.6l3.6 3.8z"/>
				<path fill="#3E719B"
					  d="M457.2 446.3c-5.9 2.5-12.9 5.6-20.3 9.4.4-3.2.8-5.9 1.2-8.2 6.9-3.4 13.2-6.1 18.6-8.3.6-.2 1.2-.5 1.8-.7-.1.7-.2 1.5-.4 2.2-.3 1.8-.6 3.7-.9 5.6z"/>
				<path fill="#2A557F"
					  d="M436.9 455.7c-1.4.7-2.7 1.4-4.1 2.2.3-3 .7-5.8 1.1-8.3 1.4-.7 2.9-1.4 4.2-2.1-.4 2.3-.9 5-1.2 8.2z"/>
				<path fill="#3D5975"
					  d="M432.8 457.9c-2.4 1.3-4.8 2.6-7.3 4 .3-3 .6-5.8 1-8.4 2.5-1.4 5-2.7 7.4-3.9-.5 2.5-.8 5.3-1.1 8.3z"/>
				<path fill="#2A557F"
					  d="M425.5 461.9c-15.8 9-32.9 20.8-48.1 35.9-2.6-.6-5.1-1.1-7.7-1.7 17.8-18.6 38.5-32.5 56.8-42.5-.4 2.5-.7 5.3-1 8.3z"/>
			</g>
			<g clip-path="url(#a)">
				<path fill="#2A557F"
					  d="M512.1 463.9c-5.6 1.9-36.9 13-45 16.7 0-2.5 0-5 .1-7.4 5.9-2.5 23-8.5 27.5-10.1l17.4.8z"/>
				<path fill="#3E719B"
					  d="M467.1 480.6c-2.2 1-4.4 2-6.6 3.1v-7.4c2.3-1.1 4.6-2.1 6.7-3-.1 2.3-.1 4.7-.1 7.3zM454.9 486.4c-6 3-12.2 6.5-18.5 10.4-.2-2.6-.3-5.2-.4-7.6 6.5-3.9 12.7-7.3 18.4-10 .2-.1.4-.2.5-.3-.1 2.5-.1 5 0 7.5z"/>
				<path fill="#2A557F"
					  d="M436.3 496.8c-1.8 1.1-3.5 2.2-5.3 3.4-.1-2.7-.2-5.3-.2-7.9 1.7-1.1 3.4-2.1 5-3.1.2 2.4.4 5 .5 7.6z"/>
				<path fill="#3D5975"
					  d="m431.1 500.2-6.6 4.5c-.1-2.7-.2-5.4-.3-8 2.3-1.6 4.5-3.1 6.8-4.5-.1 2.7 0 5.3.1 8z"/>
				<path fill="#8F4253"
					  d="M424.4 504.7c-3.3 2.3-6.5 4.8-9.8 7.4-1.9-1.4-3.9-2.6-6-3.8 5.1-4.2 10.3-8.1 15.4-11.6.2 2.7.3 5.3.4 8z"/>
				<path fill="#2A557F"
					  d="M460.5 483.6c-1.8.9-3.7 1.8-5.6 2.8-.1-2.5-.1-5 0-7.5 1.9-.9 3.8-1.8 5.6-2.7v5c-.1.8-.1 1.6 0 2.4z"/>
			</g>
			<g clip-path="url(#a)">
				<path fill="#2A557F"
					  d="M496.1 603.6c-1-2.1-1.9-4.1-2.9-6.2 26.1-19.2 52.7-56.9 62.7-80.5l6.6 2.3c-1.8 4.1-12.4 22.8-17.1 31.3-3.4 5.1-7.3 10.6-11.7 16.2-9.2 11.9-21.9 25.6-37.6 36.9z"/>
				<path fill="#013C51"
					  d="M496.1 603.6c-1.1.8-2.2 1.5-3.3 2.3-.8.5-1.5 1-2.3 1.5 0-.1-.1-.1-.1-.2-1-2-1.9-4-2.8-5.9 1.9-1.3 3.7-2.6 5.6-3.9 1 2.1 1.9 4.1 2.9 6.2zM486 610.3c-4.9 2.9-10.1 5.6-15.5 7.9-2.1.2-3.4-.8-5-.7-.6-1.6-1.9-2-2.4-3.5l2.4-.9c6.2-2.4 12-5.4 17.6-8.8.9 1.9 1.7 3.7 2.6 5.5.1.1.2.3.3.5z"/>
				<path fill="#8F4253"
					  d="M490.5 607.4c-1.5 1-3 1.9-4.6 2.8-.1-.2-.2-.4-.3-.5-.9-1.8-1.8-3.7-2.6-5.5 1.6-.9 3.1-1.9 4.6-2.9.9 2 1.8 3.9 2.8 5.9.1.1.1.2.1.2z"/>
			</g>
			<g clip-path="url(#a)">
				<path fill="#2A557F"
					  d="M481.1 565.9c-.8-2.4-1.5-4.7-2.2-7 20.5-18.3 43.4-59.5 50.7-72.5l11.2-2.8c-4.1 7.1-23.2 40.8-33 54.1-6.5 9-15.7 18.8-26.7 28.2z"/>
				<path fill="#3E719B"
					  d="M481.1 565.9c-1.8 1.5-3.6 3.1-5.5 4.6-.8-2.3-1.5-4.6-2.2-6.8 1.9-1.6 3.8-3.1 5.6-4.8.6 2.3 1.4 4.7 2.1 7z"/>
				<path fill="#2A557F"
					  d="M475.6 570.5c-1.5 1.2-3.1 2.4-4.7 3.6-.8-2.2-1.5-4.4-2.2-6.7 1.6-1.2 3.2-2.5 4.8-3.8.6 2.3 1.3 4.6 2.1 6.9z"/>
				<path fill="#3E719B"
					  d="M470.9 574.1c-5.4 4-11.2 7.7-17.4 11.1-.7-2.2-1.3-4.4-1.9-6.6 6.1-3.4 11.8-7.2 17.1-11.2.7 2.3 1.4 4.5 2.2 6.7z"/>
				<path fill="#8F4253"
					  d="M453.5 585.2c-1.8 1-3.6 1.9-5.4 2.8-.5-2.2-1-4.4-1.4-6.8 1.7-.8 3.3-1.7 4.9-2.6.6 2.2 1.2 4.4 1.9 6.6z"/>
			</g>
			<path fill="none" stroke="#FFF" stroke-width="2"
				  d="M471.6 458.9s-40.4 7.7-77.6 44M547.7 495.3s-26.7 79.5-93.6 105.1" clip-path="url(#a)"/>
			<path fill="none" stroke="#FFF" stroke-width="2" d="M448 436.4s-16.3 87.2 29.8 177.4" clip-path="url(#a)"/>
			<path fill="none" stroke="#000" stroke-width="7"
				  d="M512.1 596.9s-70.7 8.9-73.6-58.5c-2.5-57.5-27.5-64.3-34.8-65.1-1.2-.1-2-1.1-2.1-2.3l-.3-9.3c0-1 .9-1.9 1.9-1.6 4.9 1 17.5 2.9 24.1-2.3 5-3.9 6.9-6.5 7.6-7.8.4-.8 1.3-1.1 2.2-1l8.3 1.9c.6.1 1.1.5 1.5 1 1.4 1.9 5.6 6.8 14 9.1 10.5 2.9 47.5 4.3 58.1-3.2l12.7 13.8s-12.2 5.8-6.6 13.5c4.6 6.5 15.7-3.3 15.7-3.3l10.1 15.8s-15.7 7.6-10.7 16.8 19.8.6 19.8.6l5.8 17.8s-11.7 7.2-6.6 24.4c7.7 26.1-25.9 37.3-47.1 39.7z"/>
		</g>
	</g>
	<g id="RightHand--group">
		<g id="BeforeRightHand--part"/>
		<path d="M390.6 457c-5.2 5.1-11.7 8.1-17.8 8.1-8.1 0-14-5.1-15.6-13.3-1-5.4.9-11.3 5.4-16.7 5.8-6.9 14.9-12 21.7-12.1h.2c1.3 0 2.6.2 3.8.6h.2l.1.1c4.5 1.8 7.9 6.2 9.1 11.8 1.4 7.5-1.2 15.5-7.1 21.5z"/>
		<path d="M385.4 451.7c4.2-4.2 6-9.6 5-14.7-.6-3.1-2.3-5.5-4.6-6.4-.4-.1-.9-.2-1.3-.2h-.1c-4 0-11.3 3.6-16.1 9.4-1.8 2.1-4.6 6.3-3.8 10.6 1.1 6 5.1 7.3 8.3 7.3 4.1 0 8.8-2.2 12.6-6z" class="st0" fill="#fc0"/>
	</g>
	<g id="RightFoot--group">
		<path d="M384.3 648c-2.4 3.7-6.4 5.7-11.5 5.7-1.9 0-4-.3-6.2-.8-25-6-59.3-43.6-63.6-64.5-1.9-9.4-.2-18 5-24.4 4.6-5.7 11.4-8.8 18.9-8.8 6.8 0 13.6 2.5 19.8 7.3 12.2 9.4 32.9 50.5 37.3 60.7 2.5 5.8 4.9 17.7.3 24.8z"/>
		<path d="M310.1 586.8c3.8 18.2 36.2 53.6 58.1 58.8 1.7.4 3.2.6 4.5.6 3.4 0 4.7-1.3 5.4-2.3 2.3-3.5 1.5-12.1-1-17.9-6.1-13.9-25.3-50.3-35.1-57.8-4.9-3.8-10.2-5.8-15.3-5.8-5.3 0-10 2.2-13.2 6.1-3.6 4.7-4.8 11.2-3.4 18.3z" class="st0" fill="#fc0"/>
	</g>
	<g id="FullHead--group">
		<g id="BeforeHead--group">

		</g>
		<g id="RightEar--group">
			<path d="M413.3 399.4c-.4 4.4-3.8 8.4-11.1 12.9-4.7 3-10.2 5.5-13.9 6.5-6.5 1.7-12.3 2.6-17.3 2.6-6.7 0-10.6-1.6-12.7-2.9-4.8-3-4.4-7.2-4.2-8.5.5-3.1 2.9-5.5 5.9-6.2 3.5-.8 13.5-5.8 23.6-12.6 4.2-2.9 10.7-4.8 16.1-4.8 5.8 0 9.1 2.2 10.8 4.1 2.1 2.4 3.1 5.5 2.8 8.9z"/>
			<path d="M361.4 411.3c0 .3.4.7.9.9 1.1.7 3.6 1.8 8.8 1.8 4.3 0 9.5-.8 15.4-2.3 5.2-1.4 19.1-8.8 19.5-13 .1-1.3-.2-2.4-.9-3.2-1-1.1-2.8-1.7-5.3-1.7-3.9 0-8.9 1.5-11.9 3.5-8.5 5.7-20.5 12.5-26.1 13.7-.3.1-.4.2-.4.3z" class="st1" fill="#f80"/>
		</g>
		<g id="Head--group">
			<path d="M516.4 328.1c1.6 0 3.2 0 4.8.1 20.6.6 39.5 6.5 55.9 17 11.2 7.2 17.5 11.4 25.9 25.2 1.5 2.5 9 .8 7.9-1.1-10.1-17.6-17.5-22.3-29.8-30.3-17.7-11.4-37.8-17.6-59.7-18.2-1.6 0-3.3-.1-5-.1-1.6 0-3.3 0-4.9.1-24.3.6-47.8 6.6-67.8 17.1-20.2 10.6-37.1 26.1-48.9 44.7-7.7 12.3-10.3 23.9-7.4 33.5 2.4 7.8 7.9 12.7 12.3 14.6 1.4.6 2.9.9 4.7.9 9.3 0 34.7-9.3 45.7-24.8 8.4 4.5 17.6 6.7 28.1 6.7 12.6 0 25-3.2 36.4-6.9 3-1 3.8-2.2 3.9-4.1 0-1.3-1.2-3.6-3.8-3.5-.3 0-.7.1-1 .2-11.2 3.6-23.3 6.9-35.4 6.9-9.3 0-18.6-2-27.4-7.4-.6-.4-1.3-.5-1.9-.5-1.3 0-2.5.6-3.2 1.8l-.1.1c-7.9 14.3-33.3 24.1-41.2 24.1-.7 0-1.3-.1-1.7-.3-2.8-1.2-6.6-4.6-8.2-10-2.3-7.5 0-17 6.6-27.4 22.5-35.7 63.4-57.1 110.6-58.3 1.4-.1 3-.1 4.6-.1"/>
			<path d="M516.6 399.4c-1-.4-2-.7-3-.3-19.7 6.3-42.5 12-62.8-.5-1.7-1.1-4-.5-5.1 1.2l-.1.1c-8.6 15.7-38.3 26-43 23.9-2.8-1.2-6.6-4.6-8.2-10-2.3-7.5 0-17 6.6-27.4 22.5-35.7 63.4-57.1 110.6-58.3 3.1-.1 6.3-.1 9.5 0 20.6.6 39.5 6.5 55.9 17 13.2 8.5 19.7 12.7 30.6 33.6 5.6 10.5-84.4 23.5-91 20.7z" class="st0" fill="#fc0"/>
		</g>
		<g id="LeftEar--group">
			<path d="M701.4 357.1c-.5 1.7-1.2 3.4-2 5.2-5 10-17.7 23-38 29.1-4.5 1.4-9.3 2-14 2h-.1c-13 0-34.2-4.9-61.6-28.3-1.9-1.7-5.1-4.8-7.1-7-2.3-2.5-2.8-6.1-1.5-9.1s4.4-5.1 7.8-5.1h.5c13.9.8 30.1 1.2 48.4 1.2 8.1 0 14.8-.1 19.3-.1h4.5c7.4 0 13.3-.1 18.2-.1 8.1 0 13.7.1 17.1.2 2.9.1 5.6 1.5 7.3 3.9 1.5 2.3 2 5.2 1.2 8.1z"/>
			<path d="M590.4 359.4c25.7 21.9 45.1 26.5 56.8 26.5h.1c4 0 8-.6 11.9-1.7 18.1-5.4 29.2-16.6 33.5-25.3.8-1.5 1.2-2.8 1.5-3.9.4-1.3-.6-2.6-1.9-2.7-3.3-.1-8.9-.2-16.7-.2-5.4 0-11.6 0-18.2.1-3.3 0-12.2.2-23.9.2-13.9 0-31.7-.2-48.8-1.2h-.1c-.9 0-1.5 1.1-.8 1.8 2 2.2 5 5.1 6.6 6.4z" class="st1" fill="#f80"/>
		</g>
		<g id="Face--group">
			<path d="M417.6 376.2c-4.1 0-7.4 3.3-7.4 7.4 0 9.9 14.8 9.9 14.8 0 0-4.1-3.3-7.4-7.4-7.4z"/>
			<path d="M503.2 355.7c-4.1 0-7.4 3.3-7.4 7.4 0 9.9 14.8 9.9 14.8 0 0-4.1-3.3-7.4-7.4-7.4z"/>
			<path d="M457.9 375.4c-7.4.8-12.3 2.5-15.6 4.9-5.9 4.4-4.1 9.9 2.5 10.7 6.6.8 7.1 1.2 13.2-3.3 6.5-4.9 7.3-13.1-.1-12.3z"/>
		</g>
	</g>
	<g id="LeftLeg--group">
		<path d="M512.4 655.2c-4.6-5.2-3.7-15.7-1.9-29.4 2.6-19.8 5-34.5 25.4-50.8 24.4-19.5 62.2-15 76.2-.5 3.6 3.7 6.7 10.9 7.3 18.8.9 11.4-22.2 42.4-44.8 51.8-22.6 9.6-54 19.3-62.2 10.1z" class="st0" fill="#fc0"/>
		<path d="M512.4 658.9c-1.2 0-2.3-.5-3-1.6-4.7-6.7-4.5-17.2-2.6-32 2.5-19 4.6-35.5 26.8-53.2 26.8-21.4 63.7-14 78.4.7 1.4 1.4 1.4 3.8 0 5.2-1.4 1.4-3.8 1.4-5.2 0-12.5-12.5-45.4-18.7-68.6-.1-18.9 15.1-21.4 28.2-24.1 48.4-1.4 11-2.3 21.8 1.3 26.7 1.2 1.7.8 4-.9 5.2-.6.5-1.4.7-2.1.7z"/>
	</g>
	<g id="LeftFoot--group">
		<path d="M523.7 651.2c-.4 1.9-2 9.1-6.7 16.2-7 10.6-17.8 16.5-30.4 16.5-7.2 0-12.9-2.1-16.8-6.2-7.5-7.8-7.1-21-6.7-33.7v-.1c.2-6.4.4-13.1-.4-18.5-.7-4.4-1.8-9.1-3.1-14.5-2.4-10.2-4.6-20.1-4.3-28.7.4-10.7 4.7-18.9 12.8-24.4 3.5-2.4 7.4-3.5 11.4-3.5 9.3 0 18.9 6.2 28.7 18.6 7.1 8.9 13.1 20 15.4 28.1 6.4 21.8 4.9 34.9.1 50.2z"/>
		<path d="M477 670.8c2 2.1 5.2 3.1 9.6 3.1 22.6 0 27-23.7 27.2-24.7 0-.2.1-.4.1-.6 4.4-13.9 5.7-25.2 0-44.8-3.7-13.2-21.1-39.4-34.4-39.4-2 0-4 .6-5.8 1.9-11.7 7.8-9.3 21.8-4.4 42.4 1.2 5.1 2.5 10.4 3.2 15.3 1 6.4.8 13.5.5 20.4-.2 10.6-.6 21.6 4 26.4z" class="st0" fill="#fc0"/>
	</g>
	<g id="LeftArm--group">
		<g id="BeforeLeftArm--part"/>
		<path d="M478 413.3c-6.4 2.9-12.4 6.6-17.6 11.1-12.1 10.6-12.6 19.4-10.8 24.8 2.5 7.7 11.1 13.4 21.9 14.6 7.1.7 16.2-1.3 26.7-3.6 13.9-3.1 29.7-6.6 42.9-3.9 19.6 4.1 33.3 15 53.1 32.7l10.3 9.2c1.5 1.3 3.9 1.2 5.2-.4 1.3-1.5 1.2-3.9-.4-5.2l-2.9-2.6c-24-21.7-39.9-36-63.8-41-14.8-3.1-31.3.6-46 3.9-9.5 2.1-18.5 4.1-24.3 3.5-7.8-.8-14.1-4.6-15.7-9.5-1.5-4.7 1.6-10.7 8.7-17 20.7-18.2 59.1-23.7 87.5-12.5 4.7 1.9 7.4-5.1 2.7-6.9-11.4-4.4-24.6-6.6-37.7-6.2-10.1.4-30.5 4.8-39.8 9z"/>
		<path d="M615.4 451c11.7 12.2 17 60.3-6 41.6l-2.9-2.6c-24-21.7-39.9-36-63.8-41-14.8-3.1-31.3.6-46 3.9-9.5 2.1-18.5 4.1-24.3 3.5-7.8-.8-14.1-4.6-15.7-9.5-1.5-4.7 1.6-10.7 8.7-17 20.7-18.2 59.3-24 87.5-12.5 4.6 2 46.1 16.5 62.5 33.6z" class="st0" fill="#fc0"/>
	</g>
	<g>
		<g class="Front--group">
			<g class="Front--group_bagpipes">
				<path fill="#444" d="m542.9 460.2 40.5-46.7-5.8-5.8-46.4 40.3"/>
				<path fill="#FCF5F0" d="m582.8 396.4-5.2 11.3 5.8 5.8 11.1-4.9z"/>
				<path fill="#444" d="m593 406.4 27.7-32-3.9-4-31.9 27.7"/>
				<path fill="#FCF5F0" d="m620.3 362.7-3.5 7.7 3.9 4 7.6-3.3zM527.8 445l-8.7 12.7 12.7 13.8 14.1-7.4z"/>
				<path fill="#444" d="m564.4 487.6 47.1-40.2-4.9-6.6-52 33"/>
				<path fill="#FCF5F0" d="m613.3 430.4-6.7 10.4 4.9 6.6 11.6-3.2z"/>
				<path fill="#444" d="m621.9 441.8 32.2-27.5-3.3-4.5-35.6 22.6"/>
				<path fill="#FCF5F0" d="m655.4 402.7-4.6 7.1 3.3 4.5 8-2.2zM551.6 470.7l-10.7 11 10.1 15.8 15.2-4.8z"/>
				<path fill="#444" d="m581.9 528 56-26.3-3-7.7-58.8 18.1"/>
				<path fill="#FCF5F0" d="m644.2 485.8-9.3 8.2 3 7.7h12z"/>
				<path fill="#444" d="m649.4 499.1 38.4-18-2-5.3-40.3 12.4"/>
				<path fill="#FCF5F0" d="m692.1 470.2-6.3 5.6 2 5.3h8.3zM573.3 507l-13.2 8 5.8 17.8 16-.9z"/>
				<path fill="none" stroke="#000" stroke-width="4" d="m542.9 460.2 40.5-46.7-5.8-5.8-46.4 40.3"/>
				<path fill="none" stroke="#000" stroke-width="4"
					  d="m582.8 396.4-5.2 11.3 5.8 5.8 11.1-4.9zM593 406.4l27.7-32-3.9-4-31.9 27.7"/>
				<path fill="none" stroke="#000" stroke-width="4"
					  d="m620.3 362.7-3.5 7.7 3.9 4 7.6-3.3zM527.8 445l-8.7 12.7 12.7 13.8 14.1-7.4zM564.4 487.6l47.1-40.2-4.9-6.6-52 33"/>
				<path fill="none" stroke="#000" stroke-width="4"
					  d="m613.3 430.4-6.7 10.4 4.9 6.6 11.6-3.2zM621.9 441.8l32.2-27.5-3.3-4.5-35.6 22.6"/>
				<path fill="none" stroke="#000" stroke-width="4"
					  d="m655.4 402.7-4.6 7.1 3.3 4.5 8-2.2zM551.6 470.7l-10.7 11 10.1 15.8 15.2-4.8zM581.9 528l56-26.3-3-7.7-58.8 18.1M644.2 485.8l-9.3 8.2 3 7.7h12zM649.4 499.1l38.4-18-2-5.3-40.3 12.4M692.1 470.2l-6.3 5.6 2 5.3h8.3zM573.3 507l-13.2 8 5.8 17.8 16-.9z"/>
			</g>
		</g>
	</g>
</svg>
