<?xml version="1.0" encoding="utf-8"?>
<!-- Generator: Adobe Illustrator 25.2.0, SVG Export Plug-In . SVG Version: 6.00 Build 0)  -->
<svg version="1.1" id="Layer_1" xmlns="http://www.w3.org/2000/svg" xmlns:xlink="http://www.w3.org/1999/xlink" x="0px" y="0px"
	 viewBox="0 0 1000 1000" style="enable-background:new 0 0 1000 1000;" xml:space="preserve">
<style type="text/css">
	.st0{fill:#3D621A;}
</style>
<g id="Cap--group">
	<g id="CapTop--group">
		<path id="CapTop--bg" d="M567.2,251.7L528,265.1c-5.4,1.8-11.1,3.9-16.9,6.2c-20.8,8.2-39.3,17.4-46.1,21.1l-5.8,3.1l-2.6,1.4
			l-2.9-0.8c-13.7-3.9-29.6-8.1-46-9.5l-0.2,0l-0.2,0c-0.3,0-0.6-0.1-0.9-0.1l-0.6-0.1l-26.9-3.3l24.9-10.8
			c33.7-14.6,70.5-21.7,112.5-21.7c3.2,0,6.5,0,9.8,0.1L567.2,251.7z"/>
		<path id="CapTop" class="st0" d="M408.1,279.2c16.4,1.4,32.1,5.4,47.4,9.7l5.8-3.1c7-3.8,25.8-13.1,46.9-21.4
			c6.1-2.4,11.8-4.5,17.3-6.4c-41.2-1.1-81.1,4.5-119.1,21C407,279.1,407.6,279.2,408.1,279.2z"/>
	</g>
	<g id="CapBottom--group">
		<path id="CapBottom--bg" d="M586,283.8c5.4,16.7,9.7,40.8,0.3,61.3l-2.3,5l-5.4-0.8c-4.1-0.6-15.9-2-20.6-2h-0.4
			c-53,1.4-113.1,2.9-155.9,38.2l-5.3,4.4l-4.8-5c-16.2-17.1-21.9-40.7-14.9-61.6c0.2-0.5,0.4-1,0.6-1.5c-5.7-2.1-10.3-4.3-13.9-6.7
			c-9-6.1-10.2-12.5-9.6-16.8c0.6-4.5,3.6-10.9,14.9-15.5c7.1-2.9,16.4-4.5,26.1-4.5c4.4,0,8.9,0.3,13.4,1
			c16.4,1.4,32.2,5.4,47.4,9.7l5.8-3.1c7-3.8,25.8-13.1,46.9-21.4c26.1-10.3,46.3-15.5,60.2-15.5c9.3,0,16.3,2.4,20.7,7.2
			c3.8,4.1,5.4,9.5,4.8,16.2C593.6,278.2,590,281.7,586,283.8z"/>
		<path id="CapBottom" class="st0" d="M397,379.8c-13.7-14.4-19.6-35.3-13.2-54.2c0.6-1.8,1.3-2.6,3.3-1.7c5.3,3.5,12.1-2.5,4.9-5.4
			c-57.3-14.5-24.7-37.7,15.3-31.9c19,1.6,37.2,6.9,55.4,12.1c6.7,2.7,7.8-5.2,2.2-6.4c20.8-11.2,125.2-60.7,121.8-20.7
			c-0.6,6.8-9.9,7.5-15.7,9.3c-4.3,0.5-3.1,6.9,0.8,6.2c2.1-0.2,4.2-0.8,7-1.3c5.6,17.5,8.7,38.8,0.7,56.2c0,0-16.4-2.2-22.2-2.1
			C502,341.4,441.1,343.4,397,379.8z"/>
	</g>
</g>
</svg>
