<svg xmlns="http://www.w3.org/2000/svg" viewBox="0 0 1000 1000">
  <g class="Body--group" >
    <path fill="#8f4149" d="M646.203 457.936c-18.767 7.941-49.084-3.34-70.39-13.627-8.68-4.194-14.664-6.693-23.94-8.849-15.196-3.529-33.588-1.573-48.084 4.945-14.497 6.52-28.275 15.122-43.14 20.46-12.321 4.422-28.929 6.325-41.765 7.856-3.909.465-10.495.726-14.13-.893-4.348-1.936-4.807-6.258-7.534-10.507-2.744-4.275-1.883-9.07-.844-14.25 1.727-8.596 11.94-10.202 19.774-9.857 15.286.675 30.77 1.458 45.767-2.17 24.878-6.016 46.885-23.8 72.037-28.012 9.096-1.523 18.328-1.213 27.501-.898 10.374.355 21.007.77 30.572 5.168 5.29 2.43 10.137 6.04 15.625 7.866 9.139 3.039 19.404.918 28.158 5.122 10.93 5.25 16.74 20.9 12.411 33.434"/>
    <path fill="#100f0d" d="M414.252 436.926c-4.87 0-12.998.915-14.197 6.883-1.014 5.055-1.54 8.582.322 11.483.99 1.546 1.703 3.054 2.331 4.387 1.26 2.677 1.94 3.995 3.573 4.723 2.503 1.11 7.912 1.098 12.16.592l.912-.107c12.652-1.506 28.398-3.38 40.026-7.554 8.83-3.169 17.521-7.65 25.929-11.988 5.5-2.839 11.189-5.773 16.941-8.362 15.286-6.873 34.626-8.856 50.474-5.175 9.497 2.204 15.777 4.8 24.722 9.122 29.781 14.377 53.595 19.21 67.117 13.624a3.713 3.713 0 0 1 .112-2.056c3.69-10.677-1.308-24.416-10.487-28.826-4.187-2.01-8.984-2.371-14.064-2.751-4.48-.335-9.11-.683-13.657-2.194-3.642-1.213-6.92-3.074-10.092-4.872-2.029-1.15-3.947-2.239-5.913-3.144-8.997-4.137-19.234-4.487-29.135-4.827-8.852-.303-18.005-.618-26.752.847-12.901 2.161-24.855 8-37.513 14.182-10.952 5.348-22.279 10.88-34.262 13.78-15.185 3.671-30.752 2.98-45.806 2.315l-1.01-.045a39.125 39.125 0 0 0-1.73-.037zm-1.296 35.91c-3.274 0-6.958-.348-9.727-1.579-4.253-1.896-5.877-5.34-7.309-8.379-.581-1.235-1.131-2.398-1.856-3.531-3.644-5.676-2.38-11.961-1.365-17.013 1.76-8.765 10.371-13.444 23.617-12.867l1.009.045c14.533.643 29.558 1.309 43.71-2.113 11.19-2.706 22.143-8.057 32.734-13.229 12.581-6.145 25.59-12.498 39.564-14.84 9.497-1.588 19.033-1.26 28.252-.948 10.147.35 21.645.746 32.01 5.513 2.256 1.038 4.402 2.254 6.48 3.434 2.99 1.696 5.816 3.3 8.76 4.277 3.661 1.218 7.638 1.519 11.85 1.831 5.55.418 11.288.848 16.75 3.472 12.554 6.03 19.25 23.806 14.333 38.038a3.742 3.742 0 0 1-1.909 2.149 3.75 3.75 0 0 1-2.193 4.294c-19.87 8.407-50.922-2.811-73.485-13.704-8.63-4.167-14.295-6.513-23.156-8.569-14.333-3.324-31.837-1.52-45.698 4.71-5.57 2.506-11.168 5.392-16.58 8.186-8.623 4.447-17.538 9.047-26.833 12.381-12.432 4.462-28.646 6.393-41.675 7.944l-.91.107c-1.412.168-3.76.39-6.373.39"/>
  </g>
  <g class="Front--group" >
    <path fill="#8f4149" d="M580.316 468.097c-1.469-8.959-6.864-16.688-11.649-24.404a218.393 218.393 0 0 1-15.345-29.582c-1.64-3.856-3.1-8.551-.715-11.998 2.304-3.331 7.02-3.276 11.036-3.817 14.079-1.888 33.253 1.411 43.428 10.273 1.095.955 1.753 2.3 2.308 3.644a142.824 142.824 0 0 1 10.74 56.7"/>
    <path fill="#100f0d" d="M620.12 472.665h-.065a3.755 3.755 0 0 1-3.69-3.815c.32-18.764-3.294-37.853-10.455-55.204-.355-.86-.785-1.796-1.305-2.25-9.57-8.335-28.004-11.056-40.465-9.38-.65.087-1.323.16-2 .232-2.815.308-5.476.593-6.448 1.999-1.382 1.998-.044 5.75 1.082 8.396a214.996 214.996 0 0 0 15.08 29.074l1.63 2.599c4.478 7.12 9.108 14.48 10.536 23.174a3.753 3.753 0 0 1-3.097 4.31c-2.033.342-3.974-1.051-4.31-3.095-1.18-7.198-5.212-13.606-9.481-20.395l-1.651-2.638a222.402 222.402 0 0 1-15.612-30.092c-1.158-2.727-4.242-9.97-.347-15.603 2.921-4.224 7.85-4.76 11.812-5.187.611-.068 1.22-.133 1.81-.21 14.45-1.936 35.038 1.27 46.393 11.16 1.696 1.478 2.624 3.38 3.31 5.042 7.548 18.292 11.36 38.416 11.022 58.193a3.751 3.751 0 0 1-3.75 3.69"/>
    <path fill="#c9c9c7" d="M583.787 450.259c3.494 6.595 5.065 12.598 6.989 17.38"/>
    <path fill="#100f0d" d="M590.776 471.391a3.752 3.752 0 0 1-3.482-2.353c-.62-1.543-1.206-3.21-1.829-4.978-1.275-3.636-2.72-7.758-4.992-12.043a3.75 3.75 0 0 1 1.558-5.072 3.754 3.754 0 0 1 5.07 1.555c2.536 4.785 4.082 9.19 5.445 13.074.58 1.659 1.128 3.22 1.709 4.665a3.748 3.748 0 0 1-2.081 4.88 3.728 3.728 0 0 1-1.398.272"/>
    <path fill="#c9c9c7" d="M596.483 450.259c3.494 6.595 2.564 12.598 4.487 17.38"/>
    <path fill="#100f0d" d="M600.97 471.391a3.752 3.752 0 0 1-3.481-2.353c-.958-2.384-1.316-4.905-1.664-7.339-.445-3.134-.905-6.378-2.656-9.684a3.75 3.75 0 1 1 6.628-3.512c2.367 4.465 2.972 8.72 3.457 12.138.31 2.179.578 4.055 1.198 5.598a3.752 3.752 0 0 1-3.482 5.152"/>
    <path fill="#c9c9c7" d="M607.481 450.259c3.494 6.595 3.24 11.18 3.24 17.38"/>
    <path fill="#100f0d" d="M610.718 471.391a3.752 3.752 0 0 1-3.752-3.751l.002-1.2c.015-5.471.025-9.085-2.801-14.425a3.755 3.755 0 0 1 1.558-5.073 3.758 3.758 0 0 1 5.073 1.561c3.704 6.996 3.689 12.076 3.674 17.959l-.003 1.178a3.75 3.75 0 0 1-3.751 3.751"/>
  </g>
</svg>