<svg xmlns="http://www.w3.org/2000/svg" viewBox="0 0 1000 1000">
  <path d="M436.6 504c-4.5 5.1-10.5 7.9-17 7.9-9.1 0-18.5-5.5-24.4-14.4-7.8-11.6-15.5-21.2-22.3-27.9l-4.8-4.7c-2-2-1.1-5.3 1.6-6.1l6.5-1.7c3.2-.9 6.4-2.7 9.1-5.5 3-3 4.8-6.7 5.2-10.4V430c0-1.3 1.5-2.1 2.5-1.3l9.3 6.9c.7.5 1.7 1.1 2.9 1.7 10.2 4.9 31.7 27.4 35.7 46.7 2.1 10.1-1.2 16.5-4.3 20z"/>
  <path fill="#fc0" d="M402.1 444.1c-1.5-.7-2.9-1.5-4.2-2.4-.5 5.5-3 11-7.3 15.3-3.7 3.7-8.1 6.2-12.5 7.4 8.7 8.6 17 19.8 23.2 29.1 4.5 6.7 11.6 11.1 18.3 11.1 4.1 0 8.1-1.6 11.4-5.4 13-14.8-17.3-49.6-28.9-55.1z" />
  <path d="M599.1 649.5c-9 25.7-26.4 50-50.3 70.3-23.8 20.3-51.8 34.7-81 41.6-6.9 1.6-14.1 2.5-21.5 2.5-30.8 0-58.9-13.9-74.8-27-13.6-11.1-21.2-23.3-20.9-33.5.4-12 6.7-20.7 16.8-23.3 2.1-.5 4.3-.8 6.7-.8 11.2 0 27.2 6.7 38.5 25.7 7.8 13.2 22 20.1 41.1 20.1h1.2c40.7-.8 87.6-31.2 109.1-70.8 7.7-14.1 13.2-29.6 17.1-40.8 1.9-5.4 3.6-10.1 5.1-13.5 1.3-3.1 4.1-9.4 10.4-9.4 4.1 0 7.6 1.8 9.9 5 5.5 7.6 3.3 23.3-7.4 53.9z"/>
  <path fill="#f80" d="M570.5 657.8c-22.7 41.7-72.5 73.9-115.5 74.7h-1.4c-21.6 0-38.3-8.4-47.4-23.8-9-15.1-22-22.1-32.1-22.1-1.7 0-3.3.2-4.8.6-7 1.8-11 7.6-11.3 16.4-.3 7.7 6.6 18 18.2 27.5 16.8 13.7 43.2 25.3 70.1 25.3 6.6 0 13.3-.7 19.8-2.3 57.2-13.5 108.5-57.4 126-107.1 5.4-15.3 16.7-49.2 4.5-49.2-4.5.1-10.8 31.8-26.1 60z" />
  <path d="M649.7 531.9c-2 24-6.7 45.1-13.9 62.9-8.5 20.9-20.3 36.6-35.1 46.8-34 23.4-64.8 26-76.4 26-1.3 0-2.5 0-3.8-.1-18.4-.8-26-4.4-32.7-7.5-5.9-2.8-11-5.2-24.9-5.7-37.5-1.5-67-9.9-83.1-23.6-.2-.1-.5-.4-.9-.7-4.8-3.5-19.3-14.3-25-24.7-5.3-9.7-6.2-22.3-2.3-31.4 13.4-31.2 24.5-40.5 33.5-48 3.6-3 6.4-5.3 8.8-8.7 2.2-3.1 3.8-7.1 4.9-12.2 0-.1 0-.2.1-.3 3.9-15 3.4-34.9 2.8-56-.2-5.7-.3-11.7-.4-17.5v-.1c0-18.6 9.6-40.7 25.7-59.2 18.1-20.8 41.6-33.6 66.1-36.2 20.2-2.1 34.3-3.1 45.9-3.1 43.7 0 58.6 14.8 82.2 48.4 7.5 10.6 12.1 22.5 16 33.7 11.1 30.4 15.9 76.5 12.5 117.2z"/>
  <path fill="#fc0" d="M358.5 576.7c-3 7-2.2 17.4 2 25 5.6 10.3 23 22.2 24.1 23.2 15.1 12.9 43.7 20.5 78.7 21.9 31.2 1.3 24.3 11.8 57.6 13.3 1.1 0 2.2.1 3.5.1 16.7 0 43.7-5 72.2-24.7 58-39.9 52.9-165.3 34-218.6-3.9-11.1-8.3-22.2-15.1-31.9-23.5-33.5-36.6-45.2-76.2-45.2-12.2 0-26.9 1.1-45.1 3.1-49.9 5.3-85.3 55.3-85.3 88.1.3 27.4 2.5 55.1-2.7 75.5-1.4 6.5-3.4 11.2-6 14.9-9.8 13.5-23.4 12.4-41.7 55.3z" />
  <path fill="#8f4149" d="M646.203 457.936c-18.767 7.941-49.084-3.34-70.39-13.627-8.68-4.194-14.664-6.693-23.94-8.849-15.196-3.529-33.588-1.573-48.084 4.945-14.497 6.52-28.275 15.122-43.14 20.46-12.321 4.422-28.929 6.325-41.765 7.856-3.909.465-10.495.726-14.13-.893-4.348-1.936-4.807-6.258-7.534-10.507-2.744-4.275-1.883-9.07-.844-14.25 1.727-8.596 11.94-10.202 19.774-9.857 15.286.675 30.77 1.458 45.767-2.17 24.878-6.016 46.885-23.8 72.037-28.012 9.096-1.523 18.328-1.213 27.501-.898 10.374.355 21.007.77 30.572 5.168 5.29 2.43 10.137 6.04 15.625 7.866 9.139 3.039 19.404.918 28.158 5.122 10.93 5.25 16.74 20.9 12.411 33.434"/>
  <path fill="#100f0d" d="M414.252 436.926c-4.87 0-12.998.915-14.197 6.883-1.014 5.055-1.54 8.582.322 11.483.99 1.546 1.703 3.054 2.331 4.387 1.26 2.677 1.94 3.995 3.573 4.723 2.503 1.11 7.912 1.098 12.16.592l.912-.107c12.652-1.506 28.398-3.38 40.026-7.554 8.83-3.169 17.521-7.65 25.929-11.988 5.5-2.839 11.189-5.773 16.941-8.362 15.286-6.873 34.626-8.856 50.474-5.175 9.497 2.204 15.777 4.8 24.722 9.122 29.781 14.377 53.595 19.21 67.117 13.624a3.713 3.713 0 0 1 .112-2.056c3.69-10.677-1.308-24.416-10.487-28.826-4.187-2.01-8.984-2.371-14.064-2.751-4.48-.335-9.11-.683-13.657-2.194-3.642-1.213-6.92-3.074-10.092-4.872-2.029-1.15-3.947-2.239-5.913-3.144-8.997-4.137-19.234-4.487-29.135-4.827-8.852-.303-18.005-.618-26.752.847-12.901 2.161-24.855 8-37.513 14.182-10.952 5.348-22.279 10.88-34.262 13.78-15.185 3.671-30.752 2.98-45.806 2.315l-1.01-.045a39.125 39.125 0 0 0-1.73-.037zm-1.296 35.91c-3.274 0-6.958-.348-9.727-1.579-4.253-1.896-5.877-5.34-7.309-8.379-.581-1.235-1.131-2.398-1.856-3.531-3.644-5.676-2.38-11.961-1.365-17.013 1.76-8.765 10.371-13.444 23.617-12.867l1.009.045c14.533.643 29.558 1.309 43.71-2.113 11.19-2.706 22.143-8.057 32.734-13.229 12.581-6.145 25.59-12.498 39.564-14.84 9.497-1.588 19.033-1.26 28.252-.948 10.147.35 21.645.746 32.01 5.513 2.256 1.038 4.402 2.254 6.48 3.434 2.99 1.696 5.816 3.3 8.76 4.277 3.661 1.218 7.638 1.519 11.85 1.831 5.55.418 11.288.848 16.75 3.472 12.554 6.03 19.25 23.806 14.333 38.038a3.742 3.742 0 0 1-1.909 2.149 3.75 3.75 0 0 1-2.193 4.294c-19.87 8.407-50.922-2.811-73.485-13.704-8.63-4.167-14.295-6.513-23.156-8.569-14.333-3.324-31.837-1.52-45.698 4.71-5.57 2.506-11.168 5.392-16.58 8.186-8.623 4.447-17.538 9.047-26.833 12.381-12.432 4.462-28.646 6.393-41.675 7.944l-.91.107c-1.412.168-3.76.39-6.373.39"/>
  <path d="M384.3 648c-2.4 3.7-6.4 5.7-11.5 5.7-1.9 0-4-.3-6.2-.8-25-6-59.3-43.6-63.6-64.5-1.9-9.4-.2-18 5-24.4 4.6-5.7 11.4-8.8 18.9-8.8 6.8 0 13.6 2.5 19.8 7.3 12.2 9.4 32.9 50.5 37.3 60.7 2.5 5.8 4.9 17.7.3 24.8z"/>
  <path fill="#fc0" d="M310.1 586.8c3.8 18.2 36.2 53.6 58.1 58.8 1.7.4 3.2.6 4.5.6 3.4 0 4.7-1.3 5.4-2.3 2.3-3.5 1.5-12.1-1-17.9-6.1-13.9-25.3-50.3-35.1-57.8-4.9-3.8-10.2-5.8-15.3-5.8-5.3 0-10 2.2-13.2 6.1-3.6 4.7-4.8 11.2-3.4 18.3z" />
  <path d="M413.3 399.4c-.4 4.4-3.8 8.4-11.1 12.9-4.7 3-10.2 5.5-13.9 6.5-6.5 1.7-12.3 2.6-17.3 2.6-6.7 0-10.6-1.6-12.7-2.9-4.8-3-4.4-7.2-4.2-8.5.5-3.1 2.9-5.5 5.9-6.2 3.5-.8 13.5-5.8 23.6-12.6 4.2-2.9 10.7-4.8 16.1-4.8 5.8 0 9.1 2.2 10.8 4.1 2.1 2.4 3.1 5.5 2.8 8.9z"/>
  <path fill="#f80" d="M361.4 411.3c0 .3.4.7.9.9 1.1.7 3.6 1.8 8.8 1.8 4.3 0 9.5-.8 15.4-2.3 5.2-1.4 19.1-8.8 19.5-13 .1-1.3-.2-2.4-.9-3.2-1-1.1-2.8-1.7-5.3-1.7-3.9 0-8.9 1.5-11.9 3.5-8.5 5.7-20.5 12.5-26.1 13.7-.3.1-.4.2-.4.3z" />
  <path d="M516.4 328.1c1.6 0 3.2 0 4.8.1 20.6.6 39.5 6.5 55.9 17 11.2 7.2 17.5 11.4 25.9 25.2 1.5 2.5 9 .8 7.9-1.1-10.1-17.6-17.5-22.3-29.8-30.3-17.7-11.4-37.8-17.6-59.7-18.2-1.6 0-3.3-.1-5-.1-1.6 0-3.3 0-4.9.1-24.3.6-47.8 6.6-67.8 17.1-20.2 10.6-37.1 26.1-48.9 44.7-7.7 12.3-10.3 23.9-7.4 33.5 2.4 7.8 7.9 12.7 12.3 14.6 1.4.6 2.9.9 4.7.9 9.3 0 34.7-9.3 45.7-24.8 8.4 4.5 17.6 6.7 28.1 6.7 12.6 0 25-3.2 36.4-6.9 3-1 3.8-2.2 3.9-4.1 0-1.3-1.2-3.6-3.8-3.5-.3 0-.7.1-1 .2-11.2 3.6-23.3 6.9-35.4 6.9-9.3 0-18.6-2-27.4-7.4-.6-.4-1.3-.5-1.9-.5-1.3 0-2.5.6-3.2 1.8l-.1.1c-7.9 14.3-33.3 24.1-41.2 24.1-.7 0-1.3-.1-1.7-.3-2.8-1.2-6.6-4.6-8.2-10-2.3-7.5 0-17 6.6-27.4 22.5-35.7 63.4-57.1 110.6-58.3 1.4-.1 3-.1 4.6-.1"/>
  <path fill="#fc0" d="M516.6 399.4c-1-.4-2-.7-3-.3-19.7 6.3-42.5 12-62.8-.5-1.7-1.1-4-.5-5.1 1.2l-.1.1c-8.6 15.7-38.3 26-43 23.9-2.8-1.2-6.6-4.6-8.2-10-2.3-7.5 0-17 6.6-27.4 22.5-35.7 63.4-57.1 110.6-58.3 3.1-.1 6.3-.1 9.5 0 20.6.6 39.5 6.5 55.9 17 13.2 8.5 19.7 12.7 30.6 33.6 5.6 10.5-84.4 23.5-91 20.7z" />
  <path d="M701.4 357.1c-.5 1.7-1.2 3.4-2 5.2-5 10-17.7 23-38 29.1-4.5 1.4-9.3 2-14 2h-.1c-13 0-34.2-4.9-61.6-28.3-1.9-1.7-5.1-4.8-7.1-7-2.3-2.5-2.8-6.1-1.5-9.1s4.4-5.1 7.8-5.1h.5c13.9.8 30.1 1.2 48.4 1.2 8.1 0 14.8-.1 19.3-.1h4.5c7.4 0 13.3-.1 18.2-.1 8.1 0 13.7.1 17.1.2 2.9.1 5.6 1.5 7.3 3.9 1.5 2.3 2 5.2 1.2 8.1z"/>
  <path fill="#f80" d="M590.4 359.4c25.7 21.9 45.1 26.5 56.8 26.5h.1c4 0 8-.6 11.9-1.7 18.1-5.4 29.2-16.6 33.5-25.3.8-1.5 1.2-2.8 1.5-3.9.4-1.3-.6-2.6-1.9-2.7-3.3-.1-8.9-.2-16.7-.2-5.4 0-11.6 0-18.2.1-3.3 0-12.2.2-23.9.2-13.9 0-31.7-.2-48.8-1.2h-.1c-.9 0-1.5 1.1-.8 1.8 2 2.2 5 5.1 6.6 6.4z" /><path d="M417.6 376.2c-4.1 0-7.4 3.3-7.4 7.4 0 9.9 14.8 9.9 14.8 0 0-4.1-3.3-7.4-7.4-7.4zm85.6-20.5c-4.1 0-7.4 3.3-7.4 7.4 0 9.9 14.8 9.9 14.8 0 0-4.1-3.3-7.4-7.4-7.4z"/>
  <path d="M457.9 375.4c-7.4.8-12.3 2.5-15.6 4.9-5.9 4.4-4.1 9.9 2.5 10.7 6.6.8 7.1 1.2 13.2-3.3 6.5-4.9 7.3-13.1-.1-12.3z" />
  <path fill="#fc0" d="M512.4 655.2c-4.6-5.2-3.7-15.7-1.9-29.4 2.6-19.8 5-34.5 25.4-50.8 24.4-19.5 62.2-15 76.2-.5 3.6 3.7 6.7 10.9 7.3 18.8.9 11.4-22.2 42.4-44.8 51.8-22.6 9.6-54 19.3-62.2 10.1z" />
  <path d="M512.4 658.9c-1.2 0-2.3-.5-3-1.6-4.7-6.7-4.5-17.2-2.6-32 2.5-19 4.6-35.5 26.8-53.2 26.8-21.4 63.7-14 78.4.7 1.4 1.4 1.4 3.8 0 5.2-1.4 1.4-3.8 1.4-5.2 0-12.5-12.5-45.4-18.7-68.6-.1-18.9 15.1-21.4 28.2-24.1 48.4-1.4 11-2.3 21.8 1.3 26.7 1.2 1.7.8 4-.9 5.2-.6.5-1.4.7-2.1.7z"/>
  <path d="M523.7 651.2c-.4 1.9-2 9.1-6.7 16.2-7 10.6-17.8 16.5-30.4 16.5-7.2 0-12.9-2.1-16.8-6.2-7.5-7.8-7.1-21-6.7-33.7v-.1c.2-6.4.4-13.1-.4-18.5-.7-4.4-1.8-9.1-3.1-14.5-2.4-10.2-4.6-20.1-4.3-28.7.4-10.7 4.7-18.9 12.8-24.4 3.5-2.4 7.4-3.5 11.4-3.5 9.3 0 18.9 6.2 28.7 18.6 7.1 8.9 13.1 20 15.4 28.1 6.4 21.8 4.9 34.9.1 50.2z"/>
  <path fill="#fc0" d="M477 670.8c2 2.1 5.2 3.1 9.6 3.1 22.6 0 27-23.7 27.2-24.7 0-.2.1-.4.1-.6 4.4-13.9 5.7-25.2 0-44.8-3.7-13.2-21.1-39.4-34.4-39.4-2 0-4 .6-5.8 1.9-11.7 7.8-9.3 21.8-4.4 42.4 1.2 5.1 2.5 10.4 3.2 15.3 1 6.4.8 13.5.5 20.4-.2 10.6-.6 21.6 4 26.4z" />
  <path d="M478 413.3c-6.4 2.9-12.4 6.6-17.6 11.1-12.1 10.6-12.6 19.4-10.8 24.8 2.5 7.7 11.1 13.4 21.9 14.6 7.1.7 16.2-1.3 26.7-3.6 13.9-3.1 29.7-6.6 42.9-3.9 19.6 4.1 33.3 15 53.1 32.7l10.3 9.2c1.5 1.3 3.9 1.2 5.2-.4 1.3-1.5 1.2-3.9-.4-5.2l-2.9-2.6c-24-21.7-39.9-36-63.8-41-14.8-3.1-31.3.6-46 3.9-9.5 2.1-18.5 4.1-24.3 3.5-7.8-.8-14.1-4.6-15.7-9.5-1.5-4.7 1.6-10.7 8.7-17 20.7-18.2 59.1-23.7 87.5-12.5 4.7 1.9 7.4-5.1 2.7-6.9-11.4-4.4-24.6-6.6-37.7-6.2-10.1.4-30.5 4.8-39.8 9z"/>
  <path fill="#fc0" d="M615.4 451c11.7 12.2 17 60.3-6 41.6l-2.9-2.6c-24-21.7-39.9-36-63.8-41-14.8-3.1-31.3.6-46 3.9-9.5 2.1-18.5 4.1-24.3 3.5-7.8-.8-14.1-4.6-15.7-9.5-1.5-4.7 1.6-10.7 8.7-17 20.7-18.2 59.3-24 87.5-12.5 4.6 2 46.1 16.5 62.5 33.6z" />
  <path d="M390.6 457c-5.2 5.1-11.7 8.1-17.8 8.1-8.1 0-14-5.1-15.6-13.3-1-5.4.9-11.3 5.4-16.7 5.8-6.9 14.9-12 21.7-12.1h.2c1.3 0 2.6.2 3.8.6h.2l.1.1c4.5 1.8 7.9 6.2 9.1 11.8 1.4 7.5-1.2 15.5-7.1 21.5z"/>
  <path fill="#fc0" d="M385.4 451.7c4.2-4.2 6-9.6 5-14.7-.6-3.1-2.3-5.5-4.6-6.4-.4-.1-.9-.2-1.3-.2h-.1c-4 0-11.3 3.6-16.1 9.4-1.8 2.1-4.6 6.3-3.8 10.6 1.1 6 5.1 7.3 8.3 7.3 4.1 0 8.8-2.2 12.6-6z" />
  <path fill="#8f4149" d="M580.316 468.097c-1.469-8.959-6.864-16.688-11.649-24.404a218.393 218.393 0 0 1-15.345-29.582c-1.64-3.856-3.1-8.551-.715-11.998 2.304-3.331 7.02-3.276 11.036-3.817 14.079-1.888 33.253 1.411 43.428 10.273 1.095.955 1.753 2.3 2.308 3.644a142.824 142.824 0 0 1 10.74 56.7"/>
  <path fill="#100f0d" d="M620.12 472.665h-.065a3.755 3.755 0 0 1-3.69-3.815c.32-18.764-3.294-37.853-10.455-55.204-.355-.86-.785-1.796-1.305-2.25-9.57-8.335-28.004-11.056-40.465-9.38-.65.087-1.323.16-2 .232-2.815.308-5.476.593-6.448 1.999-1.382 1.998-.044 5.75 1.082 8.396a214.996 214.996 0 0 0 15.08 29.074l1.63 2.599c4.478 7.12 9.108 14.48 10.536 23.174a3.753 3.753 0 0 1-3.097 4.31c-2.033.342-3.974-1.051-4.31-3.095-1.18-7.198-5.212-13.606-9.481-20.395l-1.651-2.638a222.402 222.402 0 0 1-15.612-30.092c-1.158-2.727-4.242-9.97-.347-15.603 2.921-4.224 7.85-4.76 11.812-5.187.611-.068 1.22-.133 1.81-.21 14.45-1.936 35.038 1.27 46.393 11.16 1.696 1.478 2.624 3.38 3.31 5.042 7.548 18.292 11.36 38.416 11.022 58.193a3.751 3.751 0 0 1-3.75 3.69"/>
  <path fill="#c9c9c7" d="M583.787 450.259c3.494 6.595 5.065 12.598 6.989 17.38"/>
  <path fill="#100f0d" d="M590.776 471.391a3.752 3.752 0 0 1-3.482-2.353c-.62-1.543-1.206-3.21-1.829-4.978-1.275-3.636-2.72-7.758-4.992-12.043a3.75 3.75 0 0 1 1.558-5.072 3.754 3.754 0 0 1 5.07 1.555c2.536 4.785 4.082 9.19 5.445 13.074.58 1.659 1.128 3.22 1.709 4.665a3.748 3.748 0 0 1-2.081 4.88 3.728 3.728 0 0 1-1.398.272"/>
  <path fill="#c9c9c7" d="M596.483 450.259c3.494 6.595 2.564 12.598 4.487 17.38"/>
  <path fill="#100f0d" d="M600.97 471.391a3.752 3.752 0 0 1-3.481-2.353c-.958-2.384-1.316-4.905-1.664-7.339-.445-3.134-.905-6.378-2.656-9.684a3.75 3.75 0 1 1 6.628-3.512c2.367 4.465 2.972 8.72 3.457 12.138.31 2.179.578 4.055 1.198 5.598a3.752 3.752 0 0 1-3.482 5.152"/>
  <path fill="#c9c9c7" d="M607.481 450.259c3.494 6.595 3.24 11.18 3.24 17.38"/>
  <path fill="#100f0d" d="M610.718 471.391a3.752 3.752 0 0 1-3.752-3.751l.002-1.2c.015-5.471.025-9.085-2.801-14.425a3.755 3.755 0 0 1 1.558-5.073 3.758 3.758 0 0 1 5.073 1.561c3.704 6.996 3.689 12.076 3.674 17.959l-.003 1.178a3.75 3.75 0 0 1-3.751 3.751"/>
</svg>