<svg xmlns="http://www.w3.org/2000/svg" viewBox="0 0 1000 1000">
  <g class="Background--group">
    <path fill="#005683" d="M627.638 478.66s55.118-27.371 61.621-52.188l-68.063-3.785z"/>
    <path fill="none" stroke="#231815" stroke-width="4.073" d="M626.946 481.134s57.578-28.593 64.371-54.517l-71.1-3.955z"/>
  </g>
  <g class="FullHead--group">
    <path fill="#00709c" d="M513.18 412.872s51.812-20.951 89.138-15.202c35.496 5.467 64.636 30.667 87.858 27.41.213-.03.283.267.079.33-12.89 3.941-57.732 17.367-66.59 16.17-10.371-1.402-49.408-35.708-110.485-28.708z"/>
    <path fill="#058499" d="M621.17 404.37c-6.408-2.202-13.051-4.018-19.94-5.079-26.317-4.053-54.439 3.459-88.36 15.07 31.875-6.829 75.88-18.868 108.3-9.99z"/>
    <path fill="none" stroke="#231815" stroke-linecap="round" stroke-linejoin="round" stroke-width="5.43" d="M509.09 412.581s54.204-21.917 93.253-15.903c37.134 5.719 67.62 32.083 91.913 28.675.223-.032.296.28.082.345-13.485 4.124-60.396 18.168-69.662 16.916-10.85-1.466-51.69-37.356-115.586-30.033z"/>
  </g>
</svg>