<?xml version="1.0" encoding="UTF-8" standalone="no"?>
<svg
   version="1.1"
   id="レイヤー_1"
   x="0px"
   y="0px"
   width="275.496px"
   height="289.299px"
   viewBox="0 0 275.496 289.299"
   enable-background="new 0 0 275.496 289.299"
   xml:space="preserve"
   sodipodi:docname="preview.svg"
   inkscape:version="1.2.2 (b0a8486, 2022-12-01)"
   xmlns:inkscape="http://www.inkscape.org/namespaces/inkscape"
   xmlns:sodipodi="http://sodipodi.sourceforge.net/DTD/sodipodi-0.dtd"
   xmlns="http://www.w3.org/2000/svg"
   xmlns:svg="http://www.w3.org/2000/svg"><defs
   id="defs317">
		
	
		
		
	
		
		
	
		
		
	
		
		
	
			
			
		

				
			
		
			
			
			
			
		
			
			
			
			
		</defs><sodipodi:namedview
   id="namedview315"
   pagecolor="#ffffff"
   bordercolor="#666666"
   borderopacity="1.0"
   inkscape:showpageshadow="2"
   inkscape:pageopacity="0.0"
   inkscape:pagecheckerboard="0"
   inkscape:deskcolor="#d1d1d1"
   showgrid="false"
   inkscape:zoom="4.6665375"
   inkscape:cx="178.82638"
   inkscape:cy="64.930368"
   inkscape:window-width="1387"
   inkscape:window-height="768"
   inkscape:window-x="0"
   inkscape:window-y="25"
   inkscape:window-maximized="0"
   inkscape:current-layer="XMLID_2_" />
<g
   id="XMLID_2_">
	
	
	
	
	
	
	
	
	
	<g
   id="g630"
   inkscape:label="head"><path
     id="XMLID_53_"
     fill="#231815"
     d="M 90.674,57.021 C 89.508,56.995 88.472,56.272 88.046,55.186 87.828,54.63 82.785,41.413 90.212,28.523 96.564,17.5 109.848,10.376 129.697,7.348 c 3.741,-0.57 7.507,-0.86 11.193,-0.86 47.838,0 74.009,46.974 75.099,48.974 0.494,0.906 0.468,2.007 -0.068,2.888 -0.525,0.863 -1.462,1.388 -2.47,1.388 -0.005,0 -7.68181,-0.169813 -19.19319,-0.424531 C 182.74644,59.05875 176.62984,40.496115 161.28409,40.15649 145.93834,39.816865 125.32174,39.221995 111.80148,43.818857 100.90276,47.524401 90.674,57.021 90.674,57.021 Z"
     sodipodi:nodetypes="ccccscsssssc" /><path
     id="XMLID_52_"
     fill="#ffffff"
     d="m 90.738,54.129 c 0,0 -14.037,-35.772 39.395,-43.923 53.432,-8.151 83.317,46.64 83.317,46.64 z" /><path
     id="XMLID_281_"
     fill="#e1e2ef"
     d="m 130.132,10.207 c -7.427,1.133 -13.547,2.801 -18.585,4.831 18.908,9.647 18.7363,8.383602 31.3003,25.468602 L 213.449,56.847 C 213.45,56.846 183.564,2.056 130.132,10.207 Z"
     sodipodi:nodetypes="scccs" /><path
     id="XMLID_295_"
     fill="none"
     stroke="#231815"
     stroke-width="4.3378"
     stroke-linecap="round"
     stroke-linejoin="round"
     d="m 245.851,71.031 c 0,0 -24.708,-1.31 -29.797,-8.681 L 207.55659,60.608788 221.283,60.712 Z"
     sodipodi:nodetypes="ccccc" /><path
     id="XMLID_294_"
     fill="none"
     stroke="#231815"
     stroke-width="4.3378"
     stroke-linecap="round"
     stroke-linejoin="round"
     d="m 218.499,61.368 c 0,0 14.741,3.931 32.757,16.051 18.016,12.12 16.87,12.12 16.87,12.12 l 7.37,-4.258 c 0,0 -38.981,-24.24 -54.213,-24.568 z" /><path
     id="XMLID_290_"
     fill="#af0e29"
     d="m 245.851,71.031 c 0,0 -25.54819,-0.959919 -30.63719,-8.330919 l -0.6293,-2.453782 6.69849,0.465701 z"
     sodipodi:nodetypes="ccccc" /><path
     id="XMLID_293_"
     fill="none"
     stroke="#231815"
     stroke-width="4.3378"
     stroke-linecap="round"
     stroke-linejoin="round"
     d="m 217.824,71.687 c 0,0 14.433,9.172 21.639,16.215 7.206,7.043 14.085,17.852 14.085,17.852 0,0 3.931,-4.258 2.948,-8.844 -0.983,-4.586 -13.582,-17.689 -25.544,-23.749 l -11.962,-6.06 -10.94318,-6.321916 -1.19516,4.558011 z"
     sodipodi:nodetypes="cscsscccc" /><path
     id="XMLID_292_"
     fill="none"
     stroke="#231815"
     stroke-width="4.3378"
     stroke-linecap="round"
     stroke-linejoin="round"
     d="m 256.497,96.909 c -0.668,-3.118 -6.708,-10.171 -14.264,-16.273 3.025,5.03 4.634,11.048 5.686,17.099 3.33,4.407 5.63,8.019 5.63,8.019 0,0 3.931,-4.259 2.948,-8.845 z" /><path
     id="XMLID_289_"
     fill="#e60012"
     d="m 215.80338,60.422782 c 0,0 17.43662,4.876218 35.45262,16.996218 18.016,12.12 16.87,12.12 16.87,12.12 l 7.37,-4.258 c 0,0 -38.981,-24.24 -54.213,-24.568 z"
     sodipodi:nodetypes="cscccc" /><path
     id="XMLID_288_"
     fill="#af0e29"
     d="m 217.824,71.687 c 0,0 14.433,9.172 21.639,16.215 7.206,7.043 14.085,17.852 14.085,17.852 0,0 3.931,-4.258 2.948,-8.844 -0.983,-4.586 -13.582,-17.689 -25.544,-23.749 l -11.962,-6.06 -9.78006,-5.403669 -1.07273,4.435579 z"
     sodipodi:nodetypes="cscsscccc" /><path
     id="XMLID_287_"
     fill="#e60012"
     d="m 256.497,96.909 c -0.668,-3.118 -6.708,-10.171 -14.264,-16.273 3.025,5.03 4.634,11.048 5.686,17.099 3.33,4.407 5.63,8.019 5.63,8.019 0,0 3.931,-4.259 2.948,-8.845 z" /><path
     id="XMLID_80_"
     fill="none"
     stroke="#231815"
     stroke-width="2.1689"
     stroke-linecap="round"
     stroke-linejoin="round"
     d="m 185.56,45.124 -0.188,1.142 -0.361,2.147 -0.477,2.856 c 0,0 -37.377,-12.529 -58.133,-10.223 -20.749,2.306 -36.23589,14.728675 -36.23589,14.728675 l -0.036,-0.253 -0.275,-2.003 -0.159,-1.135 c 0,0 4.90989,-17.280675 28.31989,-22.572675 23.408,-5.299 67.545,15.313 67.545,15.313 z"
     sodipodi:nodetypes="ccccccccccc" /><path
     id="XMLID_79_"
     fill="none"
     stroke="#231815"
     stroke-width="2.1689"
     stroke-linecap="round"
     stroke-linejoin="round"
     d="m 184.671,46.034 -0.333,2.176 C 177,45.998 164.551,42.267 157.184,40.257 146.238,37.271 131.954,34.624 118.383,36.96 109.493,38.491 97.92611,48.543675 92.26111,53.322675 l -1.504,1.128 -0.202,-1.793 C 94.38711,48.037675 104.495,38.052 118.578,34.488 c 15.854,-4.004 51.265,6.659 66.093,11.546 z"
     sodipodi:nodetypes="ccccccccc" /><path
     id="XMLID_62_"
     fill="#246591"
     stroke="#231815"
     stroke-width="1.4459"
     stroke-linecap="round"
     stroke-linejoin="round"
     stroke-miterlimit="10"
     d="m 185.56,45.124 -0.188,1.142 -0.361,2.147 -0.477,2.856 c 0,0 -37.377,-12.529 -58.133,-10.223 -20.749,2.306 -36.23589,14.728675 -36.23589,14.728675 l -0.036,-0.253 -0.275,-2.003 -0.159,-1.135 c 0,0 4.90989,-17.280675 28.31989,-22.572675 23.408,-5.299 67.545,15.313 67.545,15.313 z"
     sodipodi:nodetypes="ccccccccccc" /><path
     id="XMLID_61_"
     fill="#ffffff"
     d="m 184.671,46.034 -0.333,2.176 C 177,45.998 164.551,42.267 157.184,40.257 146.238,37.271 131.954,34.624 118.383,36.96 109.493,38.491 97.92611,48.543675 92.26111,53.322675 l -1.504,1.128 -0.202,-1.793 C 94.38711,48.037675 104.495,38.052 118.578,34.488 c 15.854,-4.004 51.265,6.659 66.093,11.546 z"
     sodipodi:nodetypes="ccccccccc" /><path
     id="XMLID_119_"
     fill="#e1e2ef"
     d="M 208.565,66.725 C 195.79,74.208 174.369,45 168.788,36.925 l 1.431,0.152 31.369,3.311 1.757,0.181 c 4.497,4.409 17.648,18.861 5.22,26.156 z" /><path
     id="XMLID_117_"
     fill="#231815"
     d="m 205.066,40.749 -1.721,-0.181 -1.757,-0.181 c 1.974,1.829 11.791,11.343 11.061,18.956 -0.26,2.66 -1.771,4.764 -4.634,6.442 -1.207,0.708 -2.566,1.07 -4.034,1.07 -11.791,0 -28.246,-21.92 -33.762,-29.779 l -1.431,-0.152 -1.424,-0.152 c 4.208,6.203 22.701,32.251 36.618,32.251 1.858,0 3.586,-0.455 5.126,-1.366 3.463,-2.024 5.379,-4.757 5.697,-8.112 0.671,-7.048 -6.009,-14.972 -9.739,-18.796 z" /><path
     id="XMLID_115_"
     fill="#CED0E0"
     d="M139.311,21.728l10.421,8.539l19.055,5.886c0,0-9.23-7.648-14.374-9.422   C149.269,24.956,139.311,21.728,139.311,21.728z" /><path
     id="XMLID_41_"
     fill="#231815"
     d="m 169.935,38.98 c 0,0 -0.375,-0.412 -1.032,-1.133 -0.168,-0.172 -0.339,-0.399 -0.551,-0.578 -0.212,-0.178 -0.441,-0.372 -0.686,-0.578 -0.485,-0.414 -1.017,-0.888 -1.709,-1.342 -0.663,-0.473 -1.36,-1.007 -2.174,-1.484 -0.793,-0.501 -1.63,-1.027 -2.542,-1.507 -0.45,-0.249 -0.907,-0.501 -1.37,-0.757 -0.475,-0.237 -0.955,-0.477 -1.44,-0.719 -0.961,-0.497 -1.966,-0.951 -2.968,-1.407 -2.003,-0.919 -4.059,-1.729 -5.972,-2.519 -1.928,-0.759 -3.739,-1.437 -5.294,-2.013 -1.56,-0.56 -2.86,-1.027 -3.77,-1.354 C 139.519,23.278 139,23.1 139,23.1 l -0.031,-0.011 c -0.563,-0.193 -0.862,-0.805 -0.67,-1.368 0.188,-0.548 0.777,-0.847 1.327,-0.683 0,0 0.542,0.162 1.49,0.446 0.943,0.284 2.279,0.712 3.864,1.279 1.592,0.548 3.423,1.263 5.375,2.052 0.97,0.413 1.979,0.819 2.984,1.286 1.002,0.473 2.033,0.919 3.037,1.434 1.01,0.499 2.02,0.995 2.992,1.537 0.489,0.264 0.973,0.526 1.452,0.784 0.469,0.279 0.933,0.555 1.389,0.826 0.921,0.524 1.777,1.098 2.586,1.647 0.823,0.521 1.552,1.105 2.228,1.632 0.682,0.503 1.27,1.076 1.789,1.577 0.53,0.494 0.975,0.928 1.255,1.315 0.617,0.755 0.969,1.187 0.969,1.187 0.253,0.309 0.206,0.765 -0.103,1.017 -0.299,0.244 -0.733,0.209 -0.99,-0.072 z" /></g>
	
	

	

	
	
	
	
	
	<g
   id="g592"
   inkscape:label="navi  latz"><g
     id="XMLID_108_">
		<path
   id="XMLID_39_"
   fill="none"
   stroke="#231815"
   stroke-width="2.1689"
   d="M207.95,113.873c0,0,30.665-15.228,34.283-29.035    l-37.867-2.106L207.95,113.873z" />
		<path
   id="XMLID_38_"
   fill="#005683"
   d="M207.95,113.873c0,0,30.665-15.228,34.283-29.035l-37.867-2.106L207.95,113.873z" />
	</g><g
     id="XMLID_13_">
		<path
   id="XMLID_31_"
   fill="none"
   stroke="#231815"
   stroke-width="2.8918"
   stroke-linecap="round"
   stroke-linejoin="round"
   d="    M145.182,77.363c0,0,28.868-11.673,49.665-8.47c19.777,3.046,36.013,17.087,48.951,15.272c0.119-0.017,0.158,0.149,0.044,0.184    c-7.182,2.196-32.166,9.676-37.101,9.009C200.962,92.577,179.212,73.463,145.182,77.363z" />
		<path
   id="XMLID_30_"
   fill="#00709C"
   d="M145.182,77.363c0,0,28.868-11.673,49.665-8.47c19.777,3.046,36.013,17.087,48.951,15.272    c0.119-0.017,0.158,0.149,0.044,0.184c-7.182,2.196-32.166,9.676-37.101,9.009C200.962,92.577,179.212,73.463,145.182,77.363z" />
	</g><g
     id="XMLID_10_">
		<path
   id="XMLID_28_"
   fill="#058499"
   d="M206.056,71.748c-3.602-1.238-7.336-2.259-11.208-2.855    c-14.792-2.278-30.599,1.944-49.665,8.47C163.099,73.525,187.833,66.758,206.056,71.748z" />
	</g></g>
	
	
</g>
</svg>
