<svg xmlns="http://www.w3.org/2000/svg" viewBox="0 0 1000 1000">
  <g class="Background--group">
    <path fill="#2224" stroke="#020202" stroke-width="7" d="M673.992 401.969s.137-15.072-67.856-5.673c-67.996 9.4-8.64 45.47-8.64 45.47l76.496-39.797"/>
  </g>
  <g class="RightArm--group">
    <path fill="#383434" stroke="#000" stroke-linecap="round" stroke-linejoin="round" stroke-width="7" d="M410.43 517.972c10.629 18.65 33.02-43.943 21.12-57.187-11.902-13.246-31.516-28.268-39.917-32.027-8.401-3.758-29.619 6.314-25.796 28.056 3.383 19.25 19.668 17.424 44.593 61.158"/>
  </g>
  <g class="Body--group">
    <path fill="#383434" stroke="#000" stroke-linecap="round" stroke-linejoin="round" stroke-width="7" d="M399.512 505.703c5.162-20.604 2.748-74.844 2.748-74.844s36.636 19.706 84.678 7.396c38.288-11.129 47.414-18.623 152.197-10.91 0 0 18.91 69.03 5.146 133.24 0 0-199.325 44.28-278.126-13.058 15.594-23.592 28.196-21.22 33.357-41.824z"/>
    <path fill="#383434" stroke="#000" stroke-linecap="round" stroke-linejoin="round" stroke-width="7" d="M483.22 437.803c45.762-17.881 129.183-2.57 140.337-.256 11.154 2.311 27.906 4.27 38.724.704 9.364-3.088 23.967-11.607 22.816-23.142-.574-5.763-3.078-11.567-14.045-17.159-35.458 27.124-137.073-2.305-190.003 40.852"/>
    <path fill="#383434" stroke="#0d0d0d" stroke-linecap="round" stroke-linejoin="round" stroke-width="7" d="M442.315 441.809c-14.347-13.105-36.757-18.49-39.279-7.916-4.52 18.954 14.226 5.62 39.28 7.916"/>
    <path fill="#fff" d="m442.15 568.19-7.554-.889c.035-.3 3.83-31.041 19.759-121.956l7.499 1.275c-15.883 90.65-19.666 121.273-19.704 121.57"/>
    <path fill="#9b9c9b" d="m439.73 566.652-2.518-.3c.036-.287 3.724-29.731 19.643-120.582l2.5.425c-15.903 90.761-19.59 120.172-19.625 120.457"/>
    <path fill="#848586" d="M451.983 457.43c-1.201-.66-1.635-2.168-.964-3.348l3.763-6.626c.67-1.183 2.204-1.61 3.405-.95a2.45 2.45 0 0 1 .963 3.351l-3.762 6.626c-.672 1.18-2.204 1.608-3.405.948"/>
    <path fill="#fff" d="M490.255 497.355a2.14 2.14 0 0 1-1.254-.702c-.8-.91-.737-2.315.146-3.137 7.493-6.988 13.871-24.45 7.33-34.256-4.246-6.362-1.69-20.99 3.247-26.86a2.113 2.113 0 0 1 3.043-.22c.902.805 1 2.207.223 3.134-3.803 4.519-6.05 16.805-2.957 21.438 8.185 12.275.74 31.924-7.986 40.059a2.105 2.105 0 0 1-1.792.544m-68.64-5.849a1.956 1.956 0 0 1-1.306-.818c-6.136-8.862-3.885-25.51 4.378-32.39 6-4.996 6.39-11.049 6.648-15.055.027-.422.053-.818.083-1.181.087-1.058 1.03-1.847 2.107-1.757a1.925 1.925 0 0 1 1.791 2.079c-.028.342-.052.715-.078 1.112-.264 4.087-.754 11.693-8.02 17.742-6.691 5.57-8.652 20.108-3.68 27.288.609.88.38 2.076-.512 2.673a1.97 1.97 0 0 1-1.411.307"/>
    <path fill="#dededd" d="M484.622 503.714c-.981-.66-1.262-2.023-.625-3.03l3.574-5.653a2.094 2.094 0 0 1 2.943-.636c.982.658 1.263 2.023.626 3.031l-3.574 5.653a2.096 2.096 0 0 1-2.944.635m-59.69-5.847c-1.008.323-2.103-.225-2.433-1.217l-1.854-5.567a1.893 1.893 0 0 1 1.231-2.391c1.008-.323 2.103.225 2.434 1.218l1.854 5.565c.33.993-.224 2.07-1.232 2.392"/>
  </g>
  <g class="LeftArm--group">
    <path fill="#383434" d="M616.15 451.25c15.825 23.199 9.5 45.926 4.5 45.975l-12.4 2.274c-3.252 4.048-20.152-19.001-42.052-30-14.8-3.1-5.501-47.1 22.699-35.6 4.6 2 10.853.251 27.253 17.351z" />
    <path fill="#383434" stroke="#000" stroke-linecap="round" stroke-linejoin="round" stroke-width="27.819" d="M1471.903 1038.405c-151.868 121.455-284.781 140.828-457.933 90.025-26.228-8.62-3.04-194.789 23.39-194.645 102.81 32.939 222.257 57.664 415.591-87.424" transform="matrix(.25364 -.00015 .00048 -.24963 221.276 695.702)"/>
  </g>
</svg>