<svg version="1.1" id="wapuugotchi_svg__item" viewBox="0 0 1e3 1e3" xmlns="http://www.w3.org/2000/svg">
	<g class="BeforeLeftArm--part">
		<path d="M513.7,397.1c0.6-1.3,0.4-2.8-0.5-3.9L507,386c-0.4-0.4-0.8-0.7-1.3-1l-7.8-3.5c-0.5-0.2-1-0.3-1.6-0.3l-9.4,0.1
			c-1.4,0-2.7,0.9-3.3,2.2L451.3,454c-0.3,0.7-0.4,1.4-0.3,2.1c-0.6,0.4-1.1,0.9-1.4,1.6l-1.7,3.6c-0.9,1.9,0,4.1,1.8,4.9l4.4,2
			l-2.9,6.4L428,527.9l-3.1,4.5c-0.3,0.4-0.4,0.8-0.6,1.2l-2.5,10.6c-0.4,1.7,0.5,3.5,2.1,4.2l3.9,1.8c1.6,0.7,3.5,0.2,4.5-1.2
			l6.4-8.9c0.3-0.4,0.5-0.8,0.6-1.2l1.4-5.3l25.2-52.6l2.9-6.3l4.4,2c1.9,0.9,4.1,0,4.9-1.8l1.7-3.6c0.3-0.7,0.4-1.4,0.3-2.1
			c0.6-0.4,1.1-0.9,1.4-1.6L513.7,397.1z"/>
		<polygon fill="#C37531" points="460.8,462.7 459.3,460.9 457.7,459.1 456.2,457.3 454.7,455.5 458.7,446.7 462.8,437.9 466.8,429
			470.9,420.2 474.9,411.4 479,402.5 483,393.7 487,384.9 489.4,384.9 491.7,384.8 494.1,384.8 496.5,384.8 492,394.5 487.5,404.3
			483.1,414 478.6,423.8 474.2,433.5 469.7,443.2 465.2,453 	"/>
		<polygon fill="#AA5700" points="468.5,466.3 467.6,465.8 466.6,465.4 465.6,464.9 464.7,464.5 463.7,464.1 462.7,463.6 461.8,463.2
			460.8,462.7 465.2,453 469.7,443.2 474.2,433.5 478.6,423.8 483.1,414 487.5,404.3 492,394.5 496.5,384.8 497.4,385.2 498.4,385.7
			499.4,386.1 500.3,386.6 501.3,387 502.3,387.5 503.2,387.9 504.2,388.3 499.7,398.1 495.3,407.8 490.8,417.6 486.4,427.3
			481.9,437 477.5,446.8 473,456.5 	"/>
		<polygon fill="#DCDCDC" points="454.7,476 459.2,466.3 460.1,466.7 461.1,467.2 462.1,467.6 463,468.1 464,468.5 465,468.9
			465.9,469.4 466.9,469.8 462.4,479.6 436.3,532 435.7,538 429.3,546.9 428.3,546.4 427.4,546 426.4,545.5 425.4,545.1 427.9,534.5
			432.1,530.1 	"/>
		<polygon fill="#C37531" points="478,466.2 475.6,466.2 473.2,466.2 470.9,466.2 468.5,466.3 473,456.5 477.5,446.8 481.9,437
			486.4,427.3 490.8,417.6 495.3,407.8 499.7,398.1 504.2,388.3 505.7,390.1 507.2,391.9 508.8,393.7 510.3,395.5 506.2,404.4
			502.2,413.2 498.2,422 494.1,430.9 490.1,439.7 486,448.5 482,457.3 	"/>
		<polygon fill="#C37531" points="474.6,473.5 468.8,470.8 463,468.1 457.2,465.5 451.4,462.8 451.8,461.9 452.2,461 452.6,460.1
			453,459.2 458.8,461.8 464.7,464.5 470.5,467.2 476.3,469.8 475.9,470.7 475.5,471.6 475,472.5 	"/>
	</g>
</svg>
