<svg version="1.1" id="wapuugotchi_svg__item" viewBox="0 0 1e3 1e3" xmlns="http://www.w3.org/2000/svg">
  <g class="Body--group">
    <circle transform="rotate(-45.001 470.62 529.32)" cx="470.6" cy="529.3" r="133.5"/>
    <circle cx="470.6" cy="529.3" r="126.1" fill="#9dc75f"/>
    <path d="M516.5 520.1c-.5.3-1 .6-1.5.8l-1.5.9c-1 .7-2.1 1.3-3.1 2.1-.6.4-1 .8-1.6 1.1-.5.4-1.1.8-1.6 1.3-1 .8-2.1 1.8-3 2.7-1 1-1.9 1.9-2.8 2.9-.9 1-1.8 1.9-2.5 3-.8.9-1.5 1.9-2.2 2.9-.6.9-1.3 1.9-1.9 2.7-.3.5-.6.9-1 1.4 20.8 1 24-2.4 24.5-23.1-.5.5-1.1.9-1.8 1.3m-23 15.2c.8-.9 1.7-1.9 2.6-2.8 1-1 2-1.9 3.1-2.8 1.1-.9 2.2-1.9 3.3-2.7 1.2-.8 2.3-1.7 3.5-2.4.6-.4 1.2-.7 1.8-1.1.6-.4 1.2-.7 1.8-1 1.2-.7 2.3-1.2 3.5-1.8.6-.3 1.1-.5 1.6-.8.6-.3 1.1-.5 1.5-.6.6-.3 1.1-.5 1.5-.6-19-1.3-26.1-1.5-26.1 19 .7-1 1.3-1.7 1.9-2.4" fill="#fff"/>
    <path d="M363.3 495c-1-.3-1.5-.5-2.4-.9 0-.3 0-.7.1-1 .1-.4.1-.7.2-1 .2-.6.4-1.2.8-1.8 3 1.1 4.4 1.6 7.4 2.7-2.1 7.3-3.2 10.9-5.4 18.2-.9-.1-1.7-.4-2.6-.7-.8-.3-1.6-.6-2.5-1.1 1.7-5.8 2.5-8.7 4.2-14.4h.2zm1.3-7.2c.1-.8.2-1.7.5-2.5.2-.8.5-1.5.9-2.3.4.1.9.2 1.4.3.5.1.9.3 1.3.4.4.2.8.3 1.3.5s.9.4 1.3.6c-.1.4-.1.9-.2 1.2-.3.9-.4 1.4-.7 2.3-.1.4-.3.8-.5 1.2-.5 0-.9-.1-1.4-.3s-.9-.3-1.3-.4c-.4-.2-.8-.3-1.3-.5-.5-.1-.9-.3-1.3-.5zm9.5 6.2c.4.1.7.1 1 .2.4.1.7.2 1.1.3.4.1.8.3 1 .4.2.1.6.3.9.5 0 .2.1.3.1.5s0 .5-.1.7c0 .3-.1.5-.1.8 0 .2-.1.4-.1.7.3-.3.8-.5 1.1-.8.5-.2.9-.5 1.4-.6.5-.1 1-.2 1.6-.2.6 0 1.2.1 1.8.3 2 .7 3.4 1.8 4.1 3.3.7 1.5.6 3.5-.1 5.9-1.4 4.7-2.1 7.1-3.6 11.8-.9-.1-1.7-.4-2.6-.6-.8-.3-1.6-.6-2.4-1.1 1.3-4.2 1.9-6.2 3.1-10.4.4-1.3.5-2.4.3-3.2-.2-.8-.8-1.4-1.7-1.8-.4-.1-.8-.2-1.3-.2s-.9.1-1.3.3c-.5.2-.9.6-1.3 1.2-.5.7-.8 1.5-1.1 2.3-1.2 3.9-1.7 5.9-2.9 9.8-.9-.1-1.7-.4-2.5-.6-.8-.3-1.6-.6-2.4-1.1 2.2-7.5 3.3-11.2 5.5-18.7.3.2.4.2.5.3zm20.2 7c.4.1.7.1 1 .2.4.1.6.2 1 .4.6.2 1.2.5 1.8.9 0 .2.1.3.1.5v.9c0 .3 0 .5-.1.8 0 .3-.1.5-.1.7.3-.4.7-.6 1.1-.9.4-.3.8-.5 1.3-.7.5-.1 1-.2 1.6-.2.6 0 1.2.1 1.7.3 1 .3 1.8.8 2.5 1.5s1.3 1.6 1.7 2.5c.4 1 .5 2.1.5 3.4 0 1.3-.3 2.8-.8 4.3s-1.1 2.9-1.9 3.9c-.8 1.1-1.7 2-2.8 2.6-1.1.6-2.3 1-3.5 1-1.3.1-2.6-.1-4.2-.6-.4-.1-.8-.3-1.1-.4-.4-.2-.6-.3-.9-.5-1 3.3-1.5 4.9-2.5 8.2-.5-.1-.9-.1-1.3-.2l-1.2-.3c-.4-.1-.8-.3-1.2-.4-.4-.1-.8-.3-1.2-.6 2.8-9.1 5.5-18.2 8.3-27.3.1-.1.2 0 .2 0zm.3 16.2c.5.4 1.2.7 2 1 1.4.5 2.6.3 3.6-.4 1-.8 1.8-2 2.4-4 .2-.8.4-1.4.5-2.2 0-.7 0-1.3-.1-1.8-.1-.6-.3-1-.7-1.4-.3-.4-.8-.7-1.3-.9-.6-.2-1.1-.2-1.5-.1-.5.1-.9.3-1.3.6s-.7.7-1 1.2c-.3.5-.5 1.1-.7 1.6-.9 2.6-1.2 3.8-1.9 6.4-.1 0-.1 0 0 0zm20.5 2.2c-1.2-.8-2-1.7-2.6-2.7-.5-1-.5-2.2 0-3.7.5-1.7 1.6-2.9 3.2-3.5 1.6-.6 3.5-.5 5.7.3.9.3 1.9.7 2.7 1.2.8.4 1.6 1 2.5 1.7-.3.6-.6 1.2-1 1.8-.4.6-.8 1.1-1.2 1.4-.5-.4-1.1-.8-1.7-1.2-.6-.4-1.3-.7-2.1-1-.8-.3-1.5-.3-2-.3-.5.1-.9.4-1 .9-.2.6-.1.9.1 1.2.3.3.7.7 1.2 1.1.7.5 1.1.8 1.8 1.3.6.4 1.1.8 1.6 1.2.5.4.8.9 1 1.5.2.5.4 1.1.4 1.8s0 1.4-.3 2.2c-.3.8-.7 1.6-1.3 2.2-.6.6-1.3 1.1-2.2 1.4-.9.3-1.8.5-2.9.4-1.1 0-2.3-.2-3.5-.6-.6-.2-1.1-.4-1.5-.6-.5-.2-.9-.3-1.3-.6-.4-.2-.8-.5-1.2-.7-.4-.3-.8-.5-1.2-.9.2-.6.6-1.2 1-1.8.4-.5.8-1.1 1.3-1.7.7.5 1.3 1.1 2 1.4.6.3 1.4.7 2.1.9.4.1.7.2 1.1.3.4.1.8.1 1.2 0 .4 0 .7-.2 1-.3.3-.2.5-.4.7-.8.2-.6.1-1-.1-1.4-.3-.4-.7-.7-1.2-1.1-1-.5-1.5-.8-2.3-1.3zm14-6.8c.5 0 1 .1 1.5.3 1.1.3 1.6.5 2.6.9.5.2 1 .4 1.3.7-.5 6.9-.7 10.3-1.3 17.1 3.8-5.8 5.7-8.7 9.5-14.4.8.1 1.6.3 2.5.6.4.1.7.2 1.1.4.4.1.9.3 1.5.7-5.7 8-8.5 12.1-14.2 20.2-.5.8-1.2 1.5-1.8 1.8-.6.5-1.2.8-1.7.9-.6.2-1.2.2-1.9.1-.7 0-1.4-.2-2.1-.4-.6-.2-1.2-.4-1.7-.7-.6-.2-1-.5-1.4-.9.1-.2.1-.3.2-.5.2-.6.4-1.1.7-1.5.3-.4.6-.9.9-1.3.2.1.4.3.8.5.3.2.7.3 1 .4.3.1.6.2.9.2s.6 0 1-.1c.3-.1.7-.3 1.1-.6.4-.4.8-.8 1.1-1.3.5-.8.8-1.2 1.3-2-.3-.1-.6-.1-.9-.2-.7-.2-1.1-.3-1.8-.6-.2-.1-.5-.1-.6-.3.2-8 .2-11.9.4-20zm33.3 3.5c.4.1.8.1 1.2.2l1.2.3c.4.1.8.3 1.2.4.4.1.8.3 1.2.5-3.2 9.5-4.8 14.2-8 23.7-1.2 0-2.4-.1-3.5-.2-1.2-.1-2.5-.5-4.1-1-1.2-.4-2.3-.9-3.3-1.5-1-.7-1.7-1.5-2.3-2.5-.6-1-.9-2.1-1.1-3.4-.1-1.2.1-2.7.6-4.3.4-1.3 1-2.4 1.8-3.4s1.7-1.8 2.8-2.4c1.1-.6 2.3-1 3.5-1.1 1.2-.1 2.5 0 3.9.4.4.1.8.3 1.2.4.4.1.8.4 1.2.6 1.1-2.6 1.5-4 2.5-6.7zm-3.6 10.7c-.4-.3-.7-.4-1-.5-.2-.1-.6-.3-1-.4-.7-.2-1.4-.3-2.1-.2-.6.2-1.2.4-1.8.8-.6.4-1 .9-1.4 1.5-.4.6-.7 1.3-1 2.1-.3.9-.4 1.7-.4 2.5s.2 1.3.4 1.8c.3.5.6.9 1.1 1.3.5.4 1 .6 1.7.8.4.1.7.2 1.1.3.3.1.7.1 1.1.1 1.3-4.1 2-6.1 3.3-10.1zm11.7 10.6c-.4 1.4-.2 2.5.4 3.4.6.8 1.7 1.5 3.1 2 .8.2 1.6.4 2.5.5.9.1 1.7.1 2.5.1.1.5.1 1.1.1 1.8s-.2 1.3-.3 2.1c-2 .1-4.1-.1-6.3-.8-1.6-.5-3-1.1-4-1.9-1-.8-1.7-1.7-2.2-2.7-.5-1-.6-2.1-.7-3.4 0-1.3.3-2.5.7-3.8.5-1.3 1-2.4 1.8-3.4s1.7-1.8 2.6-2.5c1-.6 2.2-1 3.3-1.1 1.2-.2 2.6 0 4 .4 1.3.4 2.2.9 3 1.6.8.7 1.5 1.5 1.9 2.5.4.9.6 2 .6 3 0 1.1-.2 2.2-.6 3.4-.2.4-.3.8-.5 1.2-.1.4-.3.7-.5.9-4.6-1.3-6.8-2-11.4-3.3 0-.1 0 0 0 0zm8-1.3c.3-1 .3-2.1-.1-2.9-.3-.8-1-1.4-2-1.7-1.1-.3-2.1-.3-2.9.1-.8.5-1.5 1.2-2 2.3 2.9 1 4.3 1.4 7 2.2zm3.7 13c.1-.8.3-1.6.6-2.3.3-.7.6-1.4 1-2.2.4.1.8.1 1.3.2l1.2.3c.4.1.8.2 1.2.4.4.2.8.3 1.1.5-.1.4-.1.8-.2 1.1-.1.4-.2.8-.3 1.1-.1.3-.3.7-.4 1.1-.1.4-.3.8-.6 1.2-.4-.1-.8-.1-1.3-.2l-1.2-.3c-.4-.1-.8-.2-1.2-.4-.5-.2-.9-.3-1.2-.5" fill="#3e3c3d"/>
  </g>
</svg>
