<?xml version="1.0" encoding="utf-8"?>
<!-- Generator: Adobe Illustrator 25.2.0, SVG Export Plug-In . SVG Version: 6.00 Build 0)  -->
<svg version="1.1" id="Layer_1" xmlns="http://www.w3.org/2000/svg" xmlns:xlink="http://www.w3.org/1999/xlink" x="0px" y="0px"
	 viewBox="0 0 1000 1000" style="enable-background:new 0 0 1000 1000;" xml:space="preserve">
<style type="text/css">
	.st0{fill:#9DC75F;}
	.st1{fill:#FFFFFF;}
	.st2{fill:#3E3C3D;}
</style>
<g id="Ball--group">
	
		<ellipse id="Ball-bg" transform="matrix(0.7071 -0.7071 0.7071 0.7071 -236.4377 487.8127)" cx="470.6" cy="529.3" rx="133.5" ry="133.5"/>
	<circle id="Ball_1_" class="st0" cx="470.6" cy="529.3" r="126.1"/>
	<g>
		<g>
			<path class="st1" d="M516.5,520.1c-0.5,0.3-1,0.6-1.5,0.8c-0.5,0.3-1,0.6-1.5,0.9c-1,0.7-2.1,1.3-3.1,2.1c-0.6,0.4-1,0.8-1.6,1.1
				c-0.5,0.4-1.1,0.8-1.6,1.3c-1,0.8-2.1,1.8-3,2.7c-1,1-1.9,1.9-2.8,2.9c-0.9,1-1.8,1.9-2.5,3c-0.8,0.9-1.5,1.9-2.2,2.9
				c-0.6,0.9-1.3,1.9-1.9,2.7c-0.3,0.5-0.6,0.9-1,1.4c20.8,1,24-2.4,24.5-23.1C517.8,519.3,517.2,519.7,516.5,520.1 M493.5,535.3
				c0.8-0.9,1.7-1.9,2.6-2.8c1-1,2-1.9,3.1-2.8c1.1-0.9,2.2-1.9,3.3-2.7c1.2-0.8,2.3-1.7,3.5-2.4c0.6-0.4,1.2-0.7,1.8-1.1
				c0.6-0.4,1.2-0.7,1.8-1c1.2-0.7,2.3-1.2,3.5-1.8c0.6-0.3,1.1-0.5,1.6-0.8c0.6-0.3,1.1-0.5,1.5-0.6c0.6-0.3,1.1-0.5,1.5-0.6
				c-19-1.3-26.1-1.5-26.1,19C492.3,536.7,492.9,536,493.5,535.3"/>
			<path class="st2" d="M363.3,495c-1-0.3-1.5-0.5-2.4-0.9c0-0.3,0-0.7,0.1-1c0.1-0.4,0.1-0.7,0.2-1c0.2-0.6,0.4-1.2,0.8-1.8
				c3,1.1,4.4,1.6,7.4,2.7c-2.1,7.3-3.2,10.9-5.4,18.2c-0.9-0.1-1.7-0.4-2.6-0.7c-0.8-0.3-1.6-0.6-2.5-1.1c1.7-5.8,2.5-8.7,4.2-14.4
				C363.2,495,363.2,495,363.3,495C363.3,495,363.3,495,363.3,495z M364.6,487.8c0.1-0.8,0.2-1.7,0.5-2.5c0.2-0.8,0.5-1.5,0.9-2.3
				c0.4,0.1,0.9,0.2,1.4,0.3c0.5,0.1,0.9,0.3,1.3,0.4c0.4,0.2,0.8,0.3,1.3,0.5c0.5,0.2,0.9,0.4,1.3,0.6c-0.1,0.4-0.1,0.9-0.2,1.2
				c-0.3,0.9-0.4,1.4-0.7,2.3c-0.1,0.4-0.3,0.8-0.5,1.2c-0.5,0-0.9-0.1-1.4-0.3s-0.9-0.3-1.3-0.4c-0.4-0.2-0.8-0.3-1.3-0.5
				C365.4,488.2,365,488,364.6,487.8z M374.1,494c0.4,0.1,0.7,0.1,1,0.2c0.4,0.1,0.7,0.2,1.1,0.3c0.4,0.1,0.8,0.3,1,0.4
				c0.2,0.1,0.6,0.3,0.9,0.5c0,0.2,0.1,0.3,0.1,0.5c0,0.2,0,0.5-0.1,0.7c0,0.3-0.1,0.5-0.1,0.8c0,0.2-0.1,0.4-0.1,0.7
				c0.3-0.3,0.8-0.5,1.1-0.8c0.5-0.2,0.9-0.5,1.4-0.6c0.5-0.1,1-0.2,1.6-0.2c0.6,0,1.2,0.1,1.8,0.3c2,0.7,3.4,1.8,4.1,3.3
				c0.7,1.5,0.6,3.5-0.1,5.9c-1.4,4.7-2.1,7.1-3.6,11.8c-0.9-0.1-1.7-0.4-2.6-0.6c-0.8-0.3-1.6-0.6-2.4-1.1
				c1.3-4.2,1.9-6.2,3.1-10.4c0.4-1.3,0.5-2.4,0.3-3.2c-0.2-0.8-0.8-1.4-1.7-1.8c-0.4-0.1-0.8-0.2-1.3-0.2c-0.5,0-0.9,0.1-1.3,0.3
				c-0.5,0.2-0.9,0.6-1.3,1.2c-0.5,0.7-0.8,1.5-1.1,2.3c-1.2,3.9-1.7,5.9-2.9,9.8c-0.9-0.1-1.7-0.4-2.5-0.6
				c-0.8-0.3-1.6-0.6-2.4-1.1c2.2-7.5,3.3-11.2,5.5-18.7C373.9,493.9,374,493.9,374.1,494L374.1,494z M394.3,501
				c0.4,0.1,0.7,0.1,1,0.2c0.4,0.1,0.6,0.2,1,0.4c0.6,0.2,1.2,0.5,1.8,0.9c0,0.2,0.1,0.3,0.1,0.5s0,0.5,0,0.9c0,0.3,0,0.5-0.1,0.8
				c0,0.3-0.1,0.5-0.1,0.7c0.3-0.4,0.7-0.6,1.1-0.9c0.4-0.3,0.8-0.5,1.3-0.7c0.5-0.1,1-0.2,1.6-0.2c0.6,0,1.2,0.1,1.7,0.3
				c1,0.3,1.8,0.8,2.5,1.5c0.7,0.7,1.3,1.6,1.7,2.5c0.4,1,0.5,2.1,0.5,3.4c0,1.3-0.3,2.8-0.8,4.3c-0.5,1.5-1.1,2.9-1.9,3.9
				c-0.8,1.1-1.7,2-2.8,2.6c-1.1,0.6-2.3,1-3.5,1c-1.3,0.1-2.6-0.1-4.2-0.6c-0.4-0.1-0.8-0.3-1.1-0.4c-0.4-0.2-0.6-0.3-0.9-0.5
				c-1,3.3-1.5,4.9-2.5,8.2c-0.5-0.1-0.9-0.1-1.3-0.2c-0.4-0.1-0.8-0.2-1.2-0.3c-0.4-0.1-0.8-0.3-1.2-0.4c-0.4-0.1-0.8-0.3-1.2-0.6
				c2.8-9.1,5.5-18.2,8.3-27.3C394.2,500.9,394.3,501,394.3,501z M394.6,517.2c0.5,0.4,1.2,0.7,2,1c1.4,0.5,2.6,0.3,3.6-0.4
				c1-0.8,1.8-2,2.4-4c0.2-0.8,0.4-1.4,0.5-2.2c0-0.7,0-1.3-0.1-1.8c-0.1-0.6-0.3-1-0.7-1.4c-0.3-0.4-0.8-0.7-1.3-0.9
				c-0.6-0.2-1.1-0.2-1.5-0.1c-0.5,0.1-0.9,0.3-1.3,0.6c-0.4,0.3-0.7,0.7-1,1.2c-0.3,0.5-0.5,1.1-0.7,1.6
				C395.6,513.4,395.3,514.6,394.6,517.2C394.5,517.2,394.5,517.2,394.6,517.2C394.6,517.2,394.6,517.2,394.6,517.2z M415.1,519.4
				c-1.2-0.8-2-1.7-2.6-2.7c-0.5-1-0.5-2.2,0-3.7c0.5-1.7,1.6-2.9,3.2-3.5c1.6-0.6,3.5-0.5,5.7,0.3c0.9,0.3,1.9,0.7,2.7,1.2
				c0.8,0.4,1.6,1,2.5,1.7c-0.3,0.6-0.6,1.2-1,1.8c-0.4,0.6-0.8,1.1-1.2,1.4c-0.5-0.4-1.1-0.8-1.7-1.2c-0.6-0.4-1.3-0.7-2.1-1
				c-0.8-0.3-1.5-0.3-2-0.3c-0.5,0.1-0.9,0.4-1,0.9c-0.2,0.6-0.1,0.9,0.1,1.2c0.3,0.3,0.7,0.7,1.2,1.1c0.7,0.5,1.1,0.8,1.8,1.3
				c0.6,0.4,1.1,0.8,1.6,1.2c0.5,0.4,0.8,0.9,1,1.5c0.2,0.5,0.4,1.1,0.4,1.8c0,0.7,0,1.4-0.3,2.2c-0.3,0.8-0.7,1.6-1.3,2.2
				c-0.6,0.6-1.3,1.1-2.2,1.4c-0.9,0.3-1.8,0.5-2.9,0.4c-1.1,0-2.3-0.2-3.5-0.6c-0.6-0.2-1.1-0.4-1.5-0.6c-0.5-0.2-0.9-0.3-1.3-0.6
				c-0.4-0.2-0.8-0.5-1.2-0.7c-0.4-0.3-0.8-0.5-1.2-0.9c0.2-0.6,0.6-1.2,1-1.8c0.4-0.5,0.8-1.1,1.3-1.7c0.7,0.5,1.3,1.1,2,1.4
				c0.6,0.3,1.4,0.7,2.1,0.9c0.4,0.1,0.7,0.2,1.1,0.3c0.4,0.1,0.8,0.1,1.2,0c0.4,0,0.7-0.2,1-0.3c0.3-0.2,0.5-0.4,0.7-0.8
				c0.2-0.6,0.1-1-0.1-1.4c-0.3-0.4-0.7-0.7-1.2-1.1C416.4,520.2,415.9,519.9,415.1,519.4z M429.1,512.6c0.5,0,1,0.1,1.5,0.3
				c1.1,0.3,1.6,0.5,2.6,0.9c0.5,0.2,1,0.4,1.3,0.7c-0.5,6.9-0.7,10.3-1.3,17.1c3.8-5.8,5.7-8.7,9.5-14.4c0.8,0.1,1.6,0.3,2.5,0.6
				c0.4,0.1,0.7,0.2,1.1,0.4c0.4,0.1,0.9,0.3,1.5,0.7c-5.7,8-8.5,12.1-14.2,20.2c-0.5,0.8-1.2,1.5-1.8,1.8c-0.6,0.5-1.2,0.8-1.7,0.9
				c-0.6,0.2-1.2,0.2-1.9,0.1c-0.7,0-1.4-0.2-2.1-0.4c-0.6-0.2-1.2-0.4-1.7-0.7c-0.6-0.2-1-0.5-1.4-0.9c0.1-0.2,0.1-0.3,0.2-0.5
				c0.2-0.6,0.4-1.1,0.7-1.5c0.3-0.4,0.6-0.9,0.9-1.3c0.2,0.1,0.4,0.3,0.8,0.5c0.3,0.2,0.7,0.3,1,0.4c0.3,0.1,0.6,0.2,0.9,0.2
				s0.6,0,1-0.1c0.3-0.1,0.7-0.3,1.1-0.6c0.4-0.4,0.8-0.8,1.1-1.3c0.5-0.8,0.8-1.2,1.3-2c-0.3-0.1-0.6-0.1-0.9-0.2
				c-0.7-0.2-1.1-0.3-1.8-0.6c-0.2-0.1-0.5-0.1-0.6-0.3C428.9,524.6,428.9,520.7,429.1,512.6z M462.4,516.1c0.4,0.1,0.8,0.1,1.2,0.2
				c0.4,0.1,0.8,0.2,1.2,0.3c0.4,0.1,0.8,0.3,1.2,0.4c0.4,0.1,0.8,0.3,1.2,0.5c-3.2,9.5-4.8,14.2-8,23.7c-1.2,0-2.4-0.1-3.5-0.2
				c-1.2-0.1-2.5-0.5-4.1-1c-1.2-0.4-2.3-0.9-3.3-1.5c-1-0.7-1.7-1.5-2.3-2.5c-0.6-1-0.9-2.1-1.1-3.4c-0.1-1.2,0.1-2.7,0.6-4.3
				c0.4-1.3,1-2.4,1.8-3.4c0.8-1,1.7-1.8,2.8-2.4c1.1-0.6,2.3-1,3.5-1.1c1.2-0.1,2.5,0,3.9,0.4c0.4,0.1,0.8,0.3,1.2,0.4
				c0.4,0.1,0.8,0.4,1.2,0.6C461,520.2,461.4,518.8,462.4,516.1C462.4,516.1,462.4,516.1,462.4,516.1
				C462.4,516.1,462.4,516.1,462.4,516.1z M458.8,526.8c-0.4-0.3-0.7-0.4-1-0.5c-0.2-0.1-0.6-0.3-1-0.4c-0.7-0.2-1.4-0.3-2.1-0.2
				c-0.6,0.2-1.2,0.4-1.8,0.8c-0.6,0.4-1,0.9-1.4,1.5c-0.4,0.6-0.7,1.3-1,2.1c-0.3,0.9-0.4,1.7-0.4,2.5c0,0.8,0.2,1.3,0.4,1.8
				c0.3,0.5,0.6,0.9,1.1,1.3c0.5,0.4,1,0.6,1.7,0.8c0.4,0.1,0.7,0.2,1.1,0.3c0.3,0.1,0.7,0.1,1.1,0.1
				C456.8,532.8,457.5,530.8,458.8,526.8z M470.5,537.4c-0.4,1.4-0.2,2.5,0.4,3.4c0.6,0.8,1.7,1.5,3.1,2c0.8,0.2,1.6,0.4,2.5,0.5
				c0.9,0.1,1.7,0.1,2.5,0.1c0.1,0.5,0.1,1.1,0.1,1.8c0,0.7-0.2,1.3-0.3,2.1c-2,0.1-4.1-0.1-6.3-0.8c-1.6-0.5-3-1.1-4-1.9
				c-1-0.8-1.7-1.7-2.2-2.7c-0.5-1-0.6-2.1-0.7-3.4c0-1.3,0.3-2.5,0.7-3.8c0.5-1.3,1-2.4,1.8-3.4c0.8-1,1.7-1.8,2.6-2.5
				c1-0.6,2.2-1,3.3-1.1c1.2-0.2,2.6,0,4,0.4c1.3,0.4,2.2,0.9,3,1.6c0.8,0.7,1.5,1.5,1.9,2.5c0.4,0.9,0.6,2,0.6,3
				c0,1.1-0.2,2.2-0.6,3.4c-0.2,0.4-0.3,0.8-0.5,1.2c-0.1,0.4-0.3,0.7-0.5,0.9C477.3,539.4,475.1,538.7,470.5,537.4
				C470.5,537.3,470.5,537.4,470.5,537.4C470.5,537.4,470.5,537.4,470.5,537.4z M478.5,536.1c0.3-1,0.3-2.1-0.1-2.9
				c-0.3-0.8-1-1.4-2-1.7c-1.1-0.3-2.1-0.3-2.9,0.1c-0.8,0.5-1.5,1.2-2,2.3C474.4,534.9,475.8,535.3,478.5,536.1z M482.2,549.1
				c0.1-0.8,0.3-1.6,0.6-2.3c0.3-0.7,0.6-1.4,1-2.2c0.4,0.1,0.8,0.1,1.3,0.2c0.4,0.1,0.8,0.2,1.2,0.3c0.4,0.1,0.8,0.2,1.2,0.4
				c0.4,0.2,0.8,0.3,1.1,0.5c-0.1,0.4-0.1,0.8-0.2,1.1c-0.1,0.4-0.2,0.8-0.3,1.1c-0.1,0.3-0.3,0.7-0.4,1.1c-0.1,0.4-0.3,0.8-0.6,1.2
				c-0.4-0.1-0.8-0.1-1.3-0.2c-0.4-0.1-0.8-0.2-1.2-0.3c-0.4-0.1-0.8-0.2-1.2-0.4C482.9,549.4,482.5,549.3,482.2,549.1"/>
		</g>
	</g>
</g>
</svg>
