<svg xmlns="http://www.w3.org/2000/svg" xml:space="preserve" viewBox="0 0 1000 1000">
	<g class="Ball--group">
      <path fill="#000101" d="M597.3 521c-2.3-7.1-6-12-11.1-14.5-2.5-1.3-5.3-1.9-8.3-1.9-1 0-2.1.1-3.1.2-.9-2-1.5-3.5-2-4.6 9.9-5.2 15.6-12.5 17-21.5v-.2l.1-.8h-.1c1.1-20.4-53.8-39.5-106.8-47.2-17.7-2.6-35.8-3.9-52.3-3.9-38.5 0-61.7 7.1-63.7 19.6v.2c-1.3 8.7 2.3 17.2 10.5 25.1-.9 1-2 2.3-3.4 4-1.8-.7-4.3-1.5-7.2-1.5-1 0-2.1.1-3.1.3-5.6 1-10.6 4.6-14.8 10.8-4.2 6.1-5.7 12-4.5 17.6.7 3.5 2.4 6.6 5 9.4-15.8 29.6-19.9 55.8-12.1 77.9 11.6 32.9 49.8 54.3 113.3 63.5 15.5 2.2 29.9 3.4 42.9 3.4 40.1 0 68.3-10.8 83.8-32.1 13.6-18.7 17.2-44.8 10.7-77.3 2.4-1.2 6.2-3.7 8.6-8.2 2.7-5.2 2.9-11.3.6-18.3z"/>
      <path fill="#182b47" d="m576.5 521.9-.5.4c-.9.8-1.8 1.5-2.7 2.3-1.5 1.4-3.1 2.7-4.8 3.9l-2.8 1.9c-.3.2-.6.4-.9.5-.4.2-.7.4-1.1.6l-1.1.6c-1.6.9-3.3 1.7-5 2.3l-1.4.6c-8.1 3.1-17.4 4.3-27.6 3.4-1.8-.1-3.8-.3-5.7-.6-7.4-1.1-14.4-3.3-21.6-5.8-1.6-.7-3.2-1.4-4.8-2-2.8-1.2-5.6-2.3-8.3-3.6l-11.9-6.3.6-3.9c.5-3.4-1.9-6.5-5.2-7-3.4-.5-6.5 1.9-7 5.2l-.5 3.2-13.1 2.6c-2.9.5-5.8.8-8.6 1.1l-5.4.6c-7.3.3-14.9.5-22.4-.6-2-.3-3.9-.7-5.8-1.1-10-2.1-18.6-5.9-25.4-11.1l-1.2-1c-1.4-1.1-2.8-2.2-4.1-3.6-.3-.3-.6-.5-.9-.8l-1.6-1.6-2.2-2.7c-1.4-1.6-2.4-3.4-3.5-5.1-.6-.9-1.2-1.8-1.8-2.8l-.4-.5.4-.5c5.8-8.1 10.9-14.2 13.4-17l.6-.7.7.5c17 13.5 47.7 24.2 86.8 30.1.9.2 1.8.3 2.7.4 41.9 6.1 74.7 4.9 94.8-3.3l.8-.3.4.8c1.2 2.6 4.4 9.9 7.9 20.1z"/>
      <path fill="#182b47" d="M482.5 435c-64-9.3-109-1.3-110.9 12v1.1c0 .5.1.9.3 1.4.3 1 .6 1.9 1.1 2.6.9 1.8 2.2 3.4 3.6 4.9 3 3.2 6.5 5.7 9.7 7.8.3.2.7.5 1.1.7.1 0 .2.1.3.1.9.6 1.7 1.1 2.6 1.6l-4.2-2.1c-3.3-1.9-7.2-4.1-10.7-7.3l-1.4 1.1c9.5 19 46.6 34.8 99.2 42.4 55.1 8 94.4 3.3 107.8-12.9l-1.4-1.2c-.2.1-.4.3-.6.3-3.7 1.8-7.5 2.8-12.1 3.9-1.5.3-3 .6-4.6.8l4.5-1.2c1.1-.4 2.4-.8 3.6-1.2 2.6-.9 5.4-2.1 7.9-3.6 1.7-1.1 3.4-2.2 4.7-3.6.6-.6 1.3-1.4 1.8-2.2.3-.4.5-.9.6-1.2 0-.1.1-.3.2-.5s.1-.5.2-.7c1.5-13.3-39.4-33.7-103.3-43zm-96.7 14.1c1.3-9.2 43.1-10.5 95-3s91.6 20.7 90.3 29.9c-1.3 9.2-43.1 10.5-95 3-51.9-7.6-91.6-20.7-90.3-29.9z"/>
      <path fill="#0b1828" d="m575.9 509.2-1.1.1.4 1.1c.2.6 1.5 4 1.5 4l.7-.1c.9-.1 1.8-.1 2.6 0 1 .2 2 .5 3 .9 2.8 1.4 4.9 4.1 6.1 8 1.2 3.9 1.1 7.3-.3 10-.9 1.7-2.3 3.1-4.1 4.2l-.6.3 1.4 5.9 1-.6c2.8-1.6 4.9-3.6 6.2-6.1 2-3.9 2.2-8.8.3-14.7-1.9-5.9-4.9-9.9-8.8-11.8-1.3-.6-2.7-1.1-4.1-1.3-1.4-.1-2.8-.1-4.2.1z"/>
      <path fill="#8c4d02" d="M521.9 550.5c31.7 4.6 50.7-10.8 57.5-17.6 1.8-1.8 2.8-3.1 3.1-3.5l.1-.1c.1-.1.3-.3.4-.5.4-.5 1.4-1.9 1.5-3.9.1-2.1-.8-5.2-2.8-7.3l-.1-.1-.2-.1c-.6-.3-1.3-.4-2-.5l-1.8-.2.4 1.3c.1.3.5 1.3.5 1.3l.1.7.8-.1c-.1.2-.1.4-.2.7-.6 1.7-1.5 3.2-2.9 4.8-1.4 1.6-3.2 3-4.9 4.4l-1.1.9-3 2.1-2.1 1.2-1.1.6c-1.6 1-3.5 1.8-5.3 2.6l-1.3.6c-8.6 3.4-18.6 4.8-28.8 4-1.9-.1-3.8-.3-5.8-.6-7.8-1.1-15.4-3.6-22.5-6l-3.9-1.8c-3.1-1.4-6.3-2.8-9.3-4.2l-11-6.2-1.2 8.6.5.3c16 10.2 31.7 16.5 46.4 18.6z"/>
      <path fill="#0b1828" d="M464.1 536.4c-.3 2 1.1 3.8 3 4.1 2 .3 3.8-1.1 4.1-3l3.1-21.4c.3-1.9-1.1-3.8-3-4-2-.3-3.8 1.1-4.1 3l-.6 3.9c0 .2 0 .3-.1.5z"/>
      <path fill="#182b47" d="m580.5 535.3-1.1 1c-8.9 8-28.4 20.9-58.4 16.5-14.4-2.1-29.7-8-45.5-17.6l-1.2-.7-.5 3.4c-.5 3.4-3.6 5.8-7 5.3s-5.7-3.7-5.2-7l.6-4-1.3.4c-17.9 4.7-34.3 6.1-48.6 4-29.8-4.3-44.9-22.1-51.2-32.2l-.8-1.3-.8 1.3c-13.7 22.5-27.9 55.4-17.7 84.3 11.1 31.2 48 51.6 109.7 60.6s102.9-.1 122.4-26.9c17.9-24.6 13.7-60 7.1-85.3z"/>
      <path fill="#8c4d02" d="M367 487.9c.1-.1.2-.3.3-.4l.8-1.4h-1.6c-.5 0-1 0-1.5.1-1.6.3-3.1 1.2-4.6 2.7-.6.8-.8 1.5-1.1 2.7-.4 1.4-.2 2.9.4 4.5l.2.4v.1c.1.3.7 1.9 2.1 4.4 4.6 8.4 18.6 28.4 50 32.9 14.7 2.1 31.5.6 50-4.5l.6-.2 1.3-8.6-12.2 2.8c-3.2.6-6.5 1-9.7 1.4-1.6.2-3.2.4-4.7.6-7.5.3-15.4.5-23.2-.6-2-.3-4-.7-5.9-1.1-10.1-2.2-19.2-6.3-26.5-12l-1.1-.9c-1.5-1.2-3-2.5-4.4-4-.3-.4-.7-.7-1-1.1-.5-.5-1-1-1.5-1.6l-2.3-2.9-.9-1.3c-1.2-1.7-2.4-3.5-3.3-5.3-.9-1.8-1.4-3.5-1.6-5.3 0-.4 0-.8-.2-1.2l.9.6z"/>
      <path fill="#0b1828" d="m352.4 508.4.8 1 3-5.3-.4-.5c-1-1.4-1.7-2.8-2-4.3-.6-3 .2-6.3 2.5-9.7 1.8-2.7 3.9-4.5 6.3-5.4.2-.1.4-.2.7-.2.2 0 .3-.1.5-.2s.4-.1.7-.2c1-.2 2-.2 3-.1.6.1 1.1.2 1.6.4l.6.2.4-.5c.8-1 1.5-2 2.2-2.9l.8-1-1.2-.4c-1-.3-2-.6-2.9-.7-1.5-.2-2.9-.2-4.3.1-4.4.8-8.3 3.8-11.8 8.9-3.4 5.1-4.7 9.8-3.9 14.1.5 2.4 1.6 4.6 3.4 6.7zm123.9-30.7c54.7 7.9 92.6 5.4 93.7-1.9 1.1-7.4-34.5-20.6-89.2-28.5-54.7-7.9-92.6-5.4-93.7 2-1.1 7.3 34.5 20.5 89.2 28.4z"/>
      <path fill="#000101" d="M587 546.8c2.3-1 6.3-3.4 8.8-8.1 2.6-4.8 2.7-10.6.6-17.4-2.2-6.8-5.7-11.5-10.6-14-4.6-2.3-9.2-1.9-11.5-1.4-1.1-2.6-2-4.7-2.7-6.1 10-5 16-12.2 17.3-21.2v-.2c2.5-19.4-51.8-39-105.9-46.9-54.1-7.8-111.7-4.4-114.9 14.8v.2c-1.3 8.7 2.6 17.2 10.9 24.9-1 1.1-2.5 2.9-4.4 5.2-2.3-1.1-6.1-2.2-10.4-1.4-5.4 1-10.1 4.4-14.2 10.4-4 5.9-5.5 11.5-4.4 16.8.9 4.5 3.4 7.6 5.2 9.5-12.2 22.7-21.7 51.5-12.4 77.7 11.5 32.6 49.4 53.7 112.5 62.9 63.1 9.2 105.4-.4 125.7-28.3 16.3-22.4 15.6-52.3 10.4-77.4zm-3.1-35.5c3.8 1.9 6.6 5.7 8.4 11.3 1.8 5.6 1.7 10.3-.3 14-1.6 3-4.1 4.8-5.9 5.8-.3-1.4-.6-2.7-1-4 1.4-.8 3.3-2.2 4.5-4.5 1.6-3 1.7-6.6.4-10.7-1.3-4.2-3.6-7.1-6.6-8.6-2.3-1.2-4.5-1.2-6.1-1.1-.4-1.2-.9-2.3-1.3-3.3 1.9-.3 4.9-.4 7.9 1.1zm2.2 19.3c-.1.4-.2.7-.4 1.1-.5.9-1.1 1.6-1.7 2.1-.1-.2-.1-.4-.1-.5.7-.8 1.1-1.3 1.3-1.5.1-.2.5-.6.9-1.2zm-6.5-11.6h-.3c-.2-.4-.3-.8-.5-1.3.7.1 1.4.2 2.1.5 1.9 1.9 2.6 4.8 2.6 6.6 0 1.6-.8 2.8-1.2 3.3-.2.3-.4.4-.4.4l-.3.3c-.2.3-1.2 1.6-3 3.3-9.8 9.9-43.8 35.9-103.1-1.1l1-6.7 9.8 5.5c4.4 2.1 8.9 4 13.3 6 9.2 3.1 18.7 6.1 28.6 6.6 9.8.8 20-.4 29.2-4.1 2.3-1 4.6-1.9 6.8-3.2 1.1-.6 2.2-1.2 3.2-1.9l3.1-2.2c2.1-1.7 4.4-3.4 6.2-5.4 1.3-1.5 2.5-3.1 3.1-5.1.1-.3.2-.5.2-.8.3-.1.1-.6-.4-.7zm-205.1-60.4.2.2c3.3 3 7 5.2 10.7 7.3 3.8 2 7.6 3.7 11.6 5.2 3.9 1.6 7.9 2.9 11.9 4.2-3.9-1.7-7.7-3.3-11.5-5.2-3.8-1.8-7.4-3.9-10.9-6.1-3.4-2.3-6.8-4.8-9.5-7.7-1.3-1.5-2.6-3-3.4-4.7-.5-.8-.8-1.7-1-2.5-.1-.4-.2-.8-.2-1.2v-.9c1.8-12.6 47.4-20.3 109.9-11.3 62.5 9.1 104 29.4 102.2 42 0 .2-.1.4-.2.6 0 .1-.1.2-.1.3-.1.4-.3.8-.5 1.1-.4.7-1 1.4-1.7 2.1-1.3 1.4-2.9 2.5-4.6 3.5-3.4 2-7.4 3.4-11.3 4.7-4 1.2-8 2.1-12.2 2.8-4.1.8-8.3 1.2-12.5 1.7 4.2-.1 8.4-.2 12.6-.6 4.2-.3 8.4-.9 12.5-1.7 4.2-.9 8.3-2 12.3-3.9.3-.1.6-.3.9-.5-13 15.7-52 20.6-107 12.6-52.3-7.6-89-23.7-98.2-42zm7.8 15.6c17.1 13.7 48.6 24.7 90 30.7 42.5 6.2 75.3 4.8 95.2-3.4 1.5 3.3 4.6 10.5 7.9 20-2.5 2.1-4.7 4.4-7.4 6.2l-2.8 1.9c-1 .6-2 1.1-3 1.7-2 1.2-4.2 2-6.3 2.8-8.6 3.3-18 4.1-27.2 3.4-9.3-.4-18.3-3.3-27.1-6.3-4.3-1.9-8.7-3.6-12.9-5.6l-11.3-6 .5-3.2c.6-3.9-2.1-7.5-6-8-3.9-.6-7.5 2.1-8 6l-.4 2.6-12.5 2.5c-4.7.7-9.3 1.1-14 1.7-9.3.4-18.8.5-27.8-1.7-9-1.9-17.8-5.4-25.1-11-1.8-1.4-3.7-2.8-5.2-4.5-.8-.8-1.7-1.6-2.4-2.5l-2.2-2.7c-2-2.5-3.4-5.2-5.2-7.8 6-8.3 11.1-14.3 13.2-16.8zm91.2 41.7-3.1 21.4c-.2 1.5-1.6 2.5-3 2.3-1.5-.2-2.5-1.6-2.3-3l.9-5.9v-.1l1.6-11c.1-.2.1-.4.1-.7l.6-3.8c.2-1.5 1.6-2.5 3-2.2 1.3.2 2.4 1.5 2.2 3zm-108.7-26.5c.2 2 .8 3.9 1.7 5.6 1.1 2.4 2.8 4.6 4.3 6.7l2.3 2.9c.8.9 1.7 1.8 2.6 2.7 1.7 1.9 3.7 3.4 5.6 5 7.9 6.2 17.2 10.2 26.8 12.2 9.7 2.3 19.6 2.2 29.3 1.8 4.8-.7 9.7-1.2 14.5-2l11-2.5-1 6.7c-66.9 18.4-92.1-15.5-99-28-1.3-2.4-1.9-3.9-2-4.3 0-.1-.1-.2-.2-.3 0 0 0-.1-.1-.2-.2-.6-.8-2.1-.4-3.8.3-1.1.5-1.7 1-2.4 1.2-1.3 2.6-2.1 4-2.3.5-.1.9-.1 1.4-.1-.1.2-.3.4-.4.5-.1-.1-.3-.2-.5-.2-.5 0-.8.4-.9.8-.1.4-.1.8 0 1.2zm-14.9 12.1c-.8-4.1.5-8.6 3.7-13.5 3.3-4.9 7.1-7.7 11.2-8.5 2.7-.5 5.1 0 6.8.6-.7.9-1.5 1.9-2.2 2.9-1.4-.4-3.1-.7-5-.3l-1.2.3c-.3 0-.6.1-.9.3-2.5 1-4.7 2.9-6.6 5.7-2.4 3.6-3.3 7.1-2.7 10.4.4 2 1.3 3.5 2.2 4.7l-2.1 3.6c-1.3-1.4-2.7-3.5-3.2-6.2zm223.2 120C553.8 648 513 657 451.6 648.1c-61.4-8.9-98-29.1-109-60-10-28.2 3.5-60.4 17.6-83.5 6.3 10.1 21.5 28.3 51.8 32.7 13.3 1.9 29.5 1.2 49-4l-.4 2.6c-.6 3.9 2.1 7.5 6 8.1 3.9.6 7.5-2.1 8-6l.3-2c17.3 10.5 32.6 15.8 45.9 17.8 30.5 4.4 50.4-8.8 59.2-16.7 6.9 26 10.5 60.4-6.9 84.4z"/>
      <path fill="#000101" d="M587 546.8c2.3-1 6.3-3.4 8.8-8.1 2.6-4.8 2.7-10.6.6-17.4-2.2-6.8-5.7-11.5-10.6-14-4.6-2.3-9.2-1.9-11.5-1.4-1.1-2.6-2-4.7-2.7-6.1 10-5 16-12.2 17.3-21.2v-.2c2.5-19.4-51.8-39-105.9-46.9-54.1-7.8-111.7-4.4-114.9 14.8v.2c-1.3 8.7 2.6 17.2 10.9 24.9-1 1.1-2.5 2.9-4.4 5.2-2.3-1.1-6.1-2.2-10.4-1.4-5.4 1-10.1 4.4-14.2 10.4-4 5.9-5.5 11.5-4.4 16.8.9 4.5 3.4 7.6 5.2 9.5-12.2 22.7-21.7 51.5-12.4 77.7 11.5 32.6 49.4 53.7 112.5 62.9 63.1 9.2 105.4-.4 125.7-28.3 16.3-22.4 15.6-52.3 10.4-77.4zm-3.1-35.5c3.8 1.9 6.6 5.7 8.4 11.3 1.8 5.6 1.7 10.3-.3 14-1.6 3-4.1 4.8-5.9 5.8-.3-1.4-.6-2.7-1-4 1.4-.8 3.3-2.2 4.5-4.5 1.6-3 1.7-6.6.4-10.7-1.3-4.2-3.6-7.1-6.6-8.6-2.3-1.2-4.5-1.2-6.1-1.1-.4-1.2-.9-2.3-1.3-3.3 1.9-.3 4.9-.4 7.9 1.1zm2.2 19.3c-.1.4-.2.7-.4 1.1-.5.9-1.1 1.6-1.7 2.1-.1-.2-.1-.4-.1-.5.7-.8 1.1-1.3 1.3-1.5.1-.2.5-.6.9-1.2zm-6.5-11.6h-.3c-.2-.4-.3-.8-.5-1.3.7.1 1.4.2 2.1.5 1.9 1.9 2.6 4.8 2.6 6.6 0 1.6-.8 2.8-1.2 3.3-.2.3-.4.4-.4.4l-.3.3c-.2.3-1.2 1.6-3 3.3-9.8 9.9-43.8 35.9-103.1-1.1l1-6.7 9.8 5.5c4.4 2.1 8.9 4 13.3 6 9.2 3.1 18.7 6.1 28.6 6.6 9.8.8 20-.4 29.2-4.1 2.3-1 4.6-1.9 6.8-3.2 1.1-.6 2.2-1.2 3.2-1.9l3.1-2.2c2.1-1.7 4.4-3.4 6.2-5.4 1.3-1.5 2.5-3.1 3.1-5.1.1-.3.2-.5.2-.8.3-.1.1-.6-.4-.7zm-205.1-60.4.2.2c3.3 3 7 5.2 10.7 7.3 3.8 2 7.6 3.7 11.6 5.2 3.9 1.6 7.9 2.9 11.9 4.2-3.9-1.7-7.7-3.3-11.5-5.2-3.8-1.8-7.4-3.9-10.9-6.1-3.4-2.3-6.8-4.8-9.5-7.7-1.3-1.5-2.6-3-3.4-4.7-.5-.8-.8-1.7-1-2.5-.1-.4-.2-.8-.2-1.2v-.9c1.8-12.6 47.4-20.3 109.9-11.3 62.5 9.1 104 29.4 102.2 42 0 .2-.1.4-.2.6 0 .1-.1.2-.1.3-.1.4-.3.8-.5 1.1-.4.7-1 1.4-1.7 2.1-1.3 1.4-2.9 2.5-4.6 3.5-3.4 2-7.4 3.4-11.3 4.7-4 1.2-8 2.1-12.2 2.8-4.1.8-8.3 1.2-12.5 1.7 4.2-.1 8.4-.2 12.6-.6 4.2-.3 8.4-.9 12.5-1.7 4.2-.9 8.3-2 12.3-3.9.3-.1.6-.3.9-.5-13 15.7-52 20.6-107 12.6-52.3-7.6-89-23.7-98.2-42zm7.8 15.6c17.1 13.7 48.6 24.7 90 30.7 42.5 6.2 75.3 4.8 95.2-3.4 1.5 3.3 4.6 10.5 7.9 20-2.5 2.1-4.7 4.4-7.4 6.2l-2.8 1.9c-1 .6-2 1.1-3 1.7-2 1.2-4.2 2-6.3 2.8-8.6 3.3-18 4.1-27.2 3.4-9.3-.4-18.3-3.3-27.1-6.3-4.3-1.9-8.7-3.6-12.9-5.6l-11.3-6 .5-3.2c.6-3.9-2.1-7.5-6-8-3.9-.6-7.5 2.1-8 6l-.4 2.6-12.5 2.5c-4.7.7-9.3 1.1-14 1.7-9.3.4-18.8.5-27.8-1.7-9-1.9-17.8-5.4-25.1-11-1.8-1.4-3.7-2.8-5.2-4.5-.8-.8-1.7-1.6-2.4-2.5l-2.2-2.7c-2-2.5-3.4-5.2-5.2-7.8 6-8.3 11.1-14.3 13.2-16.8zm91.2 41.7-3.1 21.4c-.2 1.5-1.6 2.5-3 2.3-1.5-.2-2.5-1.6-2.3-3l.9-5.9v-.1l1.6-11c.1-.2.1-.4.1-.7l.6-3.8c.2-1.5 1.6-2.5 3-2.2 1.3.2 2.4 1.5 2.2 3zm-108.7-26.5c.2 2 .8 3.9 1.7 5.6 1.1 2.4 2.8 4.6 4.3 6.7l2.3 2.9c.8.9 1.7 1.8 2.6 2.7 1.7 1.9 3.7 3.4 5.6 5 7.9 6.2 17.2 10.2 26.8 12.2 9.7 2.3 19.6 2.2 29.3 1.8 4.8-.7 9.7-1.2 14.5-2l11-2.5-1 6.7c-66.9 18.4-92.1-15.5-99-28-1.3-2.4-1.9-3.9-2-4.3 0-.1-.1-.2-.2-.3 0 0 0-.1-.1-.2-.2-.6-.8-2.1-.4-3.8.3-1.1.5-1.7 1-2.4 1.2-1.3 2.6-2.1 4-2.3.5-.1.9-.1 1.4-.1-.1.2-.3.4-.4.5-.1-.1-.3-.2-.5-.2-.5 0-.8.4-.9.8-.1.4-.1.8 0 1.2zm-14.9 12.1c-.8-4.1.5-8.6 3.7-13.5 3.3-4.9 7.1-7.7 11.2-8.5 2.7-.5 5.1 0 6.8.6-.7.9-1.5 1.9-2.2 2.9-1.4-.4-3.1-.7-5-.3l-1.2.3c-.3 0-.6.1-.9.3-2.5 1-4.7 2.9-6.6 5.7-2.4 3.6-3.3 7.1-2.7 10.4.4 2 1.3 3.5 2.2 4.7l-2.1 3.6c-1.3-1.4-2.7-3.5-3.2-6.2zm223.2 120C553.8 648 513 657 451.6 648.1c-61.4-8.9-98-29.1-109-60-10-28.2 3.5-60.4 17.6-83.5 6.3 10.1 21.5 28.3 51.8 32.7 13.3 1.9 29.5 1.2 49-4l-.4 2.6c-.6 3.9 2.1 7.5 6 8.1 3.9.6 7.5-2.1 8-6l.3-2c17.3 10.5 32.6 15.8 45.9 17.8 30.5 4.4 50.4-8.8 59.2-16.7 6.9 26 10.5 60.4-6.9 84.4z"/>
      <path fill="#000101" d="M481 445.2c-45.3-6.6-94.4-7.5-96.1 3.8-1.6 11.2 45.7 24.3 91 30.9 45.3 6.6 94.4 7.5 96.1-3.7 1.7-11.4-45.7-24.4-91-31zm-4.6 31.6c-56.1-8.1-89.3-21.5-88.5-27.5.9-6 36.5-9.3 92.6-1.2 56.1 8.1 89.3 21.5 88.5 27.5-.8 6-36.5 9.4-92.6 1.2zm-27 58c-.6-.1-1-.6-1-1.2.8-12.2 12.1-14.6 12.2-14.7.6-.1 1.2.3 1.3.9.1.6-.3 1.2-.9 1.3-.4.1-9.7 2.1-10.4 12.6 0 .7-.5 1.2-1.2 1.1zm-12.6 1.7c-.6-.1-1-.6-1-1.2.8-12.2 12.1-14.6 12.2-14.7.6-.1 1.2.3 1.3.9.1.6-.3 1.2-.9 1.3-.4.1-9.7 2.1-10.4 12.6 0 .7-.5 1.2-1.2 1.1.1 0 0 0 0 0zm-13.3 1.4c-.6-.1-1-.6-1-1.2.8-12.2 12.1-14.6 12.2-14.7.6-.1 1.2.3 1.3.9.1.6-.3 1.2-.9 1.3-.4.1-9.7 2.1-10.4 12.6 0 .7-.5 1.2-1.2 1.1 0 .1 0 0 0 0zm-13.5-1.1c-.6-.1-1-.7-1-1.3 1.4-9.9 10.5-13.2 10.9-13.3.6-.2 1.2.1 1.4.7.2.6-.1 1.2-.7 1.4-.3.1-8.3 3.1-9.4 11.5 0 .6-.6 1-1.2 1zm-14.8-5.5c-.1 0-.3-.1-.4-.2-.5-.3-.7-1-.4-1.6 6.3-10.5 17.4-7.5 17.6-7.5.6.2 1 .8.8 1.4-.2.6-.8.9-1.4.8-.4-.1-9.6-2.5-15 6.5-.3.5-.8.7-1.2.6zm-12.5-4.8c-.1 0-.3-.1-.4-.2-.5-.3-.7-1-.4-1.6 6.3-10.5 17.4-7.5 17.6-7.5.6.2 1 .8.8 1.4-.2.6-.8.9-1.4.8-.4-.1-9.6-2.5-15 6.5-.3.5-.8.7-1.2.6zm-10.5-7.9c-.2 0-.3-.1-.5-.2-.5-.4-.6-1.1-.3-1.6 5.8-8.2 14.3-6.3 14.6-6.2.6.1 1 .8.8 1.4-.1.6-.8 1-1.4.8-.3-.1-7.4-1.6-12.2 5.3-.1.4-.6.6-1 .5zm-7.4-9.6c-.1 0-.3-.1-.4-.1-.5-.3-.7-1-.4-1.6 4.7-8 11.7-4.9 11.8-4.9.6.3.8.9.6 1.5-.3.6-.9.8-1.5.6-.2-.1-5.2-2.2-8.9 3.9-.3.4-.8.7-1.2.6zm-6.8-9.9c-.2 0-.3-.1-.5-.2-.5-.4-.6-1.1-.3-1.6 2.2-3.2 4.7-5 7.2-5.4 2.6-.4 4.3.9 4.3.9.5.4.6 1.1.2 1.6-.4.5-1.1.6-1.6.2-.1 0-1.1-.8-2.7-.5-1.8.3-3.8 1.8-5.6 4.4-.1.5-.6.6-1 .6zm217.6 39.6c-.5.2-1.1.1-1.4-.4-5.2-9.4 3.2-17 3.3-17 .5-.4 1.2-.4 1.6 0 .4.4.4 1-.1 1.4-.3.3-7.2 6.6-2.8 14.6.3.5 0 1.1-.6 1.4.1 0 0 0 0 0zm-11.1 7.5c-.6.1-1.1-.3-1.3-.9-2.8-11.9 7.2-17.6 7.4-17.6.5-.3 1.2-.1 1.5.5.3.5.1 1.2-.4 1.5-.4.2-8.6 4.9-6.2 15.1.1.7-.3 1.3-1 1.4.1 0 0 0 0 0zm-15 5.4c-.6 0-1.1-.4-1.1-1-1-12.2 9.8-16.3 9.9-16.3.6-.2 1.2.1 1.5.7.2.6-.1 1.2-.7 1.5-.4.1-9.3 3.6-8.4 14 0 .5-.5 1.1-1.2 1.1.1 0 0 0 0 0zm-13.5 2.5c-.6 0-1.1-.5-1.1-1.1 0-10 8.7-14.5 9.1-14.7.6-.3 1.2-.1 1.5.5.3.6.1 1.2-.5 1.5-.3.2-7.8 4.1-7.8 12.7 0 .6-.5 1.1-1.2 1.1zm-14.3-1.2h-.4c-.6-.1-1-.8-.8-1.4 2.9-11.9 14.5-12.3 14.6-12.3.6 0 1.1.5 1.2 1.1 0 .6-.5 1.1-1.1 1.2-.4 0-9.9.4-12.4 10.6-.2.4-.6.7-1.1.8zm-12.3-1.8h-.4c-.6-.1-1-.8-.8-1.4 2.9-11.9 14.5-12.3 14.6-12.3.6 0 1.1.5 1.2 1.1 0 .6-.5 1.1-1.1 1.2-.4 0-9.9.4-12.4 10.6-.3.4-.7.7-1.1.8zm-12.3-4.6h-.5c-.6-.2-.9-.8-.7-1.4 3.1-9.5 11.8-10.2 12.1-10.2.6 0 1.2.4 1.2 1.1 0 .6-.4 1.2-1 1.2-.3 0-7.5.6-10.1 8.7-.2.2-.6.5-1 .6zm-11-6h-.4c-.6-.1-1-.8-.8-1.4 2.2-9 9.7-8.1 9.8-8.1.6.1 1.1.7 1 1.3-.1.6-.6 1.1-1.3 1-.2 0-5.6-.6-7.3 6.4-.1.4-.5.7-1 .8zm-9.3-7.5h-.5c-.6-.2-.9-.8-.7-1.4 1.2-3.7 3-6.1 5.3-7.3 2.3-1.1 4.3-.4 4.4-.4.6.2.9.9.7 1.5-.2.6-.9.9-1.4.7-.1 0-1.3-.4-2.7.3-1.7.8-3.1 2.9-4.1 5.9-.3.3-.6.6-1 .7z"/>
  </g>
</svg>