<svg version="1.1" viewBox="0 0 1e3 1e3" xmlns="http://www.w3.org/2000/svg">
	<g class="BeforeHead--group">
		<path transform="matrix(.25114 0 0 -.25114 323.36 769.46)" d="m478.96 1687.8c133.29-5.26 403.99-22.92 520.95-34.36 116.97-11.44 251.8 3.21 272.59 45.85s-1.42 117.5-231.81 70.8c-230.39-46.71-561.73-82.29-561.73-82.29" fill="#383434"/>
		<path transform="matrix(.25114 0 0 -.25114 323.36 769.46)" d="m653.72 1693.8c128.26-7.67 271.46-17.94 347.65-25.39 130.83-12.77 243.87 9.25 257.64 37.49 3.19 6.52 9.35 23.25-1.95 37.85-11.04 14.28-53.93 44.01-213.39 11.67-122.54-24.84-274.7-46.67-389.95-61.62zm424.6-59.02c-28.28 0-55.78 1.41-79.871 3.77-114.76 11.23-382.09 28.85-520.08 34.3-7.851 0.31-14.137 6.63-14.402 14.48-0.266 7.86 5.578 14.59 13.39 15.42 3.305 0.36 333.3 36.05 560.36 82.08 129.31 26.22 211.11 18.58 243.07-22.71 14.98-19.37 16.93-45.3 5.2-69.36-21.36-43.79-118.36-57.98-207.67-57.98" fill="#100f0d"/>
	</g>
	<g class="Head--group">
		<path transform="matrix(.25114 0 0 -.25114 323.36 769.46)" d="m408.14 1698.6c55.312 119.13 138.27 161.17 184.92 232.61 47.664 73 152.4 326.27 225.6 370.69 91.172 55.33 280.17 7.79 332.34-67.99 52.18-75.78-119.91 33.83-187.2-5.57-67.289-39.4-12.649-236.31 21.641-299.19 34.292-62.88 97.042-182.72-29.098-174.95-66.254 4.08-548.2-55.6-548.2-55.6" fill="#383434"/>
		<path transform="matrix(.25114 0 0 -.25114 323.36 769.46)" d="m921.93 2311.4c-36.114 0-69.922-6.74-95.489-22.26-46.465-28.2-112.49-158.75-160.7-254.08-23.957-47.37-44.648-88.29-60.125-111.99-18.824-28.83-42.887-52.7-68.359-77.96-34.028-33.74-72.047-71.44-103.08-128.15 104.72 12.76 464.86 55.8 523.08 52.27 28.691-1.77 47.052 3.33 54.582 15.18 19.1 30.03-22.016 105.43-39.574 137.62-17.618 32.31-40.645 98.78-50.567 163.3-12.527 81.51-0.594 135.45 34.524 156.01 38.933 22.8 100.06 5.12 149.14-9.1 11.18-3.24 25.06-7.25 35.01-9.34-0.52 0.8-1.09 1.66-1.72 2.56-33.31 48.38-131.46 85.94-216.72 85.94zm-513.79-627.74c-4.754 0-9.274 2.26-12.121 6.16-3.207 4.41-3.774 10.21-1.477 15.16 35.148 75.71 81.074 121.25 121.59 161.43 24.316 24.12 47.281 46.89 64.371 73.06 14.57 22.32 34.918 62.55 58.476 109.13 52.618 104.05 118.1 233.54 171.9 266.18 98.984 60.07 297.6 7.41 352.48-72.3 6.11-8.88 18.82-27.33 8.46-41.7-11.35-15.73-33.89-9.2-74.8 2.65-41.27 11.94-97.809 28.31-125.64 12.02-53.723-31.45-8.125-214.22 27.234-279.06 23.457-43.03 67.127-123.12 38.537-168.08-13.84-21.74-41.337-31.53-81.728-29.02-64.192 3.93-540.62-54.92-545.43-55.52l-1.851-0.11" fill="#100f0d"/>
		<path transform="matrix(.25114 0 0 -.25114 323.36 769.46)" d="m992.93 2039.8s-123.64-104.95-21.911-123.06c101.74-18.12 21.911 123.06 21.911 123.06" fill="#2b9d41"/>
		<path transform="matrix(.25114 0 0 -.25114 323.36 769.46)" d="m988.6 2015.4c-22.882-22.61-46.535-53.5-42.296-69.17 2.453-9.05 18.183-13.14 27.343-14.77 9.18-1.64 25.344-3.22 30.758 4.43 9.41 13.29-2.13 50.42-15.805 79.51zm-1.054-115.31c-5.899 0-12.285 0.61-19.153 1.84-28.718 5.11-45.886 17.39-51.054 36.49-11.883 44.03 52.793 101.67 65.879 112.78 3.418 2.89 7.968 4.12 12.336 3.32 4.402-0.78 8.231-3.48 10.431-7.38 8.44-14.94 49.26-91.37 22.91-128.59-8.7-12.28-22.57-18.46-41.349-18.46" fill="#100f0d"/>
		<path transform="matrix(.25114 0 0 -.25114 323.36 769.46)" d="m1065.1 1836.5c-9.43-53.01-60.06-88.33-113.08-78.89-53.016 9.43-88.34 60.06-78.902 113.07 9.441 53.02 60.07 88.34 113.08 78.91 53.016-9.44 88.336-60.07 78.896-113.09" fill="#f57a14"/>
		<path transform="matrix(.25114 0 0 -.25114 323.36 769.46)" d="m968.92 1936.1c-16.719 0-33.027-5.1-47.031-14.87-18.078-12.61-30.149-31.5-34.016-53.19-3.867-21.7 0.957-43.6 13.567-61.67 12.605-18.08 31.492-30.15 53.191-34.02 44.805-7.96 87.711 21.97 95.691 66.77v-0.01c7.97 44.79-21.98 87.71-66.765 95.69-4.883 0.87-9.774 1.3-14.637 1.3zm0.234-195.04c-6.523 0-13.136 0.57-19.777 1.76-29.59 5.27-55.352 21.74-72.547 46.38-17.187 24.65-23.762 54.51-18.488 84.09 5.265 29.59 21.738 55.35 46.379 72.55 24.636 17.19 54.461 23.77 84.09 18.49 61.071-10.87 101.91-69.4 91.041-130.47v-0.01c-9.69-54.42-57.24-92.79-110.7-92.79" fill="#100f0d"/>
		<path transform="matrix(.25114 0 0 -.25114 323.36 769.46)" d="m987.82 1924.9c-34.539 22.83 50.39 64.34 106.18 54.41 45.94-8.18 88.72-5.64 88.72-5.64s-72.22-129.86-194.9-48.77" fill="#2b9d41"/>
		<path transform="matrix(.25114 0 0 -.25114 323.36 769.46)" d="m996.09 1937.4c32.246-21.32 63.316-28.56 92.436-21.54 28.78 6.97 50.82 26.67 64.62 42.59-16.79 0.47-38.82 1.99-61.77 6.08-39.23 6.95-88.79-15.08-95.95-26.66zm70.336-54.19c-28.41 0-57.51 9.75-86.879 29.16-13.231 8.75-17.969 21.92-12.645 35.22 12.129 30.35 81.254 55.12 129.72 46.47 43.54-7.74 84.79-5.46 85.21-5.43 5.41 0.27 10.66-2.36 13.57-6.99 2.91-4.64 3.08-10.49 0.41-15.27-1.44-2.61-36.22-64.02-99.98-79.6-9.71-2.37-19.52-3.56-29.41-3.56" fill="#100f0d"/>
		<path transform="matrix(.25114 0 0 -.25114 323.36 769.46)" d="m1172.8 1786.8c-164.5 1.91-400.65-31.96-560.46 13.83-232.91 66.74-400.48-6.7-428.16-53.76-27.692-47.07 110.77-68.86 231.94-72.9 172.8-5.76 288.48-37.95 445.45 24.69 179.17 71.49 311.24 88.14 311.24 88.14" fill="#383434"/>
		<path transform="matrix(.25114 0 0 -.25114 323.36 769.46)" d="m430.78 1812.1c-130.83 0-217.43-45.21-233.72-72.91-2.219-3.77-1.493-5.08-0.911-6.14 10.25-18.64 89.25-39.78 220.41-44.16 41.618-1.39 79.473-4.26 116.08-7.03 115.69-8.77 207.08-15.72 323.32 30.66 59.648 23.8 113.93 41.56 159.98 54.68l-5.13-0.24c-135.09-6.39-288.2-13.62-402.66 19.18-65.121 18.66-124.83 25.96-177.38 25.96zm224.6-166.55c-40.848 0-81.813 3.11-125 6.39-36.297 2.75-73.828 5.6-114.81 6.97-195.73 6.52-237.03 43.91-245.7 59.68-6.148 11.18-5.672 23.89 1.336 35.81 33.996 57.78 211.85 127.46 445.22 60.58 109.71-31.43 260.2-24.33 392.98-18.05 58.59 2.76 113.94 5.35 163.52 4.8 7.88-0.09 14.35-6.27 14.8-14.14 0.44-7.87-5.27-14.75-13.09-15.74-1.31-0.17-132.5-17.35-307.56-87.19-76.543-30.55-143.94-39.11-211.7-39.11" fill="#100f0d"/>
	</g>
</svg>