<svg xmlns="http://www.w3.org/2000/svg" id="wapuugotchi_svg__wapuu" x="0" y="0" version="1.1" viewBox="0 0 1000 1000">
	<g id="RightArm--group">
		<path d="M436.6 504c-4.5 5.1-10.5 7.9-17 7.9-9.1 0-18.5-5.5-24.4-14.4-7.8-11.6-15.5-21.2-22.3-27.9l-4.8-4.7c-2-2-1.1-5.3 1.6-6.1l6.5-1.7c3.2-.9 6.4-2.7 9.1-5.5 3-3 4.8-6.7 5.2-10.4V430c0-1.3 1.5-2.1 2.5-1.3l9.3 6.9c.7.5 1.7 1.1 2.9 1.7 10.2 4.9 31.7 27.4 35.7 46.7 2.1 10.1-1.2 16.5-4.3 20z"/>
		<path d="M402.1 444.1c-1.5-.7-2.9-1.5-4.2-2.4-.5 5.5-3 11-7.3 15.3-3.7 3.7-8.1 6.2-12.5 7.4 8.7 8.6 17 19.8 23.2 29.1 4.5 6.7 11.6 11.1 18.3 11.1 4.1 0 8.1-1.6 11.4-5.4 13-14.8-17.3-49.6-28.9-55.1z" class="st0" fill="#fc0"/>
	</g>
	<g id="Tail--group">
		<path d="M599.1 649.5c-9 25.7-26.4 50-50.3 70.3-23.8 20.3-51.8 34.7-81 41.6-6.9 1.6-14.1 2.5-21.5 2.5-30.8 0-58.9-13.9-74.8-27-13.6-11.1-21.2-23.3-20.9-33.5.4-12 6.7-20.7 16.8-23.3 2.1-.5 4.3-.8 6.7-.8 11.2 0 27.2 6.7 38.5 25.7 7.8 13.2 22 20.1 41.1 20.1h1.2c40.7-.8 87.6-31.2 109.1-70.8 7.7-14.1 13.2-29.6 17.1-40.8 1.9-5.4 3.6-10.1 5.1-13.5 1.3-3.1 4.1-9.4 10.4-9.4 4.1 0 7.6 1.8 9.9 5 5.5 7.6 3.3 23.3-7.4 53.9z"/>
		<path d="M570.5 657.8c-22.7 41.7-72.5 73.9-115.5 74.7h-1.4c-21.6 0-38.3-8.4-47.4-23.8-9-15.1-22-22.1-32.1-22.1-1.7 0-3.3.2-4.8.6-7 1.8-11 7.6-11.3 16.4-.3 7.7 6.6 18 18.2 27.5 16.8 13.7 43.2 25.3 70.1 25.3 6.6 0 13.3-.7 19.8-2.3 57.2-13.5 108.5-57.4 126-107.1 5.4-15.3 16.7-49.2 4.5-49.2-4.5.1-10.8 31.8-26.1 60z" class="st1" fill="#f80"/>
	</g>
	<g id="Body--group">
		<path d="M649.7 531.9c-2 24-6.7 45.1-13.9 62.9-8.5 20.9-20.3 36.6-35.1 46.8-34 23.4-64.8 26-76.4 26-1.3 0-2.5 0-3.8-.1-18.4-.8-26-4.4-32.7-7.5-5.9-2.8-11-5.2-24.9-5.7-37.5-1.5-67-9.9-83.1-23.6-.2-.1-.5-.4-.9-.7-4.8-3.5-19.3-14.3-25-24.7-5.3-9.7-6.2-22.3-2.3-31.4 13.4-31.2 24.5-40.5 33.5-48 3.6-3 6.4-5.3 8.8-8.7 2.2-3.1 3.8-7.1 4.9-12.2 0-.1 0-.2.1-.3 3.9-15 3.4-34.9 2.8-56-.2-5.7-.3-11.7-.4-17.5v-.1c0-18.6 9.6-40.7 25.7-59.2 18.1-20.8 41.6-33.6 66.1-36.2 20.2-2.1 34.3-3.1 45.9-3.1 43.7 0 58.6 14.8 82.2 48.4 7.5 10.6 12.1 22.5 16 33.7 11.1 30.4 15.9 76.5 12.5 117.2z"/>
		<path d="M358.5 576.7c-3 7-2.2 17.4 2 25 5.6 10.3 23 22.2 24.1 23.2 15.1 12.9 43.7 20.5 78.7 21.9 31.2 1.3 24.3 11.8 57.6 13.3 1.1 0 2.2.1 3.5.1 16.7 0 43.7-5 72.2-24.7 58-39.9 52.9-165.3 34-218.6-3.9-11.1-8.3-22.2-15.1-31.9-23.5-33.5-36.6-45.2-76.2-45.2-12.2 0-26.9 1.1-45.1 3.1-49.9 5.3-85.3 55.3-85.3 88.1.3 27.4 2.5 55.1-2.7 75.5-1.4 6.5-3.4 11.2-6 14.9-9.8 13.5-23.4 12.4-41.7 55.3z" class="st0" fill="#fc0"/>
	</g>
	<g id="Ball--group"></g>
	<g id="RightHand--group">
		<g id="BeforeRightHand--part"/>
		<path d="M390.6 457c-5.2 5.1-11.7 8.1-17.8 8.1-8.1 0-14-5.1-15.6-13.3-1-5.4.9-11.3 5.4-16.7 5.8-6.9 14.9-12 21.7-12.1h.2c1.3 0 2.6.2 3.8.6h.2l.1.1c4.5 1.8 7.9 6.2 9.1 11.8 1.4 7.5-1.2 15.5-7.1 21.5z"/>
		<path d="M385.4 451.7c4.2-4.2 6-9.6 5-14.7-.6-3.1-2.3-5.5-4.6-6.4-.4-.1-.9-.2-1.3-.2h-.1c-4 0-11.3 3.6-16.1 9.4-1.8 2.1-4.6 6.3-3.8 10.6 1.1 6 5.1 7.3 8.3 7.3 4.1 0 8.8-2.2 12.6-6z" class="st0" fill="#fc0"/>
	</g>
	<g id="RightFoot--group">
		<path d="M384.3 648c-2.4 3.7-6.4 5.7-11.5 5.7-1.9 0-4-.3-6.2-.8-25-6-59.3-43.6-63.6-64.5-1.9-9.4-.2-18 5-24.4 4.6-5.7 11.4-8.8 18.9-8.8 6.8 0 13.6 2.5 19.8 7.3 12.2 9.4 32.9 50.5 37.3 60.7 2.5 5.8 4.9 17.7.3 24.8z"/>
		<path d="M310.1 586.8c3.8 18.2 36.2 53.6 58.1 58.8 1.7.4 3.2.6 4.5.6 3.4 0 4.7-1.3 5.4-2.3 2.3-3.5 1.5-12.1-1-17.9-6.1-13.9-25.3-50.3-35.1-57.8-4.9-3.8-10.2-5.8-15.3-5.8-5.3 0-10 2.2-13.2 6.1-3.6 4.7-4.8 11.2-3.4 18.3z" class="st0" fill="#fc0"/>
	</g>
	<g id="FullHead--group">
		<g id="BeforeHead--group">
			<g>
				<path transform="matrix(.25114 0 0 -.25114 323.36 769.46)" d="m478.96 1687.8c133.29-5.26 403.99-22.92 520.95-34.36 116.97-11.44 251.8 3.21 272.59 45.85s-1.42 117.5-231.81 70.8c-230.39-46.71-561.73-82.29-561.73-82.29" fill="#383434"/>
				<path transform="matrix(.25114 0 0 -.25114 323.36 769.46)" d="m653.72 1693.8c128.26-7.67 271.46-17.94 347.65-25.39 130.83-12.77 243.87 9.25 257.64 37.49 3.19 6.52 9.35 23.25-1.95 37.85-11.04 14.28-53.93 44.01-213.39 11.67-122.54-24.84-274.7-46.67-389.95-61.62zm424.6-59.02c-28.28 0-55.78 1.41-79.871 3.77-114.76 11.23-382.09 28.85-520.08 34.3-7.851 0.31-14.137 6.63-14.402 14.48-0.266 7.86 5.578 14.59 13.39 15.42 3.305 0.36 333.3 36.05 560.36 82.08 129.31 26.22 211.11 18.58 243.07-22.71 14.98-19.37 16.93-45.3 5.2-69.36-21.36-43.79-118.36-57.98-207.67-57.98" fill="#100f0d"/>
			</g>
		</g>
		<g id="RightEar--group">
			<path d="M413.3 399.4c-.4 4.4-3.8 8.4-11.1 12.9-4.7 3-10.2 5.5-13.9 6.5-6.5 1.7-12.3 2.6-17.3 2.6-6.7 0-10.6-1.6-12.7-2.9-4.8-3-4.4-7.2-4.2-8.5.5-3.1 2.9-5.5 5.9-6.2 3.5-.8 13.5-5.8 23.6-12.6 4.2-2.9 10.7-4.8 16.1-4.8 5.8 0 9.1 2.2 10.8 4.1 2.1 2.4 3.1 5.5 2.8 8.9z"/>
			<path d="M361.4 411.3c0 .3.4.7.9.9 1.1.7 3.6 1.8 8.8 1.8 4.3 0 9.5-.8 15.4-2.3 5.2-1.4 19.1-8.8 19.5-13 .1-1.3-.2-2.4-.9-3.2-1-1.1-2.8-1.7-5.3-1.7-3.9 0-8.9 1.5-11.9 3.5-8.5 5.7-20.5 12.5-26.1 13.7-.3.1-.4.2-.4.3z" class="st1" fill="#f80"/>
		</g>
		<g id="Head--group">
			<path d="M516.4 328.1c1.6 0 3.2 0 4.8.1 20.6.6 39.5 6.5 55.9 17 11.2 7.2 17.5 11.4 25.9 25.2 1.5 2.5 9 .8 7.9-1.1-10.1-17.6-17.5-22.3-29.8-30.3-17.7-11.4-37.8-17.6-59.7-18.2-1.6 0-3.3-.1-5-.1-1.6 0-3.3 0-4.9.1-24.3.6-47.8 6.6-67.8 17.1-20.2 10.6-37.1 26.1-48.9 44.7-7.7 12.3-10.3 23.9-7.4 33.5 2.4 7.8 7.9 12.7 12.3 14.6 1.4.6 2.9.9 4.7.9 9.3 0 34.7-9.3 45.7-24.8 8.4 4.5 17.6 6.7 28.1 6.7 12.6 0 25-3.2 36.4-6.9 3-1 3.8-2.2 3.9-4.1 0-1.3-1.2-3.6-3.8-3.5-.3 0-.7.1-1 .2-11.2 3.6-23.3 6.9-35.4 6.9-9.3 0-18.6-2-27.4-7.4-.6-.4-1.3-.5-1.9-.5-1.3 0-2.5.6-3.2 1.8l-.1.1c-7.9 14.3-33.3 24.1-41.2 24.1-.7 0-1.3-.1-1.7-.3-2.8-1.2-6.6-4.6-8.2-10-2.3-7.5 0-17 6.6-27.4 22.5-35.7 63.4-57.1 110.6-58.3 1.4-.1 3-.1 4.6-.1"/>
			<path d="M516.6 399.4c-1-.4-2-.7-3-.3-19.7 6.3-42.5 12-62.8-.5-1.7-1.1-4-.5-5.1 1.2l-.1.1c-8.6 15.7-38.3 26-43 23.9-2.8-1.2-6.6-4.6-8.2-10-2.3-7.5 0-17 6.6-27.4 22.5-35.7 63.4-57.1 110.6-58.3 3.1-.1 6.3-.1 9.5 0 20.6.6 39.5 6.5 55.9 17 13.2 8.5 19.7 12.7 30.6 33.6 5.6 10.5-84.4 23.5-91 20.7z" class="st0" fill="#fc0"/>
			<g>
				<path transform="matrix(.25114 0 0 -.25114 323.36 769.46)" d="m408.14 1698.6c55.312 119.13 138.27 161.17 184.92 232.61 47.664 73 152.4 326.27 225.6 370.69 91.172 55.33 280.17 7.79 332.34-67.99 52.18-75.78-119.91 33.83-187.2-5.57-67.289-39.4-12.649-236.31 21.641-299.19 34.292-62.88 97.042-182.72-29.098-174.95-66.254 4.08-548.2-55.6-548.2-55.6" fill="#383434"/>
				<path transform="matrix(.25114 0 0 -.25114 323.36 769.46)" d="m921.93 2311.4c-36.114 0-69.922-6.74-95.489-22.26-46.465-28.2-112.49-158.75-160.7-254.08-23.957-47.37-44.648-88.29-60.125-111.99-18.824-28.83-42.887-52.7-68.359-77.96-34.028-33.74-72.047-71.44-103.08-128.15 104.72 12.76 464.86 55.8 523.08 52.27 28.691-1.77 47.052 3.33 54.582 15.18 19.1 30.03-22.016 105.43-39.574 137.62-17.618 32.31-40.645 98.78-50.567 163.3-12.527 81.51-0.594 135.45 34.524 156.01 38.933 22.8 100.06 5.12 149.14-9.1 11.18-3.24 25.06-7.25 35.01-9.34-0.52 0.8-1.09 1.66-1.72 2.56-33.31 48.38-131.46 85.94-216.72 85.94zm-513.79-627.74c-4.754 0-9.274 2.26-12.121 6.16-3.207 4.41-3.774 10.21-1.477 15.16 35.148 75.71 81.074 121.25 121.59 161.43 24.316 24.12 47.281 46.89 64.371 73.06 14.57 22.32 34.918 62.55 58.476 109.13 52.618 104.05 118.1 233.54 171.9 266.18 98.984 60.07 297.6 7.41 352.48-72.3 6.11-8.88 18.82-27.33 8.46-41.7-11.35-15.73-33.89-9.2-74.8 2.65-41.27 11.94-97.809 28.31-125.64 12.02-53.723-31.45-8.125-214.22 27.234-279.06 23.457-43.03 67.127-123.12 38.537-168.08-13.84-21.74-41.337-31.53-81.728-29.02-64.192 3.93-540.62-54.92-545.43-55.52l-1.851-0.11" fill="#100f0d"/>
				<path transform="matrix(.25114 0 0 -.25114 323.36 769.46)" d="m992.93 2039.8s-123.64-104.95-21.911-123.06c101.74-18.12 21.911 123.06 21.911 123.06" fill="#2b9d41"/>
				<path transform="matrix(.25114 0 0 -.25114 323.36 769.46)" d="m988.6 2015.4c-22.882-22.61-46.535-53.5-42.296-69.17 2.453-9.05 18.183-13.14 27.343-14.77 9.18-1.64 25.344-3.22 30.758 4.43 9.41 13.29-2.13 50.42-15.805 79.51zm-1.054-115.31c-5.899 0-12.285 0.61-19.153 1.84-28.718 5.11-45.886 17.39-51.054 36.49-11.883 44.03 52.793 101.67 65.879 112.78 3.418 2.89 7.968 4.12 12.336 3.32 4.402-0.78 8.231-3.48 10.431-7.38 8.44-14.94 49.26-91.37 22.91-128.59-8.7-12.28-22.57-18.46-41.349-18.46" fill="#100f0d"/>
				<path transform="matrix(.25114 0 0 -.25114 323.36 769.46)" d="m1065.1 1836.5c-9.43-53.01-60.06-88.33-113.08-78.89-53.016 9.43-88.34 60.06-78.902 113.07 9.441 53.02 60.07 88.34 113.08 78.91 53.016-9.44 88.336-60.07 78.896-113.09" fill="#f57a14"/>
				<path transform="matrix(.25114 0 0 -.25114 323.36 769.46)" d="m968.92 1936.1c-16.719 0-33.027-5.1-47.031-14.87-18.078-12.61-30.149-31.5-34.016-53.19-3.867-21.7 0.957-43.6 13.567-61.67 12.605-18.08 31.492-30.15 53.191-34.02 44.805-7.96 87.711 21.97 95.691 66.77v-0.01c7.97 44.79-21.98 87.71-66.765 95.69-4.883 0.87-9.774 1.3-14.637 1.3zm0.234-195.04c-6.523 0-13.136 0.57-19.777 1.76-29.59 5.27-55.352 21.74-72.547 46.38-17.187 24.65-23.762 54.51-18.488 84.09 5.265 29.59 21.738 55.35 46.379 72.55 24.636 17.19 54.461 23.77 84.09 18.49 61.071-10.87 101.91-69.4 91.041-130.47v-0.01c-9.69-54.42-57.24-92.79-110.7-92.79" fill="#100f0d"/>
				<path transform="matrix(.25114 0 0 -.25114 323.36 769.46)" d="m987.82 1924.9c-34.539 22.83 50.39 64.34 106.18 54.41 45.94-8.18 88.72-5.64 88.72-5.64s-72.22-129.86-194.9-48.77" fill="#2b9d41"/>
				<path transform="matrix(.25114 0 0 -.25114 323.36 769.46)" d="m996.09 1937.4c32.246-21.32 63.316-28.56 92.436-21.54 28.78 6.97 50.82 26.67 64.62 42.59-16.79 0.47-38.82 1.99-61.77 6.08-39.23 6.95-88.79-15.08-95.95-26.66zm70.336-54.19c-28.41 0-57.51 9.75-86.879 29.16-13.231 8.75-17.969 21.92-12.645 35.22 12.129 30.35 81.254 55.12 129.72 46.47 43.54-7.74 84.79-5.46 85.21-5.43 5.41 0.27 10.66-2.36 13.57-6.99 2.91-4.64 3.08-10.49 0.41-15.27-1.44-2.61-36.22-64.02-99.98-79.6-9.71-2.37-19.52-3.56-29.41-3.56" fill="#100f0d"/>
				<path transform="matrix(.25114 0 0 -.25114 323.36 769.46)" d="m1172.8 1786.8c-164.5 1.91-400.65-31.96-560.46 13.83-232.91 66.74-400.48-6.7-428.16-53.76-27.692-47.07 110.77-68.86 231.94-72.9 172.8-5.76 288.48-37.95 445.45 24.69 179.17 71.49 311.24 88.14 311.24 88.14" fill="#383434"/>
				<path transform="matrix(.25114 0 0 -.25114 323.36 769.46)" d="m430.78 1812.1c-130.83 0-217.43-45.21-233.72-72.91-2.219-3.77-1.493-5.08-0.911-6.14 10.25-18.64 89.25-39.78 220.41-44.16 41.618-1.39 79.473-4.26 116.08-7.03 115.69-8.77 207.08-15.72 323.32 30.66 59.648 23.8 113.93 41.56 159.98 54.68l-5.13-0.24c-135.09-6.39-288.2-13.62-402.66 19.18-65.121 18.66-124.83 25.96-177.38 25.96zm224.6-166.55c-40.848 0-81.813 3.11-125 6.39-36.297 2.75-73.828 5.6-114.81 6.97-195.73 6.52-237.03 43.91-245.7 59.68-6.148 11.18-5.672 23.89 1.336 35.81 33.996 57.78 211.85 127.46 445.22 60.58 109.71-31.43 260.2-24.33 392.98-18.05 58.59 2.76 113.94 5.35 163.52 4.8 7.88-0.09 14.35-6.27 14.8-14.14 0.44-7.87-5.27-14.75-13.09-15.74-1.31-0.17-132.5-17.35-307.56-87.19-76.543-30.55-143.94-39.11-211.7-39.11" fill="#100f0d"/>
			</g>
		</g>
		<g id="LeftEar--group">
			<path d="M701.4 357.1c-.5 1.7-1.2 3.4-2 5.2-5 10-17.7 23-38 29.1-4.5 1.4-9.3 2-14 2h-.1c-13 0-34.2-4.9-61.6-28.3-1.9-1.7-5.1-4.8-7.1-7-2.3-2.5-2.8-6.1-1.5-9.1s4.4-5.1 7.8-5.1h.5c13.9.8 30.1 1.2 48.4 1.2 8.1 0 14.8-.1 19.3-.1h4.5c7.4 0 13.3-.1 18.2-.1 8.1 0 13.7.1 17.1.2 2.9.1 5.6 1.5 7.3 3.9 1.5 2.3 2 5.2 1.2 8.1z"/>
			<path d="M590.4 359.4c25.7 21.9 45.1 26.5 56.8 26.5h.1c4 0 8-.6 11.9-1.7 18.1-5.4 29.2-16.6 33.5-25.3.8-1.5 1.2-2.8 1.5-3.9.4-1.3-.6-2.6-1.9-2.7-3.3-.1-8.9-.2-16.7-.2-5.4 0-11.6 0-18.2.1-3.3 0-12.2.2-23.9.2-13.9 0-31.7-.2-48.8-1.2h-.1c-.9 0-1.5 1.1-.8 1.8 2 2.2 5 5.1 6.6 6.4z" class="st1" fill="#f80"/>
		</g>
		<g id="Face--group">
			<path d="M417.6 376.2c-4.1 0-7.4 3.3-7.4 7.4 0 9.9 14.8 9.9 14.8 0 0-4.1-3.3-7.4-7.4-7.4z"/>
			<path d="M503.2 355.7c-4.1 0-7.4 3.3-7.4 7.4 0 9.9 14.8 9.9 14.8 0 0-4.1-3.3-7.4-7.4-7.4z"/>
			<path d="M457.9 375.4c-7.4.8-12.3 2.5-15.6 4.9-5.9 4.4-4.1 9.9 2.5 10.7 6.6.8 7.1 1.2 13.2-3.3 6.5-4.9 7.3-13.1-.1-12.3z"/>
		</g>
	</g>
	<g id="LeftLeg--group">
		<path d="M512.4 655.2c-4.6-5.2-3.7-15.7-1.9-29.4 2.6-19.8 5-34.5 25.4-50.8 24.4-19.5 62.2-15 76.2-.5 3.6 3.7 6.7 10.9 7.3 18.8.9 11.4-22.2 42.4-44.8 51.8-22.6 9.6-54 19.3-62.2 10.1z" class="st0" fill="#fc0"/>
		<path d="M512.4 658.9c-1.2 0-2.3-.5-3-1.6-4.7-6.7-4.5-17.2-2.6-32 2.5-19 4.6-35.5 26.8-53.2 26.8-21.4 63.7-14 78.4.7 1.4 1.4 1.4 3.8 0 5.2-1.4 1.4-3.8 1.4-5.2 0-12.5-12.5-45.4-18.7-68.6-.1-18.9 15.1-21.4 28.2-24.1 48.4-1.4 11-2.3 21.8 1.3 26.7 1.2 1.7.8 4-.9 5.2-.6.5-1.4.7-2.1.7z"/>
	</g>
	<g id="LeftFoot--group">
		<path d="M523.7 651.2c-.4 1.9-2 9.1-6.7 16.2-7 10.6-17.8 16.5-30.4 16.5-7.2 0-12.9-2.1-16.8-6.2-7.5-7.8-7.1-21-6.7-33.7v-.1c.2-6.4.4-13.1-.4-18.5-.7-4.4-1.8-9.1-3.1-14.5-2.4-10.2-4.6-20.1-4.3-28.7.4-10.7 4.7-18.9 12.8-24.4 3.5-2.4 7.4-3.5 11.4-3.5 9.3 0 18.9 6.2 28.7 18.6 7.1 8.9 13.1 20 15.4 28.1 6.4 21.8 4.9 34.9.1 50.2z"/>
		<path d="M477 670.8c2 2.1 5.2 3.1 9.6 3.1 22.6 0 27-23.7 27.2-24.7 0-.2.1-.4.1-.6 4.4-13.9 5.7-25.2 0-44.8-3.7-13.2-21.1-39.4-34.4-39.4-2 0-4 .6-5.8 1.9-11.7 7.8-9.3 21.8-4.4 42.4 1.2 5.1 2.5 10.4 3.2 15.3 1 6.4.8 13.5.5 20.4-.2 10.6-.6 21.6 4 26.4z" class="st0" fill="#fc0"/>
	</g>
	<g id="LeftArm--group">
		<g id="BeforeLeftArm--part"/>
		<path d="M478 413.3c-6.4 2.9-12.4 6.6-17.6 11.1-12.1 10.6-12.6 19.4-10.8 24.8 2.5 7.7 11.1 13.4 21.9 14.6 7.1.7 16.2-1.3 26.7-3.6 13.9-3.1 29.7-6.6 42.9-3.9 19.6 4.1 33.3 15 53.1 32.7l10.3 9.2c1.5 1.3 3.9 1.2 5.2-.4 1.3-1.5 1.2-3.9-.4-5.2l-2.9-2.6c-24-21.7-39.9-36-63.8-41-14.8-3.1-31.3.6-46 3.9-9.5 2.1-18.5 4.1-24.3 3.5-7.8-.8-14.1-4.6-15.7-9.5-1.5-4.7 1.6-10.7 8.7-17 20.7-18.2 59.1-23.7 87.5-12.5 4.7 1.9 7.4-5.1 2.7-6.9-11.4-4.4-24.6-6.6-37.7-6.2-10.1.4-30.5 4.8-39.8 9z"/>
		<path d="M615.4 451c11.7 12.2 17 60.3-6 41.6l-2.9-2.6c-24-21.7-39.9-36-63.8-41-14.8-3.1-31.3.6-46 3.9-9.5 2.1-18.5 4.1-24.3 3.5-7.8-.8-14.1-4.6-15.7-9.5-1.5-4.7 1.6-10.7 8.7-17 20.7-18.2 59.3-24 87.5-12.5 4.6 2 46.1 16.5 62.5 33.6z" class="st0" fill="#fc0"/>
	</g>
</svg>
