<?xml version="1.0" encoding="UTF-8" standalone="no"?>
<!-- Generator: Adobe Illustrator 16.0.4, SVG Export Plug-In . SVG Version: 6.00 Build 0)  -->

<svg
   version="1.1"
   id="Layer_1"
   x="0px"
   y="0px"
   width="209px"
   height="234.667px"
   viewBox="0 0 209 234.667"
   enable-background="new 0 0 209 234.667"
   xml:space="preserve"
   sodipodi:docname="ball.svg"
   inkscape:version="1.2.1 (9c6d41e4, 2022-07-14)"
   xmlns:inkscape="http://www.inkscape.org/namespaces/inkscape"
   xmlns:sodipodi="http://sodipodi.sourceforge.net/DTD/sodipodi-0.dtd"
   xmlns:xlink="http://www.w3.org/1999/xlink"
   xmlns="http://www.w3.org/2000/svg"
   xmlns:svg="http://www.w3.org/2000/svg"><defs
   id="defs4205" /><sodipodi:namedview
   id="namedview4203"
   pagecolor="#ffffff"
   bordercolor="#666666"
   borderopacity="1.0"
   inkscape:showpageshadow="2"
   inkscape:pageopacity="0.0"
   inkscape:pagecheckerboard="0"
   inkscape:deskcolor="#d1d1d1"
   showgrid="false"
   inkscape:zoom="2.586644"
   inkscape:cx="104.38236"
   inkscape:cy="117.72011"
   inkscape:window-width="1387"
   inkscape:window-height="757"
   inkscape:window-x="0"
   inkscape:window-y="25"
   inkscape:window-maximized="0"
   inkscape:current-layer="g4200" />
<g
   id="g4200">
	
	<g
   id="g4060"
   transform="matrix(1.6084713,0,0,1.6084713,-41.362776,-69.848667)">
		
		
		
		
		
		<g
   id="g4038">
			<g
   enable-background="new    "
   id="g4036">
				
				<g
   enable-background="new    "
   id="g4034">
					<defs
   id="defs3931">
						<path
   id="SVGID_3_"
   enable-background="new    "
   d="m 84.834,176.837 c -3.676,-0.323 -7.047,-0.834 -10.021,-1.518 -1.784,-0.41 -4.142,-1.05 -5.892,-1.585 -1.378,-0.421 -3.172,-1.112 -4.528,-1.598 -1.754,-0.628 -4.035,-1.637 -5.677,-2.517 -4.438,-2.379 -6.463,-3.464 -8.966,-5.332 -1.242,-0.927 -2.915,-2.144 -4.113,-3.127 -1.171,-0.962 -2.684,-2.305 -3.778,-3.353 -0.919,-0.879 -3.716,-3.556 -6.73,-7.511 -6.125,-8.038 -8.638,-15.249 -9.464,-17.618 -1.543,-4.428 -2.186,-8.229 -2.46,-9.852 -0.463,-2.737 -0.657,-6.447 -0.766,-9.22 -0.061,-1.564 0.002,-3.661 0.192,-5.214 0.188,-1.531 0.376,-3.581 0.631,-5.102 0.252,-1.509 0.676,-3.507 1.056,-4.989 1.098,-4.282 2.344,-7.331 3.307,-9.508 1.966,-4.446 3.944,-7.494 4.789,-8.795 2.473,-3.811 6.817,-9.493 13.467,-14.922 1.198,-0.978 2.815,-2.269 4.115,-3.107 2.565,-1.655 6.066,-3.74 8.752,-5.192 1.217,-0.658 5.819,-2.76 9.991,-4.059 5.692,-1.772 9.613,-2.46 13.75,-2.948 6.65,-0.784 11.679,-0.377 13.331,-0.244 -1.937,-0.156 -3.901,-0.211 -5.888,-0.16 1.987,-0.051 3.951,0.004 5.888,0.16 1.709,0.173 3.988,0.417 5.683,0.694 1.775,0.29 4.123,0.793 5.877,1.192 1.149,0.261 2.663,0.688 3.787,1.041 1.436,0.451 3.32,1.141 4.74,1.637 3.996,1.395 11.047,5.127 14.114,7.377 1.229,0.901 2.9,2.059 4.093,3.007 1.204,0.957 2.763,2.293 3.892,3.338 3.119,2.889 5.448,5.618 6.853,7.398 0.789,1 3.188,4.041 5.586,8.322 2.791,4.983 4.168,9.077 4.182,9.118 1.154,3.465 1.917,5.755 2.638,9.784 0.546,3.056 0.849,7.202 0.953,10.305 0.001,0.035 -0.038,4.665 -0.362,7.021 -0.42,3.051 -0.896,6.51 -1.979,10.001 -0.902,2.911 -1.683,5.425 -3.575,9.396 -1.29,2.706 -3.32,6.171 -5.021,8.641 -1.272,1.848 -3.407,4.699 -6.347,7.788 -2.991,3.145 -5.191,4.913 -7.521,6.786 -2.47,1.986 -6.95,4.833 -8.65,5.709 -1.343,0.693 -3.095,1.701 -4.486,2.293 -1.4,0.595 -3.249,1.433 -4.67,1.978 -1.366,0.523 -3.211,1.164 -4.613,1.581 -1.834,0.546 -4.3,1.216 -6.177,1.589 -2.435,0.484 -4.114,0.766 -7.625,1.155 -5.443,0.606 -10.079,0.361 -12.358,0.16 z" />
					</defs>
					<clipPath
   id="SVGID_4_">
						<use
   xlink:href="#SVGID_3_"
   overflow="visible"
   id="use3933" />
					</clipPath>
					
					<circle
   style="opacity:1;fill:#fefefe;fill-opacity:0;fill-rule:evenodd;stroke:#000000;stroke-width:5;stroke-linejoin:bevel;stroke-dasharray:none;stroke-opacity:0.993174;paint-order:stroke fill markers"
   id="path4904"
   cx="90.851318"
   cy="112.88759"
   r="58.495029" /><g
   clip-path="url(#SVGID_4_)"
   id="g4032"
   style="display:inline;stroke:#e3e3e3;stroke-opacity:1">
						
						
						
						<path
   fill="#282a74"
   d="m 66.059,134.228 c -2.511,0.915 -4.543,0.983 -5.635,1.021 -2.119,-0.024 -3.456,-0.231 -5.5,-0.85 0.623,-5.702 1.161,-10.626 3.809,-20.397 2.036,6.028 3.643,10.79 7.896,19.636 0.056,0.088 0.13,0.207 0.187,0.295 -0.228,0.088 -0.528,0.212 -0.757,0.295 m -15.448,-1.856 c -8.225,-5.178 -13.712,-17.17 -8.288,-30.074 1.287,8.829 2.891,17.24 9.526,30.792 -0.37,-0.215 -0.874,-0.49 -1.238,-0.718 m 29.287,-19.23 c -0.226,5.535 -2.104,13.32 -9.768,18.983 1.842,-8.276 4.707,-16.28 6.547,-24.557 0.259,-1.162 0.863,-3.883 0.525,-7.261 0.886,1.898 2.96,6.343 2.696,12.835 m -7.256,-1.893 c -0.141,2.6 -1.044,5.613 -1.479,7.062 -0.522,2.376 -1.209,5.548 -1.687,7.934 -2.014,-5.304 -5.385,-14.181 -7.811,-25.418 1.677,-0.133 4.21,-0.335 3,-1.861 -0.129,-0.163 -10.876,-0.178 -10.979,-0.171 -0.707,0.044 -0.861,0.823 -0.876,0.912 -0.167,0.973 0.139,0.996 2.521,1.177 1.37,6.225 1.396,6.344 2.459,9.999 -1.288,4.748 -2.503,9.231 -3.519,15.734 -2.11,-5.612 -5.298,-14.093 -6.723,-25.715 2.142,-0.164 2.299,-0.29 2.366,-0.343 0.658,-0.522 0.592,-1.443 0.18,-1.681 -0.215,-0.125 -0.58,-0.049 -0.827,-0.027 -2.424,0.213 -3.29,0.224 -4.128,0.235 C 44.79,99.08 44.441,99.065 44.093,99.05 50.5,89.763 62.33,84.41 73.167,94.603 c -0.075,-0.002 -6.936,0.705 -2.592,8.68 1.099,2.018 2.256,4.466 2.067,7.966 m 9.736,2.913 c 0.828,-12.133 -6.791,-28.364 -23.247,-27.279 -21.746,3.904 -28.361,33.583 -10.41,46.7 14.103,10.307 32.347,-0.221 33.657,-19.421"
   id="path4030"
   style="fill:#030309;fill-opacity:1;stroke:#020202;stroke-opacity:1"
   inkscape:label="path4030" />
					</g>
				</g>
			</g>
		</g>
		
		
		
		
		
		
		
		
		
		
	</g>
	
	
</g>
</svg>
