<svg xmlns="http://www.w3.org/2000/svg" xmlns:xlink="http://www.w3.org/1999/xlink" xml:space="preserve" viewBox="0 0 1000 1000">
  <g class="Background--group">
      <path fill="#e0ab5f" d="M367.9 550.2s-14.2 1.3-16.1 6.5c-1.8 5.1 5.4 14.7 5.4 14.7z"/>
  </g>
  <g class="RightArm--group">
    <path d="M436.6 504c-4.5 5.1-10.5 7.9-17 7.9-9.1 0-18.5-5.5-24.4-14.4-10.656-15.847-18.332-23.974-23.057-28.649l24.146-33.154c.942-.896 1.5-2.1 2.5-1.3l3.511 1.203c.7.5 1.7 1.1 2.9 1.7 10.2 4.9 31.7 27.4 35.7 46.7 2.1 10.1-1.2 16.5-4.3 20z"/>
    <path fill="#e0ab5f" d="M402.1 444.1c-1.5-.7-2.9-1.5-4.2-2.4-.5 5.5-3 11-7.3 15.3-3.7 3.7-8.1 6.2-12.5 7.4 8.7 8.6 17 19.8 23.2 29.1 4.5 6.7 11.6 11.1 18.3 11.1 4.1 0 8.1-1.6 11.4-5.4 13-14.8-17.3-49.6-28.9-55.1z"/>
    <path fill="#efcda0" d="M408.4 445.4c-.2-4.4-7.8-16.8-12.8-12.8-14.7 11.7-28.3 32.3-27.6 35.4.7 3.1 3.7 2.2 6.7 10 .7 1.8 1.4 3.1 2.1 4 1.1 1.5 3.2 2.1 4.9 1.3 18.2-8.1 31.1-26.9 36.4-34.4 1.7-2.4 1.4-4.7-.7-6.7-2.3-2.2-6.1-5.5-11.8-6.1"/>
    <path d="M407.7 445.4c-2.42-3.842-5.134-7.726-8.856-10.405-1.72-.937-2.895 1.5-4.194 2.214-15.121 13.924-23.459 29.366-22.92 30.422a21.24 21.24 0 0 1 5.999 8.65c.777 1.174 1.204 4.788 3.22 3.651 12.518-5.914 22.2-16.34 30.47-27.195 1.543-2.187 3.242-4.307 4.593-6.612-.535-2.155-2.897-3.406-4.527-4.773-2.407-2.504-7.14-1.274-8.604-4.59-.863-3.898 3.82-4.175 6.367-3.058 4.298 1.094 8.128 3.666 11.152 6.858 2.546 2.639 2.567 6.92.463 9.825-8.343 12.656-18.392 24.692-31.535 32.57-3.207 1.674-6.448 4.213-10.284 3.639-3.708-.548-5.9-3.891-7.122-7.116a15.818 15.818 0 0 0-4.753-7.31c-2.34-2.014-2.764-5.518-1.314-8.173 3.971-8.317 9.945-15.494 15.96-22.402 4.179-4.399 8.466-8.839 13.49-12.267 4.2-1.85 8.575 1.357 10.81 4.777 2.124 3.301 4.045 7.386 3.058 11.372-.48.745-.996.065-1.473-.077z"/>
  </g>
  <g class="Body--group">
    <defs>
      <g id="paleontologist_jacket_1_body__left">
        <path fill="#e0ab5f" d="M406.5 501.2s1.8 23.5-10 38-18.8 4.3-36.8 12.6l-9.4 5.8s.7-9 17.9-17.2 25-14 30.7-25.2c5.7-11.3 7.6-14 7.6-14z"/>
        <path fill="none" stroke="#000" stroke-linecap="round" stroke-linejoin="round" stroke-width="6" d="M355 569.6s-8.7-9.2-1-18.4c7.7-9.2 42.5-23.4 49.3-45.9"/>
        <path fill="#e0ab5f" d="M394.3 545c16.2-5.2 26.8-32.4 24.2-66-2.6-33.6-13.8-47.7-13.8-47.7s-8.1 3.6-15.9 11.8l19.9 12.3-15.1 19.3s11.9 11.6 13.3 30c2 26.5-17 41.8-17 41.8"/>
        <path fill="none" stroke="#000" stroke-linecap="round" stroke-linejoin="round" stroke-width="6" d="M390.1 546.2c2.2-1.9 18.6-16.9 16.8-41.6-1.4-18.3-13.3-30-13.3-30l14.2-18.5-19.1-13.1c6.3-10 15.9-11.7 15.9-11.7s11.2 14.1 13.9 47.6c2.6 33.6-8 60.8-24.2 66-1.4.5-2.8.9-4.2 1.3-14.7 3.9-29.2 3.8-37.1 8"/>
        <path d="m331.5 562.8-1.5-.6c-.3-.1-.5-.2-.7-.3 1.3.5 2.2.9 2.2.9z"/>
        <path fill="#e0ab5f" d="M628.8 613.4c-3.1-5.7-6.3-10.9-9.7-15.7-.4-.5-.7-1-1.1-1.4-22.2-30-50.4-40.5-71.8-43.3-5.2-.7-10-.9-14.2-.9-26.9-.7-39.5-18.4-44.8-40.2-.2-.8-.4-1.6-.5-2.3-10.6-49.9 20.9-99 70.2-112.1 38.7-7.8 70.3-8.6 70.3-8.6l.1.2c.4.6 2.1 3 4 8.2.9 2.5 1.9 5.7 2.8 9.7 0 0 3.8 4.5.7 4.5 32.3 125.5-5.4 200.7-6 201.9z"/>
        <path fill="none" stroke="#000" stroke-linecap="round" stroke-linejoin="round" stroke-width="6" d="M631 398.8s23.2 53.3 18.6 135c-2.5 44-14.5 86.2-32.1 85.4"/>
        <path fill="none" stroke="#000" stroke-linecap="round" stroke-linejoin="round" stroke-width="6" d="M628.8 613.4c-27.9-52.3-72.4-60.7-96.8-61.3-26.9-.7-39.5-18.4-44.8-40.2-12.5-52.1 21.3-103.8 73.6-115.4 35.2-7.8 66.3-7.6 66.3-7.6s3 3.5 6 7.8c0 0-25.3 7.6-63.4 24l-22.9-16.5s2.4 27.2-1.9 31c-5 4.3-51.6 15.6-58.2 74.4"/>
        <circle cx="498.6" cy="506.9" r="5" fill="#8d441d" stroke="#000" stroke-linecap="round" stroke-linejoin="round" stroke-width="3"/>
        <circle cx="507.1" cy="528.3" r="5" fill="#8d441d" stroke="#000" stroke-linecap="round" stroke-linejoin="round" stroke-width="3"/>
        <path fill="#efcda0" stroke="#000" stroke-width="3" d="M528.1 493.3s4.1 6.5 7.9 9.8c5.3 4.7 35.6 3.1 40.9-1.4 2.8-2.4 6-11 6-11"/>
        <path fill="none" stroke="#000" stroke-linecap="round" stroke-linejoin="round" stroke-width="5" d="M527.9 492.9s31.2 0 55-3c0 0 2.7 36 2.3 40.9-.7 7.5-48.9 13.9-52.8 2.3-2.8-8.1-4.5-40.2-4.5-40.2z"/>
        <path fill="none" stroke="#000" stroke-width="3" d="M528.1 493.3s4.1 6.5 7.9 9.8c5.3 4.7 35.6 3.1 40.9-1.4 2.8-2.4 6-11 6-11"/>
        <circle cx="556.7" cy="499" r="3.4" fill="none" stroke="#000" stroke-linecap="round" stroke-linejoin="round" stroke-width="3.4"/>
      </g>
      <path id="paleontologist_jacket_1__leg_cut" fill="" d="M 571.86914 558.75 C 558.98257 558.88791 545.32459 562.73713 533.59961 572.09961 C 525.2756 578.73632 519.77808 585.20467 516.02539 591.69922 L 516.90039 591.69922 C 517.70039 591.69922 518.49922 591.70078 519.19922 591.80078 L 520.30078 591.90039 C 522.10078 592.10039 523.99922 592.19961 525.69922 592.59961 L 528.90039 593.09961 L 532.19922 593.80078 C 533.59922 594.10078 535.1 594.50039 536.5 594.90039 C 537.2 595.10039 537.8 595.30039 538.5 595.40039 C 539.2 595.60039 539.8 595.8 540.5 596 C 540.9 596.1 541.80078 596.40039 541.80078 596.40039 C 542.80078 596.70039 543.79922 597.00039 544.69922 597.40039 L 547.69922 598.59961 L 550.69922 599.90039 C 551.59922 600.30039 552.59961 600.80078 553.59961 601.30078 C 553.99961 601.50078 554.29922 601.70078 554.69922 601.80078 L 556.5 602.69922 C 560 604.59922 563.69961 606.70039 567.59961 609.40039 C 573.7996 613.60039 579.7004 618.30079 585.40039 622.80078 L 588 624.90039 C 590.54664 626.9109 593.11777 628.83483 595.72461 630.69531 C 609.55973 617.7834 620.01107 601.036 619.40039 593.30078 C 618.85333 586.09789 616.22089 579.50859 613.0332 575.5918 C 613.0836 574.57891 612.74724 573.54802 612 572.80078 C 603.73127 564.53205 588.43759 558.57268 571.86914 558.75" />
      <clipPath id="paleontologist_jacket_1__leg_cut_clip">
            <use xlink:href="#paleontologist_jacket_1__leg_cut"/>
        </clipPath>
    </defs>
    <use xlink:href="#paleontologist_jacket_1_body__left"/>
  </g>
  <g class="LeftArm--group">
    <path fill="#e0ab5f" d="M611 509s-43-39.9-97.5-49.2c0 0 2.9-16.9.4-35.8-2.5-18.8-3.3-22.5-3.3-22.5 60 1.4 95.3 24.7 95.3 24.7s20.9 7.9 26 45.5C637 509.3 611 509 611 509Z"/>
    <path fill="none" stroke="#000" stroke-linecap="round" stroke-linejoin="round" stroke-width="7" d="M605.9 426.3s-35.4-23.3-95.3-24.7M611 509s-43-39.9-97.5-49.2"/>
    <path fill="#efcda0" d="M497.8 407.3c-4.3-3.1-21.5-5.2-21.5 2.5 0 22.5 9.2 50.7 12.6 52.4 3.4 1.6 4.8-1.9 14.3 1.2 2.2.7 3.9 1 5.3 1 2.3.1 4.3-1.4 4.9-3.6 6-23.1-2-49.2-5.1-59.8-1-3.3-3.3-4.8-6.8-4.3-3.8.5-9.7 1.6-14.6 6.5"/>
    <path d="M497.3 408c-4.914-.712-9.994-.736-14.897.078-2.136.059-3.256 1.64-2.803 3.59.56 11.135 2.657 22.186 5.812 32.872 1.58 4.915 3.03 10.08 5.688 14.46-1.275-.897 3.403-.719 4.37-.981 4.548-.352 8.713 1.894 13.13 2.381.944-.232.66-1.626 1-2.4 3.234-15.57.867-31.642-2.962-46.877-.944-3.329-1.618-6.781-2.938-9.973-1.91-1.293-4.377.103-6.433.308-4.21.49-6.87 4.356-10.654 5.404-4.867-.39-3.672-6.51-.15-8.03 4.894-3.84 11.22-5.82 17.412-5.676 4.258.325 7.399 3.925 8.22 7.928 4.66 14.656 7.99 29.98 7.348 45.438-.251 5.54-1.045 11.1-2.556 16.428-1.529 4.487-6.663 6.54-11.062 5.525-4.188-.754-8.282-2.979-12.63-1.88-3.464.86-7.454-.407-9.201-3.66-3.326-5.746-5.033-12.256-6.796-18.61-2.83-11.43-4.672-23.191-4.586-34.988.199-4.774 5.039-7.45 9.321-7.787 5.63-.544 11.808.846 15.991 4.822 1.04.482.002 2.433-.624 1.628z"/>
  </g>
  <g class="LeftLeg--group">
    <g class="paleontologist_jacket_1__left_leg">
      <g clip-path="url(#paleontologist_jacket_1__leg_cut_clip)">
          <use xlink:href="#paleontologist_jacket_1_body__left" />
      </g>
    </g>
  </g>
</svg>