<svg xmlns="http://www.w3.org/2000/svg" xmlns:xlink="http://www.w3.org/1999/xlink" xml:space="preserve" id="svg44" version="1.1" viewBox="0 0 1000 1000">
  <g id="wapuugotchi_type__wapuu">
    <g id="Background--group">
      <path fill="#e0ab5f" d="M367.9 550.2s-14.2 1.3-16.1 6.5c-1.8 5.1 5.4 14.7 5.4 14.7z"/>
    </g>
    <g id="RightArm--group">
      <path d="M436.6 504c-4.5 5.1-10.5 7.9-17 7.9-9.1 0-18.5-5.5-24.4-14.4-7.8-11.6-15.5-21.2-22.3-27.9l-4.8-4.7c-2-2-1.1-5.3 1.6-6.1l6.5-1.7c3.2-.9 6.4-2.7 9.1-5.5 3-3 4.8-6.7 5.2-10.4V430c0-1.3 1.5-2.1 2.5-1.3l9.3 6.9c.7.5 1.7 1.1 2.9 1.7 10.2 4.9 31.7 27.4 35.7 46.7 2.1 10.1-1.2 16.5-4.3 20z"/>
      <path fill="#fc0" d="M402.1 444.1c-1.5-.7-2.9-1.5-4.2-2.4-.5 5.5-3 11-7.3 15.3-3.7 3.7-8.1 6.2-12.5 7.4 8.7 8.6 17 19.8 23.2 29.1 4.5 6.7 11.6 11.1 18.3 11.1 4.1 0 8.1-1.6 11.4-5.4 13-14.8-17.3-49.6-28.9-55.1z" class="st0"/>
      <path d="M436.6 504c-4.5 5.1-10.5 7.9-17 7.9-9.1 0-18.5-5.5-24.4-14.4-10.656-15.847-18.332-23.974-23.057-28.649l24.146-33.154c.942-.896 1.5-2.1 2.5-1.3l3.511 1.203c.7.5 1.7 1.1 2.9 1.7 10.2 4.9 31.7 27.4 35.7 46.7 2.1 10.1-1.2 16.5-4.3 20z"/>
      <path fill="#e0ab5f" d="M402.1 444.1c-1.5-.7-2.9-1.5-4.2-2.4-.5 5.5-3 11-7.3 15.3-3.7 3.7-8.1 6.2-12.5 7.4 8.7 8.6 17 19.8 23.2 29.1 4.5 6.7 11.6 11.1 18.3 11.1 4.1 0 8.1-1.6 11.4-5.4 13-14.8-17.3-49.6-28.9-55.1z"/>
      <path fill="#efcda0" d="M408.4 445.4c-.2-4.4-7.8-16.8-12.8-12.8-14.7 11.7-28.3 32.3-27.6 35.4.7 3.1 3.7 2.2 6.7 10 .7 1.8 1.4 3.1 2.1 4 1.1 1.5 3.2 2.1 4.9 1.3 18.2-8.1 31.1-26.9 36.4-34.4 1.7-2.4 1.4-4.7-.7-6.7-2.3-2.2-6.1-5.5-11.8-6.1"/>
      <path d="M407.7 445.4c-2.42-3.842-5.134-7.726-8.856-10.405-1.72-.937-2.895 1.5-4.194 2.214-15.121 13.924-23.459 29.366-22.92 30.422a21.24 21.24 0 0 1 5.999 8.65c.777 1.174 1.204 4.788 3.22 3.651 12.518-5.914 22.2-16.34 30.47-27.195 1.543-2.187 3.242-4.307 4.593-6.612-.535-2.155-2.897-3.406-4.527-4.773-2.407-2.504-7.14-1.274-8.604-4.59-.863-3.898 3.82-4.175 6.367-3.058 4.298 1.094 8.128 3.666 11.152 6.858 2.546 2.639 2.567 6.92.463 9.825-8.343 12.656-18.392 24.692-31.535 32.57-3.207 1.674-6.448 4.213-10.284 3.639-3.708-.548-5.9-3.891-7.122-7.116a15.818 15.818 0 0 0-4.753-7.31c-2.34-2.014-2.764-5.518-1.314-8.173 3.971-8.317 9.945-15.494 15.96-22.402 4.179-4.399 8.466-8.839 13.49-12.267 4.2-1.85 8.575 1.357 10.81 4.777 2.124 3.301 4.045 7.386 3.058 11.372-.48.745-.996.065-1.473-.077z"/>
    </g>
    <g id="Tail--group">
      <path d="M599.1 649.5c-9 25.7-26.4 50-50.3 70.3-23.8 20.3-51.8 34.7-81 41.6-6.9 1.6-14.1 2.5-21.5 2.5-30.8 0-58.9-13.9-74.8-27-13.6-11.1-21.2-23.3-20.9-33.5.4-12 6.7-20.7 16.8-23.3 2.1-.5 4.3-.8 6.7-.8 11.2 0 27.2 6.7 38.5 25.7 7.8 13.2 22 20.1 41.1 20.1h1.2c40.7-.8 87.6-31.2 109.1-70.8 7.7-14.1 13.2-29.6 17.1-40.8 1.9-5.4 3.6-10.1 5.1-13.5 1.3-3.1 4.1-9.4 10.4-9.4 4.1 0 7.6 1.8 9.9 5 5.5 7.6 3.3 23.3-7.4 53.9z"/>
      <path fill="#f80" d="M570.5 657.8c-22.7 41.7-72.5 73.9-115.5 74.7h-1.4c-21.6 0-38.3-8.4-47.4-23.8-9-15.1-22-22.1-32.1-22.1-1.7 0-3.3.2-4.8.6-7 1.8-11 7.6-11.3 16.4-.3 7.7 6.6 18 18.2 27.5 16.8 13.7 43.2 25.3 70.1 25.3 6.6 0 13.3-.7 19.8-2.3 57.2-13.5 108.5-57.4 126-107.1 5.4-15.3 16.7-49.2 4.5-49.2-4.5.1-10.8 31.8-26.1 60z" class="st1"/>
    </g>
    <g id="Body--group">
      <path d="M649.7 531.9c-2 24-6.7 45.1-13.9 62.9-8.5 20.9-20.3 36.6-35.1 46.8-34 23.4-64.8 26-76.4 26-1.3 0-2.5 0-3.8-.1-18.4-.8-26-4.4-32.7-7.5-5.9-2.8-11-5.2-24.9-5.7-37.5-1.5-67-9.9-83.1-23.6-.2-.1-.5-.4-.9-.7-4.8-3.5-19.3-14.3-25-24.7-5.3-9.7-6.2-22.3-2.3-31.4 13.4-31.2 24.5-40.5 33.5-48 3.6-3 6.4-5.3 8.8-8.7 2.2-3.1 3.8-7.1 4.9-12.2 0-.1 0-.2.1-.3 3.9-15 3.4-34.9 2.8-56-.2-5.7-.3-11.7-.4-17.5v-.1c0-18.6 9.6-40.7 25.7-59.2 18.1-20.8 41.6-33.6 66.1-36.2 20.2-2.1 34.3-3.1 45.9-3.1 43.7 0 58.6 14.8 82.2 48.4 7.5 10.6 12.1 22.5 16 33.7 11.1 30.4 15.9 76.5 12.5 117.2z"/>
      <path fill="#fc0" d="M358.5 576.7c-3 7-2.2 17.4 2 25 5.6 10.3 23 22.2 24.1 23.2 15.1 12.9 43.7 20.5 78.7 21.9 31.2 1.3 24.3 11.8 57.6 13.3 1.1 0 2.2.1 3.5.1 16.7 0 43.7-5 72.2-24.7 58-39.9 52.9-165.3 34-218.6-3.9-11.1-8.3-22.2-15.1-31.9-23.5-33.5-36.6-45.2-76.2-45.2-12.2 0-26.9 1.1-45.1 3.1-49.9 5.3-85.3 55.3-85.3 88.1.3 27.4 2.5 55.1-2.7 75.5-1.4 6.5-3.4 11.2-6 14.9-9.8 13.5-23.4 12.4-41.7 55.3z" class="st0"/>
      <defs id="defs22">
        <clipPath id="paleontologist_jacket_1__leg_cut_clip">
          <use xlink:href="#paleontologist_jacket_1__leg_cut" id="use22"/>
        </clipPath>
        <path id="paleontologist_jacket_1__leg_cut" d="M571.87 558.75c-12.887.138-26.545 3.987-38.27 13.35-8.324 6.636-13.822 13.105-17.575 19.6h.875c.8 0 1.6 0 2.3.1l1.1.1c1.8.2 3.7.3 5.4.7l3.2.5 3.3.7c1.4.3 2.9.7 4.3 1.1.7.2 1.3.4 2 .5.7.2 1.3.4 2 .6.4.1 1.3.4 1.3.4 1 .3 2 .6 2.9 1l3 1.2 3 1.3c.9.4 1.9.9 2.9 1.4.4.2.7.4 1.1.5l1.8.9c3.5 1.9 7.2 4 11.1 6.7 6.2 4.2 12.1 8.9 17.8 13.4l2.6 2.1a199.104 199.104 0 0 0 7.725 5.795c13.835-12.912 24.286-29.659 23.675-37.394-.547-7.203-3.18-13.792-6.367-17.71.05-1.012-.286-2.043-1.033-2.79-8.269-8.269-23.562-14.228-40.13-14.051"/>
        <g id="paleontologist_jacket_1_body__left">
          <path fill="#e0ab5f" d="M406.5 501.2s1.8 23.5-10 38-18.8 4.3-36.8 12.6l-9.4 5.8s.7-9 17.9-17.2 25-14 30.7-25.2c5.7-11.3 7.6-14 7.6-14z"/>
          <path fill="none" stroke="#000" stroke-linecap="round" stroke-linejoin="round" stroke-width="6" d="M355 569.6s-8.7-9.2-1-18.4c7.7-9.2 42.5-23.4 49.3-45.9"/>
          <path fill="#e0ab5f" d="M394.3 545c16.2-5.2 26.8-32.4 24.2-66-2.6-33.6-13.8-47.7-13.8-47.7s-8.1 3.6-15.9 11.8l19.9 12.3-15.1 19.3s11.9 11.6 13.3 30c2 26.5-17 41.8-17 41.8"/>
          <path fill="none" stroke="#000" stroke-linecap="round" stroke-linejoin="round" stroke-width="6" d="M390.1 546.2c2.2-1.9 18.6-16.9 16.8-41.6-1.4-18.3-13.3-30-13.3-30l14.2-18.5-19.1-13.1c6.3-10 15.9-11.7 15.9-11.7s11.2 14.1 13.9 47.6c2.6 33.6-8 60.8-24.2 66-1.4.5-2.8.9-4.2 1.3-14.7 3.9-29.2 3.8-37.1 8"/>
          <path d="m331.5 562.8-1.5-.6c-.3-.1-.5-.2-.7-.3 1.3.5 2.2.9 2.2.9z"/>
          <path fill="#e0ab5f" d="M628.8 613.4c-3.1-5.7-6.3-10.9-9.7-15.7-.4-.5-.7-1-1.1-1.4-22.2-30-50.4-40.5-71.8-43.3-5.2-.7-10-.9-14.2-.9-26.9-.7-39.5-18.4-44.8-40.2-.2-.8-.4-1.6-.5-2.3-10.6-49.9 20.9-99 70.2-112.1 38.7-7.8 70.3-8.6 70.3-8.6l.1.2c.4.6 2.1 3 4 8.2.9 2.5 1.9 5.7 2.8 9.7 0 0 3.8 4.5.7 4.5 32.3 125.5-5.4 200.7-6 201.9z"/>
          <path fill="none" stroke="#000" stroke-linecap="round" stroke-linejoin="round" stroke-width="6" d="M631 398.8s23.2 53.3 18.6 135c-2.5 44-14.5 86.2-32.1 85.4"/>
          <path fill="none" stroke="#000" stroke-linecap="round" stroke-linejoin="round" stroke-width="6" d="M628.8 613.4c-27.9-52.3-72.4-60.7-96.8-61.3-26.9-.7-39.5-18.4-44.8-40.2-12.5-52.1 21.3-103.8 73.6-115.4 35.2-7.8 66.3-7.6 66.3-7.6s3 3.5 6 7.8c0 0-25.3 7.6-63.4 24l-22.9-16.5s2.4 27.2-1.9 31c-5 4.3-51.6 15.6-58.2 74.4"/>
          <circle id="circle19" cx="498.6" cy="506.9" r="5" fill="#8d441d" stroke="#000" stroke-linecap="round" stroke-linejoin="round" stroke-width="3"/>
          <circle id="circle20" cx="507.1" cy="528.3" r="5" fill="#8d441d" stroke="#000" stroke-linecap="round" stroke-linejoin="round" stroke-width="3"/>
          <path fill="#efcda0" stroke="#000" stroke-width="3" d="M528.1 493.3s4.1 6.5 7.9 9.8c5.3 4.7 35.6 3.1 40.9-1.4 2.8-2.4 6-11 6-11"/>
          <path fill="none" stroke="#000" stroke-linecap="round" stroke-linejoin="round" stroke-width="5" d="M527.9 492.9s31.2 0 55-3c0 0 2.7 36 2.3 40.9-.7 7.5-48.9 13.9-52.8 2.3-2.8-8.1-4.5-40.2-4.5-40.2z"/>
          <path fill="none" stroke="#000" stroke-width="3" d="M528.1 493.3s4.1 6.5 7.9 9.8c5.3 4.7 35.6 3.1 40.9-1.4 2.8-2.4 6-11 6-11"/>
          <circle id="circle22" cx="556.7" cy="499" r="3.4" fill="none" stroke="#000" stroke-linecap="round" stroke-linejoin="round" stroke-width="3.4"/>
        </g>
      </defs>
      <use xlink:href="#paleontologist_jacket_1_body__left" id="use23"/>
    </g>
    <g id="RightFoot--group">
      <path d="M384.3 648c-2.4 3.7-6.4 5.7-11.5 5.7-1.9 0-4-.3-6.2-.8-25-6-59.3-43.6-63.6-64.5-1.9-9.4-.2-18 5-24.4 4.6-5.7 11.4-8.8 18.9-8.8 6.8 0 13.6 2.5 19.8 7.3 12.2 9.4 32.9 50.5 37.3 60.7 2.5 5.8 4.9 17.7.3 24.8z"/>
      <path fill="#fc0" d="M310.1 586.8c3.8 18.2 36.2 53.6 58.1 58.8 1.7.4 3.2.6 4.5.6 3.4 0 4.7-1.3 5.4-2.3 2.3-3.5 1.5-12.1-1-17.9-6.1-13.9-25.3-50.3-35.1-57.8-4.9-3.8-10.2-5.8-15.3-5.8-5.3 0-10 2.2-13.2 6.1-3.6 4.7-4.8 11.2-3.4 18.3z" class="st0"/>
    </g>
    <g id="FullHead--group">
      <g id="RightEar--group">
        <path d="M413.3 399.4c-.4 4.4-3.8 8.4-11.1 12.9-4.7 3-10.2 5.5-13.9 6.5-6.5 1.7-12.3 2.6-17.3 2.6-6.7 0-10.6-1.6-12.7-2.9-4.8-3-4.4-7.2-4.2-8.5.5-3.1 2.9-5.5 5.9-6.2 3.5-.8 13.5-5.8 23.6-12.6 4.2-2.9 10.7-4.8 16.1-4.8 5.8 0 9.1 2.2 10.8 4.1 2.1 2.4 3.1 5.5 2.8 8.9z"/>
        <path fill="#f80" d="M361.4 411.3c0 .3.4.7.9.9 1.1.7 3.6 1.8 8.8 1.8 4.3 0 9.5-.8 15.4-2.3 5.2-1.4 19.1-8.8 19.5-13 .1-1.3-.2-2.4-.9-3.2-1-1.1-2.8-1.7-5.3-1.7-3.9 0-8.9 1.5-11.9 3.5-8.5 5.7-20.5 12.5-26.1 13.7-.3.1-.4.2-.4.3z" class="st1"/>
      </g>
      <g id="Head--group">
        <path d="M516.4 328.1c1.6 0 3.2 0 4.8.1 20.6.6 39.5 6.5 55.9 17 11.2 7.2 17.5 11.4 25.9 25.2 1.5 2.5 9 .8 7.9-1.1-10.1-17.6-17.5-22.3-29.8-30.3-17.7-11.4-37.8-17.6-59.7-18.2-1.6 0-3.3-.1-5-.1-1.6 0-3.3 0-4.9.1-24.3.6-47.8 6.6-67.8 17.1-20.2 10.6-37.1 26.1-48.9 44.7-7.7 12.3-10.3 23.9-7.4 33.5 2.4 7.8 7.9 12.7 12.3 14.6 1.4.6 2.9.9 4.7.9 9.3 0 34.7-9.3 45.7-24.8 8.4 4.5 17.6 6.7 28.1 6.7 12.6 0 25-3.2 36.4-6.9 3-1 3.8-2.2 3.9-4.1 0-1.3-1.2-3.6-3.8-3.5-.3 0-.7.1-1 .2-11.2 3.6-23.3 6.9-35.4 6.9-9.3 0-18.6-2-27.4-7.4-.6-.4-1.3-.5-1.9-.5-1.3 0-2.5.6-3.2 1.8l-.1.1c-7.9 14.3-33.3 24.1-41.2 24.1-.7 0-1.3-.1-1.7-.3-2.8-1.2-6.6-4.6-8.2-10-2.3-7.5 0-17 6.6-27.4 22.5-35.7 63.4-57.1 110.6-58.3 1.4-.1 3-.1 4.6-.1"/>
        <path fill="#fc0" d="M516.6 399.4c-1-.4-2-.7-3-.3-19.7 6.3-42.5 12-62.8-.5-1.7-1.1-4-.5-5.1 1.2l-.1.1c-8.6 15.7-38.3 26-43 23.9-2.8-1.2-6.6-4.6-8.2-10-2.3-7.5 0-17 6.6-27.4 22.5-35.7 63.4-57.1 110.6-58.3 3.1-.1 6.3-.1 9.5 0 20.6.6 39.5 6.5 55.9 17 13.2 8.5 19.7 12.7 30.6 33.6-33.782-1.673-55.4 2.019-91 20.7z"/>
      </g>
      <g id="LeftEar--group">
        <path d="M701.4 357.1c-.5 1.7-1.2 3.4-2 5.2-5 10-17.7 23-38 29.1-4.5 1.4-9.3 2-14 2h-.1c-13 0-34.2-4.9-61.6-28.3-1.9-1.7-5.1-4.8-7.1-7-2.3-2.5-2.8-6.1-1.5-9.1s4.4-5.1 7.8-5.1h.5c13.9.8 30.1 1.2 48.4 1.2 8.1 0 14.8-.1 19.3-.1h4.5c7.4 0 13.3-.1 18.2-.1 8.1 0 13.7.1 17.1.2 2.9.1 5.6 1.5 7.3 3.9 1.5 2.3 2 5.2 1.2 8.1z"/>
        <path fill="#f80" d="M590.4 359.4c25.7 21.9 45.1 26.5 56.8 26.5h.1c4 0 8-.6 11.9-1.7 18.1-5.4 29.2-16.6 33.5-25.3.8-1.5 1.2-2.8 1.5-3.9.4-1.3-.6-2.6-1.9-2.7-3.3-.1-8.9-.2-16.7-.2-5.4 0-11.6 0-18.2.1-3.3 0-12.2.2-23.9.2-13.9 0-31.7-.2-48.8-1.2h-.1c-.9 0-1.5 1.1-.8 1.8 2 2.2 5 5.1 6.6 6.4z" class="st1"/>
      </g>
      <g id="Face--group">
        <path d="M417.6 376.2c-4.1 0-7.4 3.3-7.4 7.4 0 9.9 14.8 9.9 14.8 0 0-4.1-3.3-7.4-7.4-7.4z"/>
        <path d="M503.2 355.7c-4.1 0-7.4 3.3-7.4 7.4 0 9.9 14.8 9.9 14.8 0 0-4.1-3.3-7.4-7.4-7.4z"/>
        <path id="Face--group__nose" d="M457.9 375.4c-7.4.8-12.3 2.5-15.6 4.9-5.9 4.4-4.1 9.9 2.5 10.7 6.6.8 7.1 1.2 13.2-3.3 6.5-4.9 7.3-13.1-.1-12.3z"/>
      </g>
    </g>
    <g id="LeftLeg--group">
      <path fill="#fc0" d="M512.4 655.2c-4.6-5.2-3.7-15.7-1.9-29.4 2.6-19.8 5-34.5 25.4-50.8 24.4-19.5 62.2-15 76.2-.5 3.6 3.7 6.7 10.9 7.3 18.8.9 11.4-22.2 42.4-44.8 51.8-22.6 9.6-54 19.3-62.2 10.1z" class="st0"/>
      <path d="M512.4 658.9c-1.2 0-2.3-.5-3-1.6-4.7-6.7-4.5-17.2-2.6-32 2.5-19 4.6-35.5 26.8-53.2 26.8-21.4 63.7-14 78.4.7 1.4 1.4 1.4 3.8 0 5.2-1.4 1.4-3.8 1.4-5.2 0-12.5-12.5-45.4-18.7-68.6-.1-18.9 15.1-21.4 28.2-24.1 48.4-1.4 11-2.3 21.8 1.3 26.7 1.2 1.7.8 4-.9 5.2-.6.5-1.4.7-2.1.7z"/>
      <g id="g35" class="paleontologist_jacket_1__left_leg">
        <g id="g34" clip-path="url(#paleontologist_jacket_1__leg_cut_clip)">
          <use xlink:href="#paleontologist_jacket_1_body__left" id="use34"/>
        </g>
      </g>
    </g>
    <g id="LeftFoot--group">
      <path d="M523.7 651.2c-.4 1.9-2 9.1-6.7 16.2-7 10.6-17.8 16.5-30.4 16.5-7.2 0-12.9-2.1-16.8-6.2-7.5-7.8-7.1-21-6.7-33.7v-.1c.2-6.4.4-13.1-.4-18.5-.7-4.4-1.8-9.1-3.1-14.5-2.4-10.2-4.6-20.1-4.3-28.7.4-10.7 4.7-18.9 12.8-24.4 3.5-2.4 7.4-3.5 11.4-3.5 9.3 0 18.9 6.2 28.7 18.6 7.1 8.9 13.1 20 15.4 28.1 6.4 21.8 4.9 34.9.1 50.2z"/>
      <path fill="#fc0" d="M477 670.8c2 2.1 5.2 3.1 9.6 3.1 22.6 0 27-23.7 27.2-24.7 0-.2.1-.4.1-.6 4.4-13.9 5.7-25.2 0-44.8-3.7-13.2-21.1-39.4-34.4-39.4-2 0-4 .6-5.8 1.9-11.7 7.8-9.3 21.8-4.4 42.4 1.2 5.1 2.5 10.4 3.2 15.3 1 6.4.8 13.5.5 20.4-.2 10.6-.6 21.6 4 26.4z" class="st0"/>
    </g>
    <g id="LeftArm--group" display="inline">
      <path d="M478 413.3c-6.4 2.9-12.4 6.6-17.6 11.1-12.1 10.6-12.6 19.4-10.8 24.8 2.5 7.7 11.1 13.4 21.9 14.6 7.1.7 16.2-1.3 26.7-3.6 13.9-3.1 29.7-6.6 42.9-3.9 19.6 4.1 33.3 15 53.1 32.7l10.3 9.2c1.5 1.3 3.9 1.2 5.2-.4 1.3-1.5 1.2-3.9-.4-5.2l-2.9-2.6c-24-21.7-39.9-36-63.8-41-14.8-3.1-31.3.6-46 3.9-9.5 2.1-18.5 4.1-24.3 3.5-7.8-.8-14.1-4.6-15.7-9.5-1.5-4.7 1.6-10.7 8.7-17 20.7-18.2 59.1-23.7 87.5-12.5 4.7 1.9 7.4-5.1 2.7-6.9-11.4-4.4-24.6-6.6-37.7-6.2-10.1.4-30.5 4.8-39.8 9z"/>
      <path fill="#fc0" d="M615.4 451c11.7 12.2 17 60.3-6 41.6l-2.9-2.6c-24-21.7-39.9-36-63.8-41-14.8-3.1-31.3.6-46 3.9-9.5 2.1-18.5 4.1-24.3 3.5-7.8-.8-14.1-4.6-15.7-9.5-1.5-4.7 1.6-10.7 8.7-17 20.7-18.2 59.3-24 87.5-12.5 4.6 2 46.1 16.5 62.5 33.6z" class="st0"/>
      <path fill="#e0ab5f" d="M611 509s-43-39.9-97.5-49.2c0 0 2.9-16.9.4-35.8-2.5-18.8-3.3-22.5-3.3-22.5 60 1.4 95.3 24.7 95.3 24.7s20.9 7.9 26 45.5C637 509.3 611 509 611 509Z"/>
      <path fill="none" stroke="#000" stroke-linecap="round" stroke-linejoin="round" stroke-width="7" d="M605.9 426.3s-35.4-23.3-95.3-24.7M611 509s-43-39.9-97.5-49.2"/>
      <path fill="#efcda0" d="M497.8 407.3c-4.3-3.1-21.5-5.2-21.5 2.5 0 22.5 9.2 50.7 12.6 52.4 3.4 1.6 4.8-1.9 14.3 1.2 2.2.7 3.9 1 5.3 1 2.3.1 4.3-1.4 4.9-3.6 6-23.1-2-49.2-5.1-59.8-1-3.3-3.3-4.8-6.8-4.3-3.8.5-9.7 1.6-14.6 6.5"/>
      <path d="M497.3 408c-4.914-.712-9.994-.736-14.897.078-2.136.059-3.256 1.64-2.803 3.59.56 11.135 2.657 22.186 5.812 32.872 1.58 4.915 3.03 10.08 5.688 14.46-1.275-.897 3.403-.719 4.37-.981 4.548-.352 8.713 1.894 13.13 2.381.944-.232.66-1.626 1-2.4 3.234-15.57.867-31.642-2.962-46.877-.944-3.329-1.618-6.781-2.938-9.973-1.91-1.293-4.377.103-6.433.308-4.21.49-6.87 4.356-10.654 5.404-4.867-.39-3.672-6.51-.15-8.03 4.894-3.84 11.22-5.82 17.412-5.676 4.258.325 7.399 3.925 8.22 7.928 4.66 14.656 7.99 29.98 7.348 45.438-.251 5.54-1.045 11.1-2.556 16.428-1.529 4.487-6.663 6.54-11.062 5.525-4.188-.754-8.282-2.979-12.63-1.88-3.464.86-7.454-.407-9.201-3.66-3.326-5.746-5.033-12.256-6.796-18.61-2.83-11.43-4.672-23.191-4.586-34.988.199-4.774 5.039-7.45 9.321-7.787 5.63-.544 11.808.846 15.991 4.822 1.04.482.002 2.433-.624 1.628z"/>
    </g>
    <g id="RightHand--group">
      <path d="M390.6 457c-5.2 5.1-11.7 8.1-17.8 8.1-8.1 0-14-5.1-15.6-13.3-1-5.4.9-11.3 5.4-16.7 5.8-6.9 14.9-12 21.7-12.1h.2c1.3 0 2.6.2 3.8.6h.2l.1.1c4.5 1.8 7.9 6.2 9.1 11.8 1.4 7.5-1.2 15.5-7.1 21.5z"/>
      <path fill="#fc0" d="M385.4 451.7c4.2-4.2 6-9.6 5-14.7-.6-3.1-2.3-5.5-4.6-6.4-.4-.1-.9-.2-1.3-.2h-.1c-4 0-11.3 3.6-16.1 9.4-1.8 2.1-4.6 6.3-3.8 10.6 1.1 6 5.1 7.3 8.3 7.3 4.1 0 8.8-2.2 12.6-6z" class="st0"/>
    </g>
  </g>
</svg>