<svg xmlns="http://www.w3.org/2000/svg" id="wapuugotchi_svg__wapuu" x="0" y="0" version="1.1" viewBox="0 0 1000 1000">
	<g id="RightArm--group">
		<path d="M436.6 504c-4.5 5.1-10.5 7.9-17 7.9-9.1 0-18.5-5.5-24.4-14.4-7.8-11.6-15.5-21.2-22.3-27.9l-4.8-4.7c-2-2-1.1-5.3 1.6-6.1l6.5-1.7c3.2-.9 6.4-2.7 9.1-5.5 3-3 4.8-6.7 5.2-10.4V430c0-1.3 1.5-2.1 2.5-1.3l9.3 6.9c.7.5 1.7 1.1 2.9 1.7 10.2 4.9 31.7 27.4 35.7 46.7 2.1 10.1-1.2 16.5-4.3 20z"/>
		<path d="M402.1 444.1c-1.5-.7-2.9-1.5-4.2-2.4-.5 5.5-3 11-7.3 15.3-3.7 3.7-8.1 6.2-12.5 7.4 8.7 8.6 17 19.8 23.2 29.1 4.5 6.7 11.6 11.1 18.3 11.1 4.1 0 8.1-1.6 11.4-5.4 13-14.8-17.3-49.6-28.9-55.1z" class="st0" fill="#fc0"/>
	</g>
	<g id="Tail--group">
		<path d="M599.1 649.5c-9 25.7-26.4 50-50.3 70.3-23.8 20.3-51.8 34.7-81 41.6-6.9 1.6-14.1 2.5-21.5 2.5-30.8 0-58.9-13.9-74.8-27-13.6-11.1-21.2-23.3-20.9-33.5.4-12 6.7-20.7 16.8-23.3 2.1-.5 4.3-.8 6.7-.8 11.2 0 27.2 6.7 38.5 25.7 7.8 13.2 22 20.1 41.1 20.1h1.2c40.7-.8 87.6-31.2 109.1-70.8 7.7-14.1 13.2-29.6 17.1-40.8 1.9-5.4 3.6-10.1 5.1-13.5 1.3-3.1 4.1-9.4 10.4-9.4 4.1 0 7.6 1.8 9.9 5 5.5 7.6 3.3 23.3-7.4 53.9z"/>
		<path d="M570.5 657.8c-22.7 41.7-72.5 73.9-115.5 74.7h-1.4c-21.6 0-38.3-8.4-47.4-23.8-9-15.1-22-22.1-32.1-22.1-1.7 0-3.3.2-4.8.6-7 1.8-11 7.6-11.3 16.4-.3 7.7 6.6 18 18.2 27.5 16.8 13.7 43.2 25.3 70.1 25.3 6.6 0 13.3-.7 19.8-2.3 57.2-13.5 108.5-57.4 126-107.1 5.4-15.3 16.7-49.2 4.5-49.2-4.5.1-10.8 31.8-26.1 60z" class="st1" fill="#f80"/>
	</g>
	<g id="Body--group">
		<path d="M649.7 531.9c-2 24-6.7 45.1-13.9 62.9-8.5 20.9-20.3 36.6-35.1 46.8-34 23.4-64.8 26-76.4 26-1.3 0-2.5 0-3.8-.1-18.4-.8-26-4.4-32.7-7.5-5.9-2.8-11-5.2-24.9-5.7-37.5-1.5-67-9.9-83.1-23.6-.2-.1-.5-.4-.9-.7-4.8-3.5-19.3-14.3-25-24.7-5.3-9.7-6.2-22.3-2.3-31.4 13.4-31.2 24.5-40.5 33.5-48 3.6-3 6.4-5.3 8.8-8.7 2.2-3.1 3.8-7.1 4.9-12.2 0-.1 0-.2.1-.3 3.9-15 3.4-34.9 2.8-56-.2-5.7-.3-11.7-.4-17.5v-.1c0-18.6 9.6-40.7 25.7-59.2 18.1-20.8 41.6-33.6 66.1-36.2 20.2-2.1 34.3-3.1 45.9-3.1 43.7 0 58.6 14.8 82.2 48.4 7.5 10.6 12.1 22.5 16 33.7 11.1 30.4 15.9 76.5 12.5 117.2z"/>
		<path d="M358.5 576.7c-3 7-2.2 17.4 2 25 5.6 10.3 23 22.2 24.1 23.2 15.1 12.9 43.7 20.5 78.7 21.9 31.2 1.3 24.3 11.8 57.6 13.3 1.1 0 2.2.1 3.5.1 16.7 0 43.7-5 72.2-24.7 58-39.9 52.9-165.3 34-218.6-3.9-11.1-8.3-22.2-15.1-31.9-23.5-33.5-36.6-45.2-76.2-45.2-12.2 0-26.9 1.1-45.1 3.1-49.9 5.3-85.3 55.3-85.3 88.1.3 27.4 2.5 55.1-2.7 75.5-1.4 6.5-3.4 11.2-6 14.9-9.8 13.5-23.4 12.4-41.7 55.3z" class="st0" fill="#fc0"/>
	</g>
	<g id="Ball--group"></g>
	<g id="RightHand--group">
		<g id="BeforeRightHand--part"/>
		<path d="M390.6 457c-5.2 5.1-11.7 8.1-17.8 8.1-8.1 0-14-5.1-15.6-13.3-1-5.4.9-11.3 5.4-16.7 5.8-6.9 14.9-12 21.7-12.1h.2c1.3 0 2.6.2 3.8.6h.2l.1.1c4.5 1.8 7.9 6.2 9.1 11.8 1.4 7.5-1.2 15.5-7.1 21.5z"/>
		<path d="M385.4 451.7c4.2-4.2 6-9.6 5-14.7-.6-3.1-2.3-5.5-4.6-6.4-.4-.1-.9-.2-1.3-.2h-.1c-4 0-11.3 3.6-16.1 9.4-1.8 2.1-4.6 6.3-3.8 10.6 1.1 6 5.1 7.3 8.3 7.3 4.1 0 8.8-2.2 12.6-6z" class="st0" fill="#fc0"/>
	</g>
	<g id="RightFoot--group">
		<path d="M384.3 648c-2.4 3.7-6.4 5.7-11.5 5.7-1.9 0-4-.3-6.2-.8-25-6-59.3-43.6-63.6-64.5-1.9-9.4-.2-18 5-24.4 4.6-5.7 11.4-8.8 18.9-8.8 6.8 0 13.6 2.5 19.8 7.3 12.2 9.4 32.9 50.5 37.3 60.7 2.5 5.8 4.9 17.7.3 24.8z"/>
		<path d="M310.1 586.8c3.8 18.2 36.2 53.6 58.1 58.8 1.7.4 3.2.6 4.5.6 3.4 0 4.7-1.3 5.4-2.3 2.3-3.5 1.5-12.1-1-17.9-6.1-13.9-25.3-50.3-35.1-57.8-4.9-3.8-10.2-5.8-15.3-5.8-5.3 0-10 2.2-13.2 6.1-3.6 4.7-4.8 11.2-3.4 18.3z" class="st0" fill="#fc0"/>
	</g>
	<g id="FullHead--group">
		<g id="BeforeHead--group">

		</g>
		<g id="RightEar--group">
			<path d="M413.3 399.4c-.4 4.4-3.8 8.4-11.1 12.9-4.7 3-10.2 5.5-13.9 6.5-6.5 1.7-12.3 2.6-17.3 2.6-6.7 0-10.6-1.6-12.7-2.9-4.8-3-4.4-7.2-4.2-8.5.5-3.1 2.9-5.5 5.9-6.2 3.5-.8 13.5-5.8 23.6-12.6 4.2-2.9 10.7-4.8 16.1-4.8 5.8 0 9.1 2.2 10.8 4.1 2.1 2.4 3.1 5.5 2.8 8.9z"/>
			<path d="M361.4 411.3c0 .3.4.7.9.9 1.1.7 3.6 1.8 8.8 1.8 4.3 0 9.5-.8 15.4-2.3 5.2-1.4 19.1-8.8 19.5-13 .1-1.3-.2-2.4-.9-3.2-1-1.1-2.8-1.7-5.3-1.7-3.9 0-8.9 1.5-11.9 3.5-8.5 5.7-20.5 12.5-26.1 13.7-.3.1-.4.2-.4.3z" class="st1" fill="#f80"/>
		</g>
		<g id="Head--group">
			<path d="M516.4 328.1c1.6 0 3.2 0 4.8.1 20.6.6 39.5 6.5 55.9 17 11.2 7.2 17.5 11.4 25.9 25.2 1.5 2.5 9 .8 7.9-1.1-10.1-17.6-17.5-22.3-29.8-30.3-17.7-11.4-37.8-17.6-59.7-18.2-1.6 0-3.3-.1-5-.1-1.6 0-3.3 0-4.9.1-24.3.6-47.8 6.6-67.8 17.1-20.2 10.6-37.1 26.1-48.9 44.7-7.7 12.3-10.3 23.9-7.4 33.5 2.4 7.8 7.9 12.7 12.3 14.6 1.4.6 2.9.9 4.7.9 9.3 0 34.7-9.3 45.7-24.8 8.4 4.5 17.6 6.7 28.1 6.7 12.6 0 25-3.2 36.4-6.9 3-1 3.8-2.2 3.9-4.1 0-1.3-1.2-3.6-3.8-3.5-.3 0-.7.1-1 .2-11.2 3.6-23.3 6.9-35.4 6.9-9.3 0-18.6-2-27.4-7.4-.6-.4-1.3-.5-1.9-.5-1.3 0-2.5.6-3.2 1.8l-.1.1c-7.9 14.3-33.3 24.1-41.2 24.1-.7 0-1.3-.1-1.7-.3-2.8-1.2-6.6-4.6-8.2-10-2.3-7.5 0-17 6.6-27.4 22.5-35.7 63.4-57.1 110.6-58.3 1.4-.1 3-.1 4.6-.1"/>
			<path d="M516.6 399.4c-1-.4-2-.7-3-.3-19.7 6.3-42.5 12-62.8-.5-1.7-1.1-4-.5-5.1 1.2l-.1.1c-8.6 15.7-38.3 26-43 23.9-2.8-1.2-6.6-4.6-8.2-10-2.3-7.5 0-17 6.6-27.4 22.5-35.7 63.4-57.1 110.6-58.3 3.1-.1 6.3-.1 9.5 0 20.6.6 39.5 6.5 55.9 17 13.2 8.5 19.7 12.7 30.6 33.6 5.6 10.5-84.4 23.5-91 20.7z" class="st0" fill="#fc0"/>
			<g>
				<path fill="#E54C4B"
					  d="M604.9,326.9c-2.9,11.1-17.8,13.9-23.9,14.6c-16.1-9.1-45.9-20-89.9-13.5c-48.6,7.2-75.8,32.4-87.9,47.2 l-5.8,1.1c0,0-44.4,2-54.1-32.4c-5.1-18.2,1.2-42.8,19.8-60.6c5.9-5.6,12.9-10.6,21.3-14.4c15.3-7.1,34.8-10.6,58.8-7.8 c0,0,33.9-38.4,94.6-18.8C598.4,261.7,608.6,312.8,604.9,326.9z"/>
				<path fill="#8F4253"
					  d="M495.1,263.4c-1.1,2-2.1,4.1-3.1,6.4c-12-6.9-25.2-12.5-39.4-15.3c-0.4-0.1-0.8-0.2-1.2-0.5 c2.2-1.5,5-3.3,8.3-5.1C472.4,252.1,484.3,257.2,495.1,263.4z"/>
				<path fill="#8F4253"
					  d="M507.3,270.9c-1.1,2.1-2.1,4.2-3.1,6.6c-2-1.4-4.1-2.7-6.1-4.1c0.9-2.2,2-4.4,3.1-6.5 C503.2,268.2,505.3,269.6,507.3,270.9z"/>
				<path fill="#8F4253"
					  d="M495.1,263.4c2,1.2,4,2.3,6,3.6c-1.1,2.1-2.1,4.2-3.1,6.5c-2-1.2-4-2.5-6-3.6 C493,267.5,494.1,265.4,495.1,263.4z"/>
				<path fill="#8F4253"
					  d="M526.9,286.1c-0.9,2.3-1.8,4.8-2.5,7.4c-2.1-1.9-4.3-3.7-6.5-5.6c0.9-2.5,1.8-4.8,2.8-7 C522.8,282.6,524.9,284.3,526.9,286.1z"/>
				<path fill="#8F4253"
					  d="M520.6,280.8c-1,2.2-1.9,4.5-2.8,7c-4.3-3.5-8.9-7-13.7-10.4v0c1-2.3,2-4.5,3.1-6.6 C512,274.1,516.4,277.4,520.6,280.8z"/>
				<path fill="#8F4253"
					  d="M564.3,326.9l-18.9-12.4c-2.4-2.7-5-5.6-8-8.6c-2.2-2.3-4.6-4.7-7.1-7.1c0.7-2.7,1.4-5.3,2.3-7.7 c10.1,9.3,18.1,18.3,23.5,25C560.7,321.8,563.6,325.8,564.3,326.9z"/>
				<path fill="#8F4253"
					  d="M532.5,291.1c-0.9,2.4-1.6,5-2.3,7.7c-1.9-1.8-3.8-3.6-5.8-5.4c0.7-2.6,1.6-5.1,2.5-7.4 C528.8,287.8,530.7,289.4,532.5,291.1z"/>
				<path fill="#8F4253"
					  d="M603.9,327.1c-7.1-11.2-25.4-37.6-51.6-60.9c2.5-1.3,5-2.2,7.4-2.8c8,7.2,15,14.5,20.9,21.2 c11.1,12.6,19.6,24.3,25.2,32.5v0C605.9,320,605.5,323.6,603.9,327.1z"/>
				<path fill="#8F4253"
					  d="M559.7,263.4c-2.4,0.6-4.9,1.5-7.4,2.8c-1.9-1.6-3.7-3.3-5.7-4.9c2.3-1.4,4.6-2.5,6.9-3.3 C555.7,259.8,557.7,261.6,559.7,263.4z"/>
				<path fill="#8F4253"
					  d="M522.5,251.1c-4.1,3.6-8.2,8.3-12,14.3c-2-1.4-4-2.7-6-4c2-3.1,4.2-6,6.7-8.7c1.8-2,3.7-3.8,5.5-5.4 C518.6,248.5,520.5,249.8,522.5,251.1z"/>
				<path fill="#8F4253"
					  d="M541.1,265.3c-4.6,3.9-8.5,8.9-11.6,14.9c-2-1.7-4-3.4-6.1-5c3.5-6.3,7.5-11.2,11.6-14.8 C537.1,262,539.1,263.6,541.1,265.3z"/>
				<path fill="#8F4253"
					  d="M535.1,260.3c-4.1,3.6-8.1,8.5-11.6,14.8c-4.3-3.4-8.6-6.7-13-9.7c3.8-6,7.9-10.7,12-14.3 C526.7,254,530.9,257.1,535.1,260.3z"/>
				<path fill="#8F4253"
					  d="M599.7,332.9c-0.5,0.5-1.1,1-1.8,1.4c-1.8,1.3-3.3,2.4-4.5,3.3c-0.6,0.4-1.1,0.8-1.6,1.2 c-1.3,1-2.3,1.8-3,2.4c0,0,0,0,0,0c-0.9,0.4-1.8,0.8-2.6,1.4l-4.6-1.7c-6.5-13.6-24.6-36.2-46.6-56c3-6.3,6.8-11.3,11.5-15 C573.6,294,595.4,322.8,599.7,332.9z"/>
				<path fill="#8F4253"
					  d="M546.5,270c-4.7,3.7-8.5,8.7-11.5,15c-1.8-1.6-3.6-3.2-5.4-4.8c3.1-6,7-11,11.6-14.9 C542.9,266.8,544.7,268.4,546.5,270z"/>
				<path fill="#8F4253"
					  d="M577.2,263c-0.1,0-8.1-1.9-17.5,0.4c-2-1.8-4-3.6-6.1-5.4c3.8-1.4,7.5-2.2,10.8-2.5 C572.2,259.7,577.2,263,577.2,263z"/>
				<path fill="#8F4253"
					  d="M552.3,266.2c-1.3,0.7-2.6,1.4-3.8,2.3c-0.7,0.5-1.3,1-1.9,1.5c-1.8-1.6-3.6-3.1-5.4-4.7 c1.1-0.9,2.2-1.8,3.4-2.6c0.7-0.5,1.4-0.9,2-1.3C548.6,263,550.4,264.6,552.3,266.2z"/>
				<path fill="#8F4253"
					  d="M535,285c-0.9,1.9-1.8,4-2.5,6.1c-1.8-1.7-3.7-3.3-5.6-5c0.8-2.1,1.7-4,2.7-5.9 C531.4,281.7,533.2,283.3,535,285z"/>
				<path fill="#013C51"
					  d="M526.9,286.1c1.9,1.7,3.8,3.3,5.6,5c-0.9,2.4-1.6,5-2.3,7.7c-1.9-1.8-3.8-3.6-5.8-5.4 C525.2,290.9,526,288.4,526.9,286.1z"/>
				<path fill="#013C51"
					  d="M546.5,270c-4.7,3.7-8.5,8.7-11.5,15c-1.8-1.6-3.6-3.2-5.4-4.8c3.1-6,7-11,11.6-14.9 C542.9,266.8,544.7,268.4,546.5,270z"/>
				<path fill="#013C51"
					  d="M559.7,263.4c-2.4,0.6-4.9,1.5-7.4,2.8c-1.9-1.6-3.7-3.3-5.7-4.9c2.3-1.4,4.6-2.5,6.9-3.3 C555.7,259.8,557.7,261.6,559.7,263.4z"/>
				<path fill="#8F4253"
					  d="M498.1,273.4c-3.3,7.9-5.6,16.7-6.8,26.3c-2.6,0.1-5,0.2-7.1,0.3c1.4-12,4.2-22,7.9-30.2 C494.1,271,496.1,272.2,498.1,273.4z"/>
				<path fill="#8F4253"
					  d="M504.4,261.4c-1.2,1.8-2.2,3.6-3.3,5.5c-2-1.2-4-2.4-6-3.6c1.1-2,2.2-3.8,3.3-5.5 C500.4,259,502.4,260.2,504.4,261.4z"/>
				<path fill="#013C51"
					  d="M501.2,267c-1.1,2.1-2.1,4.2-3.1,6.5c-2-1.2-4-2.5-6-3.6c1-2.3,2-4.4,3.1-6.4 C497.2,264.5,499.2,265.7,501.2,267z"/>
				<path fill="#8F4253"
					  d="M523.5,275.1c-1,1.8-1.9,3.7-2.8,5.7c-4.2-3.4-8.7-6.7-13.4-9.9c1-2,2.1-3.8,3.2-5.5 C514.8,268.4,519.2,271.7,523.5,275.1z"/>
				<path fill="#8F4253"
					  d="M517.9,287.9c-1.3,3.8-2.5,8-3.4,12.6c-2.5-0.2-5-0.4-7.4-0.5c-0.7,0-1.3-0.1-2-0.1c-2.4-0.1-4.8-0.1-7.1-0.1 c1.5-8.5,3.7-15.8,6.3-22.1C509,280.8,513.6,284.3,517.9,287.9z"/>
				<path fill="#013C51"
					  d="M520.6,280.8c-1,2.2-1.9,4.5-2.8,7c-4.3-3.5-8.9-7-13.7-10.4v0c1-2.3,2-4.5,3.1-6.6 C512,274.1,516.4,277.4,520.6,280.8z"/>
				<path fill="#013C51"
					  d="M535.1,260.3c-4.1,3.6-8.1,8.5-11.6,14.8c-4.3-3.4-8.6-6.7-13-9.7c3.8-6,7.9-10.7,12-14.3 C526.7,254,530.9,257.1,535.1,260.3z"/>
				<path fill="#086B08"
					  d="M464.6,245.4l-20.2,13l-1.3,0.8h-20.9c-3.5-11.8,3.3-24.2,15.1-27.7c1.1-0.3,2.2-0.6,3.3-0.7 C451.3,229.1,461.4,234.7,464.6,245.4z"/>
				<path fill="#FF6687"
					  d="M396.5,264.3c-0.4,0.2-0.8,0.5-1.2,0.7c0.1-0.2,0.3-0.3,0.4-0.5C396.1,264.5,396.3,264.4,396.5,264.3z"/>
				<path fill="#8F4253"
					  d="M411.5,333.9l-3.9,5.4c-0.5-0.2-1-0.5-1.4-0.9c-8.3-8.6-14.3-17.1-18-25.5c1.6-2.1,3.3-4.1,5.1-6.1 	c3,8.7,8.9,17.7,17.8,26.8C411.3,333.6,411.4,333.8,411.5,333.9z"/>
				<path fill="#8F4253"
					  d="M393.3,306.7c-1.8,2-3.5,4-5.1,6.1c-1.1-2.6-2-5.2-2.7-7.7c-0.8-3.1-1.3-6.1-1.4-9.1 	c2.4-2.5,4.8-4.9,7.3-7.1c-0.1,0.8-0.2,1.5-0.3,2.3c-0.2,2.5-0.1,4.9,0.2,7.4C391.8,301.3,392.4,304,393.3,306.7z"/>
				<path fill="#8F4253"
					  d="M394.6,372.9c0,0-0.1,0.1-0.1,0.1c-0.7,0.9-1.7,1.4-2.8,1.4c-0.8,0-1.5-0.2-2.1-0.7 	c-8-6.2-14.5-12.4-19.8-18.6c0.5-3,1.2-5.9,2-8.7c5.5,7.1,12.3,13.9,20.3,20.3L394.6,372.9z"/>
				<path fill="#8F4253"
					  d="M366.6,339.2c-0.9,2.8-1.8,5.8-2.5,8.8c-2-2.8-3.8-5.6-5.4-8.3c0.9-3.1,2-6.1,3.1-9 	C363.2,333.5,364.8,336.4,366.6,339.2z"/>
				<path fill="#8F4253"
					  d="M354.7,302.5c-2.1,3.2-4.1,6.6-6,10.3c-0.1-0.6-0.2-1.2-0.3-1.8c-0.3-2.3-0.6-4.5-0.7-6.6 	c2-4.9,4.6-9.3,7.5-13.2C354.8,294.2,354.5,298.1,354.7,302.5z"/>
				<path fill="#8F4253"
					  d="M384.4,268.8c-1.1,1.5-2.4,3.5-3.7,6.2c-6.5,5-13.2,11.1-19.3,18.4c0.3-4,0.9-7.4,1.7-10.2 	c1.8-1.7,3.7-3.4,5.7-4.9c0.8-0.7,1.6-1.3,2.5-1.9v0C375.2,273.6,379.6,271.1,384.4,268.8z"/>
				<path fill="#8F4253"
					  d="M379.8,312.7c-3.7,5.3-7,11.2-9.9,17.8c-1.6-3-2.9-5.9-4-8.8c3.3-6.6,7.2-12.5,11.4-17.8 	C377.9,306.7,378.7,309.6,379.8,312.7z"/>
				<path fill="#8F4253"
					  d="M402.4,346.6l-4.3,6l-1.2,1.6l-4.1,5.7c-7.9-7.5-13.9-14.9-18.5-21.9c2.3-6.3,5.2-12.2,8.7-17.8 	C387.1,328.3,393.3,337.1,402.4,346.6z"/>
				<path fill="#8F4253"
					  d="M436.3,270.3l-5,9.5c-0.1,0-0.2,0.1-0.3,0.1c-6.8,3-15.9,7.9-25,15.1c-4.6,3.7-8.8,7.6-12.6,11.7 	c-0.9-2.7-1.6-5.4-1.9-8.1c3.5-3.5,7-6.6,10.4-9.3C415.8,278.3,429.5,272.7,436.3,270.3z"/>
				<path fill="#8F4253"
					  d="M388.2,312.9c-1.9,2.4-3.6,4.8-5.1,7.4c-1.3-2.6-2.4-5.1-3.3-7.5c1.9-2.7,3.8-5.2,5.8-7.6 	C386.2,307.7,387.1,310.3,388.2,312.9z"/>
				<path fill="#013C51"
					  d="M383.1,320.2c-3.5,5.6-6.4,11.5-8.7,17.8c-1.7-2.6-3.1-5.1-4.4-7.5c2.9-6.6,6.2-12.5,9.9-17.8 	C380.7,315.1,381.8,317.6,383.1,320.2z"/>
				<path fill="#013C51"
					  d="M371.7,346.4c-0.8,2.8-1.4,5.7-2,8.7c-2-2.4-3.9-4.8-5.6-7.1c0.7-3,1.6-6,2.5-8.8 	C368.2,341.6,369.8,344,371.7,346.4z"/>
				<path fill="#8F4253"
					  d="M369.7,355.1c-1,5.3-1.6,10.8-1.8,16.6c-2.5-1.2-4.7-2.5-6.8-3.9c0.5-7.1,1.5-13.6,3-19.8 	C365.8,350.3,367.7,352.7,369.7,355.1z"/>
				<path fill="#8F4253"
					  d="M374.3,338c-1,2.7-1.9,5.5-2.7,8.4c-1.8-2.4-3.5-4.8-5.1-7.2c1-3,2.1-5.9,3.3-8.7 	C371.2,333,372.7,335.5,374.3,338z"/>
				<path fill="#013C51"
					  d="M393.3,306.7c-1.8,2-3.5,4-5.1,6.1c-1.1-2.6-2-5.2-2.7-7.7c1.9-2.3,3.9-4.5,5.9-6.5 	C391.8,301.3,392.4,304,393.3,306.7z"/>
				<path fill="#013C51"
					  d="M377.3,303.9c-4.2,5.3-8.1,11.3-11.4,17.8c-4.2-11-5.1-20.6-4.5-28.2c6.1-7.4,12.8-13.5,19.3-18.4 	C377.6,281.5,374.9,291.3,377.3,303.9z"/>
				<path fill="#013C51"
					  d="M361.9,330.7c-1.2,2.9-2.2,5.9-3.1,9c-5.8-10-8.7-19.3-10-26.9v0c1.8-3.6,3.8-7,6-10.3 	c0.1,2.4,0.3,5.1,0.7,7.8C356.5,317.2,358.7,324,361.9,330.7z"/>
				<path fill="#8F4253"
					  d="M358.7,339.7c-2.1,7-3.6,14.5-4.3,22.7c-2.8-2.7-5.1-5.4-7.1-8.1c-0.7-1-1.3-1.9-1.9-2.8 	c-2.7-4.4-4.5-8.5-5.5-11.5c1.7-10.1,4.8-19.1,8.8-27.1C350.1,320.4,352.9,329.7,358.7,339.7z"/>
				<path fill="#8F4253"
					  d="M365.9,321.7c-1.5,2.9-2.8,5.8-4,8.9c-3.2-6.6-5.4-13.4-6.4-20.3c-0.4-2.8-0.6-5.4-0.7-7.8 	c2.1-3.2,4.4-6.2,6.7-9C360.8,301.1,361.7,310.8,365.9,321.7z"/>
				<path fill="#8F4253"
					  d="M384.2,290.6c-0.1,1.8-0.2,3.6-0.1,5.4c-2.3,2.5-4.6,5.1-6.8,7.9c-2.5-12.6,0.2-22.4,3.4-28.8 	c5.2-4,10.3-7.3,14.7-10C390.9,270.1,385.2,278.8,384.2,290.6z"/>
				<path fill="#013C51"
					  d="M405,265.4c-0.2,0.1-11.4,8.8-13.6,23.5c-2.5,2.2-4.9,4.6-7.3,7.1c-0.1-1.8-0.1-3.6,0.1-5.4 	c0.9-11.8,6.7-20.5,11.2-25.6c0.4-0.2,0.8-0.5,1.2-0.7c4-1.2,7.4-2,9.8-2.4C406.6,263.2,406.2,264.6,405,265.4z"/>
				<path fill="#8F4253"
					  d="M406.4,261.9c-2.4,0.5-5.8,1.2-9.8,2.4c1-0.6,1.9-1.1,2.8-1.7c7.2-1.7,13.4-2.4,18.7-2.5 	c1.6-0.1,3.1-0.1,4.5,0c7.8,0.2,13.1,1.7,15.6,2.6c-6.3,1.3-27.2,8.9-46.7,26.2c2.1-14.7,13.4-23.4,13.6-23.5 	C406.2,264.6,406.6,263.2,406.4,261.9z"/>
				<path fill="#FFFFFF"
					  d="M422.5,260.1c-8.8,4.3-22.5,11.8-35.7,22.6c-18.2,14.9-38.8,38.9-39.5,71.5c-0.7-1-1.3-1.9-1.9-2.8 	c1.4-25.7,15.1-49.8,40.1-70.2c11.7-9.5,23.7-16.5,32.5-21.1C419.7,260.1,421.2,260.1,422.5,260.1z"/>
				<path fill="#FFFFFF"
					  d="M398.1,352.5l-1.2,1.6c-22-21.4-28.1-42.2-29.3-56.4c-0.6-7.8,0.1-14.4,1.2-19.4c0-0.2,0.1-0.4,0.1-0.5 	c0.8-0.6,1.7-1.2,2.5-1.8c0,0.1-0.1,0.3-0.1,0.4v0c-1.2,5-2.4,12.4-1.7,21.2C370.8,311.5,376.8,331.7,398.1,352.5z"/>
				<path d="M426.9,287.2c0.2-1.5,0.6-2.6,1-3.9c0.4-1.2,0.9-2.5,1.4-3.7c1-2.4,2.1-4.8,3.3-7.1c1.2-2.3,2.4-4.6,3.7-6.9 c1.3-2.3,2.6-4.5,4-6.7c1-1.7,3.2-2.2,4.8-1.1c1.7,1,2.2,3.2,1.1,4.8c-0.1,0.2-0.2,0.3-0.3,0.5l0,0c-1.7,1.9-3.3,3.8-4.9,5.7 c-1.6,2-3.2,3.9-4.6,5.9c-1.5,2-2.9,4.1-4.2,6.2c-0.7,1.1-1.3,2.1-1.9,3.2c-0.6,1.1-1.1,2.3-1.5,3.3l0,0.1 c-0.2,0.5-0.7,0.7-1.2,0.6C427.1,288.1,426.8,287.6,426.9,287.2z"/>
				<path d="M422.2,262.7c-1.5,0-2.9-1-3.4-2.5c-4-13.6,3.8-28,17.5-32c6.6-2,13.5-1.4,19.3,1.4c6,3,10.4,8.2,12.3,14.8 c0.5,1.9-0.5,3.8-2.4,4.3c-1.9,0.5-3.8-0.5-4.3-2.4c-2.8-9.6-12.7-14.6-23-11.5c-4.8,1.4-8.8,4.6-11.2,9 c-2.4,4.4-2.9,9.5-1.5,14.3c0.5,1.9-0.5,3.8-2.4,4.3C422.8,262.6,422.5,262.7,422.2,262.7z"/>
				<path fill="#8F4253"
					  d="M534,243.1c-2.1,1.1-4.3,2.4-6.6,4c-1.9-1.3-3.9-2.5-5.9-3.7c2-1.5,3.9-2.6,5.6-3.5c-3.3-0.9-6.6-1.6-9.8-2.1 c-0.8,0.6-1.6,1.2-2.5,1.8c-1.6-0.9-3.3-1.7-5-2.5c3.8,0.2,7.8,0.6,11.9,1.3c2.6,0.4,5.1,1,7.5,1.6h0 C530.9,241,532.4,242.1,534,243.1z"/>
				<path fill="#8F4253"
					  d="M527.1,239.9c-1.6,0.9-3.5,2.1-5.6,3.5c-2.2-1.3-4.4-2.6-6.7-3.8c0.8-0.7,1.6-1.3,2.5-1.8 C520.5,238.3,523.8,239,527.1,239.9z"/>
				<path fill="#8F4253"
					  d="M553.6,258c-2.3,0.8-4.6,1.9-6.9,3.3c-2.1-1.7-4.2-3.4-6.3-5.1c2.3-1.5,4.5-2.7,6.7-3.7 C549.3,254.4,551.4,256.2,553.6,258z"/>
				<path fill="#8F4253"
					  d="M547,252.6c-2.2,0.9-4.4,2.1-6.7,3.7c-4.1-3.2-8.4-6.3-12.9-9.1c2.3-1.6,4.5-3,6.6-4 C538.5,246.1,542.9,249.3,547,252.6z"/>
				<path fill="#8F4253"
					  d="M510.2,243.6c-1.3,1.2-2.7,2.6-4,4.1c-2.6,2.8-5.2,6.1-7.8,10.1c-10.5-6-20.9-10.2-30.6-11.8l6.6-3.7 c0,0,0,0,0,0l5.1-1.6c1.2-0.4,2.5-0.7,3.8-1h0c4.3-1.1,8.8-1.9,13.7-2.3C501.3,239.1,505.8,241.2,510.2,243.6z"/>
				<path fill="#8F4253"
					  d="M516.6,247.3c-1.8,1.6-3.7,3.4-5.5,5.4c-2.4,2.7-4.7,5.6-6.7,8.7c-2-1.2-4-2.5-6-3.6c2.6-4,5.2-7.3,7.8-10.1 c1.3-1.5,2.7-2.8,4-4.1C512.4,244.8,514.5,246,516.6,247.3z"/>
				<path fill="#8F4253"
					  d="M530.2,298.8c-0.3,1.4-0.6,2.8-0.9,4.2c-2.2-0.6-4.5-1.1-6.8-1.5c0.5-2.8,1.2-5.5,1.9-8.1 C526.4,295.2,528.4,297,530.2,298.8z"/>
				<path fill="#8F4253"
					  d="M521.5,243.5c-1.6,1.1-3.2,2.4-4.9,3.9c-2.1-1.3-4.2-2.5-6.4-3.7c1.6-1.5,3.1-2.8,4.6-4 C517.1,240.9,519.3,242.1,521.5,243.5z"/>
				<path fill="#013C51"
					  d="M510.2,243.6c2.1,1.2,4.2,2.4,6.4,3.7c-1.8,1.6-3.7,3.4-5.5,5.4c-2.4,2.7-4.7,5.6-6.7,8.7c-2-1.2-4-2.5-6-3.6 c2.6-4,5.2-7.3,7.8-10.1C507.6,246.2,508.9,244.9,510.2,243.6z"/>
				<path fill="#013C51"
					  d="M527.1,239.9c-1.6,0.9-3.5,2.1-5.6,3.5c-2.2-1.3-4.4-2.6-6.7-3.8c0.8-0.7,1.6-1.3,2.5-1.8 C520.5,238.3,523.8,239,527.1,239.9z"/>
				<path fill="#8F4253"
					  d="M554.1,250.2c-2.2,0.5-4.6,1.3-7.1,2.4c-4.1-3.3-8.5-6.5-13-9.5c0.4-0.2,0.9-0.5,1.3-0.7c2,0.7,4,1.4,6,2.2 c0.8,0.3,1.6,0.6,2.4,1C547.3,247.1,550.8,248.7,554.1,250.2z"/>
				<path fill="#8F4253"
					  d="M540.3,256.3c-1.7,1.2-3.5,2.5-5.2,4c-4.1-3.3-8.4-6.4-12.6-9.2c1.7-1.5,3.4-2.8,5-4 C531.9,250,536.2,253.1,540.3,256.3z"/>
				<path fill="#013C51"
					  d="M547,252.6c-2.2,0.9-4.4,2.1-6.7,3.7c-4.1-3.2-8.4-6.3-12.9-9.1c2.3-1.6,4.5-3,6.6-4 C538.5,246.1,542.9,249.3,547,252.6z"/>
				<path fill="#FFFFFF"
					  d="M593.4,337.6c-0.6,0.4-1.1,0.8-1.6,1.2c-9.4-20.8-59.7-82.8-112.3-98.1c1.2-0.4,2.5-0.7,3.8-1h0 	c25.9,8.3,49.3,26.8,65.9,42.5C572.4,304.4,588.4,327,593.4,337.6z"/>
				<path fill="#FFFFFF"
					  d="M543.7,245.6c-4.1,2.3-9,5.5-13.8,10.2c-8.5,8.2-18.4,21.9-22.8,44.1c-0.7,0-1.3-0.1-2-0.1 	c4.6-22.9,14.7-37.1,23.6-45.5c4.4-4.2,8.9-7.4,12.7-9.6C542.1,245,542.9,245.3,543.7,245.6z"/>
				<path fill="#086B08"
					  d="M570.8,336.9c0,0-27.6-55.6-116.9-29.2c-42.2,12.5-63.1,50.8-63.3,55.4c-0.2,4.6,4.4,9.9,9.1,16 c0,0,32.1-43.4,93.9-52.2C531.4,321.5,570.8,336.9,570.8,336.9z"/>
				<path d="M598.5,284.8c-8.5-15-25.8-35.1-59.7-46c-32.4-10.4-57.4-4.5-72.6,2.2c-13.1,5.8-21.4,13.3-24.4,16.3 c-49.3-5.1-75.2,16-86.4,29c-14.5,17.1-20.6,40-15.4,58.5c4.3,15.3,15.7,26.2,33,31.5c9.9,3,19,3.5,22.8,3.5h0.3 c0.2,0,0.4,0,0.6,0c-0.1,0.2-0.3,0.4-0.4,0.6c0.2,0.3,0.4,0.5,0.6,0.8c0.7,0.9,1.7,1.4,2.8,1.4h0c1.1,0,2.1-0.5,2.8-1.4 c0.1-0.2,6.8-9.1,19.8-19.5c23.1-20.7,54.6-32.6,89.6-33.5c1.4-0.1,3-0.1,4.6-0.1c1.6,0,3.2,0,4.8,0.1 c15.9,0.5,30.7,4.1,44.2,10.5c1.5,0.7,3.1,1.5,4.6,2.3c0,0,0.1,0,0.1,0c0.2,0.1,0.5,0.2,0.7,0.4c8.6,4.6,17.5,2.4,17.5,2.4 c7.7-1.9,17.5-6.2,20.1-16C610.6,319,608,301.4,598.5,284.8z M521.4,320.8c-1.6,0-3.3-0.1-5-0.1c-1.6,0-3.3,0-4.9,0.1 c-24.3,0.6-47.8,6.6-67.8,17.1c-11.3,5.9-21.5,13.3-30.4,22c-6.4,5.6-11,10.5-13.7,13.6c-3-3.8-5.7-7.7-5.6-10.1 c0.7-3.4,19.5-40,60.8-52.3c35.3-10.5,66.1-9.1,88.8,4.1c7.3,4.2,12.7,9.1,16.5,13.2C548.1,323.7,535.1,321.2,521.4,320.8z  M601.6,326c-2.5,9.5-17.1,11.7-21.9,12.1c-2-1.3-4.1-2.5-6.2-3.6v0c-1.9-3.3-9.5-15.5-25.9-25.1c-17.1-10-47.4-19-94.7-5 c-23.1,6.9-39.4,21-49,31.7c-10.6,11.7-16.6,23.4-16.8,26.9c-0.2,3.2,1.2,6.4,3.3,9.6c-12.2-1.1-37-6.1-43.6-29.6 c-4.6-16.3,0.9-36.7,14-52.1c10.4-12.2,34.8-31.8,82-26.4c1.1,0.1,2.3-0.3,3-1.2c0.1-0.1,8.4-9.3,23.6-16c20.4-9,43-9.6,67.2-1.8 C596.1,264.6,604.6,314.4,601.6,326z"/>

			</g>
		</g>
		<g id="LeftEar--group">
			<path d="M701.4 357.1c-.5 1.7-1.2 3.4-2 5.2-5 10-17.7 23-38 29.1-4.5 1.4-9.3 2-14 2h-.1c-13 0-34.2-4.9-61.6-28.3-1.9-1.7-5.1-4.8-7.1-7-2.3-2.5-2.8-6.1-1.5-9.1s4.4-5.1 7.8-5.1h.5c13.9.8 30.1 1.2 48.4 1.2 8.1 0 14.8-.1 19.3-.1h4.5c7.4 0 13.3-.1 18.2-.1 8.1 0 13.7.1 17.1.2 2.9.1 5.6 1.5 7.3 3.9 1.5 2.3 2 5.2 1.2 8.1z"/>
			<path d="M590.4 359.4c25.7 21.9 45.1 26.5 56.8 26.5h.1c4 0 8-.6 11.9-1.7 18.1-5.4 29.2-16.6 33.5-25.3.8-1.5 1.2-2.8 1.5-3.9.4-1.3-.6-2.6-1.9-2.7-3.3-.1-8.9-.2-16.7-.2-5.4 0-11.6 0-18.2.1-3.3 0-12.2.2-23.9.2-13.9 0-31.7-.2-48.8-1.2h-.1c-.9 0-1.5 1.1-.8 1.8 2 2.2 5 5.1 6.6 6.4z" class="st1" fill="#f80"/>
		</g>
		<g id="Face--group">
			<path d="M417.6 376.2c-4.1 0-7.4 3.3-7.4 7.4 0 9.9 14.8 9.9 14.8 0 0-4.1-3.3-7.4-7.4-7.4z"/>
			<path d="M503.2 355.7c-4.1 0-7.4 3.3-7.4 7.4 0 9.9 14.8 9.9 14.8 0 0-4.1-3.3-7.4-7.4-7.4z"/>
			<path d="M457.9 375.4c-7.4.8-12.3 2.5-15.6 4.9-5.9 4.4-4.1 9.9 2.5 10.7 6.6.8 7.1 1.2 13.2-3.3 6.5-4.9 7.3-13.1-.1-12.3z"/>
		</g>
	</g>
	<g id="LeftLeg--group">
		<path d="M512.4 655.2c-4.6-5.2-3.7-15.7-1.9-29.4 2.6-19.8 5-34.5 25.4-50.8 24.4-19.5 62.2-15 76.2-.5 3.6 3.7 6.7 10.9 7.3 18.8.9 11.4-22.2 42.4-44.8 51.8-22.6 9.6-54 19.3-62.2 10.1z" class="st0" fill="#fc0"/>
		<path d="M512.4 658.9c-1.2 0-2.3-.5-3-1.6-4.7-6.7-4.5-17.2-2.6-32 2.5-19 4.6-35.5 26.8-53.2 26.8-21.4 63.7-14 78.4.7 1.4 1.4 1.4 3.8 0 5.2-1.4 1.4-3.8 1.4-5.2 0-12.5-12.5-45.4-18.7-68.6-.1-18.9 15.1-21.4 28.2-24.1 48.4-1.4 11-2.3 21.8 1.3 26.7 1.2 1.7.8 4-.9 5.2-.6.5-1.4.7-2.1.7z"/>
	</g>
	<g id="LeftFoot--group">
		<path d="M523.7 651.2c-.4 1.9-2 9.1-6.7 16.2-7 10.6-17.8 16.5-30.4 16.5-7.2 0-12.9-2.1-16.8-6.2-7.5-7.8-7.1-21-6.7-33.7v-.1c.2-6.4.4-13.1-.4-18.5-.7-4.4-1.8-9.1-3.1-14.5-2.4-10.2-4.6-20.1-4.3-28.7.4-10.7 4.7-18.9 12.8-24.4 3.5-2.4 7.4-3.5 11.4-3.5 9.3 0 18.9 6.2 28.7 18.6 7.1 8.9 13.1 20 15.4 28.1 6.4 21.8 4.9 34.9.1 50.2z"/>
		<path d="M477 670.8c2 2.1 5.2 3.1 9.6 3.1 22.6 0 27-23.7 27.2-24.7 0-.2.1-.4.1-.6 4.4-13.9 5.7-25.2 0-44.8-3.7-13.2-21.1-39.4-34.4-39.4-2 0-4 .6-5.8 1.9-11.7 7.8-9.3 21.8-4.4 42.4 1.2 5.1 2.5 10.4 3.2 15.3 1 6.4.8 13.5.5 20.4-.2 10.6-.6 21.6 4 26.4z" class="st0" fill="#fc0"/>
	</g>
	<g id="LeftArm--group">
		<g id="BeforeLeftArm--part"/>
		<path d="M478 413.3c-6.4 2.9-12.4 6.6-17.6 11.1-12.1 10.6-12.6 19.4-10.8 24.8 2.5 7.7 11.1 13.4 21.9 14.6 7.1.7 16.2-1.3 26.7-3.6 13.9-3.1 29.7-6.6 42.9-3.9 19.6 4.1 33.3 15 53.1 32.7l10.3 9.2c1.5 1.3 3.9 1.2 5.2-.4 1.3-1.5 1.2-3.9-.4-5.2l-2.9-2.6c-24-21.7-39.9-36-63.8-41-14.8-3.1-31.3.6-46 3.9-9.5 2.1-18.5 4.1-24.3 3.5-7.8-.8-14.1-4.6-15.7-9.5-1.5-4.7 1.6-10.7 8.7-17 20.7-18.2 59.1-23.7 87.5-12.5 4.7 1.9 7.4-5.1 2.7-6.9-11.4-4.4-24.6-6.6-37.7-6.2-10.1.4-30.5 4.8-39.8 9z"/>
		<path d="M615.4 451c11.7 12.2 17 60.3-6 41.6l-2.9-2.6c-24-21.7-39.9-36-63.8-41-14.8-3.1-31.3.6-46 3.9-9.5 2.1-18.5 4.1-24.3 3.5-7.8-.8-14.1-4.6-15.7-9.5-1.5-4.7 1.6-10.7 8.7-17 20.7-18.2 59.3-24 87.5-12.5 4.6 2 46.1 16.5 62.5 33.6z" class="st0" fill="#fc0"/>
	</g>
</svg>
