<svg xmlns="http://www.w3.org/2000/svg" viewBox="0 0 1000 1000"> <g class="Ball--group" transform="translate(-7.823 71.057)scale(.91587)"> <path fill="#d9a8b4" d="M499.91 554.007v-1zc-2.8-.1-12.8-.3-25.3-1.3l-.9-.1v-.9c.1-5-.5-18.1-7.6-31.3l-.2-.3.1-.3c1.2-6.5 8-38.9 30.2-38.9.8 0 1.6 0 2.4.1 21.7 2.2 26.4 35.1 26.9 38.8v.3l-.1.3c-5.3 10.6-7.4 22.2-5.7 31.6l.2 1.1-1.1.1c-11 .6-18.8.8-18.9.8"/> <path fill="#f5cbc6" d="M515.61 496.507s5.5 2 3.9 6.1c-1.6 4-4.6 1.2-6.2-1 0 0 .6 5.6-2.8 4.8s-3.8-5.6-2.4-7.2c0 0-3.1 1.4-5.2-1.9s2-5.9 4.7-4.1c0 0-2.6-3.5-.5-5.5s4.7.1 4.9 3.9c0 0 2.7-4 6-.9s-1.3 6.1-2.4 5.8"/> <ellipse cx="249.851" cy="667.799" fill="#d9a8b4" rx="2.4" ry="2.9" transform="rotate(-25.327)"/> <path fill="#f5cbc6" d="M478.91 515.507s.8 5.8-3.5 6.3-3.2-3.6-2-6c0 0-4.6 3.1-5.6-.2s3.2-6 5.2-5.5c0 0-2.7-2.1-.8-5.5s6.2-1 5.9 2.2c0 0 1.9-4 4.6-3.1 2.8.9 2.2 4.2-1.1 6.1 0 0 4.8.6 3.6 4.9-1.3 4.6-6.1 2-6.3.8"/> <ellipse cx="-125.209" cy="688.311" fill="#d9a8b4" rx="2.9" ry="2.4" transform="rotate(-53.273)"/> <path fill="#f5cbc6" d="M520.41 542.507s.8 5.8-3.5 6.3-3.2-3.6-2-6c0 0-4.6 3.1-5.6-.2s3.2-6 5.2-5.5c0 0-2.7-2.1-.8-5.5s6.2-1 5.9 2.2c0 0 1.9-4 4.6-3.1 2.8.9 2.2 4.2-1.1 6.1 0 0 4.8.6 3.6 4.9-1.2 4.5-6 1.9-6.3.8"/> <ellipse cx="-122.014" cy="737.687" fill="#d9a8b4" rx="2.9" ry="2.4" transform="rotate(-53.273)"/> <path fill="#f5cbc6" d="M500.11 525.507s4 .7 3.5 3.6c-.6 2.9-3 1.4-4.4.1 0 0 1.1 3.7-1.3 3.6s-3.3-3.3-2.6-4.6c0 0-1.9 1.4-3.8-.6s.6-4.3 2.7-3.4c0 0-2.3-2-1.1-3.7s3.2-.6 3.8 2c0 0 1.4-3.1 4-1.4 2.7 1.8 0 4.4-.8 4.4"/> <ellipse cx="91.989" cy="718.035" fill="#d9a8b4" rx="1.6" ry="2" transform="rotate(-36.087)"/> <path fill="#f5cbc6" d="M484.21 543.707s5.8 1 5 5.2-4.3 2-6.3.2c0 0 1.6 5.3-1.9 5.2s-4.8-4.8-3.7-6.6c0 0-2.8 2-5.5-.9-2.7-2.8.9-6.2 3.9-5 0 0-3.2-2.9-1.5-5.3s4.6-.8 5.5 2.9c0 0 1.9-4.4 5.8-2s-.1 6.4-1.3 6.3"/> <ellipse cx="67.241" cy="723.001" fill="#d9a8b4" rx="2.4" ry="2.9" transform="rotate(-36.087)"/> <path fill="#9fc4cd" d="M521.51 552.007c-1.8-9.3.3-20.7 5.7-31.4 5.6-11.2 16.3-23.1 29.1-23.1 1.5 0 3 .2 4.4.5 5.1 1.1 9.4 3.8 12.9 8l.3.3v.1c1.4 1.8 2.7 3.8 3.9 6.1.9 1.8 1.7 3.8 2.4 5.9 3 8.8 3.5 17.8 3.6 21.2v.6l-.5.3c-13.1 7.4-40.3 10.8-60.7 12.3l-.9.1z"/> <path fill="#feedca" d="M571.91 519.907c-2.1-.3-3.6-1.7-5-2.9-.7-.6-1.7-1.5-2.1-1.6-.6-.1-1.9.5-2.9 1-1.6.7-3.3 1.6-5.3 1.3-2.1-.4-3.7-1.9-5-3.2-.6-.6-1.5-1.5-1.9-1.6-.8-.2-2.1.4-3.3.9-1.6.7-3.2 1.4-4.9 1-3.4-.7-4.7-2.4-5.7-3.7-.7-.9-1-1.3-1.9-1.5l1.1-4.2c2.5.6 3.6 2.1 4.5 3.1.8 1 1.3 1.6 3 2 .3 0 1.4-.4 2.1-.7 1.7-.7 3.8-1.6 6-1.2 1.8.3 3.1 1.6 4.3 2.8.8.8 1.8 1.8 2.5 1.9.4.1 1.7-.5 2.4-.9 1.6-.8 3.5-1.7 5.6-1.4 1.9.3 3.3 1.6 4.6 2.8.8.7 1.8 1.6 2.4 1.7.5.1 1.7-.6 2.5-1 1.6-.8 3.4-1.8 5.4-1.5l-.5 4.3c-.6-.1-1.8.6-2.7 1-1.5.9-3.3 1.9-5.2 1.6m1.5 15.9s-.1 0 0 0c-2.6-.3-4.5-1.8-6.2-3.1-.8-.6-2.1-1.6-2.6-1.6-.7-.1-2.3.4-3.4.9-1.9.7-4 1.5-6.4 1.1-2.6-.4-4.5-2-6.2-3.3-.7-.6-1.9-1.5-2.4-1.6-1-.2-2.6.4-4 .8-1.9.6-3.9 1.3-6 .9-4.1-.8-5.8-2.5-7-3.8-.9-.9-1.3-1.3-2.4-1.6l1.2-4.2c3.1.7 4.5 2.2 5.5 3.3 1 1 1.6 1.7 3.7 2.1.4 0 1.7-.4 2.5-.7 2-.7 4.5-1.5 7.3-1 2.2.4 3.8 1.7 5.4 3 1 .8 2.2 1.8 3.1 2 .5.1 2-.5 3-.8 2-.7 4.2-1.6 6.7-1.2 2.3.3 4.1 1.7 5.7 2.9 1 .8 2.2 1.7 3 1.8.6.1 2-.5 3-.9 1.9-.8 4.1-1.7 6.5-1.4l-.4 4.3c-.7-.1-2.1.5-3.3 1-1.8.5-4 1.4-6.3 1.1m-1.6 15.5c-2.8-.4-4.9-1.8-6.8-3.1-.9-.6-2.3-1.6-2.9-1.7-.8-.1-2.5.4-3.8.8-2.1.7-4.4 1.5-7 1.1-2.9-.5-5-2-6.8-3.4-.8-.6-2.1-1.6-2.6-1.7-1.1-.2-2.8.3-4.3.8-2.1.6-4.2 1.3-6.6.8-4.5-.8-6.4-2.6-7.8-3.9-1-.9-1.4-1.3-2.6-1.6l1.3-4.2c3.4.7 5 2.2 6.1 3.3s1.8 1.7 4.1 2.1c.4 0 1.8-.4 2.8-.7 2.2-.7 5-1.5 8-.9 2.4.4 4.2 1.8 5.9 3 1.1.8 2.5 1.9 3.4 2 .6.1 2.2-.5 3.2-.8 2.2-.7 4.6-1.5 7.4-1.1 2.5.4 4.5 1.7 6.3 3 1.1.8 2.5 1.7 3.3 1.8.6.1 2.2-.5 3.3-.9 2.1-.8 4.5-1.6 7.2-1.3l-.4 4.3c-.8-.1-2.3.5-3.6.9-2.1.9-4.5 1.8-7.1 1.4"/> <path fill="#fda784" d="M516.11 489.207c-4.7-6-10.5-9.4-17.3-10.1-.9-.1-1.8-.1-2.7-.1-6.5 0-12.2 2.5-17.2 7.6l-1.1 1.1-.6-1.4c-2.7-6.8-5.8-12.6-9.2-17.3l-.3-.4.1-.4c1.4-5.9 9.5-35.6 30.4-35.6.5 0 1 0 1.5.1 19.4 1.4 24.1 29.9 24.9 35.6v.3l-.1.3c-3 5.7-5.3 12.4-6.8 20l-.4 2.1z"/> <path fill="#feedca" d="M468.01 470.607s27 6 55.8 1.9l-2.1 5.4s-17.7 5-50.6-1.3z"/> <path fill="#d1d478" d="m574.51 502.107-.5 1.6-1.2-1.1c-3.4-3.2-7.3-5.4-11.7-6.3-1.5-.3-3.1-.5-4.6-.5-4.7 0-9.3 1.4-13.7 4.1-2.1 1.3-4.1 2.8-6.1 4.7-3 2.8-5.9 6.3-8.4 10.4l-1.4 2.2-.5-2.5c-.8-4.1-2.2-9.7-4.5-15.2-.8-2-1.8-3.9-2.9-5.8l-.2-.3.1-.4c.1-.5.2-1.1.3-1.6 1.5-8.5 4-16 7.2-22.2 0 0 0-.1.1-.1v-.1c4.7-8.7 11-14.5 18.3-16.8 2.2-.7 4.5-1.1 6.8-1.1 6 0 11.8 2.5 16.3 7.1 9.6 9.6 12 25.6 6.6 43.9"/> <path fill="#f6ab9c" d="M530.31 461.707s17.8 11.9 45.4 9.7l1.3 6.4s-30.8 1.5-49.1-11.1zm12.5 38.2c-2.1 1.3-4.1 2.8-6.1 4.7-5-1.2-10.1-2.8-14.8-5.1-.8-2-1.8-3.9-2.9-5.8l-.2-.3.1-.4c.1-.5.2-1.1.3-1.6 1.9 1.2 10.4 6.1 23.6 8.5"/> <path fill="#fede8b" d="M463.21 515.607c-1.6-2.4-3.3-4.5-5.1-6.6-6.2-6.8-14.1-10.6-21.8-10.6-.9 0-1.8.1-2.6.2-4.5.5-8.6 2.4-12.1 5.6l-1.3 1.2-.3-1.7c-4.2-22.4 7.2-41.9 20.5-46 1.8-.6 3.6-.8 5.5-.8 11.7 0 22.8 11.7 30.5 32.1l.2.5-.3.4c-6.4 8.3-9.7 19.6-11.1 25.5l-.5 2.3z"/> <path fill="#fdb592" d="M433.91 459.707s14.6 10.8 33.9 10.3l3 5.7s-25.9.7-41.5-12.1zm-12.6 19.6s23.2 10.1 50.8 0l2.1 4.5s-27.7 10.2-54.3 1zm26.5 22.9s20.5-4.9 27.6-15.6l2.1 3.7s-8.1 11.7-25.8 15.4z"/> <path fill="#fed884" d="M471.81 551.407v1.1l-1.1-.1c-7.5-.7-15.8-1.6-23.7-2.9-7.4-1.2-14.5-2.7-20.5-4.6-5.4-1.7-9.9-3.8-13.1-6.2-.7-.5-1.3-1.1-1.8-1.6l-.2-.2v-.4c-.1-.8-.1-2.2-.1-3.9 0-1.3.2-2.9.5-4.7.3-2.2.9-4.6 1.8-7.3v-.3l.1-.1c.1-.1.2-.3.2-.5v-.2c.8-2 1.7-4 2.7-5.9 4.2-7.7 10.2-12.3 17.3-13.1.8-.1 1.6-.1 2.4-.1 7.1 0 14.6 3.7 20.4 10 1.6 1.8 3.1 3.6 4.4 5.5 1 1.5 2 3 2.8 4.5v.1c.9 1.7 1.8 3.4 2.5 5.1v.1c.9 2 1.6 4.1 2.2 6 .5 1.7 1 3.4 1.4 5 .5 2.2.9 4.2 1.1 6.1.7 3.6.7 6.8.7 8.6"/> <circle cx="464.909" cy="537.607" r="2.9" fill="#fcb367"/> <circle cx="453.709" cy="540.407" r="2.9" fill="#fcb367"/> <circle cx="441.909" cy="542.407" r="2.9" fill="#fcb367"/> <circle cx="428.109" cy="543.307" r="2.9" fill="#fcb367"/> <path fill="#fcb367" d="M461.11 515.707c-22.3 8.3-39.1 6.7-47.6 4.8v-.3l.1-.1c.1-.1.2-.3.2-.5v-.2c.8-2 1.7-4 2.7-5.9 4.2-7.7 10.2-12.3 17.3-13.1.8-.1 1.6-.1 2.4-.1 7.1 0 14.6 3.7 20.4 10 1.8 1.7 3.2 3.6 4.5 5.4m5.4 9.7s-20.4 11.1-55.3 7c0-1.3.2-2.9.5-4.7 4.1.4 32.9 2.6 52.2-7.6v.1zm5.3 25.8c-2 .9-5.4 2.2-9.8 3.1-4.9-.5-10-1.2-15-2 7.9-1.1 16.3-3.1 24.2-6.9.3 2.2.5 4.2.6 5.8"/> <path fill="#feedca" d="M515.01 459.607c-2.3 0-4.2-1.4-5.8-2.6-.8-.6-2-1.5-2.5-1.5-.6 0-2 .8-3 1.5-1.6 1.1-3.4 2.3-5.5 2.2-2.4-.1-4.2-1.6-5.9-2.9-.7-.6-1.8-1.5-2.3-1.5-.9-.1-2.2.8-3.4 1.5-1.6 1-3.3 2-5.2 1.9-3.8-.3-5.4-2.1-6.7-3.4-.9-.9-1.3-1.3-2.3-1.4l.6-5c2.8.4 4.2 1.9 5.3 2.9 1 1.1 1.6 1.7 3.5 1.8.4 0 1.5-.7 2.2-1.1 1.7-1.1 3.9-2.4 6.4-2.2 2 .1 3.6 1.4 5.1 2.6 1 .8 2.2 1.8 2.9 1.8.5 0 1.8-.8 2.5-1.4 1.7-1.1 3.6-2.4 5.9-2.4 2.1.1 3.8 1.3 5.4 2.5 1 .7 2.2 1.6 2.8 1.6.5 0 1.8-.9 2.6-1.5 1.6-1.2 3.4-2.5 5.7-2.5l.1 5c-.6 0-1.8.9-2.8 1.6-1.7 1.2-3.5 2.5-5.6 2.5"/> <circle cx="515.009" cy="450.307" r="2" fill="#feedca"/> <circle cx="523.809" cy="458.907" r="2" fill="#feedca"/> <circle cx="506.609" cy="459.607" r="2" fill="#feedca"/> <circle cx="498.109" cy="450.307" r="2" fill="#feedca"/> <circle cx="489.709" cy="458.307" r="2" fill="#feedca"/> <circle cx="481.209" cy="449.407" r="2" fill="#feedca"/> <circle cx="471.109" cy="456.407" r="2" fill="#feedca"/> <path fill="#e29a54" d="M496.11 618.107c-12.8 0-44.9-1.2-64.7-12.4-19.6-11-24.1-39.4-25.1-51.1l-.2-1.9 1.6.9c17.2 9.6 48 14.5 91.3 14.5h.8c43.9-.1 74.9-5 92.1-14.8l1.6-.9-.2 1.9c-1 11.7-5.4 40.1-24.9 51.1-20.6 11.6-55.1 12.5-65.2 12.5h-3.5c-.2.2-1.5.2-3.6.2"/> <path fill="#e29a54" d="M499.11 566.307c-65.2 0-89.6-11.1-98.5-20.4-3.5-3.6-5.2-7.6-5.1-11.6.2-4.3 3.2-7.9 9-10.7l1.2-.6.2 1.4c.5 3.4.8 5.4.9 5.7v.2q-.3 4.05 2.7 7.5c15 17 89.6 18.1 90.3 18.1 26-.4 78.4-4.8 90.3-18.4q3.15-3.6 2.7-7.8c0-.2-.1-.4-.2-.5l-.3-.3v-.4c.1-1.5.3-2.9.4-4.3l.2-1.9 1.3.6c6.4 2.8 9.8 6.7 10 11.2.2 5.8-3.3 11.3-10.2 15.9l-.1.1c-11.1 7.4-36.4 16.2-94 16.3h-.8z"/> <path fill="#e29a54" d="M585.51 537.107c-.3-4.8-1.1-12-3.6-19.3-.7-2.1-1.6-4.1-2.5-6l-.1-.2v-.3c4.5-56.7-6.9-79.3-26.9-97.5-20.1-18.3-49.3-19.9-52.6-20.1-.3 0-1.2-.1-2.7-.1-8.9 0-39.6 2.3-61.7 32.3-10.4 14.1-16.2 33.5-17.2 57.5v.2c-1.6 7.4-1.4 15.3.4 22.9l.1.5-.3.4c-1.2 1.6-2.4 3.3-3.4 5.2-1.1 2-2 4-2.8 6.1v.1l-.1.1c-.1.1-.2.3-.2.5v.2c-.7 2-1.3 4.1-1.7 6.2l-2-.1c-2.3-16.1-7.9-71.2 17.8-106.1 25.4-34.4 60.6-37.1 70.7-37.1 2 0 3.1.1 3.1.1.4 0 36.7 1.3 60.6 23 23.2 21.2 36.5 47.8 30.7 114.9-.4 4.4-.8 9-1.4 14v.2l-.1.2q-.3.45-.9 1.2c-.6.75-1 1-1.6 1.5l-1.5 1.3z"/> <path fill="#c88043" d="M580.21 598.107q-.45 0-.9-.3c-15.5-10.8-39.5-31-39.7-31.2-.6-.5-.7-1.5-.2-2.1s1.5-.7 2.1-.2c.2.2 24.1 20.3 39.5 31 .7.5.8 1.4.4 2.1-.3.4-.7.7-1.2.7m-115.2 20.2c-.3 0-.7-.1-.9-.3-32.8-26.1-52.8-62-53-62.3-.4-.7-.1-1.6.6-2s1.6-.1 2 .6c.2.4 19.9 35.7 52.2 61.4.6.5.8 1.5.2 2.1-.2.3-.7.5-1.1.5m30.7 2.2q-.45 0-.9-.3c-31.9-22-55.3-56-55.6-56.4-.5-.7-.3-1.6.4-2.1s1.6-.3 2.1.4c.2.3 23.4 33.9 54.8 55.6.7.5.9 1.4.4 2.1-.3.5-.7.7-1.2.7m32.2-1.3c-.3 0-.6-.1-.8-.2-38.6-24.4-60-51.5-60.2-51.7-.5-.7-.4-1.6.3-2.1s1.6-.4 2.1.3c.2.3 21.3 26.9 59.4 51 .7.4.9 1.4.5 2.1-.3.3-.8.6-1.3.6m31.2-6.8c-.3 0-.5-.1-.8-.2-21.1-12.6-56.8-43.4-57.2-43.8-.6-.5-.7-1.5-.2-2.1s1.5-.7 2.1-.2c.4.3 35.9 31 56.8 43.4.7.4.9 1.3.5 2.1-.2.5-.7.8-1.2.8m31.1-34.2c-.3 0-.7-.1-1-.4-9.7-8.4-18.9-16.3-18.9-16.3-.6-.5-.7-1.5-.2-2.1s1.5-.7 2.1-.2c0 0 9.2 8 18.9 16.3.6.5.7 1.5.2 2.1-.3.4-.7.6-1.1.6"/> <path fill="#c88043" d="M410.81 581.507q-.75 0-1.2-.6c-.5-.7-.3-1.6.3-2.1.1-.1 14.2-10.2 24.8-17.9.7-.5 1.6-.3 2.1.3.5.7.3 1.6-.3 2.1-10.6 7.7-24.7 17.8-24.8 17.9-.3.3-.6.3-.9.3m10.8 18.9c-.5 0-.9-.2-1.2-.7-.5-.7-.3-1.6.4-2.1.2-.2 24.1-16.6 43.3-32.8.6-.5 1.6-.5 2.1.2.5.6.5 1.6-.2 2.1-19.3 16.3-43.3 32.8-43.5 32.9-.3.3-.6.4-.9.4m20.9 12.7c-.4 0-.9-.2-1.2-.6-.5-.7-.4-1.6.3-2.1.4-.3 40.4-31.8 53-44.2.6-.6 1.5-.6 2.1 0s.6 1.5 0 2.1c-12.8 12.5-52.9 44.1-53.3 44.4-.2.3-.5.4-.9.4m30.3 6.2c-.4 0-.9-.2-1.2-.6-.5-.6-.4-1.6.2-2.1.4-.3 36.9-29.2 56.9-51.3.6-.6 1.5-.7 2.1-.1s.7 1.5.1 2.1c-20.2 22.3-56.9 51.4-57.3 51.6-.2.3-.5.4-.8.4m30.9 1.2c-.4 0-.9-.2-1.2-.6-.5-.6-.4-1.6.2-2.1.4-.3 40.1-32 58.5-56.5.5-.7 1.4-.8 2.1-.3s.8 1.4.3 2.1c-18.6 24.8-58.6 56.7-59 57-.2.3-.5.4-.9.4m34.1-2.7c-.4 0-.8-.2-1.1-.5-.5-.6-.5-1.6.2-2.1.4-.3 38.4-32.7 56.3-62.4.4-.7 1.3-.9 2.1-.5.7.4.9 1.4.5 2.1-18.2 30.1-56.6 62.8-57 63.1-.3.2-.6.3-1 .3m-123.3-100.7c-.2 0-.4 0-.6-.1-5.7-2.6-9.4-7-9.6-7.2-.5-.6-.5-1.6.2-2.1.6-.5 1.6-.5 2.1.2 0 0 3.5 4.1 8.6 6.4.8.4 1.1 1.2.7 2-.3.5-.9.8-1.4.8m2.8-16.3c-.4 0-.8-.2-1.1-.5-7.7-7.9-12-18-12.2-18.5-.3-.8 0-1.6.8-2 .8-.3 1.6 0 2 .8 0 .1 4.2 10.1 11.5 17.5.6.6.6 1.5 0 2.1-.3.4-.7.6-1 .6m1.6-21.5q-.75 0-1.2-.6c-5.1-7.4-10.1-20.4-10.3-20.9-.3-.8.1-1.6.9-1.9s1.6.1 1.9.9c0 .1 5 13.2 9.9 20.3.5.7.3 1.6-.4 2.1-.2 0-.5.1-.8.1m4.9-25.7c-.6 0-1.1-.3-1.4-.9-5.9-12.9-5.8-21.7-5.8-22.1 0-.8.7-1.5 1.5-1.5s1.5.7 1.5 1.5c0 .1-.1 8.6 5.5 20.8.3.8 0 1.6-.7 2-.2.2-.4.2-.6.2m8.6-20.5c-.7 0-1.3-.4-1.4-1.1-3.5-12.7-.1-21.7 0-22.1.3-.8 1.2-1.2 1.9-.9.8.3 1.2 1.2.9 1.9 0 .1-3.2 8.5 0 20.2.2.8-.2 1.6-1 1.8-.2.2-.3.2-.4.2m11.6-14.5h-.2c-.8-.1-1.4-.9-1.3-1.7.1-.6 2.3-15.4 9.9-24.3.5-.6 1.5-.7 2.1-.2s.7 1.5.2 2.1c-7 8.3-9.2 22.7-9.2 22.8-.2.7-.8 1.3-1.5 1.3m18.6-14c-.2 0-.5-.1-.7-.2-.7-.4-1-1.3-.6-2 .3-.6 7.4-13.7 16.9-20.1.7-.5 1.6-.3 2.1.4s.3 1.6-.4 2.1c-8.9 6-15.9 18.9-16 19-.2.5-.7.8-1.3.8m22.4-7.7c-.4 0-.9-.2-1.2-.6-.5-.6-.4-1.6.2-2.1s14.1-11.3 24.9-13c.8-.1 1.6.4 1.7 1.2s-.4 1.6-1.2 1.7c-10 1.6-23.4 12.3-23.5 12.4-.2.3-.5.4-.9.4m26 .4c-.5 0-1-.3-1.3-.7-.4-.7-.2-1.6.5-2.1.5-.3 12.2-7.5 23.1-7.2.8 0 1.5.7 1.5 1.5s-.7 1.5-1.5 1.5c-10.1-.2-21.4 6.7-21.5 6.8-.2.1-.5.2-.8.2m47.9 7.3c-.1 0-.3 0-.4-.1-10.9-3.2-24.7-.7-24.9-.6-.8.1-1.6-.4-1.7-1.2-.2-.8.4-1.6 1.2-1.7.6-.1 14.7-2.7 26.3.7.8.2 1.3 1.1 1 1.9-.3.6-.9 1-1.5 1m19.7 22.4c-.3 0-.7-.1-.9-.3-10.7-8.7-23.7-9.1-23.8-9.1-.8 0-1.5-.7-1.5-1.5s.7-1.5 1.5-1.5c.6 0 14.1.4 25.6 9.8.6.5.7 1.5.2 2.1-.2.3-.6.5-1.1.5m11.1 27.7c-.6 0-1.1-.3-1.4-.8-5.1-10.6-19.3-16.4-19.5-16.4-.8-.3-1.1-1.2-.8-1.9s1.2-1.1 1.9-.8c.6.2 15.4 6.2 21.1 17.9.4.7 0 1.6-.7 2zm3.4 24.6c-.6 0-1.2-.4-1.4-1-4.3-12.4-15.1-18-15.2-18-.7-.4-1-1.3-.7-2 .4-.7 1.3-1 2-.7.5.2 11.9 6.2 16.6 19.7.3.8-.1 1.6-.9 1.9-.1.1-.3.1-.4.1m.2 23.6c-.6 0-1.2-.4-1.4-1-1-3.1-4-8-12.7-13.6-.6-.4-.9-.5-1-1-.3-.8 0-1.6.8-2 .5-.2 1.1-.1 1.6.2.1 0 .2.1.3.2 9.4 6 12.7 11.6 13.9 15.2.3.8-.2 1.6-1 1.9-.2.1-.3.1-.5.1m-2.5 27.4h-.1c-.8-.1-1.4-.8-1.4-1.6.4-5.2-8.2-14.7-11.6-17.9-.6-.6-.6-1.5 0-2.1s1.5-.6 2.1 0c1.3 1.3 13 12.8 12.5 20.3 0 .7-.7 1.3-1.5 1.3m-191.6 17q-.15 0 0 0c-.9 0-1.5-.7-1.5-1.5 0-.3.4-8.4 14.8-8.2.8 0 1.5.7 1.5 1.5s-.7 1.5-1.5 1.5c-11.2-.2-11.7 5.1-11.7 5.3-.2.8-.9 1.4-1.6 1.4m16.4 10.5s-.1 0 0 0c-.9-.1-1.5-.8-1.5-1.6 0-.3.5-8 9-11.8.8-.3 1.6 0 2 .8.3.8 0 1.6-.8 2-6.8 3.1-7.3 9-7.3 9.2 0 .8-.6 1.4-1.4 1.4"/> <path fill="#c88043" d="M438.71 563.607q-.45 0-.9-.3c-.6-.4-.8-1.2-.5-1.8 0-.2-.1-.6-.2-1-.5-2.4-1.4-6.9 3.2-12.1.6-.6 1.5-.7 2.1-.1s.7 1.5.1 2.1c-3.7 4.1-3 7.3-2.5 9.5.2 1.2.5 2.2-.2 3-.2.5-.6.7-1.1.7m23.7 3.3c-.6 0-1.2-.4-1.4-1.1-2-6.3 2-12.9 2.8-13.9.5-.6 1-.7 1.4-.6.8.1 1.4.8 1.3 1.6 0 .4-.2.7-.5.9-.6.9-3.7 6.3-2.2 11.1.2.8-.2 1.6-1 1.9-.1.1-.3.1-.4.1m2.5-12.6h.2zm27.8 13.5c-.8 0-1.4-.6-1.5-1.3-.9-8.3-.1-11.6.1-12 .2-.8 1.1-1.2 1.9-1s1.2 1.1 1 1.9c0 .1-.8 3.1 0 10.8.1.8-.5 1.6-1.3 1.7-.1-.1-.1-.1-.2-.1m28.3 1c-.2 0-.3 0-.5-.1-.8-.3-1.2-1.1-.9-1.9 2.4-6.6-2.4-10.5-2.6-10.6-.6-.5-.8-1.5-.3-2.1.5-.7 1.4-.8 2.1-.3 2.3 1.8 6.1 7.1 3.6 14-.2.6-.8 1-1.4 1m26.3-2.6h-.2c-.8-.1-1.4-.9-1.3-1.7 1-6.7-4.8-11.3-4.9-11.4-.7-.5-.8-1.4-.3-2.1s1.4-.8 2.1-.3c.3.2 7.3 5.7 6 14.2 0 .8-.6 1.3-1.4 1.3m20.8-3.6c-.1 0-.3 0-.4-.1-.8-.2-1.3-1-1-1.8 2.3-8.2-3.2-11.3-3.2-11.3-.7-.4-1-1.3-.6-2s1.3-1 2-.6c2.6 1.4 7 6.4 4.7 14.7-.3.7-.9 1.1-1.5 1.1m19.6-6.5h-.3c-.8-.2-1.3-1-1.1-1.8 1.5-6.3-5.1-10.4-5.4-10.6-.7-.4-.9-1.4-.5-2.1s1.3-.9 2.1-.5c.4.2 8.8 5.4 6.8 13.8-.3.7-.9 1.2-1.6 1.2m17.3-17.4c-.6 0-1.1-.3-1.4-.9-1.3-2.8-3-4.5-5-5.1-3-.9-5.9.8-5.9.8-.7.4-1.6.2-2.1-.5-.4-.7-.2-1.6.5-2.1.2-.1 4.1-2.4 8.3-1.1 2.9.9 5.2 3.2 6.8 6.7.3.8 0 1.6-.7 2 0 .2-.3.2-.5.2"/> <path fill="none" stroke="#000" stroke-linecap="round" stroke-linejoin="round" stroke-miterlimit="10" stroke-width="5" d="M592.11 520.907c6.5 2.3 12.9 6.4 13.2 13.1.2 5.2-2.5 11.3-10.7 16.8q0 0 0 0c-13.3 8.9-41.1 16.5-94.7 16.5"/> <path fill="none" stroke="#000" stroke-linecap="round" stroke-linejoin="round" stroke-miterlimit="10" stroke-width="3.781" d="M594.61 550.707s-.7 41.5-25.6 55.6-69 12.6-69 12.6"/> <path fill="none" stroke="#000" stroke-linecap="round" stroke-linejoin="round" stroke-miterlimit="10" stroke-width="5" d="M499.91 554.907s94.7-1.6 92-25.1m-185.3-8.3c-6.1 2.4-11.9 6.4-12.1 12.7-.5 13.6 18.7 33.2 105.5 33"/> <path fill="none" stroke="#000" stroke-linecap="round" stroke-linejoin="round" stroke-miterlimit="10" stroke-width="5" d="M405.21 551.007s.8 41.5 25.8 55.6 69 12.4 69 12.4"/> <path fill="none" stroke="#000" stroke-linecap="round" stroke-linejoin="round" stroke-miterlimit="10" stroke-width="3.399" d="M419.51 507.507c-.1-.6-.1-1.2-.1-1.8q0 0 0 0"/> <path fill="none" stroke="#000" stroke-linecap="round" stroke-linejoin="round" stroke-miterlimit="10" stroke-width="5" d="M418.91 485.607c.6-18.9 4.4-41.9 17.2-59.2 26.2-35.5 63.8-31.9 63.8-31.9s31.5 1 52.2 19.9c18.8 17.1 31.5 38.4 26.6 97.8"/> <path fill="none" stroke="#000" stroke-linecap="round" stroke-linejoin="round" stroke-miterlimit="10" stroke-width="5" d="M520.91 553.907c-2.5-10.2-.1-22.9 5.4-33.7 7.5-14.8 20.6-26.1 34.5-23.1 5.8 1.3 10.2 4.4 13.5 8.4 1.7 2 3 4.2 4.2 6.6 1 1.9 1.8 4 2.5 6 3.8 11.2 3.6 22.6 3.6 22.6m-111.9 12.8s2.1-25-15.2-43.9c-11.8-13-31.2-15.8-41.6 3.4-7.1 13-5.3 24.3-5.3 24.3"/> <circle cx="574.109" cy="481.907" r="2" fill="#f6ab9c"/> <circle cx="540.209" cy="461.407" r="2" fill="#f6ab9c"/> <circle cx="529.909" cy="474.507" r="2" fill="#f6ab9c"/> <circle cx="537.209" cy="477.307" r="2" fill="#f6ab9c"/> <circle cx="545.609" cy="479.307" r="2" fill="#f6ab9c"/> <circle cx="554.509" cy="481.407" r="2" fill="#f6ab9c"/> <circle cx="564.209" cy="482.007" r="2" fill="#f6ab9c"/> <circle cx="548.909" cy="463.807" r="2" fill="#f6ab9c"/> <circle cx="558.209" cy="465.507" r="2" fill="#f6ab9c"/> <circle cx="568.309" cy="466.207" r="2" fill="#f6ab9c"/> <path fill="none" stroke="#000" stroke-linecap="round" stroke-linejoin="round" stroke-miterlimit="10" stroke-width="5" d="M465.01 520.207s6.3-43 33.6-40.2c24.2 2.5 27.7 40.2 27.7 40.2"/> <path fill="none" stroke="#000" stroke-linecap="round" stroke-linejoin="round" stroke-miterlimit="10" stroke-width="5" d="M574.41 505.507c20.2-59.6-45.6-82-56.5-11.9m-40.4-4.1c-23.6-64.6-68.5-23.9-57.8 17.7"/> <path fill="none" stroke="#000" stroke-linecap="round" stroke-linejoin="round" stroke-miterlimit="10" stroke-width="5" d="M466.81 468.707s8-38.8 33.1-37c22.2 1.6 25.8 37 25.8 37"/> <path fill="none" stroke="#000" stroke-linecap="round" stroke-linejoin="round" stroke-miterlimit="10" stroke-width="5" d="M499.91 554.907s-94.7-1.3-92.1-24.9c0 0-13.4-69.3 17.3-111s74.7-37.4 74.7-37.4 36.9 1.2 61.2 23.3c23.6 21.5 38.9 48.6 29.6 130.2"/> </g> <g class="LeftLeg--group"> <g class="LeftLeg--group__tracing"> <path d="M510.78 634.068c-3.198.858-4.607-2.127-4.607-3.419 0-.863.187-1.733.291-2.624q.158-1.338.336-2.725c2.5-19 4.6-35.5 26.8-53.2a60 60 0 0 1 7.789-5.283c2.667-1.518 5.308-3.07 8.162-3.864 5.586-1.556 6.902 5.411 2.548 6.972-2.442.875-4.806 2.052-7.131 3.376a52 52 0 0 0-6.768 4.599c-18.9 15.1-21.4 28.2-24.1 48.4-.088.687-.256 1.369-.256 2.059 0 4.993-3.065 5.71-3.065 5.71" class="LeftLeg--group__tracing"/> </g> </g> </svg>