<svg xmlns="http://www.w3.org/2000/svg" id="wapuugotchi_svg__wapuu" x="0" y="0" version="1.1" viewBox="0 0 1000 1000">
    <g id="wapuugotchi_type__wapuu">
        <g id="Background--group" />
        <g id="RightArm--group">
            <path d="M436.6 504c-4.5 5.1-10.5 7.9-17 7.9-9.1 0-18.5-5.5-24.4-14.4-7.8-11.6-15.5-21.2-22.3-27.9l-4.8-4.7c-2-2-1.1-5.3 1.6-6.1l6.5-1.7c3.2-.9 6.4-2.7 9.1-5.5 3-3 4.8-6.7 5.2-10.4V430c0-1.3 1.5-2.1 2.5-1.3l9.3 6.9c.7.5 1.7 1.1 2.9 1.7 10.2 4.9 31.7 27.4 35.7 46.7 2.1 10.1-1.2 16.5-4.3 20z"/>
            <path d="M402.1 444.1c-1.5-.7-2.9-1.5-4.2-2.4-.5 5.5-3 11-7.3 15.3-3.7 3.7-8.1 6.2-12.5 7.4 8.7 8.6 17 19.8 23.2 29.1 4.5 6.7 11.6 11.1 18.3 11.1 4.1 0 8.1-1.6 11.4-5.4 13-14.8-17.3-49.6-28.9-55.1z" fill="#fc0"/>
        </g>
        <g id="Tail--group">
            <path d="M599.1 649.5c-9 25.7-26.4 50-50.3 70.3-23.8 20.3-51.8 34.7-81 41.6-6.9 1.6-14.1 2.5-21.5 2.5-30.8 0-58.9-13.9-74.8-27-13.6-11.1-21.2-23.3-20.9-33.5.4-12 6.7-20.7 16.8-23.3 2.1-.5 4.3-.8 6.7-.8 11.2 0 27.2 6.7 38.5 25.7 7.8 13.2 22 20.1 41.1 20.1h1.2c40.7-.8 87.6-31.2 109.1-70.8 7.7-14.1 13.2-29.6 17.1-40.8 1.9-5.4 3.6-10.1 5.1-13.5 1.3-3.1 4.1-9.4 10.4-9.4 4.1 0 7.6 1.8 9.9 5 5.5 7.6 3.3 23.3-7.4 53.9z"/>
            <path d="M570.5 657.8c-22.7 41.7-72.5 73.9-115.5 74.7h-1.4c-21.6 0-38.3-8.4-47.4-23.8-9-15.1-22-22.1-32.1-22.1-1.7 0-3.3.2-4.8.6-7 1.8-11 7.6-11.3 16.4-.3 7.7 6.6 18 18.2 27.5 16.8 13.7 43.2 25.3 70.1 25.3 6.6 0 13.3-.7 19.8-2.3 57.2-13.5 108.5-57.4 126-107.1 5.4-15.3 16.7-49.2 4.5-49.2-4.5.1-10.8 31.8-26.1 60z" fill="#f80"/>
        </g>
        <g id="Body--group">
            <path d="M649.7 531.9c-2 24-6.7 45.1-13.9 62.9-8.5 20.9-20.3 36.6-35.1 46.8-34 23.4-64.8 26-76.4 26-1.3 0-2.5 0-3.8-.1-18.4-.8-26-4.4-32.7-7.5-5.9-2.8-11-5.2-24.9-5.7-37.5-1.5-67-9.9-83.1-23.6-.2-.1-.5-.4-.9-.7-4.8-3.5-19.3-14.3-25-24.7-5.3-9.7-6.2-22.3-2.3-31.4 13.4-31.2 24.5-40.5 33.5-48 3.6-3 6.4-5.3 8.8-8.7 2.2-3.1 3.8-7.1 4.9-12.2 0-.1 0-.2.1-.3 3.9-15 3.4-34.9 2.8-56-.2-5.7-.3-11.7-.4-17.5v-.1c0-18.6 9.6-40.7 25.7-59.2 18.1-20.8 41.6-33.6 66.1-36.2 20.2-2.1 34.3-3.1 45.9-3.1 43.7 0 58.6 14.8 82.2 48.4 7.5 10.6 12.1 22.5 16 33.7 11.1 30.4 15.9 76.5 12.5 117.2z"/>
            <path d="M358.5 576.7c-3 7-2.2 17.4 2 25 5.6 10.3 23 22.2 24.1 23.2 15.1 12.9 43.7 20.5 78.7 21.9 31.2 1.3 24.3 11.8 57.6 13.3 1.1 0 2.2.1 3.5.1 16.7 0 43.7-5 72.2-24.7 58-39.9 52.9-165.3 34-218.6-3.9-11.1-8.3-22.2-15.1-31.9-23.5-33.5-36.6-45.2-76.2-45.2-12.2 0-26.9 1.1-45.1 3.1-49.9 5.3-85.3 55.3-85.3 88.1.3 27.4 2.5 55.1-2.7 75.5-1.4 6.5-3.4 11.2-6 14.9-9.8 13.5-23.4 12.4-41.7 55.3z" fill="#fc0"/>
        </g>
        <g id="Ball--group">
            <g id="easter_basket" transform="translate(-7.823 71.057) scale(.91587)">
                <path fill="#d9a8b4" d="M499.91 554.007v-1 1c-2.8-.1-12.8-.3-25.3-1.3l-.9-.1v-.9c.1-5-.5-18.1-7.6-31.3l-.2-.3.1-.3c1.2-6.5 8-38.9 30.2-38.9.8 0 1.6 0 2.4.1 21.7 2.2 26.4 35.1 26.9 38.8v.3l-.1.3c-5.3 10.6-7.4 22.2-5.7 31.6l.2 1.1-1.1.1c-11 .6-18.8.8-18.9.8z" />
                <path fill="#f5cbc6" d="M515.61 496.507s5.5 2 3.9 6.1c-1.6 4-4.6 1.2-6.2-1 0 0 .6 5.6-2.8 4.8-3.4-.8-3.8-5.6-2.4-7.2 0 0-3.1 1.4-5.2-1.9s2-5.9 4.7-4.1c0 0-2.6-3.5-.5-5.5s4.7.1 4.9 3.9c0 0 2.7-4 6-.9s-1.3 6.1-2.4 5.8z" />
                <ellipse cx="249.851" cy="667.799" fill="#d9a8b4" stroke-width="1"  rx="2.4" ry="2.9" transform="rotate(-25.327)"/>
                <path fill="#f5cbc6" d="M478.91 515.507s.8 5.8-3.5 6.3-3.2-3.6-2-6c0 0-4.6 3.1-5.6-.2-1-3.3 3.2-6 5.2-5.5 0 0-2.7-2.1-.8-5.5 1.9-3.4 6.2-1 5.9 2.2 0 0 1.9-4 4.6-3.1 2.8.9 2.2 4.2-1.1 6.1 0 0 4.8.6 3.6 4.9-1.3 4.6-6.1 2-6.3.8z" />
                <ellipse cx="-125.209" cy="688.311" fill="#d9a8b4" stroke-width="1"  rx="2.9" ry="2.4" transform="rotate(-53.273)"/>
                <path fill="#f5cbc6" d="M520.41 542.507s.8 5.8-3.5 6.3-3.2-3.6-2-6c0 0-4.6 3.1-5.6-.2-1-3.3 3.2-6 5.2-5.5 0 0-2.7-2.1-.8-5.5 1.9-3.4 6.2-1 5.9 2.2 0 0 1.9-4 4.6-3.1 2.8.9 2.2 4.2-1.1 6.1 0 0 4.8.6 3.6 4.9-1.2 4.5-6 1.9-6.3.8z" />
                <ellipse cx="-122.014" cy="737.687" fill="#d9a8b4" stroke-width="1"  rx="2.9" ry="2.4" transform="rotate(-53.273)"/>
                <path fill="#f5cbc6" d="M500.11 525.507s4 .7 3.5 3.6c-.6 2.9-3 1.4-4.4.1 0 0 1.1 3.7-1.3 3.6-2.4-.1-3.3-3.3-2.6-4.6 0 0-1.9 1.4-3.8-.6s.6-4.3 2.7-3.4c0 0-2.3-2-1.1-3.7 1.2-1.7 3.2-.6 3.8 2 0 0 1.4-3.1 4-1.4 2.7 1.8 0 4.4-.8 4.4z" />
                <ellipse cx="91.989" cy="718.035" fill="#d9a8b4" stroke-width="1"  rx="1.6" ry="2" transform="rotate(-36.087)"/>
                <path fill="#f5cbc6" d="M484.21 543.707s5.8 1 5 5.2c-.8 4.2-4.3 2-6.3.2 0 0 1.6 5.3-1.9 5.2-3.5-.1-4.8-4.8-3.7-6.6 0 0-2.8 2-5.5-.9-2.7-2.8.9-6.2 3.9-5 0 0-3.2-2.9-1.5-5.3 1.7-2.4 4.6-.8 5.5 2.9 0 0 1.9-4.4 5.8-2 3.9 2.4-.1 6.4-1.3 6.3z" />
                <ellipse cx="67.241" cy="723.001" fill="#d9a8b4" stroke-width="1"  rx="2.4" ry="2.9" transform="rotate(-36.087)"/>
                <path fill="#9fc4cd" d="M521.51 552.007c-1.8-9.3.3-20.7 5.7-31.4 5.6-11.2 16.3-23.1 29.1-23.1 1.5 0 3 .2 4.4.5 5.1 1.1 9.4 3.8 12.9 8l.3.3v.1c1.4 1.8 2.7 3.8 3.9 6.1.9 1.8 1.7 3.8 2.4 5.9 3 8.8 3.5 17.8 3.6 21.2v.6l-.5.3c-13.1 7.4-40.3 10.8-60.7 12.3l-.9.1z" />
                <path fill="#feedca" d="M571.91 519.907c-2.1-.3-3.6-1.7-5-2.9-.7-.6-1.7-1.5-2.1-1.6-.6-.1-1.9.5-2.9 1-1.6.7-3.3 1.6-5.3 1.3-2.1-.4-3.7-1.9-5-3.2-.6-.6-1.5-1.5-1.9-1.6-.8-.2-2.1.4-3.3.9-1.6.7-3.2 1.4-4.9 1-3.4-.7-4.7-2.4-5.7-3.7-.7-.9-1-1.3-1.9-1.5l1.1-4.2c2.5.6 3.6 2.1 4.5 3.1.8 1 1.3 1.6 3 2 .3 0 1.4-.4 2.1-.7 1.7-.7 3.8-1.6 6-1.2 1.8.3 3.1 1.6 4.3 2.8.8.8 1.8 1.8 2.5 1.9.4.1 1.7-.5 2.4-.9 1.6-.8 3.5-1.7 5.6-1.4 1.9.3 3.3 1.6 4.6 2.8.8.7 1.8 1.6 2.4 1.7.5.1 1.7-.6 2.5-1 1.6-.8 3.4-1.8 5.4-1.5l-.5 4.3c-.6-.1-1.8.6-2.7 1-1.5.9-3.3 1.9-5.2 1.6z" />
                <path fill="#feedca" d="M573.41 535.807s-.1 0 0 0c-2.6-.3-4.5-1.8-6.2-3.1-.8-.6-2.1-1.6-2.6-1.6-.7-.1-2.3.4-3.4.9-1.9.7-4 1.5-6.4 1.1-2.6-.4-4.5-2-6.2-3.3-.7-.6-1.9-1.5-2.4-1.6-1-.2-2.6.4-4 .8-1.9.6-3.9 1.3-6 .9-4.1-.8-5.8-2.5-7-3.8-.9-.9-1.3-1.3-2.4-1.6l1.2-4.2c3.1.7 4.5 2.2 5.5 3.3 1 1 1.6 1.7 3.7 2.1.4 0 1.7-.4 2.5-.7 2-.7 4.5-1.5 7.3-1 2.2.4 3.8 1.7 5.4 3 1 .8 2.2 1.8 3.1 2 .5.1 2-.5 3-.8 2-.7 4.2-1.6 6.7-1.2 2.3.3 4.1 1.7 5.7 2.9 1 .8 2.2 1.7 3 1.8.6.1 2-.5 3-.9 1.9-.8 4.1-1.7 6.5-1.4l-.4 4.3c-.7-.1-2.1.5-3.3 1-1.8.5-4 1.4-6.3 1.1z" />
                <path fill="#feedca" d="M571.81 551.307c-2.8-.4-4.9-1.8-6.8-3.1-.9-.6-2.3-1.6-2.9-1.7-.8-.1-2.5.4-3.8.8-2.1.7-4.4 1.5-7 1.1-2.9-.5-5-2-6.8-3.4-.8-.6-2.1-1.6-2.6-1.7-1.1-.2-2.8.3-4.3.8-2.1.6-4.2 1.3-6.6.8-4.5-.8-6.4-2.6-7.8-3.9-1-.9-1.4-1.3-2.6-1.6l1.3-4.2c3.4.7 5 2.2 6.1 3.3 1.1 1.1 1.8 1.7 4.1 2.1.4 0 1.8-.4 2.8-.7 2.2-.7 5-1.5 8-.9 2.4.4 4.2 1.8 5.9 3 1.1.8 2.5 1.9 3.4 2 .6.1 2.2-.5 3.2-.8 2.2-.7 4.6-1.5 7.4-1.1 2.5.4 4.5 1.7 6.3 3 1.1.8 2.5 1.7 3.3 1.8.6.1 2.2-.5 3.3-.9 2.1-.8 4.5-1.6 7.2-1.3l-.4 4.3c-.8-.1-2.3.5-3.6.9-2.1.9-4.5 1.8-7.1 1.4z" />
                <path fill="#fda784" d="M516.11 489.207c-4.7-6-10.5-9.4-17.3-10.1-.9-.1-1.8-.1-2.7-.1-6.5 0-12.2 2.5-17.2 7.6l-1.1 1.1-.6-1.4c-2.7-6.8-5.8-12.6-9.2-17.3l-.3-.4.1-.4c1.4-5.9 9.5-35.6 30.4-35.6.5 0 1 0 1.5.1 19.4 1.4 24.1 29.9 24.9 35.6v.3l-.1.3c-3 5.7-5.3 12.4-6.8 20l-.4 2.1z" />
                <path fill="#feedca" d="M468.01 470.607s27 6 55.8 1.9l-2.1 5.4s-17.7 5-50.6-1.3z" />
                <path fill="#d1d478" d="m574.51 502.107-.5 1.6-1.2-1.1c-3.4-3.2-7.3-5.4-11.7-6.3-1.5-.3-3.1-.5-4.6-.5-4.7 0-9.3 1.4-13.7 4.1-2.1 1.3-4.1 2.8-6.1 4.7-3 2.8-5.9 6.3-8.4 10.4l-1.4 2.2-.5-2.5c-.8-4.1-2.2-9.7-4.5-15.2-.8-2-1.8-3.9-2.9-5.8l-.2-.3.1-.4c.1-.5.2-1.1.3-1.6 1.5-8.5 4-16 7.2-22.2 0 0 0-.1.1-.1v-.1c4.7-8.7 11-14.5 18.3-16.8 2.2-.7 4.5-1.1 6.8-1.1 6 0 11.8 2.5 16.3 7.1 9.6 9.6 12 25.6 6.6 43.9z" />
                <path fill="#f6ab9c" d="M530.31 461.707s17.8 11.9 45.4 9.7l1.3 6.4s-30.8 1.5-49.1-11.1z" />
                <path fill="#f6ab9c" d="M542.81 499.907c-2.1 1.3-4.1 2.8-6.1 4.7-5-1.2-10.1-2.8-14.8-5.1-.8-2-1.8-3.9-2.9-5.8l-.2-.3.1-.4c.1-.5.2-1.1.3-1.6 1.9 1.2 10.4 6.1 23.6 8.5z" />
                <path fill="#fede8b" d="M463.21 515.607c-1.6-2.4-3.3-4.5-5.1-6.6-6.2-6.8-14.1-10.6-21.8-10.6-.9 0-1.8.1-2.6.2-4.5.5-8.6 2.4-12.1 5.6l-1.3 1.2-.3-1.7c-4.2-22.4 7.2-41.9 20.5-46 1.8-.6 3.6-.8 5.5-.8 11.7 0 22.8 11.7 30.5 32.1l.2.5-.3.4c-6.4 8.3-9.7 19.6-11.1 25.5l-.5 2.3z" />
                <path fill="#fdb592" d="M433.91 459.707s14.6 10.8 33.9 10.3l3 5.7s-25.9.7-41.5-12.1z" />
                <path fill="#fdb592" d="M421.31 479.307s23.2 10.1 50.8 0l2.1 4.5s-27.7 10.2-54.3 1z" />
                <path fill="#fdb592" d="M447.81 502.207s20.5-4.9 27.6-15.6l2.1 3.7s-8.1 11.7-25.8 15.4z" />
                <path fill="#fed884" d="M471.81 551.407v1.1l-1.1-.1c-7.5-.7-15.8-1.6-23.7-2.9-7.4-1.2-14.5-2.7-20.5-4.6-5.4-1.7-9.9-3.8-13.1-6.2-.7-.5-1.3-1.1-1.8-1.6l-.2-.2v-.4c-.1-.8-.1-2.2-.1-3.9 0-1.3.2-2.9.5-4.7.3-2.2.9-4.6 1.8-7.3v-.3l.1-.1c.1-.1.2-.3.2-.5v-.2c.8-2 1.7-4 2.7-5.9 4.2-7.7 10.2-12.3 17.3-13.1.8-.1 1.6-.1 2.4-.1 7.1 0 14.6 3.7 20.4 10 1.6 1.8 3.1 3.6 4.4 5.5 1 1.5 2 3 2.8 4.5v.1c.9 1.7 1.8 3.4 2.5 5.1v.1c.9 2 1.6 4.1 2.2 6 .5 1.7 1 3.4 1.4 5 .5 2.2.9 4.2 1.1 6.1.7 3.6.7 6.8.7 8.6z" />
                <circle cx="464.909" cy="537.607" r="2.9" fill="#fcb367" />
                <circle cx="453.709" cy="540.407" r="2.9" fill="#fcb367" />
                <circle cx="441.909" cy="542.407" r="2.9" fill="#fcb367" />
                <circle cx="428.109" cy="543.307" r="2.9" fill="#fcb367" />
                <path fill="#fcb367" d="M461.11 515.707c-22.3 8.3-39.1 6.7-47.6 4.8v-.3l.1-.1c.1-.1.2-.3.2-.5v-.2c.8-2 1.7-4 2.7-5.9 4.2-7.7 10.2-12.3 17.3-13.1.8-.1 1.6-.1 2.4-.1 7.1 0 14.6 3.7 20.4 10 1.8 1.7 3.2 3.6 4.5 5.4z" />
                <path fill="#fcb367" d="M466.51 525.407s-20.4 11.1-55.3 7c0-1.3.2-2.9.5-4.7 4.1.4 32.9 2.6 52.2-7.6v.1z" />
                <path fill="#fcb367" d="M471.81 551.207c-2 .9-5.4 2.2-9.8 3.1-4.9-.5-10-1.2-15-2 7.9-1.1 16.3-3.1 24.2-6.9.3 2.2.5 4.2.6 5.8z" />
                <path fill="#feedca" d="M515.01 459.607c-2.3 0-4.2-1.4-5.8-2.6-.8-.6-2-1.5-2.5-1.5-.6 0-2 .8-3 1.5-1.6 1.1-3.4 2.3-5.5 2.2-2.4-.1-4.2-1.6-5.9-2.9-.7-.6-1.8-1.5-2.3-1.5-.9-.1-2.2.8-3.4 1.5-1.6 1-3.3 2-5.2 1.9-3.8-.3-5.4-2.1-6.7-3.4-.9-.9-1.3-1.3-2.3-1.4l.6-5c2.8.4 4.2 1.9 5.3 2.9 1 1.1 1.6 1.7 3.5 1.8.4 0 1.5-.7 2.2-1.1 1.7-1.1 3.9-2.4 6.4-2.2 2 .1 3.6 1.4 5.1 2.6 1 .8 2.2 1.8 2.9 1.8.5 0 1.8-.8 2.5-1.4 1.7-1.1 3.6-2.4 5.9-2.4 2.1.1 3.8 1.3 5.4 2.5 1 .7 2.2 1.6 2.8 1.6.5 0 1.8-.9 2.6-1.5 1.6-1.2 3.4-2.5 5.7-2.5l.1 5c-.6 0-1.8.9-2.8 1.6-1.7 1.2-3.5 2.5-5.6 2.5z" />
                <circle cx="515.009" cy="450.307" r="2" fill="#feedca" />
                <circle cx="523.809" cy="458.907" r="2" fill="#feedca" />
                <circle cx="506.609" cy="459.607" r="2" fill="#feedca" />
                <circle cx="498.109" cy="450.307" r="2" fill="#feedca" />
                <circle cx="489.709" cy="458.307" r="2" fill="#feedca" />
                <circle cx="481.209" cy="449.407" r="2" fill="#feedca" />
                <circle cx="471.109" cy="456.407" r="2" fill="#feedca" />
                <path fill="#e29a54" d="M496.11 618.107c-12.8 0-44.9-1.2-64.7-12.4-19.6-11-24.1-39.4-25.1-51.1l-.2-1.9 1.6.9c17.2 9.6 48 14.5 91.3 14.5h.8c43.9-.1 74.9-5 92.1-14.8l1.6-.9-.2 1.9c-1 11.7-5.4 40.1-24.9 51.1-20.6 11.6-55.1 12.5-65.2 12.5h-3.5c-.2.2-1.5.2-3.6.2z" />
                <path fill="#e29a54" d="M499.11 566.307c-65.2 0-89.6-11.1-98.5-20.4-3.5-3.6-5.2-7.6-5.1-11.6.2-4.3 3.2-7.9 9-10.7l1.2-.6.2 1.4c.5 3.4.8 5.4.9 5.7v.2c-.2 2.7.7 5.2 2.7 7.5 15 17 89.6 18.1 90.3 18.1 26-.4 78.4-4.8 90.3-18.4 2.1-2.4 3-5 2.7-7.8 0-.2-.1-.4-.2-.5l-.3-.3v-.4c.1-1.5.3-2.9.4-4.3l.2-1.9 1.3.6c6.4 2.8 9.8 6.7 10 11.2.2 5.8-3.3 11.3-10.2 15.9l-.1.1c-11.1 7.4-36.4 16.2-94 16.3h-.8z" />
                <path fill="#e29a54" d="M585.51 537.107c-.3-4.8-1.1-12-3.6-19.3-.7-2.1-1.6-4.1-2.5-6l-.1-.2v-.3c4.5-56.7-6.9-79.3-26.9-97.5-20.1-18.3-49.3-19.9-52.6-20.1-.3 0-1.2-.1-2.7-.1-8.9 0-39.6 2.3-61.7 32.3-10.4 14.1-16.2 33.5-17.2 57.5v.2c-1.6 7.4-1.4 15.3.4 22.9l.1.5-.3.4c-1.2 1.6-2.4 3.3-3.4 5.2-1.1 2-2 4-2.8 6.1v.1l-.1.1c-.1.1-.2.3-.2.5v.2c-.7 2-1.3 4.1-1.7 6.2l-2-.1c-2.3-16.1-7.9-71.2 17.8-106.1 25.4-34.4 60.6-37.1 70.7-37.1 2 0 3.1.1 3.1.1.4 0 36.7 1.3 60.6 23 23.2 21.2 36.5 47.8 30.7 114.9-.4 4.4-.8 9-1.4 14v.2l-.1.2c-.2.3-.5.7-.9 1.2s-1 1-1.6 1.5l-1.5 1.3z" />
                <path fill="#c88043" d="M580.21 598.107c-.3 0-.6-.1-.9-.3-15.5-10.8-39.5-31-39.7-31.2-.6-.5-.7-1.5-.2-2.1.5-.6 1.5-.7 2.1-.2.2.2 24.1 20.3 39.5 31 .7.5.8 1.4.4 2.1-.3.4-.7.7-1.2.7z" />
                <path fill="#c88043" d="M465.01 618.307c-.3 0-.7-.1-.9-.3-32.8-26.1-52.8-62-53-62.3-.4-.7-.1-1.6.6-2 .7-.4 1.6-.1 2 .6.2.4 19.9 35.7 52.2 61.4.6.5.8 1.5.2 2.1-.2.3-.7.5-1.1.5z" />
                <path fill="#c88043" d="M495.71 620.507c-.3 0-.6-.1-.9-.3-31.9-22-55.3-56-55.6-56.4-.5-.7-.3-1.6.4-2.1s1.6-.3 2.1.4c.2.3 23.4 33.9 54.8 55.6.7.5.9 1.4.4 2.1-.3.5-.7.7-1.2.7z" />
                <path fill="#c88043" d="M527.91 619.207c-.3 0-.6-.1-.8-.2-38.6-24.4-60-51.5-60.2-51.7-.5-.7-.4-1.6.3-2.1s1.6-.4 2.1.3c.2.3 21.3 26.9 59.4 51 .7.4.9 1.4.5 2.1-.3.3-.8.6-1.3.6z" />
                <path fill="#c88043" d="M559.11 612.407c-.3 0-.5-.1-.8-.2-21.1-12.6-56.8-43.4-57.2-43.8-.6-.5-.7-1.5-.2-2.1.5-.6 1.5-.7 2.1-.2.4.3 35.9 31 56.8 43.4.7.4.9 1.3.5 2.1-.2.5-.7.8-1.2.8z" />
                <path fill="#c88043" d="M590.21 578.207c-.3 0-.7-.1-1-.4-9.7-8.4-18.9-16.3-18.9-16.3-.6-.5-.7-1.5-.2-2.1.5-.6 1.5-.7 2.1-.2 0 0 9.2 8 18.9 16.3.6.5.7 1.5.2 2.1-.3.4-.7.6-1.1.6z" />
                <path fill="#c88043" d="M410.81 581.507c-.5 0-.9-.2-1.2-.6-.5-.7-.3-1.6.3-2.1.1-.1 14.2-10.2 24.8-17.9.7-.5 1.6-.3 2.1.3.5.7.3 1.6-.3 2.1-10.6 7.7-24.7 17.8-24.8 17.9-.3.3-.6.3-.9.3z" />
                <path fill="#c88043" d="M421.61 600.407c-.5 0-.9-.2-1.2-.7-.5-.7-.3-1.6.4-2.1.2-.2 24.1-16.6 43.3-32.8.6-.5 1.6-.5 2.1.2.5.6.5 1.6-.2 2.1-19.3 16.3-43.3 32.8-43.5 32.9-.3.3-.6.4-.9.4z" />
                <path fill="#c88043" d="M442.51 613.107c-.4 0-.9-.2-1.2-.6-.5-.7-.4-1.6.3-2.1.4-.3 40.4-31.8 53-44.2.6-.6 1.5-.6 2.1 0 .6.6.6 1.5 0 2.1-12.8 12.5-52.9 44.1-53.3 44.4-.2.3-.5.4-.9.4z" />
                <path fill="#c88043" d="M472.81 619.307c-.4 0-.9-.2-1.2-.6-.5-.6-.4-1.6.2-2.1.4-.3 36.9-29.2 56.9-51.3.6-.6 1.5-.7 2.1-.1.6.6.7 1.5.1 2.1-20.2 22.3-56.9 51.4-57.3 51.6-.2.3-.5.4-.8.4z" />
                <path fill="#c88043" d="M503.71 620.507c-.4 0-.9-.2-1.2-.6-.5-.6-.4-1.6.2-2.1.4-.3 40.1-32 58.5-56.5.5-.7 1.4-.8 2.1-.3.7.5.8 1.4.3 2.1-18.6 24.8-58.6 56.7-59 57-.2.3-.5.4-.9.4z" />
                <path fill="#c88043" d="M537.81 617.807c-.4 0-.8-.2-1.1-.5-.5-.6-.5-1.6.2-2.1.4-.3 38.4-32.7 56.3-62.4.4-.7 1.3-.9 2.1-.5.7.4.9 1.4.5 2.1-18.2 30.1-56.6 62.8-57 63.1-.3.2-.6.3-1 .3z" />
                <path fill="#c88043" d="M414.51 517.107c-.2 0-.4 0-.6-.1-5.7-2.6-9.4-7-9.6-7.2-.5-.6-.5-1.6.2-2.1.6-.5 1.6-.5 2.1.2 0 0 3.5 4.1 8.6 6.4.8.4 1.1 1.2.7 2-.3.5-.9.8-1.4.8z" />
                <path fill="#c88043" d="M417.31 500.807c-.4 0-.8-.2-1.1-.5-7.7-7.9-12-18-12.2-18.5-.3-.8 0-1.6.8-2 .8-.3 1.6 0 2 .8 0 .1 4.2 10.1 11.5 17.5.6.6.6 1.5 0 2.1-.3.4-.7.6-1 .6z" />
                <path fill="#c88043" d="M418.91 479.307c-.5 0-.9-.2-1.2-.6-5.1-7.4-10.1-20.4-10.3-20.9-.3-.8.1-1.6.9-1.9.8-.3 1.6.1 1.9.9 0 .1 5 13.2 9.9 20.3.5.7.3 1.6-.4 2.1-.2 0-.5.1-.8.1z" />
                <path fill="#c88043" d="M423.81 453.607c-.6 0-1.1-.3-1.4-.9-5.9-12.9-5.8-21.7-5.8-22.1 0-.8.7-1.5 1.5-1.5s1.5.7 1.5 1.5c0 .1-.1 8.6 5.5 20.8.3.8 0 1.6-.7 2-.2.2-.4.2-.6.2z" />
                <path fill="#c88043" d="M432.41 433.107c-.7 0-1.3-.4-1.4-1.1-3.5-12.7-.1-21.7 0-22.1.3-.8 1.2-1.2 1.9-.9.8.3 1.2 1.2.9 1.9 0 .1-3.2 8.5 0 20.2.2.8-.2 1.6-1 1.8-.2.2-.3.2-.4.2z" />
                <path fill="#c88043" d="M444.01 418.607h-.2c-.8-.1-1.4-.9-1.3-1.7.1-.6 2.3-15.4 9.9-24.3.5-.6 1.5-.7 2.1-.2.6.5.7 1.5.2 2.1-7 8.3-9.2 22.7-9.2 22.8-.2.7-.8 1.3-1.5 1.3z" />
                <path fill="#c88043" d="M462.61 404.607c-.2 0-.5-.1-.7-.2-.7-.4-1-1.3-.6-2 .3-.6 7.4-13.7 16.9-20.1.7-.5 1.6-.3 2.1.4s.3 1.6-.4 2.1c-8.9 6-15.9 18.9-16 19-.2.5-.7.8-1.3.8z" />
                <path fill="#c88043" d="M485.01 396.907c-.4 0-.9-.2-1.2-.6-.5-.6-.4-1.6.2-2.1.6-.5 14.1-11.3 24.9-13 .8-.1 1.6.4 1.7 1.2.1.8-.4 1.6-1.2 1.7-10 1.6-23.4 12.3-23.5 12.4-.2.3-.5.4-.9.4z" />
                <path fill="#c88043" d="M511.01 397.307c-.5 0-1-.3-1.3-.7-.4-.7-.2-1.6.5-2.1.5-.3 12.2-7.5 23.1-7.2.8 0 1.5.7 1.5 1.5s-.7 1.5-1.5 1.5c-10.1-.2-21.4 6.7-21.5 6.8-.2.1-.5.2-.8.2z" />
                <path fill="#c88043" d="M558.91 404.607c-.1 0-.3 0-.4-.1-10.9-3.2-24.7-.7-24.9-.6-.8.1-1.6-.4-1.7-1.2-.2-.8.4-1.6 1.2-1.7.6-.1 14.7-2.7 26.3.7.8.2 1.3 1.1 1 1.9-.3.6-.9 1-1.5 1z" />
                <path fill="#c88043" d="M578.61 427.007c-.3 0-.7-.1-.9-.3-10.7-8.7-23.7-9.1-23.8-9.1-.8 0-1.5-.7-1.5-1.5s.7-1.5 1.5-1.5c.6 0 14.1.4 25.6 9.8.6.5.7 1.5.2 2.1-.2.3-.6.5-1.1.5z" />
                <path fill="#c88043" d="M589.71 454.707c-.6 0-1.1-.3-1.4-.8-5.1-10.6-19.3-16.4-19.5-16.4-.8-.3-1.1-1.2-.8-1.9.3-.7 1.2-1.1 1.9-.8.6.2 15.4 6.2 21.1 17.9.4.7 0 1.6-.7 2h-.6z" />
                <path fill="#c88043" d="M593.11 479.307c-.6 0-1.2-.4-1.4-1-4.3-12.4-15.1-18-15.2-18-.7-.4-1-1.3-.7-2 .4-.7 1.3-1 2-.7.5.2 11.9 6.2 16.6 19.7.3.8-.1 1.6-.9 1.9-.1.1-.3.1-.4.1z" />
                <path fill="#c88043" d="M593.31 502.907c-.6 0-1.2-.4-1.4-1-1-3.1-4-8-12.7-13.6-.6-.4-.9-.5-1-1-.3-.8 0-1.6.8-2 .5-.2 1.1-.1 1.6.2.1 0 .2.1.3.2 9.4 6 12.7 11.6 13.9 15.2.3.8-.2 1.6-1 1.9-.2.1-.3.1-.5.1z" />
                <path fill="#c88043" d="M590.81 530.307h-.1c-.8-.1-1.4-.8-1.4-1.6.4-5.2-8.2-14.7-11.6-17.9-.6-.6-.6-1.5 0-2.1.6-.6 1.5-.6 2.1 0 1.3 1.3 13 12.8 12.5 20.3 0 .7-.7 1.3-1.5 1.3z" />
                <path fill="#c88043" d="M399.21 547.307c-.1 0-.1 0 0 0-.9 0-1.5-.7-1.5-1.5 0-.3.4-8.4 14.8-8.2.8 0 1.5.7 1.5 1.5s-.7 1.5-1.5 1.5c-11.2-.2-11.7 5.1-11.7 5.3-.2.8-.9 1.4-1.6 1.4z" />
                <path fill="#c88043" d="M415.61 557.807s-.1 0 0 0c-.9-.1-1.5-.8-1.5-1.6 0-.3.5-8 9-11.8.8-.3 1.6 0 2 .8.3.8 0 1.6-.8 2-6.8 3.1-7.3 9-7.3 9.2 0 .8-.6 1.4-1.4 1.4z" />
                <path fill="#c88043" d="M438.71 563.607c-.3 0-.6-.1-.9-.3-.6-.4-.8-1.2-.5-1.8 0-.2-.1-.6-.2-1-.5-2.4-1.4-6.9 3.2-12.1.6-.6 1.5-.7 2.1-.1.6.6.7 1.5.1 2.1-3.7 4.1-3 7.3-2.5 9.5.2 1.2.5 2.2-.2 3-.2.5-.6.7-1.1.7zm-1.2-2.3z" />
                <path fill="#c88043" d="M462.41 566.907c-.6 0-1.2-.4-1.4-1.1-2-6.3 2-12.9 2.8-13.9.5-.6 1-.7 1.4-.6.8.1 1.4.8 1.3 1.6 0 .4-.2.7-.5.9-.6.9-3.7 6.3-2.2 11.1.2.8-.2 1.6-1 1.9-.1.1-.3.1-.4.1zm2.5-12.6h.2-.2zm.1 0zm-.1 0zm0 0z" />
                <path fill="#c88043" d="M492.71 567.807c-.8 0-1.4-.6-1.5-1.3-.9-8.3-.1-11.6.1-12 .2-.8 1.1-1.2 1.9-1 .8.2 1.2 1.1 1 1.9 0 .1-.8 3.1 0 10.8.1.8-.5 1.6-1.3 1.7-.1-.1-.1-.1-.2-.1z" />
                <path fill="#c88043" d="M521.01 568.807c-.2 0-.3 0-.5-.1-.8-.3-1.2-1.1-.9-1.9 2.4-6.6-2.4-10.5-2.6-10.6-.6-.5-.8-1.5-.3-2.1.5-.7 1.4-.8 2.1-.3 2.3 1.8 6.1 7.1 3.6 14-.2.6-.8 1-1.4 1z" />
                <path fill="#c88043" d="M547.31 566.207h-.2c-.8-.1-1.4-.9-1.3-1.7 1-6.7-4.8-11.3-4.9-11.4-.7-.5-.8-1.4-.3-2.1.5-.7 1.4-.8 2.1-.3.3.2 7.3 5.7 6 14.2 0 .8-.6 1.3-1.4 1.3z" />
                <path fill="#c88043" d="M568.11 562.607c-.1 0-.3 0-.4-.1-.8-.2-1.3-1-1-1.8 2.3-8.2-3.2-11.3-3.2-11.3-.7-.4-1-1.3-.6-2s1.3-1 2-.6c2.6 1.4 7 6.4 4.7 14.7-.3.7-.9 1.1-1.5 1.1z" />
                <path fill="#c88043" d="M587.71 556.107h-.3c-.8-.2-1.3-1-1.1-1.8 1.5-6.3-5.1-10.4-5.4-10.6-.7-.4-.9-1.4-.5-2.1.4-.7 1.3-.9 2.1-.5.4.2 8.8 5.4 6.8 13.8-.3.7-.9 1.2-1.6 1.2z" />
                <path fill="#c88043" d="M605.01 538.707c-.6 0-1.1-.3-1.4-.9-1.3-2.8-3-4.5-5-5.1-3-.9-5.9.8-5.9.8-.7.4-1.6.2-2.1-.5-.4-.7-.2-1.6.5-2.1.2-.1 4.1-2.4 8.3-1.1 2.9.9 5.2 3.2 6.8 6.7.3.8 0 1.6-.7 2 0 .2-.3.2-.5.2z" />
                <path fill="none" stroke="#000" stroke-linecap="round" stroke-linejoin="round" stroke-miterlimit="10" stroke-width="5" d="M592.11 520.907c6.5 2.3 12.9 6.4 13.2 13.1.2 5.2-2.5 11.3-10.7 16.8 0 0 0 0 0 0-13.3 8.9-41.1 16.5-94.7 16.5" />
                <path fill="none" stroke="#000" stroke-linecap="round" stroke-linejoin="round" stroke-miterlimit="10" stroke-width="3.781" d="M594.61 550.707s-.7 41.5-25.6 55.6c-24.9 14.1-69 12.6-69 12.6" />
                <path fill="none" stroke="#000" stroke-linecap="round" stroke-linejoin="round" stroke-miterlimit="10" stroke-width="5" d="M499.91 554.907s94.7-1.6 92-25.1" />
                <path fill="none" stroke="#000" stroke-linecap="round" stroke-linejoin="round" stroke-miterlimit="10" stroke-width="5" d="M406.61 521.507c-6.1 2.4-11.9 6.4-12.1 12.7-.5 13.6 18.7 33.2 105.5 33" />
                <path fill="none" stroke="#000" stroke-linecap="round" stroke-linejoin="round" stroke-miterlimit="10" stroke-width="3.983" d="M412.909 519.507h0" />
                <path fill="none" stroke="#000" stroke-linecap="round" stroke-linejoin="round" stroke-miterlimit="10" stroke-width="5" d="M405.21 551.007s.8 41.5 25.8 55.6c25 14.1 69 12.4 69 12.4" />
                <path fill="none" stroke="#000" stroke-linecap="round" stroke-linejoin="round" stroke-miterlimit="10" stroke-width="3.399" d="M419.51 507.507c-.1-.6-.1-1.2-.1-1.8 0 0 0 0 0 0" />
                <path fill="none" stroke="#000" stroke-linecap="round" stroke-linejoin="round" stroke-miterlimit="10" stroke-width="5" d="M418.91 485.607c.6-18.9 4.4-41.9 17.2-59.2 26.2-35.5 63.8-31.9 63.8-31.9s31.5 1 52.2 19.9c18.8 17.1 31.5 38.4 26.6 97.8" />
                <path fill="none" stroke="#000" stroke-linecap="round" stroke-linejoin="round" stroke-miterlimit="10" stroke-width="5" d="M520.91 553.907c-2.5-10.2-.1-22.9 5.4-33.7 7.5-14.8 20.6-26.1 34.5-23.1 5.8 1.3 10.2 4.4 13.5 8.4 1.7 2 3 4.2 4.2 6.6 1 1.9 1.8 4 2.5 6 3.8 11.2 3.6 22.6 3.6 22.6" />
                <path fill="none" stroke="#000" stroke-linecap="round" stroke-linejoin="round" stroke-miterlimit="10" stroke-width="5" d="M472.71 553.507s2.1-25-15.2-43.9c-11.8-13-31.2-15.8-41.6 3.4-7.1 13-5.3 24.3-5.3 24.3" />
                <circle cx="574.109" cy="481.907" r="2" fill="#f6ab9c" />
                <circle cx="540.209" cy="461.407" r="2" fill="#f6ab9c" />
                <circle cx="529.909" cy="474.507" r="2" fill="#f6ab9c" />
                <circle cx="537.209" cy="477.307" r="2" fill="#f6ab9c" />
                <circle cx="545.609" cy="479.307" r="2" fill="#f6ab9c" />
                <circle cx="554.509" cy="481.407" r="2" fill="#f6ab9c" />
                <circle cx="564.209" cy="482.007" r="2" fill="#f6ab9c" />
                <circle cx="548.909" cy="463.807" r="2" fill="#f6ab9c" />
                <circle cx="558.209" cy="465.507" r="2" fill="#f6ab9c" />
                <circle cx="568.309" cy="466.207" r="2" fill="#f6ab9c" />
                <path fill="none" stroke="#000" stroke-linecap="round" stroke-linejoin="round" stroke-miterlimit="10" stroke-width="5" d="M465.01 520.207s6.3-43 33.6-40.2c24.2 2.5 27.7 40.2 27.7 40.2" />
                <path fill="none" stroke="#000" stroke-linecap="round" stroke-linejoin="round" stroke-miterlimit="10" stroke-width="5" d="M574.41 505.507c20.2-59.6-45.6-82-56.5-11.9" />
                <path fill="none" stroke="#000" stroke-linecap="round" stroke-linejoin="round" stroke-miterlimit="10" stroke-width="5" d="M477.51 489.507c-23.6-64.6-68.5-23.9-57.8 17.7" />
                <path fill="none" stroke="#000" stroke-linecap="round" stroke-linejoin="round" stroke-miterlimit="10" stroke-width="5" d="M466.81 468.707s8-38.8 33.1-37c22.2 1.6 25.8 37 25.8 37" />
                <path fill="none" stroke="#000" stroke-linecap="round" stroke-linejoin="round" stroke-miterlimit="10" stroke-width="5" d="M499.91 554.907s-94.7-1.3-92.1-24.9c0 0-13.4-69.3 17.3-111 30.7-41.7 74.7-37.4 74.7-37.4s36.9 1.2 61.2 23.3c23.6 21.5 38.9 48.6 29.6 130.2" />
            </g>
        </g>
        <g id="RightFoot--group">
            <path d="M384.3 648c-2.4 3.7-6.4 5.7-11.5 5.7-1.9 0-4-.3-6.2-.8-25-6-59.3-43.6-63.6-64.5-1.9-9.4-.2-18 5-24.4 4.6-5.7 11.4-8.8 18.9-8.8 6.8 0 13.6 2.5 19.8 7.3 12.2 9.4 32.9 50.5 37.3 60.7 2.5 5.8 4.9 17.7.3 24.8z"/>
            <path d="M310.1 586.8c3.8 18.2 36.2 53.6 58.1 58.8 1.7.4 3.2.6 4.5.6 3.4 0 4.7-1.3 5.4-2.3 2.3-3.5 1.5-12.1-1-17.9-6.1-13.9-25.3-50.3-35.1-57.8-4.9-3.8-10.2-5.8-15.3-5.8-5.3 0-10 2.2-13.2 6.1-3.6 4.7-4.8 11.2-3.4 18.3z" fill="#fc0"/>
        </g>
        <g id="FullHead--group">
            <g id="BeforeHead--group" />
            <g id="RightEar--group">
                <path d="M413.3 399.4c-.4 4.4-3.8 8.4-11.1 12.9-4.7 3-10.2 5.5-13.9 6.5-6.5 1.7-12.3 2.6-17.3 2.6-6.7 0-10.6-1.6-12.7-2.9-4.8-3-4.4-7.2-4.2-8.5.5-3.1 2.9-5.5 5.9-6.2 3.5-.8 13.5-5.8 23.6-12.6 4.2-2.9 10.7-4.8 16.1-4.8 5.8 0 9.1 2.2 10.8 4.1 2.1 2.4 3.1 5.5 2.8 8.9z"/>
                <path d="M361.4 411.3c0 .3.4.7.9.9 1.1.7 3.6 1.8 8.8 1.8 4.3 0 9.5-.8 15.4-2.3 5.2-1.4 19.1-8.8 19.5-13 .1-1.3-.2-2.4-.9-3.2-1-1.1-2.8-1.7-5.3-1.7-3.9 0-8.9 1.5-11.9 3.5-8.5 5.7-20.5 12.5-26.1 13.7-.3.1-.4.2-.4.3z" fill="#f80"/>
            </g>
            <g id="Head--group">
                <path d="M516.4 328.1c1.6 0 3.2 0 4.8.1 20.6.6 39.5 6.5 55.9 17 11.2 7.2 17.5 11.4 25.9 25.2 1.5 2.5 9 .8 7.9-1.1-10.1-17.6-17.5-22.3-29.8-30.3-17.7-11.4-37.8-17.6-59.7-18.2-1.6 0-3.3-.1-5-.1-1.6 0-3.3 0-4.9.1-24.3.6-47.8 6.6-67.8 17.1-20.2 10.6-37.1 26.1-48.9 44.7-7.7 12.3-10.3 23.9-7.4 33.5 2.4 7.8 7.9 12.7 12.3 14.6 1.4.6 2.9.9 4.7.9 9.3 0 34.7-9.3 45.7-24.8 8.4 4.5 17.6 6.7 28.1 6.7 12.6 0 25-3.2 36.4-6.9 3-1 3.8-2.2 3.9-4.1 0-1.3-1.2-3.6-3.8-3.5-.3 0-.7.1-1 .2-11.2 3.6-23.3 6.9-35.4 6.9-9.3 0-18.6-2-27.4-7.4-.6-.4-1.3-.5-1.9-.5-1.3 0-2.5.6-3.2 1.8l-.1.1c-7.9 14.3-33.3 24.1-41.2 24.1-.7 0-1.3-.1-1.7-.3-2.8-1.2-6.6-4.6-8.2-10-2.3-7.5 0-17 6.6-27.4 22.5-35.7 63.4-57.1 110.6-58.3 1.4-.1 3-.1 4.6-.1"/>
                <path d="M516.6 399.4c-1-.4-2-.7-3-.3-19.7 6.3-42.5 12-62.8-.5-1.7-1.1-4-.5-5.1 1.2l-.1.1c-8.6 15.7-38.3 26-43 23.9-2.8-1.2-6.6-4.6-8.2-10-2.3-7.5 0-17 6.6-27.4 22.5-35.7 63.4-57.1 110.6-58.3 3.1-.1 6.3-.1 9.5 0 20.6.6 39.5 6.5 55.9 17 13.2 8.5 19.7 12.7 30.6 33.6-33.782-1.673-55.4 2.019-91 20.7z" fill="#fc0"/>
            </g>
            <g id="LeftEar--group">
                <path d="M701.4 357.1c-.5 1.7-1.2 3.4-2 5.2-5 10-17.7 23-38 29.1-4.5 1.4-9.3 2-14 2h-.1c-13 0-34.2-4.9-61.6-28.3-1.9-1.7-5.1-4.8-7.1-7-2.3-2.5-2.8-6.1-1.5-9.1s4.4-5.1 7.8-5.1h.5c13.9.8 30.1 1.2 48.4 1.2 8.1 0 14.8-.1 19.3-.1h4.5c7.4 0 13.3-.1 18.2-.1 8.1 0 13.7.1 17.1.2 2.9.1 5.6 1.5 7.3 3.9 1.5 2.3 2 5.2 1.2 8.1z"/>
                <path d="M590.4 359.4c25.7 21.9 45.1 26.5 56.8 26.5h.1c4 0 8-.6 11.9-1.7 18.1-5.4 29.2-16.6 33.5-25.3.8-1.5 1.2-2.8 1.5-3.9.4-1.3-.6-2.6-1.9-2.7-3.3-.1-8.9-.2-16.7-.2-5.4 0-11.6 0-18.2.1-3.3 0-12.2.2-23.9.2-13.9 0-31.7-.2-48.8-1.2h-.1c-.9 0-1.5 1.1-.8 1.8 2 2.2 5 5.1 6.6 6.4z" fill="#f80"/>
            </g>
            <g id="Face--group">
                <path d="M417.6 376.2c-4.1 0-7.4 3.3-7.4 7.4 0 9.9 14.8 9.9 14.8 0 0-4.1-3.3-7.4-7.4-7.4z"/>
                <path d="M503.2 355.7c-4.1 0-7.4 3.3-7.4 7.4 0 9.9 14.8 9.9 14.8 0 0-4.1-3.3-7.4-7.4-7.4z"/>
                <path id="Face--group__nose" d="M457.9 375.4c-7.4.8-12.3 2.5-15.6 4.9-5.9 4.4-4.1 9.9 2.5 10.7 6.6.8 7.1 1.2 13.2-3.3 6.5-4.9 7.3-13.1-.1-12.3z"/>
            </g>
        </g>
        <g id="LeftLeg--group">
            <path d="M512.4 655.2c-4.6-5.2-3.7-15.7-1.9-29.4 2.6-19.8 5-34.5 25.4-50.8 24.4-19.5 62.2-15 76.2-.5 3.6 3.7 6.7 10.9 7.3 18.8.9 11.4-22.2 42.4-44.8 51.8-22.6 9.6-54 19.3-62.2 10.1z" fill="#fc0"/>
            <path d="M512.4 658.9c-1.2 0-2.3-.5-3-1.6-4.7-6.7-4.5-17.2-2.6-32 2.5-19 4.6-35.5 26.8-53.2 26.8-21.4 63.7-14 78.4.7 1.4 1.4 1.4 3.8 0 5.2-1.4 1.4-3.8 1.4-5.2 0-12.5-12.5-45.4-18.7-68.6-.1-18.9 15.1-21.4 28.2-24.1 48.4-1.4 11-2.3 21.8 1.3 26.7 1.2 1.7.8 4-.9 5.2-.6.5-1.4.7-2.1.7z"/>
        </g>
        <g id="LeftFoot--group">
            <path d="M523.7 651.2c-.4 1.9-2 9.1-6.7 16.2-7 10.6-17.8 16.5-30.4 16.5-7.2 0-12.9-2.1-16.8-6.2-7.5-7.8-7.1-21-6.7-33.7v-.1c.2-6.4.4-13.1-.4-18.5-.7-4.4-1.8-9.1-3.1-14.5-2.4-10.2-4.6-20.1-4.3-28.7.4-10.7 4.7-18.9 12.8-24.4 3.5-2.4 7.4-3.5 11.4-3.5 9.3 0 18.9 6.2 28.7 18.6 7.1 8.9 13.1 20 15.4 28.1 6.4 21.8 4.9 34.9.1 50.2z"/>
            <path d="M477 670.8c2 2.1 5.2 3.1 9.6 3.1 22.6 0 27-23.7 27.2-24.7 0-.2.1-.4.1-.6 4.4-13.9 5.7-25.2 0-44.8-3.7-13.2-21.1-39.4-34.4-39.4-2 0-4 .6-5.8 1.9-11.7 7.8-9.3 21.8-4.4 42.4 1.2 5.1 2.5 10.4 3.2 15.3 1 6.4.8 13.5.5 20.4-.2 10.6-.6 21.6 4 26.4z" fill="#fc0"/>
        </g>
        <g id="LeftArm--group">
            <g id="BeforeLeftArm--part"/>
            <path d="M478 413.3c-6.4 2.9-12.4 6.6-17.6 11.1-12.1 10.6-12.6 19.4-10.8 24.8 2.5 7.7 11.1 13.4 21.9 14.6 7.1.7 16.2-1.3 26.7-3.6 13.9-3.1 29.7-6.6 42.9-3.9 19.6 4.1 33.3 15 53.1 32.7l10.3 9.2c1.5 1.3 3.9 1.2 5.2-.4 1.3-1.5 1.2-3.9-.4-5.2l-2.9-2.6c-24-21.7-39.9-36-63.8-41-14.8-3.1-31.3.6-46 3.9-9.5 2.1-18.5 4.1-24.3 3.5-7.8-.8-14.1-4.6-15.7-9.5-1.5-4.7 1.6-10.7 8.7-17 20.7-18.2 59.1-23.7 87.5-12.5 4.7 1.9 7.4-5.1 2.7-6.9-11.4-4.4-24.6-6.6-37.7-6.2-10.1.4-30.5 4.8-39.8 9z"/>
            <path d="M615.4 451c11.7 12.2 17 60.3-6 41.6l-2.9-2.6c-24-21.7-39.9-36-63.8-41-14.8-3.1-31.3.6-46 3.9-9.5 2.1-18.5 4.1-24.3 3.5-7.8-.8-14.1-4.6-15.7-9.5-1.5-4.7 1.6-10.7 8.7-17 20.7-18.2 59.3-24 87.5-12.5 4.6 2 46.1 16.5 62.5 33.6z" fill="#fc0"/>
        </g>
        <g id="RightHand--group">
            <g id="BeforeRightHand--part"/>
            <path d="M390.6 457c-5.2 5.1-11.7 8.1-17.8 8.1-8.1 0-14-5.1-15.6-13.3-1-5.4.9-11.3 5.4-16.7 5.8-6.9 14.9-12 21.7-12.1h.2c1.3 0 2.6.2 3.8.6h.2l.1.1c4.5 1.8 7.9 6.2 9.1 11.8 1.4 7.5-1.2 15.5-7.1 21.5z"/>
            <path d="M385.4 451.7c4.2-4.2 6-9.6 5-14.7-.6-3.1-2.3-5.5-4.6-6.4-.4-.1-.9-.2-1.3-.2h-.1c-4 0-11.3 3.6-16.1 9.4-1.8 2.1-4.6 6.3-3.8 10.6 1.1 6 5.1 7.3 8.3 7.3 4.1 0 8.8-2.2 12.6-6z" fill="#fc0"/>
        </g>
        <g id="Front--group" />
    </g>
</svg>
