<svg xmlns="http://www.w3.org/2000/svg" xml:space="preserve" width="60" height="90"><g style="display:inline"><path fill="#010202" fill-rule="evenodd" d="M17.362 12.154c.12 1.272.804 1.426 1.643 1.321.96-.118 1.993-.693 2.655-1.181.519-.382.219-1.175-.59-.649-.678.442-1.195.987-2.076 1.235-.697.195-1.243.085-1.632-.726m9.683-1.302c.24 1.255-.373 1.594-1.208 1.73-.954.155-2.107-.108-2.88-.39-.604-.221-.502-1.046.422-.767.776.234 1.486.596 2.4.586.725-.007 1.12-.271 1.266-1.159" style="display:inline;stroke-width:.13001" transform="translate(-.19 21.333)"/></g></svg>