<svg xmlns="http://www.w3.org/2000/svg" viewBox="0 0 1000 1000">
	<g class="LeftEar--group">
		<ellipse cx="386.555" cy="649.763" rx="5.189" ry="6.611" transform="rotate(-29.993)"/>
		<circle cx="657.966" cy="370.535" r="4.453"/>
		<path fill="#fccf33" d="M683.945 379.73c1.135 5.913 2.218 18.838-9.035 22.032-14.181.185-16.667-12.708-17.467-15.886-1.818-6.821 2.375-13.427 2.711-13.832 2.114-2.656-2.09-5.257-3.853-2.96-3.482 1.89-15.274 36.82 19.992 39.797 20.506-9.204 14.942-27.205 12.307-33.33a45.512 45.512 0 0 1-4.655 4.179z"/>
		<path fill="#fff" d="m659.898 392.98-5.29 4.577a19.464 19.464 0 0 0 4.785 5.516l5.13-4.439c-2.108-1.61-3.584-3.65-4.625-5.654z"/>
		<path d="M674.51 402.264c7.758-1.577 12.464-10.652 10.51-20.268a18.409 18.409 0 0 0-.718-2.547 46.48 46.48 0 0 1-1.382 1.059c.167.567.314 1.15.436 1.748 1.776 8.741-2.116 16.22-9.169 17.654-7.053 1.433-13.825-3.722-15.602-12.463-1.142-5.621.062-10.876 2.94-14.294l-.019-.069-1.353-1.04c-3.081 3.89-4.45 9.67-3.232 15.663 1.995 9.816 10.813 15.934 17.588 14.557z"/>
		<path d="M692.205 380.239c-.42-2.067-1.604-4.122-2.379-5.964a90.502 90.502 0 0 1-2.042 2.096 28.458 28.458 0 0 1 1.416 4.775c2.536 12.478-3.57 24.253-13.637 26.3-10.068 2.045-20.285-6.412-22.822-18.89-1.494-7.35.013-14.455 3.56-19.472l-2.12-.885c-3.757 5.502-6.03 13.4-4.415 21.346 2.79 13.728 15.221 23.628 26.297 21.377 11.076-2.252 18.932-16.954 16.142-30.683z"/>
	</g>
</svg>
