<svg version="1.1" id="wapuugotchi_svg__item" class="color_pick_able" viewBox="0 0 1000 1000" xmlns="http://www.w3.org/2000/svg" style="--wapuu-color-1: #fef9e9; --wapuu-color-2: #faa3a3; --wapuu-color-3: #fdc5c6;" data-color-1="Rabbit Body" data-color-2="Rabbit Detail 1" data-color-3="Rabbit Detail 2">
  <g class="Front--group">
    <path style="fill: var(--wapuu-color-1)" d="m715 601.2-.2-.3c-3.3-4.5-5.2-7.2-6.2-8.7l-.5-.7-.8.4c-6.2 3-13.7 4.6-21.7 4.6s-5-.2-7.4-.4c1.1-.2 2.2-.3 3.2-.5.7 0 1.5-.2 2.2-.3 5.6-.8 12.2-1.9 18.2-4.2 13-4.9 20.3-15.1 21.2-29.6.2-7.1-1.4-14.5-4.7-21.5-1.7-3.7-3.9-7.3-6.4-10.3l-.4-.5h-.6c-.8.3-1.6.4-2.4.4 1.1-.8 2.1-1.5 3.1-2.1.8-.6 1.6-1.1 2.5-1.7 2.8-1.9 5.7-3.8 8.1-5.9 4.7-3.9 8.5-8.2 11.4-13 2.3-3.8 5.4-9.6 5.7-15.9.3-4.8-1.2-11-6.2-14.3-2-1.3-4.3-2-6.9-2s-5.6.7-8.6 2.1c-8.8 4.2-16.1 12.1-23 25-2.6 5-4.8 10-6.4 14.9l-.2.7.6.4c1.2.8 2.3 1.8 3.1 3 .5.7.9 1.5 1.1 2.3-.6-.3-1.2-.5-1.7-.8-.9-.4-1.7-.9-2.6-1.2-4.1-1.9-8.7-3.3-13.9-4.5 1.2-.4 2.4-.6 3.8-.7h.6l.2-.6v-.1c4.5-10.7 8.9-26.9 4.8-43.1-.9-4-3.9-13.4-12.6-15.3-.8-.2-1.7-.2-2.6-.2-5.5 0-11.2 3.5-14.8 9.2-3.2 4.8-4.4 10.8-5.1 16.5-1.3 10.3-.4 20.9 2.7 30.5q.3 1.2.9 2.4c1 2.3 1.1 3 0 3.7-12.5 7.3-20.8 19.1-22.4 31.6-1.3 10.9 2.5 21.1 11 29.4h.1c0 .1.2.2.2.2.3.1.5.4.7.7 0 .1.1.3.1.3 2.9 2.7 5.9 5.2 9 7.7-3.4-1-6.8-2.7-9.9-4.9l-.7-.5-.6.7c-.4.5-.8 1.1-1.3 1.8-4.8 8.8-2 21.1 6.2 28.1 1.9 1.7 4 2.6 6.1 2.6s3.9-.8 5.2-2.4c1.6-1.8 2.2-4.3 1.8-7.1-.2-1.7-.8-3.4-1.3-5-.5-1.3-.9-2.6-1.1-3.9v-.4c-.2-.9-.3-1.6-.4-2.2.9 1.3 1.7 2.6 2.5 3.9.5.8 1 1.5 1.4 2.3 1.9 2.9 2.5 6.7 1.8 10.2-.6 3.1-3.1 6-6.2 7.3-1.2.5-2.4.8-3.7.8-3.3 0-7-1.7-10-4.7l-1.3-1.3-.4 1.8-.3 1.8v.8l.7.2c3.4 1 6.3 2.9 8.3 5.6 1.2 1.5 2 3 2.5 4.5-4.5-3.7-9.1-7.5-14.9-7.5s-1.5 0-2.2.2c-3.1.4-5.5 2-6.8 4.6-2.3 4.5-1 11.4 1.5 15.8 1.6 3.1 4 6.3 7.2 9.5q5.4 5.4 10.8 5.4c3.6 0 2.9-.3 4.4-.9 1.6-.6 3.4-1.4 4.5-2.9.2-.2.3-.5.5-.8v-.2c0-.2.1-.3.2-.4v-.2c.4-.9.6-1.8.9-2.8.3-1.6.4-3.1.5-4.7v-.7c.4.6.8 1.3.9 1.6.6 1.2 1 2.7 1 4.2v1.4l1.3-.5c1-.3 1.9-.7 2.8-1.2l1.2-.6-1-1.1-.3-.3-.3-.4v-.2s.1-.2.2-.2h.1c1 .6 2.1 1.1 3.2 1.6h.3v.1c2.7 1.2 5.6 2.1 8.5 2.7l1.4.3-.2-1.4c-.2-1.3-.3-2.7-.3-4.1 0-8.3 3-16.3 7.8-21.5l-1.2-1.6c-2.8 1.6-5.7 2.4-8.2 2.4s-6.1-1.4-8.3-4c-2-2.7-2.7-6.4-1.7-9.7.7-2.4 2.3-4.5 3.7-6.3 1.5-1.8 2.9-3.2 4.4-4.4-.4.7-.8 1.4-1.2 2-1.7 2.9-3.5 5.9-4.5 9.2-.2.4-.2.9-.3 1.4v.5c0 1.8.4 3.5 1.3 5 1.5 2.2 3.8 3.4 6.7 3.4s4.5-.7 6.7-1.8c5.9-2.9 9.9-8 13.7-13 .5-.6 1-1.3 1.5-1.9-1 4.2-3.9 9-8 12.9l1.1 1.6c2.3-1.1 4.7-1.7 7.2-1.7h.6c4.8.2 8.8 2.4 11.2 6.2 3.8 6 3.6 15.3-.6 24.8-.3.6-.5 1.1-.8 1.6l-1 2.1 2.2-.7c8.2-2.5 13.7-7.1 16.2-13.6 4.4-11-.7-25.1-5.7-31.6-1.4-1.9-2.7-3.5-3.8-5zm-9.2 24.1c-1.9-3-4.9-4.7-8.8-4.8h-.5q-5.55 0-9.9 4.2c-4.7 4.5-7.7 12.3-7.7 20.3 0 2.2.3 4.3.9 6.2v.2c0 .2.2.3.2.5v.2c.6 1.4 1.3 2.8 2.3 3.9 1.8 2.2 4.6 3.5 7.6 3.5s2.2-.2 3.3-.5c5.1-1.7 9-5.6 11.6-11.6 3.7-8.5 4-16.9.8-22zm32.4-26.7c-2.7-3.9-6.3-6-10-6h-.9c-8 .7-9.4 4.7-9.7 6.4v.4l.2.3c1 1.4 2.2 2.9 3.5 4.6 4.5 6 7.6 14.6 7.9 22.7v1.2l1.2-.3c2.5-.6 7.2-2.7 10.4-9.7 2.6-5.8 1.6-13.9-2.6-19.7z"/>
    <path style="fill: var(--wapuu-color-2)" d="M660.9 514.8c.9 1 2.3 1.2 3.5.6s3.1-2.4 5-6.3c4.4-9.1 6.6-28.9.8-36.4-4.7-6.1-10.7-2.1-13.1 5.5-3.4 10.7-1 31 3.8 36.6m36.2 6.4c.1 1.3 1.2 2.3 2.5 2.5s4-.1 7.8-2.2c8.9-4.9 22.1-19.7 21.7-29.2-.3-7.7-7.5-7.9-13.9-3.1s-18.8 24.6-18.1 32"/>
    <path style="fill: var(--wapuu-color-2)" d="M636.8 633.6a3.6 4.6 0 0 1-3.6 4.6 3.6 4.6 0 0 1-3.6-4.6 3.6 4.6 0 0 1 3.6-4.6 3.6 4.6 0 0 1 3.6 4.6m-8.77 2.22a3.6 1.7 87.8 0 1-1.56 3.663 3.6 1.7 87.8 0 1-1.837-3.532 3.6 1.7 87.8 0 1 1.56-3.663 3.6 1.7 87.8 0 1 1.838 3.533m15.204 2.046a2.8 3.6 17.6 0 1-3.757 2.585 2.8 3.6 17.6 0 1-1.58-4.278 2.8 3.6 17.6 0 1 3.757-2.585 2.8 3.6 17.6 0 1 1.58 4.278m-9.208 1.969a7.07 7.07 0 0 1 4.803 2.08c1.396 1.383 2.035 2.676 2.484 4.898 1.214 5.897-3.218 9.574-6.862 9.086s-6.352-5.399-6.053-11.116c.227-3.794 2.763-4.986 5.541-4.998z" transform="rotate(-30 633.21 633.668)"/>
    <path style="fill: var(--wapuu-color-2)" d="M690.1 631.7a3.5 2.7 0 0 1-3.5 2.7 3.5 2.7 0 0 1-3.5-2.7 3.5 2.7 0 0 1 3.5-2.7 3.5 2.7 0 0 1 3.5 2.7m3.766 8.77a4.6 3.6 10.1 0 1-5.16 2.737 4.6 3.6 10.1 0 1-3.897-4.351 4.6 3.6 10.1 0 1 5.16-2.738 4.6 3.6 10.1 0 1 3.897 4.351m-6.702 8.619a3.9 3 32.8 0 1-4.904.409 3.9 3 32.8 0 1-1.653-4.635 3.9 3 32.8 0 1 4.904-.409 3.9 3 32.8 0 1 1.653 4.635m-4.8-11.9c.151 2.117-.382 4.38-1.65 6.087-1.269 1.707-2.412 2.568-4.758 3.075-5.822 1.463-10.01-4.18-9.864-8.712.145-4.533 4.818-8 10.651-7.521 5.833.478 5.273 3.566 5.524 7.093z" transform="rotate(-77.8 686.963 631.758)"/>
    <path d="M657.3 563.4c.8 2.7 2.4 5.1 5.4 3.9.6-.2 1.2-.8 1.6-1.3.5-.7 1.3-1 2-.4.7.7.2 1.7-.3 2.3-1.4 2-4.2 2.6-6.4 1.7-1.2-.5-2.1-1.6-2.6-2.8-.4-.6-.8-4.7.2-3.4zm9.5-.9c-.3 2-.5 4.7 1.5 5.8 2.1 1.3 4.5.4 6.2-1.4.2-.3.7 0 .6.3-1.9 5.5-9.9 5-11-.8-.3-1.4-.3-6.2 2-5.5.6.2.9.9.8 1.5zm.3-7s3.7.3 4.5 3.2-3.8 4.6-6.2 4-4.1-3.5-3.5-5.2 2.9-2.3 5.2-2m-15.945-10.64a5.9 6.7 8 0 1 4.91 7.457 5.9 6.7 8 0 1-6.775 5.813 5.9 6.7 8 0 1-4.91-7.456 5.9 6.7 8 0 1 6.775-5.813m37.892 7.426a5.9 6.7 14.4 0 1 4.048 7.957 5.9 6.7 14.4 0 1-7.38 5.022 5.9 6.7 14.4 0 1-4.049-7.956 5.9 6.7 14.4 0 1 7.38-5.023"/>
    <path fill="#fefefe" d="M688.3 555.6a1.9 1.6 0 0 1-1.9 1.6 1.9 1.6 0 0 1-1.9-1.6 1.9 1.6 0 0 1 1.9-1.6 1.9 1.6 0 0 1 1.9 1.6m-13.19-30.275a1.6 1.9 60 0 1-2.445-.435 1.6 1.9 60 0 1 .845-2.336 1.6 1.9 60 0 1 2.446.436 1.6 1.9 60 0 1-.846 2.335" transform="rotate(-60 686.347 555.612)"/>
    <path style="fill: var(--wapuu-color-3)" d="M643.8 559.1a3.7 7.4 0 0 1-3.7 7.4 3.7 7.4 0 0 1-3.7-7.4 3.7 7.4 0 0 1 3.7-7.4 3.7 7.4 0 0 1 3.7 7.4m-1.444 53.263a3.7 7.4 0 0 1-3.7 7.4 3.7 7.4 0 0 1-3.7-7.4 3.7 7.4 0 0 1 3.7-7.4 3.7 7.4 0 0 1 3.7 7.4" transform="rotate(-78.5 639.995 559.125)"/>
    <path d="M741.4 596.3c-3.8-5.3-9.1-8.1-14.5-7.6-6.7.6-10.1 3.3-11.7 5.9-1.4-1.9-2.3-3.3-3-4.4 1-.7 2-1.4 2.9-2.1 6.3-5.1 10.4-12.6 11.8-20.6l.3-1.7.2-1.7c0-1 .3-2.4.3-3.4.3-11.7-4.2-23.2-11.3-32.3.3-.2.6-.3 1-.5 15.1-8.5 31.9-28.7 25.2-47-4.4-11.4-16.5-13.6-26.6-8.7-16.4 7.9-25.9 26.1-31.3 42.7-.3 0-.6 0-.9-.1 4.4-11 6.7-22.8 5.9-34.7-.6-6.4-1.8-12.7-5.1-18.4-5.7-10-17.6-12.4-26.9-5.6-6.8 4.8-10.5 12.8-11.8 20.8-2.1 10.7-1.8 21.9.9 32.4.6 2.4 1.2 4.6 2.1 6.8-1.2.6-2.3 1.3-3.4 2.1-16.2 10.5-25.3 31-17.6 49.6 2.1 4.9 5.3 9.5 9.2 13.3-1.9 2-3.1 4.6-4 7.2-2.6 7.7-.8 16.2 3.6 22.8-.9 2.1-1.3 4-1.5 5.6-2 0-4 .3-5.9 1-10.5 4-9.8 17.8-5.4 26 2.1 4.1 5 7.5 8.3 10.7 6.5 6.6 15.3 8.6 23.4 3.2 1.4-.9 2.5-2 3.3-3.4 1.8-.4 5.3-1.4 8.3-3.3 2.1 1.4 4.4 2.4 6.9 3.1 1 .3 2.1.4 3.2.5q1.05 2.1 2.4 3.9c2.6 3.2 6.6 5 10.7 5s3.1-.2 4.6-.8c2.7-.9 6-2.7 9.1-6 15.6-2.8 21.9-10.9 24.4-17.3.9-2.3 1.5-4.7 1.7-7.2 3.6-.5 10.2-2.8 14.5-12.1 3.2-7.1 2.1-16.6-3-23.7zm-37.3 50.6c-2.5 5.7-6.2 9.4-11 11.1-3.6 1.2-7.6.1-9.9-2.7q-1.35-1.65-2.1-3.6c0-.3-.2-.6-.3-.8-.6-1.8-.9-3.7-.8-5.9 0-7.7 2.9-15.2 7.4-19.6 2.8-2.7 6.1-4 9.7-3.9 3.5.1 6.2 1.6 7.9 4.3 3 4.8 2.7 12.9-.9 21.1m19.4-9.4c-2.5 6.2-7.7 10.6-15.6 13 .3-.5.5-1.1.8-1.7 4.3-9.8 4.4-19.5.5-25.7-2.6-4.1-6.9-6.5-12-6.6-2.9-.1-5.7.5-8.3 1.8 4.7-4.5 8.2-10.4 8.6-15.4 0-.5-.6-.8-.9-.3-4.8 5.9-9 12.7-16.1 16-4 2.2-9.4 2.8-12.1-1.2-.8-1.3-1.2-2.8-1.1-4.4 0-.5 0-1.2.2-1.6 1.4-4.6 4.2-8.4 6.5-12.7.1-.2.1-.5 0-.7-.2-.3-.6-.3-.8-.2-2.3 1.6-4.3 3.5-6.1 5.7-1.6 2-3.2 4.2-3.9 6.7-1.1 3.5-.4 7.7 1.8 10.6 4.9 5.8 11.7 5.3 17.8 1.8-4.9 5.3-8 13.7-8.1 22.2 0 1.5 0 2.9.3 4.3-2.9-.6-5.8-1.5-8.5-2.7-1.1-.5-2.2-1-3.2-1.6-1.1-.7-2.4.8-1.5 1.8l.3.4.5.5c-.9.5-1.8.8-2.7 1.1 0-1.6-.3-3.2-1.1-4.7-.2-.5-2.2-4.2-2.7-2.6-.2 2.5-.3 4.6-.7 6.7-.2.9-.4 1.7-.8 2.6l-.3.6c-.1.2-.3.4-.4.7-1 1.3-2.6 2-4.1 2.6-5.3 2.1-10.1-.2-14.1-4.3-2.7-2.7-5.2-5.8-7-9.2-3.5-6.2-4.6-17.7 4.5-18.9 6.9-1.1 12 3.5 17.2 7.8.4.4 1.2 0 1.1-.6-.5-2.2-1.6-4.2-3.1-6-2.2-2.9-5.4-4.9-8.8-5.9 0-.5.1-1 .3-1.6 3.8 3.8 9.5 6.5 14.8 4.2 3.3-1.4 6.1-4.5 6.8-8 .8-3.8.2-7.8-1.9-11-1.6-2.5-3.2-5.4-5.3-8-1.4-1.2-.1 4.6 0 5.2.5 3 2.2 5.8 2.5 8.8 1.1 7.4-5.9 11.1-11.4 6-7.5-6.3-10.8-18-6-26.9.4-.6.7-1.2 1.1-1.6 4.3 3.1 9.2 5.3 14.5 6-4.4-3.4-8.5-6.6-12.4-10.3-.3-.5-.7-.9-1.2-1.1-19.7-19.3-11-46.5 11.2-59.4 2.9-1.7.3-4.6-.3-7.2-3.1-9.7-4-20.1-2.7-30.2.7-5.6 1.8-11.3 5-16.1 3.6-5.7 9.8-9.8 16.3-8.5 6.7 1.5 10.4 8.2 11.8 14.5 3.6 14 .7 29.3-4.8 42.5v.2c-1.8.1-3.6.5-5.3 1.2-.5.2-.4 1.1.2 1.2 5.1 1 10.2 2.5 14.9 4.7 1.7.7 3.2 1.6 4.9 2.3h.5c.4-.1.6-.5.5-.9-.3-1.2-.8-2.2-1.4-3.2-.9-1.3-2.1-2.4-3.4-3.2 1.7-5 3.9-10.1 6.3-14.8 5.3-9.8 12.4-19.7 22.6-24.6 4.6-2.2 10.2-3 14.5-.2 4.2 2.8 6 8.4 5.7 13.4-.2 5.5-2.7 10.8-5.5 15.4-3 4.8-6.8 9.1-11.2 12.7-3.2 2.7-7.1 5.2-10.5 7.6-1.2.8-2.4 1.6-3.6 2.5-.2.2-.3.4-.3.7 0 .6.6.9 1.1.8 1 0 2-.1 2.9-.3 2.4 3.1 4.6 6.6 6.2 10.2 3.1 6.6 4.9 13.8 4.6 21.1-.8 13.7-7.5 23.9-20.6 28.7-5.7 2.2-11.9 3.3-18 4.2-2.1.3-4.2.5-6.4.9-.3 0-.6.3-.7.7 0 .5.3.9.8.9 9.9 1.3 21.2.4 30.6-4.1 1.1 1.7 3.1 4.5 6.3 8.8 1.2 1.6 2.5 3.3 4 5.3 4.8 6.3 9.7 20 5.5 30.7zm16.3-19.6c-2.9 6.5-7.2 8.5-9.8 9.1-.3-8.7-3.7-17.5-8.1-23.2-1.3-1.7-2.4-3.2-3.5-4.6.2-1.4 1.5-4.9 8.8-5.6 3.6-.3 7.3 1.7 10 5.5 4 5.6 5 13.3 2.5 18.7z"/>
  </g>
</svg>
