<svg xmlns="http://www.w3.org/2000/svg" class="color_pick_able" viewBox="0 0 1000 1000">
  <path d="M436.6 504c-4.5 5.1-10.5 7.9-17 7.9-9.1 0-18.5-5.5-24.4-14.4-7.8-11.6-15.5-21.2-22.3-27.9l-4.8-4.7c-2-2-1.1-5.3 1.6-6.1l6.5-1.7c3.2-.9 6.4-2.7 9.1-5.5 3-3 4.8-6.7 5.2-10.4V430c0-1.3 1.5-2.1 2.5-1.3l9.3 6.9c.7.5 1.7 1.1 2.9 1.7 10.2 4.9 31.7 27.4 35.7 46.7 2.1 10.1-1.2 16.5-4.3 20"/>
  <path fill="#fc0" d="M402.1 444.1q-2.25-1.05-4.2-2.4c-.5 5.5-3 11-7.3 15.3-3.7 3.7-8.1 6.2-12.5 7.4 8.7 8.6 17 19.8 23.2 29.1 4.5 6.7 11.6 11.1 18.3 11.1 4.1 0 8.1-1.6 11.4-5.4 13-14.8-17.3-49.6-28.9-55.1" class="st0"/>
  <path d="M599.1 649.5c-9 25.7-26.4 50-50.3 70.3-23.8 20.3-51.8 34.7-81 41.6-6.9 1.6-14.1 2.5-21.5 2.5-30.8 0-58.9-13.9-74.8-27-13.6-11.1-21.2-23.3-20.9-33.5.4-12 6.7-20.7 16.8-23.3 2.1-.5 4.3-.8 6.7-.8 11.2 0 27.2 6.7 38.5 25.7 7.8 13.2 22 20.1 41.1 20.1h1.2c40.7-.8 87.6-31.2 109.1-70.8 7.7-14.1 13.2-29.6 17.1-40.8 1.9-5.4 3.6-10.1 5.1-13.5 1.3-3.1 4.1-9.4 10.4-9.4 4.1 0 7.6 1.8 9.9 5 5.5 7.6 3.3 23.3-7.4 53.9"/>
  <path fill="#f80" d="M570.5 657.8c-22.7 41.7-72.5 73.9-115.5 74.7h-1.4c-21.6 0-38.3-8.4-47.4-23.8-9-15.1-22-22.1-32.1-22.1q-2.55 0-4.8.6c-7 1.8-11 7.6-11.3 16.4-.3 7.7 6.6 18 18.2 27.5 16.8 13.7 43.2 25.3 70.1 25.3 6.6 0 13.3-.7 19.8-2.3 57.2-13.5 108.5-57.4 126-107.1 5.4-15.3 16.7-49.2 4.5-49.2-4.5.1-10.8 31.8-26.1 60" class="st1"/>
  <path d="M649.7 531.9c-2 24-6.7 45.1-13.9 62.9-8.5 20.9-20.3 36.6-35.1 46.8-34 23.4-64.8 26-76.4 26-1.3 0-2.5 0-3.8-.1-18.4-.8-26-4.4-32.7-7.5-5.9-2.8-11-5.2-24.9-5.7-37.5-1.5-67-9.9-83.1-23.6-.2-.1-.5-.4-.9-.7-4.8-3.5-19.3-14.3-25-24.7-5.3-9.7-6.2-22.3-2.3-31.4 13.4-31.2 24.5-40.5 33.5-48 3.6-3 6.4-5.3 8.8-8.7 2.2-3.1 3.8-7.1 4.9-12.2 0-.1 0-.2.1-.3 3.9-15 3.4-34.9 2.8-56-.2-5.7-.3-11.7-.4-17.5v-.1c0-18.6 9.6-40.7 25.7-59.2 18.1-20.8 41.6-33.6 66.1-36.2 20.2-2.1 34.3-3.1 45.9-3.1 43.7 0 58.6 14.8 82.2 48.4 7.5 10.6 12.1 22.5 16 33.7 11.1 30.4 15.9 76.5 12.5 117.2"/>
  <path fill="#fc0" d="M358.5 576.7c-3 7-2.2 17.4 2 25 5.6 10.3 23 22.2 24.1 23.2 15.1 12.9 43.7 20.5 78.7 21.9 31.2 1.3 24.3 11.8 57.6 13.3 1.1 0 2.2.1 3.5.1 16.7 0 43.7-5 72.2-24.7 58-39.9 52.9-165.3 34-218.6-3.9-11.1-8.3-22.2-15.1-31.9-23.5-33.5-36.6-45.2-76.2-45.2-12.2 0-26.9 1.1-45.1 3.1-49.9 5.3-85.3 55.3-85.3 88.1.3 27.4 2.5 55.1-2.7 75.5-1.4 6.5-3.4 11.2-6 14.9-9.8 13.5-23.4 12.4-41.7 55.3" class="st0"/>
  <path d="M390.6 457c-5.2 5.1-11.7 8.1-17.8 8.1-8.1 0-14-5.1-15.6-13.3-1-5.4.9-11.3 5.4-16.7 5.8-6.9 14.9-12 21.7-12.1h.2c1.3 0 2.6.2 3.8.6h.2l.1.1c4.5 1.8 7.9 6.2 9.1 11.8 1.4 7.5-1.2 15.5-7.1 21.5"/>
  <path fill="#fc0" d="M385.4 451.7c4.2-4.2 6-9.6 5-14.7-.6-3.1-2.3-5.5-4.6-6.4-.4-.1-.9-.2-1.3-.2h-.1c-4 0-11.3 3.6-16.1 9.4-1.8 2.1-4.6 6.3-3.8 10.6 1.1 6 5.1 7.3 8.3 7.3 4.1 0 8.8-2.2 12.6-6" class="st0"/>
  <path d="M384.3 648c-2.4 3.7-6.4 5.7-11.5 5.7-1.9 0-4-.3-6.2-.8-25-6-59.3-43.6-63.6-64.5-1.9-9.4-.2-18 5-24.4 4.6-5.7 11.4-8.8 18.9-8.8 6.8 0 13.6 2.5 19.8 7.3 12.2 9.4 32.9 50.5 37.3 60.7 2.5 5.8 4.9 17.7.3 24.8"/>
  <path fill="#fc0" d="M310.1 586.8c3.8 18.2 36.2 53.6 58.1 58.8q2.55.6 4.5.6c3.4 0 4.7-1.3 5.4-2.3 2.3-3.5 1.5-12.1-1-17.9-6.1-13.9-25.3-50.3-35.1-57.8-4.9-3.8-10.2-5.8-15.3-5.8-5.3 0-10 2.2-13.2 6.1-3.6 4.7-4.8 11.2-3.4 18.3" class="st0"/>
  <path d="M413.3 399.4c-.4 4.4-3.8 8.4-11.1 12.9-4.7 3-10.2 5.5-13.9 6.5-6.5 1.7-12.3 2.6-17.3 2.6-6.7 0-10.6-1.6-12.7-2.9-4.8-3-4.4-7.2-4.2-8.5.5-3.1 2.9-5.5 5.9-6.2 3.5-.8 13.5-5.8 23.6-12.6 4.2-2.9 10.7-4.8 16.1-4.8 5.8 0 9.1 2.2 10.8 4.1 2.1 2.4 3.1 5.5 2.8 8.9"/>
  <path fill="#f80" d="M361.4 411.3c0 .3.4.7.9.9 1.1.7 3.6 1.8 8.8 1.8 4.3 0 9.5-.8 15.4-2.3 5.2-1.4 19.1-8.8 19.5-13 .1-1.3-.2-2.4-.9-3.2-1-1.1-2.8-1.7-5.3-1.7-3.9 0-8.9 1.5-11.9 3.5-8.5 5.7-20.5 12.5-26.1 13.7-.3.1-.4.2-.4.3" class="st1"/>
  <path d="M516.4 328.1c1.6 0 3.2 0 4.8.1 20.6.6 39.5 6.5 55.9 17 11.2 7.2 17.5 11.4 25.9 25.2 1.5 2.5 9 .8 7.9-1.1-10.1-17.6-17.5-22.3-29.8-30.3-17.7-11.4-37.8-17.6-59.7-18.2-1.6 0-3.3-.1-5-.1-1.6 0-3.3 0-4.9.1-24.3.6-47.8 6.6-67.8 17.1-20.2 10.6-37.1 26.1-48.9 44.7-7.7 12.3-10.3 23.9-7.4 33.5 2.4 7.8 7.9 12.7 12.3 14.6 1.4.6 2.9.9 4.7.9 9.3 0 34.7-9.3 45.7-24.8 8.4 4.5 17.6 6.7 28.1 6.7 12.6 0 25-3.2 36.4-6.9 3-1 3.8-2.2 3.9-4.1 0-1.3-1.2-3.6-3.8-3.5-.3 0-.7.1-1 .2-11.2 3.6-23.3 6.9-35.4 6.9-9.3 0-18.6-2-27.4-7.4-.6-.4-1.3-.5-1.9-.5-1.3 0-2.5.6-3.2 1.8l-.1.1c-7.9 14.3-33.3 24.1-41.2 24.1-.7 0-1.3-.1-1.7-.3-2.8-1.2-6.6-4.6-8.2-10-2.3-7.5 0-17 6.6-27.4 22.5-35.7 63.4-57.1 110.6-58.3 1.4-.1 3-.1 4.6-.1"/>
  <path fill="#fc0" d="M516.6 399.4c-1-.4-2-.7-3-.3-19.7 6.3-42.5 12-62.8-.5-1.7-1.1-4-.5-5.1 1.2l-.1.1c-8.6 15.7-38.3 26-43 23.9-2.8-1.2-6.6-4.6-8.2-10-2.3-7.5 0-17 6.6-27.4 22.5-35.7 63.4-57.1 110.6-58.3 3.1-.1 6.3-.1 9.5 0 20.6.6 39.5 6.5 55.9 17 13.2 8.5 19.7 12.7 30.6 33.6 5.6 10.5-84.4 23.5-91 20.7" class="st0"/>
  <path d="M701.4 357.1c-.5 1.7-1.2 3.4-2 5.2-5 10-17.7 23-38 29.1-4.5 1.4-9.3 2-14 2h-.1c-13 0-34.2-4.9-61.6-28.3-1.9-1.7-5.1-4.8-7.1-7-2.3-2.5-2.8-6.1-1.5-9.1s4.4-5.1 7.8-5.1h.5c13.9.8 30.1 1.2 48.4 1.2 8.1 0 14.8-.1 19.3-.1h4.5c7.4 0 13.3-.1 18.2-.1 8.1 0 13.7.1 17.1.2 2.9.1 5.6 1.5 7.3 3.9 1.5 2.3 2 5.2 1.2 8.1"/>
  <path fill="#f80" d="M590.4 359.4c25.7 21.9 45.1 26.5 56.8 26.5h.1c4 0 8-.6 11.9-1.7 18.1-5.4 29.2-16.6 33.5-25.3.8-1.5 1.2-2.8 1.5-3.9.4-1.3-.6-2.6-1.9-2.7-3.3-.1-8.9-.2-16.7-.2-5.4 0-11.6 0-18.2.1-3.3 0-12.2.2-23.9.2-13.9 0-31.7-.2-48.8-1.2h-.1c-.9 0-1.5 1.1-.8 1.8 2 2.2 5 5.1 6.6 6.4" class="st1"/>
  <path d="M417.6 376.2c-4.1 0-7.4 3.3-7.4 7.4 0 9.9 14.8 9.9 14.8 0 0-4.1-3.3-7.4-7.4-7.4m85.6-20.5c-4.1 0-7.4 3.3-7.4 7.4 0 9.9 14.8 9.9 14.8 0 0-4.1-3.3-7.4-7.4-7.4m-45.3 19.7c-7.4.8-12.3 2.5-15.6 4.9-5.9 4.4-4.1 9.9 2.5 10.7s7.1 1.2 13.2-3.3c6.5-4.9 7.3-13.1-.1-12.3"/>
  <path fill="#fc0" d="M512.4 655.2c-4.6-5.2-3.7-15.7-1.9-29.4 2.6-19.8 5-34.5 25.4-50.8 24.4-19.5 62.2-15 76.2-.5 3.6 3.7 6.7 10.9 7.3 18.8.9 11.4-22.2 42.4-44.8 51.8-22.6 9.6-54 19.3-62.2 10.1" class="st0"/>
  <path d="M512.4 658.9c-1.2 0-2.3-.5-3-1.6-4.7-6.7-4.5-17.2-2.6-32 2.5-19 4.6-35.5 26.8-53.2 26.8-21.4 63.7-14 78.4.7 1.4 1.4 1.4 3.8 0 5.2s-3.8 1.4-5.2 0c-12.5-12.5-45.4-18.7-68.6-.1-18.9 15.1-21.4 28.2-24.1 48.4-1.4 11-2.3 21.8 1.3 26.7 1.2 1.7.8 4-.9 5.2-.6.5-1.4.7-2.1.7"/>
  <path d="M523.7 651.2c-.4 1.9-2 9.1-6.7 16.2-7 10.6-17.8 16.5-30.4 16.5-7.2 0-12.9-2.1-16.8-6.2-7.5-7.8-7.1-21-6.7-33.7v-.1c.2-6.4.4-13.1-.4-18.5-.7-4.4-1.8-9.1-3.1-14.5-2.4-10.2-4.6-20.1-4.3-28.7.4-10.7 4.7-18.9 12.8-24.4 3.5-2.4 7.4-3.5 11.4-3.5 9.3 0 18.9 6.2 28.7 18.6 7.1 8.9 13.1 20 15.4 28.1 6.4 21.8 4.9 34.9.1 50.2"/>
  <path fill="#fc0" d="M477 670.8c2 2.1 5.2 3.1 9.6 3.1 22.6 0 27-23.7 27.2-24.7 0-.2.1-.4.1-.6 4.4-13.9 5.7-25.2 0-44.8-3.7-13.2-21.1-39.4-34.4-39.4-2 0-4 .6-5.8 1.9-11.7 7.8-9.3 21.8-4.4 42.4 1.2 5.1 2.5 10.4 3.2 15.3 1 6.4.8 13.5.5 20.4-.2 10.6-.6 21.6 4 26.4" class="st0"/>
  <path d="M478 413.3c-6.4 2.9-12.4 6.6-17.6 11.1-12.1 10.6-12.6 19.4-10.8 24.8 2.5 7.7 11.1 13.4 21.9 14.6 7.1.7 16.2-1.3 26.7-3.6 13.9-3.1 29.7-6.6 42.9-3.9 19.6 4.1 33.3 15 53.1 32.7l10.3 9.2c1.5 1.3 3.9 1.2 5.2-.4 1.3-1.5 1.2-3.9-.4-5.2l-2.9-2.6c-24-21.7-39.9-36-63.8-41-14.8-3.1-31.3.6-46 3.9-9.5 2.1-18.5 4.1-24.3 3.5-7.8-.8-14.1-4.6-15.7-9.5-1.5-4.7 1.6-10.7 8.7-17 20.7-18.2 59.1-23.7 87.5-12.5 4.7 1.9 7.4-5.1 2.7-6.9-11.4-4.4-24.6-6.6-37.7-6.2-10.1.4-30.5 4.8-39.8 9"/>
  <path fill="#fc0" d="M615.4 451c11.7 12.2 17 60.3-6 41.6l-2.9-2.6c-24-21.7-39.9-36-63.8-41-14.8-3.1-31.3.6-46 3.9-9.5 2.1-18.5 4.1-24.3 3.5-7.8-.8-14.1-4.6-15.7-9.5-1.5-4.7 1.6-10.7 8.7-17 20.7-18.2 59.3-24 87.5-12.5 4.6 2 46.1 16.5 62.5 33.6" class="st0"/>
  <path fill="#fef9e9" d="m715 601.2-.2-.3c-3.3-4.5-5.2-7.2-6.2-8.7l-.5-.7-.8.4c-6.2 3-13.7 4.6-21.7 4.6s-5-.2-7.4-.4c1.1-.2 2.2-.3 3.2-.5.7 0 1.5-.2 2.2-.3 5.6-.8 12.2-1.9 18.2-4.2 13-4.9 20.3-15.1 21.2-29.6.2-7.1-1.4-14.5-4.7-21.5-1.7-3.7-3.9-7.3-6.4-10.3l-.4-.5h-.6c-.8.3-1.6.4-2.4.4 1.1-.8 2.1-1.5 3.1-2.1.8-.6 1.6-1.1 2.5-1.7 2.8-1.9 5.7-3.8 8.1-5.9 4.7-3.9 8.5-8.2 11.4-13 2.3-3.8 5.4-9.6 5.7-15.9.3-4.8-1.2-11-6.2-14.3-2-1.3-4.3-2-6.9-2s-5.6.7-8.6 2.1c-8.8 4.2-16.1 12.1-23 25-2.6 5-4.8 10-6.4 14.9l-.2.7.6.4c1.2.8 2.3 1.8 3.1 3 .5.7.9 1.5 1.1 2.3-.6-.3-1.2-.5-1.7-.8-.9-.4-1.7-.9-2.6-1.2-4.1-1.9-8.7-3.3-13.9-4.5 1.2-.4 2.4-.6 3.8-.7h.6l.2-.6v-.1c4.5-10.7 8.9-26.9 4.8-43.1-.9-4-3.9-13.4-12.6-15.3-.8-.2-1.7-.2-2.6-.2-5.5 0-11.2 3.5-14.8 9.2-3.2 4.8-4.4 10.8-5.1 16.5-1.3 10.3-.4 20.9 2.7 30.5q.3 1.2.9 2.4c1 2.3 1.1 3 0 3.7-12.5 7.3-20.8 19.1-22.4 31.6-1.3 10.9 2.5 21.1 11 29.4h.1c0 .1.2.2.2.2.3.1.5.4.7.7 0 .1.1.3.1.3 2.9 2.7 5.9 5.2 9 7.7-3.4-1-6.8-2.7-9.9-4.9l-.7-.5-.6.7c-.4.5-.8 1.1-1.3 1.8-4.8 8.8-2 21.1 6.2 28.1 1.9 1.7 4 2.6 6.1 2.6s3.9-.8 5.2-2.4c1.6-1.8 2.2-4.3 1.8-7.1-.2-1.7-.8-3.4-1.3-5-.5-1.3-.9-2.6-1.1-3.9v-.4c-.2-.9-.3-1.6-.4-2.2.9 1.3 1.7 2.6 2.5 3.9.5.8 1 1.5 1.4 2.3 1.9 2.9 2.5 6.7 1.8 10.2-.6 3.1-3.1 6-6.2 7.3-1.2.5-2.4.8-3.7.8-3.3 0-7-1.7-10-4.7l-1.3-1.3-.4 1.8-.3 1.8v.8l.7.2c3.4 1 6.3 2.9 8.3 5.6 1.2 1.5 2 3 2.5 4.5-4.5-3.7-9.1-7.5-14.9-7.5s-1.5 0-2.2.2c-3.1.4-5.5 2-6.8 4.6-2.3 4.5-1 11.4 1.5 15.8 1.6 3.1 4 6.3 7.2 9.5q5.4 5.4 10.8 5.4c3.6 0 2.9-.3 4.4-.9 1.6-.6 3.4-1.4 4.5-2.9.2-.2.3-.5.5-.8v-.2c0-.2.1-.3.2-.4v-.2c.4-.9.6-1.8.9-2.8.3-1.6.4-3.1.5-4.7v-.7c.4.6.8 1.3.9 1.6.6 1.2 1 2.7 1 4.2v1.4l1.3-.5c1-.3 1.9-.7 2.8-1.2l1.2-.6-1-1.1-.3-.3-.3-.4v-.2s.1-.2.2-.2h.1c1 .6 2.1 1.1 3.2 1.6h.3v.1c2.7 1.2 5.6 2.1 8.5 2.7l1.4.3-.2-1.4c-.2-1.3-.3-2.7-.3-4.1 0-8.3 3-16.3 7.8-21.5l-1.2-1.6c-2.8 1.6-5.7 2.4-8.2 2.4s-6.1-1.4-8.3-4c-2-2.7-2.7-6.4-1.7-9.7.7-2.4 2.3-4.5 3.7-6.3 1.5-1.8 2.9-3.2 4.4-4.4-.4.7-.8 1.4-1.2 2-1.7 2.9-3.5 5.9-4.5 9.2-.2.4-.2.9-.3 1.4v.5c0 1.8.4 3.5 1.3 5 1.5 2.2 3.8 3.4 6.7 3.4s4.5-.7 6.7-1.8c5.9-2.9 9.9-8 13.7-13 .5-.6 1-1.3 1.5-1.9-1 4.2-3.9 9-8 12.9l1.1 1.6c2.3-1.1 4.7-1.7 7.2-1.7h.6c4.8.2 8.8 2.4 11.2 6.2 3.8 6 3.6 15.3-.6 24.8-.3.6-.5 1.1-.8 1.6l-1 2.1 2.2-.7c8.2-2.5 13.7-7.1 16.2-13.6 4.4-11-.7-25.1-5.7-31.6-1.4-1.9-2.7-3.5-3.8-5zm-9.2 24.1c-1.9-3-4.9-4.7-8.8-4.8h-.5q-5.55 0-9.9 4.2c-4.7 4.5-7.7 12.3-7.7 20.3 0 2.2.3 4.3.9 6.2v.2c0 .2.2.3.2.5v.2c.6 1.4 1.3 2.8 2.3 3.9 1.8 2.2 4.6 3.5 7.6 3.5s2.2-.2 3.3-.5c5.1-1.7 9-5.6 11.6-11.6 3.7-8.5 4-16.9.8-22zm32.4-26.7c-2.7-3.9-6.3-6-10-6h-.9c-8 .7-9.4 4.7-9.7 6.4v.4l.2.3c1 1.4 2.2 2.9 3.5 4.6 4.5 6 7.6 14.6 7.9 22.7v1.2l1.2-.3c2.5-.6 7.2-2.7 10.4-9.7 2.6-5.8 1.6-13.9-2.6-19.7z"/>
  <path fill="#faa3a3" d="M660.9 514.8c.9 1 2.3 1.2 3.5.6s3.1-2.4 5-6.3c4.4-9.1 6.6-28.9.8-36.4-4.7-6.1-10.7-2.1-13.1 5.5-3.4 10.7-1 31 3.8 36.6m36.2 6.4c.1 1.3 1.2 2.3 2.5 2.5s4-.1 7.8-2.2c8.9-4.9 22.1-19.7 21.7-29.2-.3-7.7-7.5-7.9-13.9-3.1s-18.8 24.6-18.1 32m-60.815 110.614a4.6 3.6 60 0 1-.818 5.784 4.6 3.6 60 0 1-5.417-2.184 4.6 3.6 60 0 1 .817-5.784 4.6 3.6 60 0 1 5.418 2.184m-6.485 6.308a3.6 1.7 57.8 0 1 .48 3.952 3.6 1.7 57.8 0 1-3.356-2.14 3.6 1.7 57.8 0 1-.48-3.953 3.6 1.7 57.8 0 1 3.357 2.141m14.19-5.83a3.6 2.8 77.6 0 1-1.96 4.117 3.6 2.8 77.6 0 1-3.508-2.915 3.6 2.8 77.6 0 1 1.961-4.117 3.6 2.8 77.6 0 1 3.507 2.915m-6.99 6.31a7.07 7.07 0 0 1 5.2-.601c1.9.5 3.1 1.3 4.6 3 4 4.5 2 9.9-1.4 11.3s-8.2-1.5-10.8-6.6c-1.7-3.4-.1-5.7 2.3-7.1zm50.569-9.922a3.5 2.7-77.8 0 1 1.899 3.991 3.5 2.7-77.8 0 1-3.379 2.85 3.5 2.7-77.8 0 1-1.9-3.991 3.5 2.7-77.8 0 1 3.38-2.85m9.367-1.828a4.6 3.6-67.7 0 1 1.585 5.622 4.6 3.6-67.7 0 1-5.076 2.89 4.6 3.6-67.7 0 1-1.586-5.623 4.6 3.6-67.7 0 1 5.076-2.89m7.008 8.373a3.9 3-45 0 1-.636 4.88 3.9 3-45 0 1-4.88.636 3.9 3-45 0 1 .636-4.88 3.9 3-45 0 1 4.88-.636m-12.646 2.177c2.102.3 4.2 1.299 5.601 2.899s2 2.9 2 5.3c.2 6-6.2 8.9-10.6 7.8s-6.8-6.4-5.1-12 4.6-4.4 8.1-3.9z"/>
  <path d="M657.3 563.4c.8 2.7 2.4 5.1 5.4 3.9.6-.2 1.2-.8 1.6-1.3.5-.7 1.3-1 2-.4.7.7.2 1.7-.3 2.3-1.4 2-4.2 2.6-6.4 1.7-1.2-.5-2.1-1.6-2.6-2.8-.4-.6-.8-4.7.2-3.4zm9.5-.9c-.3 2-.5 4.7 1.5 5.8 2.1 1.3 4.5.4 6.2-1.4.2-.3.7 0 .6.3-1.9 5.5-9.9 5-11-.8-.3-1.4-.3-6.2 2-5.5.6.2.9.9.8 1.5zm.3-7s3.7.3 4.5 3.2-3.8 4.6-6.2 4-4.1-3.5-3.5-5.2 2.9-2.3 5.2-2m-15.945-10.64a5.9 6.7 8 0 1 4.91 7.457 5.9 6.7 8 0 1-6.775 5.813 5.9 6.7 8 0 1-4.91-7.456 5.9 6.7 8 0 1 6.775-5.813m37.892 7.426a5.9 6.7 14.4 0 1 4.048 7.957 5.9 6.7 14.4 0 1-7.38 5.022 5.9 6.7 14.4 0 1-4.049-7.956 5.9 6.7 14.4 0 1 7.38-5.023"/>
  <path fill="#fefefe" d="M687.313 553.915a1.9 1.6-60 0 1 .436 2.445 1.9 1.6-60 0 1-2.336.846 1.9 1.6-60 0 1-.436-2.446 1.9 1.6-60 0 1 2.336-.845M654.5 550.2a1.6 1.9 0 0 1-1.599 1.9 1.6 1.9 0 0 1-1.6-1.9 1.6 1.9 0 0 1 1.6-1.9 1.6 1.9 0 0 1 1.6 1.9"/>
  <path fill="#fdc5c6" d="M640.73 555.391a7.4 3.7 11.5 0 1 6.513 5.101 7.4 3.7 11.5 0 1-7.99 2.15 7.4 3.7 11.5 0 1-6.513-5.1 7.4 3.7 11.5 0 1 7.99-2.15m51.905 12.033a7.4 3.7 11.5 0 1 6.514 5.101 7.4 3.7 11.5 0 1-7.99 2.15 7.4 3.7 11.5 0 1-6.513-5.1 7.4 3.7 11.5 0 1 7.989-2.15"/>
  <path d="M741.4 596.3c-3.8-5.3-9.1-8.1-14.5-7.6-6.7.6-10.1 3.3-11.7 5.9-1.4-1.9-2.3-3.3-3-4.4 1-.7 2-1.4 2.9-2.1 6.3-5.1 10.4-12.6 11.8-20.6l.3-1.7.2-1.7c0-1 .3-2.4.3-3.4.3-11.7-4.2-23.2-11.3-32.3.3-.2.6-.3 1-.5 15.1-8.5 31.9-28.7 25.2-47-4.4-11.4-16.5-13.6-26.6-8.7-16.4 7.9-25.9 26.1-31.3 42.7-.3 0-.6 0-.9-.1 4.4-11 6.7-22.8 5.9-34.7-.6-6.4-1.8-12.7-5.1-18.4-5.7-10-17.6-12.4-26.9-5.6-6.8 4.8-10.5 12.8-11.8 20.8-2.1 10.7-1.8 21.9.9 32.4.6 2.4 1.2 4.6 2.1 6.8-1.2.6-2.3 1.3-3.4 2.1-16.2 10.5-25.3 31-17.6 49.6 2.1 4.9 5.3 9.5 9.2 13.3-1.9 2-3.1 4.6-4 7.2-2.6 7.7-.8 16.2 3.6 22.8-.9 2.1-1.3 4-1.5 5.6-2 0-4 .3-5.9 1-10.5 4-9.8 17.8-5.4 26 2.1 4.1 5 7.5 8.3 10.7 6.5 6.6 15.3 8.6 23.4 3.2 1.4-.9 2.5-2 3.3-3.4 1.8-.4 5.3-1.4 8.3-3.3 2.1 1.4 4.4 2.4 6.9 3.1 1 .3 2.1.4 3.2.5q1.05 2.1 2.4 3.9c2.6 3.2 6.6 5 10.7 5s3.1-.2 4.6-.8c2.7-.9 6-2.7 9.1-6 15.6-2.8 21.9-10.9 24.4-17.3.9-2.3 1.5-4.7 1.7-7.2 3.6-.5 10.2-2.8 14.5-12.1 3.2-7.1 2.1-16.6-3-23.7zm-37.3 50.6c-2.5 5.7-6.2 9.4-11 11.1-3.6 1.2-7.6.1-9.9-2.7q-1.35-1.65-2.1-3.6c0-.3-.2-.6-.3-.8-.6-1.8-.9-3.7-.8-5.9 0-7.7 2.9-15.2 7.4-19.6 2.8-2.7 6.1-4 9.7-3.9 3.5.1 6.2 1.6 7.9 4.3 3 4.8 2.7 12.9-.9 21.1m19.4-9.4c-2.5 6.2-7.7 10.6-15.6 13 .3-.5.5-1.1.8-1.7 4.3-9.8 4.4-19.5.5-25.7-2.6-4.1-6.9-6.5-12-6.6-2.9-.1-5.7.5-8.3 1.8 4.7-4.5 8.2-10.4 8.6-15.4 0-.5-.6-.8-.9-.3-4.8 5.9-9 12.7-16.1 16-4 2.2-9.4 2.8-12.1-1.2-.8-1.3-1.2-2.8-1.1-4.4 0-.5 0-1.2.2-1.6 1.4-4.6 4.2-8.4 6.5-12.7.1-.2.1-.5 0-.7-.2-.3-.6-.3-.8-.2-2.3 1.6-4.3 3.5-6.1 5.7-1.6 2-3.2 4.2-3.9 6.7-1.1 3.5-.4 7.7 1.8 10.6 4.9 5.8 11.7 5.3 17.8 1.8-4.9 5.3-8 13.7-8.1 22.2 0 1.5 0 2.9.3 4.3-2.9-.6-5.8-1.5-8.5-2.7-1.1-.5-2.2-1-3.2-1.6-1.1-.7-2.4.8-1.5 1.8l.3.4.5.5c-.9.5-1.8.8-2.7 1.1 0-1.6-.3-3.2-1.1-4.7-.2-.5-2.2-4.2-2.7-2.6-.2 2.5-.3 4.6-.7 6.7-.2.9-.4 1.7-.8 2.6l-.3.6c-.1.2-.3.4-.4.7-1 1.3-2.6 2-4.1 2.6-5.3 2.1-10.1-.2-14.1-4.3-2.7-2.7-5.2-5.8-7-9.2-3.5-6.2-4.6-17.7 4.5-18.9 6.9-1.1 12 3.5 17.2 7.8.4.4 1.2 0 1.1-.6-.5-2.2-1.6-4.2-3.1-6-2.2-2.9-5.4-4.9-8.8-5.9 0-.5.1-1 .3-1.6 3.8 3.8 9.5 6.5 14.8 4.2 3.3-1.4 6.1-4.5 6.8-8 .8-3.8.2-7.8-1.9-11-1.6-2.5-3.2-5.4-5.3-8-1.4-1.2-.1 4.6 0 5.2.5 3 2.2 5.8 2.5 8.8 1.1 7.4-5.9 11.1-11.4 6-7.5-6.3-10.8-18-6-26.9.4-.6.7-1.2 1.1-1.6 4.3 3.1 9.2 5.3 14.5 6-4.4-3.4-8.5-6.6-12.4-10.3-.3-.5-.7-.9-1.2-1.1-19.7-19.3-11-46.5 11.2-59.4 2.9-1.7.3-4.6-.3-7.2-3.1-9.7-4-20.1-2.7-30.2.7-5.6 1.8-11.3 5-16.1 3.6-5.7 9.8-9.8 16.3-8.5 6.7 1.5 10.4 8.2 11.8 14.5 3.6 14 .7 29.3-4.8 42.5v.2c-1.8.1-3.6.5-5.3 1.2-.5.2-.4 1.1.2 1.2 5.1 1 10.2 2.5 14.9 4.7 1.7.7 3.2 1.6 4.9 2.3h.5c.4-.1.6-.5.5-.9-.3-1.2-.8-2.2-1.4-3.2-.9-1.3-2.1-2.4-3.4-3.2 1.7-5 3.9-10.1 6.3-14.8 5.3-9.8 12.4-19.7 22.6-24.6 4.6-2.2 10.2-3 14.5-.2 4.2 2.8 6 8.4 5.7 13.4-.2 5.5-2.7 10.8-5.5 15.4-3 4.8-6.8 9.1-11.2 12.7-3.2 2.7-7.1 5.2-10.5 7.6-1.2.8-2.4 1.6-3.6 2.5-.2.2-.3.4-.3.7 0 .6.6.9 1.1.8 1 0 2-.1 2.9-.3 2.4 3.1 4.6 6.6 6.2 10.2 3.1 6.6 4.9 13.8 4.6 21.1-.8 13.7-7.5 23.9-20.6 28.7-5.7 2.2-11.9 3.3-18 4.2-2.1.3-4.2.5-6.4.9-.3 0-.6.3-.7.7 0 .5.3.9.8.9 9.9 1.3 21.2.4 30.6-4.1 1.1 1.7 3.1 4.5 6.3 8.8 1.2 1.6 2.5 3.3 4 5.3 4.8 6.3 9.7 20 5.5 30.7zm16.3-19.6c-2.9 6.5-7.2 8.5-9.8 9.1-.3-8.7-3.7-17.5-8.1-23.2-1.3-1.7-2.4-3.2-3.5-4.6.2-1.4 1.5-4.9 8.8-5.6 3.6-.3 7.3 1.7 10 5.5 4 5.6 5 13.3 2.5 18.7z"/>
</svg>