<svg version="1.1" id="wapuugotchi_svg__item" viewBox="0 0 1e3 1e3" xmlns="http://www.w3.org/2000/svg">
	<g class="Ball--group">
		<circle transform="rotate(-45.001 470.62 529.32)" cx="470.6" cy="529.3" r="133.5"/>
		<circle cx="470.6" cy="529.3" r="126.1" fill="#001b41"/>
		<path d="M495.9 557.2c-.8-.1-1.6-.3-2.4-.5-3.3-1.1-6-3.6-7.3-6.9v-.1c-.6-1.9.3-3.9 2.1-4.7.6-.3 1.3-.4 1.9-.3 1.3.2 2.4 1 2.8 2.2 0 .1.1.1.1.2.1.2.2.3.3.6.2.2.3.3.4.6.6.7 1.3 1.1 2.2 1.4 1.4.4 2.9.2 4.2-.5 1.3-.7 2.3-2 2.6-3.5.3-1.5 0-3-.8-4.1 0 0-9-12.4-9.4-13-.4-.5-.7-1.1-1.1-1.7-1.2-2.3-1.2-4.9-.6-7.4.4-1.8 1.2-3.4 2.3-4.9 0 0 .6-.8.8-1 .7-.8 2-1.8 2.8-2.3.7-.4 1.5-.8 2.2-1.1 5.9-2.3 12.2.2 14.5 5.9.4.9.4 1.9 0 2.8-.4.9-1.1 1.7-2 2.2-.6.3-1.2.4-1.8.4-1.3-.1-2.3-.9-2.8-2.1-.5-1.2-1.5-2.1-2.8-2.5-1.3-.4-2.7-.1-3.9.6-1.2.7-2 1.9-2.3 3.3-.3 1.3-.1 2.7.7 3.8 3.7 5 5.5 7.5 9.3 12.5 2 2.8 2.8 6.4 2 9.9-.8 3.6-3.1 6.7-6.1 8.6-2.4 1.3-5.2 1.9-7.9 1.6m-34.9-4.9c6.5 1.1 12.7-3.4 13.7-9.9 1.5-9.3 2.3-14 3.8-23.3 1-6.5-3.4-12.3-9.8-13-6.4-.7-12.5 3.7-13.6 10-1.6 9.1-2.4 13.6-3.9 22.7-1.1 6.3 3.3 12.4 9.8 13.5m6.6-39.2c2.5.3 4.3 2.7 3.9 5.2-1.5 9.3-2.3 13.9-3.8 23.1-.4 2.6-2.9 4.3-5.4 3.9-2.6-.4-4.3-2.7-3.9-5.2v-.1c1.6-9.2 2.3-13.7 3.9-22.9.3-2.6 2.7-4.4 5.3-4m-52.5-6.4c-2.1 10.6-4.1 21.2-6.2 31.8-.4 1.8.9 3.7 2.9 4.1 1.9.5 3.8-.7 4.2-2.5 1.4-7.2 2.1-10.9 3.5-18.1-1.8-6.2-2.7-9.3-4.4-15.3zm16.5 16.4c1.4-7.4 2-11 3.4-18.4.4-1.9 2.2-3.1 4.1-2.8 1.9.3 3.2 2.1 2.9 3.9-2 10.9-4 21.8-5.9 32.7-1.8-6.1-2.7-9.2-4.5-15.4zm3.6 20.2c-.1.3-.1.4-.1.7-.4 1.9-2.2 3.1-4.2 2.7-1.3-.3-2.4-1.2-2.8-2.5-4-14-8-28.1-12-42.1.1-.3.1-.5.1-.8.2-1.3 1.2-2.3 2.6-2.6 1.9-.5 3.8.6 4.3 2.3v.1c4 14.1 8 28.2 12.1 42.2zm-53.1-8.3c6.4 1.8 12.5-1.7 13.7-7.7 1.7-8.6 2.6-12.8 4.3-21.4 1.2-6-3-11.9-9.3-13.3-6.3-1.4-12.3 2-13.6 7.8-1.8 8.3-2.7 12.5-4.4 20.8-1.2 5.8 2.9 12 9.3 13.8m7.4-36c2.5.6 4.1 3 3.7 5.3-1.7 8.5-2.6 12.7-4.3 21.2-.5 2.4-2.9 3.7-5.4 3.1-2.5-.7-4.2-3.1-3.7-5.4v-.1c1.8-8.4 2.6-12.6 4.4-21 .4-2.3 2.8-3.7 5.3-3.1m-40.1 22.5c-.4 1.9.9 3.9 3 4.6 2.1.7 4.1-.3 4.5-2.2 2.5-11.4 5-22.8 7.5-34.3.4-1.9-1-3.8-3-4.4-2-.5-4 .5-4.4 2.3-2.6 11.3-5.1 22.6-7.6 34z" fill="#fff"/>
	</g>
</svg>
