<?xml version="1.0" encoding="utf-8"?>
<!-- Generator: Adobe Illustrator 25.2.0, SVG Export Plug-In . SVG Version: 6.00 Build 0)  -->
<svg version="1.1" id="Layer_1" xmlns="http://www.w3.org/2000/svg" xmlns:xlink="http://www.w3.org/1999/xlink" x="0px" y="0px"
	 viewBox="0 0 1000 1000" style="enable-background:new 0 0 1000 1000;" xml:space="preserve">
<style type="text/css">
	.st0{fill:#001B41;}
	.st1{fill:#FFFFFF;}
</style>
<g id="Ball--group">
	<g id="Ball--bg">
		<ellipse transform="matrix(0.7071 -0.7071 0.7071 0.7071 -236.4377 487.8127)" cx="470.6" cy="529.3" rx="133.5" ry="133.5"/>
	</g>
	<g id="Ball">
		<circle class="st0" cx="470.6" cy="529.3" r="126.1"/>
	</g>
	<g>
		<g id="logo-ionos-color-white_1_">
			<path id="ionos_1_" class="st1" d="M495.9,557.2c-0.8-0.1-1.6-0.3-2.4-0.5c-3.3-1.1-6-3.6-7.3-6.9c0,0,0-0.1,0-0.1
				c-0.6-1.9,0.3-3.9,2.1-4.7c0.6-0.3,1.3-0.4,1.9-0.3c1.3,0.2,2.4,1,2.8,2.2c0,0.1,0.1,0.1,0.1,0.2c0.1,0.2,0.2,0.3,0.3,0.6
				c0.2,0.2,0.3,0.3,0.4,0.6c0.6,0.7,1.3,1.1,2.2,1.4c1.4,0.4,2.9,0.2,4.2-0.5c1.3-0.7,2.3-2,2.6-3.5c0.3-1.5,0-3-0.8-4.1
				c0,0-9-12.4-9.4-13c-0.4-0.5-0.7-1.1-1.1-1.7c-1.2-2.3-1.2-4.9-0.6-7.4c0.4-1.8,1.2-3.4,2.3-4.9c0,0,0.6-0.8,0.8-1
				c0.7-0.8,2-1.8,2.8-2.3c0.7-0.4,1.5-0.8,2.2-1.1c5.9-2.3,12.2,0.2,14.5,5.9c0.4,0.9,0.4,1.9,0,2.8c-0.4,0.9-1.1,1.7-2,2.2
				c-0.6,0.3-1.2,0.4-1.8,0.4c-1.3-0.1-2.3-0.9-2.8-2.1c-0.5-1.2-1.5-2.1-2.8-2.5c-1.3-0.4-2.7-0.1-3.9,0.6c-1.2,0.7-2,1.9-2.3,3.3
				c-0.3,1.3-0.1,2.7,0.7,3.8c3.7,5,5.5,7.5,9.3,12.5c2,2.8,2.8,6.4,2,9.9c-0.8,3.6-3.1,6.7-6.1,8.6
				C501.4,556.9,498.6,557.5,495.9,557.2 M461,552.3c6.5,1.1,12.7-3.4,13.7-9.9c1.5-9.3,2.3-14,3.8-23.3c1-6.5-3.4-12.3-9.8-13
				c-6.4-0.7-12.5,3.7-13.6,10c-1.6,9.1-2.4,13.6-3.9,22.7C450.1,545.1,454.5,551.2,461,552.3 M467.6,513.1c2.5,0.3,4.3,2.7,3.9,5.2
				c-1.5,9.3-2.3,13.9-3.8,23.1c-0.4,2.6-2.9,4.3-5.4,3.9c-2.6-0.4-4.3-2.7-3.9-5.2c0,0,0-0.1,0-0.1c1.6-9.2,2.3-13.7,3.9-22.9
				C462.6,514.5,465,512.7,467.6,513.1 M415.1,506.7c-2.1,10.6-4.1,21.2-6.2,31.8c-0.4,1.8,0.9,3.7,2.9,4.1c1.9,0.5,3.8-0.7,4.2-2.5
				c1.4-7.2,2.1-10.9,3.5-18.1C417.7,515.8,416.8,512.7,415.1,506.7z M431.6,523.1c1.4-7.4,2-11,3.4-18.4c0.4-1.9,2.2-3.1,4.1-2.8
				c1.9,0.3,3.2,2.1,2.9,3.9c-2,10.9-4,21.8-5.9,32.7C434.3,532.4,433.4,529.3,431.6,523.1z M435.2,543.3c-0.1,0.3-0.1,0.4-0.1,0.7
				c-0.4,1.9-2.2,3.1-4.2,2.7c-1.3-0.3-2.4-1.2-2.8-2.5c-4-14-8-28.1-12-42.1c0.1-0.3,0.1-0.5,0.1-0.8c0.2-1.3,1.2-2.3,2.6-2.6
				c1.9-0.5,3.8,0.6,4.3,2.3c0,0,0,0,0,0.1C427.1,515.2,431.1,529.3,435.2,543.3z M382.1,535c6.4,1.8,12.5-1.7,13.7-7.7
				c1.7-8.6,2.6-12.8,4.3-21.4c1.2-6-3-11.9-9.3-13.3c-6.3-1.4-12.3,2-13.6,7.8c-1.8,8.3-2.7,12.5-4.4,20.8
				C371.6,527,375.7,533.2,382.1,535 M389.5,499c2.5,0.6,4.1,3,3.7,5.3c-1.7,8.5-2.6,12.7-4.3,21.2c-0.5,2.4-2.9,3.7-5.4,3.1
				c-2.5-0.7-4.2-3.1-3.7-5.4c0,0,0,0,0-0.1c1.8-8.4,2.6-12.6,4.4-21C384.6,499.8,387,498.4,389.5,499 M349.4,521.5
				c-0.4,1.9,0.9,3.9,3,4.6c2.1,0.7,4.1-0.3,4.5-2.2c0,0,0,0,0,0c2.5-11.4,5-22.8,7.5-34.3c0.4-1.9-1-3.8-3-4.4
				c-2-0.5-4,0.5-4.4,2.3C354.4,498.8,351.9,510.1,349.4,521.5z"/>
		</g>
	</g>
</g>
</svg>
