<svg version="1.1" id="wapuugotchi_svg__item" viewBox="0 0 1e3 1e3" xmlns="http://www.w3.org/2000/svg">
    <g class="Ball--group">
        <ellipse transform="matrix(.7071 -.7071 .7071 .7071 -236.44 487.81)" cx="470.6" cy="529.3" rx="133.5" ry="133.5"/>
        <circle cx="470.6" cy="529.3" r="126.1" fill="#fff"/>
        <path d="m417.7 532.9c-4.9-1-7.4-5.2-6.6-8.8 0-0.2 0.1-0.3 0.1-0.4 0.8-3.7 4.7-6.3 9.5-5.3s7.4 5 6.6 8.7c0 0.2-0.1 0.3-0.1 0.4-0.6 3.6-4.5 6.5-9.5 5.4zm7.1-6.3c0.5-2.6-0.9-5.4-4.5-6.1-3.5-0.7-5.9 1.2-6.5 3.8 0 0.1 0 0.2-0.1 0.3-0.6 2.6 0.9 5.4 4.4 6.2 3.5 0.7 6-1.3 6.5-3.9 0.1-0.1 0.1-0.2 0.2-0.3z" fill="#3499CD"/>
        <path d="m362.5 518.5c-0.3-1.5-0.5-2.3-0.8-3.8-3.2-1-4.8-1.4-8-2.4-1.1 1.1-1.7 1.6-2.8 2.7-1.1-0.3-1.6-0.5-2.7-0.8 4.6-4.3 6.9-6.4 11.4-10.8 0.8 0.3 1.3 0.4 2.1 0.6 1.4 6.1 2.1 9.2 3.6 15.3-1.1-0.3-1.7-0.5-2.8-0.8zm-2.7-12.3-4.6 4.6c2.4 0.7 3.6 1.1 6 1.8-0.6-2.6-0.9-3.9-1.4-6.4zm17 16.9c-4.9-1.3-6.5-4.6-5.5-8 0.9-3.1 1.3-4.6 2.2-7.7 1 0.3 1.5 0.4 2.5 0.7-0.9 3.1-1.3 4.7-2.2 7.8-0.7 2.4 0.6 4.4 3.8 5.2 3.3 0.9 5-0.2 5.6-2.7 0.8-3.1 1.2-4.7 2-7.8 1 0.3 1.5 0.4 2.5 0.7-0.8 3.1-1.2 4.7-2 7.8-0.8 3.2-3.6 5.4-8.9 4zm24.7-6.3c-1.1 4.5-1.6 6.8-2.7 11.3-1-0.2-1.6-0.4-2.6-0.6 1.1-4.5 1.6-6.8 2.7-11.3l-6-1.5c0.2-0.8 0.3-1.3 0.5-2.1 5.8 1.4 8.7 2.1 14.4 3.4-0.2 0.8-0.3 1.3-0.5 2.1-2.2-0.4-3.4-0.7-5.8-1.3zm48 21.5c0.7-4.4 1-6.5 1.7-10.9-0.4 0.4-0.5 0.7-0.9 1.1-2.9 3.5-4.4 5.2-7.4 8.7-0.5-0.1-0.8-0.1-1.3-0.2-1.7-4.3-2.5-6.4-4.1-10.7-0.2-0.5-0.3-0.8-0.5-1.3-0.8 4.3-1.2 6.5-2 10.8-1-0.2-1.5-0.3-2.6-0.5 1-5.5 1.5-8.2 2.5-13.7 1.4 0.3 2.1 0.4 3.6 0.6 1.5 4.1 2.3 6.2 3.8 10.4 0.2 0.5 0.3 0.8 0.5 1.3 0.3-0.4 0.5-0.6 0.8-1 2.8-3.4 4.2-5.1 7-8.5 1.4 0.2 2.1 0.3 3.5 0.6-0.9 5.5-1.3 8.3-2.1 13.8-0.9-0.3-1.4-0.4-2.5-0.5zm22.7 3.2c-0.6-1.5-0.9-2.2-1.4-3.7-3.3-0.4-5-0.7-8.2-1.1-0.9 1.3-1.4 1.9-2.3 3.2-1.1-0.2-1.7-0.2-2.8-0.4 3.9-5.1 5.8-7.6 9.5-12.8 0.9 0.1 1.3 0.2 2.2 0.3 2.3 6 3.5 8.9 5.9 14.9-1.2-0.1-1.8-0.2-2.9-0.4zm-4.6-11.9c-1.5 2.2-2.3 3.3-3.8 5.4 2.5 0.3 3.7 0.5 6.2 0.8-1-2.5-1.5-3.7-2.4-6.2zm19.4 1.8c-0.5 4.7-0.8 7.1-1.3 11.8-1.1-0.1-1.6-0.2-2.7-0.3 0.5-4.7 0.8-7.1 1.3-11.8-2.4-0.3-3.7-0.4-6.1-0.7 0.1-0.9 0.2-1.3 0.3-2.2 5.9 0.7 8.8 1 14.8 1.6-0.1 0.9-0.1 1.3-0.2 2.2-2.4-0.3-3.7-0.4-6.1-0.6zm19.2 1.7c-0.4 4.7-0.6 7.1-0.9 11.9-1.1-0.1-1.6-0.1-2.7-0.2 0.4-4.7 0.6-7.1 1-11.9-2.4-0.2-3.7-0.3-6.1-0.5 0.1-0.9 0.1-1.3 0.2-2.2 5.9 0.5 8.9 0.8 14.8 1.2-0.1 0.9-0.1 1.3-0.2 2.2-2.4-0.2-3.6-0.3-6.1-0.5zm11.9 12.8c0.3-5.1 0.5-7.7 0.8-12.8 1 0.1 1.5-0.5 1.5-1.3 0.4 0 0.7 0 1.1 0.1-0.3 5.6-0.5 8.5-0.8 14.1-1 0-1.5 0-2.6-0.1zm23.9-9.1c-1.5-1.5-3.5-2.4-5.5-2.4-3.7-0.1-6 2.4-6.1 5.1v0.3c-0.1 2.7 1.9 5.3 5.9 5.4 2.1 0 4.1-0.7 5.6-2.1 0.6 0.7 0.9 1 1.6 1.7-2 1.8-4.7 2.7-7.5 2.6-5.4-0.2-8.5-3.9-8.3-7.7v-0.5c0.2-3.8 3.9-7.3 9-7.1 3 0.1 5.6 1.4 7 3l-1.7 1.7zm-122-13.4-3.1 3.1c-0.4 0.4-0.4 1 0 1.4s1.1 0.4 1.5 0c1.3-1.2 1.9-1.9 3.1-3.1 0.4-0.4 0.4-1 0-1.4s-1.1-0.3-1.5 0z" fill="#010101"/>
    </g>
</svg>
