<?xml version="1.0" encoding="utf-8"?>
<!-- Generator: Adobe Illustrator 25.2.0, SVG Export Plug-In . SVG Version: 6.00 Build 0)  -->
<svg version="1.1" id="Layer_1" xmlns="http://www.w3.org/2000/svg" xmlns:xlink="http://www.w3.org/1999/xlink" x="0px" y="0px"
	 viewBox="0 0 1000 1000" style="enable-background:new 0 0 1000 1000;" xml:space="preserve">
<style type="text/css">
	.st0{fill:#FFFFFF;}
	.st1{fill:#3499CD;}
	.st2{fill:#010101;}
</style>
<g id="Ball--group">
	
		<ellipse id="Ball--bg" transform="matrix(0.7071 -0.7071 0.7071 0.7071 -236.4377 487.8127)" cx="470.6" cy="529.3" rx="133.5" ry="133.5"/>
	<circle id="Ball" class="st0" cx="470.6" cy="529.3" r="126.1"/>
	<g>
		<g id="Automattic_1_">
			<path class="st1" d="M417.7,532.9c-4.9-1-7.4-5.2-6.6-8.8c0-0.2,0.1-0.3,0.1-0.4c0.8-3.7,4.7-6.3,9.5-5.3s7.4,5,6.6,8.7
				c0,0.2-0.1,0.3-0.1,0.4C426.6,531.1,422.7,534,417.7,532.9z M424.8,526.6c0.5-2.6-0.9-5.4-4.5-6.1c-3.5-0.7-5.9,1.2-6.5,3.8
				c0,0.1,0,0.2-0.1,0.3c-0.6,2.6,0.9,5.4,4.4,6.2c3.5,0.7,6-1.3,6.5-3.9C424.7,526.8,424.7,526.7,424.8,526.6z"/>
			<path class="st2" d="M362.5,518.5c-0.3-1.5-0.5-2.3-0.8-3.8c-3.2-1-4.8-1.4-8-2.4c-1.1,1.1-1.7,1.6-2.8,2.7
				c-1.1-0.3-1.6-0.5-2.7-0.8c4.6-4.3,6.9-6.4,11.4-10.8c0.8,0.3,1.3,0.4,2.1,0.6c1.4,6.1,2.1,9.2,3.6,15.3
				C364.2,519,363.6,518.8,362.5,518.5z M359.8,506.2c-1.8,1.8-2.8,2.8-4.6,4.6c2.4,0.7,3.6,1.1,6,1.8
				C360.6,510,360.3,508.7,359.8,506.2z M376.8,523.1c-4.9-1.3-6.5-4.6-5.5-8c0.9-3.1,1.3-4.6,2.2-7.7c1,0.3,1.5,0.4,2.5,0.7
				c-0.9,3.1-1.3,4.7-2.2,7.8c-0.7,2.4,0.6,4.4,3.8,5.2c3.3,0.9,5-0.2,5.6-2.7c0.8-3.1,1.2-4.7,2-7.8c1,0.3,1.5,0.4,2.5,0.7
				c-0.8,3.1-1.2,4.7-2,7.8C384.9,522.3,382.1,524.5,376.8,523.1z M401.5,516.8c-1.1,4.5-1.6,6.8-2.7,11.3c-1-0.2-1.6-0.4-2.6-0.6
				c1.1-4.5,1.6-6.8,2.7-11.3c-2.4-0.6-3.6-0.9-6-1.5c0.2-0.8,0.3-1.3,0.5-2.1c5.8,1.4,8.7,2.1,14.4,3.4c-0.2,0.8-0.3,1.3-0.5,2.1
				C405.1,517.7,403.9,517.4,401.5,516.8L401.5,516.8z M449.5,538.3c0.7-4.4,1-6.5,1.7-10.9c-0.4,0.4-0.5,0.7-0.9,1.1
				c-2.9,3.5-4.4,5.2-7.4,8.7c-0.5-0.1-0.8-0.1-1.3-0.2c-1.7-4.3-2.5-6.4-4.1-10.7c-0.2-0.5-0.3-0.8-0.5-1.3
				c-0.8,4.3-1.2,6.5-2,10.8c-1-0.2-1.5-0.3-2.6-0.5c1-5.5,1.5-8.2,2.5-13.7c1.4,0.3,2.1,0.4,3.6,0.6c1.5,4.1,2.3,6.2,3.8,10.4
				c0.2,0.5,0.3,0.8,0.5,1.3c0.3-0.4,0.5-0.6,0.8-1c2.8-3.4,4.2-5.1,7-8.5c1.4,0.2,2.1,0.3,3.5,0.6c-0.9,5.5-1.3,8.3-2.1,13.8
				C451.1,538.5,450.6,538.4,449.5,538.3z M472.2,541.5c-0.6-1.5-0.9-2.2-1.4-3.7c-3.3-0.4-5-0.7-8.2-1.1c-0.9,1.3-1.4,1.9-2.3,3.2
				c-1.1-0.2-1.7-0.2-2.8-0.4c3.9-5.1,5.8-7.6,9.5-12.8c0.9,0.1,1.3,0.2,2.2,0.3c2.3,6,3.5,8.9,5.9,14.9
				C473.9,541.8,473.3,541.7,472.2,541.5z M467.6,529.6c-1.5,2.2-2.3,3.3-3.8,5.4c2.5,0.3,3.7,0.5,6.2,0.8
				C469,533.3,468.5,532.1,467.6,529.6z M487,531.4c-0.5,4.7-0.8,7.1-1.3,11.8c-1.1-0.1-1.6-0.2-2.7-0.3c0.5-4.7,0.8-7.1,1.3-11.8
				c-2.4-0.3-3.7-0.4-6.1-0.7c0.1-0.9,0.2-1.3,0.3-2.2c5.9,0.7,8.8,1,14.8,1.6c-0.1,0.9-0.1,1.3-0.2,2.2
				C490.7,531.7,489.4,531.6,487,531.4L487,531.4z M506.2,533.1c-0.4,4.7-0.6,7.1-0.9,11.9c-1.1-0.1-1.6-0.1-2.7-0.2
				c0.4-4.7,0.6-7.1,1-11.9c-2.4-0.2-3.7-0.3-6.1-0.5c0.1-0.9,0.1-1.3,0.2-2.2c5.9,0.5,8.9,0.8,14.8,1.2c-0.1,0.9-0.1,1.3-0.2,2.2
				C509.9,533.4,508.7,533.3,506.2,533.1z M518.1,545.9c0.3-5.1,0.5-7.7,0.8-12.8c1,0.1,1.5-0.5,1.5-1.3c0.4,0,0.7,0,1.1,0.1
				c-0.3,5.6-0.5,8.5-0.8,14.1C519.7,546,519.2,546,518.1,545.9z M542,536.8c-1.5-1.5-3.5-2.4-5.5-2.4c-3.7-0.1-6,2.4-6.1,5.1
				c0,0.1,0,0.2,0,0.3c-0.1,2.7,1.9,5.3,5.9,5.4c2.1,0,4.1-0.7,5.6-2.1c0.6,0.7,0.9,1,1.6,1.7c-2,1.8-4.7,2.7-7.5,2.6
				c-5.4-0.2-8.5-3.9-8.3-7.7c0-0.2,0-0.3,0-0.5c0.2-3.8,3.9-7.3,9-7.1c3,0.1,5.6,1.4,7,3C543,535.8,542.7,536.1,542,536.8
				L542,536.8z M420,523.4c-1.2,1.2-1.9,1.9-3.1,3.1c-0.4,0.4-0.4,1,0,1.4c0,0,0,0,0,0c0.4,0.4,1.1,0.4,1.5,0c0,0,0,0,0,0
				c1.3-1.2,1.9-1.9,3.1-3.1c0.4-0.4,0.4-1,0-1.4c0,0,0,0,0,0C421.1,523,420.4,523.1,420,523.4C420,523.4,420,523.4,420,523.4z"/>
		</g>
	</g>
</g>
</svg>
