<svg version="1.1" id="wapuugotchi_svg__item" viewBox="0 0 1e3 1e3" xmlns="http://www.w3.org/2000/svg">
  <g class="Body--group">
    <path d="M436.6 504c-4.5 5.1-10.5 7.9-17 7.9-9.1 0-18.5-5.5-24.4-14.4-7.8-11.6-15.5-21.2-22.3-27.9l-4.8-4.7c-2-2-1.1-5.3 1.6-6.1l6.5-1.7c3.2-.9 6.4-2.7 9.1-5.5 3-3 4.8-6.7 5.2-10.4V430c0-1.3 1.5-2.1 2.5-1.3l9.3 6.9c.7.5 1.7 1.1 2.9 1.7 10.2 4.9 31.7 27.4 35.7 46.7 2.1 10.1-1.2 16.5-4.3 20z"/>
    <path d="M402.1 444.1q-2.3-1-4.2-2.4c-.5 5.5-3 11-7.3 15.3-3.7 3.7-8.1 6.2-12.5 7.4 8.7 8.6 17 19.8 23.2 29.1 4.5 6.7 11.6 11.1 18.3 11.1 4.1 0 8.1-1.6 11.4-5.4 13-14.8-17.3-49.6-28.9-55.1z" fill="#33322f"/>
    <path d="M548 408c.9 1.5 1.6 3.5 2.2 6q.3 1.2.6 2.7c.5 3 .9 6.6 1 10.9.3 9.7-2.1 17.2-5.5 22.3-1.7 2.6-3.7 4.6-5.8 5.9-.2.2-.5.2-.8.2h-.3c-2.8-.5-5.8-.7-8.7-.7 0 0 2.4 6.5 7.5 8 .2.1.4.1.6.1.2.1.4.1.6.1 26.6 2.7 49.6 5.1 67.9 40.5.7 1.3 2 2 3.3 2 .6 0 1.2-.1 1.7-.4 1.8-.9 2.5-3.2 1.6-5-17.6-34.2-40.7-40.5-63.9-43.4.9-1 1.7-2.1 2.5-3.2 3.3-4.9 7.2-13.6 6.8-26.6q-.1-6.8-1.2-12c-.1-.3-.1-.6-.2-.9 6.3.7 13.5 1.1 21.5 1.1 19.8 0 40.6-2.3 52.2-4.3 8.5 29.7 18.9 83.9 8.4 150.4-9.4-7.7-24.1-14.8-44.1-21.1-30.5-9.6-70.8-16.8-119.9-21.3-16-1.5-30.8-2.2-44-2.2-15.2 0-34.3 1-48.1 5.2 1.5-4.3 3.7-9.5 5.5-13.8 7.4-17.6 17.3-41.2 18.2-67q1.5.2 3 .3c9.3 1.1 19.6 2.3 30.7 3.1l7.4.5c-.1-1.7 0-3.5.5-5.5.3-1-.4-1.9-1.4-2-17.4-1.1-33.6-3.2-45.9-4.6h-.2c-.9 0-1.6.7-1.6 1.6 1.3 44.5-28.9 84.7-25.3 97.1.2.7.8 1.1 1.5 1.1.3 0 .6-.1.9-.2 8.2-5.1 26.3-8.6 54.7-8.6 12.5 0 26.9.7 43.3 2.2 104 9.6 155.8 30.3 167 48.4.3.5.8.8 1.4.8.7 0 1.4-.5 1.6-1.3 13-68 4.6-129.1-8.1-170.5-.2-.7-.8-1.1-1.5-1.1h-.4c-9 2.1-33.1 5.2-55.9 5.2-10.8 0-21.4-.7-29.8-2.6-1.7-.4-3.4.8-3.8 1.7-.2 1.2 2.3.9 2.3.9z"/>
    <path d="m448.9 445.6-7.4-.5c-11.1-.8-21.4-2-30.7-3.1q-1.5-.2-3-.3c-.9 25.8-10.8 49.4-18.2 67-1.8 4.3-4 9.5-5.5 13.8 13.8-4.2 32.9-5.2 48.1-5.2 13.2 0 28 .7 44 2.2 49.1 4.5 89.4 11.7 119.9 21.3 20 6.3 34.7 13.4 44.1 21.1 10.5-66.5.1-120.7-8.4-150.4-11.6 2-32.4 4.3-52.2 4.3-8 0-15.2-.4-21.5-1.1.1.3.1.6.2.9q.9 5.3 1.2 12c.4 13-3.5 21.7-6.8 26.6-.8 1.2-1.6 2.2-2.5 3.2 23.2 2.9 46.3 9.2 63.9 43.4.9 1.8.2 4-1.6 5-.5.3-1.1.4-1.7.4-1.3 0-2.6-.7-3.3-2-18.3-35.4-41.3-37.8-67.9-40.5-.2 0-.4-.1-.6-.1-.2 0-.4 0-.6-.1-5.1-1.5-7.5-7.8-7.5-8-10.6 0-22.1 2.5-32.5 4.9-10.5 2.3-19.6 4.3-26.7 3.6-10.8-1.2-19.4-6.9-21.9-14.6-.4-1.1-.6-2.4-.7-3.9-.2-.1-.2 0-.2.1z" fill="#33322f"/>
  </g>
</svg>
