<?xml version="1.0" encoding="utf-8"?>
<!-- Generator: Adobe Illustrator 25.2.0, SVG Export Plug-In . SVG Version: 6.00 Build 0)  -->
<svg version="1.1" id="Layer_1" xmlns="http://www.w3.org/2000/svg" xmlns:xlink="http://www.w3.org/1999/xlink" x="0px" y="0px"
	 viewBox="0 0 1000 1000" style="enable-background:new 0 0 1000 1000;" xml:space="preserve">
<style type="text/css">
	.st0{fill:#2F3641;}
	.st1{clip-path:url(#Ball_3_);}
	.st2{fill:#FFFFFF;}
	.st3{fill:#FC781F;}
</style>
<g id="Ball--group">
	
		<ellipse id="Ball-bg" transform="matrix(0.7071 -0.7071 0.7071 0.7071 -236.4279 487.7786)" cx="470.6" cy="529.3" rx="133.5" ry="133.5"/>
	<circle id="Ball_1_" class="st0" cx="470.6" cy="529.3" r="126.1"/>
	<g>
		<defs>
			<circle id="Ball_2_" cx="470.6" cy="529.3" r="126.1"/>
		</defs>
		<clipPath id="Ball_3_">
			<use xlink:href="#Ball_2_"  style="overflow:visible;"/>
		</clipPath>
		<g class="st1">
			<g>
				<g>
					<path class="st2" d="M395.3,496.7c-0.4-0.9-1.1-1.7-2-2.4c-0.9-0.7-2.1-1.4-3.6-1.9c-2.5-0.9-3.8-1.3-6.3-2.2
						c-0.5-0.2-1-0.2-1.4,0.1c-0.4,0.2-0.7,0.6-0.8,1.1c-1.6,6.6-2.4,9.9-4,16.5c-0.1,0.5-0.1,1,0.2,1.5c0.2,0.5,0.6,0.8,1.1,1
						c0.5,0.2,0.9,0.2,1.4,0c0.4-0.2,0.7-0.6,0.8-1.1c0.5-2.1,0.8-3.1,1.3-5.2c1.7,0.7,2.6,1,4.3,1.6c1.4,0.5,2.7,0.8,3.8,0.8
						c1.1,0,2-0.2,2.8-0.7c0.8-0.4,1.4-1,1.9-1.7c0.5-0.7,0.8-1.4,1-2.2s0.3-1.6,0.2-2.5C396,498.5,395.7,497.6,395.3,496.7z
						 M392.2,500.6c-0.1,0.5-0.4,1-0.7,1.4c-0.3,0.4-0.9,0.6-1.5,0.7c-0.7,0.1-1.7-0.1-3-0.6c-1.6-0.6-2.5-0.9-4.1-1.5
						c0.6-2.5,0.9-3.7,1.6-6.2c1.7,0.6,2.5,0.9,4.1,1.5c1.3,0.5,2.2,1,2.7,1.5c0.5,0.5,0.8,1.1,0.9,1.6
						C392.4,499.5,392.3,500.1,392.2,500.6z"/>
					<path class="st2" d="M408.3,505.4c-0.9-1.1-2.2-1.9-3.7-2.4c-1.5-0.5-2.9-0.6-4.2-0.4c-1.3,0.3-2.5,0.9-3.4,1.8
						c-0.9,0.9-1.6,2.2-2,3.7c-0.4,1.5-0.5,3-0.2,4.4c0.3,1.4,0.9,2.7,1.8,3.8c0.9,1.1,2.1,1.9,3.6,2.5c1.5,0.5,2.8,0.7,4.1,0.4
						c1.3-0.3,2.4-0.9,3.4-1.9c1-1,1.7-2.2,2.1-3.8c0.5-1.6,0.6-3.1,0.3-4.5C409.8,507.7,409.2,506.4,408.3,505.4z M406.2,512.3
						c-0.3,1.1-0.8,1.9-1.4,2.4c-0.6,0.5-1.2,0.8-1.9,0.9c-1.4,0.2-2.6-0.3-3.6-1.3c-0.5-0.5-0.9-1.1-1.1-1.9
						c-0.2-0.8-0.2-1.8,0.1-2.9c0.3-1.1,0.7-1.9,1.3-2.4c0.6-0.5,1.2-0.8,1.9-0.8c0.7-0.1,1.4,0,2,0.2c0.6,0.2,1.2,0.6,1.7,1.1
						c0.5,0.5,0.9,1.1,1.1,1.9C406.6,510.2,406.6,511.2,406.2,512.3z"/>
					<path class="st2" d="M420.7,516.6c-0.6-0.6-1.2-1.1-1.9-1.5c-0.6-0.4-1.2-0.8-1.8-1.2c-0.5-0.3-0.9-0.7-1.2-1
						c-0.2-0.2-0.2-0.5-0.1-0.7c0.1-0.2,0.2-0.5,0.8-0.7c0.5-0.2,1.3-0.1,2.1,0.2c0.6,0.2,1.1,0.4,1.5,0.7c0.5,0.3,0.9,0.5,1.2,0.8
						c0.1,0.1,0.2,0.1,0.2,0.1c0.1,0,0.2,0.1,0.3,0.1c0.5,0.2,0.9,0.1,1.3-0.1c0.4-0.2,0.7-0.6,0.8-1c0.1-0.3,0.1-0.7,0-1.1
						c-0.1-0.4-0.3-0.7-0.7-1c-0.5-0.4-1.1-0.8-1.8-1.2c-0.7-0.4-1.4-0.7-2.2-1c-1.9-0.6-3.5-0.7-4.8-0.1c-1.3,0.6-2.2,1.6-2.6,3.1
						c-0.3,1-0.3,1.9,0,2.7c0.3,0.8,0.7,1.4,1.3,2c0.6,0.6,1.2,1.1,1.8,1.5c0.6,0.4,1.2,0.8,1.8,1.2c0.5,0.3,0.9,0.7,1.2,1
						c0.2,0.2,0.2,0.4,0.2,0.5c-0.1,0.4-0.4,0.7-0.8,0.8c-0.3,0.1-0.9,0.1-2.1-0.3c-0.7-0.3-1.3-0.6-1.8-0.9c-0.5-0.4-1-0.7-1.4-1.1
						c-0.6-0.6-1.4-0.7-2-0.3c-0.4,0.2-0.6,0.6-0.8,1c-0.2,0.6-0.1,1.2,0.3,1.7c0,0,0,0,0,0.1c0.6,0.7,1.3,1.3,2,1.8
						c0.8,0.5,1.7,1,2.7,1.4c1.8,0.7,3.4,0.7,4.7,0.1c1.3-0.6,2.1-1.6,2.5-2.9c0.3-1.1,0.4-2,0.1-2.8
						C421.7,517.9,421.3,517.2,420.7,516.6z"/>
					<path class="st2" d="M429.8,525.6c-0.1,0-0.3,0-0.8-0.2c-0.2-0.1-0.4-0.2-0.6-0.3c-0.1-0.1-0.2-0.2-0.3-0.4
						c0-0.1-0.1-0.3,0.1-0.9c1-3.2,1.6-4.8,2.6-8c1,0.3,1.5,0.5,2.5,0.8c0.5,0.2,0.9,0.1,1.3-0.1c0.4-0.2,0.7-0.6,0.9-1.1
						c0.2-0.5,0.1-1-0.1-1.4c-0.2-0.4-0.6-0.7-1-0.9c-1-0.3-1.5-0.5-2.5-0.8c0.2-0.7,0.3-1,0.5-1.7c0.1-0.3,0.1-0.6,0-0.9
						c-0.2-0.5-0.9-0.8-1.4-0.6c-0.1,0.1-0.2,0.1-0.3,0.1c-2,1-3,1.5-4.9,2.6c-0.5,0.2-0.6,0.5-0.7,0.8c-0.2,0.7,0.1,1.3,0.7,1.5
						c0.5,0.2,0.8,0.3,1.4,0.5c-1,3.3-1.6,4.9-2.6,8.2c-0.3,1-0.4,1.8-0.2,2.6c0.1,0.7,0.4,1.3,0.8,1.8c0.4,0.4,0.8,0.8,1.3,1
						c0.4,0.2,0.8,0.4,1.2,0.5c0.5,0.2,0.9,0.3,1.4,0.3c0.4,0,0.9,0,1.3,0c0.9-0.2,1.3-0.8,1.4-1.2c0.2-0.5,0.1-0.9-0.1-1.4
						C431.3,525.8,430.6,525.6,429.8,525.6z"/>
					<path class="st2" d="M455.4,525.6c-0.6-0.7-1.3-1.3-2-1.8c-0.7-0.5-1.5-1-2.3-1.5c-0.7-0.5-1.4-0.9-2-1.4
						c-0.5-0.4-0.9-0.9-1.2-1.3c-0.2-0.4-0.2-0.9,0-1.4c0.3-0.9,0.9-1.4,1.8-1.6c1-0.2,2.2-0.2,3.5,0.2c0.8,0.2,1.6,0.5,2.2,0.9
						c0.7,0.4,1.3,0.7,1.8,1.2c0,0,0.1,0.1,0.1,0.1c0.1,0.1,0.3,0.2,0.4,0.2c0.5,0.2,1,0.1,1.5-0.3c0.4-0.3,0.7-0.7,0.8-1.1
						c0.2-0.5,0.2-1,0-1.3c-0.1-0.3-0.3-0.6-0.6-0.8c-0.7-0.5-1.5-1-2.4-1.5c-0.9-0.5-1.9-0.9-3-1.2c-1.6-0.5-3.2-0.6-4.5-0.4
						c-1.4,0.2-2.5,0.8-3.5,1.6c-0.9,0.8-1.6,1.8-2,3c-0.4,1.1-0.5,2.2-0.2,3.1c0.2,0.9,0.6,1.7,1.2,2.4c0.6,0.7,1.3,1.3,2,1.9
						c0.7,0.5,1.5,1,2.2,1.5c0.7,0.5,1.4,0.9,2,1.4c0.5,0.4,0.9,0.9,1.2,1.3c0.2,0.4,0.2,0.7,0.1,1.2c-0.2,0.7-0.6,1.2-1,1.5
						c-0.5,0.3-1.1,0.4-1.7,0.4c-0.7,0-1.5-0.2-2.4-0.5c-1.1-0.4-2-0.8-2.8-1.3c-0.8-0.5-1.4-1-1.9-1.5c-0.2-0.2-0.4-0.3-0.7-0.4
						c-0.5-0.2-1-0.1-1.4,0.2c-0.4,0.3-0.7,0.6-0.9,1.1c-0.1,0.4-0.1,0.8,0,1.2c0.1,0.4,0.3,0.7,0.5,0.9c0.7,0.7,1.5,1.3,2.5,2
						c1,0.7,2.2,1.2,3.6,1.7c1.5,0.5,2.9,0.7,4.1,0.5c1.3-0.2,2.5-0.6,3.4-1.4c1-0.8,1.7-1.8,2.1-3c0.4-1.2,0.6-2.3,0.4-3.3
						C456.5,527.2,456.1,526.4,455.4,525.6z"/>
					<path class="st2" d="M463.3,536.6c-0.1,0-0.3,0-0.8-0.1c-0.2-0.1-0.4-0.2-0.6-0.3c-0.1-0.1-0.2-0.2-0.3-0.4
						c0-0.1-0.1-0.3,0.1-0.9c1.2-3.3,1.8-5,3.1-8.4c1,0.3,1.5,0.5,2.5,0.8c0.5,0.1,0.9,0.1,1.4-0.2c0.4-0.3,0.8-0.6,0.9-1.1
						c0.2-0.5,0.2-1,0-1.4c-0.2-0.4-0.5-0.7-1-0.9c-1-0.3-1.5-0.5-2.6-0.8c0.3-0.7,0.4-1.1,0.6-1.8c0.1-0.3,0.1-0.6,0-0.9
						c-0.2-0.5-0.8-0.8-1.4-0.6c-0.1,0.1-0.2,0.1-0.3,0.1c-2.1,1.1-3.1,1.7-5.2,2.8c-0.5,0.2-0.7,0.6-0.8,0.8
						c-0.3,0.7,0,1.3,0.7,1.5c0.6,0.2,0.8,0.3,1.4,0.4c-1.2,3.4-1.9,5.1-3.1,8.6c-0.4,1-0.5,1.9-0.4,2.6c0.1,0.7,0.4,1.4,0.8,1.8
						c0.4,0.4,0.8,0.8,1.3,1c0.4,0.2,0.8,0.4,1.2,0.5c0.5,0.2,0.9,0.2,1.4,0.3c0.4,0,0.9,0,1.3-0.1c0.9-0.2,1.3-0.8,1.5-1.3
						c0.2-0.5,0.2-1,0-1.4C464.7,536.8,464,536.6,463.3,536.6z"/>
					<path class="st2" d="M481.6,528.3c-0.7-0.9-1.8-1.6-3.2-2c-1-0.3-2-0.4-2.9-0.5c-0.9,0-1.7,0-2.5,0.2c-0.8,0.1-1.4,0.6-1.7,1.4
						c-0.2,0.5-0.2,1,0,1.4c0.2,0.4,0.5,0.7,0.9,0.8c0.1,0,0.3,0.1,0.6,0.1c0.6,0,1.2,0,1.8,0c0.6,0,1.3,0.1,2,0.3
						c1.1,0.3,1.8,0.8,2.1,1.4c0.3,0.5,0.2,1.3-0.1,2.2c-1.1-0.3-1.6-0.5-2.7-0.8c-2.3-0.7-4.2-0.7-5.7,0c-1.6,0.7-2.6,1.8-3.2,3.4
						c-0.4,1.1-0.5,2.1-0.3,3c0.2,0.9,0.6,1.7,1.2,2.3c0.6,0.6,1.3,1.1,2.2,1.4c1.4,0.4,2.6,0.5,3.7,0.3c0.5-0.1,1-0.3,1.5-0.5
						c0,0.4,0,0.7,0.1,1c0.4,1,1.5,1.3,2.5,0.8c0.5-0.3,0.9-0.7,1.1-1.3c1.3-3.4,2-5.2,3.3-8.6c0.4-1.1,0.6-2.2,0.5-3.3
						C482.7,530.2,482.3,529.2,481.6,528.3z M477.2,537.1c-0.3,0.7-0.4,1-0.6,1.7c-0.6,0.3-1.2,0.6-2,0.8c-0.8,0.2-1.6,0.2-2.4,0
						c-1.2-0.4-1.5-0.8-1.7-1.1c-0.2-0.5-0.2-0.9,0-1.4c0.2-0.6,0.6-0.9,1.2-1c0.8-0.1,1.8,0,3,0.4
						C475.8,536.7,476.3,536.8,477.2,537.1z"/>
					<path class="st2" d="M488.6,544.4c-0.1,0-0.3,0-0.8-0.1c-0.2-0.1-0.4-0.1-0.6-0.3c-0.1-0.1-0.2-0.2-0.3-0.4
						c0-0.1-0.1-0.3,0.2-0.9c1.4-3.5,2-5.2,3.4-8.6c1,0.3,1.5,0.4,2.6,0.7c0.5,0.1,1,0.1,1.4-0.2c0.4-0.3,0.8-0.7,1-1.2
						c0.2-0.5,0.2-1,0-1.4c-0.2-0.4-0.5-0.7-1-0.9c-1-0.3-1.5-0.4-2.6-0.7c0.3-0.7,0.4-1.1,0.7-1.8c0.1-0.3,0.1-0.6,0-0.9
						c-0.2-0.6-0.8-0.8-1.4-0.5c-0.1,0.1-0.3,0.1-0.3,0.2c-2.1,1.2-3.2,1.8-5.3,3c-0.5,0.2-0.7,0.6-0.8,0.9c-0.3,0.7,0,1.3,0.6,1.5
						c0.6,0.2,0.8,0.2,1.4,0.4c-1.4,3.5-2.1,5.3-3.4,8.8c-0.4,1-0.6,2-0.5,2.7c0.1,0.8,0.3,1.4,0.7,1.8c0.4,0.4,0.8,0.8,1.3,1
						c0.4,0.2,0.8,0.4,1.2,0.5c0.5,0.1,0.9,0.2,1.4,0.2c0.4,0,0.9,0,1.4-0.1c0.9-0.2,1.4-0.9,1.6-1.4c0.2-0.5,0.2-1,0-1.4
						C490.1,544.5,489.4,544.3,488.6,544.4z"/>
					<path class="st2" d="M508.5,535.3c-0.5,0.3-0.9,0.8-1.2,1.3c-1.5,3.7-2.3,5.5-3.8,9.1c-0.8,0.5-1.6,1-2.4,1.3
						c-0.9,0.4-1.7,0.4-2.6,0.2c-0.9-0.3-1.4-0.7-1.5-1.3c-0.2-0.7,0-1.5,0.4-2.5c1.4-3.4,2.1-5.1,3.4-8.5c0.2-0.6,0.2-1.1,0.1-1.6
						c-0.4-1-1.6-1.3-2.6-0.7c-0.5,0.3-0.9,0.7-1.1,1.3c-1.4,3.5-2.1,5.3-3.5,8.8c-0.5,1.2-0.7,2.4-0.7,3.5c0,1.2,0.3,2.2,0.9,3
						c0.6,0.9,1.4,1.5,2.6,1.8c1.3,0.4,2.6,0.4,3.7,0c0.6-0.2,1.1-0.4,1.6-0.7c-0.2,0.5-0.1,1,0,1.4c0.4,1,1.6,1.3,2.6,0.7
						c0.5-0.3,0.9-0.8,1.1-1.3c2.2-5.4,3.4-8.1,5.6-13.5c0.2-0.6,0.3-1.1,0.1-1.6C510.7,535,509.5,534.7,508.5,535.3z"/>
					<path class="st2" d="M521.4,548.8c-0.2-0.8-0.5-1.5-1.1-2.1c-0.5-0.5-1.1-1-1.8-1.4c-0.6-0.4-1.2-0.7-1.8-1.1
						c-0.5-0.3-0.9-0.6-1.1-1c-0.2-0.2-0.2-0.5,0-0.8c0.1-0.3,0.3-0.6,1-0.9c0.6-0.2,1.4-0.2,2.3,0c0.6,0.1,1.1,0.3,1.6,0.6
						c0.5,0.2,0.9,0.5,1.2,0.7c0.1,0.1,0.1,0.1,0.2,0.1c0.1,0,0.2,0.1,0.3,0.1c0.5,0.1,1,0,1.5-0.3c0.5-0.3,0.8-0.7,1.1-1.2
						c0.2-0.4,0.2-0.8,0.2-1.2c-0.1-0.4-0.3-0.8-0.6-1c-0.5-0.4-1.1-0.8-1.7-1.1c-0.6-0.3-1.4-0.6-2.2-0.8c-2-0.5-3.7-0.3-5.2,0.5
						c-1.5,0.8-2.6,2-3.2,3.6c-0.5,1.1-0.6,2.1-0.4,2.9c0.2,0.8,0.5,1.5,1.1,2.1c0.5,0.5,1.1,1,1.7,1.4c0.6,0.4,1.2,0.8,1.8,1.1
						c0.5,0.3,0.9,0.6,1.2,1c0.2,0.2,0.2,0.4,0.1,0.6c-0.2,0.5-0.5,0.8-1,1c-0.4,0.1-1,0.2-2.2-0.1c-0.8-0.2-1.4-0.5-1.8-0.8
						c-0.5-0.3-0.9-0.7-1.3-1.1c-0.6-0.5-1.4-0.6-2.1-0.1c-0.5,0.3-0.8,0.7-1,1.2c-0.3,0.7-0.3,1.3,0,1.8c0,0,0,0,0,0.1
						c0.5,0.7,1.2,1.3,1.9,1.8c0.7,0.5,1.6,0.9,2.7,1.2c1.9,0.5,3.6,0.4,5-0.4c1.5-0.8,2.5-1.9,3.2-3.4
						C521.4,550.7,521.6,549.7,521.4,548.8z"/>
				</g>
				<path class="st3" d="M353.1,505c-3.2-1.4-6.1-5.4-5.1-10.1c0.4-2.2,1.8-3.8,3.6-4.5c1.9-0.7,4.1-0.4,6.1,0.9
					c0.6,0.4,0.8,1.2,0.5,1.8c-0.3,0.6-1,0.7-1.5,0.4c-1.3-0.9-2.8-1.1-4.1-0.6c-1.3,0.5-2.1,1.6-2.4,3c-0.5,2.3,0.4,5.4,3.5,6.8
					c2.1,0.9,4.8,0.5,5.7-3.5c1.2-5.4,1.8-8.1,3-13.4c0.7-3.1,2.3-4.5,3.5-5.1c1.5-0.8,3.4-0.9,5.3-0.2c3.4,1.2,6.4,5.1,5.2,10
					c-0.6,2.3-2,4-4,4.8c-2,0.8-4.2,0.5-6.2-0.8c-0.6-0.4-0.8-1.2-0.5-1.8c0.3-0.6,1-0.8,1.6-0.4c1.3,0.9,2.8,1.1,4.2,0.5
					c1.3-0.5,2.3-1.7,2.6-3.2c0.6-2.4-0.3-5.5-3.5-6.7c-2.2-0.8-5-0.3-6,3.7c-1.2,5.4-1.8,8-3,13.4
					C360.3,505.5,356.3,506.4,353.1,505z"/>
			</g>
		</g>
	</g>
</g>
</svg>
