<svg version="1.1" id="wapuugotchi_svg__item" viewBox="0 0 1e3 1e3" xmlns="http://www.w3.org/2000/svg">
	<g class="Body--group">
		<circle transform="rotate(-45.001 470.58 529.29)" cx="470.6" cy="529.3" r="133.5"/>
		<circle cx="470.6" cy="529.3" r="126.1" fill="#2f3641"/>
		<path d="M395.3 496.7c-.4-.9-1.1-1.7-2-2.4-.9-.7-2.1-1.4-3.6-1.9-2.5-.9-3.8-1.3-6.3-2.2-.5-.2-1-.2-1.4.1-.4.2-.7.6-.8 1.1l-4 16.5c-.1.5-.1 1 .2 1.5.2.5.6.8 1.1 1 .5.2.9.2 1.4 0 .4-.2.7-.6.8-1.1.5-2.1.8-3.1 1.3-5.2 1.7.7 2.6 1 4.3 1.6 1.4.5 2.7.8 3.8.8 1.1 0 2-.2 2.8-.7.8-.4 1.4-1 1.9-1.7s.8-1.4 1-2.2.3-1.6.2-2.5c0-.9-.3-1.8-.7-2.7zm-3.1 3.9c-.1.5-.4 1-.7 1.4-.3.4-.9.6-1.5.7-.7.1-1.7-.1-3-.6-1.6-.6-2.5-.9-4.1-1.5.6-2.5.9-3.7 1.6-6.2 1.7.6 2.5.9 4.1 1.5 1.3.5 2.2 1 2.7 1.5s.8 1.1.9 1.6c.2.5.1 1.1 0 1.6zm16.1 4.8c-.9-1.1-2.2-1.9-3.7-2.4s-2.9-.6-4.2-.4c-1.3.3-2.5.9-3.4 1.8-.9.9-1.6 2.2-2 3.7-.4 1.5-.5 3-.2 4.4.3 1.4.9 2.7 1.8 3.8.9 1.1 2.1 1.9 3.6 2.5 1.5.5 2.8.7 4.1.4 1.3-.3 2.4-.9 3.4-1.9 1-1 1.7-2.2 2.1-3.8.5-1.6.6-3.1.3-4.5-.3-1.3-.9-2.6-1.8-3.6zm-2.1 6.9c-.3 1.1-.8 1.9-1.4 2.4-.6.5-1.2.8-1.9.9-1.4.2-2.6-.3-3.6-1.3-.5-.5-.9-1.1-1.1-1.9-.2-.8-.2-1.8.1-2.9.3-1.1.7-1.9 1.3-2.4.6-.5 1.2-.8 1.9-.8.7-.1 1.4 0 2 .2.6.2 1.2.6 1.7 1.1.5.5.9 1.1 1.1 1.9.3.7.3 1.7-.1 2.8zm14.5 4.3c-.6-.6-1.2-1.1-1.9-1.5l-1.8-1.2c-.5-.3-.9-.7-1.2-1-.2-.2-.2-.5-.1-.7.1-.2.2-.5.8-.7.5-.2 1.3-.1 2.1.2.6.2 1.1.4 1.5.7.5.3.9.5 1.2.8.1.1.2.1.2.1.1 0 .2.1.3.1.5.2.9.1 1.3-.1s.7-.6.8-1c.1-.3.1-.7 0-1.1-.1-.4-.3-.7-.7-1-.5-.4-1.1-.8-1.8-1.2-.7-.4-1.4-.7-2.2-1-1.9-.6-3.5-.7-4.8-.1-1.3.6-2.2 1.6-2.6 3.1-.3 1-.3 1.9 0 2.7.3.8.7 1.4 1.3 2 .6.6 1.2 1.1 1.8 1.5l1.8 1.2c.5.3.9.7 1.2 1 .2.2.2.4.2.5-.1.4-.4.7-.8.8-.3.1-.9.1-2.1-.3-.7-.3-1.3-.6-1.8-.9-.5-.4-1-.7-1.4-1.1-.6-.6-1.4-.7-2-.3-.4.2-.6.6-.8 1-.2.6-.1 1.2.3 1.7v.1c.6.7 1.3 1.3 2 1.8.8.5 1.7 1 2.7 1.4 1.8.7 3.4.7 4.7.1 1.3-.6 2.1-1.6 2.5-2.9.3-1.1.4-2 .1-2.8.2-.6-.2-1.3-.8-1.9zm9.1 9c-.1 0-.3 0-.8-.2l-.6-.3c-.1-.1-.2-.2-.3-.4 0-.1-.1-.3.1-.9 1-3.2 1.6-4.8 2.6-8 1 .3 1.5.5 2.5.8.5.2.9.1 1.3-.1s.7-.6.9-1.1c.2-.5.1-1-.1-1.4-.2-.4-.6-.7-1-.9-1-.3-1.5-.5-2.5-.8.2-.7.3-1 .5-1.7.1-.3.1-.6 0-.9-.2-.5-.9-.8-1.4-.6-.1.1-.2.1-.3.1-2 1-3 1.5-4.9 2.6-.5.2-.6.5-.7.8-.2.7.1 1.3.7 1.5.5.2.8.3 1.4.5-1 3.3-1.6 4.9-2.6 8.2-.3 1-.4 1.8-.2 2.6.1.7.4 1.3.8 1.8.4.4.8.8 1.3 1 .4.2.8.4 1.2.5.5.2.9.3 1.4.3h1.3c.9-.2 1.3-.8 1.4-1.2.2-.5.1-.9-.1-1.4-.4-.6-1.1-.8-1.9-.8zm25.6 0c-.6-.7-1.3-1.3-2-1.8s-1.5-1-2.3-1.5c-.7-.5-1.4-.9-2-1.4-.5-.4-.9-.9-1.2-1.3-.2-.4-.2-.9 0-1.4.3-.9.9-1.4 1.8-1.6 1-.2 2.2-.2 3.5.2.8.2 1.6.5 2.2.9.7.4 1.3.7 1.8 1.2l.1.1c.1.1.3.2.4.2.5.2 1 .1 1.5-.3.4-.3.7-.7.8-1.1.2-.5.2-1 0-1.3-.1-.3-.3-.6-.6-.8-.7-.5-1.5-1-2.4-1.5-.9-.5-1.9-.9-3-1.2-1.6-.5-3.2-.6-4.5-.4-1.4.2-2.5.8-3.5 1.6-.9.8-1.6 1.8-2 3-.4 1.1-.5 2.2-.2 3.1.2.9.6 1.7 1.2 2.4s1.3 1.3 2 1.9c.7.5 1.5 1 2.2 1.5.7.5 1.4.9 2 1.4.5.4.9.9 1.2 1.3.2.4.2.7.1 1.2-.2.7-.6 1.2-1 1.5-.5.3-1.1.4-1.7.4-.7 0-1.5-.2-2.4-.5-1.1-.4-2-.8-2.8-1.3-.8-.5-1.4-1-1.9-1.5-.2-.2-.4-.3-.7-.4-.5-.2-1-.1-1.4.2-.4.3-.7.6-.9 1.1-.1.4-.1.8 0 1.2.1.4.3.7.5.9.7.7 1.5 1.3 2.5 2s2.2 1.2 3.6 1.7c1.5.5 2.9.7 4.1.5 1.3-.2 2.5-.6 3.4-1.4 1-.8 1.7-1.8 2.1-3 .4-1.2.6-2.3.4-3.3.2-.9-.2-1.7-.9-2.5zm7.9 11c-.1 0-.3 0-.8-.1l-.6-.3c-.1-.1-.2-.2-.3-.4 0-.1-.1-.3.1-.9 1.2-3.3 1.8-5 3.1-8.4 1 .3 1.5.5 2.5.8.5.1.9.1 1.4-.2.4-.3.8-.6.9-1.1.2-.5.2-1 0-1.4-.2-.4-.5-.7-1-.9-1-.3-1.5-.5-2.6-.8.3-.7.4-1.1.6-1.8.1-.3.1-.6 0-.9-.2-.5-.8-.8-1.4-.6-.1.1-.2.1-.3.1-2.1 1.1-3.1 1.7-5.2 2.8-.5.2-.7.6-.8.8-.3.7 0 1.3.7 1.5.6.2.8.3 1.4.4-1.2 3.4-1.9 5.1-3.1 8.6-.4 1-.5 1.9-.4 2.6.1.7.4 1.4.8 1.8.4.4.8.8 1.3 1 .4.2.8.4 1.2.5.5.2.9.2 1.4.3.4 0 .9 0 1.3-.1.9-.2 1.3-.8 1.5-1.3.2-.5.2-1 0-1.4-.3-.4-1-.6-1.7-.6zm18.3-8.3c-.7-.9-1.8-1.6-3.2-2-1-.3-2-.4-2.9-.5-.9 0-1.7 0-2.5.2-.8.1-1.4.6-1.7 1.4-.2.5-.2 1 0 1.4.2.4.5.7.9.8.1 0 .3.1.6.1h1.8c.6 0 1.3.1 2 .3 1.1.3 1.8.8 2.1 1.4.3.5.2 1.3-.1 2.2-1.1-.3-1.6-.5-2.7-.8-2.3-.7-4.2-.7-5.7 0-1.6.7-2.6 1.8-3.2 3.4-.4 1.1-.5 2.1-.3 3 .2.9.6 1.7 1.2 2.3.6.6 1.3 1.1 2.2 1.4 1.4.4 2.6.5 3.7.3.5-.1 1-.3 1.5-.5 0 .4 0 .7.1 1 .4 1 1.5 1.3 2.5.8.5-.3.9-.7 1.1-1.3 1.3-3.4 2-5.2 3.3-8.6.4-1.1.6-2.2.5-3.3-.1-1.1-.5-2.1-1.2-3zm-4.4 8.8c-.3.7-.4 1-.6 1.7-.6.3-1.2.6-2 .8-.8.2-1.6.2-2.4 0-1.2-.4-1.5-.8-1.7-1.1-.2-.5-.2-.9 0-1.4.2-.6.6-.9 1.2-1 .8-.1 1.8 0 3 .4 1.1.2 1.6.3 2.5.6zm11.4 7.3c-.1 0-.3 0-.8-.1-.2-.1-.4-.1-.6-.3-.1-.1-.2-.2-.3-.4 0-.1-.1-.3.2-.9 1.4-3.5 2-5.2 3.4-8.6 1 .3 1.5.4 2.6.7.5.1 1 .1 1.4-.2.4-.3.8-.7 1-1.2.2-.5.2-1 0-1.4-.2-.4-.5-.7-1-.9-1-.3-1.5-.4-2.6-.7.3-.7.4-1.1.7-1.8.1-.3.1-.6 0-.9-.2-.6-.8-.8-1.4-.5-.1.1-.3.1-.3.2-2.1 1.2-3.2 1.8-5.3 3-.5.2-.7.6-.8.9-.3.7 0 1.3.6 1.5.6.2.8.2 1.4.4-1.4 3.5-2.1 5.3-3.4 8.8-.4 1-.6 2-.5 2.7.1.8.3 1.4.7 1.8.4.4.8.8 1.3 1 .4.2.8.4 1.2.5.5.1.9.2 1.4.2.4 0 .9 0 1.4-.1.9-.2 1.4-.9 1.6-1.4.2-.5.2-1 0-1.4-.4-.8-1.1-1-1.9-.9zm19.9-9.1c-.5.3-.9.8-1.2 1.3-1.5 3.7-2.3 5.5-3.8 9.1-.8.5-1.6 1-2.4 1.3-.9.4-1.7.4-2.6.2-.9-.3-1.4-.7-1.5-1.3-.2-.7 0-1.5.4-2.5 1.4-3.4 2.1-5.1 3.4-8.5.2-.6.2-1.1.1-1.6-.4-1-1.6-1.3-2.6-.7-.5.3-.9.7-1.1 1.3-1.4 3.5-2.1 5.3-3.5 8.8-.5 1.2-.7 2.4-.7 3.5 0 1.2.3 2.2.9 3 .6.9 1.4 1.5 2.6 1.8 1.3.4 2.6.4 3.7 0 .6-.2 1.1-.4 1.6-.7-.2.5-.1 1 0 1.4.4 1 1.6 1.3 2.6.7.5-.3.9-.8 1.1-1.3 2.2-5.4 3.4-8.1 5.6-13.5.2-.6.3-1.1.1-1.6-.5-1-1.7-1.3-2.7-.7zm12.9 13.5c-.2-.8-.5-1.5-1.1-2.1-.5-.5-1.1-1-1.8-1.4-.6-.4-1.2-.7-1.8-1.1-.5-.3-.9-.6-1.1-1-.2-.2-.2-.5 0-.8.1-.3.3-.6 1-.9.6-.2 1.4-.2 2.3 0 .6.1 1.1.3 1.6.6.5.2.9.5 1.2.7.1.1.1.1.2.1s.2.1.3.1c.5.1 1 0 1.5-.3s.8-.7 1.1-1.2c.2-.4.2-.8.2-1.2-.1-.4-.3-.8-.6-1-.5-.4-1.1-.8-1.7-1.1-.6-.3-1.4-.6-2.2-.8-2-.5-3.7-.3-5.2.5s-2.6 2-3.2 3.6c-.5 1.1-.6 2.1-.4 2.9.2.8.5 1.5 1.1 2.1.5.5 1.1 1 1.7 1.4.6.4 1.2.8 1.8 1.1.5.3.9.6 1.2 1 .2.2.2.4.1.6-.2.5-.5.8-1 1-.4.1-1 .2-2.2-.1-.8-.2-1.4-.5-1.8-.8-.5-.3-.9-.7-1.3-1.1-.6-.5-1.4-.6-2.1-.1-.5.3-.8.7-1 1.2-.3.7-.3 1.3 0 1.8v.1c.5.7 1.2 1.3 1.9 1.8s1.6.9 2.7 1.2c1.9.5 3.6.4 5-.4 1.5-.8 2.5-1.9 3.2-3.4.4-1.1.6-2.1.4-3z" fill="#fff"/>
		<path d="M353.1 505c-3.2-1.4-6.1-5.4-5.1-10.1.4-2.2 1.8-3.8 3.6-4.5 1.9-.7 4.1-.4 6.1.9.6.4.8 1.2.5 1.8-.3.6-1 .7-1.5.4-1.3-.9-2.8-1.1-4.1-.6-1.3.5-2.1 1.6-2.4 3-.5 2.3.4 5.4 3.5 6.8 2.1.9 4.8.5 5.7-3.5 1.2-5.4 1.8-8.1 3-13.4.7-3.1 2.3-4.5 3.5-5.1 1.5-.8 3.4-.9 5.3-.2 3.4 1.2 6.4 5.1 5.2 10-.6 2.3-2 4-4 4.8-2 .8-4.2.5-6.2-.8-.6-.4-.8-1.2-.5-1.8.3-.6 1-.8 1.6-.4 1.3.9 2.8 1.1 4.2.5 1.3-.5 2.3-1.7 2.6-3.2.6-2.4-.3-5.5-3.5-6.7-2.2-.8-5-.3-6 3.7-1.2 5.4-1.8 8-3 13.4-1.3 5.5-5.3 6.4-8.5 5z" fill="#fc781f"/>
	</g>
</svg>
