<svg xmlns="http://www.w3.org/2000/svg" xml:space="preserve" viewBox="0 0 1000 1000">
  <g class="Ball--group">
    <path fill="#8ad7fb" fill-opacity=".85" stroke="#000" stroke-width="7.2" d="M563.3 522.4a107.5 107.5 0 0 1-107.5 107.5 107.5 107.5 0 0 1-107.5-107.5 107.5 107.5 0 0 1 107.5-107.5 107.5 107.5 0 0 1 107.5 107.5z" color="#000" style="-inkscape-stroke:none"/>
    <path fill="#fff" fill-opacity=".85" fill-rule="evenodd" d="M429.178 452.2c-39.813 0-72.06 33.581-72.06 74.881 0 3.774.275 7.483.795 11.11 5.168 36.047 35.09 63.775 71.265 63.775 39.814 0 72.06-33.585 72.06-74.885 0-41.3-32.246-74.881-72.06-74.881zm0 3.475c37.86 0 68.584 31.912 68.584 71.406 0 39.494-30.724 71.406-68.584 71.406-29.207 0-54.152-19.001-64.036-45.815a73.856 73.856 0 0 1-4.548-25.591c0-39.494 30.725-71.406 68.584-71.406zm.539 5.87c-9.031-.228-17.921 1.027-24.697 4.025-9.453 4.181-23.877 16.097-27.36 22.604-1.99 3.719-1.603 3.841 8.903 2.757 8.74-.902 10.983-.564 10.983 1.657 0 1.536-1.83 2.792-4.067 2.792-3.553 0-3.895.786-2.7 6.225.752 3.424 6.102 19.475 11.888 35.669 5.786 16.194 10.521 29.816 10.521 30.272 0 3.194 2.413-3.664 7.737-21.981l6.16-21.184-4.185-12.576c-4.356-13.088-8.038-18.38-12.786-18.38-1.536 0-2.792-.88-2.792-1.956 0-1.173 7.822-1.955 19.553-1.955 11.732 0 19.553.782 19.553 1.955 0 1.076-2.2 1.956-4.888 1.956-2.688 0-4.874.22-4.858.489.311 4.952 25.358 71.968 26.126 69.901.599-1.613 2.878-9.515 5.064-17.56 5.647-20.785 5.2-29.912-2.166-44.276-6.783-13.227-6.624-21.826.44-23.673 3.61-.944 3.664-1.28.748-4.503-6.686-7.388-22.126-11.88-37.177-12.259zm55.084 32.857-1.451 11.732c-1.162 9.373-15.558 61.233-20.768 74.81-2.195 5.721 11.269-6.032 17.243-15.051 11.481-17.334 14.622-40.432 8.275-60.87zM370.6 504.16c-1.852-.652-2.776 4.891-3.731 16.288-1.325 15.794 2.25 30.086 10.948 43.776 5.194 8.173 19.754 21.1 23.766 21.1.822 0-1.828-8.14-5.89-18.087-4.06-9.948-11.168-28.94-15.794-42.203-4.666-13.376-7.448-20.222-9.3-20.874zm60.365 30.952c-2.073 1.122-18.11 49.772-17.853 54.485.165 3.01 23.27 3.227 33.805.317 1.882-.52 3.422-1.725 3.422-2.677 0-1.995-17.056-48.222-19.217-52.083-.037-.066-.09-.078-.157-.042z" color="#000"/>
    <path fill="#824d28" stroke="#000" stroke-width="7.2" d="M462.35 648.8c-6.7 0-13.4-.4-20.1-1.2-23-2.7-44.9-9.8-64.8-21.1l-12.3 21.8c22.9 13 47.9 21.1 74.3 24.2 7.7.9 15.3 1.3 23 1.3 18.6 0 37-2.6 54.9-7.9l-7-24c-15.8 4.6-31.8 6.9-48 6.9z"/>
    <path fill="#bc9055" stroke="#010000" stroke-width="7.2" d="M516.35 627.8c-1.6-5.5-6.6-9-12-9-1.2 0-2.3.2-3.5.5-13.5 3.9-27.3 5.9-41.2 5.9-5.7 0-11.5-.3-17.3-1-19.8-2.3-38.6-8.4-55.9-18.2-1.9-1.1-4.1-1.6-6.2-1.6-4.4 0-8.6 2.3-10.9 6.3-3.4 6-1.3 13.6 4.7 17 20.1 11.4 42.1 18.6 65.3 21.3 6.7.8 13.5 1.2 20.2 1.2 16.3 0 32.5-2.3 48.2-6.9 6.8-1.9 10.6-8.8 8.6-15.5z"/>
  </g>
</svg>
