<svg xmlns="http://www.w3.org/2000/svg" xmlns:xlink="http://www.w3.org/1999/xlink" xml:space="preserve" width="60" height="90"><defs><clipPath id="b" clipPathUnits="userSpaceOnUse"><path fill="#005683" d="M43.279 24.832c-2.85-2.554-4.714-4.005-7.539-4.589-1.899-.392-4.392-.003-6.392.44-1.515.337-2.778.628-3.796.52-1.564-.165-2.373-.625-2.727-1.734-.248-.781-.184-1.607 1.556-3.138.723-.637 3.114-1.967 4.064-2.4-3.04.22-4.816-.134-6.116-.824-2.152 2.15-5.644 3.95-6.956 3.367-.292-.13-.81-.178-1.111-.488-.029.022-.35.25-.38.273.347.324.431.921.54 1.452.221 1.075-.133 1.886-.985 2.737-.742.742-1.246.941-2.134.941-.62 0-1.195-.397-1.592-.774-2.69 4.49-2.977 7.008-3.115 10.124-.074 1.674.289 4.058.7 5.604 1.762 1.618 4.316 6.658 4.949 8.104.034.08.594.922.671.982 3.02 2.79 7.682 4.667 12.033 5.003-.054-.72-.127-2.047-.101-2.804.03-.927.08-1.905-.04-2.692-.1-.649-.322-1.381-.499-2.118-.605-2.822-1.253-5.566.975-7.149.503-.335.794-.45 1.37-.45 2.36 0 4.469 3.44 5.62 5.498 1.508-2.44 3.97-4.462 6.916-4.76 1.492-.152 2.966-.033 4.193.421.433-1.573.7-3.62.7-5.27 0-1.976-.316-4.621-.934-6.477" style="font-variation-settings:normal;display:inline;opacity:1;vector-effect:none;fill:none;fill-opacity:1;stroke:#000;stroke-width:.294472;stroke-linecap:butt;stroke-linejoin:miter;stroke-miterlimit:4;stroke-dasharray:none;stroke-dashoffset:0;stroke-opacity:1;-inkscape-stroke:none;stop-color:#000;stop-opacity:1"/></clipPath><clipPath id="d" clipPathUnits="userSpaceOnUse"><path fill="#005683" d="M43.279 24.832c-2.85-2.554-4.714-4.005-7.539-4.589-1.899-.392-4.392-.003-6.392.44-1.515.337-2.778.628-3.796.52-1.564-.165-2.373-.625-2.727-1.734-.248-.781-.184-1.607 1.556-3.138.723-.637 3.114-1.967 4.064-2.4-3.04.22-4.816-.134-6.116-.824-2.152 2.15-5.644 3.95-6.956 3.367-.292-.13-.81-.178-1.111-.488-.029.022-.35.25-.38.273.347.324.431.921.54 1.452.221 1.075-.133 1.886-.985 2.737-.742.742-1.246.941-2.134.941-.62 0-1.195-.397-1.592-.774-2.69 4.49-2.977 7.008-3.115 10.124-.074 1.674.289 4.058.7 5.604 1.762 1.618 4.316 6.658 4.949 8.104.034.08.594.922.671.982 3.02 2.79 7.682 4.667 12.033 5.003-.054-.72-.127-2.047-.101-2.804.03-.927.08-1.905-.04-2.692-.1-.649-.322-1.381-.499-2.118-.605-2.822-1.253-5.566.975-7.149.503-.335.794-.45 1.37-.45 2.36 0 4.469 3.44 5.62 5.498 1.508-2.44 3.97-4.462 6.916-4.76 1.492-.152 2.966-.033 4.193.421.433-1.573.7-3.62.7-5.27 0-1.976-.316-4.621-.934-6.477" style="font-variation-settings:normal;display:inline;opacity:1;vector-effect:none;fill:none;fill-opacity:1;stroke:#000;stroke-width:1;stroke-linecap:butt;stroke-linejoin:miter;stroke-miterlimit:4;stroke-dasharray:none;stroke-dashoffset:0;stroke-opacity:1;-inkscape-stroke:none;stop-color:#000;stop-opacity:1"/></clipPath><clipPath id="c" clipPathUnits="userSpaceOnUse"><path fill="#005683" d="M43.279 24.832c-2.85-2.554-4.714-4.005-7.539-4.589-1.899-.392-4.392-.003-6.392.44-1.515.337-2.778.628-3.796.52-1.564-.165-2.373-.625-2.727-1.734-.248-.781-.184-1.607 1.556-3.138.723-.637 3.114-1.967 4.064-2.4-3.04.22-4.816-.134-6.116-.824-2.152 2.15-5.644 3.95-6.956 3.367-.292-.13-.81-.178-1.111-.488-.029.022-.35.25-.38.273.347.324.431.921.54 1.452.221 1.075-.133 1.886-.985 2.737-.742.742-1.246.941-2.134.941-.62 0-1.195-.397-1.592-.774-2.69 4.49-2.977 7.008-3.115 10.124-.074 1.674.289 4.058.7 5.604 1.762 1.618 4.316 6.658 4.949 8.104.034.08.594.922.671.982 3.02 2.79 7.682 4.667 12.033 5.003-.054-.72-.127-2.047-.101-2.804.03-.927.08-1.905-.04-2.692-.1-.649-.322-1.381-.499-2.118-.605-2.822-1.253-5.566.975-7.149.503-.335.794-.45 1.37-.45 2.36 0 4.469 3.44 5.62 5.498 1.508-2.44 3.97-4.462 6.916-4.76 1.492-.152 2.966-.033 4.193.421.433-1.573.7-3.62.7-5.27 0-1.976-.316-4.621-.934-6.477" style="font-variation-settings:normal;display:inline;opacity:1;vector-effect:none;fill:none;fill-opacity:1;stroke:#000;stroke-width:1;stroke-linecap:butt;stroke-linejoin:miter;stroke-miterlimit:4;stroke-dasharray:none;stroke-dashoffset:0;stroke-opacity:1;-inkscape-stroke:none;stop-color:#000;stop-opacity:1"/></clipPath><pattern xlink:href="#a" id="e" patternTransform="translate(9.019 21.479)"/><pattern id="a" width="13.057" height="15.045" patternTransform="translate(10.242 45.086)" patternUnits="userSpaceOnUse"><path fill="#282a74" d="M18.637 37.795c-.744.271-1.346.291-1.67.303a5.135 5.135 0 0 1-1.629-.252c.185-1.69.344-3.148 1.129-6.043.603 1.786 1.079 3.197 2.339 5.817l.055.088c-.067.026-.156.063-.224.087m-4.577-.55c-2.436-1.534-4.062-5.086-2.455-8.91.381 2.616.857 5.108 2.822 9.123-.11-.064-.259-.145-.367-.213m8.677-5.697c-.067 1.64-.623 3.947-2.894 5.624.546-2.452 1.394-4.823 1.94-7.275a6.63 6.63 0 0 0 .155-2.151c.263.562.877 1.88.799 3.802m-2.15-.56c-.042.77-.31 1.663-.438 2.092-.155.704-.358 1.643-.5 2.35-.596-1.571-1.595-4.2-2.314-7.53.497-.04 1.247-.1.889-.551-.038-.049-3.222-.053-3.253-.05-.209.012-.255.243-.26.27-.049.288.042.294.748.348.406 1.844.413 1.88.728 2.962-.381 1.407-.741 2.735-1.042 4.661-.625-1.662-1.57-4.175-1.992-7.618.635-.048.681-.086.7-.101.196-.155.176-.428.054-.498-.063-.037-.172-.015-.245-.008-.718.063-.974.066-1.223.07-.103-.002-.206-.007-.31-.011 1.899-2.752 5.403-4.338 8.614-1.318-.022 0-2.055.209-.768 2.572.325.597.668 1.323.612 2.36m2.885.863c.245-3.595-2.012-8.403-6.887-8.082-6.443 1.157-8.403 9.95-3.085 13.835 4.179 3.054 9.583-.065 9.972-5.753" clip-path="url(#b)" style="display:inline;fill:#fff;fill-opacity:1;stroke-width:.0537887" transform="translate(-10.433 -23.754)"/></pattern></defs><g fill="none" fill-rule="evenodd" style="display:inline"><path d="M11.769 41.08c-1.274-.699-2.377-.485-3.289.686-.195.351-.636 1.82.617 2.672 7.83 3.934 15.608 2.823 15.608 2.823s.206-1.425-.456-4.094c-2.581.277-7.714.045-12.48-2.086z" style="display:inline;opacity:1;fill:#bc9055;fill-opacity:1;stroke:#000;stroke-width:1px;stroke-linecap:butt;stroke-linejoin:miter;stroke-opacity:1" transform="translate(-.19 21.333)"/><path d="M24.784 47.224c-6.592.614-11.178-.836-14.808-2.333-1.037 1.749-1.832 2.546-2.131 3.028 7.064 3.873 13.134 3.845 17.138 3.48-.284-.758-.326-2.164-.199-4.175z" style="display:inline;fill:#824d28;fill-opacity:1;stroke:#000;stroke-width:1px;stroke-linecap:butt;stroke-linejoin:miter;stroke-opacity:1" transform="translate(-.19 21.333)"/><path d="M37.228 27.68c1.288 8.39-4.413 14.62-12.859 15.468-8.732.877-16.032-3.084-17.524-10.804-1.288-8.39 4.47-16.235 12.86-17.523 8.39-1.288 16.235 4.469 17.523 12.859z" clip-path="url(#c)" style="display:inline;opacity:1;fill:#8ad7fb;fill-opacity:.801498;stroke:#000;stroke-width:0;stroke-linecap:round;stroke-dasharray:none;paint-order:fill markers stroke;stop-color:#000" transform="translate(-.19 21.333)"/><path d="M9.019 21.479h13.057v15.045H9.019z" clip-path="url(#d)" style="font-variation-settings:normal;display:inline;opacity:.42;vector-effect:none;fill:url(#e);fill-opacity:1;stroke:none;stroke-width:.181562;stroke-linecap:butt;stroke-linejoin:miter;stroke-miterlimit:4;stroke-dasharray:none;stroke-dashoffset:0;stroke-opacity:1;-inkscape-stroke:none;stop-color:#000" transform="translate(-.19 21.333)"/><path fill="none" d="M37.12 29.674c.033 2.11-.5 4.243-1.182 5.854-.535 1.192-.806 1.684-1.287 2.294-1.392 1.101-1.727 1.982-2.36 2.693-.318-.172-.772-1.325-1.462-2.239-.928-1.317-2.988-3.744-5.15-2.805-3.247 1.567-1.601 5.14-1.407 7.694a28.323 28.323 0 0 1-11.183-1.528c-.8-.54-.972-.655-1.652-1.336a14.968 14.968 0 0 1-4.398-10.627 15.062 15.062 0 0 1 2.903-8.896c.791.848 1.886.618 2.388.42.49-.192 1.089-.579 1.672-1.269.584-.69.737-2.441.106-2.993.4-.27.376-.256.802-.488.411-.145.544.2 1.221.102 2.314-.352 4.13-1.723 4.41-1.84a15.217 15.217 0 0 1 1.539-.077c1.055-.008 2.628.146 3.984.54-1.478.783-4.076 2.69-3.192 4.439.349.69 1.089 1.341 2.328 1.533 1 .225 2.47-.068 4.97-.666.848-.177 2.65-.536 3.447-.46 1.686 2.042 3.484 5.232 3.503 9.655z" style="display:inline;opacity:1;fill:#9ccfe9;fill-opacity:0;stroke:#000;stroke-linecap:round;paint-order:fill markers stroke;stop-color:#000" transform="translate(-.19 21.333)"/></g></svg>