<svg version="1.1" id="wapuugotchi_svg__item" viewBox="0 0 1e3 1e3" xmlns="http://www.w3.org/2000/svg">
	<g class="Body--group">
		<circle cx="455.8" cy="522.4" r="107.5" fill="#8ad7fb" />
		<path d="m522.2 670.9-7.1 2.1c-18.5 5.4-37.7 8.2-57 8.2-7.9 0-15.9-.5-23.8-1.4-27.4-3.2-53.3-11.6-77.1-25.1l-6.4-3.6 3.6-6.4 12.3-21.8 3.7-6.4 6.4 3.6c19.1 10.8 40 17.6 62 20.2 6.4.7 12.9 1.1 19.2 1.1 15.5 0 30.9-2.2 45.8-6.6l7.1-2.1 2.1 7.1 7 24 2.2 7.1z"/>
		<path d="M458.2 648.8c-6.7 0-13.4-.4-20.1-1.2-23-2.7-44.9-9.8-64.8-21.1L361 648.3c22.9 13 47.9 21.1 74.3 24.2 7.7.9 15.3 1.3 23 1.3 18.6 0 37-2.6 54.9-7.9l-7-24c-15.8 4.6-31.8 6.9-48 6.9z" fill="#824d28"/>
		<path d="M517.7 640.9c-2.5 4.7-6.8 8.1-11.9 9.6-16.4 4.8-33.3 7.2-50.3 7.2-7 0-14-.4-21-1.2-24.2-2.8-47.1-10.3-68.1-22.2-4.6-2.6-7.9-6.9-9.4-12-1.4-5.1-.8-10.5 1.9-15.1 3.5-6.2 10.2-10.1 17.3-10.1 3.4 0 6.8.9 9.8 2.6 16.4 9.3 34.2 15.1 53.1 17.3 5.5.6 11 1 16.4 1 13.2 0 26.4-1.9 39.2-5.6 1.8-.5 3.7-.8 5.6-.8 8.8 0 16.6 5.9 19.1 14.3 1.4 5 .8 10.3-1.7 15z"/>
		<path d="M512.2 627.8c-1.6-5.5-6.6-9-12-9-1.2 0-2.3.2-3.5.5-13.5 3.9-27.3 5.9-41.2 5.9-5.7 0-11.5-.3-17.3-1-19.8-2.3-38.6-8.4-55.9-18.2-1.9-1.1-4.1-1.6-6.2-1.6-4.4 0-8.6 2.3-10.9 6.3-3.4 6-1.3 13.6 4.7 17 20.1 11.4 42.1 18.6 65.3 21.3 6.7.8 13.5 1.2 20.2 1.2 16.3 0 32.5-2.3 48.2-6.9 6.8-1.9 10.6-8.8 8.6-15.5z" fill="#bc9055"/>
	</g>
</svg>
