<?xml version="1.0" encoding="utf-8"?>
<!-- Generator: Adobe Illustrator 25.2.0, SVG Export Plug-In . SVG Version: 6.00 Build 0)  -->
<svg version="1.1" id="Layer_1" xmlns="http://www.w3.org/2000/svg" xmlns:xlink="http://www.w3.org/1999/xlink" x="0px" y="0px"
	 viewBox="0 0 1000 1000" style="enable-background:new 0 0 1000 1000;" xml:space="preserve">
<style type="text/css">
	.st0{fill:#8AD7FB;fill-opacity:0.8;stroke:#000000;stroke-width:7.4;stroke-miterlimit:10;}
	.st1{fill:#824D28;}
	.st2{fill:#BC9055;}
</style>
<g id="CrystalBall--group">
	<circle id="CrystalBall" class="st0" cx="455.8" cy="522.4" r="107.5"/>
	<g id="BallBase_1_">
		<path id="BallBase--bg" d="M522.2,670.9l-7.1,2.1c-18.5,5.4-37.7,8.2-57,8.2c-7.9,0-15.9-0.5-23.8-1.4
			c-27.4-3.2-53.3-11.6-77.1-25.1l-6.4-3.6l3.6-6.4l12.3-21.8l3.7-6.4l6.4,3.6c19.1,10.8,40,17.6,62,20.2c6.4,0.7,12.9,1.1,19.2,1.1
			c15.5,0,30.9-2.2,45.8-6.6l7.1-2.1l2.1,7.1l7,24L522.2,670.9z"/>
		<path id="BallBase" class="st1" d="M458.2,648.8c-6.7,0-13.4-0.4-20.1-1.2c-23-2.7-44.9-9.8-64.8-21.1l-12.3,21.8
			c22.9,13,47.9,21.1,74.3,24.2c7.7,0.9,15.3,1.3,23,1.3c18.6,0,37-2.6,54.9-7.9l-7-24C490.4,646.5,474.4,648.8,458.2,648.8z"/>
	</g>
	<g id="BallBase2_1_">
		<path id="BallBase2--bg" d="M517.7,640.9c-2.5,4.7-6.8,8.1-11.9,9.6c-16.4,4.8-33.3,7.2-50.3,7.2c-7,0-14-0.4-21-1.2
			c-24.2-2.8-47.1-10.3-68.1-22.2c-4.6-2.6-7.9-6.9-9.4-12c-1.4-5.1-0.8-10.5,1.9-15.1c3.5-6.2,10.2-10.1,17.3-10.1
			c3.4,0,6.8,0.9,9.8,2.6c16.4,9.3,34.2,15.1,53.1,17.3c5.5,0.6,11,1,16.4,1c13.2,0,26.4-1.9,39.2-5.6c1.8-0.5,3.7-0.8,5.6-0.8
			c8.8,0,16.6,5.9,19.1,14.3C520.8,630.9,520.2,636.2,517.7,640.9z"/>
		<path id="BallBase2" class="st2" d="M512.2,627.8c-1.6-5.5-6.6-9-12-9c-1.2,0-2.3,0.2-3.5,0.5c-13.5,3.9-27.3,5.9-41.2,5.9
			c-5.7,0-11.5-0.3-17.3-1c-19.8-2.3-38.6-8.4-55.9-18.2c-1.9-1.1-4.1-1.6-6.2-1.6c-4.4,0-8.6,2.3-10.9,6.3c-3.4,6-1.3,13.6,4.7,17
			c20.1,11.4,42.1,18.6,65.3,21.3c6.7,0.8,13.5,1.2,20.2,1.2c16.3,0,32.5-2.3,48.2-6.9C510.4,641.4,514.2,634.5,512.2,627.8z"/>
	</g>
</g>
</svg>
