<?xml version="1.0" encoding="utf-8"?>
<!-- Generator: Adobe Illustrator 25.2.0, SVG Export Plug-In . SVG Version: 6.00 Build 0)  -->
<svg version="1.1" id="Layer_1" xmlns="http://www.w3.org/2000/svg" xmlns:xlink="http://www.w3.org/1999/xlink" x="0px" y="0px"
	 viewBox="0 0 1000 1000" style="enable-background:new 0 0 1000 1000;" xml:space="preserve">
<style type="text/css">
	.st0{fill:#0073AA;}
	.st1{fill:#FFFFFF;}
	.st2{fill:#010101;}
</style>
<g id="Ball--group">
	
		<ellipse id="Ball-bg" transform="matrix(0.7071 -0.7071 0.7071 0.7071 -236.4377 487.8127)" cx="470.6" cy="529.3" rx="133.5" ry="133.5"/>
	<circle id="Ball_1_" class="st0" cx="470.6" cy="529.3" r="126.1"/>
	<g id="a11y">
		<g>
			<path class="st1" d="M375.2,522.7c-3.1-0.7-4.8-2.9-4.5-6c-0.1,0-0.2,0-0.3-0.1c-1.6,3.3-5,4.4-9,3.5c-5-1.2-7.8-5-6.8-10.1
				c1.1-5.7,5.7-7.3,13.4-5.4c1.7,0.4,2.5,0.6,4.2,1c0.1-0.5,0.2-0.8,0.3-1.3c0.6-3.2-0.3-5.1-3.8-6c-3.1-0.8-5.2,0.2-7.1,1.8
				c-1.3-1.9-2-2.9-3.4-4.8c2.3-2.6,6.6-3.9,12.4-2.4c7.1,1.8,10.7,6.2,9.4,12.9c-1,4.7-1.4,7-2.4,11.7c1.2,0.3,1.7,0.4,2.9,0.7
				c-0.5,2.2-0.7,3.3-1.1,5.5C377.8,523.3,377,523.1,375.2,522.7z M370.8,513.1c0.3-1.3,0.4-1.9,0.6-3.2c-1.6-0.4-2.4-0.6-4-1
				c-3-0.7-4.8,0-5.2,2.1c-0.1,0.4-0.1,0.6-0.2,1c-0.4,1.9,0.9,3.2,3.3,3.8C368,516.4,370.3,515.6,370.8,513.1z"/>
			<path class="st1" d="M385.7,525.1c0.5-2.5,0.8-3.7,1.3-6.2c3.8,0.9,5.7,1.3,9.5,2.1c2-9.5,3-14.3,5-23.8c-0.2,0-0.3-0.1-0.5-0.1
				c-3.7,3.1-5.5,4.7-9.2,7.8c-1.6-2-2.4-3-4.1-5c4.3-3.7,6.5-5.5,10.8-9.2c4.7,1.1,7,1.7,11.7,2.8c-2.1,9.7-4.2,19.5-6.2,29.2
				c3,0.7,4.5,1,7.5,1.6c-0.5,2.4-0.8,3.7-1.3,6.1C400.5,528.3,395.5,527.3,385.7,525.1z"/>
			<path class="st1" d="M416.1,531.6c0.5-2.4,0.8-3.6,1.3-6.1c3.8,0.8,5.7,1.2,9.6,2c2.1-9.3,3.1-14,5.2-23.3
				c-0.2,0-0.3-0.1-0.5-0.1c-3.7,3.1-5.6,4.6-9.3,7.7c-1.6-1.9-2.4-2.9-4.1-4.8c4.4-3.7,6.6-5.5,10.9-9.1c4.7,1.1,7.1,1.6,11.8,2.6
				c-2.1,9.5-4.3,19-6.4,28.5c3,0.6,4.5,0.9,7.5,1.5c-0.5,2.4-0.8,3.6-1.4,5.9C430.9,534.6,426,533.6,416.1,531.6z"/>
			<path class="st1" d="M469.6,515.9c3.1,0.6,4.6,0.9,7.8,1.5c-6.5,8.8-12.9,17.7-19.3,26.6c-2.4,3.4-5.3,5-9.7,4.2
				c-2.1-0.4-3.1-0.6-5.2-0.9c0.5-2.3,0.8-3.4,1.3-5.6c2.5,0.5,3.8,0.7,6.3,1.2c1.1-1.6,1.6-2.4,2.6-4c-1.9-10.8-2.9-16.2-4.8-27.2
				c3.3,0.7,4.9,1,8.1,1.7c0.6,4.5,0.8,6.8,1.4,11.3c0.3,3.1,0.4,4.7,0.7,7.7c0.2,0,0.2,0,0.4,0.1c1.6-2.7,2.4-4.1,4-6.8
				C465.8,521.7,467.1,519.7,469.6,515.9z"/>
		</g>
	</g>
</g>
<path class="st2" d="M606.2,343.4c-1.8-5.2-4.8-8.6-9-10.6c-11.4-5.2-30.2,2.3-64.3,16c-5.2,2.1-10.8,4.4-16.9,6.7
	c-3.9-7.8-12.1-13.2-21.4-13.2c-11.9,0-21.8,8.7-23.7,20.1c-0.8-0.5-1.6-0.9-2.4-1.3c-5.9-2.6-12.9-3.2-20-1.7
	c-7.7,1.7-14.1,5.7-18.1,10.7c-4.4-5.6-11.2-9.1-18.8-9.1c-13.2,0-24,10.7-24,24s10.7,24,24,24s24-10.7,24-24c0-2.6-0.4-5.1-1.2-7.5
	c2.5-4.9,8.4-9.3,15.7-10.8c5.5-1.2,11-0.8,15.4,1.2c2.7,1.2,4.8,3,6.1,5c2.9,10,12.1,17.3,23,17.3c13.2,0,24-10.7,24-24
	c0-1.3-0.1-2.5-0.3-3.7c6.2-2.5,12.1-4.8,17.4-6.9c30-12.1,49.9-20,58.5-16.1c2.3,1,3.9,3,5,6.3c0.7,1.9,2.8,2.9,4.7,2.3
	C605.9,347.5,606.9,345.4,606.2,343.4z"/>
</svg>
