<svg version="1.1" id="wapuugotchi_svg__item" viewBox="0 0 1e3 1e3" xmlns="http://www.w3.org/2000/svg">
	<g class="Body--group">
		<ellipse transform="matrix(.7071 -.7071 .7071 .7071 -236.44 487.81)" cx="470.6" cy="529.3" rx="133.5" ry="133.5"/>
		<circle cx="470.6" cy="529.3" r="126.1" fill="#0073AA"/>
		<path d="m375.2 522.7c-3.1-0.7-4.8-2.9-4.5-6-0.1 0-0.2 0-0.3-0.1-1.6 3.3-5 4.4-9 3.5-5-1.2-7.8-5-6.8-10.1 1.1-5.7 5.7-7.3 13.4-5.4 1.7 0.4 2.5 0.6 4.2 1 0.1-0.5 0.2-0.8 0.3-1.3 0.6-3.2-0.3-5.1-3.8-6-3.1-0.8-5.2 0.2-7.1 1.8-1.3-1.9-2-2.9-3.4-4.8 2.3-2.6 6.6-3.9 12.4-2.4 7.1 1.8 10.7 6.2 9.4 12.9-1 4.7-1.4 7-2.4 11.7 1.2 0.3 1.7 0.4 2.9 0.7-0.5 2.2-0.7 3.3-1.1 5.5-1.6-0.4-2.4-0.6-4.2-1zm-4.4-9.6c0.3-1.3 0.4-1.9 0.6-3.2l-4-1c-3-0.7-4.8 0-5.2 2.1-0.1 0.4-0.1 0.6-0.2 1-0.4 1.9 0.9 3.2 3.3 3.8 2.7 0.6 5-0.2 5.5-2.7z" fill="#fff"/>
		<path d="m385.7 525.1c0.5-2.5 0.8-3.7 1.3-6.2 3.8 0.9 5.7 1.3 9.5 2.1 2-9.5 3-14.3 5-23.8-0.2 0-0.3-0.1-0.5-0.1-3.7 3.1-5.5 4.7-9.2 7.8-1.6-2-2.4-3-4.1-5 4.3-3.7 6.5-5.5 10.8-9.2 4.7 1.1 7 1.7 11.7 2.8-2.1 9.7-4.2 19.5-6.2 29.2 3 0.7 4.5 1 7.5 1.6-0.5 2.4-0.8 3.7-1.3 6.1-9.7-2.1-14.7-3.1-24.5-5.3z" fill="#fff"/>
		<path d="m416.1 531.6c0.5-2.4 0.8-3.6 1.3-6.1 3.8 0.8 5.7 1.2 9.6 2 2.1-9.3 3.1-14 5.2-23.3-0.2 0-0.3-0.1-0.5-0.1-3.7 3.1-5.6 4.6-9.3 7.7-1.6-1.9-2.4-2.9-4.1-4.8 4.4-3.7 6.6-5.5 10.9-9.1 4.7 1.1 7.1 1.6 11.8 2.6-2.1 9.5-4.3 19-6.4 28.5l7.5 1.5c-0.5 2.4-0.8 3.6-1.4 5.9-9.8-1.8-14.7-2.8-24.6-4.8z" fill="#fff"/>
		<path d="m469.6 515.9c3.1 0.6 4.6 0.9 7.8 1.5-6.5 8.8-12.9 17.7-19.3 26.6-2.4 3.4-5.3 5-9.7 4.2-2.1-0.4-3.1-0.6-5.2-0.9 0.5-2.3 0.8-3.4 1.3-5.6 2.5 0.5 3.8 0.7 6.3 1.2 1.1-1.6 1.6-2.4 2.6-4-1.9-10.8-2.9-16.2-4.8-27.2 3.3 0.7 4.9 1 8.1 1.7 0.6 4.5 0.8 6.8 1.4 11.3 0.3 3.1 0.4 4.7 0.7 7.7 0.2 0 0.2 0 0.4 0.1 1.6-2.7 2.4-4.1 4-6.8 2.6-4 3.9-6 6.4-9.8z" fill="#fff"/>
		<path d="m606.2 343.4c-1.8-5.2-4.8-8.6-9-10.6-11.4-5.2-30.2 2.3-64.3 16-5.2 2.1-10.8 4.4-16.9 6.7-3.9-7.8-12.1-13.2-21.4-13.2-11.9 0-21.8 8.7-23.7 20.1-0.8-0.5-1.6-0.9-2.4-1.3-5.9-2.6-12.9-3.2-20-1.7-7.7 1.7-14.1 5.7-18.1 10.7-4.4-5.6-11.2-9.1-18.8-9.1-13.2 0-24 10.7-24 24s10.7 24 24 24 24-10.7 24-24c0-2.6-0.4-5.1-1.2-7.5 2.5-4.9 8.4-9.3 15.7-10.8 5.5-1.2 11-0.8 15.4 1.2 2.7 1.2 4.8 3 6.1 5 2.9 10 12.1 17.3 23 17.3 13.2 0 24-10.7 24-24 0-1.3-0.1-2.5-0.3-3.7 6.2-2.5 12.1-4.8 17.4-6.9 30-12.1 49.9-20 58.5-16.1 2.3 1 3.9 3 5 6.3 0.7 1.9 2.8 2.9 4.7 2.3 2-0.6 3-2.7 2.3-4.7z" fill="#010101"/>
	</g>
</svg>
