<?xml version="1.0" encoding="utf-8"?>
<!-- Generator: Adobe Illustrator 25.2.0, SVG Export Plug-In . SVG Version: 6.00 Build 0)  -->
<svg version="1.1" id="Layer_1" xmlns="http://www.w3.org/2000/svg" xmlns:xlink="http://www.w3.org/1999/xlink" x="0px" y="0px"
	 viewBox="0 0 1000 1000" style="enable-background:new 0 0 1000 1000;" xml:space="preserve">
<style type="text/css">
	.st0{fill:#061231;}
	.st1{fill-rule:evenodd;clip-rule:evenodd;fill:#FFFFFF;}
</style>
<g id="Ball--group">
	
		<ellipse id="Ball-bg" transform="matrix(0.7071 -0.7071 0.7071 0.7071 -236.4377 487.8127)" cx="470.6" cy="529.3" rx="133.5" ry="133.5"/>
	<circle id="Ball_1_" class="st0" cx="470.6" cy="529.3" r="126.1"/>
	<g>
		<g id="XWP_1_">
			<path class="st1" d="M359.1,486.2c1.9-1,4.5-0.2,5.8,1.8c3.1,4.8,4.6,7.1,7.6,11.9c-2.7,1.5-4.1,2.2-6.8,3.7
				c-3-4.8-4.5-7.2-7.6-12C356.8,489.7,357.2,487.2,359.1,486.2z"/>
			<path class="st1" d="M381.6,514.6c2.8,4.4,4.1,6.7,6.8,11.1c1.2,2,0.6,4.5-1.3,5.5c-1.9,1.1-4.4,0.3-5.6-1.7
				c-2.7-4.5-4-6.7-6.8-11.2C377.4,516.8,378.8,516.1,381.6,514.6z"/>
			<path class="st1" d="M395.4,497.1c1.3,2,0.7,4.5-1.3,5.5c-11.8,6.6-23.6,13.1-35.4,19.5c-1.8,1-4.3,0.1-5.5-1.9
				c-1.2-2-0.8-4.5,1-5.5c11.8-6.4,23.6-12.8,35.4-19.3C391.5,494.4,394.2,495.1,395.4,497.1z"/>
			<path class="st1" d="M408.7,499.4c2.3,0.6,3.7,2.8,3.2,5c-1.4,5.7-2.1,8.5-3.5,14.2c-4,2.1-5.9,3.1-9.8,5.2
				c2-8.6,3-12.9,5.1-21.5C404.2,500.1,406.4,498.8,408.7,499.4z"/>
			<path class="st1" d="M440,506.8c-2.3-0.5-4.6,0.9-5.2,3.1c-1.5,5.7-2.3,8.6-3.8,14.3c2.5,3.7,3.7,5.6,6.2,9.3
				c2.4-8.7,3.6-13.1,6-21.8C443.7,509.4,442.3,507.3,440,506.8z"/>
			<path class="st1" d="M417.3,518.5c2-1.1,4.6-0.5,5.8,1.4c4.4,7.1,6.6,10.7,10.8,17.8c1.2,1.9,0.5,4.5-1.5,5.6
				c-2,1.2-4.5,0.6-5.7-1.4c-3.4-5.7-5.2-8.6-8.7-14.4c-5.8,3.4-8.7,5.1-14.4,8.3c-1.9,1.1-4.4,0.4-5.6-1.6c-1.2-2-0.6-4.5,1.3-5.6
				C406.4,524.8,410,522.7,417.3,518.5z"/>
			<path class="st1" d="M451.9,513.5c0.6-2.2,3-3.6,5.3-3.2c5.1,1,7.7,1.5,12.9,2.4c8.5,1.5,13.4,9.3,10.9,17.5
				c-0.1,0.4-0.2,0.7-0.3,1.1c-2.4,7.6-10.5,12.8-18.2,11.3c-2-0.4-2.9-0.6-4.9-1c0.9-3.2,1.4-4.8,2.4-8.1c2,0.4,3,0.6,4.9,1
				c3.2,0.6,6.5-1.5,7.5-4.6c0.1-0.4,0.2-0.6,0.3-1.1c1.1-3.7-1.1-7.3-4.9-8c-3.5-0.6-5.2-1-8.6-1.6c-2.9,10.2-4.4,15.3-7.3,25.5
				c-0.6,2.2-3,3.6-5.2,3.2c-2.2-0.5-3.5-2.7-2.9-4.9C446.4,533.1,449.1,523.3,451.9,513.5z"/>
		</g>
	</g>
</g>
</svg>
