<svg version="1.1" id="wapuugotchi_svg__item" viewBox="0 0 1e3 1e3" xmlns="http://www.w3.org/2000/svg">
	<g class="Ball--group">
		<circle transform="rotate(-45.001 470.62 529.32)" cx="470.6" cy="529.3" r="133.5"/>
		<circle cx="470.6" cy="529.3" r="126.1" fill="#061231"/>
		<path d="M359.1 486.2c1.9-1 4.5-.2 5.8 1.8 3.1 4.8 4.6 7.1 7.6 11.9-2.7 1.5-4.1 2.2-6.8 3.7-3-4.8-4.5-7.2-7.6-12-1.3-1.9-.9-4.4 1-5.4zm22.5 28.4c2.8 4.4 4.1 6.7 6.8 11.1 1.2 2 .6 4.5-1.3 5.5-1.9 1.1-4.4.3-5.6-1.7-2.7-4.5-4-6.7-6.8-11.2 2.7-1.5 4.1-2.2 6.9-3.7zm13.8-17.5c1.3 2 .7 4.5-1.3 5.5-11.8 6.6-23.6 13.1-35.4 19.5-1.8 1-4.3.1-5.5-1.9-1.2-2-.8-4.5 1-5.5 11.8-6.4 23.6-12.8 35.4-19.3 1.9-1 4.6-.3 5.8 1.7zm13.3 2.3c2.3.6 3.7 2.8 3.2 5-1.4 5.7-2.1 8.5-3.5 14.2-4 2.1-5.9 3.1-9.8 5.2 2-8.6 3-12.9 5.1-21.5.5-2.2 2.7-3.5 5-2.9zm31.3 7.4c-2.3-.5-4.6.9-5.2 3.1-1.5 5.7-2.3 8.6-3.8 14.3 2.5 3.7 3.7 5.6 6.2 9.3 2.4-8.7 3.6-13.1 6-21.8.5-2.3-.9-4.4-3.2-4.9zm-22.7 11.7c2-1.1 4.6-.5 5.8 1.4 4.4 7.1 6.6 10.7 10.8 17.8 1.2 1.9.5 4.5-1.5 5.6-2 1.2-4.5.6-5.7-1.4-3.4-5.7-5.2-8.6-8.7-14.4-5.8 3.4-8.7 5.1-14.4 8.3-1.9 1.1-4.4.4-5.6-1.6-1.2-2-.6-4.5 1.3-5.6 7.1-3.8 10.7-5.9 18-10.1zm34.6-5c.6-2.2 3-3.6 5.3-3.2 5.1 1 7.7 1.5 12.9 2.4 8.5 1.5 13.4 9.3 10.9 17.5-.1.4-.2.7-.3 1.1-2.4 7.6-10.5 12.8-18.2 11.3-2-.4-2.9-.6-4.9-1 .9-3.2 1.4-4.8 2.4-8.1 2 .4 3 .6 4.9 1 3.2.6 6.5-1.5 7.5-4.6.1-.4.2-.6.3-1.1 1.1-3.7-1.1-7.3-4.9-8-3.5-.6-5.2-1-8.6-1.6-2.9 10.2-4.4 15.3-7.3 25.5-.6 2.2-3 3.6-5.2 3.2-2.2-.5-3.5-2.7-2.9-4.9 2.6-9.9 5.3-19.7 8.1-29.5z" clip-rule="evenodd" fill="#fff" fill-rule="evenodd"/>
	</g>
</svg>
