<svg xmlns="http://www.w3.org/2000/svg" viewBox="0 0 1000 1000">
  <g class="LeftFoot--group">
    <path fill="none" stroke="#3a0307" stroke-width="11.622" d="M531.461 668.537c.299 3.266-2.13 6.184-5.395 6.482l-52.293 4.78c-3.265.3-6.182-2.128-6.48-5.395l-9.93-108.616c-.3-3.265 2.129-6.182 5.393-6.48l52.294-4.781c3.265-.298 6.182 2.13 6.482 5.395z"/>
    <path fill="none" stroke="#3a0307" stroke-width="11.622" d="M529.841 667.19c.299 3.265-2.13 6.182-5.395 6.48l-52.293 4.782c-3.265.298-6.182-2.13-6.481-5.396l-9.93-108.616c-.298-3.266 2.13-6.182 5.396-6.481l52.292-4.78c3.265-.299 6.182 2.13 6.481 5.395z"/>
    <path fill="#765524" d="M531.461 668.537c.299 3.266-2.13 6.184-5.395 6.482l-52.293 4.78c-3.265.3-6.182-2.128-6.48-5.395l-9.93-108.616c-.3-3.265 2.129-6.182 5.393-6.48l52.294-4.781c3.265-.298 6.182 2.13 6.482 5.395z"/>
    <path fill="#c79852" d="M529.841 667.19c.299 3.265-2.13 6.182-5.395 6.48l-52.293 4.782c-3.265.298-6.182-2.13-6.481-5.396l-9.93-108.616c-.298-3.266 2.13-6.182 5.396-6.481l52.292-4.78c3.265-.299 6.182 2.13 6.481 5.395z"/>
    <path fill="#6a4922" d="m457.974 600.7-8.875-3.007 65.338-6.258 8.9 3.29z"/>
    <path fill="#c79852" d="m514.465 591.745-65.364 5.978-1.931-21.13 65.363-5.977z"/>
    <path fill="#93662e" d="m523.337 594.724-8.873-2.99-1.931-21.118 8.864 2.887z"/>
    <path fill="none" stroke="#3a0307" stroke-linejoin="bevel" stroke-width="2.682" d="m457.974 600.7-8.875-3.007 65.338-6.258 8.9 3.29z"/>
    <path fill="none" stroke="#3a0307" stroke-linejoin="bevel" stroke-width="2.682" d="m514.465 591.745-65.364 5.978-1.931-21.13 65.363-5.977zm8.872 2.98-8.873-2.99-1.931-21.119 8.864 2.887z"/>
    <path fill="#6a4922" d="m462.798 653.463-8.876-3.007 65.339-6.258 8.901 3.288z"/>
    <path fill="#c79852" d="m519.29 644.51-65.364 5.975-2.89-31.604 65.364-5.977z"/>
    <path fill="#93662e" d="m528.162 647.496-8.874-2.99-2.888-31.594 8.864 2.888z"/>
    <path fill="none" stroke="#3a0307" stroke-linejoin="bevel" stroke-width="2.682" d="m462.798 653.463-8.876-3.007 65.339-6.258 8.901 3.288z"/>
    <path fill="none" stroke="#3a0307" stroke-linejoin="bevel" stroke-width="2.682" d="m519.29 644.51-65.364 5.975-2.89-31.604 65.364-5.977z"/>
    <path fill="none" stroke="#3a0307" stroke-linejoin="bevel" stroke-width="2.682" d="m528.162 647.496-8.874-2.99-2.888-31.594 8.864 2.888z"/>
  </g>
  <g class="RightFoot--group">
    <path fill="none" stroke="#3a0307" stroke-width="11.622" d="M392.513 637.073c1.496 3.07.206 6.808-2.864 8.303l-39.222 19.102c-3.071 1.497-6.808.208-8.304-2.864l-40.645-83.453c-1.494-3.071-.205-6.808 2.865-8.305l39.224-19.101c3.07-1.495 6.808-.207 8.303 2.864z"/>
    <path fill="none" stroke="#3a0307" stroke-width="11.622" d="M390.861 635.625c1.496 3.072.206 6.808-2.864 8.304l-39.222 19.102c-3.071 1.496-6.808.207-8.304-2.865l-40.643-83.451c-1.496-3.073-.207-6.81 2.864-8.305l39.223-19.102c3.07-1.495 6.807-.205 8.303 2.864z"/>
    <path fill="#765524" d="M392.513 637.073c1.496 3.07.206 6.808-2.864 8.303l-39.222 19.102c-3.071 1.497-6.808.208-8.304-2.864l-40.645-83.453c-1.494-3.071-.205-6.808 2.865-8.305l39.224-19.101c3.07-1.495 6.808-.207 8.303 2.864z"/>
    <path fill="#c79852" d="M390.861 635.625c1.496 3.072.206 6.808-2.864 8.304l-39.222 19.102c-3.071 1.496-6.808.207-8.304-2.865l-40.643-83.451c-1.496-3.073-.207-6.81 2.864-8.305l39.223-19.102c3.07-1.495 6.807-.205 8.303 2.864z"/>
    <path fill="#6a4922" d="m312.366 604.6-8.147.289 51.222-25.22 8.254-.067z"/>
    <path fill="#c79852" d="m355.559 579.913-51.33 24.999-8.08-16.592 51.33-25z"/>
    <path fill="#93662e" d="m363.695 579.602-8.14.302-8.076-16.583 8.1-.384z"/>
    <path fill="none" stroke="#3a0307" stroke-linejoin="bevel" stroke-width="2.682" d="m312.366 604.6-8.147.289 51.222-25.22 8.254-.067z"/>
    <path fill="none" stroke="#3a0307" stroke-linejoin="bevel" stroke-width="2.682" d="m355.559 579.913-51.33 24.999-8.08-16.592 51.33-25z"/>
    <path fill="none" stroke="#3a0307" stroke-linejoin="bevel" stroke-width="2.682" d="m363.695 579.602-8.14.302-8.076-16.583 8.1-.384z"/>
    <path fill="#6a4922" d="m332.544 646.036-8.147.287 51.223-25.22 8.253-.067z"/>
    <path fill="#c79852" d="m375.738 621.348-51.33 24.998-12.087-24.817 51.33-25z"/>
    <path fill="#93662e" d="m383.874 621.036-8.14.302-12.082-24.808 8.1-.384z"/>
    <path fill="none" stroke="#3a0307" stroke-linejoin="bevel" stroke-width="2.682" d="m332.544 646.036-8.147.287 51.223-25.22 8.253-.067z"/>
    <path fill="none" stroke="#3a0307" stroke-linejoin="bevel" stroke-width="2.682" d="m375.738 621.348-51.33 24.998-12.087-24.817 51.33-25zm8.136-.312-8.14.302-12.082-24.808 8.1-.384z"/>
  </g>
</svg>