<svg version="1.1" id="wapuugotchi_svg__item" viewBox="0 0 1e3 1e3" xmlns="http://www.w3.org/2000/svg">
  <g class="LeftLeg--group">
    <path fill="#211816" d="M694.19 657.884c-4.613 0-8.35-3.25-8.35-7.254 0-4.006 3.737-7.251 8.35-7.251 4.956 0 10.48-5.723 10.48-13.931v-9.005c0-8.21-5.524-13.93-10.48-13.93-4.613 0-8.35-3.248-8.35-7.254 0-4.005 3.737-7.25 8.35-7.25 14.988 0 27.179 12.754 27.179 28.434v9.005c0 15.678-12.19 28.436-27.178 28.436"/>
    <path fill="#211816" d="M694.19 596.117c-2.3 0-4.243 1.44-4.243 3.146 0 1.703 1.943 3.142 4.244 3.142 7.046 0 14.585 7.25 14.585 18.038v9.003c0 10.793-7.54 18.042-14.585 18.042-2.301 0-4.244 1.44-4.244 3.145 0 1.703 1.943 3.141 4.244 3.141 12.722 0 23.069-10.914 23.069-24.328v-9.003c0-13.412-10.347-24.326-23.07-24.326zm0 65.876c-6.87 0-12.461-5.096-12.461-11.36 0-6.269 5.591-11.364 12.462-11.364 2.597 0 6.366-3.824 6.366-9.823v-9.003c0-5.994-3.77-9.82-6.366-9.82-6.87 0-12.462-5.096-12.462-11.36 0-6.266 5.591-11.364 12.462-11.364 17.253 0 31.287 14.598 31.287 32.544v9.003c0 17.945-14.034 32.547-31.287 32.547"/>
    <path fill="#fff" d="M661.087 671.238h-4.079c-8.972 0-34.26-2.739-34.26-17.806v-63.007c0-15.067 22.842-17.807 34.26-17.807h4.08c12.234 0 34.256 2.74 34.256 17.807v63.007c0 15.067-22.839 17.806-34.257 17.806"/>
    <path fill="#211816" d="M657.008 576.727c-3.087 0-30.15.387-30.15 13.698v63.007c0 11.18 22.329 13.697 30.15 13.697h4.08c3.084 0 30.147-.386 30.147-13.697v-63.007c0-13.037-25.113-13.698-30.148-13.698zm4.08 98.62h-4.08c-14.25 0-38.369-4.616-38.369-21.915v-63.007c0-16.158 19.823-21.916 38.37-21.916h4.078c24.025 0 38.366 8.19 38.366 21.916v63.007c0 16.158-19.817 21.916-38.366 21.916"/>
    <path fill="#391f16" d="M684.386 587.093c0 3.553-11.084 6.435-24.756 6.435-13.676 0-24.76-2.882-24.76-6.435 0-3.555 11.084-6.434 24.76-6.434 13.672 0 24.756 2.879 24.756 6.434"/>
    <path fill="#fff" d="M692.821 657.884c-4.613 0-8.35-3.25-8.35-7.254 0-4.006 3.737-7.251 8.35-7.251 4.956 0 10.478-5.723 10.478-13.931v-9.005c0-8.21-5.522-13.93-10.478-13.93-4.613 0-8.35-3.248-8.35-7.254 0-4.005 3.737-7.25 8.35-7.25 14.988 0 27.178 12.754 27.178 28.434v9.005c0 15.678-12.19 28.436-27.178 28.436"/>
    <path fill="#211816" d="M692.821 593.378c-3.849 0-6.983 2.638-6.983 5.885 0 3.243 3.134 5.881 6.983 5.881 5.602 0 11.845 6.283 11.845 15.299v9.003c0 9.018-6.243 15.302-11.845 15.302-3.849 0-6.983 2.638-6.983 5.885 0 3.243 3.134 5.88 6.983 5.88 14.231 0 25.808-12.144 25.808-27.067v-9.003c0-14.923-11.577-27.065-25.808-27.065zm0 65.875c-5.361 0-9.722-3.868-9.722-8.62 0-4.757 4.36-8.624 9.722-8.624 4.3 0 9.106-5.372 9.106-12.563v-9.003c0-7.188-4.805-12.56-9.106-12.56-5.361 0-9.722-3.868-9.722-8.62 0-4.757 4.36-8.624 9.722-8.624 15.74 0 28.548 13.37 28.548 29.804v9.003c0 16.437-12.807 29.807-28.548 29.807"/>
    <path fill="#403c3c" d="M633.186 627.739c0 7.588 4.098 14.147 10.037 17.255l-8.495-25.057a20.37 20.37 0 0 0-1.542 7.802m29.832-.967c0-2.37-.791-4.011-1.468-5.288-.901-1.58-1.75-2.917-1.75-4.495 0-1.764 1.243-3.402 2.991-3.402l.23.014c-3.167-3.126-7.388-5.033-12.026-5.033-6.221 0-11.695 3.435-14.878 8.64.416.014.81.025 1.145.025 1.863 0 4.748-.244 4.748-.244.958-.06 1.07 1.457.112 1.578 0 0-.964.123-2.038.183l6.484 20.769 3.898-12.586-2.772-8.183c-.962-.06-1.868-.183-1.868-.183-.962-.06-.85-1.638.112-1.578 0 0 2.94.244 4.69.244 1.863 0 4.747-.244 4.747-.244.96-.06 1.074 1.457.113 1.578 0 0-.965.123-2.038.183l6.437 20.61 1.775-6.39c.77-2.653 1.356-4.558 1.356-6.198"/>
    <path fill="#403c3c" d="m651.307 629.415-5.342 16.717a16.65 16.65 0 0 0 5.03.78 16.66 16.66 0 0 0 5.915-1.087l-.127-.263-5.476-16.147m15.317-10.872c.076.61.12 1.266.12 1.968 0 1.946-.34 4.134-1.356 6.869l-5.438 16.93c5.293-3.323 8.854-9.498 8.854-16.571 0-3.334-.791-6.468-2.18-9.196"/>
    <path fill="#403c3c" d="M650.995 649.065c-10.922 0-19.806-9.569-19.806-21.326 0-11.758 8.884-21.324 19.806-21.324s19.809 9.566 19.809 21.324c0 11.757-8.887 21.326-19.809 21.326zm0-43.675c-11.445 0-20.76 10.027-20.76 22.349 0 12.324 9.315 22.351 20.76 22.351 11.448 0 20.762-10.027 20.762-22.351 0-12.322-9.314-22.349-20.762-22.349"/>
  </g>
</svg>