<svg xmlns="http://www.w3.org/2000/svg" viewBox="0 0 1000 1000">
	<style id="animation--hot_coffee_1">
		.Front--group__hot-coffee .Front--group__hot-coffee_1 { transform-origin: 63% 48%; animation: hot_coffee_1 5s linear infinite 0.5s }
		.Front--group__hot-coffee .Front--group__hot-coffee_2 { transform-origin: 65.4% 48%; animation: hot_coffee_1 5s linear infinite 2s }
		.Front--group__hot-coffee .Front--group__hot-coffee_3 { transform-origin: 66.4% 48%; animation: hot_coffee_1 5s linear infinite 3s }
		.Front--group__hot-coffee .Front--group__hot-coffee_4 { transform-origin: 67.3% 48%; animation: hot_coffee_1 5s linear infinite 1.5s }
		.Front--group__hot-coffee .Front--group__hot-coffee_5 { transform-origin: 68.2% 48%; animation: hot_coffee_1 5s linear infinite 2.5s }
		.Front--group__hot-coffee .Front--group__hot-coffee_6 { transform-origin: 68.8% 48%; animation: hot_coffee_1 5s linear infinite 1s }
		.Front--group__hot-coffee .Front--group__hot-coffee_7 { transform-origin: 63% 48%; animation: hot_coffee_1 5s linear infinite 3.5s }
		.Front--group__hot-coffee .Front--group__hot-coffee_8 { transform-origin: 65.4% 48%; animation: hot_coffee_1 5s linear infinite 4.5s }
		.Front--group__hot-coffee .Front--group__hot-coffee_9 { transform-origin: 66.4% 48%; animation: hot_coffee_1 5s linear infinite 5s }
		.Front--group__hot-coffee .Front--group__hot-coffee_10 { transform-origin: 67.3% 48%; animation: hot_coffee_1 5s linear infinite 4s }
		@keyframes hot_coffee_1 { 0%{ transform: translateY(0) scaleX(1); opacity: 0; } 15%{ opacity: 1; } 50%{ transform: translateY(-50px) scaleX(5); } 95%{ opacity: 0; } 100%{ transform: translateY(-100px) scaleX(10); } }
	</style>

	<path
		d="M436.6 504c-4.5 5.1-10.5 7.9-17 7.9-9.1 0-18.5-5.5-24.4-14.4-7.8-11.6-15.5-21.2-22.3-27.9l-4.8-4.7c-2-2-1.1-5.3 1.6-6.1l6.5-1.7c3.2-.9 6.4-2.7 9.1-5.5 3-3 4.8-6.7 5.2-10.4V430c0-1.3 1.5-2.1 2.5-1.3l9.3 6.9c.7.5 1.7 1.1 2.9 1.7 10.2 4.9 31.7 27.4 35.7 46.7 2.1 10.1-1.2 16.5-4.3 20z"/>
	<path fill="#fc0"
		  d="M402.1 444.1c-1.5-.7-2.9-1.5-4.2-2.4-.5 5.5-3 11-7.3 15.3-3.7 3.7-8.1 6.2-12.5 7.4 8.7 8.6 17 19.8 23.2 29.1 4.5 6.7 11.6 11.1 18.3 11.1 4.1 0 8.1-1.6 11.4-5.4 13-14.8-17.3-49.6-28.9-55.1z"
		  class="st0"/>
	<path
		d="M599.1 649.5c-9 25.7-26.4 50-50.3 70.3-23.8 20.3-51.8 34.7-81 41.6-6.9 1.6-14.1 2.5-21.5 2.5-30.8 0-58.9-13.9-74.8-27-13.6-11.1-21.2-23.3-20.9-33.5.4-12 6.7-20.7 16.8-23.3 2.1-.5 4.3-.8 6.7-.8 11.2 0 27.2 6.7 38.5 25.7 7.8 13.2 22 20.1 41.1 20.1h1.2c40.7-.8 87.6-31.2 109.1-70.8 7.7-14.1 13.2-29.6 17.1-40.8 1.9-5.4 3.6-10.1 5.1-13.5 1.3-3.1 4.1-9.4 10.4-9.4 4.1 0 7.6 1.8 9.9 5 5.5 7.6 3.3 23.3-7.4 53.9z"/>
	<path fill="#f80"
		  d="M570.5 657.8c-22.7 41.7-72.5 73.9-115.5 74.7h-1.4c-21.6 0-38.3-8.4-47.4-23.8-9-15.1-22-22.1-32.1-22.1-1.7 0-3.3.2-4.8.6-7 1.8-11 7.6-11.3 16.4-.3 7.7 6.6 18 18.2 27.5 16.8 13.7 43.2 25.3 70.1 25.3 6.6 0 13.3-.7 19.8-2.3 57.2-13.5 108.5-57.4 126-107.1 5.4-15.3 16.7-49.2 4.5-49.2-4.5.1-10.8 31.8-26.1 60z"
		  class="st1"/>
	<path
		d="M649.7 531.9c-2 24-6.7 45.1-13.9 62.9-8.5 20.9-20.3 36.6-35.1 46.8-34 23.4-64.8 26-76.4 26-1.3 0-2.5 0-3.8-.1-18.4-.8-26-4.4-32.7-7.5-5.9-2.8-11-5.2-24.9-5.7-37.5-1.5-67-9.9-83.1-23.6-.2-.1-.5-.4-.9-.7-4.8-3.5-19.3-14.3-25-24.7-5.3-9.7-6.2-22.3-2.3-31.4 13.4-31.2 24.5-40.5 33.5-48 3.6-3 6.4-5.3 8.8-8.7 2.2-3.1 3.8-7.1 4.9-12.2 0-.1 0-.2.1-.3 3.9-15 3.4-34.9 2.8-56-.2-5.7-.3-11.7-.4-17.5v-.1c0-18.6 9.6-40.7 25.7-59.2 18.1-20.8 41.6-33.6 66.1-36.2 20.2-2.1 34.3-3.1 45.9-3.1 43.7 0 58.6 14.8 82.2 48.4 7.5 10.6 12.1 22.5 16 33.7 11.1 30.4 15.9 76.5 12.5 117.2z"/>
	<path fill="#fc0"
		  d="M358.5 576.7c-3 7-2.2 17.4 2 25 5.6 10.3 23 22.2 24.1 23.2 15.1 12.9 43.7 20.5 78.7 21.9 31.2 1.3 24.3 11.8 57.6 13.3 1.1 0 2.2.1 3.5.1 16.7 0 43.7-5 72.2-24.7 58-39.9 52.9-165.3 34-218.6-3.9-11.1-8.3-22.2-15.1-31.9-23.5-33.5-36.6-45.2-76.2-45.2-12.2 0-26.9 1.1-45.1 3.1-49.9 5.3-85.3 55.3-85.3 88.1.3 27.4 2.5 55.1-2.7 75.5-1.4 6.5-3.4 11.2-6 14.9-9.8 13.5-23.4 12.4-41.7 55.3z"
		  class="st0"/>
	<path
		d="M390.6 457c-5.2 5.1-11.7 8.1-17.8 8.1-8.1 0-14-5.1-15.6-13.3-1-5.4.9-11.3 5.4-16.7 5.8-6.9 14.9-12 21.7-12.1h.2c1.3 0 2.6.2 3.8.6h.2l.1.1c4.5 1.8 7.9 6.2 9.1 11.8 1.4 7.5-1.2 15.5-7.1 21.5z"/>
	<path fill="#fc0"
		  d="M385.4 451.7c4.2-4.2 6-9.6 5-14.7-.6-3.1-2.3-5.5-4.6-6.4-.4-.1-.9-.2-1.3-.2h-.1c-4 0-11.3 3.6-16.1 9.4-1.8 2.1-4.6 6.3-3.8 10.6 1.1 6 5.1 7.3 8.3 7.3 4.1 0 8.8-2.2 12.6-6z"
		  class="st0"/>
	<path
		d="M384.3 648c-2.4 3.7-6.4 5.7-11.5 5.7-1.9 0-4-.3-6.2-.8-25-6-59.3-43.6-63.6-64.5-1.9-9.4-.2-18 5-24.4 4.6-5.7 11.4-8.8 18.9-8.8 6.8 0 13.6 2.5 19.8 7.3 12.2 9.4 32.9 50.5 37.3 60.7 2.5 5.8 4.9 17.7.3 24.8z"/>
	<path fill="#fc0"
		  d="M310.1 586.8c3.8 18.2 36.2 53.6 58.1 58.8 1.7.4 3.2.6 4.5.6 3.4 0 4.7-1.3 5.4-2.3 2.3-3.5 1.5-12.1-1-17.9-6.1-13.9-25.3-50.3-35.1-57.8-4.9-3.8-10.2-5.8-15.3-5.8-5.3 0-10 2.2-13.2 6.1-3.6 4.7-4.8 11.2-3.4 18.3z"
		  class="st0"/>
	<path
		d="M413.3 399.4c-.4 4.4-3.8 8.4-11.1 12.9-4.7 3-10.2 5.5-13.9 6.5-6.5 1.7-12.3 2.6-17.3 2.6-6.7 0-10.6-1.6-12.7-2.9-4.8-3-4.4-7.2-4.2-8.5.5-3.1 2.9-5.5 5.9-6.2 3.5-.8 13.5-5.8 23.6-12.6 4.2-2.9 10.7-4.8 16.1-4.8 5.8 0 9.1 2.2 10.8 4.1 2.1 2.4 3.1 5.5 2.8 8.9z"/>
	<path fill="#f80"
		  d="M361.4 411.3c0 .3.4.7.9.9 1.1.7 3.6 1.8 8.8 1.8 4.3 0 9.5-.8 15.4-2.3 5.2-1.4 19.1-8.8 19.5-13 .1-1.3-.2-2.4-.9-3.2-1-1.1-2.8-1.7-5.3-1.7-3.9 0-8.9 1.5-11.9 3.5-8.5 5.7-20.5 12.5-26.1 13.7-.3.1-.4.2-.4.3z"
		  class="st1"/>
	<path
		d="M516.4 328.1c1.6 0 3.2 0 4.8.1 20.6.6 39.5 6.5 55.9 17 11.2 7.2 17.5 11.4 25.9 25.2 1.5 2.5 9 .8 7.9-1.1-10.1-17.6-17.5-22.3-29.8-30.3-17.7-11.4-37.8-17.6-59.7-18.2-1.6 0-3.3-.1-5-.1-1.6 0-3.3 0-4.9.1-24.3.6-47.8 6.6-67.8 17.1-20.2 10.6-37.1 26.1-48.9 44.7-7.7 12.3-10.3 23.9-7.4 33.5 2.4 7.8 7.9 12.7 12.3 14.6 1.4.6 2.9.9 4.7.9 9.3 0 34.7-9.3 45.7-24.8 8.4 4.5 17.6 6.7 28.1 6.7 12.6 0 25-3.2 36.4-6.9 3-1 3.8-2.2 3.9-4.1 0-1.3-1.2-3.6-3.8-3.5-.3 0-.7.1-1 .2-11.2 3.6-23.3 6.9-35.4 6.9-9.3 0-18.6-2-27.4-7.4-.6-.4-1.3-.5-1.9-.5-1.3 0-2.5.6-3.2 1.8l-.1.1c-7.9 14.3-33.3 24.1-41.2 24.1-.7 0-1.3-.1-1.7-.3-2.8-1.2-6.6-4.6-8.2-10-2.3-7.5 0-17 6.6-27.4 22.5-35.7 63.4-57.1 110.6-58.3 1.4-.1 3-.1 4.6-.1"/>
	<path fill="#fc0"
		  d="M516.6 399.4c-1-.4-2-.7-3-.3-19.7 6.3-42.5 12-62.8-.5-1.7-1.1-4-.5-5.1 1.2l-.1.1c-8.6 15.7-38.3 26-43 23.9-2.8-1.2-6.6-4.6-8.2-10-2.3-7.5 0-17 6.6-27.4 22.5-35.7 63.4-57.1 110.6-58.3 3.1-.1 6.3-.1 9.5 0 20.6.6 39.5 6.5 55.9 17 13.2 8.5 19.7 12.7 30.6 33.6 5.6 10.5-84.4 23.5-91 20.7z"
		  class="st0"/>
	<path
		d="M701.4 357.1c-.5 1.7-1.2 3.4-2 5.2-5 10-17.7 23-38 29.1-4.5 1.4-9.3 2-14 2h-.1c-13 0-34.2-4.9-61.6-28.3-1.9-1.7-5.1-4.8-7.1-7-2.3-2.5-2.8-6.1-1.5-9.1s4.4-5.1 7.8-5.1h.5c13.9.8 30.1 1.2 48.4 1.2 8.1 0 14.8-.1 19.3-.1h4.5c7.4 0 13.3-.1 18.2-.1 8.1 0 13.7.1 17.1.2 2.9.1 5.6 1.5 7.3 3.9 1.5 2.3 2 5.2 1.2 8.1z"/>
	<path fill="#f80"
		  d="M590.4 359.4c25.7 21.9 45.1 26.5 56.8 26.5h.1c4 0 8-.6 11.9-1.7 18.1-5.4 29.2-16.6 33.5-25.3.8-1.5 1.2-2.8 1.5-3.9.4-1.3-.6-2.6-1.9-2.7-3.3-.1-8.9-.2-16.7-.2-5.4 0-11.6 0-18.2.1-3.3 0-12.2.2-23.9.2-13.9 0-31.7-.2-48.8-1.2h-.1c-.9 0-1.5 1.1-.8 1.8 2 2.2 5 5.1 6.6 6.4z"
		  class="st1"/>
	<path
		d="M417.6 376.2c-4.1 0-7.4 3.3-7.4 7.4 0 9.9 14.8 9.9 14.8 0 0-4.1-3.3-7.4-7.4-7.4zM503.2 355.7c-4.1 0-7.4 3.3-7.4 7.4 0 9.9 14.8 9.9 14.8 0 0-4.1-3.3-7.4-7.4-7.4zM457.9 375.4c-7.4.8-12.3 2.5-15.6 4.9-5.9 4.4-4.1 9.9 2.5 10.7 6.6.8 7.1 1.2 13.2-3.3 6.5-4.9 7.3-13.1-.1-12.3z"/>
	<path fill="#fc0"
		  d="M512.4 655.2c-4.6-5.2-3.7-15.7-1.9-29.4 2.6-19.8 5-34.5 25.4-50.8 24.4-19.5 62.2-15 76.2-.5 3.6 3.7 6.7 10.9 7.3 18.8.9 11.4-22.2 42.4-44.8 51.8-22.6 9.6-54 19.3-62.2 10.1z"
		  class="st0"/>
	<path
		d="M512.4 658.9c-1.2 0-2.3-.5-3-1.6-4.7-6.7-4.5-17.2-2.6-32 2.5-19 4.6-35.5 26.8-53.2 26.8-21.4 63.7-14 78.4.7 1.4 1.4 1.4 3.8 0 5.2-1.4 1.4-3.8 1.4-5.2 0-12.5-12.5-45.4-18.7-68.6-.1-18.9 15.1-21.4 28.2-24.1 48.4-1.4 11-2.3 21.8 1.3 26.7 1.2 1.7.8 4-.9 5.2-.6.5-1.4.7-2.1.7z"/>
	<path
		d="M523.7 651.2c-.4 1.9-2 9.1-6.7 16.2-7 10.6-17.8 16.5-30.4 16.5-7.2 0-12.9-2.1-16.8-6.2-7.5-7.8-7.1-21-6.7-33.7v-.1c.2-6.4.4-13.1-.4-18.5-.7-4.4-1.8-9.1-3.1-14.5-2.4-10.2-4.6-20.1-4.3-28.7.4-10.7 4.7-18.9 12.8-24.4 3.5-2.4 7.4-3.5 11.4-3.5 9.3 0 18.9 6.2 28.7 18.6 7.1 8.9 13.1 20 15.4 28.1 6.4 21.8 4.9 34.9.1 50.2z"/>
	<path fill="#fc0"
		  d="M477 670.8c2 2.1 5.2 3.1 9.6 3.1 22.6 0 27-23.7 27.2-24.7 0-.2.1-.4.1-.6 4.4-13.9 5.7-25.2 0-44.8-3.7-13.2-21.1-39.4-34.4-39.4-2 0-4 .6-5.8 1.9-11.7 7.8-9.3 21.8-4.4 42.4 1.2 5.1 2.5 10.4 3.2 15.3 1 6.4.8 13.5.5 20.4-.2 10.6-.6 21.6 4 26.4z"
		  class="st0"/>
	<path
		d="M478 413.3c-6.4 2.9-12.4 6.6-17.6 11.1-12.1 10.6-12.6 19.4-10.8 24.8 2.5 7.7 11.1 13.4 21.9 14.6 7.1.7 16.2-1.3 26.7-3.6 13.9-3.1 29.7-6.6 42.9-3.9 19.6 4.1 33.3 15 53.1 32.7l10.3 9.2c1.5 1.3 3.9 1.2 5.2-.4 1.3-1.5 1.2-3.9-.4-5.2l-2.9-2.6c-24-21.7-39.9-36-63.8-41-14.8-3.1-31.3.6-46 3.9-9.5 2.1-18.5 4.1-24.3 3.5-7.8-.8-14.1-4.6-15.7-9.5-1.5-4.7 1.6-10.7 8.7-17 20.7-18.2 59.1-23.7 87.5-12.5 4.7 1.9 7.4-5.1 2.7-6.9-11.4-4.4-24.6-6.6-37.7-6.2-10.1.4-30.5 4.8-39.8 9z"/>
	<path fill="#fc0"
		  d="M615.4 451c11.7 12.2 17 60.3-6 41.6l-2.9-2.6c-24-21.7-39.9-36-63.8-41-14.8-3.1-31.3.6-46 3.9-9.5 2.1-18.5 4.1-24.3 3.5-7.8-.8-14.1-4.6-15.7-9.5-1.5-4.7 1.6-10.7 8.7-17 20.7-18.2 59.3-24 87.5-12.5 4.6 2 46.1 16.5 62.5 33.6z"
		  class="st0"/>

	<g class="LeftLeg--group">
		<path fill="#211816" d="M694.19 657.884c-4.613 0-8.35-3.25-8.35-7.254 0-4.006 3.737-7.251 8.35-7.251 4.956 0 10.48-5.723 10.48-13.931v-9.005c0-8.21-5.524-13.93-10.48-13.93-4.613 0-8.35-3.248-8.35-7.254 0-4.005 3.737-7.25 8.35-7.25 14.988 0 27.179 12.754 27.179 28.434v9.005c0 15.678-12.19 28.436-27.178 28.436"/>
		<path fill="#211816" d="M694.19 596.117c-2.3 0-4.243 1.44-4.243 3.146 0 1.703 1.943 3.142 4.244 3.142 7.046 0 14.585 7.25 14.585 18.038v9.003c0 10.793-7.54 18.042-14.585 18.042-2.301 0-4.244 1.44-4.244 3.145 0 1.703 1.943 3.141 4.244 3.141 12.722 0 23.069-10.914 23.069-24.328v-9.003c0-13.412-10.347-24.326-23.07-24.326zm0 65.876c-6.87 0-12.461-5.096-12.461-11.36 0-6.269 5.591-11.364 12.462-11.364 2.597 0 6.366-3.824 6.366-9.823v-9.003c0-5.994-3.77-9.82-6.366-9.82-6.87 0-12.462-5.096-12.462-11.36 0-6.266 5.591-11.364 12.462-11.364 17.253 0 31.287 14.598 31.287 32.544v9.003c0 17.945-14.034 32.547-31.287 32.547"/>
		<path fill="#fff" d="M661.087 671.238h-4.079c-8.972 0-34.26-2.739-34.26-17.806v-63.007c0-15.067 22.842-17.807 34.26-17.807h4.08c12.234 0 34.256 2.74 34.256 17.807v63.007c0 15.067-22.839 17.806-34.257 17.806"/>
		<path fill="#211816" d="M657.008 576.727c-3.087 0-30.15.387-30.15 13.698v63.007c0 11.18 22.329 13.697 30.15 13.697h4.08c3.084 0 30.147-.386 30.147-13.697v-63.007c0-13.037-25.113-13.698-30.148-13.698zm4.08 98.62h-4.08c-14.25 0-38.369-4.616-38.369-21.915v-63.007c0-16.158 19.823-21.916 38.37-21.916h4.078c24.025 0 38.366 8.19 38.366 21.916v63.007c0 16.158-19.817 21.916-38.366 21.916"/>
		<path fill="#391f16" d="M684.386 587.093c0 3.553-11.084 6.435-24.756 6.435-13.676 0-24.76-2.882-24.76-6.435 0-3.555 11.084-6.434 24.76-6.434 13.672 0 24.756 2.879 24.756 6.434"/>
		<path fill="#fff" d="M692.821 657.884c-4.613 0-8.35-3.25-8.35-7.254 0-4.006 3.737-7.251 8.35-7.251 4.956 0 10.478-5.723 10.478-13.931v-9.005c0-8.21-5.522-13.93-10.478-13.93-4.613 0-8.35-3.248-8.35-7.254 0-4.005 3.737-7.25 8.35-7.25 14.988 0 27.178 12.754 27.178 28.434v9.005c0 15.678-12.19 28.436-27.178 28.436"/>
		<path fill="#211816" d="M692.821 593.378c-3.849 0-6.983 2.638-6.983 5.885 0 3.243 3.134 5.881 6.983 5.881 5.602 0 11.845 6.283 11.845 15.299v9.003c0 9.018-6.243 15.302-11.845 15.302-3.849 0-6.983 2.638-6.983 5.885 0 3.243 3.134 5.88 6.983 5.88 14.231 0 25.808-12.144 25.808-27.067v-9.003c0-14.923-11.577-27.065-25.808-27.065zm0 65.875c-5.361 0-9.722-3.868-9.722-8.62 0-4.757 4.36-8.624 9.722-8.624 4.3 0 9.106-5.372 9.106-12.563v-9.003c0-7.188-4.805-12.56-9.106-12.56-5.361 0-9.722-3.868-9.722-8.62 0-4.757 4.36-8.624 9.722-8.624 15.74 0 28.548 13.37 28.548 29.804v9.003c0 16.437-12.807 29.807-28.548 29.807"/>
		<path fill="#403c3c" d="M633.186 627.739c0 7.588 4.098 14.147 10.037 17.255l-8.495-25.057a20.37 20.37 0 0 0-1.542 7.802m29.832-.967c0-2.37-.791-4.011-1.468-5.288-.901-1.58-1.75-2.917-1.75-4.495 0-1.764 1.243-3.402 2.991-3.402l.23.014c-3.167-3.126-7.388-5.033-12.026-5.033-6.221 0-11.695 3.435-14.878 8.64.416.014.81.025 1.145.025 1.863 0 4.748-.244 4.748-.244.958-.06 1.07 1.457.112 1.578 0 0-.964.123-2.038.183l6.484 20.769 3.898-12.586-2.772-8.183c-.962-.06-1.868-.183-1.868-.183-.962-.06-.85-1.638.112-1.578 0 0 2.94.244 4.69.244 1.863 0 4.747-.244 4.747-.244.96-.06 1.074 1.457.113 1.578 0 0-.965.123-2.038.183l6.437 20.61 1.775-6.39c.77-2.653 1.356-4.558 1.356-6.198"/>
		<path fill="#403c3c" d="m651.307 629.415-5.342 16.717a16.65 16.65 0 0 0 5.03.78 16.66 16.66 0 0 0 5.915-1.087l-.127-.263-5.476-16.147m15.317-10.872c.076.61.12 1.266.12 1.968 0 1.946-.34 4.134-1.356 6.869l-5.438 16.93c5.293-3.323 8.854-9.498 8.854-16.571 0-3.334-.791-6.468-2.18-9.196"/>
		<path fill="#403c3c" d="M650.995 649.065c-10.922 0-19.806-9.569-19.806-21.326 0-11.758 8.884-21.324 19.806-21.324s19.809 9.566 19.809 21.324c0 11.757-8.887 21.326-19.809 21.326zm0-43.675c-11.445 0-20.76 10.027-20.76 22.349 0 12.324 9.315 22.351 20.76 22.351 11.448 0 20.762-10.027 20.762-22.351 0-12.322-9.314-22.349-20.762-22.349"/>
	</g>
	<g class="Front--group">
		<g class="Front--group__hot-coffee">
			<ellipse class="Front--group__hot-coffee_1" cx="638.346" cy="574.385" rx=".598" ry="9.438" fill="white" opacity="0" style="filter: blur(4px);" />
			<ellipse class="Front--group__hot-coffee_2" cx="646.35" cy="577.271" rx=".514" ry="9.438" fill="white" opacity="0" style="filter: blur(4px);" />
			<ellipse class="Front--group__hot-coffee_3" cx="656.017" cy="577.438" rx=".514" ry="9.438" fill="white" opacity="0" style="filter: blur(4px);" />
			<ellipse class="Front--group__hot-coffee_4" cx="664.683" cy="577.438" rx=".514" ry="9.438" fill="white" opacity="0" style="filter: blur(4px);" />
			<ellipse class="Front--group__hot-coffee_5" cx="672.848" cy="576.605" rx=".681" ry="9.438" fill="white" opacity="0" style="filter: blur(4px);" />
			<ellipse class="Front--group__hot-coffee_6" cx="680.35" cy="575.105" rx=".681" ry="9.438" fill="white" opacity="0" style="filter: blur(4px);" />
			<ellipse class="Front--group__hot-coffee_7" cx="638.346" cy="574.385" rx=".598" ry="9.438" fill="white" opacity="0" style="filter: blur(4px);" />
			<ellipse class="Front--group__hot-coffee_8" cx="646.35" cy="577.271" rx=".514" ry="9.438" fill="white" opacity="0" style="filter: blur(4px);" />
			<ellipse class="Front--group__hot-coffee_9" cx="656.017" cy="577.438" rx=".514" ry="9.438" fill="white" opacity="0" style="filter: blur(4px);" />
			<ellipse class="Front--group__hot-coffee_10" cx="664.683" cy="577.438" rx=".514" ry="9.438" fill="white" opacity="0" style="filter: blur(4px);" />
		</g>
	</g>
</svg>
