<svg viewBox="0 0 1e3 1e3" xmlns="http://www.w3.org/2000/svg">
    <g class="Head--group">
        <path transform="translate(.356 -.352)" d="M615.59 190.88c0 14.15-9.67 26.04-22.77 29.4h-.01c-3.25-10.9-9.55-20.66-18.87-22.77-6.18-1.4-12.46-2.22-18.77-2.49-.19-1.35-.29-2.74-.29-4.14 0-16.76 13.59-30.35 30.36-30.35 16.76 0 30.35 13.59 30.35 30.35z" fill="#383434"/>
        <path transform="translate(.356 -.352)" d="M404.29 357.94c-.94-4.32-12.72-15.36-9.64-20.47 1.75-2.91 4.84-6.17 9.33-9.55l-.26.11c17.68-80.91 86.64-135.84 151.45-133.01 6.31.27 12.59 1.09 18.77 2.49 9.32 2.11 15.62 11.87 18.87 22.77h.01c2.47 8.3 3.17 17.25 2.1 23.98 14.83 29.79 15.76 70.78 18.95 91.2v.01c2.81 3.94 2.12 4.57 3.44 8.43 0 0-10.54 12.51-15.72 10.75-9.74-3.32-26.65-11.98-39.63-13.04-21.89-1.79-44.42-3.14-56.61-2.44-82.94 4.74-100.43 30.93-100.43 30.93z" fill="#383434"/>
        <path d="M593.176 223.628a3.7 3.7 0 0 1-3.58-2.78c-.51-1.98.69-4 2.67-4.5 11.77-3.02 19.99-13.63 19.99-25.82 0-14.69-11.96-26.65-26.65-26.65-14.7 0-26.66 11.96-26.66 26.65 0 1.2.08 2.42.25 3.63a3.713 3.713 0 0 1-3.15 4.18 3.707 3.707 0 0 1-4.18-3.15 33.05 33.05 0 0 1-.33-4.65c0-18.78 15.28-34.05 34.06-34.05s34.05 15.27 34.05 34.05c0 15.56-10.51 29.13-25.55 32.98a4.2 4.2 0 0 1-.92.11z"/>
        <path transform="translate(.356 -.352)" d="m418.59 361.14-1.98-.3c.02-.15 2.13-14.58-1.67-21.73-3.9-7.33-6.65-10.39-6.68-10.42l1.48-1.35c.12.13 2.96 3.27 6.97 10.83 4.1 7.74 1.97 22.36 1.88 22.97z" fill="#c1c1c1"/>
        <path transform="translate(.356 -.352)" d="m436.24 352.1-1.98-.3c.02-.15 2.13-14.58-1.67-21.73-3.9-7.33-6.65-10.39-6.68-10.42l1.48-1.35c.12.13 2.96 3.27 6.97 10.83 4.1 7.74 1.97 22.36 1.88 22.97z" fill="#c1c1c1"/>
        <path transform="translate(.356 -.352)" d="M455.45 346.88c0-.18-.06-17.72-3.06-25-3.01-7.32-5.17-10.42-5.19-10.45l1.44-1.01c.09.13 2.28 3.26 5.38 10.8 3.13 7.6 3.19 24.93 3.19 25.66z" fill="#c1c1c1"/>
        <path transform="translate(.356 -.352)" d="m479.91 340.13-1.63-.66c.03-.07 2.81-7.32-2.03-21.2-2.62-7.52-6.29-13.92-6.33-13.99l1.52-.88c.04.07 3.79 6.61 6.46 14.29 5.1 14.59 2.14 22.13 2.01 22.44z" fill="#c1c1c1"/>
        <path transform="translate(.356 -.352)" d="M503.57 335.52c-1.22-22.67-8.22-35.44-8.29-35.57l1.54-.86c.3.53 7.27 13.22 8.52 36.34z" fill="#c1c1c1"/>
        <path transform="translate(.356 -.352)" d="M531.97 335.6c-3.33-21.87-8.31-35.65-8.36-35.78l1.65-.6c.05.14 5.09 14.06 8.45 36.12z" fill="#c1c1c1"/>
        <path transform="translate(.356 -.352)" d="M555.76 338.81c-3.36-22.06-2.64-38.24-2.63-38.4l1.76.08c-.01.16-.72 16.18 2.61 38.06z" fill="#c1c1c1"/>
        <path transform="translate(.356 -.352)" d="M580.47 344.9c-3.38-22.26 2.41-33.89 2.65-34.38l1.57.8c-.06.11-5.77 11.67-2.48 33.31z" fill="#c1c1c1"/>
        <path transform="translate(.356 -.352)" d="m597.48 351.5-1.65-.6c3.74-10.25 13.35-20.27 13.75-20.69l1.27 1.22c-.1.1-9.76 10.18-13.37 20.07z" fill="#c1c1c1"/>
        <path d="M407.476 373.668c-.93 0-1.86-.37-2.55-1.1a3.514 3.514 0 0 1 .15-4.95c8.81-8.27 30.53-20.6 62.77-28.11 24.47-5.7 62.61-10.27 105.39.34 8.91 2.21 17.65 5.6 25.98 10.08 1.94 1.04 3.35 1.85 4.31 2.48 1.29.84 1.68 1.09 6.53-4.17l1.09-1.17c3.86-4.15 3.17-5.32 2.5-6.45-14.96-25.22-57.66-47.01-119.35-38.85-32.84 4.34-56.01 12.68-69.67 18.91-17.16 7.82-25.28 15.04-26.36 17.75-.56 2.03 4.45 9.46 6.59 12.63 2.85 4.22 4.49 6.72 4.95 8.85.41 1.89-.79 3.75-2.68 4.16-1.89.41-3.75-.79-4.16-2.67-.25-.99-2.36-4.13-3.91-6.42-4.62-6.84-9.39-13.91-7.29-19.15 4.19-10.44 41.73-33.07 101.61-40.99 64.86-8.58 110.16 15.02 126.29 42.22 4.04 6.81-1.17 12.4-3.39 14.79l-1.06 1.15c-4.35 4.72-8.85 9.6-15.49 5.3-.54-.35-1.64-1.02-3.82-2.19-7.82-4.21-16.01-7.39-24.35-9.46-73.95-18.34-142.85 8.39-161.68 26.08-.68.63-1.54.94-2.4.94z"/>
        <path d="M614.226 338.618a3.49 3.49 0 0 1-3.45-2.96c-.74-4.73-1.34-10.39-2.04-16.95-3.09-29.01-7.76-72.86-32.02-94.02a3.5 3.5 0 0 1-.34-4.94 3.5 3.5 0 0 1 4.94-.34c26.34 22.96 31.18 68.45 34.38 98.55.69 6.46 1.28 12.04 2 16.61.3 1.91-1.01 3.7-2.92 4-.19.04-.38.05-.55.05z"/>
        <path d="m404.09 331.18a3.5 3.5 0 0 1-3.42-4.25c10.33-47.3 38.66-88.68 77.72-113.53 31.07-19.76 65.41-26.74 96.69-19.66 18.53 4.2 26.5 33.39 23.64 50.87a3.499 3.499 0 0 1-4.02 2.89 3.499 3.499 0 0 1-2.89-4.02c2.41-14.71-4.36-39.76-18.27-42.91-29.45-6.67-61.91-0.01-91.39 18.74-37.5 23.85-64.7 63.62-74.64 109.11a3.526 3.526 0 0 1-3.42 2.76z"/>
        <path transform="translate(.356 -.352)" d="M563.54 271.68c6.42 1.25 18.77 4.29 29.06 10.54 1.17.71 1.88 1.98 1.86 3.35l-.19 13.48c-.04 2.86-3.07 4.67-5.61 3.36-6.39-3.28-17.32-8.31-27.19-10.03-1.9-.33-3.24-2.04-3.15-3.96l.63-13.16a3.85 3.85 0 0 1 4.59-3.58z" fill="#c1c1c1"/>
        <path d="M407.466 373.878c-.65 0-1.31-.17-1.91-.53-4.67-2.81-3.67-8.52-2.8-13.55.69-3.93 1.46-8.39.22-12.09a3.7 3.7 0 0 1 2.33-4.68c1.94-.65 4.04.4 4.68 2.33 1.83 5.48.85 11.15.05 15.71-.35 2.04-.88 5.08-.56 6.01a3.706 3.706 0 0 1 1.15 5.01 3.658 3.658 0 0 1-3.16 1.79z"/>
    </g>
</svg>
