<svg viewBox="0 0 1e3 1e3" xmlns="http://www.w3.org/2000/svg">
    <path d="M436.6 504c-4.5 5.1-10.5 7.9-17 7.9-9.1 0-18.5-5.5-24.4-14.4-7.8-11.6-15.5-21.2-22.3-27.9l-4.8-4.7c-2-2-1.1-5.3 1.6-6.1l6.5-1.7c3.2-.9 6.4-2.7 9.1-5.5 3-3 4.8-6.7 5.2-10.4V430c0-1.3 1.5-2.1 2.5-1.3l9.3 6.9c.7.5 1.7 1.1 2.9 1.7 10.2 4.9 31.7 27.4 35.7 46.7 2.1 10.1-1.2 16.5-4.3 20z"/>
    <path d="M402.1 444.1c-1.5-.7-2.9-1.5-4.2-2.4-.5 5.5-3 11-7.3 15.3-3.7 3.7-8.1 6.2-12.5 7.4 8.7 8.6 17 19.8 23.2 29.1 4.5 6.7 11.6 11.1 18.3 11.1 4.1 0 8.1-1.6 11.4-5.4 13-14.8-17.3-49.6-28.9-55.1z" fill="#fc0"/>
    <path d="M599.1 649.5c-9 25.7-26.4 50-50.3 70.3-23.8 20.3-51.8 34.7-81 41.6-6.9 1.6-14.1 2.5-21.5 2.5-30.8 0-58.9-13.9-74.8-27-13.6-11.1-21.2-23.3-20.9-33.5.4-12 6.7-20.7 16.8-23.3 2.1-.5 4.3-.8 6.7-.8 11.2 0 27.2 6.7 38.5 25.7 7.8 13.2 22 20.1 41.1 20.1h1.2c40.7-.8 87.6-31.2 109.1-70.8 7.7-14.1 13.2-29.6 17.1-40.8 1.9-5.4 3.6-10.1 5.1-13.5 1.3-3.1 4.1-9.4 10.4-9.4 4.1 0 7.6 1.8 9.9 5 5.5 7.6 3.3 23.3-7.4 53.9z"/>
    <path d="M570.5 657.8c-22.7 41.7-72.5 73.9-115.5 74.7h-1.4c-21.6 0-38.3-8.4-47.4-23.8-9-15.1-22-22.1-32.1-22.1-1.7 0-3.3.2-4.8.6-7 1.8-11 7.6-11.3 16.4-.3 7.7 6.6 18 18.2 27.5 16.8 13.7 43.2 25.3 70.1 25.3 6.6 0 13.3-.7 19.8-2.3 57.2-13.5 108.5-57.4 126-107.1 5.4-15.3 16.7-49.2 4.5-49.2-4.5.1-10.8 31.8-26.1 60z" fill="#f80"/>
    <path d="M649.7 531.9c-2 24-6.7 45.1-13.9 62.9-8.5 20.9-20.3 36.6-35.1 46.8-34 23.4-64.8 26-76.4 26-1.3 0-2.5 0-3.8-.1-18.4-.8-26-4.4-32.7-7.5-5.9-2.8-11-5.2-24.9-5.7-37.5-1.5-67-9.9-83.1-23.6-.2-.1-.5-.4-.9-.7-4.8-3.5-19.3-14.3-25-24.7-5.3-9.7-6.2-22.3-2.3-31.4 13.4-31.2 24.5-40.5 33.5-48 3.6-3 6.4-5.3 8.8-8.7 2.2-3.1 3.8-7.1 4.9-12.2 0-.1 0-.2.1-.3 3.9-15 3.4-34.9 2.8-56-.2-5.7-.3-11.7-.4-17.5v-.1c0-18.6 9.6-40.7 25.7-59.2 18.1-20.8 41.6-33.6 66.1-36.2 20.2-2.1 34.3-3.1 45.9-3.1 43.7 0 58.6 14.8 82.2 48.4 7.5 10.6 12.1 22.5 16 33.7 11.1 30.4 15.9 76.5 12.5 117.2z"/>
    <path d="M358.5 576.7c-3 7-2.2 17.4 2 25 5.6 10.3 23 22.2 24.1 23.2 15.1 12.9 43.7 20.5 78.7 21.9 31.2 1.3 24.3 11.8 57.6 13.3 1.1 0 2.2.1 3.5.1 16.7 0 43.7-5 72.2-24.7 58-39.9 52.9-165.3 34-218.6-3.9-11.1-8.3-22.2-15.1-31.9-23.5-33.5-36.6-45.2-76.2-45.2-12.2 0-26.9 1.1-45.1 3.1-49.9 5.3-85.3 55.3-85.3 88.1.3 27.4 2.5 55.1-2.7 75.5-1.4 6.5-3.4 11.2-6 14.9-9.8 13.5-23.4 12.4-41.7 55.3z" fill="#fc0"/>
    <path d="M384.3 648c-2.4 3.7-6.4 5.7-11.5 5.7-1.9 0-4-.3-6.2-.8-25-6-59.3-43.6-63.6-64.5-1.9-9.4-.2-18 5-24.4 4.6-5.7 11.4-8.8 18.9-8.8 6.8 0 13.6 2.5 19.8 7.3 12.2 9.4 32.9 50.5 37.3 60.7 2.5 5.8 4.9 17.7.3 24.8z"/>
    <path d="M310.1 586.8c3.8 18.2 36.2 53.6 58.1 58.8 1.7.4 3.2.6 4.5.6 3.4 0 4.7-1.3 5.4-2.3 2.3-3.5 1.5-12.1-1-17.9-6.1-13.9-25.3-50.3-35.1-57.8-4.9-3.8-10.2-5.8-15.3-5.8-5.3 0-10 2.2-13.2 6.1-3.6 4.7-4.8 11.2-3.4 18.3z" fill="#fc0"/>
    <path d="M413.3 399.4c-.4 4.4-3.8 8.4-11.1 12.9-4.7 3-10.2 5.5-13.9 6.5-6.5 1.7-12.3 2.6-17.3 2.6-6.7 0-10.6-1.6-12.7-2.9-4.8-3-4.4-7.2-4.2-8.5.5-3.1 2.9-5.5 5.9-6.2 3.5-.8 13.5-5.8 23.6-12.6 4.2-2.9 10.7-4.8 16.1-4.8 5.8 0 9.1 2.2 10.8 4.1 2.1 2.4 3.1 5.5 2.8 8.9z"/>
    <path d="M361.4 411.3c0 .3.4.7.9.9 1.1.7 3.6 1.8 8.8 1.8 4.3 0 9.5-.8 15.4-2.3 5.2-1.4 19.1-8.8 19.5-13 .1-1.3-.2-2.4-.9-3.2-1-1.1-2.8-1.7-5.3-1.7-3.9 0-8.9 1.5-11.9 3.5-8.5 5.7-20.5 12.5-26.1 13.7-.3.1-.4.2-.4.3z" fill="#f80"/>
    <path d="M516.4 328.1c1.6 0 3.2 0 4.8.1 20.6.6 39.5 6.5 55.9 17 11.2 7.2 17.5 11.4 25.9 25.2 1.5 2.5 9 .8 7.9-1.1-10.1-17.6-17.5-22.3-29.8-30.3-17.7-11.4-37.8-17.6-59.7-18.2-1.6 0-3.3-.1-5-.1-1.6 0-3.3 0-4.9.1-24.3.6-47.8 6.6-67.8 17.1-20.2 10.6-37.1 26.1-48.9 44.7-7.7 12.3-10.3 23.9-7.4 33.5 2.4 7.8 7.9 12.7 12.3 14.6 1.4.6 2.9.9 4.7.9 9.3 0 34.7-9.3 45.7-24.8 8.4 4.5 17.6 6.7 28.1 6.7 12.6 0 25-3.2 36.4-6.9 3-1 3.8-2.2 3.9-4.1 0-1.3-1.2-3.6-3.8-3.5-.3 0-.7.1-1 .2-11.2 3.6-23.3 6.9-35.4 6.9-9.3 0-18.6-2-27.4-7.4-.6-.4-1.3-.5-1.9-.5-1.3 0-2.5.6-3.2 1.8l-.1.1c-7.9 14.3-33.3 24.1-41.2 24.1-.7 0-1.3-.1-1.7-.3-2.8-1.2-6.6-4.6-8.2-10-2.3-7.5 0-17 6.6-27.4 22.5-35.7 63.4-57.1 110.6-58.3 1.4-.1 3-.1 4.6-.1"/>
    <path d="M516.6 399.4c-1-.4-2-.7-3-.3-19.7 6.3-42.5 12-62.8-.5-1.7-1.1-4-.5-5.1 1.2l-.1.1c-8.6 15.7-38.3 26-43 23.9-2.8-1.2-6.6-4.6-8.2-10-2.3-7.5 0-17 6.6-27.4 22.5-35.7 63.4-57.1 110.6-58.3 3.1-.1 6.3-.1 9.5 0 20.6.6 39.5 6.5 55.9 17 13.2 8.5 19.7 12.7 30.6 33.6 5.6 10.5-84.4 23.5-91 20.7z" fill="#fc0"/>
    <path d="M615.946 190.528c0 14.15-9.67 26.04-22.77 29.4h-.01c-3.25-10.9-9.55-20.66-18.87-22.77-6.18-1.4-12.46-2.22-18.77-2.49-.19-1.35-.29-2.74-.29-4.14 0-16.76 13.59-30.35 30.36-30.35 16.76 0 30.35 13.59 30.35 30.35z" fill="#383434"/>
    <path d="M404.646 357.588c-.94-4.32-12.72-15.36-9.64-20.47 1.75-2.91 4.84-6.17 9.33-9.55l-.26.11c17.68-80.91 86.64-135.84 151.45-133.01 6.31.27 12.59 1.09 18.77 2.49 9.32 2.11 15.62 11.87 18.87 22.77h.01c2.47 8.3 3.17 17.25 2.1 23.98 14.83 29.79 15.76 70.78 18.95 91.2v.01c2.81 3.94 2.12 4.57 3.44 8.43 0 0-10.54 12.51-15.72 10.75-9.74-3.32-26.65-11.98-39.63-13.04-21.89-1.79-44.42-3.14-56.61-2.44-82.94 4.74-100.43 30.93-100.43 30.93z" fill="#383434"/>
    <path d="M593.176 223.628a3.7 3.7 0 0 1-3.58-2.78c-.51-1.98.69-4 2.67-4.5 11.77-3.02 19.99-13.63 19.99-25.82 0-14.69-11.96-26.65-26.65-26.65-14.7 0-26.66 11.96-26.66 26.65 0 1.2.08 2.42.25 3.63a3.713 3.713 0 0 1-3.15 4.18 3.707 3.707 0 0 1-4.18-3.15 33.05 33.05 0 0 1-.33-4.65c0-18.78 15.28-34.05 34.06-34.05s34.05 15.27 34.05 34.05c0 15.56-10.51 29.13-25.55 32.98a4.2 4.2 0 0 1-.92.11z"/>
    <path d="m418.95 360.79-1.98-0.3c0.02-0.15 2.13-14.58-1.67-21.73-3.9-7.33-6.65-10.39-6.68-10.42l1.48-1.35c0.12 0.13 2.96 3.27 6.97 10.83 4.1 7.74 1.97 22.36 1.88 22.97zm17.65-9.04-1.98-0.3c0.02-0.15 2.13-14.58-1.67-21.73-3.9-7.33-6.65-10.39-6.68-10.42l1.48-1.35c0.12 0.13 2.96 3.27 6.97 10.83 4.1 7.74 1.97 22.36 1.88 22.97zm19.21-5.22c0-0.18-0.06-17.72-3.06-25-3.01-7.32-5.17-10.42-5.19-10.45l1.44-1.01c0.09 0.13 2.28 3.26 5.38 10.8 3.13 7.6 3.19 24.93 3.19 25.66zm24.46-6.75-1.63-0.66c0.03-0.07 2.81-7.32-2.03-21.2-2.62-7.52-6.29-13.92-6.33-13.99l1.52-0.88c0.04 0.07 3.79 6.61 6.46 14.29 5.1 14.59 2.14 22.13 2.01 22.44zm23.66-4.61c-1.22-22.67-8.22-35.44-8.29-35.57l1.54-0.86c0.3 0.53 7.27 13.22 8.52 36.34zm28.4 0.08c-3.33-21.87-8.31-35.65-8.36-35.78l1.65-0.6c0.05 0.14 5.09 14.06 8.45 36.12zm23.79 3.21c-3.36-22.06-2.64-38.24-2.63-38.4l1.76 0.08c-0.01 0.16-0.72 16.18 2.61 38.06zm24.71 6.09c-3.38-22.26 2.41-33.89 2.65-34.38l1.57 0.8c-0.06 0.11-5.77 11.67-2.48 33.31zm17.01 6.6-1.65-0.6c3.74-10.25 13.35-20.27 13.75-20.69l1.27 1.22c-0.1 0.1-9.76 10.18-13.37 20.07z" fill="#c1c1c1"/>
    <path d="M407.476 373.668c-.93 0-1.86-.37-2.55-1.1a3.514 3.514 0 0 1 .15-4.95c8.81-8.27 30.53-20.6 62.77-28.11 24.47-5.7 62.61-10.27 105.39.34 8.91 2.21 17.65 5.6 25.98 10.08 1.94 1.04 3.35 1.85 4.31 2.48 1.29.84 1.68 1.09 6.53-4.17l1.09-1.17c3.86-4.15 3.17-5.32 2.5-6.45-14.96-25.22-57.66-47.01-119.35-38.85-32.84 4.34-56.01 12.68-69.67 18.91-17.16 7.82-25.28 15.04-26.36 17.75-.56 2.03 4.45 9.46 6.59 12.63 2.85 4.22 4.49 6.72 4.95 8.85.41 1.89-.79 3.75-2.68 4.16-1.89.41-3.75-.79-4.16-2.67-.25-.99-2.36-4.13-3.91-6.42-4.62-6.84-9.39-13.91-7.29-19.15 4.19-10.44 41.73-33.07 101.61-40.99 64.86-8.58 110.16 15.02 126.29 42.22 4.04 6.81-1.17 12.4-3.39 14.79l-1.06 1.15c-4.35 4.72-8.85 9.6-15.49 5.3-.54-.35-1.64-1.02-3.82-2.19-7.82-4.21-16.01-7.39-24.35-9.46-73.95-18.34-142.85 8.39-161.68 26.08-.68.63-1.54.94-2.4.94z"/>
    <path d="M614.226 338.618a3.49 3.49 0 0 1-3.45-2.96c-.74-4.73-1.34-10.39-2.04-16.95-3.09-29.01-7.76-72.86-32.02-94.02a3.5 3.5 0 0 1-.34-4.94 3.5 3.5 0 0 1 4.94-.34c26.34 22.96 31.18 68.45 34.38 98.55.69 6.46 1.28 12.04 2 16.61.3 1.91-1.01 3.7-2.92 4-.19.04-.38.05-.55.05z"/>
    <path d="M404.09 331.18a3.5 3.5 0 0 1-3.42-4.25c10.33-47.3 38.66-88.68 77.72-113.53 31.07-19.76 65.41-26.74 96.69-19.66 18.53 4.2 26.5 33.39 23.64 50.87a3.499 3.499 0 0 1-4.02 2.89 3.499 3.499 0 0 1-2.89-4.02c2.41-14.71-4.36-39.76-18.27-42.91-29.45-6.67-61.91-.01-91.39 18.74-37.5 23.85-64.7 63.62-74.64 109.11a3.526 3.526 0 0 1-3.42 2.76z"/>
    <path d="M563.896 271.328c6.42 1.25 18.77 4.29 29.06 10.54 1.17.71 1.88 1.98 1.86 3.35l-.19 13.48c-.04 2.86-3.07 4.67-5.61 3.36-6.39-3.28-17.32-8.31-27.19-10.03-1.9-.33-3.24-2.04-3.15-3.96l.63-13.16a3.85 3.85 0 0 1 4.59-3.58z" fill="#c1c1c1"/>
    <path d="M407.466 373.878c-.65 0-1.31-.17-1.91-.53-4.67-2.81-3.67-8.52-2.8-13.55.69-3.93 1.46-8.39.22-12.09a3.7 3.7 0 0 1 2.33-4.68c1.94-.65 4.04.4 4.68 2.33 1.83 5.48.85 11.15.05 15.71-.35 2.04-.88 5.08-.56 6.01a3.706 3.706 0 0 1 1.15 5.01 3.658 3.658 0 0 1-3.16 1.79z"/>
    <path d="M701.4 357.1c-.5 1.7-1.2 3.4-2 5.2-5 10-17.7 23-38 29.1-4.5 1.4-9.3 2-14 2h-.1c-13 0-34.2-4.9-61.6-28.3-1.9-1.7-5.1-4.8-7.1-7-2.3-2.5-2.8-6.1-1.5-9.1s4.4-5.1 7.8-5.1h.5c13.9.8 30.1 1.2 48.4 1.2 8.1 0 14.8-.1 19.3-.1h4.5c7.4 0 13.3-.1 18.2-.1 8.1 0 13.7.1 17.1.2 2.9.1 5.6 1.5 7.3 3.9 1.5 2.3 2 5.2 1.2 8.1z"/>
    <path d="M590.4 359.4c25.7 21.9 45.1 26.5 56.8 26.5h.1c4 0 8-.6 11.9-1.7 18.1-5.4 29.2-16.6 33.5-25.3.8-1.5 1.2-2.8 1.5-3.9.4-1.3-.6-2.6-1.9-2.7-3.3-.1-8.9-.2-16.7-.2-5.4 0-11.6 0-18.2.1-3.3 0-12.2.2-23.9.2-13.9 0-31.7-.2-48.8-1.2h-.1c-.9 0-1.5 1.1-.8 1.8 2 2.2 5 5.1 6.6 6.4z" fill="#f80"/>
    <path d="m417.6 376.2c-4.1 0-7.4 3.3-7.4 7.4 0 9.9 14.8 9.9 14.8 0 0-4.1-3.3-7.4-7.4-7.4zm85.6-20.5c-4.1 0-7.4 3.3-7.4 7.4 0 9.9 14.8 9.9 14.8 0 0-4.1-3.3-7.4-7.4-7.4zm-45.3 19.7c-7.4 0.8-12.3 2.5-15.6 4.9-5.9 4.4-4.1 9.9 2.5 10.7s7.1 1.2 13.2-3.3c6.5-4.9 7.3-13.1-0.1-12.3z"/>
    <path d="M512.4 655.2c-4.6-5.2-3.7-15.7-1.9-29.4 2.6-19.8 5-34.5 25.4-50.8 24.4-19.5 62.2-15 76.2-.5 3.6 3.7 6.7 10.9 7.3 18.8.9 11.4-22.2 42.4-44.8 51.8-22.6 9.6-54 19.3-62.2 10.1z" fill="#fc0"/>
    <path d="M512.4 658.9c-1.2 0-2.3-.5-3-1.6-4.7-6.7-4.5-17.2-2.6-32 2.5-19 4.6-35.5 26.8-53.2 26.8-21.4 63.7-14 78.4.7 1.4 1.4 1.4 3.8 0 5.2-1.4 1.4-3.8 1.4-5.2 0-12.5-12.5-45.4-18.7-68.6-.1-18.9 15.1-21.4 28.2-24.1 48.4-1.4 11-2.3 21.8 1.3 26.7 1.2 1.7.8 4-.9 5.2-.6.5-1.4.7-2.1.7z"/>
    <path d="M523.7 651.2c-.4 1.9-2 9.1-6.7 16.2-7 10.6-17.8 16.5-30.4 16.5-7.2 0-12.9-2.1-16.8-6.2-7.5-7.8-7.1-21-6.7-33.7v-.1c.2-6.4.4-13.1-.4-18.5-.7-4.4-1.8-9.1-3.1-14.5-2.4-10.2-4.6-20.1-4.3-28.7.4-10.7 4.7-18.9 12.8-24.4 3.5-2.4 7.4-3.5 11.4-3.5 9.3 0 18.9 6.2 28.7 18.6 7.1 8.9 13.1 20 15.4 28.1 6.4 21.8 4.9 34.9.1 50.2z"/>
    <path d="M477 670.8c2 2.1 5.2 3.1 9.6 3.1 22.6 0 27-23.7 27.2-24.7 0-.2.1-.4.1-.6 4.4-13.9 5.7-25.2 0-44.8-3.7-13.2-21.1-39.4-34.4-39.4-2 0-4 .6-5.8 1.9-11.7 7.8-9.3 21.8-4.4 42.4 1.2 5.1 2.5 10.4 3.2 15.3 1 6.4.8 13.5.5 20.4-.2 10.6-.6 21.6 4 26.4z" fill="#fc0"/>
    <path d="M478 413.3c-6.4 2.9-12.4 6.6-17.6 11.1-12.1 10.6-12.6 19.4-10.8 24.8 2.5 7.7 11.1 13.4 21.9 14.6 7.1.7 16.2-1.3 26.7-3.6 13.9-3.1 29.7-6.6 42.9-3.9 19.6 4.1 33.3 15 53.1 32.7l10.3 9.2c1.5 1.3 3.9 1.2 5.2-.4 1.3-1.5 1.2-3.9-.4-5.2l-2.9-2.6c-24-21.7-39.9-36-63.8-41-14.8-3.1-31.3.6-46 3.9-9.5 2.1-18.5 4.1-24.3 3.5-7.8-.8-14.1-4.6-15.7-9.5-1.5-4.7 1.6-10.7 8.7-17 20.7-18.2 59.1-23.7 87.5-12.5 4.7 1.9 7.4-5.1 2.7-6.9-11.4-4.4-24.6-6.6-37.7-6.2-10.1.4-30.5 4.8-39.8 9z"/>
    <path d="M615.4 451c11.7 12.2 17 60.3-6 41.6l-2.9-2.6c-24-21.7-39.9-36-63.8-41-14.8-3.1-31.3.6-46 3.9-9.5 2.1-18.5 4.1-24.3 3.5-7.8-.8-14.1-4.6-15.7-9.5-1.5-4.7 1.6-10.7 8.7-17 20.7-18.2 59.3-24 87.5-12.5 4.6 2 46.1 16.5 62.5 33.6z" fill="#fc0"/>
    <path d="M390.6 457c-5.2 5.1-11.7 8.1-17.8 8.1-8.1 0-14-5.1-15.6-13.3-1-5.4.9-11.3 5.4-16.7 5.8-6.9 14.9-12 21.7-12.1h.2c1.3 0 2.6.2 3.8.6h.2l.1.1c4.5 1.8 7.9 6.2 9.1 11.8 1.4 7.5-1.2 15.5-7.1 21.5z"/>
    <path d="M385.4 451.7c4.2-4.2 6-9.6 5-14.7-.6-3.1-2.3-5.5-4.6-6.4-.4-.1-.9-.2-1.3-.2h-.1c-4 0-11.3 3.6-16.1 9.4-1.8 2.1-4.6 6.3-3.8 10.6 1.1 6 5.1 7.3 8.3 7.3 4.1 0 8.8-2.2 12.6-6z" fill="#fc0"/>
</svg>
