<svg xmlns="http://www.w3.org/2000/svg" viewBox="0 0 1000 1000">
    <g class="LeftLeg--group">
        <path d="M239.7 479.1s-10.3-24.6-12.2-35.1c6.6 6.3 63.164-5.571 63.164-5.571l-2.979 38.025c-15.9 6.5-34.685 7.646-47.985 2.646Z"
              style="fill:#995939;stroke:#000;stroke-width:4;stroke-linecap:square;stroke-linejoin:round;stroke-miterlimit:10"
              transform="rotate(.895 14293.439 -2405.174) scale(1.82724)"/>
        <path d="M266.805 446.952s3.895 29.553.795 32.953c4.4 0 19.861-3.748 19.861-3.748l2.432-33.821z"
              style="display:inline;fill:#723c25" transform="rotate(.895 14293.439 -2405.174) scale(1.82724)"/>
        <path d="M239.7 479.1s-10.3-24.6-12.2-35.1c6.6 6.3 63.164-5.571 63.164-5.571l-2.979 38.025c-15.9 6.5-34.685 7.646-47.985 2.646Z"
              style="fill:none;stroke:#000;stroke-width:4;stroke-linecap:square;stroke-linejoin:round;stroke-miterlimit:10;stroke-opacity:1"
              transform="rotate(.895 14293.439 -2405.174) scale(1.82724)"/>
        <path d="M223.2 444.6s-2.7-6.2-4.7-16.7c11.3-10.6 63.9-16.3 75-8.3l-3.6 21c-23.2 5.8-48.8 9.2-66.7 4z"
              style="fill:#4c2d1b;stroke:#000;stroke-width:4;stroke-linecap:square;stroke-linejoin:round;stroke-miterlimit:10"
              transform="rotate(.895 14293.439 -2405.174) scale(1.82724)"/>
        <path d="M228.3 427.5s.7-7.2 7.7-9c1.6-6.1 9.3-8.1 12.9-5 0-4 8.4-7.5 12.1-3.6 4.8-1.5 10.9.2 12 3.7 5.1-1.1 11.3 3 10.4 6.8 3.5-.8 3.5.6 3.5.6l4.3 6.5-31.3 2.5-32.3 3.9z"
              style="fill:#4c3818;stroke:#000;stroke-width:3;stroke-linecap:round;stroke-linejoin:round;stroke-miterlimit:10"
              transform="rotate(.895 14293.439 -2405.174) scale(1.82724)"/>
        <path d="M223.2 444.6s-2.7-6.2-4.7-16.7c16.4 5.8 54.9 3.5 74.5-7.6l1.5 19.2c-23.1 5.9-46.5 12.5-71.3 5.1z"
              style="display:inline;fill:#995939;stroke:none;stroke-width:4;stroke-linecap:square;stroke-linejoin:round;stroke-miterlimit:10"
              transform="rotate(.895 14293.439 -2405.174) scale(1.82724)"/>
        <path d="M267.068 430.203c.5 1.9 2.21 9.616 2.11 13.916 3.677-.276 11.861-2.936 24.136-6.11 0 0-.614-9.609-1.914-14.609-10 4.4-19.032 5.703-24.332 6.803z"
              style="display:inline;fill:#723c25" transform="rotate(.895 14293.439 -2405.174) scale(1.82724)"/>
        <path d="M223.2 444.6s-2.7-6.2-4.7-16.7c16.4 5.8 54.9 3.5 74.5-7.6l1.5 19.2c-23.1 5.9-46.5 12.5-71.3 5.1z"
              style="display:inline;fill:none;fill-opacity:1;stroke:#000;stroke-width:4;stroke-linecap:square;stroke-linejoin:round;stroke-miterlimit:10;stroke-opacity:1"
              transform="rotate(.895 14293.439 -2405.174) scale(1.82724)"/>
        <path d="M256.3 417.7s-1.5-13.6-7.2-20.3c2.2-2.8 5-2.5 6.2-7.6 1.1-4.9 1.8-9.6 6.6-13-4.2-2.5-10.6-2.3-14.3 1.8-3 3.2-5.6 9.7-5 14.8-4.9-1.9-10.6-3.7-16.2 1.7 4.6 8.3 9.3 5.8 17.5 6.8 4.2 4.8 6.8 12.8 6.8 16.5 2.2 1.4 5.6-.7 5.6-.7z"
              style="fill:#61b729" transform="rotate(.895 14293.439 -2405.174) scale(1.82724)"/>
        <path d="M242.4 422.7s3.5-5.7 11.2-2.6c3-3.7 8.2-3.8 12.2-1.2"
              style="fill:none;stroke:#000;stroke-width:3;stroke-linecap:round;stroke-linejoin:round;stroke-miterlimit:10"
              transform="rotate(.895 14293.439 -2405.174) scale(1.82724)"/>
        <path d="M243.8 393.8c-4.9-1.9-11.9-4-17.5 1.3 4.6 8.3 11.3 5.8 19.4 6.8-2.6-3.1-2-4.6-1.9-8.1z"
              style="fill:#478e19" transform="rotate(.895 14293.439 -2405.174) scale(1.82724)"/>
        <path d="M413.495 551.714c-1.645-.025-3.466-.42-4.91-1.538-.723-.56-1.257-1.482-1.242-2.395.091-5.847-3.903-19.25-10.534-27.577-2.918-.411-5.658-.454-8.216-.494-9.498-.33-17.534-.64-24.456-13.722-.531-1.105-.329-2.381.6-3.28 10.382-9.524 20.947-7.348 28.58-4.67.511-9.313 5.236-19.29 10.257-24.877 8.176-8.644 21.513-8.435 29.658-3.374.722.56 1.259 1.299 1.245 2.212-.015.914-.394 1.822-1.134 2.358-7.202 4.822-8.767 11.376-10.534 19.207l-.59 2.732c-1.756 7.1-5.082 9.423-8.037 11.387-.922.534-1.664 1.254-2.403 1.79 9.478 13.306 11.681 36 11.667 36.914.166 1.1-.397 2.004-1.319 2.538-.74.537-4.43 2.855-8.632 2.79zm-.825-5.678c1.455.389 3.477-.31 4.764-.839-.822-5.86-3.643-24.18-11.713-33.991-.9-.928-.876-2.39.054-3.471 1.679-2.167 3.526-3.417 5.187-4.488 2.587-1.787 4.62-3.217 5.793-8.133.197-.91.394-1.821.588-2.55 1.57-6.92 3.325-14.019 9.26-19.591-6.183-1.924-14.053-1.133-19.072 4.27-5.016 5.222-9.757 16.295-8.792 24.717.168.916-.212 1.824-1.137 2.54-.739.537-1.838.703-2.746.323-8.715-3.608-16.72-5.926-25.047.705 5.17 8.304 10.1 8.564 18.867 8.884 2.923.046 6.209.28 9.857.702.73.012 1.273.386 1.813.942 7.539 8.707 11.893 22.481 12.324 29.98z"/>
    </g>
</svg>