<svg version="1.1" id="wapuugotchi_svg__item" viewBox="0 0 1e3 1e3" xmlns="http://www.w3.org/2000/svg">
    <g id="BeforeRightHand--group">
        <path transform="translate(21.173 29.316)" d="m433.8 397.8c9.6 9.5 6.4 47.1-18.7 72.2s-65.1 31.5-73.8 20.5c-8.7-10.9-4.5-49.1 20.6-74.1 25.1-25.1 62.7-27.8 71.9-18.6z" fill="#6d4632"/>
        <path transform="translate(21.173 29.316)" d="m433.9 396.3s15.2 45.6-17.1 75.4c-4.9 4.7-10.4 8.7-16.3 12-6 3.3-12.3 5.8-18.9 7.5-6.6 1.6-13.3 2.4-20.1 2.3s-13.6-1-20.1-2.9c-6.5-1.8 35.3-7.9 60.3-32.9 25.1-25.1 32.2-61.4 32.2-61.4z" fill="#51352a"/>
        <path transform="translate(21.173 29.316)" d="m340.7 454.7q2.7 6.1 6.5 11.7t8.6 10.3q4.7 4.8 10.3 8.6 5.6 3.7 11.7 6.4c17.6-6.1 13.7-5.9 13.7-5.9s-30.3-16.4-45.9-47.5c-5.2 11.4-4.9 16.4-4.9 16.4z" fill="#ffffff"/>
        <path transform="translate(21.173 29.316)" d="m435.7 431.5q-3.5-5.5-7.6-10.6-4.2-5.1-8.9-9.7t-9.8-8.7q-5.2-4-10.8-7.4c-17.6 6.2-13.5 6-13.5 6q6.9 4.6 13.2 10 6.4 5.3 12.1 11.3 5.8 6 10.9 12.6t9.5 13.6c5.2-11.3 4.9-17.1 4.9-17.1z" fill="#ffffff"/>
        <path transform="translate(21.173 29.316)" d="m357.1 500h-2.5c-7.7-0.4-13.4-2.6-16.5-6.5-10.5-12.9-5.3-53.8 20.8-79.9s66.4-30.1 77.9-18.7c4 4 6.2 11.3 6.2 20.6-0.2 5.3-0.8 10.7-2 15.9-1.1 5.3-2.8 10.4-4.9 15.3-2.1 5-4.7 9.7-7.7 14.1-3.1 4.5-6.5 8.6-10.3 12.4-18.8 18.5-44.2 26.8-61 26.8zm59.7-102.8c-4.9 0.2-9.7 0.8-14.4 1.8s-9.3 2.5-13.7 4.4-8.7 4.2-12.7 6.9-7.7 5.8-11.1 9.1c-23.8 23.8-27.4 59.7-20.3 68.5q1.1 0.9 2.3 1.6 1.3 0.7 2.6 1.1 1.3 0.5 2.7 0.7 1.4 0.1 2.8 0.1c15.5 0.8 40-7.4 57.1-24.5q5.1-5.1 9.2-11.1t7-12.6q2.8-6.6 4.4-13.7 1.6-7 1.9-14.3c0-6.8-1.4-12.1-3.7-14.4-2.3-2.2-7.4-3.6-14.1-3.6z" fill-rule="evenodd"/>
        <path fill="#ffffff" transform="translate(21.173 29.316)" d="m359.9 443.4c3-5 18.9-24 27.4-28.5"/>
        <path fill="#ffffff" transform="translate(21.173 29.316)" d="m358.1 434 10.4 8.7"/>
        <path fill="#ffffff" transform="translate(21.173 29.316)" d="m363.9 426.9 10.5 8.7"/>
        <path fill="#ffffff" transform="translate(21.173 29.316)" d="m370.3 420.4 10.5 8.7"/>
        <path fill="#ffffff" transform="translate(21.173 29.316)" d="m377.7 413.3 10 9.2"/>
        <path transform="translate(21.173 29.316)" d="m359.29 434.57 10.4 8.7" style="fill:none;stroke-linecap:round;stroke-width:1.5;stroke:#ffffff"/>
        <path transform="translate(21.173 29.316)" d="m365.09 427.47 10.5 8.7" style="fill:none;stroke-linecap:round;stroke-width:1.5;stroke:#ffffff"/>
        <path transform="translate(21.173 29.316)" d="m371.49 420.97 10.5 8.7" style="fill:none;stroke-linecap:round;stroke-width:1.5;stroke:#ffffff"/>
        <path transform="translate(21.173 29.316)" d="m378.89 413.87 10 9.2" style="fill:none;stroke-linecap:round;stroke-width:1.5;stroke:#ffffff"/>
    </g>
</svg>
