<svg version="1.2" xmlns="http://www.w3.org/2000/svg" viewBox="0 0 1000 1000" width="1000" height="1000"><style>.a{fill:#6d4632}.b{fill:#51352a}.c{fill:#fff}.d{fill:none;stroke:#fff;stroke-linecap:round;stroke-width:1.5}.e{fill:#ffd200}</style><path class="a" d="m433.8 397.8c9.6 9.5 6.4 47.1-18.7 72.2-25.1 25.1-65.1 31.5-73.8 20.5-8.7-10.9-4.5-49.1 20.6-74.1 25.1-25.1 62.7-27.8 71.9-18.6z"/><path class="b" d="m433.9 396.3c0 0 15.2 45.6-17.1 75.4-4.9 4.7-10.4 8.7-16.3 12-6 3.3-12.3 5.8-18.9 7.5-6.6 1.6-13.3 2.4-20.1 2.3-6.8-0.1-13.6-1-20.1-2.9-6.5-1.8 35.3-7.9 60.3-32.9 25.1-25.1 32.2-61.4 32.2-61.4z"/><path class="c" d="m340.7 454.7q2.7 6.1 6.5 11.7 3.8 5.6 8.6 10.3 4.7 4.8 10.3 8.6 5.6 3.7 11.7 6.4c17.6-6.1 13.7-5.9 13.7-5.9 0 0-30.3-16.4-45.9-47.5-5.2 11.4-4.9 16.4-4.9 16.4z"/><path class="c" d="m435.7 431.5q-3.5-5.5-7.6-10.6-4.2-5.1-8.9-9.7-4.7-4.6-9.8-8.7-5.2-4-10.8-7.4c-17.6 6.2-13.5 6-13.5 6q6.9 4.6 13.2 10 6.4 5.3 12.1 11.3 5.8 6 10.9 12.6 5.1 6.6 9.5 13.6c5.2-11.3 4.9-17.1 4.9-17.1z"/><path fill-rule="evenodd" d="m357.1 500h-2.5c-7.7-0.4-13.4-2.6-16.5-6.5-10.5-12.9-5.3-53.8 20.8-79.9 26.1-26.1 66.4-30.1 77.9-18.7 4 4 6.2 11.3 6.2 20.6-0.2 5.3-0.8 10.7-2 15.9-1.1 5.3-2.8 10.4-4.9 15.3-2.1 5-4.7 9.7-7.7 14.1-3.1 4.5-6.5 8.6-10.3 12.4-18.8 18.5-44.2 26.8-61 26.8zm59.7-102.8c-4.9 0.2-9.7 0.8-14.4 1.8-4.7 1-9.3 2.5-13.7 4.4-4.4 1.9-8.7 4.2-12.7 6.9-4 2.7-7.7 5.8-11.1 9.1-23.8 23.8-27.4 59.7-20.3 68.5q1.1 0.9 2.3 1.6 1.3 0.7 2.6 1.1 1.3 0.5 2.7 0.7 1.4 0.1 2.8 0.1c15.5 0.8 40-7.4 57.1-24.5q5.1-5.1 9.2-11.1 4.1-6 7-12.6 2.8-6.6 4.4-13.7 1.6-7 1.9-14.3c0-6.8-1.4-12.1-3.7-14.4-2.3-2.2-7.4-3.6-14.1-3.6z"/><path class="d" d="m359.9 443.4c3-5 18.9-24 27.4-28.5"/><path class="d" d="m358.1 434l10.4 8.7"/><path class="d" d="m363.9 426.9l10.5 8.7"/><path class="d" d="m370.3 420.4l10.5 8.7"/><path class="d" d="m377.7 413.3l10 9.2"/><path class="e" d="m350.7 419.6q0.1 1.4 0.7 2.5 0.6 1.2 1.5 2.1 1 0.8 2.3 1.3 1.2 0.4 2.5 0.4 1.5-0.1 3-0.5 1.5-0.4 2.9-1 1.3-0.7 2.6-1.6 1.2-0.9 2.2-2 1.3-1.2 2.2-2.6 1-1.5 1.5-3.1 0.6-1.6 0.7-3.4 0.2-1.7-0.1-3.4-0.1-0.9-0.5-1.7-0.3-0.8-0.8-1.5-0.5-0.7-1.1-1.3-0.7-0.6-1.5-1-0.1 0-0.3-0.1-0.1 0-0.3 0-0.2 0-0.3 0-0.2 0-0.3 0-2 0.3-4 1-1.9 0.6-3.6 1.7-1.8 1-3.3 2.3-1.6 1.3-2.8 2.9-0.9 0.9-1.5 2-0.7 1-1.1 2.2-0.4 1.2-0.6 2.4-0.1 1.2 0 2.4z"/><path fill-rule="evenodd" d="m357.7 432.2c-1.6 0-3.2-0.2-4.7-0.8-1.5-0.5-2.9-1.3-4.1-2.3-1.2-1.1-2.2-2.3-3-3.8-0.7-1.4-1.2-2.9-1.4-4.5q-0.3-1.9-0.1-3.8 0.2-2 0.7-3.8 0.6-1.8 1.6-3.5 1-1.7 2.3-3.1 1.7-2.1 3.8-3.9 2.1-1.8 4.5-3.1 2.4-1.3 5-2.1 2.6-0.9 5.3-1.2 0.4 0 0.8 0.1 0.5 0 0.9 0.1 0.4 0.1 0.9 0.2 0.4 0.1 0.8 0.3 1.5 0.7 2.8 1.7 1.3 1 2.3 2.3 1 1.3 1.7 2.9 0.7 1.5 0.9 3.1 0.5 2.5 0.3 5-0.2 2.5-0.9 4.9-0.8 2.4-2.2 4.5-1.3 2.1-3.2 3.9-1.4 1.5-3.1 2.8-1.8 1.2-3.7 2.1-1.9 0.9-4 1.4-2.1 0.5-4.2 0.6zm9.9-29.5q-2 0.3-4 1-1.9 0.6-3.6 1.7-1.8 1-3.3 2.3-1.6 1.3-2.8 2.9-0.9 0.9-1.5 2-0.7 1-1.1 2.2-0.4 1.2-0.6 2.4-0.1 1.2 0 2.4 0.1 1.4 0.7 2.5 0.6 1.2 1.5 2.1 1 0.8 2.3 1.3 1.2 0.4 2.5 0.4 1.5-0.1 3-0.5 1.5-0.4 2.9-1 1.3-0.7 2.6-1.6 1.2-0.9 2.2-2 1.3-1.2 2.2-2.6 1-1.5 1.5-3.1 0.6-1.6 0.7-3.4 0.2-1.7-0.1-3.4-0.1-0.9-0.5-1.7-0.3-0.8-0.8-1.5-0.5-0.7-1.1-1.3-0.7-0.6-1.5-1-0.1 0-0.3-0.1-0.1 0-0.3 0-0.2 0-0.3 0-0.2 0-0.3 0z"/></svg>