<svg version="1.1" id="wapuugotchi_svg__item" viewBox="0 0 1e3 1e3" xmlns="http://www.w3.org/2000/svg">
  <g class="Head--group">
    <path d="M634.595 274.886c-.67 0-2 .1-2 .1-17.48-23.23-69.92-74.29-108.16-74.29-21.23 0-48.19 26.37-67.06 48.48-21.09 24.71-36.39 46.1-43.87 61-.08.16-12.44 5.33-13.69 10.08-1.52 5.76-2.42 21-1.27 38.53.38 5.85 4.11 8.35 11.06 8.35a36.16 36.16 0 0 0 11.8-2.29c40.24-14.51 77.19-21.86 109.84-21.86a194.24 194.24 0 0 1 36.86 3.43c4.16.74 27.53 1.93 27.86-3.38.41-6.59 2.61-29.86-.56-46.43-.93-4.88-9.26-6.15-12.09-6.33l.89-13.81c4.85 1 18.48 11.81 23.17 15.55 1.5 1.2 2.71 2.15 3.7 2.92a23.86 23.86 0 1 0 23.52-20.05z"/>
    <path class="cls-1" d="M615.745 283.616a17.27 17.27 0 0 1 5.37-4.74 109.33 109.33 0 0 0-10.11-11.39c-23-23.18-55-51.95-84-53.33-29.3-1.4-79.31 64.5-100 98.12 44.52-15 86.68-19 119.94-19 9.39 0 14.25-.1 20.84.92 0 0 2.31-21.19 2.35-21.62.21-3.46.67-11.88 8.61-11.88 11.9 0 37 22.92 37 22.92z" fill="#a91916"/>
    <circle class="cls-3" cx="634.6" cy="298.93" r="13.16" fill="#fff"/>
    <path class="cls-3" d="M412.415 331.616c-.17-3.16.06-8.39 5.93-10.42 14-4.84 34.52-10.17 45.79-12.94 23.72-5.82 65.19-9.31 83.09-9.09 8.4.1 19.69-.06 28 2.11 6.7 1.74 7 4.62 7 10.81 0 4.6-.11 16.83-.44 21.37-.46 6.33-.13 6.85-13 5.48-41.74-4.44-68.7-2.49-124.61 11.75-6.06 1.54-30.93 9.93-31.83 3-.6-5.5.07-22.07.07-22.07z" fill="#fff"/>
    <path class="cls-7" d="m572.26 282.57s3.23-21.26 0-39.93" fill="none" stroke="#000" stroke-linecap="round" stroke-linejoin="round" stroke-width="6.7px"/>
  </g>
</svg>
