<svg xmlns="http://www.w3.org/2000/svg" xmlns:xlink="http://www.w3.org/1999/xlink" xml:space="preserve" viewBox="0 0 1000 1000">
  <g id="Background--group">
  </g>
  <g id="RightArm_1_">
    <path id="RightArm--bg" d="M436.6 504c-4.5 5.1-10.5 7.9-17 7.9-9.1 0-18.5-5.5-24.4-14.4-7.8-11.6-15.5-21.2-22.3-27.9l-4.8-4.7c-2-2-1.1-5.3 1.6-6.1l6.5-1.7c3.2-.9 6.4-2.7 9.1-5.5 3-3 4.8-6.7 5.2-10.4V430c0-1.3 1.5-2.1 2.5-1.3l9.3 6.9c.7.5 1.7 1.1 2.9 1.7 10.2 4.9 31.7 27.4 35.7 46.7 2.1 10.1-1.2 16.5-4.3 20z"/>
    <path id="RightArm" d="M402.1 444.1c-1.5-.7-2.9-1.5-4.2-2.4-.5 5.5-3 11-7.3 15.3-3.7 3.7-8.1 6.2-12.5 7.4 8.7 8.6 17 19.8 23.2 29.1 4.5 6.7 11.6 11.1 18.3 11.1 4.1 0 8.1-1.6 11.4-5.4 13-14.8-17.3-49.6-28.9-55.1z" class="st0" fill="#fc0"/>
    <g id="RightArm--group"><g class="kimono_1_LA"><path fill="#55cbe2" d="M398.9 436.9S386 475.4 386 488.2c0 8.9 2.4 11.8 6.6 13.8 0 0 24 14.5 50.1 15.2 26 .6.5-65.3-43.8-80.3z"/><path
            d="m 443,520.2 c -0.1,0 -0.3,0 -0.4,0 -25.9,-0.6 -47.9,-13 -49.9,-14.1 -4.5,-2.2 -9.7,-7 -9.7,-17.9 0,-13.1 12.6,-50.7 13.1,-52.3 l 1,-2.9 2.9,1 c 21.6,7.3 35.9,24.8 42.5,34.5 9.9,14.6 15.2,30.5 13.4,40.5 -1.4,7.1 -6,11.2 -12.9,11.2 z m -42.2,-79.4 c -3,9.2 -11.8,37.3 -11.8,47.4 0,6.3 2.1,10.5 6.4,12.5 l 0.2,0.1 c 0.2,0.1 22.1,12.7 47.1,13.3 4.1,0.1 6.4,-1.8 7.2,-6.1 2.7,-15.7 -17.7,-54.7 -49.1,-67.2 z"/></g></g>
      </g>
  <g id="Tail--group">
    <path id="Tail--bg" d="M599.1 649.5c-9 25.7-26.4 50-50.3 70.3-23.8 20.3-51.8 34.7-81 41.6-6.9 1.6-14.1 2.5-21.5 2.5-30.8 0-58.9-13.9-74.8-27-13.6-11.1-21.2-23.3-20.9-33.5.4-12 6.7-20.7 16.8-23.3 2.1-.5 4.3-.8 6.7-.8 11.2 0 27.2 6.7 38.5 25.7 7.8 13.2 22 20.1 41.1 20.1h1.2c40.7-.8 87.6-31.2 109.1-70.8 7.7-14.1 13.2-29.6 17.1-40.8 1.9-5.4 3.6-10.1 5.1-13.5 1.3-3.1 4.1-9.4 10.4-9.4 4.1 0 7.6 1.8 9.9 5 5.5 7.6 3.3 23.3-7.4 53.9z"/>
    <path id="Tail_2_" d="M570.5 657.8c-22.7 41.7-72.5 73.9-115.5 74.7h-1.4c-21.6 0-38.3-8.4-47.4-23.8-9-15.1-22-22.1-32.1-22.1-1.7 0-3.3.2-4.8.6-7 1.8-11 7.6-11.3 16.4-.3 7.7 6.6 18 18.2 27.5 16.8 13.7 43.2 25.3 70.1 25.3 6.6 0 13.3-.7 19.8-2.3 57.2-13.5 108.5-57.4 126-107.1 5.4-15.3 16.7-49.2 4.5-49.2-4.5.1-10.8 31.8-26.1 60z" class="st1" fill="#f80"/>
  </g>
  <g id="Body--group">
    <path id="Body--bg" d="M649.7 531.9c-2 24-6.7 45.1-13.9 62.9-8.5 20.9-20.3 36.6-35.1 46.8-34 23.4-64.8 26-76.4 26-1.3 0-2.5 0-3.8-.1-18.4-.8-26-4.4-32.7-7.5-5.9-2.8-11-5.2-24.9-5.7-37.5-1.5-67-9.9-83.1-23.6-.2-.1-.5-.4-.9-.7-4.8-3.5-19.3-14.3-25-24.7-5.3-9.7-6.2-22.3-2.3-31.4 13.4-31.2 24.5-40.5 33.5-48 3.6-3 6.4-5.3 8.8-8.7 2.2-3.1 3.8-7.1 4.9-12.2 0-.1 0-.2.1-.3 3.9-15 3.4-34.9 2.8-56-.2-5.7-.3-11.7-.4-17.5v-.1c0-18.6 9.6-40.7 25.7-59.2 18.1-20.8 41.6-33.6 66.1-36.2 20.2-2.1 34.3-3.1 45.9-3.1 43.7 0 58.6 14.8 82.2 48.4 7.5 10.6 12.1 22.5 16 33.7 11.1 30.4 15.9 76.5 12.5 117.2z"/>
    <path id="Body_1_" d="M358.5 576.7c-3 7-2.2 17.4 2 25 5.6 10.3 23 22.2 24.1 23.2 15.1 12.9 43.7 20.5 78.7 21.9 31.2 1.3 24.3 11.8 57.6 13.3 1.1 0 2.2.1 3.5.1 16.7 0 43.7-5 72.2-24.7 58-39.9 52.9-165.3 34-218.6-3.9-11.1-8.3-22.2-15.1-31.9-23.5-33.5-36.6-45.2-76.2-45.2-12.2 0-26.9 1.1-45.1 3.1-49.9 5.3-85.3 55.3-85.3 88.1.3 27.4 2.5 55.1-2.7 75.5-1.4 6.5-3.4 11.2-6 14.9-9.8 13.5-23.4 12.4-41.7 55.3z" class="st0" fill="#fc0"/>
    <g class="Body--group"><g class="kimono_1_B"><defs><g id="kimono_1_flo"><path fill="#fff" d="M6.45621 10.46553c-8.22854 6.5352 7.48771 10.90083 2.56646.71437 4.94771 10.18646 13.94354-3.41312 1.45521-2.2225 12.48833-1.19062 2.32833-13.97-1.64042-2.09021C12.80621-5.0126-2.46025.67594 6.35038 7.79324c-8.83708-7.09084-8.12271 9.20749.10583 2.67229Z"/><path
            fill="#ff9d00"
            d="M7.54846 5.58571c-.0203.001-.0406.005-.0605.0114-.18519.0265-.29109.21166-.26459.39687.0265.18521.23813.42342.39688.37052.004-.001.008-.003.0124-.005l.44442 2.1208c-.0448.0102-.0886.0255-.13126.0455l-.76636-1.5503c.0946-.10915.0886-.31455.0439-.42633-.0529-.13233-.21177-.18482-.37052-.10542-.13229.0529-.18519.23772-.13229.37001.0529.13226.26459.29127.39688.21187.004-.002.008-.005.0119-.007L7.88845 8.556c-.0285.0169-.0562.0357-.0827.0574-.0916.0749-.15688.16808-.19689.26975l-1.48621-.61857c-.002-.10548-.11161-.24206-.22221-.28628-.13229-.0529-.2644-.0264-.3173.10593-.0529.13229 0 .2644.13229.3173.12927.0517.33357.0275.39223-.0724l1.38699.57516-2.39675.10645c-.0478-.1572-.29997-.2651-.46715-.2651-.18521 0-.31796.15855-.29146.3173 0 .1852.15897.31781.34417.31781.18117 0 .43743-.12705.42374-.30593l2.47582-.11007c-.018.0708-.0246.14399-.0202.21704l-1.62626.64337c-.0947-.088-.2962-.11808-.40669-.0739-.13225.0529-.21155.18489-.15865.34364.0794.13225.23823.21155.37052.15865.13229-.0265.29113-.2377.23823-.37-.00064-.002-.002-.003-.003-.005l1.59216-.63046c.0173.11255.0609.22198.13022.3173.0879.10746.20105.18234.32349.22221l-.5643 1.65002c-.1099.0181-.21975.13877-.262.24443-.0529.10583-.00011.23804.15864.29094.10583.0265.23804-.0264.29094-.15864.0529-.10583.0269-.34402-.10542-.37052-.005-.002-.0104-.002-.0155-.003l.55966-1.63608c.0678.0152.13757.0196.2067.0134l-.1695 2.35799c-.14914.0603-.26784.27421-.29042.43202-.0265.18521.10573.34431.29094.31781.15875 0 .31766-.1326.34416-.31781.0265-.15875-.0794-.44959-.26458-.44959-.005 0-.009.0007-.0139.001l.16898-2.35024c.10452-.0199.20567-.0652.29456-.13798.0214-.0175.0411-.0359.0599-.0553l1.78697 1.70015c-.0532.14623.022.38268.13746.49817.13229.10584.3173.10584.44959 0 .10579-.13229.10593-.34365-.0264-.47594-.13171-.13173-.42064-.21101-.52761-.0811L8.75455 9.567c.0429-.0533.0773-.11169.10232-.17312l1.85209.61805c.0123.13756.15976.27631.2713.32091.13229.0529.29074-.0264.34364-.15864.0265-.15875-.0527-.31762-.185-.37052-.13229-.0529-.37033-.0265-.42323.13229-.001.003-.002.007-.003.01l-1.83503-.61185c.0539-.17846.0335-.37486-.0687-.54106l1.92288-1.28157c.1383.0838.38013.0522.51263-.0362.15873-.0794.21126-.29084.10542-.44959-.10583-.1323-.31719-.18541-.47594-.0796-.15876.10583-.31771.37052-.21187.50281.005.008.0111.0145.0171.0212L8.77333 8.74083c-.005-.007-.0102-.0146-.016-.0217-.0536-.0655-.11682-.1184-.18552-.15917L9.9893 6.60453c.16338.0367.39571-.0988.48782-.21394.10585-.13229.0791-.34383-.0532-.42323-.15875-.10581-.34365-.0527-.47594.0796-.13233.13229-.18511.42334-.0264.52917.002.001.003.002.005.003L8.51323 8.52888c-.11732-.0552-.24719-.0757-.37414-.0594l-.44751-2.1425c.13295-.0976.1886-.33315.16588-.49196-.0232-.13889-.1679-.25755-.31006-.2496Z"/></g></defs><g
            id="kimono_1_B_tr"><defs><path id="kimono_1_B_tr_b" d="M643.5 501.8c-102.5 4.2-156.2.4-189.6-7.8 3.9-3.2 11.1-8.7 22.5-15.2v.1c9.6-5.6 19.5-10.7 29.6-15.4 10.1-4.7 20.4-8.9 30.9-12.5 17-5.9 34.5-10.5 52.5-11.1 7.8-.2 15.5.2 23.2-.7 7.8-.9 15.3-3.6 22.6-6.5 4.9 19.3 8 43.7 8.3 69.1z"/><clipPath
            id="kimono_1_B_tr_c"><use xlink:href="#kimono_1_B_tr_b"/></clipPath></defs>
      <use xlink:href="#kimono_1_B_tr_b" fill="#55cbe2"/>
      <g clip-path="url(#kimono_1_B_tr_c)"><use xlink:href="#kimono_1_flo" transform="translate(609.38814 435.00958) scale(3.4283)"/>
        <use xlink:href="#kimono_1_flo" transform="translate(553.15683 480.47917) scale(2.2693)"/></g></g><g
            id="kimono_1_B_bl"><defs><path id="kimono_1_B_bl_b" d="M648.4 558.7c-.1-1.6-.3-3.2-.4-4.7v-.1c-.8-7.6-2.1-15.3-3.9-23l-.2-.8h-.8l-1.5.1c-28.2 1.7-54.6 2.5-78.4 2.5-52.1 0-93.4-4.1-122.7-12.1-2.7-.7-5.3-1.5-7.8-2.3l-.7-.2-.4.6c-7.7 10.7-46.3 65.6-52.5 97.4l-.2.8.7.3c7.8 3.4 14.8 5.9 21.4 7.7 7.3 1.9 14.4 2.9 21.1 2.9 1.1 0 2.3 0 3.4-.1l1-.1c.7 0 1.4-.1 2.1-.1l4.5-.6 1.5-.3 3-.6 4.4-1.3 4.3-1.6 2.8-1.2c3.7-1.7 7.4-3.7 10.9-5.9s6.9-4.4 10.6-6.9l.6-.4c3.3-2.2 6.7-4.5 10.2-6.6 1.4-.9 2.9-1.7 4.4-2.5l1.2-.7 1.2-.6c1.5-.8 3.1-1.5 4.8-2.2 1.6-.7 3.2-1.3 4.9-1.8.5-.2.9-.3 1.3-.4.5-.1 1-.3 1.5-.4 1.7-.4 3.3-.9 5.1-1.1 1.8-.4 3.6-.5 5.4-.6l1.3-.1h4.4c.8 0 1.6 0 2.3.1l1.1.1c1.8.2 3.7.3 5.4.7l3.2.5 3.3.7c1.4.3 2.9.7 4.3 1.1.7.2 1.3.4 2 .5.7.2 1.3.4 2 .6.4.1 1.3.4 1.3.4 1 .3 2 .6 2.9 1l3 1.2 3 1.3c.9.4 1.9.9 2.9 1.4.4.2.7.4 1.1.5l1.8.9c3.5 1.9 7.2 4 11.1 6.7 6.2 4.2 12.1 8.9 17.8 13.4l2.6 2.1c3.8 3 7.6 5.9 11.6 8.5 2.4 1.6 4.7 2.9 7 3.9l.1.1c.6.3 1.2.6 2 .9 3.8 1.6 7.7 2.5 11.5 2.7.6 0 1.2.1 1.9.1 2.7 0 5.6-.3 8.6-1l.4-.1.2-.3c.1-.1.1-.2.1-.2.2-.4.5-.8.7-1.1l.2-.3c.7-1.2 1.3-2.2 1.7-3.1 1.1-2 2.1-4.1 3.2-6.4 2-4.3 3.7-8.8 5.1-13.3 2.7-8.5 4.6-18 5.7-28 1.1-9.6 1.2-19.3.4-28.6z"/><clipPath
            id="kimono_1_B_bl_c"><use xlink:href="#kimono_1_B_bl_b"/></clipPath></defs>
      <g clip-path="url(#kimono_1_B_bl_c)"><use xlink:href="#kimono_1_B_bl_b" fill="#55cbe2" />
        <use xlink:href="#kimono_1_flo" transform="translate(533.40411 534.85529) scale(2.2613)"/>
        <use xlink:href="#kimono_1_flo" transform="translate(571.81995 553.10443) scale(3.7893)"/></g></g><g
            id="kimono_1_B_br"><defs><path id="kimono_1_B_br_b" d="m369.3 590.1 2.2-4.8c.6-1.3 1.2-2.7 1.8-4l2.9-5.8c.9-1.9 2-3.8 3-5.6.4-.7.8-1.4 1.1-2.1.7-1.2 1.3-2.4 2-3.6l1.2-2.1c1.8-2.9 3.6-6 5.5-8.9 4.6-7.2 9.5-14.3 14.6-21.1l3.9-5.1c1.3-1.7 2.7-3.4 4-5 2.2-2.8 4.4-5.4 6.7-8l.8-1-1.2-.6c-4.4-2.1-8.1-4.4-10.9-6.7-.2-.2-.4-.4-.7-.6-1-.8-1.9-1.7-2.6-2.5l-.5-.6-.7.3c-1.5.8-3 1.5-4.2 2.2-.3.2-.6.3-.9.5-27.8 15.4-42.8 36.3-50.4 51.2-7.4 14.3-10 26.5-10.7 31l-.1.5.4.4c4.1 4.1 8.5 7.6 13 10.4.4.2.7.5 1.1.7 3.1 1.9 6.4 3.5 9.7 4.9.4.2.8.3 1.2.5.5.2 1 .4 1.5.5l1 .3 2-6.3 2.7-7c.1-.6.4-1.3.6-2z"/><clipPath
            id="kimono_1_B_br_c"><use xlink:href="#kimono_1_B_br_b"/></clipPath></defs>
      <g clip-path="url(#kimono_1_B_br_c)"><use xlink:href="#kimono_1_B_br_b" fill="#55cbe2" />
        <use xlink:href="#kimono_1_flo" transform="translate(373.97134 511.12509)"/>
        <use xlink:href="#kimono_1_flo" transform="translate(311.70844 523.35978) scale(3.7893)"/></g></g><g
            id="kimono_1_B_tl"><defs><path id="kimono_1_B_tl_b" fill="#55cbe2" d="m407.7 475.7.5.3c7.6 4.7 14.1 8 21 11l2.8 1.2-1.5-2.6c-6.4-11-15-20.4-21.1-26.3l-1.7-1.7v2.4c.1 5.7.1 10.6 0 15.1v.6z"/><clipPath
            id="kimono_1_B_tl_c"><use xlink:href="#kimono_1_B_tl_b"/></clipPath></defs>
      <g clip-path="url(#kimono_1_B_tl_c)"><use xlink:href="#kimono_1_B_tl_b"/></g></g><path fill="#fff6eb"
                                                                                             d="M446.8 493.2c-2-.6-4-1.1-5.8-1.7l-1.5-.5 1.1-1.2c7-7.5 15.4-14.2 25-19.7l.2-.1c.3-.2.6-.3.8-.5l.2-.1c1-.6 1.9-1.1 2.9-1.7.8-.5 1.5-.9 2.3-1.4l7.4-4.3c5.1-2.9 10.2-5.7 15.1-8.2 11-5.7 21.3-10.3 31.3-14.1 20.2-7.7 37.8-11.5 53.8-11.5h1.4c3.1 0 6.3.2 9.4.4 3.5.2 7.1.4 10.7.4 2.3 0 4.4-.1 6.4-.3 8-.8 16.5-3.3 24.6-7.1l1.1-.5.3 1.2c.3 1.3.7 2.5 1 3.8.2.8.4 1.5.7 2.3l.2.9-.8.3c-9.2 3.7-16.8 5.8-24 6.5-5.1.5-10.2.6-15.2.6-3.2 0-6.6.1-9.9.2-18.4.9-36.3 6.3-49.7 11-10.1 3.5-20.5 7.7-31.2 12.6-10.6 4.9-20.6 10.1-29.8 15.5-15.7 8.8-23.1 15.5-25 17.3l-.4.4z"/><path
            fill="#dd2833"
            d="M445 478.2c-.5-.9-1-1.8-1.5-2.6l-.4-.7.6-.6c2.4-2.3 7.6-6.8 15-11 .3-.2.6-.3.9-.5h.1c1-.6 2.1-1.2 3.1-1.9 10.1-6 18.1-10.5 25.8-14.4 10.9-5.6 21.1-10.2 31.2-14.1 20.1-7.7 38-11.8 54.6-12.3h3.1c3.3 0 6.6.1 9.8.3 3.2.1 6.5.3 9.7.3 2.9 0 5.5-.1 7.9-.4 9.3-1 17.5-3.2 24.3-6.8l1-.5.4 1.1c.2.4.3.8.5 1.3.1.4.3.8.4 1.2l.2.4-.2.4c-.7 1.3-11.8 4.8-11.9 4.8-4.1 1.2-8.3 2-12.5 2.5-2.3.3-4.8.4-7.5.4-3.4 0-6.8-.2-10.1-.4-2.8-.2-5.7-.3-8.6-.4h-1.5c-15.4 0-32.8 3.6-53 11.1l-1.8.7c-10.1 3.8-20.5 8.5-31.7 14.3-5 2.6-10.2 5.4-15.2 8.3-2.6 1.5-5.2 3-7.7 4.4-1.8 1-3.5 2-5.2 3-.5.3-1 .6-1.5.8-.1 0-.2.1-.3.2l-.2.1c-5.7 3.3-11.1 7.2-16.1 11.3l-.9.8z"/><path
            fill="#fff6eb"
            d="m430 517.5-1.2-.4c-2.2-.8-4.3-1.6-6.2-2.4l-.7-.3-.5.6c-4.7 5.9-9.7 12.4-14.7 19.5-2.4 3.4-4.8 7-7.2 10.5l-1.6 2.4c-1.7 2.7-3.6 5.5-5.2 8.3-9.9 16.2-17.2 31-22.3 45.2l-2.5 8.2-.1.5v.2c-.1.5 0 1 .2 1.5s.6.9 1.1 1.2l7.9 3.9.3-1.3c6.7-31.5 41.4-81.7 51.9-96.3l.8-1.3z"/><path
            fill="#dd2833"
            d="M406.9 500.4c3.5 3.7 13.1 10.9 37 17.1 19.7 5.1 56.6 11.2 120.4 11.2 23.7 0 49.9-.8 77.7-2.5.3 0 .5 0 .9-.1l.9-.1.1-.9c.1-1.7.2-3.3.3-5.1l.1-1.1-1.1.1c-34.6 1.8-63.9 2.7-89.6 2.7-94 0-122.6-12.1-145.9-25.6l-1.3-.8-.3 2c-.1.4-.1.9-.2 1.3l-.1.5.3.4c.3.3.5.6.8.9z"/><path
            fill="#fff6eb"
            d="M553.4 520.9c25.9 0 55.3-.9 89.9-2.7l.9-.1v-.9c.1-1.3.1-2.7.1-4v-1.1l-1.1.1c-33.4 1.8-63.2 2.7-88.5 2.7-94.2 0-123-12.3-146.3-25.9l-1.4-.8-.1 1.6c-.1 1.4-.3 2.7-.4 4.1l-.1.6.6.3c23.5 13.7 52.3 26.1 146.4 26.1z"/><path
            fill="#dd2833"
            d="M554.7 513.8c25.6 0 54.7-.9 88.8-2.7h.9v-4.4h-1.1c-27.6 1.1-52.8 1.7-74.8 1.7-63.3 0-104.3-4.5-132.9-14.6h-.2c-.3 0-.5-.1-.7-.3h-.2c-8.9-3.2-16.8-7-25.7-12.2l-1.4-.8-.1 1.7c-.1 1.5-.1 2.9-.2 4.4v.6l.5.3c23.7 13.8 52.7 26.3 147.1 26.3z"/><path
            fill="#fff6eb"
            d="m435 489.8 1-1.1c2-2.2 4-4.3 6-6.1l.6-.5-.4-.7c-10.6-18.8-25.4-33.1-33.2-39.9l-1.7-1.5v2.3c0 .2.3 10.2.3 12.2v.4l.3.3c5.2 4.7 18.3 17.5 26.5 33.4l.6 1.2z"/><path
            fill="#dd2833"
            d="M407.1 434.2v.5l.4.3c2 1.5 19.7 15.6 33.8 37.2l.7 1 .9-.8c.7-.6 1.5-1.3 2.3-2.1l.7-.6-.5-.7c-17.2-24.6-32.4-35.8-36.7-38.6l-1.6-1v4.8zM443 475l.4.7c.5.9 1 1.7 1.5 2.6l.6 1 .9-.8c6.5-5.5 13.9-10.4 21.8-14.5l2.4-1.3-2.7-.6c-1.4-.3-2.8-.7-4.1-1.2l-.4-.1-.4.2c-9.8 4.7-16.4 10.4-19.5 13.4l-.5.6z"/><path
            d="M654.5 558.2c-.8-9.7-2.4-19.3-4.6-28.7v-.5c.1-.4.2-.8.2-1.3 0-.2 0-.4-.1-.5 2.7-39.5-2.2-83.3-12.8-112.6l-1.8-5.1c-.4-.9-1.1-1.2-1.9-1.2-1.4 0-2.9 1-3.1 1.1l-2.1 1.2c-13.1 7-29.8 7.6-41.5 6.8h-.7c-.7 0-1.3-.1-2-.2-2.7-.2-5.5-.2-8.2-.2-8.1.1-16.1 1.1-24 2.6-11.4 2.3-22.5 5.7-33.3 9.8-10.8 4.1-21.3 8.9-31.5 14.2-10.3 5.2-20.3 11.1-30 16.9-3.8 2.1-6.9 4.4-9.5 6.3-20.7-29.4-38-39.6-38.7-40.1h-.1s-.1-.1-.2-.1-.2-.1-.3-.1c-1.7-.7-6.5-2.5-7.6.3-.1 1.4-.1 2.7-.1 4.1v.1c0 1 0 2 .1 3v8.9c0 1.9.1 3.7.2 5.6.5 17.5.9 34.2-1.2 47.9-.5.3-7.7 4.8-10.2 6.3 0 0-.1 0-.1.1-25.6 15.7-40 35.9-47.8 50.9-9.7 18.9-11.4 33.9-11.4 34.5-.1 1 .2 2.1 1 2.8 7.2 7.5 15.4 13.3 24.2 17.4.4.2.9.4 1.3.6 1.8.8 3.6 1.5 5.5 2.1.1.9.4 1.7.8 2.5.8 1.6 2.1 3 3.7 3.8l2.9 1.4 5.8 2.9c4 1.8 8 3.5 12.2 5.1 4 1.5 8.1 2.8 12.3 3.9 8.5 2.2 17.3 3.5 26.3 3 1.1-.1 2.2-.1 3.3-.2l3.3-.4 1.7-.2 1.7-.3 3.3-.7 3.2-.9 1.6-.5 1.6-.6 3.1-1.2 3-1.3c16.2-7.3 28.9-19.5 43.8-25.7 1.8-.8 3.7-1.4 5.6-2 1.9-.5 3.8-1.1 5.8-1.3 1.9-.4 3.9-.5 5.9-.6 1-.1 2 0 3 0s2 0 3 .1c2 .2 4 .3 6 .7l3 .5 3 .7c2 .4 3.9 1 5.9 1.6 1 .3 1.9.6 2.9.9s1.9.6 2.9 1l2.9 1.1 2.8 1.2c.9.4 1.9.8 2.8 1.3.9.5 1.8.9 2.7 1.4 3.6 1.9 7.1 4.1 10.6 6.4 6.9 4.6 13.4 9.9 20.1 15.2 3.1 2.5 6.3 4.9 9.6 7.2.3.2.5.4.8.5 1.9 1.3 3.9 2.6 6 3.7 1.8 1 3.8 2 5.8 2.8 4.2 1.7 8.9 2.9 13.5 3.1 4.7.3 9.3-.3 13.8-1.5.8-.2 1.5-.7 2-1.4.5-.6.8-1.1 1.1-1.7.4-.6.7-1.1 1-1.6.6-1.1 1.3-2.2 1.9-3.3 1.2-2.2 2.3-4.5 3.3-6.8 2.1-4.6 3.8-9.3 5.3-14 3-9.5 4.8-19.4 5.9-29.2.6-9.6.6-19.6-.2-29.5zm-19.2-125.5c4.8 19.3 7.9 43.7 8.2 69.1-102.5 4.2-156.2.4-189.6-7.8 3.9-3.2 11.1-8.7 22.5-15.2v.1c9.6-5.6 19.5-10.7 29.6-15.4 10.1-4.7 20.4-8.9 30.9-12.5 17-5.9 34.5-10.5 52.5-11.1 7.8-.2 15.5.2 23.2-.7 7.9-.9 15.5-3.6 22.7-6.5zM408.7 460c5.4 5.2 14.3 14.8 20.9 26.1-7.9-3.3-14.5-7-20.9-10.9.1-5 .1-10 0-15.2zm-.2-5.6c0-1.8-.1-4.7-.2-7.2s-.1-4.7-.1-5c7.1 6.2 22.3 20.7 33 39.7-2 1.9-4 3.9-6 6.1-8.3-16-21.6-29.1-26.7-33.6zm0 27.6c7.6 4.5 15.7 8.7 25.8 12.3.3.2.7.3 1.1.4 25 8.8 62.4 14.7 133.3 14.7 21.6 0 46.4-.5 74.8-1.7v2.4c-164.1 8.6-203.4-4.9-235.2-23.7.1-1.4.1-2.9.2-4.4zm225.8-53.2c-7.6 3.1-15.5 5.7-23.7 6.5-8.3.8-16.7.4-25 .8-17.1.8-33.9 5.5-50 11-10.6 3.7-21.1 7.9-31.3 12.7-10.2 4.7-20.2 9.9-29.9 15.5-14.2 7.9-22.1 14.4-25.2 17.5-2.8-.8-5.4-1.5-7.9-2.3 8-8.5 16.8-14.9 24.7-19.5.4-.2.8-.5 1.2-.7 1.8-1 3.5-2.1 5.2-3.1l.9-.5 6.5-3.8c5-2.8 10-5.6 15-8.2 10.1-5.2 20.5-10 31.2-14.1 17.4-6.7 36.1-11.6 54.9-11.4 8.9.1 17.7 1.5 26.6.6 8.5-.8 17.2-3.5 24.9-7.2.7 2 1.3 4 1.9 6.2zm-175.1 35.4c.3-.2.6-.3.9-.5h.1c1-.6 2.1-1.3 3.1-1.9 8.5-5.1 17-9.9 25.7-14.4 10.1-5.2 20.5-10 31.1-14.1 17.4-6.7 35.6-11.6 54.2-12.2 10.2-.3 20.5 1.2 30.7.2 8.5-.9 17-2.9 24.6-6.9.3.8.6 1.7.9 2.5.2.5-10.3 4-11.3 4.3-4 1.2-8.2 2-12.4 2.5-8.7 1-17.3-.2-26.1-.4-18.7-.3-37.5 4.7-54.9 11.1-.6.2-1.2.5-1.8.7-10.9 4.1-21.5 9-31.8 14.3-5.2 2.7-10.2 5.4-15.3 8.3-4.3 2.5-8.7 5.1-12.9 7.5-.5.3-1 .6-1.5.8-.2.1-.3.2-.5.3-5.2 3.1-10.7 6.8-16.2 11.4-.5-.9-1-1.8-1.5-2.6 2.5-2.3 7.6-6.8 14.9-10.9zm-51.1-32.9c4.2 2.8 19.3 13.9 36.4 38.3-.9.8-1.7 1.5-2.4 2.1-14.2-21.9-32.3-36.1-34-37.5v-2.9zm-.1 58.5c25.2 14.7 55.8 26 146.8 26 24.7 0 53.9-.8 88.6-2.7 0 1.3-.1 2.7-.1 4-164 8.7-204-4.6-235.7-23.3.2-1.3.3-2.6.4-4zm-.8 7.3c25.1 14.6 55.8 25.8 146.4 25.8 25 0 54.5-.9 89.6-2.7-.1 1.7-.2 3.4-.3 5-.3 0-.6 0-.9.1-110.3 6.6-168.4-1.1-197.9-8.7-24.1-6.3-33.3-13.5-36.5-16.8-.3-.3-.5-.6-.7-.8.1-.7.2-1.3.3-1.9zm-40 95.6-2.4 6.1-1.7 5.4c-.5-.1-.9-.3-1.4-.5-.4-.1-.8-.3-1.2-.5-3.3-1.3-6.5-2.9-9.5-4.8-.4-.2-.7-.4-1.1-.7-4.5-2.8-8.8-6.3-12.9-10.3.7-4.2 3.2-16.4 10.6-30.7 7.8-15.1 22.7-35.6 50-50.7.3-.2.7-.4 1-.5 1.3-.7 2.6-1.4 4-2.1.7.8 1.6 1.7 2.7 2.6.2.2.5.4.7.6 2.5 2 6.1 4.4 11.1 6.9-2.3 2.7-4.5 5.3-6.7 8.1-1.3 1.7-2.7 3.3-4 5l-3.9 5.1c-5.1 6.8-10 13.9-14.6 21.1-2.4 3.6-4.5 7.3-6.7 11-1.1 1.8-2.1 3.8-3.1 5.6-1 1.9-2.1 3.8-3 5.7l-2.9 5.8c-.9 2-1.8 3.9-2.7 5.9l-1.3 3c-.2.9-.6 1.9-1 2.9zm5.1 20-2.8-1.4c-.3-.2-.5-.4-.7-.7-.1-.3-.2-.6-.1-.9v-.1l.1-.4.2-.7.5-1.5 1.8-5.9c5.6-15.7 13.4-30.6 22.2-45 2.2-3.6 4.5-7.1 6.8-10.7 2.4-3.5 4.7-7 7.2-10.4 4.7-6.6 9.6-13.2 14.6-19.5 1.9.8 4 1.6 6.3 2.4-9.4 13.1-45.3 64.6-52.1 96.6l-4-1.8zm274.9-25.5c-1 9.4-2.8 18.8-5.7 27.8-1.4 4.5-3.1 8.9-5 13.2-1 2.1-2 4.2-3.1 6.3-.5 1-1.1 2-1.7 3-.3.5-.6 1-.9 1.4-.1.1-.1.2-.2.3-3.4.8-6.8 1.1-10.2.9-3.8-.2-7.6-1.1-11.2-2.6l-2.1-.9c-2.3-1.1-4.6-2.4-6.9-3.9-3.9-2.5-7.7-5.4-11.5-8.4-6.6-5.2-13.3-10.7-20.5-15.5-3.6-2.4-7.4-4.7-11.2-6.8l-3-1.5c-1-.5-2-1-3-1.4l-3-1.3-3.1-1.2c-1-.4-2.1-.8-3.1-1.1-1.1-.3-2.1-.7-3.2-1-2.1-.6-4.2-1.2-6.4-1.7l-3.2-.7-3.2-.5c-2.1-.4-4.4-.6-6.6-.8-1.1-.2-2.3-.1-3.4-.1s-2.3-.1-3.4 0c-2.3.2-4.5.3-6.8.7-2.3.3-4.4 1-6.6 1.5-2.1.7-4.3 1.4-6.3 2.3-2.1.8-4.1 1.9-6.1 2.8-1.9 1.1-3.9 2.1-5.7 3.3-3.8 2.2-7.3 4.6-10.8 7s-7 4.7-10.5 6.9-7.1 4.2-10.8 5.8l-2.8 1.2-2.8 1.1-1.4.5-1.4.4-2.9.8-2.9.6-1.5.3-4.5.6c-1 .1-2 .1-3 .2-8 .4-16.2-.7-24.1-2.8-7.2-1.9-14.3-4.6-21.2-7.6 6.2-31.6 44.4-85.9 52.3-97 2.4.8 5 1.6 7.8 2.3 29.5 8.1 70.7 12.1 123 12.1 23.8 0 50-.8 78.4-2.5.3 0 .6 0 .9-.1h.6c1.8 7.5 3.1 15.2 3.9 22.8.2 1.6.3 3.2.4 4.7.6 9.7.5 19.2-.4 28.6z"/></g></g>

  </g>
  <g id="RightHand--group">
    <g id="BeforeRightHand--group" />
    <path id="RightHand--bg" d="M390.6 457c-5.2 5.1-11.7 8.1-17.8 8.1-8.1 0-14-5.1-15.6-13.3-1-5.4.9-11.3 5.4-16.7 5.8-6.9 14.9-12 21.7-12.1h.2c1.3 0 2.6.2 3.8.6h.2l.1.1c4.5 1.8 7.9 6.2 9.1 11.8 1.4 7.5-1.2 15.5-7.1 21.5z"/>
    <path id="RightHand" d="M385.4 451.7c4.2-4.2 6-9.6 5-14.7-.6-3.1-2.3-5.5-4.6-6.4-.4-.1-.9-.2-1.3-.2h-.1c-4 0-11.3 3.6-16.1 9.4-1.8 2.1-4.6 6.3-3.8 10.6 1.1 6 5.1 7.3 8.3 7.3 4.1 0 8.8-2.2 12.6-6z" class="st0" fill="#fc0"/>
  </g>
  <g id="RightFootGroup">
    <path id="RightFoot--bg" d="M384.3 648c-2.4 3.7-6.4 5.7-11.5 5.7-1.9 0-4-.3-6.2-.8-25-6-59.3-43.6-63.6-64.5-1.9-9.4-.2-18 5-24.4 4.6-5.7 11.4-8.8 18.9-8.8 6.8 0 13.6 2.5 19.8 7.3 12.2 9.4 32.9 50.5 37.3 60.7 2.5 5.8 4.9 17.7.3 24.8z"/>
    <path id="RightFoot_1_" d="M310.1 586.8c3.8 18.2 36.2 53.6 58.1 58.8 1.7.4 3.2.6 4.5.6 3.4 0 4.7-1.3 5.4-2.3 2.3-3.5 1.5-12.1-1-17.9-6.1-13.9-25.3-50.3-35.1-57.8-4.9-3.8-10.2-5.8-15.3-5.8-5.3 0-10 2.2-13.2 6.1-3.6 4.7-4.8 11.2-3.4 18.3z" class="st0" fill="#fc0"/>
  </g>
  <g id="RightEar--group">
    <path id="RightEar--bg" d="M413.3 399.4c-.4 4.4-3.8 8.4-11.1 12.9-4.7 3-10.2 5.5-13.9 6.5-6.5 1.7-12.3 2.6-17.3 2.6-6.7 0-10.6-1.6-12.7-2.9-4.8-3-4.4-7.2-4.2-8.5.5-3.1 2.9-5.5 5.9-6.2 3.5-.8 13.5-5.8 23.6-12.6 4.2-2.9 10.7-4.8 16.1-4.8 5.8 0 9.1 2.2 10.8 4.1 2.1 2.4 3.1 5.5 2.8 8.9z"/>
    <path id="RightEar" d="M361.4 411.3c0 .3.4.7.9.9 1.1.7 3.6 1.8 8.8 1.8 4.3 0 9.5-.8 15.4-2.3 5.2-1.4 19.1-8.8 19.5-13 .1-1.3-.2-2.4-.9-3.2-1-1.1-2.8-1.7-5.3-1.7-3.9 0-8.9 1.5-11.9 3.5-8.5 5.7-20.5 12.5-26.1 13.7-.3.1-.4.2-.4.3z" class="st1" fill="#f80"/>
  </g>
  <g id="Head--group">
    <path id="Head--bg" d="M516.4 328.1c1.6 0 3.2 0 4.8.1 20.6.6 39.5 6.5 55.9 17 11.2 7.2 17.5 11.4 25.9 25.2 1.5 2.5 9 .8 7.9-1.1-10.1-17.6-17.5-22.3-29.8-30.3-17.7-11.4-37.8-17.6-59.7-18.2-1.6 0-3.3-.1-5-.1-1.6 0-3.3 0-4.9.1-24.3.6-47.8 6.6-67.8 17.1-20.2 10.6-37.1 26.1-48.9 44.7-7.7 12.3-10.3 23.9-7.4 33.5 2.4 7.8 7.9 12.7 12.3 14.6 1.4.6 2.9.9 4.7.9 9.3 0 34.7-9.3 45.7-24.8 8.4 4.5 17.6 6.7 28.1 6.7 12.6 0 25-3.2 36.4-6.9 3-1 3.8-2.2 3.9-4.1 0-1.3-1.2-3.6-3.8-3.5-.3 0-.7.1-1 .2-11.2 3.6-23.3 6.9-35.4 6.9-9.3 0-18.6-2-27.4-7.4-.6-.4-1.3-.5-1.9-.5-1.3 0-2.5.6-3.2 1.8l-.1.1c-7.9 14.3-33.3 24.1-41.2 24.1-.7 0-1.3-.1-1.7-.3-2.8-1.2-6.6-4.6-8.2-10-2.3-7.5 0-17 6.6-27.4 22.5-35.7 63.4-57.1 110.6-58.3 1.4-.1 3-.1 4.6-.1"/>
    <path id="Head" d="M516.6 399.4c-1-.4-2-.7-3-.3-19.7 6.3-42.5 12-62.8-.5-1.7-1.1-4-.5-5.1 1.2l-.1.1c-8.6 15.7-38.3 26-43 23.9-2.8-1.2-6.6-4.6-8.2-10-2.3-7.5 0-17 6.6-27.4 22.5-35.7 63.4-57.1 110.6-58.3 3.1-.1 6.3-.1 9.5 0 20.6.6 39.5 6.5 55.9 17 13.2 8.5 19.7 12.7 30.6 33.6 5.6 10.5-84.4 23.5-91 20.7z" class="st0" fill="#fc0"/>
  </g>
  <g id="LeftEar--group">
    <path id="LeftEar--bg" d="M701.4 357.1c-.5 1.7-1.2 3.4-2 5.2-5 10-17.7 23-38 29.1-4.5 1.4-9.3 2-14 2h-.1c-13 0-34.2-4.9-61.6-28.3-1.9-1.7-5.1-4.8-7.1-7-2.3-2.5-2.8-6.1-1.5-9.1s4.4-5.1 7.8-5.1h.5c13.9.8 30.1 1.2 48.4 1.2 8.1 0 14.8-.1 19.3-.1h4.5c7.4 0 13.3-.1 18.2-.1 8.1 0 13.7.1 17.1.2 2.9.1 5.6 1.5 7.3 3.9 1.5 2.3 2 5.2 1.2 8.1z"/>
    <path id="LeftEar" d="M590.4 359.4c25.7 21.9 45.1 26.5 56.8 26.5h.1c4 0 8-.6 11.9-1.7 18.1-5.4 29.2-16.6 33.5-25.3.8-1.5 1.2-2.8 1.5-3.9.4-1.3-.6-2.6-1.9-2.7-3.3-.1-8.9-.2-16.7-.2-5.4 0-11.6 0-18.2.1-3.3 0-12.2.2-23.9.2-13.9 0-31.7-.2-48.8-1.2h-.1c-.9 0-1.5 1.1-.8 1.8 2 2.2 5 5.1 6.6 6.4z" class="st1" fill="#f80"/>
  </g>
  <g id="Face--group">
    <path id="RightEye" d="M417.6 376.2c-4.1 0-7.4 3.3-7.4 7.4 0 9.9 14.8 9.9 14.8 0 0-4.1-3.3-7.4-7.4-7.4z"/>
    <path id="LeftEye" d="M503.2 355.7c-4.1 0-7.4 3.3-7.4 7.4 0 9.9 14.8 9.9 14.8 0 0-4.1-3.3-7.4-7.4-7.4z"/>
    <path id="Nose" d="M457.9 375.4c-7.4.8-12.3 2.5-15.6 4.9-5.9 4.4-4.1 9.9 2.5 10.7 6.6.8 7.1 1.2 13.2-3.3 6.5-4.9 7.3-13.1-.1-12.3z"/>
    <g id="Face--group">
    </g>
  </g>
  <g id="LeftLeg--group">
    <path id="LetLeg" d="M512.4 655.2c-4.6-5.2-3.7-15.7-1.9-29.4 2.6-19.8 5-34.5 25.4-50.8 24.4-19.5 62.2-15 76.2-.5 3.6 3.7 6.7 10.9 7.3 18.8.9 11.4-22.2 42.4-44.8 51.8-22.6 9.6-54 19.3-62.2 10.1z" class="st0" fill="#fc0"/>
    <path id="LeftLeg--bg_1_" d="M512.4 658.9c-1.2 0-2.3-.5-3-1.6-4.7-6.7-4.5-17.2-2.6-32 2.5-19 4.6-35.5 26.8-53.2 26.8-21.4 63.7-14 78.4.7 1.4 1.4 1.4 3.8 0 5.2-1.4 1.4-3.8 1.4-5.2 0-12.5-12.5-45.4-18.7-68.6-.1-18.9 15.1-21.4 28.2-24.1 48.4-1.4 11-2.3 21.8 1.3 26.7 1.2 1.7.8 4-.9 5.2-.6.5-1.4.7-2.1.7z"/>
    <g class="LeftLeg--group"><defs>
      <path id="kimono_1_LL_B" fill="#55cbe2" d="M 571.86914 558.75 C 558.98257 558.88791 545.32459 562.73713 533.59961 572.09961 C 525.2756 578.73632 519.77808 585.20467 516.02539 591.69922 L 516.90039 591.69922 C 517.70039 591.69922 518.49922 591.70078 519.19922 591.80078 L 520.30078 591.90039 C 522.10078 592.10039 523.99922 592.19961 525.69922 592.59961 L 528.90039 593.09961 L 532.19922 593.80078 C 533.59922 594.10078 535.1 594.50039 536.5 594.90039 C 537.2 595.10039 537.8 595.30039 538.5 595.40039 C 539.2 595.60039 539.8 595.8 540.5 596 C 540.9 596.1 541.80078 596.40039 541.80078 596.40039 C 542.80078 596.70039 543.79922 597.00039 544.69922 597.40039 L 547.69922 598.59961 L 550.69922 599.90039 C 551.59922 600.30039 552.59961 600.80078 553.59961 601.30078 C 553.99961 601.50078 554.29922 601.70078 554.69922 601.80078 L 556.5 602.69922 C 560 604.59922 563.69961 606.70039 567.59961 609.40039 C 573.7996 613.60039 579.7004 618.30079 585.40039 622.80078 L 588 624.90039 C 590.54664 626.9109 593.11777 628.83483 595.72461 630.69531 C 609.55973 617.7834 620.01107 601.036 619.40039 593.30078 C 618.85333 586.09789 616.22089 579.50859 613.0332 575.5918 C 613.0836 574.57891 612.74724 573.54802 612 572.80078 C 603.73127 564.53205 588.43759 558.57268 571.86914 558.75" />
      <clipPath id="kimono_1_LL_C">
        <use xlink:href="#kimono_1_LL_B"/>
      </clipPath>
    </defs>
      <path d="M 517.5 590.67578 C 517.21448 590.67578 516.93871 590.68129 516.65625 590.6875 C 515.22064 593.05498 514.00503 595.42538 512.99609 597.80664 C 513.03074 597.80491 513.06496 597.80251 513.09961 597.80078 C 514.09961 597.70078 515.09961 597.80078 516.09961 597.80078 C 517.09961 597.80078 518.09961 597.80039 519.09961 597.90039 C 521.09961 598.10039 523.09961 598.19961 525.09961 598.59961 L 528.09961 599.09961 L 531.09961 599.80078 C 533.09961 600.20078 535 600.80039 537 601.40039 C 538 601.70039 538.90039 602.00078 539.90039 602.30078 C 540.90039 602.60078 541.80078 602.90078 542.80078 603.30078 L 545.69922 604.40039 L 548.5 605.59961 C 549.4 605.99961 550.40078 606.40039 551.30078 606.90039 C 552.20078 607.40039 553.1 607.80078 554 608.30078 C 557.6 610.20078 561.09961 612.39922 564.59961 614.69922 C 571.4996 619.29921 577.99923 624.6004 584.69922 629.90039 C 586.77786 631.57671 588.91933 633.19094 591.08789 634.77734 C 592.90525 633.28214 594.66505 631.69178 596.38672 630.05664 C 593.80822 628.22522 591.24756 626.31263 588.69922 624.30078 C 582.09923 619.10079 575.39921 613.60078 568.19922 608.80078 C 564.59922 606.40078 560.8 604.1 557 602 L 554 600.5 C 553 600 552 599.49961 551 599.09961 L 548 597.80078 L 544.90039 596.59961 C 543.90039 596.19961 542.80078 595.8 541.80078 595.5 C 540.70078 595.2 539.69961 594.8 538.59961 594.5 C 536.49961 593.9 534.39922 593.30078 532.19922 592.80078 L 529 592.09961 L 525.80078 591.59961 C 523.70078 591.19961 521.39922 591.00078 519.19922 590.80078 C 518.64922 590.70078 518.075 590.67578 517.5 590.67578"/>
      <g clip-path="url(#kimono_1_LL_C)">
        <use xlink:href="#kimono_1_LL_B"/>
        <use xlink:href="#kimono_1_flo" transform="translate(533.40411 534.85529) scale(2.2613)"/>
        <use xlink:href="#kimono_1_flo" transform="translate(571.81995 553.10443) scale(3.7893)"/></g></g>
  </g>
  <g id="LeftFoot--group">
    <path id="LeftFoot--bg" d="M523.7 651.2c-.4 1.9-2 9.1-6.7 16.2-7 10.6-17.8 16.5-30.4 16.5-7.2 0-12.9-2.1-16.8-6.2-7.5-7.8-7.1-21-6.7-33.7v-.1c.2-6.4.4-13.1-.4-18.5-.7-4.4-1.8-9.1-3.1-14.5-2.4-10.2-4.6-20.1-4.3-28.7.4-10.7 4.7-18.9 12.8-24.4 3.5-2.4 7.4-3.5 11.4-3.5 9.3 0 18.9 6.2 28.7 18.6 7.1 8.9 13.1 20 15.4 28.1 6.4 21.8 4.9 34.9.1 50.2z"/>
    <path id="LeftFoot_1_" d="M477 670.8c2 2.1 5.2 3.1 9.6 3.1 22.6 0 27-23.7 27.2-24.7 0-.2.1-.4.1-.6 4.4-13.9 5.7-25.2 0-44.8-3.7-13.2-21.1-39.4-34.4-39.4-2 0-4 .6-5.8 1.9-11.7 7.8-9.3 21.8-4.4 42.4 1.2 5.1 2.5 10.4 3.2 15.3 1 6.4.8 13.5.5 20.4-.2 10.6-.6 21.6 4 26.4z" class="st0" fill="#fc0"/>
  </g>
  <g id="LeftArm--group">
    <g id="BeforeLeftArm--group" />
    <path id="LeftArm--bg" d="M478 413.3c-6.4 2.9-12.4 6.6-17.6 11.1-12.1 10.6-12.6 19.4-10.8 24.8 2.5 7.7 11.1 13.4 21.9 14.6 7.1.7 16.2-1.3 26.7-3.6 13.9-3.1 29.7-6.6 42.9-3.9 19.6 4.1 33.3 15 53.1 32.7l10.3 9.2c1.5 1.3 3.9 1.2 5.2-.4 1.3-1.5 1.2-3.9-.4-5.2l-2.9-2.6c-24-21.7-39.9-36-63.8-41-14.8-3.1-31.3.6-46 3.9-9.5 2.1-18.5 4.1-24.3 3.5-7.8-.8-14.1-4.6-15.7-9.5-1.5-4.7 1.6-10.7 8.7-17 20.7-18.2 59.1-23.7 87.5-12.5 4.7 1.9 7.4-5.1 2.7-6.9-11.4-4.4-24.6-6.6-37.7-6.2-10.1.4-30.5 4.8-39.8 9z"/>
    <path id="LeftArm" d="M615.4 451c11.7 12.2 17 60.3-6 41.6l-2.9-2.6c-24-21.7-39.9-36-63.8-41-14.8-3.1-31.3.6-46 3.9-9.5 2.1-18.5 4.1-24.3 3.5-7.8-.8-14.1-4.6-15.7-9.5-1.5-4.7 1.6-10.7 8.7-17 20.7-18.2 59.3-24 87.5-12.5 4.6 2 46.1 16.5 62.5 33.6z" class="st0" fill="#fc0"/>
    <g class="LeftArm--group"><defs><path id="kimono_1_LA_B" d="M516.4161 406.13218c-3.63613.16136-7.23711.52185-10.83594 1.09766-6.09999.9-12.09883 2.4-17.79883 4.5-1.9.7-3.80117 1.4-5.20117 2l-2 .80078s-4.80039 20.50002.59961 39c4.99999 16.89998 20.20117 31.89961 20.20117 32.09961-.2 1.1 6.30039 4.6 8.90039 4 5.2-1.4 10.29962-3.29883 15.09961-5.79883 2.4-1.2 4.7-2.60156 7-4.10156 2.4-1.6 4.50039-3.19844 6.40039-4.89844 1.6-1.4 3.09961-2.9 4.59961-4.5 2.2-2.3 4.19961-4.80156 6.09961-7.60156.1-.1.20039-.19922.40039-.19922.1 0 .19883-.00039.29883.0996.2.1.30117.39961.20117.59961l-.0996.20117c-.7 1.6-1.60117 3.29961-2.70117 5.09961-.4.7-.90039 1.39922-1.40039 2.19922-.6.9-1.19922 1.70039-1.69922 2.40039l-1.30078 1.70117 2.20117-.10156c1.8-.1 3.49961-.19922 5.09961-.19922h3.40039c2.9 0 5.49961.10078 8.09961.30078 3.7.3 7.60078.6 11.30078 1.5 2.7.6 5.09922 1.2 7.19922 2 .38565-.0519.74779-.12587 1.12109-.18945 3.98298 3.30035 8.04979 7.27053 12.51577 11.26284l10.30077 9.01214c1.5 1.3 4.27339 1.32629 5.57339-.27371 1.3-1.5.88975-4.21298-.71025-5.51298h.0996c22.99996 18.69996 17.69998-29.39963 6-41.59961-4.86116-5.06865-11.92575-9.89138-19.55859-14.23633-6.37536-5.45817-12.93267-10.2667-19.64258-14.36328-4.7-2.9-9.89845-5.60039-16.39844-8.40039-17.14031-5.79044-21.42642-8.47527-43.36522-7.89844z"/><clipPath
            id="kimono_1_LA_C"><use xlink:href="#kimono_1_LA_B"/></clipPath></defs>
      <g clip-path="url(#kimono_1_LA_C)"><use xlink:href="#kimono_1_LA_B" fill="#55cbe2" />
        <use xlink:href="#kimono_1_flo" transform="translate(609.38814 435.00958) scale(3.4283)"/>
        <use xlink:href="#kimono_1_flo" transform="translate(503.67156 390.77559) scale(2.5724)"/>
        <use xlink:href="#kimono_1_flo" transform="translate(504.88604 449.05965) scale(1.3108)"/></g>
      <path d="M605.8 446.2c-.8.6-2.2-.2-3-1-12.6-12.5-27.2-23.2-43.6-30-12.3-5.1-25.6-8.1-38.9-8.2-9.9 0-19.5 1.6-28.9 4.9-3.3 1.2-6.7 2.7-8.8 5.5-1.8 2.4-2.5 5.5-2.6 8.4-.4 12.5 3.5 24.9 8.9 36.1 3.7 7.7 8.3 15.1 14.9 20.6 2.6 2.2 5.7 4.1 9.2 4.3 2.8.2 5.5-.8 8.1-1.9 10.6-4.6 19.9-12.1 26.6-21.4.7-1 2.2-2.2 3.1-1.3.6.6.3 1.7-.1 2.5-1.6 3.2-3.5 6.3-5.7 9.2 13.1-.5 26.8-.4 38.7 5 .4.2.9.5.9.9 0 .8-1.2.8-1.9.6-12.4-4.1-25.9-2.7-38.8-.9-1.4.2-2.8.4-4.1.9-1.7.7-3.2 1.8-4.6 2.9-3.8 2.9-7.6 5.8-12 7.8-4.4 1.9-9.3 2.9-14 1.8-5.4-1.3-9.7-5.1-13.4-9.1-8.2-8.9-14.2-19.7-17.9-31.2-1.8-5.8-3.1-11.7-3.8-17.7-1-8.8-1-18.1 6.3-24.3 3.3-2.8 7.4-4.6 11.6-5.9 13-3.9 26.8-5 40.4-3.3 7.8 1 15.5 2.9 22.9 5.6 19.6 7.2 36.9 20.2 50.1 36.4.7.8 1.3 2 .6 2.8 0-.1-.1 0-.2 0z"/></g>

  </g>
</svg>
