<?xml version="1.0" encoding="utf-8"?>
<!-- Generator: Adobe Illustrator 25.2.0, SVG Export Plug-In . SVG Version: 6.00 Build 0)  -->
<svg version="1.1" id="Layer_1" xmlns="http://www.w3.org/2000/svg" xmlns:xlink="http://www.w3.org/1999/xlink" x="0px" y="0px"
	 viewBox="0 0 1000 1000" style="enable-background:new 0 0 1000 1000;" xml:space="preserve">
<style type="text/css">
	.st0{fill:#0048F5;}
	.st1{fill:#FF6700;}
	.st2{fill:#FFFFFF;}
	.st3{font-family:'Roboto-Black';}
	.st4{font-size:23.7286px;}
</style>
<g id="CF2023">
	<g id="Line--group">
		<path id="Line1" class="st0" d="M470.3,491.1c-0.6,0-1.2-0.1-1.8-0.3c-2.9-1-4.4-4.2-3.3-7c5.7-16.1,48.9-67.3,82.6-77.6
			c32-9.8,69-27.4,69.3-27.6c2.7-1.3,6-0.1,7.3,2.6s0.1,6-2.6,7.3c-1.5,0.7-38.1,18.1-70.9,28.2c-30.4,9.3-70.9,58-75.5,70.8
			C474.7,489.7,472.6,491.1,470.3,491.1z"/>
		<path id="Line2" class="st0" d="M423.8,483.3c-2.6,0-4.9-1.8-5.4-4.4c-0.1-0.3-6.7-33.4-11.7-52.6c-0.8-2.9,1-5.9,3.9-6.7
			c2.9-0.8,5.9,1,6.7,3.9c5.1,19.5,11.8,52.9,11.8,53.2c0.6,3-1.3,5.9-4.3,6.5C424.6,483.2,424.2,483.3,423.8,483.3z"/>
	</g>
	<g id="IDcard--group">
		<g id="ID--group">
			<path id="Color1" class="st1" d="M483.8,481.4c-1.1,5.2-2.2,10.5-3.2,16l-76.8-6.6c1.4-5.2,2.9-10.4,4.5-15.5
				c0.3-0.9,1.1-1.5,2.1-1.4L482,479C483.2,479.1,484.1,480.2,483.8,481.4z"/>
			<path id="Color2" d="M470.3,570.8c-0.6,6.6-1,12.7-1.2,18.1c0,1.2-1.2,2.1-2.4,1.9l-75.9-14.3c-1-0.2-1.7-1.1-1.6-2.1
				c0.3-5.1,0.7-10.3,1.3-15.7L470.3,570.8z"/>
			<path id="Color3" class="st1" d="M472.2,552.3c-0.8,6.4-1.4,12.6-1.9,18.4l-79.9-12.2c0.6-5.5,1.4-11.2,2.3-17L472.2,552.3z"/>
			<path id="Color4" class="st2" d="M480.6,497.4c-1.1,6-2.2,12.1-3.2,18.3c-1,6.1-1.9,12.2-2.8,18.3c-0.9,6.2-1.7,12.4-2.4,18.4
				l-79.5-10.7c0.9-5.6,1.9-11.2,3-16.9c1.1-5.6,2.4-11.3,3.7-16.9c1.3-5.7,2.8-11.3,4.3-17L480.6,497.4z"/>
		</g>
		<text transform="matrix(0.9951 0.1251 -0.1557 0.9878 415.4203 515.091)"><tspan x="0" y="0" class="st3 st4">#CF</tspan><tspan x="-6.1" y="20" class="st3 st4">2023</tspan></text>
		<g>
			<path d="M423.3,511.3l-1.9-0.2l-1.5,4.6l-2.3-0.3l1.5-4.6l-2.6-0.3l0.3-2.1l2.9,0.4l1-3l-2.5-0.3l0.3-2.1l2.9,0.4l1.5-4.7
				l2.3,0.3l-1.5,4.7l1.9,0.2l1.5-4.7l2.3,0.3l-1.5,4.7l2.7,0.3l-0.3,2.1l-3-0.4l-1,3l2.6,0.3l-0.3,2.1l-3-0.4l-1.5,4.6l-2.3-0.3
				L423.3,511.3z M422.1,509l1.9,0.2l1-3l-1.9-0.2L422.1,509z"/>
			<path d="M444.5,512.8L444.5,512.8c-0.4,2-1.2,3.4-2.4,4.3c-1.2,0.9-2.9,1.2-5,0.9c-2.1-0.3-3.7-1.1-4.8-2.5
				c-1.1-1.4-1.5-3.2-1.2-5.2l0.5-3.5c0.3-2,1.2-3.6,2.7-4.7c1.4-1.1,3.2-1.5,5.2-1.3c2.1,0.3,3.7,1,4.6,2.2c1,1.2,1.4,2.8,1.2,4.8
				l0,0.1l-3.8-0.5c0.1-1.1,0-1.9-0.4-2.5c-0.4-0.6-1-0.9-2.1-1.1c-0.9-0.1-1.6,0.2-2.3,0.8c-0.6,0.6-1,1.5-1.2,2.7l-0.6,3.5
				c-0.2,1.2-0.1,2.1,0.4,2.9c0.4,0.8,1.1,1.2,2.1,1.4c0.9,0.1,1.6,0,2.1-0.5c0.5-0.4,0.8-1.2,1-2.3L444.5,512.8z"/>
			<path d="M457.3,513.5l-6.7-0.8l-1.1,6.7l-3.9-0.5l2.6-16.7l11.8,1.5l-0.5,3l-7.9-1l-0.6,4l6.7,0.8L457.3,513.5z"/>
			<path d="M419,535.7l-11.7-1.5l0.4-2.5l6.3-5c0.8-0.7,1.4-1.3,1.8-1.9c0.4-0.6,0.7-1.1,0.7-1.5c0.1-0.6,0-1.2-0.2-1.6
				c-0.3-0.4-0.7-0.7-1.4-0.8c-0.6-0.1-1.1,0.1-1.5,0.6c-0.4,0.5-0.7,1.1-0.8,1.8l-3.8-0.5l0-0.1c0.2-1.5,0.9-2.8,2.1-3.7
				c1.2-0.9,2.7-1.3,4.4-1.1c1.8,0.2,3.2,0.9,4.1,1.9s1.2,2.3,1,3.9c-0.2,1.1-0.6,1.9-1.3,2.7c-0.7,0.7-1.9,1.8-3.6,3.2l-2.7,2.1
				l0,0.1l6.5,0.8L419,535.7z"/>
			<path d="M433.6,530.8c-0.4,2.3-1.1,3.9-2.4,4.9c-1.2,1-2.7,1.4-4.5,1.2c-1.8-0.2-3.1-1-4-2.3c-0.9-1.3-1.1-3-0.8-5.3l0.6-3.5
				c0.4-2.3,1.1-3.9,2.4-4.9c1.2-1,2.7-1.4,4.5-1.2c1.8,0.2,3.1,1,4,2.3c0.9,1.3,1.1,3,0.8,5.3L433.6,530.8z M430.3,526.5
				c0.2-1.3,0.2-2.2-0.1-2.8c-0.3-0.6-0.7-0.9-1.3-1c-0.6-0.1-1.2,0.1-1.6,0.7c-0.4,0.5-0.7,1.4-0.9,2.7l-0.6,4
				c-0.2,1.3-0.2,2.2,0.1,2.8c0.2,0.6,0.7,0.9,1.3,1c0.6,0.1,1.2-0.1,1.6-0.6c0.4-0.5,0.7-1.4,0.9-2.7L430.3,526.5z"/>
			<path d="M446.3,539.1l-11.7-1.5l0.4-2.5l6.3-5c0.8-0.7,1.4-1.3,1.8-1.9c0.4-0.6,0.7-1.1,0.7-1.5c0.1-0.6,0-1.2-0.2-1.6
				c-0.3-0.4-0.7-0.7-1.4-0.8c-0.6-0.1-1.1,0.1-1.5,0.6c-0.4,0.5-0.7,1.1-0.8,1.8l-3.8-0.5l0-0.1c0.2-1.5,0.9-2.8,2.1-3.7
				c1.2-0.9,2.7-1.3,4.4-1.1c1.8,0.2,3.2,0.9,4.1,1.9c0.9,1,1.2,2.3,1,3.9c-0.2,1.1-0.6,1.9-1.3,2.7c-0.7,0.7-1.9,1.8-3.6,3.2
				l-2.7,2.1l0,0.1l6.5,0.8L446.3,539.1z"/>
			<path d="M453.4,529.8l1.8,0.2c0.7,0.1,1.3,0,1.7-0.4c0.4-0.3,0.7-0.8,0.8-1.5c0.1-0.5,0-1-0.3-1.4c-0.3-0.4-0.7-0.6-1.4-0.7
				c-0.5-0.1-1,0-1.4,0.3c-0.4,0.2-0.7,0.6-0.8,1l-3.8-0.5l0-0.1c0.2-1.3,0.9-2.3,2.1-3c1.2-0.7,2.6-0.9,4.2-0.7
				c1.8,0.2,3.2,0.8,4.2,1.8c1,1,1.3,2.2,1.1,3.7c-0.1,0.8-0.5,1.4-1,2s-1.3,1-2.1,1.3c0.8,0.4,1.5,1,1.9,1.8
				c0.4,0.7,0.5,1.6,0.4,2.5c-0.2,1.5-1,2.7-2.3,3.4c-1.3,0.7-2.9,1-4.7,0.7c-1.6-0.2-2.9-0.8-3.9-1.8c-1.1-1-1.4-2.2-1.1-3.8l0-0.1
				l3.8,0.5c-0.1,0.5,0.1,1,0.4,1.4s0.8,0.7,1.4,0.7c0.7,0.1,1.3,0,1.7-0.4c0.5-0.3,0.7-0.8,0.8-1.4c0.1-0.8,0-1.4-0.4-1.8
				c-0.4-0.4-0.9-0.7-1.7-0.8l-1.8-0.2L453.4,529.8z"/>
		</g>
	</g>
</g>
</svg>
