<svg version="1.1" id="wapuugotchi_svg__item" viewBox="0 0 1e3 1e3" xmlns="http://www.w3.org/2000/svg">
    <g class="Ball--group">
        <path d="m220.3 191.1c-0.6 0-1.2-0.1-1.8-0.3-2.9-1-4.4-4.2-3.3-7 5.7-16.1 48.9-67.3 82.6-77.6 32-9.8 69-27.4 69.3-27.6 2.7-1.3 6-0.1 7.3 2.6s0.1 6-2.6 7.3c-1.5 0.7-38.1 18.1-70.9 28.2-30.4 9.3-70.9 58-75.5 70.8-0.7 2.2-2.8 3.6-5.1 3.6z" fill="#0048F5"/>
        <path d="m173.8 183.2c-2.6 0-4.9-1.8-5.4-4.4-0.1-0.3-6.7-33.4-11.7-52.6-0.8-2.9 1-5.9 3.9-6.7s5.9 1 6.7 3.9c5.1 19.5 11.8 52.9 11.8 53.2 0.6 3-1.3 5.9-4.3 6.5-0.2 0.1-0.6 0.1-1 0.1z" fill="#0048F5"/>
        <path d="m233.8 181.3c-1.1 5.2-2.2 10.5-3.2 16l-76.8-6.6c1.4-5.2 2.9-10.4 4.5-15.5 0.3-0.9 1.1-1.5 2.1-1.4l71.6 5.1c1.2 0.1 2.1 1.3 1.8 2.4z" fill="#FF6700"/>
        <path d="m220.3 270.7c-0.6 6.6-1 12.7-1.2 18.1 0 1.2-1.2 2.1-2.4 1.9l-75.9-14.3c-1-0.2-1.7-1.1-1.6-2.1 0.3-5.1 0.7-10.3 1.3-15.7l79.8 12.1z"/>
        <path d="m222.2 252.3c-0.8 6.4-1.4 12.6-1.9 18.4l-79.9-12.2c0.6-5.5 1.4-11.2 2.3-17l79.5 10.8z" fill="#FF6700"/>
        <path d="m230.6 197.4c-1.1 6-2.2 12.1-3.2 18.3-1 6.1-1.9 12.2-2.8 18.3-0.9 6.2-1.7 12.4-2.4 18.4l-79.5-10.7c0.9-5.6 1.9-11.2 3-16.9 1.1-5.6 2.4-11.3 3.7-16.9 1.3-5.7 2.8-11.3 4.3-17l76.9 6.5z" fill="#fff"/>
        <path d="m173.3 211.3-1.9-0.2-1.5 4.6-2.3-0.3 1.5-4.6-2.6-0.3 0.3-2.1 2.9 0.4 1-3-2.5-0.3 0.3-2.1 2.9 0.4 1.5-4.7 2.3 0.3-1.5 4.7 1.9 0.2 1.5-4.7 2.3 0.3-1.5 4.7 2.7 0.3-0.3 2.1-3-0.4-1 3 2.6 0.3-0.3 2.1-3-0.4-1.5 4.6-2.3-0.3 1.5-4.6zm-1.2-2.3 1.9 0.2 1-3-1.9-0.2-1 3z"/>
        <path d="m194.5 212.7c-0.4 2-1.2 3.4-2.4 4.3s-2.9 1.2-5 0.9-3.7-1.1-4.8-2.5-1.5-3.2-1.2-5.2l0.5-3.5c0.3-2 1.2-3.6 2.7-4.7 1.4-1.1 3.2-1.5 5.2-1.3 2.1 0.3 3.7 1 4.6 2.2 1 1.2 1.4 2.8 1.2 4.8v0.1l-3.8-0.5c0.1-1.1 0-1.9-0.4-2.5s-1-0.9-2.1-1.1c-0.9-0.1-1.6 0.2-2.3 0.8-0.6 0.6-1 1.5-1.2 2.7l-0.6 3.5c-0.2 1.2-0.1 2.1 0.4 2.9 0.4 0.8 1.1 1.2 2.1 1.4 0.9 0.1 1.6 0 2.1-0.5 0.5-0.4 0.8-1.2 1-2.3l4 0.5z"/>
        <path d="m207.3 213.5-6.7-0.8-1.1 6.7-3.9-0.5 2.6-16.7 11.8 1.5-0.5 3-7.9-1-0.6 4 6.7 0.8-0.4 3z"/>
        <path d="m169 235.6-11.7-1.5 0.4-2.5 6.3-5c0.8-0.7 1.4-1.3 1.8-1.9s0.7-1.1 0.7-1.5c0.1-0.6 0-1.2-0.2-1.6-0.3-0.4-0.7-0.7-1.4-0.8-0.6-0.1-1.1 0.1-1.5 0.6s-0.7 1.1-0.8 1.8l-3.8-0.5v-0.1c0.2-1.5 0.9-2.8 2.1-3.7s2.7-1.3 4.4-1.1c1.8 0.2 3.2 0.9 4.1 1.9s1.2 2.3 1 3.9c-0.2 1.1-0.6 1.9-1.3 2.7-0.7 0.7-1.9 1.8-3.6 3.2l-2.7 2.1v0.1l6.5 0.8-0.3 3.1z"/>
        <path d="m183.6 230.8c-0.4 2.3-1.1 3.9-2.4 4.9-1.2 1-2.7 1.4-4.5 1.2s-3.1-1-4-2.3-1.1-3-0.8-5.3l0.6-3.5c0.4-2.3 1.1-3.9 2.4-4.9 1.2-1 2.7-1.4 4.5-1.2s3.1 1 4 2.3 1.1 3 0.8 5.3l-0.6 3.5zm-3.3-4.3c0.2-1.3 0.2-2.2-0.1-2.8s-0.7-0.9-1.3-1-1.2 0.1-1.6 0.7c-0.4 0.5-0.7 1.4-0.9 2.7l-0.6 4c-0.2 1.3-0.2 2.2 0.1 2.8 0.2 0.6 0.7 0.9 1.3 1s1.2-0.1 1.6-0.6 0.7-1.4 0.9-2.7l0.6-4.1z"/>
        <path d="m196.3 239.1-11.7-1.5 0.4-2.5 6.3-5c0.8-0.7 1.4-1.3 1.8-1.9s0.7-1.1 0.7-1.5c0.1-0.6 0-1.2-0.2-1.6-0.3-0.4-0.7-0.7-1.4-0.8-0.6-0.1-1.1 0.1-1.5 0.6s-0.7 1.1-0.8 1.8l-3.8-0.5v-0.1c0.2-1.5 0.9-2.8 2.1-3.7s2.7-1.3 4.4-1.1c1.8 0.2 3.2 0.9 4.1 1.9s1.2 2.3 1 3.9c-0.2 1.1-0.6 1.9-1.3 2.7-0.7 0.7-1.9 1.8-3.6 3.2l-2.7 2.1v0.1l6.5 0.8-0.3 3.1z"/>
        <path d="m203.4 229.8 1.8 0.2c0.7 0.1 1.3 0 1.7-0.4 0.4-0.3 0.7-0.8 0.8-1.5 0.1-0.5 0-1-0.3-1.4s-0.7-0.6-1.4-0.7c-0.5-0.1-1 0-1.4 0.3-0.4 0.2-0.7 0.6-0.8 1l-3.8-0.5v-0.1c0.2-1.3 0.9-2.3 2.1-3s2.6-0.9 4.2-0.7c1.8 0.2 3.2 0.8 4.2 1.8s1.3 2.2 1.1 3.7c-0.1 0.8-0.5 1.4-1 2s-1.3 1-2.1 1.3c0.8 0.4 1.5 1 1.9 1.8 0.4 0.7 0.5 1.6 0.4 2.5-0.2 1.5-1 2.7-2.3 3.4s-2.9 1-4.7 0.7c-1.6-0.2-2.9-0.8-3.9-1.8-1.1-1-1.4-2.2-1.1-3.8v-0.1l3.8 0.5c-0.1 0.5 0.1 1 0.4 1.4s0.8 0.7 1.4 0.7c0.7 0.1 1.3 0 1.7-0.4 0.5-0.3 0.7-0.8 0.8-1.4 0.1-0.8 0-1.4-0.4-1.8s-0.9-0.7-1.7-0.8l-1.8-0.2 0.4-2.7z"/>
    </g>
</svg>
