<?xml version="1.0" encoding="utf-8"?>
<!-- Generator: Adobe Illustrator 25.2.0, SVG Export Plug-In . SVG Version: 6.00 Build 0)  -->
<svg version="1.1" id="Layer_1" xmlns="http://www.w3.org/2000/svg" xmlns:xlink="http://www.w3.org/1999/xlink" x="0px" y="0px"
	 viewBox="0 0 500 500" style="enable-background:new 0 0 500 500;" xml:space="preserve">
<style type="text/css">
	.st0{fill:#FFCC00;}
	.st1{fill:#FF8800;}
	.st2{fill:#0048F5;}
	.st3{fill:#FF6700;}
	.st4{fill:#FFFFFF;}

	/* Animation */
	

    #Tail--group {
        -webkit-animation: wobble-hor-top 5s ease-in-out infinite both;
        animation: wobble-hor-top 5s ease-in-out infinite both;
    }


    @-webkit-keyframes wobble-hor-top {
    0%,
    100% {
        -webkit-transform: translateX(0%);
		transform: translateX(0%);
        -webkit-transform-origin: 50% 50%;
		transform-origin: 50% 50%;
	}
		15% {
			-webkit-transform: translateX(-30px) rotate(6deg);
					transform: translateX(-30px) rotate(6deg);
		}
		30% {
			-webkit-transform: translateX(15px) rotate(-6deg);
					transform: translateX(15px) rotate(-6deg);
		}
		45% {
			-webkit-transform: translateX(-15px) rotate(3.6deg);
					transform: translateX(-15px) rotate(3.6deg);
		}
		60% {
			-webkit-transform: translateX(9px) rotate(-2.4deg);
					transform: translateX(9px) rotate(-2.4deg);
		}
		75% {
			-webkit-transform: translateX(-6px) rotate(1.2deg);
					transform: translateX(-6px) rotate(1.2deg);
		}
		}
		@keyframes wobble-hor-top {
		0%,
		100% {
			-webkit-transform: translateX(0%);
					transform: translateX(0%);
			-webkit-transform-origin: 50% 50%;
					transform-origin: 50% 50%;
		}
		15% {
			-webkit-transform: translateX(-30px) rotate(6deg);
					transform: translateX(-30px) rotate(6deg);
		}
		30% {
			-webkit-transform: translateX(15px) rotate(-6deg);
					transform: translateX(15px) rotate(-6deg);
		}
		45% {
			-webkit-transform: translateX(-15px) rotate(3.6deg);
					transform: translateX(-15px) rotate(3.6deg);
		}
		60% {
			-webkit-transform: translateX(9px) rotate(-2.4deg);
					transform: translateX(9px) rotate(-2.4deg);
		}
		75% {
			-webkit-transform: translateX(-6px) rotate(1.2deg);
					transform: translateX(-6px) rotate(1.2deg);
		}
    }
    #LeftFoot--group {
        -webkit-animation: wobble-ver-right 5s infinite 1.5s both;
                animation: wobble-ver-right 5s infinite 1.5s both;
    }

    #RightFootGroup {
        -webkit-animation: wobble-ver-right 5s infinite 1s both;
                animation: wobble-ver-right 5s infinite 1s both;
    }
	@-webkit-keyframes wobble-ver-right {
	0%,
	100% {
		-webkit-transform: translateY(0) rotate(0);
				transform: translateY(0) rotate(0);
		-webkit-transform-origin: 50% 50%;
				transform-origin: 50% 50%;
	}
	15% {
		-webkit-transform: translateY(-6px) rotate(1.2deg);
				transform: translateY(-6px) rotate(1.2deg);
	}
	30% {
		-webkit-transform: translateY(3px) rotate(-1.2deg);
				transform: translateY(3px) rotate(-1.2deg);
	}
	45% {
		-webkit-transform: translateY(-3px) rotate(0.72deg);
				transform: translateY(-3px) rotate(0.72deg);
	}
	60% {
		-webkit-transform: translateY(1.8px) rotate(-0.48deg);
				transform: translateY(1.8px) rotate(-0.48deg);
	}
	75% {
		-webkit-transform: translateY(-1.2px) rotate(0.24deg);
				transform: translateY(-1.2px) rotate(0.24deg);
	}
	}
	@keyframes wobble-ver-right {
	0%,
	100% {
		-webkit-transform: translateY(0) rotate(0);
				transform: translateY(0) rotate(0);
		-webkit-transform-origin: 50% 50%;
				transform-origin: 50% 50%;
	}
	15% {
		-webkit-transform: translateY(-3px) rotate(0.6deg);
				transform: translateY(-3px) rotate(0.6deg);
	}
	30% {
		-webkit-transform: translateY(1.5px) rotate(-0.6deg);
				transform: translateY(1.5px) rotate(-0.6deg);
	}
	45% {
		-webkit-transform: translateY(-1.5px) rotate(0.36deg);
				transform: translateY(-1.5px) rotate(0.36deg);
	}
	60% {
		-webkit-transform: translateY(0.9px) rotate(-0.24deg);
				transform: translateY(0.9px) rotate(-0.24deg);
	}
	75% {
		-webkit-transform: translateY(-0.6px) rotate(0.12deg);
				transform: translateY(-0.6px) rotate(0.12deg);
	}
	}



    /* End of Animation */
</style>
<g id="RightArm_1_">
	<path id="RightArm--bg" d="M186.6,204c-4.5,5.1-10.5,7.9-17,7.9c-9.1,0-18.5-5.5-24.4-14.4c-7.8-11.6-15.5-21.2-22.3-27.9l-4.8-4.7
		c-2-2-1.1-5.3,1.6-6.1l6.5-1.7c3.2-0.9,6.4-2.7,9.1-5.5c3-3,4.8-6.7,5.2-10.4V130c0-1.3,1.5-2.1,2.5-1.3l9.3,6.9
		c0.7,0.5,1.7,1.1,2.9,1.7c10.2,4.9,31.7,27.4,35.7,46.7C193,194.1,189.7,200.5,186.6,204z"/>
	<path id="RightArm" class="st0" d="M152.1,144.1c-1.5-0.7-2.9-1.5-4.2-2.4l0,0c-0.5,5.5-3,11-7.3,15.3c-3.7,3.7-8.1,6.2-12.5,7.4
		c8.7,8.6,17,19.8,23.2,29.1c4.5,6.7,11.6,11.1,18.3,11.1c4.1,0,8.1-1.6,11.4-5.4C194,184.4,163.7,149.6,152.1,144.1z"/>
</g>
<g id="Tail--group">
	<path id="Tail--bg" d="M349.1,349.5c-9,25.7-26.4,50-50.3,70.3c-23.8,20.3-51.8,34.7-81,41.6c-6.9,1.6-14.1,2.5-21.5,2.5
		c-30.8,0-58.9-13.9-74.8-27c-13.6-11.1-21.2-23.3-20.9-33.5c0.4-12,6.7-20.7,16.8-23.3c2.1-0.5,4.3-0.8,6.7-0.8
		c11.2,0,27.2,6.7,38.5,25.7c7.8,13.2,22,20.1,41.1,20.1c0.4,0,0.8,0,1.2,0c40.7-0.8,87.6-31.2,109.1-70.8
		c7.7-14.1,13.2-29.6,17.1-40.8c1.9-5.4,3.6-10.1,5.1-13.5c1.3-3.1,4.1-9.4,10.4-9.4c4.1,0,7.6,1.8,9.9,5
		C362,303.2,359.8,318.9,349.1,349.5z"/>
	<path id="Tail_2_" class="st1" d="M320.5,357.8c-22.7,41.7-72.5,73.9-115.5,74.7c-0.5,0-0.9,0-1.4,0c-21.6,0-38.3-8.4-47.4-23.8
		c-9-15.1-22-22.1-32.1-22.1c-1.7,0-3.3,0.2-4.8,0.6c-7,1.8-11,7.6-11.3,16.4c-0.3,7.7,6.6,18,18.2,27.5
		c16.8,13.7,43.2,25.3,70.1,25.3c6.6,0,13.3-0.7,19.8-2.3c57.2-13.5,108.5-57.4,126-107.1c5.4-15.3,16.7-49.2,4.5-49.2
		C342.1,297.9,335.8,329.6,320.5,357.8z"/>
</g>
<g id="Body--group">
	<path id="Body--bg" d="M399.7,231.9c-2,24-6.7,45.1-13.9,62.9c-8.5,20.9-20.3,36.6-35.1,46.8c-34,23.4-64.8,26-76.4,26
		c-1.3,0-2.5,0-3.8-0.1c-18.4-0.8-26-4.4-32.7-7.5c-5.9-2.8-11-5.2-24.9-5.7c-37.5-1.5-67-9.9-83.1-23.6c-0.2-0.1-0.5-0.4-0.9-0.7
		c-4.8-3.5-19.3-14.3-25-24.7c-5.3-9.7-6.2-22.3-2.3-31.4c13.4-31.2,24.5-40.5,33.5-48c3.6-3,6.4-5.3,8.8-8.7
		c2.2-3.1,3.8-7.1,4.9-12.2c0-0.1,0-0.2,0.1-0.3c3.9-15,3.4-34.9,2.8-56c-0.2-5.7-0.3-11.7-0.4-17.5v-0.1c0-18.6,9.6-40.7,25.7-59.2
		c18.1-20.8,41.6-33.6,66.1-36.2c20.2-2.1,34.3-3.1,45.9-3.1c43.7,0,58.6,14.8,82.2,48.4c7.5,10.6,12.1,22.5,16,33.7
		C398.3,145.1,403.1,191.2,399.7,231.9z"/>
	<path id="Body_1_" class="st0" d="M108.5,276.7c-3,7-2.2,17.4,2,25c5.6,10.3,23,22.2,24.1,23.2c15.1,12.9,43.7,20.5,78.7,21.9
		c31.2,1.3,24.3,11.8,57.6,13.3c1.1,0,2.2,0.1,3.5,0.1c16.7,0,43.7-5,72.2-24.7c58-39.9,52.9-165.3,34-218.6
		c-3.9-11.1-8.3-22.2-15.1-31.9c-23.5-33.5-36.6-45.2-76.2-45.2c-12.2,0-26.9,1.1-45.1,3.1c-49.9,5.3-85.3,55.3-85.3,88.1
		c0.3,27.4,2.5,55.1-2.7,75.5c-1.4,6.5-3.4,11.2-6,14.9C140.4,234.9,126.8,233.8,108.5,276.7z"/>
</g>
<g id="CF2023">
	<g id="Line--group">
		<path id="Line1" class="st2" d="M220.3,191.1c-0.6,0-1.2-0.1-1.8-0.3c-2.9-1-4.4-4.2-3.3-7c5.7-16.1,48.9-67.3,82.6-77.6
			c32-9.8,69-27.4,69.3-27.6c2.7-1.3,6-0.1,7.3,2.6s0.1,6-2.6,7.3c-1.5,0.7-38.1,18.1-70.9,28.2c-30.4,9.3-70.9,58-75.5,70.8
			C224.7,189.7,222.6,191.1,220.3,191.1z"/>
		<path id="Line2" class="st2" d="M173.8,183.2c-2.6,0-4.9-1.8-5.4-4.4c-0.1-0.3-6.7-33.4-11.7-52.6c-0.8-2.9,1-5.9,3.9-6.7
			c2.9-0.8,5.9,1,6.7,3.9c5.1,19.5,11.8,52.9,11.8,53.2c0.6,3-1.3,5.9-4.3,6.5C174.6,183.2,174.2,183.2,173.8,183.2z"/>
	</g>
	<g id="IDcard--group">
		<g id="ID--group">
			<path id="Color1" class="st3" d="M233.8,181.3c-1.1,5.2-2.2,10.5-3.2,16l-76.8-6.6c1.4-5.2,2.9-10.4,4.5-15.5
				c0.3-0.9,1.1-1.5,2.1-1.4l71.6,5.1C233.2,179,234.1,180.2,233.8,181.3z"/>
			<path id="Color2" d="M220.3,270.7c-0.6,6.6-1,12.7-1.2,18.1c0,1.2-1.2,2.1-2.4,1.9l-75.9-14.3c-1-0.2-1.7-1.1-1.6-2.1
				c0.3-5.1,0.7-10.3,1.3-15.7L220.3,270.7z"/>
			<path id="Color3" class="st3" d="M222.2,252.3c-0.8,6.4-1.4,12.6-1.9,18.4l-79.9-12.2c0.6-5.5,1.4-11.2,2.3-17L222.2,252.3z"/>
			<path id="Color4" class="st4" d="M230.6,197.4c-1.1,6-2.2,12.1-3.2,18.3c-1,6.1-1.9,12.2-2.8,18.3c-0.9,6.2-1.7,12.4-2.4,18.4
				l-79.5-10.7c0.9-5.6,1.9-11.2,3-16.9c1.1-5.6,2.4-11.3,3.7-16.9c1.3-5.7,2.8-11.3,4.3-17L230.6,197.4z"/>
		</g>
		<g>
			<path d="M173.3,211.3l-1.9-0.2l-1.5,4.6l-2.3-0.3l1.5-4.6l-2.6-0.3l0.3-2.1l2.9,0.4l1-3l-2.5-0.3l0.3-2.1l2.9,0.4l1.5-4.7
				l2.3,0.3l-1.5,4.7l1.9,0.2l1.5-4.7l2.3,0.3l-1.5,4.7l2.7,0.3l-0.3,2.1l-3-0.4l-1,3l2.6,0.3l-0.3,2.1l-3-0.4l-1.5,4.6l-2.3-0.3
				L173.3,211.3z M172.1,209l1.9,0.2l1-3l-1.9-0.2L172.1,209z"/>
			<path d="M194.5,212.7L194.5,212.7c-0.4,2-1.2,3.4-2.4,4.3c-1.2,0.9-2.9,1.2-5,0.9c-2.1-0.3-3.7-1.1-4.8-2.5
				c-1.1-1.4-1.5-3.2-1.2-5.2l0.5-3.5c0.3-2,1.2-3.6,2.7-4.7c1.4-1.1,3.2-1.5,5.2-1.3c2.1,0.3,3.7,1,4.6,2.2c1,1.2,1.4,2.8,1.2,4.8
				l0,0.1l-3.8-0.5c0.1-1.1,0-1.9-0.4-2.5c-0.4-0.6-1-0.9-2.1-1.1c-0.9-0.1-1.6,0.2-2.3,0.8c-0.6,0.6-1,1.5-1.2,2.7l-0.6,3.5
				c-0.2,1.2-0.1,2.1,0.4,2.9c0.4,0.8,1.1,1.2,2.1,1.4c0.9,0.1,1.6,0,2.1-0.5c0.5-0.4,0.8-1.2,1-2.3L194.5,212.7z"/>
			<path d="M207.3,213.5l-6.7-0.8l-1.1,6.7l-3.9-0.5l2.6-16.7l11.8,1.5l-0.5,3l-7.9-1l-0.6,4l6.7,0.8L207.3,213.5z"/>
			<path d="M169,235.6l-11.7-1.5l0.4-2.5l6.3-5c0.8-0.7,1.4-1.3,1.8-1.9c0.4-0.6,0.7-1.1,0.7-1.5c0.1-0.6,0-1.2-0.2-1.6
				c-0.3-0.4-0.7-0.7-1.4-0.8c-0.6-0.1-1.1,0.1-1.5,0.6c-0.4,0.5-0.7,1.1-0.8,1.8l-3.8-0.5l0-0.1c0.2-1.5,0.9-2.8,2.1-3.7
				c1.2-0.9,2.7-1.3,4.4-1.1c1.8,0.2,3.2,0.9,4.1,1.9s1.2,2.3,1,3.9c-0.2,1.1-0.6,1.9-1.3,2.7c-0.7,0.7-1.9,1.8-3.6,3.2l-2.7,2.1
				l0,0.1l6.5,0.8L169,235.6z"/>
			<path d="M183.6,230.8c-0.4,2.3-1.1,3.9-2.4,4.9c-1.2,1-2.7,1.4-4.5,1.2c-1.8-0.2-3.1-1-4-2.3c-0.9-1.3-1.1-3-0.8-5.3l0.6-3.5
				c0.4-2.3,1.1-3.9,2.4-4.9c1.2-1,2.7-1.4,4.5-1.2c1.8,0.2,3.1,1,4,2.3c0.9,1.3,1.1,3,0.8,5.3L183.6,230.8z M180.3,226.5
				c0.2-1.3,0.2-2.2-0.1-2.8c-0.3-0.6-0.7-0.9-1.3-1c-0.6-0.1-1.2,0.1-1.6,0.7c-0.4,0.5-0.7,1.4-0.9,2.7l-0.6,4
				c-0.2,1.3-0.2,2.2,0.1,2.8c0.2,0.6,0.7,0.9,1.3,1c0.6,0.1,1.2-0.1,1.6-0.6c0.4-0.5,0.7-1.4,0.9-2.7L180.3,226.5z"/>
			<path d="M196.3,239.1l-11.7-1.5l0.4-2.5l6.3-5c0.8-0.7,1.4-1.3,1.8-1.9c0.4-0.6,0.7-1.1,0.7-1.5c0.1-0.6,0-1.2-0.2-1.6
				c-0.3-0.4-0.7-0.7-1.4-0.8c-0.6-0.1-1.1,0.1-1.5,0.6c-0.4,0.5-0.7,1.1-0.8,1.8l-3.8-0.5l0-0.1c0.2-1.5,0.9-2.8,2.1-3.7
				c1.2-0.9,2.7-1.3,4.4-1.1c1.8,0.2,3.2,0.9,4.1,1.9c0.9,1,1.2,2.3,1,3.9c-0.2,1.1-0.6,1.9-1.3,2.7c-0.7,0.7-1.9,1.8-3.6,3.2
				l-2.7,2.1l0,0.1l6.5,0.8L196.3,239.1z"/>
			<path d="M203.4,229.8l1.8,0.2c0.7,0.1,1.3,0,1.7-0.4c0.4-0.3,0.7-0.8,0.8-1.5c0.1-0.5,0-1-0.3-1.4c-0.3-0.4-0.7-0.6-1.4-0.7
				c-0.5-0.1-1,0-1.4,0.3c-0.4,0.2-0.7,0.6-0.8,1l-3.8-0.5l0-0.1c0.2-1.3,0.9-2.3,2.1-3c1.2-0.7,2.6-0.9,4.2-0.7
				c1.8,0.2,3.2,0.8,4.2,1.8c1,1,1.3,2.2,1.1,3.7c-0.1,0.8-0.5,1.4-1,2s-1.3,1-2.1,1.3c0.8,0.4,1.5,1,1.9,1.8
				c0.4,0.7,0.5,1.6,0.4,2.5c-0.2,1.5-1,2.7-2.3,3.4c-1.3,0.7-2.9,1-4.7,0.7c-1.6-0.2-2.9-0.8-3.9-1.8c-1.1-1-1.4-2.2-1.1-3.8l0-0.1
				l3.8,0.5c-0.1,0.5,0.1,1,0.4,1.4s0.8,0.7,1.4,0.7c0.7,0.1,1.3,0,1.7-0.4c0.5-0.3,0.7-0.8,0.8-1.4c0.1-0.8,0-1.4-0.4-1.8
				c-0.4-0.4-0.9-0.7-1.7-0.8l-1.8-0.2L203.4,229.8z"/>
		</g>
	</g>
</g>
<g id="RightHand--group">
	<path id="RightHand--bg" d="M140.6,157c-5.2,5.1-11.7,8.1-17.8,8.1c-8.1,0-14-5.1-15.6-13.3c-1-5.4,0.9-11.3,5.4-16.7
		c5.8-6.9,14.9-12,21.7-12.1h0.2c1.3,0,2.6,0.2,3.8,0.6h0.2l0.1,0.1c4.5,1.8,7.9,6.2,9.1,11.8C149.1,143,146.5,151,140.6,157z"/>
	<path id="RightHand" class="st0" d="M135.4,151.7c4.2-4.2,6-9.6,5-14.7c-0.6-3.1-2.3-5.5-4.6-6.4c-0.4-0.1-0.9-0.2-1.3-0.2h-0.1
		c-4,0-11.3,3.6-16.1,9.4c-1.8,2.1-4.6,6.3-3.8,10.6c1.1,6,5.1,7.3,8.3,7.3C126.9,157.7,131.6,155.5,135.4,151.7z"/>
</g>
<g id="RightFootGroup">
	<path id="RightFoot--bg" d="M134.3,348c-2.4,3.7-6.4,5.7-11.5,5.7c-1.9,0-4-0.3-6.2-0.8c-25-6-59.3-43.6-63.6-64.5
		c-1.9-9.4-0.2-18,5-24.4c4.6-5.7,11.4-8.8,18.9-8.8c6.8,0,13.6,2.5,19.8,7.3c12.2,9.4,32.9,50.5,37.3,60.7
		C136.5,329,138.9,340.9,134.3,348z"/>
	<path id="RightFoot_1_" class="st0" d="M60.1,286.8c3.8,18.2,36.2,53.6,58.1,58.8c1.7,0.4,3.2,0.6,4.5,0.6c3.4,0,4.7-1.3,5.4-2.3
		c2.3-3.5,1.5-12.1-1-17.9c-6.1-13.9-25.3-50.3-35.1-57.8c-4.9-3.8-10.2-5.8-15.3-5.8c-5.3,0-10,2.2-13.2,6.1
		C59.9,273.2,58.7,279.7,60.1,286.8z"/>
</g>
<g id="RightEar--group">
	<path id="RightEar--bg" d="M163.3,99.4c-0.4,4.4-3.8,8.4-11.1,12.9c-4.7,3-10.2,5.5-13.9,6.5c-6.5,1.7-12.3,2.6-17.3,2.6
		c-6.7,0-10.6-1.6-12.7-2.9c-4.8-3-4.4-7.2-4.2-8.5c0.5-3.1,2.9-5.5,5.9-6.2c3.5-0.8,13.5-5.8,23.6-12.6c4.2-2.9,10.7-4.8,16.1-4.8
		c5.8,0,9.1,2.2,10.8,4.1C162.6,92.9,163.6,96,163.3,99.4z"/>
	<path id="RightEar" class="st1" d="M111.4,111.3c0,0.3,0.4,0.7,0.9,0.9c1.1,0.7,3.6,1.8,8.8,1.8c4.3,0,9.5-0.8,15.4-2.3
		c5.2-1.4,19.1-8.8,19.5-13c0.1-1.3-0.2-2.4-0.9-3.2c-1-1.1-2.8-1.7-5.3-1.7c-3.9,0-8.9,1.5-11.9,3.5c-8.5,5.7-20.5,12.5-26.1,13.7
		C111.5,111.1,111.4,111.2,111.4,111.3z"/>
</g>
<g id="Head--group">
	<path id="Head--bg" d="M266.4,28.1c1.6,0,3.2,0,4.8,0.1c20.6,0.6,39.5,6.5,55.9,17c11.2,7.2,17.5,11.4,25.9,25.2
		c1.5,2.5,9,0.8,7.9-1.1C350.8,51.7,343.4,47,331.1,39c-17.7-11.4-37.8-17.6-59.7-18.2c-1.6,0-3.3-0.1-5-0.1l0,0
		c-1.6,0-3.3,0-4.9,0.1c-24.3,0.6-47.8,6.6-67.8,17.1c-20.2,10.6-37.1,26.1-48.9,44.7c-7.7,12.3-10.3,23.9-7.4,33.5
		c2.4,7.8,7.9,12.7,12.3,14.6c1.4,0.6,2.9,0.9,4.7,0.9c9.3,0,34.7-9.3,45.7-24.8c8.4,4.5,17.6,6.7,28.1,6.7c12.6,0,25-3.2,36.4-6.9
		c3-1,3.8-2.2,3.9-4.1c0-1.3-1.2-3.6-3.8-3.5c-0.3,0-0.7,0.1-1,0.2c-11.2,3.6-23.3,6.9-35.4,6.9c-9.3,0-18.6-2-27.4-7.4
		c-0.6-0.4-1.3-0.5-1.9-0.5c-1.3,0-2.5,0.6-3.2,1.8l-0.1,0.1c-7.9,14.3-33.3,24.1-41.2,24.1c-0.7,0-1.3-0.1-1.7-0.3
		c-2.8-1.2-6.6-4.6-8.2-10c-2.3-7.5,0-17,6.6-27.4c22.5-35.7,63.4-57.1,110.6-58.3l0,0C263.2,28.1,264.8,28.1,266.4,28.1"/>
	<path id="Head" class="st0" d="M266.6,99.4c-1-0.4-2-0.7-3-0.3c-19.7,6.3-42.5,12-62.8-0.5c-1.7-1.1-4-0.5-5.1,1.2l-0.1,0.1
		c-8.6,15.7-38.3,26-43,23.9c-2.8-1.2-6.6-4.6-8.2-10c-2.3-7.5,0-17,6.6-27.4c22.5-35.7,63.4-57.1,110.6-58.3l0,0
		c3.1-0.1,6.3-0.1,9.5,0c20.6,0.6,39.5,6.5,55.9,17c13.2,8.5,19.7,12.7,30.6,33.6C363.2,89.2,273.2,102.2,266.6,99.4z"/>
</g>
<g id="LeftArm--group">
	<path id="LeftArm--bg" d="M228,113.3c-6.4,2.9-12.4,6.6-17.6,11.1c-12.1,10.6-12.6,19.4-10.8,24.8c2.5,7.7,11.1,13.4,21.9,14.6
		c7.1,0.7,16.2-1.3,26.7-3.6c13.9-3.1,29.7-6.6,42.9-3.9c19.6,4.1,33.3,15,53.1,32.7l10.3,9.2c1.5,1.3,3.9,1.2,5.2-0.4
		c1.3-1.5,1.2-3.9-0.4-5.2l0,0l-2.9-2.6c-24-21.7-39.9-36-63.8-41c-14.8-3.1-31.3,0.6-46,3.9c-9.5,2.1-18.5,4.1-24.3,3.5
		c-7.8-0.8-14.1-4.6-15.7-9.5c-1.5-4.7,1.6-10.7,8.7-17c20.7-18.2,59.1-23.7,87.5-12.5c4.7,1.9,7.4-5.1,2.7-6.9
		c-11.4-4.4-24.6-6.6-37.7-6.2C257.7,104.7,237.3,109.1,228,113.3z"/>
	<path id="LeftArm" class="st0" d="M365.4,151c11.7,12.2,17,60.3-6,41.6l0,0l-2.9-2.6c-24-21.7-39.9-36-63.8-41
		c-14.8-3.1-31.3,0.6-46,3.9c-9.5,2.1-18.5,4.1-24.3,3.5c-7.8-0.8-14.1-4.6-15.7-9.5c-1.5-4.7,1.6-10.7,8.7-17
		c20.7-18.2,59.3-24,87.5-12.5C307.5,119.4,349,133.9,365.4,151z"/>
</g>
<g id="LeftEar--group">
	<path id="LeftEar--bg" d="M451.4,57.1c-0.5,1.7-1.2,3.4-2,5.2c-5,10-17.7,23-38,29.1c-4.5,1.4-9.3,2-14,2h-0.1
		c-13,0-34.2-4.9-61.6-28.3c-1.9-1.7-5.1-4.8-7.1-7c-2.3-2.5-2.8-6.1-1.5-9.1s4.4-5.1,7.8-5.1c0.2,0,0.3,0,0.5,0
		c13.9,0.8,30.1,1.2,48.4,1.2c8.1,0,14.8-0.1,19.3-0.1c2,0,3.5,0,4.5,0c7.4,0,13.3-0.1,18.2-0.1c8.1,0,13.7,0.1,17.1,0.2
		c2.9,0.1,5.6,1.5,7.3,3.9C451.7,51.3,452.2,54.2,451.4,57.1z"/>
	<path id="LeftEar" class="st1" d="M340.4,59.4c25.7,21.9,45.1,26.5,56.8,26.5h0.1c4,0,8-0.6,11.9-1.7c18.1-5.4,29.2-16.6,33.5-25.3
		c0.8-1.5,1.2-2.8,1.5-3.9c0.4-1.3-0.6-2.6-1.9-2.7c-3.3-0.1-8.9-0.2-16.7-0.2c-5.4,0-11.6,0-18.2,0.1c-3.3,0-12.2,0.2-23.9,0.2
		c-13.9,0-31.7-0.2-48.8-1.2c0,0,0,0-0.1,0c-0.9,0-1.5,1.1-0.8,1.8C335.8,55.2,338.8,58.1,340.4,59.4z"/>
</g>
<g id="Face--group">
	<path id="RightEye" d="M167.6,76.2c-4.1,0-7.4,3.3-7.4,7.4c0,9.9,14.8,9.9,14.8,0C175,79.5,171.7,76.2,167.6,76.2z"/>
	<path id="LeftEye" d="M253.2,55.7c-4.1,0-7.4,3.3-7.4,7.4c0,9.9,14.8,9.9,14.8,0C260.6,59,257.3,55.7,253.2,55.7L253.2,55.7
		L253.2,55.7z"/>
	<path id="Nose" d="M207.9,75.4c-7.4,0.8-12.3,2.5-15.6,4.9c-5.9,4.4-4.1,9.9,2.5,10.7c6.6,0.8,7.1,1.2,13.2-3.3
		C214.5,82.8,215.3,74.6,207.9,75.4L207.9,75.4z"/>
</g>
<g id="LeftLEg--group">
	<path id="LetLeg" class="st0" d="M262.4,355.2c-4.6-5.2-3.7-15.7-1.9-29.4c2.6-19.8,5-34.5,25.4-50.8c24.4-19.5,62.2-15,76.2-0.5
		c3.6,3.7,6.7,10.9,7.3,18.8c0.9,11.4-22.2,42.4-44.8,51.8C302,354.7,270.6,364.4,262.4,355.2z"/>
	<path id="LeftLeg--bg_1_" d="M262.4,358.9c-1.2,0-2.3-0.5-3-1.6c-4.7-6.7-4.5-17.2-2.6-32c2.5-19,4.6-35.5,26.8-53.2
		c26.8-21.4,63.7-14,78.4,0.7c1.4,1.4,1.4,3.8,0,5.2s-3.8,1.4-5.2,0c-12.5-12.5-45.4-18.7-68.6-0.1c-18.9,15.1-21.4,28.2-24.1,48.4
		c-1.4,11-2.3,21.8,1.3,26.7c1.2,1.7,0.8,4-0.9,5.2C263.9,358.7,263.1,358.9,262.4,358.9z"/>
</g>
<g id="LeftFoot--group">
	<path id="LeftFoot--bg" d="M273.7,351.2c-0.4,1.9-2,9.1-6.7,16.2c-7,10.6-17.8,16.5-30.4,16.5c-7.2,0-12.9-2.1-16.8-6.2
		c-7.5-7.8-7.1-21-6.7-33.7v-0.1c0.2-6.4,0.4-13.1-0.4-18.5c-0.7-4.4-1.8-9.1-3.1-14.5c-2.4-10.2-4.6-20.1-4.3-28.7
		c0.4-10.7,4.7-18.9,12.8-24.4c3.5-2.4,7.4-3.5,11.4-3.5c9.3,0,18.9,6.2,28.7,18.6c7.1,8.9,13.1,20,15.4,28.1
		C280,322.8,278.5,335.9,273.7,351.2z"/>
	<path id="LeftFoot_1_" class="st0" d="M227,370.8c2,2.1,5.2,3.1,9.6,3.1c22.6,0,27-23.7,27.2-24.7c0-0.2,0.1-0.4,0.1-0.6
		c4.4-13.9,5.7-25.2,0-44.8c-3.7-13.2-21.1-39.4-34.4-39.4c-2,0-4,0.6-5.8,1.9c-11.7,7.8-9.3,21.8-4.4,42.4
		c1.2,5.1,2.5,10.4,3.2,15.3c1,6.4,0.8,13.5,0.5,20.4C222.8,355,222.4,366,227,370.8z"/>
</g>
</svg>
