<svg xmlns="http://www.w3.org/2000/svg" xml:space="preserve" id="wapuugotchi_svg__wapuu" x="0" y="0" version="1.1" viewBox="0 0 1000 1000">
      <style id="animation--nose_wiggle_1">
    #wapuugotchi_type__squirrel #Face--group__nose { transform-origin: 55% 63%; animation: Face--group__nose 0.3s 0s 4 normal linear forwards}
    @keyframes Face--group__nose { 100,0% {transform: rotate(0deg)} 25% {transform: rotate(-0.3deg)} 75% {transform: rotate(0.3deg)}}
  </style>
    <style id="animation--ear_wiggle_1">
    #wapuugotchi_type__squirrel #LeftEar--group { transform-origin: 58% 35%; animation: LeftEar--group 0.1s 2s 2 normal linear forwards}@keyframes LeftEar--group { 100%, 0% {transform: rotate(0deg)} 50% {transform: rotate(20deg)}}
    #wapuugotchi_type__squirrel #RightEar--group { transform-origin: 41% 40%; animation: RightEar--group 0.1s 2s 2 normal linear forwards}@keyframes RightEar--group { 100%, 0% {transform: rotate(0deg)} 50% {transform: rotate(-20deg)}}
  </style>
    <style id="animation--foot_wiggle_1">
    #wapuugotchi_type__squirrel #LeftFoot--group { transform-origin: 49% 66%; animation: LeftFoot--group 3s 12s 2 normal linear forwards}@keyframes LeftFoot--group { 100%, 0% {transform: rotate(0deg)} 25% {transform: rotate(-5deg)} 50% {transform: rotate(0deg)} 75% {transform: rotate(5deg)}}
    #wapuugotchi_type__squirrel #RightFoot--group { transform-origin: 37% 64%; animation: RightFoot--group 3s 12s 2 normal linear forwards}@keyframes RightFoot--group { 100%, 0% {transform: rotate(0deg)} 25% {transform: rotate(5deg)} 50% {transform: rotate(0deg)} 75% {transform: rotate(-5deg)}}
  </style>
    <style id="animation--swing tail_1">
    #wapuugotchi_type__squirrel #Tail--group { transform-origin: 55% 63%; animation: Tail--group 3s 22s 2 normal ease-in-out forwards}
    @keyframes Tail--group { 0% {transform: rotate(0deg)} 50% {transform: rotate(12deg)}}
  </style>
    <g id="wapuugotchi_type__squirrel">
        <g id="Background--group" />
        <g id="RightArm--group">
            <path d="M400 443.8c-1.5-.7-2.9-1.5-4.2-2.4-.4 5.5-2.9 11-7.1 15.4-3.7 3.7-8 6.3-12.4 7.5 8.8 8.5 17.2 19.6 23.5 28.9 4.6 6.7 11.7 11 18.4 10.9 4.1 0 8.1-1.7 11.3-5.5 12.8-14.9-17.8-49.4-29.5-54.8z" fill="#f36d22"/>
            <path d="M439.2 483.3C435 464 413.3 441.8 403 437c-1.2-.6-2.2-1.2-2.9-1.7l-9.4-6.8c-1-.8-2.5 0-2.5 1.3l.1 11.2c-.4 3.7-2.1 7.4-5.1 10.5-2.7 2.8-5.9 4.7-9 5.6l-6.5 1.8c-2.7.8-3.6 4.1-1.5 6.1l4.8 4.7c6.9 6.6 14.7 16.2 22.6 27.7 6 8.8 15.4 14.2 24.5 14.2 6.5-.1 12.5-2.9 16.9-8.1 3.2-3.6 6.4-10.1 4.2-20.2zm-9.7 15.3c-3.3 3.8-7.2 5.5-11.3 5.5-6.7.1-13.8-4.3-18.4-10.9-6.3-9.2-14.7-20.4-23.5-28.9 4.4-1.2 8.8-3.8 12.4-7.5 4.3-4.3 6.7-9.9 7.1-15.4 1.3.9 2.7 1.7 4.2 2.4 11.7 5.4 42.3 39.9 29.5 54.8z" />
        </g>
        <g id="Tail--group">
            <path d="M780.947 500.381s-1.559-.617-4.078-1.806c-.391-.13-.775-.359-1.16-.588-.191-.114-.483-.236-.775-.358-.875-.366-1.843-.839-2.91-1.32a240.317 240.317 0 0 1-12.742-6.66c-.484-.237-.86-.566-1.344-.802-.86-.566-1.729-1.031-2.59-1.596l-.1-.007c-.383-.23-.86-.566-1.244-.795l-2.581-1.696c-.377-.328-.86-.565-1.237-.894-.377-.328-.761-.557-1.238-.894-1.806-1.337-3.504-2.767-4.996-4.281-9.268 4.626-15.01 14.428-14.944 18.946.055.605.004 1.303.059 1.91.055.605.004 1.303.059 1.909.055.606.004 1.304.059 1.91.018 1.104.029 2.308.147 3.42.169 5.828.415 11.963.455 18.183-.022.3-.037.499.04.805-.036.5.019 1.105-.018 1.604.048.705-.004 1.403-.063 2.2.04.806-.012 1.504-.07 2.302-.064 2.201-.134 4.502-.198 6.704l-.11 1.496c-.178 2.393-.264 4.894-.54 7.28-.053.698-.112 1.496-.263 2.186-.045.599-.082 1.097-.226 1.688l-.655 4.765c-.051.698-.203 1.389-.362 2.179-.196 1.289-.491 2.57-.687 3.86-.651 3.36-1.401 6.714-2.45 10.046-2.432 8.443-5.869 16.912-10.709 25.377-.801 1.344-1.496 2.596-2.397 3.933-.451.669-.795 1.245-1.245 1.913-.115.192-.222.285-.337.477-.221.284-.443.568-.565.86-.114.192-.229.384-.443.569-.222.284-.443.569-.565.86-.107.093-.222.285-.33.377-.213.185-.335.477-.55.661-.107.093-.221.285-.328.377-.33.377-.558.76-.887 1.137-.114.192-.329.377-.443.57-.107.091-.115.191-.222.284-.222.284-.436.469-.658.753-.214.185-.328.377-.55.661-.107.092-.114.192-.222.284l-.986 1.13c-.007.1-.107.093-.114.192-.436.47-.765.846-1.201 1.315l-.214.185c-.429.37-.765.846-1.194 1.215-.435.469-.864.838-1.3 1.307-.107.093-.222.285-.428.37-.322.276-.643.553-.865.838l-.964.83-.429.37-.535.462c-.322.277-.536.461-.85.639l-.964.83-.321.277c-.529.362-1.064.824-1.493 1.193-.42.27-.742.547-1.163.816-.429.37-.95.632-1.378 1.001-.107.092-.207.085-.214.185a3.039 3.039 0 0 1-.735.447c-4.219 2.795-8.485 4.885-12.622 6.583-.414.17-.928.333-1.341.502-.828.34-1.755.672-2.582 1.012 0 0-.1-.007-.107.092-.414.17-.72.248-1.134.418-.414.17-.82.24-1.234.41-.414.17-.82.24-1.234.41 0 0-.1-.008-.107.091l-.92.233c-.406.07-.82.24-1.333.402-.207.085-.406.07-.613.155-.207.085-.407.07-.613.156-.307.077-.514.162-.82.24-.1-.008-.207.084-.407.07l-.92.232-.199-.015c-.813.14-1.533.388-2.238.436-.1-.007-.207.085-.307.077-.306.078-.506.063-.813.14-1.832.366-3.656.632-5.167.72-.1-.007-.307.078-.406.07l-.1-.007c-.307.078-.506.063-.805.04l-.805.041c-1.312.103-2.324.229-3.221.162l-.2-.015-.1-.007c-.199-.014-.299-.022-.505.063l-.2-.015-.2-.015-.199-.014-.1-.007-.1-.007c-.598-.045-1.004.025-1.104.018l-.1-.007c.185.214.47.436.747.757l.277.322c.092.107.184.214.376.328.47.436.938.872 1.415 1.208.092.108.284.222.384.23.377.328.853.664 1.237.894.192.114.384.229.569.443l.092.107c.093.107.292.122.384.229 1.053.68 2.105 1.36 3.173 1.84.192.114.484.236.676.35 1.451.71 2.71 1.305 3.977 1.8.193.115.392.13.584.244.584.244 1.175.388 1.666.525.2.015.292.122.491.137l.2.014c.199.015.39.13.49.137l.2.015c.192.114.392.13.591.144.69.152 1.082.281 1.082.281-2.467.82-4.835 1.647-7.295 2.366-.513.163-1.127.318-1.64.48l-1.84.465c-.206.085-.406.07-.613.156-2.866.79-5.718 1.38-8.47 1.978l-2.138.443c-2.744.498-5.481.897-8.218 1.295l-1.818.166c-.812.14-1.717.173-2.522.214-.806.04-1.718.173-2.523.214-1.61.08-3.32.154-4.931.235-.606.056-1.204.011-1.71.074l-.1-.007c-.2-.015-.499-.037-.705.048l-.2-.015c-.805.04-1.603-.019-2.308.03-.4-.03-.905.032-1.304.002l-1.097-.081c-.499-.037-.997-.074-1.504-.011l-1.595-.119-1.496-.11-1.496-.112c-77.89-7.085-122.605-96.34-79.332-164.624 9.31-14.65 21.73-30.675 38.34-46.39l1.854 19.592s3.669-7.55 11.527-17.495c6.856-8.616 16.853-19.004 30.435-27.723-.55 3.368-1.52 11.018-1.35 19.554.121-.292.335-.477.557-.761 8.527-12.202 26.51-32.928 53.12-40.178l-.007.1c-.558.76-4.821 6.861-8.734 14.994.329-.377.757-.746 1.186-1.115 10.45-9.754 37.686-29.492 76.973-19.757 29.05 7.17 45.21 24.514 47.894 53.191 2.445 25.15-5.807 33.663-.134 55.844z" fill="#f36d22"/>
            <path d="M776.87 498.575c-.392-.13-.776-.359-1.16-.588-.192-.114-.484-.236-.776-.358-.875-.366-1.843-.839-2.91-1.32-3.778-1.784-8.218-4.119-12.742-6.66-.484-.237-.86-.566-1.344-.802-.86-.566-1.729-1.031-2.59-1.596l-.1-.007c-.383-.23-.86-.566-1.244-.795l-2.581-1.696c-.377-.328-.86-.565-1.237-.894-.377-.328-.761-.557-1.238-.894-1.806-1.337-3.504-2.767-4.996-4.281-9.268 4.626-15.01 14.428-14.944 18.946l.177 5.728c.165 4.525.316 9.25.367 13.966.048.705-.004 1.403.044 2.109.048.705-.004 1.404.044 2.109.048.705-.004 1.404.044 2.11.048.705-.004 1.403.044 2.108-.037.499.018 1.104-.019 1.603-.026 4.41-.053 8.82-.393 13.408l-.348 4.687-.148 1.994c-.052.698-.111 1.496-.263 2.187-.037.499-.074.997-.21 1.488l-.015.2c-.045.598-.182 1.09-.226 1.688-.044.598-.181 1.09-.226 1.688l-.059.798c-2.23 15.176-6.897 30.773-16.55 46-.558.761-1.024 1.63-1.581 2.39-.558.761-1.016 1.53-1.574 2.29-.23.384-.558.76-.787 1.145a42.046 42.046 0 0 1-1.659 2.083c-.329.376-.55.66-.88 1.038-.55.66-1.1 1.322-1.75 1.975-1.422 1.6-2.937 3.091-4.444 4.484-.643.554-1.186 1.115-1.829 1.669l-.957.731c-.642.554-1.178 1.016-1.813 1.47-.636.454-1.278 1.008-1.914 1.462-.957.731-1.906 1.363-2.855 1.994-21 14.085-43 13.254-43.605 13.31.277.32.654.65 1.03.978.562.543 1.123 1.086 1.791 1.537.761.558 1.422 1.108 2.183 1.666l.092.107c.953.673 1.814 1.238 2.781 1.71l.1.008c2.212 1.267 4.454 2.135 6.212 2.767.975.373 1.858.64 2.549.791.982.273 1.673.425 1.773.432a47.076 47.076 0 0 1-5.342 1.71c-.62.255-1.333.402-1.954.657-.513.162-1.126.317-1.64.48l-1.839.465c-1.226.31-2.453.62-3.58.938-1.839.465-3.67.83-5.403 1.203l-2.139.443c-.812.14-1.525.288-2.338.428-.912.133-1.725.273-2.637.406-.713.147-1.319.203-2.024.25-.307.078-.706.049-1.012.126-.706.048-1.419.196-2.024.25-.813.141-1.718.174-2.523.215-.805.04-1.718.173-2.523.214l-2.416.121-.2-.015-2.415.122c-.605.055-1.204.01-1.71.073l-.1-.007c-.598-.044-1.104.019-1.702-.026-34.192-.03-65.448-15.286-87.196-39.763-14.894-16.849-25.358-37.981-28.934-61.41l.063-2.202c.074-.997.049-2.001.123-2.999l39.328 28.088c24.19 17.238 53.871 25.358 83.313 21.827 12.644-1.468 24.752-5.182 33.414-12.46 0 0-.622 11.084-10.721 17.454 0 0 33.52-9.846 36.887-47.099 1.706-18.926-14.05-43.058 7.364-88.397 0 0-2.812 9.517 1.77 16.676 0 0-.676-20.606 24.088-35.414 17.841-10.709 36.626-7.108 47.425 1.415 0 0-10.479 2.03-15.245 14.912 0 0 10.094-2.259 13.27 6.3 3.245 8.964 6.86 18.358 12.314 21.871.769.458.964 1.877.993 4.185z" fill="#ffdcaf"/>
            <path d="M647.141 637.353c-.805.04-1.204.01-1.304.003l.1.007.1.007c.199.014.498.037 1.004-.026z" fill="#f36d22"/>
            <path d="m667.078 398.473-.359.776c-.114.192-.129.391-.236.483-1.068 2.228-2.534 4.425-4.093 6.515-1.674 2.283-3.148 4.58-4.73 6.97-1.015 1.528-1.939 3.165-2.855 4.701l-1.397 2.604a147.31 147.31 0 0 0-3.683 7.748c-.122.292-.429.37-.72.248-.193-.115-.377-.33-.363-.529.111-1.495.215-2.892.526-4.373.21-1.488.513-2.87.824-4.35.007-.1.022-.3.13-.392.295-1.282.698-2.656 1.093-3.93l.662-2.157.38-1.075.373-.975c.876-2.341 1.744-4.583 2.812-6.81-2.482 1.019-4.865 2.045-7.262 3.271a84.615 84.615 0 0 0-15.16 9.705c-4.691 3.763-8.921 8.061-12.49 12.91-1.78 2.375-3.376 4.964-4.873 7.56-.702 1.352-1.404 2.704-2.006 4.063a51.828 51.828 0 0 0-1.37 3.609c-.016.2-.123.291-.137.49l-.007.1c-.274.983-1.316 1.507-2.298 1.234-.1-.007-.192-.115-.292-.122-.317-1.127-.542-2.146-.66-3.258.395-1.274.775-2.349 1.163-3.523.61-1.46 1.227-3.018 1.937-4.47 1.075-2.326 2.342-4.538 3.809-6.736.343-.576.68-1.052 1.016-1.529 3.605-5.348 7.972-10.138 12.7-14.4a87.243 87.243 0 0 1 15.763-11.063c5.644-3.09 11.558-5.76 17.527-7.824 1.854-.664 3.782.381 4.454 2.136.247.72.18 1.617-.178 2.393z"/>
            <path d="M756.406 452.734c-2.183 1.041-4.388 2.382-6.294 3.745-2.013 1.454-3.834 3.024-5.563 4.7a44.134 44.134 0 0 0-8.383 11.612c-1.06 2.127-1.928 4.37-2.498 6.633-.417 1.574-.842 3.247-1.06 4.835-.152.69-.204 1.389-.256 2.087-.188 1.19-.177 2.393-.266 3.59.01 1.204-.07 2.301.033 3.612.051 2.01.202 4.026.246 6.135.063.506.033.905.096 1.411.357 10.054 1.013 20.13.956 30.354a196.242 196.242 0 0 1-.542 15.403c-.477 5.078-1.061 10.25-2.045 15.39-1.959 10.183-5.007 20.185-9.622 29.67-2.258 4.745-4.8 9.27-7.725 13.565-2.934 4.395-6.344 8.454-10.038 12.29-7.48 7.568-16.638 13.406-26.452 17.29-4.957 1.938-9.984 3.47-15.174 4.49-1.633.38-3.358.652-4.975.833a28.636 28.636 0 0 0 3.977 1.8c.783.258 1.566.517 2.25.768l1.174.388c.392.13.79.16 1.082.281l.1.007c2.072.455 3.42 2.56 2.965 4.632a3.802 3.802 0 0 1-2.516 2.822c-13.493 4.814-27.743 7.667-42.122 8.204-14.38.537-29.058-1.655-42.623-6.673-13.566-5.018-26.12-12.869-36.615-22.773-10.496-9.904-19.026-21.968-24.975-35.045-6.048-13.083-9.5-27.378-10.129-41.864-.636-14.387 1.549-28.965 6.574-42.63 1.256-3.417 2.605-6.726 4.253-10.013.724-1.651 1.64-3.188 2.464-4.831.916-1.536 1.74-3.18 2.657-4.716 1.84-3.173 3.857-6.031 5.781-8.997a274.478 274.478 0 0 1 6.159-8.668c8.467-11.405 17.973-21.93 28.231-31.798 1.408-1.4 3.709-1.329 5.108.079.554.643.901 1.37.942 2.175l.86 8.688c1.244-1.913 2.581-3.72 3.919-5.525 3.561-4.75 7.507-9.27 11.637-13.576 4.13-4.306 8.63-8.184 13.413-11.84a124.408 124.408 0 0 1 14.968-9.819 3.652 3.652 0 0 1 4.912 1.368c.617 1.149.62 2.452-.06 3.505l-.007.1c-.336.476-.694 1.252-.938 1.835-.351.676-.602 1.36-.953 2.035-.603 1.36-1.105 2.726-1.707 4.085-.503 1.367-1.105 2.726-1.608 4.092-.502 1.367-1.005 2.733-1.415 4.207-.41 1.474-.813 2.848-1.024 4.336-.31 1.481-.62 2.962-.732 4.458l-.251 3.391a53.21 53.21 0 0 0 .183 5.629c.07.406-.266.883-.772.945-.406.07-.69-.151-.86-.565-.495-1.44-.99-2.88-1.377-4.414-.318-1.126-.543-2.146-.66-3.258-.056-.605-.211-1.219-.267-1.824-.361-3.236-.316-6.542.028-9.825a52.89 52.89 0 0 1 1.49-7.912c-1.585 1.086-3.17 2.172-4.662 3.364a134.8 134.8 0 0 0-12.664 11.194c-3.908 4.022-7.632 8.258-10.979 12.822-1.673 2.283-3.347 4.565-4.828 6.962-.787 1.145-1.482 2.397-2.17 3.55-.686 1.151-1.388 2.503-1.968 3.563-.931 1.736-3.092 2.478-4.835 1.647-1.16-.588-1.884-1.644-1.995-2.856l-1.113-12.015c-7.917 8.036-15.372 16.608-22.158 25.63-2.11 2.752-4.12 5.51-6.037 8.376-1.917 2.866-3.835 5.732-5.553 8.613-.908 1.437-1.725 2.98-2.534 4.424-.717 1.552-1.626 2.988-2.243 4.547-1.526 2.995-2.767 6.212-3.902 9.337-4.652 12.69-6.763 26.271-6.159 39.753.604 13.481 3.922 26.864 9.524 39.212 5.608 12.25 13.7 23.479 23.541 32.733 9.842 9.254 21.535 16.54 34.133 21.084 12.69 4.652 26.286 6.564 39.76 6.06 9.855-.372 19.699-1.947 29.218-4.55a41.107 41.107 0 0 1-4.886-3.07c-1.622-1.123-3.121-2.538-4.52-3.946-1.493-1.514-1.507-4.022.007-5.514.765-.846 1.891-1.163 2.896-1.189l.1.007c.399.03 1.104-.018 1.603.019.606-.056 1.204-.011 1.81-.066 1.211-.111 2.415-.122 3.535-.34 2.423-.221 4.76-.65 7.099-1.077a80.362 80.362 0 0 0 13.74-4.094 72.138 72.138 0 0 0 23.82-15.58c3.357-3.36 6.438-7.043 9.142-11.053a105.133 105.133 0 0 0 7.253-12.598c4.256-8.709 7.26-18.112 9.175-27.697.961-4.842 1.623-9.707 2.085-14.586.463-4.879.733-9.873.904-14.874.234-9.91-.023-19.956-.173-30.095.037-.499-.033-.905.004-1.404-.059-1.91-.025-3.712.016-5.614l.044-.598c-.01-1.204.093-2.6.19-3.897.195-1.289.199-2.692.495-3.974.399-2.678 1.09-5.234 1.88-7.782a47.774 47.774 0 0 1 3.249-7.28c2.549-4.624 6.158-8.668 10.122-12.084 4.063-3.408 8.474-6.089 13.416-7.828.514-.162 1.197.089 1.36.602.062.506-.182 1.09-.695 1.252z"/>
            <path d="M759.047 476.595c-.144.591-.68 1.053-1.278 1.008-3.091-.23-6.135.247-9.016 1.236-.927.333-1.862.765-2.796 1.197-1.356.701-2.52 1.517-3.69 2.433-.421.27-.75.646-1.179 1.016-2.257 2.038-4.237 4.398-5.726 6.895-.794 1.244-1.496 2.596-1.892 3.87-1.444 4.606-1.264 6.224-1.6 6.7-.687 1.153-1.463.794-2.959.683-1.196-.089-2.156-.661-2.688-1.603-.059-1.91-.026-3.712.015-5.615.137-.49.374-.975.51-1.466.237-.484.366-.875.603-1.359.923-1.636 1.84-3.173 2.948-4.594.665-.854 1.43-1.7 2.194-2.545a31.973 31.973 0 0 1 5.57-4.8c.636-.455 1.264-.81 1.792-1.171.735-.447 1.47-.894 2.298-1.234a26.138 26.138 0 0 1 5.563-1.993c3.472-.846 6.977-.786 10.438-.128.59.144 1.045.78.893 1.47z"/>
            <path d="M779.546 504.389c-.82.24-1.51.088-2.293-.17-3.394-1.556-6.582-3.196-9.861-4.944-3.18-1.74-6.36-3.48-9.525-5.42s-6.23-3.872-9.174-6.096a80.34 80.34 0 0 1-6.618-5.404c-.661-.55-1.215-1.194-1.87-1.844-.56-.543-.693-1.455-.442-2.138.735-.447 1.47-.894 2.298-1.234.291.122.683.251.967.473.846.765 1.791 1.537 2.737 2.309 1.806 1.337 3.612 2.675 5.532 3.82a164.802 164.802 0 0 0 9.141 5.19c3.187 1.641 6.29 3.075 9.592 4.523l3.501 1.463c-.413-2.537-.627-5.06-.734-7.675-.136-4.924.32-9.703.966-14.368.64-4.565 1.272-9.03 1.498-13.426a98.114 98.114 0 0 0-.22-13.252c-.752-8.78-2.922-17.364-7.183-24.8-4.162-7.429-10.422-13.609-17.919-17.976-7.398-4.36-15.91-7.197-24.605-8.946-8.695-1.748-17.493-2.1-26.21-.842-8.617 1.266-17.046 4.05-24.682 8.296-3.867 2.12-7.458 4.56-10.871 7.315-1.707 1.377-3.314 2.762-4.935 4.347-.758.746-1.515 1.492-2.28 2.337-.328.377-.757.746-1.093 1.223a2.177 2.177 0 0 0-.558.76c-.114.193-.222.285-.329.377l-.007.1a2.945 2.945 0 0 1-4.247.487s-.1-.007-.093-.107c.296-1.282.699-2.656 1.094-3.93l.662-2.157.38-1.075c.765-.846 1.522-1.591 2.387-2.43 1.729-1.676 3.45-3.253 5.264-4.723a78.7 78.7 0 0 1 6.575-4.827c1.685-1.078 3.369-2.156 5.146-3.127a79.487 79.487 0 0 1 26.85-9.138c9.43-1.406 19.026-.994 28.318.798 4.643.947 9.171 2.085 13.67 3.622 4.498 1.537 8.868 3.466 12.993 5.978 4.133 2.413 8.029 5.31 11.482 8.774 1.677 1.73 3.346 3.558 4.808 5.471 1.463 1.914 2.81 4.02 4.059 6.117 4.885 8.485 7.28 18.089 8.088 27.475.45 4.746.6 9.47.345 14.264-.255 4.794-.903 9.46-1.435 13.932-.54 4.573-.958 8.854-.778 13.179.18 4.325.867 8.588 1.952 12.88.65 2.053-.503 4.074-2.342 4.539z"/>
            <path d="M645.367 642.335c-2.836-2.316-4.723-2.557-6.688-3.104-2.065-.554-4.03-1.1-6.087-1.755-4.015-1.3-7.908-2.893-11.564-4.97-.384-.229-.454-.635-.325-1.026.222-.285.536-.462.828-.34 3.83 1.086 7.896 1.69 11.885 1.985 1.995.148 3.99.296 5.991.345 2.002.048 4.31.019 6.22-.04 2.01-.052 3.487 1.662 3.538 3.672.052 2.01-1.478 3.7-3.487 3.752-.3-.022-.011 1.503-.31 1.481z"/>
            <path d="M645.837 637.356s-14.645-1.287-23.874-5.282z"/>
            <path d="M645.837 637.356s-14.645-1.287-23.874-5.282z"/>
        </g>
        <g id="Body--group">
            <path d="M648.5 529.2c-1.8 24-6.3 45.2-13.3 63-8.3 21-19.9 36.8-34.6 47.1-33.8 23.7-64.5 26.6-76.1 26.7-1.3 0-2.5 0-3.8-.1-18.4-.6-26-4.1-32.8-7.2-5.9-2.7-11.1-5.1-25-5.5-37.5-1.1-67.1-9.2-83.3-22.8-.2-.1-.5-.4-.9-.7-4.8-3.5-19.4-14.1-25.2-24.5-5.4-9.6-6.4-22.2-2.6-31.4 13.1-31.3 24.1-40.7 33-48.3 3.6-3 6.3-5.4 8.7-8.8 2.2-3.1 3.7-7.1 4.8-12.2 0-.1 0-.2.1-.3 3.8-15 3.1-34.9 2.3-56-.3-5.7-.4-11.7-.6-17.5v-.1c-.2-18.6 9.2-40.8 25.1-59.4 17.9-21 41.3-34 65.7-36.8 20.2-2.3 34.3-3.4 45.9-3.5 43.7-.4 58.7 14.2 82.7 47.6 7.6 10.5 12.3 22.4 16.3 33.5 11.3 30.4 16.6 76.5 13.6 117.2z"/>
            <path d="M357.8 576.8c-2.9 7-2 17.4 2.2 25 5.7 10.2 23.2 22 24.3 23 15.2 12.8 43.9 20.1 78.9 21.1 31.2 1 24.4 11.6 57.7 12.7 1.1 0 2.2.1 3.5.1 16.7-.2 43.6-5.4 72-25.4 57.6-40.5 51.3-165.8 31.9-218.9-4-11.1-8.5-22.1-15.4-31.8-23.8-33.3-37-44.8-76.6-44.5-12.2.1-26.9 1.4-45.1 3.5-49.8 5.8-84.8 56.1-84.4 88.9.6 27.4 3 55.1-2 75.5-1.3 6.5-3.3 11.2-5.9 15-9.7 13.7-23.3 12.8-41.1 55.8z" fill="#f36d22"/>
            <path d="M505.4 657c-.5-.1-.9-.2-1.4-.3-.4-.1-.7-.2-1.1-.3h-.2c-.3-.1-.6-.1-.8-.2-.1 0-.3-.1-.4-.1-.4-.1-.7-.2-1.1-.3-.2-.1-.5-.1-.7-.2-.3-.1-.6-.2-1-.3-.3-.1-.6-.2-1-.3l-.9-.3h-.1c-.6-.2-1.1-.4-1.6-.7-2.3-.9-4.3-1.9-6.5-2.9-.3-.1-.5-.2-.8-.4-.3-.1-.6-.2-.8-.4h-.1c-.5-.2-1.1-.4-1.7-.6-.7-.3-1.5-.5-2.2-.8-2.1-.7-4.5-1.3-7.4-1.8h-.1c-2.2-.4-4.8-.7-7.7-.9-1.4-.1-2.9-.2-4.5-.2-11.5-.3-22.3-1.4-32.2-3-8.4-1.4-16.1-3.3-23-5.7-7.2-6.5-13.9-19-16.5-42.8-6-55.2 23-68.2 21.8-95.5 4.9-20.1-5.7-40.3-6.6-67v-1.2c0-3.7.4-7.7 1.2-11.7.1-.4.2-.9.3-1.3.1-.4.2-.9.3-1.3.1-.4.2-.7.3-1.1l.6-2.1c.1-.5.3-1.1.5-1.6.2-.6.4-1.2.6-1.9.2-.4.3-.9.5-1.3.1-.4.3-.7.4-1.1.1-.4.3-.8.5-1.2 1.4-3.6 3.1-7.3 5.1-10.9.7-.2 1.4-.4 2.1-.5 11.6-2.1 9.7-6.9 18.2-9.7l23.3-5.8s5.2-.7 13.6 2c8.4 2.7 32.7 6.6 38 3.1l26.2 13.4c11.8 16.4-23.9 17-23.9 17s-1.9 1.3-4.2 3.4c-.3.3-.7.6-1 .9l-.6.6-.9.9-.1.1-.4.4c-.6.6-1.1 1.3-1.7 1.9-.2.2-.4.4-.5.7 0 .1-.1.1-.1.2-.2.2-.4.5-.5.7-.2.2-.3.4-.4.6-.5.7-.9 1.3-1.3 2l-.3.6c-.2.3-.3.6-.4.8v.1c-.1.3-.2.5-.4.8-.1.3-.2.6-.3.8-.1.2-.1.4-.2.6-.1.2-.1.4-.2.6-.1.3-.2.6-.2.9-.1.3-.1.5-.1.8-.1.9-.2 1.8-.1 2.7v.3c0 .1 0 .2.1.3 0 .1.1.2.1.3.1.2.1.3.2.5.3.5.6.9 1.1 1.3.2.2.4.3.6.5l.1.1c2.4 1.8 6.6 3.6 11.7 6.4 19.5 10.7 66.7 38.9 55.5 127.5-7.2 52.6-35.1 76.9-64.7 83.9z" fill="#ffdcaf" display="inline"/>
            <g class="remove--part">
                <path d="M408.3 427.1s-12.9 12.5-17.9 29.2c0 0 7.5-3.9 13.2-4.1 0 0-8 8.7-7.3 20 0 0 4.2-4.8 7-6.6 0 0-3.3 8.1-.4 13.7s9.8 15.3 10.3 20.6l11.3-26.2z" fill="#ffdcaf" display="inline"/>
                <path d="M408.8 428.3c-1.7 2-3.4 4.3-5 6.6s-3.1 4.7-4.4 7.1c-1.4 2.4-2.6 4.9-3.7 7.5-1.2 2.5-2.1 5.2-3 7.8l-4.1-3.6c1.4-.6 2.6-1.1 4-1.6 1.3-.5 2.7-.9 4-1.3 2.7-.8 5.6-1.4 8.7-1.5 1.6-.1 3 1.2 3.1 2.9 0 .8-.3 1.6-.8 2.2l-.1.1c-.2.2-.5.6-.8.9-.3.3-.6.7-.8 1-.5.7-1.1 1.4-1.5 2.2-1 1.5-1.8 3-2.5 4.7-.7 1.6-1.2 3.3-1.5 4.9-.4 1.7-.3 3.4-.3 5l-5.2-1.8 2-2c.7-.6 1.4-1.3 2.1-1.9.7-.6 1.4-1.2 2.2-1.8.8-.6 1.6-1.2 2.6-1.7 1.4-.8 3.2-.3 4 1.1.4.7.5 1.4.3 2.1l-.1.7c-.1.5-.3 1.2-.5 1.8-.2.6-.3 1.2-.5 1.9-.3 1.2-.5 2.5-.6 3.7-.1 1.2 0 2.4.2 3.4.1.3.1.5.2.8.1.3.1.5.3.8l.9 2c1.3 2.6 2.5 5.3 3.6 8.1.6 1.4 1 2.8 1.4 4.3.4 1.5.6 3 .6 4.5 0 .2-.2.3-.3.3-.2 0-.3-.1-.3-.2-.8-2.8-2.2-5.2-3.8-7.6-1.5-2.4-3.3-4.7-5-7.1l-1.3-1.8c-.2-.3-.5-.7-.7-1.1l-.6-1.2c-.7-1.7-1.1-3.4-1.2-5.1-.1-1.7 0-3.4.3-5l.6-2.4c.3-.8.5-1.5 1-2.4l4.2 3.8c-.6.3-1.2.8-1.8 1.2-.6.5-1.3 1-1.9 1.6-.6.5-1.3 1.1-1.9 1.7l-1.8 1.8-.1.1c-1.1 1.2-3 1.2-4.2.1-.6-.5-.9-1.3-.9-2-.1-2.2-.1-4.4.4-6.6.4-2.1 1-4.2 1.9-6.2.8-2 1.8-3.8 3-5.6.6-.9 1.2-1.7 1.8-2.6.3-.4.7-.8 1-1.2.4-.4.7-.8 1.2-1.3l2.2 5.1c-2.3.1-4.7.6-7.1 1.3l-3.6 1.2c-1.2.4-2.4.9-3.5 1.4h-.1c-1.5.7-3.3 0-3.9-1.5-.3-.7-.3-1.5-.1-2.2 1-2.8 2-5.7 3.2-8.4 1.2-2.7 2.5-5.4 4-8 1.4-2.6 3-5.1 4.7-7.6 1.7-2.5 3.4-4.8 5.5-7.2 1.1-1.3 3-1.4 4.2-.3 1.2 1.1 1.2 2.8.1 4.1z"/>
            </g>
        </g>
        <g id="Ball--group" />
        <g id="RightFoot--group">
            <path d="M384.2 647.9c-2.4 3.7-6.3 5.8-11.4 5.8-1.9 0-4-.3-6.2-.7-25.1-5.8-59.7-43-64.2-63.9-2-9.4-.4-18 4.8-24.4 4.5-5.7 11.3-8.9 18.8-9 6.8-.1 13.6 2.4 19.9 7.1 12.3 9.3 33.4 50.2 37.9 60.3 2.5 5.8 5 17.6.4 24.8z"/>
            <path d="M309.5 587.4c4 18.2 36.7 53.2 58.7 58.2 1.7.4 3.2.6 4.5.6 3.4 0 4.7-1.3 5.4-2.4 2.3-3.5 1.4-12.1-1.2-17.9-6.2-13.8-25.8-50-35.7-57.5-4.9-3.8-10.3-5.7-15.4-5.6-5.3.1-10 2.3-13.1 6.2-3.6 4.8-4.7 11.3-3.2 18.4z" fill="#f36d22"/>
        </g>
        <g id="FullHead--group">
          <g id="BeforeHead--group" />
            <g id="RightEar--group">
                <path d="M410.8 399c-.4 4.4-3.7 8.4-11 13-4.7 3-10.1 5.6-13.8 6.6-6.5 1.8-12.3 2.7-17.3 2.8-6.7.1-10.6-1.5-12.7-2.8-4.8-3-4.5-7.2-4.3-8.5.5-3.1 2.8-5.5 5.8-6.3 3.5-.8 13.4-5.9 23.5-12.8 4.2-2.9 10.7-4.9 16.1-5 5.8-.1 9.1 2.1 10.8 4 2.1 2.5 3.2 5.6 2.9 9z"/>
                <path d="M359 411.4c0 .3.4.7.9.9 1.1.7 3.6 1.8 8.8 1.7 4.3 0 9.5-.9 15.4-2.5 5.2-1.5 19-9 19.4-13.2.1-1.3-.2-2.4-.9-3.2-1-1.1-2.8-1.7-5.3-1.6-3.9 0-8.9 1.6-11.9 3.6-8.4 5.8-20.4 12.7-26 14-.3.1-.4.2-.4.3z" fill="#f36d22"/>
            </g>
            <g id="Head--group">
            <path fill="#fff" d="M439.3 409.5s3.9 11.1 5.8 12c1.9.9 5.9-.4 5.9-.4s3.8 1 6.6-1.7 2.7-12 2.7-12l-14.2-4.7z"/>
                <path d="m461.5 409-2.9-.4c-.5 2.4-.9 4.8-1.3 7.1l-.3 1.7c-.1.6-.3 1.2-.4 1.5-.1.1-.2.2-.4.3-.4.2-.9.4-1.3.5-.5.1-1 .3-1.5.3h-.9c-.128.007-.209-.417-1.2-2.4-.9-2.2-1.7-4.5-2.8-6.8-.2 2.5-.1 5 .4 7.5.1.6.2 1.2.4 1.8-1.4.7-3.2.4-3.7-.1-.7-.8-3.2-7.1-5.3-12.7l-2.8 1.1c1.7 4.6 4.8 12.5 5.9 13.7.7.8 1.8 1.3 3 1.4 1.5.2 3.1 0 4.4-.8h.1c.1.1.1.1.2.1.1.1.3.1.4.1.2.1.5.1.7.1.4.1.8.1 1.2.1.7 0 1.4-.1 2.1-.3.7-.2 1.4-.4 2.1-.7.4-.2.7-.4 1.1-.7l.6-.6c.2-.3.3-.5.4-.8.3-.8.4-1.4.5-2 .1-.6.2-1.2.3-1.9.6-2.2.8-4.6 1-7.1z"/>
                <path d="M514.2 397.9c-1-.4-2-.7-3-.3-19.6 6.5-42.4 12.4-62.8.1-1.7-1.1-4-.5-5.1 1.2l-.1.1c-8.4 15.8-38 26.4-42.8 24.3-2.8-1.2-6.6-4.5-8.3-9.9-2.4-7.5-.2-17 6.3-27.5 22.1-35.9 62.8-57.7 110-59.4 3.1-.1 6.3-.2 9.5-.1 20.6.4 39.6 6.1 56.1 16.5 13.3 8.4 19.8 12.5 30.9 33.3 5.8 10.6-84.1 24.4-90.7 21.7z" fill="#f36d22"/>
                <path d="M470.096 375.748C462.488 375.762 459 377.9 459 377.9l-16.387 5.387-.013-.088c-14.173 2.447-16.833 7.805-23.618 11.584l-.082.018c-.01.001 0 .027-.007.033a25.984 25.984 0 0 1-4.194 1.865c-15.2 5.2-18.5 12.9-18.5 12.9 2-1.7 6-2.099 6-2.099-10.8 8.8-2.799 17.4-2.799 17.4.7 8.5 1.4 3.2 18-1.5 16.6-4.8 28.1-21.1 28.1-21.1l-.697-4.59c1.102-.516 2.42-.507 3.498.19 20.4 12.3 43.199 6.4 62.799-.1 1-.4 1.5 1.3 2.5 1.7 1.6.6 24.5-1.8 24.5-1.8s-4.2-5.4-11.9-9.9c-9.3-5.5-23.1-6.7-23.1-6.7 2.9-.4 8.2.1 8.2.1-13.9-6.9-19-2.2-32.2-4.6-3.475-.625-6.468-.857-9.004-.852z" fill="#ffdcaf"/>
                <path d="M513 326.6c1.6 0 3.2 0 4.8.1 20.6.4 39.6 6.1 56.1 16.5 11.3 7.1 17.6 11.2 26.1 24.9 1.5 2.5 9 .7 7.9-1.2-10.3-17.5-17.7-22.1-30.1-30-17.8-11.2-38-17.2-59.9-17.6-1.6 0-3.3-.1-5-.1-1.6 0-3.3 0-4.9.1-24.3.8-47.7 7.1-67.6 17.8-20.1 10.8-36.8 26.5-48.5 45.2-7.6 12.4-10.1 24-7.1 33.6 2.5 7.8 8 12.6 12.4 14.5 1.4.6 2.9.9 4.7.9 9.3-.1 34.6-9.6 45.5-25.2 8.4 4.4 17.7 6.5 28.2 6.4 12.6-.1 25-3.4 36.3-7.3 3-1 3.8-2.2 3.9-4.1 0-1.3-1.2-3.6-3.8-3.5-.3 0-.7.1-1 .2-11.2 3.7-23.2 7.1-35.3 7.2-9.3.1-18.6-1.8-27.5-7.1-.6-.4-1.3-.5-1.9-.5-1.3 0-2.5.6-3.2 1.8l-.1.1c-7.8 14.4-33.1 24.4-41 24.5-.7 0-1.3-.1-1.7-.3-2.8-1.2-6.6-4.5-8.3-9.9-2.4-7.5-.2-17 6.3-27.5 22.1-35.9 62.8-57.7 110-59.4 1.5-.1 3.1-.1 4.7-.1"/>
                <g class="remove--part">
                    <path d="M522.1 330.4s-46.5-34-89.2-26.4c0 0 8.5 2.2 15.5 6.1 0 0-38.6-5.9-53.5 20.7-.2.3.2.6.5.4 2.3-1.6 10.1-3.9 19.9-4.7 0 0-25.1 16.6-4.3 41.2 0 0 5.2-16.4 24.2-22.3 17.5-5.4 29.9 4.4 42-10.2" fill="#f36d22"/>
                    <path d="M456.8 312.8c-7.5-.1-14.9.3-22.1 1.2-3.6.5-7.2 1.2-10.6 2-3.5.9-6.9 1.8-10.1 3.1-3.2 1.3-6.3 3-8.9 5.1-2.6 2.1-4.9 4.6-6.6 7.5l-.3.5-.2.3v-.1l.1-.2c.1-.2.2-.5.2-.8.1-.6 0-1.2-.2-1.8-.5-1-1.6-3-.6-3.3 2-.7 3.9-1.2 5.8-1.6 3.9-.9 7.7-1.4 11.6-1.7 1.9-.2 3.6 1.3 3.8 3.2.1 1.2-.4 2.4-1.3 3.1h-.1c-.2.2-.6.5-.9.8-.3.3-.7.6-1 .9-.7.6-1.3 1.3-1.9 2-1.2 1.4-2.3 2.9-3.2 4.4-1.8 3.1-3.1 6.5-3.3 9.9-.3 3.4.3 6.9 1.7 10.2 1.4 3.3 3.4 6.4 5.9 9.3l-6 1.1c.2-.6.3-.9.5-1.4.2-.4.4-.8.5-1.2l1.2-2.4c.8-1.5 1.8-3 2.8-4.4 2.1-2.8 4.5-5.4 7.3-7.7 2.7-2.3 5.8-4.1 9-5.6 1.6-.7 3.2-1.4 4.9-1.9 1.7-.5 3.3-.9 4.9-1.3 3.3-.8 6.6-1.2 9.8-1.6 3.2-.4 6.4-.7 9.3-1.4 2.9-.6 5.7-1.7 8.3-3.3 2.6-1.6 5-3.6 7.4-5.8.3-.3.8-.3 1.1 0 .2.3.3.7.1.9-1.8 2.8-3.9 5.4-6.5 7.7-1.3 1.1-2.7 2.2-4.2 3-1.5.9-3.1 1.6-4.7 2.2-3.3 1.2-6.5 1.9-9.7 2.6-3.1.7-6.2 1.4-9.2 2.3-1.5.4-3 .9-4.4 1.4-1.4.5-2.7 1.1-4 1.8-1.3.6-2.6 1.4-3.8 2.2-1.2.8-2.4 1.7-3.5 2.6-2.2 1.9-4.3 4-6.1 6.4-.9 1.2-1.8 2.4-2.5 3.6-2.2 3.9-2.7 7.5-2.7 7.5-.8 1.7-8.2-6.5-12.2-13.9-2.2-4-2.6-8.9-2.2-13.5.4-4.6 2-9.1 4.3-12.9 1.2-1.9 2.5-3.7 3.9-5.4.7-.8 1.5-1.6 2.3-2.4.4-.4.8-.8 1.2-1.1.4-.4.8-.7 1.4-1.2l2.4 6.3c-3.6.3-7.3.4-10.7 1.6-13.5 4.7-15.3 9-15.6 8.5-.5-.8 1.6-11.2 10-19.3 3-2.9 8.8-6.6 12.5-8.3 3.7-1.6 7-2.8 10.9-3.5 3.9-.7 7.8-1 11.7-1.1 7.8-.1 15.4.7 22.9 2.5.6.2 1 .8.9 1.4-.3.6-.7 1-1.3 1z"/>
                    <path d="M542.6 331.5c-17.4-6.3-23.8-20.1-45.4-25.3 0 0 9.5 12.1 11.3 23" fill="#f36d22"/>
                    <path d="M542.4 331.7c-4.6-.2-9.1-1.8-13.1-4-4.1-2.2-7.5-4.9-11.1-7-3.5-2.2-7.2-4-11-5.6-3.8-1.7-7.8-3-11.8-4.5l3.3-5.9c1.3 1.4 2.3 2.7 3.4 4.1 1.1 1.4 2.1 2.8 3.1 4.3 1.9 2.9 3.7 6.1 4.6 9.7.2.9-.2 2-1.1 2.4-1.1.6-2.4 0-2.8-1.1v-.1c-1.1-2.7-3-5.3-5.1-7.6-1-1.2-2.2-2.3-3.3-3.5-1.1-1.1-2.4-2.2-3.5-3.2-1.9-1.4-3.8-2.7-5.6-4.3-.6-.6-1.5-1.3-1.8-2.1-.1-.3-.1-.5 0-.8.4-.7 10.2-2.7 34.3 11.8 4.1 2.5 7.9 5.3 11.5 8.4.8.7 1.6 1.3 2.4 2 .4.3.8.7 1.2 1l1.2 1c.9.6 1.7 1.2 2.6 1.8.9.6 1.8 1.2 2.8 1.9.3.2.4.6.1.9.1.3-.1.4-.3.4z"/>
                    <path d="M523.9 334.2c-3.5-2.1-7.1-4-10.7-5.9-3.6-1.9-7.2-3.7-10.9-5.4-7.3-3.5-14.8-6.4-22.3-9.3-7.5-2.9-15.2-5-23.1-6.1-3.9-.6-7.9-.9-11.8-.9-2 0-3.9.1-5.9.3-1.9.2-3.9.5-5.8.8l.3-7c1.5.4 2.8 1 4.1 1.5 1.3.6 2.6 1.2 3.9 2 1.3.7 2.5 1.5 3.7 2.4 1.2.9 2.3 1.8 3.3 2.9.3.3.3.8 0 1.1-.2.2-.4.2-.7.2-1.4-.2-2.8-.5-4.2-.8l-4-.8-4-.8-2-.4-1.9-.4c-1.9-.4-11.1-2.1-10.7-4 .3-1.4 10.8-3.7 23.9-4 4.3 0 8.6.3 12.8 1 4.2.6 8.4 1.5 12.4 2.6 4.1 1.1 8.1 2.3 12.1 3.7 7.9 2.8 15.4 6.7 22.6 11 7.1 4.3 14 9.1 20.3 14.6.5.4.5 1.2.1 1.7-.4.2-1 .3-1.5 0z"/>
                </g>
            </g>
            <g id="LeftEar--group">
                <path d="M698.5 353.9c-.5 1.7-1.2 3.4-1.9 5.2-4.9 10-17.5 23.2-37.7 29.5-4.5 1.4-9.3 2.1-14 2.1h-.1c-13 .1-34.2-4.6-61.9-27.7-1.9-1.7-5.1-4.7-7.2-6.9-2.3-2.5-2.9-6.1-1.6-9.1 1.3-3 4.3-5.1 7.7-5.2h.5c13.9.7 30.1.9 48.4.7 8.1-.1 14.8-.2 19.3-.3h4.5c7.4-.1 13.3-.2 18.2-.3 8.1-.1 13.7 0 17.1 0 2.9.1 5.6 1.4 7.3 3.8 1.6 2.4 2.2 5.3 1.4 8.2z"/>
                <path d="M587.5 357.3c25.9 21.6 45.4 26.1 57.1 25.9h.1c4 0 8-.7 11.9-1.8 18-5.6 29-16.9 33.3-25.6.8-1.5 1.2-2.8 1.5-3.9.4-1.3-.6-2.6-1.9-2.7-3.3-.1-8.9-.1-16.7 0-5.4.1-11.6.1-18.2.3-3.3 0-12.2.3-23.9.4-13.9.1-31.7.1-48.8-.7h-.1c-.9 0-1.5 1.1-.8 1.8 1.9 2.1 4.9 5 6.5 6.3z" fill="#f36d22"/>
            </g>
            <g id="Face--group">
                <path d="M414.9 375.8c-4.1 0-7.4 3.4-7.3 7.5.1 9.9 14.9 9.8 14.8-.1-.1-4.2-3.4-7.5-7.5-7.4z"/>
                <path d="M500.3 354.4c-4.1 0-7.4 3.4-7.3 7.5.1 9.9 14.9 9.8 14.8-.1-.1-4.1-3.4-7.4-7.5-7.4z"/>
                <path id="Face--group__nose" d="M455.2 374.6c-7.4.9-12.3 2.6-15.6 5.1-5.9 4.5-4 9.9 2.6 10.7 6.6.7 7.1 1.1 13.2-3.4 6.4-5.1 7.2-13.3-.2-12.4z"/>
            </g>
        </g>
        <g id="LeftLeg--group">
            <path d="M512.4 653.8c-4.7-5.2-3.9-15.7-2.2-29.4 2.4-19.8 4.7-34.5 24.9-51 24.2-19.7 62.1-15.6 76.2-1.2 3.6 3.7 6.8 10.8 7.5 18.7 1 11.4-21.8 42.6-44.3 52.2-22.5 9.8-53.8 19.9-62.1 10.7z" fill="#f36d22"/>
            <path d="M512.4 657.5c-1.2 0-2.3-.5-3-1.6-4.8-6.7-4.7-17.2-2.9-32 2.3-19 4.3-35.5 26.3-53.5 26.6-21.7 63.6-14.6 78.4-.1 1.4 1.4 1.4 3.8.1 5.2-1.4 1.4-3.8 1.4-5.2.1-12.6-12.4-45.6-18.3-68.6.6-18.8 15.3-21.1 28.4-23.6 48.6-1.3 11-2.1 21.8 1.6 26.7 1.2 1.7.8 4-.8 5.2-.8.6-1.6.8-2.3.8z"/>
        </g>
        <g id="LeftFoot--group">
            <path d="M523.7 649.7c-.4 1.9-1.9 9.1-6.5 16.3-6.9 10.7-17.6 16.7-30.2 16.8-7.2.1-12.9-2-16.9-6-7.6-7.7-7.3-20.9-7-33.6v-.1c.1-6.4.3-13.1-.6-18.5-.7-4.4-1.9-9.1-3.2-14.5-2.5-10.2-4.8-20.1-4.6-28.7.3-10.7 4.5-18.9 12.6-24.5 3.5-2.4 7.4-3.6 11.4-3.6 9.3-.1 19 6 28.9 18.3 7.2 8.8 13.3 19.9 15.7 27.9 6.4 21.8 5 34.9.4 50.2z"/>
            <path d="M477.2 669.8c2 2.1 5.2 3 9.6 3 22.6-.2 26.8-24 27-25 0-.2.1-.4.1-.6 4.3-13.9 5.5-25.3-.4-44.8-3.8-13.2-21.5-39.2-34.8-39.1-2 0-4 .6-5.8 2-11.6 7.9-9.1 21.9-4 42.4 1.2 5.1 2.6 10.4 3.3 15.3 1.1 6.4.9 13.5.7 20.4-.1 10.6-.4 21.6 4.3 26.4z" fill="#f36d22"/>
        </g>
        <g id="LeftArm--group">
            <g id="BeforeLeftArm--part"/>
            <path d="M475.5 413.7c-6.4 2.8-12.5 6.4-17.7 10.9-12.2 10.4-12.8 19.2-11.1 24.7 2.4 7.7 10.9 13.5 21.7 14.9 7.1.8 16.2-1.1 26.7-3.3 13.9-2.9 29.8-6.2 42.9-3.4 19.5 4.3 33.1 15.4 52.7 33.4l10.2 9.3c1.5 1.3 3.9 1.2 5.2-.3 1.3-1.5 1.2-3.9-.3-5.2l-2.9-2.6c-23.7-22-39.4-36.5-63.3-41.8-14.8-3.3-31.3.2-46 3.3-9.5 2-18.6 3.9-24.3 3.2-7.8-.9-14-4.8-15.6-9.7-1.4-4.7 1.7-10.7 8.9-16.9 20.9-17.9 59.4-23 87.7-11.4 4.7 2 7.5-5 2.8-6.9-11.3-4.5-24.5-6.9-37.6-6.7-10.2.2-30.7 4.4-40 8.5z"/>
            <path d="M612.4 453.1c11.5 12.3 16.2 60.5-6.5 41.5L603 492c-23.7-22-39.4-36.5-63.3-41.8-14.8-3.3-31.3.2-46 3.3-9.5 2-18.6 3.9-24.3 3.2-7.8-.9-14-4.8-15.6-9.7-1.4-4.7 1.7-10.7 8.9-16.9 20.9-17.9 59.6-23.2 87.7-11.4 4.5 2.1 45.8 17.1 62 34.4z" fill="#f36d22"/>
        </g>
        <g id="RightHand--group">
            <g id="BeforeRightHand--part"/>
            <path d="M388.7 456.8c-5.1 5.2-11.6 8.2-17.7 8.3-8.1.1-14-5-15.7-13.1-1.1-5.4.8-11.3 5.2-16.8 5.7-7 14.8-12.1 21.6-12.3h.2c1.3 0 2.6.2 3.8.6h.2l.1.1c4.5 1.8 8 6.1 9.2 11.7 1.4 7.5-1.1 15.5-6.9 21.5z"/>
            <path d="M383.4 451.6c4.2-4.2 5.9-9.7 4.9-14.7-.6-3.1-2.4-5.5-4.7-6.4-.4-.1-.9-.2-1.3-.2h-.1c-4 0-11.3 3.7-16 9.6-1.8 2.1-4.5 6.3-3.7 10.6 1.2 6 5.2 7.2 8.4 7.2 4.1 0 8.8-2.3 12.5-6.1z" fill="#f36d22"/>
        </g>
        <g id="Front--group" />
  </g>
</svg>