<svg xmlns="http://www.w3.org/2000/svg" id="wapuugotchi_svg__wapuu" x="0" y="0" version="1.1" viewBox="0 0 1000 1000">
    <g id="wapuugotchi_type__wapuu">
        <g id="RightArm--group">
            <path d="M436.6 504c-4.5 5.1-10.5 7.9-17 7.9-9.1 0-18.5-5.5-24.4-14.4-7.8-11.6-15.5-21.2-22.3-27.9l-4.8-4.7c-2-2-1.1-5.3 1.6-6.1l6.5-1.7c3.2-.9 6.4-2.7 9.1-5.5 3-3 4.8-6.7 5.2-10.4V430c0-1.3 1.5-2.1 2.5-1.3l9.3 6.9c.7.5 1.7 1.1 2.9 1.7 10.2 4.9 31.7 27.4 35.7 46.7 2.1 10.1-1.2 16.5-4.3 20z"/>
            <path fill="#f36d22" fill-opacity="1" d="M402.1 444.1c-1.5-.7-2.9-1.5-4.2-2.4-.5 5.5-3 11-7.3 15.3-3.7 3.7-8.1 6.2-12.5 7.4 8.7 8.6 17 19.8 23.2 29.1 4.5 6.7 11.6 11.1 18.3 11.1 4.1 0 8.1-1.6 11.4-5.4 13-14.8-17.3-49.6-28.9-55.1z" class="st0"/>
        </g>
        <g id="Tail--group">
            <path id="path3-9" fill="#f36d22" d="M648.464 521.864s-1.559-.617-4.078-1.806c-.391-.13-.775-.36-1.16-.588-.191-.114-.483-.236-.775-.358-.875-.366-1.843-.84-2.91-1.32a240.317 240.317 0 0 1-12.742-6.66c-.484-.237-.86-.566-1.344-.802-.86-.566-1.729-1.031-2.59-1.596l-.1-.007c-.383-.23-.86-.566-1.244-.795l-2.581-1.696c-.377-.328-.86-.565-1.237-.894-.377-.328-.761-.557-1.238-.894-1.806-1.337-3.504-2.767-4.996-4.281-9.268 4.626-15.01 14.428-14.944 18.946.055.605.004 1.303.059 1.91.055.605.004 1.303.059 1.909.055.606.004 1.304.059 1.91.018 1.104.029 2.308.147 3.42.169 5.828.415 11.963.455 18.183-.022.3-.037.499.04.805-.036.5.019 1.105-.018 1.604.048.705-.004 1.403-.063 2.2.04.806-.012 1.504-.07 2.302-.064 2.2-.134 4.502-.198 6.704l-.11 1.496c-.178 2.393-.264 4.894-.54 7.28-.053.698-.112 1.496-.263 2.186-.045.599-.082 1.097-.226 1.688l-.655 4.765c-.051.698-.203 1.389-.362 2.179-.196 1.289-.491 2.57-.687 3.86-.651 3.36-1.401 6.714-2.45 10.046-2.432 8.443-5.869 16.912-10.709 25.377-.801 1.344-1.496 2.596-2.397 3.933-.451.669-.795 1.245-1.245 1.913-.115.192-.222.285-.337.477-.221.284-.443.568-.565.86-.114.192-.229.384-.443.569-.222.284-.443.569-.565.86-.107.093-.222.285-.33.377-.213.185-.335.477-.55.66-.107.094-.221.286-.328.378-.33.377-.558.76-.887 1.137-.114.192-.329.377-.443.57-.107.09-.115.19-.222.284-.222.284-.436.469-.658.753-.214.185-.328.377-.55.66-.107.093-.114.193-.222.285l-.986 1.13c-.007.1-.107.093-.114.192-.436.47-.765.846-1.201 1.315l-.214.185c-.429.37-.765.846-1.194 1.215-.435.469-.864.838-1.3 1.307-.107.093-.222.285-.428.37-.322.276-.643.553-.865.838l-.964.83-.429.37-.535.462c-.322.277-.536.46-.85.639l-.964.83-.321.277c-.529.362-1.064.824-1.493 1.193-.42.27-.742.547-1.163.816-.429.37-.95.632-1.378 1-.107.093-.207.086-.214.186a3.039 3.039 0 0 1-.735.447c-4.219 2.795-8.485 4.885-12.622 6.583-.414.17-.928.333-1.341.502-.828.34-1.755.672-2.582 1.012 0 0-.1-.007-.107.092-.414.17-.72.248-1.134.418-.414.17-.82.24-1.234.41-.414.17-.82.24-1.234.41 0 0-.1-.008-.107.09l-.92.234c-.406.07-.82.24-1.333.402-.207.085-.406.07-.613.155-.207.085-.407.07-.613.156-.307.077-.514.162-.82.24-.1-.008-.207.084-.407.07l-.92.232-.199-.015c-.813.14-1.533.388-2.238.436-.1-.007-.207.085-.307.077-.306.078-.506.063-.813.14-1.832.366-3.656.632-5.167.72-.1-.007-.307.078-.406.07l-.1-.007c-.307.078-.506.063-.805.04l-.805.04c-1.312.104-2.324.23-3.221.163l-.2-.015-.1-.007c-.199-.014-.299-.022-.505.063l-.2-.015-.2-.015-.199-.014-.1-.007-.1-.007c-.598-.045-1.004.025-1.104.018l-.1-.007c.185.214.47.436.747.757l.277.322c.092.107.184.214.376.328.47.436.938.872 1.415 1.208.092.108.284.222.384.23.377.328.853.664 1.237.894.192.114.384.229.569.443l.092.107c.093.107.292.122.384.229 1.053.68 2.105 1.36 3.173 1.84.192.114.484.236.676.35 1.451.71 2.71 1.305 3.977 1.8.193.115.392.13.584.244.584.244 1.175.388 1.666.525.2.015.292.122.491.137l.2.014c.199.015.39.13.49.137l.2.015c.192.114.392.13.591.144.69.152 1.082.28 1.082.28-2.467.82-4.835 1.648-7.295 2.367-.513.163-1.127.318-1.64.48l-1.84.465c-.206.085-.406.07-.613.156-2.866.79-5.718 1.38-8.47 1.978l-2.138.443c-2.744.498-5.481.897-8.218 1.295l-1.818.166c-.812.14-1.717.173-2.522.214-.806.04-1.718.173-2.523.214-1.61.08-3.32.154-4.931.235-.606.056-1.204.01-1.71.074l-.1-.007c-.2-.015-.499-.037-.705.048l-.2-.015c-.805.04-1.603-.02-2.308.03-.4-.03-.905.032-1.304.002l-1.097-.081c-.499-.037-.997-.074-1.504-.011l-1.595-.12-1.496-.11-1.496-.111c-77.89-7.085-122.605-96.34-79.332-164.624 9.31-14.65 21.73-30.675 38.34-46.39l1.854 19.592s3.669-7.55 11.527-17.495c6.856-8.616 16.853-19.004 30.435-27.723-.55 3.368-1.52 11.018-1.35 19.554.121-.292.335-.477.557-.761 8.527-12.202 26.51-32.928 53.12-40.178l-.007.1c-.558.76-4.821 6.86-8.734 14.994.329-.377.757-.746 1.186-1.115 10.45-9.754 37.686-29.492 76.973-19.757 29.05 7.17 45.21 24.514 47.894 53.19 2.445 25.15-5.807 33.664-.134 55.845z" transform="translate(138.724 -18.496)"/>
            <path id="path4-7" fill="#ffdcaf" d="M644.387 520.058c-.392-.13-.776-.36-1.16-.588-.192-.114-.484-.236-.776-.358-.875-.366-1.843-.84-2.91-1.32-3.778-1.784-8.218-4.12-12.742-6.66-.484-.237-.86-.566-1.344-.802-.86-.566-1.729-1.031-2.59-1.596l-.1-.007c-.383-.23-.86-.566-1.244-.795l-2.581-1.696c-.377-.328-.86-.565-1.237-.894-.377-.328-.761-.557-1.238-.894-1.806-1.337-3.504-2.767-4.996-4.281-9.268 4.626-15.01 14.428-14.944 18.946l.177 5.728c.165 4.525.316 9.25.367 13.966.048.705-.004 1.403.044 2.109.048.705-.004 1.404.044 2.109.048.705-.004 1.404.044 2.11.048.705-.004 1.403.044 2.108-.037.499.018 1.104-.019 1.603-.026 4.41-.053 8.82-.393 13.408l-.348 4.687-.148 1.994c-.052.698-.111 1.496-.263 2.187-.037.499-.074.997-.21 1.488l-.015.2c-.045.598-.182 1.09-.226 1.688-.044.598-.181 1.09-.226 1.688l-.059.798c-2.23 15.176-6.897 30.773-16.55 46-.558.76-1.024 1.63-1.581 2.39-.558.76-1.016 1.53-1.574 2.29-.23.384-.558.76-.787 1.145a42.046 42.046 0 0 1-1.659 2.083c-.329.376-.55.66-.88 1.038-.55.66-1.1 1.322-1.75 1.975-1.422 1.6-2.937 3.09-4.444 4.484-.643.554-1.186 1.115-1.829 1.669l-.957.73c-.642.555-1.178 1.017-1.813 1.47-.636.455-1.278 1.009-1.914 1.463-.957.73-1.906 1.363-2.855 1.994-21 14.085-43 13.254-43.605 13.31.277.32.654.65 1.03.978.562.543 1.123 1.086 1.791 1.537.761.558 1.422 1.108 2.183 1.666l.092.107c.953.673 1.814 1.238 2.781 1.71l.1.008c2.212 1.267 4.454 2.135 6.212 2.767.975.373 1.858.64 2.549.79.982.274 1.673.426 1.773.433a47.076 47.076 0 0 1-5.342 1.71c-.62.255-1.333.402-1.954.657-.513.162-1.126.317-1.64.48l-1.839.465c-1.226.31-2.453.62-3.58.938-1.839.465-3.67.83-5.403 1.203l-2.139.443c-.812.14-1.525.288-2.338.428-.912.133-1.725.273-2.637.406-.713.147-1.319.203-2.024.25-.307.078-.706.049-1.012.126-.706.048-1.419.196-2.024.25-.813.14-1.718.174-2.523.215-.805.04-1.718.173-2.523.214l-2.416.12-.2-.014-2.415.122c-.605.055-1.204.01-1.71.073l-.1-.007c-.598-.044-1.104.019-1.702-.026-34.192-.03-65.448-15.286-87.196-39.763C384.04 620.46 373.576 599.33 370 575.9l.063-2.202c.074-.997.049-2.001.123-3l39.328 28.089c24.19 17.238 53.871 25.358 83.313 21.827 12.644-1.468 24.752-5.182 33.414-12.46 0 0-.622 11.084-10.721 17.454 0 0 33.52-9.846 36.887-47.1 1.706-18.925-14.05-43.057 7.364-88.396 0 0-2.812 9.517 1.77 16.676 0 0-.676-20.606 24.088-35.414 17.841-10.71 36.626-7.108 47.425 1.415 0 0-10.479 2.03-15.245 14.912 0 0 10.094-2.26 13.27 6.3 3.245 8.964 6.86 18.358 12.314 21.87.769.459.964 1.878.993 4.186z" transform="translate(138.724 -18.496)"/>
            <path id="path5-0" fill="#f36d22" d="M514.658 658.836c-.805.04-1.204.01-1.304.003l.1.007.1.007c.199.014.498.037 1.004-.026z" transform="translate(138.724 -18.496)"/>
            <path id="path6-3" d="m534.595 419.956-.359.776c-.114.192-.129.39-.236.483-1.068 2.228-2.534 4.425-4.093 6.515-1.674 2.283-3.148 4.58-4.73 6.97-1.015 1.528-1.939 3.165-2.855 4.7l-1.397 2.605a147.31 147.31 0 0 0-3.683 7.748c-.122.292-.429.37-.72.248-.193-.115-.377-.33-.363-.53.111-1.494.215-2.891.526-4.372.21-1.488.513-2.87.824-4.35.007-.1.022-.3.13-.392.295-1.282.698-2.656 1.093-3.93l.662-2.157.38-1.075.373-.975c.876-2.341 1.744-4.583 2.812-6.81-2.482 1.019-4.865 2.045-7.262 3.27a84.615 84.615 0 0 0-15.16 9.706c-4.691 3.763-8.921 8.06-12.49 12.91-1.78 2.375-3.376 4.964-4.873 7.56-.702 1.352-1.404 2.704-2.006 4.063a51.828 51.828 0 0 0-1.37 3.609c-.016.2-.123.29-.137.49l-.007.1c-.274.983-1.316 1.507-2.298 1.234-.1-.007-.192-.115-.292-.122-.317-1.127-.542-2.146-.66-3.258.395-1.274.775-2.35 1.163-3.523.61-1.46 1.227-3.018 1.937-4.47 1.075-2.326 2.342-4.538 3.809-6.736.343-.576.68-1.052 1.016-1.53 3.605-5.347 7.972-10.137 12.7-14.4a87.243 87.243 0 0 1 15.763-11.062c5.644-3.09 11.558-5.76 17.527-7.824 1.854-.664 3.782.38 4.454 2.136.247.72.18 1.617-.178 2.393z" transform="translate(138.724 -18.496)"/>
            <path id="path7-9" d="M623.923 474.217c-2.183 1.04-4.388 2.382-6.294 3.745-2.013 1.454-3.834 3.024-5.563 4.7a44.134 44.134 0 0 0-8.383 11.612c-1.06 2.127-1.928 4.37-2.498 6.633-.417 1.574-.842 3.247-1.06 4.835-.152.69-.204 1.389-.256 2.087-.188 1.19-.177 2.393-.266 3.59.01 1.204-.07 2.3.033 3.612.051 2.01.202 4.026.246 6.135.063.506.033.905.096 1.41.357 10.055 1.013 20.13.956 30.355a196.242 196.242 0 0 1-.542 15.403c-.477 5.078-1.061 10.25-2.045 15.39-1.959 10.183-5.007 20.185-9.622 29.67-2.258 4.745-4.8 9.27-7.725 13.565-2.934 4.395-6.344 8.454-10.038 12.29-7.48 7.568-16.638 13.406-26.452 17.29-4.957 1.938-9.984 3.47-15.174 4.49-1.633.38-3.358.652-4.975.833a28.636 28.636 0 0 0 3.977 1.8c.783.258 1.566.517 2.25.768l1.174.388c.392.13.79.16 1.082.28l.1.008c2.072.455 3.42 2.56 2.965 4.632a3.802 3.802 0 0 1-2.516 2.822c-13.493 4.814-27.743 7.667-42.122 8.204-14.38.537-29.058-1.655-42.623-6.673-13.566-5.018-26.12-12.87-36.615-22.773-10.496-9.904-19.026-21.968-24.975-35.045-6.048-13.083-9.5-27.378-10.129-41.864-.636-14.387 1.549-28.965 6.574-42.63 1.256-3.417 2.605-6.726 4.253-10.013.724-1.651 1.64-3.188 2.464-4.831.916-1.536 1.74-3.18 2.657-4.716 1.84-3.173 3.857-6.031 5.781-8.997a274.478 274.478 0 0 1 6.159-8.668c8.467-11.405 17.973-21.93 28.231-31.798 1.408-1.4 3.709-1.33 5.108.079.554.643.901 1.37.942 2.175l.86 8.688c1.244-1.913 2.581-3.72 3.919-5.525 3.561-4.75 7.507-9.27 11.637-13.576 4.13-4.306 8.63-8.184 13.413-11.84a124.408 124.408 0 0 1 14.968-9.82 3.652 3.652 0 0 1 4.912 1.369c.617 1.149.62 2.452-.06 3.505l-.007.1c-.336.476-.694 1.252-.938 1.835-.351.676-.602 1.36-.953 2.035-.603 1.36-1.105 2.726-1.707 4.085-.503 1.367-1.105 2.726-1.608 4.092-.502 1.367-1.005 2.733-1.415 4.207-.41 1.474-.813 2.848-1.024 4.336-.31 1.48-.62 2.962-.732 4.458l-.251 3.39a53.21 53.21 0 0 0 .183 5.63c.07.406-.266.883-.772.945-.406.07-.69-.151-.86-.565-.495-1.44-.99-2.88-1.377-4.414-.318-1.126-.543-2.146-.66-3.258-.056-.605-.211-1.22-.267-1.824-.361-3.236-.316-6.542.028-9.825a52.89 52.89 0 0 1 1.49-7.912c-1.585 1.086-3.17 2.172-4.662 3.364a134.8 134.8 0 0 0-12.664 11.194c-3.908 4.022-7.632 8.258-10.979 12.822-1.673 2.283-3.347 4.565-4.828 6.962-.787 1.145-1.482 2.397-2.17 3.55-.686 1.15-1.388 2.503-1.968 3.563-.931 1.736-3.092 2.478-4.835 1.647-1.16-.588-1.884-1.644-1.995-2.856l-1.113-12.015c-7.917 8.036-15.372 16.608-22.158 25.63-2.11 2.752-4.12 5.51-6.037 8.376-1.917 2.866-3.835 5.732-5.553 8.613-.908 1.437-1.725 2.98-2.534 4.424-.717 1.552-1.626 2.988-2.243 4.547-1.526 2.995-2.767 6.212-3.902 9.337-4.652 12.69-6.763 26.27-6.159 39.753.604 13.48 3.922 26.864 9.524 39.212 5.608 12.25 13.7 23.479 23.541 32.733 9.842 9.254 21.535 16.54 34.133 21.084 12.69 4.652 26.286 6.564 39.76 6.06 9.855-.372 19.699-1.947 29.218-4.55a41.107 41.107 0 0 1-4.886-3.07c-1.622-1.123-3.121-2.538-4.52-3.946-1.493-1.514-1.507-4.022.007-5.514.765-.846 1.891-1.163 2.896-1.19l.1.008c.399.03 1.104-.018 1.603.019.606-.056 1.204-.011 1.81-.066 1.211-.111 2.415-.122 3.535-.34 2.423-.221 4.76-.65 7.099-1.077a80.362 80.362 0 0 0 13.74-4.094 72.138 72.138 0 0 0 23.82-15.58c3.357-3.36 6.438-7.043 9.142-11.053a105.133 105.133 0 0 0 7.253-12.598c4.256-8.71 7.26-18.112 9.175-27.697.961-4.842 1.623-9.707 2.085-14.586.463-4.88.733-9.873.904-14.874.234-9.91-.023-19.956-.173-30.095.037-.5-.033-.905.004-1.404-.059-1.91-.025-3.712.016-5.614l.044-.598c-.01-1.204.093-2.6.19-3.897.195-1.29.199-2.692.495-3.974.399-2.678 1.09-5.234 1.88-7.782a47.774 47.774 0 0 1 3.249-7.28c2.549-4.624 6.158-8.668 10.122-12.084 4.063-3.408 8.474-6.09 13.416-7.828.514-.162 1.197.089 1.36.602.062.506-.182 1.09-.695 1.252z" transform="translate(138.724 -18.496)"/>
            <path id="path8-8" d="M626.564 498.078c-.144.59-.68 1.053-1.278 1.008-3.091-.23-6.135.247-9.016 1.236-.927.333-1.862.765-2.796 1.197-1.356.7-2.52 1.517-3.69 2.433-.421.27-.75.646-1.179 1.016-2.257 2.038-4.237 4.398-5.726 6.895-.794 1.244-1.496 2.596-1.892 3.87-1.444 4.606-1.264 6.224-1.6 6.7-.687 1.153-1.463.794-2.959.683-1.196-.09-2.156-.661-2.688-1.603-.059-1.91-.026-3.712.015-5.615.137-.49.374-.975.51-1.466.237-.484.366-.875.603-1.36.923-1.635 1.84-3.172 2.948-4.593.665-.854 1.43-1.7 2.194-2.545a31.973 31.973 0 0 1 5.57-4.8c.636-.455 1.264-.81 1.792-1.171.735-.447 1.47-.894 2.298-1.234a26.138 26.138 0 0 1 5.563-1.993c3.472-.846 6.977-.786 10.438-.128.59.144 1.045.78.893 1.47z" transform="translate(138.724 -18.496)"/>
            <path id="path9-6" d="M647.063 525.872c-.82.24-1.51.088-2.293-.17-3.394-1.556-6.582-3.196-9.861-4.944-3.18-1.74-6.36-3.48-9.525-5.42s-6.23-3.872-9.174-6.096a80.34 80.34 0 0 1-6.618-5.404c-.661-.55-1.215-1.194-1.87-1.844-.56-.543-.693-1.455-.442-2.138.735-.447 1.47-.894 2.298-1.234.291.122.683.25.967.473.846.765 1.791 1.537 2.737 2.309 1.806 1.337 3.612 2.675 5.532 3.82a164.802 164.802 0 0 0 9.141 5.19c3.187 1.64 6.29 3.075 9.592 4.523l3.501 1.463c-.413-2.537-.627-5.06-.734-7.675-.136-4.924.32-9.703.966-14.368.64-4.565 1.272-9.03 1.498-13.426a98.114 98.114 0 0 0-.22-13.252c-.752-8.78-2.922-17.364-7.183-24.8-4.162-7.43-10.422-13.61-17.919-17.976-7.398-4.36-15.91-7.197-24.605-8.946-8.695-1.748-17.493-2.1-26.21-.842-8.617 1.266-17.046 4.05-24.682 8.296-3.867 2.12-7.458 4.56-10.871 7.315-1.707 1.377-3.314 2.762-4.935 4.347-.758.746-1.515 1.492-2.28 2.337-.328.377-.757.746-1.093 1.223a2.177 2.177 0 0 0-.558.76c-.114.193-.222.285-.329.377l-.007.1a2.945 2.945 0 0 1-4.247.487s-.1-.007-.093-.107c.296-1.282.699-2.656 1.094-3.93l.662-2.157.38-1.075c.765-.846 1.522-1.591 2.387-2.43 1.729-1.676 3.45-3.253 5.264-4.723a78.7 78.7 0 0 1 6.575-4.827c1.685-1.078 3.369-2.156 5.146-3.127a79.487 79.487 0 0 1 26.85-9.138c9.43-1.406 19.026-.994 28.318.798 4.643.947 9.171 2.085 13.67 3.622 4.498 1.537 8.868 3.466 12.993 5.978 4.133 2.413 8.029 5.31 11.482 8.774 1.677 1.73 3.346 3.558 4.808 5.47 1.463 1.915 2.81 4.02 4.059 6.118 4.885 8.485 7.28 18.089 8.088 27.475.45 4.746.6 9.47.345 14.264-.255 4.794-.903 9.46-1.435 13.932-.54 4.573-.958 8.854-.778 13.179.18 4.325.867 8.588 1.952 12.88.65 2.053-.503 4.074-2.342 4.539z" transform="translate(138.724 -18.496)"/>
        </g>
        <g id="Body--group">
            <path d="M649.7 531.9c-2 24-6.7 45.1-13.9 62.9-8.5 20.9-20.3 36.6-35.1 46.8-34 23.4-64.8 26-76.4 26-1.3 0-2.5 0-3.8-.1-18.4-.8-26-4.4-32.7-7.5-5.9-2.8-11-5.2-24.9-5.7-37.5-1.5-67-9.9-83.1-23.6-.2-.1-.5-.4-.9-.7-4.8-3.5-19.3-14.3-25-24.7-5.3-9.7-6.2-22.3-2.3-31.4 13.4-31.2 24.5-40.5 33.5-48 3.6-3 6.4-5.3 8.8-8.7 2.2-3.1 3.8-7.1 4.9-12.2 0-.1 0-.2.1-.3 3.9-15 3.4-34.9 2.8-56-.2-5.7-.3-11.7-.4-17.5v-.1c0-18.6 9.6-40.7 25.7-59.2 18.1-20.8 41.6-33.6 66.1-36.2 20.2-2.1 34.3-3.1 45.9-3.1 43.7 0 58.6 14.8 82.2 48.4 7.5 10.6 12.1 22.5 16 33.7 11.1 30.4 15.9 76.5 12.5 117.2z"/>
            <path fill="#f36d22" fill-opacity="1" d="M358.5 576.7c-3 7-2.2 17.4 2 25 5.6 10.3 23 22.2 24.1 23.2 15.1 12.9 43.7 20.5 78.7 21.9 31.2 1.3 24.3 11.8 57.6 13.3 1.1 0 2.2.1 3.5.1 16.7 0 43.7-5 72.2-24.7 58-39.9 52.9-165.3 34-218.6-3.9-11.1-8.3-22.2-15.1-31.9-23.5-33.5-36.6-45.2-76.2-45.2-12.2 0-26.9 1.1-45.1 3.1-49.9 5.3-85.3 55.3-85.3 88.1.3 27.4 2.5 55.1-2.7 75.5-1.4 6.5-3.4 11.2-6 14.9-9.8 13.5-23.4 12.4-41.7 55.3z" class="st0"/>
            <path id="path15-3" fill="#ffdcaf" d="M507.716 658.229c-.5-.1-.9-.2-1.4-.3-.4-.1-.7-.2-1.1-.3h-.2c-.3-.1-.6-.1-.8-.2-.1 0-.3-.1-.4-.1-.4-.1-.7-.2-1.1-.3-.2-.1-.5-.1-.7-.2-.3-.1-.6-.2-1-.3-.3-.1-.6-.2-1-.3l-.9-.3h-.1c-.6-.2-1.1-.4-1.6-.7-2.3-.9-4.3-1.9-6.5-2.9-.3-.1-.5-.2-.8-.4-.3-.1-.6-.2-.8-.4h-.1c-.5-.2-1.1-.4-1.7-.6-.7-.3-1.5-.5-2.2-.8-2.1-.7-4.5-1.3-7.4-1.8h-.1c-2.2-.4-4.8-.7-7.7-.9-1.4-.1-2.9-.2-4.5-.2-11.5-.3-22.3-1.4-32.2-3-8.4-1.4-16.1-3.3-23-5.7-7.2-6.5-13.9-19-16.5-42.8-6-55.2 23-68.2 21.8-95.5 4.9-20.1-5.7-40.3-6.6-67v-1.2c0-3.7.4-7.7 1.2-11.7.1-.4.2-.9.3-1.3.1-.4.2-.9.3-1.3.1-.4.2-.7.3-1.1l.6-2.1c.1-.5.3-1.1.5-1.6.2-.6.4-1.2.6-1.9.2-.4.3-.9.5-1.3.1-.4.3-.7.4-1.1.1-.4.3-.8.5-1.2 1.4-3.6 3.1-7.3 5.1-10.9.7-.2 1.4-.4 2.1-.5 11.6-2.1 9.7-6.9 18.2-9.7l23.3-5.8s5.2-.7 13.6 2c8.4 2.7 32.7 6.6 38 3.1l26.2 13.4c11.8 16.4-23.9 17-23.9 17s-1.9 1.3-4.2 3.4c-.3.3-.7.6-1 .9l-.6.6-.9.9-.1.1-.4.4c-.6.6-1.1 1.3-1.7 1.9-.2.2-.4.4-.5.7 0 .1-.1.1-.1.2-.2.2-.4.5-.5.7-.2.2-.3.4-.4.6-.5.7-.9 1.3-1.3 2l-.3.6c-.2.3-.3.6-.4.8v.1c-.1.3-.2.5-.4.8-.1.3-.2.6-.3.8-.1.2-.1.4-.2.6-.1.2-.1.4-.2.6-.1.3-.2.6-.2.9-.1.3-.1.5-.1.8-.1.9-.2 1.8-.1 2.7v.3c0 .1 0 .2.1.3 0 .1.1.2.1.3.1.2.1.3.2.5.3.5.6.9 1.1 1.3.2.2.4.3.6.5l.1.1c2.4 1.8 6.6 3.6 11.7 6.4 19.5 10.7 66.7 38.9 55.5 127.5-7.2 52.6-35.1 76.9-64.7 83.9z"/>
            <g id="g17" class="remove--part">
                <path id="path16-9" fill="#ffdcaf" d="M408.3 427.1s-12.9 12.5-17.9 29.2c0 0 7.5-3.9 13.2-4.1 0 0-8 8.7-7.3 20 0 0 4.2-4.8 7-6.6 0 0-3.3 8.1-.4 13.7s9.8 15.3 10.3 20.6l11.3-26.2z" transform="translate(2.316 1.229)"/>
                <path id="path17-9" d="M408.8 428.3c-1.7 2-3.4 4.3-5 6.6s-3.1 4.7-4.4 7.1c-1.4 2.4-2.6 4.9-3.7 7.5-1.2 2.5-2.1 5.2-3 7.8l-4.1-3.6c1.4-.6 2.6-1.1 4-1.6 1.3-.5 2.7-.9 4-1.3 2.7-.8 5.6-1.4 8.7-1.5 1.6-.1 3 1.2 3.1 2.9 0 .8-.3 1.6-.8 2.2l-.1.1c-.2.2-.5.6-.8.9-.3.3-.6.7-.8 1-.5.7-1.1 1.4-1.5 2.2-1 1.5-1.8 3-2.5 4.7-.7 1.6-1.2 3.3-1.5 4.9-.4 1.7-.3 3.4-.3 5l-5.2-1.8 2-2c.7-.6 1.4-1.3 2.1-1.9.7-.6 1.4-1.2 2.2-1.8.8-.6 1.6-1.2 2.6-1.7 1.4-.8 3.2-.3 4 1.1.4.7.5 1.4.3 2.1l-.1.7c-.1.5-.3 1.2-.5 1.8-.2.6-.3 1.2-.5 1.9-.3 1.2-.5 2.5-.6 3.7-.1 1.2 0 2.4.2 3.4.1.3.1.5.2.8.1.3.1.5.3.8l.9 2c1.3 2.6 2.5 5.3 3.6 8.1.6 1.4 1 2.8 1.4 4.3.4 1.5.6 3 .6 4.5 0 .2-.2.3-.3.3-.2 0-.3-.1-.3-.2-.8-2.8-2.2-5.2-3.8-7.6-1.5-2.4-3.3-4.7-5-7.1l-1.3-1.8c-.2-.3-.5-.7-.7-1.1l-.6-1.2c-.7-1.7-1.1-3.4-1.2-5.1-.1-1.7 0-3.4.3-5l.6-2.4c.3-.8.5-1.5 1-2.4l4.2 3.8c-.6.3-1.2.8-1.8 1.2-.6.5-1.3 1-1.9 1.6-.6.5-1.3 1.1-1.9 1.7l-1.8 1.8-.1.1c-1.1 1.2-3 1.2-4.2.1-.6-.5-.9-1.3-.9-2-.1-2.2-.1-4.4.4-6.6.4-2.1 1-4.2 1.9-6.2.8-2 1.8-3.8 3-5.6.6-.9 1.2-1.7 1.8-2.6.3-.4.7-.8 1-1.2.4-.4.7-.8 1.2-1.3l2.2 5.1c-2.3.1-4.7.6-7.1 1.3l-3.6 1.2c-1.2.4-2.4.9-3.5 1.4h-.1c-1.5.7-3.3 0-3.9-1.5-.3-.7-.3-1.5-.1-2.2 1-2.8 2-5.7 3.2-8.4 1.2-2.7 2.5-5.4 4-8 1.4-2.6 3-5.1 4.7-7.6 1.7-2.5 3.4-4.8 5.5-7.2 1.1-1.3 3-1.4 4.2-.3 1.2 1.1 1.2 2.8.1 4.1z" transform="translate(2.316 1.229)"/>
            </g>
        </g>
        <g id="RightFoot--group">
            <path d="M384.3 648c-2.4 3.7-6.4 5.7-11.5 5.7-1.9 0-4-.3-6.2-.8-25-6-59.3-43.6-63.6-64.5-1.9-9.4-.2-18 5-24.4 4.6-5.7 11.4-8.8 18.9-8.8 6.8 0 13.6 2.5 19.8 7.3 12.2 9.4 32.9 50.5 37.3 60.7 2.5 5.8 4.9 17.7.3 24.8z"/>
            <path fill="#f36d22" fill-opacity="1" d="M310.1 586.8c3.8 18.2 36.2 53.6 58.1 58.8 1.7.4 3.2.6 4.5.6 3.4 0 4.7-1.3 5.4-2.3 2.3-3.5 1.5-12.1-1-17.9-6.1-13.9-25.3-50.3-35.1-57.8-4.9-3.8-10.2-5.8-15.3-5.8-5.3 0-10 2.2-13.2 6.1-3.6 4.7-4.8 11.2-3.4 18.3z" class="st0"/>
        </g>
        <g id="FullHead--group">
            <g id="RightEar--group">
                <path d="M413.3 399.4c-.4 4.4-3.8 8.4-11.1 12.9-4.7 3-10.2 5.5-13.9 6.5-6.5 1.7-12.3 2.6-17.3 2.6-6.7 0-10.6-1.6-12.7-2.9-4.8-3-4.4-7.2-4.2-8.5.5-3.1 2.9-5.5 5.9-6.2 3.5-.8 13.5-5.8 23.6-12.6 4.2-2.9 10.7-4.8 16.1-4.8 5.8 0 9.1 2.2 10.8 4.1 2.1 2.4 3.1 5.5 2.8 8.9z"/>
                <path fill="#f36d22" fill-opacity="1" d="M361.4 411.3c0 .3.4.7.9.9 1.1.7 3.6 1.8 8.8 1.8 4.3 0 9.5-.8 15.4-2.3 5.2-1.4 19.1-8.8 19.5-13 .1-1.3-.2-2.4-.9-3.2-1-1.1-2.8-1.7-5.3-1.7-3.9 0-8.9 1.5-11.9 3.5-8.5 5.7-20.5 12.5-26.1 13.7-.3.1-.4.2-.4.3z" class="st1"/>
            </g>
            <g id="Head--group">
                <path id="path22-3" fill="#fff" d="M439.3 409.5s3.9 11.1 5.8 12c1.9.9 5.9-.4 5.9-.4s3.8 1 6.6-1.7 2.7-12 2.7-12l-14.2-4.7z" transform="translate(2.575 .176)"/>
                <path id="path23-8" d="m461.5 409-2.9-.4c-.5 2.4-.9 4.8-1.3 7.1l-.3 1.7c-.1.6-.3 1.2-.4 1.5-.1.1-.2.2-.4.3-.4.2-.9.4-1.3.5-.5.1-1 .3-1.5.3h-.9c-.128.007-.209-.417-1.2-2.4-.9-2.2-1.7-4.5-2.8-6.8-.2 2.5-.1 5 .4 7.5.1.6.2 1.2.4 1.8-1.4.7-3.2.4-3.7-.1-.7-.8-3.2-7.1-5.3-12.7l-2.8 1.1c1.7 4.6 4.8 12.5 5.9 13.7.7.8 1.8 1.3 3 1.4 1.5.2 3.1 0 4.4-.8h.1c.1.1.1.1.2.1.1.1.3.1.4.1.2.1.5.1.7.1.4.1.8.1 1.2.1.7 0 1.4-.1 2.1-.3.7-.2 1.4-.4 2.1-.7.4-.2.7-.4 1.1-.7l.6-.6c.2-.3.3-.5.4-.8.3-.8.4-1.4.5-2 .1-.6.2-1.2.3-1.9.6-2.2.8-4.6 1-7.1z" transform="translate(2.575 .176)"/>

                <path fill="#f36d22" fill-opacity="1" d="M516.6 399.4c-1-.4-2-.7-3-.3-19.7 6.3-42.5 12-62.8-.5-1.7-1.1-4-.5-5.1 1.2l-.1.1c-8.6 15.7-38.3 26-43 23.9-2.8-1.2-6.6-4.6-8.2-10-2.3-7.5 0-17 6.6-27.4 22.5-35.7 63.4-57.1 110.6-58.3 3.1-.1 6.3-.1 9.5 0 20.6.6 39.5 6.5 55.9 17 13.2 8.5 19.7 12.7 30.6 33.6-33.782-1.673-55.4 2.019-91 20.7z"/>
                <path fill="#ffdcaf" d="M472.814 377.082c-7.608.014-11.096 2.152-11.096 2.152l-16.387 5.387-.013-.088c-14.173 2.447-16.833 7.805-23.618 11.584l-.082.018c-.01.001 0 .027-.007.033a25.984 25.984 0 0 1-4.194 1.865c-15.2 5.2-18.5 12.9-18.5 12.9 2-1.7 6-2.099 6-2.099-10.8 8.8-2.799 17.4-2.799 17.4.7 8.5 1.4 3.2 18-1.5 16.6-4.8 28.1-21.1 28.1-21.1l-.697-4.59c1.102-.516 2.42-.507 3.498.19 20.4 12.3 43.2 6.4 62.8-.1 1-.4 1.5 1.3 2.5 1.7 1.6.6 24.5-1.8 24.5-1.8s-4.2-5.4-11.9-9.9c-9.3-5.5-23.1-6.7-23.1-6.7 2.9-.4 8.2.1 8.2.1-13.9-6.9-19-2.2-32.2-4.6-3.476-.625-6.469-.857-9.005-.852z"/>
                <path d="M516.4 328.1c1.6 0 3.2 0 4.8.1 20.6.6 39.5 6.5 55.9 17 11.2 7.2 17.5 11.4 25.9 25.2 1.5 2.5 9 .8 7.9-1.1-10.1-17.6-17.5-22.3-29.8-30.3-17.7-11.4-37.8-17.6-59.7-18.2-1.6 0-3.3-.1-5-.1-1.6 0-3.3 0-4.9.1-24.3.6-47.8 6.6-67.8 17.1-20.2 10.6-37.1 26.1-48.9 44.7-7.7 12.3-10.3 23.9-7.4 33.5 2.4 7.8 7.9 12.7 12.3 14.6 1.4.6 2.9.9 4.7.9 9.3 0 34.7-9.3 45.7-24.8 8.4 4.5 17.6 6.7 28.1 6.7 12.6 0 25-3.2 36.4-6.9 3-1 3.8-2.2 3.9-4.1 0-1.3-1.2-3.6-3.8-3.5-.3 0-.7.1-1 .2-11.2 3.6-23.3 6.9-35.4 6.9-9.3 0-18.6-2-27.4-7.4-.6-.4-1.3-.5-1.9-.5-1.3 0-2.5.6-3.2 1.8l-.1.1c-7.9 14.3-33.3 24.1-41.2 24.1-.7 0-1.3-.1-1.7-.3-2.8-1.2-6.6-4.6-8.2-10-2.3-7.5 0-17 6.6-27.4 22.5-35.7 63.4-57.1 110.6-58.3 1.4-.1 3-.1 4.6-.1"/>
                <g class="remove--part">
                    <path fill="#f36d22" d="M522.1 330.4s-46.5-34-89.2-26.4c0 0 8.5 2.2 15.5 6.1 0 0-38.6-5.9-53.5 20.7-.2.3.2.6.5.4 2.3-1.6 10.1-3.9 19.9-4.7 0 0-25.1 16.6-4.3 41.2 0 0 5.2-16.4 24.2-22.3 17.5-5.4 29.9 4.4 42-10.2" transform="translate(3.513 .576)"/>
                    <path d="M456.8 312.8c-7.5-.1-14.9.3-22.1 1.2-3.6.5-7.2 1.2-10.6 2-3.5.9-6.9 1.8-10.1 3.1-3.2 1.3-6.3 3-8.9 5.1-2.6 2.1-4.9 4.6-6.6 7.5l-.3.5-.2.3v-.1l.1-.2c.1-.2.2-.5.2-.8.1-.6 0-1.2-.2-1.8-.5-1-1.6-3-.6-3.3 2-.7 3.9-1.2 5.8-1.6 3.9-.9 7.7-1.4 11.6-1.7 1.9-.2 3.6 1.3 3.8 3.2.1 1.2-.4 2.4-1.3 3.1h-.1c-.2.2-.6.5-.9.8-.3.3-.7.6-1 .9-.7.6-1.3 1.3-1.9 2-1.2 1.4-2.3 2.9-3.2 4.4-1.8 3.1-3.1 6.5-3.3 9.9-.3 3.4.3 6.9 1.7 10.2 1.4 3.3 3.4 6.4 5.9 9.3l-6 1.1c.2-.6.3-.9.5-1.4.2-.4.4-.8.5-1.2l1.2-2.4c.8-1.5 1.8-3 2.8-4.4 2.1-2.8 4.5-5.4 7.3-7.7 2.7-2.3 5.8-4.1 9-5.6 1.6-.7 3.2-1.4 4.9-1.9 1.7-.5 3.3-.9 4.9-1.3 3.3-.8 6.6-1.2 9.8-1.6 3.2-.4 6.4-.7 9.3-1.4 2.9-.6 5.7-1.7 8.3-3.3 2.6-1.6 5-3.6 7.4-5.8.3-.3.8-.3 1.1 0 .2.3.3.7.1.9-1.8 2.8-3.9 5.4-6.5 7.7-1.3 1.1-2.7 2.2-4.2 3-1.5.9-3.1 1.6-4.7 2.2-3.3 1.2-6.5 1.9-9.7 2.6-3.1.7-6.2 1.4-9.2 2.3-1.5.4-3 .9-4.4 1.4-1.4.5-2.7 1.1-4 1.8-1.3.6-2.6 1.4-3.8 2.2-1.2.8-2.4 1.7-3.5 2.6-2.2 1.9-4.3 4-6.1 6.4-.9 1.2-1.8 2.4-2.5 3.6-2.2 3.9-2.7 7.5-2.7 7.5-.8 1.7-8.2-6.5-12.2-13.9-2.2-4-2.6-8.9-2.2-13.5.4-4.6 2-9.1 4.3-12.9 1.2-1.9 2.5-3.7 3.9-5.4.7-.8 1.5-1.6 2.3-2.4.4-.4.8-.8 1.2-1.1.4-.4.8-.7 1.4-1.2l2.4 6.3c-3.6.3-7.3.4-10.7 1.6-13.5 4.7-15.3 9-15.6 8.5-.5-.8 1.6-11.2 10-19.3 3-2.9 8.8-6.6 12.5-8.3 3.7-1.6 7-2.8 10.9-3.5 3.9-.7 7.8-1 11.7-1.1 7.8-.1 15.4.7 22.9 2.5.6.2 1 .8.9 1.4-.3.6-.7 1-1.3 1z" transform="translate(3.513 .576)"/>
                    <path fill="#f36d22" d="M542.6 331.5c-17.4-6.3-23.8-20.1-45.4-25.3 0 0 9.5 12.1 11.3 23" transform="translate(3.513 .576)"/>
                    <path d="M542.4 331.7c-4.6-.2-9.1-1.8-13.1-4-4.1-2.2-7.5-4.9-11.1-7-3.5-2.2-7.2-4-11-5.6-3.8-1.7-7.8-3-11.8-4.5l3.3-5.9c1.3 1.4 2.3 2.7 3.4 4.1 1.1 1.4 2.1 2.8 3.1 4.3 1.9 2.9 3.7 6.1 4.6 9.7.2.9-.2 2-1.1 2.4-1.1.6-2.4 0-2.8-1.1v-.1c-1.1-2.7-3-5.3-5.1-7.6-1-1.2-2.2-2.3-3.3-3.5-1.1-1.1-2.4-2.2-3.5-3.2-1.9-1.4-3.8-2.7-5.6-4.3-.6-.6-1.5-1.3-1.8-2.1-.1-.3-.1-.5 0-.8.4-.7 10.2-2.7 34.3 11.8 4.1 2.5 7.9 5.3 11.5 8.4.8.7 1.6 1.3 2.4 2 .4.3.8.7 1.2 1l1.2 1c.9.6 1.7 1.2 2.6 1.8.9.6 1.8 1.2 2.8 1.9.3.2.4.6.1.9.1.3-.1.4-.3.4z" transform="translate(3.513 .576)"/>
                    <path d="M523.9 334.2c-3.5-2.1-7.1-4-10.7-5.9-3.6-1.9-7.2-3.7-10.9-5.4-7.3-3.5-14.8-6.4-22.3-9.3-7.5-2.9-15.2-5-23.1-6.1-3.9-.6-7.9-.9-11.8-.9-2 0-3.9.1-5.9.3-1.9.2-3.9.5-5.8.8l.3-7c1.5.4 2.8 1 4.1 1.5 1.3.6 2.6 1.2 3.9 2 1.3.7 2.5 1.5 3.7 2.4 1.2.9 2.3 1.8 3.3 2.9.3.3.3.8 0 1.1-.2.2-.4.2-.7.2-1.4-.2-2.8-.5-4.2-.8l-4-.8-4-.8-2-.4-1.9-.4c-1.9-.4-11.1-2.1-10.7-4 .3-1.4 10.8-3.7 23.9-4 4.3 0 8.6.3 12.8 1 4.2.6 8.4 1.5 12.4 2.6 4.1 1.1 8.1 2.3 12.1 3.7 7.9 2.8 15.4 6.7 22.6 11 7.1 4.3 14 9.1 20.3 14.6.5.4.5 1.2.1 1.7-.4.2-1 .3-1.5 0z" transform="translate(3.513 .576)"/>
                </g>
            </g>
            <g id="LeftEar--group">
                <path d="M701.4 357.1c-.5 1.7-1.2 3.4-2 5.2-5 10-17.7 23-38 29.1-4.5 1.4-9.3 2-14 2h-.1c-13 0-34.2-4.9-61.6-28.3-1.9-1.7-5.1-4.8-7.1-7-2.3-2.5-2.8-6.1-1.5-9.1s4.4-5.1 7.8-5.1h.5c13.9.8 30.1 1.2 48.4 1.2 8.1 0 14.8-.1 19.3-.1h4.5c7.4 0 13.3-.1 18.2-.1 8.1 0 13.7.1 17.1.2 2.9.1 5.6 1.5 7.3 3.9 1.5 2.3 2 5.2 1.2 8.1z"/>
                <path fill="#f36d22" fill-opacity="1" d="M590.4 359.4c25.7 21.9 45.1 26.5 56.8 26.5h.1c4 0 8-.6 11.9-1.7 18.1-5.4 29.2-16.6 33.5-25.3.8-1.5 1.2-2.8 1.5-3.9.4-1.3-.6-2.6-1.9-2.7-3.3-.1-8.9-.2-16.7-.2-5.4 0-11.6 0-18.2.1-3.3 0-12.2.2-23.9.2-13.9 0-31.7-.2-48.8-1.2h-.1c-.9 0-1.5 1.1-.8 1.8 2 2.2 5 5.1 6.6 6.4z" class="st1"/>
            </g>
            <g id="Face--group">
                <path d="M417.6 376.2c-4.1 0-7.4 3.3-7.4 7.4 0 9.9 14.8 9.9 14.8 0 0-4.1-3.3-7.4-7.4-7.4z"/>
                <path d="M503.2 355.7c-4.1 0-7.4 3.3-7.4 7.4 0 9.9 14.8 9.9 14.8 0 0-4.1-3.3-7.4-7.4-7.4z"/>
                <path id="Face--group__nose" d="M457.9 375.4c-7.4.8-12.3 2.5-15.6 4.9-5.9 4.4-4.1 9.9 2.5 10.7 6.6.8 7.1 1.2 13.2-3.3 6.5-4.9 7.3-13.1-.1-12.3z" />
            </g>
        </g>
        <g id="LeftLeg--group">
            <path fill="#f36d22" fill-opacity="1" d="M512.4 655.2c-4.6-5.2-3.7-15.7-1.9-29.4 2.6-19.8 5-34.5 25.4-50.8 24.4-19.5 62.2-15 76.2-.5 3.6 3.7 6.7 10.9 7.3 18.8.9 11.4-22.2 42.4-44.8 51.8-22.6 9.6-54 19.3-62.2 10.1z" class="st0"/>
            <path d="M512.4 658.9c-1.2 0-2.3-.5-3-1.6-4.7-6.7-4.5-17.2-2.6-32 2.5-19 4.6-35.5 26.8-53.2 26.8-21.4 63.7-14 78.4.7 1.4 1.4 1.4 3.8 0 5.2-1.4 1.4-3.8 1.4-5.2 0-12.5-12.5-45.4-18.7-68.6-.1-18.9 15.1-21.4 28.2-24.1 48.4-1.4 11-2.3 21.8 1.3 26.7 1.2 1.7.8 4-.9 5.2-.6.5-1.4.7-2.1.7z"/>
        </g>
        <g id="LeftFoot--group">
            <path d="M523.7 651.2c-.4 1.9-2 9.1-6.7 16.2-7 10.6-17.8 16.5-30.4 16.5-7.2 0-12.9-2.1-16.8-6.2-7.5-7.8-7.1-21-6.7-33.7v-.1c.2-6.4.4-13.1-.4-18.5-.7-4.4-1.8-9.1-3.1-14.5-2.4-10.2-4.6-20.1-4.3-28.7.4-10.7 4.7-18.9 12.8-24.4 3.5-2.4 7.4-3.5 11.4-3.5 9.3 0 18.9 6.2 28.7 18.6 7.1 8.9 13.1 20 15.4 28.1 6.4 21.8 4.9 34.9.1 50.2z"/>
            <path fill="#f36d22" fill-opacity="1" d="M477 670.8c2 2.1 5.2 3.1 9.6 3.1 22.6 0 27-23.7 27.2-24.7 0-.2.1-.4.1-.6 4.4-13.9 5.7-25.2 0-44.8-3.7-13.2-21.1-39.4-34.4-39.4-2 0-4 .6-5.8 1.9-11.7 7.8-9.3 21.8-4.4 42.4 1.2 5.1 2.5 10.4 3.2 15.3 1 6.4.8 13.5.5 20.4-.2 10.6-.6 21.6 4 26.4z" class="st0"/>
        </g>
        <g id="LeftArm--group">
            <path d="M478 413.3c-6.4 2.9-12.4 6.6-17.6 11.1-12.1 10.6-12.6 19.4-10.8 24.8 2.5 7.7 11.1 13.4 21.9 14.6 7.1.7 16.2-1.3 26.7-3.6 13.9-3.1 29.7-6.6 42.9-3.9 19.6 4.1 33.3 15 53.1 32.7l10.3 9.2c1.5 1.3 3.9 1.2 5.2-.4 1.3-1.5 1.2-3.9-.4-5.2l-2.9-2.6c-24-21.7-39.9-36-63.8-41-14.8-3.1-31.3.6-46 3.9-9.5 2.1-18.5 4.1-24.3 3.5-7.8-.8-14.1-4.6-15.7-9.5-1.5-4.7 1.6-10.7 8.7-17 20.7-18.2 59.1-23.7 87.5-12.5 4.7 1.9 7.4-5.1 2.7-6.9-11.4-4.4-24.6-6.6-37.7-6.2-10.1.4-30.5 4.8-39.8 9z"/>
            <path fill="#f36d22" fill-opacity="1" d="M615.4 451c11.7 12.2 17 60.3-6 41.6l-2.9-2.6c-24-21.7-39.9-36-63.8-41-14.8-3.1-31.3.6-46 3.9-9.5 2.1-18.5 4.1-24.3 3.5-7.8-.8-14.1-4.6-15.7-9.5-1.5-4.7 1.6-10.7 8.7-17 20.7-18.2 59.3-24 87.5-12.5 4.6 2 46.1 16.5 62.5 33.6z" class="st0"/>
        </g>
        <g id="RightHand--group">
            <path d="M390.6 457c-5.2 5.1-11.7 8.1-17.8 8.1-8.1 0-14-5.1-15.6-13.3-1-5.4.9-11.3 5.4-16.7 5.8-6.9 14.9-12 21.7-12.1h.2c1.3 0 2.6.2 3.8.6h.2l.1.1c4.5 1.8 7.9 6.2 9.1 11.8 1.4 7.5-1.2 15.5-7.1 21.5z"/>
            <path fill="#f36d22" fill-opacity="1" d="M385.4 451.7c4.2-4.2 6-9.6 5-14.7-.6-3.1-2.3-5.5-4.6-6.4-.4-.1-.9-.2-1.3-.2h-.1c-4 0-11.3 3.6-16.1 9.4-1.8 2.1-4.6 6.3-3.8 10.6 1.1 6 5.1 7.3 8.3 7.3 4.1 0 8.8-2.2 12.6-6z" class="st0"/>
        </g>
    </g>
</svg>