<svg version="1.1" id="wapuugotchi_svg__item" viewBox="0 0 1e3 1e3" xmlns="http://www.w3.org/2000/svg">
	<g id="Face--group">
		<path fill="#010101" d="M599,343.5c-7.5-16.5-28.4-14.6-79.5,7.4c-6.3-10-17.8-16.3-30.4-15.3
		c-15.8,1.3-28.2,13.7-30,29.1c-4.4-1.9-8.6-2.4-12.6-1.4c-4.4,1.1-7.6,3.8-9.6,6.1c-6.5-9.3-17.5-15.1-29.6-14.1
		c-18.1,1.5-31.6,17.5-30.1,35.8c1.4,18.3,17.3,31.9,35.4,30.5c18.1-1.5,31.6-17.5,30.1-35.8c-0.3-3.8-1.2-7.4-2.7-10.7
		c0,0,0.1-0.1,0.1-0.1c1-1.6,3.8-5,8-6.1c3.3-0.8,6.9,0,10.9,2.3c0,0.1,0,0.2,0,0.2c1.4,18.3,17.3,31.9,35.4,30.5
		c18.1-1.5,31.6-17.5,30.1-35.8c-0.3-3.5-1.1-6.8-2.3-9.8c52.8-22.7,66.5-20.8,71.3-10.3c0.7,1.5,2.5,2.2,4,1.5
		C599,346.7,599.7,345,599,343.5z M412.1,415.7c-14.9,1.2-28.1-10.1-29.3-25.2c-1.2-15.1,10-28.4,24.9-29.6
		c14.9-1.2,28.1,10.1,29.3,25.2S427,414.5,412.1,415.7z M493.9,396.1c-14.9,1.2-28.1-10.1-29.3-25.2c-1.2-15.1,10-28.4,24.9-29.6
		c14.9-1.2,28.1,10.1,29.3,25.2C520.1,381.6,508.9,394.9,493.9,396.1z"/>
	</g>
</svg>
