<svg xmlns="http://www.w3.org/2000/svg" xml:space="preserve" width="60" height="90"><g fill="#010101" fill-rule="evenodd" style="display:inline"><path d="M16.63 36.87c-2.618.212-4.917-1.767-5.126-4.411-.21-2.644 1.749-4.967 4.366-5.179 2.617-.211 4.916 1.768 5.126 4.412.209 2.643-1.75 4.967-4.367 5.178zm-.694-8.76c-2.164.175-3.784 2.096-3.61 4.282.172 2.186 2.074 3.823 4.238 3.648 2.164-.175 3.783-2.096 3.61-4.282-.173-2.186-2.074-3.823-4.238-3.648zm12.547 5.923c-2.617.211-4.916-1.768-5.125-4.412-.21-2.644 1.749-4.966 4.366-5.178 2.617-.212 4.916 1.767 5.126 4.411.209 2.644-1.75 4.967-4.367 5.179zm-.693-8.76c-2.164.175-3.784 2.096-3.61 4.282.172 2.186 2.074 3.822 4.238 3.647 2.164-.174 3.783-2.096 3.61-4.282-.173-2.186-2.074-3.822-4.238-3.647z"/><path d="m20.728 30.212-.739-.37c.023-.046.562-1.131 1.67-1.427.716-.19 1.48-.011 2.272.533l-.464.688c-.582-.4-1.118-.542-1.591-.417-.744.195-1.144.985-1.148.993zm11.757-2.342-.49-.67a26.726 26.726 0 0 1 2.775-1.775c2.097-1.158 3.697-1.596 4.754-1.303a1.84 1.84 0 0 1 1.24 1.109l-.76.322c-.14-.335-.361-.534-.699-.628-1.717-.476-5.506 1.963-6.82 2.944z"/></g></svg>