<svg xmlns="http://www.w3.org/2000/svg" viewBox="0 0 1000 1000">
    <g class="Head--group">
        <path d="M401.863 214.747c-8.132 0-15.681.407-22.898 1.232-2.609.299-5.295.545-7.584.739-.346.204-1.093.59-1.063.62.128.128 5.108.485 11.067.794 14.712.762 19.418 1.454 20.75 3.054 2.452 2.947.782 5.755-4.442 7.463-12.41 4.058-32.795 13.635-44.723 21.014-6.859 4.244-19.829 13.56-19.431 13.957.126.126 3.186-.08 6.8-.457 3.615-.377 13.988-.716 23.053-.752l16.483-.064 1.24 1.652c2.219 2.96 1.076 4.404-6.527 8.242-7.883 3.98-12.747 7.56-19.25 14.168-6.624 6.73-11.722 14.14-16.57 24.088-3.842 7.881-8.94 21.64-8.268 22.313.165.164 2.57-1.113 5.345-2.838 8.359-5.197 24.84-12.847 35.442-16.45 16.986-5.772 59.76-18.373 62.37-18.373 1.49 0 3.839 2.584 3.839 4.22 0 .575-1.935 3.452-4.301 6.39-8.899 11.052-17.804 26.146-22.68 38.445-2.733 6.895-3.332 8.729-2.857 8.729.185 0 2.573-2.071 5.307-4.6 24.119-22.314 56.172-44.865 82.75-58.22 5.025-2.526 6.304-2.67 8.066-.907 1.076 1.076 1.224 1.743.932 4.211-.78 6.58-7.685 24.055-13.272 33.588-2.748 4.689-3.217 4.806 12.397-3.08 18.647-9.419 37.658-21.221 55.609-34.522 9.647-7.148 11.436-7.267 12.861-4.802 1.426 2.464.682 12.091.682 12.091-1.495 22.042-5.093 44.32-10.334 63.987-1.003 3.764-1.715 6.954-1.582 7.088.133.133 1.91-.988 3.95-2.489 12.966-9.545 30.748-27.744 45.22-46.283 7.299-9.35 8.205-9.296 15.94.924 5.855 7.737 11.512 17.117 15.02 24.906 1.437 3.19 2.769 5.544 2.962 5.233.854-1.383.46-23.058-.576-31.633-1.167-9.656-1.038-10.502 1.752-11.496 2.434-.868 12.3 5.805 16.794 9.71l17.62 18.579s-.6-11.482-.989-19.692c-.47-9.937 1.548-13.21 3.221-13.918 3.778-1.597 14.577 10.037 16.004 11.221 1.192.989 8.267 8.424 8.267 8.424s-5.784-14.192-5.765-14.367h-.038c-7.468-17.07-16.084-33.824-29.684-46.922-6.835-6.877-7.482-8.233-5.07-10.645 1.228-1.228 1.672-1.275 9.18-.937 7.164.322 18.093 1.922 23.086 3.379 1.31.382 1.887.382 1.832-.389-.298-.19-.573-.32-.746-.32-.322 0-.93-.417-1.354-.928-1.376-1.658-11.33-6.91-16.652-8.787-10.14-3.574-13.86-4.129-27.647-4.129-6.937 0-13.944.227-15.568.504l-2.953.504 7.322 7.187c4.027 3.954 9.425 10.018 11.996 13.477 4.213 5.668 10.16 16.493 11.252 20.478l.42 1.537-1.334-1.19c-3.3-3.627-4.874-4.915-4.863-4.903-11.315-12.276-29.33-23.313-40.29-24.682l-3.384-.424-.015 6.063c-.027 10.93-2.65 21.353-8.03 31.906l-2.822 5.537-.402-5.846c-.952-13.87-6.082-25.04-15.283-33.277-3.74-3.348-8.335-6.647-9.332-6.7-.204-.01-1.707 1.68-3.338 3.757-7.506 9.554-22.95 23.294-35.715 31.777-5.816 3.865-16.735 9.716-17.223 9.229-.159-.16.168-1.369.727-2.69 3.646-8.614 5.255-14.804 5.582-21.478.394-8.05-.294-12.256-2.91-17.793-1.677-3.55-2.115-4.051-3.266-3.739-2.735.744-21.236 10.295-26.865 13.87-10.606 6.734-17.022 11.585-27.227 20.583l-11.828 11.899c-2.517 2.734-6.283 7.128-8.369 9.766-2.086 2.637-3.9 4.911-4.03 5.052-.128.141-.233-.37-.233-1.134 0-5.269 4.648-21.5 8.255-28.829 1.228-2.657 2.33-5.281 3.946-7.718 3.164-4.675 3.496-4.347-3.951-3.928-21.105 1.188-48.195 9.47-67.168 20.537-2.454 1.431-4.461 2.332-4.461 2 0-2.035 12.247-25.933 28.826-34.367 1.47-.749 2.526-1.51 2.344-1.694-.405-.404-23.55.93-27.631 1.594-1.608.262-2.924.308-2.924.104 0-.697 4.504-7.11 8.094-11.526 4.982-6.128 12.086-12.543 19.02-17.175 5.419-3.622 14.364-8.266 15.92-8.266.36 0 .655-.239.655-.53 0-.968-12.208-1.933-24.482-1.933z"
              style="display:inline;fill:#351e0f;stroke:#351e0f;stroke-width:3.77953;stroke-linecap:square;stroke-linejoin:round;stroke-dasharray:none;stroke-opacity:1;paint-order:stroke fill markers"
              transform="matrix(.60359 0 0 .5124 185.136 192.885)"/>
        <path d="M548.004 120.64c-.175.173.074 1.792.55 3.597 4.212 15.952 3.976 43.97-.4 47.674-2.109 1.784-4.06 1.328-6.453-1.506-19.225-22.762-49.855-38.163-83.44-41.953-9.05-1.021-9.328-1.043-9.328-.775 0 .136 2.34 2.865 5.202 6.064 11.085 12.396 19.956 25.043 25.318 36.096 3.412 7.035 3.651 8.593 1.637 10.607-1.313 1.312-2.186 1.226-11.239-1.129-17.954-4.669-29.718-6.337-47.77-6.775-15.253-.37-22.994.088-21.085 1.248 12.575 7.638 26.002 17.656 26.928 20.09.862 2.269-.522 4.572-3.073 5.11-1.155.243-5.549 1.13-9.763 1.972-14.098 2.814-24.008 6.102-36.727 12.187-3.485 1.668-5.852 2.904-6.98 3.57 2.289-.193 4.975-.44 7.584-.738 7.217-.825 14.766-1.232 22.898-1.232 12.274 0 24.482.965 24.482 1.934 0 .29-.295.529-.656.529-1.555 0-10.5 4.644-15.92 8.266-6.932 4.632-14.037 11.047-19.02 17.175-3.589 4.415-8.093 10.83-8.093 11.526 0 .204 1.316.158 2.924-.104 4.08-.664 27.226-1.999 27.63-1.594.183.183-.872.945-2.343 1.694-16.58 8.434-28.826 32.332-28.826 34.367 0 .332 2.007-.569 4.46-2 18.974-11.066 46.065-19.35 67.169-20.537 7.447-.42 7.115-.747 3.95 3.928-1.615 2.437-2.717 5.061-3.944 7.718-3.608 7.328-8.256 23.56-8.256 28.828 0 .765.105 1.276.234 1.135.13-.14 1.943-2.415 4.03-5.053 2.085-2.637 5.851-7.031 8.368-9.765l11.829-11.899c10.204-8.998 16.62-13.849 27.226-20.584 5.629-3.574 24.13-13.125 26.865-13.869 1.15-.312 1.59.19 3.266 3.739 2.616 5.537 3.305 9.744 2.91 17.793-.327 6.674-1.936 12.864-5.582 21.478-.559 1.321-.886 2.53-.726 2.69.487.487 11.406-5.364 17.222-9.229 12.766-8.483 28.21-22.224 35.715-31.777 1.631-2.076 3.134-3.767 3.338-3.756.997.051 5.592 3.35 9.332 6.699 9.2 8.238 14.33 19.408 15.283 33.277l.403 5.846 2.822-5.537c5.38-10.553 8.003-20.976 8.03-31.906l.014-6.063 3.385.424c10.958 1.37 28.974 12.406 40.289 24.682-.011-.012 1.563 1.276 4.863 4.902l1.334 1.191-.42-1.537c-1.091-3.985-7.04-14.81-11.252-20.478-2.57-3.46-7.969-9.523-11.996-13.477l-7.322-7.187 2.953-.504c1.624-.277 8.63-.504 15.569-.504 13.785 0 17.506.555 27.646 4.129 5.323 1.876 15.276 7.129 16.652 8.787.424.511 1.033.928 1.354.928.173 0 .449.13.746.32-.05-.69-.598-1.989-1.727-4.375-6.542-13.832-18.716-25.96-33.445-33.314-10.756-5.372-28.45-9.524-44.693-10.485-7.074-.418-7.521-.522-8.615-1.99-1.688-2.265-.928-4.643 1.857-5.807 1.857-.775 3.309-.81 10.002-.228 4.306.374 8.778.836 9.94 1.027 2.016.332 2.166.229 3.408-2.326 1.764-3.631 7.566-9.793 11.82-12.55 1.923-1.248 5.266-2.856 7.428-3.575 2.161-.72 3.701-1.524 3.423-1.787-1.107-1.052-11.076-4.11-16.646-5.108-4.48-.802-7.755-.98-13.541-.738-9.737.407-15.14 1.825-24.62 6.46-6.224 3.043-7.589 3.505-8.888 3.01-1.662-.631-2.717-2.714-2.717-5.362 0-6.082-6.205-20.77-12.004-28.416-4.32-5.697-13.008-13.749-19.332-17.915-6.133-4.04-12.972-7.729-13.447-7.253z"
              style="display:inline;fill:#5d351a;stroke:#5d351a;stroke-width:1.88976;stroke-dasharray:none;stroke-opacity:1"
              transform="matrix(.60359 0 0 .5124 185.136 192.885)"/>
        <path d="M541.379 109.052c-.793-.108-1.402-.068-1.862.107-2.585.983-2.85 2.935-1.162 8.553 3.258 10.838 4.547 18.842 4.899 30.422.182 6.041.124 10.984-.13 10.984-.253 0-2.464-1.903-4.913-4.23-10.69-10.154-25.68-19.285-41.823-25.475-15.625-5.991-32.093-9.273-52.101-10.383-6.3-.35-7.57-.264-8.879.594-1.141.748-1.527 1.519-1.527 3.053 0 1.807.804 2.87 6.72 8.865 7.2 7.294 16.488 18.137 21.229 24.781 3.09 4.33 8.767 13.544 8.767 14.229 0 .224-3.25-.34-7.222-1.25-22.23-5.097-48.83-6.591-68.617-3.856-9.96 1.377-11.153 1.767-12.051 3.936-1.166 2.814-.115 4.33 4.506 6.492 5.496 2.572 14.584 7.942 21.238 12.55 3.062 2.122 5.566 3.96 5.566 4.087 0 .126-1.557.54-3.46.92-16.042 3.206-36.776 11.52-49.506 19.853-7.512 4.917-9.032 6.383-9.02 8.695.018 3.651-.09 3.62 14.564 3.95l13.416.3-10.619 5.194c-20.772 10.159-35.783 20.12-48.517 32.199-3.586 3.4-4.365 4.472-4.365 6.002 0 3.827 2.35 4.56 10.462 3.264 6.093-.974 23.591-2.415 28.963-2.387l4.815.025-2.108 1.582c-1.158.87-5.098 4.582-8.756 8.248-13.857 13.891-22.826 31.104-28.615 54.914-2.581 10.618-2.538 12.346.344 13.442 1.954.743 3.742.034 6.03-2.39 6.142-6.514 25.022-17.215 40.753-23.102 6.424-2.405 48.805-15.504 53.531-16.739 0 0-9.01 13.232-12.558 19.889s-8.625 20.021-8.625 20.021c-1.942 5.268-5.985 19.945-5.988 21.74-.003 1.688 2.213 3.462 4.324 3.462 1.663 0 3.159-1.222 11.285-9.204 17.941-17.623 36.714-32.685 58.725-47.12 9.308-6.105 24.364-14.913 24.78-14.497.41.41-3.566 10.365-6.353 15.907-3.337 6.638-6.82 12.284-10.394 16.851-3.853 4.923-4.356 6.07-3.567 8.147 1.01 2.654 2.962 2.996 7.768 1.36 18.745-6.375 51.988-24.601 75.355-41.314 3.434-2.456 6.64-4.706 7.123-5 .758-.46.819.283.461 5.38-1.442 20.52-6.938 49.23-12.974 67.786-1.347 4.14-2.448 7.854-2.448 8.254 0 1.26 2.893 3.682 4.397 3.682 3.64 0 19.786-11.403 30.91-21.83 10.809-10.132 26.235-27.05 32.483-35.627l1.271-1.746 2.816 3.824c7.244 9.84 13.787 22.2 17.28 32.643 2.11 6.306 3.61 9.51 4.998 10.662 1.371 1.138 3.893.967 5.215-.354 1.404-1.404 3.226-9.478 4.222-18.703 0 0 .957-8.083.975-13.386.019-5.304-1.211-18.362-1.211-18.362.609-.068 19.812 19.86 19.834 19.961 0 0 7.94 8.47 12.146 6.041 4.207-2.429 3.733-6.372 2.866-31.135 6.097 5.325 11.795 11.491 18.136 16.54 2.862 2.278 6.015 2.113 7.295.08 2.645-4.2.864-13.976-3.258-23.543l-8.458-19.047c-4.457-8.77-11.727-19.963-17.028-26.215-2.019-2.381-3.67-4.435-3.67-4.565 0-.91 14.498 2.125 21.295 4.46 5.95 2.042 7.724 1.848 8.791-.96 1.35-3.55-4.276-17.965-10.838-27.767-3.977-5.941-13.858-15.835-19.955-19.983-8.63-5.87-20.6-11.144-31.043-13.675-2.4-.582-4.363-1.252-4.363-1.489 0-.968 3.659-5.38 6.107-7.367 5.032-4.081 10.53-6.127 19.477-7.244 5.418-.676 6.055-.888 6.84-2.29 1.922-3.436-.163-5.574-10.455-10.718-11.238-5.616-21.699-8.08-34.309-8.082-10.48 0-16.78 1.165-25.611 4.74-2.995 1.213-5.51 2.105-5.592 1.983-.081-.122-.766-2.389-1.521-5.037-5.783-20.275-21.709-37.897-44.62-49.367-6.492-3.25-10.506-4.891-12.882-5.213zm6.625 11.588c.475-.476 7.314 3.213 13.447 7.253 6.323 4.166 15.012 12.218 19.332 17.915 5.799 7.646 12.004 22.334 12.004 28.416 0 2.648 1.055 4.731 2.717 5.363 1.299.494 2.663.032 8.888-3.012 9.48-4.634 14.882-6.052 24.62-6.459 5.786-.242 9.06-.064 13.54.738 5.57.998 15.54 4.056 16.647 5.108.278.263-1.262 1.068-3.424 1.787-2.161.72-5.504 2.327-7.428 3.574-4.253 2.758-10.056 8.92-11.82 12.55-1.241 2.556-1.391 2.66-3.408 2.327-1.161-.191-5.634-.653-9.94-1.027-6.693-.581-8.145-.547-10.002.228-2.784 1.164-3.544 3.542-1.857 5.807 1.094 1.468 1.542 1.572 8.615 1.99 16.244.961 33.937 5.113 44.694 10.485 14.728 7.355 26.903 19.482 33.445 33.314 2.388 5.049 2.377 5.488-.105 4.764-4.993-1.457-15.922-3.057-23.086-3.38-7.509-.337-7.952-.29-9.18.938-2.412 2.412-1.765 3.768 5.07 10.645 13.6 13.098 22.215 29.852 29.684 46.922h.038c-.02.175 5.765 14.367 5.765 14.367s-7.075-7.435-8.267-8.424c-1.428-1.184-12.227-12.818-16.004-11.22-1.673.707-3.692 3.98-3.221 13.917.39 8.21.988 19.692.988 19.692l-17.619-18.578c-4.494-3.906-14.36-10.579-16.795-9.711-2.79.994-2.918 1.84-1.752 11.496 1.036 8.575 1.43 30.25.576 31.633-.192.311-1.524-2.044-2.96-5.233-3.509-7.79-9.166-17.169-15.022-24.906-7.734-10.22-8.64-10.274-15.94-.924-14.472 18.54-32.253 36.738-45.22 46.283-2.04 1.501-3.816 2.622-3.95 2.489-.133-.134.58-3.324 1.583-7.088 5.241-19.668 8.839-41.945 10.334-63.987 0 0 .743-9.627-.682-12.092-1.425-2.464-3.214-2.345-12.861 4.803-17.951 13.301-36.962 25.103-55.61 34.522-15.613 7.886-15.144 7.769-12.396 3.08 5.587-9.533 12.492-27.008 13.271-33.588.292-2.468.145-3.135-.931-4.211-1.763-1.762-3.042-1.619-8.067.906-26.577 13.356-58.63 35.907-82.75 58.22-2.733 2.53-5.12 4.6-5.306 4.6-.476 0 .123-1.833 2.857-8.728 4.876-12.299 13.781-27.394 22.68-38.445 2.365-2.938 4.3-5.815 4.3-6.39 0-1.636-2.35-4.22-3.837-4.22-2.61 0-45.385 12.6-62.371 18.373-10.602 3.603-27.084 11.253-35.442 16.45-2.775 1.725-5.18 3.002-5.346 2.837-.671-.671 4.427-14.43 8.268-22.312 4.85-9.949 9.947-17.358 16.57-24.088 6.504-6.608 11.368-10.188 19.25-14.168 7.604-3.838 8.747-5.282 6.528-8.242l-1.24-1.652-16.483.064c-9.065.036-19.439.375-23.053.752-3.614.377-6.674.583-6.8.457-.398-.398 12.572-9.714 19.431-13.957 11.927-7.379 32.312-16.956 44.723-21.014 5.224-1.708 6.894-4.516 4.441-7.463-1.331-1.6-6.037-2.292-20.75-3.054-5.959-.31-10.939-.666-11.066-.793-.128-.128 3.492-2.014 8.043-4.192 12.72-6.085 22.629-9.373 36.726-12.187 4.215-.841 8.609-1.73 9.764-1.973 2.55-.538 3.935-2.84 3.072-5.11-.925-2.433-14.352-12.45-26.927-20.089-1.91-1.16 5.832-1.618 21.085-1.248 18.052.437 29.816 2.106 47.77 6.775 9.053 2.354 9.926 2.441 11.238 1.13 2.015-2.015 1.776-3.573-1.636-10.608-5.362-11.054-14.233-23.7-25.319-36.096-2.86-3.2-5.201-5.928-5.201-6.064 0-.268.277-.246 9.328.775 33.585 3.79 64.214 19.19 83.44 41.953 2.393 2.834 4.344 3.29 6.453 1.506 4.376-3.703 4.611-31.722.4-47.674-.476-1.805-.725-3.424-.55-3.597z"
              style="display:inline;fill:#030303;fill-opacity:1;stroke-width:1.70618"
              transform="matrix(.60359 0 0 .5124 185.136 192.885)"/>
    </g>
</svg>