<svg version="1.1" id="wapuugotchi_svg__item" viewBox="0 0 1e3 1e3" xmlns="http://www.w3.org/2000/svg">
	<g class="Body--group">
		<circle transform="rotate(-45.001 470.58 529.29)" cx="470.6" cy="529.3" r="133.5"/>
		<circle cx="470.6" cy="529.3" r="126.1" fill="#0073aa"/>
		<path d="M427.8 479.8c-5.8-2.1-8.7-3.1-14.4-5.3 1-2.7 1.6-4.1 2.6-6.9 5.7 2.2 8.5 3.2 14.2 5.3-.9 2.8-1.4 4.2-2.4 6.9zm16 5.4c-5.9-1.9-8.8-2.9-14.6-4.9 1-2.8 1.4-4.1 2.4-6.9 5.7 2 8.6 3 14.4 4.9-.9 2.8-1.4 4.2-2.2 6.9zm16.1 5c-5.9-1.7-8.9-2.6-14.7-4.5.9-2.8 1.3-4.2 2.1-6.9 5.8 1.9 8.7 2.8 14.5 4.5-.8 2.7-1.2 4.1-1.9 6.9zm16.2 4.4c-6-1.6-8.9-2.4-14.8-4.1.8-2.8 1.1-4.2 1.9-6.9 5.8 1.7 8.8 2.5 14.6 4.1-.7 2.8-1 4.1-1.7 6.9zm-59.2-9.4c-2.7-1-4-1.5-6.7-2.5 1-2.7 1.6-4.1 2.6-6.9 2.6 1 3.9 1.5 6.6 2.5-1 2.8-1.5 4.2-2.5 6.9zm16.1 5.7c-5.9-2-8.9-3-14.8-5.2 1-2.8 1.5-4.1 2.5-6.9 5.8 2.1 8.7 3.1 14.6 5.1-.9 2.8-1.3 4.2-2.3 7zm16.4 5.2c-6-1.8-9-2.8-14.9-4.7.9-2.8 1.4-4.1 2.3-6.9 5.9 2 8.8 2.9 14.7 4.7-.9 2.7-1.3 4.1-2.1 6.9zm16.4 4.7c-6-1.6-9.1-2.5-15-4.3.8-2.8 1.2-4.2 2-6.9 5.9 1.8 8.9 2.6 14.8 4.3-.7 2.7-1.1 4.1-1.8 6.9zm8.3 2.2c-2.7-.7-4.1-1.1-6.9-1.8.7-2.8 1.1-4.2 1.8-7 2.7.7 4 1.1 6.8 1.8-.7 2.8-1 4.2-1.7 7zm-63.3-1.3c-2.8-1-4.1-1.5-6.9-2.5 1-2.7 1.6-4.1 2.6-6.9 2.7 1 4.1 1.5 6.8 2.5-.9 2.8-1.4 4.2-2.5 6.9zm16.8 5.7c-6.1-2-9.2-3.1-15.3-5.2 1-2.8 1.5-4.1 2.5-6.9 6 2.2 9 3.2 15.1 5.2-1 2.8-1.4 4.2-2.3 6.9zm16.9 5.3c-6.2-1.8-9.3-2.8-15.4-4.8.9-2.8 1.4-4.1 2.3-6.9 6.1 2 9.1 2.9 15.2 4.8-.9 2.7-1.3 4.1-2.1 6.9zm17 4.8c-6.3-1.7-9.4-2.5-15.6-4.3.8-2.8 1.2-4.2 2-6.9 6.1 1.8 9.2 2.7 15.4 4.3-.7 2.7-1.1 4.1-1.8 6.9zm8.5 2.2c-2.8-.7-4.3-1.1-7.1-1.8.7-2.8 1.1-4.2 1.8-7 2.8.7 4.2 1.1 7 1.8-.6 2.8-1 4.2-1.7 7zm-47.9-23.3c-6-2.1-9-3.2-15-5.4 1-2.7 1.6-4.1 2.6-6.9 5.9 2.2 8.8 3.3 14.7 5.4-.9 2.7-1.4 4.1-2.3 6.9zm16.5 5.4c-6.1-1.9-9.1-2.9-15.1-5 1-2.8 1.4-4.1 2.4-6.9 5.9 2.1 8.9 3 14.9 4.9-.9 2.9-1.4 4.3-2.2 7zm16.7 5c-6.1-1.7-9.2-2.6-15.2-4.5.9-2.8 1.3-4.2 2.1-6.9 6 1.9 9 2.8 15 4.5-.8 2.7-1.2 4.1-1.9 6.9zm16.8 4.5c-6.2-1.6-9.2-2.4-15.4-4.1.8-2.8 1.1-4.2 1.9-6.9 6 1.7 9.1 2.5 15.2 4.1-.7 2.7-1.1 4.1-1.7 6.9zm-55.8 1.6c-6.2-2.1-9.3-3.2-15.5-5.5 1-2.7 1.6-4.1 2.6-6.9 6.1 2.3 9.1 3.3 15.3 5.4-1 2.9-1.4 4.2-2.4 7zm17.1 5.5c-6.3-1.9-9.4-2.9-15.6-5 1-2.8 1.4-4.1 2.4-6.9 6.1 2.1 9.2 3.1 15.4 5-.9 2.8-1.3 4.2-2.2 6.9zm17.2 5.1c-6.3-1.8-9.5-2.7-15.8-4.6.9-2.8 1.3-4.2 2.1-6.9 6.2 1.9 9.3 2.8 15.6 4.6-.7 2.7-1.1 4.1-1.9 6.9zM468 528c-6.4-1.6-9.6-2.4-15.9-4.1.8-2.8 1.1-4.2 1.9-6.9 6.2 1.7 9.4 2.6 15.7 4.1-.7 2.7-1 4.1-1.7 6.9zm-102.8-23.6c.9.4 1.3.6 2.2.9 0 .1 0 .1-.1.2-3.6 3.6-5.5 5.4-9.2 9-.3-.1-.4-.2-.7-.3 0-3.1.1-4.7.2-7.8-2.4 2.1-3.6 3.2-6 5.3-.3-.1-.4-.2-.7-.3.3-5.1.5-7.6.9-12.7 0-.1 0-.1.1-.2.9.4 1.3.6 2.2 1-.2 3.1-.4 4.7-.6 7.9 2.1-1.8 3.2-2.8 5.3-4.6.3.1.4.2.7.3 0 2.8-.1 4.1-.1 6.9 2.4-2.2 3.6-3.3 5.8-5.6zm9.7 4c2.5 1 3.5 3.2 2.5 5.4-.9 2.1-3.2 3.1-5.7 2.1-.6-.3-1-.4-1.6-.6-.6 1.5-1 2.2-1.6 3.6-.8-.3-1.3-.5-2.1-.9 1.9-4.4 2.9-6.6 4.8-11 1.5.5 2.2.8 3.7 1.4zm-2.6 5.5c1.3.6 2.5.2 3-1s-.1-2.2-1.4-2.7c-.6-.2-.8-.3-1.4-.6-.6 1.5-1 2.2-1.6 3.7.5.3.8.4 1.4.6zm16.8.1c.8.3 1.2.5 2.1.8-1.8 4.5-2.6 6.7-4.4 11.1-.8-.3-1.3-.5-2.1-.8.7-1.8 1.1-2.7 1.8-4.5l-4-1.5c-.7 1.8-1.1 2.7-1.8 4.5-.8-.3-1.3-.5-2.1-.8 1.8-4.4 2.7-6.7 4.6-11.1.8.3 1.2.5 2.1.8-.8 1.9-1.1 2.8-1.9 4.7l4 1.5c.6-1.9 1-2.8 1.7-4.7zm14.6 10.3c-1 2.7-1.5 4.1-2.5 6.8-.9-.3-1.3-.4-2.1-.7.5-1.2.7-1.8 1.1-3-2-.7-3.1-1.1-5.1-1.8-.5 1.2-.7 1.8-1.2 3-.9-.3-1.3-.5-2.1-.8 1-2.7 1.6-4.1 2.6-6.8 1.1-2.8 3.6-3.9 6.3-2.9 2.8 1 4 3.5 3 6.2zm-7.9-.7c2 .7 3 1.1 5.1 1.8.3-.7.4-1.1.7-1.8.6-1.5 0-3-1.5-3.5s-2.9.2-3.5 1.7c-.4.7-.5 1.1-.8 1.8zm11.7 3.4c1.1-3.2 4.3-5 7.8-3.9 1.5.5 2.8 1.5 3.5 2.4-.3.8-.4 1.3-.7 2.1h-.2c-.6-1-1.9-2-3-2.3-2.2-.7-4.5.4-5.2 2.5-.8 2.1.5 4.3 2.6 5 1.2.4 2.8.4 3.9-.1h.2c-.3.8-.4 1.3-.7 2.1-1.1.4-2.8.4-4.3-.1-3.3-1-5.1-4.2-3.9-7.7zm21.5 12.7c0 .1 0 .1-.1.2-1.1-.3-1.6-.5-2.6-.8l-2.5-6.5c-.7 2.1-1 3.1-1.7 5.2-.9-.3-1.3-.4-2.2-.7 1.5-4.5 2.2-6.7 3.7-11.2.8.3 1.3.4 2.1.7-.7 2.1-1 3.2-1.7 5.3 2.3.3 5-2 5.7-4.1.9.3 1.3.4 2.1.6-.7 2.1-2.9 4.5-5.3 5 .9 2.6 1.4 3.9 2.5 6.3zm4.5-4.5c1-3.2 4.1-5.2 7.6-4.2 1.5.4 2.9 1.4 3.6 2.3-.2.8-.4 1.3-.6 2.1h-.2c-.7-1-1.9-1.9-3.1-2.2-2.2-.6-4.4.6-5.1 2.7-.6 2.2.7 4.3 2.9 4.9 1.2.3 2.8.3 3.9-.2h.2c-.2.8-.4 1.3-.6 2.1-1.1.4-2.8.5-4.3.1-3.4-1-5.4-4.1-4.3-7.6zm22.1 2.1c-1.8-.5-2.7-.7-4.6-1.2-.3 1.1-.5 1.7-.8 2.8 1.5.4 2.2.6 3.6.9-.2.7-.3 1.1-.5 1.8-1.5-.4-2.2-.6-3.6-1-.3 1.1-.4 1.6-.7 2.6 1.9.5 2.8.7 4.6 1.2l-.5 2c-2.7-.7-4.1-1.1-6.8-1.8 1.2-4.5 1.9-6.8 3.1-11.3 2.7.7 4 1.1 6.7 1.8-.2 1-.3 1.4-.5 2.2zm11.8 9.6c-.4 1.7-2.1 2.6-4.2 2.1s-3.2-.8-5.4-1.3c1.1-4.5 1.7-6.8 2.8-11.3 1.9.5 2.8.7 4.6 1.1 2.4.6 3.4 2.2 3 4-.3 1.3-1.4 2-2.5 2 1.3.7 2 2 1.7 3.4zm-2.8-7.5c-.9-.2-1.3-.3-2.2-.5-.3 1.2-.4 1.8-.7 3 .8.2 1.2.3 2.1.5 1.2.3 2.1-.1 2.3-1 .2-1-.3-1.7-1.5-2zm-1.6 7.7c1.1.3 2 0 2.2-.9s-.4-1.7-1.5-1.9c-1-.2-1.5-.4-2.5-.6-.3 1.1-.4 1.7-.7 2.8 1 .2 1.5.3 2.5.6zm9-1.9c.8-3.4 3.8-5.3 7.1-4.6 3.3.7 5.3 3.7 4.6 7.1-.7 3.4-3.8 5.3-7.1 4.6-3.4-.7-5.4-3.8-4.6-7.1zm9.4 2c.5-2.2-.8-4.1-2.8-4.6-2.1-.5-3.9.9-4.4 3s.7 4.1 2.8 4.6c2 .5 3.9-.8 4.4-3zm8.3 5.5c1.8.4 2.7.5 4.6.9-.2.8-.2 1.2-.4 2.1-2.7-.5-4.1-.8-6.8-1.3.9-4.5 1.3-6.8 2.2-11.3.9.2 1.3.3 2.2.4-.7 3.6-1.1 5.5-1.8 9.2zm19.4-1.4c-.4 2.7-.6 4.1-1.1 6.9-.9-.1-1.3-.2-2.2-.4.2-1.2.3-1.9.5-3.1-2.1-.4-3.2-.5-5.3-.9-.2 1.2-.3 1.9-.5 3.1-.9-.2-1.3-.2-2.2-.4.5-2.7.7-4.1 1.2-6.9.5-2.8 2.7-4.3 5.6-3.8 2.8.5 4.5 2.7 4 5.5zm-7.8.5c2.1.4 3.2.6 5.3.9.1-.7.2-1.1.3-1.8.3-1.6-.6-2.8-2.2-3.1s-2.8.6-3.1 2.1c-.1.8-.2 1.2-.3 1.9z" fill="#fff"/>
	</g>
</svg>
