<svg version="1.1" id="wapuugotchi_svg__item" viewBox="0 0 1e3 1e3" xmlns="http://www.w3.org/2000/svg">
  <g class="RightFoot--group" >
    <path d="M353.1 582.95c.926-6.592.54-8.993-1.951-12.121-8.862-11.13-22.55-16.232-34.746-12.951-3.678.99-3.822 1.24-.955 1.665 11.668 1.732 19.93 7.318 32.858 22.215 4.534 5.225 4.238 5.151 4.794 1.192z" fill="#00f"/>
    <path d="M381.54 641.65c-.351-4.655-1.92-9.65-4.615-14.69-2.557-4.783-17.022-24.95-23.482-32.738a406.31 406.31 0 0 1-3.486-4.311c-16.805-21.045-30.757-29.491-43.059-26.067l-1.293.36 2.194.123c16.793.944 28.923 11.18 54.511 45.996 14.097 19.182 18.106 26.806 18.646 35.466.026.418.195.011.375-.903s.273-2.37.208-3.235z" fill="#00f"/>
    <path d="M373.99 655.3c4.169-3.776 4.005-11.108-.467-20.935-4.492-9.868-30.428-43.736-41.951-54.777-19.444-18.632-44.7-13.049-43.064 9.52 2.057 28.387 69.534 80.638 85.482 66.193z" fill="#00f"/>
    <path d="M355.35 651c-.136-.506.907-.922 8.504-3.392 3.123-1.015 6.661-2.195 7.863-2.622 2.034-.722 2.193-.737 2.334-.216.142.531-.29.704-8.571 3.432-10.407 3.429-9.991 3.314-10.13 2.798zm-7.334-3.163c-.083-.307.012-.602.21-.657.196-.056 5.065-1.711 10.818-3.68 12.405-4.246 12.01-4.13 12.155-3.591.155.575-.29.75-11.454 4.477-5.375 1.795-10.18 3.432-10.676 3.637-.748.308-.929.276-1.053-.186zm-6.199-3.531c-.167-.624-.847-.36 14.75-5.728 10.96-3.773 12.7-4.236 12.12-3.227-.062.107-5.504 2.054-12.092 4.326-6.588 2.273-12.577 4.36-13.308 4.64-1.146.44-1.349.438-1.47-.011zm-6.793-3.635c-.04-.543.715-.829 12.849-4.861 7.09-2.356 14.195-4.729 15.79-5.271 2.709-.923 2.908-.952 3.043-.45.136.505-.647.8-13.39 5.026-7.444 2.47-14.595 4.86-15.892 5.311-2.214.772-2.36.787-2.4.245zm-5.535-5.474c-.105-.388.07-.593.646-.752.435-.12 6.44-1.941 13.344-4.047 16.202-4.942 18.134-5.465 18.273-4.952.135.502-2.34 1.324-17.857 5.924-6.369 1.888-12.184 3.642-12.922 3.897-1.151.398-1.362.389-1.485-.07zm-5.41-5.189c-.147-.544.246-.683 11.63-4.109a4348.36 4348.36 0 0 0 16.843-5.1c4.506-1.384 5.075-1.505 5.184-1.098.17.629-.834.982-13.82 4.86-6.052 1.806-12.957 3.898-15.345 4.647-4.18 1.313-4.347 1.343-4.493.8zm-5.694-6.245c-.136-.505.005-.663.776-.87.518-.14 8.005-2.64 16.637-5.556a5025.067 5025.067 0 0 1 15.917-5.362c.122-.033.284.17.359.45.126.47-1.066.914-15.081 5.625-8.37 2.813-15.944 5.389-16.83 5.723-1.51.57-1.622.568-1.777-.01zm-8.659-7.72c-.327-.449-.864-.246 18.99-7.154 17.701-6.159 17.383-6.06 17.533-5.5.143.532.33.461-18.493 7.005-17.762 6.176-17.668 6.146-18.03 5.65zm-7.433-8.493c-.136-.506.599-.761 19.902-6.927 8.287-2.647 15.924-5.116 16.97-5.488 1.766-.628 1.913-.634 2.057-.098.11.407-.035.63-.492.753-.356.096-8.439 2.687-17.962 5.758-20.137 6.493-20.329 6.55-20.476 6.002zm-4.89-5.558c-.147-.542.469-.756 18.422-6.402 21.484-6.757 19.557-6.201 19.698-5.679.154.573-.641.851-17.496 6.117-8.067 2.521-15.973 5.02-17.57 5.554-2.748.92-2.911.941-3.054.41zm-2.41-4.37c-.147-.544.008-.65 1.631-1.107.987-.278 9.214-2.875 18.283-5.772 13.662-4.363 16.524-5.205 16.691-4.906.326.582.672.457-15.594 5.629-8.592 2.731-16.798 5.37-18.236 5.863-2.52.864-2.62.874-2.777.294zm-.822-6.496c-.177-.66 27.81-9.217 28.62-8.75.92.53.042.86-10.186 3.826-4.646 1.348-10.66 3.134-13.366 3.969-4.75 1.466-4.923 1.498-5.069.955zm.53-6.064c-.164-.608-.082-.643 4.368-1.84 2.493-.671 6.94-1.96 9.881-2.862 5.346-1.64 5.348-1.64 5.515-1.019.166.618.132.63-6.265 2.352-3.538.951-7.985 2.238-9.882 2.86-3.4 1.113-3.453 1.12-3.617.51z" fill="#000"/>
    <path d="M366.57 661.7c-24.338.025-73.938-40.798-80.887-66.573-3.81-14.131 2.317-26.843 16.136-33.484 1.282-.616 3.175-1.825 4.207-2.687 13.857-11.567 39.427-5.337 50.198 12.23 1.654 2.697 1.557 10.514-.21 16.814l-.638 2.28 3.723 4.802c27.761 35.817 31.785 47.205 21.043 59.55-4.598 5.285-8.01 7.062-13.573 7.068zm7.423-6.402c4.17-3.777 4.006-11.108-.467-20.935-4.491-9.869-30.428-43.736-41.95-54.777-19.445-18.632-44.7-13.05-43.065 9.52 2.057 28.387 69.534 80.638 85.482 66.193zm7.555-13.644c-.352-4.655-1.921-9.65-4.616-14.69-2.557-4.783-17.022-24.95-23.482-32.738a406.31 406.31 0 0 1-3.485-4.311c-16.805-21.045-30.757-29.491-43.06-26.067l-1.292.36 2.194.123c16.793.943 28.923 11.179 54.51 45.996 14.098 19.182 18.107 26.806 18.647 35.466.026.417.194.011.374-.903s.274-2.37.209-3.235zm-28.445-58.702c.926-6.592.54-8.994-1.951-12.121-8.862-11.13-22.55-16.232-34.746-12.951-3.678.989-3.822 1.24-.955 1.665 11.668 1.732 19.93 7.318 32.858 22.215 4.534 5.224 4.237 5.151 4.793 1.192z" fill="#080808"/>
  </g>
  <g class="LeftFoot--group">
    <path d="M506.02 614.85c10.188-4.817 16.673-13.063 15.031-19.113-5.525-20.364-19.788-36.43-36.258-40.843-3.775-1.011-3.887-.977-2.013.615 10.776 9.156 15.477 24.655 16.77 55.288.096 2.25.243 4.666.329 5.369l.155 1.278 1.27-.482c.699-.265 2.821-1.216 4.716-2.112z" fill="#00f"/>
    <path d="M488.08 677.4c2.58-1.725 5.488-7.659 6.933-14.154 2.921-13.136.97-66.897-3.033-83.548-2.929-12.183-10.309-22.207-18.016-24.471-2.37-.696-2.697-.6-1.33.39 10.531 7.629 15.47 21.6 17.364 49.12 2.738 39.773 2.213 64.404-4.258 73.043-1.168 1.56-.32 1.397 2.34-.38z" fill="#00f"/>
    <path d="M477.74 680.07c6.284-2.926 9.53-14.603 9.526-34.279-.005-32.608-2.176-59.345-5.627-69.28-8.101-23.326-26.195-28.124-35.106-9.308-13.815 29.169 11.822 121.89 31.207 112.87z" fill="#00f"/>
    <path d="M471.97 672.09c-8.803-3.747-7.845-3.26-7.527-3.824.212-.377 1.461.06 7.376 2.578 3.916 1.667 7.424 3.151 7.796 3.299.603.239.706 1.221.125 1.184-.107-.007-3.603-1.464-7.77-3.237zm-1.668-7.124c-10.9-4.517-9.823-4-9.495-4.57.3-.52 19.488 7.237 19.493 7.88.006.773-.752.522-9.998-3.31zm-1.057-6.846c-9.84-4.029-12.738-5.499-10.857-5.506 1.064-.005 22.209 9.01 22.213 9.47.006.73.724.981-11.356-3.964zm-1.214-6.87c-11.662-4.975-14.788-6.558-12.423-6.294 1.227.137 26.058 10.905 26.058 11.3 0 .769-.706.51-13.635-5.005zm-1.056-8.064c-13.322-6.256-13.656-6.432-13.165-6.923.188-.188 4.244 1.553 11.347 4.871 6.08 2.84 12.043 5.622 13.25 6.18 1.661.77 2.151 1.133 2.013 1.493-.246.639.927 1.13-13.444-5.62zm-.762-8.164c-7.5-3.486-13.76-6.38-13.911-6.433-.166-.057-.165-.294.003-.59.24-.43 2.056.33 13.456 5.625l13.823 6.42c.432.2.582.466.454.807-.16.429-2.305-.475-13.825-5.83zm-.91-10.11c-12.571-5.256-15.48-6.687-13.586-6.687.783 0 27.97 11.54 27.975 11.875.009.78-.904.451-14.388-5.187zm-1.439-12.65c-13.9-5.613-17.532-7.36-14.998-7.213.751.043 30.678 12.479 30.678 12.748 0 .753-.84.456-15.68-5.535zm-.076-11.766c-17.393-7.643-16.806-7.36-16.335-7.856.588-.617 32.741 13.624 32.346 14.326-.21.373-3.045-.773-16.01-6.47zm-1.443-8.594c-11.568-5.168-15.659-7.127-15.586-7.462.115-.534 30.291 12.328 31.677 13.502 2.2 1.862-1.583.443-16.09-6.04zm-.374-5.951c-13.366-5.96-16.49-7.57-14.681-7.57.296 0 28.021 12.186 29.744 13.074.471.242.453 1.204-.021 1.141-.107-.014-6.876-3.004-15.042-6.645zm-1.287-7.918c-10.304-4.884-12.83-6.307-11.211-6.322.73-.007 23.576 11.01 23.473 11.32-.22.658-.998.341-12.262-4.998zm-.607-6.932c-6.597-3.223-11.399-6.345-7.347-4.778 2.111.816 15.747 7.763 15.75 8.024.011.787-.732.5-8.402-3.246z" fill="#000"/>
    <path d="M471.22 684.12c-14.533-5.316-29.791-46.562-32.448-87.715-1.93-29.872 9.001-47.024 29.436-46.191.574.023 2.202-.12 3.618-.318 22.041-3.086 45.855 17.24 53.194 45.407 1.224 4.697.778 6.36-3.083 11.49-4.92 6.536-9.593 9.95-18.6 13.585l-3.18 1.284.099 16.308c.22 36.136-5.174 46.426-24.491 46.717-2.212.033-3.265-.098-4.545-.566zm6.526-4.047c6.284-2.927 9.53-14.603 9.526-34.28-.005-32.607-2.176-59.344-5.627-69.28-8.102-23.325-26.195-28.123-35.106-9.308-13.815 29.17 11.822 121.89 31.207 112.87zm10.337-2.674c2.58-1.725 5.487-7.659 6.932-14.154 2.922-13.136.971-66.897-3.032-83.548-2.93-12.183-10.31-22.207-18.016-24.471-2.37-.696-2.697-.6-1.33.39 10.531 7.629 15.47 21.6 17.364 49.12 2.738 39.773 2.213 64.404-4.258 73.043-1.168 1.56-.32 1.397 2.34-.38zm17.943-62.549c10.188-4.817 16.673-13.063 15.03-19.113-5.524-20.364-19.787-36.43-36.257-40.843-3.775-1.011-3.888-.977-2.014.615 10.776 9.156 15.477 24.655 16.771 55.288.095 2.25.243 4.666.328 5.369l.155 1.278 1.27-.482c.7-.265 2.822-1.216 4.717-2.112z"/>
  </g>
</svg>
