<svg xmlns="http://www.w3.org/2000/svg" id="Layer_1" x="0" y="0" version="1.1" viewBox="0 0 1000 1000">
  <g id="RightArm_1_">
    <path id="RightArm--bg" d="M436.6 504c-4.5 5.1-10.5 7.9-17 7.9-9.1 0-18.5-5.5-24.4-14.4-7.8-11.6-15.5-21.2-22.3-27.9l-4.8-4.7c-2-2-1.1-5.3 1.6-6.1l6.5-1.7c3.2-.9 6.4-2.7 9.1-5.5 3-3 4.8-6.7 5.2-10.4V430c0-1.3 1.5-2.1 2.5-1.3l9.3 6.9c.7.5 1.7 1.1 2.9 1.7 10.2 4.9 31.7 27.4 35.7 46.7 2.1 10.1-1.2 16.5-4.3 20z"/>
    <path id="RightArm" d="M402.1 444.1c-1.5-.7-2.9-1.5-4.2-2.4-.5 5.5-3 11-7.3 15.3-3.7 3.7-8.1 6.2-12.5 7.4 8.7 8.6 17 19.8 23.2 29.1 4.5 6.7 11.6 11.1 18.3 11.1 4.1 0 8.1-1.6 11.4-5.4 13-14.8-17.3-49.6-28.9-55.1z" class="st0" fill="#fc0"/>
  </g>
  <g id="Tail--group">
    <path id="Tail--bg" d="M599.1 649.5c-9 25.7-26.4 50-50.3 70.3-23.8 20.3-51.8 34.7-81 41.6-6.9 1.6-14.1 2.5-21.5 2.5-30.8 0-58.9-13.9-74.8-27-13.6-11.1-21.2-23.3-20.9-33.5.4-12 6.7-20.7 16.8-23.3 2.1-.5 4.3-.8 6.7-.8 11.2 0 27.2 6.7 38.5 25.7 7.8 13.2 22 20.1 41.1 20.1h1.2c40.7-.8 87.6-31.2 109.1-70.8 7.7-14.1 13.2-29.6 17.1-40.8 1.9-5.4 3.6-10.1 5.1-13.5 1.3-3.1 4.1-9.4 10.4-9.4 4.1 0 7.6 1.8 9.9 5 5.5 7.6 3.3 23.3-7.4 53.9z"/>
    <path id="Tail_2_" d="M570.5 657.8c-22.7 41.7-72.5 73.9-115.5 74.7h-1.4c-21.6 0-38.3-8.4-47.4-23.8-9-15.1-22-22.1-32.1-22.1-1.7 0-3.3.2-4.8.6-7 1.8-11 7.6-11.3 16.4-.3 7.7 6.6 18 18.2 27.5 16.8 13.7 43.2 25.3 70.1 25.3 6.6 0 13.3-.7 19.8-2.3 57.2-13.5 108.5-57.4 126-107.1 5.4-15.3 16.7-49.2 4.5-49.2-4.5.1-10.8 31.8-26.1 60z" class="st1" fill="#f80"/>
  </g>
  <g id="Body--group">
    <path id="Body--bg" d="M649.7 531.9c-2 24-6.7 45.1-13.9 62.9-8.5 20.9-20.3 36.6-35.1 46.8-34 23.4-64.8 26-76.4 26-1.3 0-2.5 0-3.8-.1-18.4-.8-26-4.4-32.7-7.5-5.9-2.8-11-5.2-24.9-5.7-37.5-1.5-67-9.9-83.1-23.6-.2-.1-.5-.4-.9-.7-4.8-3.5-19.3-14.3-25-24.7-5.3-9.7-6.2-22.3-2.3-31.4 13.4-31.2 24.5-40.5 33.5-48 3.6-3 6.4-5.3 8.8-8.7 2.2-3.1 3.8-7.1 4.9-12.2 0-.1 0-.2.1-.3 3.9-15 3.4-34.9 2.8-56-.2-5.7-.3-11.7-.4-17.5v-.1c0-18.6 9.6-40.7 25.7-59.2 18.1-20.8 41.6-33.6 66.1-36.2 20.2-2.1 34.3-3.1 45.9-3.1 43.7 0 58.6 14.8 82.2 48.4 7.5 10.6 12.1 22.5 16 33.7 11.1 30.4 15.9 76.5 12.5 117.2z"/>
    <path id="Body_1_" d="M358.5 576.7c-3 7-2.2 17.4 2 25 5.6 10.3 23 22.2 24.1 23.2 15.1 12.9 43.7 20.5 78.7 21.9 31.2 1.3 24.3 11.8 57.6 13.3 1.1 0 2.2.1 3.5.1 16.7 0 43.7-5 72.2-24.7 58-39.9 52.9-165.3 34-218.6-3.9-11.1-8.3-22.2-15.1-31.9-23.5-33.5-36.6-45.2-76.2-45.2-12.2 0-26.9 1.1-45.1 3.1-49.9 5.3-85.3 55.3-85.3 88.1.3 27.4 2.5 55.1-2.7 75.5-1.4 6.5-3.4 11.2-6 14.9-9.8 13.5-23.4 12.4-41.7 55.3z" class="st0" fill="#fc0"/>
  </g>
  <g id="RightHand--group">
    <path id="RightHand--bg" d="M390.6 457c-5.2 5.1-11.7 8.1-17.8 8.1-8.1 0-14-5.1-15.6-13.3-1-5.4.9-11.3 5.4-16.7 5.8-6.9 14.9-12 21.7-12.1h.2c1.3 0 2.6.2 3.8.6h.2l.1.1c4.5 1.8 7.9 6.2 9.1 11.8 1.4 7.5-1.2 15.5-7.1 21.5z"/>
    <path id="RightHand" d="M385.4 451.7c4.2-4.2 6-9.6 5-14.7-.6-3.1-2.3-5.5-4.6-6.4-.4-.1-.9-.2-1.3-.2h-.1c-4 0-11.3 3.6-16.1 9.4-1.8 2.1-4.6 6.3-3.8 10.6 1.1 6 5.1 7.3 8.3 7.3 4.1 0 8.8-2.2 12.6-6z" class="st0" fill="#fc0"/>
  </g>
  <g id="RightFootGroup">
    <path id="RightFoot--bg" d="M384.3 648c-2.4 3.7-6.4 5.7-11.5 5.7-1.9 0-4-.3-6.2-.8-25-6-59.3-43.6-63.6-64.5-1.9-9.4-.2-18 5-24.4 4.6-5.7 11.4-8.8 18.9-8.8 6.8 0 13.6 2.5 19.8 7.3 12.2 9.4 32.9 50.5 37.3 60.7 2.5 5.8 4.9 17.7.3 24.8z"/>
    <path id="RightFoot_1_" d="M310.1 586.8c3.8 18.2 36.2 53.6 58.1 58.8 1.7.4 3.2.6 4.5.6 3.4 0 4.7-1.3 5.4-2.3 2.3-3.5 1.5-12.1-1-17.9-6.1-13.9-25.3-50.3-35.1-57.8-4.9-3.8-10.2-5.8-15.3-5.8-5.3 0-10 2.2-13.2 6.1-3.6 4.7-4.8 11.2-3.4 18.3z" class="st0" fill="#fc0"/>
    <g>
      <path d="M353.1 582.95c.926-6.592.54-8.993-1.951-12.121-8.862-11.13-22.55-16.232-34.746-12.951-3.678.99-3.822 1.24-.955 1.665 11.668 1.732 19.93 7.318 32.858 22.215 4.534 5.225 4.238 5.151 4.794 1.192z" fill="#00f"/>
      <path d="M381.54 641.65c-.351-4.655-1.92-9.65-4.615-14.69-2.557-4.783-17.022-24.95-23.482-32.738a406.31 406.31 0 0 1-3.486-4.311c-16.805-21.045-30.757-29.491-43.059-26.067l-1.293.36 2.194.123c16.793.944 28.923 11.18 54.511 45.996 14.097 19.182 18.106 26.806 18.646 35.466.026.418.195.011.375-.903s.273-2.37.208-3.235z" fill="#00f"/>
      <path d="M373.99 655.3c4.169-3.776 4.005-11.108-.467-20.935-4.492-9.868-30.428-43.736-41.951-54.777-19.444-18.632-44.7-13.049-43.064 9.52 2.057 28.387 69.534 80.638 85.482 66.193z" fill="#00f"/>
      <path d="M355.35 651c-.136-.506.907-.922 8.504-3.392 3.123-1.015 6.661-2.195 7.863-2.622 2.034-.722 2.193-.737 2.334-.216.142.531-.29.704-8.571 3.432-10.407 3.429-9.991 3.314-10.13 2.798zm-7.334-3.163c-.083-.307.012-.602.21-.657.196-.056 5.065-1.711 10.818-3.68 12.405-4.246 12.01-4.13 12.155-3.591.155.575-.29.75-11.454 4.477-5.375 1.795-10.18 3.432-10.676 3.637-.748.308-.929.276-1.053-.186zm-6.199-3.531c-.167-.624-.847-.36 14.75-5.728 10.96-3.773 12.7-4.236 12.12-3.227-.062.107-5.504 2.054-12.092 4.326-6.588 2.273-12.577 4.36-13.308 4.64-1.146.44-1.349.438-1.47-.011zm-6.793-3.635c-.04-.543.715-.829 12.849-4.861 7.09-2.356 14.195-4.729 15.79-5.271 2.709-.923 2.908-.952 3.043-.45.136.505-.647.8-13.39 5.026-7.444 2.47-14.595 4.86-15.892 5.311-2.214.772-2.36.787-2.4.245zm-5.535-5.474c-.105-.388.07-.593.646-.752.435-.12 6.44-1.941 13.344-4.047 16.202-4.942 18.134-5.465 18.273-4.952.135.502-2.34 1.324-17.857 5.924-6.369 1.888-12.184 3.642-12.922 3.897-1.151.398-1.362.389-1.485-.07zm-5.41-5.189c-.147-.544.246-.683 11.63-4.109a4348.36 4348.36 0 0 0 16.843-5.1c4.506-1.384 5.075-1.505 5.184-1.098.17.629-.834.982-13.82 4.86-6.052 1.806-12.957 3.898-15.345 4.647-4.18 1.313-4.347 1.343-4.493.8zm-5.694-6.245c-.136-.505.005-.663.776-.87.518-.14 8.005-2.64 16.637-5.556a5025.067 5025.067 0 0 1 15.917-5.362c.122-.033.284.17.359.45.126.47-1.066.914-15.081 5.625-8.37 2.813-15.944 5.389-16.83 5.723-1.51.57-1.622.568-1.777-.01zm-8.659-7.72c-.327-.449-.864-.246 18.99-7.154 17.701-6.159 17.383-6.06 17.533-5.5.143.532.33.461-18.493 7.005-17.762 6.176-17.668 6.146-18.03 5.65zm-7.433-8.493c-.136-.506.599-.761 19.902-6.927 8.287-2.647 15.924-5.116 16.97-5.488 1.766-.628 1.913-.634 2.057-.098.11.407-.035.63-.492.753-.356.096-8.439 2.687-17.962 5.758-20.137 6.493-20.329 6.55-20.476 6.002zm-4.89-5.558c-.147-.542.469-.756 18.422-6.402 21.484-6.757 19.557-6.201 19.698-5.679.154.573-.641.851-17.496 6.117-8.067 2.521-15.973 5.02-17.57 5.554-2.748.92-2.911.941-3.054.41zm-2.41-4.37c-.147-.544.008-.65 1.631-1.107.987-.278 9.214-2.875 18.283-5.772 13.662-4.363 16.524-5.205 16.691-4.906.326.582.672.457-15.594 5.629-8.592 2.731-16.798 5.37-18.236 5.863-2.52.864-2.62.874-2.777.294zm-.822-6.496c-.177-.66 27.81-9.217 28.62-8.75.92.53.042.86-10.186 3.826-4.646 1.348-10.66 3.134-13.366 3.969-4.75 1.466-4.923 1.498-5.069.955zm.53-6.064c-.164-.608-.082-.643 4.368-1.84 2.493-.671 6.94-1.96 9.881-2.862 5.346-1.64 5.348-1.64 5.515-1.019.166.618.132.63-6.265 2.352-3.538.951-7.985 2.238-9.882 2.86-3.4 1.113-3.453 1.12-3.617.51z" fill="#000"/>
      <path d="M366.57 661.7c-24.338.025-73.938-40.798-80.887-66.573-3.81-14.131 2.317-26.843 16.136-33.484 1.282-.616 3.175-1.825 4.207-2.687 13.857-11.567 39.427-5.337 50.198 12.23 1.654 2.697 1.557 10.514-.21 16.814l-.638 2.28 3.723 4.802c27.761 35.817 31.785 47.205 21.043 59.55-4.598 5.285-8.01 7.062-13.573 7.068zm7.423-6.402c4.17-3.777 4.006-11.108-.467-20.935-4.491-9.869-30.428-43.736-41.95-54.777-19.445-18.632-44.7-13.05-43.065 9.52 2.057 28.387 69.534 80.638 85.482 66.193zm7.555-13.644c-.352-4.655-1.921-9.65-4.616-14.69-2.557-4.783-17.022-24.95-23.482-32.738a406.31 406.31 0 0 1-3.485-4.311c-16.805-21.045-30.757-29.491-43.06-26.067l-1.292.36 2.194.123c16.793.943 28.923 11.179 54.51 45.996 14.098 19.182 18.107 26.806 18.647 35.466.026.417.194.011.374-.903s.274-2.37.209-3.235zm-28.445-58.702c.926-6.592.54-8.994-1.951-12.121-8.862-11.13-22.55-16.232-34.746-12.951-3.678.989-3.822 1.24-.955 1.665 11.668 1.732 19.93 7.318 32.858 22.215 4.534 5.224 4.237 5.151 4.793 1.192z" fill="#080808"/>
    </g>
  </g>
  <g id="RightEar--group">
    <path id="RightEar--bg" d="M413.3 399.4c-.4 4.4-3.8 8.4-11.1 12.9-4.7 3-10.2 5.5-13.9 6.5-6.5 1.7-12.3 2.6-17.3 2.6-6.7 0-10.6-1.6-12.7-2.9-4.8-3-4.4-7.2-4.2-8.5.5-3.1 2.9-5.5 5.9-6.2 3.5-.8 13.5-5.8 23.6-12.6 4.2-2.9 10.7-4.8 16.1-4.8 5.8 0 9.1 2.2 10.8 4.1 2.1 2.4 3.1 5.5 2.8 8.9z"/>
    <path id="RightEar" d="M361.4 411.3c0 .3.4.7.9.9 1.1.7 3.6 1.8 8.8 1.8 4.3 0 9.5-.8 15.4-2.3 5.2-1.4 19.1-8.8 19.5-13 .1-1.3-.2-2.4-.9-3.2-1-1.1-2.8-1.7-5.3-1.7-3.9 0-8.9 1.5-11.9 3.5-8.5 5.7-20.5 12.5-26.1 13.7-.3.1-.4.2-.4.3z" class="st1" fill="#f80"/>
  </g>
  <g id="Head--group">
    <path id="Head--bg" d="M516.4 328.1c1.6 0 3.2 0 4.8.1 20.6.6 39.5 6.5 55.9 17 11.2 7.2 17.5 11.4 25.9 25.2 1.5 2.5 9 .8 7.9-1.1-10.1-17.6-17.5-22.3-29.8-30.3-17.7-11.4-37.8-17.6-59.7-18.2-1.6 0-3.3-.1-5-.1-1.6 0-3.3 0-4.9.1-24.3.6-47.8 6.6-67.8 17.1-20.2 10.6-37.1 26.1-48.9 44.7-7.7 12.3-10.3 23.9-7.4 33.5 2.4 7.8 7.9 12.7 12.3 14.6 1.4.6 2.9.9 4.7.9 9.3 0 34.7-9.3 45.7-24.8 8.4 4.5 17.6 6.7 28.1 6.7 12.6 0 25-3.2 36.4-6.9 3-1 3.8-2.2 3.9-4.1 0-1.3-1.2-3.6-3.8-3.5-.3 0-.7.1-1 .2-11.2 3.6-23.3 6.9-35.4 6.9-9.3 0-18.6-2-27.4-7.4-.6-.4-1.3-.5-1.9-.5-1.3 0-2.5.6-3.2 1.8l-.1.1c-7.9 14.3-33.3 24.1-41.2 24.1-.7 0-1.3-.1-1.7-.3-2.8-1.2-6.6-4.6-8.2-10-2.3-7.5 0-17 6.6-27.4 22.5-35.7 63.4-57.1 110.6-58.3 1.4-.1 3-.1 4.6-.1"/>
    <path id="Head" d="M516.6 399.4c-1-.4-2-.7-3-.3-19.7 6.3-42.5 12-62.8-.5-1.7-1.1-4-.5-5.1 1.2l-.1.1c-8.6 15.7-38.3 26-43 23.9-2.8-1.2-6.6-4.6-8.2-10-2.3-7.5 0-17 6.6-27.4 22.5-35.7 63.4-57.1 110.6-58.3 3.1-.1 6.3-.1 9.5 0 20.6.6 39.5 6.5 55.9 17 13.2 8.5 19.7 12.7 30.6 33.6 5.6 10.5-84.4 23.5-91 20.7z" class="st0" fill="#fc0"/>
  </g>
  <g id="LeftEar--group">
    <path id="LeftEar--bg" d="M701.4 357.1c-.5 1.7-1.2 3.4-2 5.2-5 10-17.7 23-38 29.1-4.5 1.4-9.3 2-14 2h-.1c-13 0-34.2-4.9-61.6-28.3-1.9-1.7-5.1-4.8-7.1-7-2.3-2.5-2.8-6.1-1.5-9.1s4.4-5.1 7.8-5.1h.5c13.9.8 30.1 1.2 48.4 1.2 8.1 0 14.8-.1 19.3-.1h4.5c7.4 0 13.3-.1 18.2-.1 8.1 0 13.7.1 17.1.2 2.9.1 5.6 1.5 7.3 3.9 1.5 2.3 2 5.2 1.2 8.1z"/>
    <path id="LeftEar" d="M590.4 359.4c25.7 21.9 45.1 26.5 56.8 26.5h.1c4 0 8-.6 11.9-1.7 18.1-5.4 29.2-16.6 33.5-25.3.8-1.5 1.2-2.8 1.5-3.9.4-1.3-.6-2.6-1.9-2.7-3.3-.1-8.9-.2-16.7-.2-5.4 0-11.6 0-18.2.1-3.3 0-12.2.2-23.9.2-13.9 0-31.7-.2-48.8-1.2h-.1c-.9 0-1.5 1.1-.8 1.8 2 2.2 5 5.1 6.6 6.4z" class="st1" fill="#f80"/>
  </g>
  <g id="Face--group">
    <path id="RightEye" d="M417.6 376.2c-4.1 0-7.4 3.3-7.4 7.4 0 9.9 14.8 9.9 14.8 0 0-4.1-3.3-7.4-7.4-7.4z"/>
    <path id="LeftEye" d="M503.2 355.7c-4.1 0-7.4 3.3-7.4 7.4 0 9.9 14.8 9.9 14.8 0 0-4.1-3.3-7.4-7.4-7.4z"/>
    <path id="Nose" d="M457.9 375.4c-7.4.8-12.3 2.5-15.6 4.9-5.9 4.4-4.1 9.9 2.5 10.7 6.6.8 7.1 1.2 13.2-3.3 6.5-4.9 7.3-13.1-.1-12.3z"/>
  </g>
  <g id="LeftLEg--group">
    <path id="LetLeg" d="M512.4 655.2c-4.6-5.2-3.7-15.7-1.9-29.4 2.6-19.8 5-34.5 25.4-50.8 24.4-19.5 62.2-15 76.2-.5 3.6 3.7 6.7 10.9 7.3 18.8.9 11.4-22.2 42.4-44.8 51.8-22.6 9.6-54 19.3-62.2 10.1z" class="st0" fill="#fc0"/>
    <path id="LeftLeg--bg_1_" d="M512.4 658.9c-1.2 0-2.3-.5-3-1.6-4.7-6.7-4.5-17.2-2.6-32 2.5-19 4.6-35.5 26.8-53.2 26.8-21.4 63.7-14 78.4.7 1.4 1.4 1.4 3.8 0 5.2-1.4 1.4-3.8 1.4-5.2 0-12.5-12.5-45.4-18.7-68.6-.1-18.9 15.1-21.4 28.2-24.1 48.4-1.4 11-2.3 21.8 1.3 26.7 1.2 1.7.8 4-.9 5.2-.6.5-1.4.7-2.1.7z"/>
  </g>
  <g id="LeftFoot--group">
    <path id="LeftFoot--bg" d="M523.7 651.2c-.4 1.9-2 9.1-6.7 16.2-7 10.6-17.8 16.5-30.4 16.5-7.2 0-12.9-2.1-16.8-6.2-7.5-7.8-7.1-21-6.7-33.7v-.1c.2-6.4.4-13.1-.4-18.5-.7-4.4-1.8-9.1-3.1-14.5-2.4-10.2-4.6-20.1-4.3-28.7.4-10.7 4.7-18.9 12.8-24.4 3.5-2.4 7.4-3.5 11.4-3.5 9.3 0 18.9 6.2 28.7 18.6 7.1 8.9 13.1 20 15.4 28.1 6.4 21.8 4.9 34.9.1 50.2z"/>
    <path id="LeftFoot_1_" d="M477 670.8c2 2.1 5.2 3.1 9.6 3.1 22.6 0 27-23.7 27.2-24.7 0-.2.1-.4.1-.6 4.4-13.9 5.7-25.2 0-44.8-3.7-13.2-21.1-39.4-34.4-39.4-2 0-4 .6-5.8 1.9-11.7 7.8-9.3 21.8-4.4 42.4 1.2 5.1 2.5 10.4 3.2 15.3 1 6.4.8 13.5.5 20.4-.2 10.6-.6 21.6 4 26.4z" class="st0" fill="#fc0"/>
    <g>
      <path d="M506.02 614.85c10.188-4.817 16.673-13.063 15.031-19.113-5.525-20.364-19.788-36.43-36.258-40.843-3.775-1.011-3.887-.977-2.013.615 10.776 9.156 15.477 24.655 16.77 55.288.096 2.25.243 4.666.329 5.369l.155 1.278 1.27-.482c.699-.265 2.821-1.216 4.716-2.112z" fill="#00f"/>
      <path d="M488.08 677.4c2.58-1.725 5.488-7.659 6.933-14.154 2.921-13.136.97-66.897-3.033-83.548-2.929-12.183-10.309-22.207-18.016-24.471-2.37-.696-2.697-.6-1.33.39 10.531 7.629 15.47 21.6 17.364 49.12 2.738 39.773 2.213 64.404-4.258 73.043-1.168 1.56-.32 1.397 2.34-.38z" fill="#00f"/>
      <path d="M477.74 680.07c6.284-2.926 9.53-14.603 9.526-34.279-.005-32.608-2.176-59.345-5.627-69.28-8.101-23.326-26.195-28.124-35.106-9.308-13.815 29.169 11.822 121.89 31.207 112.87z" fill="#00f"/>
      <path d="M471.97 672.09c-8.803-3.747-7.845-3.26-7.527-3.824.212-.377 1.461.06 7.376 2.578 3.916 1.667 7.424 3.151 7.796 3.299.603.239.706 1.221.125 1.184-.107-.007-3.603-1.464-7.77-3.237zm-1.668-7.124c-10.9-4.517-9.823-4-9.495-4.57.3-.52 19.488 7.237 19.493 7.88.006.773-.752.522-9.998-3.31zm-1.057-6.846c-9.84-4.029-12.738-5.499-10.857-5.506 1.064-.005 22.209 9.01 22.213 9.47.006.73.724.981-11.356-3.964zm-1.214-6.87c-11.662-4.975-14.788-6.558-12.423-6.294 1.227.137 26.058 10.905 26.058 11.3 0 .769-.706.51-13.635-5.005zm-1.056-8.064c-13.322-6.256-13.656-6.432-13.165-6.923.188-.188 4.244 1.553 11.347 4.871 6.08 2.84 12.043 5.622 13.25 6.18 1.661.77 2.151 1.133 2.013 1.493-.246.639.927 1.13-13.444-5.62zm-.762-8.164c-7.5-3.486-13.76-6.38-13.911-6.433-.166-.057-.165-.294.003-.59.24-.43 2.056.33 13.456 5.625l13.823 6.42c.432.2.582.466.454.807-.16.429-2.305-.475-13.825-5.83zm-.91-10.11c-12.571-5.256-15.48-6.687-13.586-6.687.783 0 27.97 11.54 27.975 11.875.009.78-.904.451-14.388-5.187zm-1.439-12.65c-13.9-5.613-17.532-7.36-14.998-7.213.751.043 30.678 12.479 30.678 12.748 0 .753-.84.456-15.68-5.535zm-.076-11.766c-17.393-7.643-16.806-7.36-16.335-7.856.588-.617 32.741 13.624 32.346 14.326-.21.373-3.045-.773-16.01-6.47zm-1.443-8.594c-11.568-5.168-15.659-7.127-15.586-7.462.115-.534 30.291 12.328 31.677 13.502 2.2 1.862-1.583.443-16.09-6.04zm-.374-5.951c-13.366-5.96-16.49-7.57-14.681-7.57.296 0 28.021 12.186 29.744 13.074.471.242.453 1.204-.021 1.141-.107-.014-6.876-3.004-15.042-6.645zm-1.287-7.918c-10.304-4.884-12.83-6.307-11.211-6.322.73-.007 23.576 11.01 23.473 11.32-.22.658-.998.341-12.262-4.998zm-.607-6.932c-6.597-3.223-11.399-6.345-7.347-4.778 2.111.816 15.747 7.763 15.75 8.024.011.787-.732.5-8.402-3.246z" fill="#000"/>
      <path d="M471.22 684.12c-14.533-5.316-29.791-46.562-32.448-87.715-1.93-29.872 9.001-47.024 29.436-46.191.574.023 2.202-.12 3.618-.318 22.041-3.086 45.855 17.24 53.194 45.407 1.224 4.697.778 6.36-3.083 11.49-4.92 6.536-9.593 9.95-18.6 13.585l-3.18 1.284.099 16.308c.22 36.136-5.174 46.426-24.491 46.717-2.212.033-3.265-.098-4.545-.566zm6.526-4.047c6.284-2.927 9.53-14.603 9.526-34.28-.005-32.607-2.176-59.344-5.627-69.28-8.102-23.325-26.195-28.123-35.106-9.308-13.815 29.17 11.822 121.89 31.207 112.87zm10.337-2.674c2.58-1.725 5.487-7.659 6.932-14.154 2.922-13.136.971-66.897-3.032-83.548-2.93-12.183-10.31-22.207-18.016-24.471-2.37-.696-2.697-.6-1.33.39 10.531 7.629 15.47 21.6 17.364 49.12 2.738 39.773 2.213 64.404-4.258 73.043-1.168 1.56-.32 1.397 2.34-.38zm17.943-62.549c10.188-4.817 16.673-13.063 15.03-19.113-5.524-20.364-19.787-36.43-36.257-40.843-3.775-1.011-3.888-.977-2.014.615 10.776 9.156 15.477 24.655 16.771 55.288.095 2.25.243 4.666.328 5.369l.155 1.278 1.27-.482c.7-.265 2.822-1.216 4.717-2.112z"/>
    </g>
  </g>
  <g id="LeftArm--group">
    <path id="LeftArm--bg" d="M478 413.3c-6.4 2.9-12.4 6.6-17.6 11.1-12.1 10.6-12.6 19.4-10.8 24.8 2.5 7.7 11.1 13.4 21.9 14.6 7.1.7 16.2-1.3 26.7-3.6 13.9-3.1 29.7-6.6 42.9-3.9 19.6 4.1 33.3 15 53.1 32.7l10.3 9.2c1.5 1.3 3.9 1.2 5.2-.4 1.3-1.5 1.2-3.9-.4-5.2l-2.9-2.6c-24-21.7-39.9-36-63.8-41-14.8-3.1-31.3.6-46 3.9-9.5 2.1-18.5 4.1-24.3 3.5-7.8-.8-14.1-4.6-15.7-9.5-1.5-4.7 1.6-10.7 8.7-17 20.7-18.2 59.1-23.7 87.5-12.5 4.7 1.9 7.4-5.1 2.7-6.9-11.4-4.4-24.6-6.6-37.7-6.2-10.1.4-30.5 4.8-39.8 9z"/>
    <path id="LeftArm" d="M615.4 451c11.7 12.2 17 60.3-6 41.6l-2.9-2.6c-24-21.7-39.9-36-63.8-41-14.8-3.1-31.3.6-46 3.9-9.5 2.1-18.5 4.1-24.3 3.5-7.8-.8-14.1-4.6-15.7-9.5-1.5-4.7 1.6-10.7 8.7-17 20.7-18.2 59.3-24 87.5-12.5 4.6 2 46.1 16.5 62.5 33.6z" class="st0" fill="#fc0"/>
  </g>
</svg>
