<svg version="1.1" id="wapuugotchi_svg__item" viewBox="0 0 1e3 1e3" xmlns="http://www.w3.org/2000/svg">
	<g class="Ball--group">
		<ellipse transform="matrix(.7071 -.7071 .7071 .7071 -236.45 487.79)" cx="470.6" cy="529.3" rx="133.5" ry="133.5"/>
		<circle cx="470.6" cy="529.3" r="126.1" fill="#0073AA"/>
		<path fill="#fff" d="m362.2 524.4c-0.9 4.6-1.3 6.9-2.2 11.5-0.2 1.3-0.4 2.5-0.5 3.2-1.3-0.2-2-0.4-3.3-0.6 0-0.6 0.1-0.8 0.1-1.4-0.9 1-2.2 1.2-3.4 1-2.3-0.4-3.9-2.9-3.3-6.1 0.6-3.5 3.2-5 5.6-4.6 1.1 0.2 2 0.7 2.3 1.5 0.4-2.1 0.6-3.2 1-5.3 1.4 0.4 2.2 0.5 3.7 0.8zm-5.4 8.3c0-0.1 0.1-0.3 0.1-0.5 0-0.8-0.4-1.4-1.2-1.6-1.2-0.2-2 0.8-2.3 2.1-0.3 1.6 0.3 2.5 1.3 2.7 0.8 0.1 1.4-0.3 1.7-1 0.1-0.2 0.1-0.4 0.2-0.7 0-0.3 0.1-0.6 0.2-1z"/>
		<path fill="#fff" d="m366.5 540.7c-3-0.5-5-2.9-4.4-6.2 0.6-3.2 3.1-5 6.6-4.3 3.2 0.6 4.9 3.1 4.3 6.2-0.7 3.6-3.6 4.8-6.5 4.3zm0.6-2.6c1 0.2 1.7-0.8 2.1-2.4 0.3-1.4 0.1-2.8-1-3-1.2-0.2-1.9 1-2.2 2.4-0.3 1.5 0 2.8 1.1 3z"/>
		<path fill="#fff" d="m381.8 542.9c-0.7 0.2-1.7 0.1-2.9-0.1-3.4-0.6-5.1-2.9-4.5-6.1 0.5-2.9 3-5 7-4.2 0.7 0.1 1.6 0.4 2.3 0.8-0.4 1-0.6 1.6-1 2.6-0.3-0.2-0.8-0.4-1.6-0.5-1.4-0.2-2.5 0.5-2.8 2-0.3 1.6 0.7 2.6 2 2.9 0.6 0.1 1.2 0.1 1.7 0-0.2 1-0.2 1.5-0.2 2.6z"/>
		<path fill="#fff" d="m383.9 540.3c0.5 0.4 1.8 1.1 2.7 1.2 0.8 0.1 1.1 0 1.2-0.4s-0.1-0.5-1.2-1.1c-2.1-1.1-2.6-2.4-2.4-3.6 0.4-2 2.4-3.1 5.1-2.7 1.2 0.2 2.3 0.7 2.9 1.1-0.4 0.9-0.6 1.4-1.1 2.4-0.4-0.3-1.3-0.8-2.1-0.9-0.6-0.1-1 0-1.1 0.4-0.1 0.3 0.2 0.6 1.4 1.2 1.9 1 2.5 2.2 2.2 3.6-0.3 1.9-2.1 3.1-5.3 2.6-1.4-0.2-2.6-0.8-3.4-1.3 0.5-1 0.7-1.5 1.1-2.5z"/>
		<path fill="#fff" d="m401.5 548c-0.1 0.4-0.1 0.6-0.2 1-4.1-0.7-6.2-1-10.3-1.7 0.1-0.4 0.1-0.6 0.2-1 4.1 0.7 6.1 1.1 10.3 1.7z"/>
		<path fill="#fff" d="m415.9 534.1c-0.8 4.5-1.2 6.7-2.1 11.1-0.2 1.2-0.4 2.4-0.5 3.1-1.3-0.2-2-0.3-3.3-0.5 0-0.5 0.1-0.8 0.1-1.3-0.9 1-2.2 1.2-3.3 1.1-2.4-0.4-3.9-2.7-3.4-5.8 0.6-3.3 3.1-4.9 5.5-4.5 1.1 0.2 2 0.7 2.3 1.4 0.4-2.1 0.6-3.1 1-5.1 1.4 0.1 2.2 0.3 3.7 0.5zm-5.4 8.1c0-0.1 0.1-0.3 0.1-0.5 0-0.7-0.4-1.4-1.2-1.5-1.2-0.2-2 0.8-2.2 2.1-0.3 1.5 0.3 2.4 1.3 2.6 0.8 0.1 1.4-0.3 1.7-1 0.1-0.2 0.1-0.4 0.2-0.7 0-0.4 0-0.6 0.1-1z"/>
		<path fill="#fff" d="m425 547.7c-0.2 1-0.3 1.9-0.3 2.4-1.4-0.2-2-0.3-3.4-0.5v-0.9h-0.1c-0.8 0.7-1.9 0.8-3 0.6-2.1-0.3-3.1-2-2.8-3.6 0.5-2.6 3.2-3.4 6.6-2.9v-0.1c0.1-0.4-0.2-0.9-1.5-1.1-1.1-0.2-2.3 0-3 0.3-0.1-0.9-0.1-1.4-0.2-2.4 0.7-0.2 2.3-0.6 4.4-0.2 3.5 0.6 4.4 2.6 3.9 5.1-0.2 1.3-0.3 2-0.6 3.3zm-3.2-2.6c-1.5-0.2-2.5 0-2.6 0.9-0.1 0.6 0.2 1 0.9 1.1 0.5 0.1 1.2-0.2 1.4-0.7 0.1-0.2 0.1-0.3 0.1-0.5 0.1-0.4 0.1-0.5 0.2-0.8z"/>
		<path fill="#fff" d="m428.1 544c0.2-1.3 0.4-2.4 0.5-3.3 1.3 0.2 1.9 0.3 3.2 0.5 0 0.5 0 0.8-0.1 1.3h0.1c0.5-0.5 1.6-1.3 3.3-1 2.4 0.4 3.4 2.1 2.9 4.8-0.4 2.3-0.6 3.4-1 5.7-1.5-0.2-2.3-0.3-3.8-0.5 0.4-2.1 0.6-3.2 1-5.3 0.2-1.1-0.1-1.8-1-2-0.7-0.1-1.1 0.3-1.4 0.7-0.1 0.2-0.2 0.4-0.2 0.7l-1 5.5c-1.5-0.2-2.3-0.3-3.8-0.6 0.6-2.6 0.8-3.9 1.3-6.5z"/>
		<path fill="#fff" d="m449.6 552.2c-0.3 1.7-1 3.2-2.4 4.1-1.3 0.8-2.9 0.8-4.5 0.6-1.4-0.2-2.8-0.6-3.7-1.3 0.5-1 0.7-1.5 1.2-2.6 0.6 0.4 1.7 1 2.8 1.1 1.3 0.2 2.5-0.4 2.8-1.8 0-0.2 0-0.3 0.1-0.4-0.8 0.6-1.7 0.9-2.7 0.7-2.5-0.3-3.9-2.5-3.4-5.3 0.6-3.1 3-4.8 5.6-4.4 1.2 0.2 2 0.8 2.4 1.6 0.1-0.4 0.2-0.6 0.3-1 1.3 0.2 1.9 0.3 3.2 0.5-0.2 0.6-0.3 1.4-0.6 2.9-0.5 2.2-0.7 3.2-1.1 5.3zm-2.9-4.7v-0.5c0-0.7-0.4-1.2-1.1-1.3-0.9-0.1-1.8 0.6-2.1 2.1-0.2 1.3 0.2 2.3 1.3 2.4 0.7 0.1 1.3-0.3 1.5-0.8 0.1-0.2 0.2-0.5 0.2-0.7 0-0.5 0.1-0.7 0.2-1.2z"/>
		<path fill="#fff" d="m455.5 543.6c-1.2-0.2-1.8-1-1.6-1.9 0.2-1 1.1-1.6 2.2-1.4 1.2 0.2 1.8 1 1.6 1.9-0.1 1-1 1.6-2.2 1.4zm-3.8 10.4c0.7-3.8 1.1-5.8 1.8-9.6 1.5 0.2 2.3 0.3 3.8 0.5-0.7 3.8-1 5.7-1.7 9.6-1.7-0.2-2.4-0.3-3.9-0.5z"/>
		<path fill="#fff" d="m464.1 543.1c-0.2 1.1-0.3 1.6-0.5 2.7 0.8 0.1 1.3 0.2 2.1 0.3-0.2 1-0.3 1.5-0.5 2.6-0.8-0.1-1.3-0.2-2.1-0.3-0.2 1.1-0.3 1.6-0.5 2.7s0 1.6 0.9 1.7c0.4 0.1 0.6 0.1 0.9 0-0.2 1.1-0.3 1.6-0.5 2.7-0.5 0.1-1.3 0.1-2.3 0-1.1-0.1-1.9-0.6-2.4-1.2-0.5-0.7-0.7-1.6-0.4-3.1 0.2-1.3 0.4-2 0.6-3.3-0.5-0.1-0.8-0.1-1.3-0.2 0.2-1 0.3-1.5 0.5-2.6 0.5 0.1 0.8 0.1 1.3 0.2 0.1-0.7 0.2-1.1 0.3-1.8 1.6-0.2 2.4-0.3 3.9-0.4z"/>
		<path fill="#fff" d="m468.7 550.3c-1.2-0.2-1.9-1.1-1.7-2.3s1.2-1.9 2.5-1.7 2 1.1 1.8 2.3c-0.2 1.1-1.2 1.9-2.6 1.7 0.1 0 0.1 0 0 0zm-1 6c-1.2-0.2-1.9-1.1-1.7-2.3s1.2-1.9 2.5-1.7 2 1.1 1.8 2.3c-0.3 1.1-1.3 1.8-2.6 1.7z"/>
		<path fill="#fff" d="m450.7 524.8-12.3-17.1c4.3-4 7.4-9.5 8.5-15.7 2.6-15.1-7.6-29.5-22.8-32.1-15.1-2.6-29.5 7.6-32.1 22.8-2.6 15.1 7.6 29.5 22.8 32.1 6.2 1 12.2 0 17.4-2.7l12.4 17.2c1.2 1.7 3.6 2.1 5.3 0.9 1.6-1.4 2-3.7 0.8-5.4zm-34.6-17.6c-11-1.9-18.4-12.3-16.6-23.3s12.3-18.4 23.3-16.6 18.4 12.3 16.6 23.3-12.3 18.5-23.3 16.6z"/>
		<path fill="#fff" d="m433.9 491.5c1.1-0.8 1.4-2.4 0.6-3.5l-7.2-10.2c-0.8-1.1-2.4-1.4-3.5-0.6s-1.4 2.4-0.6 3.5l5.8 8.1-8.2 5.8c-1.1 0.8-1.4 2.4-0.6 3.5s2.4 1.4 3.6 0.6l10.1-7.2v0 0z"/>
		<path fill="#fff" d="m418.5 476.3c-0.8-1.1-2.4-1.4-3.6-0.6l-10.2 7.2c-1.1 0.8-1.4 2.4-0.6 3.5l7.2 10.2c0.4 0.6 1 0.9 1.6 1s1.3 0 1.9-0.4c1.1-0.8 1.4-2.4 0.6-3.5l-5.8-8.1 8.2-5.8c1.3-0.8 1.5-2.3 0.7-3.5z"/>
	</g>
</svg>
