<?xml version="1.0" encoding="utf-8"?>
<!-- Generator: Adobe Illustrator 25.2.0, SVG Export Plug-In . SVG Version: 6.00 Build 0)  -->
<svg version="1.1" id="Layer_1" xmlns="http://www.w3.org/2000/svg" xmlns:xlink="http://www.w3.org/1999/xlink" x="0px" y="0px"
	 viewBox="0 0 1000 1000" style="enable-background:new 0 0 1000 1000;" xml:space="preserve">
<style type="text/css">
	.st0{fill:#0073AA;}
	.st1{fill:#FFFFFF;}
</style>
<g id="Ball--group">
	
		<ellipse id="Ball-bg" transform="matrix(0.7071 -0.7071 0.7071 0.7071 -236.4523 487.7926)" cx="470.6" cy="529.3" rx="133.5" ry="133.5"/>
	<circle id="Ball_1_" class="st0" cx="470.6" cy="529.3" r="126.1"/>
	<g id="docs_x5F_dangit">
		<g>
			<g>
				<path class="st1" d="M362.2,524.4c-0.9,4.6-1.3,6.9-2.2,11.5c-0.2,1.3-0.4,2.5-0.5,3.2c-1.3-0.2-2-0.4-3.3-0.6
					c0-0.6,0.1-0.8,0.1-1.4l0,0c-0.9,1-2.2,1.2-3.4,1c-2.3-0.4-3.9-2.9-3.3-6.1c0.6-3.5,3.2-5,5.6-4.6c1.1,0.2,2,0.7,2.3,1.5l0,0
					c0.4-2.1,0.6-3.2,1-5.3C359.9,524,360.7,524.1,362.2,524.4z M356.8,532.7c0-0.1,0.1-0.3,0.1-0.5c0-0.8-0.4-1.4-1.2-1.6
					c-1.2-0.2-2,0.8-2.3,2.1c-0.3,1.6,0.3,2.5,1.3,2.7c0.8,0.1,1.4-0.3,1.7-1c0.1-0.2,0.1-0.4,0.2-0.7
					C356.6,533.4,356.7,533.1,356.8,532.7z"/>
				<path class="st1" d="M366.5,540.7c-3-0.5-5-2.9-4.4-6.2c0.6-3.2,3.1-5,6.6-4.3c3.2,0.6,4.9,3.1,4.3,6.2
					C372.3,540,369.4,541.2,366.5,540.7L366.5,540.7z M367.1,538.1c1,0.2,1.7-0.8,2.1-2.4c0.3-1.4,0.1-2.8-1-3
					c-1.2-0.2-1.9,1-2.2,2.4C365.7,536.6,366,537.9,367.1,538.1L367.1,538.1z"/>
				<path class="st1" d="M381.8,542.9c-0.7,0.2-1.7,0.1-2.9-0.1c-3.4-0.6-5.1-2.9-4.5-6.1c0.5-2.9,3-5,7-4.2
					c0.7,0.1,1.6,0.4,2.3,0.8c-0.4,1-0.6,1.6-1,2.6c-0.3-0.2-0.8-0.4-1.6-0.5c-1.4-0.2-2.5,0.5-2.8,2c-0.3,1.6,0.7,2.6,2,2.9
					c0.6,0.1,1.2,0.1,1.7,0C381.8,541.3,381.8,541.8,381.8,542.9z"/>
				<path class="st1" d="M383.9,540.3c0.5,0.4,1.8,1.1,2.7,1.2c0.8,0.1,1.1,0,1.2-0.4s-0.1-0.5-1.2-1.1c-2.1-1.1-2.6-2.4-2.4-3.6
					c0.4-2,2.4-3.1,5.1-2.7c1.2,0.2,2.3,0.7,2.9,1.1c-0.4,0.9-0.6,1.4-1.1,2.4c-0.4-0.3-1.3-0.8-2.1-0.9c-0.6-0.1-1,0-1.1,0.4
					c-0.1,0.3,0.2,0.6,1.4,1.2c1.9,1,2.5,2.2,2.2,3.6c-0.3,1.9-2.1,3.1-5.3,2.6c-1.4-0.2-2.6-0.8-3.4-1.3
					C383.3,541.8,383.5,541.3,383.9,540.3z"/>
				<path class="st1" d="M401.5,548c-0.1,0.4-0.1,0.6-0.2,1c-4.1-0.7-6.2-1-10.3-1.7c0.1-0.4,0.1-0.6,0.2-1
					C395.3,547,397.3,547.4,401.5,548z"/>
				<path class="st1" d="M415.9,534.1c-0.8,4.5-1.2,6.7-2.1,11.1c-0.2,1.2-0.4,2.4-0.5,3.1c-1.3-0.2-2-0.3-3.3-0.5
					c0-0.5,0.1-0.8,0.1-1.3l0,0c-0.9,1-2.2,1.2-3.3,1.1c-2.4-0.4-3.9-2.7-3.4-5.8c0.6-3.3,3.1-4.9,5.5-4.5c1.1,0.2,2,0.7,2.3,1.4
					l0,0c0.4-2.1,0.6-3.1,1-5.1C413.6,533.7,414.4,533.9,415.9,534.1z M410.5,542.2c0-0.1,0.1-0.3,0.1-0.5c0-0.7-0.4-1.4-1.2-1.5
					c-1.2-0.2-2,0.8-2.2,2.1c-0.3,1.5,0.3,2.4,1.3,2.6c0.8,0.1,1.4-0.3,1.7-1c0.1-0.2,0.1-0.4,0.2-0.7
					C410.4,542.8,410.4,542.6,410.5,542.2z"/>
				<path class="st1" d="M425,547.7c-0.2,1-0.3,1.9-0.3,2.4c-1.4-0.2-2-0.3-3.4-0.5c0-0.4,0-0.5,0-0.9c0,0,0,0-0.1,0
					c-0.8,0.7-1.9,0.8-3,0.6c-2.1-0.3-3.1-2-2.8-3.6c0.5-2.6,3.2-3.4,6.6-2.9c0,0,0,0,0-0.1c0.1-0.4-0.2-0.9-1.5-1.1
					c-1.1-0.2-2.3,0-3,0.3c-0.1-0.9-0.1-1.4-0.2-2.4c0.7-0.2,2.3-0.6,4.4-0.2c3.5,0.6,4.4,2.6,3.9,5.1
					C425.4,545.7,425.3,546.4,425,547.7z M421.8,545.1c-1.5-0.2-2.5,0-2.6,0.9c-0.1,0.6,0.2,1,0.9,1.1c0.5,0.1,1.2-0.2,1.4-0.7
					c0.1-0.2,0.1-0.3,0.1-0.5C421.7,545.5,421.7,545.4,421.8,545.1z"/>
				<path class="st1" d="M428.1,544c0.2-1.3,0.4-2.4,0.5-3.3c1.3,0.2,1.9,0.3,3.2,0.5c0,0.5,0,0.8-0.1,1.3c0,0,0,0,0.1,0
					c0.5-0.5,1.6-1.3,3.3-1c2.4,0.4,3.4,2.1,2.9,4.8c-0.4,2.3-0.6,3.4-1,5.7c-1.5-0.2-2.3-0.3-3.8-0.5c0.4-2.1,0.6-3.2,1-5.3
					c0.2-1.1-0.1-1.8-1-2c-0.7-0.1-1.1,0.3-1.4,0.7c-0.1,0.2-0.2,0.4-0.2,0.7c-0.4,2.2-0.6,3.3-1,5.5c-1.5-0.2-2.3-0.3-3.8-0.6
					C427.4,547.9,427.6,546.6,428.1,544z"/>
				<path class="st1" d="M449.6,552.2c-0.3,1.7-1,3.2-2.4,4.1c-1.3,0.8-2.9,0.8-4.5,0.6c-1.4-0.2-2.8-0.6-3.7-1.3
					c0.5-1,0.7-1.5,1.2-2.6c0.6,0.4,1.7,1,2.8,1.1c1.3,0.2,2.5-0.4,2.8-1.8c0-0.2,0-0.3,0.1-0.4l0,0c-0.8,0.6-1.7,0.9-2.7,0.7
					c-2.5-0.3-3.9-2.5-3.4-5.3c0.6-3.1,3-4.8,5.6-4.4c1.2,0.2,2,0.8,2.4,1.6l0,0c0.1-0.4,0.2-0.6,0.3-1c1.3,0.2,1.9,0.3,3.2,0.5
					c-0.2,0.6-0.3,1.4-0.6,2.9C450.2,549.1,450,550.1,449.6,552.2z M446.7,547.5c0-0.2,0-0.3,0-0.5c0-0.7-0.4-1.2-1.1-1.3
					c-0.9-0.1-1.8,0.6-2.1,2.1c-0.2,1.3,0.2,2.3,1.3,2.4c0.7,0.1,1.3-0.3,1.5-0.8c0.1-0.2,0.2-0.5,0.2-0.7
					C446.5,548.2,446.6,548,446.7,547.5z"/>
				<path class="st1" d="M455.5,543.6c-1.2-0.2-1.8-1-1.6-1.9c0.2-1,1.1-1.6,2.2-1.4c1.2,0.2,1.8,1,1.6,1.9
					C457.6,543.2,456.7,543.8,455.5,543.6L455.5,543.6z M451.7,554c0.7-3.8,1.1-5.8,1.8-9.6c1.5,0.2,2.3,0.3,3.8,0.5
					c-0.7,3.8-1,5.7-1.7,9.6C453.9,554.3,453.2,554.2,451.7,554z"/>
				<path class="st1" d="M464.1,543.1c-0.2,1.1-0.3,1.6-0.5,2.7c0.8,0.1,1.3,0.2,2.1,0.3c-0.2,1-0.3,1.5-0.5,2.6
					c-0.8-0.1-1.3-0.2-2.1-0.3c-0.2,1.1-0.3,1.6-0.5,2.7c-0.2,1.1,0,1.6,0.9,1.7c0.4,0.1,0.6,0.1,0.9,0c-0.2,1.1-0.3,1.6-0.5,2.7
					c-0.5,0.1-1.3,0.1-2.3,0c-1.1-0.1-1.9-0.6-2.4-1.2c-0.5-0.7-0.7-1.6-0.4-3.1c0.2-1.3,0.4-2,0.6-3.3c-0.5-0.1-0.8-0.1-1.3-0.2
					c0.2-1,0.3-1.5,0.5-2.6c0.5,0.1,0.8,0.1,1.3,0.2c0.1-0.7,0.2-1.1,0.3-1.8C461.8,543.3,462.6,543.2,464.1,543.1z"/>
				<path class="st1" d="M468.7,550.3c-1.2-0.2-1.9-1.1-1.7-2.3c0.2-1.2,1.2-1.9,2.5-1.7s2,1.1,1.8,2.3
					C471.1,549.7,470.1,550.5,468.7,550.3C468.8,550.3,468.8,550.3,468.7,550.3z M467.7,556.3c-1.2-0.2-1.9-1.1-1.7-2.3
					c0.2-1.2,1.2-1.9,2.5-1.7s2,1.1,1.8,2.3C470,555.7,469,556.4,467.7,556.3L467.7,556.3z"/>
			</g>
			<g>
				<path class="st1" d="M450.7,524.8l-12.3-17.1c4.3-4,7.4-9.5,8.5-15.7c2.6-15.1-7.6-29.5-22.8-32.1c-15.1-2.6-29.5,7.6-32.1,22.8
					c-2.6,15.1,7.6,29.5,22.8,32.1c6.2,1,12.2,0,17.4-2.7l12.4,17.2c1.2,1.7,3.6,2.1,5.3,0.9C451.5,528.8,451.9,526.5,450.7,524.8z
					 M416.1,507.2c-11-1.9-18.4-12.3-16.6-23.3s12.3-18.4,23.3-16.6s18.4,12.3,16.6,23.3S427.1,509.1,416.1,507.2z"/>
				<path class="st1" d="M433.9,491.5c1.1-0.8,1.4-2.4,0.6-3.5l-7.2-10.2c-0.8-1.1-2.4-1.4-3.5-0.6c-1.1,0.8-1.4,2.4-0.6,3.5
					l5.8,8.1l-8.2,5.8c-1.1,0.8-1.4,2.4-0.6,3.5s2.4,1.4,3.6,0.6L433.9,491.5C433.9,491.6,433.9,491.6,433.9,491.5
					C433.9,491.6,433.9,491.6,433.9,491.5L433.9,491.5L433.9,491.5z"/>
				<path class="st1" d="M418.5,476.3c-0.8-1.1-2.4-1.4-3.6-0.6l-10.2,7.2c0,0,0,0,0,0c0,0,0,0,0,0l0,0l0,0
					c-1.1,0.8-1.4,2.4-0.6,3.5l7.2,10.2c0.4,0.6,1,0.9,1.6,1c0.6,0.1,1.3,0,1.9-0.4c1.1-0.8,1.4-2.4,0.6-3.5l-5.8-8.1l8.2-5.8
					C419.1,479,419.3,477.5,418.5,476.3z"/>
			</g>
		</g>
	</g>
</g>
</svg>
