<?xml version="1.0" encoding="utf-8"?>
<!-- Generator: Adobe Illustrator 25.2.0, SVG Export Plug-In . SVG Version: 6.00 Build 0)  -->
<svg version="1.1" id="Layer_1" xmlns="http://www.w3.org/2000/svg" xmlns:xlink="http://www.w3.org/1999/xlink" x="0px" y="0px"
	 viewBox="0 0 1000 1000" style="enable-background:new 0 0 1000 1000;" xml:space="preserve">
<style type="text/css">
	.st0{fill:#2F39BF;}
	.st1{fill:#FFFFFF;}
</style>
<g id="Ball--group">
	<g id="Ball--bg">
		<g>
			<ellipse transform="matrix(0.7071 -0.7071 0.7071 0.7071 -236.4377 487.8127)" cx="470.6" cy="529.3" rx="133.5" ry="133.5"/>
		</g>
	</g>
	<g id="Ball">
		<circle class="st0" cx="470.6" cy="529.3" r="126.1"/>
	</g>
	<g>
		<g>
			<path class="st1" d="M360.5,511.6c-1.1,1-2.8,1.4-4.3,1c-3.2-0.9-5-4.1-4.3-7.6c0.7-3.5,3.6-5.3,6.8-4.4c1.5,0.4,2.9,1.7,3.5,3.2
				c0.1,0.2,0.1,0.2,0.2,0.4c1.1-0.3,1.6-0.4,2.6-0.7c-0.1-0.2-0.1-0.3-0.2-0.5c-1-2.6-2.9-4.3-5.5-5.1c-4.8-1.4-9.1,1.2-10.2,6.2
				c-1,5,1.7,9.7,6.6,11.1c2.6,0.7,4.9,0.2,6.9-1.5c0.1-0.1,0.2-0.2,0.4-0.3c-0.8-0.8-1.3-1.2-2.1-2
				C360.7,511.4,360.6,511.4,360.5,511.6z"/>
			<path class="st1" d="M370.4,501.3c-1.1-0.3-1.7-0.5-2.8-0.8c-1.4,6.7-2.1,10-3.5,16.7c4,1.1,6,1.7,10,2.7
				c0.2-1.1,0.3-1.6,0.6-2.6c-2.9-0.8-4.3-1.2-7.2-2C368.7,509.8,369.3,507,370.4,501.3z"/>
			<path class="st1" d="M387,505.4c-4.7-1.2-8.9,1.6-9.9,6.6c-1,5,1.6,9.6,6.3,10.8c4.7,1.2,8.9-1.6,10-6.7
				C394.4,511.1,391.7,506.6,387,505.4z M383.9,520.1c-3.2-0.8-4.8-3.8-4-7.4c0.7-3.6,3.4-5.5,6.5-4.7c3.2,0.8,4.8,3.8,4.1,7.4
				C389.8,519,387,520.9,383.9,520.1z"/>
			<path class="st1" d="M406.8,521.1c-0.6,2.8-2.3,4-4.9,3.4c-2.6-0.6-3.7-2.5-3.1-5.3c0.8-4.1,1.3-6.1,2.1-10.2
				c-1.1-0.3-1.7-0.4-2.8-0.7c-0.8,4.1-1.3,6.1-2.1,10.2c-0.9,4.4,1.1,7.6,5.4,8.6c4.3,1,7.4-1,8.3-5.4c0.8-4.1,1.3-6.2,2.1-10.3
				c-1.1-0.3-1.7-0.4-2.8-0.6C408.1,515,407.7,517,406.8,521.1z"/>
			<path class="st1" d="M427.9,523.9c1-5-1.8-9.2-6.8-10.3c-2.3-0.5-3.5-0.7-5.8-1.2c-1.4,6.8-2.1,10.2-3.5,17
				c2.3,0.5,3.5,0.8,5.8,1.3C422.7,531.7,426.9,528.9,427.9,523.9z M418.3,527.9c-1.2-0.3-1.8-0.4-3-0.6c1-4.7,1.4-7,2.4-11.6
				c1.2,0.3,1.8,0.4,3,0.6c3.4,0.7,5.1,3.5,4.4,7C424.3,526.7,421.6,528.6,418.3,527.9z"/>
			<path class="st1" d="M434.7,534c2.2-4.5,3.3-6.7,5.5-11.2c0.3,5,0.4,7.4,0.7,12.4c1.1,0.2,1.7,0.3,2.8,0.5
				c3.3-6.5,5-9.8,8.3-16.3c-1.3-0.2-1.9-0.3-3.1-0.5c-2.3,4.7-3.4,7-5.6,11.7c-0.3-5.1-0.5-7.7-0.8-12.8c-0.9-0.2-1.4-0.3-2.3-0.4
				c-2.3,4.6-3.5,7-5.8,11.6c-0.3-5.1-0.4-7.7-0.7-12.8c-1.2-0.2-1.9-0.4-3.1-0.6c0.5,7.2,0.7,10.8,1.2,18
				C433,533.7,433.5,533.8,434.7,534z"/>
			<path class="st1" d="M460.9,538.7c1.3,0.2,1.9,0.3,3.2,0.5c-1.3-7.3-2-11-3.3-18.3c-1.2-0.2-1.8-0.3-3-0.5
				c-4.1,6.4-6.1,9.6-10.2,16c1.3,0.2,1.9,0.3,3.2,0.6c0.9-1.4,1.3-2,2.1-3.4c2.9,0.5,4.4,0.7,7.3,1.2
				C460.5,536.4,460.6,537.2,460.9,538.7z M459.8,532c-2.2-0.4-3.3-0.5-5.4-0.9c1.7-2.7,2.5-4,4.1-6.6
				C459.1,527.5,459.3,529,459.8,532z"/>
			<path class="st1" d="M471.9,540.4c0.6-2.9,0.9-4.3,1.5-7.2c3.5-3.6,5.2-5.4,8.7-9.1c-1.4-0.2-2-0.3-3.4-0.5
				c-2.5,2.6-3.7,3.9-6.2,6.6c-1.3-3.2-1.9-4.8-3.2-7.9c-1.4-0.2-2-0.3-3.4-0.5c1.9,4.4,2.8,6.6,4.6,11c-0.6,2.9-0.9,4.3-1.5,7.2
				C470.2,540.2,470.8,540.3,471.9,540.4z"/>
			<path class="st1" d="M485.9,539.9c-2.5-0.3-3.8-2.1-4.2-2.8c-0.1-0.2-0.2-0.3-0.3-0.5c-0.9,0.8-1.3,1.2-2.2,2.1
				c0.1,0.1,0.1,0.2,0.2,0.3c1.2,2,3.3,3.3,5.9,3.6c4.7,0.6,6.9-1.9,7.4-4.5c0.8-3.8-2.4-5.1-4.8-6.2c-2.1-0.9-3.3-1.5-3.1-2.7
				c0.3-1.3,1.6-2,3.3-1.8c1.2,0.2,2.9,0.7,3.9,2.4c0.1,0.2,0.2,0.3,0.3,0.4c0.9-0.8,1.3-1.2,2.2-2c-0.1-0.1-0.1-0.2-0.2-0.3
				c-1.2-1.8-3.1-2.9-5.5-3.2c-3.4-0.4-6.4,1.3-6.9,4.2c-0.7,3.5,2.2,4.8,4.6,5.8c2.2,1,3.6,1.7,3.3,3.2
				C489.4,539.1,488.3,540.2,485.9,539.9z"/>
			<path class="st1" d="M419.2,539.9c-0.4-0.1-0.7,0-1,0.2c0.1-0.6,0.2-0.9,0.3-1.6c-0.3-0.1-0.4-0.1-0.7-0.2
				c-0.4,1.9-0.6,2.8-1,4.7c0.3,0.1,0.4,0.1,0.7,0.2c0-0.1,0-0.2,0.1-0.3c0.2,0.3,0.5,0.5,0.9,0.6c0.9,0.2,1.7-0.4,1.9-1.5
				C420.6,540.9,420.1,540.1,419.2,539.9z M419.6,541.9c-0.1,0.7-0.6,1.1-1.2,1c-0.3-0.1-0.6-0.3-0.8-0.6c0.1-0.6,0.2-0.9,0.3-1.4
				c0.2-0.2,0.6-0.3,0.9-0.3C419.5,540.6,419.7,541.2,419.6,541.9z"/>
			<path class="st1" d="M422.2,543.2c-0.2-1.1-0.3-1.6-0.5-2.7c-0.3-0.1-0.5-0.1-0.8-0.2c0.3,1.5,0.4,2.2,0.7,3.7
				c-0.1,0.2-0.2,0.2-0.3,0.4c-0.1,0.2-0.3,0.2-0.4,0.2c-0.1,0-0.2-0.1-0.2-0.1c0,0-0.1-0.1-0.1-0.1c-0.1,0.3-0.2,0.4-0.3,0.7
				c0,0,0.1,0,0.1,0c0.1,0.1,0.3,0.1,0.4,0.1c0.5,0.1,0.9-0.1,1.2-0.5c1-1.5,1.5-2.3,2.5-3.8c-0.3-0.1-0.5-0.1-0.8-0.2
				C423.1,541.8,422.8,542.3,422.2,543.2z"/>
			<path class="st1" d="M483.6,549c-0.4-0.4-0.9-0.7-1.6-0.8c-0.5-0.1-0.9,0-1.4,0.1c-0.4,0.1-0.8,0.4-1.1,0.8c0,0,0,0,0,0
				c0.3,0.4,0.4,0.6,0.7,1c0.5-0.6,1-0.7,1.5-0.6c0.3,0,0.5,0.2,0.7,0.3c0.2,0.2,0.2,0.4,0.2,0.7c0,0.1,0,0.2-0.1,0.3
				c-0.3-0.1-0.7-0.3-1-0.3c-0.7-0.1-1.3,0-1.8,0.3s-0.8,0.7-0.9,1.3c-0.1,0.5,0,1,0.3,1.4c0.3,0.4,0.7,0.6,1.3,0.7
				c0.5,0.1,1.1-0.1,1.6-0.4c0,0.2-0.1,0.3-0.1,0.5c0.6,0.1,0.8,0.1,1.4,0.2c0.3-1.5,0.4-2.2,0.7-3.7
				C484.1,550,483.9,549.4,483.6,549z M482.1,552.6c-0.4,0.2-0.8,0.3-1.3,0.3c-0.2,0-0.4-0.1-0.5-0.2c-0.1-0.1-0.2-0.3-0.1-0.4
				c0-0.2,0.1-0.3,0.3-0.4c0.2-0.1,0.4-0.1,0.7-0.1c0.4,0.1,0.7,0.2,1,0.4C482.2,552.2,482.1,552.3,482.1,552.6z"/>
			<path class="st1" d="M489.6,549.9c-0.3-0.5-0.8-0.8-1.5-0.9c-0.6-0.1-1.1,0-1.4,0.3c0-0.1,0-0.2,0.1-0.4
				c-0.6-0.1-0.8-0.1-1.4-0.2c-0.5,2.3-0.7,3.5-1.1,5.8c0.6,0.1,0.8,0.1,1.4,0.2c0.3-1.3,0.4-1.9,0.6-3.2c0.1-0.4,0.3-0.8,0.5-1
				c0.2-0.2,0.6-0.3,0.9-0.3c0.3,0,0.5,0.2,0.7,0.4c0.1,0.2,0.2,0.6,0.1,0.9c-0.3,1.3-0.4,2-0.7,3.3c0.6,0.1,0.8,0.1,1.4,0.2
				c0.3-1.3,0.4-2,0.7-3.3C490,551,490,550.4,489.6,549.9L489.6,549.9z"/>
			<path class="st1" d="M478.1,548.6L478.1,548.6c-0.1-0.3-0.4-0.6-0.7-0.8s-0.7-0.4-1.1-0.4c-0.8-0.1-1.5,0.1-2.1,0.6
				c-0.6,0.5-1,1.2-1.1,2c-0.2,0.9-0.1,1.6,0.3,2.2c0.4,0.6,1,1,1.9,1.1c1,0.1,1.8-0.1,2.5-0.8c0,0,0,0,0,0c-0.3-0.4-0.4-0.6-0.7-1
				c-0.1,0.1-0.3,0.2-0.4,0.3c-0.2,0.1-0.3,0.2-0.5,0.2c-0.2,0.1-0.5,0.1-0.7,0.1c-0.4-0.1-0.7-0.2-0.9-0.5
				c-0.2-0.3-0.3-0.6-0.2-0.9c1.5,0.2,2.2,0.3,3.7,0.5c0-0.2,0.1-0.3,0.1-0.5c0.1-0.4,0.1-0.7,0.1-1.1
				C478.3,549.2,478.2,548.9,478.1,548.6z M474.8,549.5C474.8,549.5,474.8,549.5,474.8,549.5c0.1-0.3,0.3-0.5,0.5-0.6
				c0.2-0.2,0.5-0.2,0.8-0.2c0.3,0,0.6,0.2,0.7,0.4c0.1,0.2,0.2,0.4,0.1,0.7C476.1,549.7,475.6,549.6,474.8,549.5z"/>
			<polygon class="st1" points="471.8,550.6 471.8,550.6 471.8,550.6 			"/>
			<path class="st1" d="M433.4,538.6c-0.7-0.7-1.6-1.2-2.7-1.4c-1-0.2-1.5-0.3-2.5-0.5c-0.7,3.2-1,4.8-1.6,8c1,0.2,1.5,0.3,2.5,0.5
				c1.1,0.2,2.2,0.1,3.1-0.3c0.5-0.2,0.9-0.6,1.3-1.1c0.3-0.5,0.6-1.1,0.7-1.8c0.1-0.7,0.2-1.4,0-1.9
				C434.1,539.5,433.8,539,433.4,538.6z M431.3,543.7c-0.6,0.2-1.3,0.3-2.2,0.1c-0.3-0.1-0.5-0.1-0.8-0.2c0.4-2.1,0.7-3.2,1.1-5.3
				c0.3,0.1,0.5,0.1,0.8,0.2c0.9,0.2,1.5,0.5,2,0.9c0.5,0.5,0.7,1.3,0.5,2.3C432.5,542.8,432,543.4,431.3,543.7z"/>
			<path class="st1" d="M449.3,541.6c-0.5-0.1-0.8-0.1-1.4-0.2c-0.1,0.6-0.2,0.9-0.3,1.5c-0.3-0.1-0.5-0.1-0.8-0.1
				c-0.1,0.5-0.2,0.8-0.3,1.3c0.3,0.1,0.5,0.1,0.8,0.1c-0.2,0.9-0.3,1.4-0.5,2.4c-0.1,0.7-0.1,1.3,0.1,1.6c0.2,0.4,0.7,0.6,1.4,0.7
				c0.2,0,0.5,0.1,0.7,0.1c0,0,0,0,0.1,0c0.1-0.5,0.2-0.8,0.3-1.3c-0.2,0-0.3,0-0.5-0.1c-0.3-0.1-0.5-0.2-0.6-0.3
				c-0.1-0.1-0.1-0.4,0-0.8c0.2-0.9,0.3-1.3,0.4-2.2c0.5,0.1,0.8,0.1,1.3,0.2c0.1-0.5,0.2-0.8,0.3-1.3c-0.5-0.1-0.8-0.1-1.3-0.2
				C449.1,542.5,449.2,542.2,449.3,541.6z"/>
			<path class="st1" d="M455.7,550.2c0.6,0.1,0.8,0.1,1.4,0.2c0.7-3.2,1-4.9,1.6-8.1c-0.6-0.1-0.8-0.1-1.4-0.2
				C456.7,545.3,456.4,546.9,455.7,550.2z"/>
			<path class="st1" d="M445.8,539.9c-0.2,0-0.5,0-0.7,0.1c-0.2,0.1-0.3,0.3-0.4,0.6c-0.1,0.2,0,0.5,0.1,0.7
				c0.1,0.2,0.3,0.3,0.6,0.4c0.2,0,0.5,0,0.7-0.1c0.2-0.1,0.3-0.3,0.4-0.6c0.1-0.3,0-0.5-0.1-0.7C446.2,540.1,446,540,445.8,539.9z"
				/>
			<path class="st1" d="M455,544.6c-0.4-0.4-0.9-0.7-1.6-0.9c-0.5-0.1-0.9-0.1-1.4,0.1c-0.4,0.1-0.8,0.4-1.1,0.8c0,0,0,0,0,0
				c0.3,0.4,0.4,0.6,0.7,1c0.5-0.5,1-0.7,1.5-0.6c0.3,0.1,0.5,0.2,0.7,0.4c0.1,0.2,0.2,0.4,0.2,0.7c0,0.1,0,0.2-0.1,0.3
				c-0.3-0.2-0.7-0.3-1-0.3c-0.7-0.1-1.3-0.1-1.8,0.2c-0.5,0.3-0.8,0.7-0.9,1.3c-0.1,0.5,0,1,0.3,1.4c0.3,0.4,0.7,0.6,1.3,0.7
				c0.5,0.1,1.1,0,1.6-0.3c0,0.2-0.1,0.3-0.1,0.5c0.5,0.1,0.8,0.1,1.4,0.2c0.3-1.5,0.4-2.2,0.7-3.7C455.5,545.6,455.4,545,455,544.6
				z M453.6,548.1c-0.4,0.2-0.8,0.3-1.3,0.2c-0.2,0-0.4-0.1-0.5-0.3c-0.1-0.1-0.1-0.3-0.1-0.5s0.1-0.3,0.3-0.4
				c0.2-0.1,0.4-0.1,0.7-0.1c0.4,0.1,0.7,0.2,1,0.4C453.6,547.8,453.6,547.9,453.6,548.1z"/>
			<path class="st1" d="M470.9,551.2c-0.2,0.1-0.5,0.1-0.8,0.1c-0.4-0.1-0.7-0.3-0.9-0.6c-0.2-0.4-0.3-0.8-0.2-1.3
				c0.1-0.5,0.3-0.9,0.6-1.1c0.3-0.3,0.7-0.4,1.1-0.3c0.5,0.1,0.9,0.4,1.2,1c0.4-0.3,0.7-0.5,1.1-0.8c-0.4-0.9-1.1-1.4-2.1-1.5
				c-0.8-0.1-1.5,0.1-2.2,0.6c-0.7,0.5-1.1,1.1-1.2,2c-0.2,0.9,0,1.6,0.4,2.3c0.4,0.6,1,1,1.8,1.2c1,0.2,1.9-0.2,2.7-0.9
				c-0.3-0.4-0.5-0.6-0.8-1C471.4,550.9,471.1,551.1,470.9,551.2z"/>
			<path class="st1" d="M463.9,543c-2.2-0.4-4.5,1.2-4.9,3.5c-0.5,2.3,1,4.5,3.2,4.8c2.3,0.4,4.5-1.2,4.9-3.5
				C467.6,545.5,466.1,543.4,463.9,543z M462.5,549.9c-1.5-0.2-2.4-1.6-2.1-3.1s1.7-2.5,3.2-2.3c1.5,0.2,2.4,1.6,2.1,3.1
				S464,550.1,462.5,549.9z"/>
			<path class="st1" d="M434.4,546.3c0.6,0.1,0.8,0.2,1.4,0.3c0.5-2.3,0.7-3.4,1.2-5.7c-0.6-0.1-0.8-0.2-1.4-0.3
				C435.1,542.9,434.8,544,434.4,546.3z"/>
			<path class="st1" d="M441.9,542.3c-0.3-0.5-0.8-0.8-1.3-0.9c-0.8-0.1-1.5,0-2.1,0.5c-0.6,0.4-1,1.1-1.2,1.9
				c-0.2,0.8-0.1,1.5,0.3,2.2c0.4,0.6,1,1,1.7,1.2c0.5,0.1,1,0,1.5-0.2c0,0.1,0,0.1,0,0.1c-0.1,0.5-0.3,0.8-0.6,1
				c-0.3,0.2-0.7,0.3-1.1,0.2c-0.7-0.1-1-0.5-1.4-1.2c-0.5,0.3-0.7,0.5-1.1,0.8c0,0,0,0,0,0c0.2,0.3,0.4,0.7,0.8,1
				c0.4,0.3,0.9,0.6,1.5,0.7c0.8,0.2,1.6,0,2.1-0.4c0.6-0.4,1-1.1,1.2-1.9c0.4-2.1,0.6-3.1,1-5.2c-0.5-0.1-0.8-0.2-1.4-0.3
				C441.9,542,441.9,542.1,441.9,542.3z M440.8,545.6c-0.3,0.2-0.6,0.3-1,0.2s-0.7-0.3-0.9-0.6c-0.2-0.3-0.2-0.7-0.1-1.2
				c0.1-0.5,0.3-0.8,0.6-1c0.3-0.2,0.6-0.3,1-0.2c0.4,0.1,0.7,0.3,0.9,0.6c0.2,0.3,0.2,0.7,0.1,1.2
				C441.3,545,441.1,545.4,440.8,545.6z"/>
			<path class="st1" d="M436.7,538.3c-0.2,0-0.5,0-0.7,0.1c-0.2,0.1-0.3,0.3-0.4,0.6c-0.1,0.2,0,0.5,0.1,0.7
				c0.1,0.2,0.3,0.3,0.6,0.4s0.5,0,0.7-0.1c0.2-0.1,0.3-0.3,0.4-0.6s0-0.5-0.1-0.7C437.2,538.4,437,538.3,436.7,538.3z"/>
			<path class="st1" d="M443.4,548c0.6,0.1,0.8,0.2,1.4,0.3c0.5-2.3,0.7-3.4,1.2-5.7c-0.6-0.1-0.8-0.2-1.4-0.3
				C444.1,544.6,443.9,545.7,443.4,548z"/>
			<path class="st1" d="M446.9,507.1c0.5,0.2,1.1,0.3,1.7,0.4c8.1,1.4,16.1-4.3,17.7-12.7c1.4-6.9-1.9-13.4-7.7-16.2
				c0.1-7.9-5.2-14.7-13-16.1c-3.1-0.5-6.1-0.2-8.9,0.9c-10.6-2-15.9-3.1-26.4-5.4c0,0,0,0,0,0c-0.1,0-0.2-0.1-0.3-0.1
				c-1.1-0.2-2.1,0.5-2.3,1.5s0.5,2.2,1.5,2.4c0.1,0,0.2,0,0.3,0c0,0,0,0,0,0c8.8,2,13.2,2.9,22.1,4.6c-1.5,1.3-2.7,2.8-3.6,4.6
				c-9.5-1.9-14.2-2.9-23.6-5.1c-1.1-0.2-2.1,0.4-2.3,1.5s0.4,2.2,1.5,2.4c7.7,1.8,11.6,2.6,19.3,4.2c-2.1,1-4,2.4-5.5,4.2
				c-10-2.1-14.9-3.3-24.9-5.7c-1.1-0.3-2.1,0.4-2.3,1.5s0.4,2.2,1.5,2.4c9.3,2.3,14,3.4,23.4,5.4c-0.4,1-0.8,2-1,3.1
				c-0.1,0.7-0.2,1.3-0.3,2c-0.8-0.2-1.1-0.2-1.9-0.4c-1.1-0.2-2.1,0.5-2.3,1.5c-0.2,1.1,0.5,2.2,1.5,2.4c1.2,0.3,1.8,0.4,2.9,0.6
				c0.4,2.1,1.3,4.1,2.5,5.9c-6.4-1.4-9.6-2.1-16-3.6c-1.1-0.2-2.1,0.4-2.3,1.5c-0.2,1.1,0.5,2.2,1.5,2.4c15.6,3.6,31.2,6.9,47,9.7
				C446.8,507.2,446.8,507.1,446.9,507.1z"/>
			<path class="st1" d="M403.9,489c1.1,0.2,2.1-0.4,2.3-1.5c0.2-1.1-0.5-2.2-1.5-2.4c-5.4-1.2-8.1-1.9-13.5-3.2
				c-1.1-0.3-2.1,0.4-2.3,1.5c-0.2,1.1,0.4,2.2,1.5,2.4C395.8,487.1,398.5,487.8,403.9,489z"/>
		</g>
	</g>
</g>
</svg>
