<svg version="1.1" id="wapuugotchi_svg__item" viewBox="0 0 1e3 1e3" xmlns="http://www.w3.org/2000/svg">
    <g class="Ball--group">
        <ellipse transform="matrix(.7071 -.7071 .7071 .7071 -236.44 487.81)" cx="470.6" cy="529.3" rx="133.5" ry="133.5"/>
        <circle cx="470.6" cy="529.3" r="126.1" fill="#2F39BF"/>
        <path d="m360.5 511.6c-1.1 1-2.8 1.4-4.3 1-3.2-0.9-5-4.1-4.3-7.6s3.6-5.3 6.8-4.4c1.5 0.4 2.9 1.7 3.5 3.2l0.2 0.4c1.1-0.3 1.6-0.4 2.6-0.7-0.1-0.2-0.1-0.3-0.2-0.5-1-2.6-2.9-4.3-5.5-5.1-4.8-1.4-9.1 1.2-10.2 6.2-1 5 1.7 9.7 6.6 11.1 2.6 0.7 4.9 0.2 6.9-1.5 0.1-0.1 0.2-0.2 0.4-0.3-0.8-0.8-1.3-1.2-2.1-2-0.2 0-0.3 0-0.4 0.2z" fill="#fff"/>
        <path d="m370.4 501.3c-1.1-0.3-1.7-0.5-2.8-0.8-1.4 6.7-2.1 10-3.5 16.7 4 1.1 6 1.7 10 2.7 0.2-1.1 0.3-1.6 0.6-2.6-2.9-0.8-4.3-1.2-7.2-2 1.2-5.5 1.8-8.3 2.9-14z" fill="#fff"/>
        <path d="m387 505.4c-4.7-1.2-8.9 1.6-9.9 6.6s1.6 9.6 6.3 10.8 8.9-1.6 10-6.7c1-5-1.7-9.5-6.4-10.7zm-3.1 14.7c-3.2-0.8-4.8-3.8-4-7.4 0.7-3.6 3.4-5.5 6.5-4.7 3.2 0.8 4.8 3.8 4.1 7.4s-3.5 5.5-6.6 4.7z" fill="#fff"/>
        <path d="m406.8 521.1c-0.6 2.8-2.3 4-4.9 3.4s-3.7-2.5-3.1-5.3c0.8-4.1 1.3-6.1 2.1-10.2-1.1-0.3-1.7-0.4-2.8-0.7-0.8 4.1-1.3 6.1-2.1 10.2-0.9 4.4 1.1 7.6 5.4 8.6s7.4-1 8.3-5.4c0.8-4.1 1.3-6.2 2.1-10.3-1.1-0.3-1.7-0.4-2.8-0.6-0.9 4.2-1.3 6.2-2.2 10.3z" fill="#fff"/>
        <path d="m427.9 523.9c1-5-1.8-9.2-6.8-10.3-2.3-0.5-3.5-0.7-5.8-1.2l-3.5 17c2.3 0.5 3.5 0.8 5.8 1.3 5.1 1 9.3-1.8 10.3-6.8zm-9.6 4c-1.2-0.3-1.8-0.4-3-0.6 1-4.7 1.4-7 2.4-11.6 1.2 0.3 1.8 0.4 3 0.6 3.4 0.7 5.1 3.5 4.4 7-0.8 3.4-3.5 5.3-6.8 4.6z" fill="#fff"/>
        <path d="m434.7 534c2.2-4.5 3.3-6.7 5.5-11.2 0.3 5 0.4 7.4 0.7 12.4 1.1 0.2 1.7 0.3 2.8 0.5 3.3-6.5 5-9.8 8.3-16.3-1.3-0.2-1.9-0.3-3.1-0.5-2.3 4.7-3.4 7-5.6 11.7-0.3-5.1-0.5-7.7-0.8-12.8-0.9-0.2-1.4-0.3-2.3-0.4l-5.8 11.6c-0.3-5.1-0.4-7.7-0.7-12.8-1.2-0.2-1.9-0.4-3.1-0.6 0.5 7.2 0.7 10.8 1.2 18 1.2 0.1 1.7 0.2 2.9 0.4z" fill="#fff"/>
        <path d="m460.9 538.7c1.3 0.2 1.9 0.3 3.2 0.5-1.3-7.3-2-11-3.3-18.3-1.2-0.2-1.8-0.3-3-0.5-4.1 6.4-6.1 9.6-10.2 16 1.3 0.2 1.9 0.3 3.2 0.6 0.9-1.4 1.3-2 2.1-3.4 2.9 0.5 4.4 0.7 7.3 1.2 0.3 1.6 0.4 2.4 0.7 3.9zm-1.1-6.7c-2.2-0.4-3.3-0.5-5.4-0.9 1.7-2.7 2.5-4 4.1-6.6 0.6 3 0.8 4.5 1.3 7.5z" fill="#fff"/>
        <path d="m471.9 540.4c0.6-2.9 0.9-4.3 1.5-7.2 3.5-3.6 5.2-5.4 8.7-9.1-1.4-0.2-2-0.3-3.4-0.5-2.5 2.6-3.7 3.9-6.2 6.6-1.3-3.2-1.9-4.8-3.2-7.9-1.4-0.2-2-0.3-3.4-0.5 1.9 4.4 2.8 6.6 4.6 11-0.6 2.9-0.9 4.3-1.5 7.2 1.2 0.2 1.8 0.3 2.9 0.4z" fill="#fff"/>
        <path d="m485.9 539.9c-2.5-0.3-3.8-2.1-4.2-2.8-0.1-0.2-0.2-0.3-0.3-0.5-0.9 0.8-1.3 1.2-2.2 2.1 0.1 0.1 0.1 0.2 0.2 0.3 1.2 2 3.3 3.3 5.9 3.6 4.7 0.6 6.9-1.9 7.4-4.5 0.8-3.8-2.4-5.1-4.8-6.2-2.1-0.9-3.3-1.5-3.1-2.7 0.3-1.3 1.6-2 3.3-1.8 1.2 0.2 2.9 0.7 3.9 2.4 0.1 0.2 0.2 0.3 0.3 0.4 0.9-0.8 1.3-1.2 2.2-2-0.1-0.1-0.1-0.2-0.2-0.3-1.2-1.8-3.1-2.9-5.5-3.2-3.4-0.4-6.4 1.3-6.9 4.2-0.7 3.5 2.2 4.8 4.6 5.8 2.2 1 3.6 1.7 3.3 3.2-0.4 1.2-1.5 2.3-3.9 2z" fill="#fff"/>
        <path d="m419.2 539.9c-0.4-0.1-0.7 0-1 0.2 0.1-0.6 0.2-0.9 0.3-1.6-0.3-0.1-0.4-0.1-0.7-0.2-0.4 1.9-0.6 2.8-1 4.7 0.3 0.1 0.4 0.1 0.7 0.2 0-0.1 0-0.2 0.1-0.3 0.2 0.3 0.5 0.5 0.9 0.6 0.9 0.2 1.7-0.4 1.9-1.5s-0.3-1.9-1.2-2.1zm0.4 2c-0.1 0.7-0.6 1.1-1.2 1-0.3-0.1-0.6-0.3-0.8-0.6 0.1-0.6 0.2-0.9 0.3-1.4 0.2-0.2 0.6-0.3 0.9-0.3 0.7 0 0.9 0.6 0.8 1.3z" fill="#fff"/>
        <path d="m422.2 543.2c-0.2-1.1-0.3-1.6-0.5-2.7-0.3-0.1-0.5-0.1-0.8-0.2 0.3 1.5 0.4 2.2 0.7 3.7-0.1 0.2-0.2 0.2-0.3 0.4s-0.3 0.2-0.4 0.2-0.2-0.1-0.2-0.1l-0.1-0.1c-0.1 0.3-0.2 0.4-0.3 0.7h0.1c0.1 0.1 0.3 0.1 0.4 0.1 0.5 0.1 0.9-0.1 1.2-0.5 1-1.5 1.5-2.3 2.5-3.8-0.3-0.1-0.5-0.1-0.8-0.2-0.6 1.1-0.9 1.6-1.5 2.5z" fill="#fff"/>
        <path d="m483.6 549c-0.4-0.4-0.9-0.7-1.6-0.8-0.5-0.1-0.9 0-1.4 0.1-0.4 0.1-0.8 0.4-1.1 0.8 0.3 0.4 0.4 0.6 0.7 1 0.5-0.6 1-0.7 1.5-0.6 0.3 0 0.5 0.2 0.7 0.3 0.2 0.2 0.2 0.4 0.2 0.7 0 0.1 0 0.2-0.1 0.3-0.3-0.1-0.7-0.3-1-0.3-0.7-0.1-1.3 0-1.8 0.3s-0.8 0.7-0.9 1.3c-0.1 0.5 0 1 0.3 1.4s0.7 0.6 1.3 0.7c0.5 0.1 1.1-0.1 1.6-0.4 0 0.2-0.1 0.3-0.1 0.5 0.6 0.1 0.8 0.1 1.4 0.2 0.3-1.5 0.4-2.2 0.7-3.7 0.1-0.8-0.1-1.4-0.4-1.8zm-1.5 3.6c-0.4 0.2-0.8 0.3-1.3 0.3-0.2 0-0.4-0.1-0.5-0.2s-0.2-0.3-0.1-0.4c0-0.2 0.1-0.3 0.3-0.4s0.4-0.1 0.7-0.1c0.4 0.1 0.7 0.2 1 0.4 0 0-0.1 0.1-0.1 0.4z" fill="#fff"/>
        <path d="m489.6 549.9c-0.3-0.5-0.8-0.8-1.5-0.9-0.6-0.1-1.1 0-1.4 0.3 0-0.1 0-0.2 0.1-0.4-0.6-0.1-0.8-0.1-1.4-0.2-0.5 2.3-0.7 3.5-1.1 5.8 0.6 0.1 0.8 0.1 1.4 0.2 0.3-1.3 0.4-1.9 0.6-3.2 0.1-0.4 0.3-0.8 0.5-1s0.6-0.3 0.9-0.3 0.5 0.2 0.7 0.4c0.1 0.2 0.2 0.6 0.1 0.9-0.3 1.3-0.4 2-0.7 3.3 0.6 0.1 0.8 0.1 1.4 0.2 0.3-1.3 0.4-2 0.7-3.3 0.1-0.7 0.1-1.3-0.3-1.8z" fill="#fff"/>
        <path d="m478.1 548.6c-0.1-0.3-0.4-0.6-0.7-0.8s-0.7-0.4-1.1-0.4c-0.8-0.1-1.5 0.1-2.1 0.6s-1 1.2-1.1 2c-0.2 0.9-0.1 1.6 0.3 2.2s1 1 1.9 1.1c1 0.1 1.8-0.1 2.5-0.8-0.3-0.4-0.4-0.6-0.7-1-0.1 0.1-0.3 0.2-0.4 0.3-0.2 0.1-0.3 0.2-0.5 0.2-0.2 0.1-0.5 0.1-0.7 0.1-0.4-0.1-0.7-0.2-0.9-0.5s-0.3-0.6-0.2-0.9c1.5 0.2 2.2 0.3 3.7 0.5 0-0.2 0.1-0.3 0.1-0.5 0.1-0.4 0.1-0.7 0.1-1.1s-0.1-0.7-0.2-1zm-3.3 0.9c0.1-0.3 0.3-0.5 0.5-0.6 0.2-0.2 0.5-0.2 0.8-0.2s0.6 0.2 0.7 0.4 0.2 0.4 0.1 0.7c-0.8-0.1-1.3-0.2-2.1-0.3z" fill="#fff"/>
        <polygon points="471.8 550.6 471.8 550.6" fill="#fff"/>
        <path d="m433.4 538.6c-0.7-0.7-1.6-1.2-2.7-1.4l-2.5-0.5c-0.7 3.2-1 4.8-1.6 8l2.5 0.5c1.1 0.2 2.2 0.1 3.1-0.3 0.5-0.2 0.9-0.6 1.3-1.1 0.3-0.5 0.6-1.1 0.7-1.8s0.2-1.4 0-1.9c-0.1-0.6-0.4-1.1-0.8-1.5zm-2.1 5.1c-0.6 0.2-1.3 0.3-2.2 0.1-0.3-0.1-0.5-0.1-0.8-0.2 0.4-2.1 0.7-3.2 1.1-5.3 0.3 0.1 0.5 0.1 0.8 0.2 0.9 0.2 1.5 0.5 2 0.9 0.5 0.5 0.7 1.3 0.5 2.3-0.2 1.1-0.7 1.7-1.4 2z" fill="#fff"/>
        <path d="m449.3 541.6c-0.5-0.1-0.8-0.1-1.4-0.2-0.1 0.6-0.2 0.9-0.3 1.5-0.3-0.1-0.5-0.1-0.8-0.1-0.1 0.5-0.2 0.8-0.3 1.3 0.3 0.1 0.5 0.1 0.8 0.1-0.2 0.9-0.3 1.4-0.5 2.4-0.1 0.7-0.1 1.3 0.1 1.6 0.2 0.4 0.7 0.6 1.4 0.7 0.2 0 0.5 0.1 0.7 0.1h0.1c0.1-0.5 0.2-0.8 0.3-1.3-0.2 0-0.3 0-0.5-0.1-0.3-0.1-0.5-0.2-0.6-0.3s-0.1-0.4 0-0.8c0.2-0.9 0.3-1.3 0.4-2.2 0.5 0.1 0.8 0.1 1.3 0.2 0.1-0.5 0.2-0.8 0.3-1.3-0.5-0.1-0.8-0.1-1.3-0.2 0.1-0.5 0.2-0.8 0.3-1.4z" fill="#fff"/>
        <path d="m455.7 550.2c0.6 0.1 0.8 0.1 1.4 0.2 0.7-3.2 1-4.9 1.6-8.1-0.6-0.1-0.8-0.1-1.4-0.2-0.6 3.2-0.9 4.8-1.6 8.1z" fill="#fff"/>
        <path d="m445.8 539.9c-0.2 0-0.5 0-0.7 0.1s-0.3 0.3-0.4 0.6c-0.1 0.2 0 0.5 0.1 0.7s0.3 0.3 0.6 0.4c0.2 0 0.5 0 0.7-0.1s0.3-0.3 0.4-0.6 0-0.5-0.1-0.7c-0.2-0.2-0.4-0.3-0.6-0.4z" fill="#fff"/>
        <path d="m455 544.6c-0.4-0.4-0.9-0.7-1.6-0.9-0.5-0.1-0.9-0.1-1.4 0.1-0.4 0.1-0.8 0.4-1.1 0.8 0.3 0.4 0.4 0.6 0.7 1 0.5-0.5 1-0.7 1.5-0.6 0.3 0.1 0.5 0.2 0.7 0.4 0.1 0.2 0.2 0.4 0.2 0.7 0 0.1 0 0.2-0.1 0.3-0.3-0.2-0.7-0.3-1-0.3-0.7-0.1-1.3-0.1-1.8 0.2s-0.8 0.7-0.9 1.3c-0.1 0.5 0 1 0.3 1.4s0.7 0.6 1.3 0.7c0.5 0.1 1.1 0 1.6-0.3 0 0.2-0.1 0.3-0.1 0.5 0.5 0.1 0.8 0.1 1.4 0.2 0.3-1.5 0.4-2.2 0.7-3.7 0.1-0.8 0-1.4-0.4-1.8zm-1.4 3.5c-0.4 0.2-0.8 0.3-1.3 0.2-0.2 0-0.4-0.1-0.5-0.3-0.1-0.1-0.1-0.3-0.1-0.5s0.1-0.3 0.3-0.4 0.4-0.1 0.7-0.1c0.4 0.1 0.7 0.2 1 0.4-0.1 0.4-0.1 0.5-0.1 0.7z" fill="#fff"/>
        <path d="m470.9 551.2c-0.2 0.1-0.5 0.1-0.8 0.1-0.4-0.1-0.7-0.3-0.9-0.6-0.2-0.4-0.3-0.8-0.2-1.3s0.3-0.9 0.6-1.1c0.3-0.3 0.7-0.4 1.1-0.3 0.5 0.1 0.9 0.4 1.2 1 0.4-0.3 0.7-0.5 1.1-0.8-0.4-0.9-1.1-1.4-2.1-1.5-0.8-0.1-1.5 0.1-2.2 0.6s-1.1 1.1-1.2 2c-0.2 0.9 0 1.6 0.4 2.3 0.4 0.6 1 1 1.8 1.2 1 0.2 1.9-0.2 2.7-0.9-0.3-0.4-0.5-0.6-0.8-1-0.2 0-0.5 0.2-0.7 0.3z" fill="#fff"/>
        <path d="m463.9 543c-2.2-0.4-4.5 1.2-4.9 3.5-0.5 2.3 1 4.5 3.2 4.8 2.3 0.4 4.5-1.2 4.9-3.5 0.5-2.3-1-4.4-3.2-4.8zm-1.4 6.9c-1.5-0.2-2.4-1.6-2.1-3.1s1.7-2.5 3.2-2.3 2.4 1.6 2.1 3.1-1.7 2.5-3.2 2.3z" fill="#fff"/>
        <path d="m434.4 546.3c0.6 0.1 0.8 0.2 1.4 0.3 0.5-2.3 0.7-3.4 1.2-5.7-0.6-0.1-0.8-0.2-1.4-0.3-0.5 2.3-0.8 3.4-1.2 5.7z" fill="#fff"/>
        <path d="m441.9 542.3c-0.3-0.5-0.8-0.8-1.3-0.9-0.8-0.1-1.5 0-2.1 0.5-0.6 0.4-1 1.1-1.2 1.9s-0.1 1.5 0.3 2.2c0.4 0.6 1 1 1.7 1.2 0.5 0.1 1 0 1.5-0.2v0.1c-0.1 0.5-0.3 0.8-0.6 1s-0.7 0.3-1.1 0.2c-0.7-0.1-1-0.5-1.4-1.2-0.5 0.3-0.7 0.5-1.1 0.8 0.2 0.3 0.4 0.7 0.8 1s0.9 0.6 1.5 0.7c0.8 0.2 1.6 0 2.1-0.4 0.6-0.4 1-1.1 1.2-1.9 0.4-2.1 0.6-3.1 1-5.2-0.5-0.1-0.8-0.2-1.4-0.3 0.1 0.2 0.1 0.3 0.1 0.5zm-1.1 3.3c-0.3 0.2-0.6 0.3-1 0.2s-0.7-0.3-0.9-0.6-0.2-0.7-0.1-1.2 0.3-0.8 0.6-1 0.6-0.3 1-0.2 0.7 0.3 0.9 0.6 0.2 0.7 0.1 1.2c-0.1 0.4-0.3 0.8-0.6 1z" fill="#fff"/>
        <path d="m436.7 538.3c-0.2 0-0.5 0-0.7 0.1s-0.3 0.3-0.4 0.6c-0.1 0.2 0 0.5 0.1 0.7s0.3 0.3 0.6 0.4 0.5 0 0.7-0.1 0.3-0.3 0.4-0.6 0-0.5-0.1-0.7c-0.1-0.3-0.3-0.4-0.6-0.4z" fill="#fff"/>
        <path d="m443.4 548c0.6 0.1 0.8 0.2 1.4 0.3 0.5-2.3 0.7-3.4 1.2-5.7-0.6-0.1-0.8-0.2-1.4-0.3-0.5 2.3-0.7 3.4-1.2 5.7z" fill="#fff"/>
        <path d="m446.9 507.1c0.5 0.2 1.1 0.3 1.7 0.4 8.1 1.4 16.1-4.3 17.7-12.7 1.4-6.9-1.9-13.4-7.7-16.2 0.1-7.9-5.2-14.7-13-16.1-3.1-0.5-6.1-0.2-8.9 0.9-10.6-2-15.9-3.1-26.4-5.4-0.1 0-0.2-0.1-0.3-0.1-1.1-0.2-2.1 0.5-2.3 1.5s0.5 2.2 1.5 2.4h0.3c8.8 2 13.2 2.9 22.1 4.6-1.5 1.3-2.7 2.8-3.6 4.6-9.5-1.9-14.2-2.9-23.6-5.1-1.1-0.2-2.1 0.4-2.3 1.5s0.4 2.2 1.5 2.4c7.7 1.8 11.6 2.6 19.3 4.2-2.1 1-4 2.4-5.5 4.2-10-2.1-14.9-3.3-24.9-5.7-1.1-0.3-2.1 0.4-2.3 1.5s0.4 2.2 1.5 2.4c9.3 2.3 14 3.4 23.4 5.4-0.4 1-0.8 2-1 3.1-0.1 0.7-0.2 1.3-0.3 2-0.8-0.2-1.1-0.2-1.9-0.4-1.1-0.2-2.1 0.5-2.3 1.5-0.2 1.1 0.5 2.2 1.5 2.4 1.2 0.3 1.8 0.4 2.9 0.6 0.4 2.1 1.3 4.1 2.5 5.9-6.4-1.4-9.6-2.1-16-3.6-1.1-0.2-2.1 0.4-2.3 1.5s0.5 2.2 1.5 2.4c15.6 3.6 31.2 6.9 47 9.7 0.1 0.3 0.1 0.2 0.2 0.2z" fill="#fff"/>
        <path d="m403.9 489c1.1 0.2 2.1-0.4 2.3-1.5s-0.5-2.2-1.5-2.4c-5.4-1.2-8.1-1.9-13.5-3.2-1.1-0.3-2.1 0.4-2.3 1.5s0.4 2.2 1.5 2.4c5.4 1.3 8.1 2 13.5 3.2z" fill="#fff"/>
    </g>
</svg>
