<svg version="1.1" id="Layer_1" xmlns="http://www.w3.org/2000/svg" viewBox="0 0 1e3 1e3">
	<g class="Body--group">
		<path d="M436.6 504c-4.5 5.1-10.5 7.9-17 7.9-9.1 0-18.5-5.5-24.4-14.4-7.8-11.6-15.5-21.2-22.3-27.9l-4.8-4.7c-2-2-1.1-5.3 1.6-6.1l6.5-1.7c3.2-.9 6.4-2.7 9.1-5.5 3-3 4.8-6.7 5.2-10.4V430c0-1.3 1.5-2.1 2.5-1.3l9.3 6.9c.7.5 1.7 1.1 2.9 1.7 10.2 4.9 31.7 27.4 35.7 46.7 2.1 10.1-1.2 16.5-4.3 20z"/>
		<path fill="#165260" d="M402.1 444.1c-1.5-.7-2.9-1.5-4.2-2.4-.5 5.5-3 11-7.3 15.3-3.7 3.7-8.1 6.2-12.5 7.4 8.7 8.6 17 19.8 23.2 29.1 4.5 6.7 11.6 11.1 18.3 11.1 4.1 0 8.1-1.6 11.4-5.4 13-14.8-17.3-49.6-28.9-55.1z"/>
		<path d="M548 408c.9 1.5 1.6 3.5 2.2 6 .2.8.4 1.7.6 2.7.5 3 .9 6.6 1 10.9.3 9.7-2.1 17.2-5.5 22.3-1.7 2.6-3.7 4.6-5.8 5.9-.2.2-.5.2-.8.2h-.3c-2.8-.5-5.8-.7-8.7-.7 0 0 2.4 6.5 7.5 8 .2.1.4.1.6.1.2.1.4.1.6.1 26.6 2.7 49.6 5.1 67.9 40.5.7 1.3 2 2 3.3 2 .6 0 1.2-.1 1.7-.4 1.8-.9 2.5-3.2 1.6-5-17.6-34.2-40.7-40.5-63.9-43.4.9-1 1.7-2.1 2.5-3.2 3.3-4.9 7.2-13.6 6.8-26.6-.1-4.5-.5-8.5-1.2-12-.1-.3-.1-.6-.2-.9 6.3.7 13.5 1.1 21.5 1.1 19.8 0 40.6-2.3 52.2-4.3 8.5 29.7 18.9 83.9 8.4 150.4-9.4-7.7-24.1-14.8-44.1-21.1-30.5-9.6-70.8-16.8-119.9-21.3-16-1.5-30.8-2.2-44-2.2-15.2 0-34.3 1-48.1 5.2 1.5-4.3 3.7-9.5 5.5-13.8 7.4-17.6 17.3-41.2 18.2-67l3 .3c9.3 1.1 19.6 2.3 30.7 3.1l7.4.5c-.1-1.7 0-3.5.5-5.5.3-1-.4-1.9-1.4-2-17.4-1.1-33.6-3.2-45.9-4.6h-.2c-.9 0-1.6.7-1.6 1.6 1.3 44.5-28.9 84.7-25.3 97.1.2.7.8 1.1 1.5 1.1.3 0 .6-.1.9-.2 8.2-5.1 26.3-8.6 54.7-8.6 12.5 0 26.9.7 43.3 2.2 104 9.6 155.8 30.3 167 48.4.3.5.8.8 1.4.8.7 0 1.4-.5 1.6-1.3 13-68 4.6-129.1-8.1-170.5-.2-.7-.8-1.1-1.5-1.1h-.4c-9 2.1-33.1 5.2-55.9 5.2-10.8 0-21.4-.7-29.8-2.6-1.7-.4-3.4.8-3.8 1.7-.2 1.2 2.3.9 2.3.9z"/>
		<path fill="#165260" d="m448.9 445.6-7.4-.5c-11.1-.8-21.4-2-30.7-3.1l-3-.3c-.9 25.8-10.8 49.4-18.2 67-1.8 4.3-4 9.5-5.5 13.8 13.8-4.2 32.9-5.2 48.1-5.2 13.2 0 28 .7 44 2.2 49.1 4.5 89.4 11.7 119.9 21.3 20 6.3 34.7 13.4 44.1 21.1 10.5-66.5.1-120.7-8.4-150.4-11.6 2-32.4 4.3-52.2 4.3-8 0-15.2-.4-21.5-1.1.1.3.1.6.2.9.6 3.5 1 7.5 1.2 12 .4 13-3.5 21.7-6.8 26.6-.8 1.2-1.6 2.2-2.5 3.2 23.2 2.9 46.3 9.2 63.9 43.4.9 1.8.2 4-1.6 5-.5.3-1.1.4-1.7.4-1.3 0-2.6-.7-3.3-2-18.3-35.4-41.3-37.8-67.9-40.5-.2 0-.4-.1-.6-.1s-.4 0-.6-.1c-5.1-1.5-7.5-7.8-7.5-8-10.6 0-22.1 2.5-32.5 4.9-10.5 2.3-19.6 4.3-26.7 3.6-10.8-1.2-19.4-6.9-21.9-14.6-.4-1.1-.6-2.4-.7-3.9-.2-.1-.2 0-.2.1z"/>
		<path fill="#FFB199" d="m475 463.9-11.9 8.6-11.8-12-15.7 11.3 23.7 24.1 31.2-22.7-9.6-9.8c-2 .3-4 .5-5.9.5z"/>
		<g fill="#fff">
			<path d="M410 497.2c.7-.1 2-.3 3.1-.2 1.6 0 2.5.2 3.2.8.7.4 1 1.2.8 2.2s-1 2.1-2.3 2.5c1.2.4 2.2 1.3 1.8 2.9-.2 1-.8 1.9-1.5 2.4-1 .7-2.3 1.1-4.4 1.1-1.2 0-2-.1-2.5-.2.8-4.6 1.1-6.9 1.8-11.5zm1.5 4.7h1.1c1.5 0 2.4-.7 2.5-1.6.2-1.1-.6-1.6-1.9-1.6H412c-.3 1.2-.3 1.9-.5 3.2zm-.9 5.3c.3.1.6.1 1.1.1 1.4 0 2.6-.5 2.8-1.9.2-1.3-.9-1.9-2.3-2h-1.1c-.1 1.5-.2 2.3-.5 3.8zM425.6 506.3c-.2 1-.3 1.8-.4 2.6-.7 0-1.1 0-1.9-.1 0-.5.1-.7.1-1.2-.5.6-1.5 1.5-2.9 1.4-1.5-.1-2.7-.9-2.3-3.7.3-2 .5-2.9.8-4.9h2.1c-.3 1.8-.5 2.7-.8 4.5-.3 1.4.1 2.2 1.2 2.3.8 0 1.4-.5 1.8-1.1.2-.2.2-.4.3-.6.3-2 .5-3 .8-5 .8 0 1.2 0 2.1.1-.4 2.3-.5 3.4-.9 5.7zM431.4 498.3c-.1.6-.7 1.1-1.4 1.1s-1.1-.5-1-1.2c.1-.6.7-1.1 1.4-1.1s1 .6 1 1.2zm-4.1 10.6c.6-3.4.9-5 1.5-8.4.8 0 1.2 0 2.1.1-.6 3.3-.9 5-1.5 8.4-.9 0-1.3 0-2.1-.1zM433.7 496.8c.8 0 1.2 0 2.1.1-.9 4.9-1.3 7.3-2.2 12.1-.8 0-1.2 0-2-.1.8-4.8 1.2-7.2 2.1-12.1zM445.6 497.3c-.8 3.9-1.1 5.9-1.9 9.8-.1.8-.3 1.7-.4 2.3-.7 0-1.1-.1-1.8-.1.1-.5.1-.8.2-1.3-.7.9-1.8 1.4-3 1.4-1.9-.1-3.2-1.8-2.7-4.4.5-2.8 2.5-4.4 4.5-4.3 1.2 0 1.9.5 2.1 1.2.3-1.9.5-2.8.9-4.7.8.1 1.2.1 2.1.1zm-3.5 7.2c.1-.2 0-.4 0-.5-.1-.8-.6-1.5-1.5-1.5-1.4-.1-2.3 1.1-2.6 2.7-.3 1.5.2 2.6 1.6 2.7.9 0 1.7-.5 2.1-1.4.1-.2.1-.4.2-.6 0-.6.1-.8.2-1.4zM451.6 501.4c.1 1.5.1 2.3.2 3.8v2.7c.4-.9.9-1.8 1.2-2.6.7-1.5 1.1-2.2 1.9-3.7.7.1 1 .1 1.7.1.1 1.5.1 2.3.2 3.8.1 1 .1 1.9 0 2.9.3-.9.7-1.8 1.1-2.7.7-1.5 1-2.2 1.7-3.6.8.1 1.2.1 2.1.2-1.8 3.3-2.6 4.9-4.4 8.1-.8-.1-1.2-.1-1.9-.1-.1-1.4-.1-2.1-.2-3.5 0-.9-.1-1.6-.1-2.6-.4 1-.8 1.8-1.2 2.6-.7 1.3-1 2-1.7 3.3-.8-.1-1.2-.1-1.9-.1-.3-3.4-.4-5.1-.7-8.5.7-.1 1.1-.1 2-.1zM465.6 500c-.1.6-.8 1.1-1.5 1.1s-1-.5-.9-1.3c.1-.6.8-1.1 1.5-1.1.7.1 1 .6.9 1.3zm-4.5 10.4c.7-3.3 1.1-5 1.8-8.3.8.1 1.2.1 2.1.2-.8 3.3-1.1 5-1.9 8.3-.8-.1-1.2-.1-2-.2zM470 500.5c-.2.8-.3 1.3-.5 2.1.8.1 1.2.1 2 .2-.1.6-.2.9-.3 1.5-.8-.1-1.2-.1-2-.2-.3 1.5-.5 2.2-.8 3.6-.2 1-.1 1.5.7 1.7.4 0 .6 0 .8-.1-.1.6-.2 1-.3 1.6-.3.1-.9.2-1.5.1-.8 0-1.4-.4-1.6-.9-.3-.5-.4-1.2-.1-2.3.3-1.5.5-2.3.9-3.8h-1.2c.1-.6.2-.9.3-1.5h1.2c.1-.6.2-.9.3-1.5.7-.2 1.2-.3 2.1-.5zM473.8 499.1c.8.1 1.2.1 2.1.2-.5 2-.7 3-1.2 4.9.3-.4.8-.7 1.3-.9s1-.3 1.5-.2c1.4.2 2.6 1.2 2 3.9-.5 1.9-.7 2.9-1.2 4.8-.8-.1-1.2-.1-2-.2.4-1.9.6-2.8 1.1-4.6.3-1.2 0-2.1-1.1-2.2-.8 0-1.6.4-1.9 1-.2.2-.1.4-.2.6-.5 2-.7 3-1.2 4.9-.8-.1-1.2-.1-2-.2 1.1-4.7 1.7-7.1 2.8-12zM486.7 500.4c.8.1 1.2.1 2.1.2-.5 2-.8 3-1.3 4.9.3-.4.8-.7 1.3-.8.5-.2 1-.2 1.5-.2 1.4.2 2.6 1.2 1.9 3.9-.5 1.9-.7 2.9-1.2 4.8-.8-.1-1.2-.1-2-.2.5-1.8.7-2.8 1.2-4.6.3-1.2.1-2.1-1-2.2-.8-.1-1.6.4-1.9 1-.2.2-.1.4-.2.6-.5 2-.8 3-1.2 4.9-.8-.1-1.2-.1-2-.2 1-4.8 1.6-7.2 2.8-12.1zM495.4 510c-.4 1.5.7 2.3 1.9 2.4 1 .1 1.7 0 2.4-.1v1.4c-.8.2-1.9.4-3 .2-2.6-.3-3.8-2.1-3.1-4.6.6-2.3 2.6-4.2 5.2-3.9 2.7.3 3 2.6 2.4 4.4-.2.4-.3.7-.3.9-2.2-.3-3.3-.4-5.5-.7zm4.1-1c.2-.8.3-2-1.1-2.2-1.3-.2-2.2 1-2.5 1.7 1.4.2 2.1.3 3.6.5zM508.4 513.3c-.2.7-.4 1.5-.5 2-.7-.1-1.1-.2-1.8-.3.1-.4.1-.5.1-.9h-.1c-.7.5-1.7.9-2.7.8-1.6-.2-2.3-1.5-1.9-2.7.6-2.1 2.7-2.8 5.7-2.5v-.1c.1-.5.1-1.4-1.3-1.7-.8-.1-1.8 0-2.4.3 0-.6 0-.9-.1-1.4.7-.2 1.9-.6 3.2-.3 2.6.3 2.9 2.1 2.4 3.9-.1 1.1-.3 1.7-.6 2.9zM507 511c-1.4-.2-2.9-.1-3.3 1.1-.2.8.2 1.2.8 1.3.8.1 1.6-.4 1.9-1 0-.1.1-.3.2-.5.1-.3.2-.5.4-.9zM511.5 510c.3-1.1.5-1.9.7-2.6.7.1 1.1.2 1.8.3-.2.6-.3 1-.4 1.6h.1c.7-1.1 1.9-1.6 2.7-1.5.2 0 .3 0 .5.1-.2.8-.3 1.1-.6 1.9-.2 0-.4-.1-.6-.2-1-.1-1.8.4-2.3 1.3-.1.2-.2.4-.2.6-.5 1.7-.8 2.5-1.2 4.2-.8-.1-1.2-.2-2-.3.6-2.1.9-3.2 1.5-5.4zM521.5 506.5c-.3.8-.4 1.2-.7 2.1.8.1 1.2.2 1.9.3-.2.6-.2.9-.4 1.5-.8-.1-1.2-.2-1.9-.3-.4 1.4-.6 2.1-1.1 3.6-.3 1-.2 1.5.5 1.7.4 0 .6.1.8 0-.2.6-.3 1-.4 1.6-.3.1-.9.1-1.5 0-.8-.1-1.3-.5-1.5-1-.3-.5-.3-1.3 0-2.4.4-1.5.7-2.3 1.1-3.8-.5-.1-.7-.1-1.2-.1.2-.6.2-.9.4-1.5.5.1.7.1 1.2.1.2-.6.2-.9.4-1.5 1-.1 1.5-.1 2.4-.3z"/>
		</g>
	</g>
	<g class="LeftArm--group"> </g>
</svg>
