<?xml version="1.0" encoding="utf-8"?>
<!-- Generator: Adobe Illustrator 25.2.0, SVG Export Plug-In . SVG Version: 6.00 Build 0)  -->
<svg version="1.1" id="Layer_1" xmlns="http://www.w3.org/2000/svg" xmlns:xlink="http://www.w3.org/1999/xlink" x="0px" y="0px"
	 viewBox="0 0 1000 1000" style="enable-background:new 0 0 1000 1000;" xml:space="preserve">
<style type="text/css">
	.st0{fill:#165260;}
	.st1{fill:#FFB199;}
	.st2{fill:#FFFFFF;}
</style>
<g id="Coat--group">
	<g id="RightSleeve--group">
		<path id="RightSleeve--bg" d="M436.6,504c-4.5,5.1-10.5,7.9-17,7.9c-9.1,0-18.5-5.5-24.4-14.4c-7.8-11.6-15.5-21.2-22.3-27.9
			l-4.8-4.7c-2-2-1.1-5.3,1.6-6.1l6.5-1.7c3.2-0.9,6.4-2.7,9.1-5.5c3-3,4.8-6.7,5.2-10.4V430c0-1.3,1.5-2.1,2.5-1.3l9.3,6.9
			c0.7,0.5,1.7,1.1,2.9,1.7c10.2,4.9,31.7,27.4,35.7,46.7C443,494.1,439.7,500.5,436.6,504z"/>
		<path id="RightSleeve" class="st0" d="M402.1,444.1c-1.5-0.7-2.9-1.5-4.2-2.4l0,0c-0.5,5.5-3,11-7.3,15.3
			c-3.7,3.7-8.1,6.2-12.5,7.4c8.7,8.6,17,19.8,23.2,29.1c4.5,6.7,11.6,11.1,18.3,11.1c4.1,0,8.1-1.6,11.4-5.4
			C444,484.4,413.7,449.6,402.1,444.1z"/>
	</g>
	<g id="Schirt--group">
		<path id="Shirt--bg" d="M548,408c0.9,1.5,1.6,3.5,2.2,6c0.2,0.8,0.4,1.7,0.6,2.7c0.5,3,0.9,6.6,1,10.9c0.3,9.7-2.1,17.2-5.5,22.3
			c-1.7,2.6-3.7,4.6-5.8,5.9c-0.2,0.2-0.5,0.2-0.8,0.2c-0.1,0-0.2,0-0.3,0c-2.8-0.5-5.8-0.7-8.7-0.7c0,0,2.4,6.5,7.5,8
			c0.2,0.1,0.4,0.1,0.6,0.1c0.2,0.1,0.4,0.1,0.6,0.1c26.6,2.7,49.6,5.1,67.9,40.5c0.7,1.3,2,2,3.3,2c0.6,0,1.2-0.1,1.7-0.4
			c1.8-0.9,2.5-3.2,1.6-5c-17.6-34.2-40.7-40.5-63.9-43.4c0.9-1,1.7-2.1,2.5-3.2c3.3-4.9,7.2-13.6,6.8-26.6c-0.1-4.5-0.5-8.5-1.2-12
			c-0.1-0.3-0.1-0.6-0.2-0.9c6.3,0.7,13.5,1.1,21.5,1.1c19.8,0,40.6-2.3,52.2-4.3c8.5,29.7,18.9,83.9,8.4,150.4
			c-9.4-7.7-24.1-14.8-44.1-21.1c-30.5-9.6-70.8-16.8-119.9-21.3c-16-1.5-30.8-2.2-44-2.2c-15.2,0-34.3,1-48.1,5.2
			c1.5-4.3,3.7-9.5,5.5-13.8c7.4-17.6,17.3-41.2,18.2-67c1,0.1,2,0.2,3,0.3c9.3,1.1,19.6,2.3,30.7,3.1l7.4,0.5
			c-0.1-1.7,0-3.5,0.5-5.5c0.3-1-0.4-1.9-1.4-2c-17.4-1.1-33.6-3.2-45.9-4.6c-0.1,0-0.1,0-0.2,0c-0.9,0-1.6,0.7-1.6,1.6
			c1.3,44.5-28.9,84.7-25.3,97.1c0.2,0.7,0.8,1.1,1.5,1.1c0.3,0,0.6-0.1,0.9-0.2c8.2-5.1,26.3-8.6,54.7-8.6
			c12.5,0,26.9,0.7,43.3,2.2c104,9.6,155.8,30.3,167,48.4c0.3,0.5,0.8,0.8,1.4,0.8c0.7,0,1.4-0.5,1.6-1.3c13-68,4.6-129.1-8.1-170.5
			c-0.2-0.7-0.8-1.1-1.5-1.1c-0.1,0-0.2,0-0.4,0c-9,2.1-33.1,5.2-55.9,5.2c-10.8,0-21.4-0.7-29.8-2.6c-1.7-0.4-3.4,0.8-3.8,1.7
			C545.5,408.3,548,408,548,408z"/>
		<g id="Shirt">
			<path class="st0" d="M448.9,445.6l-7.4-0.5c-11.1-0.8-21.4-2-30.7-3.1c-1-0.1-2-0.2-3-0.3c-0.9,25.8-10.8,49.4-18.2,67
				c-1.8,4.3-4,9.5-5.5,13.8c13.8-4.2,32.9-5.2,48.1-5.2c13.2,0,28,0.7,44,2.2c49.1,4.5,89.4,11.7,119.9,21.3
				c20,6.3,34.7,13.4,44.1,21.1c10.5-66.5,0.1-120.7-8.4-150.4c-11.6,2-32.4,4.3-52.2,4.3c-8,0-15.2-0.4-21.5-1.1
				c0.1,0.3,0.1,0.6,0.2,0.9c0.6,3.5,1,7.5,1.2,12c0.4,13-3.5,21.7-6.8,26.6c-0.8,1.2-1.6,2.2-2.5,3.2c23.2,2.9,46.3,9.2,63.9,43.4
				c0.9,1.8,0.2,4-1.6,5c-0.5,0.3-1.1,0.4-1.7,0.4c-1.3,0-2.6-0.7-3.3-2c-18.3-35.4-41.3-37.8-67.9-40.5c-0.2,0-0.4-0.1-0.6-0.1
				c-0.2,0-0.4,0-0.6-0.1c-5.1-1.5-7.5-7.8-7.5-8c-10.6,0-22.1,2.5-32.5,4.9c-10.5,2.3-19.6,4.3-26.7,3.6
				c-10.8-1.2-19.4-6.9-21.9-14.6c-0.4-1.1-0.6-2.4-0.7-3.9C448.9,445.4,448.9,445.5,448.9,445.6z"/>
		</g>
	</g>
</g>
<g id="BuildWithHeart--group">
	<path id="Heart" class="st1" d="M475,463.9l-11.9,8.6l-11.8-12l-15.7,11.3l23.7,24.1l31.2-22.7l-9.6-9.8
		C478.9,463.7,476.9,463.9,475,463.9z"/>
	<g id="BuildWithHeart">
		<path class="st2" d="M410,497.2c0.7-0.1,2-0.3,3.1-0.2c1.6,0,2.5,0.2,3.2,0.8c0.7,0.4,1,1.2,0.8,2.2c-0.2,1-1,2.1-2.3,2.5l0,0
			c1.2,0.4,2.2,1.3,1.8,2.9c-0.2,1-0.8,1.9-1.5,2.4c-1,0.7-2.3,1.1-4.4,1.1c-1.2,0-2-0.1-2.5-0.2C409,504.1,409.3,501.8,410,497.2z
			 M411.5,501.9c0.4,0,0.7,0,1.1,0c1.5,0,2.4-0.7,2.5-1.6c0.2-1.1-0.6-1.6-1.9-1.6c-0.6,0-1,0-1.2,0
			C411.7,499.9,411.7,500.6,411.5,501.9z M410.6,507.2c0.3,0.1,0.6,0.1,1.1,0.1c1.4,0,2.6-0.5,2.8-1.9c0.2-1.3-0.9-1.9-2.3-2
			c-0.4,0-0.7,0-1.1,0C411,504.9,410.9,505.7,410.6,507.2z"/>
		<path class="st2" d="M425.6,506.3c-0.2,1-0.3,1.8-0.4,2.6c-0.7,0-1.1,0-1.9-0.1c0-0.5,0.1-0.7,0.1-1.2l0,0
			c-0.5,0.6-1.5,1.5-2.9,1.4c-1.5-0.1-2.7-0.9-2.3-3.7c0.3-2,0.5-2.9,0.8-4.9c0.8,0,1.2,0,2.1,0c-0.3,1.8-0.5,2.7-0.8,4.5
			c-0.3,1.4,0.1,2.2,1.2,2.3c0.8,0,1.4-0.5,1.8-1.1c0.2-0.2,0.2-0.4,0.3-0.6c0.3-2,0.5-3,0.8-5c0.8,0,1.2,0,2.1,0.1
			C426.1,502.9,426,504,425.6,506.3z"/>
		<path class="st2" d="M431.4,498.3c-0.1,0.6-0.7,1.1-1.4,1.1s-1.1-0.5-1-1.2c0.1-0.6,0.7-1.1,1.4-1.1
			C431.1,497.1,431.4,497.7,431.4,498.3z M427.3,508.9c0.6-3.4,0.9-5,1.5-8.4c0.8,0,1.2,0,2.1,0.1c-0.6,3.3-0.9,5-1.5,8.4
			C428.5,509,428.1,509,427.3,508.9z"/>
		<path class="st2" d="M433.7,496.8c0.8,0,1.2,0,2.1,0.1c-0.9,4.9-1.3,7.3-2.2,12.1c-0.8,0-1.2,0-2-0.1
			C432.4,504.1,432.8,501.7,433.7,496.8z"/>
		<path class="st2" d="M445.6,497.3c-0.8,3.9-1.1,5.9-1.9,9.8c-0.1,0.8-0.3,1.7-0.4,2.3c-0.7,0-1.1-0.1-1.8-0.1
			c0.1-0.5,0.1-0.8,0.2-1.3l0,0c-0.7,0.9-1.8,1.4-3,1.4c-1.9-0.1-3.2-1.8-2.7-4.4c0.5-2.8,2.5-4.4,4.5-4.3c1.2,0,1.9,0.5,2.1,1.2
			l0,0c0.3-1.9,0.5-2.8,0.9-4.7C444.3,497.3,444.7,497.3,445.6,497.3z M442.1,504.5c0.1-0.2,0-0.4,0-0.5c-0.1-0.8-0.6-1.5-1.5-1.5
			c-1.4-0.1-2.3,1.1-2.6,2.7c-0.3,1.5,0.2,2.6,1.6,2.7c0.9,0,1.7-0.5,2.1-1.4c0.1-0.2,0.1-0.4,0.2-0.6
			C441.9,505.3,442,505.1,442.1,504.5z"/>
		<path class="st2" d="M451.6,501.4c0.1,1.5,0.1,2.3,0.2,3.8c0,0.9,0,1.8,0,2.7l0,0c0.4-0.9,0.9-1.8,1.2-2.6
			c0.7-1.5,1.1-2.2,1.9-3.7c0.7,0.1,1,0.1,1.7,0.1c0.1,1.5,0.1,2.3,0.2,3.8c0.1,1,0.1,1.9,0,2.9l0,0c0.3-0.9,0.7-1.8,1.1-2.7
			c0.7-1.5,1-2.2,1.7-3.6c0.8,0.1,1.2,0.1,2.1,0.2c-1.8,3.3-2.6,4.9-4.4,8.1c-0.8-0.1-1.2-0.1-1.9-0.1c-0.1-1.4-0.1-2.1-0.2-3.5
			c0-0.9-0.1-1.6-0.1-2.6l0,0c-0.4,1-0.8,1.8-1.2,2.6c-0.7,1.3-1,2-1.7,3.3c-0.8-0.1-1.2-0.1-1.9-0.1c-0.3-3.4-0.4-5.1-0.7-8.5
			C450.3,501.4,450.7,501.4,451.6,501.4z"/>
		<path class="st2" d="M465.6,500c-0.1,0.6-0.8,1.1-1.5,1.1c-0.7,0-1-0.5-0.9-1.3c0.1-0.6,0.8-1.1,1.5-1.1
			C465.4,498.8,465.7,499.3,465.6,500z M461.1,510.4c0.7-3.3,1.1-5,1.8-8.3c0.8,0.1,1.2,0.1,2.1,0.2c-0.8,3.3-1.1,5-1.9,8.3
			C462.3,510.5,461.9,510.5,461.1,510.4z"/>
		<path class="st2" d="M470,500.5c-0.2,0.8-0.3,1.3-0.5,2.1c0.8,0.1,1.2,0.1,2,0.2c-0.1,0.6-0.2,0.9-0.3,1.5c-0.8-0.1-1.2-0.1-2-0.2
			c-0.3,1.5-0.5,2.2-0.8,3.6c-0.2,1-0.1,1.5,0.7,1.7c0.4,0,0.6,0,0.8-0.1c-0.1,0.6-0.2,1-0.3,1.6c-0.3,0.1-0.9,0.2-1.5,0.1
			c-0.8,0-1.4-0.4-1.6-0.9c-0.3-0.5-0.4-1.2-0.1-2.3c0.3-1.5,0.5-2.3,0.9-3.8c-0.5,0-0.7,0-1.2,0c0.1-0.6,0.2-0.9,0.3-1.5
			c0.5,0,0.7,0,1.2,0c0.1-0.6,0.2-0.9,0.3-1.5C468.6,500.8,469.1,500.7,470,500.5z"/>
		<path class="st2" d="M473.8,499.1c0.8,0.1,1.2,0.1,2.1,0.2c-0.5,2-0.7,3-1.2,4.9l0,0c0.3-0.4,0.8-0.7,1.3-0.9
			c0.5-0.2,1-0.3,1.5-0.2c1.4,0.2,2.6,1.2,2,3.9c-0.5,1.9-0.7,2.9-1.2,4.8c-0.8-0.1-1.2-0.1-2-0.2c0.4-1.9,0.6-2.8,1.1-4.6
			c0.3-1.2,0-2.1-1.1-2.2c-0.8,0-1.6,0.4-1.9,1c-0.2,0.2-0.1,0.4-0.2,0.6c-0.5,2-0.7,3-1.2,4.9c-0.8-0.1-1.2-0.1-2-0.2
			C472.1,506.4,472.7,504,473.8,499.1z"/>
		<path class="st2" d="M486.7,500.4c0.8,0.1,1.2,0.1,2.1,0.2c-0.5,2-0.8,3-1.3,4.9l0,0c0.3-0.4,0.8-0.7,1.3-0.8
			c0.5-0.2,1-0.2,1.5-0.2c1.4,0.2,2.6,1.2,1.9,3.9c-0.5,1.9-0.7,2.9-1.2,4.8c-0.8-0.1-1.2-0.1-2-0.2c0.5-1.8,0.7-2.8,1.2-4.6
			c0.3-1.2,0.1-2.1-1-2.2c-0.8-0.1-1.6,0.4-1.9,1c-0.2,0.2-0.1,0.4-0.2,0.6c-0.5,2-0.8,3-1.2,4.9c-0.8-0.1-1.2-0.1-2-0.2
			C484.9,507.7,485.5,505.3,486.7,500.4z"/>
		<path class="st2" d="M495.4,510c-0.4,1.5,0.7,2.3,1.9,2.4c1,0.1,1.7,0,2.4-0.1c0,0.6,0,0.9,0,1.4c-0.8,0.2-1.9,0.4-3,0.2
			c-2.6-0.3-3.8-2.1-3.1-4.6c0.6-2.3,2.6-4.2,5.2-3.9c2.7,0.3,3,2.6,2.4,4.4c-0.2,0.4-0.3,0.7-0.3,0.9
			C498.7,510.4,497.6,510.3,495.4,510z M499.5,509c0.2-0.8,0.3-2-1.1-2.2c-1.3-0.2-2.2,1-2.5,1.7C497.3,508.7,498,508.8,499.5,509z"
			/>
		<path class="st2" d="M508.4,513.3c-0.2,0.7-0.4,1.5-0.5,2c-0.7-0.1-1.1-0.2-1.8-0.3c0.1-0.4,0.1-0.5,0.1-0.9c0,0-0.1,0-0.1,0
			c-0.7,0.5-1.7,0.9-2.7,0.8c-1.6-0.2-2.3-1.5-1.9-2.7c0.6-2.1,2.7-2.8,5.7-2.5c0,0,0-0.1,0-0.1c0.1-0.5,0.1-1.4-1.3-1.7
			c-0.8-0.1-1.8,0-2.4,0.3c0-0.6,0-0.9-0.1-1.4c0.7-0.2,1.9-0.6,3.2-0.3c2.6,0.3,2.9,2.1,2.4,3.9
			C508.9,511.5,508.7,512.1,508.4,513.3z M507,511c-1.4-0.2-2.9-0.1-3.3,1.1c-0.2,0.8,0.2,1.2,0.8,1.3c0.8,0.1,1.6-0.4,1.9-1
			c0-0.1,0.1-0.3,0.2-0.5C506.7,511.6,506.8,511.4,507,511z"/>
		<path class="st2" d="M511.5,510c0.3-1.1,0.5-1.9,0.7-2.6c0.7,0.1,1.1,0.2,1.8,0.3c-0.2,0.6-0.3,1-0.4,1.6c0,0,0.1,0,0.1,0
			c0.7-1.1,1.9-1.6,2.7-1.5c0.2,0,0.3,0,0.5,0.1c-0.2,0.8-0.3,1.1-0.6,1.9c-0.2,0-0.4-0.1-0.6-0.2c-1-0.1-1.8,0.4-2.3,1.3
			c-0.1,0.2-0.2,0.4-0.2,0.6c-0.5,1.7-0.8,2.5-1.2,4.2c-0.8-0.1-1.2-0.2-2-0.3C510.6,513.3,510.9,512.2,511.5,510z"/>
		<path class="st2" d="M521.5,506.5c-0.3,0.8-0.4,1.2-0.7,2.1c0.8,0.1,1.2,0.2,1.9,0.3c-0.2,0.6-0.2,0.9-0.4,1.5
			c-0.8-0.1-1.2-0.2-1.9-0.3c-0.4,1.4-0.6,2.1-1.1,3.6c-0.3,1-0.2,1.5,0.5,1.7c0.4,0,0.6,0.1,0.8,0c-0.2,0.6-0.3,1-0.4,1.6
			c-0.3,0.1-0.9,0.1-1.5,0c-0.8-0.1-1.3-0.5-1.5-1c-0.3-0.5-0.3-1.3,0-2.4c0.4-1.5,0.7-2.3,1.1-3.8c-0.5-0.1-0.7-0.1-1.2-0.1
			c0.2-0.6,0.2-0.9,0.4-1.5c0.5,0.1,0.7,0.1,1.2,0.1c0.2-0.6,0.2-0.9,0.4-1.5C520.1,506.7,520.6,506.7,521.5,506.5z"/>
	</g>
</g>
</svg>
