<svg version="1.2" xmlns="http://www.w3.org/2000/svg" viewBox="0 0 1000 1000" width="1000" height="1000"><style>.a{fill:#dcdddd}.b{fill:#030505}.c{fill:#9fa0a0}.d{fill:#727272}.e{fill:#8a8a8a}</style><path class="a" d="m466.5 658.7c-69.8 0-126.2-56.4-126.2-126.2 0-69.8 56.4-126.2 126.2-126.2 69.8 0 126.2 56.4 126.2 126.2 0 69.8-56.4 126.2-126.2 126.2z"/><path fill-rule="evenodd" class="b" d="m466.5 664c-72.7 0-131.5-58.8-131.5-131.5 0-72.7 58.8-131.5 131.5-131.5 72.7 0 131.5 58.8 131.5 131.5 0 72.7-58.8 131.5-131.5 131.5zm121-131.5c0-66.9-54.1-121-121-121-66.9 0-121 54.1-121 121 0 66.9 54.1 121 121 121 66.9 0 121-54.1 121-121z"/><path fill-rule="evenodd" class="c" d="m551.3 584.3c8.5-1.1 17.4-2.6 26.5-4.3q-1.7 3.9-3.7 7.6c-26.4 4.9-50.6 6.9-72.4 6.9-11 0-21.4-0.5-31.2-1.4v11.4c27.4 2.6 59.5 1.9 96.2-4.2q-2.8 4-5.9 7.8c-11.3 1.7-22.3 3-32.7 3.7-0.9 2.8-3.6 10-12.2 23.3 5.6-0.4 11.5-1.1 17.5-1.8q-7.1 4.6-14.7 8.3c-7.9 0.7-15.6 1-22.9 1-33.6 0-61.1-5.9-82.4-13.4l-0.4 0.1-0.1-0.2c-5.9-2.1-11.3-4.3-16.3-6.5-0.7-0.3-1.4-0.7-2.1-1l-0.8 0.3c-0.1-0.3-0.2-0.6-0.3-0.8-7-3.3-13.2-6.7-18.7-10-4.4-5-8.3-10.4-11.7-16.1 6.9 5.2 15.8 11.1 27 16.8-3.7-11.4-3.3-17.4-1.8-20.4-0.7-0.4-1.5-0.7-2.2-1-13.2-5.7-24.4-11.9-33.7-17.9q-1.8-5.2-3.1-10.6c10.3 7.4 23.5 15.3 39.9 22.4 13.5 5.8 30.1 11.4 49.7 15.5v-11.2h0.7q-8.9-1.8-17.1-3.9c0 0-1.9-0.3-1.9-0.5-13.1-3.6-24.6-7.8-34.5-12.1-15.9-6.9-28.9-14.5-39.1-21.6q-0.7-4.6-1-9.3c6.6 5 14.6 10.3 24.2 15.6-3.3-34.5 1-50.8 2-54-7.3-3.7-13.7-7.4-19.5-11q1.2-3.3 2.5-6.6c10.6 6.7 23.8 13.9 39.5 20.3 1.9-5.5 4.2-11.2 6.7-16.6q-3.3-1.4-6.4-2.8c-11.9-5.5-22.2-11.4-31.3-17.1q1.8-3 3.8-5.8c4.6 2.9 9.4 5.8 14.7 8.7 9.4-18.5 18.7-29.1 22.7-33.1-2.6-1.9-5.1-3.7-7.4-5.5q3-2.1 6.1-4c7.7 5.8 16.7 11.7 27 16.8 40.3 20.4 83.5 23.3 128.8 8.8q2.3 2.8 4.4 5.7c-6.8 2.2-13.6 4.1-20.1 5.6 2.5 5.8 6.9 17.8 10.3 34.9 9-1.3 18.4-3 27.9-5.1q1.1 3.3 1.9 6.6c-4.5 1-9.1 2-13.5 2.8l2.3 15.1c4.6-0.8 9.3-1.9 14-3q0.4 3.5 0.7 6.9-17.5 4-33.8 6.2c1.3 5.6 4.1 23.2-2.1 53.7zm-29.4-49.1l-0.1-2c-6.7 0.3-8.8 0.6-15.1 0.6-25.5 0-65.5-6.1-65.5-6.1-0.1 0.2-10.6 21.9-7.3 52.7 22.9 5.2 50.2 8.2 82.2 6.9 7.8-43.7 5.8-52.1 5.8-52.1zm-58.3 68.5v-11.3q-5.6-0.7-11-1.5v11.3q5.3 0.9 11 1.5zm0 6.9c-15-1.7-28.6-4.3-40.9-7.6l3.7 23.2c13.7 4 29.7 7.2 47.9 8.7 4.1-9 6.6-19.1 7.4-22.7-3.8-0.2-18.1-1.6-18.1-1.6zm25 1.9c-0.4 2.1-2.7 12.7-7 22.9 9.1 0.5 25.8 0.1 25.8 0.1 7.3-11 11.7-19.6 13.2-23.2q-9.7 0.5-18.9 0.5c-4.5 0-8.8-0.1-13.1-0.3zm-60.8-88.6c-11.7-3.1-22.3-6.7-31.6-10.3-6.3-2.5-12.3-5.1-17.8-7.8-1.2 4.7-4.7 21.7-1 54.8q5.6 2.8 11.7 5.4c8.9 3.9 19.1 7.6 30.7 10.9-1.8-26.9 5.3-46.6 8-53zm-23.5-41.1c7.8-15.4 16.6-28.2 19.6-32.4q-7.1-3.7-13.3-7.8c-2.7 2.7-12.5 13-22.5 32.6q4.8 2.4 10 4.8 3 1.4 6.2 2.8zm9.8 11.2c-2.6 5.4-4.9 11-6.6 16.5q3.8 1.3 7.9 2.6l5.6-16.7q-3.5-1.1-6.9-2.4zm3-6.2c10.4 3.8 21.9 7.2 34.5 10l8.2-33.1c-9.8-2.7-15.7-4.4-23.7-8.1l-0.1 0.5c-0.2 0.2-10.1 13.9-18.9 30.7zm10.4 10.7l-5.5 16.6c16.3 4.8 35.2 8.7 56.5 10.6v-16.6c-18.9-2.1-35.9-5.9-51-10.6zm39-32.1l-8.2 32.7c23.7 4.6 51.1 6.5 81.9 3.6-4-19.6-9.5-31.9-10.5-34-8.9 1.3-17.4 1.9-25.6 1.9-13.6 0-26.1-1.6-37.6-4.2zm44.7 44.5q-9.8 0-19-0.6v16.3q6.2 0.3 12.6 0.3v-16h6.9v16c14.8-0.2 30.6-1.5 47.3-4l-2.4-15.3c-15.9 2.3-31.1 3.3-45.4 3.3zm-99.5 110.4l-3.3-21-0.1-1.5c-6.6-2-8.7-3-14.4-5.2l-0.1 1.1c0.5-0.2 0.7-0.4 0.7-0.5 0 0.1-2.6 4.1 4.2 21.8q0.6 0.2 1.1 0.5 5.5 2.5 11.9 4.8zm128.1-88.5l0.1-1.1c-4.8 0.5-6.8 1.1-11.5 1.4 0.8 3.1 1.7 14.3-5.3 53.9q6.8-0.4 13.8-1.1c8.1-35.8 3-52.9 2.9-53.1z"/><path class="b" d="m489.5 570c-46.3 0-99.7-10.7-152.3-47.7l6.7-9.6c97 68.2 198.2 42.8 246.8 30.6l2.9 11.4c-24.2 6.1-61.1 15.3-104.1 15.3z"/><path class="c" d="m478.9 541.4c-27.2 0-49.2-22.1-49.2-49.3 0-27.3 22-49.3 49.2-49.3 27.3 0 49.3 22 49.3 49.3 0 27.2-22 49.3-49.3 49.3z"/><path fill-rule="evenodd" class="d" d="m478.9 544.9c-29.1 0-52.7-23.6-52.7-52.8 0-29.2 23.6-52.8 52.7-52.8 29.2 0 52.8 23.6 52.8 52.8 0 29.2-23.6 52.8-52.8 52.8zm45.8-52.8c0-25.3-20.5-45.8-45.8-45.8-25.3 0-45.7 20.5-45.7 45.8 0 25.3 20.4 45.7 45.7 45.7 25.3 0 45.8-20.4 45.8-45.7z"/><path class="e" d="m476.4 530.1c-22.8 0-41.3-18.5-41.3-41.3 0-22.8 18.5-41.3 41.3-41.3 22.8 0 41.3 18.5 41.3 41.3 0 22.8-18.5 41.3-41.3 41.3z"/><path class="a" d="m478.9 504.5c-6.8 0-12.3-5.6-12.3-12.4 0-6.8 5.5-12.4 12.3-12.4 6.9 0 12.4 5.6 12.4 12.4 0 6.8-5.5 12.4-12.4 12.4z"/><path fill-rule="evenodd" class="d" d="m478.9 508.7c-8.7 0-15.8-7.1-15.8-15.9 0-8.8 7.1-15.9 15.8-15.9 8.8 0 15.9 7.1 15.9 15.9 0 8.8-7.1 15.9-15.9 15.9zm8.9-15.9c0-4.9-4-8.8-8.9-8.8-4.9 0-8.8 3.9-8.8 8.8 0 4.9 3.9 8.9 8.8 8.9 4.9 0 8.9-4 8.9-8.9z"/></svg>