<svg xmlns="http://www.w3.org/2000/svg" id="wapuugotchi_svg__wapuu" x="0" y="0" version="1.1" viewBox="0 0 1000 1000">
    <g id="RightArm--group">
        <path d="M436.6 504c-4.5 5.1-10.5 7.9-17 7.9-9.1 0-18.5-5.5-24.4-14.4-7.8-11.6-15.5-21.2-22.3-27.9l-4.8-4.7c-2-2-1.1-5.3 1.6-6.1l6.5-1.7c3.2-.9 6.4-2.7 9.1-5.5 3-3 4.8-6.7 5.2-10.4V430c0-1.3 1.5-2.1 2.5-1.3l9.3 6.9c.7.5 1.7 1.1 2.9 1.7 10.2 4.9 31.7 27.4 35.7 46.7 2.1 10.1-1.2 16.5-4.3 20z"/>
        <path d="M402.1 444.1c-1.5-.7-2.9-1.5-4.2-2.4-.5 5.5-3 11-7.3 15.3-3.7 3.7-8.1 6.2-12.5 7.4 8.7 8.6 17 19.8 23.2 29.1 4.5 6.7 11.6 11.1 18.3 11.1 4.1 0 8.1-1.6 11.4-5.4 13-14.8-17.3-49.6-28.9-55.1z" class="st0" fill="#fc0"/>
    </g>
    <g id="Tail--group">
        <path d="M599.1 649.5c-9 25.7-26.4 50-50.3 70.3-23.8 20.3-51.8 34.7-81 41.6-6.9 1.6-14.1 2.5-21.5 2.5-30.8 0-58.9-13.9-74.8-27-13.6-11.1-21.2-23.3-20.9-33.5.4-12 6.7-20.7 16.8-23.3 2.1-.5 4.3-.8 6.7-.8 11.2 0 27.2 6.7 38.5 25.7 7.8 13.2 22 20.1 41.1 20.1h1.2c40.7-.8 87.6-31.2 109.1-70.8 7.7-14.1 13.2-29.6 17.1-40.8 1.9-5.4 3.6-10.1 5.1-13.5 1.3-3.1 4.1-9.4 10.4-9.4 4.1 0 7.6 1.8 9.9 5 5.5 7.6 3.3 23.3-7.4 53.9z"/>
        <path d="M570.5 657.8c-22.7 41.7-72.5 73.9-115.5 74.7h-1.4c-21.6 0-38.3-8.4-47.4-23.8-9-15.1-22-22.1-32.1-22.1-1.7 0-3.3.2-4.8.6-7 1.8-11 7.6-11.3 16.4-.3 7.7 6.6 18 18.2 27.5 16.8 13.7 43.2 25.3 70.1 25.3 6.6 0 13.3-.7 19.8-2.3 57.2-13.5 108.5-57.4 126-107.1 5.4-15.3 16.7-49.2 4.5-49.2-4.5.1-10.8 31.8-26.1 60z" class="st1" fill="#f80"/>
    </g>
    <g id="Body--group">
        <path d="M649.7 531.9c-2 24-6.7 45.1-13.9 62.9-8.5 20.9-20.3 36.6-35.1 46.8-34 23.4-64.8 26-76.4 26-1.3 0-2.5 0-3.8-.1-18.4-.8-26-4.4-32.7-7.5-5.9-2.8-11-5.2-24.9-5.7-37.5-1.5-67-9.9-83.1-23.6-.2-.1-.5-.4-.9-.7-4.8-3.5-19.3-14.3-25-24.7-5.3-9.7-6.2-22.3-2.3-31.4 13.4-31.2 24.5-40.5 33.5-48 3.6-3 6.4-5.3 8.8-8.7 2.2-3.1 3.8-7.1 4.9-12.2 0-.1 0-.2.1-.3 3.9-15 3.4-34.9 2.8-56-.2-5.7-.3-11.7-.4-17.5v-.1c0-18.6 9.6-40.7 25.7-59.2 18.1-20.8 41.6-33.6 66.1-36.2 20.2-2.1 34.3-3.1 45.9-3.1 43.7 0 58.6 14.8 82.2 48.4 7.5 10.6 12.1 22.5 16 33.7 11.1 30.4 15.9 76.5 12.5 117.2z"/>
        <path d="M358.5 576.7c-3 7-2.2 17.4 2 25 5.6 10.3 23 22.2 24.1 23.2 15.1 12.9 43.7 20.5 78.7 21.9 31.2 1.3 24.3 11.8 57.6 13.3 1.1 0 2.2.1 3.5.1 16.7 0 43.7-5 72.2-24.7 58-39.9 52.9-165.3 34-218.6-3.9-11.1-8.3-22.2-15.1-31.9-23.5-33.5-36.6-45.2-76.2-45.2-12.2 0-26.9 1.1-45.1 3.1-49.9 5.3-85.3 55.3-85.3 88.1.3 27.4 2.5 55.1-2.7 75.5-1.4 6.5-3.4 11.2-6 14.9-9.8 13.5-23.4 12.4-41.7 55.3z" class="st0" fill="#fc0"/>
    </g>
    <g id="Ball--group">
        <g>
            <path d="m466.5 658.7c-69.8 0-126.2-56.4-126.2-126.2s56.4-126.2 126.2-126.2 126.2 56.4 126.2 126.2-56.4 126.2-126.2 126.2z" fill="#dcdddd"/>
            <path d="m466.5 664c-72.7 0-131.5-58.8-131.5-131.5s58.8-131.5 131.5-131.5 131.5 58.8 131.5 131.5-58.8 131.5-131.5 131.5zm121-131.5c0-66.9-54.1-121-121-121s-121 54.1-121 121 54.1 121 121 121 121-54.1 121-121z" fill="#030505" fill-rule="evenodd"/>
            <path d="m551.3 584.3c8.5-1.1 17.4-2.6 26.5-4.3q-1.7 3.9-3.7 7.6c-26.4 4.9-50.6 6.9-72.4 6.9-11 0-21.4-0.5-31.2-1.4v11.4c27.4 2.6 59.5 1.9 96.2-4.2q-2.8 4-5.9 7.8c-11.3 1.7-22.3 3-32.7 3.7-0.9 2.8-3.6 10-12.2 23.3 5.6-0.4 11.5-1.1 17.5-1.8q-7.1 4.6-14.7 8.3c-7.9 0.7-15.6 1-22.9 1-33.6 0-61.1-5.9-82.4-13.4l-0.4 0.1-0.1-0.2c-5.9-2.1-11.3-4.3-16.3-6.5-0.7-0.3-1.4-0.7-2.1-1l-0.8 0.3c-0.1-0.3-0.2-0.6-0.3-0.8-7-3.3-13.2-6.7-18.7-10-4.4-5-8.3-10.4-11.7-16.1 6.9 5.2 15.8 11.1 27 16.8-3.7-11.4-3.3-17.4-1.8-20.4-0.7-0.4-1.5-0.7-2.2-1-13.2-5.7-24.4-11.9-33.7-17.9q-1.8-5.2-3.1-10.6c10.3 7.4 23.5 15.3 39.9 22.4 13.5 5.8 30.1 11.4 49.7 15.5v-11.2h0.7q-8.9-1.8-17.1-3.9s-1.9-0.3-1.9-0.5c-13.1-3.6-24.6-7.8-34.5-12.1-15.9-6.9-28.9-14.5-39.1-21.6q-0.7-4.6-1-9.3c6.6 5 14.6 10.3 24.2 15.6-3.3-34.5 1-50.8 2-54-7.3-3.7-13.7-7.4-19.5-11q1.2-3.3 2.5-6.6c10.6 6.7 23.8 13.9 39.5 20.3 1.9-5.5 4.2-11.2 6.7-16.6q-3.3-1.4-6.4-2.8c-11.9-5.5-22.2-11.4-31.3-17.1q1.8-3 3.8-5.8c4.6 2.9 9.4 5.8 14.7 8.7 9.4-18.5 18.7-29.1 22.7-33.1-2.6-1.9-5.1-3.7-7.4-5.5q3-2.1 6.1-4c7.7 5.8 16.7 11.7 27 16.8 40.3 20.4 83.5 23.3 128.8 8.8q2.3 2.8 4.4 5.7c-6.8 2.2-13.6 4.1-20.1 5.6 2.5 5.8 6.9 17.8 10.3 34.9 9-1.3 18.4-3 27.9-5.1q1.1 3.3 1.9 6.6c-4.5 1-9.1 2-13.5 2.8l2.3 15.1c4.6-0.8 9.3-1.9 14-3q0.4 3.5 0.7 6.9-17.5 4-33.8 6.2c1.3 5.6 4.1 23.2-2.1 53.7zm-29.4-49.1-0.1-2c-6.7 0.3-8.8 0.6-15.1 0.6-25.5 0-65.5-6.1-65.5-6.1-0.1 0.2-10.6 21.9-7.3 52.7 22.9 5.2 50.2 8.2 82.2 6.9 7.8-43.7 5.8-52.1 5.8-52.1zm-58.3 68.5v-11.3q-5.6-0.7-11-1.5v11.3q5.3 0.9 11 1.5zm0 6.9c-15-1.7-28.6-4.3-40.9-7.6l3.7 23.2c13.7 4 29.7 7.2 47.9 8.7 4.1-9 6.6-19.1 7.4-22.7-3.8-0.2-18.1-1.6-18.1-1.6zm25 1.9c-0.4 2.1-2.7 12.7-7 22.9 9.1 0.5 25.8 0.1 25.8 0.1 7.3-11 11.7-19.6 13.2-23.2q-9.7 0.5-18.9 0.5c-4.5 0-8.8-0.1-13.1-0.3zm-60.8-88.6c-11.7-3.1-22.3-6.7-31.6-10.3-6.3-2.5-12.3-5.1-17.8-7.8-1.2 4.7-4.7 21.7-1 54.8q5.6 2.8 11.7 5.4c8.9 3.9 19.1 7.6 30.7 10.9-1.8-26.9 5.3-46.6 8-53zm-23.5-41.1c7.8-15.4 16.6-28.2 19.6-32.4q-7.1-3.7-13.3-7.8c-2.7 2.7-12.5 13-22.5 32.6q4.8 2.4 10 4.8 3 1.4 6.2 2.8zm9.8 11.2c-2.6 5.4-4.9 11-6.6 16.5q3.8 1.3 7.9 2.6l5.6-16.7q-3.5-1.1-6.9-2.4zm3-6.2c10.4 3.8 21.9 7.2 34.5 10l8.2-33.1c-9.8-2.7-15.7-4.4-23.7-8.1l-0.1 0.5c-0.2 0.2-10.1 13.9-18.9 30.7zm10.4 10.7-5.5 16.6c16.3 4.8 35.2 8.7 56.5 10.6v-16.6c-18.9-2.1-35.9-5.9-51-10.6zm39-32.1-8.2 32.7c23.7 4.6 51.1 6.5 81.9 3.6-4-19.6-9.5-31.9-10.5-34-8.9 1.3-17.4 1.9-25.6 1.9-13.6 0-26.1-1.6-37.6-4.2zm44.7 44.5q-9.8 0-19-0.6v16.3q6.2 0.3 12.6 0.3v-16h6.9v16c14.8-0.2 30.6-1.5 47.3-4l-2.4-15.3c-15.9 2.3-31.1 3.3-45.4 3.3zm-99.5 110.4-3.3-21-0.1-1.5c-6.6-2-8.7-3-14.4-5.2l-0.1 1.1c0.5-0.2 0.7-0.4 0.7-0.5 0 0.1-2.6 4.1 4.2 21.8q0.6 0.2 1.1 0.5 5.5 2.5 11.9 4.8zm128.1-88.5 0.1-1.1c-4.8 0.5-6.8 1.1-11.5 1.4 0.8 3.1 1.7 14.3-5.3 53.9q6.8-0.4 13.8-1.1c8.1-35.8 3-52.9 2.9-53.1z" fill="#9fa0a0" fill-rule="evenodd"/>
            <path d="m489.5 570c-46.3 0-99.7-10.7-152.3-47.7l6.7-9.6c97 68.2 198.2 42.8 246.8 30.6l2.9 11.4c-24.2 6.1-61.1 15.3-104.1 15.3z" fill="#030505"/>
            <path d="m478.9 541.4c-27.2 0-49.2-22.1-49.2-49.3 0-27.3 22-49.3 49.2-49.3 27.3 0 49.3 22 49.3 49.3 0 27.2-22 49.3-49.3 49.3z" fill="#9fa0a0"/>
            <path d="m478.9 544.9c-29.1 0-52.7-23.6-52.7-52.8s23.6-52.8 52.7-52.8c29.2 0 52.8 23.6 52.8 52.8s-23.6 52.8-52.8 52.8zm45.8-52.8c0-25.3-20.5-45.8-45.8-45.8s-45.7 20.5-45.7 45.8 20.4 45.7 45.7 45.7 45.8-20.4 45.8-45.7z" fill="#727272" fill-rule="evenodd"/>
            <path d="m476.4 530.1c-22.8 0-41.3-18.5-41.3-41.3s18.5-41.3 41.3-41.3 41.3 18.5 41.3 41.3-18.5 41.3-41.3 41.3z" fill="#8a8a8a"/>
            <path d="m478.9 504.5c-6.8 0-12.3-5.6-12.3-12.4s5.5-12.4 12.3-12.4c6.9 0 12.4 5.6 12.4 12.4s-5.5 12.4-12.4 12.4z" fill="#dcdddd"/>
            <path d="m478.9 508.7c-8.7 0-15.8-7.1-15.8-15.9s7.1-15.9 15.8-15.9c8.8 0 15.9 7.1 15.9 15.9s-7.1 15.9-15.9 15.9zm8.9-15.9c0-4.9-4-8.8-8.9-8.8s-8.8 3.9-8.8 8.8 3.9 8.9 8.8 8.9 8.9-4 8.9-8.9z" fill="#727272" fill-rule="evenodd"/>
        </g>
    </g>
    <g id="RightHand--group">
        <g id="BeforeRightHand--part"/>
        <path d="M390.6 457c-5.2 5.1-11.7 8.1-17.8 8.1-8.1 0-14-5.1-15.6-13.3-1-5.4.9-11.3 5.4-16.7 5.8-6.9 14.9-12 21.7-12.1h.2c1.3 0 2.6.2 3.8.6h.2l.1.1c4.5 1.8 7.9 6.2 9.1 11.8 1.4 7.5-1.2 15.5-7.1 21.5z"/>
        <path d="M385.4 451.7c4.2-4.2 6-9.6 5-14.7-.6-3.1-2.3-5.5-4.6-6.4-.4-.1-.9-.2-1.3-.2h-.1c-4 0-11.3 3.6-16.1 9.4-1.8 2.1-4.6 6.3-3.8 10.6 1.1 6 5.1 7.3 8.3 7.3 4.1 0 8.8-2.2 12.6-6z" class="st0" fill="#fc0"/>
    </g>
    <g id="RightFoot--group">
        <path d="M384.3 648c-2.4 3.7-6.4 5.7-11.5 5.7-1.9 0-4-.3-6.2-.8-25-6-59.3-43.6-63.6-64.5-1.9-9.4-.2-18 5-24.4 4.6-5.7 11.4-8.8 18.9-8.8 6.8 0 13.6 2.5 19.8 7.3 12.2 9.4 32.9 50.5 37.3 60.7 2.5 5.8 4.9 17.7.3 24.8z"/>
        <path d="M310.1 586.8c3.8 18.2 36.2 53.6 58.1 58.8 1.7.4 3.2.6 4.5.6 3.4 0 4.7-1.3 5.4-2.3 2.3-3.5 1.5-12.1-1-17.9-6.1-13.9-25.3-50.3-35.1-57.8-4.9-3.8-10.2-5.8-15.3-5.8-5.3 0-10 2.2-13.2 6.1-3.6 4.7-4.8 11.2-3.4 18.3z" class="st0" fill="#fc0"/>
    </g>
    <g id="RightEar--group">
        <path d="M413.3 399.4c-.4 4.4-3.8 8.4-11.1 12.9-4.7 3-10.2 5.5-13.9 6.5-6.5 1.7-12.3 2.6-17.3 2.6-6.7 0-10.6-1.6-12.7-2.9-4.8-3-4.4-7.2-4.2-8.5.5-3.1 2.9-5.5 5.9-6.2 3.5-.8 13.5-5.8 23.6-12.6 4.2-2.9 10.7-4.8 16.1-4.8 5.8 0 9.1 2.2 10.8 4.1 2.1 2.4 3.1 5.5 2.8 8.9z"/>
        <path d="M361.4 411.3c0 .3.4.7.9.9 1.1.7 3.6 1.8 8.8 1.8 4.3 0 9.5-.8 15.4-2.3 5.2-1.4 19.1-8.8 19.5-13 .1-1.3-.2-2.4-.9-3.2-1-1.1-2.8-1.7-5.3-1.7-3.9 0-8.9 1.5-11.9 3.5-8.5 5.7-20.5 12.5-26.1 13.7-.3.1-.4.2-.4.3z" class="st1" fill="#f80"/>
    </g>
    <g id="Head--group">
        <path d="M516.4 328.1c1.6 0 3.2 0 4.8.1 20.6.6 39.5 6.5 55.9 17 11.2 7.2 17.5 11.4 25.9 25.2 1.5 2.5 9 .8 7.9-1.1-10.1-17.6-17.5-22.3-29.8-30.3-17.7-11.4-37.8-17.6-59.7-18.2-1.6 0-3.3-.1-5-.1-1.6 0-3.3 0-4.9.1-24.3.6-47.8 6.6-67.8 17.1-20.2 10.6-37.1 26.1-48.9 44.7-7.7 12.3-10.3 23.9-7.4 33.5 2.4 7.8 7.9 12.7 12.3 14.6 1.4.6 2.9.9 4.7.9 9.3 0 34.7-9.3 45.7-24.8 8.4 4.5 17.6 6.7 28.1 6.7 12.6 0 25-3.2 36.4-6.9 3-1 3.8-2.2 3.9-4.1 0-1.3-1.2-3.6-3.8-3.5-.3 0-.7.1-1 .2-11.2 3.6-23.3 6.9-35.4 6.9-9.3 0-18.6-2-27.4-7.4-.6-.4-1.3-.5-1.9-.5-1.3 0-2.5.6-3.2 1.8l-.1.1c-7.9 14.3-33.3 24.1-41.2 24.1-.7 0-1.3-.1-1.7-.3-2.8-1.2-6.6-4.6-8.2-10-2.3-7.5 0-17 6.6-27.4 22.5-35.7 63.4-57.1 110.6-58.3 1.4-.1 3-.1 4.6-.1"/>
        <path d="M516.6 399.4c-1-.4-2-.7-3-.3-19.7 6.3-42.5 12-62.8-.5-1.7-1.1-4-.5-5.1 1.2l-.1.1c-8.6 15.7-38.3 26-43 23.9-2.8-1.2-6.6-4.6-8.2-10-2.3-7.5 0-17 6.6-27.4 22.5-35.7 63.4-57.1 110.6-58.3 3.1-.1 6.3-.1 9.5 0 20.6.6 39.5 6.5 55.9 17 13.2 8.5 19.7 12.7 30.6 33.6 5.6 10.5-84.4 23.5-91 20.7z" class="st0" fill="#fc0"/>
    </g>
    <g id="LeftEar--group">
        <path d="M701.4 357.1c-.5 1.7-1.2 3.4-2 5.2-5 10-17.7 23-38 29.1-4.5 1.4-9.3 2-14 2h-.1c-13 0-34.2-4.9-61.6-28.3-1.9-1.7-5.1-4.8-7.1-7-2.3-2.5-2.8-6.1-1.5-9.1s4.4-5.1 7.8-5.1h.5c13.9.8 30.1 1.2 48.4 1.2 8.1 0 14.8-.1 19.3-.1h4.5c7.4 0 13.3-.1 18.2-.1 8.1 0 13.7.1 17.1.2 2.9.1 5.6 1.5 7.3 3.9 1.5 2.3 2 5.2 1.2 8.1z"/>
        <path d="M590.4 359.4c25.7 21.9 45.1 26.5 56.8 26.5h.1c4 0 8-.6 11.9-1.7 18.1-5.4 29.2-16.6 33.5-25.3.8-1.5 1.2-2.8 1.5-3.9.4-1.3-.6-2.6-1.9-2.7-3.3-.1-8.9-.2-16.7-.2-5.4 0-11.6 0-18.2.1-3.3 0-12.2.2-23.9.2-13.9 0-31.7-.2-48.8-1.2h-.1c-.9 0-1.5 1.1-.8 1.8 2 2.2 5 5.1 6.6 6.4z" class="st1" fill="#f80"/>
    </g>
    <g id="Face--group">
        <path d="M417.6 376.2c-4.1 0-7.4 3.3-7.4 7.4 0 9.9 14.8 9.9 14.8 0 0-4.1-3.3-7.4-7.4-7.4z"/>
        <path d="M503.2 355.7c-4.1 0-7.4 3.3-7.4 7.4 0 9.9 14.8 9.9 14.8 0 0-4.1-3.3-7.4-7.4-7.4z"/>
        <path d="M457.9 375.4c-7.4.8-12.3 2.5-15.6 4.9-5.9 4.4-4.1 9.9 2.5 10.7 6.6.8 7.1 1.2 13.2-3.3 6.5-4.9 7.3-13.1-.1-12.3z"/>
    </g>
    <g id="LeftLeg--group">
        <path d="M512.4 655.2c-4.6-5.2-3.7-15.7-1.9-29.4 2.6-19.8 5-34.5 25.4-50.8 24.4-19.5 62.2-15 76.2-.5 3.6 3.7 6.7 10.9 7.3 18.8.9 11.4-22.2 42.4-44.8 51.8-22.6 9.6-54 19.3-62.2 10.1z" class="st0" fill="#fc0"/>
        <path d="M512.4 658.9c-1.2 0-2.3-.5-3-1.6-4.7-6.7-4.5-17.2-2.6-32 2.5-19 4.6-35.5 26.8-53.2 26.8-21.4 63.7-14 78.4.7 1.4 1.4 1.4 3.8 0 5.2-1.4 1.4-3.8 1.4-5.2 0-12.5-12.5-45.4-18.7-68.6-.1-18.9 15.1-21.4 28.2-24.1 48.4-1.4 11-2.3 21.8 1.3 26.7 1.2 1.7.8 4-.9 5.2-.6.5-1.4.7-2.1.7z"/>
    </g>
    <g id="LeftFoot--group">
        <path d="M523.7 651.2c-.4 1.9-2 9.1-6.7 16.2-7 10.6-17.8 16.5-30.4 16.5-7.2 0-12.9-2.1-16.8-6.2-7.5-7.8-7.1-21-6.7-33.7v-.1c.2-6.4.4-13.1-.4-18.5-.7-4.4-1.8-9.1-3.1-14.5-2.4-10.2-4.6-20.1-4.3-28.7.4-10.7 4.7-18.9 12.8-24.4 3.5-2.4 7.4-3.5 11.4-3.5 9.3 0 18.9 6.2 28.7 18.6 7.1 8.9 13.1 20 15.4 28.1 6.4 21.8 4.9 34.9.1 50.2z"/>
        <path d="M477 670.8c2 2.1 5.2 3.1 9.6 3.1 22.6 0 27-23.7 27.2-24.7 0-.2.1-.4.1-.6 4.4-13.9 5.7-25.2 0-44.8-3.7-13.2-21.1-39.4-34.4-39.4-2 0-4 .6-5.8 1.9-11.7 7.8-9.3 21.8-4.4 42.4 1.2 5.1 2.5 10.4 3.2 15.3 1 6.4.8 13.5.5 20.4-.2 10.6-.6 21.6 4 26.4z" class="st0" fill="#fc0"/>
    </g>
    <g id="LeftArm--group">
        <g id="BeforeLeftArm--part"/>
        <path d="M478 413.3c-6.4 2.9-12.4 6.6-17.6 11.1-12.1 10.6-12.6 19.4-10.8 24.8 2.5 7.7 11.1 13.4 21.9 14.6 7.1.7 16.2-1.3 26.7-3.6 13.9-3.1 29.7-6.6 42.9-3.9 19.6 4.1 33.3 15 53.1 32.7l10.3 9.2c1.5 1.3 3.9 1.2 5.2-.4 1.3-1.5 1.2-3.9-.4-5.2l-2.9-2.6c-24-21.7-39.9-36-63.8-41-14.8-3.1-31.3.6-46 3.9-9.5 2.1-18.5 4.1-24.3 3.5-7.8-.8-14.1-4.6-15.7-9.5-1.5-4.7 1.6-10.7 8.7-17 20.7-18.2 59.1-23.7 87.5-12.5 4.7 1.9 7.4-5.1 2.7-6.9-11.4-4.4-24.6-6.6-37.7-6.2-10.1.4-30.5 4.8-39.8 9z"/>
        <path d="M615.4 451c11.7 12.2 17 60.3-6 41.6l-2.9-2.6c-24-21.7-39.9-36-63.8-41-14.8-3.1-31.3.6-46 3.9-9.5 2.1-18.5 4.1-24.3 3.5-7.8-.8-14.1-4.6-15.7-9.5-1.5-4.7 1.6-10.7 8.7-17 20.7-18.2 59.3-24 87.5-12.5 4.6 2 46.1 16.5 62.5 33.6z" class="st0" fill="#fc0"/>
    </g>
</svg>
