<svg xmlns="http://www.w3.org/2000/svg" xml:space="preserve" width="60" height="90"><g style="display:inline"><g style="display:inline;fill:#3e3a39;fill-opacity:1"><g style="display:inline"><path fill="#432c15" fill-rule="evenodd" d="M40.84 4.465c-2.374-1.52-5.101-2.37-8.08-2.46-5.734-.174-10.911 1.683-14.569 5.08 2.322-.158 5.704-.828 7.605-3.252.092-.117.207-.264.442-.285a.479.479 0 0 1 .049-.003c.11 0 .168.024.337.093 1.776.723 5.303 1.89 8.958 1.58a.53.53 0 0 1 .42.153l.066.057c1.79 1.564 2.53 2.917 2.199 4.022-.232.773-.939 1.315-2.15 1.643 1.658 1.148 3.345 1.664 4.838 1.465 1.092-.146 2.025-.672 2.56-1.443.424-.613.702-1.32.842-2.055a23.591 23.591 0 0 1-2.288-1.725l-.128-.11c-1.752-1.458-1.51-2.125-1.432-2.344a.826.826 0 0 1 .332-.416" style="display:inline;stroke:#000;stroke-width:1.60196;stroke-linecap:round;stroke-linejoin:round;stroke-dasharray:none;stroke-opacity:1;paint-order:stroke markers fill" transform="translate(-.47 21.25) scale(1.006)"/></g></g></g></svg>