<svg version="1.1" viewBox="0 0 1e3 1e3" xmlns="http://www.w3.org/2000/svg">
	<g id="Head--group">
		<path d="m605.7 376.7c-1.1 5.9-3.3 11.2-6.5 15.8-4.3 6.2-11.8 10.5-20.4 11.7-1.6 0.2-3.3 0.3-5 0.3-10 0-20.7-3.8-31.4-11.2-1.2-0.8-1.8-2.2-1.5-3.7 0.2-1.4 1.3-2.6 2.7-3 7.1-1.9 11.2-4.9 12.4-9 1.8-6.1-3.1-14.5-14.2-24.2l-0.5-0.4s-0.1-0.1-0.2-0.1c-26.3 2.2-51.6-6.1-64.3-11.3-0.4-0.2-0.9-0.4-1-0.4-0.1 0.1-0.3 0.4-0.5 0.6-13.9 17.8-38 22.9-55.8 24.1-1.5 0.1-3-0.8-3.6-2.2s-0.3-3.1 0.9-4.2c26.7-24.8 63.7-37.7 104.4-36.5 21.3 0.7 40.9 6.6 58.3 17.8 1.1 0.7 1.7 1.8 1.7 3.1 0 1.2-0.6 2.4-1.7 3.1-0.4 0.3-0.7 0.6-0.9 1.1-0.9 2.3 2.5 6.9 8.9 12.3l0.9 0.8c5.1 4.4 10.2 8.2 15.6 11.8 1.3 0.8 2 2.3 1.7 3.7z"/>
		<path d="m577.5 343.9c-16.6-10.6-35.6-16.6-56.5-17.2-40.1-1.2-76.2 11.8-101.8 35.5 16.2-1.1 39.8-5.8 53.1-22.7 0.6-0.8 1.4-1.8 3.1-2h0.3c0.8 0 1.2 0.2 2.4 0.6 12.4 5.1 37 13.2 62.6 11 1.1-0.1 2.2 0.3 2.9 1.1 0.1 0.1 0.2 0.2 0.5 0.4 12.5 10.9 17.7 20.4 15.4 28.1-1.6 5.4-6.6 9.2-15 11.5 11.6 8 23.4 11.6 33.8 10.2 7.6-1 14.1-4.7 17.9-10.1 3-4.3 4.9-9.2 5.9-14.4-5.1-3.4-10.4-7.3-16-12.1l-0.9-0.8c-12.2-10.2-10.6-14.9-10-16.4 0.4-1 1.2-1.9 2.3-2.7" fill="#432C15"/>
	</g>
</svg>
