<?xml version="1.0" encoding="utf-8"?>
<!-- Generator: Adobe Illustrator 25.2.0, SVG Export Plug-In . SVG Version: 6.00 Build 0)  -->
<svg version="1.1" id="Layer_1" xmlns="http://www.w3.org/2000/svg" xmlns:xlink="http://www.w3.org/1999/xlink" x="0px" y="0px"
	 viewBox="0 0 1000 1000" style="enable-background:new 0 0 1000 1000;" xml:space="preserve">
<style type="text/css">
	.st0{fill-rule:evenodd;clip-rule:evenodd;fill:#432C15;}
</style>
<g id="Hair--group_1_">
	<path id="Hair--bg" d="M605.7,376.7c-1.1,5.9-3.3,11.2-6.5,15.8c-4.3,6.2-11.8,10.5-20.4,11.7c-1.6,0.2-3.3,0.3-5,0.3
		c-10,0-20.7-3.8-31.4-11.2c-1.2-0.8-1.8-2.2-1.5-3.7c0.2-1.4,1.3-2.6,2.7-3c7.1-1.9,11.2-4.9,12.4-9c1.8-6.1-3.1-14.5-14.2-24.2
		l-0.5-0.4c0,0-0.1-0.1-0.2-0.1c-26.3,2.2-51.6-6.1-64.3-11.3c-0.4-0.2-0.9-0.4-1-0.4c-0.1,0.1-0.3,0.4-0.5,0.6
		c-13.9,17.8-38,22.9-55.8,24.1c-1.5,0.1-3-0.8-3.6-2.2c-0.6-1.4-0.3-3.1,0.9-4.2c26.7-24.8,63.7-37.7,104.4-36.5
		c21.3,0.7,40.9,6.6,58.3,17.8c1.1,0.7,1.7,1.8,1.7,3.1c0,1.2-0.6,2.4-1.7,3.1c-0.4,0.3-0.7,0.6-0.9,1.1c-0.9,2.3,2.5,6.9,8.9,12.3
		l0.9,0.8c5.1,4.4,10.2,8.2,15.6,11.8C605.3,373.8,606,375.3,605.7,376.7z"/>
	<path id="Hair" class="st0" d="M577.5,343.9c-16.6-10.6-35.6-16.6-56.5-17.2c-40.1-1.2-76.2,11.8-101.8,35.5
		c16.2-1.1,39.8-5.8,53.1-22.7c0.6-0.8,1.4-1.8,3.1-2c0.1,0,0.2,0,0.3,0c0.8,0,1.2,0.2,2.4,0.6c12.4,5.1,37,13.2,62.6,11
		c1.1-0.1,2.2,0.3,2.9,1.1c0.1,0.1,0.2,0.2,0.5,0.4c12.5,10.9,17.7,20.4,15.4,28.1c-1.6,5.4-6.6,9.2-15,11.5
		c11.6,8,23.4,11.6,33.8,10.2c7.6-1,14.1-4.7,17.9-10.1c3-4.3,4.9-9.2,5.9-14.4c-5.1-3.4-10.4-7.3-16-12.1l-0.9-0.8
		c-12.2-10.2-10.6-14.9-10-16.4C575.6,345.6,576.4,344.7,577.5,343.9"/>
</g>
</svg>
