<svg xmlns="http://www.w3.org/2000/svg" xml:space="preserve" width="60" height="90">
  <g fill="none" fill-rule="evenodd" style="display:inline">
    <path fill="#005683" d="M43.178 25.36c-2.849-2.553-4.813-4.122-7.638-4.706-1.899-.392-4.166.11-6.165.553-1.515.337-2.824.628-3.842.52-1.564-.165-2.804-.988-3.157-2.097-.249-.781-.18-2.033 1.56-3.564.723-.637 1.59-1.169 2.54-1.601-1.37.002-2.724-.262-4.025-.952-1.68 2.332-5.944 4.022-7.256 3.44a3.039 3.039 0 0 1-.918-.662c-.028.022-.054.046-.083.068.346.324.599.778.708 1.309.221 1.075-.156 2.226-1.008 3.078-.742.741-1.677 1.167-2.564 1.167-.62 0-1.15-.216-1.547-.593a18.677 18.677 0 0 0-2.775 9.812c0 1.676.224 3.298.636 4.844 1.762 1.452 4.663 7.217 5.296 8.663.035.08.074.18.114.295a18.754 18.754 0 0 0 11.305 4.943c-.055-.719-.03-1.485-.005-2.242.03-.927.062-1.886-.059-2.674-.1-.649-.266-1.344-.443-2.08-.657-2.746-1.402-5.858 1.225-7.608a2.892 2.892 0 0 1 1.626-.506c2.36 0 4.506 2.845 5.613 5.007 1.507-2.438 3.984-3.985 6.93-4.283 1.492-.152 2.981.042 4.208.496.433-1.573.655-3.204.655-4.855a18.25 18.25 0 0 0-.93-5.772" style="fill:#ff5c01;fill-opacity:1;stroke:#000;stroke-width:2.13543;stroke-linecap:round;stroke-linejoin:round;stroke-dasharray:none;stroke-opacity:1;paint-order:stroke fill markers" transform="translate(-.19 21.29)"/>
    <path fill="#00709C" d="M30.956 20.87c-.538.106-1.068.223-1.581.337-1.515.337-2.824.628-3.842.52-1.564-.165-2.804-.988-3.157-2.097-.249-.781-.18-2.033 1.56-3.564.024-.022.053-.042.078-.064-1.12-.365-2.3-.598-3.521-.68-1.93 1.303-4.363 2.045-5.298 1.63a3.038 3.038 0 0 1-.917-.66 3.898 3.898 0 0 1-.083.068c.346.324.598.778.707 1.308.221 1.075-.156 2.226-1.008 3.078-.742.741-1.677 1.167-2.564 1.167-.621 0-1.151-.216-1.548-.593a18.683 18.683 0 0 0-2.774 9.812c0 1.674.22 3.297.633 4.841 1.181.97 2.876 3.885 4.056 6.138a14.476 14.476 0 0 0 7.797 2.269 14.53 14.53 0 0 0 4.54-.726c-.058-.253-.118-.51-.182-.773-.657-2.746-1.402-5.858 1.225-7.608a2.892 2.892 0 0 1 1.626-.506c1.815 0 3.5 1.683 4.687 3.443a14.472 14.472 0 0 0 2.66-8.378c0-3.382-1.157-6.492-3.094-8.961" style="fill:red;fill-opacity:1" transform="translate(-.19 21.29)"/>
    <g style="fill:#000">
      <path d="M36.298 196.434H31.95V171.97h4.347zm21.533-24.667 15.468 15.164V171.97h4.347v24.566l-.202.102-15.468-15.064v14.861h-4.347v-24.566zm38.315 24.667V171.97h8.593c9.301 0 12.132 7.077 12.132 12.233 0 5.257-2.73 12.232-12.132 12.232zm8.593-3.841c6.774 0 7.785-6.268 7.785-8.391s-1.011-8.391-7.785-8.391h-4.347v16.782zm34.878 3.841h-4.347V171.97h4.347zm24.971-10.109v6.268h12.131v3.841h-16.377V171.97h16.377v3.842h-12.131v6.672h9.503v3.842zm47.818-4.954-6.773 15.164h-.304l-11.221-24.667h4.751l6.571 15.569 6.673-15.973h.303l6.774 15.973 6.57-15.569h4.752l-11.221 24.667h-.304zm37.204 4.954v6.268h12.13v3.841h-16.377V171.97h16.378v3.842h-12.132v6.672h9.503v3.842zm46.807-2.225c2.022.81 3.032 3.236 3.032 5.156 0 2.932-2.021 7.077-8.593 7.077h-9.2v-24.465h9.2c6.572 0 8.593 4.145 8.593 7.178 0 2.022-1.01 4.246-3.032 5.055zm-5.156-1.718c3.235-.101 3.74-2.325 3.74-3.336 0-.809-.606-3.336-3.942-3.336h-5.257v6.672zm-.102 10.21c3.337 0 3.943-2.426 3.943-3.235 0-1.111-.606-2.931-3.74-3.032h-5.46v6.268z" class="st0" style="fill:#000" transform="translate(6.31 43.572) scale(.06656)"/>
      <g style="fill:#000">
        <path d="m163.8 34 59.1 126.1 18.6-39.8L201.3 34zm169.1 0h-118l38.8 83.2 20.1 42.9z" class="st0" style="fill:#000" transform="translate(6.349 44.234) scale(.06325)"/>
        <path d="M8.436 46.385h7.45v2.087h-7.45Zm0 2.846h7.45v4.541h-7.45Z"/>
      </g>
    </g>
  </g>
</svg>
