<svg xmlns="http://www.w3.org/2000/svg" viewBox="0 0 1000 1000">
	<g class="BeforeHead--group">
		<path fill="#b78344" d="M631.922 348.62c1.804 9.72-11.32 21.26-33.997 32.058-22.677 10.8-63.894-29.69-100.302-22.931-36.409 6.76-61.116 59.487-86.158 57.547-25.042-1.94-41.433-8-43.238-17.72-3.608-19.44 52.496-46.157 125.313-59.676 72.817-13.518 134.773-8.718 138.382 10.722z"/>
		<path fill="none" stroke="#000" stroke-width="7" d="M631.922 348.62c1.804 9.72-11.32 21.26-33.997 32.058-22.677 10.8-65.579-30.252-101.987-23.493-36.409 6.76-59.43 60.05-84.473 58.109-25.042-1.94-41.433-8-43.238-17.72-3.608-19.44 52.496-46.157 125.313-59.676 72.817-13.518 134.773-8.718 138.382 10.722z"/>
	</g>
	<g stroke="#000" class="Head--group">
		<path fill="#e0ab5f" d="M631.8 348.1c-4.7-19-66.2-23.6-138.3-10.2-72.3 13.4-128.1 39.8-125.4 59.2C365.8 383 379.4 365 403 349c7.1-38.5 38.1-77.4 80.1-85.2 42.1-7.8 82.6 18 102 51.6 26.2 6.7 43.7 18.8 46.7 32.7z"/>
		<path fill="#8d441d" d="M404.9 340.4v7.3S476 293.2 583.5 315l-3.5-7.7s-90.9-29.5-175.1 33.1z"/>
		<path fill="none" stroke-width="7" d="M631.9 348.7c-3.6-19.4-65.6-24.2-138.4-10.7-72.8 13.5-129 40.2-125.3 59.7"/>
		<path fill="none" stroke-width="7" d="M631.9 348.7c-5.1-27.5-67.3-48.3-140.1-34.7-72.8 13.5-128.7 56.2-123.6 83.7"/>
		<path fill="none" stroke-width="3" d="M580 307.3c-24.9-8-56.3-10.7-89.6-4.5-33.9 6.3-63.8 20.6-85.4 37.6"/>
		<path fill="none" stroke-width="7" d="M585.1 315.4c-19.4-33.6-60-59.4-102.1-51.6-42 7.8-73 46.8-80.1 85.2"/>
		<path fill="none" stroke-width="3" d="M474.4 265.9s-11.3 18.3-6.1 42.3m-25.8-25.3s-11.4 19.7-11.9 40.8m66.5-61.3s20.7 8.4 31.6 37"/>
	</g>
</svg>