<svg version="1.1" id="wapuugotchi_svg__item" viewBox="0 0 1e3 1e3" xmlns="http://www.w3.org/2000/svg">
  <g class="Background--group">
    <path d="M241.2 354.2c0 1.6-1.5 1.7-3.3 1.7-1.8 0-3.3-.1-3.3-1.7 0-1.6 1.5-2.8 3.3-2.8 1.8 0 3.3 1.3 3.3 2.8z" style="fill:#938b69" transform="translate(-481.313 -591.119) scale(3.38016)"/>
    <path d="M322.826 615.259c-5.07 0-14.534 0-14.534-9.126 0-7.099 6.422-12.845 14.534-12.845 8.113 0 14.535 5.746 14.535 12.845-.338 9.126-9.465 9.126-14.535 9.126zm0-15.21c-4.394 0-7.774 2.703-7.774 6.422 0 1.352 0 2.366 7.774 2.366 7.775 0 7.775-1.014 7.775-2.366 0-3.719-3.719-6.423-7.775-6.423z"/>
    <path d="M253.8 356.1c0 1.6-1.5 1.7-3.3 1.7-1.8 0-3.3-.1-3.3-1.7 0-1.6 1.5-2.8 3.3-2.8 1.8 0 3.3 1.3 3.3 2.8z" style="fill:#938b69" transform="translate(-481.313 -591.119) scale(3.38016)"/>
    <path d="M365.416 621.681c-5.07 0-14.535 0-14.535-9.126 0-7.098 6.423-12.845 14.535-12.845 8.113 0 14.535 5.747 14.535 12.845 0 9.126-9.465 9.126-14.535 9.126zm0-15.21c-4.394 0-7.774 2.704-7.774 6.422 0 1.352 0 2.366 7.774 2.366 7.775 0 7.775-1.014 7.775-2.366 0-3.718-3.38-6.422-7.775-6.422z"/>
    <path d="M253.6 334.9c-.8-4.1-7.8-8.1-7-10.8l-16 8.2c-1 2.4-2.5 5.6-1.3 9.7s2.3 12.5 2.3 12.5l3.2-.1 1.2-8.1s.3 7.6 9.7 9c9.2-2.5 13.1 1.9 13.1 1.9z" style="fill:#ccc29a" transform="translate(-481.313 -591.119) scale(3.38016)"/>
    <path d="M235.7 343.5c1.5 3.1.73 7.044 4.13 9.344 3.4 2.4 5.813 2.313 5.813 2.313l2.928-.514s4.429-.843 5.929-.143c1.5.8.6-9.6.6-9.6s-9 13.6-19.4-1.4z" style="fill:#938b69" transform="translate(-481.313 -591.119) scale(3.38016)"/>
    <path d="M393.133 619.315c-.676 0-1.352-.338-2.028-.676-.338-.676-12.844-13.52-41.914-5.746h-1.014c-18.929-2.704-27.379-12.845-31.435-21.295l-2.366 15.887c-.338 1.352-1.352 2.028-2.366 2.028l-10.817.338c-1.352 0-2.366-1.014-2.366-2.028 0-.338-3.718-28.394-7.774-41.914-4.056-14.197.676-25.013 4.056-33.126 30.114-18.738 19.14-26.805 58.815-28.055-1.014 3.38 4.394 9.126 9.802 14.535 6.084 6.422 12.507 13.52 14.197 20.957l17.239 75.715c.338 1.014-.338 2.366-1.353 2.704.338.676-.338.676-.676.676zm-26.027-13.858c10.479 0 17.577 2.704 22.31 5.408l-15.887-69.293c-1.015-6.085-7.437-12.507-12.845-18.591-6.76-7.099-12.874-14.056-10.817-19.267.687 2.123 3.325 3.248-49.35 27.38.676.675.676 1.69.338 2.365l-.676 1.352c-3.38 7.775-7.436 17.577-3.718 30.084 3.38 11.83 6.422 33.463 7.436 40.562h6.423l3.718-25.352c.338-1.352 1.352-2.028 2.704-2.028s1.873 2.387 2.612 3.633c.518.872 1.106 22.394 29.837 26.789 6.423-2.366 12.507-3.042 17.915-3.042z"/>
    <path d="M236.1 347.2s-.8-3.9-2.6-5.5" style="fill:#f80" transform="translate(-481.313 -591.119) scale(3.38016)"/>
    <path d="M316.742 584.838c-1.014 0-2.366-.676-2.366-2.029 0 0-2.704-12.506-7.775-17.238-1.014-1.014-1.014-2.366 0-3.38 1.015-1.015 2.367-1.015 3.38 0 6.423 6.084 9.162 19.125 9.5 19.801-.084 1.6-.711 2.846-2.063 3.184-.338-.338-.676-.338-.676-.338z"/>
    <path d="m245.4 342.6 1.1.7s.5 5.5 1.8 7.9c1.3 2.5 1.4 7.4 1.4 7.4l3-.1s2.5-6 1.9-10.1c-.6-4.1-2-10.1-1.6-12.3" style="fill:#ccc29a" transform="translate(-481.313 -591.119) scale(3.38016)"/>
    <path d="m231.1 346.6 1 5.9 2.396.5.579-4.721c.354-.121-3.275.321-3.975-1.679ZM247.586 348.971s4.571 2.872 6.571 1.372c-.1 2.8-.757 4.828-1.457 7.028-1.6.5-2.4-.571-2.4-.571s-.957-3.114-1.457-4.714c-.5-1.7-.857-1.315-1.257-3.115z" style="fill:#938b69" transform="translate(-481.313 -591.119) scale(3.38016)"/>
    <path d="M362.712 623.71c-.676 0-1.352-.339-1.69-.677-.338-.338-.676-1.014-.676-1.69 0 0-.338-16.224-4.394-23.999-4.056-7.436-5.747-21.97-6.085-26.365l-2.704-1.69c-1.352-.676-1.69-2.366-1.014-3.38.676-1.352 2.366-1.69 3.38-1.014l3.719 2.366c.676.338 1.014 1.014 1.352 2.028 0 .338 1.69 17.915 5.746 26.027 3.718 6.76 4.732 18.59 4.732 23.661h6.084c1.69-4.732 7.099-20.619 5.747-31.435-.676-4.056-1.352-8.45-2.366-13.183-2.029-12.168-4.395-23.323-3.043-29.07.338-1.351 1.69-2.365 3.043-2.027 1.352.338 2.366 1.69 2.028 3.042-1.014 4.732 1.014 16.9 3.042 27.38 1.014 4.731 1.69 9.125 2.366 13.52 2.028 14.196-6.084 34.815-6.76 35.491-.338 1.014-1.352 1.352-2.366 1.69z"/>
    <path d="M254.8 360.8c0 1.8-1.7 1.9-3.8 1.9-2.1 0-3.9-.1-3.9-1.9 0-1.8 1.7-3.3 3.8-3.3 2.1 0 3.9 1.4 3.9 3.3z" style="display:inline;fill:#ccc29a" transform="translate(-481.313 -591.119) scale(3.38016)"/>
    <path d="M247.9 360.5s1.1 1.4 1.9.2c.9 1.4 1.8.6 2 .2.7.9 2.4.4 1.9-1.3.9 1.1.2 2-.2 2.1-.3.1-1.9.619-4.3.219 0 0-1.861-.02-1.3-1.419z" style="fill:#938b69" transform="translate(-481.313 -591.119) scale(3.38016)"/>
    <path d="M240 337.5c-.4 0-.7-.3-.7-.6-.1-.4.2-.8.6-.8 3-.4 5.9-3.2 5.9-3.3.3-.3.8-.3 1 0 .3.3.3.8 0 1-.1.1-3.2 3.2-6.7 3.7z" style="fill:#938c6a" transform="translate(-481.313 -591.119) scale(3.38016)"/>
    <path d="M367.106 637.23c-6.084 0-15.548 0-15.548-9.126 0-7.437 7.098-13.521 15.548-13.521s15.549 6.084 15.549 13.52c-.338 9.127-9.464 9.127-15.549 9.127zm-.338-17.577c-5.746 0-10.478 4.056-10.478 8.789 0 3.042 1.352 4.056 10.478 4.056 8.789 0 10.479-1.014 10.479-4.056 0-5.07-4.394-8.789-10.479-8.789z" style="display:inline"/>
    <path d="M236 354.6c.6 1.7-.9 2.4-2.9 3.1-2 .7-3.7 1.2-4.3-.5-.6-1.7.5-3.7 2.5-4.4 2-.8 4.1 0 4.7 1.8z" style="fill:#ccc29a" transform="translate(-481.313 -591.119) scale(3.38016)"/>
    <path d="M294.682 614.584s5.07 3.38 6.085-1.352c4.394 3.38 6.422-.338 6.422-1.69 3.38 2.028 8.702-1.869 4.984-6.939 4.056 2.704 3.147 6.718 2.471 7.056-1.014.676-6.441 4.277-14.554 5.967 0-.338-5.408 1.352-5.408-3.042z" style="fill:#938b69;stroke-width:3.38016"/>
    <path d="M297.475 622.695c-3.718 0-6.422-2.028-7.774-5.746-2.704-7.098 1.69-15.21 9.802-18.253a16.788 16.788 0 0 1 11.493 0c3.718 1.352 6.422 4.056 7.774 7.437 1.352 3.718.676 6.76-2.366 9.464-2.366 2.028-5.408 3.38-9.127 4.394-3.042 1.352-6.76 2.704-9.802 2.704zm8.112-19.943c-1.352 0-2.704.338-4.056.676-5.408 2.029-8.45 7.099-6.76 11.831.676 1.69 1.352 2.366 3.042 2.366 2.366 0 5.07-1.014 8.112-2.028 3.043-1.014 5.747-2.366 7.437-3.718 1.014-1.014 1.69-2.028 1.014-3.718-.676-2.028-2.366-3.719-4.732-4.733-1.69-.338-2.705-.676-4.057-.676z"/>
  </g>
  <g class="Front--group">
    <path d="M302.546 476.336s-5.07-13.183-16.225-19.943c-6.76-4.057-11.492-6.423-9.126 8.112 2.366 14.197 8.112 31.097 14.197 34.14 6.084 3.38 11.154-22.31 11.154-22.31z" style="fill:#827b5d;stroke-width:3.38016"/>
    <path d="M292.405 501.686c-.676 0-1.69-.338-2.366-.676-8.113-4.394-13.52-24.675-15.549-35.83-1.352-7.436-1.014-11.492 1.69-13.183 3.042-2.028 7.098.338 11.155 2.705 11.83 6.76 16.9 20.619 17.238 20.957l.338.676v.676c-1.014 5.07-4.394 21.295-10.14 24.337-.676 0-1.352.338-2.366.338zm-13.183-45.632c-.338.338-.676 2.366.338 8.112 2.704 15.549 8.45 29.745 12.845 32.45 2.028-1.015 5.408-10.141 7.436-19.943-1.014-2.705-6.084-12.845-14.873-17.915-1.352-.676-4.394-2.704-5.746-2.704z"/>
    <path d="M330.94 477.688s-1.353-11.493 15.886-24.676c7.099-5.408 15.549-11.492 16.901 2.367 1.352 13.52-4.394 22.647-4.394 22.647s6.76 7.436-11.155 14.196-17.239-14.534-17.239-14.534z" style="fill:#827b5d;stroke-width:3.38016"/>
    <path d="M341.755 496.277c-2.704 0-5.07-.676-6.76-2.028-6.423-4.394-6.423-14.872-6.423-16.224 0-1.69-.338-13.521 16.901-26.704 5.747-4.394 11.155-8.112 15.887-6.084 3.042 1.352 4.732 4.732 5.07 10.14 1.014 11.155-2.366 19.606-3.718 22.986.676 1.352 1.014 3.042.676 5.408-1.014 4.394-5.746 8.112-13.859 11.492-3.042.338-5.746 1.014-7.774 1.014zm-8.45-18.59c0 2.366.676 9.464 4.394 12.168 2.366 1.69 5.408 1.69 9.464 0 8.45-3.38 10.479-6.422 10.817-7.774.338-1.352-.338-2.366-.676-2.366l-1.014-1.352 1.014-1.69s5.07-8.45 3.718-21.295c-.338-4.733-1.69-5.747-2.366-6.085-2.366-1.014-8.113 3.38-10.817 5.409-15.886 11.83-14.872 22.309-14.872 22.309z"/>
    <path d="m338.714 477.688 1.69-4.395c2.366-5.746 11.492-13.52 12.506-14.196 1.015-1.014 2.705-.676 3.38.338 1.015 1.014.677 2.704-.337 3.38-2.028 1.69-6.085 5.408-8.789 8.788a28.252 28.252 0 0 1 4.394 1.014c1.352.338 2.029 2.028 1.352 3.042-.338 1.353-2.028 2.029-3.042 1.353 0 0-3.718-1.353-6.76-.676zm-45.97 3.042c-.676 0-1.69-.338-2.028-1.014l-6.423-9.127c-.676-1.014-.338-2.704.676-3.38 1.014-.676 2.704-.338 3.38.676l6.423 9.127c.676 1.014.338 2.704-.676 3.38-.338 0-1.014.338-1.352.338z" style="fill:#544f3b;stroke-width:3.38016"/>
    <path d="M318.477 470.238c-1.95.027-3.996.138-6.128.351-34.14 3.38-22.647 37.858-22.647 37.858s1.352 14.535 8.45 23.661c-3.38 8.113 31.422-7.152 40.24-2.319l14.096-23.39c4.435-16.8-4.719-36.543-34.011-36.161z" style="fill:#ccc29a;stroke-width:3.38016"/>
    <path d="M319.288 467.518a80.665 80.665 0 0 0-7.617.367c-10.479 1.014-17.915 5.07-22.309 11.83-7.436 11.492-3.041 27.042-2.365 29.408.338 2.028 1.689 14.534 8.111 23.66l4.955-2.363c-6.02-8.804-7.32-21.975-7.32-21.975v-.675c-.338-.339-5.07-15.212 1.69-25.352 3.38-5.408 9.803-8.449 18.591-9.463 15.21-1.352 26.703 1.689 33.125 9.125 4.394 5.746 6.085 13.52 3.719 21.633l4.055 1.015c2.704-9.802 1.016-19.267-4.73-26.027-4.437-5.324-13.273-11.165-29.905-11.184zm-19.225 62.902c.153.223.295.456.453.674.676.676.676 1.689.338 2.365l-.675 1.352 29.87-18.696z"/>
    <path d="M297.138 524.334s11.492 20.28 22.985 5.408" style="fill:#ccc29a;stroke-width:3.38016"/>
    <path d="M310.996 538.53h-1.014c-9.127-.677-15.211-11.155-15.887-12.507-1.014-1.69-.338-3.718 1.352-4.394 1.69-1.014 3.718-.338 4.394 1.352 1.352 2.366 6.084 8.788 10.479 9.126 2.366 0 4.394-1.352 6.76-4.056 1.014-1.352 3.38-1.69 4.732-.676 1.352 1.014 1.69 3.38.676 4.732-3.38 4.394-7.436 6.422-11.492 6.422zm23.661-6.423c-3.718 0-6.423-1.69-6.76-2.028-1.015-.676-1.353-2.366-.677-3.38.676-1.014 2.367-1.352 3.38-.676 0 0 3.043 2.028 6.423.676 3.718-1.352 9.142-6.508 12.86-23.07.338-1.353 1.337-1.943 2.689-1.943 1.352.338 1.642.532 1.642 1.884-3.38 14.873-8.403 24.819-15.163 27.523-1.69.676-3.042 1.014-4.394 1.014z"/>
    <path d="M-378.425 488.166a18.27 15.627 0 0 1-18.27 15.626 18.27 15.627 0 0 1-18.27-15.626 18.27 15.627 0 0 1 18.27-15.627 18.27 15.627 0 0 1 18.27 15.627z" style="fill:#169b94;stroke-width:3.55922" transform="matrix(.37248 -.92804 .94118 .33792 0 0)"/>
    <path d="M310.658 518.25c1.69 0 3.38.338 5.07 1.014 7.437 3.042 11.493 11.492 8.451 18.928-2.366 5.747-7.774 9.465-13.859 9.465-1.69 0-3.38-.338-5.07-1.014-7.436-3.042-11.492-11.493-8.45-18.929 2.366-5.746 7.774-9.464 13.858-9.464m0-5.07c-8.112 0-15.548 5.07-18.252 12.844-2.028 5.07-1.69 10.14.338 15.21 2.028 4.733 6.084 8.451 10.816 10.48 2.366 1.013 4.732 1.351 7.098 1.351 8.113 0 15.55-5.07 18.253-12.844 2.028-5.07 1.69-10.14-.338-15.211-2.028-4.732-6.084-8.45-10.816-10.479-2.366-1.014-4.732-1.352-7.099-1.352z" style="stroke-width:3.38016"/>
    <path d="M309.982 546.643c1.353.338 2.705.676 4.057.338 4.394-1.014 8.45-4.394 10.14-9.127 0-.338 0-.338.338-.676 1.352-5.746-1.352-11.492-6.422-13.182-5.408-2.028-11.83 1.352-13.859 7.774-2.366 6.422.338 12.845 5.746 14.873z" style="fill:#02b7b7;stroke-width:3.38016"/>
    <path d="M318.77 527.714c.677.338 1.015.338 1.691.676-.338 1.69-1.352 4.056-3.718 7.774 0-4.732-.676-8.45-.676-8.45.338 0 1.352-.338 2.704 0m2.366 1.69c3.718 3.718 2.704 9.126-.338 12.507 1.352-4.057 1.69-7.437.338-12.507m-6.76-1.69c-2.028 3.042-4.395 5.408-6.085 8.45-.338.676-1.014 1.352-1.014 2.704-1.014-4.056 1.352-9.126 7.099-11.154m5.408 15.21c-3.38 2.367-8.45 3.38-11.493-1.351 0 0 2.705 1.014 2.028-2.705-.338-2.028 0-3.38 1.69-5.746.677-1.352 1.015-1.69 1.69-2.704 0 3.718.339 6.76-.337 10.817-.676-.338-1.69-.338-1.352.338l4.056 1.352c.338 0 .676-.338.676-.338 0-.338 0-.338-.676-.676.338-1.352.338-2.028.338-4.057 1.014-1.69 2.028-3.042 3.38-5.746.338 4.394.338 7.099-.676 10.14h-1.014c-.338 0-.338.339-.338.677.676 0 1.352-.338 2.028 0m-8.112 2.366c7.098 2.028 15.548-6.76 11.492-14.535-4.056-7.774-14.535-3.718-16.563 3.042-1.69 5.409 1.014 10.14 5.07 11.493" style="fill:#fff;stroke-width:3.38016"/>
    <path d="M337.362 512.841c-.676 0-1.352-.338-2.028-1.014-7.437-9.464-17.577-13.858-29.408-12.506-1.352 0-2.704-1.014-2.704-2.367 0-1.352 1.014-2.704 2.366-2.704 9.465-1.014 22.985.676 33.802 14.535 1.014 1.014.676 2.704-.338 3.38-.676.338-1.014.676-1.69.676zm-15.211-20.957c-.676 0-1.69-.338-2.028-1.014-1.014-1.69-2.366-5.746-1.014-7.774.676-1.014 2.366-1.352 3.38-.676 1.014.676 1.352 2.028 1.014 3.042 0 .676.338 2.028.676 2.704.676 1.014.338 2.704-.676 3.38-.338.338-.676.338-1.352.338zm1.352-6.084zm-21.633 7.774c-.676 0-1.69-.338-2.028-1.014-.676-1.014-.676-2.366.338-3.042.338-.676.676-2.028.338-2.704-.338-1.352.676-2.704 2.028-3.042 1.352-.338 2.704.676 3.042 2.028.338 1.69 0 6.084-2.028 7.436-.676.338-1.352.338-1.69.338zm-1.352-4.394z" style="fill:#938c6a;stroke-width:3.38016"/>
    <path d="M305.926 507.771s1.69 10.479-7.098 15.21c-7.436 4.057-14.535-1.69-12.169-8.45 3.043-9.126 11.493-17.576 21.295-17.576 9.803 0 20.281 10.14 23.661 19.266 3.38 9.127-2.704 16.225-14.196 12.169-11.493-4.394-11.83-12.845-11.493-20.619z" style="fill:#827b5d;stroke-width:3.38016"/>
    <path d="M323.503 532.108c-2.028 0-4.394-.338-7.098-1.352-6.423-2.366-9.803-6.084-11.493-9.802-1.352 1.69-3.042 3.38-5.07 4.394-4.394 2.366-9.126 2.366-12.845-.338-3.38-2.704-4.394-6.76-3.042-11.155 3.042-9.126 11.83-19.267 23.661-19.267 11.155 0 22.31 10.817 26.028 20.957 2.028 5.409 1.014 10.479-2.029 13.521-1.69 1.69-4.732 3.042-8.112 3.042zm-15.21-20.28c.337 6.084 2.027 11.154 10.14 14.196 4.394 1.69 8.112 1.352 10.14-.676 1.69-1.69 2.028-4.732 1.014-8.45-3.042-8.45-12.506-17.577-21.295-17.577-9.126 0-16.562 8.112-18.929 15.886-.676 2.028-.338 4.395 1.353 5.409 1.352 1.014 4.056 1.69 7.098 0 4.056-2.366 5.408-6.085 5.746-9.127v-4.056l5.07-.338c-.338.338 0 2.366-.338 4.732z" style="stroke-width:3.38016"/>
    <path d="M304.574 511.49s-16.225-11.155.338-13.521c16.563-2.367 7.437 9.126 2.366 13.182-1.352 1.352-2.704.338-2.704.338z" style="stroke-width:3.38016"/>
    <path d="M324.517 519.94a1.69 1.69 0 0 1-1.69 1.69 1.69 1.69 0 0 1-1.69-1.69 1.69 1.69 0 0 1 1.69-1.69 1.69 1.69 0 0 1 1.69 1.69zM321.813 511.49a1.69 1.69 0 0 1-1.69 1.69 1.69 1.69 0 0 1-1.69-1.69 1.69 1.69 0 0 1 1.69-1.69 1.69 1.69 0 0 1 1.69 1.69zM317.419 517.912a1.69 1.69 0 0 1-1.69 1.69 1.69 1.69 0 0 1-1.69-1.69 1.69 1.69 0 0 1 1.69-1.69 1.69 1.69 0 0 1 1.69 1.69zM294.096 516.897a1.69 1.69 0 0 1-1.69 1.69 1.69 1.69 0 0 1-1.69-1.69 1.69 1.69 0 0 1 1.69-1.69 1.69 1.69 0 0 1 1.69 1.69zM299.842 513.517a1.69 1.69 0 0 1-1.69 1.69 1.69 1.69 0 0 1-1.69-1.69 1.69 1.69 0 0 1 1.69-1.69 1.69 1.69 0 0 1 1.69 1.69z" style="fill:#474334;stroke-width:3.38016"/>
    <path d="M335.334 492.898a8.112 8.112 0 0 1-8.113 8.113 8.112 8.112 0 0 1-8.112-8.113 8.112 8.112 0 0 1 8.112-8.112 8.112 8.112 0 0 1 8.113 8.112zM303.56 493.236a6.084 6.084 0 0 1-6.084 6.085 6.084 6.084 0 0 1-6.084-6.085 6.084 6.084 0 0 1 6.084-6.084 6.084 6.084 0 0 1 6.084 6.084z" style="stroke-width:3.38016"/>
    <path d="M324.18 495.94s-2.367-3.042-.339-5.746c2.028-2.704 5.07-1.69 5.07-1.69s-4.732 3.38-4.732 7.436zm-28.394 0s-1.69-2.028-.338-4.394c1.352-2.028 3.718-1.352 3.718-1.352s-3.38 2.704-3.38 5.746z" style="fill:#fff;stroke-width:3.38016"/>
  </g>
</svg>