<svg xmlns="http://www.w3.org/2000/svg" id="wapuugotchi_svg__wapuu" x="0" y="0" version="1.1" viewBox="0 0 1000 1000">
  <style id="animation--nose_wiggle_1">
    #wapuugotchi_type__wapuu #Face--group__nose { transform-origin: 55% 63%; animation: Face--group__nose 0.3s 0s 4 normal linear forwards}
    @keyframes Face--group__nose { 100,0% {transform: rotate(0deg)} 25% {transform: rotate(-0.3deg)} 75% {transform: rotate(0.3deg)}}
  </style>
  <style id="animation--ear_wiggle_1">
    #wapuugotchi_type__wapuu #LeftEar--group { transform-origin: 58% 35%; animation: LeftEar--group 0.1s 2s 2 normal linear forwards}@keyframes LeftEar--group { 100%, 0% {transform: rotate(0deg)} 50% {transform: rotate(20deg)}}
    #wapuugotchi_type__wapuu #RightEar--group { transform-origin: 41% 40%; animation: RightEar--group 0.1s 2s 2 normal linear forwards}@keyframes RightEar--group { 100%, 0% {transform: rotate(0deg)} 50% {transform: rotate(-20deg)}}
  </style>
  <style id="animation--foot_wiggle_1">
    #wapuugotchi_type__wapuu #LeftFoot--group { transform-origin: 49% 66%; animation: LeftFoot--group 3s 12s 2 normal linear forwards}@keyframes LeftFoot--group { 100%, 0% {transform: rotate(0deg)} 25% {transform: rotate(-5deg)} 50% {transform: rotate(0deg)} 75% {transform: rotate(5deg)}}
    #wapuugotchi_type__wapuu #RightFoot--group { transform-origin: 37% 64%; animation: RightFoot--group 3s 12s 2 normal linear forwards}@keyframes RightFoot--group { 100%, 0% {transform: rotate(0deg)} 25% {transform: rotate(5deg)} 50% {transform: rotate(0deg)} 75% {transform: rotate(-5deg)}}
  </style>
  <style id="animation--swing tail_1">
    #wapuugotchi_type__wapuu #Tail--group { transform-origin: 55% 63%; animation: Tail--group 3s 22s 2 normal ease-in-out forwards}
    @keyframes Tail--group { 0% {transform: rotate(0deg)} 50% {transform: rotate(-12deg)}}
  </style>
  <g id="wapuugotchi_type__wapuu">
    <g id="Background--group">
      <path d="M241.2 354.2c0 1.6-1.5 1.7-3.3 1.7-1.8 0-3.3-.1-3.3-1.7 0-1.6 1.5-2.8 3.3-2.8 1.8 0 3.3 1.3 3.3 2.8z"
            style="fill:#938b69" transform="matrix(3.38016 0 0 3.38016 -481.313 -591.119)"/>
      <path d="M322.826 615.259c-5.07 0-14.534 0-14.534-9.126 0-7.099 6.422-12.845 14.534-12.845 8.113 0 14.535 5.746 14.535 12.845-.338 9.126-9.465 9.126-14.535 9.126zm0-15.21c-4.394 0-7.774 2.703-7.774 6.422 0 1.352 0 2.366 7.774 2.366 7.775 0 7.775-1.014 7.775-2.366 0-3.719-3.719-6.423-7.775-6.423z"/>
      <path d="M253.8 356.1c0 1.6-1.5 1.7-3.3 1.7-1.8 0-3.3-.1-3.3-1.7 0-1.6 1.5-2.8 3.3-2.8 1.8 0 3.3 1.3 3.3 2.8z"
            style="fill:#938b69" transform="matrix(3.38016 0 0 3.38016 -481.313 -591.119)"/>
      <path d="M365.416 621.681c-5.07 0-14.535 0-14.535-9.126 0-7.098 6.423-12.845 14.535-12.845 8.113 0 14.535 5.747 14.535 12.845 0 9.126-9.465 9.126-14.535 9.126zm0-15.21c-4.394 0-7.774 2.704-7.774 6.422 0 1.352 0 2.366 7.774 2.366 7.775 0 7.775-1.014 7.775-2.366 0-3.718-3.38-6.422-7.775-6.422z"/>
      <path d="M253.6 334.9c-.8-4.1-7.8-8.1-7-10.8l-16 8.2c-1 2.4-2.5 5.6-1.3 9.7s2.3 12.5 2.3 12.5l3.2-.1 1.2-8.1s.3 7.6 9.7 9c9.2-2.5 13.1 1.9 13.1 1.9z"
            style="fill:#ccc29a" transform="matrix(3.38016 0 0 3.38016 -481.313 -591.119)"/>
      <path d="M393.133 619.315c-.676 0-1.352-.338-2.028-.676-.338-.676-12.844-13.52-41.914-5.746h-1.014c-18.929-2.704-27.379-12.845-31.435-21.295l-2.366 15.887c-.338 1.352-1.352 2.028-2.366 2.028l-10.817.338c-1.352 0-2.366-1.014-2.366-2.028 0-.338-3.718-28.394-7.774-41.914-4.056-14.197.676-25.013 4.056-33.126 30.114-18.738 19.14-26.805 58.815-28.055-1.014 3.38 4.394 9.126 9.802 14.535 6.084 6.422 12.507 13.52 14.197 20.957l17.239 75.715c.338 1.014-.338 2.366-1.353 2.704.338.676-.338.676-.676.676zm-26.027-13.858c10.479 0 17.577 2.704 22.31 5.408l-15.887-69.293c-1.015-6.085-7.437-12.507-12.845-18.591-6.76-7.099-12.874-14.056-10.817-19.267.687 2.123 3.325 3.248-49.35 27.38.676.675.676 1.69.338 2.365l-.676 1.352c-3.38 7.775-7.436 17.577-3.718 30.084 3.38 11.83 6.422 33.463 7.436 40.562h6.423l3.718-25.352c.338-1.352 1.352-2.028 2.704-2.028s2.366 1.014 2.366 2.366c0 1.014 1.352 23.661 30.083 28.056 6.423-2.366 12.507-3.042 17.915-3.042z"/>
      <path d="M236.1 347.2s-.8-3.9-2.6-5.5" style="fill:#f80"
            transform="matrix(3.38016 0 0 3.38016 -481.313 -591.119)"/>
      <path d="M316.742 584.838c-1.014 0-2.366-.676-2.366-2.029 0 0-2.704-12.506-7.775-17.238-1.014-1.014-1.014-2.366 0-3.38 1.015-1.015 2.367-1.015 3.38 0 6.423 6.084 9.127 19.266 9.465 19.942.338 1.353-.676 2.705-2.028 3.043-.338-.338-.676-.338-.676-.338z"/>
      <path d="M235.7 343.5c1.5 3.1.9 6.6 4.3 8.9 3.4 2.4 5.6 2.2 5.6 2.2l2.8-.6s4.6-.2 6.1.5c1.5.8.6-9.6.6-9.6s-9 13.6-19.4-1.4z"
            style="fill:#938b69" transform="matrix(3.38016 0 0 3.38016 -481.313 -591.119)"/>
      <path d="m245.4 342.6 1.1.7s.5 5.5 1.8 7.9c1.3 2.5 1.4 7.4 1.4 7.4l3-.1s2.5-6 1.9-10.1c-.6-4.1-2-10.1-1.6-12.3"
            style="fill:#ccc29a" transform="matrix(3.38016 0 0 3.38016 -481.313 -591.119)"/>
      <path d="M362.712 623.71c-.676 0-1.352-.339-1.69-.677-.338-.338-.676-1.014-.676-1.69 0 0-.338-16.224-4.394-23.999-4.056-7.436-5.747-21.97-6.085-26.365l-2.704-1.69c-1.352-.676-1.69-2.366-1.014-3.38.676-1.352 2.366-1.69 3.38-1.014l3.719 2.366c.676.338 1.014 1.014 1.352 2.028 0 .338 1.69 17.915 5.746 26.027 3.718 6.76 4.732 18.59 4.732 23.661h6.084c1.69-4.732 7.099-20.619 5.747-31.435-.676-4.056-1.352-8.45-2.366-13.183-2.029-12.168-4.395-23.323-3.043-29.07.338-1.351 1.69-2.365 3.043-2.027 1.352.338 2.366 1.69 2.028 3.042-1.014 4.732 1.014 16.9 3.042 27.38 1.014 4.731 1.69 9.125 2.366 13.52 2.028 14.196-6.084 34.815-6.76 35.491-.338 1.014-1.352 1.352-2.366 1.69z"/>
      <path d="M240 337.5c-.4 0-.7-.3-.7-.6-.1-.4.2-.8.6-.8 3-.4 5.9-3.2 5.9-3.3.3-.3.8-.3 1 0 .3.3.3.8 0 1-.1.1-3.2 3.2-6.7 3.7z"
            style="fill:#938c6a" transform="matrix(3.38016 0 0 3.38016 -481.313 -591.119)"/>
      <path d="M254.8 360.8c0 1.8-1.7 1.9-3.8 1.9-2.1 0-3.9-.1-3.9-1.9 0-1.8 1.7-3.3 3.8-3.3 2.1 0 3.9 1.4 3.9 3.3z"
            style="fill:#ccc29a" transform="matrix(3.38016 0 0 3.38016 -481.313 -591.119)"/>
      <path d="M367.106 637.23c-6.084 0-15.548 0-15.548-9.126 0-7.437 7.098-13.521 15.548-13.521s15.549 6.084 15.549 13.52c-.338 9.127-9.464 9.127-15.549 9.127zm-.338-17.577c-5.746 0-10.478 4.056-10.478 8.789 0 3.042 1.352 4.056 10.478 4.056 8.789 0 10.479-1.014 10.479-4.056 0-5.07-4.394-8.789-10.479-8.789z"/>
      <path d="M247.9 360.5s1.1 1.4 1.9.2c.9 1.4 1.8.6 2 .2.7.9 2.4.4 1.9-1.3.9 1.1.2 2-.2 2.1-.3.1-1.9.6-4.3.2 0 0-1.7-.2-1.3-1.4zM248.4 349.1s3.5 2.7 5.5 1.2c-.1 2.8-.8 4.7-1.5 6.9-1.6.5-2.1-.4-2.1-.4s-.4-3.2-.9-4.8c-.5-1.7-.6-1.1-1-2.9zM231.1 346.6l1 5.9 2.1.5.6-4.7c.1-.1-3 .3-3.7-1.7z"
            style="fill:#938b69" transform="matrix(3.38016 0 0 3.38016 -481.313 -591.119)"/>
      <path d="M236 354.6c.6 1.7-.9 2.4-2.9 3.1-2 .7-3.7 1.2-4.3-.5-.6-1.7.5-3.7 2.5-4.4 2-.8 4.1 0 4.7 1.8z"
            style="fill:#ccc29a" transform="matrix(3.38016 0 0 3.38016 -481.313 -591.119)"/>
      <path d="M297.475 622.695c-3.718 0-6.422-2.028-7.774-5.746-2.704-7.098 1.69-15.21 9.802-18.253a16.788 16.788 0 0 1 11.493 0c3.718 1.352 6.422 4.056 7.774 7.437 1.352 3.718.676 6.76-2.366 9.464-2.366 2.028-5.408 3.38-9.127 4.394-3.042 1.352-6.76 2.704-9.802 2.704zm8.112-19.943c-1.352 0-2.704.338-4.056.676-5.408 2.029-8.45 7.099-6.76 11.831.676 1.69 1.352 2.366 3.042 2.366 2.366 0 5.07-1.014 8.112-2.028 3.043-1.014 5.747-2.366 7.437-3.718 1.014-1.014 1.69-2.028 1.014-3.718-.676-2.028-2.366-3.719-4.732-4.733-1.69-.338-2.705-.676-4.057-.676z"/>
      <path d="M229.5 356.7s1.5 1 1.8-.4c1.3 1 1.9-.1 1.9-.5 1 .6 2.4-.4 1.3-1.9 1.2.8.8 1.9.6 2-.3.2-1.6 1.2-4 1.7 0-.1-1.6.4-1.6-.9z"
            style="fill:#938b69" transform="matrix(3.38016 0 0 3.38016 -481.313 -591.119)"/>
    </g>
    <g id="RightArm--group">
      <path d="M436.6 504c-4.5 5.1-10.5 7.9-17 7.9-9.1 0-18.5-5.5-24.4-14.4-7.8-11.6-15.5-21.2-22.3-27.9l-4.8-4.7c-2-2-1.1-5.3 1.6-6.1l6.5-1.7c3.2-.9 6.4-2.7 9.1-5.5 3-3 4.8-6.7 5.2-10.4V430c0-1.3 1.5-2.1 2.5-1.3l9.3 6.9c.7.5 1.7 1.1 2.9 1.7 10.2 4.9 31.7 27.4 35.7 46.7 2.1 10.1-1.2 16.5-4.3 20z"/>
      <path d="M402.1 444.1c-1.5-.7-2.9-1.5-4.2-2.4-.5 5.5-3 11-7.3 15.3-3.7 3.7-8.1 6.2-12.5 7.4 8.7 8.6 17 19.8 23.2 29.1 4.5 6.7 11.6 11.1 18.3 11.1 4.1 0 8.1-1.6 11.4-5.4 13-14.8-17.3-49.6-28.9-55.1z" class="st0" fill="#fc0"/>
    </g>
    <g id="Tail--group">
      <path d="M599.1 649.5c-9 25.7-26.4 50-50.3 70.3-23.8 20.3-51.8 34.7-81 41.6-6.9 1.6-14.1 2.5-21.5 2.5-30.8 0-58.9-13.9-74.8-27-13.6-11.1-21.2-23.3-20.9-33.5.4-12 6.7-20.7 16.8-23.3 2.1-.5 4.3-.8 6.7-.8 11.2 0 27.2 6.7 38.5 25.7 7.8 13.2 22 20.1 41.1 20.1h1.2c40.7-.8 87.6-31.2 109.1-70.8 7.7-14.1 13.2-29.6 17.1-40.8 1.9-5.4 3.6-10.1 5.1-13.5 1.3-3.1 4.1-9.4 10.4-9.4 4.1 0 7.6 1.8 9.9 5 5.5 7.6 3.3 23.3-7.4 53.9z"/>
      <path d="M570.5 657.8c-22.7 41.7-72.5 73.9-115.5 74.7h-1.4c-21.6 0-38.3-8.4-47.4-23.8-9-15.1-22-22.1-32.1-22.1-1.7 0-3.3.2-4.8.6-7 1.8-11 7.6-11.3 16.4-.3 7.7 6.6 18 18.2 27.5 16.8 13.7 43.2 25.3 70.1 25.3 6.6 0 13.3-.7 19.8-2.3 57.2-13.5 108.5-57.4 126-107.1 5.4-15.3 16.7-49.2 4.5-49.2-4.5.1-10.8 31.8-26.1 60z" class="st1" fill="#f80"/>
    </g>
    <g id="Body--group">
      <path d="M649.7 531.9c-2 24-6.7 45.1-13.9 62.9-8.5 20.9-20.3 36.6-35.1 46.8-34 23.4-64.8 26-76.4 26-1.3 0-2.5 0-3.8-.1-18.4-.8-26-4.4-32.7-7.5-5.9-2.8-11-5.2-24.9-5.7-37.5-1.5-67-9.9-83.1-23.6-.2-.1-.5-.4-.9-.7-4.8-3.5-19.3-14.3-25-24.7-5.3-9.7-6.2-22.3-2.3-31.4 13.4-31.2 24.5-40.5 33.5-48 3.6-3 6.4-5.3 8.8-8.7 2.2-3.1 3.8-7.1 4.9-12.2 0-.1 0-.2.1-.3 3.9-15 3.4-34.9 2.8-56-.2-5.7-.3-11.7-.4-17.5v-.1c0-18.6 9.6-40.7 25.7-59.2 18.1-20.8 41.6-33.6 66.1-36.2 20.2-2.1 34.3-3.1 45.9-3.1 43.7 0 58.6 14.8 82.2 48.4 7.5 10.6 12.1 22.5 16 33.7 11.1 30.4 15.9 76.5 12.5 117.2z"/>
      <path d="M358.5 576.7c-3 7-2.2 17.4 2 25 5.6 10.3 23 22.2 24.1 23.2 15.1 12.9 43.7 20.5 78.7 21.9 31.2 1.3 24.3 11.8 57.6 13.3 1.1 0 2.2.1 3.5.1 16.7 0 43.7-5 72.2-24.7 58-39.9 52.9-165.3 34-218.6-3.9-11.1-8.3-22.2-15.1-31.9-23.5-33.5-36.6-45.2-76.2-45.2-12.2 0-26.9 1.1-45.1 3.1-49.9 5.3-85.3 55.3-85.3 88.1.3 27.4 2.5 55.1-2.7 75.5-1.4 6.5-3.4 11.2-6 14.9-9.8 13.5-23.4 12.4-41.7 55.3z" class="st0" fill="#fc0"/>
    </g>
    <g id="Ball--group" />
    <g id="RightFoot--group">
      <path d="M384.3 648c-2.4 3.7-6.4 5.7-11.5 5.7-1.9 0-4-.3-6.2-.8-25-6-59.3-43.6-63.6-64.5-1.9-9.4-.2-18 5-24.4 4.6-5.7 11.4-8.8 18.9-8.8 6.8 0 13.6 2.5 19.8 7.3 12.2 9.4 32.9 50.5 37.3 60.7 2.5 5.8 4.9 17.7.3 24.8z"/>
      <path d="M310.1 586.8c3.8 18.2 36.2 53.6 58.1 58.8 1.7.4 3.2.6 4.5.6 3.4 0 4.7-1.3 5.4-2.3 2.3-3.5 1.5-12.1-1-17.9-6.1-13.9-25.3-50.3-35.1-57.8-4.9-3.8-10.2-5.8-15.3-5.8-5.3 0-10 2.2-13.2 6.1-3.6 4.7-4.8 11.2-3.4 18.3z" class="st0" fill="#fc0"/>
    </g>
    <g id="FullHead--group">
      <g id="BeforeHead--group" />
      <g id="RightEar--group">
        <path d="M413.3 399.4c-.4 4.4-3.8 8.4-11.1 12.9-4.7 3-10.2 5.5-13.9 6.5-6.5 1.7-12.3 2.6-17.3 2.6-6.7 0-10.6-1.6-12.7-2.9-4.8-3-4.4-7.2-4.2-8.5.5-3.1 2.9-5.5 5.9-6.2 3.5-.8 13.5-5.8 23.6-12.6 4.2-2.9 10.7-4.8 16.1-4.8 5.8 0 9.1 2.2 10.8 4.1 2.1 2.4 3.1 5.5 2.8 8.9z"/>
        <path d="M361.4 411.3c0 .3.4.7.9.9 1.1.7 3.6 1.8 8.8 1.8 4.3 0 9.5-.8 15.4-2.3 5.2-1.4 19.1-8.8 19.5-13 .1-1.3-.2-2.4-.9-3.2-1-1.1-2.8-1.7-5.3-1.7-3.9 0-8.9 1.5-11.9 3.5-8.5 5.7-20.5 12.5-26.1 13.7-.3.1-.4.2-.4.3z" class="st1" fill="#f80"/>
      </g>
      <g id="Head--group">
        <path d="M516.4 328.1c1.6 0 3.2 0 4.8.1 20.6.6 39.5 6.5 55.9 17 11.2 7.2 17.5 11.4 25.9 25.2 1.5 2.5 9 .8 7.9-1.1-10.1-17.6-17.5-22.3-29.8-30.3-17.7-11.4-37.8-17.6-59.7-18.2-1.6 0-3.3-.1-5-.1-1.6 0-3.3 0-4.9.1-24.3.6-47.8 6.6-67.8 17.1-20.2 10.6-37.1 26.1-48.9 44.7-7.7 12.3-10.3 23.9-7.4 33.5 2.4 7.8 7.9 12.7 12.3 14.6 1.4.6 2.9.9 4.7.9 9.3 0 34.7-9.3 45.7-24.8 8.4 4.5 17.6 6.7 28.1 6.7 12.6 0 25-3.2 36.4-6.9 3-1 3.8-2.2 3.9-4.1 0-1.3-1.2-3.6-3.8-3.5-.3 0-.7.1-1 .2-11.2 3.6-23.3 6.9-35.4 6.9-9.3 0-18.6-2-27.4-7.4-.6-.4-1.3-.5-1.9-.5-1.3 0-2.5.6-3.2 1.8l-.1.1c-7.9 14.3-33.3 24.1-41.2 24.1-.7 0-1.3-.1-1.7-.3-2.8-1.2-6.6-4.6-8.2-10-2.3-7.5 0-17 6.6-27.4 22.5-35.7 63.4-57.1 110.6-58.3 1.4-.1 3-.1 4.6-.1"/>
        <path d="M516.6 399.4c-1-.4-2-.7-3-.3-19.7 6.3-42.5 12-62.8-.5-1.7-1.1-4-.5-5.1 1.2l-.1.1c-8.6 15.7-38.3 26-43 23.9-2.8-1.2-6.6-4.6-8.2-10-2.3-7.5 0-17 6.6-27.4 22.5-35.7 63.4-57.1 110.6-58.3 3.1-.1 6.3-.1 9.5 0 20.6.6 39.5 6.5 55.9 17 13.2 8.5 19.7 12.7 30.6 33.6 5.6 10.5-84.4 23.5-91 20.7z" class="st0" fill="#fc0"/>
      </g>
      <g id="LeftEar--group">
        <path d="M701.4 357.1c-.5 1.7-1.2 3.4-2 5.2-5 10-17.7 23-38 29.1-4.5 1.4-9.3 2-14 2h-.1c-13 0-34.2-4.9-61.6-28.3-1.9-1.7-5.1-4.8-7.1-7-2.3-2.5-2.8-6.1-1.5-9.1s4.4-5.1 7.8-5.1h.5c13.9.8 30.1 1.2 48.4 1.2 8.1 0 14.8-.1 19.3-.1h4.5c7.4 0 13.3-.1 18.2-.1 8.1 0 13.7.1 17.1.2 2.9.1 5.6 1.5 7.3 3.9 1.5 2.3 2 5.2 1.2 8.1z"/>
        <path d="M590.4 359.4c25.7 21.9 45.1 26.5 56.8 26.5h.1c4 0 8-.6 11.9-1.7 18.1-5.4 29.2-16.6 33.5-25.3.8-1.5 1.2-2.8 1.5-3.9.4-1.3-.6-2.6-1.9-2.7-3.3-.1-8.9-.2-16.7-.2-5.4 0-11.6 0-18.2.1-3.3 0-12.2.2-23.9.2-13.9 0-31.7-.2-48.8-1.2h-.1c-.9 0-1.5 1.1-.8 1.8 2 2.2 5 5.1 6.6 6.4z" class="st1" fill="#f80"/>
      </g>
      <g id="Face--group">
        <path d="M417.6 376.2c-4.1 0-7.4 3.3-7.4 7.4 0 9.9 14.8 9.9 14.8 0 0-4.1-3.3-7.4-7.4-7.4z"/>
        <path d="M503.2 355.7c-4.1 0-7.4 3.3-7.4 7.4 0 9.9 14.8 9.9 14.8 0 0-4.1-3.3-7.4-7.4-7.4z"/>
        <path id="Face--group__nose" d="M457.9 375.4c-7.4.8-12.3 2.5-15.6 4.9-5.9 4.4-4.1 9.9 2.5 10.7 6.6.8 7.1 1.2 13.2-3.3 6.5-4.9 7.3-13.1-.1-12.3z"/>
      </g>
    </g>
    <g id="LeftLeg--group">
      <path d="M512.4 655.2c-4.6-5.2-3.7-15.7-1.9-29.4 2.6-19.8 5-34.5 25.4-50.8 24.4-19.5 62.2-15 76.2-.5 3.6 3.7 6.7 10.9 7.3 18.8.9 11.4-22.2 42.4-44.8 51.8-22.6 9.6-54 19.3-62.2 10.1z" class="st0" fill="#fc0"/>
      <path d="M512.4 658.9c-1.2 0-2.3-.5-3-1.6-4.7-6.7-4.5-17.2-2.6-32 2.5-19 4.6-35.5 26.8-53.2 26.8-21.4 63.7-14 78.4.7 1.4 1.4 1.4 3.8 0 5.2-1.4 1.4-3.8 1.4-5.2 0-12.5-12.5-45.4-18.7-68.6-.1-18.9 15.1-21.4 28.2-24.1 48.4-1.4 11-2.3 21.8 1.3 26.7 1.2 1.7.8 4-.9 5.2-.6.5-1.4.7-2.1.7z"/>
    </g>
    <g id="LeftFoot--group">
      <path d="M523.7 651.2c-.4 1.9-2 9.1-6.7 16.2-7 10.6-17.8 16.5-30.4 16.5-7.2 0-12.9-2.1-16.8-6.2-7.5-7.8-7.1-21-6.7-33.7v-.1c.2-6.4.4-13.1-.4-18.5-.7-4.4-1.8-9.1-3.1-14.5-2.4-10.2-4.6-20.1-4.3-28.7.4-10.7 4.7-18.9 12.8-24.4 3.5-2.4 7.4-3.5 11.4-3.5 9.3 0 18.9 6.2 28.7 18.6 7.1 8.9 13.1 20 15.4 28.1 6.4 21.8 4.9 34.9.1 50.2z"/>
      <path d="M477 670.8c2 2.1 5.2 3.1 9.6 3.1 22.6 0 27-23.7 27.2-24.7 0-.2.1-.4.1-.6 4.4-13.9 5.7-25.2 0-44.8-3.7-13.2-21.1-39.4-34.4-39.4-2 0-4 .6-5.8 1.9-11.7 7.8-9.3 21.8-4.4 42.4 1.2 5.1 2.5 10.4 3.2 15.3 1 6.4.8 13.5.5 20.4-.2 10.6-.6 21.6 4 26.4z" class="st0" fill="#fc0"/>
    </g>
    <g id="LeftArm--group">
      <g id="BeforeLeftArm--part"/>
      <path d="M478 413.3c-6.4 2.9-12.4 6.6-17.6 11.1-12.1 10.6-12.6 19.4-10.8 24.8 2.5 7.7 11.1 13.4 21.9 14.6 7.1.7 16.2-1.3 26.7-3.6 13.9-3.1 29.7-6.6 42.9-3.9 19.6 4.1 33.3 15 53.1 32.7l10.3 9.2c1.5 1.3 3.9 1.2 5.2-.4 1.3-1.5 1.2-3.9-.4-5.2l-2.9-2.6c-24-21.7-39.9-36-63.8-41-14.8-3.1-31.3.6-46 3.9-9.5 2.1-18.5 4.1-24.3 3.5-7.8-.8-14.1-4.6-15.7-9.5-1.5-4.7 1.6-10.7 8.7-17 20.7-18.2 59.1-23.7 87.5-12.5 4.7 1.9 7.4-5.1 2.7-6.9-11.4-4.4-24.6-6.6-37.7-6.2-10.1.4-30.5 4.8-39.8 9z"/>
      <path d="M615.4 451c11.7 12.2 17 60.3-6 41.6l-2.9-2.6c-24-21.7-39.9-36-63.8-41-14.8-3.1-31.3.6-46 3.9-9.5 2.1-18.5 4.1-24.3 3.5-7.8-.8-14.1-4.6-15.7-9.5-1.5-4.7 1.6-10.7 8.7-17 20.7-18.2 59.3-24 87.5-12.5 4.6 2 46.1 16.5 62.5 33.6z" class="st0" fill="#fc0"/>
    </g>
    <g id="RightHand--group">
      <g id="BeforeRightHand--part"/>
      <path d="M390.6 457c-5.2 5.1-11.7 8.1-17.8 8.1-8.1 0-14-5.1-15.6-13.3-1-5.4.9-11.3 5.4-16.7 5.8-6.9 14.9-12 21.7-12.1h.2c1.3 0 2.6.2 3.8.6h.2l.1.1c4.5 1.8 7.9 6.2 9.1 11.8 1.4 7.5-1.2 15.5-7.1 21.5z"/>
      <path d="M385.4 451.7c4.2-4.2 6-9.6 5-14.7-.6-3.1-2.3-5.5-4.6-6.4-.4-.1-.9-.2-1.3-.2h-.1c-4 0-11.3 3.6-16.1 9.4-1.8 2.1-4.6 6.3-3.8 10.6 1.1 6 5.1 7.3 8.3 7.3 4.1 0 8.8-2.2 12.6-6z" class="st0" fill="#fc0"/>
    </g>
    <g id="Front--group">
      <g>
        <path d="M231.9 315.8s-1.5-3.9-4.8-5.9c-2-1.2-3.4-1.9-2.7 2.4.7 4.2 2.4 9.2 4.2 10.1 1.8 1 3.3-6.6 3.3-6.6z"
              style="fill:#827b5d" transform="matrix(3.38016 0 0 3.38016 -481.313 -591.119)"/>
        <path d="M292.405 501.686c-.676 0-1.69-.338-2.366-.676-8.113-4.394-13.52-24.675-15.549-35.83-1.352-7.436-1.014-11.492 1.69-13.183 3.042-2.028 7.098.338 11.155 2.705 11.83 6.76 16.9 20.619 17.238 20.957l.338.676v.676c-1.014 5.07-4.394 21.295-10.14 24.337-.676 0-1.352.338-2.366.338zm-13.183-45.632c-.338.338-.676 2.366.338 8.112 2.704 15.549 8.45 29.745 12.845 32.45 2.028-1.015 5.408-10.141 7.436-19.943-1.014-2.705-6.084-12.845-14.873-17.915-1.352-.676-4.394-2.704-5.746-2.704z"/>
        <path d="M240.3 316.2s-.4-3.4 4.7-7.3c2.1-1.6 4.6-3.4 5 .7.4 4-1.3 6.7-1.3 6.7s2 2.2-3.3 4.2-5.1-4.3-5.1-4.3z"
              style="fill:#827b5d" transform="matrix(3.38016 0 0 3.38016 -481.313 -591.119)"/>
        <path d="M341.755 496.277c-2.704 0-5.07-.676-6.76-2.028-6.423-4.394-6.423-14.872-6.423-16.224 0-1.69-.338-13.521 16.901-26.704 5.747-4.394 11.155-8.112 15.887-6.084 3.042 1.352 4.732 4.732 5.07 10.14 1.014 11.155-2.366 19.606-3.718 22.986.676 1.352 1.014 3.042.676 5.408-1.014 4.394-5.746 8.112-13.859 11.492-3.042.338-5.746 1.014-7.774 1.014zm-8.45-18.59c0 2.366.676 9.464 4.394 12.168 2.366 1.69 5.408 1.69 9.464 0 8.45-3.38 10.479-6.422 10.817-7.774.338-1.352-.338-2.366-.676-2.366l-1.014-1.352 1.014-1.69s5.07-8.45 3.718-21.295c-.338-4.733-1.69-5.747-2.366-6.085-2.366-1.014-8.113 3.38-10.817 5.409-15.886 11.83-14.872 22.309-14.872 22.309z"/>
        <path d="m242.6 316.2.5-1.3c.7-1.7 3.4-4 3.7-4.2.3-.3.8-.2 1 .1.3.3.2.8-.1 1-.6.5-1.8 1.6-2.6 2.6.7.1 1.3.3 1.3.3.4.1.6.6.4.9-.1.4-.6.6-.9.4 0 0-1.1-.4-2-.2zM229 317.1c-.2 0-.5-.1-.6-.3l-1.9-2.7c-.2-.3-.1-.8.2-1 .3-.2.8-.1 1 .2l1.9 2.7c.2.3.1.8-.2 1-.1 0-.3.1-.4.1z"
              style="fill:#544f3b" transform="matrix(3.38016 0 0 3.38016 -481.313 -591.119)"/>
        <path d="M236.613 313.996c-.577.008-1.182.041-1.813.104-10.1 1-6.7 11.2-6.7 11.2s.4 4.3 2.5 7c-1 2.4 9.296-2.116 11.905-.686l4.17-6.92c1.312-4.97-1.396-10.811-10.062-10.698z"
              style="fill:#ccc29a" transform="matrix(3.38016 0 0 3.38016 -481.313 -591.119)"/>
        <path d="M319.288 467.518a80.665 80.665 0 0 0-7.617.367c-10.479 1.014-17.915 5.07-22.309 11.83-7.436 11.492-3.041 27.042-2.365 29.408.338 2.028 1.689 14.534 8.111 23.66l4.955-2.363c-6.02-8.804-7.32-21.975-7.32-21.975v-.675c-.338-.339-5.07-15.212 1.69-25.352 3.38-5.408 9.803-8.449 18.591-9.463 15.21-1.352 26.703 1.689 33.125 9.125 4.394 5.746 6.085 13.52 3.719 21.633l4.055 1.015c2.704-9.802 1.016-19.267-4.73-26.027-4.437-5.324-13.273-11.165-29.905-11.184zm-19.225 62.902c.153.223.295.456.453.674.676.676.676 1.689.338 2.365l-.675 1.352 29.87-18.696z"/>
        <path d="M230.3 330s3.4 6 6.8 1.6" style="fill:#ccc29a"
              transform="matrix(3.38016 0 0 3.38016 -481.313 -591.119)"/>
        <path d="M310.996 538.53h-1.014c-9.127-.677-15.211-11.155-15.887-12.507-1.014-1.69-.338-3.718 1.352-4.394 1.69-1.014 3.718-.338 4.394 1.352 1.352 2.366 6.084 8.788 10.479 9.126 2.366 0 4.394-1.352 6.76-4.056 1.014-1.352 3.38-1.69 4.732-.676 1.352 1.014 1.69 3.38.676 4.732-3.38 4.394-7.436 6.422-11.492 6.422zM334.657 532.107c-3.718 0-6.423-1.69-6.76-2.028-1.015-.676-1.353-2.366-.677-3.38.676-1.014 2.367-1.352 3.38-.676 0 0 3.043 2.028 6.423.676 3.718-1.352 9.142-6.508 12.86-23.07.338-1.353 1.337-1.943 2.689-1.943 1.352.338 1.642.532 1.642 1.884-3.38 14.873-8.403 24.819-15.163 27.523-1.69.676-3.042 1.014-4.394 1.014z"/>
        <g transform="matrix(3.38016 0 0 3.38016 -481.313 -591.119)">
          <ellipse cx="-233.914" cy="341.84" rx="5.405" ry="4.623"
                   style="fill:#169b94;stroke-width:1.05297" transform="matrix(.37248 -.92804 .94118 .33792 0 0)"/>
          <path d="M234.3 328.2c.5 0 1 .1 1.5.3 2.2.9 3.4 3.4 2.5 5.6-.7 1.7-2.3 2.8-4.1 2.8-.5 0-1-.1-1.5-.3-2.2-.9-3.4-3.4-2.5-5.6.7-1.7 2.3-2.8 4.1-2.8m0-1.5c-2.4 0-4.6 1.5-5.4 3.8-.6 1.5-.5 3 .1 4.5.6 1.4 1.8 2.5 3.2 3.1.7.3 1.4.4 2.1.4 2.4 0 4.6-1.5 5.4-3.8.6-1.5.5-3-.1-4.5-.6-1.4-1.8-2.5-3.2-3.1-.7-.3-1.4-.4-2.1-.4z"/>
        </g>
        <path d="M234.1 336.6c.4.1.8.2 1.2.1 1.3-.3 2.5-1.3 3-2.7 0-.1 0-.1.1-.2.4-1.7-.4-3.4-1.9-3.9-1.6-.6-3.5.4-4.1 2.3-.7 1.9.1 3.8 1.7 4.4z"
              style="fill:#02b7b7" transform="matrix(3.38016 0 0 3.38016 -481.313 -591.119)"/>
        <path d="M236.7 331c.2.1.3.1.5.2-.1.5-.4 1.2-1.1 2.3 0-1.4-.2-2.5-.2-2.5.1 0 .4-.1.8 0m.7.5c1.1 1.1.8 2.7-.1 3.7.4-1.2.5-2.2.1-3.7m-2-.5c-.6.9-1.3 1.6-1.8 2.5-.1.2-.3.4-.3.8-.3-1.2.4-2.7 2.1-3.3m1.6 4.5c-1 .7-2.5 1-3.4-.4 0 0 .8.3.6-.8-.1-.6 0-1 .5-1.7.2-.4.3-.5.5-.8 0 1.1.1 2-.1 3.2-.2-.1-.5-.1-.4.1l1.2.4c.1 0 .2-.1.2-.1 0-.1 0-.1-.2-.2.1-.4.1-.6.1-1.2.3-.5.6-.9 1-1.7.1 1.3.1 2.1-.2 3h-.3c-.1 0-.1.1-.1.2.2 0 .4-.1.6 0m-2.4.7c2.1.6 4.6-2 3.4-4.3-1.2-2.3-4.3-1.1-4.9.9-.5 1.6.3 3 1.5 3.4"
              style="fill:#fff" transform="matrix(3.38016 0 0 3.38016 -481.313 -591.119)"/>
        <g style="display:inline">
          <path d="M242.2 326.6c-.2 0-.4-.1-.6-.3-2.2-2.8-5.2-4.1-8.7-3.7-.4 0-.8-.3-.8-.7 0-.4.3-.8.7-.8 2.8-.3 6.8.2 10 4.3.3.3.2.8-.1 1-.2.1-.3.2-.5.2zM237.7 320.4c-.2 0-.5-.1-.6-.3-.3-.5-.7-1.7-.3-2.3.2-.3.7-.4 1-.2.3.2.4.6.3.9 0 .2.1.6.2.8.2.3.1.8-.2 1-.1.1-.2.1-.4.1zm.4-1.8zM231.7 320.9c-.2 0-.5-.1-.6-.3-.2-.3-.2-.7.1-.9.1-.2.2-.6.1-.8-.1-.4.2-.8.6-.9.4-.1.8.2.9.6.1.5 0 1.8-.6 2.2-.2.1-.4.1-.5.1zm-.4-1.3z"
                style="fill:#938c6a" transform="matrix(3.38016 0 0 3.38016 -481.313 -591.119)"/>
        </g>
        <g transform="matrix(3.38016 0 0 3.38016 -481.313 -591.119)">
          <path d="M232.9 325.1s.5 3.1-2.1 4.5c-2.2 1.2-4.3-.5-3.6-2.5.9-2.7 3.4-5.2 6.3-5.2s6 3 7 5.7-.8 4.8-4.2 3.6c-3.4-1.3-3.5-3.8-3.4-6.1z"
                style="fill:#827b5d"/>
          <path d="M238.1 332.3c-.6 0-1.3-.1-2.1-.4-1.9-.7-2.9-1.8-3.4-2.9-.4.5-.9 1-1.5 1.3-1.3.7-2.7.7-3.8-.1-1-.8-1.3-2-.9-3.3.9-2.7 3.5-5.7 7-5.7 3.3 0 6.6 3.2 7.7 6.2.6 1.6.3 3.1-.6 4-.5.5-1.4.9-2.4.9zm-4.5-6c.1 1.8.6 3.3 3 4.2 1.3.5 2.4.4 3-.2.5-.5.6-1.4.3-2.5-.9-2.5-3.7-5.2-6.3-5.2-2.7 0-4.9 2.4-5.6 4.7-.2.6-.1 1.3.4 1.6.4.3 1.2.5 2.1 0 1.2-.7 1.6-1.8 1.7-2.7V325l1.5-.1c-.1.1 0 .7-.1 1.4z"/>
          <path d="M232.5 326.2s-4.8-3.3.1-4c4.9-.7 2.2 2.7.7 3.9-.4.4-.8.1-.8.1z"/>
          <circle cx="237.9" cy="328.7" r=".5" style="fill:#474334"/>
          <circle cx="237.1" cy="326.2" r=".5" style="fill:#474334"/>
          <circle cx="235.8" cy="328.1" r=".5" style="fill:#474334"/>
          <circle cx="228.9" cy="327.8" r=".5" style="fill:#474334"/>
          <circle cx="230.6" cy="326.8" r=".5" style="fill:#474334"/>
        </g>
        <g transform="matrix(3.38016 0 0 3.38016 -481.313 -591.119)">
          <circle cx="239.2" cy="320.7" r="2.4"/>
          <circle cx="230.4" cy="320.8" r="1.8"/>
        </g>
        <path d="M238.3 321.6s-.7-.9-.1-1.7c.6-.8 1.5-.5 1.5-.5s-1.4 1-1.4 2.2zM229.9 321.6s-.5-.6-.1-1.3c.4-.6 1.1-.4 1.1-.4s-1 .8-1 1.7z"
              style="fill:#fff" transform="matrix(3.38016 0 0 3.38016 -481.313 -591.119)"/>
      </g>

    </g>
  </g>
</svg>
