<svg version="1.1" id="wapuugotchi_svg__item" viewBox="0 0 1e3 1e3" xmlns="http://www.w3.org/2000/svg">
	<g class="Body--group">
		<ellipse transform="matrix(.7071 -.7071 .7071 .7071 -236.44 487.81)" cx="470.6" cy="529.3" rx="133.5" ry="133.5"/>
		<path d="m578.7 594.3c-22.1 36.6-62.2 61.1-108.1 61.1-45.7 0-85.8-24.4-107.9-60.8 59.5-3.7 131.8-5.4 216-0.3z" fill="#108140"/>
		<path d="m596.7 529.3c0 23.8-6.6 46-18 65-84.1-5.1-156.5-3.4-216 0.3-11.5-19-18.2-41.4-18.2-65.3 0-21.8 5.5-42.3 15.3-60.2 60 3 133.2 3.2 218.3-5.7 11.8 19.2 18.6 41.7 18.6 65.9z" fill="#FFF"/>
		<path d="m578.1 463.4c-85.1 8.8-158.4 8.7-218.3 5.7 21.4-39.2 63-65.9 110.8-65.9 45.5 0 85.3 24.1 107.5 60.2z" fill="#F89939"/>
		<path d="m423.2 577.3c-5.2 1.9-9.4 2-11.7 2.1-4.4 0-7.2-0.5-11.4-1.8 1.3-11.8 2.4-22 7.9-42.2 4.2 12.5 7.5 22.3 16.3 40.6 0.1 0.2 0.3 0.4 0.4 0.6-0.4 0.2-1 0.5-1.5 0.7m-31.9-3.9c-17-10.7-28.4-35.5-17.2-62.2 2.7 18.3 6 35.7 19.7 63.7-0.7-0.4-1.8-1-2.5-1.5m60.6-39.8c-0.5 11.5-4.4 27.6-20.2 39.3 3.8-17.1 9.7-33.7 13.5-50.8 0.5-2.4 1.8-8 1.1-15 1.8 3.9 6.1 13.1 5.6 26.5m-15-3.9c-0.3 5.4-2.2 11.6-3.1 14.6-1.1 4.9-2.5 11.5-3.5 16.4-4.2-11-11.1-29.3-16.2-52.6 3.5-0.3 8.7-0.7 6.2-3.9-0.3-0.3-22.5-0.4-22.7-0.4-1.5 0.1-1.8 1.7-1.8 1.9-0.3 2 0.3 2.1 5.2 2.4 2.8 12.9 2.9 13.1 5.1 20.7-2.7 9.8-5.2 19.1-7.3 32.6-4.4-11.6-11-29.2-13.9-53.2 4.4-0.3 4.8-0.6 4.9-0.7 1.4-1.1 1.2-3 0.4-3.5-0.4-0.3-1.2-0.1-1.7-0.1-5 0.4-6.8 0.5-8.5 0.5-0.7 0-1.4 0-2.2-0.1 13.3-19.2 37.7-30.3 60.2-9.2-0.2 0-14.4 1.5-5.4 18 2.3 4.3 4.7 9.4 4.3 16.6m20.1 6c1.7-25.1-14.1-58.7-48.1-56.5-45 8.1-58.7 69.5-21.5 96.6 29.1 21.5 66.9-0.3 69.6-40.1" fill="#282A74"/>
	</g>
</svg>
