<svg xmlns="http://www.w3.org/2000/svg" xml:space="preserve" width="60" height="90"><defs><clipPath id="d" clipPathUnits="userSpaceOnUse"><path fill="#005683" d="M43.279 24.832c-2.85-2.554-4.714-4.005-7.539-4.589-1.899-.392-4.392-.003-6.392.44-1.515.337-2.778.628-3.796.52-1.564-.165-2.373-.625-2.727-1.734-.248-.781-.184-1.607 1.556-3.138.723-.637 3.114-1.967 4.064-2.4-3.04.22-4.816-.134-6.116-.824-2.152 2.15-5.644 3.95-6.956 3.367-.292-.13-.81-.178-1.111-.488-.029.022-.35.25-.38.273.347.324.431.921.54 1.452.221 1.075-.133 1.886-.985 2.737-.742.742-1.246.941-2.134.941-.62 0-1.195-.397-1.592-.774-2.69 4.49-2.977 7.008-3.115 10.124-.074 1.674.289 4.058.7 5.604 1.762 1.618 4.316 6.658 4.949 8.104.034.08.594.922.671.982 3.02 2.79 7.682 4.667 12.033 5.003-.054-.72-.127-2.047-.101-2.804.03-.927.08-1.905-.04-2.692-.1-.649-.322-1.381-.499-2.118-.605-2.822-1.253-5.566.975-7.149.503-.335.794-.45 1.37-.45 2.36 0 4.469 3.44 5.62 5.498 1.508-2.44 3.97-4.462 6.916-4.76 1.492-.152 2.966-.033 4.193.421.433-1.573.7-3.62.7-5.27 0-1.976-.316-4.621-.934-6.477" style="font-variation-settings:normal;display:inline;opacity:1;vector-effect:none;fill:none;fill-opacity:1;stroke:#000;stroke-width:.294472;stroke-linecap:butt;stroke-linejoin:miter;stroke-miterlimit:4;stroke-dasharray:none;stroke-dashoffset:0;stroke-opacity:1;-inkscape-stroke:none;stop-color:#000;stop-opacity:1"/></clipPath><clipPath id="c" clipPathUnits="userSpaceOnUse"><path fill="#005683" d="M43.279 24.832c-2.85-2.554-4.714-4.005-7.539-4.589-1.899-.392-4.392-.003-6.392.44-1.515.337-2.778.628-3.796.52-1.564-.165-2.373-.625-2.727-1.734-.248-.781-.184-1.607 1.556-3.138.723-.637 3.114-1.967 4.064-2.4-3.04.22-4.816-.134-6.116-.824-2.152 2.15-5.644 3.95-6.956 3.367-.292-.13-.81-.178-1.111-.488-.029.022-.35.25-.38.273.347.324.431.921.54 1.452.221 1.075-.133 1.886-.985 2.737-.742.742-1.246.941-2.134.941-.62 0-1.195-.397-1.592-.774-2.69 4.49-2.977 7.008-3.115 10.124-.074 1.674.289 4.058.7 5.604 1.762 1.618 4.316 6.658 4.949 8.104.034.08.594.922.671.982 3.02 2.79 7.682 4.667 12.033 5.003-.054-.72-.127-2.047-.101-2.804.03-.927.08-1.905-.04-2.692-.1-.649-.322-1.381-.499-2.118-.605-2.822-1.253-5.566.975-7.149.503-.335.794-.45 1.37-.45 2.36 0 4.469 3.44 5.62 5.498 1.508-2.44 3.97-4.462 6.916-4.76 1.492-.152 2.966-.033 4.193.421.433-1.573.7-3.62.7-5.27 0-1.976-.316-4.621-.934-6.477" style="font-variation-settings:normal;display:inline;opacity:1;vector-effect:none;fill:none;fill-opacity:1;stroke:#000;stroke-width:.294472;stroke-linecap:butt;stroke-linejoin:miter;stroke-miterlimit:4;stroke-dasharray:none;stroke-dashoffset:0;stroke-opacity:1;-inkscape-stroke:none;stop-color:#000;stop-opacity:1"/></clipPath><clipPath id="b" clipPathUnits="userSpaceOnUse"><path fill="#005683" d="M43.279 24.832c-2.85-2.554-4.714-4.005-7.539-4.589-1.899-.392-4.392-.003-6.392.44-1.515.337-2.778.628-3.796.52-1.564-.165-2.373-.625-2.727-1.734-.248-.781-.184-1.607 1.556-3.138.723-.637 3.114-1.967 4.064-2.4-3.04.22-4.816-.134-6.116-.824-2.152 2.15-5.644 3.95-6.956 3.367-.292-.13-.81-.178-1.111-.488-.029.022-.35.25-.38.273.347.324.431.921.54 1.452.221 1.075-.133 1.886-.985 2.737-.742.742-1.246.941-2.134.941-.62 0-1.195-.397-1.592-.774-2.69 4.49-2.977 7.008-3.115 10.124-.074 1.674.289 4.058.7 5.604 1.762 1.618 4.316 6.658 4.949 8.104.034.08.594.922.671.982 3.02 2.79 7.682 4.667 12.033 5.003-.054-.72-.127-2.047-.101-2.804.03-.927.08-1.905-.04-2.692-.1-.649-.322-1.381-.499-2.118-.605-2.822-1.253-5.566.975-7.149.503-.335.794-.45 1.37-.45 2.36 0 4.469 3.44 5.62 5.498 1.508-2.44 3.97-4.462 6.916-4.76 1.492-.152 2.966-.033 4.193.421.433-1.573.7-3.62.7-5.27 0-1.976-.316-4.621-.934-6.477" style="font-variation-settings:normal;display:inline;opacity:1;vector-effect:none;fill:none;fill-opacity:1;stroke:#000;stroke-width:.294472;stroke-linecap:butt;stroke-linejoin:miter;stroke-miterlimit:4;stroke-dasharray:none;stroke-dashoffset:0;stroke-opacity:1;-inkscape-stroke:none;stop-color:#000;stop-opacity:1"/></clipPath><clipPath id="a" clipPathUnits="userSpaceOnUse"><path fill="#005683" d="M43.279 24.832c-2.85-2.554-4.714-4.005-7.539-4.589-1.899-.392-4.392-.003-6.392.44-1.515.337-2.778.628-3.796.52-1.564-.165-2.373-.625-2.727-1.734-.248-.781-.184-1.607 1.556-3.138.723-.637 3.114-1.967 4.064-2.4-3.04.22-4.816-.134-6.116-.824-2.152 2.15-5.644 3.95-6.956 3.367-.292-.13-.81-.178-1.111-.488-.029.022-.35.25-.38.273.347.324.431.921.54 1.452.221 1.075-.133 1.886-.985 2.737-.742.742-1.246.941-2.134.941-.62 0-1.195-.397-1.592-.774-2.69 4.49-2.977 7.008-3.115 10.124-.074 1.674.289 4.058.7 5.604 1.762 1.618 4.316 6.658 4.949 8.104.034.08.594.922.671.982 3.02 2.79 7.682 4.667 12.033 5.003-.054-.72-.127-2.047-.101-2.804.03-.927.08-1.905-.04-2.692-.1-.649-.322-1.381-.499-2.118-.605-2.822-1.253-5.566.975-7.149.503-.335.794-.45 1.37-.45 2.36 0 4.469 3.44 5.62 5.498 1.508-2.44 3.97-4.462 6.916-4.76 1.492-.152 2.966-.033 4.193.421.433-1.573.7-3.62.7-5.27 0-1.976-.316-4.621-.934-6.477" style="font-variation-settings:normal;display:inline;opacity:1;vector-effect:none;fill:none;fill-opacity:1;stroke:#000;stroke-width:.294472;stroke-linecap:butt;stroke-linejoin:miter;stroke-miterlimit:4;stroke-dasharray:none;stroke-dashoffset:0;stroke-opacity:1;-inkscape-stroke:none;stop-color:#000;stop-opacity:1"/></clipPath></defs><g style="display:inline"><g fill="none" fill-rule="evenodd" style="font-variation-settings:normal;display:inline;opacity:1;vector-effect:none;fill:none;fill-opacity:1;stroke-width:.181562;stroke-linecap:butt;stroke-linejoin:miter;stroke-miterlimit:4;stroke-dasharray:none;stroke-dashoffset:0;stroke-opacity:1;-inkscape-stroke:none;stop-color:#000;stop-opacity:1"><path fill="#f89939" d="M27.454 12.702c1.05.107 2.49.253 4.546.867 1.836.634 1.908.659 2.925 1.141 1.763.927 1.796.945 2.661 1.53 1.616 1.187 1.616 1.187 2.365 1.88 1.413 1.411 1.413 1.411 2.03 2.191l.395.517c-.63 2.127-33.83 1.703-34.129 1.58.374-.576.878-1.34 1.286-1.893 1.275-1.525 1.275-1.525 2.003-2.217 1.5-1.321 1.5-1.321 2.342-1.91 1.667-1.073 1.699-1.093 2.643-1.562 1.759-.795 1.828-.826 2.91-1.178 1.273-.37 1.615-.47 3.177-.753.334-.05 1.353-.202 2.563-.247.058-.002.134-.006.192-.006l.161-.003c.319-.003.319-.003.601 0 .059.001.137.004.195.004.075.002.175.004.25.008.103.005.242.01.346.016a16.459 16.459 0 0 0 .538.036" clip-path="url(#a)" style="display:inline;stroke-width:.0537887" transform="translate(-.19 21.333)"/><path fill="#fff" d="M18.637 37.795c.068-.024.157-.061.224-.087l-.055-.088c-.82-1.759-1.527-3.278-2.34-5.817-.564 2.21-.921 3.72-1.128 6.043.427.13 1.727.522 3.299-.05m-4.577-.55c.108.067.257.148.367.212-.962-2.034-2.28-4.82-2.822-9.122l-.136.325c-1.419 3.884.35 7.172 2.591 8.584m8.677-5.697a7.85 7.85 0 0 0-.799-3.802l.008.082c.098 1.198-.18 2.241-.354 2.756-.01.028-.987 3.002-1.749 6.588 2.27-1.678 2.827-3.984 2.894-5.624m-2.15-.56c.056-1.037-.287-1.763-.612-2.36-1.287-2.363.746-2.573.768-2.572-1.093-1.027-2.2-1.694-4.056-1.61-1.857.217-3.348 1.175-4.557 2.928.594.026 1.18-.206 1.778-.051.108.028.154.366-.053.498-.033.02-.087.054-.701.101.248 1.716.588 4.067 1.991 7.618.242-1.38.47-2.685 1.043-4.66-.51-1.878-.53-1.951-.729-2.963-.102-.008-.615-.049-.668-.092-.14-.114-.075-.352.008-.443.05-.055 3.22-.113 3.251-.111.218.009.228.2.227.257-.01.298-.152.309-.941.372a49.912 49.912 0 0 0 2.314 7.53c.145-.706.342-1.647.5-2.35.128-.43.395-1.322.437-2.092m2.885.863c-.155 2.272-1.684 6.652-6.361 6.965-6.584-.322-9.113-9.01-3.922-13.474 4.919-4.23 10.695.46 10.283 6.509m20.164-9.074a41.465 41.465 0 0 0-1.244-1.928c-1.747 2.166-33.912 1.684-34.159 1.582L7.91 23c-.875 1.774-.875 1.774-1.205 2.717-.576 1.906-.576 1.906-.745 2.908-.248 1.997-.252 2.035-.245 3.06.09 1.827.111 2.262.53 4.21.559 1.891.57 1.927.965 2.827l.435.923c2 .52 35.03.17 37.098-1.679.153-.448.372-1.04.503-1.495.467-1.923.476-1.96.587-2.963.041-.622.102-1.452.107-2.075-.1-2.047-.1-2.047-.282-3.058-.439-1.95-.439-1.95-.782-2.898-.696-1.698-.802-1.958-1.239-2.701" clip-path="url(#b)" style="display:inline;stroke-width:.0537887" transform="translate(-.19 21.333)"/><path fill="#108140" d="M44.187 39.256c-.921 1.742-.921 1.742-1.492 2.566-1.191 1.582-1.191 1.582-1.883 2.31-1.432 1.392-1.432 1.392-2.236 2.013-1.61 1.153-1.641 1.175-2.548 1.68-1.732.885-1.8.92-2.825 1.308-1.575.535-1.777.603-3.084.896-1.562.31-2.84.413-3.637.445-.057.002-.134.006-.191.006l-.161.003c-.319.003-.319.003-.602 0-.058 0-.136-.004-.195-.004-.074-.002-.174-.004-.249-.008-.104-.005-.242-.01-.346-.016-.18-.01-.36-.022-.539-.036-1.241-.122-2.018-.229-3.338-.536-1.757-.49-1.9-.53-3.022-.979-1.817-.822-1.851-.838-2.767-1.382-1.693-1.097-1.693-1.097-2.485-1.747-1.496-1.327-1.496-1.327-2.166-2.075-1.269-1.532-1.269-1.532-1.806-2.363-.289-.489-.681-1.136-.945-1.639 1.997.519 34.986.168 37.052-1.676l-.535 1.234" clip-path="url(#c)" style="display:inline;stroke-width:.0537887" transform="translate(-.19 21.333)"/><path fill="#282a74" d="M18.637 37.795c-.744.271-1.346.291-1.67.303a5.135 5.135 0 0 1-1.629-.252c.185-1.69.344-3.148 1.129-6.043.603 1.786 1.079 3.197 2.339 5.817l.055.088c-.067.026-.156.063-.224.087m-4.577-.55c-2.436-1.534-4.062-5.086-2.455-8.91.381 2.616.857 5.108 2.822 9.123-.11-.064-.259-.145-.367-.213m8.677-5.697c-.067 1.64-.623 3.947-2.894 5.624.546-2.452 1.394-4.823 1.94-7.275a6.63 6.63 0 0 0 .155-2.151c.263.562.877 1.88.799 3.802m-2.15-.56c-.042.77-.31 1.663-.438 2.092-.155.704-.358 1.643-.5 2.35-.596-1.571-1.595-4.2-2.314-7.53.497-.04 1.247-.1.889-.551-.038-.049-3.222-.053-3.253-.05-.209.012-.255.243-.26.27-.049.288.042.294.748.348.406 1.844.413 1.88.728 2.962-.381 1.407-.741 2.735-1.042 4.661-.625-1.662-1.57-4.175-1.992-7.618.635-.048.681-.086.7-.101.196-.155.176-.428.054-.498-.063-.037-.172-.015-.245-.008-.718.063-.974.066-1.223.07-.103-.002-.206-.007-.31-.011 1.899-2.752 5.403-4.338 8.614-1.318-.022 0-2.055.209-.768 2.572.325.597.668 1.323.612 2.36m2.885.863c.245-3.595-2.012-8.403-6.887-8.082-6.443 1.157-8.403 9.95-3.085 13.835 4.179 3.054 9.583-.065 9.972-5.753" clip-path="url(#d)" style="display:inline;stroke-width:.0537887" transform="translate(-.19 21.333)"/><path fill="#005683" d="M43.279 24.832c-2.85-2.554-4.714-4.005-7.539-4.589-1.899-.392-4.392-.003-6.392.44-1.515.337-2.778.628-3.796.52-1.564-.165-2.373-.625-2.727-1.734-.248-.781-.184-1.607 1.556-3.138.723-.637 3.114-1.967 4.064-2.4-3.04.22-4.816-.134-6.116-.824-2.152 2.15-5.644 3.95-6.956 3.367-.292-.13-.81-.178-1.111-.488-.029.022-.35.25-.38.273.347.324.431.921.54 1.452.221 1.075-.133 1.886-.985 2.737-.742.742-1.246.941-2.134.941-.62 0-1.195-.397-1.592-.774-2.69 4.49-2.977 7.008-3.115 10.124-.074 1.674.289 4.058.7 5.604 1.762 1.618 4.316 6.658 4.949 8.104.034.08.594.922.671.982 3.02 2.79 7.682 4.667 12.033 5.003-.054-.72-.127-2.047-.101-2.804.03-.927.08-1.905-.04-2.692-.1-.649-.322-1.381-.499-2.118-.605-2.822-1.253-5.566.975-7.149.503-.335.794-.45 1.37-.45 2.36 0 4.469 3.44 5.62 5.498 1.508-2.44 3.97-4.462 6.916-4.76 1.492-.152 2.966-.033 4.193.421.433-1.573.7-3.62.7-5.27 0-1.976-.316-4.621-.934-6.477" style="font-variation-settings:normal;display:inline;opacity:1;fill:none;fill-opacity:1;stroke:#000;stroke-width:1;stroke-linecap:butt;stroke-linejoin:miter;stroke-miterlimit:4;stroke-dasharray:none;stroke-dashoffset:0;stroke-opacity:1;stop-color:#000;stop-opacity:1" transform="translate(-.19 21.333)"/></g></g></svg>