<?xml version="1.0" encoding="utf-8"?>
<!-- Generator: Adobe Illustrator 25.2.0, SVG Export Plug-In . SVG Version: 6.00 Build 0)  -->
<svg version="1.1" id="Layer_1" xmlns="http://www.w3.org/2000/svg" xmlns:xlink="http://www.w3.org/1999/xlink" x="0px" y="0px"
	 viewBox="0 0 1000 1000" style="enable-background:new 0 0 1000 1000;" xml:space="preserve">
<style type="text/css">
	.st0{fill:#108140;}
	.st1{fill:#FFFFFF;}
	.st2{fill:#F89939;}
	.st3{fill-rule:evenodd;clip-rule:evenodd;fill:#282A74;}
</style>
<g id="Ball--group">
	
		<ellipse id="Ball--bg" transform="matrix(0.7071 -0.7071 0.7071 0.7071 -236.4377 487.8127)" cx="470.6" cy="529.3" rx="133.5" ry="133.5"/>
	<path id="Color1" class="st0" d="M578.7,594.3c-22.1,36.6-62.2,61.1-108.1,61.1c-45.7,0-85.8-24.4-107.9-60.8
		C422.2,590.9,494.5,589.2,578.7,594.3z"/>
	<path id="Color2" class="st1" d="M596.7,529.3c0,23.8-6.6,46-18,65c-84.1-5.1-156.5-3.4-216,0.3c-11.5-19-18.2-41.4-18.2-65.3
		c0-21.8,5.5-42.3,15.3-60.2c60,3,133.2,3.2,218.3-5.7C589.9,482.6,596.7,505.1,596.7,529.3z"/>
	<path id="Color3" class="st2" d="M578.1,463.4c-85.1,8.8-158.4,8.7-218.3,5.7c21.4-39.2,63-65.9,110.8-65.9
		C516.1,403.2,555.9,427.3,578.1,463.4z"/>
	<path id="WPLogo" class="st3" d="M423.2,577.3c-5.2,1.9-9.4,2-11.7,2.1c-4.4,0-7.2-0.5-11.4-1.8c1.3-11.8,2.4-22,7.9-42.2
		c4.2,12.5,7.5,22.3,16.3,40.6c0.1,0.2,0.3,0.4,0.4,0.6C424.3,576.8,423.7,577.1,423.2,577.3 M391.3,573.4
		c-17-10.7-28.4-35.5-17.2-62.2c2.7,18.3,6,35.7,19.7,63.7C393.1,574.5,392,573.9,391.3,573.4 M451.9,533.6
		c-0.5,11.5-4.4,27.6-20.2,39.3c3.8-17.1,9.7-33.7,13.5-50.8c0.5-2.4,1.8-8,1.1-15C448.1,511,452.4,520.2,451.9,533.6 M436.9,529.7
		c-0.3,5.4-2.2,11.6-3.1,14.6c-1.1,4.9-2.5,11.5-3.5,16.4c-4.2-11-11.1-29.3-16.2-52.6c3.5-0.3,8.7-0.7,6.2-3.9
		c-0.3-0.3-22.5-0.4-22.7-0.4c-1.5,0.1-1.8,1.7-1.8,1.9c-0.3,2,0.3,2.1,5.2,2.4c2.8,12.9,2.9,13.1,5.1,20.7
		c-2.7,9.8-5.2,19.1-7.3,32.6c-4.4-11.6-11-29.2-13.9-53.2c4.4-0.3,4.8-0.6,4.9-0.7c1.4-1.1,1.2-3,0.4-3.5c-0.4-0.3-1.2-0.1-1.7-0.1
		c-5,0.4-6.8,0.5-8.5,0.5c-0.7,0-1.4,0-2.2-0.1c13.3-19.2,37.7-30.3,60.2-9.2c-0.2,0-14.4,1.5-5.4,18
		C434.9,517.4,437.3,522.5,436.9,529.7 M457,535.7c1.7-25.1-14.1-58.7-48.1-56.5c-45,8.1-58.7,69.5-21.5,96.6
		C416.5,597.3,454.3,575.5,457,535.7"/>
</g>
</svg>
