<svg xmlns="http://www.w3.org/2000/svg" viewBox="0 0 1000 1000">
  <g id="BeforeHead--group">
      <path d="m378.167 394.4-39.504 27.113s-41.829-62.422-22.74-74.245c17.428-10.719 62.244 47.133 62.244 47.133z"
            style="fill:#d3d3d3;stroke-width:1.61755"/>
      <path d="m354.93 409.376-16.267 11.192s-41.829-62.423-22.74-74.245c7.635 32.945 39.006 63.053 39.006 63.053z"
            style="fill:#a5a5a5;stroke-width:1.61755"/>
      <path d="M318.91 343.012c20.417-2.837 56.933 38.62 64.569 47.448.498.63.83 1.576.664 2.364-.166.788-.664 1.577-1.328 2.207l-42.16 29.005c-.664.472-1.66.63-2.49.472-.83-.157-1.66-.63-2.158-1.418-.498-.63-10.623-16.079-18.756-33.103-11.62-24.59-12.615-39.566-2.988-45.398 1.328-.789 2.988-1.42 4.647-1.577zm57.1 48.866c-19.089-21.753-48.468-48.078-58.262-41.93-10.789 6.62 5.81 42.246 21.91 66.994z"
            style="stroke-width:1.61755"/>
      <path d="M368.872 412.686s-18.424-27.586-23.238-24.748c-4.814 2.837 14.44 30.738 14.44 30.738z"
            style="fill:#c1c1c1;stroke:#000;stroke-width:6.47022;stroke-linecap:round;stroke-linejoin:round;stroke-miterlimit:10"/>
      <path d="M358.415 422.775c2.656-7.567 8.465-11.35 16.599-12.296l29.047 35.152c-3.32 7.882-9.13 11.508-16.599 12.296z"
            style="fill:#94653a;stroke:#000;stroke-width:6.47022;stroke-linecap:round;stroke-linejoin:round;stroke-miterlimit:10"/>
  </g>
</svg>
