<svg version="1.1" id="wapuugotchi_svg__item" viewBox="0 0 1e3 1e3" xmlns="http://www.w3.org/2000/svg">
	<g class="BeforeLeftArm--part">
		<path fill="#f18619" stroke="#000" stroke-linecap="round" stroke-linejoin="round" stroke-width="6.5" d="M491.09 397.405c-6.705.028-13.4 2.598-18.464 7.701-7.928 6.629-11.45 23.49-9.034 25.047l158.122 164.17c11.049 10.205 27.085 22.558 41.818 17.571 14.962-19.106 9.207-45.425-.999-55.553L517.205 411.859h.003l-.027-.024-.1-.1-.028-.015-7.442-6.767c-5.103-5.064-11.817-7.577-18.522-7.548z" />
		<path fill="#cc6715" d="M557.107 499.561c-.46 0-.998-.23-1.305-.69-14.425-21.408-6.522-38.519-6.215-39.286a1.538 1.538 0 0 1 2.072-.69 1.538 1.538 0 0 1 .69 2.07c-.076.231-7.366 16.421 5.985 36.218.46.69.307 1.688-.383 2.148-.23.154-.537.23-.844.23zm2.685 6.599c-.307 0-.614-.077-.844-.23-.69-.46-.92-1.458-.383-2.149 7.596-11.279 3.146-33.607 3.069-33.838-.154-.844.383-1.61 1.228-1.841.844-.154 1.61.384 1.841 1.228.23.997 4.757 23.786-3.53 36.14-.46.46-.92.69-1.38.69zm32.611 28.774c-.46 0-.998-.23-1.305-.69-14.425-21.408-6.522-38.52-6.215-39.287a1.538 1.538 0 0 1 2.072-.69c.767.384 1.074 1.304.767 2.072-.077.153-7.443 16.343 5.985 36.216.46.69.307 1.688-.384 2.149-.307.153-.613.23-.92.23z"/>
		<path fill="#cc6715" d="M595.088 541.533c-.307 0-.614-.077-.844-.23-.69-.46-.92-1.458-.383-2.149 7.52-11.28 3.145-33.608 3.069-33.838-.154-.844.383-1.611 1.227-1.842.844-.153 1.612.384 1.842 1.228.23.998 4.757 23.787-3.53 36.14-.383.384-.92.69-1.38.69zm32.687 28.697c-.46 0-.997-.23-1.304-.69-14.425-21.409-6.522-38.52-6.215-39.287a1.538 1.538 0 0 1 2.071-.69c.768.383 1.075 1.304.768 2.071-.077.154-7.443 16.344 5.985 36.217.46.69.307 1.688-.384 2.149-.307.153-.614.23-.92.23z"/>
		<path fill="#cc6715" d="M630.46 576.829c-.306 0-.613-.077-.843-.23-.69-.461-.921-1.458-.384-2.149 7.52-11.28 3.146-33.608 3.07-33.838-.154-.844.383-1.611 1.227-1.842.844-.153 1.611.384 1.842 1.228.23.998 4.757 23.786-3.53 36.14-.46.46-.92.69-1.381.69zM521.714 464.3c-.46 0-.998-.23-1.305-.69-14.425-21.408-6.522-38.52-6.215-39.286a1.538 1.538 0 0 1 2.072-.691c.767.384 1.074 1.304.767 2.072-.077.153-7.443 16.343 5.985 36.216.46.69.307 1.688-.384 2.149-.307.153-.613.23-.92.23z"/>
		<path fill="#cc6715" d="M524.4 470.899c-.308 0-.615-.077-.845-.23-.69-.46-.92-1.458-.384-2.149 7.52-11.28 3.146-33.608 3.07-33.838-.154-.844.383-1.611 1.227-1.841.844-.154 1.612.383 1.842 1.227.23.998 4.757 23.787-3.53 36.14-.383.384-.92.69-1.38.69z"/>
	</g>
</svg>
