<svg version="1.1" viewBox="0 0 1e3 1e3" xmlns="http://www.w3.org/2000/svg">
  <g class="Head--group">
    <defs>
      <linearGradient id="wapuugotchi_svg__item-61fafeaa-5aad-41ac-8eaa-e521b2d9e958" x1="386.84" x2="569.35" y1="317.57" y2="317.57" gradientUnits="userSpaceOnUse">
        <stop offset="0"/>
      </linearGradient>
    </defs>
    <path fill="#f9db43" stroke="#000" stroke-linecap="round" stroke-linejoin="round" stroke-width="16.074" d="M528.801 226.894c-1.624 0-2.078.045-2.895.28-5.01 1.446-8.411 6.168-8.121 11.273.237 4.151 2.372 7.383 6.243 9.446.472.252 1.07.663 1.33.91.903.866 1.364 2.362 1.102 3.575-.072.333-3.934 8.595-8.583 18.362-8.956 18.819-8.7 18.328-9.888 19.018-1.083.63-2.631.661-3.754.076-.46-.239-30.07-24.427-31.014-25.335-1.464-1.407-1.595-3.684-.31-5.365 2.357-3.088 3.15-5.736 2.668-8.895-.396-2.593-1.336-4.447-3.174-6.264-2.318-2.29-4.704-3.275-7.902-3.264-1.984.009-3.067.263-4.844 1.143-1.988.983-3.54 2.43-4.636 4.327-1.148 1.983-1.582 3.759-1.478 6.049.083 1.847.308 2.753 1.088 4.375 1.072 2.229 2.532 3.726 4.911 5.038 1.295.714 1.758 1.127 2.244 2.005.322.579.355.756.355 1.822v1.18l-8.002 17.678c-8.522 18.826-8.308 18.397-9.498 19.092-.673.394-2.65.838-3.727.837-.687 0-.988-.069-1.555-.354-.768-.385-29.949-24.96-30.747-25.896-.577-.672-.828-1.443-.827-2.528.002-1.125.31-1.806 1.458-3.224 1.523-1.884 2-3.23 2.108-5.949.072-1.811-.028-2.642-.486-4.066-.58-1.81-1.49-3.244-2.923-4.612a11.076 11.076 0 0 0-11.713-2.325c-2.616 1.015-4.885 3.206-6.104 5.894-1.387 3.058-1.147 7.121.593 10.05 1.085 1.827 2.4 3.068 4.473 4.228 1.48.827 2.13 1.49 2.588 2.631.35.87 8.886 40.072 8.886 40.805 3.031 14.195 3.034 14.264 5.68 26.572l.887 4.13c.176.825.346 1.628.494 2.331a88.28 88.28 0 0 1 .475 2.359c.046.307.146.71.223.893.417.997 3.022 2.227 5.476 2.585 2.37.345 6.427.44 10.744.248 14.647-.65 35.657-3.792 56.593-8.464 15.648-3.491 32.002-8.363 44.975-13.399 9.515-3.692 17.184-7.55 19.935-10.023.331-.298.661-.54.733-.54.17 0 .07-.925-.164-1.492-.098-.24-.548-2.168-.998-4.287-3.826-17.872-7.567-35.06-10.892-50.427-3.418-15.787-4.495-20.972-4.5-21.632-.007-1.07.217-1.604 1.32-3.142.907-1.262 1.717-2.846 2.019-3.94.315-1.15.379-3.264.14-4.636-.387-2.22-1.285-4.028-2.8-5.643-1.114-1.19-2.127-1.93-3.508-2.569-1.701-.785-2.495-.945-4.7-.943z" class="UnoptimicedTransforms" paint-order="stroke fill markers"/>
    <path fill="#f8e681" d="M539.097 261.292c-1.998 4.473-9.484 21.1-24.768 54.686-7.432 16.332-13.54 29.793-13.572 29.912a8.184 8.184 0 0 1-.148.385c6.57-1.745 13.05-3.654 19.164-5.672.403-.832 2.345-5.058 4.512-9.913 2.363-5.29 4.397-9.73 4.522-9.866.124-.137 1.314-2.764 2.645-5.839 3.648-8.43 5.265-11.967 9.116-20.614a464.806 464.806 0 0 0 3.775-8.718c-1.147-5.293-2.438-11.299-3.51-16.252-.84-3.882-1.16-5.419-1.736-8.109zM423.136 290.43a5.254 5.254 0 0 0-.408.73c-.135.316-10.796 25.565-14.598 34.565 1.376 6.46 2.255 10.61 4.223 19.763l.887 4.13c.177.825.347 1.628.494 2.332.04.19.038.19.074.365.613-1.238 20.72-50.29 21.273-51.892a1836.231 1836.231 0 0 1-11.945-9.993z" paint-order="stroke fill markers"/>
    <path fill="#762981" stroke="url(#wapuugotchi_svg__item-61fafeaa-5aad-41ac-8eaa-e521b2d9e958)" stroke-linecap="round" stroke-linejoin="round" stroke-width="15.3" d="M391.92 344.33c-2.725-1.296-5.03-5.987-5.005-10.185.016-2.599 1.016-5.22 2.318-6.08 2.054-1.354 5.704 2.328 6.8 6.862.657 2.715.38 6.057-.655 7.922-.943 1.699-2.025 2.162-3.458 1.48zm173.42-37.072c-1.57-.504-3.041-2.083-4.195-4.502-.908-1.903-1.275-3.545-1.278-5.719-.004-2.797.623-4.77 1.883-5.932.573-.528.74-.603 1.346-.603.94 0 1.794.444 2.806 1.462 3.5 3.518 4.497 10.615 1.99 14.16-.257.362-.63.766-.829.897-.445.291-1.222.398-1.723.237z" paint-order="stroke fill markers" transform="matrix(.846 0 0 .846 74.381 49.276)"/>
    <path fill="#f1c318" d="M395.04 275.37c-1.49-.804-2.957-2.116-3.885-3.477-1.92-2.814-2.442-6.497-1.37-9.691 1.217-3.637 4.034-6.29 7.757-7.31 1.342-.366 4.05-.393 5.331-.052 1.832.487 3.63 1.44 4.867 2.58.568.524.568.524-.99.809-6.33 1.158-10.15 4.343-11.219 9.356-.325 1.525-.297 4.425.062 6.354.148.795.303 1.536.345 1.646.11.284-.034.25-.898-.216zm63.488-14.348c-4.172-2.744-6-7.856-4.496-12.57 2.054-6.436 9.238-9.561 15.315-6.662 1.167.556 2.305 1.348 3.046 2.117.427.446.427.446-.01.446-1.38 0-4.77.871-6.522 1.675-2.43 1.114-4.527 3.148-5.531 5.362-1.148 2.53-1.397 6.093-.672 9.58.089.427.118.776.066.776-.053 0-.59-.325-1.196-.724zm63.74-14.224c-4.297-3.178-5.71-9.046-3.323-13.805 2.614-5.212 8.54-7.494 14.004-5.389 1.135.437 2.884 1.573 3.678 2.388.554.57.554.57.078.57-.791 0-3.04.364-4.359.707-2.854.742-4.842 1.814-6.522 3.517-1.475 1.494-2.156 2.714-2.756 4.939-.356 1.322-.448 4.55-.18 6.3.106.68.173 1.254.152 1.276-.022.021-.369-.205-.771-.503z"/>
  </g>
</svg>
