<svg version="1.1" viewBox="0 0 1e3 1e3" xmlns="http://www.w3.org/2000/svg">
    <path d="m436.6 504c-4.5 5.1-10.5 7.9-17 7.9-9.1 0-18.5-5.5-24.4-14.4-7.8-11.6-15.5-21.2-22.3-27.9l-4.8-4.7c-2-2-1.1-5.3 1.6-6.1l6.5-1.7c3.2-0.9 6.4-2.7 9.1-5.5 3-3 4.8-6.7 5.2-10.4v-11.2c0-1.3 1.5-2.1 2.5-1.3l9.3 6.9c0.7 0.5 1.7 1.1 2.9 1.7 10.2 4.9 31.7 27.4 35.7 46.7 2.1 10.1-1.2 16.5-4.3 20z"/>
    <path d="m402.1 444.1c-1.5-0.7-2.9-1.5-4.2-2.4-0.5 5.5-3 11-7.3 15.3-3.7 3.7-8.1 6.2-12.5 7.4 8.7 8.6 17 19.8 23.2 29.1 4.5 6.7 11.6 11.1 18.3 11.1 4.1 0 8.1-1.6 11.4-5.4 13-14.8-17.3-49.6-28.9-55.1z" fill="#fc0"/>
    <path d="m599.1 649.5c-9 25.7-26.4 50-50.3 70.3-23.8 20.3-51.8 34.7-81 41.6-6.9 1.6-14.1 2.5-21.5 2.5-30.8 0-58.9-13.9-74.8-27-13.6-11.1-21.2-23.3-20.9-33.5 0.4-12 6.7-20.7 16.8-23.3 2.1-0.5 4.3-0.8 6.7-0.8 11.2 0 27.2 6.7 38.5 25.7 7.8 13.2 22 20.1 41.1 20.1h1.2c40.7-0.8 87.6-31.2 109.1-70.8 7.7-14.1 13.2-29.6 17.1-40.8 1.9-5.4 3.6-10.1 5.1-13.5 1.3-3.1 4.1-9.4 10.4-9.4 4.1 0 7.6 1.8 9.9 5 5.5 7.6 3.3 23.3-7.4 53.9z"/>
    <path d="m570.5 657.8c-22.7 41.7-72.5 73.9-115.5 74.7h-1.4c-21.6 0-38.3-8.4-47.4-23.8-9-15.1-22-22.1-32.1-22.1-1.7 0-3.3 0.2-4.8 0.6-7 1.8-11 7.6-11.3 16.4-0.3 7.7 6.6 18 18.2 27.5 16.8 13.7 43.2 25.3 70.1 25.3 6.6 0 13.3-0.7 19.8-2.3 57.2-13.5 108.5-57.4 126-107.1 5.4-15.3 16.7-49.2 4.5-49.2-4.5 0.1-10.8 31.8-26.1 60z" fill="#f80"/>
    <path d="m649.7 531.9c-2 24-6.7 45.1-13.9 62.9-8.5 20.9-20.3 36.6-35.1 46.8-34 23.4-64.8 26-76.4 26-1.3 0-2.5 0-3.8-0.1-18.4-0.8-26-4.4-32.7-7.5-5.9-2.8-11-5.2-24.9-5.7-37.5-1.5-67-9.9-83.1-23.6-0.2-0.1-0.5-0.4-0.9-0.7-4.8-3.5-19.3-14.3-25-24.7-5.3-9.7-6.2-22.3-2.3-31.4 13.4-31.2 24.5-40.5 33.5-48 3.6-3 6.4-5.3 8.8-8.7 2.2-3.1 3.8-7.1 4.9-12.2 0-0.1 0-0.2 0.1-0.3 3.9-15 3.4-34.9 2.8-56-0.2-5.7-0.3-11.7-0.4-17.5v-0.1c0-18.6 9.6-40.7 25.7-59.2 18.1-20.8 41.6-33.6 66.1-36.2 20.2-2.1 34.3-3.1 45.9-3.1 43.7 0 58.6 14.8 82.2 48.4 7.5 10.6 12.1 22.5 16 33.7 11.1 30.4 15.9 76.5 12.5 117.2z"/>
    <path d="m358.5 576.7c-3 7-2.2 17.4 2 25 5.6 10.3 23 22.2 24.1 23.2 15.1 12.9 43.7 20.5 78.7 21.9 31.2 1.3 24.3 11.8 57.6 13.3 1.1 0 2.2 0.1 3.5 0.1 16.7 0 43.7-5 72.2-24.7 58-39.9 52.9-165.3 34-218.6-3.9-11.1-8.3-22.2-15.1-31.9-23.5-33.5-36.6-45.2-76.2-45.2-12.2 0-26.9 1.1-45.1 3.1-49.9 5.3-85.3 55.3-85.3 88.1 0.3 27.4 2.5 55.1-2.7 75.5-1.4 6.5-3.4 11.2-6 14.9-9.8 13.5-23.4 12.4-41.7 55.3z" fill="#fc0"/>
    <path d="m390.6 457c-5.2 5.1-11.7 8.1-17.8 8.1-8.1 0-14-5.1-15.6-13.3-1-5.4 0.9-11.3 5.4-16.7 5.8-6.9 14.9-12 21.7-12.1h0.2c1.3 0 2.6 0.2 3.8 0.6h0.2l0.1 0.1c4.5 1.8 7.9 6.2 9.1 11.8 1.4 7.5-1.2 15.5-7.1 21.5z"/>
    <path d="m385.4 451.7c4.2-4.2 6-9.6 5-14.7-0.6-3.1-2.3-5.5-4.6-6.4-0.4-0.1-0.9-0.2-1.3-0.2h-0.1c-4 0-11.3 3.6-16.1 9.4-1.8 2.1-4.6 6.3-3.8 10.6 1.1 6 5.1 7.3 8.3 7.3 4.1 0 8.8-2.2 12.6-6z" fill="#fc0"/>
    <path d="m384.3 648c-2.4 3.7-6.4 5.7-11.5 5.7-1.9 0-4-0.3-6.2-0.8-25-6-59.3-43.6-63.6-64.5-1.9-9.4-0.2-18 5-24.4 4.6-5.7 11.4-8.8 18.9-8.8 6.8 0 13.6 2.5 19.8 7.3 12.2 9.4 32.9 50.5 37.3 60.7 2.5 5.8 4.9 17.7 0.3 24.8z"/>
    <path d="m310.1 586.8c3.8 18.2 36.2 53.6 58.1 58.8 1.7 0.4 3.2 0.6 4.5 0.6 3.4 0 4.7-1.3 5.4-2.3 2.3-3.5 1.5-12.1-1-17.9-6.1-13.9-25.3-50.3-35.1-57.8-4.9-3.8-10.2-5.8-15.3-5.8-5.3 0-10 2.2-13.2 6.1-3.6 4.7-4.8 11.2-3.4 18.3z" fill="#fc0"/>
    <path d="m413.3 399.4c-0.4 4.4-3.8 8.4-11.1 12.9-4.7 3-10.2 5.5-13.9 6.5-6.5 1.7-12.3 2.6-17.3 2.6-6.7 0-10.6-1.6-12.7-2.9-4.8-3-4.4-7.2-4.2-8.5 0.5-3.1 2.9-5.5 5.9-6.2 3.5-0.8 13.5-5.8 23.6-12.6 4.2-2.9 10.7-4.8 16.1-4.8 5.8 0 9.1 2.2 10.8 4.1 2.1 2.4 3.1 5.5 2.8 8.9z"/>
    <path d="m361.4 411.3c0 0.3 0.4 0.7 0.9 0.9 1.1 0.7 3.6 1.8 8.8 1.8 4.3 0 9.5-0.8 15.4-2.3 5.2-1.4 19.1-8.8 19.5-13 0.1-1.3-0.2-2.4-0.9-3.2-1-1.1-2.8-1.7-5.3-1.7-3.9 0-8.9 1.5-11.9 3.5-8.5 5.7-20.5 12.5-26.1 13.7-0.3 0.1-0.4 0.2-0.4 0.3z" fill="#f80"/>
    <path d="m516.4 328.1c1.6 0 3.2 0 4.8 0.1 20.6 0.6 39.5 6.5 55.9 17 11.2 7.2 17.5 11.4 25.9 25.2 1.5 2.5 9 0.8 7.9-1.1-10.1-17.6-17.5-22.3-29.8-30.3-17.7-11.4-37.8-17.6-59.7-18.2-1.6 0-3.3-0.1-5-0.1-1.6 0-3.3 0-4.9 0.1-24.3 0.6-47.8 6.6-67.8 17.1-20.2 10.6-37.1 26.1-48.9 44.7-7.7 12.3-10.3 23.9-7.4 33.5 2.4 7.8 7.9 12.7 12.3 14.6 1.4 0.6 2.9 0.9 4.7 0.9 9.3 0 34.7-9.3 45.7-24.8 8.4 4.5 17.6 6.7 28.1 6.7 12.6 0 25-3.2 36.4-6.9 3-1 3.8-2.2 3.9-4.1 0-1.3-1.2-3.6-3.8-3.5-0.3 0-0.7 0.1-1 0.2-11.2 3.6-23.3 6.9-35.4 6.9-9.3 0-18.6-2-27.4-7.4-0.6-0.4-1.3-0.5-1.9-0.5-1.3 0-2.5 0.6-3.2 1.8l-0.1 0.1c-7.9 14.3-33.3 24.1-41.2 24.1-0.7 0-1.3-0.1-1.7-0.3-2.8-1.2-6.6-4.6-8.2-10-2.3-7.5 0-17 6.6-27.4 22.5-35.7 63.4-57.1 110.6-58.3 1.4-0.1 3-0.1 4.6-0.1"/>
    <path d="m516.6 399.4c-1-0.4-2-0.7-3-0.3-19.7 6.3-42.5 12-62.8-0.5-1.7-1.1-4-0.5-5.1 1.2l-0.1 0.1c-8.6 15.7-38.3 26-43 23.9-2.8-1.2-6.6-4.6-8.2-10-2.3-7.5 0-17 6.6-27.4 22.5-35.7 63.4-57.1 110.6-58.3 3.1-0.1 6.3-0.1 9.5 0 20.6 0.6 39.5 6.5 55.9 17 13.2 8.5 19.7 12.7 30.6 33.6 5.6 10.5-84.4 23.5-91 20.7z" fill="#fc0"/>
    <path d="m478 413.3c-6.4 2.9-12.4 6.6-17.6 11.1-12.1 10.6-12.6 19.4-10.8 24.8 2.5 7.7 11.1 13.4 21.9 14.6 7.1 0.7 16.2-1.3 26.7-3.6 13.9-3.1 29.7-6.6 42.9-3.9 19.6 4.1 33.3 15 53.1 32.7l10.3 9.2c1.5 1.3 3.9 1.2 5.2-0.4 1.3-1.5 1.2-3.9-0.4-5.2l-2.9-2.6c-24-21.7-39.9-36-63.8-41-14.8-3.1-31.3 0.6-46 3.9-9.5 2.1-18.5 4.1-24.3 3.5-7.8-0.8-14.1-4.6-15.7-9.5-1.5-4.7 1.6-10.7 8.7-17 20.7-18.2 59.1-23.7 87.5-12.5 4.7 1.9 7.4-5.1 2.7-6.9-11.4-4.4-24.6-6.6-37.7-6.2-10.1 0.4-30.5 4.8-39.8 9z"/>
    <path d="m615.4 451c11.7 12.2 17 60.3-6 41.6l-2.9-2.6c-24-21.7-39.9-36-63.8-41-14.8-3.1-31.3 0.6-46 3.9-9.5 2.1-18.5 4.1-24.3 3.5-7.8-0.8-14.1-4.6-15.7-9.5-1.5-4.7 1.6-10.7 8.7-17 20.7-18.2 59.3-24 87.5-12.5 4.6 2 46.1 16.5 62.5 33.6z" fill="#fc0"/>
    <path d="m701.4 357.1c-0.5 1.7-1.2 3.4-2 5.2-5 10-17.7 23-38 29.1-4.5 1.4-9.3 2-14 2h-0.1c-13 0-34.2-4.9-61.6-28.3-1.9-1.7-5.1-4.8-7.1-7-2.3-2.5-2.8-6.1-1.5-9.1s4.4-5.1 7.8-5.1h0.5c13.9 0.8 30.1 1.2 48.4 1.2 8.1 0 14.8-0.1 19.3-0.1h4.5c7.4 0 13.3-0.1 18.2-0.1 8.1 0 13.7 0.1 17.1 0.2 2.9 0.1 5.6 1.5 7.3 3.9 1.5 2.3 2 5.2 1.2 8.1z"/>
    <path d="m590.4 359.4c25.7 21.9 45.1 26.5 56.8 26.5h0.1c4 0 8-0.6 11.9-1.7 18.1-5.4 29.2-16.6 33.5-25.3 0.8-1.5 1.2-2.8 1.5-3.9 0.4-1.3-0.6-2.6-1.9-2.7-3.3-0.1-8.9-0.2-16.7-0.2-5.4 0-11.6 0-18.2 0.1-3.3 0-12.2 0.2-23.9 0.2-13.9 0-31.7-0.2-48.8-1.2h-0.1c-0.9 0-1.5 1.1-0.8 1.8 2 2.2 5 5.1 6.6 6.4z" fill="#f80"/>
    <g>
        <defs>
            <linearGradient id="a" x1="386.84" x2="569.35" y1="317.57" y2="317.57" gradientUnits="userSpaceOnUse">
                <stop offset="0"/>
            </linearGradient>
        </defs>
        <path fill="#f9db43" stroke="#000" stroke-linecap="round" stroke-linejoin="round" stroke-width="16.074" d="M528.801 226.894c-1.624 0-2.078.045-2.895.28-5.01 1.446-8.411 6.168-8.121 11.273.237 4.151 2.372 7.383 6.243 9.446.472.252 1.07.663 1.33.91.903.866 1.364 2.362 1.102 3.575-.072.333-3.934 8.595-8.583 18.362-8.956 18.819-8.7 18.328-9.888 19.018-1.083.63-2.631.661-3.754.076-.46-.239-30.07-24.427-31.014-25.335-1.464-1.407-1.595-3.684-.31-5.365 2.357-3.088 3.15-5.736 2.668-8.895-.396-2.593-1.336-4.447-3.174-6.264-2.318-2.29-4.704-3.275-7.902-3.264-1.984.009-3.067.263-4.844 1.143-1.988.983-3.54 2.43-4.636 4.327-1.148 1.983-1.582 3.759-1.478 6.049.083 1.847.308 2.753 1.088 4.375 1.072 2.229 2.532 3.726 4.911 5.038 1.295.714 1.758 1.127 2.244 2.005.322.579.355.756.355 1.822v1.18l-8.002 17.678c-8.522 18.826-8.308 18.397-9.498 19.092-.673.394-2.65.838-3.727.837-.687 0-.988-.069-1.555-.354-.768-.385-29.949-24.96-30.747-25.896-.577-.672-.828-1.443-.827-2.528.002-1.125.31-1.806 1.458-3.224 1.523-1.884 2-3.23 2.108-5.949.072-1.811-.028-2.642-.486-4.066-.58-1.81-1.49-3.244-2.923-4.612a11.076 11.076 0 0 0-11.713-2.325c-2.616 1.015-4.885 3.206-6.104 5.894-1.387 3.058-1.147 7.121.593 10.05 1.085 1.827 2.4 3.068 4.473 4.228 1.48.827 2.13 1.49 2.588 2.631.35.87 8.886 40.072 8.886 40.805 3.031 14.195 3.034 14.264 5.68 26.572l.887 4.13c.176.825.346 1.628.494 2.331a88.28 88.28 0 0 1 .475 2.359c.046.307.146.71.223.893.417.997 3.022 2.227 5.476 2.585 2.37.345 6.427.44 10.744.248 14.647-.65 35.657-3.792 56.593-8.464 15.648-3.491 32.002-8.363 44.975-13.399 9.515-3.692 17.184-7.55 19.935-10.023.331-.298.661-.54.733-.54.17 0 .07-.925-.164-1.492-.098-.24-.548-2.168-.998-4.287-3.826-17.872-7.567-35.06-10.892-50.427-3.418-15.787-4.495-20.972-4.5-21.632-.007-1.07.217-1.604 1.32-3.142.907-1.262 1.717-2.846 2.019-3.94.315-1.15.379-3.264.14-4.636-.387-2.22-1.285-4.028-2.8-5.643-1.114-1.19-2.127-1.93-3.508-2.569-1.701-.785-2.495-.945-4.7-.943z" class="UnoptimicedTransforms" paint-order="stroke fill markers"/>
        <path fill="#f8e681" d="M539.097 261.292c-1.998 4.473-9.484 21.1-24.768 54.686-7.432 16.332-13.54 29.793-13.572 29.912a8.184 8.184 0 0 1-.148.385c6.57-1.745 13.05-3.654 19.164-5.672.403-.832 2.345-5.058 4.512-9.913 2.363-5.29 4.397-9.73 4.522-9.866.124-.137 1.314-2.764 2.645-5.839 3.648-8.43 5.265-11.967 9.116-20.614a464.806 464.806 0 0 0 3.775-8.718c-1.147-5.293-2.438-11.299-3.51-16.252-.84-3.882-1.16-5.419-1.736-8.109zM423.136 290.43a5.254 5.254 0 0 0-.408.73c-.135.316-10.796 25.565-14.598 34.565 1.376 6.46 2.255 10.61 4.223 19.763l.887 4.13c.177.825.347 1.628.494 2.332.04.19.038.19.074.365.613-1.238 20.72-50.29 21.273-51.892a1836.231 1836.231 0 0 1-11.945-9.993z" paint-order="stroke fill markers"/>
        <path fill="#762981" stroke="url(#a)" stroke-linecap="round" stroke-linejoin="round" stroke-width="15.3" d="M391.92 344.33c-2.725-1.296-5.03-5.987-5.005-10.185.016-2.599 1.016-5.22 2.318-6.08 2.054-1.354 5.704 2.328 6.8 6.862.657 2.715.38 6.057-.655 7.922-.943 1.699-2.025 2.162-3.458 1.48zm173.42-37.072c-1.57-.504-3.041-2.083-4.195-4.502-.908-1.903-1.275-3.545-1.278-5.719-.004-2.797.623-4.77 1.883-5.932.573-.528.74-.603 1.346-.603.94 0 1.794.444 2.806 1.462 3.5 3.518 4.497 10.615 1.99 14.16-.257.362-.63.766-.829.897-.445.291-1.222.398-1.723.237z" paint-order="stroke fill markers" transform="matrix(.846 0 0 .846 74.381 49.276)"/>
        <path fill="#f1c318" d="M395.04 275.37c-1.49-.804-2.957-2.116-3.885-3.477-1.92-2.814-2.442-6.497-1.37-9.691 1.217-3.637 4.034-6.29 7.757-7.31 1.342-.366 4.05-.393 5.331-.052 1.832.487 3.63 1.44 4.867 2.58.568.524.568.524-.99.809-6.33 1.158-10.15 4.343-11.219 9.356-.325 1.525-.297 4.425.062 6.354.148.795.303 1.536.345 1.646.11.284-.034.25-.898-.216zm63.488-14.348c-4.172-2.744-6-7.856-4.496-12.57 2.054-6.436 9.238-9.561 15.315-6.662 1.167.556 2.305 1.348 3.046 2.117.427.446.427.446-.01.446-1.38 0-4.77.871-6.522 1.675-2.43 1.114-4.527 3.148-5.531 5.362-1.148 2.53-1.397 6.093-.672 9.58.089.427.118.776.066.776-.053 0-.59-.325-1.196-.724zm63.74-14.224c-4.297-3.178-5.71-9.046-3.323-13.805 2.614-5.212 8.54-7.494 14.004-5.389 1.135.437 2.884 1.573 3.678 2.388.554.57.554.57.078.57-.791 0-3.04.364-4.359.707-2.854.742-4.842 1.814-6.522 3.517-1.475 1.494-2.156 2.714-2.756 4.939-.356 1.322-.448 4.55-.18 6.3.106.68.173 1.254.152 1.276-.022.021-.369-.205-.771-.503z"/>
    </g>
    <path d="m417.6 376.2c-4.1 0-7.4 3.3-7.4 7.4 0 9.9 14.8 9.9 14.8 0 0-4.1-3.3-7.4-7.4-7.4z"/>
    <path d="m503.2 355.7c-4.1 0-7.4 3.3-7.4 7.4 0 9.9 14.8 9.9 14.8 0 0-4.1-3.3-7.4-7.4-7.4z"/>
    <path d="m457.9 375.4c-7.4 0.8-12.3 2.5-15.6 4.9-5.9 4.4-4.1 9.9 2.5 10.7s7.1 1.2 13.2-3.3c6.5-4.9 7.3-13.1-0.1-12.3z"/>
    <path d="m512.4 655.2c-4.6-5.2-3.7-15.7-1.9-29.4 2.6-19.8 5-34.5 25.4-50.8 24.4-19.5 62.2-15 76.2-0.5 3.6 3.7 6.7 10.9 7.3 18.8 0.9 11.4-22.2 42.4-44.8 51.8-22.6 9.6-54 19.3-62.2 10.1z" fill="#fc0"/>
    <path d="m512.4 658.9c-1.2 0-2.3-0.5-3-1.6-4.7-6.7-4.5-17.2-2.6-32 2.5-19 4.6-35.5 26.8-53.2 26.8-21.4 63.7-14 78.4 0.7 1.4 1.4 1.4 3.8 0 5.2s-3.8 1.4-5.2 0c-12.5-12.5-45.4-18.7-68.6-0.1-18.9 15.1-21.4 28.2-24.1 48.4-1.4 11-2.3 21.8 1.3 26.7 1.2 1.7 0.8 4-0.9 5.2-0.6 0.5-1.4 0.7-2.1 0.7z"/>
    <path d="m523.7 651.2c-0.4 1.9-2 9.1-6.7 16.2-7 10.6-17.8 16.5-30.4 16.5-7.2 0-12.9-2.1-16.8-6.2-7.5-7.8-7.1-21-6.7-33.7v-0.1c0.2-6.4 0.4-13.1-0.4-18.5-0.7-4.4-1.8-9.1-3.1-14.5-2.4-10.2-4.6-20.1-4.3-28.7 0.4-10.7 4.7-18.9 12.8-24.4 3.5-2.4 7.4-3.5 11.4-3.5 9.3 0 18.9 6.2 28.7 18.6 7.1 8.9 13.1 20 15.4 28.1 6.4 21.8 4.9 34.9 0.1 50.2z"/>
    <path d="m477 670.8c2 2.1 5.2 3.1 9.6 3.1 22.6 0 27-23.7 27.2-24.7 0-0.2 0.1-0.4 0.1-0.6 4.4-13.9 5.7-25.2 0-44.8-3.7-13.2-21.1-39.4-34.4-39.4-2 0-4 0.6-5.8 1.9-11.7 7.8-9.3 21.8-4.4 42.4 1.2 5.1 2.5 10.4 3.2 15.3 1 6.4 0.8 13.5 0.5 20.4-0.2 10.6-0.6 21.6 4 26.4z" fill="#fc0"/>
</svg>
