<svg version="1.1" id="wapuugotchi_svg__item" viewBox="0 0 1e3 1e3" xmlns="http://www.w3.org/2000/svg">
	<g class="Ball--group">
		<circle transform="rotate(-45.001 470.62 529.32)" cx="470.6" cy="529.3" r="133.5"/>
		<circle cx="470.6" cy="529.3" r="126.1" fill="#0068b5"/>
		<path d="m368.7 471c4.3 1.5 6.5 2.2 10.9 3.7-1.4 4.6-2.1 6.8-3.6 11.4-4.4-1.4-6.6-2.2-11-3.7 1.5-4.5 2.2-6.8 3.7-11.4z" fill="#00c7fd"/>
		<path d="m360.6 534.1 12.9-41.1c-4.2-1.4-6.3-2.1-10.6-3.5-4.5 13.7-9 27.5-13.4 41.2 4.5 1.3 6.7 2 11.1 3.4 0-.1 0-.1 0 0zm74.1 19.3c.9-3.9 1.4-5.9 2.3-9.8-1.6-.4-3-.8-4-1.1-1.1-.4-1.9-1-2.4-1.7-.4-.7-.6-1.6-.6-2.7.1-1 .3-2.4.7-4l3.5-14c3.1.8 4.7 1.2 7.9 1.9.9-3.6 1.3-5.4 2.2-9.1-3.1-.8-4.7-1.2-7.8-1.9 1.5-6.3 2.3-9.4 3.9-15.7-4.2-1.1-6.3-1.7-10.6-2.8-3.4 13-6.7 26-10.1 39-.9 3.3-1.3 6.2-1.3 8.5s.6 4.4 1.6 6.1c1 1.7 2.7 3.1 4.7 4.2 2.1 1.1 4.9 2 8.4 2.8.7.2 1 .2 1.6.3zm65.1 11.8c3.3-19.1 6.6-38.1 9.9-57.2-4.3-.8-6.4-1.2-10.7-2.1-3.5 19.2-7.1 38.3-10.6 57.5 4.6.7 6.9 1 11.4 1.8zm-85.4-55.8c-2.1-4-5.8-6.8-11.1-8.3-2.6-.7-5.1-.9-7.4-.5-2.4.4-4.6 1.3-6.6 2.8-.3.2-.5.4-.8.6.1-.3.1-.4.2-.7.6-2.1.9-3.1 1.5-5.2-4.2-1.3-6.3-1.9-10.5-3.2-4.2 13.7-8.4 27.3-12.6 41 4.4 1.3 6.6 1.9 11.1 3.1 2.6-8.7 3.9-13.1 6.4-21.8-.2.6-.3.9-.4 1.5.1-.2.1-.5.2-.7 1.3-3.8 3-6.4 5.3-7.7 2.5-1.4 5-1.7 7.7-.9 3.1.9 5.2 2.5 6.3 4.8 1 2.3 1.1 5.1.2 8.4v.1c-2.4 8.6-3.6 12.9-5.9 21.5 4.5 1.2 6.8 1.7 11.3 2.8 2.4-9.2 3.6-13.8 6.1-22.9 1.5-5.7 1.1-10.6-1-14.7zm71.9 33.2c.5-2.8.5-5.6-.1-8.3-.6-2.7-1.7-5.1-3.1-7.4-1.5-2.2-3.5-4.1-5.9-5.7-2.4-1.6-5.2-2.7-8.3-3.4-3-.7-5.9-.7-8.7-.3-2.8.5-5.4 1.4-7.8 2.9-2.3 1.4-4.4 3.3-6.1 5.5-1.7 2.3-2.9 4.9-3.6 7.8s-.8 5.7-.3 8.5 1.5 5.3 3.1 7.6 3.6 4.3 6.2 5.9c2.6 1.7 5.5 2.8 8.9 3.5 9.6 1.8 16.4-1.1 20.7-4.2-2.8-2.8-4.2-4.3-7-7.2-2.1 1.6-6.6 3.3-11.7 2.3-3.2-.6-5.6-1.8-7.3-3.6-1.7-1.7-2.6-3.9-2.8-6.4v-.4c11.1 2.3 22.1 4.5 33.2 6.6.2-1.5.3-2.2.6-3.7zm-32.2-10.3c.7-2.9 5.3-7.2 12.8-5.6 7.5 1.6 10 7.3 9.5 10.2-9-1.7-13.4-2.6-22.3-4.6zm59.6 29.9c-.1-.5-.4-.9-.7-1.3-.3-.4-.7-.7-1.2-1s-1-.5-1.6-.5c-.6-.1-1.1-.1-1.7.1-.5.1-1 .3-1.5.6-.4.3-.8.6-1.1 1.1s-.5.9-.6 1.4c-.1.5 0 1 .1 1.5s.4.9.7 1.3c.3.4.7.7 1.2 1s1 .5 1.6.5c.6.1 1.1 0 1.7-.1.5-.1 1-.3 1.5-.6.4-.3.8-.6 1.1-1.1s.5-.9.6-1.4c0-.5 0-1-.1-1.5zm-1.2 2.6c-.2.4-.5.7-.9.9s-.8.4-1.2.5c-.5.1-.9.1-1.4 0-.5-.1-.9-.2-1.3-.4s-.8-.5-1-.8-.5-.7-.6-1.1c-.1-.4-.1-.8-.1-1.3.1-.4.2-.8.5-1.2.2-.4.5-.7.9-.9.3-.2.8-.4 1.2-.5.5-.1.9-.1 1.4 0 .5.1.9.2 1.3.4s.7.5 1 .8.5.7.6 1.1c.1.4.1.8.1 1.3-.1.4-.2.8-.5 1.2zm-2.2-1.3c.3 0 .6-.1.9-.2.2-.2.4-.4.5-.8.1-.4 0-.7-.3-1-.2-.3-.7-.5-1.2-.5-.7-.1-1.1-.2-1.9-.3-.3 1.7-.4 2.6-.7 4.3.4.1.5.1.9.1.1-.7.2-1.1.3-1.8.3 0 .4.1.6.1.4.8.5 1.2.9 1.9.4.1.6.1.9.1-.3-.7-.5-1.1-.9-1.9zm-.4-.7c-.1 0-.3 0-.4-.1-.3 0-.4-.1-.6-.1.1-.5.1-.7.2-1.2.3 0 .4.1.6.1.1 0 .3 0 .4.1.1 0 .2.1.4.1s.2.1.2.2c.1.1.1.2 0 .4 0 .2-.1.3-.1.3-.1.1-.2.1-.3.2h-.4z" fill="#fff"/>
	</g>
</svg>
