<?xml version="1.0" encoding="utf-8"?>
<!-- Generator: Adobe Illustrator 25.2.0, SVG Export Plug-In . SVG Version: 6.00 Build 0)  -->
<svg version="1.1" id="Layer_1" xmlns="http://www.w3.org/2000/svg" xmlns:xlink="http://www.w3.org/1999/xlink" x="0px" y="0px"
	 viewBox="0 0 1000 1000" style="enable-background:new 0 0 1000 1000;" xml:space="preserve">
<style type="text/css">
	.st0{fill:#0068B5;}
	.st1{fill:#00C7FD;}
	.st2{fill:#FFFFFF;}
</style>
<g id="Ball--group">
	<g id="Ball--bg">
		<ellipse transform="matrix(0.7071 -0.7071 0.7071 0.7071 -236.4377 487.8127)" cx="470.6" cy="529.3" rx="133.5" ry="133.5"/>
	</g>
	<g id="Ball">
		<circle class="st0" cx="470.6" cy="529.3" r="126.1"/>
	</g>
	<g id="Intel">
		<path class="st1" d="M368.7,471c4.3,1.5,6.5,2.2,10.9,3.7c-1.4,4.6-2.1,6.8-3.6,11.4c-4.4-1.4-6.6-2.2-11-3.7
			C366.5,477.9,367.2,475.6,368.7,471z"/>
		<path class="st2" d="M360.6,534.1c4.3-13.7,8.6-27.4,12.9-41.1c-4.2-1.4-6.3-2.1-10.6-3.5c-4.5,13.7-9,27.5-13.4,41.2
			C354,532,356.2,532.7,360.6,534.1C360.6,534,360.6,534,360.6,534.1z M434.7,553.4c0.9-3.9,1.4-5.9,2.3-9.8c-1.6-0.4-3-0.8-4-1.1
			c-1.1-0.4-1.9-1-2.4-1.7c-0.4-0.7-0.6-1.6-0.6-2.7c0.1-1,0.3-2.4,0.7-4c1.4-5.6,2.1-8.4,3.5-14c3.1,0.8,4.7,1.2,7.9,1.9
			c0.9-3.6,1.3-5.4,2.2-9.1c-3.1-0.8-4.7-1.2-7.8-1.9c1.5-6.3,2.3-9.4,3.9-15.7c-4.2-1.1-6.3-1.7-10.6-2.8c-3.4,13-6.7,26-10.1,39
			c-0.9,3.3-1.3,6.2-1.3,8.5c0,2.3,0.6,4.4,1.6,6.1c1,1.7,2.7,3.1,4.7,4.2c2.1,1.1,4.9,2,8.4,2.8
			C433.8,553.3,434.1,553.3,434.7,553.4L434.7,553.4z M499.8,565.2c3.3-19.1,6.6-38.1,9.9-57.2c-4.3-0.8-6.4-1.2-10.7-2.1
			c-3.5,19.2-7.1,38.3-10.6,57.5C493,564.1,495.3,564.4,499.8,565.2z M414.4,509.4c-2.1-4-5.8-6.8-11.1-8.3
			c-2.6-0.7-5.1-0.9-7.4-0.5c-2.4,0.4-4.6,1.3-6.6,2.8c-0.3,0.2-0.5,0.4-0.8,0.6c0.1-0.3,0.1-0.4,0.2-0.7c0.6-2.1,0.9-3.1,1.5-5.2
			c-4.2-1.3-6.3-1.9-10.5-3.2c-4.2,13.7-8.4,27.3-12.6,41c4.4,1.3,6.6,1.9,11.1,3.1c2.6-8.7,3.9-13.1,6.4-21.8
			c-0.2,0.6-0.3,0.9-0.4,1.5c0.1-0.2,0.1-0.5,0.2-0.7c1.3-3.8,3-6.4,5.3-7.7c2.5-1.4,5-1.7,7.7-0.9c3.1,0.9,5.2,2.5,6.3,4.8
			c1,2.3,1.1,5.1,0.2,8.4l0,0c0,0,0,0.1,0,0.1l0,0l0,0c-2.4,8.6-3.6,12.9-5.9,21.5c4.5,1.2,6.8,1.7,11.3,2.8
			c2.4-9.2,3.6-13.8,6.1-22.9C416.9,518.4,416.5,513.5,414.4,509.4z M486.3,542.6c0.5-2.8,0.5-5.6-0.1-8.3c-0.6-2.7-1.7-5.1-3.1-7.4
			c-1.5-2.2-3.5-4.1-5.9-5.7c-2.4-1.6-5.2-2.7-8.3-3.4c-3-0.7-5.9-0.7-8.7-0.3c-2.8,0.5-5.4,1.4-7.8,2.9c-2.3,1.4-4.4,3.3-6.1,5.5
			c-1.7,2.3-2.9,4.9-3.6,7.8s-0.8,5.7-0.3,8.5c0.5,2.8,1.5,5.3,3.1,7.6s3.6,4.3,6.2,5.9c2.6,1.7,5.5,2.8,8.9,3.5
			c9.6,1.8,16.4-1.1,20.7-4.2c-2.8-2.8-4.2-4.3-7-7.2c-2.1,1.6-6.6,3.3-11.7,2.3c-3.2-0.6-5.6-1.8-7.3-3.6c-1.7-1.7-2.6-3.9-2.8-6.4
			c0-0.2,0-0.2,0-0.4c11.1,2.3,22.1,4.5,33.2,6.6C485.9,544.8,486,544.1,486.3,542.6L486.3,542.6z M454.1,532.3
			c0.7-2.9,5.3-7.2,12.8-5.6c7.5,1.6,10,7.3,9.5,10.2C467.4,535.2,463,534.3,454.1,532.3z M513.7,562.2c-0.1-0.5-0.4-0.9-0.7-1.3
			c-0.3-0.4-0.7-0.7-1.2-1s-1-0.5-1.6-0.5c-0.6-0.1-1.1-0.1-1.7,0.1c-0.5,0.1-1,0.3-1.5,0.6c-0.4,0.3-0.8,0.6-1.1,1.1
			s-0.5,0.9-0.6,1.4c-0.1,0.5,0,1,0.1,1.5s0.4,0.9,0.7,1.3c0.3,0.4,0.7,0.7,1.2,1s1,0.5,1.6,0.5c0.6,0.1,1.1,0,1.7-0.1
			c0.5-0.1,1-0.3,1.5-0.6c0.4-0.3,0.8-0.6,1.1-1.1s0.5-0.9,0.6-1.4C513.8,563.2,513.8,562.7,513.7,562.2z M512.5,564.8
			c-0.2,0.4-0.5,0.7-0.9,0.9s-0.8,0.4-1.2,0.5c-0.5,0.1-0.9,0.1-1.4,0c-0.5-0.1-0.9-0.2-1.3-0.4c-0.4-0.2-0.8-0.5-1-0.8
			s-0.5-0.7-0.6-1.1c-0.1-0.4-0.1-0.8-0.1-1.3c0.1-0.4,0.2-0.8,0.5-1.2c0.2-0.4,0.5-0.7,0.9-0.9c0.3-0.2,0.8-0.4,1.2-0.5
			c0.5-0.1,0.9-0.1,1.4,0c0.5,0.1,0.9,0.2,1.3,0.4c0.4,0.2,0.7,0.5,1,0.8s0.5,0.7,0.6,1.1c0.1,0.4,0.1,0.8,0.1,1.3
			C512.9,564,512.8,564.4,512.5,564.8z M510.3,563.5c0.3,0,0.6-0.1,0.9-0.2c0.2-0.2,0.4-0.4,0.5-0.8c0.1-0.4,0-0.7-0.3-1
			c-0.2-0.3-0.7-0.5-1.2-0.5c-0.7-0.1-1.1-0.2-1.9-0.3c-0.3,1.7-0.4,2.6-0.7,4.3c0.4,0.1,0.5,0.1,0.9,0.1c0.1-0.7,0.2-1.1,0.3-1.8
			c0.3,0,0.4,0.1,0.6,0.1c0.4,0.8,0.5,1.2,0.9,1.9c0.4,0.1,0.6,0.1,0.9,0.1C510.9,564.7,510.7,564.3,510.3,563.5z M509.9,562.8
			c-0.1,0-0.3,0-0.4-0.1c-0.3,0-0.4-0.1-0.6-0.1c0.1-0.5,0.1-0.7,0.2-1.2c0.3,0,0.4,0.1,0.6,0.1c0.1,0,0.3,0,0.4,0.1
			c0.1,0,0.2,0.1,0.4,0.1s0.2,0.1,0.2,0.2c0.1,0.1,0.1,0.2,0,0.4c0,0.2-0.1,0.3-0.1,0.3c-0.1,0.1-0.2,0.1-0.3,0.2
			C510.2,562.8,510.1,562.8,509.9,562.8z"/>
	</g>
</g>
</svg>
