<svg xmlns="http://www.w3.org/2000/svg" id="wapuugotchi_svg__item" version="1.1" viewBox="0 0 1000 1000">
  <g class="RightFoot--group" >
    <path fill="#3b3637" d="M329.843 645.736c15 8.9 20.3 20.5 23 23.5 5.3 6.3 11.8 5.7 11.8 5.7 6.2-.6 15.8-3.3 21.3-7.7 10.6-8.6-9.2-17.3-25.6-31.6-16.5-14.3-7.8-16.4-17.6-49.8-5.2-17.6-10.8-25-16-30-3.4-3.3-9.5-4.2-13.4-1.4-20.2 14.5-12.3 57.8 4.2 79.8 2.7 3.6 8.3 9.3 12.3 11.5"/>
    <path fill="#3b3637" d="M348.243 612.836s16.2-12.3 15-25.5c-.9-9.7-26.6-37.8-43.5-35"/>
    <path fill="#231f20" d="M369.443 669.436c-.2.6-.5 1.1-.8 1.7-2.9 5-8 3.7-12.8.5-1.3-.9-2.3-1.9-3.1-2.9-2-2.8-2.1-6-.4-8.5.2-.3.5-.6.7-.9 2.5-2.7 6.8-3.1 11.1-.2 4.2 2.8 6.8 6 5.3 10.3z"/>
    <path fill="#141112" d="M358.743 640.436s21.2 16.5 23.2 19.8c2.1 3.3-6.5 7.8-12.3 2.3-5.8-5.6-4.2-12.8-10.9-22.1z"/>
    <path fill="none" stroke="#080808" stroke-linecap="round" stroke-linejoin="round" stroke-miterlimit="10" stroke-width="2.532" d="M357.843 640.836s22 16.1 24.1 19.4c2.1 3.3-6.5 7.8-12.3 2.3-5.8-5.6-5.1-12.4-11.8-21.7z"/>
    <path fill="#080808" d="M362.543 593.636c0 .2 0 .4-.2.6.1-.2.2-.4.2-.6z"/>
    <path fill="#080808" d="M360.443 580.136c0 .1 0 .2-.1.2v-.1s0-.1.1-.1z"/>
    <path fill="#080808" d="M363.443 587.736c0 .1-.1.1-.2.1v-.4c.1.1.1.2.2.3z"/>
    <path fill="none" stroke="#080808" stroke-linecap="round" stroke-linejoin="round" stroke-miterlimit="10" stroke-width="2.532" d="M313.243 553.936s12.2 4.1 19.7 24.5c12.5 34 3 43.9 25 62.4"/>
    <path fill="none" stroke="#080808" stroke-linecap="round" stroke-linejoin="round" stroke-miterlimit="10" stroke-width="2.469" d="M381.543 669.436s4.6-4.8.1-9.7"/>
    <path fill="#080808" d="M354.843 656.136v-1.5c0-.6-.1-1.1-.2-1.7-.1-1.2-.3-2.3-.6-3.5-.5-2.3-1.2-4.7-2-6.9-.8-2.3-1.7-4.5-2.7-6.8l-1.6-3.3-1.7-3.3c-.2-.5-.1-1 .4-1.3.4-.2 1-.1 1.2.3l2 3.2 1.9 3.3c1.2 2.2 2.4 4.4 3.4 6.8 1 2.3 2 4.7 2.7 7.2.4 1.2.7 2.5 1 3.8.1.6.3 1.3.4 2l.1 1c0 .4.1.7.1 1.2v.1c0 1.3-1 2.3-2.3 2.3-1.3 0-2.3-1-2.3-2.3.1-.4.2-.5.2-.6z"/>
    <path fill="#ffce00" d="M341.943 637.636c-.5.2-1 .3-1.5.2-.2 0-.4-.2-.4-.5 0-.2.2-.4.5-.4.9.1 1.7-.4 2.2-1.3.8-1.5.8-4-1-6.1-2.2-2.5-3.1-4.8-3.5-6-.9 1.2-2.8 4.3-1.4 8 .7 1.9.5 3.3.4 3.4 0 .2-.3.4-.5.3-.2 0-.4-.3-.3-.5 0 0 .2-1.2-.4-2.9-1.9-5.2 1.9-9.3 2.1-9.4.1-.1.3-.2.4-.1.1 0 .3.2.3.3 0 0 .6 3 3.6 6.4 2.1 2.4 2 5.4 1.1 7.1-.4.7-1 1.2-1.6 1.5z"/>
    <path fill="#09d35b" d="M336.843 634.836s.3-1.3-.4-3.2c-1.9-5 2-9 2-9s.6 3.1 3.7 6.6c3.1 3.5 1.4 8.5-1.6 8.2"/>
    <circle cx="337.943" cy="633.936" r=".4" fill="#ffce00"/>
    <circle cx="337.743" cy="632.336" r=".4" fill="#ffce00"/>
    <circle cx="337.143" cy="630.736" r=".4" fill="#ffce00"/>
    <circle cx="336.943" cy="628.936" r=".4" fill="#ffce00"/>
    <circle cx="337.043" cy="627.336" r=".4" fill="#ffce00"/>
    <circle cx="337.443" cy="626.036" r=".4" fill="#ffce00"/>
    <circle cx="338.643" cy="626.036" r=".4" fill="#ffce00"/>
    <circle cx="339.443" cy="627.436" r=".4" fill="#ffce00"/>
    <circle cx="340.243" cy="628.736" r=".4" fill="#ffce00"/>
    <circle cx="341.443" cy="630.036" r=".4" fill="#ffce00"/>
    <circle cx="342.143" cy="631.536" r=".4" fill="#ffce00"/>
    <circle cx="342.643" cy="633.136" r=".4" fill="#ffce00"/>
    <circle cx="342.443" cy="634.836" r=".4" fill="#ffce00"/>
    <circle cx="341.643" cy="636.136" r=".4" fill="#ffce00"/>
    <circle cx="338.043" cy="624.736" r=".4" fill="#ffce00"/>
    <path fill="#fffcee" d="M341.843 637.436c-.4.2-.9.3-1.4.2-.1 0-.2-.1-.2-.2s.1-.2.2-.2c1 .1 1.9-.4 2.4-1.4.8-1.5.8-4.2-1-6.4-2.4-2.8-3.3-5.4-3.6-6.3-.8 1-3.2 4.4-1.7 8.5.7 1.9.4 3.2.4 3.3 0 .1-.1.2-.2.2s-.2-.1-.2-.2c0 0 .2-1.3-.4-3-1.9-5.1 2-9.2 2.1-9.2.1-.1.1-.1.2-.1s.1.1.1.2c0 0 .7 3.1 3.6 6.5 2 2.4 2 5.2 1.1 6.8-.3.5-.8 1-1.4 1.3z"/>
    <path fill="#ffce00" d="M331.443 634.636c-1.5.7-3.8.7-5.8-.9-3-2.4-5.6-2.8-5.6-2.8-.1 0-.2-.1-.3-.2 0-.1 0-.3.1-.4.1-.1 3.4-3.6 8-2.1 1.5.5 2.5.2 2.5.2.2 0 .4.1.4.3 0 .2-.1.4-.3.4 0 0-1.2.3-2.9-.3-3.1-1-5.7.7-6.7 1.5 1 .3 3 1 5.2 2.8 1.9 1.5 4 1.4 5.3.6.8-.5 1.2-1.2 1-1.9 0-.2.1-.4.3-.4.2 0 .4.1.4.3.2 1.1-.3 2-1.4 2.7 0 .1-.1.2-.2.2z"/>
    <path fill="#09d35b" d="M330.443 628.836s-1.1.3-2.7-.2c-4.4-1.4-7.6 2-7.6 2s2.6.4 5.8 2.9c3.1 2.5 7.3.9 6.9-1.6"/>
    <circle cx="329.743" cy="629.836" r=".3" fill="#ffce00"/>
    <circle cx="328.343" cy="629.736" r=".3" fill="#ffce00"/>
    <circle cx="326.943" cy="629.336" r=".3" fill="#ffce00"/>
    <circle cx="325.443" cy="629.136" r=".3" fill="#ffce00"/>
    <circle cx="324.143" cy="629.336" r=".3" fill="#ffce00"/>
    <circle cx="322.943" cy="629.636" r=".3" fill="#ffce00"/>
    <circle cx="323.043" cy="630.736" r=".3" fill="#ffce00"/>
    <circle cx="324.243" cy="631.336" r=".3" fill="#ffce00"/>
    <circle cx="325.343" cy="632.036" r=".3" fill="#ffce00"/>
    <circle cx="326.543" cy="632.936" r=".3" fill="#ffce00"/>
    <circle cx="327.843" cy="633.536" r=".3" fill="#ffce00"/>
    <circle cx="329.243" cy="633.836" r=".3" fill="#ffce00"/>
    <circle cx="330.643" cy="633.636" r=".3" fill="#ffce00"/>
    <circle cx="331.743" cy="632.936" r=".3" fill="#ffce00"/>
    <circle cx="321.843" cy="630.236" r=".3" fill="#ffce00"/>
    <path fill="#fffcee" d="M331.443 634.536c-1.4.7-3.6.7-5.6-.8-3.1-2.4-5.7-2.8-5.7-2.8-.1 0-.1-.1-.1-.1v-.2s3.4-3.5 7.8-2.1c1.5.5 2.6.2 2.6.2.1 0 .2 0 .2.1s0 .2-.1.2c0 0-1.2.3-2.8-.3-3.5-1.1-6.4 1-7.2 1.8.8.2 3 .9 5.5 2.8 1.9 1.5 4.2 1.4 5.5.7.9-.5 1.3-1.3 1.1-2.1 0-.1 0-.2.1-.2s.2.1.2.1c.2 1-.3 1.9-1.3 2.5 0 .1-.1.1-.2.2z"/>
    <path fill="#ffce00" d="M328.543 593.336c0 .1 0 .2-.1.3 0 0-1.7 1.7-2.6 5.1-.7 2.4-2.6 3.7-4.1 3.8-.6.1-1.2 0-1.6-.3-.3-.1-.5-.3-.6-.6v-.8h.1c.1 0 .2.1.3.2.3.6 1 .9 1.8.8 1.3-.1 2.9-1.2 3.5-3.3.7-2.5 1.7-4.1 2.3-4.9-1.2-.1-4 .1-5.8 2.6-.9 1.3-1.9 1.8-2 1.8h-.1v-.4h.1v-.4c.3-.2.9-.6 1.5-1.4 2.5-3.5 6.8-2.8 7-2.8.2.1.3.1.3.3z"/>
    <path fill="#09d35b" d="M328.243 593.436s-1.7 1.7-2.6 5.2c-.9 3.5-4.9 4.6-5.9 2.6v-3.6h.1c.2-.1 1-.6 1.8-1.6 2.3-3.4 6.6-2.6 6.6-2.6z"/>
    <circle cx="320.843" cy="598.036" r=".3" fill="#ffce00"/>
    <circle cx="321.743" cy="597.236" r=".3" fill="#ffce00"/>
    <circle cx="322.543" cy="596.136" r=".3" fill="#ffce00"/>
    <circle cx="323.543" cy="595.136" r=".3" fill="#ffce00"/>
    <circle cx="324.643" cy="594.536" r=".3" fill="#ffce00"/>
    <circle cx="325.643" cy="594.236" r=".3" fill="#ffce00"/>
    <circle cx="326.243" cy="595.036" r=".3" fill="#ffce00"/>
    <circle cx="325.643" cy="596.136" r=".3" fill="#ffce00"/>
    <circle cx="325.143" cy="597.236" r=".3" fill="#ffce00"/>
    <circle cx="324.843" cy="598.536" r=".3" fill="#ffce00"/>
    <circle cx="324.243" cy="599.736" r=".3" fill="#ffce00"/>
    <circle cx="323.343" cy="600.736" r=".3" fill="#ffce00"/>
    <circle cx="322.243" cy="601.336" r=".3" fill="#ffce00"/>
    <circle cx="320.943" cy="601.436" r=".3" fill="#ffce00"/>
    <circle cx="326.743" cy="594.036" r=".3" fill="#ffce00"/>
    <path fill="#fffcee" d="M328.343 593.336v.2s-1.7 1.8-2.6 5.2c-.6 2.3-2.5 3.6-3.9 3.7-.6.1-1.1 0-1.5-.3-.3-.2-.5-.4-.7-.7v-.3h.1c.1 0 .1 0 .1.1.4.7 1.1 1 2 .9 1.3-.1 3.1-1.3 3.6-3.5.8-2.8 2-4.5 2.5-5.1-1-.1-4.2-.1-6.2 2.6-.9 1.3-1.9 1.7-1.9 1.7v-.2h.1v-.2c.3-.2 1-.6 1.6-1.5 2.5-3.5 6.8-2.7 6.8-2.7z"/>
    <path fill="#ffce00" d="M323.943 573.136v.1s-.5.9-.5 2.4c0 1.1-.7 1.8-1.3 2-.3.1-.5.1-.7 0-.1 0-.2-.1-.2-.1v-.4h.1c.2.2.5.3.8.2.5-.2 1.1-.8 1.1-1.7 0-1.1.3-1.9.5-2.3-.5.1-1.6.4-2.1 1.6-.2.6-.6.9-.6.9v-.4c.1-.1.3-.4.5-.7.7-1.7 2.5-1.8 2.6-1.8-.3.1-.2.1-.2.2z"/>
    <path fill="#09d35b" d="M323.843 573.136s-.5.9-.6 2.4c0 1.5-1.5 2.3-2.1 1.7v-.2c-.1-.4-.2-.9-.3-1.2v-.2c.1-.1.4-.3.6-.8.5-1.6 2.4-1.7 2.4-1.7z"/>
    <circle cx="321.243" cy="575.836" r=".1" fill="#ffce00"/>
    <circle cx="321.443" cy="575.436" r=".1" fill="#ffce00"/>
    <circle cx="321.743" cy="574.836" r=".1" fill="#ffce00"/>
    <circle cx="322.043" cy="574.336" r=".1" fill="#ffce00"/>
    <circle cx="322.443" cy="574.036" r=".1" fill="#ffce00"/>
    <circle cx="322.843" cy="573.736" r=".1" fill="#ffce00"/>
    <circle cx="323.143" cy="574.036" r=".1" fill="#ffce00"/>
    <circle cx="323.043" cy="574.536" r=".1" fill="#ffce00"/>
    <circle cx="322.943" cy="575.036" r=".1" fill="#ffce00"/>
    <circle cx="322.943" cy="575.636" r=".1" fill="#ffce00"/>
    <circle cx="322.743" cy="576.136" r=".1" fill="#ffce00"/>
    <circle cx="322.543" cy="576.636" r=".1" fill="#ffce00"/>
    <circle cx="322.043" cy="577.036" r=".1" fill="#ffce00"/>
    <circle cx="321.543" cy="577.236" r=".1" fill="#ffce00"/>
    <circle cx="323.243" cy="573.636" r=".1" fill="#ffce00"/>
    <path fill="#fffcee" d="M323.843 573.136s0 .1 0 0c0 .1-.5 1-.6 2.5 0 1-.7 1.7-1.3 1.9-.2.1-.5.1-.7 0-.1 0-.2-.1-.3-.1v-.2c.2.3.5.3.9.2.5-.2 1.1-.8 1.2-1.8 0-1.2.4-2 .5-2.3-.4.1-1.8.4-2.3 1.7-.2.5-.5.8-.6.9v-.2c.1-.1.3-.4.5-.8.8-1.7 2.6-1.8 2.7-1.8z"/>
    <path fill="#ffce00" d="M321.143 585.436c.1.4.3.7.4 1l-.1.5v.2c-.2-.3-.6-.8-.8-1.5-.7-2.2-2.7-3-3.6-3.2.2.7.6 2.1.5 4.1-.1 1.7.9 2.8 1.8 3.3.6.3 1.1.2 1.5-.2.1-.1.2-.1.2-.1v.7c-.5.4-1.2.4-1.9.1-.1 0-.2-.1-.2-.1-1-.5-1.9-1.9-1.8-3.6.1-2.7-.7-4.3-.7-4.3v-.3c.1-.1.1-.1.2-.1.2-.2 3.5.3 4.5 3.5z"/>
    <path fill="#09d35b" d="M321.543 586.736v.4l-.3 2.4v.3c-1.3 1.3-3.8-.5-3.7-3.3.1-2.8-.7-4.4-.7-4.4s3.3.4 4.2 3.5c.1.4.3.8.5 1.1z"/>
    <circle cx="321.043" cy="587.136" r=".2" fill="#ffce00"/>
    <circle cx="320.543" cy="586.236" r=".2" fill="#ffce00"/>
    <circle cx="320.243" cy="585.336" r=".2" fill="#ffce00"/>
    <circle cx="319.643" cy="584.336" r=".2" fill="#ffce00"/>
    <circle cx="319.043" cy="583.736" r=".2" fill="#ffce00"/>
    <circle cx="318.343" cy="583.236" r=".2" fill="#ffce00"/>
    <circle cx="317.743" cy="583.636" r=".2" fill="#ffce00"/>
    <circle cx="317.943" cy="584.636" r=".2" fill="#ffce00"/>
    <circle cx="318.043" cy="585.536" r=".2" fill="#ffce00"/>
    <circle cx="317.943" cy="586.536" r=".2" fill="#ffce00"/>
    <circle cx="318.143" cy="587.536" r=".2" fill="#ffce00"/>
    <circle cx="318.543" cy="588.436" r=".2" fill="#ffce00"/>
    <circle cx="319.243" cy="589.136" r=".2" fill="#ffce00"/>
    <circle cx="320.143" cy="589.536" r=".2" fill="#ffce00"/>
    <circle cx="317.643" cy="582.836" r=".2" fill="#ffce00"/>
    <path fill="#fffcee" d="m321.543 586.536-.1.4c-.2-.3-.5-.7-.7-1.4-.8-2.5-3.2-3.2-3.9-3.4.2.5.7 2.1.6 4.3-.1 1.7.9 3 1.8 3.4.6.3 1.2.2 1.7-.2h.1v.3c-.5.4-1.2.5-1.9.2-.1 0-.1-.1-.2-.1-.9-.5-1.9-1.8-1.8-3.5.1-2.7-.7-4.4-.7-4.4v-.1l.1-.1s3.4.5 4.3 3.6c.4.4.6.8.7 1z"/>
    <path fill="#ffce00" d="M352.243 659.536c-.8-4.3-2.4-8.5-4.5-12.4-1.1-1.9-2.3-3.7-3.7-5.4-.8-.8-1.4-1.7-2.3-2.4-.4-.4-.8-.8-1.2-1.1l-1.3-1c-3.8-2.5-7.1-5.7-10-9.2-2.8-3.5-5.2-7.5-6.9-11.7-1.7-4.2-2.8-8.7-3-13.2 0-1.1-.1-2.3 0-3.4l.2-1.7c0-.6.1-1.1.2-1.7l.7-3.3c.2-1.1.5-2.2.7-3.3.7-4.4.6-9-.2-13.4-1-4.4-2.6-8.7-5.3-12.2 2.8 3.6 4.5 7.8 5.5 12.2.9 4.4 1.1 9 .4 13.5-.1 1.1-.4 2.2-.6 3.3l-.6 3.3c-.1.5-.2 1.1-.2 1.7l-.1 1.7c-.1 1.1 0 2.2 0 3.3.2 4.4 1.4 8.8 3.1 12.9 1.8 4.1 4.1 7.9 7 11.3 2.8 3.4 6.1 6.5 9.9 8.9l1.4 1c.5.3.9.8 1.3 1.1.9.7 1.6 1.6 2.4 2.4 1.5 1.8 2.8 3.6 4 5.6 2.3 4 3.9 8.3 4.9 12.8z"/>
    <circle cx="323.343" cy="614.936" r="2.4" fill="#fa2eb8"/>
    <path fill="#fa2eb8" d="M320.843 613.836c-2 .3-5.1-1.8-3-4 2.1-2.2 1.8-4 1.8-4s1 1.5 4.1 1.6c3.1.1 2.3 3.8.7 5"/>
    <path fill="#fa2eb8" d="M322.243 617.436c.3 2-1.8 5.1-4 3-2.2-2.1-4-1.8-4-1.8s1.5-1 1.6-4.1c.1-3.1 3.8-2.3 5-.7"/>
    <path fill="#fa2eb8" d="M325.843 616.036c2-.3 5.1 1.8 3 4-2.1 2.2-1.8 4-1.8 4s-1-1.5-4.1-1.6c-3.1-.1-2.3-3.8-.7-5"/>
    <path fill="#fa2eb8" d="M324.443 612.436c-.3-2 1.8-5.1 4-3 2.2 2.1 4 1.8 4 1.8s-1.5 1-1.6 4.1c-.1 3.1-3.8 2.3-5 .7"/>
    <circle cx="323.343" cy="614.936" r="2.4" fill="#09d35b"/>
    <circle cx="323.343" cy="614.936" r="2.4" fill="none" stroke="#ffce00" stroke-linecap="round" stroke-linejoin="round" stroke-miterlimit="10" stroke-width="1.497"/>
    <path fill="none" stroke="#ffce00" stroke-linecap="round" stroke-linejoin="round" stroke-miterlimit="10" stroke-width="1.497" d="M320.843 613.836c-2 .3-5.1-1.8-3-4 2.1-2.2 1.8-4 1.8-4s1 1.5 4.1 1.6c3.1.1 2.3 3.8.7 5"/>
    <path fill="none" stroke="#ffce00" stroke-linecap="round" stroke-linejoin="round" stroke-miterlimit="10" stroke-width="1.497" d="M322.243 617.436c.3 2-1.8 5.1-4 3-2.2-2.1-4-1.8-4-1.8s1.5-1 1.6-4.1c.1-3.1 3.8-2.3 5-.7"/>
    <path fill="none" stroke="#ffce00" stroke-linecap="round" stroke-linejoin="round" stroke-miterlimit="10" stroke-width="1.497" d="M325.843 616.036c2-.3 5.1 1.8 3 4-2.1 2.2-1.8 4-1.8 4s-1-1.5-4.1-1.6c-3.1-.1-2.3-3.8-.7-5"/>
    <path fill="none" stroke="#ffce00" stroke-linecap="round" stroke-linejoin="round" stroke-miterlimit="10" stroke-width="1.497" d="M324.443 612.436c-.3-2 1.8-5.1 4-3 2.2 2.1 4 1.8 4 1.8s-1.5 1-1.6 4.1c-.1 3.1-3.8 2.3-5 .7"/>
    <circle cx="353.943" cy="580.936" r="2.4" fill="#fa2eb8"/>
    <path fill="#fa2eb8" d="M355.843 576.136v.2c-.1.3-.2.7-.3.9-.1.2-.2.5-.4.6l-.3.3-.4.2-.2.1-2.1 1.1-.2.1-.4.2c-.1 0-.3.1-.4.1h-.7c-.4-.1-.9-.2-1.2-.4-.4-.2-.7-.4-.9-.7-.2-.2-.3-.4-.4-.7-.2-.6-.1-1.3.5-2 1.9-2.4 1.4-4.1 1.4-4.1s1.1 1.4 4 1.3c.2.3.4.5.6.8.2.3.5.6.7.8.1.2.2.3.4.5l.1.1c.2.2.3.5.5.7-.3 0-.3 0-.3-.1z"/>
    <path fill="#fa2eb8" d="M353.043 583.436c.5 2-1.4 5.2-3.8 3.3-2.4-1.9-4.1-1.4-4.1-1.4s1.4-1.1 1.3-4.2c-.2-3.1 3.6-2.6 4.9-1.1z"/>
    <path fill="#fa2eb8" d="M359.043 582.136c.1.3.1.5.2.7 0 .1 0 .2.1.2v.2c.1.1.2.2.2.3l.1.1h-.2c.1.4.1.7.1 1.1v1.2c-1.5 2.2-1.1 3.7-1.1 3.7s-1.1-1.4-4.2-1.3c-1 0-1.6-.3-1.9-.8-.1-.2-.2-.5-.3-.7-.1-.4-.1-.8 0-1.2.1-.4.2-.9.4-1.2.1-.2.3-.4.4-.6l.3-.3.4-.2.2-.1 2.1-1.1.2-.1.4-.2c.1 0 .3-.1.4-.1h.7c.6.1 1 .2 1.5.4-.1 0-.1 0 0 0z"/>
    <path fill="#fa2eb8" d="M358.643 581.236c.1.3.3.6.4 1 .1.3.1.5.2.7-.2 0-.3 0-.5-.1-.4-.1-.8-.2-1.2-.4-.2-.1-.4-.2-.6-.4l-.3-.3-.2-.4-.1-.2-1-2.1-.1-.2-.2-.4c0-.1-.1-.3-.1-.4v-.7c.1-.4.2-.9.4-1.3 0-.1.1-.2.1-.2.2.2.3.5.5.7 0-.1.1-.1.1-.2v.2c.2.3.4.5.5.8.8 1.3 1.6 2.6 2.1 3.9z"/>
    <circle cx="353.943" cy="580.936" r="2.4" fill="#09d35b"/>
    <path fill="#ffce00" d="m355.743 578.336-.2-.2c-.1-.1-.3-.2-.4-.2-.1 0-.2-.1-.4-.1s-.3-.1-.5-.1h-.3c-.5 0-1 .1-1.5.3-.5.2-.9.6-1.1 1-.1.1-.1.2-.1.2-.1.1-.1.3-.2.4 0 .1 0 .1-.1.2v.2c0 .2-.1.3-.1.5v.3c0 .5.1 1 .3 1.5.2.5.6.9 1 1.1.1.1.2.1.2.2.1.1.3.1.4.2.1 0 .1 0 .2.1.1 0 .1 0 .2.1.2 0 .3.1.5.1h.3c.5 0 1-.1 1.5-.3l.1-.1c.4-.2.7-.5 1-.9l.2-.2c.1-.1.1-.3.2-.4 0-.1 0-.1.1-.2v-.2c0-.2.1-.3.1-.5v-.3c0-.5-.1-1-.3-1.5-.4-.5-.7-.9-1.1-1.2zm-3.3 3.3c-.2-.4-.2-.8-.1-1.3.1-.4.4-.7.7-.9h.1c.8-.4 1.8-.1 2.2.7v.1c.2.4.2.8.1 1.3-.1.4-.4.8-.8 1-.4.2-.8.2-1.3.1-.4-.3-.7-.6-.9-1z"/>
    <path fill="#ffce00" d="M354.143 574.136h-.5c-1.6.1-2.7-.2-3.5-.6-.2.8-.6 2-1.6 3.2-.6.7-.4 1.2-.3 1.4l.1.1c.2.3.5.5.8.7.4.2.8.3 1.2.4h.8c.2 0 .4 0 .5.1.1 0 .1.1.2.2l.1.1c0 .1 0 .1.1.2v.3c0 .1 0 .1-.1.2-.1.2-.2.3-.4.3h-.8c-1.1 0-2.2-.4-3-1-.2-.2-.4-.4-.5-.6-.1-.1-.1-.1-.1-.2-.1-.1-.2-.3-.2-.5-.4-.9-.2-1.9.6-2.8 1.6-2 1.3-3.4 1.3-3.5-.1-.3.1-.7.4-.9.3-.2.7-.1.9.2 0 0 .8.9 2.8 1 .2.3.4.5.6.7.2.5.4.8.6 1z"/>
    <path fill="#ffce00" d="M355.843 576.436c.2.3.4.5.5.8l-.6 1.2c-.1.1-.2.3-.3.4l-.2.2-.1.1c-.1 0-.2.1-.2.1h-.4c-.1 0-.2-.1-.2-.2h-.1l-.1-.1c0-.1 0-.1-.1-.2v-.3c0-.2.1-.4.2-.5.2-.2.3-.4.5-.6.2-.4.4-.8.4-1.3v-.4l.1.1c.2.1.4.4.6.7v-.2z"/>
    <path fill="#ffce00" d="M351.943 587.736c-1 .6-2.1.4-3.2-.4-2-1.6-3.4-1.3-3.5-1.3-.3.1-.7-.1-.9-.4-.2-.3-.1-.7.2-.9 0 0 1.1-1 1-3.5-.1-1.4.5-2.4 1.6-2.8 1.4-.6 3.5 0 4.6 1.2.3.3.2.8-.1 1.1-.3.3-.8.2-1.1-.1-.6-.7-2.1-1.1-2.9-.8-.2.1-.7.3-.7 1.4.1 1.6-.2 2.7-.6 3.5.8.2 1.9.6 3.2 1.6.8.7 1.4.4 1.5.3.8-.5 1.3-1.9 1.1-2.8-.1-.4.2-.8.6-.9.4-.1.8.2.9.6.5 1.3-.3 3.4-1.7 4.2.1 0 .1 0 0 0z"/>
    <path fill="#ffce00" d="M359.243 585.036c.1-.1.2-.2.2-.3v1.2c0 .6 0 1.1-.1 1.7-.4 1.1-.3 1.8-.3 1.8.1.2 0 .4-.1.6-.1.1-.1.2-.2.2-.3.2-.7.1-.9-.2 0 0-1-1.1-3.5-1-1.2.1-2.1-.4-2.6-1.2-.1-.1-.2-.3-.2-.4 0-.1-.1-.2-.1-.2-.1-.2-.1-.5-.1-.8-.1-1 .3-2.2.9-3 .1-.1.2-.3.3-.4l.2-.2.1-.1c.1-.1.3-.1.5-.1h.2c.1 0 .2.1.2.2h.1s.1.1.1.2 0 .1.1.2v.3c0 .2-.1.3-.2.5-.2.2-.3.4-.5.6-.2.4-.4.8-.4 1.2 0 .4 0 .8.1 1v.1c.1.2.4.6 1.3.6 1.6-.1 2.7.2 3.5.6 0-.7.4-1.8 1.4-3.1z"/>
    <path fill="#ffce00" d="M358.643 581.236c.1.3.3.6.4 1 .1.3.1.5.2.7 0 .1 0 .2.1.2v.2c-.2-.2-.4-.3-.6-.4-.4-.2-.8-.3-1.2-.4h-.8c-.2 0-.4 0-.5-.1-.1 0-.1-.1-.2-.1l-.1-.1s0-.1-.1-.2v-.5c0-.1.1-.2.2-.2.1-.1.1-.1.2-.1 0 0 .1 0 .1-.1h.8c.4-.2 1-.1 1.5.1z"/>
    <path fill="#ffce00" d="M355.743 576.336c-.2.3-.3.7-.3 1v.8c0 .2 0 .4-.1.5 0 .1-.1.1-.2.2l-.1.1c-.1 0-.1.1-.2.1h-.5c-.1 0-.2-.1-.2-.2-.1-.1-.1-.1-.1-.2 0 0 0-.1-.1-.1v-.7c0-.9.3-2 .8-2.7.1.2.2.3.4.5l.1.1c.2.1.4.4.5.6z"/>
    <path fill="#ffce00" d="M359.043 582.136c.1.3.2.5.2.8 0 .1 0 .2.1.2v.2c.1.1.2.2.2.3l.1.1h-.2c-1 0-2-.3-2.8-.9-.1-.1-.3-.2-.4-.3l-.2-.2-.1-.1c0-.1-.1-.2-.1-.2v-.4c0-.1.1-.2.2-.2v-.1l.1-.1c.1 0 .1-.1.2-.1h.3c.2 0 .3.1.5.2.2.2.4.3.6.5.3.1.8.2 1.3.3-.1 0-.1 0 0 0z"/>
    <path fill="none" stroke="#080808" stroke-linecap="round" stroke-linejoin="round" stroke-miterlimit="10" stroke-width="4.201" d="M369.443 669.436c-.2.6-.5 1.1-.8 1.7-2.9 5-8 3.7-12.8.5-1.3-.9-2.3-1.9-3.1-2.9-2-2.8-2.1-6-.4-8.5.2-.3.5-.6.7-.9 2.5-2.7 6.8-3.1 11.1-.2 4.2 2.8 6.8 6 5.3 10.3z"/>
    <path fill="#080808" d="M321.143 589.536v-.1z"/>
    <path fill="none" stroke="#080808" stroke-linecap="round" stroke-linejoin="round" stroke-miterlimit="10" stroke-width="5.881" d="M348.243 612.836s16.2-12.3 15-25.5c-.9-9.7-26.6-37.8-43.5-35"/>
    <path fill="none" stroke="#080808" stroke-linecap="round" stroke-linejoin="round" stroke-miterlimit="10" stroke-width="5.881" d="M329.743 645.236c15 8.9 20.3 20.5 23 23.5 5.3 6.3 11.8 5.7 11.8 5.7 6.2-.6 15.8-3.3 21.3-7.7 10.6-8.6-9.2-17.3-25.6-31.6-16.5-14.3-7.8-16.4-17.6-49.8-5.2-17.6-10.8-25-16-30-3.4-3.3-9.5-4.2-13.4-1.4-20.2 14.5-12.3 57.8 4.2 79.8 2.7 3.6 8.2 9.2 12.3 11.5"/>
  </g>
  <g class="LeftFoot--group">
    <path fill="#3b3637" d="M456.9 651.182c11.7 17.2 11.4 32.3 12.8 37 2.5 9.5 9.8 12.1 9.8 12.1 6.9 2.5 18.7 4.4 26.8 2.5 15.8-3.9-1.1-23.3-11.5-47.1s-.1-21.7 6.3-62.5c3.4-21.6 1-32.3-2-40.4-2-5.3-8.1-9.3-13.7-8.3-29.1 5.4-42.6 56.1-35.9 88 1.1 5.3 4.2 14.2 7.4 18.7"/>
    <path fill="#3b3637" d="M493.3 625.082s23.7-5 29.1-19.9c4-10.8-9.5-54.2-29.1-59.7"/>
    <path fill="#231f20" d="M487.6 696.682c-.5.5-1.1 1-1.8 1.5-5.6 3.9-10.5 0-14.1-5.9-1-1.6-1.6-3.2-1.9-4.7-.8-4 .8-7.5 3.9-9.3.4-.2.8-.5 1.3-.6 4-1.6 8.9.1 12.1 5.4 3.1 5 4.2 9.8.5 13.6z"/>
    <path fill="#141112" d="M490.7 660.082s14.4 28.5 15 33.1c.6 4.6-10.9 5.2-14.4-3.7s1.9-16-.6-29.4z"/>
    <path fill="none" stroke="#080808" stroke-linecap="round" stroke-linejoin="round" stroke-miterlimit="10" stroke-width="3.014" d="M489.6 660.082s15.5 28.5 16.1 33.1c.6 4.6-10.9 5.2-14.4-3.7s.8-16-1.7-29.4z"/>
    <path fill="#080808" d="M518.5 611.682c-.1.2-.3.4-.5.5z"/>
    <path fill="#080808" d="M523.1 595.982c-.1.1-.1.2-.2.2v-.1c.1-.1.1-.1.2-.1z"/>
    <path fill="#080808" d="M522.4 605.682v.1c-.1 0-.1-.1-.2-.1.1-.1.1-.3.2-.4z"/>
    <path fill="none" stroke="#080808" stroke-linecap="round" stroke-linejoin="round" stroke-miterlimit="10" stroke-width="3.014" d="M485.5 543.882s11.1 10.6 8.8 36.3c-3.8 42.9-19.1 48.8-4.7 79.8"/>
    <path fill="none" stroke="#080808" stroke-linecap="round" stroke-linejoin="round" stroke-miterlimit="10" stroke-width="2.938" d="M500.5 702.882s7.4-2.8 5-10.3"/>
    <path fill="#080808" d="M478.5 674.982c.1-.1.2-.5.4-.7l.4-.9c.2-.6.5-1.3.7-1.9.4-1.3.8-2.7 1.1-4.1.7-2.8 1.1-5.6 1.4-8.5.3-2.9.4-5.8.5-8.7v-4.4l-.2-4.4c0-.6.5-1.2 1.1-1.2.6 0 1.1.4 1.2 1l.6 4.4.4 4.5c.2 3 .3 6 .3 9-.1 3-.2 6.1-.7 9.1-.2 1.5-.5 3-.8 4.6-.2.8-.4 1.5-.6 2.3l-.4 1.2c-.2.4-.3.7-.5 1.3l-.1.1c-.6 1.4-2.2 1.9-3.6 1.3-1.4-.6-1.9-2.2-1.3-3.6 0-.2.1-.3.1-.4z"/>
    <path fill="#ffce00" d="M474.1 648.582c-.6 0-1.2-.2-1.8-.5-.2-.1-.3-.5-.2-.7.1-.2.5-.3.7-.2.9.6 2 .5 3-.3 1.6-1.2 2.9-3.9 2-7.1-1.1-3.8-.9-6.8-.8-8.2-1.6.9-5.2 3.3-5.6 7.9-.2 2.4-1.2 3.8-1.2 3.9-.2.2-.5.3-.7.1-.2-.2-.3-.5-.1-.7 0 0 .9-1.2 1-3.4.6-6.6 6.8-9 7-9.1.2-.1.4 0 .5.1.1.1.2.3.2.5 0 0-.8 3.6.6 8.7 1 3.7-.5 6.8-2.4 8.2-.6.5-1.4.8-2.2.8z"/>
    <path fill="#09d35b" d="M469.9 642.882s.9-1.3 1.1-3.6c.5-6.4 6.7-8.7 6.7-8.7s-.9 3.6.6 9-2.8 9.9-5.8 8"/>
    <circle cx="471.6" cy="642.482" r=".4" fill="#ffce00"/>
    <circle cx="472.2" cy="640.682" r=".4" fill="#ffce00"/>
    <circle cx="472.4" cy="638.682" r=".4" fill="#ffce00"/>
    <circle cx="473" cy="636.582" r=".4" fill="#ffce00"/>
    <circle cx="474" cy="634.982" r=".4" fill="#ffce00"/>
    <circle cx="475" cy="633.682" r=".4" fill="#ffce00"/>
    <circle cx="476.4" cy="634.382" r=".4" fill="#ffce00"/>
    <circle cx="476.5" cy="636.282" r=".4" fill="#ffce00"/>
    <circle cx="476.8" cy="638.082" r=".4" fill="#ffce00"/>
    <circle cx="477.3" cy="640.082" r=".4" fill="#ffce00"/>
    <circle cx="477.4" cy="642.082" r=".4" fill="#ffce00"/>
    <circle cx="477" cy="644.082" r=".4" fill="#ffce00"/>
    <circle cx="476" cy="645.682" r=".4" fill="#ffce00"/>
    <circle cx="474.4" cy="646.782" r=".4" fill="#ffce00"/>
    <circle cx="476.4" cy="632.682" r=".4" fill="#ffce00"/>
    <path fill="#fffcee" d="M474.1 648.282c-.6 0-1.1-.2-1.6-.5-.1-.1-.2-.2-.1-.3.1-.1.2-.2.3-.1 1 .6 2.2.5 3.3-.3 1.7-1.2 3-4.1 2.1-7.4-1.2-4.3-.9-7.5-.7-8.6-1.4.7-5.7 3.1-6.1 8.3-.2 2.4-1.1 3.7-1.2 3.7-.1.1-.2.1-.3.1-.1-.1-.1-.2-.1-.3 0 0 .9-1.3 1.1-3.5.5-6.5 6.8-8.9 6.9-8.9h.3c.1.1.1.2.1.2s-.8 3.6.6 8.8c1 3.6-.5 6.6-2.3 7.9-.8.6-1.6.9-2.3.9z"/>
    <path fill="#ffce00" d="M464.3 639.982c-1.9 0-4.4-1.2-5.8-3.9-2-4.1-4.6-5.8-4.6-5.9-.1-.1-.2-.2-.2-.4s.1-.3.3-.3c.2-.1 5.5-2.1 9.7 1.7 1.3 1.3 2.6 1.5 2.6 1.5.2 0 .4.3.3.5-.1.2-.3.4-.5.3-.1 0-1.5-.3-3-1.7-2.9-2.7-6.5-2.2-8-1.8.9.8 2.7 2.6 4.2 5.7 1.3 2.5 3.7 3.5 5.4 3.4 1.1-.1 1.9-.7 2.1-1.5.1-.2.3-.4.5-.3.2.1.4.3.3.5-.3 1.2-1.4 2-2.8 2.2z"/>
    <path fill="#09d35b" d="M466.1 633.282s-1.3-.3-2.8-1.6c-4-3.7-9.2-1.7-9.2-1.7s2.6 1.8 4.8 6c2.1 4.2 7.4 4.7 8.3 1.7"/>
    <circle cx="464.8" cy="633.982" r=".4" fill="#ffce00"/>
    <circle cx="463.4" cy="633.082" r=".4" fill="#ffce00"/>
    <circle cx="462.1" cy="631.982" r=".4" fill="#ffce00"/>
    <circle cx="460.5" cy="630.982" r=".4" fill="#ffce00"/>
    <circle cx="459" cy="630.582" r=".4" fill="#ffce00"/>
    <circle cx="457.6" cy="630.282" r=".4" fill="#ffce00"/>
    <circle cx="457.1" cy="631.482" r=".4" fill="#ffce00"/>
    <circle cx="458.2" cy="632.782" r=".4" fill="#ffce00"/>
    <circle cx="459" cy="634.082" r=".4" fill="#ffce00"/>
    <circle cx="459.9" cy="635.682" r=".4" fill="#ffce00"/>
    <circle cx="460.9" cy="636.982" r=".4" fill="#ffce00"/>
    <circle cx="462.3" cy="637.982" r=".4" fill="#ffce00"/>
    <circle cx="463.9" cy="638.482" r=".4" fill="#ffce00"/>
    <circle cx="465.5" cy="638.282" r=".4" fill="#ffce00"/>
    <circle cx="456.2" cy="630.382" r=".4" fill="#ffce00"/>
    <path fill="#fffcee" d="M464.3 639.782c-1.9 0-4.3-1.1-5.6-3.7-2.1-4.1-4.7-5.9-4.7-5.9-.1 0-.1-.1-.1-.2s.1-.1.1-.2c.1 0 5.4-2.1 9.4 1.7 1.4 1.3 2.7 1.6 2.7 1.6.1 0 .2.1.2.3 0 .1-.1.2-.3.2-.1 0-1.4-.3-2.9-1.7-3.2-3-7.4-2.1-8.6-1.7.8.6 2.8 2.5 4.5 5.9 1.3 2.6 3.8 3.6 5.6 3.5 1.2-.1 2-.7 2.3-1.7 0-.1.1-.2.3-.1.1 0 .2.2.1.3-.3 1.1-1.3 1.9-2.7 2-.1-.3-.2-.3-.3-.3z"/>
    <path fill="#ffce00" d="M482.1 593.982c0 .1-.1.3-.2.3 0 0-2.7 1-5.4 4.2-1.9 2.2-4.6 2.6-6.3 2.1-.7-.2-1.3-.7-1.6-1.2-.2-.3-.3-.6-.4-1 0-.1.1-.2.2-.3.1-.1.1-.2.2-.3 0-.1.1-.1.1-.2h.1c.1.1.2.2.2.3 0 .8.6 1.5 1.5 1.8 1.5.5 3.8.2 5.5-1.8 2-2.4 4-3.6 5-4.1-1.3-.7-4.4-1.9-7.5-.1-1.7.9-3 .9-3 .9h-.1l.1-.2.1-.2h.1c0-.1.1-.1.1-.2s.1-.2.1-.2c.4 0 1.3-.2 2.3-.8 4.5-2.5 8.8.4 9 .5-.2.2-.1.4-.1.5z"/>
    <path fill="#09d35b" d="M481.7 593.982s-2.7 1-5.5 4.3-7.6 2.5-7.7-.2l.1-.2.1-.2.8-1.6c0-.1.1-.2.1-.3l.6-1.2.1-.2.1-.2h.1c.3 0 1.4-.1 2.8-.9 4.2-2.3 8.4.7 8.4.7z"/>
    <circle cx="471.4" cy="595.182" r=".3" fill="#ffce00"/>
    <circle cx="472.8" cy="594.782" r=".3" fill="#ffce00"/>
    <circle cx="474.2" cy="593.982" r=".3" fill="#ffce00"/>
    <circle cx="475.8" cy="593.482" r=".3" fill="#ffce00"/>
    <circle cx="477.2" cy="593.382" r=".3" fill="#ffce00"/>
    <circle cx="478.5" cy="593.482" r=".3" fill="#ffce00"/>
    <circle cx="478.7" cy="594.682" r=".3" fill="#ffce00"/>
    <circle cx="477.5" cy="595.582" r=".3" fill="#ffce00"/>
    <circle cx="476.5" cy="596.582" r=".3" fill="#ffce00"/>
    <circle cx="475.4" cy="597.782" r=".3" fill="#ffce00"/>
    <circle cx="474.2" cy="598.682" r=".3" fill="#ffce00"/>
    <circle cx="472.8" cy="599.382" r=".3" fill="#ffce00"/>
    <circle cx="471.2" cy="599.382" r=".3" fill="#ffce00"/>
    <circle cx="469.8" cy="598.882" r=".3" fill="#ffce00"/>
    <circle cx="479.8" cy="593.982" r=".3" fill="#ffce00"/>
    <path fill="#fffcee" d="M481.9 593.982c0 .1 0 .1-.1.2 0 0-2.7 1-5.4 4.3-1.9 2.2-4.5 2.6-6.1 2-.7-.2-1.2-.6-1.5-1.1-.2-.3-.4-.7-.4-1.1.1-.1.1-.2.2-.3h.1c.1 0 .1.1.1.2 0 .9.6 1.6 1.7 2 1.5.5 3.9.2 5.7-1.9 2.2-2.6 4.4-3.8 5.2-4.2-1-.6-4.5-2.3-8-.3-1.6.9-2.9.9-2.9.9h-.1l.1-.2h.1c0-.1.1-.1.1-.2.4 0 1.4-.2 2.5-.8 4.4-2.5 8.7.5 8.7.5 0-.1 0-.1 0 0z"/>
    <path fill="#ffce00" d="M487.3 569.882c0 .1 0 .1-.1.2 0 0-1 .7-1.8 2.3-.6 1.1-1.7 1.6-2.4 1.5-.3 0-.6-.1-.8-.3-.1-.1-.1-.2-.2-.2v-.4l.1.1c.1.3.4.6.8.6.6.1 1.6-.3 2.1-1.3.6-1.2 1.3-1.9 1.7-2.2-.6-.2-2-.4-3.1.7-.6.6-1.1.7-1.2.7v-.4c.2-.1.5-.2.9-.6 1.6-1.5 3.7-.7 3.7-.7.3-.1.3 0 .3 0z"/>
    <path fill="#09d35b" d="M487.2 569.982s-1 .7-1.8 2.3c-.8 1.6-2.8 1.8-3.2.8v-.2c.1-.5.2-1 .3-1.4v-.2c.1 0 .6-.2 1-.6 1.7-1.6 3.7-.7 3.7-.7z"/>
    <circle cx="483" cy="571.482" r=".1" fill="#ffce00"/>
    <circle cx="483.6" cy="571.182" r=".1" fill="#ffce00"/>
    <circle cx="484.1" cy="570.682" r=".1" fill="#ffce00"/>
    <circle cx="484.7" cy="570.282" r=".1" fill="#ffce00"/>
    <circle cx="485.3" cy="570.182" r=".1" fill="#ffce00"/>
    <circle cx="485.8" cy="570.082" r=".1" fill="#ffce00"/>
    <circle cx="486" cy="570.482" r=".1" fill="#ffce00"/>
    <circle cx="485.6" cy="571.082" r=".1" fill="#ffce00"/>
    <circle cx="485.3" cy="571.582" r=".1" fill="#ffce00"/>
    <circle cx="484.9" cy="572.182" r=".1" fill="#ffce00"/>
    <circle cx="484.5" cy="572.682" r=".1" fill="#ffce00"/>
    <circle cx="484" cy="573.082" r=".1" fill="#ffce00"/>
    <circle cx="483.4" cy="573.182" r=".1" fill="#ffce00"/>
    <circle cx="482.8" cy="573.182" r=".1" fill="#ffce00"/>
    <circle cx="486.4" cy="570.082" r=".1" fill="#ffce00"/>
    <path fill="#fffcee" d="M487.3 569.882c0 .1-.1.1 0 0 0 .1-1 .8-1.9 2.4-.5 1.1-1.6 1.5-2.3 1.4-.3 0-.5-.1-.7-.3-.1-.1-.2-.2-.2-.3v-.2c.1.4.4.6.9.7.7.1 1.6-.3 2.2-1.3.7-1.3 1.4-2 1.8-2.3-.5-.1-2.1-.5-3.3.7-.5.5-1 .6-1.1.6v-.2c.2 0 .5-.2.9-.6 1.5-1.4 3.6-.6 3.7-.6-.1 0 0 0 0 0z"/>
    <path fill="#ffce00" d="M478.1 581.782c-.1.5 0 .9 0 1.3l-.4.5-.1.2c-.1-.4-.2-1.1-.1-2.1.4-2.7-1.4-4.6-2.2-5.3-.1.9-.4 2.6-1.5 4.7-.9 1.8-.5 3.5.3 4.4.5.6 1.1.8 1.7.6.1 0 .2 0 .3.1l-.1.1v.1l-.2.3-.1.2c-.7.2-1.5-.1-2.1-.8l-.2-.2c-.8-1.1-1.1-3-.1-4.8 1.5-2.8 1.5-5 1.5-5 0-.1 0-.2.2-.3.1-.1.2-.1.3 0 .1-.1 3.4 2.1 2.8 6z"/>
    <path fill="#09d35b" d="m477.9 583.382-.1.2-.1.2-1.5 2.4-.1.1v.1l-.1.1c-2 .7-3.9-2.5-2.4-5.4 1.5-2.9 1.5-5.1 1.5-5.1s3.3 2.1 2.8 5.9c-.2.6-.1 1.1 0 1.5z"/>
    <circle cx="477.1" cy="583.482" r=".3" fill="#ffce00"/>
    <circle cx="477" cy="582.382" r=".3" fill="#ffce00"/>
    <circle cx="477.1" cy="581.182" r=".3" fill="#ffce00"/>
    <circle cx="477" cy="579.882" r=".3" fill="#ffce00"/>
    <circle cx="476.7" cy="578.882" r=".3" fill="#ffce00"/>
    <circle cx="476.3" cy="577.982" r=".3" fill="#ffce00"/>
    <circle cx="475.4" cy="578.182" r=".3" fill="#ffce00"/>
    <circle cx="475.1" cy="579.282" r=".3" fill="#ffce00"/>
    <circle cx="474.7" cy="580.282" r=".3" fill="#ffce00"/>
    <circle cx="474.1" cy="581.382" r=".3" fill="#ffce00"/>
    <circle cx="473.8" cy="582.482" r=".3" fill="#ffce00"/>
    <circle cx="473.8" cy="583.682" r=".3" fill="#ffce00"/>
    <circle cx="474.2" cy="584.782" r=".3" fill="#ffce00"/>
    <circle cx="474.9" cy="585.682" r=".3" fill="#ffce00"/>
    <circle cx="475.6" cy="577.182" r=".3" fill="#ffce00"/>
    <path fill="#fffcee" d="m478 583.182-.2.4c-.1-.4-.2-1-.1-1.9.4-3.1-1.8-5-2.5-5.6 0 .7-.3 2.6-1.5 4.9-1 1.8-.5 3.6.3 4.6.5.6 1.2.8 1.9.6h.2l-.2.3c-.8.2-1.5 0-2.1-.7-.1-.1-.1-.2-.2-.2-.8-1-1.1-2.9-.1-4.7 1.5-2.8 1.5-5 1.5-5.1 0-.1 0-.1.1-.1h.1s3.4 2.2 2.9 6c-.2.7-.2 1.2-.1 1.5z"/>
    <path fill="#ffce00" d="M474 677.282c1.3-5 1.7-10.4 1.4-15.6-.2-2.6-.6-5.2-1.3-7.7-.4-1.2-.7-2.5-1.3-3.7-.3-.6-.5-1.2-.8-1.8l-.9-1.7c-2.8-4.6-4.8-9.8-6-15-1.3-5.3-1.8-10.7-1.6-16.1.2-5.4 1.4-10.8 3.5-15.7l.9-1.8c.3-.6.5-1.2.9-1.8l1-1.7c.3-.6.7-1.2 1.1-1.7.8-1.1 1.6-2.2 2.4-3.2l1.2-1.6c.4-.5.8-1.1 1.2-1.6 3-4.4 5.2-9.3 6.5-14.5 1.2-5.2 1.6-10.6.5-15.9 1.2 5.2.9 10.7-.2 15.9-1.2 5.2-3.4 10.2-6.3 14.7-.3.6-.7 1.1-1.1 1.7l-1.2 1.6c-.8 1.1-1.6 2.2-2.3 3.2-.4.5-.7 1.1-1.1 1.7l-1 1.7c-.4.6-.6 1.2-.9 1.8l-.8 1.8c-2 4.9-3 10.2-3.2 15.5-.2 5.3.5 10.6 1.8 15.7s3.3 10 6.1 14.6l1 1.8c.3.6.6 1.3.8 1.9.6 1.2.9 2.6 1.4 3.9.7 2.6 1.2 5.3 1.4 8.1.4 5.4 0 10.9-1.2 16.3z"/>
    <circle cx="465.5" cy="614.682" r="2.9" fill="#fa2eb8"/>
    <path fill="#fa2eb8" d="M463.3 612.282c-2.3-.7-4.6-4.5-1.2-5.9 3.4-1.3 3.9-3.4 3.9-3.4s.3 2.1 3.6 3.8c3.3 1.7.6 5.3-1.8 5.7"/>
    <path fill="#fa2eb8" d="M463.1 616.782c-.7 2.3-4.5 4.6-5.9 1.2-1.3-3.4-3.4-3.9-3.4-3.9s2.1-.3 3.8-3.6c1.7-3.3 5.3-.6 5.7 1.8"/>
    <path fill="#fa2eb8" d="M467.7 617.082c2.3.7 4.6 4.5 1.2 5.9-3.4 1.3-3.9 3.4-3.9 3.4s-.3-2.1-3.6-3.8c-3.3-1.7-.6-5.3 1.8-5.7"/>
    <path fill="#fa2eb8" d="M467.9 612.482c.7-2.3 4.5-4.6 5.9-1.2 1.3 3.4 3.4 3.9 3.4 3.9s-2.1.3-3.8 3.6c-1.7 3.3-5.3.6-5.7-1.8"/>
    <circle cx="465.5" cy="614.682" r="2.9" fill="#09d35b"/>
    <circle cx="465.5" cy="614.682" r="2.9" fill="none" stroke="#ffce00" stroke-linecap="round" stroke-linejoin="round" stroke-miterlimit="10" stroke-width="1.782"/>
    <path fill="none" stroke="#ffce00" stroke-linecap="round" stroke-linejoin="round" stroke-miterlimit="10" stroke-width="1.782" d="M463.3 612.282c-2.3-.7-4.6-4.5-1.2-5.9 3.4-1.3 3.9-3.4 3.9-3.4s.3 2.1 3.6 3.8c3.3 1.7.6 5.3-1.8 5.7"/>
    <path fill="none" stroke="#ffce00" stroke-linecap="round" stroke-linejoin="round" stroke-miterlimit="10" stroke-width="1.782" d="M463.1 616.782c-.7 2.3-4.5 4.6-5.9 1.2-1.3-3.4-3.4-3.9-3.4-3.9s2.1-.3 3.8-3.6c1.7-3.3 5.3-.6 5.7 1.8"/>
    <path fill="none" stroke="#ffce00" stroke-linecap="round" stroke-linejoin="round" stroke-miterlimit="10" stroke-width="1.782" d="M467.7 617.082c2.3.7 4.6 4.5 1.2 5.9-3.4 1.3-3.9 3.4-3.9 3.4s-.3-2.1-3.6-3.8c-3.3-1.7-.6-5.3 1.8-5.7"/>
    <path fill="none" stroke="#ffce00" stroke-linecap="round" stroke-linejoin="round" stroke-miterlimit="10" stroke-width="1.782" d="M467.9 612.482c.7-2.3 4.5-4.6 5.9-1.2 1.3 3.4 3.4 3.9 3.4 3.9s-2.1.3-3.8 3.6c-1.7 3.3-5.3.6-5.7-1.8"/>
    <circle cx="515.7" cy="593.482" r="2.9" fill="#fa2eb8"/>
    <path fill="#fa2eb8" d="M520.2 589.382c-.1.1-.1.2-.2.2-.2.3-.5.6-.9.8-.2.2-.5.4-.8.5-.2.1-.3.1-.5.2h-.9l-2.8.1h-1c-.2 0-.3-.1-.5-.2-.3-.1-.5-.2-.8-.4-.4-.3-.8-.6-1.1-1.1-.3-.4-.5-.8-.7-1.2-.1-.3-.1-.6-.1-.9.1-.7.5-1.4 1.6-1.9 3.3-1.6 3.6-3.7 3.6-3.7s.4 2 3.7 3.4c.1.4.2.8.3 1.1l.3 1.2c0 .2.1.5.2.7v.2c.1.3.1.7.2 1 .3.1.3 0 .4 0z"/>
    <path fill="#fa2eb8" d="M513.5 595.882c-.5 2.3-4.1 4.9-5.7 1.6-1.6-3.3-3.8-3.6-3.8-3.6s2.1-.5 3.5-3.8c1.4-3.4 5.2-1 5.8 1.3z"/>
    <path fill="#fa2eb8" d="M520.5 597.482c0 .3-.1.6-.2.9 0 .1 0 .2-.1.3 0 .1 0 .1-.1.2.1.1.1.3.1.4v.1c-.1 0-.2-.1-.2-.1-.1.4-.3.8-.4 1.3-.2.5-.4.9-.6 1.3-2.7 1.5-3 3.4-3 3.4s-.5-2.1-3.8-3.5c-1.1-.4-1.6-1.1-1.7-1.8 0-.3 0-.6.1-.9.1-.4.3-.9.6-1.3s.6-.8 1.1-1.1c.2-.2.5-.3.7-.5.2-.1.3-.1.5-.2h.9l2.8-.1h.9c.2 0 .3.1.5.2.3.1.5.2.8.4.3.1.7.5 1.1 1 0-.1 0-.1 0 0z"/>
    <path fill="#fa2eb8" d="M520.6 596.182c0 .4-.1.8-.1 1.2 0 .3-.1.6-.2.9-.2-.1-.3-.2-.5-.3-.4-.3-.8-.6-1.1-1-.2-.2-.4-.5-.5-.8-.1-.2-.1-.3-.2-.5v-.9l-.1-2.8v-1c0-.2.1-.3.2-.5.1-.3.2-.5.4-.8.3-.4.7-.8 1.1-1.2.1-.1.2-.1.2-.2.1.3.1.7.2 1 .1-.1.1-.1.2-.1-.1.1-.1.2-.2.2.1.4.1.8.2 1.1.4 2.3.5 4.2.4 5.7z"/>
    <circle cx="515.7" cy="593.482" r="2.9" fill="#09d35b"/>
    <path fill="#ffce00" d="M518.9 591.682c0-.1-.1-.2-.2-.3-.1-.2-.2-.3-.4-.5l-.3-.3c-.2-.1-.3-.2-.5-.3-.1-.1-.2-.1-.3-.2-.5-.3-1.1-.4-1.8-.4-.6 0-1.2.2-1.7.5-.1.1-.2.1-.3.2-.2.1-.3.2-.4.4-.1 0-.1.1-.2.2s-.1.1-.1.2c-.1.2-.2.3-.3.5-.1.1-.1.2-.2.3-.3.5-.4 1.1-.4 1.8 0 .6.2 1.2.5 1.7 0 .1.1.2.2.3.1.2.2.3.4.4 0 .1.1.1.2.2l.2.2c.2.1.3.2.5.3.1.1.2.1.3.2.5.3 1.1.4 1.8.4h.2c.5 0 1.1-.2 1.5-.5.1 0 .2-.1.3-.2.2-.1.3-.2.4-.4.1 0 .1-.1.2-.2s.1-.1.1-.2c.1-.1.2-.3.3-.5.1-.1.1-.2.2-.3.3-.5.4-1.1.4-1.8-.1-.6-.3-1.2-.6-1.7zm-5.2 1.9c0-.5.2-1 .5-1.4.3-.4.8-.6 1.3-.6h.1c1.1 0 1.9.8 2 1.8v.1c0 .5-.2 1-.5 1.4-.4.4-.9.6-1.4.6-.5 0-1-.2-1.4-.5-.4-.4-.6-.9-.6-1.4z"/>
    <path fill="#ffce00" d="M519.3 586.382c-.1-.1-.3-.2-.5-.3-1.7-.7-2.8-1.6-3.4-2.4-.6.8-1.6 1.8-3.3 2.6-1 .5-1.1 1.1-1.1 1.4v.1c0 .4.2.8.5 1.1.3.4.7.8 1.1 1 .3.2.6.3.9.4.2.1.4.2.5.4.1.1.1.2.1.3v.4c0 .1-.1.2-.1.3l-.2.2c-.2.1-.3.2-.6.2h-.2c-.1 0-.2 0-.3-.1-.2 0-.3-.1-.5-.2-1.1-.5-2.2-1.5-2.7-2.6l-.3-.9c0-.1 0-.2-.1-.3v-.6c.1-1.1.8-2.1 2-2.7 2.8-1.3 3.1-3 3.1-3.1.1-.4.4-.7.9-.7.4 0 .8.3.9.7 0 0 .4 1.4 2.5 2.5.1.4.2.8.3 1.1.3.4.4.8.5 1.2z"/>
    <path fill="#ffce00" d="M520 589.582c.1.4.1.8.2 1.1-.4.4-.8.7-1.3.9-.2.1-.3.2-.5.2-.1 0-.2.1-.3.1h-.5c-.1 0-.1 0-.1-.1 0 0-.1 0-.1-.1-.1 0-.1-.1-.2-.1-.1-.1-.1-.2-.2-.3v-.5c0-.1.1-.2.1-.3.1-.2.3-.3.5-.4.3-.1.6-.2.8-.4.4-.3.8-.7 1.1-1.2.1-.1.2-.3.2-.4v.2c.2.6.2.9.3 1.3 0-.1.1-.2.2-.2-.1.1-.1.2-.2.2z"/>
    <path fill="#ffce00" d="M510.1 599.982c-1.4.1-2.5-.6-3.2-2.1-1.4-2.8-3-3.1-3.1-3.1-.4-.1-.7-.4-.8-.9 0-.4.3-.8.7-.9.1 0 1.7-.5 2.9-3.3.6-1.5 1.8-2.3 3.2-2.2 1.8.1 3.8 1.8 4.3 3.6.1.5-.1 1-.6 1.1-.5.1-1-.1-1.1-.6-.3-1.1-1.6-2.3-2.7-2.3-.2 0-1-.1-1.5 1.1-.7 1.7-1.6 2.8-2.4 3.4.8.6 1.8 1.6 2.6 3.3.6 1.2 1.3 1.1 1.5 1 1.1-.1 2.3-1.4 2.6-2.5.1-.5.6-.8 1.1-.7.5.1.8.6.7 1.1-.4 1.9-2.3 3.7-4.1 3.9z"/>
    <path fill="#ffce00" d="M519.3 600.682c.1-.1.3-.1.4-.2-.2.5-.4.9-.6 1.3l-.9 1.8c-1 .9-1.2 1.8-1.2 1.8 0 .3-.2.5-.4.6-.1.1-.2.1-.4.1h-.1c-.4 0-.8-.3-.9-.7 0-.1-.5-1.7-3.3-2.9-1.3-.5-2.1-1.5-2.2-2.6v-.9c0-.3.1-.6.2-.9.4-1.2 1.4-2.2 2.5-2.8l.6-.3c.1 0 .2-.1.3-.1h.2c.2 0 .4 0 .5.1.1 0 .1.1.2.1.1.1.1.2.2.3l.1.1v.4c0 .1-.1.2-.1.3-.1.2-.3.3-.5.4-.3.1-.6.2-.8.4-.4.3-.8.7-1.1 1.1-.2.4-.4.8-.4 1.2v.1c0 .3.1.9 1.1 1.3 1.7.7 2.8 1.6 3.4 2.4.5-.6 1.5-1.6 3.2-2.4z"/>
    <path fill="#ffce00" d="M520.6 596.182c0 .4-.1.8-.1 1.2 0 .3-.1.6-.2.9 0 .1 0 .2-.1.3 0 .1 0 .1-.1.2-.1-.3-.2-.5-.4-.8-.3-.4-.7-.8-1.1-1-.3-.2-.6-.3-.9-.4-.2-.1-.4-.2-.5-.4 0-.1-.1-.2-.1-.3v-.5c0-.1 0-.1.1-.1 0 0 0-.1.1-.1 0-.1.1-.1.1-.2.1-.1.2-.1.3-.2h.5c.1 0 .2 0 .3.1.2.1.4.1.6.2.5.3 1.1.7 1.5 1.1z"/>
    <path fill="#ffce00" d="M520 589.482c-.3.3-.6.6-.8.9-.2.3-.3.6-.4.9-.1.2-.2.4-.4.5-.1.1-.2.1-.3.1h-.5c-.1 0-.1 0-.1-.1 0 0-.1 0-.1-.1-.1 0-.1-.1-.2-.1-.1-.1-.1-.2-.2-.3v-.5c0-.1 0-.2.1-.3.1-.2.1-.4.2-.6.5-1 1.3-2 2.3-2.5 0 .2.1.5.2.7v.2c.1.6.1.9.2 1.2z"/>
    <path fill="#ffce00" d="M520.5 597.382c0 .1 0 .1 0 0 0 .4-.1.6-.2.9 0 .1 0 .2-.1.3 0 .1 0 .1-.1.2.1.1.1.3.1.4v.1c-.1 0-.2-.1-.2-.1-1.1-.5-2-1.4-2.6-2.4l-.3-.6c0-.1-.1-.2-.1-.3v-.5c0-.1 0-.1.1-.1 0 0 0-.1.1-.1 0-.1.1-.1.1-.2.1-.1.2-.1.3-.2h.5c.1 0 .2.1.3.1.2.1.3.3.4.5.1.3.2.6.4.8.4.5.8.9 1.3 1.2z"/>
    <path fill="none" stroke="#080808" stroke-linecap="round" stroke-linejoin="round" stroke-miterlimit="10" stroke-width="5" d="M487.6 696.682c-.5.5-1.1 1-1.8 1.5-5.6 3.9-10.5 0-14.1-5.9-1-1.6-1.6-3.2-1.9-4.7-.8-4 .8-7.5 3.9-9.3.4-.2.8-.5 1.3-.6 4-1.6 8.9.1 12.1 5.4 3.1 5 4.2 9.8.5 13.6z"/>
    <path fill="#080808" d="M476.1 586.182v-.1z"/>
    <path fill="none" stroke="#080808" stroke-linecap="round" stroke-linejoin="round" stroke-miterlimit="10" stroke-width="7" d="M493.3 625.082s23.7-5 29.1-19.9c4-10.8-9.5-54.2-29.1-59.7"/>
    <path fill="none" stroke="#080808" stroke-linecap="round" stroke-linejoin="round" stroke-miterlimit="10" stroke-width="7" d="M457.1 650.582c11.7 17.2 11.4 32.3 12.8 37 2.5 9.5 9.8 12.1 9.8 12.1 6.9 2.5 18.7 4.4 26.8 2.5 15.8-3.9-1.1-23.3-11.5-47.1-10.5-23.8-.1-21.7 6.3-62.5 3.4-21.6 1-32.3-2-40.4-2-5.3-8.1-9.3-13.7-8.3-29.1 5.4-42.6 56.1-35.9 88 1 5.3 4.1 14.2 7.4 18.7"/>
  </g>
</svg>