<svg xmlns="http://www.w3.org/2000/svg" id="Layer_1" x="0" y="0" version="1.1" viewBox="0 0 1000 1000">
  <g id="RightArm_1_">
    <path id="RightArm--bg" d="M436.6 504c-4.5 5.1-10.5 7.9-17 7.9-9.1 0-18.5-5.5-24.4-14.4-7.8-11.6-15.5-21.2-22.3-27.9l-4.8-4.7c-2-2-1.1-5.3 1.6-6.1l6.5-1.7c3.2-.9 6.4-2.7 9.1-5.5 3-3 4.8-6.7 5.2-10.4V430c0-1.3 1.5-2.1 2.5-1.3l9.3 6.9c.7.5 1.7 1.1 2.9 1.7 10.2 4.9 31.7 27.4 35.7 46.7 2.1 10.1-1.2 16.5-4.3 20z"/>
    <path id="RightArm" fill="#fc0" d="M402.1 444.1c-1.5-.7-2.9-1.5-4.2-2.4-.5 5.5-3 11-7.3 15.3-3.7 3.7-8.1 6.2-12.5 7.4 8.7 8.6 17 19.8 23.2 29.1 4.5 6.7 11.6 11.1 18.3 11.1 4.1 0 8.1-1.6 11.4-5.4 13-14.8-17.3-49.6-28.9-55.1z" class="st0"/>
  </g>
  <g id="Tail--group">
    <path id="Tail--bg" d="M599.1 649.5c-9 25.7-26.4 50-50.3 70.3-23.8 20.3-51.8 34.7-81 41.6-6.9 1.6-14.1 2.5-21.5 2.5-30.8 0-58.9-13.9-74.8-27-13.6-11.1-21.2-23.3-20.9-33.5.4-12 6.7-20.7 16.8-23.3 2.1-.5 4.3-.8 6.7-.8 11.2 0 27.2 6.7 38.5 25.7 7.8 13.2 22 20.1 41.1 20.1h1.2c40.7-.8 87.6-31.2 109.1-70.8 7.7-14.1 13.2-29.6 17.1-40.8 1.9-5.4 3.6-10.1 5.1-13.5 1.3-3.1 4.1-9.4 10.4-9.4 4.1 0 7.6 1.8 9.9 5 5.5 7.6 3.3 23.3-7.4 53.9z"/>
    <path id="Tail_2_" fill="#f80" d="M570.5 657.8c-22.7 41.7-72.5 73.9-115.5 74.7h-1.4c-21.6 0-38.3-8.4-47.4-23.8-9-15.1-22-22.1-32.1-22.1-1.7 0-3.3.2-4.8.6-7 1.8-11 7.6-11.3 16.4-.3 7.7 6.6 18 18.2 27.5 16.8 13.7 43.2 25.3 70.1 25.3 6.6 0 13.3-.7 19.8-2.3 57.2-13.5 108.5-57.4 126-107.1 5.4-15.3 16.7-49.2 4.5-49.2-4.5.1-10.8 31.8-26.1 60z" class="st1"/>
  </g>
  <g id="Body--group">
    <path id="Body--bg" d="M649.7 531.9c-2 24-6.7 45.1-13.9 62.9-8.5 20.9-20.3 36.6-35.1 46.8-34 23.4-64.8 26-76.4 26-1.3 0-2.5 0-3.8-.1-18.4-.8-26-4.4-32.7-7.5-5.9-2.8-11-5.2-24.9-5.7-37.5-1.5-67-9.9-83.1-23.6-.2-.1-.5-.4-.9-.7-4.8-3.5-19.3-14.3-25-24.7-5.3-9.7-6.2-22.3-2.3-31.4 13.4-31.2 24.5-40.5 33.5-48 3.6-3 6.4-5.3 8.8-8.7 2.2-3.1 3.8-7.1 4.9-12.2 0-.1 0-.2.1-.3 3.9-15 3.4-34.9 2.8-56-.2-5.7-.3-11.7-.4-17.5v-.1c0-18.6 9.6-40.7 25.7-59.2 18.1-20.8 41.6-33.6 66.1-36.2 20.2-2.1 34.3-3.1 45.9-3.1 43.7 0 58.6 14.8 82.2 48.4 7.5 10.6 12.1 22.5 16 33.7 11.1 30.4 15.9 76.5 12.5 117.2z"/>
    <path id="Body_1_" fill="#fc0" d="M358.5 576.7c-3 7-2.2 17.4 2 25 5.6 10.3 23 22.2 24.1 23.2 15.1 12.9 43.7 20.5 78.7 21.9 31.2 1.3 24.3 11.8 57.6 13.3 1.1 0 2.2.1 3.5.1 16.7 0 43.7-5 72.2-24.7 58-39.9 52.9-165.3 34-218.6-3.9-11.1-8.3-22.2-15.1-31.9-23.5-33.5-36.6-45.2-76.2-45.2-12.2 0-26.9 1.1-45.1 3.1-49.9 5.3-85.3 55.3-85.3 88.1.3 27.4 2.5 55.1-2.7 75.5-1.4 6.5-3.4 11.2-6 14.9-9.8 13.5-23.4 12.4-41.7 55.3z" class="st0"/>
  </g>
  <g id="RightHand--group">
    <path id="RightHand--bg" d="M390.6 457c-5.2 5.1-11.7 8.1-17.8 8.1-8.1 0-14-5.1-15.6-13.3-1-5.4.9-11.3 5.4-16.7 5.8-6.9 14.9-12 21.7-12.1h.2c1.3 0 2.6.2 3.8.6h.2l.1.1c4.5 1.8 7.9 6.2 9.1 11.8 1.4 7.5-1.2 15.5-7.1 21.5z"/>
    <path id="RightHand" fill="#fc0" d="M385.4 451.7c4.2-4.2 6-9.6 5-14.7-.6-3.1-2.3-5.5-4.6-6.4-.4-.1-.9-.2-1.3-.2h-.1c-4 0-11.3 3.6-16.1 9.4-1.8 2.1-4.6 6.3-3.8 10.6 1.1 6 5.1 7.3 8.3 7.3 4.1 0 8.8-2.2 12.6-6z" class="st0"/>
  </g>
  <g id="RightFootGroup">
    <path id="RightFoot--bg" d="M384.3 648c-2.4 3.7-6.4 5.7-11.5 5.7-1.9 0-4-.3-6.2-.8-25-6-59.3-43.6-63.6-64.5-1.9-9.4-.2-18 5-24.4 4.6-5.7 11.4-8.8 18.9-8.8 6.8 0 13.6 2.5 19.8 7.3 12.2 9.4 32.9 50.5 37.3 60.7 2.5 5.8 4.9 17.7.3 24.8z"/>
    <path id="RightFoot_1_" fill="#fc0" d="M310.1 586.8c3.8 18.2 36.2 53.6 58.1 58.8 1.7.4 3.2.6 4.5.6 3.4 0 4.7-1.3 5.4-2.3 2.3-3.5 1.5-12.1-1-17.9-6.1-13.9-25.3-50.3-35.1-57.8-4.9-3.8-10.2-5.8-15.3-5.8-5.3 0-10 2.2-13.2 6.1-3.6 4.7-4.8 11.2-3.4 18.3z" class="st0"/>
    <g id="g135" transform="translate(2.543 -53.164)">
      <path fill="#3b3637" d="M327.3 698.9c15 8.9 20.3 20.5 23 23.5 5.3 6.3 11.8 5.7 11.8 5.7 6.2-.6 15.8-3.3 21.3-7.7 10.6-8.6-9.2-17.3-25.6-31.6-16.5-14.3-7.8-16.4-17.6-49.8-5.2-17.6-10.8-25-16-30-3.4-3.3-9.5-4.2-13.4-1.4-20.2 14.5-12.3 57.8 4.2 79.8 2.7 3.6 8.3 9.3 12.3 11.5" class="st0"/>
      <path fill="#3b3637" d="M345.7 666s16.2-12.3 15-25.5c-.9-9.7-26.6-37.8-43.5-35" class="st0"/>
      <path fill="#231f20" d="M366.9 722.6c-.2.6-.5 1.1-.8 1.7-2.9 5-8 3.7-12.8.5-1.3-.9-2.3-1.9-3.1-2.9-2-2.8-2.1-6-.4-8.5.2-.3.5-.6.7-.9 2.5-2.7 6.8-3.1 11.1-.2 4.2 2.8 6.8 6 5.3 10.3z" class="st1"/>
      <path fill="#141112" d="M356.2 693.6s21.2 16.5 23.2 19.8c2.1 3.3-6.5 7.8-12.3 2.3-5.8-5.6-4.2-12.8-10.9-22.1z" class="st2"/>
      <path fill="none" stroke="#080808" stroke-linecap="round" stroke-linejoin="round" stroke-miterlimit="10" stroke-width="2.532" d="M355.3 694s22 16.1 24.1 19.4c2.1 3.3-6.5 7.8-12.3 2.3-5.8-5.6-5.1-12.4-11.8-21.7z" class="st3"/>
      <path fill="#080808" d="M360 646.8c0 .2 0 .4-.2.6.1-.2.2-.4.2-.6z" class="st4"/>
      <path fill="#080808" d="M357.9 633.3c0 .1 0 .2-.1.2v-.1s0-.1.1-.1z" class="st4"/>
      <path fill="#080808" d="M360.9 640.9c0 .1-.1.1-.2.1v-.4c.1.1.1.2.2.3z" class="st4"/>
      <path fill="none" stroke="#080808" stroke-linecap="round" stroke-linejoin="round" stroke-miterlimit="10" stroke-width="2.532" d="M310.7 607.1s12.2 4.1 19.7 24.5c12.5 34 3 43.9 25 62.4" class="st3"/>
      <path fill="none" stroke="#080808" stroke-linecap="round" stroke-linejoin="round" stroke-miterlimit="10" stroke-width="2.469" d="M379 722.6s4.6-4.8.1-9.7" class="st5"/>
      <g id="g11">
        <path fill="#080808" d="M352.3 709.3v-1.5c0-.6-.1-1.1-.2-1.7-.1-1.2-.3-2.3-.6-3.5-.5-2.3-1.2-4.7-2-6.9-.8-2.3-1.7-4.5-2.7-6.8l-1.6-3.3-1.7-3.3c-.2-.5-.1-1 .4-1.3.4-.2 1-.1 1.2.3l2 3.2 1.9 3.3c1.2 2.2 2.4 4.4 3.4 6.8 1 2.3 2 4.7 2.7 7.2.4 1.2.7 2.5 1 3.8.1.6.3 1.3.4 2l.1 1c0 .4.1.7.1 1.2v.1c0 1.3-1 2.3-2.3 2.3-1.3 0-2.3-1-2.3-2.3.1-.4.2-.5.2-.6z" class="st4"/>
      </g>
      <g id="g31">
        <g id="g12">
          <path fill="#ffce00" d="M339.4 690.8c-.5.2-1 .3-1.5.2-.2 0-.4-.2-.4-.5 0-.2.2-.4.5-.4.9.1 1.7-.4 2.2-1.3.8-1.5.8-4-1-6.1-2.2-2.5-3.1-4.8-3.5-6-.9 1.2-2.8 4.3-1.4 8 .7 1.9.5 3.3.4 3.4 0 .2-.3.4-.5.3-.2 0-.4-.3-.3-.5 0 0 .2-1.2-.4-2.9-1.9-5.2 1.9-9.3 2.1-9.4.1-.1.3-.2.4-.1.1 0 .3.2.3.3 0 0 .6 3 3.6 6.4 2.1 2.4 2 5.4 1.1 7.1-.4.7-1 1.2-1.6 1.5z" class="st6"/>
        </g>
        <g id="g13">
          <path fill="#09d35b" d="M334.3 688s.3-1.3-.4-3.2c-1.9-5 2-9 2-9s.6 3.1 3.7 6.6c3.1 3.5 1.4 8.5-1.6 8.2" class="st7"/>
        </g>
        <g id="g29">
          <g id="g14">
            <circle id="circle13" cx="335.4" cy="687.1" r=".4" fill="#ffce00" class="st6"/>
          </g>
          <g id="g15">
            <circle id="circle14" cx="335.2" cy="685.5" r=".4" fill="#ffce00" class="st6"/>
          </g>
          <g id="g16">
            <circle id="circle15" cx="334.6" cy="683.9" r=".4" fill="#ffce00" class="st6"/>
          </g>
          <g id="g17">
            <circle id="circle16" cx="334.4" cy="682.1" r=".4" fill="#ffce00" class="st6"/>
          </g>
          <g id="g18">
            <circle id="circle17" cx="334.5" cy="680.5" r=".4" fill="#ffce00" class="st6"/>
          </g>
          <g id="g19">
            <circle id="circle18" cx="334.9" cy="679.2" r=".4" fill="#ffce00" class="st6"/>
          </g>
          <g id="g20">
            <circle id="circle19" cx="336.1" cy="679.2" r=".4" fill="#ffce00" class="st6"/>
          </g>
          <g id="g21">
            <circle id="circle20" cx="336.9" cy="680.6" r=".4" fill="#ffce00" class="st6"/>
          </g>
          <g id="g22">
            <circle id="circle21" cx="337.7" cy="681.9" r=".4" fill="#ffce00" class="st6"/>
          </g>
          <g id="g23">
            <circle id="circle22" cx="338.9" cy="683.2" r=".4" fill="#ffce00" class="st6"/>
          </g>
          <g id="g24">
            <circle id="circle23" cx="339.6" cy="684.7" r=".4" fill="#ffce00" class="st6"/>
          </g>
          <g id="g25">
            <circle id="circle24" cx="340.1" cy="686.3" r=".4" fill="#ffce00" class="st6"/>
          </g>
          <g id="g26">
            <circle id="circle25" cx="339.9" cy="688" r=".4" fill="#ffce00" class="st6"/>
          </g>
          <g id="g27">
            <circle id="circle26" cx="339.1" cy="689.3" r=".4" fill="#ffce00" class="st6"/>
          </g>
          <g id="g28">
            <circle id="circle27" cx="335.5" cy="677.9" r=".4" fill="#ffce00" class="st6"/>
          </g>
        </g>
        <g id="g30">
          <path fill="#fffcee" d="M339.3 690.6c-.4.2-.9.3-1.4.2-.1 0-.2-.1-.2-.2s.1-.2.2-.2c1 .1 1.9-.4 2.4-1.4.8-1.5.8-4.2-1-6.4-2.4-2.8-3.3-5.4-3.6-6.3-.8 1-3.2 4.4-1.7 8.5.7 1.9.4 3.2.4 3.3 0 .1-.1.2-.2.2s-.2-.1-.2-.2c0 0 .2-1.3-.4-3-1.9-5.1 2-9.2 2.1-9.2.1-.1.1-.1.2-.1s.1.1.1.2c0 0 .7 3.1 3.6 6.5 2 2.4 2 5.2 1.1 6.8-.3.5-.8 1-1.4 1.3z" class="st8"/>
        </g>
      </g>
      <g id="g51">
        <g id="g32">
          <path fill="#ffce00" d="M328.9 687.8c-1.5.7-3.8.7-5.8-.9-3-2.4-5.6-2.8-5.6-2.8-.1 0-.2-.1-.3-.2 0-.1 0-.3.1-.4.1-.1 3.4-3.6 8-2.1 1.5.5 2.5.2 2.5.2.2 0 .4.1.4.3 0 .2-.1.4-.3.4 0 0-1.2.3-2.9-.3-3.1-1-5.7.7-6.7 1.5 1 .3 3 1 5.2 2.8 1.9 1.5 4 1.4 5.3.6.8-.5 1.2-1.2 1-1.9 0-.2.1-.4.3-.4.2 0 .4.1.4.3.2 1.1-.3 2-1.4 2.7 0 .1-.1.2-.2.2z" class="st6"/>
        </g>
        <g id="g33">
          <path fill="#09d35b" d="M327.9 682s-1.1.3-2.7-.2c-4.4-1.4-7.6 2-7.6 2s2.6.4 5.8 2.9c3.1 2.5 7.3.9 6.9-1.6" class="st7"/>
        </g>
        <g id="g49">
          <g id="g34">
            <circle id="circle33" cx="327.2" cy="683" r=".3" fill="#ffce00" class="st6"/>
          </g>
          <g id="g35">
            <circle id="circle34" cx="325.8" cy="682.9" r=".3" fill="#ffce00" class="st6"/>
          </g>
          <g id="g36">
            <circle id="circle35" cx="324.4" cy="682.5" r=".3" fill="#ffce00" class="st6"/>
          </g>
          <g id="g37">
            <circle id="circle36" cx="322.9" cy="682.3" r=".3" fill="#ffce00" class="st6"/>
          </g>
          <g id="g38">
            <circle id="circle37" cx="321.6" cy="682.5" r=".3" fill="#ffce00" class="st6"/>
          </g>
          <g id="g39">
            <circle id="circle38" cx="320.4" cy="682.8" r=".3" fill="#ffce00" class="st6"/>
          </g>
          <g id="g40">
            <circle id="circle39" cx="320.5" cy="683.9" r=".3" fill="#ffce00" class="st6"/>
          </g>
          <g id="g41">
            <circle id="circle40" cx="321.7" cy="684.5" r=".3" fill="#ffce00" class="st6"/>
          </g>
          <g id="g42">
            <circle id="circle41" cx="322.8" cy="685.2" r=".3" fill="#ffce00" class="st6"/>
          </g>
          <g id="g43">
            <circle id="circle42" cx="324" cy="686.1" r=".3" fill="#ffce00" class="st6"/>
          </g>
          <g id="g44">
            <circle id="circle43" cx="325.3" cy="686.7" r=".3" fill="#ffce00" class="st6"/>
          </g>
          <g id="g45">
            <circle id="circle44" cx="326.7" cy="687" r=".3" fill="#ffce00" class="st6"/>
          </g>
          <g id="g46">
            <circle id="circle45" cx="328.1" cy="686.8" r=".3" fill="#ffce00" class="st6"/>
          </g>
          <g id="g47">
            <circle id="circle46" cx="329.2" cy="686.1" r=".3" fill="#ffce00" class="st6"/>
          </g>
          <g id="g48">
            <circle id="circle47" cx="319.3" cy="683.4" r=".3" fill="#ffce00" class="st6"/>
          </g>
        </g>
        <g id="g50">
          <path fill="#fffcee" d="M328.9 687.7c-1.4.7-3.6.7-5.6-.8-3.1-2.4-5.7-2.8-5.7-2.8-.1 0-.1-.1-.1-.1v-.2s3.4-3.5 7.8-2.1c1.5.5 2.6.2 2.6.2.1 0 .2 0 .2.1s0 .2-.1.2c0 0-1.2.3-2.8-.3-3.5-1.1-6.4 1-7.2 1.8.8.2 3 .9 5.5 2.8 1.9 1.5 4.2 1.4 5.5.7.9-.5 1.3-1.3 1.1-2.1 0-.1 0-.2.1-.2s.2.1.2.1c.2 1-.3 1.9-1.3 2.5 0 .1-.1.1-.2.2z" class="st8"/>
        </g>
      </g>
      <g id="g71">
        <g id="g52">
          <path fill="#ffce00" d="M326 646.5c0 .1 0 .2-.1.3 0 0-1.7 1.7-2.6 5.1-.7 2.4-2.6 3.7-4.1 3.8-.6.1-1.2 0-1.6-.3-.3-.1-.5-.3-.6-.6v-.8h.1c.1 0 .2.1.3.2.3.6 1 .9 1.8.8 1.3-.1 2.9-1.2 3.5-3.3.7-2.5 1.7-4.1 2.3-4.9-1.2-.1-4 .1-5.8 2.6-.9 1.3-1.9 1.8-2 1.8h-.1v-.4h.1v-.4c.3-.2.9-.6 1.5-1.4 2.5-3.5 6.8-2.8 7-2.8.2.1.3.1.3.3z" class="st6"/>
        </g>
        <g id="g53">
          <path fill="#09d35b" d="M325.7 646.6s-1.7 1.7-2.6 5.2c-.9 3.5-4.9 4.6-5.9 2.6v-3.6h.1c.2-.1 1-.6 1.8-1.6 2.3-3.4 6.6-2.6 6.6-2.6z" class="st7"/>
        </g>
        <g id="g69">
          <g id="g54">
            <circle id="circle53" cx="318.3" cy="651.2" r=".3" fill="#ffce00" class="st6"/>
          </g>
          <g id="g55">
            <circle id="circle54" cx="319.2" cy="650.4" r=".3" fill="#ffce00" class="st6"/>
          </g>
          <g id="g56">
            <circle id="circle55" cx="320" cy="649.3" r=".3" fill="#ffce00" class="st6"/>
          </g>
          <g id="g57">
            <circle id="circle56" cx="321" cy="648.3" r=".3" fill="#ffce00" class="st6"/>
          </g>
          <g id="g58">
            <circle id="circle57" cx="322.1" cy="647.7" r=".3" fill="#ffce00" class="st6"/>
          </g>
          <g id="g59">
            <circle id="circle58" cx="323.1" cy="647.4" r=".3" fill="#ffce00" class="st6"/>
          </g>
          <g id="g60">
            <circle id="circle59" cx="323.7" cy="648.2" r=".3" fill="#ffce00" class="st6"/>
          </g>
          <g id="g61">
            <circle id="circle60" cx="323.1" cy="649.3" r=".3" fill="#ffce00" class="st6"/>
          </g>
          <g id="g62">
            <circle id="circle61" cx="322.6" cy="650.4" r=".3" fill="#ffce00" class="st6"/>
          </g>
          <g id="g63">
            <circle id="circle62" cx="322.3" cy="651.7" r=".3" fill="#ffce00" class="st6"/>
          </g>
          <g id="g64">
            <circle id="circle63" cx="321.7" cy="652.9" r=".3" fill="#ffce00" class="st6"/>
          </g>
          <g id="g65">
            <circle id="circle64" cx="320.8" cy="653.9" r=".3" fill="#ffce00" class="st6"/>
          </g>
          <g id="g66">
            <circle id="circle65" cx="319.7" cy="654.5" r=".3" fill="#ffce00" class="st6"/>
          </g>
          <g id="g67">
            <circle id="circle66" cx="318.4" cy="654.6" r=".3" fill="#ffce00" class="st6"/>
          </g>
          <g id="g68">
            <circle id="circle67" cx="324.2" cy="647.2" r=".3" fill="#ffce00" class="st6"/>
          </g>
        </g>
        <g id="g70">
          <path fill="#fffcee" d="M325.8 646.5v.2s-1.7 1.8-2.6 5.2c-.6 2.3-2.5 3.6-3.9 3.7-.6.1-1.1 0-1.5-.3-.3-.2-.5-.4-.7-.7v-.3h.1c.1 0 .1 0 .1.1.4.7 1.1 1 2 .9 1.3-.1 3.1-1.3 3.6-3.5.8-2.8 2-4.5 2.5-5.1-1-.1-4.2-.1-6.2 2.6-.9 1.3-1.9 1.7-1.9 1.7v-.2h.1v-.2c.3-.2 1-.6 1.6-1.5 2.5-3.5 6.8-2.7 6.8-2.7v.1z" class="st8"/>
        </g>
      </g>
      <g id="g91">
        <g id="g72">
          <path fill="#ffce00" d="M321.4 626.3v.1s-.5.9-.5 2.4c0 1.1-.7 1.8-1.3 2-.3.1-.5.1-.7 0-.1 0-.2-.1-.2-.1v-.4h.1c.2.2.5.3.8.2.5-.2 1.1-.8 1.1-1.7 0-1.1.3-1.9.5-2.3-.5.1-1.6.4-2.1 1.6-.2.6-.6.9-.6.9v-.4c.1-.1.3-.4.5-.7.7-1.7 2.5-1.8 2.6-1.8-.3.1-.2.1-.2.2z" class="st6"/>
        </g>
        <g id="g73">
          <path fill="#09d35b" d="M321.3 626.3s-.5.9-.6 2.4c0 1.5-1.5 2.3-2.1 1.7v-.2c-.1-.4-.2-.9-.3-1.2v-.2c.1-.1.4-.3.6-.8.5-1.6 2.4-1.7 2.4-1.7z" class="st7"/>
        </g>
        <g id="g89">
          <g id="g74">
            <circle id="circle73" cx="318.7" cy="629" r=".1" fill="#ffce00" class="st6"/>
          </g>
          <g id="g75">
            <circle id="circle74" cx="318.9" cy="628.6" r=".1" fill="#ffce00" class="st6"/>
          </g>
          <g id="g76">
            <circle id="circle75" cx="319.2" cy="628" r=".1" fill="#ffce00" class="st6"/>
          </g>
          <g id="g77">
            <circle id="circle76" cx="319.5" cy="627.5" r=".1" fill="#ffce00" class="st6"/>
          </g>
          <g id="g78">
            <circle id="circle77" cx="319.9" cy="627.2" r=".1" fill="#ffce00" class="st6"/>
          </g>
          <g id="g79">
            <circle id="circle78" cx="320.3" cy="626.9" r=".1" fill="#ffce00" class="st6"/>
          </g>
          <g id="g80">
            <circle id="circle79" cx="320.6" cy="627.2" r=".1" fill="#ffce00" class="st6"/>
          </g>
          <g id="g81">
            <circle id="circle80" cx="320.5" cy="627.7" r=".1" fill="#ffce00" class="st6"/>
          </g>
          <g id="g82">
            <circle id="circle81" cx="320.4" cy="628.2" r=".1" fill="#ffce00" class="st6"/>
          </g>
          <g id="g83">
            <circle id="circle82" cx="320.4" cy="628.8" r=".1" fill="#ffce00" class="st6"/>
          </g>
          <g id="g84">
            <circle id="circle83" cx="320.2" cy="629.3" r=".1" fill="#ffce00" class="st6"/>
          </g>
          <g id="g85">
            <circle id="circle84" cx="320" cy="629.8" r=".1" fill="#ffce00" class="st6"/>
          </g>
          <g id="g86">
            <circle id="circle85" cx="319.5" cy="630.2" r=".1" fill="#ffce00" class="st6"/>
          </g>
          <g id="g87">
            <circle id="circle86" cx="319" cy="630.4" r=".1" fill="#ffce00" class="st6"/>
          </g>
          <g id="g88">
            <circle id="circle87" cx="320.7" cy="626.8" r=".1" fill="#ffce00" class="st6"/>
          </g>
        </g>
        <g id="g90">
          <path fill="#fffcee" d="M321.3 626.3s0 .1 0 0c0 .1-.5 1-.6 2.5 0 1-.7 1.7-1.3 1.9-.2.1-.5.1-.7 0-.1 0-.2-.1-.3-.1v-.2c.2.3.5.3.9.2.5-.2 1.1-.8 1.2-1.8 0-1.2.4-2 .5-2.3-.4.1-1.8.4-2.3 1.7-.2.5-.5.8-.6.9v-.2c.1-.1.3-.4.5-.8.8-1.7 2.6-1.8 2.7-1.8z" class="st8"/>
        </g>
      </g>
      <g id="g111">
        <g id="g92">
          <path fill="#ffce00" d="M318.6 638.6c.1.4.3.7.4 1l-.1.5v.2c-.2-.3-.6-.8-.8-1.5-.7-2.2-2.7-3-3.6-3.2.2.7.6 2.1.5 4.1-.1 1.7.9 2.8 1.8 3.3.6.3 1.1.2 1.5-.2.1-.1.2-.1.2-.1v.7c-.5.4-1.2.4-1.9.1-.1 0-.2-.1-.2-.1-1-.5-1.9-1.9-1.8-3.6.1-2.7-.7-4.3-.7-4.3v-.3c.1-.1.1-.1.2-.1.2-.2 3.5.3 4.5 3.5z" class="st6"/>
        </g>
        <g id="g93">
          <path fill="#09d35b" d="M319 639.9v.4l-.3 2.4v.3c-1.3 1.3-3.8-.5-3.7-3.3.1-2.8-.7-4.4-.7-4.4s3.3.4 4.2 3.5c.1.4.3.8.5 1.1z" class="st7"/>
        </g>
        <g id="g109">
          <g id="g94">
            <circle id="circle93" cx="318.5" cy="640.3" r=".2" fill="#ffce00" class="st6"/>
          </g>
          <g id="g95">
            <circle id="circle94" cx="318" cy="639.4" r=".2" fill="#ffce00" class="st6"/>
          </g>
          <g id="g96">
            <circle id="circle95" cx="317.7" cy="638.5" r=".2" fill="#ffce00" class="st6"/>
          </g>
          <g id="g97">
            <circle id="circle96" cx="317.1" cy="637.5" r=".2" fill="#ffce00" class="st6"/>
          </g>
          <g id="g98">
            <circle id="circle97" cx="316.5" cy="636.9" r=".2" fill="#ffce00" class="st6"/>
          </g>
          <g id="g99">
            <circle id="circle98" cx="315.8" cy="636.4" r=".2" fill="#ffce00" class="st6"/>
          </g>
          <g id="g100">
            <circle id="circle99" cx="315.2" cy="636.8" r=".2" fill="#ffce00" class="st6"/>
          </g>
          <g id="g101">
            <circle id="circle100" cx="315.4" cy="637.8" r=".2" fill="#ffce00" class="st6"/>
          </g>
          <g id="g102">
            <circle id="circle101" cx="315.5" cy="638.7" r=".2" fill="#ffce00" class="st6"/>
          </g>
          <g id="g103">
            <circle id="circle102" cx="315.4" cy="639.7" r=".2" fill="#ffce00" class="st6"/>
          </g>
          <g id="g104">
            <circle id="circle103" cx="315.6" cy="640.7" r=".2" fill="#ffce00" class="st6"/>
          </g>
          <g id="g105">
            <circle id="circle104" cx="316" cy="641.6" r=".2" fill="#ffce00" class="st6"/>
          </g>
          <g id="g106">
            <circle id="circle105" cx="316.7" cy="642.3" r=".2" fill="#ffce00" class="st6"/>
          </g>
          <g id="g107">
            <circle id="circle106" cx="317.6" cy="642.7" r=".2" fill="#ffce00" class="st6"/>
          </g>
          <g id="g108">
            <circle id="circle107" cx="315.1" cy="636" r=".2" fill="#ffce00" class="st6"/>
          </g>
        </g>
        <g id="g110">
          <path fill="#fffcee" d="m319 639.7-.1.4c-.2-.3-.5-.7-.7-1.4-.8-2.5-3.2-3.2-3.9-3.4.2.5.7 2.1.6 4.3-.1 1.7.9 3 1.8 3.4.6.3 1.2.2 1.7-.2h.1v.3c-.5.4-1.2.5-1.9.2-.1 0-.1-.1-.2-.1-.9-.5-1.9-1.8-1.8-3.5.1-2.7-.7-4.4-.7-4.4v-.1l.1-.1s3.4.5 4.3 3.6c.4.4.6.8.7 1z" class="st8"/>
        </g>
      </g>
      <g id="g112">
        <path fill="#ffce00" d="M349.7 712.7c-.8-4.3-2.4-8.5-4.5-12.4-1.1-1.9-2.3-3.7-3.7-5.4-.8-.8-1.4-1.7-2.3-2.4-.4-.4-.8-.8-1.2-1.1l-1.3-1c-3.8-2.5-7.1-5.7-10-9.2-2.8-3.5-5.2-7.5-6.9-11.7-1.7-4.2-2.8-8.7-3-13.2 0-1.1-.1-2.3 0-3.4l.2-1.7c0-.6.1-1.1.2-1.7l.7-3.3c.2-1.1.5-2.2.7-3.3.7-4.4.6-9-.2-13.4-1-4.4-2.6-8.7-5.3-12.2 2.8 3.6 4.5 7.8 5.5 12.2.9 4.4 1.1 9 .4 13.5-.1 1.1-.4 2.2-.6 3.3l-.6 3.3c-.1.5-.2 1.1-.2 1.7l-.1 1.7c-.1 1.1 0 2.2 0 3.3.2 4.4 1.4 8.8 3.1 12.9 1.8 4.1 4.1 7.9 7 11.3 2.8 3.4 6.1 6.5 9.9 8.9l1.4 1c.5.3.9.8 1.3 1.1.9.7 1.6 1.6 2.4 2.4 1.5 1.8 2.8 3.6 4 5.6 2.3 4 3.9 8.3 4.9 12.8z" class="st6"/>
      </g>
      <g id="g119">
        <circle id="circle112" cx="320.8" cy="668.1" r="2.4" fill="#fa2eb8" class="st9"/>
        <path fill="#fa2eb8" d="M318.3 667c-2 .3-5.1-1.8-3-4 2.1-2.2 1.8-4 1.8-4s1 1.5 4.1 1.6c3.1.1 2.3 3.8.7 5" class="st9"/>
        <path fill="#fa2eb8" d="M319.7 670.6c.3 2-1.8 5.1-4 3-2.2-2.1-4-1.8-4-1.8s1.5-1 1.6-4.1c.1-3.1 3.8-2.3 5-.7" class="st9"/>
        <path fill="#fa2eb8" d="M323.3 669.2c2-.3 5.1 1.8 3 4-2.1 2.2-1.8 4-1.8 4s-1-1.5-4.1-1.6c-3.1-.1-2.3-3.8-.7-5" class="st9"/>
        <path fill="#fa2eb8" d="M321.9 665.6c-.3-2 1.8-5.1 4-3 2.2 2.1 4 1.8 4 1.8s-1.5 1-1.6 4.1c-.1 3.1-3.8 2.3-5 .7" class="st9"/>
        <circle id="circle115" cx="320.8" cy="668.1" r="2.4" fill="#09d35b" class="st7"/>
        <circle id="circle116" cx="320.8" cy="668.1" r="2.4" fill="none" stroke="#ffce00" stroke-linecap="round" stroke-linejoin="round" stroke-miterlimit="10" stroke-width="1.497" class="st10"/>
        <path fill="none" stroke="#ffce00" stroke-linecap="round" stroke-linejoin="round" stroke-miterlimit="10" stroke-width="1.497" d="M318.3 667c-2 .3-5.1-1.8-3-4 2.1-2.2 1.8-4 1.8-4s1 1.5 4.1 1.6c3.1.1 2.3 3.8.7 5" class="st10"/>
        <path fill="none" stroke="#ffce00" stroke-linecap="round" stroke-linejoin="round" stroke-miterlimit="10" stroke-width="1.497" d="M319.7 670.6c.3 2-1.8 5.1-4 3-2.2-2.1-4-1.8-4-1.8s1.5-1 1.6-4.1c.1-3.1 3.8-2.3 5-.7" class="st10"/>
        <path fill="none" stroke="#ffce00" stroke-linecap="round" stroke-linejoin="round" stroke-miterlimit="10" stroke-width="1.497" d="M323.3 669.2c2-.3 5.1 1.8 3 4-2.1 2.2-1.8 4-1.8 4s-1-1.5-4.1-1.6c-3.1-.1-2.3-3.8-.7-5" class="st10"/>
        <path fill="none" stroke="#ffce00" stroke-linecap="round" stroke-linejoin="round" stroke-miterlimit="10" stroke-width="1.497" d="M321.9 665.6c-.3-2 1.8-5.1 4-3 2.2 2.1 4 1.8 4 1.8s-1.5 1-1.6 4.1c-.1 3.1-3.8 2.3-5 .7" class="st10"/>
      </g>
      <g id="g133">
        <g id="g120">
          <circle id="circle119" cx="351.4" cy="634.1" r="2.4" fill="#fa2eb8" class="st9"/>
        </g>
        <g id="g121">
          <path fill="#fa2eb8" d="M353.3 629.3v.2c-.1.3-.2.7-.3.9-.1.2-.2.5-.4.6l-.3.3-.4.2-.2.1-2.1 1.1-.2.1-.4.2c-.1 0-.3.1-.4.1h-.7c-.4-.1-.9-.2-1.2-.4-.4-.2-.7-.4-.9-.7-.2-.2-.3-.4-.4-.7-.2-.6-.1-1.3.5-2 1.9-2.4 1.4-4.1 1.4-4.1s1.1 1.4 4 1.3c.2.3.4.5.6.8.2.3.5.6.7.8.1.2.2.3.4.5l.1.1c.2.2.3.5.5.7-.3 0-.3 0-.3-.1z" class="st9"/>
        </g>
        <g id="g122">
          <path fill="#fa2eb8" d="M350.5 636.6c.5 2-1.4 5.2-3.8 3.3-2.4-1.9-4.1-1.4-4.1-1.4s1.4-1.1 1.3-4.2c-.2-3.1 3.6-2.6 4.9-1.1z" class="st9"/>
        </g>
        <g id="g123">
          <path fill="#fa2eb8" d="M356.5 635.3c.1.3.1.5.2.7 0 .1 0 .2.1.2v.2c.1.1.2.2.2.3l.1.1h-.2c.1.4.1.7.1 1.1v1.2c-1.5 2.2-1.1 3.7-1.1 3.7s-1.1-1.4-4.2-1.3c-1 0-1.6-.3-1.9-.8-.1-.2-.2-.5-.3-.7-.1-.4-.1-.8 0-1.2.1-.4.2-.9.4-1.2.1-.2.3-.4.4-.6l.3-.3.4-.2.2-.1 2.1-1.1.2-.1.4-.2c.1 0 .3-.1.4-.1h.7c.6.1 1 .2 1.5.4-.1 0-.1 0 0 0z" class="st9"/>
        </g>
        <g id="g124">
          <path fill="#fa2eb8" d="M356.1 634.4c.1.3.3.6.4 1 .1.3.1.5.2.7-.2 0-.3 0-.5-.1-.4-.1-.8-.2-1.2-.4-.2-.1-.4-.2-.6-.4l-.3-.3-.2-.4-.1-.2-1-2.1-.1-.2-.2-.4c0-.1-.1-.3-.1-.4v-.7c.1-.4.2-.9.4-1.3 0-.1.1-.2.1-.2.2.2.3.5.5.7 0-.1.1-.1.1-.2v.2c.2.3.4.5.5.8.8 1.3 1.6 2.6 2.1 3.9z" class="st9"/>
        </g>
        <g id="g125">
          <circle id="circle124" cx="351.4" cy="634.1" r="2.4" fill="#09d35b" class="st7"/>
        </g>
        <g id="g126">
          <path fill="#ffce00" d="m353.2 631.5-.2-.2c-.1-.1-.3-.2-.4-.2-.1 0-.2-.1-.4-.1s-.3-.1-.5-.1h-.3c-.5 0-1 .1-1.5.3-.5.2-.9.6-1.1 1-.1.1-.1.2-.1.2-.1.1-.1.3-.2.4 0 .1 0 .1-.1.2v.2c0 .2-.1.3-.1.5v.3c0 .5.1 1 .3 1.5.2.5.6.9 1 1.1.1.1.2.1.2.2.1.1.3.1.4.2.1 0 .1 0 .2.1.1 0 .1 0 .2.1.2 0 .3.1.5.1h.3c.5 0 1-.1 1.5-.3l.1-.1c.4-.2.7-.5 1-.9l.2-.2c.1-.1.1-.3.2-.4 0-.1 0-.1.1-.2v-.2c0-.2.1-.3.1-.5v-.3c0-.5-.1-1-.3-1.5-.4-.5-.7-.9-1.1-1.2zm-3.3 3.3c-.2-.4-.2-.8-.1-1.3.1-.4.4-.7.7-.9h.1c.8-.4 1.8-.1 2.2.7v.1c.2.4.2.8.1 1.3-.1.4-.4.8-.8 1-.4.2-.8.2-1.3.1-.4-.3-.7-.6-.9-1z" class="st6"/>
        </g>
        <g id="g127" fill="#ffce00">
          <path d="M351.6 627.3h-.5c-1.6.1-2.7-.2-3.5-.6-.2.8-.6 2-1.6 3.2-.6.7-.4 1.2-.3 1.4l.1.1c.2.3.5.5.8.7.4.2.8.3 1.2.4h.8c.2 0 .4 0 .5.1.1 0 .1.1.2.2l.1.1c0 .1 0 .1.1.2v.3c0 .1 0 .1-.1.2-.1.2-.2.3-.4.3h-.8c-1.1 0-2.2-.4-3-1-.2-.2-.4-.4-.5-.6-.1-.1-.1-.1-.1-.2-.1-.1-.2-.3-.2-.5-.4-.9-.2-1.9.6-2.8 1.6-2 1.3-3.4 1.3-3.5-.1-.3.1-.7.4-.9.3-.2.7-.1.9.2 0 0 .8.9 2.8 1 .2.3.4.5.6.7.2.5.4.8.6 1z" class="st6"/>
          <path d="M353.3 629.6c.2.3.4.5.5.8l-.6 1.2c-.1.1-.2.3-.3.4l-.2.2-.1.1c-.1 0-.2.1-.2.1h-.4c-.1 0-.2-.1-.2-.2h-.1l-.1-.1c0-.1 0-.1-.1-.2v-.3c0-.2.1-.4.2-.5.2-.2.3-.4.5-.6.2-.4.4-.8.4-1.3v-.4l.1.1c.2.1.4.4.6.7v-.2.2z" class="st6"/>
        </g>
        <g id="g128">
          <path fill="#ffce00" d="M349.4 640.9c-1 .6-2.1.4-3.2-.4-2-1.6-3.4-1.3-3.5-1.3-.3.1-.7-.1-.9-.4-.2-.3-.1-.7.2-.9 0 0 1.1-1 1-3.5-.1-1.4.5-2.4 1.6-2.8 1.4-.6 3.5 0 4.6 1.2.3.3.2.8-.1 1.1-.3.3-.8.2-1.1-.1-.6-.7-2.1-1.1-2.9-.8-.2.1-.7.3-.7 1.4.1 1.6-.2 2.7-.6 3.5.8.2 1.9.6 3.2 1.6.8.7 1.4.4 1.5.3.8-.5 1.3-1.9 1.1-2.8-.1-.4.2-.8.6-.9.4-.1.8.2.9.6.5 1.3-.3 3.4-1.7 4.2.1 0 .1 0 0 0z" class="st6"/>
        </g>
        <g id="g130" fill="#ffce00">
          <path d="M356.7 638.2c.1-.1.2-.2.2-.3v1.2c0 .6 0 1.1-.1 1.7-.4 1.1-.3 1.8-.3 1.8.1.2 0 .4-.1.6-.1.1-.1.2-.2.2-.3.2-.7.1-.9-.2 0 0-1-1.1-3.5-1-1.2.1-2.1-.4-2.6-1.2-.1-.1-.2-.3-.2-.4 0-.1-.1-.2-.1-.2-.1-.2-.1-.5-.1-.8-.1-1 .3-2.2.9-3 .1-.1.2-.3.3-.4l.2-.2.1-.1c.1-.1.3-.1.5-.1h.2c.1 0 .2.1.2.2h.1s.1.1.1.2 0 .1.1.2v.3c0 .2-.1.3-.2.5-.2.2-.3.4-.5.6-.2.4-.4.8-.4 1.2 0 .4 0 .8.1 1v.1c.1.2.4.6 1.3.6 1.6-.1 2.7.2 3.5.6 0-.7.4-1.8 1.4-3.1z" class="st6"/>
          <path d="M356.1 634.4c.1.3.3.6.4 1 .1.3.1.5.2.7 0 .1 0 .2.1.2v.2c-.2-.2-.4-.3-.6-.4-.4-.2-.8-.3-1.2-.4h-.8c-.2 0-.4 0-.5-.1-.1 0-.1-.1-.2-.1l-.1-.1s0-.1-.1-.2v-.5c0-.1.1-.2.2-.2.1-.1.1-.1.2-.1 0 0 .1 0 .1-.1h.8c.4-.2 1-.1 1.5.1z" class="st6"/>
        </g>
        <g id="g132" fill="#ffce00">
          <path d="M353.2 629.5c-.2.3-.3.7-.3 1v.8c0 .2 0 .4-.1.5 0 .1-.1.1-.2.2l-.1.1c-.1 0-.1.1-.2.1h-.5c-.1 0-.2-.1-.2-.2-.1-.1-.1-.1-.1-.2 0 0 0-.1-.1-.1v-.7c0-.9.3-2 .8-2.7.1.2.2.3.4.5l.1.1c.2.1.4.4.5.6z" class="st6"/>
          <path d="M356.5 635.3c.1.3.2.5.2.8 0 .1 0 .2.1.2v.2c.1.1.2.2.2.3l.1.1h-.2c-1 0-2-.3-2.8-.9-.1-.1-.3-.2-.4-.3l-.2-.2-.1-.1c0-.1-.1-.2-.1-.2v-.4c0-.1.1-.2.2-.2v-.1l.1-.1c.1 0 .1-.1.2-.1h.3c.2 0 .3.1.5.2.2.2.4.3.6.5.3.1.8.2 1.3.3-.1 0-.1 0 0 0z" class="st6"/>
        </g>
      </g>
      <path fill="none" stroke="#080808" stroke-linecap="round" stroke-linejoin="round" stroke-miterlimit="10" stroke-width="4.201" d="M366.9 722.6c-.2.6-.5 1.1-.8 1.7-2.9 5-8 3.7-12.8.5-1.3-.9-2.3-1.9-3.1-2.9-2-2.8-2.1-6-.4-8.5.2-.3.5-.6.7-.9 2.5-2.7 6.8-3.1 11.1-.2 4.2 2.8 6.8 6 5.3 10.3z" class="st11"/>
      <path id="polygon133" fill="#080808" d="M318.6 642.7v-.1z" class="st4"/>
      <path fill="none" stroke="#080808" stroke-linecap="round" stroke-linejoin="round" stroke-miterlimit="10" stroke-width="5.881" d="M345.7 666s16.2-12.3 15-25.5c-.9-9.7-26.6-37.8-43.5-35" class="st12"/>
      <path fill="none" stroke="#080808" stroke-linecap="round" stroke-linejoin="round" stroke-miterlimit="10" stroke-width="5.881" d="M327.2 698.4c15 8.9 20.3 20.5 23 23.5 5.3 6.3 11.8 5.7 11.8 5.7 6.2-.6 15.8-3.3 21.3-7.7 10.6-8.6-9.2-17.3-25.6-31.6-16.5-14.3-7.8-16.4-17.6-49.8-5.2-17.6-10.8-25-16-30-3.4-3.3-9.5-4.2-13.4-1.4-20.2 14.5-12.3 57.8 4.2 79.8 2.7 3.6 8.2 9.2 12.3 11.5" class="st12"/>
    </g>
  </g>
  <g id="RightEar--group">
    <path id="RightEar--bg" d="M413.3 399.4c-.4 4.4-3.8 8.4-11.1 12.9-4.7 3-10.2 5.5-13.9 6.5-6.5 1.7-12.3 2.6-17.3 2.6-6.7 0-10.6-1.6-12.7-2.9-4.8-3-4.4-7.2-4.2-8.5.5-3.1 2.9-5.5 5.9-6.2 3.5-.8 13.5-5.8 23.6-12.6 4.2-2.9 10.7-4.8 16.1-4.8 5.8 0 9.1 2.2 10.8 4.1 2.1 2.4 3.1 5.5 2.8 8.9z"/>
    <path id="RightEar" fill="#f80" d="M361.4 411.3c0 .3.4.7.9.9 1.1.7 3.6 1.8 8.8 1.8 4.3 0 9.5-.8 15.4-2.3 5.2-1.4 19.1-8.8 19.5-13 .1-1.3-.2-2.4-.9-3.2-1-1.1-2.8-1.7-5.3-1.7-3.9 0-8.9 1.5-11.9 3.5-8.5 5.7-20.5 12.5-26.1 13.7-.3.1-.4.2-.4.3z" class="st1"/>
  </g>
  <g id="Head--group">
    <path id="Head--bg" d="M516.4 328.1c1.6 0 3.2 0 4.8.1 20.6.6 39.5 6.5 55.9 17 11.2 7.2 17.5 11.4 25.9 25.2 1.5 2.5 9 .8 7.9-1.1-10.1-17.6-17.5-22.3-29.8-30.3-17.7-11.4-37.8-17.6-59.7-18.2-1.6 0-3.3-.1-5-.1-1.6 0-3.3 0-4.9.1-24.3.6-47.8 6.6-67.8 17.1-20.2 10.6-37.1 26.1-48.9 44.7-7.7 12.3-10.3 23.9-7.4 33.5 2.4 7.8 7.9 12.7 12.3 14.6 1.4.6 2.9.9 4.7.9 9.3 0 34.7-9.3 45.7-24.8 8.4 4.5 17.6 6.7 28.1 6.7 12.6 0 25-3.2 36.4-6.9 3-1 3.8-2.2 3.9-4.1 0-1.3-1.2-3.6-3.8-3.5-.3 0-.7.1-1 .2-11.2 3.6-23.3 6.9-35.4 6.9-9.3 0-18.6-2-27.4-7.4-.6-.4-1.3-.5-1.9-.5-1.3 0-2.5.6-3.2 1.8l-.1.1c-7.9 14.3-33.3 24.1-41.2 24.1-.7 0-1.3-.1-1.7-.3-2.8-1.2-6.6-4.6-8.2-10-2.3-7.5 0-17 6.6-27.4 22.5-35.7 63.4-57.1 110.6-58.3 1.4-.1 3-.1 4.6-.1"/>
    <path id="Head" fill="#fc0" d="M516.6 399.4c-1-.4-2-.7-3-.3-19.7 6.3-42.5 12-62.8-.5-1.7-1.1-4-.5-5.1 1.2l-.1.1c-8.6 15.7-38.3 26-43 23.9-2.8-1.2-6.6-4.6-8.2-10-2.3-7.5 0-17 6.6-27.4 22.5-35.7 63.4-57.1 110.6-58.3 3.1-.1 6.3-.1 9.5 0 20.6.6 39.5 6.5 55.9 17 13.2 8.5 19.7 12.7 30.6 33.6 5.6 10.5-84.4 23.5-91 20.7z" class="st0"/>
  </g>
  <g id="LeftEar--group">
    <path id="LeftEar--bg" d="M701.4 357.1c-.5 1.7-1.2 3.4-2 5.2-5 10-17.7 23-38 29.1-4.5 1.4-9.3 2-14 2h-.1c-13 0-34.2-4.9-61.6-28.3-1.9-1.7-5.1-4.8-7.1-7-2.3-2.5-2.8-6.1-1.5-9.1s4.4-5.1 7.8-5.1h.5c13.9.8 30.1 1.2 48.4 1.2 8.1 0 14.8-.1 19.3-.1h4.5c7.4 0 13.3-.1 18.2-.1 8.1 0 13.7.1 17.1.2 2.9.1 5.6 1.5 7.3 3.9 1.5 2.3 2 5.2 1.2 8.1z"/>
    <path id="LeftEar" fill="#f80" d="M590.4 359.4c25.7 21.9 45.1 26.5 56.8 26.5h.1c4 0 8-.6 11.9-1.7 18.1-5.4 29.2-16.6 33.5-25.3.8-1.5 1.2-2.8 1.5-3.9.4-1.3-.6-2.6-1.9-2.7-3.3-.1-8.9-.2-16.7-.2-5.4 0-11.6 0-18.2.1-3.3 0-12.2.2-23.9.2-13.9 0-31.7-.2-48.8-1.2h-.1c-.9 0-1.5 1.1-.8 1.8 2 2.2 5 5.1 6.6 6.4z" class="st1"/>
  </g>
  <g id="Face--group">
    <path id="RightEye" d="M417.6 376.2c-4.1 0-7.4 3.3-7.4 7.4 0 9.9 14.8 9.9 14.8 0 0-4.1-3.3-7.4-7.4-7.4z"/>
    <path id="LeftEye" d="M503.2 355.7c-4.1 0-7.4 3.3-7.4 7.4 0 9.9 14.8 9.9 14.8 0 0-4.1-3.3-7.4-7.4-7.4z"/>
    <path id="Nose" d="M457.9 375.4c-7.4.8-12.3 2.5-15.6 4.9-5.9 4.4-4.1 9.9 2.5 10.7 6.6.8 7.1 1.2 13.2-3.3 6.5-4.9 7.3-13.1-.1-12.3z"/>
  </g>
  <g id="LeftLEg--group">
    <path id="LetLeg" fill="#fc0" d="M512.4 655.2c-4.6-5.2-3.7-15.7-1.9-29.4 2.6-19.8 5-34.5 25.4-50.8 24.4-19.5 62.2-15 76.2-.5 3.6 3.7 6.7 10.9 7.3 18.8.9 11.4-22.2 42.4-44.8 51.8-22.6 9.6-54 19.3-62.2 10.1z" class="st0"/>
    <path id="LeftLeg--bg_1_" d="M512.4 658.9c-1.2 0-2.3-.5-3-1.6-4.7-6.7-4.5-17.2-2.6-32 2.5-19 4.6-35.5 26.8-53.2 26.8-21.4 63.7-14 78.4.7 1.4 1.4 1.4 3.8 0 5.2-1.4 1.4-3.8 1.4-5.2 0-12.5-12.5-45.4-18.7-68.6-.1-18.9 15.1-21.4 28.2-24.1 48.4-1.4 11-2.3 21.8 1.3 26.7 1.2 1.7.8 4-.9 5.2-.6.5-1.4.7-2.1.7z"/>
  </g>
  <g id="LeftFoot--group">
    <path id="LeftFoot--bg" d="M523.7 651.2c-.4 1.9-2 9.1-6.7 16.2-7 10.6-17.8 16.5-30.4 16.5-7.2 0-12.9-2.1-16.8-6.2-7.5-7.8-7.1-21-6.7-33.7v-.1c.2-6.4.4-13.1-.4-18.5-.7-4.4-1.8-9.1-3.1-14.5-2.4-10.2-4.6-20.1-4.3-28.7.4-10.7 4.7-18.9 12.8-24.4 3.5-2.4 7.4-3.5 11.4-3.5 9.3 0 18.9 6.2 28.7 18.6 7.1 8.9 13.1 20 15.4 28.1 6.4 21.8 4.9 34.9.1 50.2z"/>
    <path id="LeftFoot_1_" fill="#fc0" d="M477 670.8c2 2.1 5.2 3.1 9.6 3.1 22.6 0 27-23.7 27.2-24.7 0-.2.1-.4.1-.6 4.4-13.9 5.7-25.2 0-44.8-3.7-13.2-21.1-39.4-34.4-39.4-2 0-4 .6-5.8 1.9-11.7 7.8-9.3 21.8-4.4 42.4 1.2 5.1 2.5 10.4 3.2 15.3 1 6.4.8 13.5.5 20.4-.2 10.6-.6 21.6 4 26.4z" class="st0"/>
    <g id="g270" transform="translate(0 -57.118)">
      <path fill="#3b3637" d="M456.9 708.3c11.7 17.2 11.4 32.3 12.8 37 2.5 9.5 9.8 12.1 9.8 12.1 6.9 2.5 18.7 4.4 26.8 2.5 15.8-3.9-1.1-23.3-11.5-47.1s-.1-21.7 6.3-62.5c3.4-21.6 1-32.3-2-40.4-2-5.3-8.1-9.3-13.7-8.3-29.1 5.4-42.6 56.1-35.9 88 1.1 5.3 4.2 14.2 7.4 18.7" class="st0"/>
      <path fill="#3b3637" d="M493.3 682.2s23.7-5 29.1-19.9c4-10.8-9.5-54.2-29.1-59.7" class="st0"/>
      <path fill="#231f20" d="M487.6 753.8c-.5.5-1.1 1-1.8 1.5-5.6 3.9-10.5 0-14.1-5.9-1-1.6-1.6-3.2-1.9-4.7-.8-4 .8-7.5 3.9-9.3.4-.2.8-.5 1.3-.6 4-1.6 8.9.1 12.1 5.4 3.1 5 4.2 9.8.5 13.6z" class="st1"/>
      <path fill="#141112" d="M490.7 717.2s14.4 28.5 15 33.1c.6 4.6-10.9 5.2-14.4-3.7s1.9-16-.6-29.4z" class="st2"/>
      <path fill="none" stroke="#080808" stroke-linecap="round" stroke-linejoin="round" stroke-miterlimit="10" stroke-width="3.014" d="M489.6 717.2s15.5 28.5 16.1 33.1c.6 4.6-10.9 5.2-14.4-3.7s.8-16-1.7-29.4z" class="st13"/>
      <path fill="#080808" d="M518.5 668.8c-.1.2-.3.4-.5.5l.5-.5z" class="st4"/>
      <path fill="#080808" d="M523.1 653.1c-.1.1-.1.2-.2.2v-.1c.1-.1.1-.1.2-.1z" class="st4"/>
      <path fill="#080808" d="M522.4 662.8v.1c-.1 0-.1-.1-.2-.1.1-.1.1-.3.2-.4v.4z" class="st4"/>
      <path fill="none" stroke="#080808" stroke-linecap="round" stroke-linejoin="round" stroke-miterlimit="10" stroke-width="3.014" d="M485.5 601s11.1 10.6 8.8 36.3c-3.8 42.9-19.1 48.8-4.7 79.8" class="st13"/>
      <path fill="none" stroke="#080808" stroke-linecap="round" stroke-linejoin="round" stroke-miterlimit="10" stroke-width="2.938" d="M500.5 760s7.4-2.8 5-10.3" class="st14"/>
      <g id="g146">
        <path fill="#080808" d="M478.5 732.1c.1-.1.2-.5.4-.7l.4-.9c.2-.6.5-1.3.7-1.9.4-1.3.8-2.7 1.1-4.1.7-2.8 1.1-5.6 1.4-8.5.3-2.9.4-5.8.5-8.7v-4.4l-.2-4.4c0-.6.5-1.2 1.1-1.2.6 0 1.1.4 1.2 1l.6 4.4.4 4.5c.2 3 .3 6 .3 9-.1 3-.2 6.1-.7 9.1-.2 1.5-.5 3-.8 4.6-.2.8-.4 1.5-.6 2.3l-.4 1.2c-.2.4-.3.7-.5 1.3l-.1.1c-.6 1.4-2.2 1.9-3.6 1.3-1.4-.6-1.9-2.2-1.3-3.6 0-.2.1-.3.1-.4z" class="st4"/>
      </g>
      <g id="g166">
        <g id="g147">
          <path fill="#ffce00" d="M474.1 705.7c-.6 0-1.2-.2-1.8-.5-.2-.1-.3-.5-.2-.7.1-.2.5-.3.7-.2.9.6 2 .5 3-.3 1.6-1.2 2.9-3.9 2-7.1-1.1-3.8-.9-6.8-.8-8.2-1.6.9-5.2 3.3-5.6 7.9-.2 2.4-1.2 3.8-1.2 3.9-.2.2-.5.3-.7.1-.2-.2-.3-.5-.1-.7 0 0 .9-1.2 1-3.4.6-6.6 6.8-9 7-9.1.2-.1.4 0 .5.1.1.1.2.3.2.5 0 0-.8 3.6.6 8.7 1 3.7-.5 6.8-2.4 8.2-.6.5-1.4.8-2.2.8z" class="st6"/>
        </g>
        <g id="g148">
          <path fill="#09d35b" d="M469.9 700s.9-1.3 1.1-3.6c.5-6.4 6.7-8.7 6.7-8.7s-.9 3.6.6 9-2.8 9.9-5.8 8" class="st7"/>
        </g>
        <g id="g164">
          <g id="g149">
            <circle id="circle148" cx="471.6" cy="699.6" r=".4" fill="#ffce00" class="st6"/>
          </g>
          <g id="g150">
            <circle id="circle149" cx="472.2" cy="697.8" r=".4" fill="#ffce00" class="st6"/>
          </g>
          <g id="g151">
            <circle id="circle150" cx="472.4" cy="695.8" r=".4" fill="#ffce00" class="st6"/>
          </g>
          <g id="g152">
            <circle id="circle151" cx="473" cy="693.7" r=".4" fill="#ffce00" class="st6"/>
          </g>
          <g id="g153">
            <circle id="circle152" cx="474" cy="692.1" r=".4" fill="#ffce00" class="st6"/>
          </g>
          <g id="g154">
            <circle id="circle153" cx="475" cy="690.8" r=".4" fill="#ffce00" class="st6"/>
          </g>
          <g id="g155">
            <circle id="circle154" cx="476.4" cy="691.5" r=".4" fill="#ffce00" class="st6"/>
          </g>
          <g id="g156">
            <circle id="circle155" cx="476.5" cy="693.4" r=".4" fill="#ffce00" class="st6"/>
          </g>
          <g id="g157">
            <circle id="circle156" cx="476.8" cy="695.2" r=".4" fill="#ffce00" class="st6"/>
          </g>
          <g id="g158">
            <circle id="circle157" cx="477.3" cy="697.2" r=".4" fill="#ffce00" class="st6"/>
          </g>
          <g id="g159">
            <circle id="circle158" cx="477.4" cy="699.2" r=".4" fill="#ffce00" class="st6"/>
          </g>
          <g id="g160">
            <circle id="circle159" cx="477" cy="701.2" r=".4" fill="#ffce00" class="st6"/>
          </g>
          <g id="g161">
            <circle id="circle160" cx="476" cy="702.8" r=".4" fill="#ffce00" class="st6"/>
          </g>
          <g id="g162">
            <circle id="circle161" cx="474.4" cy="703.9" r=".4" fill="#ffce00" class="st6"/>
          </g>
          <g id="g163">
            <circle id="circle162" cx="476.4" cy="689.8" r=".4" fill="#ffce00" class="st6"/>
          </g>
        </g>
        <g id="g165">
          <path fill="#fffcee" d="M474.1 705.4c-.6 0-1.1-.2-1.6-.5-.1-.1-.2-.2-.1-.3.1-.1.2-.2.3-.1 1 .6 2.2.5 3.3-.3 1.7-1.2 3-4.1 2.1-7.4-1.2-4.3-.9-7.5-.7-8.6-1.4.7-5.7 3.1-6.1 8.3-.2 2.4-1.1 3.7-1.2 3.7-.1.1-.2.1-.3.1-.1-.1-.1-.2-.1-.3 0 0 .9-1.3 1.1-3.5.5-6.5 6.8-8.9 6.9-8.9h.3c.1.1.1.2.1.2s-.8 3.6.6 8.8c1 3.6-.5 6.6-2.3 7.9-.8.6-1.6.9-2.3.9z" class="st8"/>
        </g>
      </g>
      <g id="g186">
        <g id="g167">
          <path fill="#ffce00" d="M464.3 697.1c-1.9 0-4.4-1.2-5.8-3.9-2-4.1-4.6-5.8-4.6-5.9-.1-.1-.2-.2-.2-.4s.1-.3.3-.3c.2-.1 5.5-2.1 9.7 1.7 1.3 1.3 2.6 1.5 2.6 1.5.2 0 .4.3.3.5-.1.2-.3.4-.5.3-.1 0-1.5-.3-3-1.7-2.9-2.7-6.5-2.2-8-1.8.9.8 2.7 2.6 4.2 5.7 1.3 2.5 3.7 3.5 5.4 3.4 1.1-.1 1.9-.7 2.1-1.5.1-.2.3-.4.5-.3.2.1.4.3.3.5-.3 1.2-1.4 2-2.8 2.2h-.5z" class="st6"/>
        </g>
        <g id="g168">
          <path fill="#09d35b" d="M466.1 690.4s-1.3-.3-2.8-1.6c-4-3.7-9.2-1.7-9.2-1.7s2.6 1.8 4.8 6c2.1 4.2 7.4 4.7 8.3 1.7" class="st7"/>
        </g>
        <g id="g184">
          <g id="g169">
            <circle id="circle168" cx="464.8" cy="691.1" r=".4" fill="#ffce00" class="st6"/>
          </g>
          <g id="g170">
            <circle id="circle169" cx="463.4" cy="690.2" r=".4" fill="#ffce00" class="st6"/>
          </g>
          <g id="g171">
            <circle id="circle170" cx="462.1" cy="689.1" r=".4" fill="#ffce00" class="st6"/>
          </g>
          <g id="g172">
            <circle id="circle171" cx="460.5" cy="688.1" r=".4" fill="#ffce00" class="st6"/>
          </g>
          <g id="g173">
            <circle id="circle172" cx="459" cy="687.7" r=".4" fill="#ffce00" class="st6"/>
          </g>
          <g id="g174">
            <circle id="circle173" cx="457.6" cy="687.4" r=".4" fill="#ffce00" class="st6"/>
          </g>
          <g id="g175">
            <circle id="circle174" cx="457.1" cy="688.6" r=".4" fill="#ffce00" class="st6"/>
          </g>
          <g id="g176">
            <circle id="circle175" cx="458.2" cy="689.9" r=".4" fill="#ffce00" class="st6"/>
          </g>
          <g id="g177">
            <circle id="circle176" cx="459" cy="691.2" r=".4" fill="#ffce00" class="st6"/>
          </g>
          <g id="g178">
            <circle id="circle177" cx="459.9" cy="692.8" r=".4" fill="#ffce00" class="st6"/>
          </g>
          <g id="g179">
            <circle id="circle178" cx="460.9" cy="694.1" r=".4" fill="#ffce00" class="st6"/>
          </g>
          <g id="g180">
            <circle id="circle179" cx="462.3" cy="695.1" r=".4" fill="#ffce00" class="st6"/>
          </g>
          <g id="g181">
            <circle id="circle180" cx="463.9" cy="695.6" r=".4" fill="#ffce00" class="st6"/>
          </g>
          <g id="g182">
            <circle id="circle181" cx="465.5" cy="695.4" r=".4" fill="#ffce00" class="st6"/>
          </g>
          <g id="g183">
            <circle id="circle182" cx="456.2" cy="687.5" r=".4" fill="#ffce00" class="st6"/>
          </g>
        </g>
        <g id="g185">
          <path fill="#fffcee" d="M464.3 696.9c-1.9 0-4.3-1.1-5.6-3.7-2.1-4.1-4.7-5.9-4.7-5.9-.1 0-.1-.1-.1-.2s.1-.1.1-.2c.1 0 5.4-2.1 9.4 1.7 1.4 1.3 2.7 1.6 2.7 1.6.1 0 .2.1.2.3 0 .1-.1.2-.3.2-.1 0-1.4-.3-2.9-1.7-3.2-3-7.4-2.1-8.6-1.7.8.6 2.8 2.5 4.5 5.9 1.3 2.6 3.8 3.6 5.6 3.5 1.2-.1 2-.7 2.3-1.7 0-.1.1-.2.3-.1.1 0 .2.2.1.3-.3 1.1-1.3 1.9-2.7 2-.1-.3-.2-.3-.3-.3z" class="st8"/>
        </g>
      </g>
      <g id="g206">
        <g id="g187">
          <path fill="#ffce00" d="M482.1 651.1c0 .1-.1.3-.2.3 0 0-2.7 1-5.4 4.2-1.9 2.2-4.6 2.6-6.3 2.1-.7-.2-1.3-.7-1.6-1.2-.2-.3-.3-.6-.4-1 0-.1.1-.2.2-.3.1-.1.1-.2.2-.3 0-.1.1-.1.1-.2h.1c.1.1.2.2.2.3 0 .8.6 1.5 1.5 1.8 1.5.5 3.8.2 5.5-1.8 2-2.4 4-3.6 5-4.1-1.3-.7-4.4-1.9-7.5-.1-1.7.9-3 .9-3 .9h-.1l.1-.2.1-.2h.1c0-.1.1-.1.1-.2s.1-.2.1-.2c.4 0 1.3-.2 2.3-.8 4.5-2.5 8.8.4 9 .5-.2.2-.1.4-.1.5z" class="st6"/>
        </g>
        <g id="g188">
          <path fill="#09d35b" d="M481.7 651.1s-2.7 1-5.5 4.3-7.6 2.5-7.7-.2l.1-.2.1-.2.8-1.6c0-.1.1-.2.1-.3l.6-1.2.1-.2.1-.2h.1c.3 0 1.4-.1 2.8-.9 4.2-2.3 8.4.7 8.4.7z" class="st7"/>
        </g>
        <g id="g204">
          <g id="g189">
            <circle id="circle188" cx="471.4" cy="652.3" r=".3" fill="#ffce00" class="st6"/>
          </g>
          <g id="g190">
            <circle id="circle189" cx="472.8" cy="651.9" r=".3" fill="#ffce00" class="st6"/>
          </g>
          <g id="g191">
            <circle id="circle190" cx="474.2" cy="651.1" r=".3" fill="#ffce00" class="st6"/>
          </g>
          <g id="g192">
            <circle id="circle191" cx="475.8" cy="650.6" r=".3" fill="#ffce00" class="st6"/>
          </g>
          <g id="g193">
            <circle id="circle192" cx="477.2" cy="650.5" r=".3" fill="#ffce00" class="st6"/>
          </g>
          <g id="g194">
            <circle id="circle193" cx="478.5" cy="650.6" r=".3" fill="#ffce00" class="st6"/>
          </g>
          <g id="g195">
            <circle id="circle194" cx="478.7" cy="651.8" r=".3" fill="#ffce00" class="st6"/>
          </g>
          <g id="g196">
            <circle id="circle195" cx="477.5" cy="652.7" r=".3" fill="#ffce00" class="st6"/>
          </g>
          <g id="g197">
            <circle id="circle196" cx="476.5" cy="653.7" r=".3" fill="#ffce00" class="st6"/>
          </g>
          <g id="g198">
            <circle id="circle197" cx="475.4" cy="654.9" r=".3" fill="#ffce00" class="st6"/>
          </g>
          <g id="g199">
            <circle id="circle198" cx="474.2" cy="655.8" r=".3" fill="#ffce00" class="st6"/>
          </g>
          <g id="g200">
            <circle id="circle199" cx="472.8" cy="656.5" r=".3" fill="#ffce00" class="st6"/>
          </g>
          <g id="g201">
            <circle id="circle200" cx="471.2" cy="656.5" r=".3" fill="#ffce00" class="st6"/>
          </g>
          <g id="g202">
            <circle id="circle201" cx="469.8" cy="656" r=".3" fill="#ffce00" class="st6"/>
          </g>
          <g id="g203">
            <circle id="circle202" cx="479.8" cy="651.1" r=".3" fill="#ffce00" class="st6"/>
          </g>
        </g>
        <g id="g205">
          <path fill="#fffcee" d="M481.9 651.1c0 .1 0 .1-.1.2 0 0-2.7 1-5.4 4.3-1.9 2.2-4.5 2.6-6.1 2-.7-.2-1.2-.6-1.5-1.1-.2-.3-.4-.7-.4-1.1.1-.1.1-.2.2-.3h.1c.1 0 .1.1.1.2 0 .9.6 1.6 1.7 2 1.5.5 3.9.2 5.7-1.9 2.2-2.6 4.4-3.8 5.2-4.2-1-.6-4.5-2.3-8-.3-1.6.9-2.9.9-2.9.9h-.1l.1-.2h.1c0-.1.1-.1.1-.2.4 0 1.4-.2 2.5-.8 4.4-2.5 8.7.5 8.7.5 0-.1 0-.1 0 0z" class="st8"/>
        </g>
      </g>
      <g id="g226">
        <g id="g207">
          <path fill="#ffce00" d="M487.3 627c0 .1 0 .1-.1.2 0 0-1 .7-1.8 2.3-.6 1.1-1.7 1.6-2.4 1.5-.3 0-.6-.1-.8-.3-.1-.1-.1-.2-.2-.2v-.4l.1.1c.1.3.4.6.8.6.6.1 1.6-.3 2.1-1.3.6-1.2 1.3-1.9 1.7-2.2-.6-.2-2-.4-3.1.7-.6.6-1.1.7-1.2.7v-.4c.2-.1.5-.2.9-.6 1.6-1.5 3.7-.7 3.7-.7.3-.1.3 0 .3 0z" class="st6"/>
        </g>
        <g id="g208">
          <path fill="#09d35b" d="M487.2 627.1s-1 .7-1.8 2.3c-.8 1.6-2.8 1.8-3.2.8v-.2c.1-.5.2-1 .3-1.4v-.2c.1 0 .6-.2 1-.6 1.7-1.6 3.7-.7 3.7-.7z" class="st7"/>
        </g>
        <g id="g224">
          <g id="g209">
            <circle id="circle208" cx="483" cy="628.6" r=".1" fill="#ffce00" class="st6"/>
          </g>
          <g id="g210">
            <circle id="circle209" cx="483.6" cy="628.3" r=".1" fill="#ffce00" class="st6"/>
          </g>
          <g id="g211">
            <circle id="circle210" cx="484.1" cy="627.8" r=".1" fill="#ffce00" class="st6"/>
          </g>
          <g id="g212">
            <circle id="circle211" cx="484.7" cy="627.4" r=".1" fill="#ffce00" class="st6"/>
          </g>
          <g id="g213">
            <circle id="circle212" cx="485.3" cy="627.3" r=".1" fill="#ffce00" class="st6"/>
          </g>
          <g id="g214">
            <circle id="circle213" cx="485.8" cy="627.2" r=".1" fill="#ffce00" class="st6"/>
          </g>
          <g id="g215">
            <circle id="circle214" cx="486" cy="627.6" r=".1" fill="#ffce00" class="st6"/>
          </g>
          <g id="g216">
            <circle id="circle215" cx="485.6" cy="628.2" r=".1" fill="#ffce00" class="st6"/>
          </g>
          <g id="g217">
            <circle id="circle216" cx="485.3" cy="628.7" r=".1" fill="#ffce00" class="st6"/>
          </g>
          <g id="g218">
            <circle id="circle217" cx="484.9" cy="629.3" r=".1" fill="#ffce00" class="st6"/>
          </g>
          <g id="g219">
            <circle id="circle218" cx="484.5" cy="629.8" r=".1" fill="#ffce00" class="st6"/>
          </g>
          <g id="g220">
            <circle id="circle219" cx="484" cy="630.2" r=".1" fill="#ffce00" class="st6"/>
          </g>
          <g id="g221">
            <circle id="circle220" cx="483.4" cy="630.3" r=".1" fill="#ffce00" class="st6"/>
          </g>
          <g id="g222">
            <circle id="circle221" cx="482.8" cy="630.3" r=".1" fill="#ffce00" class="st6"/>
          </g>
          <g id="g223">
            <circle id="circle222" cx="486.4" cy="627.2" r=".1" fill="#ffce00" class="st6"/>
          </g>
        </g>
        <g id="g225">
          <path fill="#fffcee" d="M487.3 627c0 .1-.1.1 0 0 0 .1-1 .8-1.9 2.4-.5 1.1-1.6 1.5-2.3 1.4-.3 0-.5-.1-.7-.3-.1-.1-.2-.2-.2-.3v-.2c.1.4.4.6.9.7.7.1 1.6-.3 2.2-1.3.7-1.3 1.4-2 1.8-2.3-.5-.1-2.1-.5-3.3.7-.5.5-1 .6-1.1.6v-.2c.2 0 .5-.2.9-.6 1.5-1.4 3.6-.6 3.7-.6-.1 0 0 0 0 0z" class="st8"/>
        </g>
      </g>
      <g id="g246">
        <g id="g227">
          <path fill="#ffce00" d="M478.1 638.9c-.1.5 0 .9 0 1.3l-.4.5-.1.2c-.1-.4-.2-1.1-.1-2.1.4-2.7-1.4-4.6-2.2-5.3-.1.9-.4 2.6-1.5 4.7-.9 1.8-.5 3.5.3 4.4.5.6 1.1.8 1.7.6.1 0 .2 0 .3.1l-.1.1v.1l-.2.3-.1.2c-.7.2-1.5-.1-2.1-.8l-.2-.2c-.8-1.1-1.1-3-.1-4.8 1.5-2.8 1.5-5 1.5-5 0-.1 0-.2.2-.3.1-.1.2-.1.3 0 .1-.1 3.4 2.1 2.8 6z" class="st6"/>
        </g>
        <g id="g228">
          <path fill="#09d35b" d="m477.9 640.5-.1.2-.1.2-1.5 2.4-.1.1v.1l-.1.1c-2 .7-3.9-2.5-2.4-5.4 1.5-2.9 1.5-5.1 1.5-5.1s3.3 2.1 2.8 5.9c-.2.6-.1 1.1 0 1.5z" class="st7"/>
        </g>
        <g id="g244">
          <g id="g229">
            <circle id="circle228" cx="477.1" cy="640.6" r=".3" fill="#ffce00" class="st6"/>
          </g>
          <g id="g230">
            <circle id="circle229" cx="477" cy="639.5" r=".3" fill="#ffce00" class="st6"/>
          </g>
          <g id="g231">
            <circle id="circle230" cx="477.1" cy="638.3" r=".3" fill="#ffce00" class="st6"/>
          </g>
          <g id="g232">
            <circle id="circle231" cx="477" cy="637" r=".3" fill="#ffce00" class="st6"/>
          </g>
          <g id="g233">
            <circle id="circle232" cx="476.7" cy="636" r=".3" fill="#ffce00" class="st6"/>
          </g>
          <g id="g234">
            <circle id="circle233" cx="476.3" cy="635.1" r=".3" fill="#ffce00" class="st6"/>
          </g>
          <g id="g235">
            <circle id="circle234" cx="475.4" cy="635.3" r=".3" fill="#ffce00" class="st6"/>
          </g>
          <g id="g236">
            <circle id="circle235" cx="475.1" cy="636.4" r=".3" fill="#ffce00" class="st6"/>
          </g>
          <g id="g237">
            <circle id="circle236" cx="474.7" cy="637.4" r=".3" fill="#ffce00" class="st6"/>
          </g>
          <g id="g238">
            <circle id="circle237" cx="474.1" cy="638.5" r=".3" fill="#ffce00" class="st6"/>
          </g>
          <g id="g239">
            <circle id="circle238" cx="473.8" cy="639.6" r=".3" fill="#ffce00" class="st6"/>
          </g>
          <g id="g240">
            <circle id="circle239" cx="473.8" cy="640.8" r=".3" fill="#ffce00" class="st6"/>
          </g>
          <g id="g241">
            <circle id="circle240" cx="474.2" cy="641.9" r=".3" fill="#ffce00" class="st6"/>
          </g>
          <g id="g242">
            <circle id="circle241" cx="474.9" cy="642.8" r=".3" fill="#ffce00" class="st6"/>
          </g>
          <g id="g243">
            <circle id="circle242" cx="475.6" cy="634.3" r=".3" fill="#ffce00" class="st6"/>
          </g>
        </g>
        <g id="g245">
          <path fill="#fffcee" d="m478 640.3-.2.4c-.1-.4-.2-1-.1-1.9.4-3.1-1.8-5-2.5-5.6 0 .7-.3 2.6-1.5 4.9-1 1.8-.5 3.6.3 4.6.5.6 1.2.8 1.9.6h.2l-.2.3c-.8.2-1.5 0-2.1-.7-.1-.1-.1-.2-.2-.2-.8-1-1.1-2.9-.1-4.7 1.5-2.8 1.5-5 1.5-5.1 0-.1 0-.1.1-.1h.1s3.4 2.2 2.9 6c-.2.7-.2 1.2-.1 1.5z" class="st8"/>
        </g>
      </g>
      <g id="g247">
        <path fill="#ffce00" d="M474 734.4c1.3-5 1.7-10.4 1.4-15.6-.2-2.6-.6-5.2-1.3-7.7-.4-1.2-.7-2.5-1.3-3.7-.3-.6-.5-1.2-.8-1.8l-.9-1.7c-2.8-4.6-4.8-9.8-6-15-1.3-5.3-1.8-10.7-1.6-16.1.2-5.4 1.4-10.8 3.5-15.7l.9-1.8c.3-.6.5-1.2.9-1.8l1-1.7c.3-.6.7-1.2 1.1-1.7.8-1.1 1.6-2.2 2.4-3.2l1.2-1.6c.4-.5.8-1.1 1.2-1.6 3-4.4 5.2-9.3 6.5-14.5 1.2-5.2 1.6-10.6.5-15.9 1.2 5.2.9 10.7-.2 15.9-1.2 5.2-3.4 10.2-6.3 14.7-.3.6-.7 1.1-1.1 1.7l-1.2 1.6c-.8 1.1-1.6 2.2-2.3 3.2-.4.5-.7 1.1-1.1 1.7l-1 1.7c-.4.6-.6 1.2-.9 1.8l-.8 1.8c-2 4.9-3 10.2-3.2 15.5-.2 5.3.5 10.6 1.8 15.7s3.3 10 6.1 14.6l1 1.8c.3.6.6 1.3.8 1.9.6 1.2.9 2.6 1.4 3.9.7 2.6 1.2 5.3 1.4 8.1.4 5.4 0 10.9-1.2 16.3z" class="st6"/>
      </g>
      <g id="g254">
        <circle id="circle247" cx="465.5" cy="671.8" r="2.9" fill="#fa2eb8" class="st9"/>
        <path fill="#fa2eb8" d="M463.3 669.4c-2.3-.7-4.6-4.5-1.2-5.9 3.4-1.3 3.9-3.4 3.9-3.4s.3 2.1 3.6 3.8c3.3 1.7.6 5.3-1.8 5.7" class="st9"/>
        <path fill="#fa2eb8" d="M463.1 673.9c-.7 2.3-4.5 4.6-5.9 1.2-1.3-3.4-3.4-3.9-3.4-3.9s2.1-.3 3.8-3.6c1.7-3.3 5.3-.6 5.7 1.8" class="st9"/>
        <path fill="#fa2eb8" d="M467.7 674.2c2.3.7 4.6 4.5 1.2 5.9-3.4 1.3-3.9 3.4-3.9 3.4s-.3-2.1-3.6-3.8c-3.3-1.7-.6-5.3 1.8-5.7" class="st9"/>
        <path fill="#fa2eb8" d="M467.9 669.6c.7-2.3 4.5-4.6 5.9-1.2 1.3 3.4 3.4 3.9 3.4 3.9s-2.1.3-3.8 3.6c-1.7 3.3-5.3.6-5.7-1.8" class="st9"/>
        <circle id="circle250" cx="465.5" cy="671.8" r="2.9" fill="#09d35b" class="st7"/>
        <circle id="circle251" cx="465.5" cy="671.8" r="2.9" fill="none" stroke="#ffce00" stroke-linecap="round" stroke-linejoin="round" stroke-miterlimit="10" stroke-width="1.782" class="st15"/>
        <path fill="none" stroke="#ffce00" stroke-linecap="round" stroke-linejoin="round" stroke-miterlimit="10" stroke-width="1.782" d="M463.3 669.4c-2.3-.7-4.6-4.5-1.2-5.9 3.4-1.3 3.9-3.4 3.9-3.4s.3 2.1 3.6 3.8c3.3 1.7.6 5.3-1.8 5.7" class="st15"/>
        <path fill="none" stroke="#ffce00" stroke-linecap="round" stroke-linejoin="round" stroke-miterlimit="10" stroke-width="1.782" d="M463.1 673.9c-.7 2.3-4.5 4.6-5.9 1.2-1.3-3.4-3.4-3.9-3.4-3.9s2.1-.3 3.8-3.6c1.7-3.3 5.3-.6 5.7 1.8" class="st15"/>
        <path fill="none" stroke="#ffce00" stroke-linecap="round" stroke-linejoin="round" stroke-miterlimit="10" stroke-width="1.782" d="M467.7 674.2c2.3.7 4.6 4.5 1.2 5.9-3.4 1.3-3.9 3.4-3.9 3.4s-.3-2.1-3.6-3.8c-3.3-1.7-.6-5.3 1.8-5.7" class="st15"/>
        <path fill="none" stroke="#ffce00" stroke-linecap="round" stroke-linejoin="round" stroke-miterlimit="10" stroke-width="1.782" d="M467.9 669.6c.7-2.3 4.5-4.6 5.9-1.2 1.3 3.4 3.4 3.9 3.4 3.9s-2.1.3-3.8 3.6c-1.7 3.3-5.3.6-5.7-1.8" class="st15"/>
      </g>
      <g id="g268">
        <g id="g255">
          <circle id="circle254" cx="515.7" cy="650.6" r="2.9" fill="#fa2eb8" class="st9"/>
        </g>
        <g id="g256">
          <path fill="#fa2eb8" d="M520.2 646.5c-.1.1-.1.2-.2.2-.2.3-.5.6-.9.8-.2.2-.5.4-.8.5-.2.1-.3.1-.5.2h-.9l-2.8.1h-1c-.2 0-.3-.1-.5-.2-.3-.1-.5-.2-.8-.4-.4-.3-.8-.6-1.1-1.1-.3-.4-.5-.8-.7-1.2-.1-.3-.1-.6-.1-.9.1-.7.5-1.4 1.6-1.9 3.3-1.6 3.6-3.7 3.6-3.7s.4 2 3.7 3.4c.1.4.2.8.3 1.1l.3 1.2c0 .2.1.5.2.7v.2c.1.3.1.7.2 1 .3.1.3 0 .4 0z" class="st9"/>
        </g>
        <g id="g257">
          <path fill="#fa2eb8" d="M513.5 653c-.5 2.3-4.1 4.9-5.7 1.6-1.6-3.3-3.8-3.6-3.8-3.6s2.1-.5 3.5-3.8c1.4-3.4 5.2-1 5.8 1.3z" class="st9"/>
        </g>
        <g id="g258">
          <path fill="#fa2eb8" d="M520.5 654.6c0 .3-.1.6-.2.9 0 .1 0 .2-.1.3 0 .1 0 .1-.1.2.1.1.1.3.1.4v.1c-.1 0-.2-.1-.2-.1-.1.4-.3.8-.4 1.3-.2.5-.4.9-.6 1.3-2.7 1.5-3 3.4-3 3.4s-.5-2.1-3.8-3.5c-1.1-.4-1.6-1.1-1.7-1.8 0-.3 0-.6.1-.9.1-.4.3-.9.6-1.3s.6-.8 1.1-1.1c.2-.2.5-.3.7-.5.2-.1.3-.1.5-.2h.9l2.8-.1h.9c.2 0 .3.1.5.2.3.1.5.2.8.4.3.1.7.5 1.1 1 0-.1 0-.1 0 0z" class="st9"/>
        </g>
        <g id="g259">
          <path fill="#fa2eb8" d="M520.6 653.3c0 .4-.1.8-.1 1.2 0 .3-.1.6-.2.9-.2-.1-.3-.2-.5-.3-.4-.3-.8-.6-1.1-1-.2-.2-.4-.5-.5-.8-.1-.2-.1-.3-.2-.5v-.9l-.1-2.8v-1c0-.2.1-.3.2-.5.1-.3.2-.5.4-.8.3-.4.7-.8 1.1-1.2.1-.1.2-.1.2-.2.1.3.1.7.2 1 .1-.1.1-.1.2-.1-.1.1-.1.2-.2.2.1.4.1.8.2 1.1.4 2.3.5 4.2.4 5.7z" class="st9"/>
        </g>
        <g id="g260">
          <circle id="circle259" cx="515.7" cy="650.6" r="2.9" fill="#09d35b" class="st7"/>
        </g>
        <g id="g261">
          <path fill="#ffce00" d="M518.9 648.8c0-.1-.1-.2-.2-.3-.1-.2-.2-.3-.4-.5l-.3-.3c-.2-.1-.3-.2-.5-.3-.1-.1-.2-.1-.3-.2-.5-.3-1.1-.4-1.8-.4-.6 0-1.2.2-1.7.5-.1.1-.2.1-.3.2-.2.1-.3.2-.4.4-.1 0-.1.1-.2.2s-.1.1-.1.2c-.1.2-.2.3-.3.5-.1.1-.1.2-.2.3-.3.5-.4 1.1-.4 1.8 0 .6.2 1.2.5 1.7 0 .1.1.2.2.3.1.2.2.3.4.4 0 .1.1.1.2.2l.2.2c.2.1.3.2.5.3.1.1.2.1.3.2.5.3 1.1.4 1.8.4h.2c.5 0 1.1-.2 1.5-.5.1 0 .2-.1.3-.2.2-.1.3-.2.4-.4.1 0 .1-.1.2-.2s.1-.1.1-.2c.1-.1.2-.3.3-.5.1-.1.1-.2.2-.3.3-.5.4-1.1.4-1.8-.1-.6-.3-1.2-.6-1.7zm-5.2 1.9c0-.5.2-1 .5-1.4.3-.4.8-.6 1.3-.6h.1c1.1 0 1.9.8 2 1.8v.1c0 .5-.2 1-.5 1.4-.4.4-.9.6-1.4.6-.5 0-1-.2-1.4-.5-.4-.4-.6-.9-.6-1.4z" class="st6"/>
        </g>
        <g id="g262" fill="#ffce00">
          <path d="M519.3 643.5c-.1-.1-.3-.2-.5-.3-1.7-.7-2.8-1.6-3.4-2.4-.6.8-1.6 1.8-3.3 2.6-1 .5-1.1 1.1-1.1 1.4v.1c0 .4.2.8.5 1.1.3.4.7.8 1.1 1 .3.2.6.3.9.4.2.1.4.2.5.4.1.1.1.2.1.3v.4c0 .1-.1.2-.1.3l-.2.2c-.2.1-.3.2-.6.2h-.2c-.1 0-.2 0-.3-.1-.2 0-.3-.1-.5-.2-1.1-.5-2.2-1.5-2.7-2.6l-.3-.9c0-.1 0-.2-.1-.3v-.6c.1-1.1.8-2.1 2-2.7 2.8-1.3 3.1-3 3.1-3.1.1-.4.4-.7.9-.7.4 0 .8.3.9.7 0 0 .4 1.4 2.5 2.5.1.4.2.8.3 1.1.3.4.4.8.5 1.2z" class="st6"/>
          <path d="M520 646.7c.1.4.1.8.2 1.1-.4.4-.8.7-1.3.9-.2.1-.3.2-.5.2-.1 0-.2.1-.3.1h-.5c-.1 0-.1 0-.1-.1 0 0-.1 0-.1-.1-.1 0-.1-.1-.2-.1-.1-.1-.1-.2-.2-.3v-.5c0-.1.1-.2.1-.3.1-.2.3-.3.5-.4.3-.1.6-.2.8-.4.4-.3.8-.7 1.1-1.2.1-.1.2-.3.2-.4v.2c.2.6.2.9.3 1.3 0-.1.1-.2.2-.2-.1.1-.1.2-.2.2z" class="st6"/>
        </g>
        <g id="g263">
          <path fill="#ffce00" d="M510.1 657.1c-1.4.1-2.5-.6-3.2-2.1-1.4-2.8-3-3.1-3.1-3.1-.4-.1-.7-.4-.8-.9 0-.4.3-.8.7-.9.1 0 1.7-.5 2.9-3.3.6-1.5 1.8-2.3 3.2-2.2 1.8.1 3.8 1.8 4.3 3.6.1.5-.1 1-.6 1.1-.5.1-1-.1-1.1-.6-.3-1.1-1.6-2.3-2.7-2.3-.2 0-1-.1-1.5 1.1-.7 1.7-1.6 2.8-2.4 3.4.8.6 1.8 1.6 2.6 3.3.6 1.2 1.3 1.1 1.5 1 1.1-.1 2.3-1.4 2.6-2.5.1-.5.6-.8 1.1-.7.5.1.8.6.7 1.1-.4 1.9-2.3 3.7-4.1 3.9z" class="st6"/>
        </g>
        <g id="g265" fill="#ffce00">
          <path d="M519.3 657.8c.1-.1.3-.1.4-.2-.2.5-.4.9-.6 1.3l-.9 1.8c-1 .9-1.2 1.8-1.2 1.8 0 .3-.2.5-.4.6-.1.1-.2.1-.4.1h-.1c-.4 0-.8-.3-.9-.7 0-.1-.5-1.7-3.3-2.9-1.3-.5-2.1-1.5-2.2-2.6v-.9c0-.3.1-.6.2-.9.4-1.2 1.4-2.2 2.5-2.8l.6-.3c.1 0 .2-.1.3-.1h.2c.2 0 .4 0 .5.1.1 0 .1.1.2.1.1.1.1.2.2.3l.1.1v.4c0 .1-.1.2-.1.3-.1.2-.3.3-.5.4-.3.1-.6.2-.8.4-.4.3-.8.7-1.1 1.1-.2.4-.4.8-.4 1.2v.1c0 .3.1.9 1.1 1.3 1.7.7 2.8 1.6 3.4 2.4.5-.6 1.5-1.6 3.2-2.4z" class="st6"/>
          <path d="M520.6 653.3c0 .4-.1.8-.1 1.2 0 .3-.1.6-.2.9 0 .1 0 .2-.1.3 0 .1 0 .1-.1.2-.1-.3-.2-.5-.4-.8-.3-.4-.7-.8-1.1-1-.3-.2-.6-.3-.9-.4-.2-.1-.4-.2-.5-.4 0-.1-.1-.2-.1-.3v-.5c0-.1 0-.1.1-.1 0 0 0-.1.1-.1 0-.1.1-.1.1-.2.1-.1.2-.1.3-.2h.5c.1 0 .2 0 .3.1.2.1.4.1.6.2.5.3 1.1.7 1.5 1.1z" class="st6"/>
        </g>
        <g id="g267" fill="#ffce00">
          <path d="M520 646.6c-.3.3-.6.6-.8.9-.2.3-.3.6-.4.9-.1.2-.2.4-.4.5-.1.1-.2.1-.3.1h-.5c-.1 0-.1 0-.1-.1 0 0-.1 0-.1-.1-.1 0-.1-.1-.2-.1-.1-.1-.1-.2-.2-.3v-.5c0-.1 0-.2.1-.3.1-.2.1-.4.2-.6.5-1 1.3-2 2.3-2.5 0 .2.1.5.2.7v.2c.1.6.1.9.2 1.2z" class="st6"/>
          <path d="M520.5 654.5c0 .1 0 .1 0 0 0 .4-.1.6-.2.9 0 .1 0 .2-.1.3 0 .1 0 .1-.1.2.1.1.1.3.1.4v.1c-.1 0-.2-.1-.2-.1-1.1-.5-2-1.4-2.6-2.4l-.3-.6c0-.1-.1-.2-.1-.3v-.5c0-.1 0-.1.1-.1 0 0 0-.1.1-.1 0-.1.1-.1.1-.2.1-.1.2-.1.3-.2h.5c.1 0 .2.1.3.1.2.1.3.3.4.5.1.3.2.6.4.8.4.5.8.9 1.3 1.2z" class="st6"/>
        </g>
      </g>
      <path fill="none" stroke="#080808" stroke-linecap="round" stroke-linejoin="round" stroke-miterlimit="10" stroke-width="5" d="M487.6 753.8c-.5.5-1.1 1-1.8 1.5-5.6 3.9-10.5 0-14.1-5.9-1-1.6-1.6-3.2-1.9-4.7-.8-4 .8-7.5 3.9-9.3.4-.2.8-.5 1.3-.6 4-1.6 8.9.1 12.1 5.4 3.1 5 4.2 9.8.5 13.6z" class="st16"/>
      <path id="polygon268" fill="#080808" d="M476.1 643.3v-.1z" class="st4"/>
      <path fill="none" stroke="#080808" stroke-linecap="round" stroke-linejoin="round" stroke-miterlimit="10" stroke-width="7" d="M493.3 682.2s23.7-5 29.1-19.9c4-10.8-9.5-54.2-29.1-59.7" class="st17"/>
      <path fill="none" stroke="#080808" stroke-linecap="round" stroke-linejoin="round" stroke-miterlimit="10" stroke-width="7" d="M457.1 707.7c11.7 17.2 11.4 32.3 12.8 37 2.5 9.5 9.8 12.1 9.8 12.1 6.9 2.5 18.7 4.4 26.8 2.5 15.8-3.9-1.1-23.3-11.5-47.1-10.5-23.8-.1-21.7 6.3-62.5 3.4-21.6 1-32.3-2-40.4-2-5.3-8.1-9.3-13.7-8.3-29.1 5.4-42.6 56.1-35.9 88 1 5.3 4.1 14.2 7.4 18.7" class="st17"/>
    </g>
  </g>
  <g id="LeftArm--group">
    <path id="LeftArm--bg" d="M478 413.3c-6.4 2.9-12.4 6.6-17.6 11.1-12.1 10.6-12.6 19.4-10.8 24.8 2.5 7.7 11.1 13.4 21.9 14.6 7.1.7 16.2-1.3 26.7-3.6 13.9-3.1 29.7-6.6 42.9-3.9 19.6 4.1 33.3 15 53.1 32.7l10.3 9.2c1.5 1.3 3.9 1.2 5.2-.4 1.3-1.5 1.2-3.9-.4-5.2l-2.9-2.6c-24-21.7-39.9-36-63.8-41-14.8-3.1-31.3.6-46 3.9-9.5 2.1-18.5 4.1-24.3 3.5-7.8-.8-14.1-4.6-15.7-9.5-1.5-4.7 1.6-10.7 8.7-17 20.7-18.2 59.1-23.7 87.5-12.5 4.7 1.9 7.4-5.1 2.7-6.9-11.4-4.4-24.6-6.6-37.7-6.2-10.1.4-30.5 4.8-39.8 9z"/>
    <path id="LeftArm" fill="#fc0" d="M615.4 451c11.7 12.2 17 60.3-6 41.6l-2.9-2.6c-24-21.7-39.9-36-63.8-41-14.8-3.1-31.3.6-46 3.9-9.5 2.1-18.5 4.1-24.3 3.5-7.8-.8-14.1-4.6-15.7-9.5-1.5-4.7 1.6-10.7 8.7-17 20.7-18.2 59.3-24 87.5-12.5 4.6 2 46.1 16.5 62.5 33.6z" class="st0"/>
  </g>
</svg>