<svg version="1.1" id="wapuugotchi_svg__item" viewBox="0 0 1e3 1e3" xmlns="http://www.w3.org/2000/svg">
	<g class="RightHand--group">
		<path fill="#fff" fill-opacity=".8" d="M416.575 374.767c-5.796 1.259-11.687 3.9-16.926 8.081-15.462 12.16-19.964 32.32-9.983 45.012s30.566 13.064 46.097.914c6.923-5.445 11.675-12.542 13.868-19.807z"/>
		<path d="M406.971 441.08c-8.313-.994-15.51-4.92-20.289-10.998-5.565-7.077-7.399-16.217-5.27-25.859 2.096-9.367 7.732-18.031 15.886-24.443 5.539-4.356 11.891-7.36 18.476-8.802 1.286-.265 2.635.106 3.567 1.054l32.995 34.123c.993 1.024 1.31 2.456.879 3.729-2.523 8.27-7.906 15.99-15.137 21.675-9.18 7.405-20.525 10.787-31.107 9.522zm8.407-62.135c-4.756 1.313-9.285 3.629-13.362 6.835-6.77 5.323-11.46 12.498-13.145 20.172-1.643 7.33-.31 14.25 3.803 19.48 3.57 4.54 8.811 7.327 15.201 8.09 8.589 1.028 17.852-1.837 25.545-7.886 5.462-4.295 9.612-9.862 11.863-15.865zM377.718 481.14c-.824-.099-1.616-.472-2.306-1.112l-32.995-34.123c-1.493-1.503-1.411-3.932.083-5.356 1.503-1.493 3.932-1.412 5.356.083l32.996 34.122c1.493 1.503 1.411 3.933-.083 5.357-.794.81-1.951 1.16-3.05 1.029z"/>
		<path fill="#901825" d="M387.998 408.008c-1.116 6.417.214 12.779 4.352 17.804 8.829 10.673 26.968 11.1 40.578 1.02 4.591-3.424 8.096-7.674 10.304-12.149l-55.242-6.607z"/>
	</g>
</svg>
