<?xml version="1.0" encoding="utf-8"?>
<!-- Generator: Adobe Illustrator 25.2.0, SVG Export Plug-In . SVG Version: 6.00 Build 0)  -->
<svg version="1.1" id="Layer_2" xmlns="http://www.w3.org/2000/svg" xmlns:xlink="http://www.w3.org/1999/xlink" x="0px" y="0px"
	 viewBox="0 0 530.8 467.2" style="enable-background:new 0 0 530.8 467.2;" xml:space="preserve">
<style type="text/css">
	.st0{fill:#FFCC00;}
	.st1{fill:#FF8800;}
	.st2{fill:#7D8E4D;}
	.st3{fill:#262626;}
	.st4{clip-path:url(#SVGID_2_);fill:#BFC1C1;}
	.st5{fill:#5A633B;}
	.st6{fill:#2A3316;}
	.st7{fill:#BFC1C1;}
	.st8{fill:#FFFFFF;}
	.st9{fill:none;stroke:#000000;stroke-width:14;stroke-linecap:round;stroke-miterlimit:10;stroke-dasharray:0,15;}
	.st10{fill:none;stroke:#9BB2BC;stroke-width:14;stroke-linecap:round;stroke-miterlimit:10;stroke-dasharray:0,15;}
</style>
<g id="Layer_1_1_">
	<g id="RightArm--group">
		<path id="RightArm--bg" d="M261.5,188.7c-4.5,5.1-10.5,7.9-17,7.9c-9.1,0-18.5-5.5-24.4-14.4c-7.8-11.6-15.5-21.2-22.3-27.9
			l-4.8-4.7c-2-2-1.1-5.3,1.6-6.1l6.5-1.7c3.2-0.9,6.4-2.7,9.1-5.5c3-3,4.8-6.7,5.2-10.4v-11.2c0-1.3,1.5-2.1,2.5-1.3l9.3,6.9
			c0.7,0.5,1.7,1.1,2.9,1.7c10.2,4.9,31.7,27.4,35.7,46.7C267.9,178.8,264.6,185.2,261.5,188.7z"/>
		<path id="RightArm" class="st0" d="M227,128.8c-1.5-0.7-2.9-1.5-4.2-2.4l0,0c-0.5,5.5-3,11-7.3,15.3c-3.7,3.7-8.1,6.2-12.5,7.4
			c8.7,8.6,17,19.8,23.2,29.1c4.5,6.7,11.6,11.1,18.3,11.1c4.1,0,8.1-1.6,11.4-5.4C268.9,169.1,238.6,134.3,227,128.8z"/>
	</g>
	<g id="Tail--group">
		<path id="Tail--bg" d="M424,334.2c-9,25.7-26.4,50-50.3,70.3c-23.8,20.3-51.8,34.7-81,41.6c-6.9,1.6-14.1,2.5-21.5,2.5
			c-30.8,0-58.9-13.9-74.8-27c-13.6-11.1-21.2-23.3-20.9-33.5c0.4-12,6.7-20.7,16.8-23.3c2.1-0.5,4.3-0.8,6.7-0.8
			c11.2,0,27.2,6.7,38.5,25.7c7.8,13.2,22,20.1,41.1,20.1c0.4,0,0.8,0,1.2,0c40.7-0.8,87.6-31.2,109.1-70.8
			c7.7-14.1,13.2-29.6,17.1-40.8c1.9-5.4,3.6-10.1,5.1-13.5c1.3-3.1,4.1-9.4,10.4-9.4c4.1,0,7.6,1.8,9.9,5
			C436.9,287.9,434.7,303.6,424,334.2z"/>
		<path id="Tail_2_" class="st1" d="M395.4,342.5c-22.7,41.7-72.5,73.9-115.5,74.7c-0.5,0-0.9,0-1.4,0c-21.6,0-38.3-8.4-47.4-23.8
			c-9-15.1-22-22.1-32.1-22.1c-1.7,0-3.3,0.2-4.8,0.6c-7,1.8-11,7.6-11.3,16.4c-0.3,7.7,6.6,18,18.2,27.5
			c16.8,13.7,43.2,25.3,70.1,25.3c6.6,0,13.3-0.7,19.8-2.3c57.2-13.5,108.5-57.4,126-107.1c5.4-15.3,16.7-49.2,4.5-49.2
			C417,282.6,410.7,314.3,395.4,342.5z"/>
	</g>
	<g id="Body--group">
		<path id="Body--bg" d="M474.6,216.6c-2,24-6.7,45.1-13.9,62.9c-8.5,20.9-20.3,36.6-35.1,46.8c-34,23.4-64.8,26-76.4,26
			c-1.3,0-2.5,0-3.8-0.1c-18.4-0.8-26-4.4-32.7-7.5c-5.9-2.8-11-5.2-24.9-5.7c-37.5-1.5-67-9.9-83.1-23.6c-0.2-0.1-0.5-0.4-0.9-0.7
			c-4.8-3.5-19.3-14.3-25-24.7c-5.3-9.7-6.2-22.3-2.3-31.4c13.4-31.2,24.5-40.5,33.5-48c3.6-3,6.4-5.3,8.8-8.7
			c2.2-3.1,3.8-7.1,4.9-12.2c0-0.1,0-0.2,0.1-0.3c3.9-15,3.4-34.9,2.8-56c-0.2-5.7-0.3-11.7-0.4-17.5v-0.1
			c0-18.6,9.6-40.7,25.7-59.2C270,35.8,293.5,23,318,20.4c20.2-2.1,34.3-3.1,45.9-3.1c43.7,0,58.6,14.8,82.2,48.4
			c7.5,10.6,12.1,22.5,16,33.7C473.2,129.8,478,175.9,474.6,216.6z"/>
		<path id="Body_1_" class="st0" d="M183.4,261.4c-3,7-2.2,17.4,2,25c5.6,10.3,23,22.2,24.1,23.2c15.1,12.9,43.7,20.5,78.7,21.9
			c31.2,1.3,24.3,11.8,57.6,13.3c1.1,0,2.2,0.1,3.5,0.1c16.7,0,43.7-5,72.2-24.7c58-39.9,52.9-165.3,34-218.6
			c-3.9-11.1-8.3-22.2-15.1-31.9c-23.5-33.5-36.6-45.2-76.2-45.2c-12.2,0-26.9,1.1-45.1,3.1c-49.9,5.3-85.3,55.3-85.3,88.1
			c0.3,27.4,2.5,55.1-2.7,75.5c-1.4,6.5-3.4,11.2-6,14.9C215.3,219.6,201.7,218.5,183.4,261.4z"/>
	</g>
	<g id="Ball--group_1_">
		<circle id="Ball_1_" class="st2" cx="295.5" cy="214" r="126.1"/>
		<g>
			<circle id="Ball_4_" class="st3" cx="295.5" cy="214" r="126.1"/>
			<path id="Ball-Shadow" d="M421.6,214c0,69.6-56.5,126.1-126.1,126.1c-22.6,0-43.8-6-62.1-16.4c2.5,0.6,5,1.1,7.5,1.5
				C307.2,336.4,371.3,284,384,208.4c5.9-35.6-0.5-70-16-97.6C400.4,133.6,421.6,171.3,421.6,214z"/>
			<g id="Screen-group">
				<g id="Ball-front">
					<defs>
						<circle id="SVGID_1_" cx="283.6" cy="209" r="112.9"/>
					</defs>
					<clipPath id="SVGID_2_">
						<use xlink:href="#SVGID_1_"  style="overflow:visible;"/>
					</clipPath>
					<polygon class="st4" points="235.1,280.5 218.8,267.7 198.4,272.1 190.3,253.2 171.7,244.5 177,224.4 165.2,207.3 177.3,190.4 
						169.3,170 184,154.1 183,132.3 204,126.8 216.8,109.4 237.4,116.6 256.2,105.6 274.7,117.7 295.6,110.3 308.8,127.4 
						327.5,137.6 318.1,157.8 327.1,177.9 314,195.8 321.9,216.6 307.3,233.2 309.8,255.2 289,261.9 275.1,278.6 254.5,270.1 					
						"/>
				</g>
				<g id="Screen">
					<path class="st2" d="M279.5,263.6l-94.2-17.8c1.6-36.1,10.6-79.8,23.2-120.5l89,6.3C288.1,174.9,280.4,231.8,279.5,263.6z"/>
					<path class="st5" d="M279.9,264.2l-0.6-0.1l-94.7-17.9l0-0.4c1.5-34.3,9.8-77.2,23.2-120.7l0.1-0.4l90,6.3l-0.1,0.6
						c-9.3,43.2-17,99.9-18,132L279.9,264.2z M185.7,245.4L279,263c1-32.1,8.7-88.2,17.9-131l-88-6.2
						C195.5,168.9,187.3,211.4,185.7,245.4z"/>
				</g>
				<path id="Pixel-Wapuu" class="st6" d="M237,149.2c6.1,0.7,12.3,1.3,18.3,2c-0.1,0.6-0.1,1.1-0.2,1.7c1.1,0.1,2.1,0.3,3.3,0.3
					c-0.1,0.5-0.1,1-0.2,1.5c7.3,0.8,14.5,1.5,21.8,2.3c-0.3,2.2-0.5,4.5-0.7,6.8c-0.6-0.1-1.1-0.1-1.7-0.2
					c-0.1,0.6-0.1,1.1-0.3,1.7c-1.1-0.1-2.1-0.3-3.3-0.3c-0.1,0.5-0.1,1-0.2,1.5c-2.2-0.3-4.5-0.5-6.7-0.7c-0.1,1.2-0.3,2.3-0.3,3.4
					c0.6,0.1,1.1,0.1,1.7,0.2c-0.3,2.2-0.4,4.4-0.7,6.5c0.6,0.1,1.1,0.1,1.6,0.3c-0.7,6.7-1.5,13.4-2.1,20c-0.6-0.1-1.1-0.1-1.7-0.2
					c-0.2,1.7-0.3,3.3-0.5,5.1c-0.6-0.1-1.1-0.1-1.7-0.2c-0.2,1.7-0.3,3.3-0.5,5.1c-0.5-0.1-1-0.1-1.5-0.2c-0.1,0.6-0.1,1.1-0.3,1.7
					c-0.6-0.1-1.1-0.1-1.7-0.2c-0.1,0.6-0.1,1.1-0.2,1.7c-0.6-0.1-1.1-0.1-1.7-0.2c-0.1,1.1-0.3,2.1-0.3,3.3c-0.5-0.1-1-0.1-1.5-0.2
					c-0.1,1.1-0.3,2.1-0.3,3.3c-0.6-0.1-1.1-0.1-1.7-0.2c-0.1,1.2-0.3,2.3-0.3,3.4c-0.6-0.1-1.1-0.1-1.7-0.2c-0.1,0.5-0.1,1-0.2,1.5
					c-0.5-0.1-1-0.1-1.5-0.2c0,0.3-0.1,0.6-0.1,0.9c0,0.3-0.1,0.5-0.1,0.9c-0.6-0.1-1.1-0.1-1.7-0.2c-0.1,0.6-0.1,1.1-0.2,1.7
					c-0.6-0.1-1.1-0.1-1.7-0.2c-0.1,0.5-0.1,1-0.2,1.5c-0.5-0.1-1-0.1-1.5-0.2c-0.1,0.6-0.1,1.1-0.2,1.7c-1.1-0.1-2.2-0.3-3.4-0.3
					c-0.1,0.6-0.1,1.1-0.2,1.7c-0.7-0.1-2-0.2-2.6-0.3l-0.2,1.5c-1.3-0.2-2.7-0.3-3.9-0.4c-0.1,0.6-0.1,1.2-0.2,1.7
					c-5-0.5-10-1.1-15-1.6c0.1-0.6,0.1-1.1,0.2-1.7c-1.2-0.1-2.3-0.3-3.4-0.3c0.1-0.5,0.1-1,0.2-1.5c-1.1-0.1-2.1-0.3-3.3-0.3
					c0.1-0.6,0.1-1.1,0.2-1.7c-0.6-0.1-1.1-0.1-1.7-0.2c0-0.6,0.2-1.1,0.2-1.7c-0.5-0.1-1-0.1-1.5-0.2c0.3-2.7,0.6-5.5,0.9-8.3
					c1.1,0.1,2.1,0.3,3.3,0.3c0.1-0.6,0.1-1.1,0.2-1.7c1.1,0.1,2.2,0.3,3.3,0.3c-0.1,0.6-0.1,1.1-0.2,1.7c1.1,0.1,2.2,0.3,3.4,0.3
					c-0.1,0.6-0.1,1.1-0.2,1.7c0.5,0.1,1,0.1,1.5,0.2c-0.1,1.1-0.3,2.2-0.3,3.3c0.6,0.1,1.1,0.1,1.7,0.2c0,0.6-0.2,1.1-0.2,1.7
					c3.9,0.4,7.8,0.9,11.7,1.3c0.1-0.6,0.1-1.1,0.2-1.7c1.1,0.1,2.2,0.3,3.3,0.3c0.1-0.6,0.1-1.1,0.2-1.7c1.1,0.1,2.2,0.3,3.3,0.3
					c0.1-0.5,0.1-1,0.2-1.5c0.6,0,1.1,0.2,1.7,0.2c0.1-0.6,0.1-1.1,0.2-1.7c0.6,0.1,1.1,0.1,1.6,0.2c0.1-0.6,0.1-1.1,0.2-1.7
					c-1.7-0.2-3.3-0.3-5-0.5c-0.1,0.6-0.1,1.1-0.2,1.7c-1.2-0.1-2.3-0.3-3.4-0.3c-0.1,0.6-0.1,1.1-0.2,1.6c-1.7-0.2-3.3-0.3-5.1-0.5
					c0.1-0.6,0.1-1.1,0.2-1.7c-0.5-0.1-1-0.1-1.5-0.2c0.1-1.1,0.3-2.1,0.3-3.3c-1.1-0.1-2.2-0.3-3.3-0.3c-1.1-0.1-2.2-0.2-3.3-0.3
					c0.1-0.6,0.1-1.1,0.2-1.7c-1.1-0.1-2.1-0.3-3.3-0.3c0.1-0.6,0.1-1.1,0.2-1.7c-1.2-0.1-2.3-0.3-3.4-0.3c-0.1,0.6-0.1,1.1-0.2,1.7
					c-0.5-0.1-5.5-0.6-6.6-0.8c0.1-0.6,0.1-1.1,0.2-1.7c-1.1-0.1-2.2-0.3-3.4-0.3c0.1-0.5,0.1-1,0.2-1.5c-0.5-0.1-1-0.1-1.5-0.2
					c0.1-0.6,0.1-1.1,0.2-1.7c-0.3,0-1.4-0.2-1.7-0.2c0,0,0.3-2.8,0.3-3.3c-0.6-0.1-1.2-0.1-1.7-0.2c0.3-2.8,0.6-5.6,0.9-8.4
					c0.6,0.1,1.1,0.1,1.7,0.2c0.1-0.5,0.1-1,0.2-1.5c1.1,0.1,2.2,0.3,3.3,0.3c0.1-0.5,0.5-5.1,0.7-6.7c0.6,0,1.1,0.2,1.7,0.2
					c0.3-2.2,0.5-4.5,0.7-6.7c0.6,0.1,1.1,0.1,1.7,0.2c0.1-1.1,0.3-2.2,0.3-3.3c0.5,0.1,1,0.1,1.5,0.2c0.2-1.7,0.3-3.3,0.5-5.1
					c0.6,0.1,1.1,0.1,1.7,0.2c0.1-0.6,0.1-1.1,0.2-1.7c-1.1-0.1-2.1-0.3-3.3-0.3c0.1-1.1,0.3-2.1,0.3-3.3c0.5,0.1,1,0.1,1.5,0.2
					c0.1-0.6,0.1-1.1,0.2-1.7c1.1,0.1,2.2,0.3,3.3,0.3h0.1c0,0,0,0,0.1-0.1c0.1-0.4,0.1-0.9,0.2-1.5c1.1,0.1,2.1,0.3,3.3,0.3
					c0.1-1.2,0.3-2.3,0.3-3.4c0.6,0.1,1.1,0.1,1.7,0.2c0.1-0.5,0.1-1,0.2-1.5c0.5,0.1,1,0.1,1.5,0.2c0.1-0.6,0.1-1.1,0.3-1.7
					c0.6,0.1,1.1,0.1,1.7,0.2c0.1-0.6,0.1-1.1,0.2-1.7c1.1,0.1,2.2,0.3,3.3,0.3c0.1-0.5,0.1-1,0.2-1.5c0.4,0.1,0.8,0.1,1.2,0.1
					c0.3,0,0.8,0.1,1.1,0.1c0.3,0,0.8,0.1,1.1,0.1C236.9,150.3,237,149.8,237,149.2z M250.2,214.8c-0.6-0.1-1.1-0.1-1.7-0.2
					c-0.1,0.6-0.1,1.2-0.2,1.7c-0.6-0.1-1.1-0.1-1.7-0.2c-0.1,0.6-0.1,1.2-0.2,1.7c-0.5-0.1-1-0.1-1.5-0.2c-0.1,0.5-0.1,1-0.2,1.5
					c-0.6-0.1-1.1-0.1-1.7-0.2c-0.1,0.6-0.1,1.1-0.2,1.7c-0.6-0.1-1.1-0.1-1.7-0.2c-0.1,0.6-0.1,1.2-0.2,1.7
					c-1.1-0.1-2.1-0.3-3.3-0.3c-0.1,0.5-0.1,1-0.2,1.5c-1.7-0.2-3.3-0.3-5.1-0.5c-0.1,0.6-0.1,1.1-0.2,1.7c-3.3-0.3-6.7-0.7-10-1.1
					c0.1-0.6,0.1-1.1,0.2-1.7c-0.6-0.1-1.1-0.1-1.7-0.2c0.1-0.5,0.1-1,0.2-1.5c-0.5-0.1-1-0.1-1.5-0.2c0.1-0.6,0.1-1.1,0.2-1.7
					c-0.6-0.1-1.1-0.1-1.7-0.2c0.1-0.6,0.1-1.1,0.2-1.7c-0.6-0.1-1.1-0.1-1.7-0.2c0.1-0.5,0.1-1,0.2-1.5c-1.1-0.1-2.1-0.3-3.3-0.3
					c-0.1,0.5-0.1,1-0.2,1.5c-0.6-0.1-1.1-0.1-1.7-0.2c-0.1,0.6-0.1,1.1-0.2,1.7c0.6,0.1,1.1,0.1,1.7,0.2c-0.1,0.6-0.1,1.1-0.2,1.7
					c0.3,0,0.6,0.1,0.9,0.1c0.3,0,0.5,0.1,0.9,0.1c-0.1,0.5-0.1,1-0.2,1.5c0.5,0.1,1,0.1,1.5,0.2c-0.1,0.6-0.1,1.1-0.2,1.7
					c0.6,0.1,1.1,0.1,1.7,0.2c-0.1,0.6-0.1,1.1-0.2,1.7c1.7,0.2,3.3,0.3,5,0.5c0,0.5-0.2,1-0.1,1.5c2.8,0.3,5.5,0.6,8.3,0.9
					c0.1-0.5,0.1-1,0.2-1.5c1.7,0.2,3.3,0.3,5.1,0.5c0.1-0.6,0.1-1.1,0.2-1.7c1.2,0.1,2.3,0.3,3.4,0.3c0.1-0.6,0.1-1.1,0.2-1.7
					c0.5,0.1,1,0.1,1.5,0.2c0.1-0.5,0.1-1,0.2-1.5c0.6,0.1,1.1,0.1,1.7,0.2c0.1-0.6,0.1-1.2,0.2-1.7c1.1,0.1,2.1,0.3,3.3,0.3
					c0.1-0.6,0.1-1.1,0.2-1.7c0.6,0.1,1.1,0.1,1.7,0.2c0.1-1.1,0.3-2.2,0.3-3.3c0.6,0.1,1.1,0.1,1.7,0.2
					C250.1,215.9,250.2,215.3,250.2,214.8c0.5,0,1,0.1,1.5,0.2c0.1-0.5,0.1-1,0.2-1.5c-0.5-0.1-1-0.1-1.5-0.2
					C250.3,213.8,250.3,214.3,250.2,214.8z M217.9,199.6c0.1-0.5,0.1-1.1,0.2-1.6c-0.5-0.1-1-0.1-1.5-0.2c-0.1,0.6-0.1,1.1-0.2,1.6
					C216.9,199.5,217.4,199.6,217.9,199.6c-0.1,1.1-0.2,2.2-0.3,3.3c1.1,0.1,2.2,0.3,3.4,0.3c-0.1,0.6-0.1,1.1-0.2,1.7
					c0.5,0.1,1,0.1,1.5,0.2c-0.1,0.5-0.1,1-0.2,1.5c0.9,0.1,1.6,0.2,2.5,0.3c0.9,0.1,1.6,0.2,2.6,0.3c-0.1,0.6-0.1,1.2-0.2,1.7
					c1.2,0.1,2.3,0.3,3.4,0.3c0.3-2.4,0.9-7.6,0.9-8.3C226.8,200.6,222.4,200.1,217.9,199.6z M249.1,194.4c0.5,0.1,1,0.1,1.5,0.2
					c0.1-0.5,0.1-1,0.2-1.5c1.7,0.2,3.3,0.3,5,0.5c0.4-2.7,1.3-11.1,1.2-11.7c-0.5-0.1-1.1-0.1-1.6-0.2c0.1-0.6,0.1-1.1,0.2-1.7
					c-1.1-0.1-2.2-0.3-3.3-0.3c0.1-0.5,0.1-1,0.2-1.5c-0.6-0.1-1.1-0.1-1.7-0.2c0.1-0.6,0.1-1.1,0.2-1.7c-3.3-0.3-6.7-0.7-9.9-1.1
					c-0.3,2.2-0.5,4.5-0.7,6.7c0.6,0.1,1.1,0.1,1.7,0.2c-0.3,2.2-0.4,4.4-0.7,6.6c-0.3,0-0.6-0.1-0.9-0.1c-0.3,0-0.5-0.1-0.8-0.1
					c-0.2,1.7-0.3,3.3-0.5,5c0.6,0.1,1.1,0.1,1.7,0.2c-0.1,0.6-0.1,1.1-0.2,1.7c0.6,0.1,1.1,0.1,1.7,0.2c-0.1,0.6-0.1,1.1-0.2,1.7
					c0.5,0.1,1,0.1,1.5,0.2c0.1-0.6,0.1-1.1,0.2-1.7c0.6,0.1,1.1,0.1,1.7,0.2c0.1-0.6,0.1-1.1,0.2-1.7
					C247,194.1,248.1,194.2,249.1,194.4L249.1,194.4z M233.7,194.5c-0.3,2.8-0.6,5.6-0.9,8.3c0.6,0.1,1.1,0.1,1.7,0.2
					c-0.3,3.3-0.7,6.7-1.1,10c1.1,0.1,2.1,0.3,3.3,0.3c0.1-0.5,0.1-1,0.2-1.5c0.6,0.1,1.1,0.1,1.7,0.2c0.1-1.2,0.3-2.3,0.3-3.4
					c0.6,0.1,1.1,0.1,1.7,0.2c0.3-1.9,0.7-5.9,0.7-6.6c-0.5-0.1-1.1-0.1-1.6-0.2c0.1-1.1,0.3-2.2,0.3-3.4c-0.6-0.1-1.1-0.1-1.7-0.2
					c0.1-0.5,0.1-1,0.2-1.5c-0.5-0.1-1-0.1-1.5-0.2c0.1-0.6,0.1-1.1,0.2-1.7C236,194.8,234.9,194.6,233.7,194.5z M233,186
					c0.2-1.7,0.3-3.3,0.5-5.1c-0.6-0.1-1.1-0.1-1.7-0.2c0.1-1.2,0.3-2.3,0.3-3.4c-0.6-0.1-1.1-0.1-1.7-0.2c0.1-1.1,0.3-2.2,0.3-3.3
					c0.6,0.1,1.1,0.1,1.7,0.2c0-0.3,0.1-0.6,0.1-0.9s0.1-0.5,0.1-0.9c-0.6-0.1-1.1-0.1-1.7-0.2c0.1-0.5,0.1-1,0.2-1.5
					c-2.2-0.3-4.4-0.5-6.6-0.7c-0.1,0.5-0.1,1-0.2,1.5c-0.6-0.1-1.1-0.1-1.7-0.2c-0.1,0.6-0.1,1.1-0.2,1.7c-0.3,0-0.6-0.1-0.9-0.1
					s-0.5-0.1-0.8-0.1c-0.1,0.6-0.1,1.1-0.2,1.7c2.8,0.3,5.6,0.6,8.4,0.9c-0.1,0.5-0.1,1-0.2,1.5c-0.6-0.1-1.1-0.1-1.6-0.2
					c-0.1,1.2-0.3,2.3-0.3,3.4c0.6,0.1,1.1,0.1,1.7,0.2c-0.2,1.6-0.3,3.3-0.5,5c0.5,0.1,1,0.1,1.5,0.2c-0.1,1.1-0.3,2.1-0.3,3.3
					c0.6,0.1,1.1,0.1,1.7,0.2c0.1-1.1,0.3-2.1,0.3-3.3C231.9,185.9,232.4,185.9,233,186z M208,198.5c-0.1,0.6-0.1,1-0.2,1.5
					c0.6,0.1,1.1,0.1,1.7,0.2c-0.1,0.6-0.1,1.1-0.2,1.7c0.6,0.1,1.1,0.1,1.7,0.2c-0.1,0.6-0.1,1.1-0.2,1.7c0.5,0.1,1,0.1,1.5,0.2
					c0,0.5-0.2,1-0.1,1.5c1.2,0.1,2.3,0.3,3.4,0.3c0.1-1.1,0.3-2.1,0.3-3.3c-0.6-0.1-1.1-0.1-1.7-0.2c0.1-1.1,0.3-2.1,0.3-3.3
					c-0.6-0.1-1.1-0.1-1.7-0.2c0.1-1.2,0.3-2.3,0.3-3.4c-0.5-0.1-1-0.1-1.5-0.2c0.1-1.1,0.3-2.2,0.3-3.3c-0.4-0.1-5.1-0.5-6.7-0.7
					c-0.1,1.1-0.3,2.1-0.3,3.3c0.6,0.1,1.1,0.1,1.7,0.2c-0.1,1.2-0.3,2.3-0.3,3.4C206.9,198.4,207.4,198.4,208,198.5z M261.4,158.7
					c-0.1,0.5-0.1,1-0.2,1.5c1.1,0.1,2.1,0.3,3.3,0.3c-0.1,0.6-0.1,1.1-0.2,1.7c1.1,0.1,2.1,0.3,3.3,0.3c-0.1,0.6-0.1,1.1-0.2,1.7
					c1.2,0.1,2.3,0.3,3.4,0.3c0-0.3,0.1-0.6,0.1-0.9s0.1-0.5,0.1-0.9c1.1,0.1,2.2,0.3,3.3,0.3c0.1-0.6,0.1-1.1,0.2-1.7
					c0.6,0.1,1.1,0.1,1.7,0.2c0.1-0.5,0.1-1,0.2-1.5C271.3,159.7,266.3,159.2,261.4,158.7z M223.4,181.5c-0.6-0.1-1.1-0.1-1.7-0.2
					c0.2-1.6,0.3-3.3,0.5-4.9v-0.1l0,0c-1.1-0.1-2.1-0.3-3.2-0.3c-0.3,2.8-0.6,5.7-0.9,8.5c0.5,0.1,1,0.1,1.5,0.2
					c-0.2,1.7-0.3,3.3-0.5,5c0.6,0.1,1.1,0.1,1.7,0.2c0.1-1.1,0.3-2.2,0.3-3.3c0.1-1.1,0.3-2.2,0.3-3.3c0.6,0.1,1.1,0.1,1.7,0.2
					C223.2,182.6,223.3,182.1,223.4,181.5z M224.2,188.4c-0.5-0.1-1-0.1-1.5-0.2c-0.3,3.3-0.7,6.6-1,9.9c1.1,0.1,2.1,0.3,3.3,0.3
					c0.1-0.6,0.1-1.1,0.2-1.7c0.6,0.1,1.1,0.1,1.7,0.2c0.1-1.1,0.3-2.1,0.3-3.3c-0.6-0.1-1.1-0.1-1.7-0.3c0.1-1.1,0.3-2.1,0.3-3.3
					c-0.3,0-0.6-0.1-0.9-0.1c-0.3,0-0.5-0.1-0.9-0.1C224.1,189.5,224.2,189,224.2,188.4z M228.8,161.8c-1.6-0.2-3.3-0.3-5-0.5
					c-0.2,1.7-0.3,3.3-0.5,5c1.7,0.2,3.3,0.3,5,0.5c0.1-0.5,0.1-1,0.2-1.5c0.6,0.1,1.1,0.1,1.7,0.2c0.1-0.6,0.1-1.2,0.2-1.7
					c0.5,0.1,1,0.1,1.5,0.2c0.1-0.6,0.1-1.1,0.2-1.7c-0.5-0.1-1-0.1-1.5-0.2c0-0.3,0.1-0.4,0.1-0.6l0.5-4.3c0.8,0.1,1.3,0.2,2.1,0.3
					c0.1,0-0.2,1.6-0.1,1.6c1.4,0.2,3.1,0.3,4.4,0.5c-0.1,0.6-0.1,1.1-0.2,1.7c-0.5,0-1-0.2-1.5-0.1c-0.1,1.1-0.3,2.1-0.3,3.3
					c2.2,0.3,4.4,0.4,6.6,0.7c0.1-0.6,0.1-1.1,0.2-1.7c1.7,0.2,3.3,0.3,5.1,0.5c-0.1,0.6-0.1,1.1-0.2,1.7c2.2,0.3,4.5,0.5,6.7,0.7
					c-0.1,1.1-0.3,2.1-0.3,3.3c-1.1-0.1-2.1-0.3-3.3-0.3c0.1-0.5,0.1-1,0.2-1.5c-3.3-0.3-6.7-0.7-10-1.1c-0.1,0.5-0.1,1-0.2,1.5
					c-1.2-0.1-2.3-0.3-3.4-0.3c-0.1,0.6-0.1,1.1-0.2,1.7c-0.5-0.1-1-0.1-1.5-0.2c-0.1,1.1-0.3,2.2-0.3,3.3c3.1,0.3,6.1,0.7,9.1,0.9
					c3.1,0.3,6.1,0.7,9.2,1c-0.1,0.6-0.1,1.2-0.2,1.7c1.1,0.1,2.1,0.3,3.3,0.3c0,0.6-0.2,1.1-0.2,1.7c0.6,0.1,1.1,0.1,1.7,0.2
					c-0.1,0.5-0.1,1-0.2,1.5c0.6,0.1,1.1,0.1,1.7,0.2c-0.1,0.6-0.1,1.1-0.2,1.7c0.5,0.1,1,0.1,1.5,0.2c-0.5,5.1-1.1,10-1.6,15.1
					c0.6,0.1,1.1,0.1,1.6,0.2c-0.1,0.6-0.1,1.1-0.2,1.7c-1.6-0.2-3.3-0.3-5-0.5c0.1-0.6,0.1-1.1,0.2-1.7c-2.2-0.3-4.5-0.5-6.7-0.7
					c-0.1,0.6-0.1,1.1-0.3,1.7c-1.1-0.1-2.1-0.3-3.3-0.3c-0.1,0.5-0.1,1-0.2,1.5c-0.6-0.1-1.1-0.1-1.7-0.2c-0.1,1.2-0.3,2.3-0.3,3.4
					l-0.1,0.4c0,0.3-0.1,0.7-0.1,1.1c0.6,0.1,1.1,0.1,1.7,0.2c-0.2,1.7-0.3,3.3-0.5,5.1c-0.6-0.1-1.1-0.1-1.7-0.2
					c-0.1,1.2-0.3,2.3-0.3,3.4c0.6,0.1,1.1,0.1,1.7,0.2c0.1-0.6,0.1-1.1,0.2-1.7c1.9,0.2,4.4,0.5,6.3,0.7l0.3-1.7
					c0.7,0.1,1.4,0.2,2.1,0.3c0.1-0.5,0.1-1,0.2-1.5c1.1,0.1,2.2,0.3,3.4,0.3c0.1-0.6,0.1-1.1,0.2-1.7c0.5,0.1,1,0.1,1.5,0.2
					c0.1-0.6,0.1-1.1,0.2-1.7c0.6,0.1,1.1,0.1,1.7,0.2c0.2-1.1,0.2-2.2,0.4-3.3c0.6,0.1,1.1,0.1,1.7,0.2c0.2-1.6,0.3-3.3,0.5-5
					c0.5,0.1,1,0.1,1.5,0.2c0.9-7.8,1.7-15.5,2.5-23.3c-0.5-0.1-1-0.1-1.5-0.2c0.1-1.1,0.3-2.2,0.3-3.3c0.1-1.1,0.3-2.2,0.3-3.3
					c-0.6-0.1-1.2-0.1-1.7-0.3c0.1-0.6,0.1-1.1,0.2-1.7c-0.6-0.1-1.1-0.1-1.7-0.2c0.1-0.5,0.1-1,0.2-1.5c-0.5-0.1-1-0.1-1.5-0.2
					c0-0.6,0.2-1.1,0.2-1.7c-0.6-0.1-1.1-0.1-1.7-0.2c0.1-0.6,0.1-1.1,0.2-1.7c-1.1-0.1-2.2-0.3-3.3-0.3c0.2-1.7,0.3-3.3,0.5-5.1
					c-1.7-0.2-3.3-0.3-5.1-0.5c0.1-0.5,0.1-1,0.2-1.5c-2.4-0.3-9.3-1.1-10-1c-0.1,0.5-0.1,0.9-0.2,1.5c-2.2-0.3-4.5-0.5-6.7-0.7
					c-0.1,0.6-0.1,1.1-0.2,1.7c-0.6-0.1-1.1-0.1-1.7-0.2c-0.1,0.6-0.1,1.1-0.2,1.7c-1.1-0.1-2.1-0.3-3.3-0.3c-0.1,0.5-0.1,1-0.2,1.5
					c-0.6-0.1-1.1-0.1-1.7-0.2c-0.1,0.6-0.1,1.1-0.2,1.7c0.5,0.1,1.1,0.1,1.6,0.2C229.2,158.5,228.8,161.7,228.8,161.8z
					 M236.4,186.4c-0.6-0.1-1.2-0.1-1.7-0.2c-0.2,1.6-0.3,3.3-0.5,4.9v0.1c0,0,0,0.1,0,0c0.6,0.1,1.1,0.1,1.6,0.2
					c0.2-1.1,0.3-2.3,0.4-3.4c0.3,0,0.6,0.1,0.9,0.1c0.3,0,0.6,0.1,0.9,0.1c0.4-2.8,0.9-7.6,0.9-8.3c-0.5-0.1-1.1-0.1-1.6-0.2
					C236.8,181.9,236.6,184.1,236.4,186.4z M233.2,169.1c0.1-0.6,0.1-1.1,0.2-1.7c0.3,0,0.6,0.1,0.9,0.1c0.3,0,0.5,0.1,0.8,0.1
					c0.1-0.5,0.1-1,0.2-1.5c-1.2-0.1-2.3-0.3-3.4-0.3c-0.1,0.5-0.1,1-0.2,1.5c-0.5,0-1-0.2-1.5-0.1c-0.1,0.6-0.1,1.1-0.2,1.7
					C231,168.8,232,169,233.2,169.1z M217.8,170.7c1.1,0.1,2.2,0.3,3.3,0.3c0.1-1.1,0.3-2.1,0.3-3.3c-0.5-0.1-1-0.1-1.5-0.2
					c-0.1,0.6-0.1,1.1-0.3,1.7c-0.6-0.1-1.1-0.1-1.7-0.2C217.9,169.7,217.8,170.2,217.8,170.7z M215.5,190.7
					c0.1-1.1,0.3-2.2,0.3-3.3c-0.3,0-0.6-0.1-0.9-0.1s-0.5-0.1-0.8-0.1c-0.1,1.1-0.3,2.1-0.3,3.3C214.4,190.6,215,190.7,215.5,190.7
					z M213.1,182.2c-0.1,1.1-0.3,2.2-0.3,3.3c0.5,0.1,1,0.1,1.5,0.2c0.1-1.1,0.3-2.1,0.3-3.3C214.2,182.2,213.7,182.2,213.1,182.2z
					 M215.5,192.5c-0.1,0.6-0.1,1.1-0.2,1.6c0.6,0.1,1.1,0.1,1.7,0.2c0.1-0.6,0.1-1.1,0.2-1.6C216.6,192.6,216,192.6,215.5,192.5z
					 M220.3,162.6c-0.1,0.6-0.1,1.1-0.2,1.7c0.3,0,0.5,0.1,0.8,0.1c0.3,0,0.5,0,0.7,0.1c0.1-0.6,0.1-1.1,0.2-1.7
					C221.4,162.7,220.9,162.7,220.3,162.6z M242.9,156.4l3.3,0.4l-0.4,3.3l-3.3-0.4L242.9,156.4z"/>
			</g>
		</g>
	</g>
	<g id="Buttons--group_1_">
		<g id="Button-3--group">
			<path id="Button-3--body" class="st7" d="M259,303.2c-4,0-6.1-3.2-5.9-7.4c0.2-4.2,2.6-7.4,6.6-7.4h6.1c4,0,6.1,3.2,5.9,7.4
				c-0.2,4.2-2.6,7.4-6.6,7.4H259z"/>
			
				<ellipse id="Button-3" transform="matrix(0.1726 -0.985 0.985 0.1726 -76.8153 500.2498)" class="st8" cx="259.4" cy="295.8" rx="7.4" ry="6.2"/>
		</g>
		<g id="Button-2--group">
			<path id="Button-2--body" class="st7" d="M232.9,303.2c-4,0-6.1-3.2-5.9-7.4c0.2-4.2,2.6-7.4,6.6-7.4h6.1c4,0,6.1,3.2,5.9,7.4
				s-2.6,7.4-6.6,7.4H232.9z"/>
			
				<ellipse id="Button-2" transform="matrix(0.1726 -0.985 0.985 0.1726 -98.3718 474.5878)" class="st8" cx="233.3" cy="295.8" rx="7.4" ry="6.2"/>
		</g>
		<g id="Button-1--group">
			<path id="Button-1--body" class="st7" d="M207.2,294.2c-4,0-6.1-3.2-5.9-7.4s2.6-7.4,6.6-7.4h6.1c4,0,6.1,3.2,5.9,7.4
				s-2.6,7.4-6.6,7.4H207.2z"/>
			
				<ellipse id="Button-1" transform="matrix(0.1726 -0.985 0.985 0.1726 -110.6936 441.786)" class="st8" cx="207.6" cy="286.8" rx="7.4" ry="6.2"/>
		</g>
	</g>
	<g id="RightHand--group">
		<path id="RightHand--bg" d="M215.5,141.7c-5.2,5.1-11.7,8.1-17.8,8.1c-8.1,0-14-5.1-15.6-13.3c-1-5.4,0.9-11.3,5.4-16.7
			c5.8-6.9,14.9-12,21.7-12.1h0.2c1.3,0,2.6,0.2,3.8,0.6h0.2l0.1,0.1c4.5,1.8,7.9,6.2,9.1,11.8C224,127.7,221.4,135.7,215.5,141.7z"
			/>
		<path id="RightHand" class="st0" d="M210.3,136.4c4.2-4.2,6-9.6,5-14.7c-0.6-3.1-2.3-5.5-4.6-6.4c-0.4-0.1-0.9-0.2-1.3-0.2h-0.1
			c-4,0-11.3,3.6-16.1,9.4c-1.8,2.1-4.6,6.3-3.8,10.6c1.1,6,5.1,7.3,8.3,7.3C201.8,142.4,206.5,140.2,210.3,136.4z"/>
	</g>
	<g id="Chan--group">
		<path id="Chan-2--shadow" class="st9" d="M46.6,458c-60.3,15.4-43.1-112.5,40.8-164.9c116.6-72.8,88.1-165.9,104.8-185.5"/>
		<path id="Chan-2" class="st10" d="M45.6,457c-60.3,15.4-43.1-112.5,40.8-164.9c116.6-72.8,88.1-165.9,104.8-185.5"/>
		<path id="Chan-1--shadow" class="st9" d="M234.5,46C198,33.5,163.8,70.7,158,120.1c-5.7,49.4,18.4,134.8-40.2,202.8
			C50.5,401,101.1,441.8,49.4,455"/>
		<path id="Chan-1" class="st10" d="M233.5,45C197,32.5,162.8,69.7,157,119.1c-5.7,49.4,18.4,134.8-40.2,202.8
			C49.5,400,100.1,440.8,48.4,454"/>
	</g>
	<g id="RightEar--group">
		<path id="RightEar--bg" d="M238.2,84.1c-0.4,4.4-3.8,8.4-11.1,12.9c-4.7,3-10.2,5.5-13.9,6.5c-6.5,1.7-12.3,2.6-17.3,2.6
			c-6.7,0-10.6-1.6-12.7-2.9c-4.8-3-4.4-7.2-4.2-8.5c0.5-3.1,2.9-5.5,5.9-6.2c3.5-0.8,13.5-5.8,23.6-12.6c4.2-2.9,10.7-4.8,16.1-4.8
			c5.8,0,9.1,2.2,10.8,4.1C237.5,77.6,238.5,80.7,238.2,84.1z"/>
		<path id="RightEar" class="st1" d="M186.3,96c0,0.3,0.4,0.7,0.9,0.9c1.1,0.7,3.6,1.8,8.8,1.8c4.3,0,9.5-0.8,15.4-2.3
			c5.2-1.4,19.1-8.8,19.5-13c0.1-1.3-0.2-2.4-0.9-3.2c-1-1.1-2.8-1.7-5.3-1.7c-3.9,0-8.9,1.5-11.9,3.5c-8.5,5.7-20.5,12.5-26.1,13.7
			C186.4,95.8,186.3,95.9,186.3,96z"/>
	</g>
	<g id="LeftArm--group">
		<path id="LeftArm--bg" d="M302.9,98c-6.4,2.9-12.4,6.6-17.6,11.1c-12.1,10.6-12.6,19.4-10.8,24.8c2.5,7.7,11.1,13.4,21.9,14.6
			c7.1,0.7,16.2-1.3,26.7-3.6c13.9-3.1,29.7-6.6,42.9-3.9c19.6,4.1,33.3,15,53.1,32.7l10.3,9.2c1.5,1.3,3.9,1.2,5.2-0.4
			c1.3-1.5,1.2-3.9-0.4-5.2l0,0l-2.9-2.6c-24-21.7-39.9-36-63.8-41c-14.8-3.1-31.3,0.6-46,3.9c-9.5,2.1-18.5,4.1-24.3,3.5
			c-7.8-0.8-14.1-4.6-15.7-9.5c-1.5-4.7,1.6-10.7,8.7-17c20.7-18.2,59.1-23.7,87.5-12.5c4.7,1.9,7.4-5.1,2.7-6.9
			c-11.4-4.4-24.6-6.6-37.7-6.2C332.6,89.4,312.2,93.8,302.9,98z"/>
		<path id="LeftArm" class="st0" d="M440.3,135.7c11.7,12.2,17,60.3-6,41.6l0,0l-2.9-2.6c-24-21.7-39.9-36-63.8-41
			c-14.8-3.1-31.3,0.6-46,3.9c-9.5,2.1-18.5,4.1-24.3,3.5c-7.8-0.8-14.1-4.6-15.7-9.5c-1.5-4.7,1.6-10.7,8.7-17
			c20.7-18.2,59.3-24,87.5-12.5C382.4,104.1,423.9,118.6,440.3,135.7z"/>
	</g>
	<g id="RightFootGroup">
		<path id="RightFoot--bg" d="M209.2,332.7c-2.4,3.7-6.4,5.7-11.5,5.7c-1.9,0-4-0.3-6.2-0.8c-25-6-59.3-43.6-63.6-64.5
			c-1.9-9.4-0.2-18,5-24.4c4.6-5.7,11.4-8.8,18.9-8.8c6.8,0,13.6,2.5,19.8,7.3c12.2,9.4,32.9,50.5,37.3,60.7
			C211.4,313.7,213.8,325.6,209.2,332.7z"/>
		<path id="RightFoot_1_" class="st0" d="M135,271.5c3.8,18.2,36.2,53.6,58.1,58.8c1.7,0.4,3.2,0.6,4.5,0.6c3.4,0,4.7-1.3,5.4-2.3
			c2.3-3.5,1.5-12.1-1-17.9c-6.1-13.9-25.3-50.3-35.1-57.8c-4.9-3.8-10.2-5.8-15.3-5.8c-5.3,0-10,2.2-13.2,6.1
			C134.8,257.9,133.6,264.4,135,271.5z"/>
	</g>
	<g id="Head--group">
		<path id="Head--bg" d="M341.3,12.8c1.6,0,3.2,0,4.8,0.1c20.6,0.6,39.5,6.5,55.9,17c11.2,7.2,17.5,11.4,25.9,25.2
			c1.5,2.5,9,0.8,7.9-1.1c-10.1-17.6-17.5-22.3-29.8-30.3c-17.7-11.4-37.8-17.6-59.7-18.2c-1.6,0-3.3-0.1-5-0.1l0,0
			c-1.6,0-3.3,0-4.9,0.1c-24.3,0.6-47.8,6.6-67.8,17.1c-20.2,10.6-37.1,26.1-48.9,44.7c-7.7,12.3-10.3,23.9-7.4,33.5
			c2.4,7.8,7.9,12.7,12.3,14.6c1.4,0.6,2.9,0.9,4.7,0.9c9.3,0,34.7-9.3,45.7-24.8c8.4,4.5,17.6,6.7,28.1,6.7c12.6,0,25-3.2,36.4-6.9
			c3-1,3.8-2.2,3.9-4.1c0-1.3-1.2-3.6-3.8-3.5c-0.3,0-0.7,0.1-1,0.2c-11.2,3.6-23.3,6.9-35.4,6.9c-9.3,0-18.6-2-27.4-7.4
			c-0.6-0.4-1.3-0.5-1.9-0.5c-1.3,0-2.5,0.6-3.2,1.8l-0.1,0.1c-7.9,14.3-33.3,24.1-41.2,24.1c-0.7,0-1.3-0.1-1.7-0.3
			c-2.8-1.2-6.6-4.6-8.2-10c-2.3-7.5,0-17,6.6-27.4c22.5-35.7,63.4-57.1,110.6-58.3l0,0C338.1,12.8,339.7,12.8,341.3,12.8"/>
		<path id="Head" class="st0" d="M341.5,84.1c-1-0.4-2-0.7-3-0.3c-19.7,6.3-42.5,12-62.8-0.5c-1.7-1.1-4-0.5-5.1,1.2l-0.1,0.1
			c-8.6,15.7-38.3,26-43,23.9c-2.8-1.2-6.6-4.6-8.2-10c-2.3-7.5,0-17,6.6-27.4c22.5-35.7,63.4-57.1,110.6-58.3l0,0
			c3.1-0.1,6.3-0.1,9.5,0c20.6,0.6,39.5,6.5,55.9,17c13.2,8.5,19.7,12.7,30.6,33.6C438.1,73.9,348.1,86.9,341.5,84.1z"/>
	</g>
	<g id="LeftEar--group">
		<path id="LeftEar--bg" d="M526.3,41.8c-0.5,1.7-1.2,3.4-2,5.2c-5,10-17.7,23-38,29.1c-4.5,1.4-9.3,2-14,2h-0.1
			c-13,0-34.2-4.9-61.6-28.3c-1.9-1.7-5.1-4.8-7.1-7c-2.3-2.5-2.8-6.1-1.5-9.1s4.4-5.1,7.8-5.1c0.2,0,0.3,0,0.5,0
			c13.9,0.8,30.1,1.2,48.4,1.2c8.1,0,14.8-0.1,19.3-0.1c2,0,3.5,0,4.5,0c7.4,0,13.3-0.1,18.2-0.1c8.1,0,13.7,0.1,17.1,0.2
			c2.9,0.1,5.6,1.5,7.3,3.9C526.6,36,527.1,38.9,526.3,41.8z"/>
		<path id="LeftEar" class="st1" d="M415.3,44.1C441,66,460.4,70.6,472.1,70.6h0.1c4,0,8-0.6,11.9-1.7c18.1-5.4,29.2-16.6,33.5-25.3
			c0.8-1.5,1.2-2.8,1.5-3.9c0.4-1.3-0.6-2.6-1.9-2.7c-3.3-0.1-8.9-0.2-16.7-0.2c-5.4,0-11.6,0-18.2,0.1c-3.3,0-12.2,0.2-23.9,0.2
			c-13.9,0-31.7-0.2-48.8-1.2c0,0,0,0-0.1,0c-0.9,0-1.5,1.1-0.8,1.8C410.7,39.9,413.7,42.8,415.3,44.1z"/>
	</g>
	<g id="Face--group">
		<path id="RightEye" d="M242.5,60.9c-4.1,0-7.4,3.3-7.4,7.4c0,9.9,14.8,9.9,14.8,0C249.9,64.2,246.6,60.9,242.5,60.9z"/>
		<path id="LeftEye" d="M328.1,40.4c-4.1,0-7.4,3.3-7.4,7.4c0,9.9,14.8,9.9,14.8,0C335.5,43.7,332.2,40.4,328.1,40.4L328.1,40.4
			L328.1,40.4z"/>
		<path id="Nose" d="M282.8,60.1c-7.4,0.8-12.3,2.5-15.6,4.9c-5.9,4.4-4.1,9.9,2.5,10.7c6.6,0.8,7.1,1.2,13.2-3.3
			C289.4,67.5,290.2,59.3,282.8,60.1L282.8,60.1z"/>
	</g>
	<g id="LeftLEg--group">
		<path id="LetLeg" class="st0" d="M337.3,339.9c-4.6-5.2-3.7-15.7-1.9-29.4c2.6-19.8,5-34.5,25.4-50.8c24.4-19.5,62.2-15,76.2-0.5
			c3.6,3.7,6.7,10.9,7.3,18.8c0.9,11.4-22.2,42.4-44.8,51.8C376.9,339.4,345.5,349.1,337.3,339.9z"/>
		<path id="LeftLeg--bg_1_" d="M337.3,343.6c-1.2,0-2.3-0.5-3-1.6c-4.7-6.7-4.5-17.2-2.6-32c2.5-19,4.6-35.5,26.8-53.2
			c26.8-21.4,63.7-14,78.4,0.7c1.4,1.4,1.4,3.8,0,5.2s-3.8,1.4-5.2,0c-12.5-12.5-45.4-18.7-68.6-0.1c-18.9,15.1-21.4,28.2-24.1,48.4
			c-1.4,11-2.3,21.8,1.3,26.7c1.2,1.7,0.8,4-0.9,5.2C338.8,343.4,338,343.6,337.3,343.6z"/>
	</g>
	<g id="LeftFoot--group">
		<path id="LeftFoot--bg" d="M348.6,335.9c-0.4,1.9-2,9.1-6.7,16.2c-7,10.6-17.8,16.5-30.4,16.5c-7.2,0-12.9-2.1-16.8-6.2
			c-7.5-7.8-7.1-21-6.7-33.7v-0.1c0.2-6.4,0.4-13.1-0.4-18.5c-0.7-4.4-1.8-9.1-3.1-14.5c-2.4-10.2-4.6-20.1-4.3-28.7
			c0.4-10.7,4.7-18.9,12.8-24.4c3.5-2.4,7.4-3.5,11.4-3.5c9.3,0,18.9,6.2,28.7,18.6c7.1,8.9,13.1,20,15.4,28.1
			C354.9,307.5,353.4,320.6,348.6,335.9z"/>
		<path id="LeftFoot_1_" class="st0" d="M301.9,355.5c2,2.1,5.2,3.1,9.6,3.1c22.6,0,27-23.7,27.2-24.7c0-0.2,0.1-0.4,0.1-0.6
			c4.4-13.9,5.7-25.2,0-44.8c-3.7-13.2-21.1-39.4-34.4-39.4c-2,0-4,0.6-5.8,1.9c-11.7,7.8-9.3,21.8-4.4,42.4
			c1.2,5.1,2.5,10.4,3.2,15.3c1,6.4,0.8,13.5,0.5,20.4C297.7,339.7,297.3,350.7,301.9,355.5z"/>
	</g>
</g>
</svg>
