<svg xmlns="http://www.w3.org/2000/svg" viewBox="0 0 1000 1000">
  <g class="Ball--group">
    <g
            id="g699"
            style="display:inline"
            transform="matrix(0.23732053,0,0,-0.23732053,325.45956,763.05376)">
      <path
              d="m 184.664,1199.41 553.172,-9.15 -68.723,-702.721 c 0,0 -50.883,-14.801 -219.75,-12.008 -168.867,2.789 -214.918,19.199 -214.918,19.199 l -49.781,704.68"
              style="display:inline;fill:#ffffff;fill-opacity:1;fill-rule:nonzero;stroke:none"
              id="path324" />
      <path
              d="m 248.648,506.531 c 20.282,-4.449 77.278,-13.949 200.961,-16 124.411,-2.109 184.157,5.598 205.641,9.418 l 66.074,675.581 -520.543,8.61 z M 490.465,460.18 c -12.934,0 -26.688,0.109 -41.352,0.351 -169.379,2.809 -217.722,19.36 -219.695,20.059 -5.617,2.012 -9.516,7.129 -9.934,13.082 l -49.781,704.678 c -0.297,4.2 1.184,8.32 4.074,11.37 2.895,3.06 7.078,4.76 11.137,4.69 l 553.168,-9.15 c 4.191,-0.07 8.164,-1.89 10.949,-5.01 2.793,-3.13 4.141,-7.28 3.739,-11.45 L 684.039,486.07 c -0.594,-6.101 -4.851,-11.23 -10.742,-12.941 -1.824,-0.52 -46.121,-12.949 -182.832,-12.949"
              style="display:inline;fill:#100f0d;fill-opacity:1;fill-rule:nonzero;stroke:none"
              id="path326" />
      <path
              d="m 731.816,1266.83 -538.605,8.9 0.859,52.13 538.61,-8.91 -0.864,-52.12"
              style="display:inline;fill:#ffffff;fill-opacity:1;fill-rule:nonzero;stroke:none"
              id="path328" />
      <path
              d="m 208.453,1290.48 508.613,-8.41 0.372,22.13 -508.618,8.41 z m 523.371,-38.65 c -0.09,0 -0.176,0 -0.254,0 l -538.609,8.9 c -8.281,0.14 -14.887,6.97 -14.75,15.25 l 0.859,52.13 c 0.067,3.97 1.707,7.76 4.571,10.53 2.855,2.77 6.629,4.22 10.675,4.22 l 538.61,-8.91 c 3.984,-0.06 7.773,-1.71 10.539,-4.57 2.762,-2.86 4.285,-6.7 4.219,-10.68 l -0.871,-52.12 c -0.137,-8.2 -6.825,-14.75 -14.989,-14.75"
              style="display:inline;fill:#100f0d;fill-opacity:1;fill-rule:nonzero;stroke:none"
              id="path330" />
      <path
              d="m 717.078,644.898 c 0,0 -136.48,-13.386 -268.223,-11.207 -131.742,2.18 -261.472,19.969 -261.472,19.969 l -19.199,351.78 c 0,0 129.996,-12.581 286.574,-15.17 156.574,-2.579 293.14,5.589 293.14,5.589 l -30.82,-350.961"
              style="display:inline;fill:#ad7a39;fill-opacity:1;fill-rule:nonzero;stroke:none"
              id="path332" />
      <path
              d="m 201.676,666.941 c 35.285,-4.371 141.308,-16.5 247.429,-18.25 106.672,-1.781 217.641,6.848 254.125,10.02 l 28.211,321.258 c -41.855,-2.071 -153.64,-6.688 -276.933,-4.699 -122.399,2.019 -229.723,10.242 -270.403,13.691 z m 276.926,-48.492 c -9.993,0 -19.997,0.071 -29.997,0.242 -131.117,2.168 -261.957,19.93 -263.261,20.11 -7.125,0.969 -12.547,6.859 -12.942,14.039 l -19.199,351.78 c -0.238,4.36 1.438,8.62 4.598,11.65 3.152,3.01 7.445,4.51 11.824,4.1 1.297,-0.13 131.25,-12.55 285.383,-15.1 154.472,-2.54 290.808,5.49 291.992,5.56 4.512,0.29 8.613,-1.4 11.648,-4.51 3.047,-3.13 4.571,-7.429 4.192,-11.769 L 732.02,643.59 c -0.637,-7.199 -6.29,-12.918 -13.477,-13.621 -1.172,-0.11 -118.859,-11.52 -239.941,-11.52"
              style="display:inline;fill:#100f0d;fill-opacity:1;fill-rule:nonzero;stroke:none"
              id="path334" />
      <path
              d="m 780.395,1140.9 c 0,0 -140.012,-2.9 -323.274,0.13 -183.258,3.03 -316.625,10.45 -316.625,10.45 l 2.07,125.09 639.895,-10.58 -2.066,-125.09"
              style="display:inline;fill:#ffffff;fill-opacity:1;fill-rule:nonzero;stroke:none"
              id="path336" />
      <path
              d="m 155.734,1165.71 c 39.254,-1.96 155.008,-7.26 301.637,-9.68 55.371,-0.92 112.313,-1.39 169.277,-1.39 65.907,0 115.743,0.64 138.993,1 l 1.574,95.6 -609.899,10.08 z m 470.914,-41.07 c -57.121,0 -114.238,0.47 -169.777,1.39 -181.449,3 -315.875,10.4 -317.211,10.47 -8.043,0.45 -14.297,7.17 -14.164,15.23 l 2.07,125.09 c 0.141,8.27 6.688,14.77 15.25,14.75 l 639.887,-10.58 c 8.289,-0.13 14.891,-6.96 14.754,-15.24 l -2.059,-125.1 c -0.136,-8.07 -6.621,-14.59 -14.687,-14.76 -0.606,0 -61.621,-1.25 -154.063,-1.25"
              style="display:inline;fill:#100f0d;fill-opacity:1;fill-rule:nonzero;stroke:none"
              id="path338" />
    </g>
  </g>
</svg>