<svg xmlns:xlink="http://www.w3.org/1999/xlink" version="1.1" xmlns="http://www.w3.org/2000/svg" xml:space="preserve" id="wapuugotchi_svg__item" class="color_pick_able" x="0" y="0" viewBox="0 0 1000 1000"
    style="--wapuu-color-1: #c7ce7c; --wapuu-color-2: #ffa592; --wapuu-color-3: #f9d173; --wapuu-color-4: #ffa592; --wapuu-color-5: #f9d173; --wapuu-color-6: #f9d173; --wapuu-color-7: #ffa592;"
    data-color-1="Hill &amp; Grass" data-color-2="Flower 1" data-color-3="Flower 2" data-color-4="Flower 3" data-color-5="Flower 4" data-color-6="Flower 5" data-color-7="Flower 6">
    <g class="Background--group">
        <defs>
            <g id="flower">
                <path stroke="none" style="fill: var(--flower-color)" d="M544.3 581s9.1-9.8 16.1-2.9-1.6 10.8-7.5 12.1c0 0 12.2 3.6 7.6 10.1s-15.1 3.1-17.1-1.2c0 0 .2 7.7-8.5 9.4-8.7 1.6-10.7-9.4-4.5-13.5 0 0-9.6 2.5-12-3.7s4.2-9.8 12.3-6.9c0 0-6-9.2 3.5-13.4s11.8 7.9 10.1 10"/>
                <path fill="none" stroke="#000" stroke-linecap="round" stroke-linejoin="round" stroke-miterlimit="10" stroke-width="3.333" d="M544.3 581s9.1-9.8 16.1-2.9-1.6 10.8-7.5 12.1c0 0 12.2 3.6 7.6 10.1s-15.1 3.1-17.1-1.2c0 0 .2 7.7-8.5 9.4-8.7 1.6-10.7-9.4-4.5-13.5 0 0-9.6 2.5-12-3.7s4.2-9.8 12.3-6.9c0 0-6-9.2 3.5-13.4s11.8 7.9 10.1 10"/>
                <path style="fill: null; stroke: color-mix(in srgb, var(--flower-color) 100%, #000000 15%)" stroke-dasharray="none" stroke-linecap="round" stroke-miterlimit="4" stroke-opacity="1" stroke-width="6.053" d="M544.621 589.639a2.26 3.55 88.903 0 1-3.405 2.388 2.26 3.55 88.903 0 1-3.689-2.127 2.26 3.55 88.903 0 1 3.406-2.388 2.26 3.55 88.903 0 1 3.688 2.127" />
            </g>
            <g id="gras_1">
                <path d="M464.7 562.8s12.3-16.1 3-20.4-12.7 19.3-12.7 19.3-2.8-15.8-7.8-16.3-6.6 10.4 0 17.4"/>
                <path fill="none" stroke="#000" stroke-linecap="round" stroke-linejoin="round" stroke-miterlimit="10" stroke-width="3.333" d="M464.7 562.8s12.3-16.1 3-20.4-12.7 19.3-12.7 19.3-2.8-15.8-7.8-16.3-6.6 10.4 0 17.4"/>
            </g>
            <g id="gras_2">
                <path d="M599.36 536.822c-6.025.014-19.856 15.317-21.06 33.278l11.7.5s15.3-26.1 11.6-32.5c-.479-.872-1.255-1.28-2.24-1.278m-36.06 4.953c-6.492-.052-4.147 16.78 2.8 27.825l11.8.5c-.9-6.5-3.9-23.3-11.8-27.5-1.072-.558-2.002-.818-2.8-.825m45.712 13.48c-6.52.015-15.725 8.491-20.412 17.944l12.9-1s17.9-7.999 12.2-14.799c-1.248-1.487-2.863-2.148-4.688-2.144"/>
                <path fill="none" stroke="#000" stroke-linecap="round" stroke-linejoin="round" stroke-miterlimit="10" stroke-width="3.333" d="M593.9 565.1s11.4-20.6 7.8-27-23.4 12.5-23.4 34.6c0 0-2.4-24.8-12.1-30s-7.8 14.6 0 27m35.3 2.5s17.9-8 12.2-14.8-19.1 3.7-25.1 15.8"/>
            </g>
            <g id="gras_3">
                <path d="M415.6 611.5s5.8-13.9 1.6-16c-4.1-2.1-10.4 6.2-11.3 16 .7-40.1-23.1-32.2-10.2-1.6 0 0-11.6-18-18.4-14.2s5.3 14.4 8.9 15.9"/>
                <path fill="none" stroke="#000" stroke-linecap="round" stroke-linejoin="round" stroke-miterlimit="10" stroke-width="3.333" d="M415.6 611.5s5.8-13.9 1.6-16c-4.1-2.1-10.4 6.2-11.3 16v0c.7-40.1-23.1-32.2-10.2-1.6v0s-11.6-18-18.4-14.2 5.3 14.4 8.9 15.9"/>
            </g>
        </defs>
        <path style="fill: var(--wapuu-color-1)" d="M288.7 613.1s61.6-62.1 220.1-57.9 219.8 68.2 223.7 105c3.6 34.2-109.6 77.5-298.3 64.8-218.4-14.7-198.8-66.9-145.5-111.9"/>
        <path fill="none" stroke="#000" stroke-linecap="round" stroke-linejoin="round" stroke-miterlimit="10" stroke-width="7" d="M271.3 629.4c5.1-5.4 11-10.9 17.4-16.3 0 0 61.6-62.1 220.1-57.9s213.6 63.9 223.7 102" display="inline"/>
        <use xlink:href="#gras_2" style="fill: var(--wapuu-color-1)"/>
        <use xlink:href="#gras_1" style="fill: var(--wapuu-color-1)"/>
        <use xlink:href="#gras_3" style="fill: var(--wapuu-color-1)"/>
        <use xlink:href="#gras_2" style="fill: var(--wapuu-color-1)" transform="rotate(-15 1034.18 486.512)"/>
        <use xlink:href="#gras_1" style="fill: var(--wapuu-color-1)" transform="translate(-23.314 121.396)"/>
        <use xlink:href="#gras_3" style="fill: var(--wapuu-color-1)" transform="translate(-97.277 52.256)"/>
        <use xlink:href="#flower" style="--flower-color: var(--wapuu-color-2)" transform="translate(-2.86 105.28)"/>
        <use xlink:href="#flower" style="--flower-color: var(--wapuu-color-3)" transform="translate(121.873 44.057)"/>
        <use xlink:href="#flower" style="--flower-color: var(--wapuu-color-4)" transform="rotate(-30 486.2 1009.704)"/>
        <use xlink:href="#flower" style="--flower-color: var(--wapuu-color-5)" transform="translate(-167.075 93.836)"/>
        <use xlink:href="#flower" style="--flower-color: var(--wapuu-color-6)" transform="translate(-75.527 39.48)"/>
        <use xlink:href="#flower" style="--flower-color: var(--wapuu-color-7)"/>
    </g>
</svg>
