<svg version="1.1" id="wapuugotchi_svg__item" viewBox="0 0 1e3 1e3" xmlns="http://www.w3.org/2000/svg">
  <g class="LeftFoot--group">
    <path fill="#cab393" d="M492.8 687s-2.9-61.9 7-75.6c12.5-17.3 28.5-.3 25.6-14.4-10.4-50.4-46.4-48.6-46.4-48.6"/>
    <path fill="#542f17" d="M466.7 547c-8.9.6-18.4 5-21.5 32.4-3.5 30.3 12.1 105.5 38.6 109.5s16.4-72.7 13.8-97.1c-2.7-24.4-12.9-46.1-30.9-44.8"/>
    <path fill="none" stroke="#080808" stroke-miterlimit="10" stroke-width="7" d="M466.7 547c-8.9.6-18.4 5-21.5 32.4-3.5 30.3 12.1 105.5 38.6 109.5s16.4-72.7 13.8-97.1c-2.7-24.4-12.9-46.1-30.9-44.8z"/>
    <path fill="#080808" d="M507.1 604c-.3 0-.5-.2-.5-.4-.2-1.7-.4-3.3-.5-4.8 0-.3.2-.5.4-.5.3 0 .5.2.5.4.2 1.5.3 3.1.5 4.8.1.3-.1.5-.4.5.1 0 0 0 0 0m-1-9.6c-.3 0-.5-.2-.5-.4l-.2-1.4c-.1-1.1-.3-2.3-.4-3.4 0-.3.1-.5.4-.6.3 0 .5.2.5.4.2 1.1.3 2.3.4 3.4l.2 1.4c.1.4-.1.6-.4.6m-1.3-9.5c-.2 0-.5-.2-.5-.4-.3-1.6-.6-3.2-1-4.7-.1-.3.1-.5.4-.6s.5.1.6.4c.4 1.6.7 3.1 1 4.8 0 .2-.2.4-.5.5m-2.2-9.4c-.2 0-.4-.1-.5-.4-.5-1.6-.9-3.1-1.5-4.6q-.15-.45.3-.6c.2-.1.5 0 .6.3.5 1.5 1 3 1.5 4.6.1.3 0 .6-.4.7.1 0 0 0 0 0m-3.2-9.1c-.2 0-.4-.1-.5-.3-.7-1.5-1.4-2.9-2.1-4.3-.1-.2-.1-.5.2-.7.2-.1.5-.1.7.2.8 1.4 1.5 2.8 2.2 4.3.1.2 0 .5-.2.6-.2.2-.3.2-.3.2m-4.8-8.3c-.2 0-.3-.1-.4-.2q-1.5-1.95-3-3.6c-.2-.2-.2-.5 0-.7s.5-.2.7 0c1.1 1.1 2.1 2.3 3.1 3.7.2.2.1.5-.1.7-.1 0-.2.1-.3.1m-6.7-6.7c-.1 0-.2 0-.3-.1-1.3-.9-2.7-1.5-4.1-2-.3-.1-.4-.4-.3-.6.1-.3.4-.4.6-.3 1.5.5 3 1.2 4.3 2.1.2.1.3.4.1.7 0 .1-.2.2-.3.2m-8.9-3h-2.4c-.3 0-.5-.2-.5-.5s.2-.5.4-.5q1.2-.15 2.4 0c.3 0 .5.2.5.5.1.3-.1.5-.4.5"/>
    <path fill="none" stroke="#080808" stroke-miterlimit="10" stroke-width="6.195" d="M499.8 611.3c12.5-17.3 28.5-.3 25.6-14.4-10.3-50.3-57.2-50-57.2-50"/>
    <path fill="#080808" d="M480.4 548.9c-1-.3-1.8-.5-2.3-.6l.9.1q.45 0 .9.3c.1 0 .3.1.5.2m11.2 7.7c-.2-.3-.4-.5-.6-.7.2.2.4.5.6.7"/>
    <path fill="#080808" d="M478.8 560.9c.2 2.5-5.3 1-11.8 1.5-6.6.5-11.7 2.8-11.9.3s5-4.9 11.5-5.4c6.5-.6 12 1.1 12.2 3.6m6.1 12.4c.2 3.3-6.9 1.3-15.6 1.9s-15.5 3.7-15.7.4 6.6-6.5 15.2-7.1c8.7-.7 15.9 1.5 16.1 4.8m6 12.1c.3 3.7-8.8 1.5-19.7 2.3s-19.6 4.3-19.8.6c-.3-3.7 8.4-7.4 19.3-8.2 10.8-.8 19.9 1.6 20.2 5.3m-26.5 71s9.1 24 18.6 23.2 12-24.4 9.3-27-29.4.2-27.9 3.8" opacity=".5"/>
  </g>
  <g class="RightFoot--group">
    <path fill="#cab393" d="M305.8 545.3s26.2-20.2 44.6-7.9c30.6 20.5 12.9 31.8 12.9 43"/>
    <path fill="#542f17" d="M305.8 545.3s-16.7 8.9-6 37.6c10.7 28.6 45.5 70.4 72.5 71s8.1-42.8-3.3-61c-11.3-18.4-26.9-62.2-63.2-47.6"/>
    <path fill="none" stroke="#080808" stroke-miterlimit="10" stroke-width="6" d="M305.8 545.3s-16.7 8.9-6 37.6c10.7 28.6 45.5 70.6 72.5 71 23 .3 10.2-34.8 2.5-52.1-7.4-16.9-32.7-71.1-69-56.5z"/>
    <path fill="none" stroke="#080808" stroke-miterlimit="10" stroke-width="6" d="M305.8 545.3s23.3-19.3 44.6-7.9c31.5 16.9 12.1 32 13.6 42.9"/>
    <path fill="#080808" d="M320.7 538.9c-.2 0-.4-.1-.5-.3-.1-.3 0-.5.3-.7q1.05-.45 2.4-.6c.3 0 .5.2.6.4 0 .3-.2.5-.4.6-.8.1-1.6.3-2.2.6zm46.8 35.2c-.2 0-.4-.1-.5-.2-.9-1.4-1.7-2.9-2.6-4.2-.1-.2-.1-.5.1-.7.2-.1.5-.1.7.1.9 1.4 1.8 2.8 2.6 4.2.1.2.1.5-.2.7 0 .1 0 .1-.1.1m-5.4-8.3c-.2 0-.4-.1-.5-.2-1-1.4-1.9-2.7-2.9-4-.2-.2-.1-.5.1-.7s.5-.1.7.1c1 1.3 2 2.6 3 4 .2.2.1.5-.1.7-.1 0-.2 0-.3.1m-6.1-7.9c-.2 0-.3 0-.4-.2-1.1-1.3-2.2-2.5-3.3-3.7-.2-.2-.2-.5 0-.7s.5-.2.7 0c1.1 1.2 2.2 2.4 3.3 3.7.2.2.2.5-.1.7 0 .1-.1.2-.2.2m-6.8-7.2c-.1 0-.3 0-.4-.1-1.2-1.1-2.5-2.2-3.7-3.2-.2-.2-.2-.5-.1-.7.2-.2.5-.2.7-.1 1.3 1 2.5 2.1 3.8 3.3.2.2.2.5 0 .7-.1 0-.2.1-.3.1m-7.7-6.2c-.1 0-.2 0-.3-.1-1.4-.9-2.8-1.8-4.2-2.5-.2-.1-.3-.4-.2-.7.1-.2.4-.3.7-.2 1.4.8 2.9 1.6 4.3 2.6.2.2.3.5.1.7-.2.1-.3.2-.4.2m-8.8-4.6h-.2c-1.6-.6-3.2-1.1-4.7-1.3-.3 0-.5-.3-.4-.6 0-.3.3-.5.6-.4 1.6.3 3.2.7 4.9 1.4.3.1.4.4.3.6-.2.2-.3.3-.5.3"/>
    <path fill="#080808" d="M323.7 550.7c1.3 2.2-4.3 3.2-9.9 6.6s-9.2 7.8-10.5 5.6 2.2-6.7 7.9-10c5.6-3.4 11.2-4.4 12.5-2.2m11.1 8.3c1.7 2.8-5.6 4.3-13.1 8.7-7.4 4.4-12.1 10.2-13.8 7.4s2.9-8.8 10.4-13.2 14.8-5.8 16.5-2.9m10.7 8.2c1.9 3.2-7.2 5.3-16.6 10.9s-15.5 12.7-17.5 9.4 4.1-10.4 13.5-16c9.5-5.6 18.7-7.5 20.6-4.3m1.7 65.8s18.9 17.3 27 12.4c8.2-4.9-.2-27.2-3.8-28.3-3.5-1.2-26.1 13.3-23.2 15.9" opacity=".5"/>
  </g>
</svg>
