<svg version="1.1" id="wapuugotchi_svg__item" viewBox="0 0 1e3 1e3" xmlns="http://www.w3.org/2000/svg">
  <g class="LeftFoot--group">
    <path fill="#cab393" d="M492.8 687s-2.9-61.9 7-75.6c12.5-17.3 28.5-.3 25.6-14.4-10.4-50.4-46.4-48.6-46.4-48.6"/>
    <path fill="#542f17" d="M466.7 547c-8.9.6-18.4 5-21.5 32.4-3.5 30.3 12.1 105.5 38.6 109.5s16.4-72.7 13.8-97.1c-2.7-24.4-12.9-46.1-30.9-44.8"/>
    <path fill="none" stroke="#080808" stroke-miterlimit="10" stroke-width="7" d="M466.7 547c-8.9.6-18.4 5-21.5 32.4-3.5 30.3 12.1 105.5 38.6 109.5s16.4-72.7 13.8-97.1c-2.7-24.4-12.9-46.1-30.9-44.8z"/>
    <path fill="#080808" d="M507.1 604c-.3 0-.5-.2-.5-.4-.2-1.7-.4-3.3-.5-4.8 0-.3.2-.5.4-.5.3 0 .5.2.5.4.2 1.5.3 3.1.5 4.8.1.3-.1.5-.4.5.1 0 0 0 0 0m-1-9.6c-.3 0-.5-.2-.5-.4l-.2-1.4c-.1-1.1-.3-2.3-.4-3.4 0-.3.1-.5.4-.6.3 0 .5.2.5.4.2 1.1.3 2.3.4 3.4l.2 1.4c.1.4-.1.6-.4.6m-1.3-9.5c-.2 0-.5-.2-.5-.4-.3-1.6-.6-3.2-1-4.7-.1-.3.1-.5.4-.6s.5.1.6.4c.4 1.6.7 3.1 1 4.8 0 .2-.2.4-.5.5m-2.2-9.4c-.2 0-.4-.1-.5-.4-.5-1.6-.9-3.1-1.5-4.6q-.15-.45.3-.6c.2-.1.5 0 .6.3.5 1.5 1 3 1.5 4.6.1.3 0 .6-.4.7.1 0 0 0 0 0m-3.2-9.1c-.2 0-.4-.1-.5-.3-.7-1.5-1.4-2.9-2.1-4.3-.1-.2-.1-.5.2-.7.2-.1.5-.1.7.2.8 1.4 1.5 2.8 2.2 4.3.1.2 0 .5-.2.6-.2.2-.3.2-.3.2m-4.8-8.3c-.2 0-.3-.1-.4-.2q-1.5-1.95-3-3.6c-.2-.2-.2-.5 0-.7s.5-.2.7 0c1.1 1.1 2.1 2.3 3.1 3.7.2.2.1.5-.1.7-.1 0-.2.1-.3.1m-6.7-6.7c-.1 0-.2 0-.3-.1-1.3-.9-2.7-1.5-4.1-2-.3-.1-.4-.4-.3-.6.1-.3.4-.4.6-.3 1.5.5 3 1.2 4.3 2.1.2.1.3.4.1.7 0 .1-.2.2-.3.2m-8.9-3h-2.4c-.3 0-.5-.2-.5-.5s.2-.5.4-.5q1.2-.15 2.4 0c.3 0 .5.2.5.5.1.3-.1.5-.4.5"/>
    <path fill="none" stroke="#080808" stroke-miterlimit="10" stroke-width="6.195" d="M499.8 611.3c12.5-17.3 28.5-.3 25.6-14.4-10.3-50.3-57.2-50-57.2-50"/>
    <path fill="#080808" d="M480.4 548.9c-1-.3-1.8-.5-2.3-.6l.9.1q.45 0 .9.3c.1 0 .3.1.5.2m11.2 7.7c-.2-.3-.4-.5-.6-.7.2.2.4.5.6.7"/>
    <path fill="#080808" d="M478.8 560.9c.2 2.5-5.3 1-11.8 1.5-6.6.5-11.7 2.8-11.9.3s5-4.9 11.5-5.4c6.5-.6 12 1.1 12.2 3.6m6.1 12.4c.2 3.3-6.9 1.3-15.6 1.9s-15.5 3.7-15.7.4 6.6-6.5 15.2-7.1c8.7-.7 15.9 1.5 16.1 4.8m6 12.1c.3 3.7-8.8 1.5-19.7 2.3s-19.6 4.3-19.8.6c-.3-3.7 8.4-7.4 19.3-8.2 10.8-.8 19.9 1.6 20.2 5.3m-26.5 71s9.1 24 18.6 23.2 12-24.4 9.3-27-29.4.2-27.9 3.8" opacity=".5"/>
  </g>
  <g class="RightFoot--group">
    <path fill="#cab393" d="M283.303 569.714s20.08-26.292 41.036-19.174c34.863 11.882 20.69 27.378 23.59 38.196"/>
    <path fill="#542f17" d="M283.303 569.714s-13.827 12.92 3.936 37.872c17.738 24.856 62.17 56.225 88.406 49.816 26.235-6.408-3.253-43.438-18.975-58.067-15.678-14.848-42.082-53.118-73.367-29.62"/>
    <path fill="none" stroke="#080808" stroke-miterlimit="10" stroke-width="6" d="M283.303 569.714s-13.827 12.92 3.936 37.872c17.738 24.856 62.223 56.418 88.406 49.816 22.294-5.663.846-36.254-11.07-50.971-11.521-14.41-49.987-60.214-81.272-36.717z"/>
    <path fill="none" stroke="#080808" stroke-miterlimit="10" stroke-width="6" d="M283.303 569.714s17.511-24.672 41.036-19.174c34.8 8.172 19.97 27.778 24.24 37.919"/>
    <path fill="#080808" d="M296.04 559.676a.55.55 0 0 1-.561-.16c-.175-.264-.13-.483.108-.754q.898-.707 2.163-1.2c.29-.078.535.063.683.23.078.29-.064.535-.23.683-.748.304-1.469.704-1.97 1.15zm54.315 21.888a.76.76 0 0 1-.535-.064c-1.231-1.12-2.392-2.361-3.598-3.384-.149-.167-.226-.457-.085-.702.168-.148.457-.226.702-.084 1.232 1.119 2.464 2.238 3.599 3.384a.527.527 0 0 1-.012.727c.026.097.026.097-.071.123m-7.364-6.62a.76.76 0 0 1-.535-.063c-1.328-1.094-2.534-2.117-3.836-3.114-.245-.141-.226-.457-.085-.702s.457-.226.702-.084c1.302.997 2.605 1.994 3.933 3.087.245.142.226.457.085.702-.097.026-.194.052-.264.174m-7.937-6.052c-.193.052-.29.078-.438-.09-1.4-.97-2.772-1.845-4.145-2.72a.483.483 0 0 1-.182-.675.483.483 0 0 1 .677-.181c1.373.874 2.746 1.748 4.145 2.72.245.14.322.43.084.701a.215.215 0 0 1-.141.245m-8.432-5.194c-.096.026-.29.077-.412.007a106 106 0 0 0-4.402-2.134c-.245-.141-.323-.431-.278-.65.141-.245.431-.323.65-.278 1.515.63 2.959 1.382 4.525 2.204a.483.483 0 0 1 .181.676c-.097.026-.167.149-.264.175m-9.042-3.996c-.097.026-.193.052-.316-.02-1.585-.506-3.17-1.013-4.704-1.327-.219-.045-.393-.309-.374-.624.045-.22.309-.394.624-.375 1.56.41 3.216.795 4.827 1.399.245.141.419.405.277.65-.167.148-.238.27-.334.297m-9.69-2.166-.194.052c-1.7-.166-3.376-.234-4.876-.04-.29.078-.561-.16-.542-.475-.078-.29.16-.561.476-.542 1.623-.124 3.272-.152 5.095.084.316.019.49.283.445.502-.141.245-.212.367-.405.42"/>
    <path fill="#080808" d="M301.991 570.298c1.825 1.788-3.325 4.203-7.854 8.937-4.53 4.733-6.868 9.915-8.693 8.127-1.825-1.789.39-7.041 5.042-11.704 4.53-4.734 9.68-7.15 11.505-5.36m12.87 5.144c2.367 2.264-4.296 5.603-10.402 11.794-6.009 6.165-9.048 12.984-11.414 10.72-2.367-2.265.523-9.251 6.629-15.442s12.794-9.433 15.187-7.072m12.458 5.151c2.663 2.6-5.583 6.983-13.214 14.825-7.63 7.842-11.684 16.279-14.47 13.61s1.268-11.108 8.899-18.95c7.726-7.868 16.121-12.084 18.785-9.485m18.672 63.118s22.734 11.819 29.29 4.99c6.652-6.856-7.234-26.222-10.996-26.353-3.691-.253-21.768 19.602-18.294 21.363" opacity=".5"/>
  </g>
</svg>
