<svg xmlns="http://www.w3.org/2000/svg" viewBox="0 0 1000 1000">
  <path d="M436.6 504c-4.5 5.1-10.5 7.9-17 7.9-9.1 0-18.5-5.5-24.4-14.4-7.8-11.6-15.5-21.2-22.3-27.9l-4.8-4.7c-2-2-1.1-5.3 1.6-6.1l6.5-1.7c3.2-.9 6.4-2.7 9.1-5.5 3-3 4.8-6.7 5.2-10.4V430c0-1.3 1.5-2.1 2.5-1.3l9.3 6.9c.7.5 1.7 1.1 2.9 1.7 10.2 4.9 31.7 27.4 35.7 46.7 2.1 10.1-1.2 16.5-4.3 20"/>
  <path fill="#fc0" d="M402.1 444.1q-2.25-1.05-4.2-2.4c-.5 5.5-3 11-7.3 15.3-3.7 3.7-8.1 6.2-12.5 7.4 8.7 8.6 17 19.8 23.2 29.1 4.5 6.7 11.6 11.1 18.3 11.1 4.1 0 8.1-1.6 11.4-5.4 13-14.8-17.3-49.6-28.9-55.1" class="st0"/>
  <path d="M599.1 649.5c-9 25.7-26.4 50-50.3 70.3-23.8 20.3-51.8 34.7-81 41.6-6.9 1.6-14.1 2.5-21.5 2.5-30.8 0-58.9-13.9-74.8-27-13.6-11.1-21.2-23.3-20.9-33.5.4-12 6.7-20.7 16.8-23.3 2.1-.5 4.3-.8 6.7-.8 11.2 0 27.2 6.7 38.5 25.7 7.8 13.2 22 20.1 41.1 20.1h1.2c40.7-.8 87.6-31.2 109.1-70.8 7.7-14.1 13.2-29.6 17.1-40.8 1.9-5.4 3.6-10.1 5.1-13.5 1.3-3.1 4.1-9.4 10.4-9.4 4.1 0 7.6 1.8 9.9 5 5.5 7.6 3.3 23.3-7.4 53.9"/>
  <path fill="#f80" d="M570.5 657.8c-22.7 41.7-72.5 73.9-115.5 74.7h-1.4c-21.6 0-38.3-8.4-47.4-23.8-9-15.1-22-22.1-32.1-22.1q-2.55 0-4.8.6c-7 1.8-11 7.6-11.3 16.4-.3 7.7 6.6 18 18.2 27.5 16.8 13.7 43.2 25.3 70.1 25.3 6.6 0 13.3-.7 19.8-2.3 57.2-13.5 108.5-57.4 126-107.1 5.4-15.3 16.7-49.2 4.5-49.2-4.5.1-10.8 31.8-26.1 60" class="st1"/>
  <path d="M649.7 531.9c-2 24-6.7 45.1-13.9 62.9-8.5 20.9-20.3 36.6-35.1 46.8-34 23.4-64.8 26-76.4 26-1.3 0-2.5 0-3.8-.1-18.4-.8-26-4.4-32.7-7.5-5.9-2.8-11-5.2-24.9-5.7-37.5-1.5-67-9.9-83.1-23.6-.2-.1-.5-.4-.9-.7-4.8-3.5-19.3-14.3-25-24.7-5.3-9.7-6.2-22.3-2.3-31.4 13.4-31.2 24.5-40.5 33.5-48 3.6-3 6.4-5.3 8.8-8.7 2.2-3.1 3.8-7.1 4.9-12.2 0-.1 0-.2.1-.3 3.9-15 3.4-34.9 2.8-56-.2-5.7-.3-11.7-.4-17.5v-.1c0-18.6 9.6-40.7 25.7-59.2 18.1-20.8 41.6-33.6 66.1-36.2 20.2-2.1 34.3-3.1 45.9-3.1 43.7 0 58.6 14.8 82.2 48.4 7.5 10.6 12.1 22.5 16 33.7 11.1 30.4 15.9 76.5 12.5 117.2"/>
  <path fill="#fc0" d="M358.5 576.7c-3 7-2.2 17.4 2 25 5.6 10.3 23 22.2 24.1 23.2 15.1 12.9 43.7 20.5 78.7 21.9 31.2 1.3 24.3 11.8 57.6 13.3 1.1 0 2.2.1 3.5.1 16.7 0 43.7-5 72.2-24.7 58-39.9 52.9-165.3 34-218.6-3.9-11.1-8.3-22.2-15.1-31.9-23.5-33.5-36.6-45.2-76.2-45.2-12.2 0-26.9 1.1-45.1 3.1-49.9 5.3-85.3 55.3-85.3 88.1.3 27.4 2.5 55.1-2.7 75.5-1.4 6.5-3.4 11.2-6 14.9-9.8 13.5-23.4 12.4-41.7 55.3" class="st0"/>
  <path d="M390.6 457c-5.2 5.1-11.7 8.1-17.8 8.1-8.1 0-14-5.1-15.6-13.3-1-5.4.9-11.3 5.4-16.7 5.8-6.9 14.9-12 21.7-12.1h.2c1.3 0 2.6.2 3.8.6h.2l.1.1c4.5 1.8 7.9 6.2 9.1 11.8 1.4 7.5-1.2 15.5-7.1 21.5"/>
  <path fill="#fc0" d="M385.4 451.7c4.2-4.2 6-9.6 5-14.7-.6-3.1-2.3-5.5-4.6-6.4-.4-.1-.9-.2-1.3-.2h-.1c-4 0-11.3 3.6-16.1 9.4-1.8 2.1-4.6 6.3-3.8 10.6 1.1 6 5.1 7.3 8.3 7.3 4.1 0 8.8-2.2 12.6-6" class="st0"/>
  <path d="M384.3 648c-2.4 3.7-6.4 5.7-11.5 5.7-1.9 0-4-.3-6.2-.8-25-6-59.3-43.6-63.6-64.5-1.9-9.4-.2-18 5-24.4 4.6-5.7 11.4-8.8 18.9-8.8 6.8 0 13.6 2.5 19.8 7.3 12.2 9.4 32.9 50.5 37.3 60.7 2.5 5.8 4.9 17.7.3 24.8"/>
  <path fill="#fc0" d="M310.1 586.8c3.8 18.2 36.2 53.6 58.1 58.8q2.55.6 4.5.6c3.4 0 4.7-1.3 5.4-2.3 2.3-3.5 1.5-12.1-1-17.9-6.1-13.9-25.3-50.3-35.1-57.8-4.9-3.8-10.2-5.8-15.3-5.8-5.3 0-10 2.2-13.2 6.1-3.6 4.7-4.8 11.2-3.4 18.3" class="st0"/>
  <g class="RightFoot--group">
    <path fill="#cab393" d="M283.303 569.714s20.08-26.292 41.036-19.174c34.863 11.882 20.69 27.378 23.59 38.196"/>
    <path fill="#542f17" d="M283.303 569.714s-13.827 12.92 3.936 37.872c17.738 24.856 62.17 56.225 88.406 49.816 26.235-6.408-3.253-43.438-18.975-58.067-15.678-14.848-42.082-53.118-73.367-29.62"/>
    <path fill="none" stroke="#080808" stroke-miterlimit="10" stroke-width="6" d="M283.303 569.714s-13.827 12.92 3.936 37.872c17.738 24.856 62.223 56.418 88.406 49.816 22.294-5.663.846-36.254-11.07-50.971-11.521-14.41-49.987-60.214-81.272-36.717z"/>
    <path fill="none" stroke="#080808" stroke-miterlimit="10" stroke-width="6" d="M283.303 569.714s17.511-24.672 41.036-19.174c34.8 8.172 19.97 27.778 24.24 37.919"/>
    <path fill="#080808" d="M296.04 559.676a.55.55 0 0 1-.561-.16c-.175-.264-.13-.483.108-.754q.898-.707 2.163-1.2c.29-.078.535.063.683.23.078.29-.064.535-.23.683-.748.304-1.469.704-1.97 1.15zm54.315 21.888a.76.76 0 0 1-.535-.064c-1.231-1.12-2.392-2.361-3.598-3.384-.149-.167-.226-.457-.085-.702.168-.148.457-.226.702-.084 1.232 1.119 2.464 2.238 3.599 3.384a.527.527 0 0 1-.012.727c.026.097.026.097-.071.123m-7.364-6.62a.76.76 0 0 1-.535-.063c-1.328-1.094-2.534-2.117-3.836-3.114-.245-.141-.226-.457-.085-.702s.457-.226.702-.084c1.302.997 2.605 1.994 3.933 3.087.245.142.226.457.085.702-.097.026-.194.052-.264.174m-7.937-6.052c-.193.052-.29.078-.438-.09-1.4-.97-2.772-1.845-4.145-2.72a.483.483 0 0 1-.182-.675.483.483 0 0 1 .677-.181c1.373.874 2.746 1.748 4.145 2.72.245.14.322.43.084.701a.215.215 0 0 1-.141.245m-8.432-5.194c-.096.026-.29.077-.412.007a106 106 0 0 0-4.402-2.134c-.245-.141-.323-.431-.278-.65.141-.245.431-.323.65-.278 1.515.63 2.959 1.382 4.525 2.204a.483.483 0 0 1 .181.676c-.097.026-.167.149-.264.175m-9.042-3.996c-.097.026-.193.052-.316-.02-1.585-.506-3.17-1.013-4.704-1.327-.219-.045-.393-.309-.374-.624.045-.22.309-.394.624-.375 1.56.41 3.216.795 4.827 1.399.245.141.419.405.277.65-.167.148-.238.27-.334.297m-9.69-2.166-.194.052c-1.7-.166-3.376-.234-4.876-.04-.29.078-.561-.16-.542-.475-.078-.29.16-.561.476-.542 1.623-.124 3.272-.152 5.095.084.316.019.49.283.445.502-.141.245-.212.367-.405.42"/>
    <path fill="#080808" d="M301.991 570.298c1.825 1.788-3.325 4.203-7.854 8.937-4.53 4.733-6.868 9.915-8.693 8.127-1.825-1.789.39-7.041 5.042-11.704 4.53-4.734 9.68-7.15 11.505-5.36m12.87 5.144c2.367 2.264-4.296 5.603-10.402 11.794-6.009 6.165-9.048 12.984-11.414 10.72-2.367-2.265.523-9.251 6.629-15.442s12.794-9.433 15.187-7.072m12.458 5.151c2.663 2.6-5.583 6.983-13.214 14.825-7.63 7.842-11.684 16.279-14.47 13.61s1.268-11.108 8.899-18.95c7.726-7.868 16.121-12.084 18.785-9.485m18.672 63.118s22.734 11.819 29.29 4.99c6.652-6.856-7.234-26.222-10.996-26.353-3.691-.253-21.768 19.602-18.294 21.363" opacity=".5"/>
  </g>
  <path d="M413.3 399.4c-.4 4.4-3.8 8.4-11.1 12.9-4.7 3-10.2 5.5-13.9 6.5-6.5 1.7-12.3 2.6-17.3 2.6-6.7 0-10.6-1.6-12.7-2.9-4.8-3-4.4-7.2-4.2-8.5.5-3.1 2.9-5.5 5.9-6.2 3.5-.8 13.5-5.8 23.6-12.6 4.2-2.9 10.7-4.8 16.1-4.8 5.8 0 9.1 2.2 10.8 4.1 2.1 2.4 3.1 5.5 2.8 8.9"/>
  <path fill="#f80" d="M361.4 411.3c0 .3.4.7.9.9 1.1.7 3.6 1.8 8.8 1.8 4.3 0 9.5-.8 15.4-2.3 5.2-1.4 19.1-8.8 19.5-13 .1-1.3-.2-2.4-.9-3.2-1-1.1-2.8-1.7-5.3-1.7-3.9 0-8.9 1.5-11.9 3.5-8.5 5.7-20.5 12.5-26.1 13.7-.3.1-.4.2-.4.3" class="st1"/>
  <path d="M516.4 328.1c1.6 0 3.2 0 4.8.1 20.6.6 39.5 6.5 55.9 17 11.2 7.2 17.5 11.4 25.9 25.2 1.5 2.5 9 .8 7.9-1.1-10.1-17.6-17.5-22.3-29.8-30.3-17.7-11.4-37.8-17.6-59.7-18.2-1.6 0-3.3-.1-5-.1-1.6 0-3.3 0-4.9.1-24.3.6-47.8 6.6-67.8 17.1-20.2 10.6-37.1 26.1-48.9 44.7-7.7 12.3-10.3 23.9-7.4 33.5 2.4 7.8 7.9 12.7 12.3 14.6 1.4.6 2.9.9 4.7.9 9.3 0 34.7-9.3 45.7-24.8 8.4 4.5 17.6 6.7 28.1 6.7 12.6 0 25-3.2 36.4-6.9 3-1 3.8-2.2 3.9-4.1 0-1.3-1.2-3.6-3.8-3.5-.3 0-.7.1-1 .2-11.2 3.6-23.3 6.9-35.4 6.9-9.3 0-18.6-2-27.4-7.4-.6-.4-1.3-.5-1.9-.5-1.3 0-2.5.6-3.2 1.8l-.1.1c-7.9 14.3-33.3 24.1-41.2 24.1-.7 0-1.3-.1-1.7-.3-2.8-1.2-6.6-4.6-8.2-10-2.3-7.5 0-17 6.6-27.4 22.5-35.7 63.4-57.1 110.6-58.3 1.4-.1 3-.1 4.6-.1"/>
  <path fill="#fc0" d="M516.6 399.4c-1-.4-2-.7-3-.3-19.7 6.3-42.5 12-62.8-.5-1.7-1.1-4-.5-5.1 1.2l-.1.1c-8.6 15.7-38.3 26-43 23.9-2.8-1.2-6.6-4.6-8.2-10-2.3-7.5 0-17 6.6-27.4 22.5-35.7 63.4-57.1 110.6-58.3 3.1-.1 6.3-.1 9.5 0 20.6.6 39.5 6.5 55.9 17 13.2 8.5 19.7 12.7 30.6 33.6 5.6 10.5-84.4 23.5-91 20.7" class="st0"/>
  <path d="M701.4 357.1c-.5 1.7-1.2 3.4-2 5.2-5 10-17.7 23-38 29.1-4.5 1.4-9.3 2-14 2h-.1c-13 0-34.2-4.9-61.6-28.3-1.9-1.7-5.1-4.8-7.1-7-2.3-2.5-2.8-6.1-1.5-9.1s4.4-5.1 7.8-5.1h.5c13.9.8 30.1 1.2 48.4 1.2 8.1 0 14.8-.1 19.3-.1h4.5c7.4 0 13.3-.1 18.2-.1 8.1 0 13.7.1 17.1.2 2.9.1 5.6 1.5 7.3 3.9 1.5 2.3 2 5.2 1.2 8.1"/>
  <path fill="#f80" d="M590.4 359.4c25.7 21.9 45.1 26.5 56.8 26.5h.1c4 0 8-.6 11.9-1.7 18.1-5.4 29.2-16.6 33.5-25.3.8-1.5 1.2-2.8 1.5-3.9.4-1.3-.6-2.6-1.9-2.7-3.3-.1-8.9-.2-16.7-.2-5.4 0-11.6 0-18.2.1-3.3 0-12.2.2-23.9.2-13.9 0-31.7-.2-48.8-1.2h-.1c-.9 0-1.5 1.1-.8 1.8 2 2.2 5 5.1 6.6 6.4" class="st1"/>
  <path d="M417.6 376.2c-4.1 0-7.4 3.3-7.4 7.4 0 9.9 14.8 9.9 14.8 0 0-4.1-3.3-7.4-7.4-7.4m85.6-20.5c-4.1 0-7.4 3.3-7.4 7.4 0 9.9 14.8 9.9 14.8 0 0-4.1-3.3-7.4-7.4-7.4m-45.3 19.7c-7.4.8-12.3 2.5-15.6 4.9-5.9 4.4-4.1 9.9 2.5 10.7s7.1 1.2 13.2-3.3c6.5-4.9 7.3-13.1-.1-12.3"/>
  <path fill="#fc0" d="M512.4 655.2c-4.6-5.2-3.7-15.7-1.9-29.4 2.6-19.8 5-34.5 25.4-50.8 24.4-19.5 62.2-15 76.2-.5 3.6 3.7 6.7 10.9 7.3 18.8.9 11.4-22.2 42.4-44.8 51.8-22.6 9.6-54 19.3-62.2 10.1" class="st0"/>
  <path d="M512.4 658.9c-1.2 0-2.3-.5-3-1.6-4.7-6.7-4.5-17.2-2.6-32 2.5-19 4.6-35.5 26.8-53.2 26.8-21.4 63.7-14 78.4.7 1.4 1.4 1.4 3.8 0 5.2s-3.8 1.4-5.2 0c-12.5-12.5-45.4-18.7-68.6-.1-18.9 15.1-21.4 28.2-24.1 48.4-1.4 11-2.3 21.8 1.3 26.7 1.2 1.7.8 4-.9 5.2-.6.5-1.4.7-2.1.7"/>
  <path d="M523.7 651.2c-.4 1.9-2 9.1-6.7 16.2-7 10.6-17.8 16.5-30.4 16.5-7.2 0-12.9-2.1-16.8-6.2-7.5-7.8-7.1-21-6.7-33.7v-.1c.2-6.4.4-13.1-.4-18.5-.7-4.4-1.8-9.1-3.1-14.5-2.4-10.2-4.6-20.1-4.3-28.7.4-10.7 4.7-18.9 12.8-24.4 3.5-2.4 7.4-3.5 11.4-3.5 9.3 0 18.9 6.2 28.7 18.6 7.1 8.9 13.1 20 15.4 28.1 6.4 21.8 4.9 34.9.1 50.2"/>
  <path fill="#fc0" d="M477 670.8c2 2.1 5.2 3.1 9.6 3.1 22.6 0 27-23.7 27.2-24.7 0-.2.1-.4.1-.6 4.4-13.9 5.7-25.2 0-44.8-3.7-13.2-21.1-39.4-34.4-39.4-2 0-4 .6-5.8 1.9-11.7 7.8-9.3 21.8-4.4 42.4 1.2 5.1 2.5 10.4 3.2 15.3 1 6.4.8 13.5.5 20.4-.2 10.6-.6 21.6 4 26.4" class="st0"/>
  <g class="LeftFoot--group">
    <path fill="#cab393" d="M492.8 687s-2.9-61.9 7-75.6c12.5-17.3 28.5-.3 25.6-14.4-10.4-50.4-46.4-48.6-46.4-48.6"/>
    <path fill="#542f17" d="M466.7 547c-8.9.6-18.4 5-21.5 32.4-3.5 30.3 12.1 105.5 38.6 109.5s16.4-72.7 13.8-97.1c-2.7-24.4-12.9-46.1-30.9-44.8"/>
    <path fill="none" stroke="#080808" stroke-miterlimit="10" stroke-width="7" d="M466.7 547c-8.9.6-18.4 5-21.5 32.4-3.5 30.3 12.1 105.5 38.6 109.5s16.4-72.7 13.8-97.1c-2.7-24.4-12.9-46.1-30.9-44.8z"/>
    <path fill="#080808" d="M507.1 604c-.3 0-.5-.2-.5-.4-.2-1.7-.4-3.3-.5-4.8 0-.3.2-.5.4-.5.3 0 .5.2.5.4.2 1.5.3 3.1.5 4.8.1.3-.1.5-.4.5.1 0 0 0 0 0m-1-9.6c-.3 0-.5-.2-.5-.4l-.2-1.4c-.1-1.1-.3-2.3-.4-3.4 0-.3.1-.5.4-.6.3 0 .5.2.5.4.2 1.1.3 2.3.4 3.4l.2 1.4c.1.4-.1.6-.4.6m-1.3-9.5c-.2 0-.5-.2-.5-.4-.3-1.6-.6-3.2-1-4.7-.1-.3.1-.5.4-.6s.5.1.6.4c.4 1.6.7 3.1 1 4.8 0 .2-.2.4-.5.5m-2.2-9.4c-.2 0-.4-.1-.5-.4-.5-1.6-.9-3.1-1.5-4.6q-.15-.45.3-.6c.2-.1.5 0 .6.3.5 1.5 1 3 1.5 4.6.1.3 0 .6-.4.7.1 0 0 0 0 0m-3.2-9.1c-.2 0-.4-.1-.5-.3-.7-1.5-1.4-2.9-2.1-4.3-.1-.2-.1-.5.2-.7.2-.1.5-.1.7.2.8 1.4 1.5 2.8 2.2 4.3.1.2 0 .5-.2.6-.2.2-.3.2-.3.2m-4.8-8.3c-.2 0-.3-.1-.4-.2q-1.5-1.95-3-3.6c-.2-.2-.2-.5 0-.7s.5-.2.7 0c1.1 1.1 2.1 2.3 3.1 3.7.2.2.1.5-.1.7-.1 0-.2.1-.3.1m-6.7-6.7c-.1 0-.2 0-.3-.1-1.3-.9-2.7-1.5-4.1-2-.3-.1-.4-.4-.3-.6.1-.3.4-.4.6-.3 1.5.5 3 1.2 4.3 2.1.2.1.3.4.1.7 0 .1-.2.2-.3.2m-8.9-3h-2.4c-.3 0-.5-.2-.5-.5s.2-.5.4-.5q1.2-.15 2.4 0c.3 0 .5.2.5.5.1.3-.1.5-.4.5"/>
    <path fill="none" stroke="#080808" stroke-miterlimit="10" stroke-width="6.195" d="M499.8 611.3c12.5-17.3 28.5-.3 25.6-14.4-10.3-50.3-57.2-50-57.2-50"/>
    <path fill="#080808" d="M480.4 548.9c-1-.3-1.8-.5-2.3-.6l.9.1q.45 0 .9.3c.1 0 .3.1.5.2m11.2 7.7c-.2-.3-.4-.5-.6-.7.2.2.4.5.6.7"/>
    <path fill="#080808" d="M478.8 560.9c.2 2.5-5.3 1-11.8 1.5-6.6.5-11.7 2.8-11.9.3s5-4.9 11.5-5.4c6.5-.6 12 1.1 12.2 3.6m6.1 12.4c.2 3.3-6.9 1.3-15.6 1.9s-15.5 3.7-15.7.4 6.6-6.5 15.2-7.1c8.7-.7 15.9 1.5 16.1 4.8m6 12.1c.3 3.7-8.8 1.5-19.7 2.3s-19.6 4.3-19.8.6c-.3-3.7 8.4-7.4 19.3-8.2 10.8-.8 19.9 1.6 20.2 5.3m-26.5 71s9.1 24 18.6 23.2 12-24.4 9.3-27-29.4.2-27.9 3.8" opacity=".5"/>
  </g>
  <path d="M478 413.3c-6.4 2.9-12.4 6.6-17.6 11.1-12.1 10.6-12.6 19.4-10.8 24.8 2.5 7.7 11.1 13.4 21.9 14.6 7.1.7 16.2-1.3 26.7-3.6 13.9-3.1 29.7-6.6 42.9-3.9 19.6 4.1 33.3 15 53.1 32.7l10.3 9.2c1.5 1.3 3.9 1.2 5.2-.4 1.3-1.5 1.2-3.9-.4-5.2l-2.9-2.6c-24-21.7-39.9-36-63.8-41-14.8-3.1-31.3.6-46 3.9-9.5 2.1-18.5 4.1-24.3 3.5-7.8-.8-14.1-4.6-15.7-9.5-1.5-4.7 1.6-10.7 8.7-17 20.7-18.2 59.1-23.7 87.5-12.5 4.7 1.9 7.4-5.1 2.7-6.9-11.4-4.4-24.6-6.6-37.7-6.2-10.1.4-30.5 4.8-39.8 9"/>
  <path fill="#fc0" d="M615.4 451c11.7 12.2 17 60.3-6 41.6l-2.9-2.6c-24-21.7-39.9-36-63.8-41-14.8-3.1-31.3.6-46 3.9-9.5 2.1-18.5 4.1-24.3 3.5-7.8-.8-14.1-4.6-15.7-9.5-1.5-4.7 1.6-10.7 8.7-17 20.7-18.2 59.3-24 87.5-12.5 4.6 2 46.1 16.5 62.5 33.6" class="st0"/>
</svg>