<svg xmlns="http://www.w3.org/2000/svg" xmlns:xlink="http://www.w3.org/1999/xlink" viewBox="0 0 1000 1000">
  <g class="Background--group" >
    <path d="M637.326 418.529c11.1 30.4 15.773 72.671 12.373 113.371-1.467 17.603-4.39 33.639-8.683 47.963 3.1 2.32 6.376 5.156 9.6 8.807 8.972 8.988 17.433 20.278 35.904 47.908 25.44 38.055 29.37 42.381 35.584 39.168 4.048-2.093 7.506-8.445 9.92-18.217 2.516-10.192 5.069-15.267 10.714-21.302 4.4-4.703 4.431-4.716 12.658-5.4 21.18-1.764 29.757-12.536 37.817-47.499 1.09-4.731 2.7-10.794 3.576-13.473l1.594-4.869 8.697.68c11.406.892 17.155-.532 22.102-5.479 5.606-5.606 7.382-12.027 7.154-25.863-.258-15.634.5-17.853 9.234-27.021 4.38-4.598 7.776-9.162 8.54-11.475 1.271-3.853 1.009-18.722-.464-23.242-1.287-3.95-4.677-9.586-4.677-9.586-72.003 24.145-119.427-43.108-211.643-44.471z"/>
    <path fill="#da0001" stroke="#000" stroke-linecap="round" stroke-linejoin="round" stroke-width="7" d="M638.338 417.943c2.248 6.637 4.211 13.938 5.875 21.707 2.212.536 5.55 1.148 9.467 1.672 6.62.886 15.62 2.398 20 3.362 21.433 4.716 57.195 18.799 58.879 23.185 1.146 2.987-2.357 2.255-12.944-2.701-21.265-9.955-48.638-17.68-69.369-19.578l-4.926-.451c5.093 26.674 6.777 58.057 4.38 86.761-.644 7.72-1.57 15.136-2.764 22.243.054.026.049.026.103.052 10.12 5.063 22.45 12.685 30.604 18.913 9.413 7.19 22.5 19.176 22.5 20.607 0 2.943-2.867 2.006-7.752-2.533-13.377-12.43-31.42-25.106-46.264-32.512a218.453 218.453 0 0 1-2.58 11.904c7.643 5.088 17.46 14.448 25.39 24.42 3.82 4.804 15.091 20.883 25.045 35.733 9.955 14.85 19.237 28.308 20.63 29.906 1.392 1.598 2.53 3.286 2.53 3.75 0 1.261 1.622 1.017 2.712-.406.526-.688 1.993-5.261 3.26-10.162 2.677-10.363 4.786-14.642 11.05-22.428 5.63-6.997 10.142-9.235 20.588-10.21 11.236-1.047 14.971-3.262 20.17-11.972 1.897-3.178 7.051-19.567 8.709-27.691.572-2.805.36-3.277-1.666-3.711-1.277-.274-5.922-1.24-10.322-2.145-16.789-3.454-40.665-10.72-42.504-12.937-1.602-1.93-.224-3.787 2.37-3.2 1.174.266 5.284 1.632 9.134 3.036 11.788 4.299 37.81 10.667 43.586 10.668 1.09 0 2.12-1.916 3.29-6.127.938-3.37 1.572-6.234 1.413-6.367-.16-.133-3.89-1.017-8.29-1.963-18.632-4.006-49.796-13.009-71-20.512-44.126-15.614-49.919-17.995-50.302-20.666-.171-1.189.362-2.364 1.22-2.693.838-.322 7.95 1.823 15.803 4.767 21.48 8.053 44.216 15.818 64.28 21.953 31.675 9.686 47.777 13.118 66.707 14.217l11.705.68 3.42-3.42c4.003-4.004 4.698-7.749 4.343-23.367l-.226-10-6.475.308c-15.812.758-44.73-3.705-61.25-9.453-12.288-4.276-13.724-4.995-13.724-6.89 0-1.876 2.796-1.869 7.32.026 6.114 2.554 23.774 7.357 33.18 9.023 4.95.877 16.457 1.862 25.572 2.188l16.572.592 3.065-5.397c1.686-2.968 4.242-6.487 5.68-7.82 1.436-1.334 2.61-2.796 2.61-3.25 0-.454-4.837-.835-10.75-.846-9.83-.019-22.143-1.21-26.5-2.568-1.993-.622-2.355-3.043-.544-3.647.663-.22 3.475-.022 6.25.442 9.238 1.543 36.334 1.944 37.195.55 1.27-2.055.506-13.774-1.242-19.037-1.573-4.734-1.747-4.892-4.77-4.32-9.127 1.726-28.481 1.805-38.953.158-10.155-1.597-28.38-6.953-34.465-10.127-1.496-.78-3.047-1.42-3.447-1.423-.4-.003-6.925-2.985-14.5-6.625-34.434-16.548-36.277-17.355-52.656-23.036-13.105-4.545-23.656-6.932-38.697-8.755-10.449-1.267-15.332-1.806-17.725-1.875z" paint-order="stroke fill markers"/>
    <path fill="#b00001" d="M638.338 417.943c2.113 6.241 3.974 13.073 5.572 20.327 2.766.027 9.005.044 14.623.302 12.277.564 32.1 3.582 38.324 5.63 1.739.57 6.71 1.95 10.286 3.066 3.575 1.115 7.4 2.415 8.5 2.89 1.1.475 3.644 1.584 5.652 2.465 2.008.881 3.876 1.604 4.152 1.604.512 0 10.746 5.742 16.196 9.087 5.243 3.22 22.848 11.664 27 12.952 2.2.682 5.125 1.609 6.5 2.06 8.065 2.648 22.742 5.567 34.5 6.861v-.001c3.85.424 13.3.718 21 .654l14.728.457c-.158-4.224-.818-9.333-1.82-12.35-1.573-4.734-1.747-4.892-4.77-4.32-9.127 1.726-28.481 1.805-38.953.158-10.155-1.597-28.38-6.953-34.465-10.127-1.496-.78-3.047-1.42-3.447-1.423-.4-.003-6.925-2.985-14.5-6.625-34.434-16.548-36.277-17.355-52.656-23.036-13.105-4.545-23.657-6.932-38.698-8.755-10.448-1.267-15.331-1.806-17.724-1.875zm6.982 27.196a286.075 286.075 0 0 1 2.596 16.152c15.348-3.163 70.447 5.307 70.447 5.307s3.283.369 4.948.254a179.41 179.41 0 0 1-3.696-1.684c-21.265-9.955-48.638-17.68-69.369-19.578zm110.62 64.398 5.703 4.328c-.242-.183 28.332 20.337 65.18 26.108.101-2.726.091-6.026-.005-10.246l-.226-10-6.474.308c-15.813.758-44.731-3.705-61.25-9.453-1.228-.427-1.908-.684-2.928-1.045zm-87.368 13.72c3.25 2.54 10.228 8.117 12.535 9.85 6.301 4.735 16.995 15.091 27.036 26.182 13.636 15.064 27.036 27.145 34.5 31.106 9.961 5.286 26.07 13.487 34.236 14.203 2.325-6.341 5.514-17.015 6.752-23.084.572-2.805.36-3.277-1.666-3.711-1.277-.274-5.922-1.24-10.322-2.145-16.789-3.454-40.665-10.721-42.504-12.937-1.602-1.93-.224-3.788 2.37-3.2 1.174.266 5.284 1.632 9.134 3.036 11.788 4.298 37.81 10.667 43.586 10.668 1.09 0 2.12-1.916 3.29-6.127.937-3.37 1.572-6.235 1.413-6.368-.16-.133-3.89-1.016-8.29-1.962-18.632-4.006-49.796-13.01-71-20.512-21.642-7.659-33.985-12.111-41.07-14.998z"/>
  </g>
  <g class="Body--group">
    <path d="M669.979 393.611c-4.74.034-9.487.119-14.227.198-11.133.647-16.921.9-26.268 1.57-3.547.254-66.557 5.387-71.555 11.002 0 0-1.529 1.286 1.767 2.549.454.736 77.434 9.5 77.434 9.5 92.468 6.52 125.863 73.624 221.175 50.27 6.434-2.104 11.076-4.359 12.072-5.864 1.62-2.448.664-9.325-2.113-15.195-3.347-7.075-13.047-17.875-20.139-22.426-4.662-2.992-5.198-3.109-9.775-2.127-24.22 5.194-56.255-.056-89.207-14.62-16.68-7.37-24.457-9.932-37.051-12.204-13.736-2.387-27.894-2.753-42.113-2.653z"/>
    <path fill="#da0001" stroke="#000" stroke-linecap="round" stroke-linejoin="round" stroke-width="7" d="M664.805 402.404c-5.555 0-11.538.076-18.035.217-29.665.64-55.842 2.567-52.627 3.873.825.335 17.25 2.239 36.5 4.23 52.547 5.436 63.075 8.326 106.5 29.237 36.676 17.66 49.74 22.282 68.5 24.24 10.71 1.117 13.79 1.111 24.29-.05 9.744-1.08 23.29-3.865 28.585-5.878 2.449-.93 2.744-1.45 2.16-3.812-1.191-4.827-6.713-12.312-12.847-17.416-4.851-4.037-6.442-4.846-8.512-4.326-8.981 2.254-32.696 2.24-45.814-.028-13.894-2.401-32.753-8.377-46.362-14.691-25.58-11.869-43.451-15.6-82.338-15.596z" paint-order="stroke fill markers"/>
  </g>
</svg>
