<svg xmlns="http://www.w3.org/2000/svg" xmlns:xlink="http://www.w3.org/1999/xlink" viewBox="0 0 1000 1000">
	<defs>
		<path id="a" d="M649.7 531.9c-2 24-6.7 45.1-13.9 62.9-8.5 20.9-20.3 36.6-35.1 46.8-34 23.4-64.8 26-76.4 26-1.3 0-2.5 0-3.8-.1-18.4-.8-26-4.4-32.7-7.5-5.9-2.8-11-5.2-24.9-5.7-37.5-1.5-67-9.9-83.1-23.6-.2-.1-.5-.4-.9-.7-4.8-3.5-19.3-14.3-25-24.7-5.3-9.7-6.2-22.3-2.3-31.4 13.4-31.2 24.5-40.5 33.5-48 3.6-3 6.4-5.3 8.8-8.7 2.2-3.1 3.8-7.1 4.9-12.2 0-.1 0-.2.1-.3 3.9-15 3.4-34.9 2.8-56-.2-5.7-.3-11.7-.4-17.5v-.1c0-18.6 9.6-40.7 25.7-59.2 18.1-20.8 41.6-33.6 66.1-36.2 20.2-2.1 34.3-3.1 45.9-3.1 43.7 0 58.6 14.8 82.2 48.4 7.5 10.6 12.1 22.5 16 33.7 11.1 30.4 15.9 76.5 12.5 117.2z"/>
	</defs>
	<path d="M436.6 504c-4.5 5.1-10.5 7.9-17 7.9-9.1 0-18.5-5.5-24.4-14.4-7.8-11.6-15.5-21.2-22.3-27.9l-4.8-4.7c-2-2-1.1-5.3 1.6-6.1l6.5-1.7c3.2-.9 6.4-2.7 9.1-5.5 3-3 4.8-6.7 5.2-10.4V430c0-1.3 1.5-2.1 2.5-1.3l9.3 6.9c.7.5 1.7 1.1 2.9 1.7 10.2 4.9 31.7 27.4 35.7 46.7 2.1 10.1-1.2 16.5-4.3 20z"/>
	<path fill="#fc0" d="M402.1 444.1c-1.5-.7-2.9-1.5-4.2-2.4-.5 5.5-3 11-7.3 15.3-3.7 3.7-8.1 6.2-12.5 7.4 8.7 8.6 17 19.8 23.2 29.1 4.5 6.7 11.6 11.1 18.3 11.1 4.1 0 8.1-1.6 11.4-5.4 13-14.8-17.3-49.6-28.9-55.1z" class="st0"/>
	<path d="M599.1 649.5c-9 25.7-26.4 50-50.3 70.3-23.8 20.3-51.8 34.7-81 41.6-6.9 1.6-14.1 2.5-21.5 2.5-30.8 0-58.9-13.9-74.8-27-13.6-11.1-21.2-23.3-20.9-33.5.4-12 6.7-20.7 16.8-23.3 2.1-.5 4.3-.8 6.7-.8 11.2 0 27.2 6.7 38.5 25.7 7.8 13.2 22 20.1 41.1 20.1h1.2c40.7-.8 87.6-31.2 109.1-70.8 7.7-14.1 13.2-29.6 17.1-40.8 1.9-5.4 3.6-10.1 5.1-13.5 1.3-3.1 4.1-9.4 10.4-9.4 4.1 0 7.6 1.8 9.9 5 5.5 7.6 3.3 23.3-7.4 53.9z"/>
	<path fill="#f80" d="M570.5 657.8c-22.7 41.7-72.5 73.9-115.5 74.7h-1.4c-21.6 0-38.3-8.4-47.4-23.8-9-15.1-22-22.1-32.1-22.1-1.7 0-3.3.2-4.8.6-7 1.8-11 7.6-11.3 16.4-.3 7.7 6.6 18 18.2 27.5 16.8 13.7 43.2 25.3 70.1 25.3 6.6 0 13.3-.7 19.8-2.3 57.2-13.5 108.5-57.4 126-107.1 5.4-15.3 16.7-49.2 4.5-49.2-4.5.1-10.8 31.8-26.1 60z" class="st1"/>
	<use xlink:href="#a"/>
	<use xlink:href="#a"/>
	<path fill="#fc0" d="M358.5 576.7c-3 7-2.2 17.4 2 25 5.6 10.3 23 22.2 24.1 23.2 15.1 12.9 43.7 20.5 78.7 21.9 31.2 1.3 24.3 11.8 57.6 13.3 1.1 0 2.2.1 3.5.1 16.7 0 43.7-5 72.2-24.7 58-39.9 52.9-165.3 34-218.6-3.9-11.1-8.3-22.2-15.1-31.9-23.5-33.5-36.6-45.2-76.2-45.2-12.2 0-26.9 1.1-45.1 3.1-49.9 5.3-85.3 55.3-85.3 88.1.3 27.4 2.5 55.1-2.7 75.5-1.4 6.5-3.4 11.2-6 14.9-9.8 13.5-23.4 12.4-41.7 55.3z" class="st0"/>
	<path d="M384.3 648c-2.4 3.7-6.4 5.7-11.5 5.7-1.9 0-4-.3-6.2-.8-25-6-59.3-43.6-63.6-64.5-1.9-9.4-.2-18 5-24.4 4.6-5.7 11.4-8.8 18.9-8.8 6.8 0 13.6 2.5 19.8 7.3 12.2 9.4 32.9 50.5 37.3 60.7 2.5 5.8 4.9 17.7.3 24.8z"/>
	<path fill="#fc0" d="M310.1 586.8c3.8 18.2 36.2 53.6 58.1 58.8 1.7.4 3.2.6 4.5.6 3.4 0 4.7-1.3 5.4-2.3 2.3-3.5 1.5-12.1-1-17.9-6.1-13.9-25.3-50.3-35.1-57.8-4.9-3.8-10.2-5.8-15.3-5.8-5.3 0-10 2.2-13.2 6.1-3.6 4.7-4.8 11.2-3.4 18.3z" class="st0"/>
	<path d="M413.3 399.4c-.4 4.4-3.8 8.4-11.1 12.9-4.7 3-10.2 5.5-13.9 6.5-6.5 1.7-12.3 2.6-17.3 2.6-6.7 0-10.6-1.6-12.7-2.9-4.8-3-4.4-7.2-4.2-8.5.5-3.1 2.9-5.5 5.9-6.2 3.5-.8 13.5-5.8 23.6-12.6 4.2-2.9 10.7-4.8 16.1-4.8 5.8 0 9.1 2.2 10.8 4.1 2.1 2.4 3.1 5.5 2.8 8.9z"/>
	<path fill="#f80" d="M361.4 411.3c0 .3.4.7.9.9 1.1.7 3.6 1.8 8.8 1.8 4.3 0 9.5-.8 15.4-2.3 5.2-1.4 19.1-8.8 19.5-13 .1-1.3-.2-2.4-.9-3.2-1-1.1-2.8-1.7-5.3-1.7-3.9 0-8.9 1.5-11.9 3.5-8.5 5.7-20.5 12.5-26.1 13.7-.3.1-.4.2-.4.3z" class="st1"/>
	<path d="M516.4 328.1c1.6 0 3.2 0 4.8.1 20.6.6 39.5 6.5 55.9 17 11.2 7.2 17.5 11.4 25.9 25.2 1.5 2.5 9 .8 7.9-1.1-10.1-17.6-17.5-22.3-29.8-30.3-17.7-11.4-37.8-17.6-59.7-18.2-1.6 0-3.3-.1-5-.1-1.6 0-3.3 0-4.9.1-24.3.6-47.8 6.6-67.8 17.1-20.2 10.6-37.1 26.1-48.9 44.7-7.7 12.3-10.3 23.9-7.4 33.5 2.4 7.8 7.9 12.7 12.3 14.6 1.4.6 2.9.9 4.7.9 9.3 0 34.7-9.3 45.7-24.8 8.4 4.5 17.6 6.7 28.1 6.7 12.6 0 25-3.2 36.4-6.9 3-1 3.8-2.2 3.9-4.1 0-1.3-1.2-3.6-3.8-3.5-.3 0-.7.1-1 .2-11.2 3.6-23.3 6.9-35.4 6.9-9.3 0-18.6-2-27.4-7.4-.6-.4-1.3-.5-1.9-.5-1.3 0-2.5.6-3.2 1.8l-.1.1c-7.9 14.3-33.3 24.1-41.2 24.1-.7 0-1.3-.1-1.7-.3-2.8-1.2-6.6-4.6-8.2-10-2.3-7.5 0-17 6.6-27.4 22.5-35.7 63.4-57.1 110.6-58.3 1.4-.1 3-.1 4.6-.1"/>
	<path fill="#fc0" d="M516.6 399.4c-1-.4-2-.7-3-.3-19.7 6.3-42.5 12-62.8-.5-1.7-1.1-4-.5-5.1 1.2l-.1.1c-8.6 15.7-38.3 26-43 23.9-2.8-1.2-6.6-4.6-8.2-10-2.3-7.5 0-17 6.6-27.4 22.5-35.7 63.4-57.1 110.6-58.3 3.1-.1 6.3-.1 9.5 0 20.6.6 39.5 6.5 55.9 17 13.2 8.5 19.7 12.7 30.6 33.6 5.6 10.5-84.4 23.5-91 20.7z" class="st0"/>
	<path d="M701.4 357.1c-.5 1.7-1.2 3.4-2 5.2-5 10-17.7 23-38 29.1-4.5 1.4-9.3 2-14 2h-.1c-13 0-34.2-4.9-61.6-28.3-1.9-1.7-5.1-4.8-7.1-7-2.3-2.5-2.8-6.1-1.5-9.1 1.3-3 4.4-5.1 7.8-5.1h.5c13.9.8 30.1 1.2 48.4 1.2 8.1 0 14.8-.1 19.3-.1h4.5c7.4 0 13.3-.1 18.2-.1 8.1 0 13.7.1 17.1.2 2.9.1 5.6 1.5 7.3 3.9 1.5 2.3 2 5.2 1.2 8.1z"/>
	<path fill="#f80" d="M590.4 359.4c25.7 21.9 45.1 26.5 56.8 26.5h.1c4 0 8-.6 11.9-1.7 18.1-5.4 29.2-16.6 33.5-25.3.8-1.5 1.2-2.8 1.5-3.9.4-1.3-.6-2.6-1.9-2.7-3.3-.1-8.9-.2-16.7-.2-5.4 0-11.6 0-18.2.1-3.3 0-12.2.2-23.9.2-13.9 0-31.7-.2-48.8-1.2h-.1c-.9 0-1.5 1.1-.8 1.8 2 2.2 5 5.1 6.6 6.4z" class="st1"/>
	<path d="M417.6 376.2c-4.1 0-7.4 3.3-7.4 7.4 0 9.9 14.8 9.9 14.8 0 0-4.1-3.3-7.4-7.4-7.4zm85.6-20.5c-4.1 0-7.4 3.3-7.4 7.4 0 9.9 14.8 9.9 14.8 0 0-4.1-3.3-7.4-7.4-7.4zm-45.3 19.7c-7.4.8-12.3 2.5-15.6 4.9-5.9 4.4-4.1 9.9 2.5 10.7 6.6.8 7.1 1.2 13.2-3.3 6.5-4.9 7.3-13.1-.1-12.3z"/>
	<path fill="#fc0" d="M512.4 655.2c-4.6-5.2-3.7-15.7-1.9-29.4 2.6-19.8 5-34.5 25.4-50.8 24.4-19.5 62.2-15 76.2-.5 3.6 3.7 6.7 10.9 7.3 18.8.9 11.4-22.2 42.4-44.8 51.8-22.6 9.6-54 19.3-62.2 10.1z" class="st0"/>
	<path d="M512.4 658.9c-1.2 0-2.3-.5-3-1.6-4.7-6.7-4.5-17.2-2.6-32 2.5-19 4.6-35.5 26.8-53.2 26.8-21.4 63.7-14 78.4.7 1.4 1.4 1.4 3.8 0 5.2-1.4 1.4-3.8 1.4-5.2 0-12.5-12.5-45.4-18.7-68.6-.1-18.9 15.1-21.4 28.2-24.1 48.4-1.4 11-2.3 21.8 1.3 26.7 1.2 1.7.8 4-.9 5.2-.6.5-1.4.7-2.1.7z"/>
	<path d="M523.7 651.2c-.4 1.9-2 9.1-6.7 16.2-7 10.6-17.8 16.5-30.4 16.5-7.2 0-12.9-2.1-16.8-6.2-7.5-7.8-7.1-21-6.7-33.7v-.1c.2-6.4.4-13.1-.4-18.5-.7-4.4-1.8-9.1-3.1-14.5-2.4-10.2-4.6-20.1-4.3-28.7.4-10.7 4.7-18.9 12.8-24.4 3.5-2.4 7.4-3.5 11.4-3.5 9.3 0 18.9 6.2 28.7 18.6 7.1 8.9 13.1 20 15.4 28.1 6.4 21.8 4.9 34.9.1 50.2z"/>
	<path fill="#fc0" d="M477 670.8c2 2.1 5.2 3.1 9.6 3.1 22.6 0 27-23.7 27.2-24.7 0-.2.1-.4.1-.6 4.4-13.9 5.7-25.2 0-44.8-3.7-13.2-21.1-39.4-34.4-39.4-2 0-4 .6-5.8 1.9-11.7 7.8-9.3 21.8-4.4 42.4 1.2 5.1 2.5 10.4 3.2 15.3 1 6.4.8 13.5.5 20.4-.2 10.6-.6 21.6 4 26.4z" class="st0"/>
	<path d="M478 413.3c-6.4 2.9-12.4 6.6-17.6 11.1-12.1 10.6-12.6 19.4-10.8 24.8 2.5 7.7 11.1 13.4 21.9 14.6 7.1.7 16.2-1.3 26.7-3.6 13.9-3.1 29.7-6.6 42.9-3.9 19.6 4.1 33.3 15 53.1 32.7l10.3 9.2c1.5 1.3 3.9 1.2 5.2-.4 1.3-1.5 1.2-3.9-.4-5.2l-2.9-2.6c-24-21.7-39.9-36-63.8-41-14.8-3.1-31.3.6-46 3.9-9.5 2.1-18.5 4.1-24.3 3.5-7.8-.8-14.1-4.6-15.7-9.5-1.5-4.7 1.6-10.7 8.7-17 20.7-18.2 59.1-23.7 87.5-12.5 4.7 1.9 7.4-5.1 2.7-6.9-11.4-4.4-24.6-6.6-37.7-6.2-10.1.4-30.5 4.8-39.8 9z"/>
	<path fill="#fc0" d="M615.4 451c11.7 12.2 17 60.3-6 41.6l-2.9-2.6c-24-21.7-39.9-36-63.8-41-14.8-3.1-31.3.6-46 3.9-9.5 2.1-18.5 4.1-24.3 3.5-7.8-.8-14.1-4.6-15.7-9.5-1.5-4.7 1.6-10.7 8.7-17 20.7-18.2 59.3-24 87.5-12.5 4.6 2 46.1 16.5 62.5 33.6z" class="st0"/>
	<path d="M390.6 457c-5.2 5.1-11.7 8.1-17.8 8.1-8.1 0-14-5.1-15.6-13.3-1-5.4.9-11.3 5.4-16.7 5.8-6.9 14.9-12 21.7-12.1h.2c1.3 0 2.6.2 3.8.6h.2l.1.1c4.5 1.8 7.9 6.2 9.1 11.8 1.4 7.5-1.2 15.5-7.1 21.5z"/>
	<path fill="#fc0" d="M385.4 451.7c4.2-4.2 6-9.6 5-14.7-.6-3.1-2.3-5.5-4.6-6.4-.4-.1-.9-.2-1.3-.2h-.1c-4 0-11.3 3.6-16.1 9.4-1.8 2.1-4.6 6.3-3.8 10.6 1.1 6 5.1 7.3 8.3 7.3 4.1 0 8.8-2.2 12.6-6z" class="st0"/>
	<path d="M637.326 418.529c11.1 30.4 15.773 72.671 12.373 113.371-1.467 17.603-4.39 33.639-8.683 47.963 3.1 2.32 6.376 5.156 9.6 8.807 8.972 8.988 17.433 20.278 35.904 47.908 25.44 38.055 29.37 42.381 35.584 39.168 4.048-2.093 7.506-8.445 9.92-18.217 2.516-10.192 5.069-15.267 10.714-21.302 4.4-4.703 4.431-4.716 12.658-5.4 21.18-1.764 29.757-12.536 37.817-47.499 1.09-4.731 2.7-10.794 3.576-13.473l1.594-4.869 8.697.68c11.406.892 17.155-.532 22.102-5.479 5.606-5.606 7.382-12.027 7.154-25.863-.258-15.634.5-17.853 9.234-27.021 4.38-4.598 7.776-9.162 8.54-11.475 1.271-3.853 1.009-18.722-.464-23.242-1.287-3.95-4.677-9.586-4.677-9.586-72.003 24.145-119.427-43.108-211.643-44.471z"/>
	<path fill="#da0001" stroke="#000" stroke-linecap="round" stroke-linejoin="round" stroke-width="7" d="M638.338 417.943c2.248 6.637 4.211 13.938 5.875 21.707 2.212.536 5.55 1.148 9.467 1.672 6.62.886 15.62 2.398 20 3.362 21.433 4.716 57.195 18.799 58.879 23.185 1.146 2.987-2.357 2.255-12.944-2.701-21.265-9.955-48.638-17.68-69.369-19.578l-4.926-.451c5.093 26.674 6.777 58.057 4.38 86.761-.644 7.72-1.57 15.136-2.764 22.243.054.026.049.026.103.052 10.12 5.063 22.45 12.685 30.604 18.913 9.413 7.19 22.5 19.176 22.5 20.607 0 2.943-2.867 2.006-7.752-2.533-13.377-12.43-31.42-25.106-46.264-32.512a218.453 218.453 0 0 1-2.58 11.904c7.643 5.088 17.46 14.448 25.39 24.42 3.82 4.804 15.091 20.883 25.045 35.733 9.955 14.85 19.237 28.308 20.63 29.906 1.392 1.598 2.53 3.286 2.53 3.75 0 1.261 1.622 1.017 2.712-.406.526-.688 1.993-5.261 3.26-10.162 2.677-10.363 4.786-14.642 11.05-22.428 5.63-6.997 10.142-9.235 20.588-10.21 11.236-1.047 14.971-3.262 20.17-11.972 1.897-3.178 7.051-19.567 8.709-27.691.572-2.805.36-3.277-1.666-3.711-1.277-.274-5.922-1.24-10.322-2.145-16.789-3.454-40.665-10.72-42.504-12.937-1.602-1.93-.224-3.787 2.37-3.2 1.174.266 5.284 1.632 9.134 3.036 11.788 4.299 37.81 10.667 43.586 10.668 1.09 0 2.12-1.916 3.29-6.127.938-3.37 1.572-6.234 1.413-6.367-.16-.133-3.89-1.017-8.29-1.963-18.632-4.006-49.796-13.009-71-20.512-44.126-15.614-49.919-17.995-50.302-20.666-.171-1.189.362-2.364 1.22-2.693.838-.322 7.95 1.823 15.803 4.767 21.48 8.053 44.216 15.818 64.28 21.953 31.675 9.686 47.777 13.118 66.707 14.217l11.705.68 3.42-3.42c4.003-4.004 4.698-7.749 4.343-23.367l-.226-10-6.475.308c-15.812.758-44.73-3.705-61.25-9.453-12.288-4.276-13.724-4.995-13.724-6.89 0-1.876 2.796-1.869 7.32.026 6.114 2.554 23.774 7.357 33.18 9.023 4.95.877 16.457 1.862 25.572 2.188l16.572.592 3.065-5.397c1.686-2.968 4.242-6.487 5.68-7.82 1.436-1.334 2.61-2.796 2.61-3.25 0-.454-4.837-.835-10.75-.846-9.83-.019-22.143-1.21-26.5-2.568-1.993-.622-2.355-3.043-.544-3.647.663-.22 3.475-.022 6.25.442 9.238 1.543 36.334 1.944 37.195.55 1.27-2.055.506-13.774-1.242-19.037-1.573-4.734-1.747-4.892-4.77-4.32-9.127 1.726-28.481 1.805-38.953.158-10.155-1.597-28.38-6.953-34.465-10.127-1.496-.78-3.047-1.42-3.447-1.423-.4-.003-6.925-2.985-14.5-6.625-34.434-16.548-36.277-17.355-52.656-23.036-13.105-4.545-23.656-6.932-38.697-8.755-10.449-1.267-15.332-1.806-17.725-1.875z" paint-order="stroke fill markers"/>
	<path fill="#b00001" d="M638.338 417.943c2.113 6.241 3.974 13.073 5.572 20.327 2.766.027 9.005.044 14.623.302 12.277.564 32.1 3.582 38.324 5.63 1.739.57 6.71 1.95 10.286 3.066 3.575 1.115 7.4 2.415 8.5 2.89 1.1.475 3.644 1.584 5.652 2.465 2.008.881 3.876 1.604 4.152 1.604.512 0 10.746 5.742 16.196 9.087 5.243 3.22 22.848 11.664 27 12.952 2.2.682 5.125 1.609 6.5 2.06 8.065 2.648 22.742 5.567 34.5 6.861v-.001c3.85.424 13.3.718 21 .654l14.728.457c-.158-4.224-.818-9.333-1.82-12.35-1.573-4.734-1.747-4.892-4.77-4.32-9.127 1.726-28.481 1.805-38.953.158-10.155-1.597-28.38-6.953-34.465-10.127-1.496-.78-3.047-1.42-3.447-1.423-.4-.003-6.925-2.985-14.5-6.625-34.434-16.548-36.277-17.355-52.656-23.036-13.105-4.545-23.657-6.932-38.698-8.755-10.448-1.267-15.331-1.806-17.724-1.875zm6.982 27.196a286.075 286.075 0 0 1 2.596 16.152c15.348-3.163 70.447 5.307 70.447 5.307s3.283.369 4.948.254a179.41 179.41 0 0 1-3.696-1.684c-21.265-9.955-48.638-17.68-69.369-19.578zm110.62 64.398 5.703 4.328c-.242-.183 28.332 20.337 65.18 26.108.101-2.726.091-6.026-.005-10.246l-.226-10-6.474.308c-15.813.758-44.731-3.705-61.25-9.453-1.228-.427-1.908-.684-2.928-1.045zm-87.368 13.72c3.25 2.54 10.228 8.117 12.535 9.85 6.301 4.735 16.995 15.091 27.036 26.182 13.636 15.064 27.036 27.145 34.5 31.106 9.961 5.286 26.07 13.487 34.236 14.203 2.325-6.341 5.514-17.015 6.752-23.084.572-2.805.36-3.277-1.666-3.711-1.277-.274-5.922-1.24-10.322-2.145-16.789-3.454-40.665-10.721-42.504-12.937-1.602-1.93-.224-3.788 2.37-3.2 1.174.266 5.284 1.632 9.134 3.036 11.788 4.298 37.81 10.667 43.586 10.668 1.09 0 2.12-1.916 3.29-6.127.937-3.37 1.572-6.235 1.413-6.368-.16-.133-3.89-1.016-8.29-1.962-18.632-4.006-49.796-13.01-71-20.512-21.642-7.659-33.985-12.111-41.07-14.998z"/>
	<path d="M669.979 393.611c-4.74.034-9.487.119-14.227.198-11.133.647-16.921.9-26.268 1.57-3.547.254-66.557 5.387-71.555 11.002 0 0-1.529 1.286 1.767 2.549.454.736 77.434 9.5 77.434 9.5 92.468 6.52 125.863 73.624 221.175 50.27 6.434-2.104 11.076-4.359 12.072-5.864 1.62-2.448.664-9.325-2.113-15.195-3.347-7.075-13.047-17.875-20.139-22.426-4.662-2.992-5.198-3.109-9.775-2.127-24.22 5.194-56.255-.056-89.207-14.62-16.68-7.37-24.457-9.932-37.051-12.204-13.736-2.387-27.894-2.753-42.113-2.653z"/>
	<path fill="#da0001" stroke="#000" stroke-linecap="round" stroke-linejoin="round" stroke-width="7" d="M664.805 402.404c-5.555 0-11.538.076-18.035.217-29.665.64-55.842 2.567-52.627 3.873.825.335 17.25 2.239 36.5 4.23 52.547 5.436 63.075 8.326 106.5 29.237 36.676 17.66 49.74 22.282 68.5 24.24 10.71 1.117 13.79 1.111 24.29-.05 9.744-1.08 23.29-3.865 28.585-5.878 2.449-.93 2.744-1.45 2.16-3.812-1.191-4.827-6.713-12.312-12.847-17.416-4.851-4.037-6.442-4.846-8.512-4.326-8.981 2.254-32.696 2.24-45.814-.028-13.894-2.401-32.753-8.377-46.362-14.691-25.58-11.869-43.451-15.6-82.338-15.596z" paint-order="stroke fill markers"/>
</svg>
