<svg xmlns="http://www.w3.org/2000/svg" viewBox="0 0 1000 1000">
  <g class="Background--group">
    <path fill="#9ac130" stroke="#000000" stroke-linecap="round" stroke-width="5.001" d="M588.574 297.847c4.829 4.421 7.774 10.045 8.993 16.937 1.142 6.853.04 14.257-1.47 20.31-1.51 6.052-3.427 10.752-5.527 12.735-2.1 1.982-4.385 1.247-6.013.551-1.628-.696-2.6-1.352-2.153-3.925.446-2.574 2.31-7.064 3.373-11.646 1.064-4.582 1.326-9.255-.498-12.682-1.825-3.427-5.737-5.606-8.69-7.943-2.955-2.337-4.95-4.831-5.384-8.297-.434-3.467.695-7.904 4.03-9.493 3.336-1.589 8.976-.336 13.339 3.453z" class="Background--group"/>
  </g>
  <g class="Head--group">
    <path fill="#9ac130" stroke="#000000" stroke-linecap="round" stroke-linejoin="round" stroke-width="5.001" d="M446.43 286.637c10.131 5.563 26.178 4.926 26.178 4.926 28.222.97 14.3 26.858-11.35 12.73 0 0-14.457-5.812-14.828-17.656z" />
    <path fill="#fff140" stroke="#000000" stroke-linecap="round" stroke-linejoin="round" stroke-width="5.001" d="M462.614 333.865c.274 4.109 6.272 15.154 15.858 11.69-.005-3.3 1.791-7.917 4.939-12.511-2.02 1.565-15.533 2.025-20.797.82z" />
    <path fill="#fffdf3" stroke="#000000" stroke-linecap="round" stroke-linejoin="round" stroke-width="5.001" d="M485.548 328.494c-2.436 2.456-4.226 6.538-5.572 9.666-2.54 5.684-2.24 11.738 3.576 13.469 11.935 3.87 30.358-2.494 31.05-10.034.216-2.352-1.847-9.432-10.343-13.286-13.885-6.855-13.137-6.363-18.71.185z" />
    <path fill="#eae4ba" stroke="#eae4ba" stroke-linecap="round" stroke-linejoin="round" stroke-width=".669" d="M490.495 331.419c-.126.639-.38 1.916-.89 2.63-.511.714-1.28.864-1.74.589-.46-.275-.607-.975-.095-1.694.511-.719 1.682-1.456 2.854-2.193l-.002.024-.127.644z"/>
    <path fill="#eae4ba" stroke="#eae4ba" stroke-linecap="round" stroke-linejoin="round" stroke-width=".669" d="M493.154 331.203c.49.607 1.468 1.82 1.746 2.871.28 1.051-.14 1.94-.77 2.11-.629.167-1.468-.386-1.76-1.437-.29-1.052-.032-2.601.109-3.376.14-.775.164-.775.175-.775.01 0 .01 0 .5.607z"/>
    <path fill="#eae4ba" stroke="#eae4ba" stroke-linecap="round" stroke-linejoin="round" stroke-width=".669" d="M498.793 331.481c-.045.3-.136.9-.484 1.206-.347.307-.953.323-1.517-.169-.565-.491-1.09-1.492-1.351-1.991-.261-.5-.26-.499.35-.306l2.439.768c.609.192.609.192.563.492z"/>
    <path fill="#fff140" stroke="#030303" stroke-linecap="round" stroke-width="5.001" d="M469.228 294.697c-11.142 11.07-15.651 24.71-10.54 33.345 2.48 4.188 8.178 6.414 11.525 6.414 4.04 0 11.631-2.196 15.861-5.425 4.276-3.263 5.49-4.638 5.49-4.638 4.137 2.037 11.012 3.839 19.57 2.675 0 0 9.123-8.164 3.346-2.949-4.514 3.85-6.025 8.428-5.205 11.695 1.14 4.541 10.184 5.004 15.828.882 4.287-3.39 5.852-4.488 8-5.718 4.201-2.399 7.958-3.835 10.825-4.155 6.65-.627 25.254 10.585 34.462 15.853-3.086-13.676-10.788-25.896-11.346-26.74-3.049-4.54-9.991-13.684-11.369-15.22-9.7-11.38-28.182-21.51-46.26-21.766-22.378.378-30.505 7.137-40.187 15.747z" />
    <path fill="#ffae85" d="M470.661 321.609a4.147 4.147 0 0 1-4.147 4.147 4.147 4.147 0 0 1-4.147-4.147 4.147 4.147 0 0 1 4.147-4.147 4.147 4.147 0 0 1 4.147 4.147zm55.043-6.85a4.11 4.11 0 0 1-4.11 4.11 4.11 4.11 0 0 1-4.11-4.11 4.11 4.11 0 0 1 4.11-4.11 4.11 4.11 0 0 1 4.11 4.11z" />
    <path fill="none" stroke="#000" stroke-linecap="round" stroke-linejoin="round" stroke-width="5.001" d="M511.59 326.703c11.59-12.305 26.024-12.188 27.395-12.303"/>
    <path fill="#9ac130" stroke="#000" stroke-linecap="round" stroke-linejoin="round" stroke-width="5.001" d="M562.44 271.304c-8.435 8.69-27.454 15.782-36.658 18.099 6.67 8.644 15.728 8.24 23.465 6.425 7.661-2.665 13.16-9.47 13.193-24.524z" />
    <path d="M478.447 313.775a3.26 3.26 0 0 1-3.26 3.26 3.26 3.26 0 0 1-3.26-3.26 3.26 3.26 0 0 1 3.26-3.26 3.26 3.26 0 0 1 3.26 3.26zm36.212-4.468a3.26 3.26 0 0 1-3.26 3.26 3.26 3.26 0 0 1-3.26-3.26 3.26 3.26 0 0 1 3.26-3.26 3.26 3.26 0 0 1 3.26 3.26z" />
    <path d="M487.04 315.448c2.019-1.018 6.285-1.116 8.258-.195 1.972.92 1.652 2.858.48 4.264-1.171 1.405-3.194 2.278-5.054 2.327-1.859.05-3.554-.725-4.516-2.08-.961-1.357-1.189-3.297.831-4.316z"/>
  </g>
</svg>