<svg version="1.1" id="wapuugotchi_svg__item" viewBox="0 0 1e3 1e3" xmlns="http://www.w3.org/2000/svg">
  <g class="Head--group">
    <path fill="#1d1d1d" d="M561.218 307.44s.147-20.082 11.328-26.482c11.255-6.4 17.581 12.58 17.581 12.58s-10.151 3.236-28.91 13.902z"/>
    <path d="m555.995 316.34.074-8.9c0-.22.073-5.738 1.618-12.064 2.28-9.121 6.4-15.521 12.358-18.905 2.354-1.324 4.708-1.986 7.135-1.986 11.77 0 17.287 15.668 17.876 17.434l1.618 4.928-5.002 1.545c-.074 0-10.078 3.237-27.953 13.462zm21.185-31.556c-.588 0-1.25.22-1.986.662-4.046 2.28-6.326 7.576-7.503 12.652 6.841-3.605 12.064-5.958 15.595-7.43-1.766-3.163-4.12-5.884-6.106-5.884z"/>
    <path fill="#1d1d1d" d="M623.303 389.313s-55.906-63.556-163.01-55.612c0 0-34.132-17.728-35.603-40.826 0 0 39.722-42.518 140.941 10.299 52.817 27.511 72.457 61.202 73.046 78.71.22 6.399-6.106 9.562-15.374 7.429z"/>
    <path d="M628.673 394.903c-2.06 0-4.193-.294-6.474-.735l-1.544-.368-1.03-1.177c-.147-.147-12.358-13.83-35.824-27.364-21.553-12.432-57.304-27.291-105.191-27.291-5.885 0-11.917.22-17.95.662l-1.397.073-1.25-.662c-1.472-.809-36.633-19.273-38.252-44.872l-.147-2.133 1.471-1.545c.662-.735 16.993-17.728 54.067-17.728 27.144 0 58.407 9.122 92.76 26.997 24.128 12.579 44.062 27.953 57.671 44.357 11.108 13.461 17.728 27.511 18.096 38.545.147 3.531-1.03 6.62-3.31 8.975-2.796 2.795-6.768 4.266-11.696 4.266zm-2.87-10.151c3.385.515 6.253.147 7.357-1.03.147-.147.588-.588.515-1.765-.295-8.754-6.18-20.965-15.816-32.588-12.726-15.374-31.557-29.865-54.582-41.855-32.955-17.213-62.673-25.894-88.198-25.894-16.993 0-28.836 3.973-35.824 7.356-4.635 2.207-7.724 4.488-9.49 5.885 1.619 9.269 9.563 17.655 16.184 23.172 6.4 5.37 12.726 9.195 15.3 10.592 5.738-.367 11.55-.588 17.213-.588 50.316 0 87.905 15.668 110.562 28.836 20.817 12.064 33.102 24.054 36.78 27.879z"/>
  </g>
</svg>
