<svg xmlns="http://www.w3.org/2000/svg" viewBox="0 0 1000 1000">
  <g class="Background--group">
    <path fill="none" stroke="#231815" stroke-linecap="round" stroke-linejoin="round" stroke-width="8.08" d="M710.341 387.307s-46.021-2.44-55.5-16.17l-15.827-3.242 25.567.192Z"/>
    <path fill="none" stroke="#231815" stroke-linecap="round" stroke-linejoin="round" stroke-width="8.08" d="M659.395 369.309s27.457 7.321 61.013 29.896c33.557 22.575 31.422 22.575 31.422 22.575l13.728-7.931s-72.606-45.15-100.977-45.76z"/>
    <path fill="#af0e29" d="M710.341 387.307s-47.586-1.788-57.065-15.517l-1.172-4.57 12.477.867z"/>
    <path fill="none" stroke="#231815" stroke-linecap="round" stroke-linejoin="round" stroke-width="8.08" d="M658.138 388.529s26.883 17.083 40.305 30.202c13.422 13.118 26.234 33.25 26.234 33.25s7.322-7.93 5.491-16.472c-1.83-8.542-25.297-32.947-47.578-44.235l-22.28-11.287-20.383-11.775-2.226 8.49z"/>
    <path fill="none" stroke="#231815" stroke-linecap="round" stroke-linejoin="round" stroke-width="8.08" d="M730.17 435.507c-1.244-5.807-12.494-18.944-26.568-30.31 5.634 9.369 8.631 20.578 10.59 31.849 6.203 8.208 10.487 14.936 10.487 14.936s7.322-7.933 5.491-16.475z"/>
    <path fill="#e60012" d="M654.374 367.548s32.478 9.082 66.034 31.657c33.557 22.575 31.422 22.575 31.422 22.575l13.728-7.931s-72.606-45.15-100.977-45.76z"/>
    <path fill="#af0e29" d="M658.138 388.529s26.883 17.083 40.305 30.202c13.422 13.118 26.234 33.25 26.234 33.25s7.322-7.93 5.491-16.472c-1.83-8.542-25.297-32.947-47.578-44.235l-22.28-11.287-18.217-10.065-1.998 8.262z"/>
    <path fill="#e60012" d="M730.17 435.507c-1.244-5.807-12.494-18.944-26.568-30.31 5.634 9.369 8.631 20.578 10.59 31.849 6.203 8.208 10.487 14.936 10.487 14.936s7.322-7.933 5.491-16.475z"/>
  </g>
  <g class="Body--group">
    <path fill="#231815" d="M421.309 361.212a5.386 5.386 0 0 1-4.895-3.418c-.406-1.036-9.8-25.654 4.034-49.662 11.831-20.532 36.574-33.8 73.545-39.44a138.893 138.893 0 0 1 20.848-1.603c22.276 0 42.03 5.469 59.16 13.73 17.133 8.26 31.643 19.313 43.432 30.483 11.789 11.17 20.857 22.455 27.105 31.182 6.247 8.726 5.464 16.874 5.971 17.806-2.783.99-14.824 5.666-36.265 5.192-21.441-.475-32.834-35.05-61.417-35.682-28.583-.632-66.983-1.74-92.166 6.822-20.3 6.902-39.352 24.59-39.352 24.59Z"/>
    <path fill="#fff" d="M421.428 355.825s-26.145-66.629 73.377-81.81c99.522-15.183 155.186 86.87 155.186 86.87l-168.564-40.448Z"/>
    <path fill="#e1e2ef" d="M494.803 274.016c-13.833 2.11-25.232 5.217-34.616 8.999 35.218 17.968 34.898 15.615 58.3 47.437l131.502 30.436c.002-.002-55.664-102.054-155.186-86.872Z"/>
    <path fill="none" stroke="#231815" stroke-linecap="round" stroke-linejoin="round" stroke-width="4.04" d="m598.043 339.053-.35 2.127-.672 3.999-.889 5.32s-69.618-23.337-108.278-19.042c-38.647 4.295-67.493 27.434-67.493 27.434l-.067-.472-.512-3.73-.296-2.115s9.145-32.186 52.748-42.043c43.6-9.87 125.81 28.522 125.81 28.522z"/>
    <path fill="#246591" stroke="#231815" stroke-linecap="round" stroke-linejoin="round" stroke-miterlimit="10" stroke-width="2.693" d="m598.043 337.053-.35 2.127-.672 3.999-.889 5.32s-69.618-23.337-108.278-19.042c-38.647 4.295-67.493 27.434-67.493 27.434l-.067-.472-.512-3.73-.296-2.115s9.145-32.186 52.748-42.043c43.6-9.87 125.81 28.522 125.81 28.522z"/>
    <path fill="#fff" d="m596.387 338.748-.62 4.053c-13.668-4.12-36.855-11.07-50.577-14.814-20.388-5.561-46.993-10.492-72.27-6.14-16.559 2.851-38.103 21.575-48.655 30.476l-2.801 2.101-.377-3.34c7.138-8.604 25.965-27.204 52.196-33.842 29.53-7.458 95.486 12.403 123.104 21.506z"/>
    <path fill="#e1e2ef" d="M640.892 379.287c-23.794 13.937-63.693-40.465-74.088-55.506l2.665.283 58.428 6.167 3.272.337c8.377 8.213 32.872 35.13 9.723 48.719z"/>
    <path fill="#231815" d="m634.375 330.904-3.206-.337-3.272-.338c3.677 3.407 21.962 21.128 20.602 35.308-.484 4.954-3.299 8.873-8.631 11.999-2.248 1.318-4.78 1.993-7.514 1.993-21.962 0-52.61-40.828-62.885-55.467l-2.665-.283-2.653-.283c7.838 11.554 42.283 60.07 68.205 60.07 3.46 0 6.68-.847 9.548-2.544 6.45-3.77 10.018-8.86 10.61-15.109 1.25-13.127-11.192-27.887-18.139-35.01z"/>
    <path fill="#ced0e0" d="m511.9 295.475 19.41 15.905 35.492 10.963s-17.192-14.245-26.773-17.55c-9.581-3.305-28.13-9.318-28.13-9.318z"/>
    <path fill="#231815" d="M568.94 327.609s-.698-.768-1.922-2.11c-.313-.32-.632-.744-1.026-1.077l-1.278-1.077c-.904-.77-1.894-1.654-3.183-2.5-1.235-.88-2.533-1.875-4.05-2.763-1.477-.934-3.036-1.913-4.734-2.807l-2.552-1.41-2.682-1.34c-1.79-.925-3.662-1.77-5.528-2.62-3.731-1.712-7.56-3.22-11.124-4.692a516.017 516.017 0 0 0-9.86-3.75l-7.022-2.521-2.658-.911-.058-.02a2.007 2.007 0 0 1-1.248-2.549 2.01 2.01 0 0 1 2.472-1.272l2.775.83c1.756.53 4.245 1.327 7.197 2.383 2.965 1.02 6.376 2.353 10.011 3.822 1.807.77 3.687 1.526 5.558 2.395 1.867.881 3.787 1.712 5.657 2.671 1.881.93 3.763 1.854 5.573 2.863.91.492 1.812.98 2.705 1.46l2.587 1.539c1.715.976 3.31 2.045 4.816 3.068 1.533.97 2.891 2.058 4.15 3.04 1.27.936 2.366 2.004 3.332 2.937.988.92 1.816 1.728 2.338 2.449 1.15 1.406 1.805 2.211 1.805 2.211a1.346 1.346 0 0 1-2.036 1.76z"/>
  </g>
</svg>