<svg version="1.2" id="wapuugotchi_svg__item" viewBox="0 0 1e3 1e3" xmlns="http://www.w3.org/2000/svg">
	<g class="Ball--group">
      <path d="M565.02 434.92a133.5 133.5 0 0 1 0 188.8 133.5 133.5 0 0 1-188.8 0 133.5 133.5 0 0 1 0-188.8 133.5 133.5 0 0 1 188.8 0z"/>
      <path fill="#77b237"
            d="M596.7 529.3a126.1 126.1 0 0 1-126.1 126.1 126.1 126.1 0 0 1-126.1-126.1 126.1 126.1 0 0 1 126.1-126.1 126.1 126.1 0 0 1 126.1 126.1Z"/>
      <path fill="#77b237"
            d="M596.7 529.3c0 69.643-56.457 126.1-126.1 126.1 62.408-.12 102.691-59.666 102.691-129.309S533.04 403.2 470.6 403.2c69.643 0 126.1 56.457 126.1 126.1z"
            style="fill:#5d8227;fill-opacity:1"/>
      <path fill="#597f26" d="M400.126 518.728c-.437 25.733 83.664 32.55 110.446 24.295"/>
      <path d="M438.052 584.658c-3.554-11.192-.911-23.035-2.224-34.499-.915-7.931-4.723-17.741 1.416-24.451l-.077.078c.453-.436.958-.86 1.485-1.227.164-.12-.242.13.052-.034.086-.048.449-.225.116-.078-.561.23.885-.337.264-.112-.471.147.47-.125.57-.143-.018.005-.575.104-.234.048.216-.056 1.278-.151.627-.1 1.942-.047 3.354.057 5.345 1.153.57.333 1.416 1.296 1.351 2.034-2.521 5.363-.384 11.187-1.381 16.77-.311 1.395 3.86.738 4.153-.579.816-3.665-.134-7.391.048-11.087-.341-2.69 2.474-5.363.704-7.79-3.878-3.8-10.967-3.428-15.225-.41-10.63 8.666-2.141 23.273-2.992 34.602.35 4.042-1.895 29.443 4.162 27.314.497-.142 2.09-.695 1.835-1.498z"
            opacity=".36"/>
      <path d="M436.385 583.582c-3-9.395-1.593-19.356-1.857-29.032-.064-2.327-.177-4.689-.574-6.99-.28-1.624-.596-3.238-.88-4.862-.58-3.312-1.097-6.731-.795-10.099.147-1.623.484-3.243 1.127-4.745a8.888 8.888 0 0 1 1.058-1.883c.233-.328.483-.639.747-.94.06-.07.12-.135.181-.204-.013.013.302-.306.147-.155-.156.15.177-.164.16-.151.086-.078.172-.16.259-.234a16.74 16.74 0 0 1 1.023-.803c.212-.155-.25.121-.009.009.1-.047.19-.117.285-.168.048-.026.208-.087.23-.117-.264.125-.325.155-.182.095.06-.026.116-.052.177-.073.078-.03.16-.06.237-.091.341-.134-.147.06-.181.06.125 0 .51-.108.622-.164-.035.018-.544.091-.186.04l.255-.04c.086-.013.172-.021.255-.03.423-.06-.402.009-.01 0 .195 0 .39-.013.584-.009.108 0 .216.01.324.013-.052 0-.393-.043-.074 0 .406.052.808.117 1.205.208.246.056-.333-.113.056.013.082.026.164.051.242.077.16.052.32.113.475.177a7 7 0 0 1 1.122.562c-.15-.095.186.134.242.177a6.198 6.198 0 0 1 1.222 1.174 4.86 4.86 0 0 1 .885 1.909c.043.18.078.367.095.552.009.082.009.164.017.242.022.263.018-.048 0 0-.069.233-.06.48-.15.712-.022.052-.048.104-.065.156-.087.242-.078-.06.056-.1-.048.013-.156.251-.19.298-.139.19-.294.359-.454.532-.216.233.324-.316.013-.013-.09.09-.181.177-.272.267-.263.26-.53.523-.777.803-1.01 1.149-1.386 2.53-1.343 4.042.078 2.871 1.4 5.725 2.617 8.26a72.03 72.03 0 0 0 1.615 3.147c.41.756 1.645.579 2.335.38.497-.142 1.002-.332 1.4-.67.19-.159.587-.543.431-.828-1.71-3.17-3.549-6.602-4.119-10.207a9.536 9.536 0 0 1-.116-1.49c0-.164-.022.19.004-.069a7.05 7.05 0 0 1 .03-.32c.022-.194.056-.388.1-.578a5.05 5.05 0 0 1 .319-.898c.12-.272-.1.147-.03.052.043-.06.077-.134.116-.199a3.81 3.81 0 0 1 .242-.345 7.82 7.82 0 0 1 .531-.605c.216-.229-.22.216-.116.117l.129-.13c.09-.086.181-.177.268-.263.505-.501.954-.972 1.273-1.61.92-1.836-.272-4.184-1.636-5.437-2.906-2.68-7.457-2.772-10.988-1.476-3.558 1.304-6.283 4.59-7.37 8.16-1.024 3.355-.847 7.012-.411 10.453.462 3.64 1.382 7.21 1.736 10.86.963 9.965-.877 20.103 1.174 29.977a36.12 36.12 0 0 0 .954 3.627c.255.799 1.762.544 2.336.38.492-.142 2.09-.695 1.835-1.498z"/>
      <path fill="#5d8227"
            d="M437.94 567.87c-10.255-2.716-21.64 4.266-23.89 14.642-1.442 9.74-10.035 28.505-2.962 37.607 3.553 5.859 10.069 9.443 16.882 9.425 8.899.117 17.314-6.49 19.248-15.194 3.67-16.14 13.886-40.094-9.279-46.475z"/>
      <path fill="#c6c6c6"
            d="M418.26 627.1c-9.785-2.258-15.92-12.154-13.601-21.92 4.149-14.97 4.75-42.392 27.65-37.737 9.784 2.258 15.92 12.15 13.597 21.92-4.15 14.97-4.75 42.392-27.65 37.738z"/>
      <path d="M440.145 579.725c-1.732 6.84-5.139 20.187-7.334 27.815-2.194 7.628-3.176 9.537-4.843 10.706-1.667 1.17-4.019 1.599-7.898 1.232-3.88-.366-9.287-1.528-12.05-2.145-2.762-.616-2.879-.687-2.748.158.13.846.509 2.607 1.608 4.31 1.099 1.703 2.919 3.348 5.349 4.48 2.43 1.132 5.468 1.751 8.097 1.995 2.63.245 4.848.114 6.753-.24 1.905-.355 3.495-.933 4.95-2.01 1.457-1.078 2.779-2.655 4.248-4.954 1.469-2.3 3.084-5.32 4.28-7.914 1.196-2.594 1.971-4.762 3.041-9.08 1.07-4.317 2.433-10.782 3.06-14.957.628-4.175.52-6.059.28-7.497-.24-1.439-.61-2.432-1.08-3.39-.472-.958-1.043-1.88-1.522-2.623a53.89 53.89 0 0 0-1.24-1.839c-.375-.534-.739-1.041-.95-1.129-.21-.088-.268.243-2 7.082z"
            style="fill:#a3a3a3;fill-opacity:1;stroke:none;stroke-width:1px;stroke-linecap:butt;stroke-linejoin:miter;stroke-opacity:1"/>
      <path d="M427.43 566.92c1.507 0 3.13.169 4.884.527 9.783 2.258 15.919 12.15 13.596 21.921-3.834 13.821-4.637 38.26-22.767 38.26-1.507 0-3.126-.17-4.884-.527-9.784-2.259-15.919-12.155-13.6-21.921 3.834-13.821 4.637-38.26 22.767-38.26m0-4.317v4.317-4.317c-8.186 0-14.469 4.045-18.683 12.016-3.299 6.243-4.909 14.054-6.325 20.945-.635 3.079-1.235 5.984-1.917 8.458l-.022.078-.017.078c-1.39 5.85-.402 11.904 2.79 17.05 3.19 5.143 8.177 8.722 14.036 10.078l.056.013.056.013c1.995.406 3.93.613 5.743.613 8.182 0 14.468-4.041 18.682-12.016 3.3-6.244 4.91-14.054 6.326-20.95.635-3.078 1.235-5.988 1.917-8.458l.021-.078.018-.077c1.39-5.85.401-11.909-2.79-17.051-3.19-5.142-8.177-8.722-14.036-10.078l-.056-.013-.057-.012c-1.994-.406-3.929-.614-5.742-.614z"/>
      <path d="m430.263 566.96 4.352.366-6.33 26.658-4.201-.998z"/>
      <path d="M443.66 602.144a68.663 68.663 0 0 0-36.95-8.773l-.203-4.314a72.984 72.984 0 0 1 39.273 9.322l-2.12 3.76zm-15.099-13.708c-.297 0-.6-.035-.902-.108a3.886 3.886 0 0 1-2.884-4.68l1.796-7.574a3.886 3.886 0 0 1 4.68-2.884 3.886 3.886 0 0 1 2.885 4.68l-1.797 7.573a3.883 3.883 0 0 1-3.778 2.988z"/>
      <path fill="#f9f9f9"
            d="M428.88 568.673c-5.871 1.162-11.108 4.508-14.26 9.573-1.94 3.061-3.126 6.39-4.206 9.909-.073-2.478.311-4.974 1.097-7.37 2.245-7.336 9.576-13.023 17.37-12.107z"/>
      <path d="m475.702 502.79-4.879 12.258-1.028.095 3.066 1.221 1.179.467-15.004 29.952h-2.35l-13.621-7.237 9.408-31.294 4.15 1.649 4.736-11.908c3.471 1.576 10.617 4.02 14.339 4.797z"
            opacity=".35"/>
      <path fill="#a0a0a0" d="m469.895 515.156-15.034 29.951-17.198-6.839 9.65-32.098z"/>
      <path fill="#a0a0a0" d="m448.704 509.046 18.207 7.245-13.095 26.079-13.515-5.376z"/>
      <path d="M465.041 520.214c-3.56-1.426-2.16-1.087-5.72-2.513-.034-.093-6.444 24.482-6.444 24.482l.997.33z"
            style="fill:gray;fill-opacity:1;stroke:none;stroke-width:1px;stroke-linecap:butt;stroke-linejoin:miter;stroke-opacity:1"/>
      <path d="m448.704 509.046 18.207 7.245-13.091 26.079-13.519-5.38 8.403-27.944m-2.781-5.751-1.356 4.507-8.402 27.945-1.14 3.79 3.679 1.464 13.518 5.38 3.68 1.464 1.774-3.536 13.091-26.08 2.111-4.209-4.374-1.74-18.207-7.245z"/>
      <path fill="#a0a0a0" d="m452.344 510.69 4.296-10.795 10.796 4.296-4.296 10.795z"/>
      <path d="m467.492 504.162-4.134-1.636-2.985 1.382-1.691 7.025 2.033 3.203 2.453.895z"
            style="fill:gray;fill-opacity:1;stroke:none;stroke-width:1px;stroke-linecap:butt;stroke-linejoin:miter;stroke-opacity:1"/>
      <path d="m456.64 499.888 10.794 4.296-4.296 10.794-10.795-4.296 4.296-10.794m-2.413-5.609-1.598 4.012-4.296 10.794-1.597 4.011 4.01 1.598 10.795 4.296 4.011 1.597 1.598-4.011 4.296-10.794 1.597-4.011-4.01-1.598-10.795-4.296z"/>
      <path d="m455.574 507.223.958-2.407 2.932 1.167-.958 2.407zm4.7 1.881.958-2.407 2.932 1.167-.958 2.407z"/>
      <path d="m419.641 536.023 9.24 2.44-.665-33.95.432-.122c-.03-.198.89-.228.846-.423l7.927-.885 10.963-6.852-.462-5.799-11.908-5.03-31.968 2.543-4.266 2.513 1.062 13.364 4.607 1.804 8.899-.708c-.264 4.961 3.864 17.677 5.289 31.105"
            opacity=".35"/>
      <path fill="#a0a0a0"
            d="m410.855 533.19-.242-1.256c-1.775-9.3-4.802-25.038-4.802-25.038l-.008-.056-.009-.056c-.043-.311-.095-.627-.142-.95-.38-2.388-.847-5.363.963-7.703 1.204-1.559 3.126-2.461 5.867-2.76a12.152 12.152 0 0 1 2.66-.323c5.786 0 6.658 5.026 7.176 8.03.056.32.108.64.168.946l.013.057.009.056c.03.216 2.932 21.644 4.231 30.91l.48 3.411-16.356-5.272z"/>
      <path d="M415.138 497.211c4.421 0 4.628 4.102 5.224 7.22 0 0 2.919 21.545 4.231 30.918l-11.86-3.82c-1.775-9.301-4.802-25.043-4.802-25.043-.505-3.619-1.92-8.303 4.901-8.977.877-.203 1.64-.298 2.306-.298m0-4.318c-.95 0-1.939.113-3.014.35-3.251.372-5.678 1.572-7.224 3.57-2.379 3.08-1.783 6.862-1.386 9.362.048.31.1.613.139.91l.017.109.021.108c.03.155 3.049 15.846 4.802 25.038l.479 2.513 2.435.786 11.86 3.82 6.555 2.112-.954-6.822c-1.3-9.257-4.201-30.686-4.231-30.902l-.018-.116-.021-.117c-.056-.293-.108-.6-.16-.906-.294-1.693-.656-3.804-1.757-5.674-1.576-2.673-4.253-4.145-7.543-4.145z"/>
      <path fill="#a0a0a0"
            d="M424.593 535.596c-1.312-9.374-4.23-31.166-4.23-31.166-.687-3.588-.856-8.48-7.53-6.92-6.823.673-5.407 5.362-4.902 8.976 0 0 3.027 15.742 4.802 25.042z"/>
      <path fill="#6b6b6b" d="m419.93 501.095-7.103.07 10.89 27.821z" style="stroke-width:.43177"/>
      <path fill="#a0a0a0"
            d="m427.573 479.336 14.037 4.577 1.381 8.328-11.822 8.856-32.65 5.397-6.516-1.934-2.629-15.894 5.548-3.933z"/>
      <path d="m427.404 481.55 12.293 4.008.95 5.742-10.346 7.75-31.64 5.234-4.745-1.412-2.189-13.225 4.037-2.863 31.64-5.233m.337-4.43-1.04.173-31.64 5.233-.98.164-.812.574-4.037 2.863-2.203 1.563.44 2.664 2.19 13.225.44 2.664 2.591.768 4.745 1.412.954.285.98-.164 31.64-5.233 1.041-.173.842-.63 10.345-7.75 2.099-1.572-.428-2.586-.95-5.743-.427-2.586-2.491-.812-12.293-4.007-1.002-.328z"/>
      <path fill="#c6c6c6"
            d="M398.38 502.954c-.94-.19-1.877-.393-2.81-.605a266.291 266.291 0 0 1-1.403-5.76c-.385-1.87-1.028-4.244-1.43-6.083 1.058-1.136 2.259-2.133 3.541-3.023l.138-.026c2.958-.552 5.92-1.049 8.92-1.338l.057.22c-2.79 1.153-5.64 2.094-8.51 2.992l.427-.233c-.773.941-1.589 1.835-2.504 2.621l.354-1.04c.302 3.717.768 7.594 1.045 11.316l-.242-.276c.833.328 1.662.67 2.491 1.019l-.069.216z"/>
      <path fill="#6b6b6b" d="m430.297 499.05 10.35-7.75-.95-5.742-7.548 8.139-23.065 8.864z"/>
      <path d="m499.393 513.826-4.736-.6 4.3-34.007 1.857.233.052-11.649-7.72-.975-2.85 11.295 1.857.233-4.3 34.006-4.889-.617c-4.904-.752-6.632 6.675-1.981 8.207l-1.317 24.52 14.775 1.87 4.827-24.075c4.883-.328 5.06-7.95.121-8.446z"
            opacity=".4"/>
      <path fill="#d1d1d1"
            d="m491.924 520.781-15.907-2.012c-5.302-.591-4.257-8.916 1.032-8.164l15.907 2.012c5.302.591 4.257 8.916-1.032 8.164z"/>
      <path fill="#8e8e8e" d="m492.817 520.894-4.654 23.216-14.309-1.81 1.27-23.643z"/>
      <path fill="#6b6b6b" d="M-612.36 780.69h19.06v56.2h-19.06z" style="fill:#d1d1d1;fill-opacity:1"
            transform="rotate(-82.8 206.835 10.453) scale(.43177)"/>
      <path fill="#6b6b6b" d="m489.048 521.105-.885 23.005 4.52-22.547z"/>
      <path fill="#bfbfbf"
            d="M478.863 520c.211 3.411-.009 6.943-.281 10.345-.328 3.441-.751 6.861-1.572 10.229-.203-3.463-.013-6.904.281-10.345.337-3.398.751-6.909 1.572-10.229zm4.65 1.01c.211 3.411-.009 6.943-.28 10.346-.329 3.44-.752 6.86-1.572 10.228-.203-3.463-.013-6.904.28-10.345.337-3.398.751-6.908 1.572-10.229zm4.34-.203c.21 3.411-.01 6.943-.282 10.346-.328 3.44-.75 6.86-1.571 10.228-.203-3.463-.013-6.904.28-10.345.337-3.398.752-6.908 1.572-10.229z"/>
      <path fill="#c6c6c6" d="m481.769 511.182 4.16-32.933 6.588.832-4.16 32.933z"/>
      <path fill="#c6c6c6" d="m494.38 468.045-.051 11.282-10.186-1.286 2.76-10.941z"/>
      <path fill="#c6c6c6" d="m494.38 468.045-.051 11.282-10.186-1.286 2.76-10.941z"/>
      <path d="m486.902 467.1 7.478.945-.051 11.282-1.8-.229-4.163 32.936 4.585.578c4.78.48 4.612 7.859-.116 8.178l-4.676 23.316-14.31-1.81 1.275-23.747c-4.288-1.412-2.98-8 1.26-8 .212 0 .432.017.66.051l4.733.6 4.162-32.935-1.8-.229 2.759-10.94m-3.251-4.763-.933 3.709-2.759 10.94-1.192 4.729 2.353.298-3.078 24.364-.402-.051a8.756 8.756 0 0 0-1.247-.091c-4.094 0-7.423 2.949-8.1 7.172-.462 2.88.479 5.587 2.396 7.409l-1.14 21.251-.216 4.012 3.985.505 14.31 1.809 3.984.505.79-3.938 4.18-20.859c2.509-1.39 4.15-4.075 4.201-7.27.074-4.47-3.005-8.036-7.331-8.498l-.255-.034 3.079-24.365 2.353.298.021-4.875.052-11.282.017-3.825-3.795-.48-7.478-.945-3.795-.48z"/>
      <path fill="#ddd"
            d="M489.169 468.248c.363.518.592 1.01.825 1.498-.121.406-.199.82-.303 1.23-.289 1.231-.872 3.71-1.165 4.94l-.29 1.235c-.431.333-.855.67-1.394.976-.346-.518-.575-1.006-.816-1.494l.289-1.235c.29-1.23.872-3.709 1.166-4.94.09-.414.203-.82.28-1.238.428-.333.851-.67 1.408-.972z"/>
      <path fill="#ededed"
            d="M485.015 515.38c-.479.415-.94.695-1.403.98-.419-.073-.838-.112-1.256-.168-1.257-.16-3.783-.48-5.035-.635l-1.26-.16c-.376-.397-.756-.781-1.119-1.286.475-.398.937-.678 1.403-.968l1.261.16c1.257.16 3.782.48 5.035.635.418.047.837.117 1.26.147.376.388.756.773 1.114 1.295z"/>
      <path fill="#a3a3a3" d="m485.944 478.27 6.588.833-4.162 32.93"/>
      <path d="M400.128 518.726c1.014 4.862 5.09 8.018 9.322 10.104 16.852 11.912 50.754 15.695 71.32 15.682 4.965-.022 9.926-.233 14.8-.795 5.005.216 10.056.302 15.004-.69-4.248 3.087-9.352 4.83-14.356 6.269-15.35 1.636-30.802.742-46.027-1.412-10.176-1.529-20.25-3.675-29.96-7.263-4.87-1.839-9.676-4.032-14.136-7.219-1.498-1.46-2.859-3.07-3.955-4.857-1.81-2.863-2.841-6.503-2.017-9.814z"/>
      <path fill="#a5e256"
            d="M416.342 423.68c-26.646 20.461-46.2 50.152-52.239 83.21-.304 2.052-.836 4.958-1.157 6.992-.27 2.824-.672 5.665-.906 8.488-.135 2.21-.275 4.934-.427 7.132-.07 1.97-.07 6.588-.111 8.611.129 6.758.544 13.516 1.198 20.25.48 3.361.9 8.29 1.48 11.633.981 6.893 2.29 13.615 3.378 20.543-4.595-8.822-8.447-18.333-11.136-27.95-2.315-7.792-3.73-15.818-4.712-23.891-.216-3.648-.777-8.67-.655-12.27-.081-6.168.287-12.388 1.187-18.497.082-.491.485-3.385.567-3.835.1-.538.374-1.742.48-2.28 6.494-34.052 30.316-65.76 63.053-78.118z"
            opacity=".58"/>
	</g>
</svg>
