<svg version="1.1" id="wapuugotchi_svg__item" viewBox="0 0 1e3 1e3" xmlns="http://www.w3.org/2000/svg">
    <g class="Background--group">
        <defs>
            <clipPath id="a" clipPathUnits="userSpaceOnUse">
                <path d="m1474.365 2144.678-10.329 2.262-30.088-16.244-.677-3.676-2.943 2.87c-25.947-16.238-44.846-68.636-28.781-49.275 4.339 5.23 9.906 9.696 15.733 13.446-11.36-19.672-14.194-51.831-8.083-37.214 2.488 5.952 6.728 11.439 11.174 16.054-2.579-18.309-7.28-38.942-15.856-52.363-11.18-17.496 2.865-11.001 19.49 12.635.292-17.446-1.082-36.603-6.795-50.219-8.519-20.308 6.321-9.178 19.292 20.725 2.677-14.312 7.905-23.126 8.122-11.354.122 6.502 1.846 13.17 4.164 19.27 3.489-18.325 5.188-37.55 2.008-52.961-4.678-22.669 5.471-14.267 14.158 12.151 6.243-27.55 25.942-49.726 20.001-27.874-1.794 6.595-2.102 13.793-1.651 20.673.18-.259.369-.522.58-.787 14.863-18.715 38.657-73.419 38.657-73.419l71.553-176.7 43.341-105.63s5.012-12.798 11.026-12.282c6.015.515.918 16.481.918 16.481l-34.254 102.4s-37.934 95.323-58.067 156.185c-16.303 49.279-20.027 94.521-20.855 109.956 23.59-16.158 43.539-23.782 29.939-10.514-9.398 9.166-18.564 23.628-26.314 38.018 7.898-.022 17.375-1.014 25.103-4.67 13.615-6.438-2.896 12.478-22.175 20.239 19.407-.364 36.045 5.672 21.871 7.32-11.35 1.321-22.725 7.622-30.696 13.051 3.961-.138 7.93-.66 11.627-1.778 9.486-2.868 4.449 3.197-5.865 9.058 17.311-.072 32.248 5.717 19.609 6.877-6.798.626-14.82 4.494-22.203 9.096 29.302-5.893 54.254-1.886 33.027 5.309-15.906 5.391-30.583 17.184-41.463 27.857 4.951.18 10.04-.169 14.721-1.464 15.336-4.249-7.305 13.657-28.763 16.782l-.364.442c22.153 3.688 37.42 12.348 20.103 12.283-28.208-.107-59.61 22.018-59.61 22.018z"/>
            </clipPath>
            <clipPath id="c" clipPathUnits="userSpaceOnUse">
                <path d="M0 3551.289h2370.727V0H0Z"/>
            </clipPath>
            <clipPath id="d" clipPathUnits="userSpaceOnUse">
                <path d="m1236.945 2078.067-8.637 1.891-25.16-13.584.048-11.701-7.396 3.867s-.074-10.68-1.578-24.634c-14.075-13.378-22.352-46.319-14.848-33.844 2.85 4.739 7.164 8.85 11.512 12.172-2.351-11.291-5.824-22.42-10.959-30.455-9.152-14.323 1.911-9.417 15.422 9.339.375-15.068-.664-31.967-5.643-43.833-6.915-16.488 4.579-8.197 15.178 15.179 2.068-13.283 6.998-22.268 7.192-11.804.099 5.437 1.542 11.012 3.482 16.115 2.916-15.325 4.338-31.403 1.678-44.29-4.143-20.076 5.619-11.01 13.111 14.229 3.621-25.269 23.02-48.119 17.684-28.493-1.35 4.963-1.692 10.332-1.473 15.55 12.461-17.328 30.676-59.201 30.676-59.201l59.834-147.766 36.246-88.334s4.191-10.702 9.221-10.271c5.029.43.767 13.783.767 13.783l-28.646 85.631s-31.723 79.716-48.559 130.611c-13.633 41.211-16.746 79.044-17.439 91.952 19.728-13.512 36.41-19.888 25.035-8.792-7.858 7.666-15.524 19.76-22.004 31.792 6.605-.018 14.53-.847 20.994-3.904 11.387-5.385-2.432 10.436-18.559 16.925 16.236-.307 30.16 4.743 18.303 6.121-9.492 1.105-19.004 6.374-25.67 10.914 3.313-.115 6.633-.553 9.724-1.486 7.932-2.399 3.719 2.674-4.905 7.573 14.474-.06 26.968 4.78 16.398 5.752-5.684.523-12.393 3.758-18.567 7.605 24.505-4.928 45.369-1.577 27.62 4.439-13.303 4.509-25.577 14.372-34.674 23.298 4.14.15 8.395-.141 12.309-1.225 12.826-3.552-6.106 11.421-24.051 14.033l-.305.371c18.525 3.084 31.291 10.326 16.811 10.271-23.59-.088-49.85 18.414-49.85 18.414z"/>
            </clipPath>
            <clipPath id="f" clipPathUnits="userSpaceOnUse">
                <path d="M0 3551.289h2370.727V0H0Z"/>
            </clipPath>
            <clipPath id="g" clipPathUnits="userSpaceOnUse">
                <path d="m1330.904 2567.038 47.347-51.355 262.811 21.924c127.514 10.322 175.356 30.448 175.356 30.448 34.543 15.941 68.81 85.385 68.81 85.385z"/>
            </clipPath>
            <clipPath id="i" clipPathUnits="userSpaceOnUse">
                <path d="M0 3551.289h2370.727V0H0Z"/>
            </clipPath>
            <clipPath id="j" clipPathUnits="userSpaceOnUse">
                <path d="M1292.13 2640.35h100.26v-40.24h-100.26z"/>
            </clipPath>
            <clipPath id="k" clipPathUnits="userSpaceOnUse">
                <path d="m1292.128 2600.901 66.001-51.999 308 75.999c149.501 36.501 202.501 69.5 202.501 69.5 38 25.501 65.501 114.5 65.501 114.5z"/>
            </clipPath>
            <clipPath id="m" clipPathUnits="userSpaceOnUse">
                <path d="M0 3551.289h2370.727V0H0Z"/>
            </clipPath>
            <clipPath id="n" clipPathUnits="userSpaceOnUse">
                <path d="M570.049 2583.871s28.277-19.044 107.582-36.466l163.388-36.406L875.482 2547 534.51 2654.693s15.252-55.987 35.539-70.822"/>
            </clipPath>
            <clipPath id="p" clipPathUnits="userSpaceOnUse">
                <path d="M0 3551.289h2370.727V0H0Z"/>
            </clipPath>
            <clipPath id="q" clipPathUnits="userSpaceOnUse">
                <path d="M548.678 2684.981s30.351-29.335 121.113-68.536l186.91-81.379 46.259 35.111-385.092 207.784s9.214-70.533 30.81-92.98"/>
            </clipPath>
            <linearGradient id="b" x1="0" x2="1" y1="0" y2="0" gradientTransform="scale(-301.95865 301.95865) rotate(69.044 -6.973 -.793)" gradientUnits="userSpaceOnUse" spreadMethod="pad">
                <stop offset="0" style="stop-opacity:1;stop-color:#e99413"/>
                <stop offset="1" style="stop-opacity:1;stop-color:#d71618"/>
            </linearGradient>
            <linearGradient id="e" x1="0" x2="1" y1="0" y2="0" gradientTransform="matrix(-90.31084 235.81258 235.81258 90.31085 1322.988 1800.508)" gradientUnits="userSpaceOnUse" spreadMethod="pad">
                <stop offset="0" style="stop-opacity:1;stop-color:#e99413"/>
                <stop offset="1" style="stop-opacity:1;stop-color:#d71618"/>
            </linearGradient>
            <linearGradient id="h" x1="0" x2="1" y1="0" y2="0" gradientTransform="matrix(-111.21065 -176.17572 -176.17572 111.21066 1635.684 2652.532)" gradientUnits="userSpaceOnUse" spreadMethod="pad">
                <stop offset="0" style="stop-opacity:1;stop-color:#fff"/>
                <stop offset=".415" style="stop-opacity:1;stop-color:#ededed"/>
                <stop offset="1" style="stop-opacity:1;stop-color:#ededed"/>
            </linearGradient>
            <linearGradient id="l" x1="0" x2="1" y1="0" y2="0" gradientTransform="scale(-283.80377 283.80377) rotate(-57.738 5.917 10.177)" gradientUnits="userSpaceOnUse" spreadMethod="pad">
                <stop offset="0" style="stop-opacity:1;stop-color:#fff"/>
                <stop offset=".415" style="stop-opacity:1;stop-color:#ededed"/>
                <stop offset="1" style="stop-opacity:1;stop-color:#ededed"/>
            </linearGradient>
            <linearGradient id="o" x1="0" x2="1" y1="0" y2="0" gradientTransform="rotate(-64.474 2428.65 767.462) scale(140.87145)" gradientUnits="userSpaceOnUse" spreadMethod="pad">
                <stop offset="0" style="stop-opacity:1;stop-color:#fff"/>
                <stop offset=".415" style="stop-opacity:1;stop-color:#ededed"/>
                <stop offset="1" style="stop-opacity:1;stop-color:#ededed"/>
            </linearGradient>
            <linearGradient id="r" x1="0" x2="1" y1="0" y2="0" gradientTransform="rotate(-64.474 2494.556 817.433) scale(196.54555)" gradientUnits="userSpaceOnUse" spreadMethod="pad">
                <stop offset="0" style="stop-opacity:1;stop-color:#fff"/>
                <stop offset=".415" style="stop-opacity:1;stop-color:#ededed"/>
                <stop offset="1" style="stop-opacity:1;stop-color:#ededed"/>
            </linearGradient>
        </defs>
        <g clip-path="url(#a)" transform="matrix(.44392 0 0 -.44392 39.717 1548.136)">
            <path d="m1474.365 2144.678-10.329 2.262-30.088-16.244-.677-3.676-2.943 2.87c-25.947-16.238-44.846-68.636-28.781-49.275 4.339 5.23 9.906 9.696 15.733 13.446-11.36-19.672-14.194-51.831-8.083-37.214 2.488 5.952 6.728 11.439 11.174 16.054-2.579-18.309-7.28-38.942-15.856-52.363-11.18-17.496 2.865-11.001 19.49 12.635.292-17.446-1.082-36.603-6.795-50.219-8.519-20.308 6.321-9.178 19.292 20.725 2.677-14.312 7.905-23.126 8.122-11.354.122 6.502 1.846 13.17 4.164 19.27 3.489-18.325 5.188-37.55 2.008-52.961-4.678-22.669 5.471-14.267 14.158 12.151 6.243-27.55 25.942-49.726 20.001-27.874-1.794 6.595-2.102 13.793-1.651 20.673.18-.259.369-.522.58-.787 14.863-18.715 38.657-73.419 38.657-73.419l71.553-176.7 43.341-105.63s5.012-12.798 11.026-12.282c6.015.515.918 16.481.918 16.481l-34.254 102.4s-37.934 95.323-58.067 156.185c-16.303 49.279-20.027 94.521-20.855 109.956 23.59-16.158 43.539-23.782 29.939-10.514-9.398 9.166-18.564 23.628-26.314 38.018 7.898-.022 17.375-1.014 25.103-4.67 13.615-6.438-2.896 12.478-22.175 20.239 19.407-.364 36.045 5.672 21.871 7.32-11.35 1.321-22.725 7.622-30.696 13.051 3.961-.138 7.93-.66 11.627-1.778 9.486-2.868 4.449 3.197-5.865 9.058 17.311-.072 32.248 5.717 19.609 6.877-6.798.626-14.82 4.494-22.203 9.096 29.302-5.893 54.254-1.886 33.027 5.309-15.906 5.391-30.583 17.184-41.463 27.857 4.951.18 10.04-.169 14.721-1.464 15.336-4.249-7.305 13.657-28.763 16.782l-.364.442c22.153 3.688 37.42 12.348 20.103 12.283-28.208-.107-59.61 22.018-59.61 22.018z" style="fill:url(#b);stroke:none"/>
        </g>
        <g clip-path="url(#c)" transform="matrix(.44392 0 0 -.44392 39.717 1548.136)">
            <path d="m0 0-.806-10.471-.219.048-3.263.715-2.939-1.587-27.129-14.648-1.085 1.058-5.994-3.751c-13.459-8.423-23.629-23.796-28.495-32.209-3.206-5.545-5.996-11.315-7.857-16.248-3.139-8.321-2.838-11.966-2.129-14.434 1.244-4.335 5.05-7.247 9.468-7.247.648 0 1.275.059 1.881.172-2.708-13.588-.701-17.066.196-18.619 1.44-2.494 3.805-4.151 6.517-4.634-2.373-7.73-5.126-14.103-8.203-18.915-4.645-7.271-7.13-13.223-4.16-18.647 1.76-3.213 5.038-5.132 8.77-5.132 3.705 0 7.506 1.863 12.379 6.142-1.009-8.593-2.69-15.787-5.008-21.311-3.17-7.557-4.626-13.575-1.425-18.389a9.87 9.87 0 0 1 8.242-4.407c5.068 0 9.765 3.591 15.705 12.009a101.204 101.204 0 0 1 3.844 5.892c1.812-2.046 4.329-3.69 7.811-3.69.13 0 .263.004.397.01.046-6.511-.455-12.325-1.504-17.409-2.188-10.608-1.796-16.267 1.4-20.19 1.944-2.386 4.804-3.754 7.849-3.754 5.991 0 10.031 4.971 12.932 9.814a95.518 95.518 0 0 1 3.099-5.819c7.939-13.688 13.499-15.443 17.455-15.443 3.17 0 6.093 1.443 8.017 3.961.204.267.394.54.567.817 10.476-20.092 20.202-42.255 20.943-43.952l71.508-176.586 43.338-105.622a50.153 50.153 0 0 1 3.869-7.575c4.326-6.87 9.422-10.354 15.146-10.354.373 0 .751.017 1.123.049a11.662 11.662 0 0 1 8.755 5.177c2.455 3.68 3.017 8.652 1.768 15.645a63.257 63.257 0 0 1-1.798 7.364l-.02.059-.019.058-34.254 102.4-.08.238-.093.235c-.378.95-38.067 95.776-57.884 155.683C86.901-258.089 81.814-225 79.61-203.569c8.148-4.691 17.248-9.097 22.687-9.097 4.356 0 8.019 2.353 9.56 6.14 2.863 7.033-3.174 12.922-6.418 16.087-4.924 4.803-10.19 11.644-15.733 20.429a31.341 31.341 0 0 0 4.39-1.658c3.184-1.507 5.619-2.178 7.892-2.178 4.857 0 8.873 3.228 9.768 7.848.705 3.639.052 8.494-9.801 16.973 4.473 1.503 9.614 4.394 9.968 10.497.199 3.44-1.493 7.884-6.842 10.04-1.686.68-3.721 1.143-6.402 1.454-2.032.237-4.083.678-6.121 1.27a9.419 9.419 0 0 1-.154 3.315c4.391 1.049 13.141 3.477 13.602 11.449 6.272.896 12.808 3.36 13.927 10.142.338 2.05.465 7.255-5.641 11.272-2 1.315-4.703 2.541-8.265 3.748-6.198 2.101-12.774 5.559-19.521 10.235a9.704 9.704 0 0 1 3.897 7.052c.3 4.132-1.244 9.369-14.874 16.911 4.274 2.289 8.789 6.018 8.29 12.051-.138 1.678-1.154 7.309-8.399 9.297-2.066.566-4.561.831-7.853.831h-.231l-.166-.001c-24.905 0-53.941 20.176-54.232 20.38zm7.762-16.443S39.013-38.462 67.17-38.462l.203.001h.194c17.005 0 1.771-8.608-20.297-12.283l.363-.443c19.205-2.796 39.357-17.43 32.386-17.43-.819 0-2.011.202-3.623.649-3.933 1.089-8.154 1.509-12.339 1.509-.796 0-1.59-.017-2.381-.044 10.879-10.674 25.556-22.467 41.463-27.859 14.098-4.778 7.829-8.15-6.56-8.15-7.274 0-16.628.863-26.468 2.842 7.383-4.602 15.405-8.47 22.203-9.096 12.561-1.153-2.114-6.878-19.288-6.878l-.321.001c8.495-4.827 13.411-9.792 9.581-9.792-.82 0-2.042.228-3.716.734-3.697 1.117-7.666 1.64-11.627 1.778 7.971-5.429 19.346-11.73 30.696-13.051 13.761-1.6-1.52-7.336-20.185-7.336-.558 0-1.123.004-1.686.016 16.554-6.664 31.07-21.552 26.22-21.552-.798 0-2.121.403-4.045 1.313-7.728 3.656-17.205 4.648-25.103 4.67 7.75-14.389 16.916-28.852 26.314-38.018 4.825-4.707 5.428-6.785 3.143-6.785-4.156 0-17.861 6.874-33.082 17.299.828-15.435 4.553-60.676 20.855-109.956 20.133-60.862 58.067-156.186 58.067-156.186l34.254-102.399s5.097-15.967-.918-16.482a4.73 4.73 0 0 0-.356-.015c-5.853 0-10.67 12.298-10.67 12.298l-43.342 105.63-71.552 176.7s-23.793 54.703-38.657 73.418c-.21.266-.4.528-.58.788-.451-6.88-.142-14.078 1.651-20.673 1.683-6.194 1.308-8.85-.238-8.85-3.907 0-15.29 16.982-19.762 36.723-5.23-15.901-10.988-25.275-13.724-25.275-1.809 0-2.297 4.101-.434 13.125 3.179 15.41 1.48 34.636-2.008 52.961-2.319-6.1-4.043-12.768-4.164-19.271-.071-3.82-.668-5.471-1.536-5.471-1.806 0-4.779 7.159-6.587 16.826-8.467-19.52-17.73-31.038-20.772-31.038-1.619 0-1.477 3.262 1.481 10.313 5.713 13.616 7.086 32.773 6.795 50.219-10.21-14.516-19.447-22.567-22.465-22.567-1.897 0-1.339 3.181 2.974 9.932 8.577 13.42 13.278 34.054 15.856 52.363-4.446-4.615-8.686-10.102-11.174-16.054-1.074-2.569-1.873-3.693-2.397-3.693-2.454 0 1.118 24.693 10.481 40.907-5.828-3.75-11.395-8.216-15.734-13.446-2.449-2.951-4.084-4.234-5.007-4.234-5.133 0 11.795 39.745 33.788 53.508l2.943-2.869.678 3.676 30.088 16.244 10.328-2.262.385 5.034" style="fill:#000;fill-opacity:1;fill-rule:nonzero;stroke:none" transform="translate(1466.988 2166.155)"/>
            <path d="M0 0s-9.684-35.55-3.197-59.857C3.184-83.785-30.002-29.95-27.566 1.901" style="fill:#ed9c1a;fill-opacity:1;fill-rule:nonzero;stroke:none" transform="translate(1461.714 2126.72)"/>
            <path d="M0 0s6.688-25.682 21.801-38.207C36.68-50.539-3.424-37.339-16.16-16.06" style="fill:#ed9c1a;fill-opacity:1;fill-rule:nonzero;stroke:none" transform="translate(1474.82 2128.404)"/>
            <path d="M0 0s27.654-7.094 38.35-20.08C48.879-32.863 45.354-.61 10.152 13.89" style="fill:#ed9c1a;fill-opacity:1;fill-rule:nonzero;stroke:none" transform="translate(1453.78 2128.923)"/>
            <path d="M0 0s39.061-44.48 45.945-85.219c6.631-39.23 22.26 28.475-17.226 103.206" style="fill:#ed9c1a;fill-opacity:1;fill-rule:nonzero;stroke:none" transform="translate(1430.97 2129.261)"/>
        </g>
        <g clip-path="url(#d)" transform="matrix(.44392 0 0 -.44392 39.717 1548.136)">
            <path d="m1236.945 2078.067-8.637 1.891-25.16-13.584.048-11.701-7.396 3.867s-.074-10.68-1.578-24.634c-14.075-13.378-22.352-46.319-14.848-33.844 2.85 4.739 7.164 8.85 11.512 12.172-2.351-11.291-5.824-22.42-10.959-30.455-9.152-14.323 1.911-9.417 15.422 9.339.375-15.068-.664-31.967-5.643-43.833-6.915-16.488 4.579-8.197 15.178 15.179 2.068-13.283 6.998-22.268 7.192-11.804.099 5.437 1.542 11.012 3.482 16.115 2.916-15.325 4.338-31.403 1.678-44.29-4.143-20.076 5.619-11.01 13.111 14.229 3.621-25.269 23.02-48.119 17.684-28.493-1.35 4.963-1.692 10.332-1.473 15.55 12.461-17.328 30.676-59.201 30.676-59.201l59.834-147.766 36.246-88.334s4.191-10.702 9.221-10.271c5.029.43.767 13.783.767 13.783l-28.646 85.631s-31.723 79.716-48.559 130.611c-13.633 41.211-16.746 79.044-17.439 91.952 19.728-13.512 36.41-19.888 25.035-8.792-7.858 7.666-15.524 19.76-22.004 31.792 6.605-.018 14.53-.847 20.994-3.904 11.387-5.385-2.432 10.436-18.559 16.925 16.236-.307 30.16 4.743 18.303 6.121-9.492 1.105-19.004 6.374-25.67 10.914 3.313-.115 6.633-.553 9.724-1.486 7.932-2.399 3.719 2.674-4.905 7.573 14.474-.06 26.968 4.78 16.398 5.752-5.684.523-12.393 3.758-18.567 7.605 24.505-4.928 45.369-1.577 27.62 4.439-13.303 4.509-25.577 14.372-34.674 23.298 4.14.15 8.395-.141 12.309-1.225 12.826-3.552-6.106 11.421-24.051 14.033l-.305.371c18.525 3.084 31.291 10.326 16.811 10.271-23.59-.088-49.85 18.414-49.85 18.414z" style="fill:url(#e);stroke:none"/>
        </g>
        <g clip-path="url(#f)" style="display:inline" transform="matrix(.44392 0 0 -.44392 39.717 1548.136)">
            <path d="m0 0-.741-9.684-1.79.392-2.939-1.587-25.16-13.584-4.747-2.563.009-2.164-7.232 3.781-.102-14.745c0-.092-.08-8.899-1.216-20.691-6.366-7.113-10.824-16.365-13.039-21.596-6.723-15.884-4.924-20.386-4.247-22.081 1.009-2.525 2.981-4.426 5.391-5.339a40.51 40.51 0 0 0-1.346-2.27c-3.606-5.643-6.529-11.619-3.53-17.093 1.709-3.119 5.013-5.057 8.626-5.057 2.542 0 5.071.886 7.953 2.856-.833-6.657-2.169-12.238-3.985-16.565-2.835-6.757-4.099-12.194-1.06-16.763a9.725 9.725 0 0 1 8.121-4.344c4.642 0 8.787 2.989 13.857 9.995.243.336.499.696.767 1.08 1.566-1.802 3.688-3.279 6.557-3.591-.038-4.767-.447-9.054-1.228-12.839-1.932-9.363-1.52-14.442 1.472-18.113 1.906-2.34 4.714-3.682 7.706-3.682 5.264 0 8.849 3.736 11.611 8.146a83.88 83.88 0 0 1 1.606-3.137c2.018-3.74 4.174-7.017 6.236-9.481 2.233-2.668 5.781-6.217 10.78-6.217 2.099 0 4.086.645 5.737 1.821 7.871-15.485 14.747-31.144 15.368-32.56l59.789-147.656 36.237-88.313c1.911-4.851 7.364-15.927 17.274-15.927.354 0 .711.016 1.064.046a11.22 11.22 0 0 1 8.422 4.98c3.744 5.613 2.15 14.25.153 20.506l-.02.06-.019.06-28.647 85.631-.08.239-.092.234c-.317.794-31.819 80.054-48.376 130.108-9.248 27.955-13.536 54.183-15.52 72.04 6.352-3.482 12.92-6.379 17.2-6.379 4.254 0 7.841 2.318 9.361 6.052 2.766 6.799-2.956 12.381-5.706 15.064-3.24 3.16-6.75 7.542-10.418 12.976 2.527-1.124 4.558-1.63 6.506-1.63 4.777 0 8.73 3.19 9.615 7.758.855 4.417-1.225 8.71-6.896 13.992 3.437 1.593 6.78 4.327 7.06 9.174.196 3.388-1.446 7.753-6.642 9.849-1.536.619-3.358 1.036-5.735 1.312a28.846 28.846 0 0 0-3.761.708 9.215 9.215 0 0 1-.024.556c3.849 1.04 10.016 3.372 11.075 9.394 5.368.951 10.752 3.371 11.767 9.528.33 1.999.467 7.063-5.361 10.896-1.779 1.17-4.149 2.249-7.248 3.3-4.59 1.555-9.441 4.03-14.431 7.337a9.63 9.63 0 0 1 2.361 5.618c.37 5.109-2.955 9.466-11.03 14.294 3.142 2.174 5.916 5.411 5.523 10.151-.28 3.39-2.556 7.554-8.103 9.077-1.858.51-4.07.746-6.96.746h-.329c-16.976 0-37.875 12.106-44.496 16.771zm7.765-16.48s26.133-18.414 49.679-18.414h.329c14.225 0 1.487-7.199-16.969-10.271l.304-.371c16.061-2.338 32.912-14.575 27.08-14.575-.684 0-1.681.169-3.029.542-3.29.911-6.82 1.261-10.321 1.261-.664 0-1.327-.012-1.987-.035 9.097-8.927 21.371-18.79 34.673-23.299 11.789-3.994 6.546-6.815-5.486-6.815-6.083 0-13.904.722-22.133 2.377 6.174-3.848 12.883-7.083 18.567-7.606 10.505-.965-1.769-5.752-16.129-5.752l-.27.001c7.104-4.036 11.215-8.188 8.013-8.188-.686 0-1.707.191-3.107.614-3.091.934-6.412 1.371-9.724 1.486 6.666-4.54 16.178-9.809 25.67-10.913 11.51-1.338-1.27-6.136-16.88-6.136-.471 0-.947.005-1.423.014 13.849-5.571 25.995-18.024 21.941-18.024-.667 0-1.773.338-3.382 1.099-6.465 3.057-14.389 3.887-20.994 3.905 6.48-12.033 14.146-24.127 22.003-31.793 4.037-3.937 4.541-5.673 2.63-5.673-3.474 0-14.936 5.748-27.665 14.465.694-12.908 3.807-50.741 17.44-91.952 16.836-50.895 48.558-130.611 48.558-130.611l28.647-85.631s4.262-13.353-.768-13.783a3.278 3.278 0 0 0-.297-.013c-4.895 0-8.923 10.284-8.923 10.284l-36.247 88.334-59.834 147.767s-18.214 41.872-30.675 59.2c-.219-5.218.123-10.587 1.472-15.549 1.409-5.179 1.095-7.401-.198-7.401-3.605 0-14.82 17.292-17.485 35.894-4.676-15.753-10.237-25.205-12.748-25.205-1.513 0-1.92 3.43-.364 10.976 2.661 12.886 1.239 28.965-1.677 44.289-1.94-5.102-3.383-10.678-3.483-16.115-.058-3.195-.559-4.576-1.285-4.576-1.651 0-4.47 7.153-5.906 16.381-6.808-15.015-13.985-23.805-16.416-23.805-1.354 0-1.236 2.727 1.238 8.625 4.979 11.866 6.018 28.765 5.643 43.833-8.186-11.363-15.473-17.642-17.91-17.642-1.586 0-1.12 2.658 2.488 8.303 5.135 8.036 8.607 19.164 10.959 30.455-4.348-3.322-8.662-7.433-11.512-12.172-1.159-1.927-1.941-2.769-2.384-2.769-2.425 0 5.331 25.3 17.232 36.614 1.504 13.953 1.578 24.633 1.578 24.633l7.396-3.867-.048 11.701 25.16 13.584 8.636-1.891.323 4.21" style="fill:#000;fill-opacity:1;fill-rule:nonzero;stroke:none" transform="translate(1229.502 2098.757)"/>
            <path d="M0 0c1.586-3.79 1.924-5.293.279-10.431-14.035-14.973-37.316-18.001-41.195-17.248-3.879.755-5.648 3.728-7.234 7.517-1.588 3.79-1.317 7.515.603 8.319L-6.352 5.405C-4.432 6.208-1.588 3.79 0 0" style="fill:#4d4d4d;fill-opacity:1;fill-rule:nonzero;stroke:none" transform="translate(1466.117 2165.411)"/>
            <path d="M0 0c-2.01 0-3.963-.391-5.806-1.161l-41.197-17.25c-5.516-2.31-9.089-7.577-9.562-14.089-.263-3.623.424-7.511 1.989-11.245 1.494-3.568 5.466-13.059 16.741-15.254 1.196-.232 2.503-.344 3.998-.344 4.612 0 12.762 1.131 21.805 4.306 10.997 3.86 20.458 9.793 27.36 17.157l2.004 2.138.893 2.789c2.732 8.533 1.919 13.232-.668 19.412C14.057-5.187 7.33 0 0 0m0-13c1.848 0 4.182-2.26 5.564-5.559 1.586-3.79 1.924-5.294.28-10.431-12.761-13.613-33.165-17.353-39.681-17.353-.651 0-1.162.037-1.515.105-3.878.755-5.648 3.728-7.234 7.517-1.588 3.79-1.316 7.514.604 8.319L-.787-13.154c.248.104.513.154.787.154" style="fill:#000;fill-opacity:1;fill-rule:nonzero;stroke:none" transform="translate(1460.552 2183.97)"/>
            <path d="M0 0c-40.164-15.243-85.084 4.96-100.324 45.125l-96.735 254.892c-83.467 269.698-49.318 187.991-54.891 209.773 10.032 36.298 106.573 34.505 125.501 27.241 8.115-14.261 1.889-2.44 62.117-183.087L45.123 100.325C60.367 60.159 40.164 15.241 0 0" style="fill:#dcdddd;fill-opacity:1;fill-rule:nonzero;stroke:#000;stroke-width:25.1036;stroke-dasharray:none;stroke-opacity:1;paint-order:stroke fill markers" transform="translate(1434.74 2167.732)"/>
            <path d="M0 0c-7.681 64.723-57.907 149.665-58.414 150.515l4.297 2.559C-53.605 152.213-2.84 66.355 4.965.589Z" style="fill:#b5b5b6;fill-opacity:1;fill-rule:nonzero;stroke:none" transform="translate(1460.396 2187.107)"/>
            <path d="M0 0c-31.575 28.386-57.198 148.174-58.273 153.259l4.892 1.034c.26-1.229 26.354-123.273 56.723-150.574Z" style="fill:#b5b5b6;fill-opacity:1;fill-rule:nonzero;stroke:none" transform="translate(1404.957 2161.793)"/>
            <path d="M0 0s4.33 146.438 25.775 151.504c21.444 5.068 94.245-123.143 94.245-123.143Z" style="fill:#dcdddd;fill-opacity:1;fill-rule:nonzero;stroke:#000;stroke-opacity:1;stroke-width:25.77935003;stroke-dasharray:none;paint-order:stroke fill markers" transform="translate(1181.439 2687.672)"/>
            <path d="M0 0c11.248 2.255 21.762 5.775 31.262 10.269C13.793 36.127-6.254 61.814-15.674 59.588c-9.111-2.151-15.42-32.084-19.486-62.033C-23.967-3.172-12.094-2.424 0 0" style="fill:#066b94;fill-opacity:1;fill-rule:nonzero;stroke:none" transform="translate(1223.115 2779.642)"/>
            <path d="M0 0c-1.115 0-2.216-.127-3.272-.376-8.016-1.894-13.469-9.945-18.231-26.921-2.973-10.599-5.699-24.952-8.103-42.66l-1.299-9.566 9.634-.625c2.908-.189 5.881-.285 8.835-.285 9.472 0 19.121.97 28.676 2.886 11.718 2.349 22.935 6.035 33.341 10.957l9.481 4.484-5.871 8.69c-9.92 14.685-18.716 26.433-26.144 34.919C15.698-5.532 7.609 0 0 0m0-9c9.846 0 28.976-24.648 45.733-49.454-9.5-4.493-20.013-8.014-31.261-10.269-9.162-1.836-18.198-2.71-26.908-2.71-2.786 0-5.54.089-8.252.266 4.066 29.948 10.375 59.881 19.486 62.032C-.818-9.044-.418-9 0-9" style="fill:#000;fill-opacity:1;fill-rule:nonzero;stroke:none" transform="translate(1208.643 2848.364)"/>
            <path d="M0 0c11.248 2.255 21.762 5.775 31.262 10.269C13.793 36.127-6.254 61.814-15.674 59.588c-9.111-2.151-15.42-32.084-19.486-62.033C-23.967-3.172-12.094-2.424 0 0" style="fill:#066b94;fill-opacity:1;fill-rule:nonzero;stroke:none" transform="translate(994.115 2729.642)"/>
            <path d="M0 0a17.2 17.2 0 0 1-3.963-.457c-11.594-2.738-16.833-16.211-20.429-29.029-3.009-10.734-5.764-25.223-8.187-43.067l-1.733-12.756 12.846-.834c2.973-.192 6.011-.29 9.03-.29 9.67 0 19.516.991 29.266 2.944 11.956 2.397 23.407 6.161 34.033 11.186l12.642 5.979-7.828 11.587c-9.99 14.788-18.864 26.636-26.372 35.216C17.327-5.838 8.563 0 0 0m0-12c9.846 0 28.976-24.648 45.733-49.454-9.5-4.493-20.013-8.014-31.261-10.269-9.162-1.836-18.198-2.71-26.908-2.71-2.786 0-5.54.089-8.252.266 4.066 29.948 10.375 59.881 19.486 62.032.384.091.784.135 1.202.135" style="fill:#000;fill-opacity:1;fill-rule:nonzero;stroke:none" transform="translate(979.643 2801.364)"/>
            <path d="m0 0-153.715-62.811-32.605 79.795 153.716 62.811Z" style="fill:#066b94;fill-opacity:1;fill-rule:nonzero;stroke:none" transform="translate(1486.595 2270.81)"/>
            <path d="m0 0-11.108-4.539-153.717-62.811-11.109-4.539 4.539-11.108 32.606-79.795 4.539-11.108 11.108 4.538 153.715 62.811 11.109 4.539-4.539 11.108L4.539-11.108zm-6.569-15.647 32.603-79.795-153.715-62.811-32.605 79.795z" style="fill:#000;fill-opacity:1;fill-rule:nonzero;stroke:none" transform="translate(1460.561 2366.251)"/>
            <path d="m0 0 178.973-306.212s-39.909 2.533-57.782 19.086c0 0-25.576 23.349-62.839 96.316L-18.834-40.576z" style="fill:#f7f9f9;fill-opacity:1;fill-rule:nonzero;stroke:none" transform="translate(1313.824 2568.447)"/>
            <path d="m0 0-10.469-22.555-18.834-40.576-2.675-5.763 2.904-5.651 77.185-150.233c37.456-73.343 63.917-98.389 65.591-99.932 20.677-19.126 61.215-22.215 65.771-22.504l24.368-1.547-12.321 21.08L12.547-21.468Zm1.323-28.028L180.296-334.24s-39.908 2.533-57.781 19.086c0 0-25.577 23.349-62.84 96.317L-17.511-68.604 1.323-28.028" style="fill:#000;fill-opacity:1;fill-rule:nonzero;stroke:none" transform="translate(1312.5 2596.475)"/>
            <path d="m0 0 280.438-215.297s-39.684-12.862-61.985-4.046c0 0-30.08 11.661-91.732 65.271L-.629-43.863Z" style="fill:#f7f9f9;fill-opacity:1;fill-rule:nonzero;stroke:none" transform="translate(1309.69 2518.865)"/>
            <path d="m0 0-.372-25.897-.629-43.864-.087-6.054 4.579-3.962 127.35-110.209c61.847-53.779 93.437-66.733 95.477-67.537 6.709-2.648 14.881-3.992 24.288-3.992 22.246 0 45.488 7.45 46.466 7.767l23.52 7.622-19.612 15.056L20.543-15.772zm12.627-26.084 280.437-215.297s-22.01-7.134-42.458-7.134c-7.009 0-13.833.838-19.526 3.088 0 0-30.08 11.661-91.732 65.271L11.998-69.947l.629 43.863" style="fill:#000;fill-opacity:1;fill-rule:nonzero;stroke:none" transform="translate(1297.064 2544.95)"/>
            <path d="m0 0 393.793-138.379s-37.721-22.864-65.32-21.003c0 0-38.582 1.566-127.34 37.898L18.023-46.997z" style="fill:#f7f9f9;fill-opacity:1;fill-rule:nonzero;stroke:none" transform="translate(1293.67 2505.28)"/>
            <path d="m0 0 10.062-26.235 18.023-46.997 2.018-5.264 5.221-2.124 183.11-74.486c87.363-35.761 127.81-38.642 131.488-38.834a61.854 61.854 0 0 1 4.032-.129c30.492 0 67.228 22.054 68.776 22.993l23.528 14.261-25.956 9.12L26.509-9.315zm22.199-21.58 393.793-138.379s-34.828-21.11-62.038-21.11c-1.108 0-2.202.034-3.282.107 0 0-38.582 1.566-127.34 37.898L40.223-68.577 22.199-21.58" style="fill:#000;fill-opacity:1;fill-rule:nonzero;stroke:none" transform="translate(1271.47 2526.86)"/>
            <path d="m0 0 412.621-41.895s-28.892-35.36-56.408-40.249c0 0-37.842-5.448-132.774 9.328L27.691-42.808Z" style="fill:#f7f9f9;fill-opacity:1;fill-rule:nonzero;stroke:none" transform="translate(1355.25 2502.652)"/>
            <path d="m0 0 14.703-22.729 27.692-42.808 3.171-4.904 5.774-.884 195.748-30.009c55.534-8.644 92.007-10.459 112.818-10.459 15.587 0 22.986 1 23.778 1.114l.211.03.21.037c13.805 2.454 28.902 10.874 44.872 25.029 11.315 10.029 19.007 19.4 19.329 19.794L463.6-47.071l-24.047 2.441L26.932-2.735Zm25.618-15.668 412.621-41.895s-28.892-35.361-56.408-40.249c0 0-6.818-.981-21.925-.981-20.484 0-56.21 1.804-110.848 10.308L53.31-58.477 25.618-15.668" style="fill:#000;fill-opacity:1;fill-rule:nonzero;stroke:none" transform="translate(1329.631 2518.32)"/>
            <path d="M0 0c.123-3.031 111.199-28.622 128.551-25.451 5.519-.174 41.095 31.146 63.908 54.895C192.459 29.444-.123 3.03 0 0" style="fill:#f7f9f9;fill-opacity:1;fill-rule:nonzero;stroke:none" transform="translate(1311.664 2387.62)"/>
            <path d="m0 0-37.045-5.082c-.481-.065-48.746-6.689-96.375-13.599-28.011-4.064-50.339-7.431-66.363-10.01-9.606-1.546-17.069-2.829-22.179-3.813-2.976-.574-5.221-1.058-6.863-1.478-1.227-.314-2.193-.613-3.04-.939-6.824-2.626-9.038-8.65-8.862-13.011.102-2.513 1.171-8.723 8.873-12.124 1.15-.509 2.552-1.028 4.411-1.634 2.957-.963 7.083-2.144 12.262-3.509 10.142-2.673 23.386-5.812 37.293-8.84 16.693-3.634 57.393-12.089 74.765-12.089 1.931 0 3.617.1 5.119.301 4.992.288 11.291 2.973 32.906 21.715 13.17 11.42 27.823 25.307 39.195 37.145zm-35.278-17.96c-22.75-23.684-58.194-54.897-63.862-54.897l-.047.001c-1.009-.185-2.333-.272-3.936-.272-25.959 0-124.498 22.869-124.614 25.723-.123 3.03 192.459 29.445 192.459 29.445" style="fill:#000;fill-opacity:1;fill-rule:nonzero;stroke:none" transform="translate(1539.4 2435.024)"/>
            <path d="M0 0c.135-5.374 164.389-51.25 191.783-45.276 8.692-.197 75.549 58.787 111.959 101.38C303.742 56.104-.133 5.373 0 0" style="fill:#f7f9f9;fill-opacity:1;fill-rule:nonzero;stroke:none" transform="translate(1323.962 2451.78)"/>
            <path d="m0 0-35.232-5.881c-.76-.128-76.894-12.845-152.032-26.056-44.172-7.767-79.377-14.185-104.637-19.075-15.1-2.924-26.816-5.336-34.824-7.172-4.571-1.047-7.993-1.918-10.462-2.659-1.682-.507-2.974-.967-4.063-1.45-8.166-3.626-8.632-10.741-8.58-12.837.092-3.671 1.646-8.813 8.529-12.491 1.52-.811 3.496-1.694 6.043-2.698 4.278-1.687 10.272-3.761 17.816-6.163 14.965-4.767 34.46-10.342 54.889-15.7 24.582-6.444 84.612-21.437 111.04-21.437 3.112 0 5.77.2 8.084.608 4.588.438 10.125 3.028 22.446 12.469 8.331 6.384 18.812 15.21 30.309 25.524C-65.29-72.244-40.07-46.874-23.21-27.151zm-33.092-18.704c-36.349-42.524-103.047-101.38-111.915-101.38h-.044c-1.67-.364-3.842-.535-6.462-.535-40.345 0-185.194 40.765-185.321 45.811-.133 5.372 303.742 56.104 303.742 56.104" style="fill:#000;fill-opacity:1;fill-rule:nonzero;stroke:none" transform="translate(1660.796 2526.589)"/>
            <path d="M0 0c.096-5.763 164.135-53.788 191.594-47.178 8.695-.149 76.031 63.617 112.777 109.58C304.371 62.402-.094 5.765 0 0" style="fill:#f7f9f9;fill-opacity:1;fill-rule:nonzero;stroke:none" transform="translate(1410.333 2504.817)"/>
            <path d="m0 0-34.348-6.389c-.761-.142-77.046-14.34-152.338-29.062-44.264-8.654-79.545-15.797-104.864-21.228-15.139-3.248-26.889-5.923-34.924-7.952-4.594-1.161-8.038-2.122-10.525-2.941-1.705-.56-3.015-1.069-4.12-1.601-7.758-3.738-8.254-10.597-8.221-12.61.157-9.5 8.995-13.186 14.277-15.389 4.258-1.777 10.224-3.953 17.73-6.47 14.858-4.982 34.242-10.802 54.581-16.389 24.454-6.717 84.233-22.343 111.114-22.343 3.343 0 6.192.233 8.661.709 4.751.493 10.254 3.291 22.703 13.546 8.371 6.898 18.915 16.434 30.49 27.577 25.557 24.604 50.966 51.988 67.968 73.253zm-31.971-19.17c-36.703-45.909-103.925-109.58-112.747-109.58h-.03c-1.762-.424-4.083-.624-6.89-.624-40.938 0-184.614 42.409-184.704 47.802-.094 5.765 304.371 62.402 304.371 62.402" style="fill:#000;fill-opacity:1;fill-rule:nonzero;stroke:none" transform="translate(1746.675 2586.39)"/>
            <path d="m0 0-124.568-132.557s20.24-3.308 31.072 2.919c0 0 15.463 8.74 42.455 40.944L4.764-22.442z" style="fill:#f7f9f9;fill-opacity:1;fill-rule:nonzero;stroke:none" transform="translate(829.35 2522.498)"/>
            <path d="m0 0-17.027-18.119-124.569-132.557-16.72-17.793 24.097-3.939c.656-.108 6.632-1.048 14.16-1.048 10.514 0 19.076 1.852 25.451 5.504 2.006 1.143 18.487 11.087 45.976 43.886L7.152-57.839l4.094 4.859-1.319 6.215-4.764 22.442zm-7.554-27.022 4.764-22.442-55.805-66.252c-26.992-32.204-42.455-40.944-42.455-40.944-5.251-3.019-12.714-3.796-19.009-3.796-6.691 0-12.063.877-12.063.877L-7.554-27.022" style="fill:#000;fill-opacity:1;fill-rule:nonzero;stroke:none" transform="translate(836.903 2549.52)"/>
            <path d="m0 0-164.869-75.478s18.363-10.979 30.523-9.128c0 0 16.373 2.38 53.338 22.113L-4.715-22Z" style="fill:#f7f9f9;fill-opacity:1;fill-rule:nonzero;stroke:none" transform="translate(825.732 2497.24)"/>
            <path d="m0 0-23.55-10.781-164.869-75.478-22.48-10.292 21.22-12.687c1.914-1.145 19.137-11.18 34.258-11.18 1.683 0 3.328.121 4.888.358 2.281.343 20.114 3.536 57.508 23.496l76.266 40.48 5.348 2.838 1.268 5.921 4.715 22zm-18.139-22.602-4.715-22-76.292-40.493c-36.965-19.732-53.338-22.113-53.338-22.113a19.535 19.535 0 0 0-2.937-.21c-11.967 0-27.587 9.338-27.587 9.338l164.869 75.478" style="fill:#000;fill-opacity:1;fill-rule:nonzero;stroke:none" transform="translate(843.87 2519.84)"/>
            <path d="m0 0-212.718-24.033s16.235-15.755 30.247-17.987c0 0 19.467-3.64 68 4.346l100.075 16.246z" style="fill:#f7f9f9;fill-opacity:1;fill-rule:nonzero;stroke:none" transform="translate(832.183 2488.612)"/>
            <path d="m0 0-27.919-3.155-212.718-24.033-27.338-3.089 19.744-19.159c1.959-1.9 19.606-18.616 37.128-21.474 1.37-.238 6.569-1.01 16.494-1.01 10.629 0 28.935.927 55.789 5.348l100.047 16.24 5.564.903 3.144 4.679 14.396 21.427zm-26.46-16.072L-40.856-37.5l-100.075-16.246c-25.389-4.178-42.823-5.174-53.678-5.174-9.894 0-14.322.828-14.322.828-14.012 2.233-30.247 17.987-30.247 17.987L-26.46-16.072" style="fill:#000;fill-opacity:1;fill-rule:nonzero;stroke:none" transform="translate(858.643 2504.684)"/>
            <path d="m0 0-211.069 26.356s10.39-20.988 23.586-26.586c0 0 18.291-7.061 67.44-10.557l101.295-7.439z" style="fill:#f7f9f9;fill-opacity:1;fill-rule:nonzero;stroke:none" transform="translate(801.097 2494.356)"/>
            <path d="m0 0 10.725-21.663c.313-.633 3.197-6.375 7.916-12.981 7.048-9.871 14.532-16.535 22.242-19.805l.197-.083.199-.078c2.058-.794 21.542-7.864 71.2-11.396l101.265-7.436 5.825-.428 4.189 4.072 18.748 18.225 19.408 18.867-26.859 3.354L23.986-2.996zm22.375-15.896 211.069-26.356-18.748-18.226-101.295 7.439c-49.149 3.496-67.44 10.557-67.44 10.557-13.195 5.598-23.586 26.586-23.586 26.586" style="fill:#000;fill-opacity:1;fill-rule:nonzero;stroke:none" transform="translate(567.653 2536.608)"/>
            <path d="M0 0c-.408-1.5-58.869-1.561-67.18 2.013-2.777.547-16.972 20.281-25.654 34.768C-92.834 36.781.408 1.5 0 0" style="fill:#f7f9f9;fill-opacity:1;fill-rule:nonzero;stroke:none" transform="translate(809.7 2431.856)"/>
            <path d="m0 0 19.222-32.075c4.435-7.399 10.303-16.223 15.698-23.601 8.185-11.196 12.243-15.32 16.972-16.825 3.018-1.108 8.215-2.196 21.539-2.935 8.095-.448 18.445-.706 28.396-.706 6.033 0 11.578.098 15.615.273 2.278.099 4.051.219 5.423.369 1.075.117 1.948.257 2.746.438 5.048 1.15 8.839 4.693 10.14 9.478 1.498 5.502-.666 11.168-5.513 14.433-.594.4-1.245.779-2.046 1.192-.899.465-2.046 1.001-3.607 1.691-2.536 1.12-6.078 2.6-10.829 4.525-7.745 3.137-18.551 7.393-32.118 12.646a7414.93 7414.93 0 0 1-46.664 17.864zm30.373-25.392s93.242-35.28 92.834-36.78c-.163-.6-9.589-.97-21.38-.97-17.729 0-40.808.836-45.8 2.983-2.777.546-16.972 20.281-25.654 34.767" style="fill:#000;fill-opacity:1;fill-rule:nonzero;stroke:none" transform="translate(686.494 2494.029)"/>
            <path d="M0 0c-.686-2.67-88.053-6.775-101.063-.648-4.367.897-31.025 38.047-44.345 63.514C-145.408 62.866.684 2.671 0 0" style="fill:#f7f9f9;fill-opacity:1;fill-rule:nonzero;stroke:none" transform="translate(810.908 2465.34)"/>
            <path d="m0 0 16.557-31.654c6.301-12.048 16.18-27.912 26.426-42.437 4.665-6.615 8.999-12.365 12.532-16.626 4.673-5.637 8.064-9.037 12.174-10.556 3.32-1.457 11.53-4.061 43.366-4.061 13.461 0 29.383.496 42.594 1.328 6.281.395 11.631.848 15.474 1.309 2.276.274 4.065.553 5.469.857 8.185 1.763 10.709 7.093 11.484 10.112.761 2.974 1.53 10.436-7.681 15.679-1.273.723-3.006 1.615-5.299 2.724-3.858 1.867-9.503 4.447-16.783 7.668-12.099 5.356-28.997 12.615-50.22 21.573-36.072 15.23-72.698 30.325-73.064 30.475zm28.076-25.628s146.092-60.195 145.408-62.866c-.422-1.647-33.838-3.84-62.429-3.84-17.756 0-33.649.844-38.633 3.192-4.367.897-31.026 38.047-44.346 63.514" style="fill:#000;fill-opacity:1;fill-rule:nonzero;stroke:none" transform="translate(637.423 2553.834)"/>
            <path d="M0 0c-.709-2.87-88.215-8.073-101.184-1.621-4.365.922-30.715 40.517-43.815 67.705C-144.999 66.084.707 2.87 0 0" style="fill:#f7f9f9;fill-opacity:1;fill-rule:nonzero;stroke:none" transform="translate(772.81 2501.754)"/>
            <path d="m0 0 15.165-31.474c6.182-12.829 15.906-29.716 26.014-45.174 4.602-7.038 8.88-13.151 12.371-17.68 4.682-6.075 8.099-9.718 12.368-11.32 4.685-2.04 13.577-3.978 38.937-3.978 13.807 0 30.755.632 45.336 1.69 6.807.495 12.64 1.053 16.869 1.611 2.47.327 4.408.655 5.922 1.002 7.861 1.805 10.6 6.592 11.513 10.289.71 2.884 1.404 10.141-7.414 15.463-1.278.772-3.017 1.718-5.313 2.894-3.852 1.969-9.488 4.688-16.752 8.078-12.069 5.635-28.922 13.265-50.092 22.681C68.948-29.917 32.415-14.064 32.05-13.905zm26.876-25.831s145.706-63.213 144.999-66.084c-.46-1.864-37.534-4.711-67.02-4.711-15.917 0-29.617.829-34.164 3.09-4.365.922-30.715 40.517-43.815 67.705" style="fill:#000;fill-opacity:1;fill-rule:nonzero;stroke:none" transform="translate(600.935 2593.669)"/>
            <path d="m0 0-24.739-3.855-554.324-86.404-24.065-3.75 16.509-17.906 47.348-51.356 4.306-4.671 6.332.528 262.811 21.924c128.083 10.368 177.284 30.567 179.315 31.422l.204.086.202.093c16.54 7.631 34.282 25.555 52.733 53.269 13.198 19.824 21.924 37.427 22.289 38.166zm-22.737-16.701s-34.268-69.445-68.811-85.385c0 0-47.842-20.127-175.355-30.449l-262.811-21.923-47.348 51.354 554.325 86.403" style="fill:#000;fill-opacity:1;fill-rule:nonzero;stroke:none" transform="translate(1907.965 2670.142)"/>
        </g>
        <g clip-path="url(#g)" style="display:inline" transform="matrix(.44392 0 0 -.44392 39.717 1548.136)">
            <path d="m1330.904 2567.038 47.347-51.355 262.811 21.924c127.514 10.322 175.356 30.448 175.356 30.448 34.543 15.941 68.81 85.385 68.81 85.385z" style="fill:url(#h);stroke:none"/>
        </g>
        <g clip-path="url(#i)" style="display:inline" transform="matrix(.44392 0 0 -.44392 39.717 1548.136)">
            <path d="M0 0c-11.357-16.511-48.371-73.643-77.633-87.145 0 0-4.713-3.733-16.887-8.583 46.204 8.518 65.307 16.549 65.307 16.549C5.33-63.239 39.598 6.206 39.598 6.206z" style="fill:#b5b5b5;fill-opacity:1;fill-rule:nonzero;stroke:none" transform="translate(1845.63 2647.235)"/>
            <path d="M0 0c22.453 6.384 74.697 16.633 105.652 34.475 6.926 4.835-2.927-11.428-12.548-17.054C83.48 11.795-2.84-3.772 0 0" style="fill:#6e6a6d;fill-opacity:1;fill-rule:nonzero;stroke:none" transform="translate(1740.462 2599.568)"/>
            <path d="M0 0c32.189 2.986 50.881 13.12 66.064 16.777C85.502 21.458 58.668 5 58.668 5S-1.117-3.469 0 0" style="fill:#6e6a6d;fill-opacity:1;fill-rule:nonzero;stroke:none" transform="translate(1751.128 2576.235)"/>
            <g clip-path="url(#j)" opacity=".4">
                <path d="m0 0 .859-.793 99.403 40.246z" style="fill:#e2e1e0;fill-opacity:1;fill-rule:nonzero;stroke:none" transform="translate(1292.128 2600.901)"/>
            </g>
            <path d="M0 0a5 5 0 0 0-.534 9.972L310.972 43.81a4.992 4.992 0 0 0 5.51-4.431 5 5 0 0 0-4.43-5.51L.546.03A4.807 4.807 0 0 0 0 0" style="fill:#c9caca;fill-opacity:1;fill-rule:nonzero;stroke:none" transform="translate(1372.117 2539.562)"/>
            <path d="m0 0-23.819-7.717-642.002-208-23.169-7.506 19.131-15.072 66-52 4.99-3.932 6.169 1.522 308 76c149.77 36.565 204.022 69.693 206.259 71.086l.188.118.185.123c17.784 11.934 35.138 36.227 51.58 72.203C-14.65-47.271-7.683-24.862-7.392-23.921zm-19.813-20.084s-27.5-89-65.5-114.5c0 0-53-33-202.501-69.5l-308-76-66 52 642.001 208" style="fill:#000;fill-opacity:1;fill-rule:nonzero;stroke:none" transform="translate(1953.943 2828.985)"/>
        </g>
        <g clip-path="url(#k)" style="display:inline" transform="matrix(.44392 0 0 -.44392 39.717 1548.136)">
            <path d="m1292.128 2600.901 66.001-51.999 308 75.999c149.501 36.501 202.501 69.5 202.501 69.5 38 25.501 65.501 114.5 65.501 114.5z" style="fill:url(#l);stroke:none"/>
        </g>
        <g clip-path="url(#m)" style="display:inline" transform="matrix(.44392 0 0 -.44392 39.717 1548.136)">
            <g style="display:inline">
                <path d="M0 0c-10.352-21.769-44.977-97.23-77.166-118.832 0 0-4.889-5.33-18.428-13.405 53.264 18.9 74.428 32.071 74.428 32.071 38 25.5 65.5 114.5 65.5 114.5z" style="fill:#b5b5b5;fill-opacity:1;fill-rule:nonzero;stroke:none" transform="translate(1889.796 2794.567)"/>
            </g>
            <path d="M0 0c33.793 13.333 102.58 35.24 147.244 66.145 9.811 8.083-2.142-16.413-16.008-26.131C117.369 30.295-3.643-5.794 0 0" style="fill:#6e6a6d;fill-opacity:1;fill-rule:nonzero;stroke:none" transform="translate(1750.146 2711.996)"/>
            <path d="M0 0c37.666 9.667 81.369 29.338 98.668 36.667 19.666 8.333-7.334-17-7.334-17S-.668-4.333 0 0" style="fill:#6e6a6d;fill-opacity:1;fill-rule:nonzero;stroke:none" transform="translate(1773.462 2691.234)"/>
            <path d="M0 0a5.001 5.001 0 0 0-1.477 9.778l330.686 102.384a5 5 0 0 0 2.957-9.553L1.48.225A4.976 4.976 0 0 0 0 0" style="fill:#c9caca;fill-opacity:1;fill-rule:nonzero;stroke:none" transform="translate(1378.44 2578.517)"/>
            <path d="m0 0 6.263-22.989c.163-.601 4.085-14.907 10.636-31.265 9.477-23.662 19.216-38.915 29.772-46.634l.204-.149.208-.14c1.238-.834 31.26-20.632 112.054-38.38l163.35-36.398 7.152-1.594 5.066 5.293 34.463 36.002 14.448 15.093-19.924 6.292L22.721-7.176Zm18.806-19.572 340.971-107.693-34.463-36.001-163.388 36.406C82.622-109.438 54.345-90.394 54.345-90.394 34.058-75.56 18.806-19.572 18.806-19.572" style="fill:#000;fill-opacity:1;fill-rule:nonzero;stroke:none" transform="translate(515.705 2674.265)"/>
        </g>
        <g clip-path="url(#n)" transform="matrix(.44392 0 0 -.44392 39.717 1548.136)">
            <path d="M570.049 2583.871s28.277-19.044 107.582-36.466l163.388-36.406L875.482 2547 534.51 2654.693s15.252-55.987 35.539-70.822" style="fill:url(#o);stroke:none"/>
        </g>
        <g clip-path="url(#p)" style="display:inline" transform="matrix(.44392 0 0 -.44392 39.717 1548.136)">
            <path d="M0 0c5.646-13.55 23.746-60.267 40.932-72.832 0 0 2.625-3.223 9.845-7.86-28.3 9.989-39.591 17.589-39.591 17.589-20.288 14.835-35.54 70.822-35.54 70.822z" style="fill:#b5b5b5;fill-opacity:1;fill-rule:nonzero;stroke:none" transform="translate(558.864 2646.974)"/>
            <path d="M0 0c-13.547 6.582-45.49 18.351-63.35 34.382-3.918 4.235.805-9.01 6.346-14.057C-51.459 15.281 1.445-3.115 0 0" style="fill:#6e6a6d;fill-opacity:1;fill-rule:nonzero;stroke:none" transform="translate(620.71 2602.476)"/>
            <path d="M0 0c-19.984 4.69-30.824 13.878-40.047 17.82-11.807 5.049 3.584-9.612 3.584-9.612S.387-2.752 0 0" style="fill:#6e6a6d;fill-opacity:1;fill-rule:nonzero;stroke:none" transform="translate(611.877 2585.313)"/>
            <path d="M0 0c-.219 0-.44.014-.664.044l-197.389 26.22a5 5 0 1 0 1.317 9.913L.652 9.957A5 5 0 0 0 0 0" style="fill:#c9caca;fill-opacity:1;fill-rule:nonzero;stroke:none" transform="translate(866.263 2533.053)"/>
            <path d="m0 0 3.291-25.187c.098-.749 2.455-18.584 7.57-39.479 7.192-29.381 16.196-49.847 26.763-60.83l.163-.171.17-.164c1.309-1.265 33.112-31.438 124.993-71.122l186.875-81.363 6.982-3.041 6.067 4.604 46.259 35.11 16.084 12.208-17.77 9.589L22.354-12.063zm16.181-23.503 385.093-207.784-46.26-35.11-186.91 81.378c-90.761 39.201-121.112 68.536-121.112 68.536-21.596 22.447-30.811 92.98-30.811 92.98" style="fill:#000;fill-opacity:1;fill-rule:nonzero;stroke:none" transform="translate(501.687 2801.464)"/>
        </g>
        <g clip-path="url(#q)" style="display:inline" transform="matrix(.44392 0 0 -.44392 39.717 1548.136)">
            <path d="M548.678 2684.981s30.351-29.335 121.113-68.536l186.91-81.379 46.259 35.111-385.092 207.784s9.214-70.533 30.81-92.98" style="fill:url(#r);stroke:none"/>
        </g>
    </g>
</svg>