<svg version="1.1" id="wapuugotchi_svg__item" viewBox="0 0 1e3 1e3" xmlns="http://www.w3.org/2000/svg" xmlns:xlink="http://www.w3.org/1999/xlink">
    <g class="Background--part">
    <defs>
        <path id="a" d="M0 3551.289h2370.727V0H0Z"/>
        <clipPath id="b" clipPathUnits="userSpaceOnUse">
            <use xlink:href="#a"/>
        </clipPath>
        <clipPath id="c" clipPathUnits="userSpaceOnUse">
            <path d="m1330.904 2567.038 47.347-51.355 262.811 21.924c127.514 10.322 175.356 30.448 175.356 30.448 34.543 15.941 68.81 85.385 68.81 85.385z"/>
        </clipPath>
        <clipPath id="e" clipPathUnits="userSpaceOnUse">
            <use xlink:href="#a"/>
        </clipPath>
        <clipPath id="f" clipPathUnits="userSpaceOnUse">
            <path d="M1292.13 2640.35h100.26v-40.24h-100.26z"/>
        </clipPath>
        <clipPath id="g" clipPathUnits="userSpaceOnUse">
            <path d="m1292.128 2600.901 66.001-51.999 308 75.999c149.501 36.501 202.501 69.5 202.501 69.5 38 25.501 65.501 114.5 65.501 114.5z"/>
        </clipPath>
        <clipPath id="i" clipPathUnits="userSpaceOnUse">
            <use xlink:href="#a"/>
        </clipPath>
        <clipPath id="j" clipPathUnits="userSpaceOnUse">
            <path d="M570.049 2583.871s28.277-19.044 107.582-36.466l163.388-36.406L875.482 2547 534.51 2654.693s15.252-55.987 35.539-70.822"/>
        </clipPath>
        <clipPath id="l" clipPathUnits="userSpaceOnUse">
            <use xlink:href="#a"/>
        </clipPath>
        <clipPath id="m" clipPathUnits="userSpaceOnUse">
            <path d="M548.678 2684.981s30.351-29.335 121.113-68.536l186.91-81.379 46.259 35.111-385.092 207.784s9.214-70.533 30.81-92.98"/>
        </clipPath>
        <linearGradient id="d" x1="0" x2="1" y1="0" y2="0" gradientTransform="matrix(-111.21065 -176.17572 -176.17572 111.21066 1635.684 2652.532)" gradientUnits="userSpaceOnUse" spreadMethod="pad">
            <stop offset="0" stop-color="#fff"/>
            <stop offset=".415" stop-color="#ededed"/>
            <stop offset="1" stop-color="#ededed"/>
        </linearGradient>
        <linearGradient id="h" x1="0" x2="1" y1="0" y2="0" gradientTransform="scale(-283.80377 283.80377) rotate(-57.738 5.917 10.177)" gradientUnits="userSpaceOnUse" spreadMethod="pad">
            <stop offset="0" stop-color="#fff"/>
            <stop offset=".415" stop-color="#ededed"/>
            <stop offset="1" stop-color="#ededed"/>
        </linearGradient>
        <linearGradient id="k" x1="0" x2="1" y1="0" y2="0" gradientTransform="rotate(-64.474 2428.65 767.462) scale(140.87145)" gradientUnits="userSpaceOnUse" spreadMethod="pad">
            <stop offset="0" stop-color="#fff"/>
            <stop offset=".415" stop-color="#ededed"/>
            <stop offset="1" stop-color="#ededed"/>
        </linearGradient>
        <linearGradient id="n" x1="0" x2="1" y1="0" y2="0" gradientTransform="rotate(-64.474 2494.556 817.433) scale(196.54555)" gradientUnits="userSpaceOnUse" spreadMethod="pad">
            <stop offset="0" stop-color="#fff"/>
            <stop offset=".415" stop-color="#ededed"/>
            <stop offset="1" stop-color="#ededed"/>
        </linearGradient>
    </defs>
    <g clip-path="url(#b)" transform="matrix(.44392 0 0 -.44392 39.717 1548.136)">
        <path fill="#f7f9f9" d="m1313.824 2568.447 178.973-306.212s-39.91 2.533-57.782 19.086c0 0-25.576 23.35-62.84 96.316l-77.185 150.234z"/>
        <path d="m1312.5 2596.475-10.468-22.555-18.834-40.576-2.676-5.763 2.905-5.65 77.185-150.234c37.455-73.343 63.916-98.389 65.59-99.932 20.677-19.126 61.215-22.215 65.771-22.504l24.368-1.547-12.32 21.08-178.973 306.213Zm1.324-28.028 178.973-306.212s-39.908 2.533-57.781 19.086c0 0-25.577 23.35-62.84 96.317l-77.186 150.233 18.834 40.576"/>
        <path fill="#f7f9f9" d="m1309.69 2518.865 280.439-215.297s-39.684-12.862-61.985-4.046c0 0-30.08 11.661-91.732 65.271l-127.35 110.21Z"/>
        <path d="m1297.064 2544.95-.372-25.898-.629-43.864-.087-6.054 4.579-3.962 127.35-110.209c61.847-53.779 93.437-66.733 95.477-67.537 6.709-2.648 14.881-3.992 24.288-3.992 22.246 0 45.488 7.45 46.466 7.767l23.52 7.622-19.612 15.056-280.437 215.298zm12.627-26.085 280.437-215.297s-22.01-7.134-42.458-7.134c-7.009 0-13.833.838-19.526 3.088 0 0-30.08 11.661-91.732 65.271l-127.35 110.21.629 43.862"/>
        <path fill="#f7f9f9" d="m1293.67 2505.28 393.792-138.378s-37.72-22.864-65.32-21.003c0 0-38.582 1.566-127.34 37.898l-183.11 74.487z"/>
        <path d="m1271.47 2526.86 10.062-26.234 18.023-46.997 2.018-5.264 5.221-2.124 183.11-74.486c87.363-35.761 127.81-38.642 131.488-38.834a61.854 61.854 0 0 1 4.032-.13c30.492 0 67.228 22.055 68.776 22.994l23.528 14.26-25.956 9.12-393.793 138.38zm22.2-21.58 393.792-138.378s-34.828-21.11-62.038-21.11c-1.108 0-2.202.034-3.282.107 0 0-38.582 1.566-127.34 37.898l-183.109 74.487-18.024 46.997"/>
        <path fill="#f7f9f9" d="m1355.25 2502.652 412.62-41.895s-28.891-35.36-56.407-40.25c0 0-37.842-5.447-132.774 9.329l-195.749 30.008Z"/>
        <path d="m1329.631 2518.32 14.703-22.729 27.692-42.808 3.171-4.904 5.774-.884 195.748-30.009c55.534-8.644 92.007-10.459 112.818-10.459 15.587 0 22.986 1 23.778 1.114l.211.03.21.037c13.805 2.454 28.902 10.874 44.872 25.03 11.315 10.028 19.007 19.4 19.33 19.793l15.293 18.718-24.047 2.441-412.62 41.895Zm25.618-15.668 412.621-41.895s-28.892-35.36-56.408-40.249c0 0-6.818-.98-21.925-.98-20.484 0-56.21 1.803-110.848 10.307l-195.748 30.008-27.692 42.81"/>
        <path fill="#f7f9f9" d="M1311.664 2387.62c.123-3.031 111.199-28.622 128.55-25.451 5.52-.174 41.096 31.146 63.909 54.895 0 0-192.582-26.414-192.46-29.444"/>
        <path d="m1539.4 2435.024-37.044-5.082c-.481-.065-48.746-6.689-96.375-13.599-28.011-4.064-50.34-7.43-66.363-10.01-9.606-1.546-17.07-2.829-22.18-3.813-2.975-.574-5.22-1.058-6.862-1.478-1.227-.314-2.193-.613-3.04-.939-6.824-2.626-9.038-8.65-8.862-13.01.102-2.514 1.17-8.724 8.873-12.125 1.15-.509 2.552-1.028 4.41-1.634 2.958-.963 7.084-2.144 12.263-3.509 10.142-2.673 23.386-5.812 37.293-8.84 16.693-3.634 57.393-12.089 74.765-12.089 1.93 0 3.617.1 5.119.301 4.992.288 11.29 2.973 32.906 21.715 13.17 11.42 27.823 25.307 39.195 37.145zm-35.277-17.96c-22.75-23.684-58.194-54.897-63.862-54.897l-.047.001c-1.01-.185-2.333-.272-3.936-.272-25.96 0-124.498 22.87-124.614 25.723-.123 3.03 192.459 29.445 192.459 29.445"/>
        <path fill="#f7f9f9" d="M1323.962 2451.78c.135-5.373 164.39-51.25 191.783-45.275 8.692-.197 75.55 58.787 111.96 101.38 0 0-303.876-50.731-303.743-56.104"/>
        <path d="m1660.796 2526.589-35.232-5.881c-.76-.128-76.894-12.845-152.032-26.056-44.172-7.767-79.377-14.185-104.637-19.075-15.1-2.924-26.816-5.336-34.824-7.172-4.57-1.047-7.993-1.918-10.462-2.66-1.682-.506-2.974-.966-4.063-1.45-8.166-3.625-8.632-10.74-8.58-12.836.092-3.671 1.646-8.813 8.53-12.491 1.52-.811 3.495-1.694 6.042-2.698 4.278-1.687 10.272-3.761 17.816-6.163 14.965-4.767 34.46-10.342 54.89-15.7 24.581-6.444 84.611-21.437 111.04-21.437 3.111 0 5.77.2 8.083.608 4.588.438 10.125 3.028 22.446 12.469 8.331 6.384 18.812 15.21 30.31 25.524 25.383 22.774 50.603 48.144 67.463 67.867zm-33.092-18.704c-36.349-42.524-103.047-101.38-111.915-101.38h-.044c-1.67-.364-3.842-.535-6.462-.535-40.345 0-185.194 40.765-185.32 45.81-.134 5.373 303.741 56.105 303.741 56.105"/>
        <path fill="#f7f9f9" d="M1410.333 2504.817c.096-5.763 164.135-53.788 191.594-47.178 8.696-.149 76.032 63.617 112.778 109.58 0 0-304.466-56.637-304.371-62.402"/>
        <path d="m1746.675 2586.39-34.348-6.39c-.76-.142-77.046-14.34-152.338-29.062-44.264-8.654-79.545-15.797-104.864-21.228-15.139-3.248-26.889-5.923-34.924-7.952-4.594-1.16-8.038-2.122-10.525-2.94-1.705-.56-3.015-1.07-4.12-1.602-7.758-3.738-8.254-10.597-8.22-12.61.156-9.5 8.994-13.186 14.276-15.389 4.258-1.777 10.224-3.953 17.73-6.47 14.858-4.982 34.242-10.802 54.581-16.389 24.454-6.717 84.233-22.343 111.114-22.343 3.343 0 6.192.233 8.661.71 4.751.492 10.254 3.29 22.703 13.545 8.371 6.898 18.915 16.434 30.49 27.577 25.557 24.604 50.966 51.988 67.968 73.253zm-31.97-19.17c-36.704-45.91-103.926-109.58-112.748-109.58h-.03c-1.762-.425-4.083-.625-6.89-.625-40.938 0-184.614 42.41-184.704 47.802-.094 5.765 304.371 62.402 304.371 62.402"/>
        <path fill="#f7f9f9" d="m829.35 2522.498-124.57-132.557s20.24-3.308 31.072 2.919c0 0 15.463 8.74 42.455 40.944l55.805 66.252z"/>
        <path d="m836.903 2549.52-17.027-18.119-124.57-132.557-16.72-17.793 24.098-3.939c.656-.108 6.632-1.048 14.16-1.048 10.514 0 19.076 1.852 25.45 5.504 2.007 1.143 18.488 11.087 45.977 43.886l55.784 66.227 4.094 4.859-1.32 6.215-4.763 22.442zm-7.554-27.022 4.764-22.442-55.805-66.252c-26.992-32.204-42.455-40.944-42.455-40.944-5.251-3.019-12.714-3.796-19.01-3.796-6.69 0-12.062.877-12.062.877l124.568 132.557"/>
        <path fill="#f7f9f9" d="m825.732 2497.24-164.87-75.479s18.364-10.979 30.524-9.128c0 0 16.373 2.38 53.338 22.113l76.293 40.493Z"/>
        <path d="m843.87 2519.84-23.55-10.78-164.868-75.478-22.48-10.292 21.22-12.687c1.914-1.145 19.137-11.18 34.258-11.18 1.683 0 3.328.12 4.888.358 2.28.343 20.114 3.536 57.508 23.496l76.266 40.48 5.348 2.838 1.268 5.92 4.715 22zm-18.138-22.601-4.715-22-76.292-40.493c-36.965-19.732-53.338-22.113-53.338-22.113a19.535 19.535 0 0 0-2.937-.21c-11.967 0-27.587 9.338-27.587 9.338l164.869 75.478"/>
        <path fill="#f7f9f9" d="m832.183 2488.612-212.718-24.033s16.235-15.755 30.247-17.987c0 0 19.467-3.64 68 4.346l100.075 16.246z"/>
        <path d="m858.643 2504.684-27.919-3.155-212.718-24.033-27.338-3.089 19.744-19.159c1.96-1.9 19.606-18.616 37.128-21.474 1.37-.238 6.57-1.01 16.494-1.01 10.63 0 28.935.927 55.79 5.348l100.046 16.24 5.564.903 3.144 4.68 14.396 21.426zm-26.46-16.072-14.396-21.428-100.075-16.246c-25.389-4.178-42.823-5.174-53.678-5.174-9.894 0-14.322.828-14.322.828-14.012 2.233-30.247 17.987-30.247 17.987l212.718 24.033"/>
        <path fill="#f7f9f9" d="m801.097 2494.356-211.069 26.356s10.39-20.988 23.586-26.586c0 0 18.291-7.06 67.44-10.557l101.295-7.439z"/>
        <path d="m567.653 2536.608 10.725-21.663c.313-.633 3.197-6.375 7.916-12.98 7.048-9.872 14.532-16.536 22.242-19.806l.197-.083.199-.078c2.058-.794 21.542-7.864 71.2-11.396l101.265-7.436 5.825-.428 4.189 4.072 18.748 18.225 19.408 18.867-26.86 3.354-211.068 26.356zm22.375-15.896 211.069-26.356-18.748-18.226-101.295 7.44c-49.15 3.495-67.44 10.556-67.44 10.556-13.195 5.598-23.586 26.586-23.586 26.586"/>
        <path fill="#f7f9f9" d="M809.7 2431.856c-.407-1.5-58.868-1.56-67.18 2.013-2.776.547-16.971 20.281-25.653 34.768 0 0 93.242-35.28 92.834-36.78"/>
        <path d="m686.494 2494.029 19.222-32.075c4.435-7.4 10.303-16.223 15.698-23.601 8.185-11.196 12.243-15.32 16.972-16.825 3.018-1.108 8.215-2.196 21.539-2.935 8.095-.448 18.445-.706 28.396-.706 6.033 0 11.578.098 15.615.273 2.278.099 4.05.219 5.423.369 1.075.117 1.948.257 2.746.438 5.048 1.15 8.839 4.693 10.14 9.478 1.498 5.502-.666 11.168-5.513 14.433-.594.4-1.245.779-2.046 1.192-.9.465-2.046 1-3.607 1.69-2.536 1.12-6.078 2.6-10.83 4.526-7.744 3.137-18.55 7.393-32.117 12.646a7414.93 7414.93 0 0 1-46.664 17.864zm30.373-25.392s93.242-35.28 92.834-36.78c-.163-.6-9.59-.97-21.38-.97-17.73 0-40.808.836-45.8 2.983-2.777.546-16.972 20.28-25.654 34.767"/>
        <path fill="#f7f9f9" d="M810.908 2465.34c-.686-2.67-88.053-6.775-101.063-.648-4.367.897-31.025 38.047-44.345 63.514 0 0 146.092-60.195 145.408-62.866"/>
        <path d="m637.423 2553.834 16.557-31.654c6.301-12.048 16.18-27.912 26.426-42.437 4.665-6.615 9-12.365 12.532-16.626 4.673-5.637 8.064-9.037 12.174-10.556 3.32-1.457 11.53-4.061 43.366-4.061 13.461 0 29.383.496 42.594 1.328 6.281.395 11.631.848 15.474 1.309 2.276.274 4.065.553 5.47.857 8.184 1.763 10.708 7.093 11.483 10.112.761 2.974 1.53 10.436-7.68 15.679-1.274.723-3.007 1.615-5.3 2.724-3.858 1.867-9.503 4.447-16.783 7.668-12.099 5.356-28.997 12.615-50.22 21.573-36.072 15.23-72.698 30.325-73.064 30.475zm28.076-25.628s146.092-60.195 145.408-62.866c-.422-1.647-33.838-3.84-62.429-3.84-17.756 0-33.649.844-38.633 3.192-4.367.897-31.026 38.047-44.346 63.514"/>
        <path fill="#f7f9f9" d="M772.81 2501.754c-.709-2.87-88.215-8.073-101.184-1.621-4.365.922-30.715 40.517-43.815 67.705 0 0 145.706-63.214 145-66.084"/>
        <path d="m600.935 2593.669 15.165-31.474c6.182-12.83 15.906-29.717 26.014-45.175 4.602-7.037 8.88-13.15 12.371-17.68 4.682-6.074 8.1-9.717 12.368-11.32 4.685-2.04 13.577-3.977 38.937-3.977 13.807 0 30.755.631 45.336 1.69 6.807.494 12.64 1.052 16.87 1.61 2.47.328 4.407.656 5.921 1.003 7.861 1.804 10.6 6.591 11.513 10.288.71 2.885 1.404 10.142-7.414 15.464-1.278.772-3.017 1.718-5.313 2.894-3.852 1.968-9.488 4.687-16.752 8.077-12.069 5.636-28.922 13.266-50.092 22.682-35.976 16-72.509 31.853-72.874 32.012zm26.876-25.831s145.706-63.214 145-66.085c-.46-1.863-37.535-4.71-67.02-4.71-15.918 0-29.618.829-34.165 3.09-4.365.922-30.715 40.517-43.815 67.705m1280.154 102.304-24.739-3.855-554.324-86.404-24.065-3.75 16.51-17.906 47.347-51.356 4.306-4.671 6.332.528 262.811 21.924c128.083 10.368 177.284 30.567 179.315 31.422l.204.086.202.093c16.54 7.63 34.282 25.555 52.733 53.269 13.198 19.824 21.924 37.427 22.29 38.166zm-22.737-16.701s-34.268-69.445-68.81-85.385c0 0-47.843-20.127-175.356-30.45l-262.81-21.922-47.349 51.354 554.325 86.403"/>
    </g>
    <g clip-path="url(#c)" transform="matrix(.44392 0 0 -.44392 39.717 1548.136)">
        <path fill="url(#d)" d="m1330.904 2567.038 47.347-51.355 262.811 21.924c127.514 10.322 175.356 30.448 175.356 30.448 34.543 15.941 68.81 85.385 68.81 85.385z"/>
    </g>
    <g clip-path="url(#e)" transform="matrix(.44392 0 0 -.44392 39.717 1548.136)">
        <path fill="#b5b5b5" d="M1845.63 2647.235c-11.357-16.511-48.37-73.643-77.633-87.145 0 0-4.713-3.733-16.887-8.583 46.204 8.518 65.307 16.549 65.307 16.549 34.543 15.94 68.811 85.385 68.811 85.385z"/>
        <path fill="#6e6a6d" d="M1740.462 2599.568c22.453 6.384 74.697 16.633 105.652 34.475 6.926 4.835-2.927-11.428-12.548-17.054-9.624-5.626-95.944-21.193-93.104-17.421m10.666-23.333c32.19 2.986 50.881 13.12 66.064 16.777 19.438 4.68-7.396-11.777-7.396-11.777s-59.785-8.47-58.668-5"/>
        <g clip-path="url(#f)" opacity=".4">
            <path fill="#e2e1e0" d="m1292.128 2600.901.86-.793 99.402 40.246z"/>
        </g>
        <path fill="#c9caca" d="M1372.117 2539.562a5 5 0 0 0-.534 9.972l311.506 33.838a4.992 4.992 0 0 0 5.51-4.431 5 5 0 0 0-4.43-5.51l-311.506-33.839a4.807 4.807 0 0 0-.546-.03"/>
        <path d="m1953.943 2828.985-23.82-7.717-642.001-208-23.17-7.506 19.132-15.072 66-52 4.99-3.932 6.169 1.522 308 76c149.77 36.565 204.022 69.693 206.259 71.086l.188.118.185.123c17.784 11.934 35.138 36.227 51.58 72.203 11.838 25.904 18.805 48.313 19.096 49.254zm-19.813-20.084s-27.5-89-65.5-114.5c0 0-53-33-202.501-69.5l-308-76-66 52 642 208"/>
    </g>
    <g clip-path="url(#g)" transform="matrix(.44392 0 0 -.44392 39.717 1548.136)">
        <path fill="url(#h)" d="m1292.128 2600.901 66.001-51.999 308 75.999c149.501 36.501 202.501 69.5 202.501 69.5 38 25.501 65.501 114.5 65.501 114.5z"/>
    </g>
    <g clip-path="url(#i)" transform="matrix(.44392 0 0 -.44392 39.717 1548.136)">
        <path fill="#b5b5b5" d="M1889.796 2794.567c-10.352-21.769-44.977-97.23-77.166-118.832 0 0-4.889-5.33-18.428-13.405 53.264 18.9 74.428 32.071 74.428 32.071 38 25.5 65.5 114.5 65.5 114.5z"/>
        <path fill="#6e6a6d" d="M1750.146 2711.996c33.793 13.333 102.58 35.24 147.244 66.145 9.811 8.083-2.142-16.413-16.008-26.13-13.867-9.72-134.879-45.809-131.236-40.015m23.316-20.762c37.666 9.667 81.37 29.338 98.668 36.667 19.666 8.333-7.334-17-7.334-17s-92.002-24-91.334-19.667"/>
        <path fill="#c9caca" d="M1378.44 2578.517a5.001 5.001 0 0 0-1.476 9.778l330.686 102.384a5 5 0 0 0 2.957-9.553l-330.686-102.384a4.976 4.976 0 0 0-1.48-.225"/>
        <path d="m515.705 2674.265 6.263-22.989c.163-.6 4.085-14.907 10.636-31.265 9.477-23.662 19.216-38.915 29.772-46.634l.204-.149.208-.14c1.238-.834 31.26-20.632 112.054-38.38l163.35-36.398 7.152-1.594 5.066 5.293 34.463 36.002 14.448 15.093-19.924 6.292-340.971 107.693Zm18.806-19.572L875.48 2547l-34.462-36-163.388 36.405c-79.304 17.422-107.581 36.466-107.581 36.466-20.287 14.834-35.54 70.822-35.54 70.822"/>
    </g>
    <g clip-path="url(#j)" transform="matrix(.44392 0 0 -.44392 39.717 1548.136)">
        <path fill="url(#k)" d="M570.049 2583.871s28.277-19.044 107.582-36.466l163.388-36.406L875.482 2547 534.51 2654.693s15.252-55.987 35.539-70.822"/>
    </g>
    <g clip-path="url(#l)" transform="matrix(.44392 0 0 -.44392 39.717 1548.136)">
        <path fill="#b5b5b5" d="M558.864 2646.974c5.646-13.55 23.746-60.267 40.932-72.832 0 0 2.625-3.223 9.845-7.86-28.3 9.989-39.591 17.589-39.591 17.589-20.288 14.835-35.54 70.822-35.54 70.822z"/>
        <path fill="#6e6a6d" d="M620.71 2602.476c-13.547 6.582-45.49 18.351-63.35 34.382-3.918 4.235.805-9.01 6.346-14.057 5.545-5.044 58.449-23.44 57.004-20.325m-8.833-17.163c-19.984 4.69-30.824 13.877-40.047 17.82-11.807 5.049 3.584-9.612 3.584-9.612s36.85-10.96 36.463-8.209"/>
        <path fill="#c9caca" d="M866.263 2533.053c-.219 0-.44.014-.664.044l-197.389 26.22a5 5 0 1 0 1.317 9.913l197.388-26.22a5 5 0 0 0-.652-9.957"/>
        <path d="m501.687 2801.464 3.29-25.187c.099-.75 2.456-18.584 7.57-39.48 7.192-29.38 16.196-49.846 26.763-60.83l.164-.17.17-.164c1.309-1.265 33.112-31.438 124.993-71.122l186.875-81.363 6.982-3.041 6.067 4.604 46.259 35.11 16.084 12.208-17.77 9.589L524.04 2789.4zm16.18-23.503 385.094-207.784-46.26-35.11-186.91 81.378c-90.761 39.2-121.112 68.536-121.112 68.536-21.596 22.447-30.811 92.98-30.811 92.98"/>
    </g>
    <g clip-path="url(#m)" transform="matrix(.44392 0 0 -.44392 39.717 1548.136)">
        <path fill="url(#n)" d="M548.678 2684.981s30.351-29.335 121.113-68.536l186.91-81.379 46.259 35.111-385.092 207.784s9.214-70.533 30.81-92.98"/>
    </g>
    </g>
</svg>