<?xml version="1.0" encoding="UTF-8" standalone="no"?>
<svg
   id="wapuugotchi_svg__wapuu"
   x="0"
   y="0"
   version="1.1"
   viewBox="0 0 1000 1000"
   xmlns="http://www.w3.org/2000/svg"
   xmlns:svg="http://www.w3.org/2000/svg">
  <defs
     id="defs2972">
    <clipPath
       clipPathUnits="userSpaceOnUse"
       id="clipPath198">
      <path
         d="M 0,3551.289 H 2370.727 V 0 H 0 Z"
         id="path196" />
    </clipPath>
    <clipPath
       clipPathUnits="userSpaceOnUse"
       id="clipPath210">
      <path
         d="m 1474.365,2144.678 -10.329,2.262 -30.088,-16.244 -0.677,-3.676 -2.943,2.87 c -25.947,-16.238 -44.846,-68.636 -28.781,-49.275 v 0 c 4.339,5.23 9.906,9.696 15.733,13.446 v 0 c -11.36,-19.672 -14.194,-51.831 -8.083,-37.214 v 0 c 2.488,5.952 6.728,11.439 11.174,16.054 v 0 c -2.579,-18.309 -7.28,-38.942 -15.856,-52.363 v 0 c -11.18,-17.496 2.865,-11.001 19.49,12.635 v 0 c 0.292,-17.446 -1.082,-36.603 -6.795,-50.219 v 0 c -8.519,-20.308 6.321,-9.178 19.292,20.725 v 0 c 2.677,-14.312 7.905,-23.126 8.122,-11.354 v 0 c 0.122,6.502 1.846,13.17 4.164,19.27 v 0 c 3.489,-18.325 5.188,-37.55 2.008,-52.961 v 0 c -4.678,-22.669 5.471,-14.267 14.158,12.151 v 0 c 6.243,-27.55 25.942,-49.726 20.001,-27.874 v 0 c -1.794,6.595 -2.102,13.793 -1.651,20.673 v 0 c 0.18,-0.259 0.369,-0.522 0.58,-0.787 v 0 c 14.863,-18.715 38.657,-73.419 38.657,-73.419 v 0 l 71.553,-176.7 43.341,-105.63 c 0,0 5.012,-12.798 11.026,-12.282 v 0 c 6.015,0.515 0.918,16.481 0.918,16.481 v 0 l -34.254,102.4 c 0,0 -37.934,95.323 -58.067,156.185 v 0 c -16.303,49.279 -20.027,94.521 -20.855,109.956 v 0 c 23.59,-16.158 43.539,-23.782 29.939,-10.514 v 0 c -9.398,9.166 -18.564,23.628 -26.314,38.018 v 0 c 7.898,-0.022 17.375,-1.014 25.103,-4.67 v 0 c 13.615,-6.438 -2.896,12.478 -22.175,20.239 v 0 c 19.407,-0.364 36.045,5.672 21.871,7.32 v 0 c -11.35,1.321 -22.725,7.622 -30.696,13.051 v 0 c 3.961,-0.138 7.93,-0.66 11.627,-1.778 v 0 c 9.486,-2.868 4.449,3.197 -5.865,9.058 v 0 c 17.311,-0.072 32.248,5.717 19.609,6.877 v 0 c -6.798,0.626 -14.82,4.494 -22.203,9.096 v 0 c 29.302,-5.893 54.254,-1.886 33.027,5.309 v 0 c -15.906,5.391 -30.583,17.184 -41.463,27.857 v 0 c 4.951,0.18 10.04,-0.169 14.721,-1.464 v 0 c 15.336,-4.249 -7.305,13.657 -28.763,16.782 v 0 c -0.125,0.152 -0.242,0.294 -0.364,0.442 v 0 c 22.153,3.688 37.42,12.348 20.103,12.283 v 0 c -28.208,-0.107 -59.61,22.018 -59.61,22.018 v 0 z"
         id="path208" />
    </clipPath>
    <linearGradient
       x1="0"
       y1="0"
       x2="1"
       y2="0"
       gradientUnits="userSpaceOnUse"
       gradientTransform="matrix(-107.99431,281.98627,281.98627,107.99431,1576.0737,1812.3193)"
       spreadMethod="pad"
       id="linearGradient220">
      <stop
         style="stop-opacity:1;stop-color:#e99413"
         offset="0"
         id="stop216" />
      <stop
         style="stop-opacity:1;stop-color:#d71618"
         offset="1"
         id="stop218" />
    </linearGradient>
    <clipPath
       clipPathUnits="userSpaceOnUse"
       id="clipPath230">
      <path
         d="M 0,3551.289 H 2370.727 V 0 H 0 Z"
         id="path228" />
    </clipPath>
    <clipPath
       clipPathUnits="userSpaceOnUse"
       id="clipPath258">
      <path
         d="m 1236.945,2078.067 -8.637,1.891 -25.16,-13.584 0.048,-11.701 -7.396,3.867 c 0,0 -0.074,-10.68 -1.578,-24.634 v 0 c -14.075,-13.378 -22.352,-46.319 -14.848,-33.844 v 0 c 2.85,4.739 7.164,8.85 11.512,12.172 v 0 c -2.351,-11.291 -5.824,-22.42 -10.959,-30.455 v 0 c -9.152,-14.323 1.911,-9.417 15.422,9.339 v 0 c 0.375,-15.068 -0.664,-31.967 -5.643,-43.833 v 0 c -6.915,-16.488 4.579,-8.197 15.178,15.179 v 0 c 2.068,-13.283 6.998,-22.268 7.192,-11.804 v 0 c 0.099,5.437 1.542,11.012 3.482,16.115 v 0 c 2.916,-15.325 4.338,-31.403 1.678,-44.29 v 0 c -4.143,-20.076 5.619,-11.01 13.111,14.229 v 0 c 3.621,-25.269 23.02,-48.119 17.684,-28.493 v 0 c -1.35,4.963 -1.692,10.332 -1.473,15.55 v 0 c 12.461,-17.328 30.676,-59.201 30.676,-59.201 v 0 l 59.834,-147.766 36.246,-88.334 c 0,0 4.191,-10.702 9.221,-10.271 v 0 c 5.029,0.43 0.767,13.783 0.767,13.783 v 0 l -28.646,85.631 c 0,0 -31.723,79.716 -48.559,130.611 v 0 c -13.633,41.211 -16.746,79.044 -17.439,91.952 v 0 c 19.728,-13.512 36.41,-19.888 25.035,-8.792 v 0 c -7.858,7.666 -15.524,19.76 -22.004,31.792 v 0 c 6.605,-0.018 14.53,-0.847 20.994,-3.904 v 0 c 11.387,-5.385 -2.432,10.436 -18.559,16.925 v 0 c 16.236,-0.307 30.16,4.743 18.303,6.121 v 0 c -9.492,1.105 -19.004,6.374 -25.67,10.914 v 0 c 3.313,-0.115 6.633,-0.553 9.724,-1.486 v 0 c 7.932,-2.399 3.719,2.674 -4.905,7.573 v 0 c 14.474,-0.06 26.968,4.78 16.398,5.752 v 0 c -5.684,0.523 -12.393,3.758 -18.567,7.605 v 0 c 24.505,-4.928 45.369,-1.577 27.62,4.439 v 0 c -13.303,4.509 -25.577,14.372 -34.674,23.298 v 0 c 4.14,0.15 8.395,-0.141 12.309,-1.225 v 0 c 12.826,-3.552 -6.106,11.421 -24.051,14.033 v 0 c -0.105,0.128 -0.203,0.247 -0.305,0.371 v 0 c 18.525,3.084 31.291,10.326 16.811,10.271 v 0 c -23.59,-0.088 -49.85,18.414 -49.85,18.414 v 0 z"
         id="path256" />
    </clipPath>
    <linearGradient
       x1="0"
       y1="0"
       x2="1"
       y2="0"
       gradientUnits="userSpaceOnUse"
       gradientTransform="matrix(-90.310837,235.81258,235.81258,90.310852,1322.9878,1800.5078)"
       spreadMethod="pad"
       id="linearGradient268">
      <stop
         style="stop-opacity:1;stop-color:#e99413"
         offset="0"
         id="stop264" />
      <stop
         style="stop-opacity:1;stop-color:#d71618"
         offset="1"
         id="stop266" />
    </linearGradient>
    <clipPath
       clipPathUnits="userSpaceOnUse"
       id="clipPath278">
      <path
         d="M 0,3551.289 H 2370.727 V 0 H 0 Z"
         id="path276" />
    </clipPath>
    <clipPath
       clipPathUnits="userSpaceOnUse"
       id="clipPath462">
      <path
         d="m 1330.904,2567.038 47.347,-51.355 262.811,21.924 c 127.514,10.322 175.356,30.448 175.356,30.448 v 0 c 34.543,15.941 68.81,85.385 68.81,85.385 v 0 z"
         id="path460" />
    </clipPath>
    <linearGradient
       x1="0"
       y1="0"
       x2="1"
       y2="0"
       gradientUnits="userSpaceOnUse"
       gradientTransform="matrix(-111.21065,-176.17572,-176.17572,111.21066,1635.6841,2652.5317)"
       spreadMethod="pad"
       id="linearGradient474">
      <stop
         style="stop-opacity:1;stop-color:#ffffff"
         offset="0"
         id="stop468" />
      <stop
         style="stop-opacity:1;stop-color:#ededed"
         offset="0.41503764"
         id="stop470" />
      <stop
         style="stop-opacity:1;stop-color:#ededed"
         offset="1"
         id="stop472" />
    </linearGradient>
    <clipPath
       clipPathUnits="userSpaceOnUse"
       id="clipPath484">
      <path
         d="M 0,3551.289 H 2370.727 V 0 H 0 Z"
         id="path482" />
    </clipPath>
    <clipPath
       clipPathUnits="userSpaceOnUse"
       id="clipPath504">
      <path
         d="m 1292.13,2640.35 h 100.26 v -40.24 h -100.26 z"
         id="path502" />
    </clipPath>
    <clipPath
       clipPathUnits="userSpaceOnUse"
       id="clipPath528">
      <path
         d="m 1292.128,2600.901 66.001,-51.999 308,75.999 c 149.501,36.501 202.501,69.5 202.501,69.5 v 0 c 38,25.501 65.501,114.5 65.501,114.5 v 0 z"
         id="path526" />
    </clipPath>
    <linearGradient
       x1="0"
       y1="0"
       x2="1"
       y2="0"
       gradientUnits="userSpaceOnUse"
       gradientTransform="matrix(-151.49252,-239.98874,-239.98874,151.49252,1659.4907,2766.4478)"
       spreadMethod="pad"
       id="linearGradient540">
      <stop
         style="stop-opacity:1;stop-color:#ffffff"
         offset="0"
         id="stop534" />
      <stop
         style="stop-opacity:1;stop-color:#ededed"
         offset="0.41503764"
         id="stop536" />
      <stop
         style="stop-opacity:1;stop-color:#ededed"
         offset="1"
         id="stop538" />
    </linearGradient>
    <clipPath
       clipPathUnits="userSpaceOnUse"
       id="clipPath550">
      <path
         d="M 0,3551.289 H 2370.727 V 0 H 0 Z"
         id="path548" />
    </clipPath>
    <clipPath
       clipPathUnits="userSpaceOnUse"
       id="clipPath578">
      <path
         d="m 570.049,2583.871 c 0,0 28.277,-19.044 107.582,-36.466 v 0 L 841.019,2510.999 875.482,2547 534.51,2654.693 c 0,0 15.252,-55.987 35.539,-70.822"
         id="path576" />
    </clipPath>
    <linearGradient
       x1="0"
       y1="0"
       x2="1"
       y2="0"
       gradientUnits="userSpaceOnUse"
       gradientTransform="matrix(60.704025,-127.12115,127.12115,60.704025,689.55029,2628.3418)"
       spreadMethod="pad"
       id="linearGradient590">
      <stop
         style="stop-opacity:1;stop-color:#ffffff"
         offset="0"
         id="stop584" />
      <stop
         style="stop-opacity:1;stop-color:#ededed"
         offset="0.41503764"
         id="stop586" />
      <stop
         style="stop-opacity:1;stop-color:#ededed"
         offset="1"
         id="stop588" />
    </linearGradient>
    <clipPath
       clipPathUnits="userSpaceOnUse"
       id="clipPath600">
      <path
         d="M 0,3551.289 H 2370.727 V 0 H 0 Z"
         id="path598" />
    </clipPath>
    <clipPath
       clipPathUnits="userSpaceOnUse"
       id="clipPath628">
      <path
         d="m 548.678,2684.981 c 0,0 30.351,-29.335 121.113,-68.536 v 0 l 186.91,-81.379 46.259,35.111 -385.092,207.784 c 0,0 9.214,-70.533 30.81,-92.98"
         id="path626" />
    </clipPath>
    <linearGradient
       x1="0"
       y1="0"
       x2="1"
       y2="0"
       gradientUnits="userSpaceOnUse"
       gradientTransform="matrix(84.694992,-177.36096,177.36096,84.694992,682.05615,2716.3047)"
       spreadMethod="pad"
       id="linearGradient640">
      <stop
         style="stop-opacity:1;stop-color:#ffffff"
         offset="0"
         id="stop634" />
      <stop
         style="stop-opacity:1;stop-color:#ededed"
         offset="0.41503764"
         id="stop636" />
      <stop
         style="stop-opacity:1;stop-color:#ededed"
         offset="1"
         id="stop638" />
    </linearGradient>
  </defs>
  <g
     id="g2924"
     transform="matrix(0.4439212,0,0,-0.4439212,39.716539,1548.1358)">
    <g
       id="g192">
      <g
         id="g194"
         clip-path="url(#clipPath198)">
        <g
           id="g200"
           transform="translate(1096.228,2571.1411)" />
      </g>
    </g>
    <g
       id="g252">
      <g
         id="g254"
         clip-path="url(#clipPath258)">
        <g
           id="g260">
          <g
             id="g262" />
        </g>
      </g>
    </g>
    <g
       id="g272"
       style="display:inline">
      <g
         id="g274"
         clip-path="url(#clipPath278)">
        <g
           id="g280"
           transform="translate(1229.5024,2098.7568)" />
        <g
           id="g284"
           transform="translate(1466.1167,2165.4111)" />
        <g
           id="g288"
           transform="translate(1460.5522,2183.9702)" />
        <g
           id="g292"
           transform="translate(1434.7397,2167.7324)" />
        <g
           id="g300"
           transform="translate(1460.396,2187.1074)" />
        <g
           id="g304"
           transform="translate(1404.9575,2161.7925)" />
        <g
           id="g308"
           transform="translate(1181.439,2687.6719)" />
        <g
           id="g312"
           transform="translate(1208.521,2852.3223)" />
        <g
           id="g316"
           transform="translate(1223.1147,2779.6416)" />
        <g
           id="g320"
           transform="translate(1208.6431,2848.3643)" />
        <g
           id="g324"
           transform="translate(994.1147,2729.6416)" />
        <g
           id="g328"
           transform="translate(979.6431,2801.3643)" />
        <g
           id="g332"
           transform="translate(1486.5952,2270.8091)" />
        <g
           id="g336"
           transform="translate(1460.561,2366.2515)" />
        <g
           id="g340"
           transform="translate(1313.8237,2568.4473)">
          <path
             d="m 0,0 178.973,-306.212 c 0,0 -39.909,2.533 -57.782,19.086 0,0 -25.576,23.349 -62.839,96.316 l -77.186,150.234 z"
             style="fill:#f7f9f9;fill-opacity:1;fill-rule:nonzero;stroke:none"
             id="path342" />
        </g>
        <g
           id="g344"
           transform="translate(1312.5005,2596.4751)">
          <path
             d="m 0,0 -10.469,-22.555 -18.834,-40.576 -2.675,-5.763 2.904,-5.651 77.185,-150.233 c 37.456,-73.343 63.917,-98.389 65.591,-99.932 20.677,-19.126 61.215,-22.215 65.771,-22.504 l 24.368,-1.547 -12.321,21.08 L 12.547,-21.468 Z M 1.323,-28.028 180.296,-334.24 c 0,0 -39.908,2.533 -57.781,19.086 0,0 -25.577,23.349 -62.84,96.317 l -77.186,150.233 18.834,40.576"
             style="fill:#000000;fill-opacity:1;fill-rule:nonzero;stroke:none"
             id="path346" />
        </g>
        <g
           id="g348"
           transform="translate(1309.6909,2518.8652)">
          <path
             d="m 0,0 280.438,-215.297 c 0,0 -39.684,-12.862 -61.985,-4.046 0,0 -30.08,11.661 -91.732,65.271 L -0.629,-43.863 Z"
             style="fill:#f7f9f9;fill-opacity:1;fill-rule:nonzero;stroke:none"
             id="path350" />
        </g>
        <g
           id="g352"
           transform="translate(1297.064,2544.9492)">
          <path
             d="m 0,0 -0.372,-25.897 -0.629,-43.864 -0.087,-6.054 4.579,-3.962 127.35,-110.209 c 61.847,-53.779 93.437,-66.733 95.477,-67.537 6.709,-2.648 14.881,-3.992 24.288,-3.992 22.246,0 45.488,7.45 46.466,7.767 l 23.52,7.622 -19.612,15.056 -280.437,215.298 z m 12.627,-26.084 280.437,-215.297 c 0,0 -22.01,-7.134 -42.458,-7.134 -7.009,0 -13.833,0.838 -19.526,3.088 0,0 -30.08,11.661 -91.732,65.271 l -127.35,110.209 0.629,43.863"
             style="fill:#000000;fill-opacity:1;fill-rule:nonzero;stroke:none"
             id="path354" />
        </g>
        <g
           id="g356"
           transform="translate(1293.6694,2505.2808)">
          <path
             d="m 0,0 393.793,-138.379 c 0,0 -37.721,-22.864 -65.32,-21.003 0,0 -38.582,1.566 -127.34,37.898 l -183.11,74.487 z"
             style="fill:#f7f9f9;fill-opacity:1;fill-rule:nonzero;stroke:none"
             id="path358" />
        </g>
        <g
           id="g360"
           transform="translate(1271.4702,2526.8608)">
          <path
             d="m 0,0 10.062,-26.235 18.023,-46.997 2.018,-5.264 5.221,-2.124 183.11,-74.486 c 87.363,-35.761 127.81,-38.642 131.488,-38.834 1.31,-0.086 2.667,-0.129 4.032,-0.129 30.492,0 67.228,22.054 68.776,22.993 l 23.528,14.261 -25.956,9.12 -393.793,138.38 z m 22.199,-21.58 393.793,-138.379 c 0,0 -34.828,-21.11 -62.038,-21.11 -1.108,0 -2.202,0.034 -3.282,0.107 0,0 -38.582,1.566 -127.34,37.898 L 40.223,-68.577 22.199,-21.58"
             style="fill:#000000;fill-opacity:1;fill-rule:nonzero;stroke:none"
             id="path362" />
        </g>
        <g
           id="g364"
           transform="translate(1355.2495,2502.6519)">
          <path
             d="m 0,0 412.621,-41.895 c 0,0 -28.892,-35.36 -56.408,-40.249 0,0 -37.842,-5.448 -132.774,9.328 L 27.691,-42.808 Z"
             style="fill:#f7f9f9;fill-opacity:1;fill-rule:nonzero;stroke:none"
             id="path366" />
        </g>
        <g
           id="g368"
           transform="translate(1329.6313,2518.3203)">
          <path
             d="m 0,0 14.703,-22.729 27.692,-42.808 3.171,-4.904 5.774,-0.884 195.748,-30.009 c 55.534,-8.644 92.007,-10.459 112.818,-10.459 15.587,0 22.986,1 23.778,1.114 l 0.211,0.03 0.21,0.037 c 13.805,2.454 28.902,10.874 44.872,25.029 11.315,10.029 19.007,19.4 19.329,19.794 L 463.6,-47.071 439.553,-44.63 26.932,-2.735 Z m 25.618,-15.668 412.621,-41.895 c 0,0 -28.892,-35.361 -56.408,-40.249 0,0 -6.818,-0.981 -21.925,-0.981 -20.484,0 -56.21,1.804 -110.848,10.308 L 53.31,-58.477 25.618,-15.668"
             style="fill:#000000;fill-opacity:1;fill-rule:nonzero;stroke:none"
             id="path370" />
        </g>
        <g
           id="g372"
           transform="translate(1311.6636,2387.6196)">
          <path
             d="m 0,0 c 0.123,-3.031 111.199,-28.622 128.551,-25.451 5.519,-0.174 41.095,31.146 63.908,54.895 C 192.459,29.444 -0.123,3.03 0,0"
             style="fill:#f7f9f9;fill-opacity:1;fill-rule:nonzero;stroke:none"
             id="path374" />
        </g>
        <g
           id="g376"
           transform="translate(1539.4009,2435.0244)">
          <path
             d="m 0,0 -37.045,-5.082 c -0.481,-0.065 -48.746,-6.689 -96.375,-13.599 -28.011,-4.064 -50.339,-7.431 -66.363,-10.01 -9.606,-1.546 -17.069,-2.829 -22.179,-3.813 -2.976,-0.574 -5.221,-1.058 -6.863,-1.478 -1.227,-0.314 -2.193,-0.613 -3.04,-0.939 -6.824,-2.626 -9.038,-8.65 -8.862,-13.011 0.102,-2.513 1.171,-8.723 8.873,-12.124 1.15,-0.509 2.552,-1.028 4.411,-1.634 2.957,-0.963 7.083,-2.144 12.262,-3.509 10.142,-2.673 23.386,-5.812 37.293,-8.84 16.693,-3.634 57.393,-12.089 74.765,-12.089 1.931,0 3.617,0.1 5.119,0.301 4.992,0.288 11.291,2.973 32.906,21.715 13.17,11.42 27.823,25.307 39.195,37.145 z m -35.278,-17.96 c -22.75,-23.684 -58.194,-54.897 -63.862,-54.897 -0.015,0 -0.031,0.001 -0.047,0.001 -1.009,-0.185 -2.333,-0.272 -3.936,-0.272 -25.959,0 -124.498,22.869 -124.614,25.723 -0.123,3.03 192.459,29.445 192.459,29.445"
             style="fill:#000000;fill-opacity:1;fill-rule:nonzero;stroke:none"
             id="path378" />
        </g>
        <g
           id="g380"
           transform="translate(1323.9624,2451.7808)">
          <path
             d="m 0,0 c 0.135,-5.374 164.389,-51.25 191.783,-45.276 8.692,-0.197 75.549,58.787 111.959,101.38 C 303.742,56.104 -0.133,5.373 0,0"
             style="fill:#f7f9f9;fill-opacity:1;fill-rule:nonzero;stroke:none"
             id="path382" />
        </g>
        <g
           id="g384"
           transform="translate(1660.7964,2526.5889)">
          <path
             d="m 0,0 -35.232,-5.881 c -0.76,-0.128 -76.894,-12.845 -152.032,-26.056 -44.172,-7.767 -79.377,-14.185 -104.637,-19.075 -15.1,-2.924 -26.816,-5.336 -34.824,-7.172 -4.571,-1.047 -7.993,-1.918 -10.462,-2.659 -1.682,-0.507 -2.974,-0.967 -4.063,-1.45 -8.166,-3.626 -8.632,-10.741 -8.58,-12.837 0.092,-3.671 1.646,-8.813 8.529,-12.491 1.52,-0.811 3.496,-1.694 6.043,-2.698 4.278,-1.687 10.272,-3.761 17.816,-6.163 14.965,-4.767 34.46,-10.342 54.889,-15.7 24.582,-6.444 84.612,-21.437 111.04,-21.437 3.112,0 5.77,0.2 8.084,0.608 4.588,0.438 10.125,3.028 22.446,12.469 8.331,6.384 18.812,15.21 30.309,25.524 25.384,22.774 50.604,48.144 67.464,67.867 z m -33.092,-18.704 c -36.349,-42.524 -103.047,-101.38 -111.915,-101.38 -0.014,0 -0.029,0 -0.044,0 -1.67,-0.364 -3.842,-0.535 -6.462,-0.535 -40.345,0 -185.194,40.765 -185.321,45.811 -0.133,5.372 303.742,56.104 303.742,56.104"
             style="fill:#000000;fill-opacity:1;fill-rule:nonzero;stroke:none"
             id="path386" />
        </g>
        <g
           id="g388"
           transform="translate(1410.3335,2504.8174)">
          <path
             d="m 0,0 c 0.096,-5.763 164.135,-53.788 191.594,-47.178 8.695,-0.149 76.031,63.617 112.777,109.58 C 304.371,62.402 -0.094,5.765 0,0"
             style="fill:#f7f9f9;fill-opacity:1;fill-rule:nonzero;stroke:none"
             id="path390" />
        </g>
        <g
           id="g392"
           transform="translate(1746.6753,2586.3892)">
          <path
             d="m 0,0 -34.348,-6.389 c -0.761,-0.142 -77.046,-14.34 -152.338,-29.062 -44.264,-8.654 -79.545,-15.797 -104.864,-21.228 -15.139,-3.248 -26.889,-5.923 -34.924,-7.952 -4.594,-1.161 -8.038,-2.122 -10.525,-2.941 -1.705,-0.56 -3.015,-1.069 -4.12,-1.601 -7.758,-3.738 -8.254,-10.597 -8.221,-12.61 0.157,-9.5 8.995,-13.186 14.277,-15.389 4.258,-1.777 10.224,-3.953 17.73,-6.47 14.858,-4.982 34.242,-10.802 54.581,-16.389 24.454,-6.717 84.233,-22.343 111.114,-22.343 3.343,0 6.192,0.233 8.661,0.709 4.751,0.493 10.254,3.291 22.703,13.546 8.371,6.898 18.915,16.434 30.49,27.577 25.557,24.604 50.966,51.988 67.968,73.253 z m -31.971,-19.17 c -36.703,-45.909 -103.925,-109.58 -112.747,-109.58 h -0.03 c -1.762,-0.424 -4.083,-0.624 -6.89,-0.624 -40.938,0 -184.614,42.409 -184.704,47.802 -0.094,5.765 304.371,62.402 304.371,62.402"
             style="fill:#000000;fill-opacity:1;fill-rule:nonzero;stroke:none"
             id="path394" />
        </g>
        <g
           id="g396"
           transform="translate(829.3491,2522.498)">
          <path
             d="m 0,0 -124.568,-132.557 c 0,0 20.24,-3.308 31.072,2.919 0,0 15.463,8.74 42.455,40.944 l 55.805,66.252 z"
             style="fill:#f7f9f9;fill-opacity:1;fill-rule:nonzero;stroke:none"
             id="path398" />
        </g>
        <g
           id="g400"
           transform="translate(836.9028,2549.52)">
          <path
             d="m 0,0 -17.027,-18.119 -124.569,-132.557 -16.72,-17.793 24.097,-3.939 c 0.656,-0.108 6.632,-1.048 14.16,-1.048 10.514,0 19.076,1.852 25.451,5.504 2.006,1.143 18.487,11.087 45.976,43.886 l 55.784,66.227 4.094,4.859 -1.319,6.215 -4.764,22.442 z m -7.554,-27.022 4.764,-22.442 -55.805,-66.252 c -26.992,-32.204 -42.455,-40.944 -42.455,-40.944 -5.251,-3.019 -12.714,-3.796 -19.009,-3.796 -6.691,0 -12.063,0.877 -12.063,0.877 L -7.554,-27.022"
             style="fill:#000000;fill-opacity:1;fill-rule:nonzero;stroke:none"
             id="path402" />
        </g>
        <g
           id="g404"
           transform="translate(825.7319,2497.2393)">
          <path
             d="m 0,0 -164.869,-75.478 c 0,0 18.363,-10.979 30.523,-9.128 0,0 16.373,2.38 53.338,22.113 L -4.715,-22 Z"
             style="fill:#f7f9f9;fill-opacity:1;fill-rule:nonzero;stroke:none"
             id="path406" />
        </g>
        <g
           id="g408"
           transform="translate(843.8706,2519.8408)">
          <path
             d="m 0,0 -23.55,-10.781 -164.869,-75.478 -22.48,-10.292 21.22,-12.687 c 1.914,-1.145 19.137,-11.18 34.258,-11.18 1.683,0 3.328,0.121 4.888,0.358 2.281,0.343 20.114,3.536 57.508,23.496 l 76.266,40.48 5.348,2.838 1.268,5.921 4.715,22 z m -18.139,-22.602 -4.715,-22 -76.292,-40.493 c -36.965,-19.732 -53.338,-22.113 -53.338,-22.113 -0.946,-0.144 -1.928,-0.21 -2.937,-0.21 -11.967,0 -27.587,9.338 -27.587,9.338 l 164.869,75.478"
             style="fill:#000000;fill-opacity:1;fill-rule:nonzero;stroke:none"
             id="path410" />
        </g>
        <g
           id="g412"
           transform="translate(832.1831,2488.6123)">
          <path
             d="m 0,0 -212.718,-24.033 c 0,0 16.235,-15.755 30.247,-17.987 0,0 19.467,-3.64 68,4.346 l 100.075,16.246 z"
             style="fill:#f7f9f9;fill-opacity:1;fill-rule:nonzero;stroke:none"
             id="path414" />
        </g>
        <g
           id="g416"
           transform="translate(858.6431,2504.6841)">
          <path
             d="m 0,0 -27.919,-3.155 -212.718,-24.033 -27.338,-3.089 19.744,-19.159 c 1.959,-1.9 19.606,-18.616 37.128,-21.474 1.37,-0.238 6.569,-1.01 16.494,-1.01 10.629,0 28.935,0.927 55.789,5.348 l 100.047,16.24 5.564,0.903 3.144,4.679 14.396,21.427 z M -26.46,-16.072 -40.856,-37.5 -140.931,-53.746 c -25.389,-4.178 -42.823,-5.174 -53.678,-5.174 -9.894,0 -14.322,0.828 -14.322,0.828 -14.012,2.233 -30.247,17.987 -30.247,17.987 l 212.718,24.033"
             style="fill:#000000;fill-opacity:1;fill-rule:nonzero;stroke:none"
             id="path418" />
        </g>
        <g
           id="g420"
           transform="translate(801.0972,2494.3564)">
          <path
             d="m 0,0 -211.069,26.356 c 0,0 10.39,-20.988 23.586,-26.586 0,0 18.291,-7.061 67.44,-10.557 l 101.295,-7.439 z"
             style="fill:#f7f9f9;fill-opacity:1;fill-rule:nonzero;stroke:none"
             id="path422" />
        </g>
        <g
           id="g424"
           transform="translate(567.6528,2536.6084)">
          <path
             d="m 0,0 10.725,-21.663 c 0.313,-0.633 3.197,-6.375 7.916,-12.981 7.048,-9.871 14.532,-16.535 22.242,-19.805 l 0.197,-0.083 0.199,-0.078 c 2.058,-0.794 21.542,-7.864 71.2,-11.396 l 101.265,-7.436 5.825,-0.428 4.189,4.072 18.748,18.225 19.408,18.867 -26.859,3.354 -211.069,26.356 z m 22.375,-15.896 211.069,-26.356 -18.748,-18.226 -101.295,7.439 c -49.149,3.496 -67.44,10.557 -67.44,10.557 -13.195,5.598 -23.586,26.586 -23.586,26.586"
             style="fill:#000000;fill-opacity:1;fill-rule:nonzero;stroke:none"
             id="path426" />
        </g>
        <g
           id="g428"
           transform="translate(809.7007,2431.8564)">
          <path
             d="M 0,0 C -0.408,-1.5 -58.869,-1.561 -67.18,2.013 -69.957,2.56 -84.152,22.294 -92.834,36.781 -92.834,36.781 0.408,1.5 0,0"
             style="fill:#f7f9f9;fill-opacity:1;fill-rule:nonzero;stroke:none"
             id="path430" />
        </g>
        <g
           id="g432"
           transform="translate(686.4937,2494.0288)">
          <path
             d="m 0,0 19.222,-32.075 c 4.435,-7.399 10.303,-16.223 15.698,-23.601 8.185,-11.196 12.243,-15.32 16.972,-16.825 3.018,-1.108 8.215,-2.196 21.539,-2.935 8.095,-0.448 18.445,-0.706 28.396,-0.706 6.033,0 11.578,0.098 15.615,0.273 2.278,0.099 4.051,0.219 5.423,0.369 1.075,0.117 1.948,0.257 2.746,0.438 5.048,1.15 8.839,4.693 10.14,9.478 1.498,5.502 -0.666,11.168 -5.513,14.433 -0.594,0.4 -1.245,0.779 -2.046,1.192 -0.899,0.465 -2.046,1.001 -3.607,1.691 -2.536,1.12 -6.078,2.6 -10.829,4.525 -7.745,3.137 -18.551,7.393 -32.118,12.646 -23.04,8.923 -46.431,17.776 -46.664,17.864 z m 30.373,-25.392 c 0,0 93.242,-35.28 92.834,-36.78 -0.163,-0.6 -9.589,-0.97 -21.38,-0.97 -17.729,0 -40.808,0.836 -45.8,2.983 -2.777,0.546 -16.972,20.281 -25.654,34.767"
             style="fill:#000000;fill-opacity:1;fill-rule:nonzero;stroke:none"
             id="path434" />
        </g>
        <g
           id="g436"
           transform="translate(810.9077,2465.3398)">
          <path
             d="m 0,0 c -0.686,-2.67 -88.053,-6.775 -101.063,-0.648 -4.367,0.897 -31.025,38.047 -44.345,63.514 C -145.408,62.866 0.684,2.671 0,0"
             style="fill:#f7f9f9;fill-opacity:1;fill-rule:nonzero;stroke:none"
             id="path438" />
        </g>
        <g
           id="g440"
           transform="translate(637.4233,2553.834)">
          <path
             d="m 0,0 16.557,-31.654 c 6.301,-12.048 16.18,-27.912 26.426,-42.437 4.665,-6.615 8.999,-12.365 12.532,-16.626 4.673,-5.637 8.064,-9.037 12.174,-10.556 3.32,-1.457 11.53,-4.061 43.366,-4.061 13.461,0 29.383,0.496 42.594,1.328 6.281,0.395 11.631,0.848 15.474,1.309 2.276,0.274 4.065,0.553 5.469,0.857 8.185,1.763 10.709,7.093 11.484,10.112 0.761,2.974 1.53,10.436 -7.681,15.679 -1.273,0.723 -3.006,1.615 -5.299,2.724 -3.858,1.867 -9.503,4.447 -16.783,7.668 -12.099,5.356 -28.997,12.615 -50.22,21.573 -36.072,15.23 -72.698,30.325 -73.064,30.475 z m 28.076,-25.628 c 0,0 146.092,-60.195 145.408,-62.866 -0.422,-1.647 -33.838,-3.84 -62.429,-3.84 -17.756,0 -33.649,0.844 -38.633,3.192 -4.367,0.897 -31.026,38.047 -44.346,63.514"
             style="fill:#000000;fill-opacity:1;fill-rule:nonzero;stroke:none"
             id="path442" />
        </g>
        <g
           id="g444"
           transform="translate(772.8101,2501.7539)">
          <path
             d="m 0,0 c -0.709,-2.87 -88.215,-8.073 -101.184,-1.621 -4.365,0.922 -30.715,40.517 -43.815,67.705 C -144.999,66.084 0.707,2.87 0,0"
             style="fill:#f7f9f9;fill-opacity:1;fill-rule:nonzero;stroke:none"
             id="path446" />
        </g>
        <g
           id="g448"
           transform="translate(600.9351,2593.6685)">
          <path
             d="m 0,0 15.165,-31.474 c 6.182,-12.829 15.906,-29.716 26.014,-45.174 4.602,-7.038 8.88,-13.151 12.371,-17.68 4.682,-6.075 8.099,-9.718 12.368,-11.32 4.685,-2.04 13.577,-3.978 38.937,-3.978 13.807,0 30.755,0.632 45.336,1.69 6.807,0.495 12.64,1.053 16.869,1.611 2.47,0.327 4.408,0.655 5.922,1.002 7.861,1.805 10.6,6.592 11.513,10.289 0.71,2.884 1.404,10.141 -7.414,15.463 -1.278,0.772 -3.017,1.718 -5.313,2.894 -3.852,1.969 -9.488,4.688 -16.752,8.078 -12.069,5.635 -28.922,13.265 -50.092,22.681 -35.976,16.001 -72.509,31.854 -72.874,32.013 z m 26.876,-25.831 c 0,0 145.706,-63.213 144.999,-66.084 -0.46,-1.864 -37.534,-4.711 -67.02,-4.711 -15.917,0 -29.617,0.829 -34.164,3.09 -4.365,0.922 -30.715,40.517 -43.815,67.705"
             style="fill:#000000;fill-opacity:1;fill-rule:nonzero;stroke:none"
             id="path450" />
        </g>
        <g
           id="g452"
           transform="translate(1907.9653,2670.1416)">
          <path
             d="m 0,0 -24.739,-3.855 -554.324,-86.404 -24.065,-3.75 16.509,-17.906 47.348,-51.356 4.306,-4.671 6.332,0.528 262.811,21.924 c 128.083,10.368 177.284,30.567 179.315,31.422 l 0.204,0.086 0.202,0.093 c 16.54,7.631 34.282,25.555 52.733,53.269 13.198,19.824 21.924,37.427 22.289,38.166 z m -22.737,-16.701 c 0,0 -34.268,-69.445 -68.811,-85.385 0,0 -47.842,-20.127 -175.355,-30.449 l -262.811,-21.923 -47.348,51.354 554.325,86.403"
             style="fill:#000000;fill-opacity:1;fill-rule:nonzero;stroke:none"
             id="path454" />
        </g>
      </g>
    </g>
    <g
       id="g456"
       style="display:inline">
      <g
         id="g458"
         clip-path="url(#clipPath462)">
        <g
           id="g464">
          <g
             id="g466">
            <path
               d="m 1330.904,2567.038 47.347,-51.355 262.811,21.924 c 127.514,10.322 175.356,30.448 175.356,30.448 v 0 c 34.543,15.941 68.81,85.385 68.81,85.385 v 0 z"
               style="fill:url(#linearGradient474);stroke:none"
               id="path476" />
          </g>
        </g>
      </g>
    </g>
    <g
       id="g478"
       style="display:inline">
      <g
         id="g480"
         clip-path="url(#clipPath484)">
        <g
           id="g486"
           transform="translate(1845.6304,2647.2349)">
          <path
             d="m 0,0 c -11.357,-16.511 -48.371,-73.643 -77.633,-87.145 0,0 -4.713,-3.733 -16.887,-8.583 46.204,8.518 65.307,16.549 65.307,16.549 34.543,15.94 68.811,85.385 68.811,85.385 z"
             style="fill:#b5b5b5;fill-opacity:1;fill-rule:nonzero;stroke:none"
             id="path488" />
        </g>
        <g
           id="g490"
           transform="translate(1740.4624,2599.5679)">
          <path
             d="M 0,0 C 22.453,6.384 74.697,16.633 105.652,34.475 112.578,39.31 102.725,23.047 93.104,17.421 83.48,11.795 -2.84,-3.772 0,0"
             style="fill:#6e6a6d;fill-opacity:1;fill-rule:nonzero;stroke:none"
             id="path492" />
        </g>
        <g
           id="g494"
           transform="translate(1751.1284,2576.2349)">
          <path
             d="M 0,0 C 32.189,2.986 50.881,13.12 66.064,16.777 85.502,21.458 58.668,5 58.668,5 58.668,5 -1.117,-3.469 0,0"
             style="fill:#6e6a6d;fill-opacity:1;fill-rule:nonzero;stroke:none"
             id="path496" />
        </g>
        <g
           id="g498">
          <g
             id="g500" />
          <g
             id="g512">
            <g
               clip-path="url(#clipPath504)"
               opacity="0.399994"
               id="g510">
              <g
                 transform="translate(1292.1284,2600.9014)"
                 id="g508">
                <path
                   d="m 0,0 0.859,-0.793 99.403,40.246 z"
                   style="fill:#e2e1e0;fill-opacity:1;fill-rule:nonzero;stroke:none"
                   id="path506" />
              </g>
            </g>
          </g>
        </g>
        <g
           id="g514"
           transform="translate(1372.1167,2539.562)">
          <path
             d="m 0,0 c -2.52,0 -4.687,1.898 -4.965,4.46 -0.298,2.746 1.686,5.213 4.431,5.512 L 310.972,43.81 c 2.755,0.301 5.212,-1.686 5.51,-4.431 0.298,-2.744 -1.685,-5.212 -4.43,-5.51 L 0.546,0.03 C 0.362,0.009 0.18,0 0,0"
             style="fill:#c9caca;fill-opacity:1;fill-rule:nonzero;stroke:none"
             id="path516" />
        </g>
        <g
           id="g518"
           transform="translate(1953.9429,2828.9854)">
          <path
             d="m 0,0 -23.819,-7.717 -642.002,-208 -23.169,-7.506 19.131,-15.072 66,-52 4.99,-3.932 6.169,1.522 308,76 c 149.77,36.565 204.022,69.693 206.259,71.086 l 0.188,0.118 0.185,0.123 c 17.784,11.934 35.138,36.227 51.58,72.203 11.838,25.904 18.805,48.313 19.096,49.254 z m -19.813,-20.084 c 0,0 -27.5,-89 -65.5,-114.5 0,0 -53,-33 -202.501,-69.5 l -308,-76 -66,52 642.001,208"
             style="fill:#000000;fill-opacity:1;fill-rule:nonzero;stroke:none"
             id="path520" />
        </g>
      </g>
    </g>
    <g
       id="g522"
       style="display:inline">
      <g
         id="g524"
         clip-path="url(#clipPath528)">
        <g
           id="g530">
          <g
             id="g532">
            <path
               d="m 1292.128,2600.901 66.001,-51.999 308,75.999 c 149.501,36.501 202.501,69.5 202.501,69.5 v 0 c 38,25.501 65.501,114.5 65.501,114.5 v 0 z"
               style="fill:url(#linearGradient540);stroke:none"
               id="path542" />
          </g>
        </g>
      </g>
    </g>
    <g
       id="g544"
       style="display:inline">
      <g
         id="g546"
         clip-path="url(#clipPath550)"
         style="display:inline">
        <g
           id="g552"
           transform="translate(1889.7964,2794.5674)"
           style="display:inline">
          <path
             d="m 0,0 c -10.352,-21.769 -44.977,-97.23 -77.166,-118.832 0,0 -4.889,-5.33 -18.428,-13.405 53.264,18.9 74.428,32.071 74.428,32.071 38,25.5 65.5,114.5 65.5,114.5 z"
             style="fill:#b5b5b5;fill-opacity:1;fill-rule:nonzero;stroke:none"
             id="path554" />
        </g>
        <g
           id="g556"
           transform="translate(1750.146,2711.9961)">
          <path
             d="M 0,0 C 33.793,13.333 102.58,35.24 147.244,66.145 157.055,74.228 145.102,49.732 131.236,40.014 117.369,30.295 -3.643,-5.794 0,0"
             style="fill:#6e6a6d;fill-opacity:1;fill-rule:nonzero;stroke:none"
             id="path558" />
        </g>
        <g
           id="g560"
           transform="translate(1773.4624,2691.2344)">
          <path
             d="m 0,0 c 37.666,9.667 81.369,29.338 98.668,36.667 19.666,8.333 -7.334,-17 -7.334,-17 0,0 -92.002,-24 -91.334,-19.667"
             style="fill:#6e6a6d;fill-opacity:1;fill-rule:nonzero;stroke:none"
             id="path562" />
        </g>
        <g
           id="g564"
           transform="translate(1378.4409,2578.5166)">
          <path
             d="m 0,0 c -2.134,0 -4.11,1.377 -4.774,3.522 -0.817,2.639 0.659,5.439 3.297,6.256 l 330.686,102.384 c 2.636,0.816 5.438,-0.66 6.255,-3.298 0.816,-2.637 -0.659,-5.438 -3.298,-6.255 L 1.48,0.225 C 0.988,0.072 0.49,0 0,0"
             style="fill:#c9caca;fill-opacity:1;fill-rule:nonzero;stroke:none"
             id="path566" />
        </g>
        <g
           id="g568"
           transform="translate(515.7046,2674.2651)">
          <path
             d="m 0,0 6.263,-22.989 c 0.163,-0.601 4.085,-14.907 10.636,-31.265 9.477,-23.662 19.216,-38.915 29.772,-46.634 l 0.204,-0.149 0.208,-0.14 c 1.238,-0.834 31.26,-20.632 112.054,-38.38 l 163.35,-36.398 7.152,-1.594 5.066,5.293 34.463,36.002 14.448,15.093 -19.924,6.292 L 22.721,-7.176 Z m 18.806,-19.572 340.971,-107.693 -34.463,-36.001 -163.388,36.406 C 82.622,-109.438 54.345,-90.394 54.345,-90.394 34.058,-75.56 18.806,-19.572 18.806,-19.572"
             style="fill:#000000;fill-opacity:1;fill-rule:nonzero;stroke:none"
             id="path570" />
        </g>
      </g>
    </g>
    <g
       id="g572">
      <g
         id="g574"
         clip-path="url(#clipPath578)">
        <g
           id="g580">
          <g
             id="g582">
            <path
               d="m 570.049,2583.871 c 0,0 28.277,-19.044 107.582,-36.466 v 0 L 841.019,2510.999 875.482,2547 534.51,2654.693 c 0,0 15.252,-55.987 35.539,-70.822"
               style="fill:url(#linearGradient590);stroke:none"
               id="path592" />
          </g>
        </g>
      </g>
    </g>
    <g
       id="g594"
       style="display:inline">
      <g
         id="g596"
         clip-path="url(#clipPath600)">
        <g
           id="g602"
           transform="translate(558.8638,2646.9736)">
          <path
             d="m 0,0 c 5.646,-13.55 23.746,-60.267 40.932,-72.832 0,0 2.625,-3.223 9.845,-7.86 -28.3,9.989 -39.591,17.589 -39.591,17.589 -20.288,14.835 -35.54,70.822 -35.54,70.822 z"
             style="fill:#b5b5b5;fill-opacity:1;fill-rule:nonzero;stroke:none"
             id="path604" />
        </g>
        <g
           id="g606"
           transform="translate(620.7095,2602.4761)">
          <path
             d="m 0,0 c -13.547,6.582 -45.49,18.351 -63.35,34.382 -3.918,4.235 0.805,-9.01 6.346,-14.057 C -51.459,15.281 1.445,-3.115 0,0"
             style="fill:#6e6a6d;fill-opacity:1;fill-rule:nonzero;stroke:none"
             id="path608" />
        </g>
        <g
           id="g610"
           transform="translate(611.8774,2585.3125)">
          <path
             d="m 0,0 c -19.984,4.69 -30.824,13.878 -40.047,17.82 -11.807,5.049 3.584,-9.612 3.584,-9.612 0,0 36.85,-10.96 36.463,-8.208"
             style="fill:#6e6a6d;fill-opacity:1;fill-rule:nonzero;stroke:none"
             id="path612" />
        </g>
        <g
           id="g614"
           transform="translate(866.2632,2533.0527)">
          <path
             d="m 0,0 c -0.219,0 -0.44,0.014 -0.664,0.044 l -197.389,26.22 c -2.738,0.364 -4.662,2.878 -4.298,5.615 0.364,2.738 2.888,4.661 5.615,4.298 L 0.652,9.957 C 3.39,9.593 5.314,7.08 4.95,4.343 4.616,1.828 2.469,0 0,0"
             style="fill:#c9caca;fill-opacity:1;fill-rule:nonzero;stroke:none"
             id="path616" />
        </g>
        <g
           id="g618"
           transform="translate(501.6865,2801.4639)">
          <path
             d="m 0,0 3.291,-25.187 c 0.098,-0.749 2.455,-18.584 7.57,-39.479 7.192,-29.381 16.196,-49.847 26.763,-60.83 l 0.163,-0.171 0.17,-0.164 c 1.309,-1.265 33.112,-31.438 124.993,-71.122 l 186.875,-81.363 6.982,-3.041 6.067,4.604 46.259,35.11 16.084,12.208 -17.77,9.589 -385.093,207.783 z m 16.181,-23.503 385.093,-207.784 -46.26,-35.11 -186.91,81.378 c -90.761,39.201 -121.112,68.536 -121.112,68.536 -21.596,22.447 -30.811,92.98 -30.811,92.98"
             style="fill:#000000;fill-opacity:1;fill-rule:nonzero;stroke:none"
             id="path620" />
        </g>
      </g>
    </g>
    <g
       id="g622"
       style="display:inline">
      <g
         id="g624"
         clip-path="url(#clipPath628)">
        <g
           id="g630">
          <g
             id="g632">
            <path
               d="m 548.678,2684.981 c 0,0 30.351,-29.335 121.113,-68.536 v 0 l 186.91,-81.379 46.259,35.111 -385.092,207.784 c 0,0 9.214,-70.533 30.81,-92.98"
               style="fill:url(#linearGradient640);stroke:none"
               id="path642" />
          </g>
        </g>
      </g>
    </g>
  </g>
  <g
     id="g4235"
     style="display:inline">
    <g
       id="RightArm_1_">
      <path
         id="RightArm--bg"
         d="m 436.6,504 c -4.5,5.1 -10.5,7.9 -17,7.9 -9.1,0 -18.5,-5.5 -24.4,-14.4 -7.8,-11.6 -15.5,-21.2 -22.3,-27.9 l -4.8,-4.7 c -2,-2 -1.1,-5.3 1.6,-6.1 l 6.5,-1.7 c 3.2,-0.9 6.4,-2.7 9.1,-5.5 3,-3 4.8,-6.7 5.2,-10.4 V 430 c 0,-1.3 1.5,-2.1 2.5,-1.3 l 9.3,6.9 c 0.7,0.5 1.7,1.1 2.9,1.7 10.2,4.9 31.7,27.4 35.7,46.7 2.1,10.1 -1.2,16.5 -4.3,20 z" />
      <path
         id="RightArm"
         d="m 402.1,444.1 c -1.5,-0.7 -2.9,-1.5 -4.2,-2.4 -0.5,5.5 -3,11 -7.3,15.3 -3.7,3.7 -8.1,6.2 -12.5,7.4 8.7,8.6 17,19.8 23.2,29.1 4.5,6.7 11.6,11.1 18.3,11.1 4.1,0 8.1,-1.6 11.4,-5.4 13,-14.8 -17.3,-49.6 -28.9,-55.1 z"
         class="st0"
         fill="#ffcc00" />
    </g>
    <g
       id="Tail--group">
      <path
         id="Tail--bg"
         d="m 599.1,649.5 c -9,25.7 -26.4,50 -50.3,70.3 -23.8,20.3 -51.8,34.7 -81,41.6 -6.9,1.6 -14.1,2.5 -21.5,2.5 -30.8,0 -58.9,-13.9 -74.8,-27 -13.6,-11.1 -21.2,-23.3 -20.9,-33.5 0.4,-12 6.7,-20.7 16.8,-23.3 2.1,-0.5 4.3,-0.8 6.7,-0.8 11.2,0 27.2,6.7 38.5,25.7 7.8,13.2 22,20.1 41.1,20.1 h 1.2 c 40.7,-0.8 87.6,-31.2 109.1,-70.8 7.7,-14.1 13.2,-29.6 17.1,-40.8 1.9,-5.4 3.6,-10.1 5.1,-13.5 1.3,-3.1 4.1,-9.4 10.4,-9.4 4.1,0 7.6,1.8 9.9,5 5.5,7.6 3.3,23.3 -7.4,53.9 z" />
      <path
         id="Tail_2_"
         d="M 570.5,657.8 C 547.8,699.5 498,731.7 455,732.5 h -1.4 c -21.6,0 -38.3,-8.4 -47.4,-23.8 -9,-15.1 -22,-22.1 -32.1,-22.1 -1.7,0 -3.3,0.2 -4.8,0.6 -7,1.8 -11,7.6 -11.3,16.4 -0.3,7.7 6.6,18 18.2,27.5 16.8,13.7 43.2,25.3 70.1,25.3 6.6,0 13.3,-0.7 19.8,-2.3 57.2,-13.5 108.5,-57.4 126,-107.1 5.4,-15.3 16.7,-49.2 4.5,-49.2 -4.5,0.1 -10.8,31.8 -26.1,60 z"
         class="st1"
         fill="#ff8800" />
    </g>
    <g
       id="Body--group">
      <path
         id="Body--bg"
         d="m 649.7,531.9 c -2,24 -6.7,45.1 -13.9,62.9 -8.5,20.9 -20.3,36.6 -35.1,46.8 -34,23.4 -64.8,26 -76.4,26 -1.3,0 -2.5,0 -3.8,-0.1 -18.4,-0.8 -26,-4.4 -32.7,-7.5 -5.9,-2.8 -11,-5.2 -24.9,-5.7 -37.5,-1.5 -67,-9.9 -83.1,-23.6 -0.2,-0.1 -0.5,-0.4 -0.9,-0.7 -4.8,-3.5 -19.3,-14.3 -25,-24.7 -5.3,-9.7 -6.2,-22.3 -2.3,-31.4 13.4,-31.2 24.5,-40.5 33.5,-48 3.6,-3 6.4,-5.3 8.8,-8.7 2.2,-3.1 3.8,-7.1 4.9,-12.2 0,-0.1 0,-0.2 0.1,-0.3 3.9,-15 3.4,-34.9 2.8,-56 -0.2,-5.7 -0.3,-11.7 -0.4,-17.5 v -0.1 c 0,-18.6 9.6,-40.7 25.7,-59.2 18.1,-20.8 41.6,-33.6 66.1,-36.2 20.2,-2.1 34.3,-3.1 45.9,-3.1 43.7,0 58.6,14.8 82.2,48.4 7.5,10.6 12.1,22.5 16,33.7 11.1,30.4 15.9,76.5 12.5,117.2 z" />
      <path
         id="Body_1_"
         d="m 358.5,576.7 c -3,7 -2.2,17.4 2,25 5.6,10.3 23,22.2 24.1,23.2 15.1,12.9 43.7,20.5 78.7,21.9 31.2,1.3 24.3,11.8 57.6,13.3 1.1,0 2.2,0.1 3.5,0.1 16.7,0 43.7,-5 72.2,-24.7 58,-39.9 52.9,-165.3 34,-218.6 -3.9,-11.1 -8.3,-22.2 -15.1,-31.9 -23.5,-33.5 -36.6,-45.2 -76.2,-45.2 -12.2,0 -26.9,1.1 -45.1,3.1 -49.9,5.3 -85.3,55.3 -85.3,88.1 0.3,27.4 2.5,55.1 -2.7,75.5 -1.4,6.5 -3.4,11.2 -6,14.9 -9.8,13.5 -23.4,12.4 -41.7,55.3 z"
         class="st0"
         fill="#ffcc00" />
    </g>
    <g
       id="RightHand--group">
      <g
         id="BeforeRightHand--group" />
      <path
         id="RightHand--bg"
         d="m 390.6,457 c -5.2,5.1 -11.7,8.1 -17.8,8.1 -8.1,0 -14,-5.1 -15.6,-13.3 -1,-5.4 0.9,-11.3 5.4,-16.7 5.8,-6.9 14.9,-12 21.7,-12.1 h 0.2 c 1.3,0 2.6,0.2 3.8,0.6 h 0.2 l 0.1,0.1 c 4.5,1.8 7.9,6.2 9.1,11.8 1.4,7.5 -1.2,15.5 -7.1,21.5 z" />
      <path
         id="RightHand"
         d="m 385.4,451.7 c 4.2,-4.2 6,-9.6 5,-14.7 -0.6,-3.1 -2.3,-5.5 -4.6,-6.4 -0.4,-0.1 -0.9,-0.2 -1.3,-0.2 h -0.1 c -4,0 -11.3,3.6 -16.1,9.4 -1.8,2.1 -4.6,6.3 -3.8,10.6 1.1,6 5.1,7.3 8.3,7.3 4.1,0 8.8,-2.2 12.6,-6 z"
         class="st0"
         fill="#ffcc00" />
    </g>
    <g
       id="RightFootGroup">
      <path
         id="RightFoot--bg"
         d="m 384.3,648 c -2.4,3.7 -6.4,5.7 -11.5,5.7 -1.9,0 -4,-0.3 -6.2,-0.8 -25,-6 -59.3,-43.6 -63.6,-64.5 -1.9,-9.4 -0.2,-18 5,-24.4 4.6,-5.7 11.4,-8.8 18.9,-8.8 6.8,0 13.6,2.5 19.8,7.3 12.2,9.4 32.9,50.5 37.3,60.7 2.5,5.8 4.9,17.7 0.3,24.8 z" />
      <path
         id="RightFoot_1_"
         d="m 310.1,586.8 c 3.8,18.2 36.2,53.6 58.1,58.8 1.7,0.4 3.2,0.6 4.5,0.6 3.4,0 4.7,-1.3 5.4,-2.3 2.3,-3.5 1.5,-12.1 -1,-17.9 -6.1,-13.9 -25.3,-50.3 -35.1,-57.8 -4.9,-3.8 -10.2,-5.8 -15.3,-5.8 -5.3,0 -10,2.2 -13.2,6.1 -3.6,4.7 -4.8,11.2 -3.4,18.3 z"
         class="st0"
         fill="#ffcc00" />
    </g>
    <g
       id="RightEar--group">
      <path
         id="RightEar--bg"
         d="m 413.3,399.4 c -0.4,4.4 -3.8,8.4 -11.1,12.9 -4.7,3 -10.2,5.5 -13.9,6.5 -6.5,1.7 -12.3,2.6 -17.3,2.6 -6.7,0 -10.6,-1.6 -12.7,-2.9 -4.8,-3 -4.4,-7.2 -4.2,-8.5 0.5,-3.1 2.9,-5.5 5.9,-6.2 3.5,-0.8 13.5,-5.8 23.6,-12.6 4.2,-2.9 10.7,-4.8 16.1,-4.8 5.8,0 9.1,2.2 10.8,4.1 2.1,2.4 3.1,5.5 2.8,8.9 z" />
      <path
         id="RightEar"
         d="m 361.4,411.3 c 0,0.3 0.4,0.7 0.9,0.9 1.1,0.7 3.6,1.8 8.8,1.8 4.3,0 9.5,-0.8 15.4,-2.3 5.2,-1.4 19.1,-8.8 19.5,-13 0.1,-1.3 -0.2,-2.4 -0.9,-3.2 -1,-1.1 -2.8,-1.7 -5.3,-1.7 -3.9,0 -8.9,1.5 -11.9,3.5 -8.5,5.7 -20.5,12.5 -26.1,13.7 -0.3,0.1 -0.4,0.2 -0.4,0.3 z"
         class="st1"
         fill="#ff8800" />
    </g>
    <g
       id="Head--group">
      <path
         id="Head--bg"
         d="m 516.4,328.1 c 1.6,0 3.2,0 4.8,0.1 20.6,0.6 39.5,6.5 55.9,17 11.2,7.2 17.5,11.4 25.9,25.2 1.5,2.5 9,0.8 7.9,-1.1 -10.1,-17.6 -17.5,-22.3 -29.8,-30.3 -17.7,-11.4 -37.8,-17.6 -59.7,-18.2 -1.6,0 -3.3,-0.1 -5,-0.1 -1.6,0 -3.3,0 -4.9,0.1 -24.3,0.6 -47.8,6.6 -67.8,17.1 -20.2,10.6 -37.1,26.1 -48.9,44.7 -7.7,12.3 -10.3,23.9 -7.4,33.5 2.4,7.8 7.9,12.7 12.3,14.6 1.4,0.6 2.9,0.9 4.7,0.9 9.3,0 34.7,-9.3 45.7,-24.8 8.4,4.5 17.6,6.7 28.1,6.7 12.6,0 25,-3.2 36.4,-6.9 3,-1 3.8,-2.2 3.9,-4.1 0,-1.3 -1.2,-3.6 -3.8,-3.5 -0.3,0 -0.7,0.1 -1,0.2 -11.2,3.6 -23.3,6.9 -35.4,6.9 -9.3,0 -18.6,-2 -27.4,-7.4 -0.6,-0.4 -1.3,-0.5 -1.9,-0.5 -1.3,0 -2.5,0.6 -3.2,1.8 l -0.1,0.1 c -7.9,14.3 -33.3,24.1 -41.2,24.1 -0.7,0 -1.3,-0.1 -1.7,-0.3 -2.8,-1.2 -6.6,-4.6 -8.2,-10 -2.3,-7.5 0,-17 6.6,-27.4 22.5,-35.7 63.4,-57.1 110.6,-58.3 1.4,-0.1 3,-0.1 4.6,-0.1" />
      <path
         id="Head"
         d="m 516.6,399.4 c -1,-0.4 -2,-0.7 -3,-0.3 -19.7,6.3 -42.5,12 -62.8,-0.5 -1.7,-1.1 -4,-0.5 -5.1,1.2 l -0.1,0.1 c -8.6,15.7 -38.3,26 -43,23.9 -2.8,-1.2 -6.6,-4.6 -8.2,-10 -2.3,-7.5 0,-17 6.6,-27.4 22.5,-35.7 63.4,-57.1 110.6,-58.3 3.1,-0.1 6.3,-0.1 9.5,0 20.6,0.6 39.5,6.5 55.9,17 13.2,8.5 19.7,12.7 30.6,33.6 5.6,10.5 -84.4,23.5 -91,20.7 z"
         class="st0"
         fill="#ffcc00" />
    </g>
    <g
       id="LeftEar--group"
       style="display:inline">
      <path
         id="LeftEar--bg"
         d="m 701.4,357.1 c -0.5,1.7 -1.2,3.4 -2,5.2 -5,10 -17.7,23 -38,29.1 -4.5,1.4 -9.3,2 -14,2 h -0.1 c -13,0 -34.2,-4.9 -61.6,-28.3 -1.9,-1.7 -5.1,-4.8 -7.1,-7 -2.3,-2.5 -2.8,-6.1 -1.5,-9.1 1.3,-3 4.4,-5.1 7.8,-5.1 h 0.5 c 13.9,0.8 30.1,1.2 48.4,1.2 8.1,0 14.8,-0.1 19.3,-0.1 h 4.5 c 7.4,0 13.3,-0.1 18.2,-0.1 8.1,0 13.7,0.1 17.1,0.2 2.9,0.1 5.6,1.5 7.3,3.9 1.5,2.3 2,5.2 1.2,8.1 z" />
      <path
         id="LeftEar"
         d="m 590.4,359.4 c 25.7,21.9 45.1,26.5 56.8,26.5 h 0.1 c 4,0 8,-0.6 11.9,-1.7 18.1,-5.4 29.2,-16.6 33.5,-25.3 0.8,-1.5 1.2,-2.8 1.5,-3.9 0.4,-1.3 -0.6,-2.6 -1.9,-2.7 -3.3,-0.1 -8.9,-0.2 -16.7,-0.2 -5.4,0 -11.6,0 -18.2,0.1 -3.3,0 -12.2,0.2 -23.9,0.2 -13.9,0 -31.7,-0.2 -48.8,-1.2 h -0.1 c -0.9,0 -1.5,1.1 -0.8,1.8 2,2.2 5,5.1 6.6,6.4 z"
         class="st1"
         fill="#ff8800" />
    </g>
    <g
       id="g2957">
      <path
         id="RightEye"
         d="m 417.6,376.2 c -4.1,0 -7.4,3.3 -7.4,7.4 0,9.9 14.8,9.9 14.8,0 0,-4.1 -3.3,-7.4 -7.4,-7.4 z" />
      <path
         id="LeftEye"
         d="m 503.2,355.7 c -4.1,0 -7.4,3.3 -7.4,7.4 0,9.9 14.8,9.9 14.8,0 0,-4.1 -3.3,-7.4 -7.4,-7.4 z" />
      <path
         id="Nose"
         d="m 457.9,375.4 c -7.4,0.8 -12.3,2.5 -15.6,4.9 -5.9,4.4 -4.1,9.9 2.5,10.7 6.6,0.8 7.1,1.2 13.2,-3.3 6.5,-4.9 7.3,-13.1 -0.1,-12.3 z" />
    </g>
    <g
       id="LeftLEg--group">
      <path
         id="LetLeg"
         d="m 512.4,655.2 c -4.6,-5.2 -3.7,-15.7 -1.9,-29.4 2.6,-19.8 5,-34.5 25.4,-50.8 24.4,-19.5 62.2,-15 76.2,-0.5 3.6,3.7 6.7,10.9 7.3,18.8 0.9,11.4 -22.2,42.4 -44.8,51.8 -22.6,9.6 -54,19.3 -62.2,10.1 z"
         class="st0"
         fill="#ffcc00" />
      <path
         id="LeftLeg--bg_1_"
         d="m 512.4,658.9 c -1.2,0 -2.3,-0.5 -3,-1.6 -4.7,-6.7 -4.5,-17.2 -2.6,-32 2.5,-19 4.6,-35.5 26.8,-53.2 26.8,-21.4 63.7,-14 78.4,0.7 1.4,1.4 1.4,3.8 0,5.2 -1.4,1.4 -3.8,1.4 -5.2,0 -12.5,-12.5 -45.4,-18.7 -68.6,-0.1 -18.9,15.1 -21.4,28.2 -24.1,48.4 -1.4,11 -2.3,21.8 1.3,26.7 1.2,1.7 0.8,4 -0.9,5.2 -0.6,0.5 -1.4,0.7 -2.1,0.7 z" />
    </g>
    <g
       id="LeftFoot--group">
      <path
         id="LeftFoot--bg"
         d="m 523.7,651.2 c -0.4,1.9 -2,9.1 -6.7,16.2 -7,10.6 -17.8,16.5 -30.4,16.5 -7.2,0 -12.9,-2.1 -16.8,-6.2 -7.5,-7.8 -7.1,-21 -6.7,-33.7 v -0.1 c 0.2,-6.4 0.4,-13.1 -0.4,-18.5 -0.7,-4.4 -1.8,-9.1 -3.1,-14.5 -2.4,-10.2 -4.6,-20.1 -4.3,-28.7 0.4,-10.7 4.7,-18.9 12.8,-24.4 3.5,-2.4 7.4,-3.5 11.4,-3.5 9.3,0 18.9,6.2 28.7,18.6 7.1,8.9 13.1,20 15.4,28.1 6.4,21.8 4.9,34.9 0.1,50.2 z" />
      <path
         id="LeftFoot_1_"
         d="m 477,670.8 c 2,2.1 5.2,3.1 9.6,3.1 22.6,0 27,-23.7 27.2,-24.7 0,-0.2 0.1,-0.4 0.1,-0.6 4.4,-13.9 5.7,-25.2 0,-44.8 -3.7,-13.2 -21.1,-39.4 -34.4,-39.4 -2,0 -4,0.6 -5.8,1.9 -11.7,7.8 -9.3,21.8 -4.4,42.4 1.2,5.1 2.5,10.4 3.2,15.3 1,6.4 0.8,13.5 0.5,20.4 -0.2,10.6 -0.6,21.6 4,26.4 z"
         class="st0"
         fill="#ffcc00" />
    </g>
    <g
       id="LeftArm--group">
      <g
         id="BeforeLeftArm--group" />
      <path
         id="LeftArm--bg"
         d="m 478,413.3 c -6.4,2.9 -12.4,6.6 -17.6,11.1 -12.1,10.6 -12.6,19.4 -10.8,24.8 2.5,7.7 11.1,13.4 21.9,14.6 7.1,0.7 16.2,-1.3 26.7,-3.6 13.9,-3.1 29.7,-6.6 42.9,-3.9 19.6,4.1 33.3,15 53.1,32.7 l 10.3,9.2 c 1.5,1.3 3.9,1.2 5.2,-0.4 1.3,-1.5 1.2,-3.9 -0.4,-5.2 l -2.9,-2.6 c -24,-21.7 -39.9,-36 -63.8,-41 -14.8,-3.1 -31.3,0.6 -46,3.9 -9.5,2.1 -18.5,4.1 -24.3,3.5 -7.8,-0.8 -14.1,-4.6 -15.7,-9.5 -1.5,-4.7 1.6,-10.7 8.7,-17 20.7,-18.2 59.1,-23.7 87.5,-12.5 4.7,1.9 7.4,-5.1 2.7,-6.9 -11.4,-4.4 -24.6,-6.6 -37.7,-6.2 -10.1,0.4 -30.5,4.8 -39.8,9 z" />
      <path
         id="LeftArm"
         d="m 615.4,451 c 11.7,12.2 17,60.3 -6,41.6 l -2.9,-2.6 c -24,-21.7 -39.9,-36 -63.8,-41 -14.8,-3.1 -31.3,0.6 -46,3.9 -9.5,2.1 -18.5,4.1 -24.3,3.5 -7.8,-0.8 -14.1,-4.6 -15.7,-9.5 -1.5,-4.7 1.6,-10.7 8.7,-17 20.7,-18.2 59.3,-24 87.5,-12.5 4.6,2 46.1,16.5 62.5,33.6 z"
         class="st0"
         fill="#ffcc00" />
    </g>
  </g>
</svg>
