<svg xmlns="http://www.w3.org/2000/svg" id="wapuugotchi_svg__wapuu" x="0" y="0" version="1.1" viewBox="0 0 1000 1000">
  <g id="Background--group">
    <defs>
      <linearGradient id="wapuugotchi-svg-d0b94591-c438-45ae-9f11-2f2394b2a189" x1="0" x2="1" y1="0" y2="0" gradientTransform="matrix(-111.21065 -176.17572 -176.17572 111.21066 1635.684 2652.532)" gradientUnits="userSpaceOnUse" spreadMethod="pad">
        <stop offset="0" stop-color="#fff"/>
        <stop offset=".415" stop-color="#ededed"/>
        <stop offset="1" stop-color="#ededed"/>
      </linearGradient>
      <linearGradient id="wapuugotchi-svg-01fa4bf3-0df2-45d2-a129-e65f57f445ed" x1="0" x2="1" y1="0" y2="0" gradientTransform="scale(-283.80377 283.80377) rotate(-57.738 5.917 10.177)" gradientUnits="userSpaceOnUse" spreadMethod="pad">
        <stop offset="0" stop-color="#fff"/>
        <stop offset=".415" stop-color="#ededed"/>
        <stop offset="1" stop-color="#ededed"/>
      </linearGradient>
      <linearGradient id="wapuugotchi-svg-22094307-c79c-4ce2-9fd4-acc8ad462adf" x1="0" x2="1" y1="0" y2="0" gradientTransform="matrix(4.636 9.70833 9.70833 -4.63601 63.34 100.711)" gradientUnits="userSpaceOnUse" spreadMethod="pad">
        <stop offset="0" stop-color="#fff"/>
        <stop offset=".415" stop-color="#ededed"/>
        <stop offset="1" stop-color="#ededed"/>
      </linearGradient>
      <linearGradient id="wapuugotchi-svg-1b3d655c-842a-47bd-a499-b75431c5a142" x1="0" x2="1" y1="0" y2="0" gradientTransform="scale(15.01032 -15.01032) rotate(-64.474 -2.874 -6.446)" gradientUnits="userSpaceOnUse" spreadMethod="pad">
        <stop offset="0" stop-color="#fff"/>
        <stop offset=".415" stop-color="#ededed"/>
        <stop offset="1" stop-color="#ededed"/>
      </linearGradient>
    </defs>
    <path fill="#f7f9f9" d="m628.314 421.746 83.456 142.793s-18.61-1.178-26.945-8.896c0 0-11.925-10.893-29.303-44.915l-35.994-70.06z"/>
    <path d="m627.697 408.679-4.884 10.52-8.78 18.917-1.253 2.686 1.356 2.638 35.995 70.054c17.463 34.205 29.803 45.88 30.59 46.6 9.636 8.921 28.54 10.362 30.664 10.496l11.364.72-5.74-9.83-83.468-142.787zm.61 13.067 83.463 142.793s-18.61-1.178-26.945-8.896c0 0-11.925-10.893-29.303-44.915l-35.994-70.06 8.786-18.916"/>
    <path fill="#f7f9f9" d="m626.385 444.869 130.77 100.394s-18.5 6.002-28.905 1.893c0 0-14.025-5.44-42.772-30.438l-59.387-51.394"/>
    <path d="m620.498 432.706-.177 12.077-.293 20.455-.043 2.821 2.138 1.85 59.386 51.388c28.838 25.083 43.572 31.122 44.518 31.495 3.133 1.239 6.943 1.862 11.327 1.862 10.38 0 21.212-3.474 21.67-3.621l10.966-3.554-9.146-7.021-130.771-100.394zm5.887 12.163 130.77 100.394s-10.257 3.328-19.795 3.328c-3.273 0-6.454-.391-9.11-1.441 0 0-14.025-5.435-42.772-30.432l-59.387-51.394.294-20.455"/>
    <path fill="#f7f9f9" d="m618.91 451.207 183.637 64.528s-17.591 10.66-30.462 9.793c0 0-17.988-.732-59.38-17.676l-85.386-34.73z"/>
    <path d="m608.561 441.138 4.69 12.236 8.408 21.92.94 2.45 2.436.988 85.386 34.737c40.739 16.676 59.6 18.019 61.316 18.11.61.043 1.245.062 1.88.062 14.215 0 31.348-10.283 32.069-10.723l10.972-6.655-12.102-4.25-183.63-64.527zm10.35 10.069 183.636 64.528s-16.242 9.842-28.93 9.842a25.279 25.279 0 0 1-1.526-.049s-17.994-.732-59.387-17.67l-85.385-34.743-8.408-21.908"/>
    <path fill="#f7f9f9" d="m647.633 452.428 192.405 19.54s-13.47 16.485-26.299 18.769c0 0-17.646 2.54-61.914-4.354l-91.284-13.988z"/>
    <path d="m635.684 445.125 6.857 10.6 12.914 19.96 1.478 2.284 2.686.415 91.284 13.995c25.895 4.03 42.907 4.873 52.609 4.873 7.266 0 10.722-.464 11.088-.52l.098-.011.098-.019c6.435-1.142 13.476-5.068 20.925-11.668a88.72 88.72 0 0 0 9.012-9.232l7.132-8.732-11.21-1.136-192.411-19.539zm11.943 7.303 192.41 19.54s-13.469 16.485-26.298 18.769c0 0-3.18.458-10.227.458-9.55 0-26.213-.843-51.687-4.812l-91.284-13.988-12.914-19.967"/>
    <path fill="#f7f9f9" d="M627.3 506.069c.061 1.416 51.858 13.347 59.949 11.87 2.576.08 19.166-14.526 29.797-25.596 0 0-89.8 12.315-89.74 13.726"/>
    <path d="m733.501 483.965-17.274 2.37c-.225.03-22.732 3.12-44.94 6.343-13.066 1.893-23.477 3.463-30.944 4.665-4.482.72-7.962 1.32-10.344 1.777a57.378 57.378 0 0 0-3.2.69 12.67 12.67 0 0 0-1.422.44c-3.175 1.221-4.213 4.03-4.128 6.07.05 1.172.544 4.066 4.134 5.653.537.232 1.19.477 2.058.757 1.38.452 3.303 1.002 5.721 1.637a421.799 421.799 0 0 0 17.39 4.121c7.785 1.698 26.762 5.642 34.865 5.642a18.318 18.318 0 0 0 2.381-.14c2.333-.135 5.27-1.386 15.35-10.13a294.356 294.356 0 0 0 18.276-17.316zm-16.45 8.378c-10.611 11.04-27.134 25.596-29.778 25.596h-.024a10.649 10.649 0 0 1-1.832.128c-12.108 0-58.062-10.667-58.117-11.998-.055-1.405 89.746-13.726 89.746-13.726"/>
    <path fill="#f7f9f9" d="M633.04 476.15c.061 2.503 76.654 23.898 89.434 21.114 4.048.092 35.231-27.416 52.206-47.272 0 0-141.701 23.654-141.64 26.158"/>
    <path d="m790.11 441.266-16.426 2.748c-.36.061-35.86 5.984-70.896 12.15a3075.81 3075.81 0 0 0-48.798 8.891 526.375 526.375 0 0 0-16.236 3.346c-2.137.489-3.725.892-4.879 1.24a16.138 16.138 0 0 0-1.893.671c-3.81 1.698-4.03 5.007-4.005 5.99.043 1.71.77 4.11 3.98 5.825.71.379 1.631.794 2.816 1.258 1.996.788 4.793 1.753 8.304 2.87a541.109 541.109 0 0 0 25.602 7.327c11.46 3.004 39.457 9.996 51.778 9.996 1.454 0 2.687-.092 3.768-.287 2.137-.202 4.726-1.405 10.472-5.813a250.301 250.301 0 0 0 14.129-11.907c11.84-10.612 23.6-22.445 31.464-31.64zm-15.43 8.726c-16.95 19.826-48.054 47.272-52.188 47.272h-.018a14.648 14.648 0 0 1-3.017.25c-18.806 0-86.356-19.007-86.417-21.364-.061-2.504 141.64-26.158 141.64-26.158"/>
    <path fill="#f7f9f9" d="M673.315 451.42c.043 2.687 76.538 25.084 89.342 22 4.054.067 35.457-29.668 52.59-51.1 0 0-141.975 26.414-141.932 29.1"/>
    <path d="m830.158 413.38-16.016 2.98c-.354.067-35.927 6.686-71.042 13.555a2925.604 2925.604 0 0 0-48.897 9.892 501.445 501.445 0 0 0-16.284 3.712c-2.143.544-3.75.99-4.91 1.374-.793.263-1.404.495-1.923.745-3.615 1.747-3.847 4.946-3.834 5.88.073 4.433 4.194 6.149 6.655 7.175 1.99.83 4.775 1.844 8.274 3.016a503.924 503.924 0 0 0 25.45 7.645c11.405 3.132 39.279 10.417 51.814 10.417 1.557 0 2.888-.104 4.042-.33 2.21-.226 4.781-1.533 10.582-6.314a260.638 260.638 0 0 0 14.22-12.859c11.92-11.48 23.765-24.24 31.69-34.163zm-14.91 8.94c-17.115 21.407-48.463 51.1-52.573 51.1h-.012a14.27 14.27 0 0 1-3.218.293c-19.087 0-86.087-19.783-86.13-22.292-.043-2.687 141.933-29.101 141.933-29.101"/>
    <path fill="#f7f9f9" d="m402.394 443.178-58.086 61.81s9.434 1.545 14.49-1.362c0 0 7.205-4.072 19.795-19.093l26.024-30.896z"/>
    <path d="m405.917 430.575-7.938 8.45-58.092 61.811-7.797 8.304 11.235 1.832c.305.049 3.096.488 6.607.488 4.903 0 8.896-.867 11.87-2.564.934-.537 8.615-5.172 21.431-20.467l26.018-30.884 1.911-2.26-.617-2.906-2.222-10.46zm-3.523 12.603 2.223 10.465-26.024 30.896c-12.59 15.015-19.796 19.087-19.796 19.087-2.448 1.405-5.928 1.771-8.865 1.771-3.12 0-5.624-.409-5.624-.409l58.086-61.81"/>
    <path fill="#f7f9f9" d="m400.709 454.956-76.88 35.195s8.56 5.116 14.227 4.255c0 0 7.638-1.11 24.875-10.312l35.58-18.88z"/>
    <path d="m409.165 444.417-10.984 5.025-76.874 35.195-10.49 4.8 9.898 5.922c.891.531 8.927 5.208 15.973 5.208.788 0 1.557-.055 2.283-.165 1.063-.158 9.38-1.648 26.818-10.96l35.56-18.873 2.498-1.325.586-2.76 2.198-10.258zm-8.456 10.539-2.198 10.258-35.58 18.88c-17.237 9.201-24.87 10.319-24.87 10.319a9.11 9.11 0 0 1-1.373.091c-5.581 0-12.86-4.353-12.86-4.353l76.875-35.195"/>
    <path fill="#f7f9f9" d="m403.713 458.98-99.191 11.204s7.571 7.346 14.104 8.39c0 0 9.08 1.697 31.709-2.027l46.667-7.578z"/>
    <path d="m416.053 451.482-13.018 1.471-99.191 11.205-12.75 1.44 9.209 8.94c.915.885 9.14 8.676 17.31 10.013.641.11 3.065.47 7.693.47 4.952 0 13.495-.433 26.012-2.497l46.655-7.571 2.595-.421 1.466-2.18 6.716-9.996zm-12.334 7.498-6.717 9.99-46.667 7.57c-11.84 1.954-19.967 2.418-25.035 2.418-4.61 0-6.674-.384-6.674-.384-6.533-1.038-14.104-8.39-14.104-8.39l99.19-11.204"/>
    <path fill="#f7f9f9" d="m389.217 456.3-98.428-12.292s4.849 9.788 11.003 12.395c0 0 8.53 3.297 31.446 4.928l47.242 3.468z"/>
    <path d="m280.36 436.595 5.007 10.1c.14.299 1.484 2.973 3.688 6.057 3.285 4.604 6.778 7.711 10.368 9.232l.092.037.098.036c.958.367 10.044 3.664 33.198 5.312l47.223 3.475 2.717.195 1.954-1.893 8.738-8.505 9.055-8.793-12.53-1.57-98.428-12.284zm10.436 7.413 98.427 12.291-8.743 8.5-47.236-3.468c-22.922-1.63-31.446-4.928-31.446-4.928-6.16-2.607-11.002-12.395-11.002-12.395"/>
    <path fill="#f7f9f9" d="M393.229 485.443c-.183.702-27.446.733-31.324-.94-1.294-.257-7.913-9.459-11.967-16.212 0 0 43.486 16.45 43.29 17.152"/>
    <path d="m335.778 456.452 8.964 14.96c2.07 3.45 4.805 7.559 7.32 11.002 3.817 5.221 5.71 7.144 7.914 7.847 1.404.512 3.828 1.025 10.044 1.367a253.421 253.421 0 0 0 20.522.202 44.703 44.703 0 0 0 2.528-.171c.5-.061.91-.122 1.282-.208 2.357-.531 4.122-2.186 4.726-4.414a6.106 6.106 0 0 0-2.564-6.735 9.25 9.25 0 0 0-.959-.55 31.66 31.66 0 0 0-1.679-.794 188.967 188.967 0 0 0-5.05-2.106c-3.614-1.466-8.652-3.45-14.977-5.898a3456.247 3456.247 0 0 0-21.762-8.335zm14.166 11.845s43.474 16.444 43.291 17.146c-.08.28-4.476.452-9.971.452-8.267 0-19.032-.391-21.359-1.392-1.294-.25-7.913-9.459-11.967-16.212"/>
    <path fill="#f7f9f9" d="M393.797 469.83c-.324 1.246-41.063 3.157-47.132.305-2.033-.427-14.471-17.744-20.675-29.62 0 0 68.124 28.07 67.807 29.309"/>
    <path d="m312.893 428.566 7.724 14.758c2.937 5.618 7.547 13.018 12.322 19.783 2.174 3.09 4.195 5.77 5.843 7.755 2.18 2.632 3.761 4.213 5.679 4.927 1.545.678 5.373 1.893 20.223 1.893 6.277 0 13.701-.232 19.862-.616 2.931-.184 5.422-.397 7.211-.611a29.33 29.33 0 0 0 2.553-.403c3.816-.824 4.994-3.31 5.355-4.714.354-1.386.714-4.866-3.578-7.315a44.11 44.11 0 0 0-2.473-1.27c-1.802-.867-4.433-2.076-7.828-3.572a1485.15 1485.15 0 0 0-23.417-10.062 4879.775 4879.775 0 0 0-34.07-14.209zm13.097 11.95s68.124 28.068 67.807 29.308c-.202.775-15.784 1.795-29.113 1.795-8.28 0-15.693-.39-18.013-1.49-2.04-.415-14.471-17.738-20.68-29.614"/>
    <path fill="#f7f9f9" d="M376.028 452.85c-.33 1.343-41.135 3.76-47.18.757-2.04-.428-14.325-18.898-20.437-31.574 0 0 67.947 29.48 67.617 30.816"/>
    <path d="m295.882 409.992 7.07 14.672c2.883 5.984 7.42 13.86 12.133 21.066 2.143 3.279 4.14 6.13 5.764 8.243 2.186 2.833 3.78 4.53 5.77 5.282 2.186.952 6.332 1.856 18.16 1.856 6.435 0 14.336-.3 21.138-.794 3.175-.226 5.892-.489 7.864-.751 1.155-.153 2.058-.305 2.766-.464 3.664-.843 4.946-3.071 5.368-4.8.33-1.343.653-4.725-3.456-7.204a42.485 42.485 0 0 0-2.48-1.356c-1.795-.916-4.426-2.186-7.815-3.767a1490.95 1490.95 0 0 0-23.355-10.576 4684.11 4684.11 0 0 0-33.986-14.929zm12.53 12.04s67.946 29.48 67.616 30.817c-.213.867-17.5 2.199-31.25 2.199-7.425 0-13.811-.391-15.936-1.441-2.034-.428-14.319-18.898-20.43-31.574m596.953-47.706-11.534 1.795-258.49 40.3-11.222 1.746 7.7 8.346 22.079 23.948 2.009 2.18 2.955-.244 122.546-10.228c59.729-4.836 82.675-14.251 83.621-14.654l.098-.043.092-.043c7.711-3.553 15.985-11.912 24.588-24.839a176.969 176.969 0 0 0 10.399-17.792zm-10.6 7.785s-15.979 32.386-32.086 39.817c0 0-22.312 9.39-81.771 14.202l-122.553 10.222-22.079-23.948 258.49-40.293"/>
    <path fill="url(#wapuugotchi-svg-d0b94591-c438-45ae-9f11-2f2394b2a189)" d="m1330.904 2567.038 47.347-51.355 262.811 21.924c127.514 10.322 175.356 30.448 175.356 30.448 34.543 15.941 68.81 85.385 68.81 85.385z" transform="matrix(.46631 0 0 -.46631 15.655 1619.458)"/>
    <path fill="#b5b5b5" d="M876.3 385.006c-5.293 7.7-22.554 34.346-36.201 40.641 0 0-2.198 1.74-7.877 4 21.554-3.97 30.457-7.718 30.457-7.718 16.107-7.431 32.086-39.81 32.086-39.81z"/>
    <path fill="#6e6a6d" d="M827.258 407.238c10.472-2.98 34.834-7.755 49.269-16.077 3.23-2.26-1.362 5.33-5.85 7.95-4.488 2.625-44.744 9.885-43.413 8.12m4.97 10.882c15.009-1.386 23.728-6.112 30.805-7.816 9.067-2.186-3.45 5.49-3.45 5.49s-27.874 3.95-27.355 2.332"/>
    <path fill="#c9caca" d="M655.498 435.215a2.332 2.332 0 0 1-.25-4.646l145.26-15.778a2.33 2.33 0 1 1 .5 4.634l-145.26 15.778c-.085.012-.171.012-.256.012"/>
    <path d="m926.81 300.256-11.113 3.602-299.375 96.987-10.802 3.505 8.921 7.022 30.774 24.253 2.333 1.831 2.876-.708 143.624-35.439c69.84-17.054 95.143-32.502 96.18-33.15l.092-.054.086-.061c8.292-5.557 16.382-16.89 24.051-33.668a211.357 211.357 0 0 0 8.902-22.965zm-9.239 9.366s-12.822 41.502-30.542 53.39c0 0-24.717 15.388-94.434 32.41l-143.625 35.44-30.774-24.247 299.375-96.993"/>
    <path fill="url(#wapuugotchi-svg-01fa4bf3-0df2-45d2-a129-e65f57f445ed)" d="m1292.128 2600.901 66.001-51.999 308 75.999c149.501 36.501 202.501 69.5 202.501 69.5 38 25.501 65.501 114.5 65.501 114.5z" transform="matrix(.46631 0 0 -.46631 15.655 1619.458)"/>
    <path fill="#b5b5b5" d="M896.896 316.308c-4.823 10.148-20.974 45.337-35.982 55.412 0 0-2.284 2.485-8.597 6.252 24.839-8.817 34.712-14.96 34.712-14.96 17.72-11.888 30.542-53.39 30.542-53.39z"/>
    <path fill="#6e6a6d" d="M831.776 354.812c15.754-6.222 47.834-16.437 68.662-30.847 4.58-3.767-1.002 7.65-7.468 12.188-6.466 4.53-62.891 21.358-61.194 18.66m10.875 9.677c17.56-4.506 37.942-13.677 46.008-17.096 9.172-3.89-3.419 7.925-3.419 7.925s-42.9 11.192-42.589 9.171"/>
    <path fill="#c9caca" d="M658.44 417.05a2.332 2.332 0 0 1-.683-4.555l154.2-47.748a2.333 2.333 0 0 1 1.38 4.457l-154.2 47.749a2.32 2.32 0 0 1-.696.097"/>
    <path d="m256.138 372.404 2.919 10.722c.073.28 1.905 6.948 4.958 14.58 4.42 11.034 8.963 18.141 13.885 21.744l.097.067.092.067c.58.391 14.581 9.623 52.255 17.897l76.171 16.974 3.334.745 2.363-2.473 16.071-16.785 6.741-7.04-9.293-2.931-158.999-50.221zm8.768 9.128 159 50.215-16.072 16.792-76.19-16.975c-36.977-8.127-50.166-17.005-50.166-17.005-9.464-6.918-16.572-33.033-16.572-33.033"/>
    <path fill="url(#wapuugotchi-svg-22094307-c79c-4ce2-9fd4-acc8ad462adf)" d="M54.213 104.108s2.16 1.454 8.216 2.785l12.478 2.78 2.632-2.75L51.5 98.7s1.165 4.276 2.714 5.409" transform="translate(-49.544 -221.119) scale(6.10595)"/>
    <path fill="#b5b5b5" d="M276.263 385.128c2.632 6.32 11.07 28.106 19.088 33.968 0 0 1.22 1.502 4.591 3.663-13.2-4.659-18.464-8.2-18.464-8.2-9.464-6.918-16.572-33.033-16.572-33.033z"/>
    <path fill="#6e6a6d" d="M305.102 405.882c-6.32-3.07-21.212-8.56-29.54-16.034-1.833-1.978.372 4.201 2.96 6.552 2.583 2.357 27.251 10.93 26.58 9.482m-4.122 8c-9.317-2.187-14.373-6.473-18.672-8.305-5.507-2.357 1.673 4.482 1.673 4.482s17.182 5.11 17 3.822"/>
    <path fill="#c9caca" d="M419.607 438.256a2.662 2.662 0 0 1-.306-.018l-92.047-12.23a2.332 2.332 0 1 1 .61-4.623l92.048 12.23a2.332 2.332 0 0 1-.305 4.641"/>
    <path d="m249.599 313.09 1.532 11.742c.05.354 1.148 8.67 3.536 18.41 3.352 13.701 7.547 23.245 12.474 28.368l.08.08.079.079c.61.586 15.442 14.654 58.287 33.16l87.144 37.943 3.255 1.417 2.827-2.143 21.572-16.376 7.498-5.691-8.286-4.47-179.57-96.901Zm7.547 10.96 179.576 96.89-21.573 16.376-87.162-37.949c-42.32-18.28-56.48-31.958-56.48-31.958-10.063-10.472-14.361-43.358-14.361-43.358"/>
    <path fill="url(#wapuugotchi-svg-1b3d655c-842a-47bd-a499-b75431c5a142)" d="M52.58 96.386s2.319 2.24 9.25 5.234l14.275 6.215 3.533-2.682-29.41-15.868s.704 5.386 2.353 7.1" transform="translate(-49.544 -221.119) scale(6.10595)"/>
    <path fill="#b5b5b5" d="M269.547 330.73c2.113 8.17 9.08 36.453 17.61 45.319 0 0 1.208 2.076 4.835 5.446-14.831-8.627-20.479-14.086-20.479-14.086-10.075-10.472-14.367-43.358-14.367-43.358z"/>
    <path fill="#6e6a6d" d="M307.025 365.199c-9.348-5.954-28.606-16.2-40.403-28.839-2.534-3.236-.067 5.966 3.59 9.934 3.658 3.97 37.637 21.109 36.82 18.905m-7.725 6.643c-10.649-4.775-22.635-13.348-27.403-16.578-5.416-3.67 1.435 6.35 1.435 6.35s25.974 11.81 25.968 10.228"/>
    <path fill="#c9caca" d="M410.655 426.52a2.332 2.332 0 0 1-1.074-.262l-92.695-48.2a2.332 2.332 0 0 1 2.15-4.14l92.694 48.2a2.332 2.332 0 0 1-1.075 4.403"/>
  </g>
  <g id="RightArm--group">
    <path d="M436.6 504c-4.5 5.1-10.5 7.9-17 7.9-9.1 0-18.5-5.5-24.4-14.4-7.8-11.6-15.5-21.2-22.3-27.9l-4.8-4.7c-2-2-1.1-5.3 1.6-6.1l6.5-1.7c3.2-.9 6.4-2.7 9.1-5.5 3-3 4.8-6.7 5.2-10.4V430c0-1.3 1.5-2.1 2.5-1.3l9.3 6.9c.7.5 1.7 1.1 2.9 1.7 10.2 4.9 31.7 27.4 35.7 46.7 2.1 10.1-1.2 16.5-4.3 20z"/>
    <path d="M402.1 444.1c-1.5-.7-2.9-1.5-4.2-2.4-.5 5.5-3 11-7.3 15.3-3.7 3.7-8.1 6.2-12.5 7.4 8.7 8.6 17 19.8 23.2 29.1 4.5 6.7 11.6 11.1 18.3 11.1 4.1 0 8.1-1.6 11.4-5.4 13-14.8-17.3-49.6-28.9-55.1z" class="st0" fill="#fc0"/>
  </g>
  <g id="Tail--group">
    <path d="M599.1 649.5c-9 25.7-26.4 50-50.3 70.3-23.8 20.3-51.8 34.7-81 41.6-6.9 1.6-14.1 2.5-21.5 2.5-30.8 0-58.9-13.9-74.8-27-13.6-11.1-21.2-23.3-20.9-33.5.4-12 6.7-20.7 16.8-23.3 2.1-.5 4.3-.8 6.7-.8 11.2 0 27.2 6.7 38.5 25.7 7.8 13.2 22 20.1 41.1 20.1h1.2c40.7-.8 87.6-31.2 109.1-70.8 7.7-14.1 13.2-29.6 17.1-40.8 1.9-5.4 3.6-10.1 5.1-13.5 1.3-3.1 4.1-9.4 10.4-9.4 4.1 0 7.6 1.8 9.9 5 5.5 7.6 3.3 23.3-7.4 53.9z"/>
    <path d="M570.5 657.8c-22.7 41.7-72.5 73.9-115.5 74.7h-1.4c-21.6 0-38.3-8.4-47.4-23.8-9-15.1-22-22.1-32.1-22.1-1.7 0-3.3.2-4.8.6-7 1.8-11 7.6-11.3 16.4-.3 7.7 6.6 18 18.2 27.5 16.8 13.7 43.2 25.3 70.1 25.3 6.6 0 13.3-.7 19.8-2.3 57.2-13.5 108.5-57.4 126-107.1 5.4-15.3 16.7-49.2 4.5-49.2-4.5.1-10.8 31.8-26.1 60z" class="st1" fill="#f80"/>
  </g>
  <g id="Body--group">
    <path d="M649.7 531.9c-2 24-6.7 45.1-13.9 62.9-8.5 20.9-20.3 36.6-35.1 46.8-34 23.4-64.8 26-76.4 26-1.3 0-2.5 0-3.8-.1-18.4-.8-26-4.4-32.7-7.5-5.9-2.8-11-5.2-24.9-5.7-37.5-1.5-67-9.9-83.1-23.6-.2-.1-.5-.4-.9-.7-4.8-3.5-19.3-14.3-25-24.7-5.3-9.7-6.2-22.3-2.3-31.4 13.4-31.2 24.5-40.5 33.5-48 3.6-3 6.4-5.3 8.8-8.7 2.2-3.1 3.8-7.1 4.9-12.2 0-.1 0-.2.1-.3 3.9-15 3.4-34.9 2.8-56-.2-5.7-.3-11.7-.4-17.5v-.1c0-18.6 9.6-40.7 25.7-59.2 18.1-20.8 41.6-33.6 66.1-36.2 20.2-2.1 34.3-3.1 45.9-3.1 43.7 0 58.6 14.8 82.2 48.4 7.5 10.6 12.1 22.5 16 33.7 11.1 30.4 15.9 76.5 12.5 117.2z"/>
    <path d="M358.5 576.7c-3 7-2.2 17.4 2 25 5.6 10.3 23 22.2 24.1 23.2 15.1 12.9 43.7 20.5 78.7 21.9 31.2 1.3 24.3 11.8 57.6 13.3 1.1 0 2.2.1 3.5.1 16.7 0 43.7-5 72.2-24.7 58-39.9 52.9-165.3 34-218.6-3.9-11.1-8.3-22.2-15.1-31.9-23.5-33.5-36.6-45.2-76.2-45.2-12.2 0-26.9 1.1-45.1 3.1-49.9 5.3-85.3 55.3-85.3 88.1.3 27.4 2.5 55.1-2.7 75.5-1.4 6.5-3.4 11.2-6 14.9-9.8 13.5-23.4 12.4-41.7 55.3z" class="st0" fill="#fc0"/>
  </g>
  <g id="Ball--group" />
  <g id="RightFoot--group">
    <path d="M384.3 648c-2.4 3.7-6.4 5.7-11.5 5.7-1.9 0-4-.3-6.2-.8-25-6-59.3-43.6-63.6-64.5-1.9-9.4-.2-18 5-24.4 4.6-5.7 11.4-8.8 18.9-8.8 6.8 0 13.6 2.5 19.8 7.3 12.2 9.4 32.9 50.5 37.3 60.7 2.5 5.8 4.9 17.7.3 24.8z"/>
    <path d="M310.1 586.8c3.8 18.2 36.2 53.6 58.1 58.8 1.7.4 3.2.6 4.5.6 3.4 0 4.7-1.3 5.4-2.3 2.3-3.5 1.5-12.1-1-17.9-6.1-13.9-25.3-50.3-35.1-57.8-4.9-3.8-10.2-5.8-15.3-5.8-5.3 0-10 2.2-13.2 6.1-3.6 4.7-4.8 11.2-3.4 18.3z" class="st0" fill="#fc0"/>
  </g>
  <g id="FullHead--group">
    <g id="BeforeHead--group" />
    <g id="RightEar--group">
      <path d="M413.3 399.4c-.4 4.4-3.8 8.4-11.1 12.9-4.7 3-10.2 5.5-13.9 6.5-6.5 1.7-12.3 2.6-17.3 2.6-6.7 0-10.6-1.6-12.7-2.9-4.8-3-4.4-7.2-4.2-8.5.5-3.1 2.9-5.5 5.9-6.2 3.5-.8 13.5-5.8 23.6-12.6 4.2-2.9 10.7-4.8 16.1-4.8 5.8 0 9.1 2.2 10.8 4.1 2.1 2.4 3.1 5.5 2.8 8.9z"/>
      <path d="M361.4 411.3c0 .3.4.7.9.9 1.1.7 3.6 1.8 8.8 1.8 4.3 0 9.5-.8 15.4-2.3 5.2-1.4 19.1-8.8 19.5-13 .1-1.3-.2-2.4-.9-3.2-1-1.1-2.8-1.7-5.3-1.7-3.9 0-8.9 1.5-11.9 3.5-8.5 5.7-20.5 12.5-26.1 13.7-.3.1-.4.2-.4.3z" class="st1" fill="#f80"/>
    </g>
    <g id="Head--group">
      <path d="M516.4 328.1c1.6 0 3.2 0 4.8.1 20.6.6 39.5 6.5 55.9 17 11.2 7.2 17.5 11.4 25.9 25.2 1.5 2.5 9 .8 7.9-1.1-10.1-17.6-17.5-22.3-29.8-30.3-17.7-11.4-37.8-17.6-59.7-18.2-1.6 0-3.3-.1-5-.1-1.6 0-3.3 0-4.9.1-24.3.6-47.8 6.6-67.8 17.1-20.2 10.6-37.1 26.1-48.9 44.7-7.7 12.3-10.3 23.9-7.4 33.5 2.4 7.8 7.9 12.7 12.3 14.6 1.4.6 2.9.9 4.7.9 9.3 0 34.7-9.3 45.7-24.8 8.4 4.5 17.6 6.7 28.1 6.7 12.6 0 25-3.2 36.4-6.9 3-1 3.8-2.2 3.9-4.1 0-1.3-1.2-3.6-3.8-3.5-.3 0-.7.1-1 .2-11.2 3.6-23.3 6.9-35.4 6.9-9.3 0-18.6-2-27.4-7.4-.6-.4-1.3-.5-1.9-.5-1.3 0-2.5.6-3.2 1.8l-.1.1c-7.9 14.3-33.3 24.1-41.2 24.1-.7 0-1.3-.1-1.7-.3-2.8-1.2-6.6-4.6-8.2-10-2.3-7.5 0-17 6.6-27.4 22.5-35.7 63.4-57.1 110.6-58.3 1.4-.1 3-.1 4.6-.1"/>
      <path d="M516.6 399.4c-1-.4-2-.7-3-.3-19.7 6.3-42.5 12-62.8-.5-1.7-1.1-4-.5-5.1 1.2l-.1.1c-8.6 15.7-38.3 26-43 23.9-2.8-1.2-6.6-4.6-8.2-10-2.3-7.5 0-17 6.6-27.4 22.5-35.7 63.4-57.1 110.6-58.3 3.1-.1 6.3-.1 9.5 0 20.6.6 39.5 6.5 55.9 17 13.2 8.5 19.7 12.7 30.6 33.6 5.6 10.5-84.4 23.5-91 20.7z" class="st0" fill="#fc0"/>
    </g>
    <g id="LeftEar--group">
      <path d="M701.4 357.1c-.5 1.7-1.2 3.4-2 5.2-5 10-17.7 23-38 29.1-4.5 1.4-9.3 2-14 2h-.1c-13 0-34.2-4.9-61.6-28.3-1.9-1.7-5.1-4.8-7.1-7-2.3-2.5-2.8-6.1-1.5-9.1s4.4-5.1 7.8-5.1h.5c13.9.8 30.1 1.2 48.4 1.2 8.1 0 14.8-.1 19.3-.1h4.5c7.4 0 13.3-.1 18.2-.1 8.1 0 13.7.1 17.1.2 2.9.1 5.6 1.5 7.3 3.9 1.5 2.3 2 5.2 1.2 8.1z"/>
      <path d="M590.4 359.4c25.7 21.9 45.1 26.5 56.8 26.5h.1c4 0 8-.6 11.9-1.7 18.1-5.4 29.2-16.6 33.5-25.3.8-1.5 1.2-2.8 1.5-3.9.4-1.3-.6-2.6-1.9-2.7-3.3-.1-8.9-.2-16.7-.2-5.4 0-11.6 0-18.2.1-3.3 0-12.2.2-23.9.2-13.9 0-31.7-.2-48.8-1.2h-.1c-.9 0-1.5 1.1-.8 1.8 2 2.2 5 5.1 6.6 6.4z" class="st1" fill="#f80"/>
    </g>
    <g id="Face--group">
      <path d="M417.6 376.2c-4.1 0-7.4 3.3-7.4 7.4 0 9.9 14.8 9.9 14.8 0 0-4.1-3.3-7.4-7.4-7.4z"/>
      <path d="M503.2 355.7c-4.1 0-7.4 3.3-7.4 7.4 0 9.9 14.8 9.9 14.8 0 0-4.1-3.3-7.4-7.4-7.4z"/>
      <path d="M457.9 375.4c-7.4.8-12.3 2.5-15.6 4.9-5.9 4.4-4.1 9.9 2.5 10.7 6.6.8 7.1 1.2 13.2-3.3 6.5-4.9 7.3-13.1-.1-12.3z"/>
    </g>
  </g>
  <g id="LeftLeg--group">
    <path d="M512.4 655.2c-4.6-5.2-3.7-15.7-1.9-29.4 2.6-19.8 5-34.5 25.4-50.8 24.4-19.5 62.2-15 76.2-.5 3.6 3.7 6.7 10.9 7.3 18.8.9 11.4-22.2 42.4-44.8 51.8-22.6 9.6-54 19.3-62.2 10.1z" class="st0" fill="#fc0"/>
    <path d="M512.4 658.9c-1.2 0-2.3-.5-3-1.6-4.7-6.7-4.5-17.2-2.6-32 2.5-19 4.6-35.5 26.8-53.2 26.8-21.4 63.7-14 78.4.7 1.4 1.4 1.4 3.8 0 5.2-1.4 1.4-3.8 1.4-5.2 0-12.5-12.5-45.4-18.7-68.6-.1-18.9 15.1-21.4 28.2-24.1 48.4-1.4 11-2.3 21.8 1.3 26.7 1.2 1.7.8 4-.9 5.2-.6.5-1.4.7-2.1.7z"/>
  </g>
  <g id="LeftFoot--group">
    <path d="M523.7 651.2c-.4 1.9-2 9.1-6.7 16.2-7 10.6-17.8 16.5-30.4 16.5-7.2 0-12.9-2.1-16.8-6.2-7.5-7.8-7.1-21-6.7-33.7v-.1c.2-6.4.4-13.1-.4-18.5-.7-4.4-1.8-9.1-3.1-14.5-2.4-10.2-4.6-20.1-4.3-28.7.4-10.7 4.7-18.9 12.8-24.4 3.5-2.4 7.4-3.5 11.4-3.5 9.3 0 18.9 6.2 28.7 18.6 7.1 8.9 13.1 20 15.4 28.1 6.4 21.8 4.9 34.9.1 50.2z"/>
    <path d="M477 670.8c2 2.1 5.2 3.1 9.6 3.1 22.6 0 27-23.7 27.2-24.7 0-.2.1-.4.1-.6 4.4-13.9 5.7-25.2 0-44.8-3.7-13.2-21.1-39.4-34.4-39.4-2 0-4 .6-5.8 1.9-11.7 7.8-9.3 21.8-4.4 42.4 1.2 5.1 2.5 10.4 3.2 15.3 1 6.4.8 13.5.5 20.4-.2 10.6-.6 21.6 4 26.4z" class="st0" fill="#fc0"/>
  </g>
  <g id="LeftArm--group">
    <g id="BeforeLeftArm--part"/>
    <path d="M478 413.3c-6.4 2.9-12.4 6.6-17.6 11.1-12.1 10.6-12.6 19.4-10.8 24.8 2.5 7.7 11.1 13.4 21.9 14.6 7.1.7 16.2-1.3 26.7-3.6 13.9-3.1 29.7-6.6 42.9-3.9 19.6 4.1 33.3 15 53.1 32.7l10.3 9.2c1.5 1.3 3.9 1.2 5.2-.4 1.3-1.5 1.2-3.9-.4-5.2l-2.9-2.6c-24-21.7-39.9-36-63.8-41-14.8-3.1-31.3.6-46 3.9-9.5 2.1-18.5 4.1-24.3 3.5-7.8-.8-14.1-4.6-15.7-9.5-1.5-4.7 1.6-10.7 8.7-17 20.7-18.2 59.1-23.7 87.5-12.5 4.7 1.9 7.4-5.1 2.7-6.9-11.4-4.4-24.6-6.6-37.7-6.2-10.1.4-30.5 4.8-39.8 9z"/>
    <path d="M615.4 451c11.7 12.2 17 60.3-6 41.6l-2.9-2.6c-24-21.7-39.9-36-63.8-41-14.8-3.1-31.3.6-46 3.9-9.5 2.1-18.5 4.1-24.3 3.5-7.8-.8-14.1-4.6-15.7-9.5-1.5-4.7 1.6-10.7 8.7-17 20.7-18.2 59.3-24 87.5-12.5 4.6 2 46.1 16.5 62.5 33.6z" class="st0" fill="#fc0"/>
  </g>
  <g id="RightHand--group">
    <g id="BeforeRightHand--part"/>
    <path d="M390.6 457c-5.2 5.1-11.7 8.1-17.8 8.1-8.1 0-14-5.1-15.6-13.3-1-5.4.9-11.3 5.4-16.7 5.8-6.9 14.9-12 21.7-12.1h.2c1.3 0 2.6.2 3.8.6h.2l.1.1c4.5 1.8 7.9 6.2 9.1 11.8 1.4 7.5-1.2 15.5-7.1 21.5z"/>
    <path d="M385.4 451.7c4.2-4.2 6-9.6 5-14.7-.6-3.1-2.3-5.5-4.6-6.4-.4-.1-.9-.2-1.3-.2h-.1c-4 0-11.3 3.6-16.1 9.4-1.8 2.1-4.6 6.3-3.8 10.6 1.1 6 5.1 7.3 8.3 7.3 4.1 0 8.8-2.2 12.6-6z" class="st0" fill="#fc0"/>
  </g>
</svg>
