<svg version="1.1" id="wapuugotchi_svg__item" viewBox="0 0 1e3 1e3" xmlns="http://www.w3.org/2000/svg">
  <g class="LeftFoot--group">
    <path d="M500.15 678.42c5.228-2.513 13.921-9.27 16.484-12.814 1.442-1.994 1.822-4.448 1.773-11.458-.108-15.656 2.63-28.546 8.448-39.773 2.46-4.748 2.455-4.62.674-14.695-2.818-15.947-7.842-25.014-17.556-31.69-1.814-1.246-7.281-4.317-7.864-4.416-.076-.013.622 1.386 1.55 3.11 7.151 13.278 7.507 27.221 1.728 67.835-4.044 28.422-6.462 37.18-12.537 45.404-.52.704-.958 1.361-.976 1.461-.059.347 5.615-1.686 8.277-2.966z" fill="#fff"/>
    <path d="M485.41 681.68c7.856-4.29 12.618-19.71 17.168-55.583 4.682-36.911 3.677-49.962-4.703-61.061-2.69-3.564-4.095-4.517-1.847-1.255 9.558 13.876 9.977 28.678 2.108 74.534-4.531 26.406-7.142 36.861-10.18 40.769-.848 1.091-1.156-.105-.41-1.597 7.223-14.451 16.946-78.219 14.443-94.729-1.462-9.643-7.72-22.234-11.708-23.556l-1.108-.367 1.168 1.206c8.72 9.007 11.332 23.114 8.963 48.396-3.679 39.263-9.284 64.118-16.47 73.026-.52.646-.956 1.226-.967 1.29-.047.275 2.469-.486 3.542-1.072z" fill="#fff"/>
    <path d="m475.38 682.5c3.708-1.5 7.5-6.987 10.556-15.272 2.804-7.603 9.304-51.444 10.288-69.388 2.762-50.363-35.712-54.862-41.729-4.88-5.528 45.923 6.045 95.54 20.884 89.54z" fill="#fff"/>
    <path d="M470.03 673.88c-3.819-2.454-6.932-4.529-6.917-4.61.185-1.031.885-.698 7.712 3.665 5.382 3.441 7.036 4.634 6.971 5.03-.128.797-.347.682-7.766-4.085zm-.441-7.255c-4.812-3.042-8.735-5.597-8.72-5.678.205-1.015.941-.648 9.446 4.708 10.246 6.452 9.003 5.573 8.67 6.134-.363.611.405 1.033-9.396-5.164zm.317-6.756c-10.188-6.348-10.52-6.585-9.875-7.042.544-.385 20.652 12.078 20.439 12.67-.27.747-.72.508-10.564-5.627zm.1-6.84a3801.65 3801.65 0 0 0-11.892-7.653c-.373-.222-.003-1.085.432-1.01.148.025 5.188 3.207 11.201 7.071a7507.69 7507.69 0 0 0 11.963 7.68c.737.466.958.775.775 1.083-.385.648-.114.804-12.478-7.171zm-.164-8.359c-10.906-7.559-12.282-8.65-11.367-9.02.542-.219 24.115 16.27 23.937 16.743-.284.756-.753.467-12.57-7.722zm.616-8.139c-6.868-4.73-12.475-8.667-12.46-8.749.184-1.084 1.004-.607 12.098 7.05 14.406 9.942 13.496 9.283 13.421 9.721-.139.812-.998.284-13.059-8.022zm1.148-9.814c-13.122-8.34-13.248-8.428-12.603-8.885.642-.455 26.035 15.761 25.732 16.433-.304.672.821 1.318-13.13-7.548zm.853-12.572c-13.257-8.186-15.987-10.135-13.629-9.732.285.049 27.838 17.045 28.027 17.29 1.64 2.11-.917.768-14.398-7.558zm1.473-11.785c-15.362-10.13-14.99-9.862-14.498-10.433.261-.302 2.38.983 10.75 6.519a11840.25 11840.25 0 0 0 14.608 9.652c3.777 2.487 4.634 3.313 3.794 3.653-.14.057-6.735-4.17-14.654-9.39zm.179-8.57c-12.968-8.685-14.663-9.957-13.758-10.323.463-.188 28.426 18.648 28.446 19.16.036.957-.956.36-14.688-8.837zm.626-5.898c-12.322-8.236-16.114-11.152-12.883-9.907 1.724.665 27.214 18.06 27.136 18.518-.142.829-.022.9-14.253-8.61zm.018-7.955c-11.373-8.044-10.518-7.373-10.08-7.913.445-.546 21.823 14.348 21.463 14.954-.4.675-.988.312-11.383-7.041zm.613-6.882c-5.619-4.065-7.078-5.253-6.873-5.595.386-.651.264-.726 7.78 4.743 3.846 2.8 7.027 5.111 7.069 5.136.149.09-.47.955-.655.915-.104-.022-3.399-2.362-7.321-5.2z" fill="#f0dea0"/>
    <path d="M491.87 681.39c.017-.1.456-.758.976-1.461 6.076-8.225 8.493-16.982 12.537-45.404 5.778-40.614 4.94-54.488-2.212-67.767-.929-1.724-2.593-3.813-1.274-3.524 1.749.383 9.77 5.195 12.841 8.04 4.94 4.576 5.443 7.166 5.753 17.742.135 4.628.427 5.57 1.797 5.804 1.67.286 2.264-1.168 2.328-5.709.011-.752.305-.083.995 2.268l.98 3.334-.6 4.78c-.67 5.35-.573 5.75 1.444 5.922 2.23.19 2.465 4.154-.1 9.103-5.82 11.227-8.557 24.082-8.45 39.738.075 10.738-1.463 13.267-11.912 20.613-4.849 3.409-15.311 7.736-15.103 6.521zm24.364-21.95c.127-.144.078-1.366-.107-2.718-1.567-11.406 2.787-35.796 7.245-40.587.73-.784.351-1.793-.491-1.307-2.134 1.231-6.795 15.87-7.775 24.413-1.258 10.974-.632 22.193 1.128 20.2zm-3.44-1.532c1.086-.589 1.112-.73.978-5.392-.242-8.39 1.045-18.25 3.868-29.647l.583-2.354-1.971-10.25c-2.244-11.67-2.791-12.877-5.098-11.245-1.055.747-1.037.949 1.071 11.705l1.968 10.038-.854 3.07c-2.809 10.093-3.92 19.424-3.555 29.853.144 4.125.993 5.316 3.01 4.222z" fill="#d23b35"/>
    <path d="M481 553.32c-8.804.037-17.148 4.58-22.262 12.736-16.452 26.24-10.69 107.22 8.492 119.35h.002c3.018 1.906 7.944 2.311 15.338 1.262 2.067-.293 4.873-.636 6.238-.762 8.648-.8 18.936-6.09 27.49-14.135 5.124-4.818 6.352-8.367 6.127-17.701-.181-7.545-.094-8.764 1.17-16.135 1.695-9.89 3.487-15.613 6.817-21.768 2.94-5.436 2.978-7.684.34-20.521-4.222-20.55-13.838-31.5-33.426-38.061-2.065-.692-4.65-1.64-5.746-2.104-3.481-1.476-7.068-2.179-10.58-2.164zm-3.76 4.362c10.582-.006 20.436 13.79 18.99 40.152-.984 17.944-7.485 61.784-10.29 69.387-3.055 8.285-6.847 13.774-10.556 15.273-14.84 6-26.411-43.617-20.883-89.54 2.867-23.82 13.104-35.267 22.738-35.272zm11.934 1.152 1.108.367c3.988 1.323 10.248 13.914 11.709 23.557 2.503 16.51-7.22 80.277-14.443 94.73-.746 1.491-.439 2.688.41 1.597 3.038-3.909 5.648-14.363 10.18-40.769 7.868-45.856 7.451-60.659-2.108-74.535-2.248-3.262-.844-2.308 1.846 1.255 8.38 11.1 9.384 24.15 4.703 61.061-4.55 35.873-9.313 51.294-17.168 55.584-1.074.587-3.588 1.349-3.541 1.073.01-.063.446-.644.967-1.29 7.185-8.907 12.79-33.764 16.469-73.026 2.369-25.282-.244-39.388-8.963-48.394zm12.936 4.736c.582.1 6.049 3.17 7.863 4.416 9.714 6.676 14.738 15.742 17.557 31.69 1.78 10.074 1.786 9.947-.674 14.694-5.819 11.227-8.556 24.118-8.447 39.773.048 7.01-.331 9.463-1.774 11.457-2.562 3.545-11.256 10.302-16.484 12.814-2.66 1.28-8.334 3.314-8.275 2.967.017-.1.455-.76.975-1.463 6.076-8.225 8.493-16.982 12.537-45.404 5.778-40.614 5.423-54.557-1.729-67.836-.928-1.723-1.625-3.122-1.549-3.109zm21.148 51.123a.869.869 0 0 0-.373.127c-2.134 1.231-6.796 15.87-7.776 24.412-.925 8.068-.836 18.166.175 19.955.808 1.432 1.217.235.845-2.472-1.567-11.406 2.788-35.797 7.246-40.588.61-.655.446-1.469-.117-1.434z" fill="#080808"/>
  </g>
  <g class="RightFoot--group">
    <path d="M386.06 637.09c1.72-5.933 1.56-7.596-1.873-19.321-9.786-33.425-23.93-58.307-35.754-62.902-3.665-1.424-14.4-2.7-11.263-1.34 10.164 4.41 16.59 10.457 22.731 21.395 8.227 14.653 23.05 51.556 24.637 61.342.6 3.696.678 3.739 1.522.826z" fill="#fff"/>
    <path d="M380.19 651.95c3.154-8.98.54-20.02-11.738-49.569-11.477-27.622-18.398-38.127-28.484-43.236-1.91-.967-1.74-.818 1.61 1.419 9.584 6.397 17.059 19.132 28.984 49.38 7.386 18.736 10.07 27.262 10.307 32.743.079 1.832-.696 2.727-.895 1.032-1.66-14.171-19.707-58.96-29.185-72.427-4.417-6.277-12-12.152-17.9-13.87-.986-.286-1.617-.634-1.617-.89 0-.319-.417-.42-1.694-.411l-1.695.011 2.506.825c14.997 4.94 23.434 16.534 37.593 51.66 10.452 25.93 12.842 35.324 11.254 44.246-.31 1.745.19 1.266.956-.913z" fill="#fff"/>
    <path d="m370.26 660.73c6.072-2.984 7.307-14.366 2.966-27.335-8.213-24.532-21.147-53.096-27.635-61.032-15.261-18.665-37.286-16.392-40.29 4.157-4.156 28.452 46.03 93.511 64.96 84.21z" fill="#fff"/>
    <path d="M353.38 651.92c0-.622 13.02-1.789 19.054-1.708 1.251.017.542 1.186-.73 1.203-.755.01-5.187.243-9.849.518-8.043.474-8.475.474-8.475-.013zm-6.19-4.891c0-.725-.124-.71 12.87-1.538 11.455-.729 11.302-.728 11.302-.054 0 .489-.847.582-10.834 1.193-5.958.364-11.397.738-12.087.83-1.118.15-1.252.104-1.252-.432zm-5.012-5.027c0-.712-.44-.662 14.592-1.669 5.999-.402 11.47-.795 12.16-.875 1.088-.126 1.252-.07 1.252.422 0 .727.133.711-13.708 1.63-6.162.41-11.899.82-12.75.912-1.405.152-1.548.113-1.547-.42zm-5.602-5.355c0-.484.198-.59 1.106-.592.608 0 7.738-.398 15.845-.881 17.8-1.06 16.36-1.035 16.36-.297 0 .47-.196.59-.957.592-.527 0-7.591.398-15.698.883-17.804 1.066-16.656 1.045-16.656.295zm-3.831-6.445c0-.714 1.09-.79 17.393-1.22 6.242-.165 12.409-.333 13.703-.373 1.994-.062 2.368 0 2.449.416.127.66-1.294.757-16.447 1.13-6.729.165-13.328.373-14.666.462-2.273.15-2.433.124-2.433-.415zm-3.833-6.487c0-.597.143-.637 2.284-.643 1.257-.004 7.856-.2 14.666-.435 16.926-.586 17.835-.581 17.835.088 0 .498-.78.555-12.308.895-6.77.2-14.596.446-17.393.547-5.069.183-5.085.182-5.085-.453zm-3.833-7.422c0-.415.197-.59.663-.59.365 0 7.935-.465 16.822-1.032 19.246-1.23 17.89-1.196 17.89-.442 0 .475-.196.59-1.013.59-.557 0-8.284.464-17.172 1.032-19.127 1.221-17.19 1.172-17.19.442zm-6.27-9.424c-.13-.495.05-.593 1.366-.742 1.265-.142 31.354-2.33 35.56-2.586 1.041-.063 1.34.025 1.417.416.13.66.54.617-19.247 2.009-9.24.65-17.285 1.247-17.875 1.327-.881.12-1.098.045-1.22-.424zm-4.931-10.032c0-.727.013-.728 19.604-1.63 8.755-.403 17.013-.813 18.35-.911 2.29-.168 2.433-.144 2.433.406 0 .708.635.658-21.225 1.677-8.512.397-16.306.788-17.319.868-1.66.131-1.843.09-1.843-.41zm-3.243-6.797c0-.525.203-.592 1.843-.61 1.014-.01 9.92-.374 19.79-.81 18.004-.796 18.993-.786 18.04.17-.17.17-33.695 1.773-38.124 1.822-1.357.016-1.547-.055-1.548-.572zm-1.179-4.72c0-.395.197-.59.596-.59 1.068 0 32.8-1.443 35.12-1.596 2.114-.14 3.168.25 2.495.922-.096.097-35.267 1.822-37.695 1.849-.321.004-.516-.217-.516-.585zm.884-6.396c0-.65-1.866-.552 22.183-1.17 7.46-.192 7.592-.185 7.592.395 0 .572-.263.596-8.623.787-4.743.109-11.442.283-14.887.388-6.132.186-6.264.178-6.265-.4zm2.064-5.603c0-.568.263-.597 7.296-.784 12.208-.324 13.045-.3 13.045.395 0 .563-.197.59-4.375.59-2.406 0-6.983.087-10.17.194-5.663.19-5.797.18-5.796-.395z" fill="#f0dea0"/>
    <path d="M384.53 636.26c-1.588-9.786-16.409-46.689-24.637-61.342-6.14-10.937-12.732-16.875-22.853-21.382-2.563-1.141 4.83-.457 7.217.049 8.16 1.73 13.796 6.563 20.155 17.278 2.196 3.7 5.585 10.029 5.37 10.029-.133 0-3.77-4.814-5.07-6.71-1.17-1.706-3.601-.146-2.673 1.715 1.406 2.82 6.993 9.36 10.139 11.87.88.702 1.107 1.263 2.558 6.313 2.792 9.731 5.778 17.333 7.797 19.855 1.154 1.442 4.05 11.166 4.59 15.803.314 2.702-.845 8.993-1.863 9.619-.205.126-.729-1.346-.73-3.098z" fill="#d23b35"/>
    <path d="M361.41 664.96c-16.756-4.393-43.467-35.205-55.361-63.859-9.876-23.794-4.42-40.667 15.346-47.451a799.764 799.764 0 0 0 6.78-2.363c24.428-8.679 40.975 8.514 57.935 60.195 6.169 18.798 6.205 22.961.307 35.046-.95 1.947-1.882 4.204-2.07 5.015-2.033 8.732-14.034 15.752-22.938 13.418zm8.853-4.224c6.072-2.983 7.307-14.366 2.966-27.335-8.213-24.532-21.147-53.096-27.635-61.032-15.261-18.665-37.286-16.392-40.29 4.158-4.156 28.452 46.03 93.51 64.96 84.21zm9.928-8.78c3.154-8.98.54-20.02-11.738-49.569-11.477-27.622-18.398-38.127-28.484-43.236-1.91-.967-1.74-.818 1.61 1.419 9.584 6.397 17.059 19.132 28.984 49.38 7.386 18.736 10.07 27.262 10.307 32.743.079 1.832-.696 2.727-.895 1.032-1.66-14.171-19.707-58.96-29.185-72.427-4.417-6.277-12-12.152-17.9-13.87-.986-.286-1.617-.634-1.617-.89 0-.319-.417-.42-1.694-.411l-1.695.011 2.506.825c14.997 4.94 23.434 16.534 37.593 51.66 10.452 25.93 12.842 35.324 11.254 44.246-.31 1.745.19 1.266.956-.913zm5.867-14.868c1.72-5.933 1.56-7.596-1.873-19.321-9.786-33.425-23.93-58.307-35.754-62.902-3.665-1.424-14.4-2.7-11.263-1.34 10.164 4.41 16.59 10.457 22.731 21.395 8.228 14.653 23.05 51.556 24.637 61.342.6 3.696.678 3.739 1.523.826z"/>
  </g>
</svg>
