<svg xmlns="http://www.w3.org/2000/svg" id="wapuugotchi_svg__wapuu" x="0" y="0" version="1.1" viewBox="0 0 1000 1000">
	<g id="RightArm--group">
		<path d="M436.6 504c-4.5 5.1-10.5 7.9-17 7.9-9.1 0-18.5-5.5-24.4-14.4-7.8-11.6-15.5-21.2-22.3-27.9l-4.8-4.7c-2-2-1.1-5.3 1.6-6.1l6.5-1.7c3.2-.9 6.4-2.7 9.1-5.5 3-3 4.8-6.7 5.2-10.4V430c0-1.3 1.5-2.1 2.5-1.3l9.3 6.9c.7.5 1.7 1.1 2.9 1.7 10.2 4.9 31.7 27.4 35.7 46.7 2.1 10.1-1.2 16.5-4.3 20z"/>
		<path d="M402.1 444.1c-1.5-.7-2.9-1.5-4.2-2.4-.5 5.5-3 11-7.3 15.3-3.7 3.7-8.1 6.2-12.5 7.4 8.7 8.6 17 19.8 23.2 29.1 4.5 6.7 11.6 11.1 18.3 11.1 4.1 0 8.1-1.6 11.4-5.4 13-14.8-17.3-49.6-28.9-55.1z" class="st0" fill="#fc0"/>
	</g>
	<g id="Tail--group">
		<path d="M599.1 649.5c-9 25.7-26.4 50-50.3 70.3-23.8 20.3-51.8 34.7-81 41.6-6.9 1.6-14.1 2.5-21.5 2.5-30.8 0-58.9-13.9-74.8-27-13.6-11.1-21.2-23.3-20.9-33.5.4-12 6.7-20.7 16.8-23.3 2.1-.5 4.3-.8 6.7-.8 11.2 0 27.2 6.7 38.5 25.7 7.8 13.2 22 20.1 41.1 20.1h1.2c40.7-.8 87.6-31.2 109.1-70.8 7.7-14.1 13.2-29.6 17.1-40.8 1.9-5.4 3.6-10.1 5.1-13.5 1.3-3.1 4.1-9.4 10.4-9.4 4.1 0 7.6 1.8 9.9 5 5.5 7.6 3.3 23.3-7.4 53.9z"/>
		<path d="M570.5 657.8c-22.7 41.7-72.5 73.9-115.5 74.7h-1.4c-21.6 0-38.3-8.4-47.4-23.8-9-15.1-22-22.1-32.1-22.1-1.7 0-3.3.2-4.8.6-7 1.8-11 7.6-11.3 16.4-.3 7.7 6.6 18 18.2 27.5 16.8 13.7 43.2 25.3 70.1 25.3 6.6 0 13.3-.7 19.8-2.3 57.2-13.5 108.5-57.4 126-107.1 5.4-15.3 16.7-49.2 4.5-49.2-4.5.1-10.8 31.8-26.1 60z" class="st1" fill="#f80"/>
	</g>
	<g id="Body--group">
		<path d="M649.7 531.9c-2 24-6.7 45.1-13.9 62.9-8.5 20.9-20.3 36.6-35.1 46.8-34 23.4-64.8 26-76.4 26-1.3 0-2.5 0-3.8-.1-18.4-.8-26-4.4-32.7-7.5-5.9-2.8-11-5.2-24.9-5.7-37.5-1.5-67-9.9-83.1-23.6-.2-.1-.5-.4-.9-.7-4.8-3.5-19.3-14.3-25-24.7-5.3-9.7-6.2-22.3-2.3-31.4 13.4-31.2 24.5-40.5 33.5-48 3.6-3 6.4-5.3 8.8-8.7 2.2-3.1 3.8-7.1 4.9-12.2 0-.1 0-.2.1-.3 3.9-15 3.4-34.9 2.8-56-.2-5.7-.3-11.7-.4-17.5v-.1c0-18.6 9.6-40.7 25.7-59.2 18.1-20.8 41.6-33.6 66.1-36.2 20.2-2.1 34.3-3.1 45.9-3.1 43.7 0 58.6 14.8 82.2 48.4 7.5 10.6 12.1 22.5 16 33.7 11.1 30.4 15.9 76.5 12.5 117.2z"/>
		<path d="M358.5 576.7c-3 7-2.2 17.4 2 25 5.6 10.3 23 22.2 24.1 23.2 15.1 12.9 43.7 20.5 78.7 21.9 31.2 1.3 24.3 11.8 57.6 13.3 1.1 0 2.2.1 3.5.1 16.7 0 43.7-5 72.2-24.7 58-39.9 52.9-165.3 34-218.6-3.9-11.1-8.3-22.2-15.1-31.9-23.5-33.5-36.6-45.2-76.2-45.2-12.2 0-26.9 1.1-45.1 3.1-49.9 5.3-85.3 55.3-85.3 88.1.3 27.4 2.5 55.1-2.7 75.5-1.4 6.5-3.4 11.2-6 14.9-9.8 13.5-23.4 12.4-41.7 55.3z" class="st0" fill="#fc0"/>
	</g>
	<g id="RightHand--group">
		<g id="BeforeRightHand--part"/>
		<path d="M390.6 457c-5.2 5.1-11.7 8.1-17.8 8.1-8.1 0-14-5.1-15.6-13.3-1-5.4.9-11.3 5.4-16.7 5.8-6.9 14.9-12 21.7-12.1h.2c1.3 0 2.6.2 3.8.6h.2l.1.1c4.5 1.8 7.9 6.2 9.1 11.8 1.4 7.5-1.2 15.5-7.1 21.5z"/>
		<path d="M385.4 451.7c4.2-4.2 6-9.6 5-14.7-.6-3.1-2.3-5.5-4.6-6.4-.4-.1-.9-.2-1.3-.2h-.1c-4 0-11.3 3.6-16.1 9.4-1.8 2.1-4.6 6.3-3.8 10.6 1.1 6 5.1 7.3 8.3 7.3 4.1 0 8.8-2.2 12.6-6z" class="st0" fill="#fc0"/>
	</g>
	<g id="RightFoot--group">
		<path d="M384.3 648c-2.4 3.7-6.4 5.7-11.5 5.7-1.9 0-4-.3-6.2-.8-25-6-59.3-43.6-63.6-64.5-1.9-9.4-.2-18 5-24.4 4.6-5.7 11.4-8.8 18.9-8.8 6.8 0 13.6 2.5 19.8 7.3 12.2 9.4 32.9 50.5 37.3 60.7 2.5 5.8 4.9 17.7.3 24.8z"/>
		<path d="M310.1 586.8c3.8 18.2 36.2 53.6 58.1 58.8 1.7.4 3.2.6 4.5.6 3.4 0 4.7-1.3 5.4-2.3 2.3-3.5 1.5-12.1-1-17.9-6.1-13.9-25.3-50.3-35.1-57.8-4.9-3.8-10.2-5.8-15.3-5.8-5.3 0-10 2.2-13.2 6.1-3.6 4.7-4.8 11.2-3.4 18.3z" class="st0" fill="#fc0"/>
		<g class="RightFoot--group">
			<path d="M386.06 637.09c1.72-5.933 1.56-7.596-1.873-19.321-9.786-33.425-23.93-58.307-35.754-62.902-3.665-1.424-14.4-2.7-11.263-1.34 10.164 4.41 16.59 10.457 22.731 21.395 8.227 14.653 23.05 51.556 24.637 61.342.6 3.696.678 3.739 1.522.826z" fill="#fff"/>
			<path d="M380.19 651.95c3.154-8.98.54-20.02-11.738-49.569-11.477-27.622-18.398-38.127-28.484-43.236-1.91-.967-1.74-.818 1.61 1.419 9.584 6.397 17.059 19.132 28.984 49.38 7.386 18.736 10.07 27.262 10.307 32.743.079 1.832-.696 2.727-.895 1.032-1.66-14.171-19.707-58.96-29.185-72.427-4.417-6.277-12-12.152-17.9-13.87-.986-.286-1.617-.634-1.617-.89 0-.319-.417-.42-1.694-.411l-1.695.011 2.506.825c14.997 4.94 23.434 16.534 37.593 51.66 10.452 25.93 12.842 35.324 11.254 44.246-.31 1.745.19 1.266.956-.913z" fill="#fff"/>
			<path d="m370.26 660.73c6.072-2.984 7.307-14.366 2.966-27.335-8.213-24.532-21.147-53.096-27.635-61.032-15.261-18.665-37.286-16.392-40.29 4.157-4.156 28.452 46.03 93.511 64.96 84.21z" fill="#fff"/>
			<path d="M353.38 651.92c0-.622 13.02-1.789 19.054-1.708 1.251.017.542 1.186-.73 1.203-.755.01-5.187.243-9.849.518-8.043.474-8.475.474-8.475-.013zm-6.19-4.891c0-.725-.124-.71 12.87-1.538 11.455-.729 11.302-.728 11.302-.054 0 .489-.847.582-10.834 1.193-5.958.364-11.397.738-12.087.83-1.118.15-1.252.104-1.252-.432zm-5.012-5.027c0-.712-.44-.662 14.592-1.669 5.999-.402 11.47-.795 12.16-.875 1.088-.126 1.252-.07 1.252.422 0 .727.133.711-13.708 1.63-6.162.41-11.899.82-12.75.912-1.405.152-1.548.113-1.547-.42zm-5.602-5.355c0-.484.198-.59 1.106-.592.608 0 7.738-.398 15.845-.881 17.8-1.06 16.36-1.035 16.36-.297 0 .47-.196.59-.957.592-.527 0-7.591.398-15.698.883-17.804 1.066-16.656 1.045-16.656.295zm-3.831-6.445c0-.714 1.09-.79 17.393-1.22 6.242-.165 12.409-.333 13.703-.373 1.994-.062 2.368 0 2.449.416.127.66-1.294.757-16.447 1.13-6.729.165-13.328.373-14.666.462-2.273.15-2.433.124-2.433-.415zm-3.833-6.487c0-.597.143-.637 2.284-.643 1.257-.004 7.856-.2 14.666-.435 16.926-.586 17.835-.581 17.835.088 0 .498-.78.555-12.308.895-6.77.2-14.596.446-17.393.547-5.069.183-5.085.182-5.085-.453zm-3.833-7.422c0-.415.197-.59.663-.59.365 0 7.935-.465 16.822-1.032 19.246-1.23 17.89-1.196 17.89-.442 0 .475-.196.59-1.013.59-.557 0-8.284.464-17.172 1.032-19.127 1.221-17.19 1.172-17.19.442zm-6.27-9.424c-.13-.495.05-.593 1.366-.742 1.265-.142 31.354-2.33 35.56-2.586 1.041-.063 1.34.025 1.417.416.13.66.54.617-19.247 2.009-9.24.65-17.285 1.247-17.875 1.327-.881.12-1.098.045-1.22-.424zm-4.931-10.032c0-.727.013-.728 19.604-1.63 8.755-.403 17.013-.813 18.35-.911 2.29-.168 2.433-.144 2.433.406 0 .708.635.658-21.225 1.677-8.512.397-16.306.788-17.319.868-1.66.131-1.843.09-1.843-.41zm-3.243-6.797c0-.525.203-.592 1.843-.61 1.014-.01 9.92-.374 19.79-.81 18.004-.796 18.993-.786 18.04.17-.17.17-33.695 1.773-38.124 1.822-1.357.016-1.547-.055-1.548-.572zm-1.179-4.72c0-.395.197-.59.596-.59 1.068 0 32.8-1.443 35.12-1.596 2.114-.14 3.168.25 2.495.922-.096.097-35.267 1.822-37.695 1.849-.321.004-.516-.217-.516-.585zm.884-6.396c0-.65-1.866-.552 22.183-1.17 7.46-.192 7.592-.185 7.592.395 0 .572-.263.596-8.623.787-4.743.109-11.442.283-14.887.388-6.132.186-6.264.178-6.265-.4zm2.064-5.603c0-.568.263-.597 7.296-.784 12.208-.324 13.045-.3 13.045.395 0 .563-.197.59-4.375.59-2.406 0-6.983.087-10.17.194-5.663.19-5.797.18-5.796-.395z" fill="#f0dea0"/>
			<path d="M384.53 636.26c-1.588-9.786-16.409-46.689-24.637-61.342-6.14-10.937-12.732-16.875-22.853-21.382-2.563-1.141 4.83-.457 7.217.049 8.16 1.73 13.796 6.563 20.155 17.278 2.196 3.7 5.585 10.029 5.37 10.029-.133 0-3.77-4.814-5.07-6.71-1.17-1.706-3.601-.146-2.673 1.715 1.406 2.82 6.993 9.36 10.139 11.87.88.702 1.107 1.263 2.558 6.313 2.792 9.731 5.778 17.333 7.797 19.855 1.154 1.442 4.05 11.166 4.59 15.803.314 2.702-.845 8.993-1.863 9.619-.205.126-.729-1.346-.73-3.098z" fill="#d23b35"/>
			<path d="M361.41 664.96c-16.756-4.393-43.467-35.205-55.361-63.859-9.876-23.794-4.42-40.667 15.346-47.451a799.764 799.764 0 0 0 6.78-2.363c24.428-8.679 40.975 8.514 57.935 60.195 6.169 18.798 6.205 22.961.307 35.046-.95 1.947-1.882 4.204-2.07 5.015-2.033 8.732-14.034 15.752-22.938 13.418zm8.853-4.224c6.072-2.983 7.307-14.366 2.966-27.335-8.213-24.532-21.147-53.096-27.635-61.032-15.261-18.665-37.286-16.392-40.29 4.158-4.156 28.452 46.03 93.51 64.96 84.21zm9.928-8.78c3.154-8.98.54-20.02-11.738-49.569-11.477-27.622-18.398-38.127-28.484-43.236-1.91-.967-1.74-.818 1.61 1.419 9.584 6.397 17.059 19.132 28.984 49.38 7.386 18.736 10.07 27.262 10.307 32.743.079 1.832-.696 2.727-.895 1.032-1.66-14.171-19.707-58.96-29.185-72.427-4.417-6.277-12-12.152-17.9-13.87-.986-.286-1.617-.634-1.617-.89 0-.319-.417-.42-1.694-.411l-1.695.011 2.506.825c14.997 4.94 23.434 16.534 37.593 51.66 10.452 25.93 12.842 35.324 11.254 44.246-.31 1.745.19 1.266.956-.913zm5.867-14.868c1.72-5.933 1.56-7.596-1.873-19.321-9.786-33.425-23.93-58.307-35.754-62.902-3.665-1.424-14.4-2.7-11.263-1.34 10.164 4.41 16.59 10.457 22.731 21.395 8.228 14.653 23.05 51.556 24.637 61.342.6 3.696.678 3.739 1.523.826z"/>
		</g>
	</g>
	<g id="RightEar--group">
		<path d="M413.3 399.4c-.4 4.4-3.8 8.4-11.1 12.9-4.7 3-10.2 5.5-13.9 6.5-6.5 1.7-12.3 2.6-17.3 2.6-6.7 0-10.6-1.6-12.7-2.9-4.8-3-4.4-7.2-4.2-8.5.5-3.1 2.9-5.5 5.9-6.2 3.5-.8 13.5-5.8 23.6-12.6 4.2-2.9 10.7-4.8 16.1-4.8 5.8 0 9.1 2.2 10.8 4.1 2.1 2.4 3.1 5.5 2.8 8.9z"/>
		<path d="M361.4 411.3c0 .3.4.7.9.9 1.1.7 3.6 1.8 8.8 1.8 4.3 0 9.5-.8 15.4-2.3 5.2-1.4 19.1-8.8 19.5-13 .1-1.3-.2-2.4-.9-3.2-1-1.1-2.8-1.7-5.3-1.7-3.9 0-8.9 1.5-11.9 3.5-8.5 5.7-20.5 12.5-26.1 13.7-.3.1-.4.2-.4.3z" class="st1" fill="#f80"/>
	</g>
	<g id="Head--group">
		<path d="M516.4 328.1c1.6 0 3.2 0 4.8.1 20.6.6 39.5 6.5 55.9 17 11.2 7.2 17.5 11.4 25.9 25.2 1.5 2.5 9 .8 7.9-1.1-10.1-17.6-17.5-22.3-29.8-30.3-17.7-11.4-37.8-17.6-59.7-18.2-1.6 0-3.3-.1-5-.1-1.6 0-3.3 0-4.9.1-24.3.6-47.8 6.6-67.8 17.1-20.2 10.6-37.1 26.1-48.9 44.7-7.7 12.3-10.3 23.9-7.4 33.5 2.4 7.8 7.9 12.7 12.3 14.6 1.4.6 2.9.9 4.7.9 9.3 0 34.7-9.3 45.7-24.8 8.4 4.5 17.6 6.7 28.1 6.7 12.6 0 25-3.2 36.4-6.9 3-1 3.8-2.2 3.9-4.1 0-1.3-1.2-3.6-3.8-3.5-.3 0-.7.1-1 .2-11.2 3.6-23.3 6.9-35.4 6.9-9.3 0-18.6-2-27.4-7.4-.6-.4-1.3-.5-1.9-.5-1.3 0-2.5.6-3.2 1.8l-.1.1c-7.9 14.3-33.3 24.1-41.2 24.1-.7 0-1.3-.1-1.7-.3-2.8-1.2-6.6-4.6-8.2-10-2.3-7.5 0-17 6.6-27.4 22.5-35.7 63.4-57.1 110.6-58.3 1.4-.1 3-.1 4.6-.1"/>
		<path d="M516.6 399.4c-1-.4-2-.7-3-.3-19.7 6.3-42.5 12-62.8-.5-1.7-1.1-4-.5-5.1 1.2l-.1.1c-8.6 15.7-38.3 26-43 23.9-2.8-1.2-6.6-4.6-8.2-10-2.3-7.5 0-17 6.6-27.4 22.5-35.7 63.4-57.1 110.6-58.3 3.1-.1 6.3-.1 9.5 0 20.6.6 39.5 6.5 55.9 17 13.2 8.5 19.7 12.7 30.6 33.6 5.6 10.5-84.4 23.5-91 20.7z" class="st0" fill="#fc0"/>
	</g>
	<g id="LeftEar--group">
		<path d="M701.4 357.1c-.5 1.7-1.2 3.4-2 5.2-5 10-17.7 23-38 29.1-4.5 1.4-9.3 2-14 2h-.1c-13 0-34.2-4.9-61.6-28.3-1.9-1.7-5.1-4.8-7.1-7-2.3-2.5-2.8-6.1-1.5-9.1s4.4-5.1 7.8-5.1h.5c13.9.8 30.1 1.2 48.4 1.2 8.1 0 14.8-.1 19.3-.1h4.5c7.4 0 13.3-.1 18.2-.1 8.1 0 13.7.1 17.1.2 2.9.1 5.6 1.5 7.3 3.9 1.5 2.3 2 5.2 1.2 8.1z"/>
		<path d="M590.4 359.4c25.7 21.9 45.1 26.5 56.8 26.5h.1c4 0 8-.6 11.9-1.7 18.1-5.4 29.2-16.6 33.5-25.3.8-1.5 1.2-2.8 1.5-3.9.4-1.3-.6-2.6-1.9-2.7-3.3-.1-8.9-.2-16.7-.2-5.4 0-11.6 0-18.2.1-3.3 0-12.2.2-23.9.2-13.9 0-31.7-.2-48.8-1.2h-.1c-.9 0-1.5 1.1-.8 1.8 2 2.2 5 5.1 6.6 6.4z" class="st1" fill="#f80"/>
	</g>
	<g id="Face--group">
		<path d="M417.6 376.2c-4.1 0-7.4 3.3-7.4 7.4 0 9.9 14.8 9.9 14.8 0 0-4.1-3.3-7.4-7.4-7.4z"/>
		<path d="M503.2 355.7c-4.1 0-7.4 3.3-7.4 7.4 0 9.9 14.8 9.9 14.8 0 0-4.1-3.3-7.4-7.4-7.4z"/>
		<path d="M457.9 375.4c-7.4.8-12.3 2.5-15.6 4.9-5.9 4.4-4.1 9.9 2.5 10.7 6.6.8 7.1 1.2 13.2-3.3 6.5-4.9 7.3-13.1-.1-12.3z"/>
	</g>
	<g id="LeftLEg--group">
		<path d="M512.4 655.2c-4.6-5.2-3.7-15.7-1.9-29.4 2.6-19.8 5-34.5 25.4-50.8 24.4-19.5 62.2-15 76.2-.5 3.6 3.7 6.7 10.9 7.3 18.8.9 11.4-22.2 42.4-44.8 51.8-22.6 9.6-54 19.3-62.2 10.1z" class="st0" fill="#fc0"/>
		<path d="M512.4 658.9c-1.2 0-2.3-.5-3-1.6-4.7-6.7-4.5-17.2-2.6-32 2.5-19 4.6-35.5 26.8-53.2 26.8-21.4 63.7-14 78.4.7 1.4 1.4 1.4 3.8 0 5.2-1.4 1.4-3.8 1.4-5.2 0-12.5-12.5-45.4-18.7-68.6-.1-18.9 15.1-21.4 28.2-24.1 48.4-1.4 11-2.3 21.8 1.3 26.7 1.2 1.7.8 4-.9 5.2-.6.5-1.4.7-2.1.7z"/>
	</g>
	<g id="LeftFoot--group">
		<path d="M523.7 651.2c-.4 1.9-2 9.1-6.7 16.2-7 10.6-17.8 16.5-30.4 16.5-7.2 0-12.9-2.1-16.8-6.2-7.5-7.8-7.1-21-6.7-33.7v-.1c.2-6.4.4-13.1-.4-18.5-.7-4.4-1.8-9.1-3.1-14.5-2.4-10.2-4.6-20.1-4.3-28.7.4-10.7 4.7-18.9 12.8-24.4 3.5-2.4 7.4-3.5 11.4-3.5 9.3 0 18.9 6.2 28.7 18.6 7.1 8.9 13.1 20 15.4 28.1 6.4 21.8 4.9 34.9.1 50.2z"/>
		<path d="M477 670.8c2 2.1 5.2 3.1 9.6 3.1 22.6 0 27-23.7 27.2-24.7 0-.2.1-.4.1-.6 4.4-13.9 5.7-25.2 0-44.8-3.7-13.2-21.1-39.4-34.4-39.4-2 0-4 .6-5.8 1.9-11.7 7.8-9.3 21.8-4.4 42.4 1.2 5.1 2.5 10.4 3.2 15.3 1 6.4.8 13.5.5 20.4-.2 10.6-.6 21.6 4 26.4z" class="st0" fill="#fc0"/>
		<g class="LeftFoot--group">
			<path d="M500.15 678.42c5.228-2.513 13.921-9.27 16.484-12.814 1.442-1.994 1.822-4.448 1.773-11.458-.108-15.656 2.63-28.546 8.448-39.773 2.46-4.748 2.455-4.62.674-14.695-2.818-15.947-7.842-25.014-17.556-31.69-1.814-1.246-7.281-4.317-7.864-4.416-.076-.013.622 1.386 1.55 3.11 7.151 13.278 7.507 27.221 1.728 67.835-4.044 28.422-6.462 37.18-12.537 45.404-.52.704-.958 1.361-.976 1.461-.059.347 5.615-1.686 8.277-2.966z" fill="#fff"/>
			<path d="M485.41 681.68c7.856-4.29 12.618-19.71 17.168-55.583 4.682-36.911 3.677-49.962-4.703-61.061-2.69-3.564-4.095-4.517-1.847-1.255 9.558 13.876 9.977 28.678 2.108 74.534-4.531 26.406-7.142 36.861-10.18 40.769-.848 1.091-1.156-.105-.41-1.597 7.223-14.451 16.946-78.219 14.443-94.729-1.462-9.643-7.72-22.234-11.708-23.556l-1.108-.367 1.168 1.206c8.72 9.007 11.332 23.114 8.963 48.396-3.679 39.263-9.284 64.118-16.47 73.026-.52.646-.956 1.226-.967 1.29-.047.275 2.469-.486 3.542-1.072z" fill="#fff"/>
			<path d="m475.38 682.5c3.708-1.5 7.5-6.987 10.556-15.272 2.804-7.603 9.304-51.444 10.288-69.388 2.762-50.363-35.712-54.862-41.729-4.88-5.528 45.923 6.045 95.54 20.884 89.54z" fill="#fff"/>
			<path d="M470.03 673.88c-3.819-2.454-6.932-4.529-6.917-4.61.185-1.031.885-.698 7.712 3.665 5.382 3.441 7.036 4.634 6.971 5.03-.128.797-.347.682-7.766-4.085zm-.441-7.255c-4.812-3.042-8.735-5.597-8.72-5.678.205-1.015.941-.648 9.446 4.708 10.246 6.452 9.003 5.573 8.67 6.134-.363.611.405 1.033-9.396-5.164zm.317-6.756c-10.188-6.348-10.52-6.585-9.875-7.042.544-.385 20.652 12.078 20.439 12.67-.27.747-.72.508-10.564-5.627zm.1-6.84a3801.65 3801.65 0 0 0-11.892-7.653c-.373-.222-.003-1.085.432-1.01.148.025 5.188 3.207 11.201 7.071a7507.69 7507.69 0 0 0 11.963 7.68c.737.466.958.775.775 1.083-.385.648-.114.804-12.478-7.171zm-.164-8.359c-10.906-7.559-12.282-8.65-11.367-9.02.542-.219 24.115 16.27 23.937 16.743-.284.756-.753.467-12.57-7.722zm.616-8.139c-6.868-4.73-12.475-8.667-12.46-8.749.184-1.084 1.004-.607 12.098 7.05 14.406 9.942 13.496 9.283 13.421 9.721-.139.812-.998.284-13.059-8.022zm1.148-9.814c-13.122-8.34-13.248-8.428-12.603-8.885.642-.455 26.035 15.761 25.732 16.433-.304.672.821 1.318-13.13-7.548zm.853-12.572c-13.257-8.186-15.987-10.135-13.629-9.732.285.049 27.838 17.045 28.027 17.29 1.64 2.11-.917.768-14.398-7.558zm1.473-11.785c-15.362-10.13-14.99-9.862-14.498-10.433.261-.302 2.38.983 10.75 6.519a11840.25 11840.25 0 0 0 14.608 9.652c3.777 2.487 4.634 3.313 3.794 3.653-.14.057-6.735-4.17-14.654-9.39zm.179-8.57c-12.968-8.685-14.663-9.957-13.758-10.323.463-.188 28.426 18.648 28.446 19.16.036.957-.956.36-14.688-8.837zm.626-5.898c-12.322-8.236-16.114-11.152-12.883-9.907 1.724.665 27.214 18.06 27.136 18.518-.142.829-.022.9-14.253-8.61zm.018-7.955c-11.373-8.044-10.518-7.373-10.08-7.913.445-.546 21.823 14.348 21.463 14.954-.4.675-.988.312-11.383-7.041zm.613-6.882c-5.619-4.065-7.078-5.253-6.873-5.595.386-.651.264-.726 7.78 4.743 3.846 2.8 7.027 5.111 7.069 5.136.149.09-.47.955-.655.915-.104-.022-3.399-2.362-7.321-5.2z" fill="#f0dea0"/>
			<path d="M491.87 681.39c.017-.1.456-.758.976-1.461 6.076-8.225 8.493-16.982 12.537-45.404 5.778-40.614 4.94-54.488-2.212-67.767-.929-1.724-2.593-3.813-1.274-3.524 1.749.383 9.77 5.195 12.841 8.04 4.94 4.576 5.443 7.166 5.753 17.742.135 4.628.427 5.57 1.797 5.804 1.67.286 2.264-1.168 2.328-5.709.011-.752.305-.083.995 2.268l.98 3.334-.6 4.78c-.67 5.35-.573 5.75 1.444 5.922 2.23.19 2.465 4.154-.1 9.103-5.82 11.227-8.557 24.082-8.45 39.738.075 10.738-1.463 13.267-11.912 20.613-4.849 3.409-15.311 7.736-15.103 6.521zm24.364-21.95c.127-.144.078-1.366-.107-2.718-1.567-11.406 2.787-35.796 7.245-40.587.73-.784.351-1.793-.491-1.307-2.134 1.231-6.795 15.87-7.775 24.413-1.258 10.974-.632 22.193 1.128 20.2zm-3.44-1.532c1.086-.589 1.112-.73.978-5.392-.242-8.39 1.045-18.25 3.868-29.647l.583-2.354-1.971-10.25c-2.244-11.67-2.791-12.877-5.098-11.245-1.055.747-1.037.949 1.071 11.705l1.968 10.038-.854 3.07c-2.809 10.093-3.92 19.424-3.555 29.853.144 4.125.993 5.316 3.01 4.222z" fill="#d23b35"/>
			<path d="M481 553.32c-8.804.037-17.148 4.58-22.262 12.736-16.452 26.24-10.69 107.22 8.492 119.35h.002c3.018 1.906 7.944 2.311 15.338 1.262 2.067-.293 4.873-.636 6.238-.762 8.648-.8 18.936-6.09 27.49-14.135 5.124-4.818 6.352-8.367 6.127-17.701-.181-7.545-.094-8.764 1.17-16.135 1.695-9.89 3.487-15.613 6.817-21.768 2.94-5.436 2.978-7.684.34-20.521-4.222-20.55-13.838-31.5-33.426-38.061-2.065-.692-4.65-1.64-5.746-2.104-3.481-1.476-7.068-2.179-10.58-2.164zm-3.76 4.362c10.582-.006 20.436 13.79 18.99 40.152-.984 17.944-7.485 61.784-10.29 69.387-3.055 8.285-6.847 13.774-10.556 15.273-14.84 6-26.411-43.617-20.883-89.54 2.867-23.82 13.104-35.267 22.738-35.272zm11.934 1.152 1.108.367c3.988 1.323 10.248 13.914 11.709 23.557 2.503 16.51-7.22 80.277-14.443 94.73-.746 1.491-.439 2.688.41 1.597 3.038-3.909 5.648-14.363 10.18-40.769 7.868-45.856 7.451-60.659-2.108-74.535-2.248-3.262-.844-2.308 1.846 1.255 8.38 11.1 9.384 24.15 4.703 61.061-4.55 35.873-9.313 51.294-17.168 55.584-1.074.587-3.588 1.349-3.541 1.073.01-.063.446-.644.967-1.29 7.185-8.907 12.79-33.764 16.469-73.026 2.369-25.282-.244-39.388-8.963-48.394zm12.936 4.736c.582.1 6.049 3.17 7.863 4.416 9.714 6.676 14.738 15.742 17.557 31.69 1.78 10.074 1.786 9.947-.674 14.694-5.819 11.227-8.556 24.118-8.447 39.773.048 7.01-.331 9.463-1.774 11.457-2.562 3.545-11.256 10.302-16.484 12.814-2.66 1.28-8.334 3.314-8.275 2.967.017-.1.455-.76.975-1.463 6.076-8.225 8.493-16.982 12.537-45.404 5.778-40.614 5.423-54.557-1.729-67.836-.928-1.723-1.625-3.122-1.549-3.109zm21.148 51.123a.869.869 0 0 0-.373.127c-2.134 1.231-6.796 15.87-7.776 24.412-.925 8.068-.836 18.166.175 19.955.808 1.432 1.217.235.845-2.472-1.567-11.406 2.788-35.797 7.246-40.588.61-.655.446-1.469-.117-1.434z" fill="#080808"/>
		</g>
	</g>
	<g id="LeftArm--group">
		<g id="BeforeLeftArm--part"/>
		<path d="M478 413.3c-6.4 2.9-12.4 6.6-17.6 11.1-12.1 10.6-12.6 19.4-10.8 24.8 2.5 7.7 11.1 13.4 21.9 14.6 7.1.7 16.2-1.3 26.7-3.6 13.9-3.1 29.7-6.6 42.9-3.9 19.6 4.1 33.3 15 53.1 32.7l10.3 9.2c1.5 1.3 3.9 1.2 5.2-.4 1.3-1.5 1.2-3.9-.4-5.2l-2.9-2.6c-24-21.7-39.9-36-63.8-41-14.8-3.1-31.3.6-46 3.9-9.5 2.1-18.5 4.1-24.3 3.5-7.8-.8-14.1-4.6-15.7-9.5-1.5-4.7 1.6-10.7 8.7-17 20.7-18.2 59.1-23.7 87.5-12.5 4.7 1.9 7.4-5.1 2.7-6.9-11.4-4.4-24.6-6.6-37.7-6.2-10.1.4-30.5 4.8-39.8 9z"/>
		<path d="M615.4 451c11.7 12.2 17 60.3-6 41.6l-2.9-2.6c-24-21.7-39.9-36-63.8-41-14.8-3.1-31.3.6-46 3.9-9.5 2.1-18.5 4.1-24.3 3.5-7.8-.8-14.1-4.6-15.7-9.5-1.5-4.7 1.6-10.7 8.7-17 20.7-18.2 59.3-24 87.5-12.5 4.6 2 46.1 16.5 62.5 33.6z" class="st0" fill="#fc0"/>
	</g>
</svg>
