<svg xmlns="http://www.w3.org/2000/svg" xml:space="preserve" width="60" height="90"><g fill="none" fill-rule="evenodd" style="display:inline"><path fill="#005683" d="M43.279 24.832c-2.85-2.554-4.714-4.005-7.539-4.589-1.899-.392-4.392-.003-6.392.44-1.515.337-2.778.628-3.796.52-1.564-.165-2.373-.625-2.727-1.734-.248-.781-.184-1.607 1.556-3.138.723-.637 3.114-1.967 4.064-2.4-3.04.22-4.816-.134-6.116-.824-2.152 2.15-5.644 3.95-6.956 3.367-.292-.13-.81-.178-1.111-.488-.029.022-.35.25-.38.273.347.324.431.921.54 1.452.221 1.075-.133 1.886-.985 2.737-.742.742-1.246.941-2.134.941-.62 0-1.195-.397-1.592-.774-2.69 4.49-2.977 7.008-3.115 10.124-.074 1.674.289 4.058.7 5.604 1.762 1.618 4.316 6.658 4.949 8.104.034.08.594.922.671.982 3.02 2.79 7.682 4.667 12.033 5.003-.054-.72-.127-2.047-.101-2.804.03-.927.08-1.905-.04-2.692-.1-.649-.322-1.381-.499-2.118-.605-2.822-1.253-5.566.975-7.149.503-.335.794-.45 1.37-.45 2.36 0 4.469 3.44 5.62 5.498 1.508-2.44 3.97-4.462 6.916-4.76 1.492-.152 2.966-.033 4.193.421.433-1.573.7-3.62.7-5.27 0-1.976-.316-4.621-.934-6.477" style="display:inline;stroke:#000;stroke-width:1;stroke-dasharray:none;stroke-opacity:1" transform="translate(-.19 21.333)"/><path fill="#00709c" d="M30.929 20.846a65.14 65.14 0 0 0-1.58.336c-1.516.337-2.825.628-3.843.52-1.564-.165-2.803-.987-3.157-2.097-.248-.78-.18-2.033 1.56-3.564.025-.022.053-.041.079-.063-1.12-.366-2.3-.599-3.522-.681-1.93 1.303-4.362 2.045-5.297 1.63a3.038 3.038 0 0 1-.917-.66 3.923 3.923 0 0 1-.084.068c.346.324.598.778.707 1.308.221 1.075-.155 2.226-1.008 3.078-.742.742-1.676 1.167-2.564 1.167-.62 0-1.15-.216-1.548-.593a18.683 18.683 0 0 0-2.773 9.812c0 1.675.22 3.297.632 4.842 1.182.97 2.877 3.884 4.057 6.138a14.476 14.476 0 0 0 7.797 2.268c1.586 0 3.11-.257 4.54-.726-.058-.253-.119-.51-.182-.773-.657-2.746-1.403-5.857 1.224-7.608a2.892 2.892 0 0 1 1.627-.506c1.815 0 3.5 1.683 4.687 3.443a14.472 14.472 0 0 0 2.66-8.378 14.47 14.47 0 0 0-3.095-8.961" style="display:inline" transform="translate(-.19 21.333)"/><path fill="#fff" d="M18.215 40.973a7.914 7.914 0 0 1-2.264-.16c-.12-1.205-.22-2.559-.137-4.267.082-1.709.347-3.772.954-6.393 2.205 5.708 4.633 9.893 4.65 9.916-.412.197-1.668.796-3.203.904m-3.698-.608c-3.155-1.433-5.022-3.847-5.835-6.557-.814-2.71-.574-5.716.485-8.33.04 2.587.423 4.89 1.273 7.255.85 2.365 2.167 4.793 4.077 7.632m8.61-1.305c.08-.497.1-.978.234-1.442.197-.676.408-1.043.408-1.043.955-3.418 2.143-6.759 2.931-10.236.189-.835.353-2.133.058-3.582 2.111 3.296 2.519 7.912.199 11.996 0 0 .418.061.633.126.215.064.648.265.648.265 1.119-2.1 1.741-4.462 1.649-6.776a12.627 12.627 0 0 0-.344-2.482 11.806 11.806 0 0 0-.778-2.218c-.325-.693-.843-1.506-1.278-2.098l-.94.134c-1.144.03-2.378.013-3.568-1.107-.274.175.065-.104-.239.173-.608.552-.867 1.615.51 3.652.746 1.101 1.142 2.093 1.204 3.26.063 1.165-.208 2.505-.797 4.302-.213.885-.351 1.462-.484 2.045s-.26 1.173-.45 2.085c-.91-2.173-1.735-4.184-2.48-6.243a64.432 64.432 0 0 1-1.995-6.53c.515-.076 1.065-.157 1.41-.301.346-.145.488-.353.188-.685-.038-.042-1.414.072-2.787.197a254.93 254.93 0 0 0-2.77.267.559.559 0 0 0-.401.308c-.07.132-.089.256-.09.258-.02.193-.014.29.145.328.16.038.47.02 1.059-.016.155.835.268 1.443.438 2.147.17.704.397 1.504.78 2.723-.277 1.15-.558 2.32-.78 3.663a32.536 32.536 0 0 0-.425 4.7c-1.237-2.46-2.103-4.546-2.683-6.55-.58-2.003-.875-3.926-.97-6.062.176-.107.38-.14.58-.185.2-.045.395-.104.55-.262a.816.816 0 0 0 .204-.442c.02-.156-.02-.293-.153-.32-.467-.102-.88.014-1.28.176-.4.162-.789.38-1.209.468v-.01c.413-.651 1.378-1.858 1.378-1.858a2.372 2.372 0 0 1-.695-.058c-.18.236-.48.626-.648.875a14.94 14.94 0 0 0-1.632 3.213c-.828 2.27-1.104 4.749-.656 7.12.448 2.37 1.62 4.635 3.69 6.479 3.95 3.52 8.34 3.24 11.84 1.023 0 0-.079-.539-.1-.8-.02-.26-.027-.76-.027-.76-.049.037-.028.047-.078.084m-4.38-21.745a11.12 11.12 0 0 0-3.811 1.01c.002.339-.056.571-.142.867 1.35-.726 2.7-.975 4.148-1.012 2.031.14 3.3.781 3.3.781-.013-.653.244-1.117.244-1.117s-1.1-.344-1.753-.454c-.652-.11-1.294-.104-1.944-.073" style="display:inline" transform="translate(-.19 21.333)"/></g></svg>