<svg version="1.1" id="wapuugotchi_svg__item" viewBox="0 0 1e3 1e3" xmlns="http://www.w3.org/2000/svg">
	<style id="animation--flying_hearts-on-ball">
		#wapuugotchi_type__wapuu .Front--group__flying-hearts-on-ball .Front--group__colored-guitar_1 { transform-origin: 60% 48%; animation: animation--flying_hearts-on-ball_1 6s linear infinite 0s forwards}
		#wapuugotchi_type__wapuu .Front--group__flying-hearts-on-ball .Front--group__colored-guitar_2 { transform-origin: 60% 48%; animation: animation--flying_hearts-on-ball_1 6s linear infinite 0.8s forwards}
		#wapuugotchi_type__wapuu .Front--group__flying-hearts-on-ball .Front--group__colored-guitar_3 { transform-origin: 60% 48%; animation: animation--flying_hearts-on-ball_1 6s linear infinite 1.6s forwards}
		#wapuugotchi_type__wapuu .Front--group__flying-hearts-on-ball .Front--group__colored-guitar_4 { transform-origin: 60% 48%; animation: animation--flying_hearts-on-ball_1 6s linear infinite 2.4s forwards}
		#wapuugotchi_type__wapuu .Front--group__flying-hearts-on-ball .Front--group__colored-guitar_5 { transform-origin: 60% 48%; animation: animation--flying_hearts-on-ball_1 6s linear infinite 3.2s forwards}
		#wapuugotchi_type__wapuu .Front--group__flying-hearts-on-ball .Front--group__colored-guitar_6 { transform-origin: 60% 48%; animation: animation--flying_hearts-on-ball_1 6s linear infinite 4.0s forwards}
		#wapuugotchi_type__wapuu .Front--group__flying-hearts-on-ball .Front--group__colored-guitar_7 { transform-origin: 60% 48%; animation: animation--flying_hearts-on-ball_1 6s linear infinite 4.8s forwards}
		@keyframes animation--flying_hearts-on-ball_1 { 100%, 0% { transform: translateY(0)} 5 {transform:  opacity: 1} 20% {opacity: 1} 25% { transform: translateY(-50px); opacity: 0}}
	</style>
	<g class="Ball--group">
		<ellipse transform="matrix(.7071 -.7071 .7071 .7071 -236.41 487.81)" cx="470.6" cy="529.3" rx="133.5" ry="133.5"/>
		<circle cx="470.6" cy="529.3" r="126.1" fill="#005683"/>
		<path d="m366.5 464.5c-1.3 1.6-3.4 4.4-4.5 6.1-4.7 6.9-8.5 14.5-11.4 22.4-5.8 15.8-7.7 33.1-4.6 49.6s11.3 32.3 25.7 45.2c27.5 24.5 58.2 22.6 82.6 7.1 0 0 14.9-11.3 18.8-16.3 5.3-6.9 12.3-15.5 15.4-21.3 7.8-14.5 12.1-31.1 11.5-47.2-0.2-6.1-1.1-11.8-2.4-17.3s-3.2-10.6-5.4-15.5c-2.3-4.8-5.9-10.5-8.9-14.6 0 0-0.5-0.7-1.4-1.7 0 0-0.4-0.5-7.3-9.2s-26.1-15.1-26.1-15.1-7.7-2.2-12.2-3.2c-4.6-1-13.8-0.5-13.8-0.5-10.5 0.9-18.8 3.4-26.6 7-8.7 4.1-23.3 17.1-29.4 24.5zm28.3-18.4c9.4-5 18.8-6.8 28.9-7.1 14.2 1 17.2 3.2 23 5.4 3.4 1.3 7.6 4 12.4 7.5-4.4 1.3-7.4 3.7-8.9 5.1-4.2 3.9-6 11.3 3.6 25.5 5.2 7.7 8 14.6 8.4 22.7s-1.5 17.5-5.6 30c-1.5 6.2-2.4 10.2-3.4 14.3-0.9 4.1-1.8 8.2-3.1 14.5-6.3-15.1-12.1-29.2-17.3-43.5-5.2-14.4-9.8-29-13.9-45.5 3.6-0.5 7.4-1.1 9.8-2.1s3.4-2.5 1.3-4.8c-0.3-0.3-9.9 0.5-19.4 1.4-9.6 0.9-19.1 1.8-19.3 1.9-1.5 0.2-2.3 1.2-2.8 2.1s-0.6 1.8-0.6 1.8c-0.2 1.3-0.1 2 1 2.3s3.3 0.1 7.4-0.1c1.1 5.8 1.9 10.1 3.1 15s2.8 10.5 5.4 19c-1.9 8-3.9 16.2-5.4 25.5s-2.7 19.9-3 32.8c-8.6-17.2-14.7-31.7-18.7-45.7s-6.1-27.4-6.8-42.3c1.2-0.7 2.7-1 4-1.3 1.4-0.3 2.8-0.7 3.8-1.8 0.7-0.8 1.3-2 1.4-3.1s-0.1-2-1.1-2.2c-3.3-0.7-6.1 0.1-8.9 1.2s-5.5 2.7-8.4 3.3v-0.1c2.9-4.5 7.1-9.7 9.6-13 4.7-5.8 16.9-15.1 23.5-18.7zm-42.6 101.9c-5.7-18.9-4-39.9 3.4-58.1 0.3 18 2.9 34.1 8.9 50.6s15.1 33.4 28.4 53.2c-22-10-35-26.8-40.7-45.7zm66.5 50c-5.6 0.4-10.2 0-15.8-1.1-0.8-8.4-1.5-17.8-1-29.8s2.4-26.3 6.7-44.6c15.4 39.8 32.3 69 32.4 69.1-2.9 1.4-11.6 5.6-22.3 6.4zm60.9-43.4c-4.8 8.3-25.7 31.4-25.1 28.1 0.9-4.7 2.8-15.4 2.8-15.4 6.7-23.8 14.9-47.1 20.4-71.4 1.3-5.8 2.5-14.9 0.4-25 14.9 23 17.6 55.9 1.5 83.7z" fill="#fff"/>
	</g>
	<g class="Front--group">
		<g class="Front--group__flying-hearts-on-ball">
			<path class="Front--group__colored-guitar_1" d="M334.906 344.511c-6.324.085-12.317 4.42-14.212 10.484-1.975 5.686-.446 12.293 3.627 16.688 6.661 7.45 16.596 11.21 22.6 19.338v.014l.047.047.046-.048v-.013c6.005-8.129 15.94-11.889 22.6-19.338 4.074-4.396 5.603-11.002 3.628-16.688-1.895-6.064-7.887-10.4-14.212-10.484-5.084-.216-9.531 3.159-12.062 7.365-2.53-4.206-6.978-7.581-12.062-7.365z" fill="#f30000" opacity="0" />
			<path class="Front--group__colored-guitar_2" d="M405.46 366.776c-4.776.063-9.301 3.337-10.733 7.916-1.49 4.293-.336 9.282 2.74 12.602 5.03 5.625 12.532 8.464 17.066 14.602v.01c.01.013.023.024.035.036.01-.012.024-.024.035-.036v-.01c4.534-6.138 12.036-8.978 17.066-14.602 3.076-3.32 4.23-8.309 2.739-12.602-1.431-4.579-5.956-7.853-10.732-7.916-3.84-.164-7.197 2.385-9.108 5.56-1.911-3.175-5.27-5.724-9.108-5.56z" fill="#f30000" opacity="0" />
			<path class="Front--group__colored-guitar_6" d="M392.48 314.623c-4.111.054-8.006 2.873-9.238 6.814-1.284 3.696-.29 7.99 2.358 10.848 4.33 4.842 10.787 7.286 14.69 12.57v.009l.03.03.03-.03v-.01c3.903-5.284 10.361-7.728 14.691-12.57 2.648-2.857 3.642-7.152 2.358-10.847-1.232-3.942-5.127-6.76-9.238-6.815-3.305-.14-6.196 2.053-7.84 4.787-1.645-2.734-4.536-4.928-7.84-4.787z" fill="#f30000" opacity="0" />
			<path class="Front--group__colored-guitar_4" d="M445.771 336.045c-3.225.043-6.28 2.254-7.246 5.346-1.007 2.898-.228 6.267 1.85 8.508 3.396 3.798 8.461 5.715 11.523 9.86v.007l.023.024.024-.024v-.007c3.061-4.145 8.127-6.062 11.523-9.86 2.077-2.241 2.857-5.61 1.85-8.509-.967-3.092-4.022-5.302-7.247-5.345-2.592-.11-4.86 1.61-6.15 3.755-1.29-2.145-3.558-3.866-6.15-3.755z" fill="#f30000" opacity="0" />
			<path class="Front--group__colored-guitar_5" d="M338.532 277.48c-4.776.063-9.301 3.337-10.732 7.916-1.491 4.293-.337 9.282 2.739 12.601 5.03 5.625 12.532 8.464 17.066 14.603v.01l.035.036v-.001l.035-.035v-.01c4.534-6.139 12.036-8.978 17.066-14.603 3.076-3.32 4.23-8.308 2.74-12.601-1.432-4.58-5.957-7.853-10.733-7.917-3.839-.163-7.197 2.385-9.108 5.561-1.91-3.176-5.27-5.724-9.108-5.561z" fill="#f30000" opacity="0" />
			<path class="Front--group__colored-guitar_3" d="M426.482 264.261c-6.327.084-12.321 4.422-14.217 10.488-1.976 5.687-.446 12.297 3.629 16.694 6.663 7.452 16.602 11.213 22.608 19.345v.014c.015.016.032.031.046.047h.001l.046-.048v-.013c6.006-8.132 15.945-11.893 22.609-19.345 4.075-4.397 5.604-11.007 3.628-16.694-1.896-6.066-7.89-10.404-14.217-10.488-5.086-.216-9.535 3.16-12.066 7.367-2.532-4.208-6.98-7.584-12.067-7.367z" fill="#f30000" opacity="0" />
			<path class="Front--group__colored-guitar_7" d="M301.535 315.051c-3.446.046-6.712 2.409-7.745 5.713-1.076 3.098-.243 6.698 1.977 9.093 3.63 4.06 9.043 6.108 12.315 10.538v.007l.025.026.026-.027v-.007c3.272-4.429 8.685-6.478 12.315-10.537 2.22-2.395 3.053-5.995 1.977-9.093-1.033-3.305-4.298-5.667-7.745-5.713-2.77-.118-5.193 1.72-6.572 4.013-1.38-2.292-3.803-4.131-6.573-4.013z" fill="#f30000" opacity="0" />
		</g>
	</g>
</svg>
