<svg version="1.1" id="wapuugotchi_svg__item" viewBox="0 0 1e3 1e3" xmlns="http://www.w3.org/2000/svg">
	<g class="Ball--group">
		<ellipse transform="matrix(.7071 -.7071 .7071 .7071 -236.41 487.81)" cx="470.6" cy="529.3" rx="133.5" ry="133.5"/>
		<circle cx="470.6" cy="529.3" r="126.1" fill="#005683"/>
		<path d="m366.5 464.5c-1.3 1.6-3.4 4.4-4.5 6.1-4.7 6.9-8.5 14.5-11.4 22.4-5.8 15.8-7.7 33.1-4.6 49.6s11.3 32.3 25.7 45.2c27.5 24.5 58.2 22.6 82.6 7.1 0 0 14.9-11.3 18.8-16.3 5.3-6.9 12.3-15.5 15.4-21.3 7.8-14.5 12.1-31.1 11.5-47.2-0.2-6.1-1.1-11.8-2.4-17.3s-3.2-10.6-5.4-15.5c-2.3-4.8-5.9-10.5-8.9-14.6 0 0-0.5-0.7-1.4-1.7 0 0-0.4-0.5-7.3-9.2s-26.1-15.1-26.1-15.1-7.7-2.2-12.2-3.2c-4.6-1-13.8-0.5-13.8-0.5-10.5 0.9-18.8 3.4-26.6 7-8.7 4.1-23.3 17.1-29.4 24.5zm28.3-18.4c9.4-5 18.8-6.8 28.9-7.1 14.2 1 17.2 3.2 23 5.4 3.4 1.3 7.6 4 12.4 7.5-4.4 1.3-7.4 3.7-8.9 5.1-4.2 3.9-6 11.3 3.6 25.5 5.2 7.7 8 14.6 8.4 22.7s-1.5 17.5-5.6 30c-1.5 6.2-2.4 10.2-3.4 14.3-0.9 4.1-1.8 8.2-3.1 14.5-6.3-15.1-12.1-29.2-17.3-43.5-5.2-14.4-9.8-29-13.9-45.5 3.6-0.5 7.4-1.1 9.8-2.1s3.4-2.5 1.3-4.8c-0.3-0.3-9.9 0.5-19.4 1.4-9.6 0.9-19.1 1.8-19.3 1.9-1.5 0.2-2.3 1.2-2.8 2.1s-0.6 1.8-0.6 1.8c-0.2 1.3-0.1 2 1 2.3s3.3 0.1 7.4-0.1c1.1 5.8 1.9 10.1 3.1 15s2.8 10.5 5.4 19c-1.9 8-3.9 16.2-5.4 25.5s-2.7 19.9-3 32.8c-8.6-17.2-14.7-31.7-18.7-45.7s-6.1-27.4-6.8-42.3c1.2-0.7 2.7-1 4-1.3 1.4-0.3 2.8-0.7 3.8-1.8 0.7-0.8 1.3-2 1.4-3.1s-0.1-2-1.1-2.2c-3.3-0.7-6.1 0.1-8.9 1.2s-5.5 2.7-8.4 3.3v-0.1c2.9-4.5 7.1-9.7 9.6-13 4.7-5.8 16.9-15.1 23.5-18.7zm-42.6 101.9c-5.7-18.9-4-39.9 3.4-58.1 0.3 18 2.9 34.1 8.9 50.6s15.1 33.4 28.4 53.2c-22-10-35-26.8-40.7-45.7zm66.5 50c-5.6 0.4-10.2 0-15.8-1.1-0.8-8.4-1.5-17.8-1-29.8s2.4-26.3 6.7-44.6c15.4 39.8 32.3 69 32.4 69.1-2.9 1.4-11.6 5.6-22.3 6.4zm60.9-43.4c-4.8 8.3-25.7 31.4-25.1 28.1 0.9-4.7 2.8-15.4 2.8-15.4 6.7-23.8 14.9-47.1 20.4-71.4 1.3-5.8 2.5-14.9 0.4-25 14.9 23 17.6 55.9 1.5 83.7z" fill="#fff"/>
	</g>
</svg>
