<?xml version="1.0" encoding="utf-8"?>
<!-- Generator: Adobe Illustrator 25.2.0, SVG Export Plug-In . SVG Version: 6.00 Build 0)  -->
<svg version="1.1" id="Layer_1" xmlns="http://www.w3.org/2000/svg" xmlns:xlink="http://www.w3.org/1999/xlink" x="0px" y="0px"
	 viewBox="0 0 1000 1000" style="enable-background:new 0 0 1000 1000;" xml:space="preserve">
<style type="text/css">
	.st0{fill:#005683;}
	.st1{fill-rule:evenodd;clip-rule:evenodd;fill:#00709C;}
	.st2{fill-rule:evenodd;clip-rule:evenodd;fill:#FFFFFF;}
</style>
<g id="Ball--group">
	
		<ellipse id="Ball--bg" transform="matrix(0.7071 -0.7071 0.7071 0.7071 -236.4061 487.8052)" cx="470.6" cy="529.3" rx="133.5" ry="133.5"/>
	<circle id="Ball" class="st0" cx="470.6" cy="529.3" r="126.1"/>
	<path id="Light" class="st1" d="M352.9,473.9c-14.4,36.1-16.2,58.4-8.3,90.4c7.9,32,48.7,64.3,98.9,56.1c50.1-8.2,87.1-46,85.5-99
		c-1.6-53-34.1-92.8-72.7-100C410.2,412.8,367.1,438.5,352.9,473.9z"/>
	<path id="WPlogo" class="st2" d="M366.5,464.5c-1.3,1.6-3.4,4.4-4.5,6.1c-4.7,6.9-8.5,14.5-11.4,22.4c-5.8,15.8-7.7,33.1-4.6,49.6
		c3.1,16.5,11.3,32.3,25.7,45.2c27.5,24.5,58.2,22.6,82.6,7.1c0,0,14.9-11.3,18.8-16.3c5.3-6.9,12.3-15.5,15.4-21.3
		c7.8-14.5,12.1-31.1,11.5-47.2c-0.2-6.1-1.1-11.8-2.4-17.3c-1.3-5.5-3.2-10.6-5.4-15.5c-2.3-4.8-5.9-10.5-8.9-14.6
		c0,0-0.5-0.7-1.4-1.7l0,0c0,0-0.4-0.5-7.3-9.2c-6.9-8.7-26.1-15.1-26.1-15.1s-7.7-2.2-12.2-3.2c-4.6-1-13.8-0.5-13.8-0.5
		c-10.5,0.9-18.8,3.4-26.6,7C387.2,444.1,372.6,457.1,366.5,464.5z M394.8,446.1c9.4-5,18.8-6.8,28.9-7.1c14.2,1,17.2,3.2,23,5.4
		c3.4,1.3,7.6,4,12.4,7.5c0,0,0,0,0,0c-4.4,1.3-7.4,3.7-8.9,5.1c-4.2,3.9-6,11.3,3.6,25.5c5.2,7.7,8,14.6,8.4,22.7
		c0.4,8.1-1.5,17.5-5.6,30c-1.5,6.2-2.4,10.2-3.4,14.3c-0.9,4.1-1.8,8.2-3.1,14.5c-6.3-15.1-12.1-29.2-17.3-43.5
		c-5.2-14.4-9.8-29-13.9-45.5c3.6-0.5,7.4-1.1,9.8-2.1c2.4-1,3.4-2.5,1.3-4.8c-0.3-0.3-9.9,0.5-19.4,1.4c-9.6,0.9-19.1,1.8-19.3,1.9
		c-1.5,0.2-2.3,1.2-2.8,2.1c-0.5,0.9-0.6,1.8-0.6,1.8c-0.2,1.3-0.1,2,1,2.3c1.1,0.3,3.3,0.1,7.4-0.1c1.1,5.8,1.9,10.1,3.1,15
		c1.2,4.9,2.8,10.5,5.4,19c-1.9,8-3.9,16.2-5.4,25.5s-2.7,19.9-3,32.8c-8.6-17.2-14.7-31.7-18.7-45.7c-4-14-6.1-27.4-6.8-42.3
		c1.2-0.7,2.7-1,4-1.3c1.4-0.3,2.8-0.7,3.8-1.8c0.7-0.8,1.3-2,1.4-3.1c0.1-1.1-0.1-2-1.1-2.2c-3.3-0.7-6.1,0.1-8.9,1.2
		c-2.8,1.1-5.5,2.7-8.4,3.3l0-0.1c2.9-4.5,7.1-9.7,9.6-13C376,459,388.2,449.7,394.8,446.1z M352.2,548c-5.7-18.9-4-39.9,3.4-58.1
		c0.3,18,2.9,34.1,8.9,50.6s15.1,33.4,28.4,53.2C370.9,583.7,357.9,566.9,352.2,548z M418.7,598L418.7,598c-5.6,0.4-10.2,0-15.8-1.1
		c-0.8-8.4-1.5-17.8-1-29.8s2.4-26.3,6.7-44.6c15.4,39.8,32.3,69,32.4,69.1C438.1,593,429.4,597.2,418.7,598z M479.6,554.6
		c-4.8,8.3-25.7,31.4-25.1,28.1c0.9-4.7,2.8-15.4,2.8-15.4c6.7-23.8,14.9-47.1,20.4-71.4c1.3-5.8,2.5-14.9,0.4-25
		C493,493.9,495.7,526.8,479.6,554.6z"/>
</g>
</svg>
