<svg xmlns="http://www.w3.org/2000/svg" id="Layer_1" x="0" y="0" version="1.1" viewBox="0 0 1000 1000">
	<style id="animation--flying_hearts-on-ball">
		#Front--group .Front--group__colored-guitar_1 { transform-origin: 60% 48%; animation: animation--flying_hearts-on-ball_1 6s linear 2 0s forwards}
		#Front--group .Front--group__colored-guitar_2 { transform-origin: 60% 48%; animation: animation--flying_hearts-on-ball_1 6s linear 2 0.8s forwards}
		#Front--group .Front--group__colored-guitar_3 { transform-origin: 60% 48%; animation: animation--flying_hearts-on-ball_1 6s linear 2 1.6s forwards}
		#Front--group .Front--group__colored-guitar_4 { transform-origin: 60% 48%; animation: animation--flying_hearts-on-ball_1 6s linear 2 2.4s forwards}
		#Front--group .Front--group__colored-guitar_5 { transform-origin: 60% 48%; animation: animation--flying_hearts-on-ball_1 6s linear 2 3.2s forwards}
		#Front--group .Front--group__colored-guitar_6 { transform-origin: 60% 48%; animation: animation--flying_hearts-on-ball_1 6s linear 2 4.0s forwards}
		#Front--group .Front--group__colored-guitar_7 { transform-origin: 60% 48%; animation: animation--flying_hearts-on-ball_1 6s linear 2 4.8s forwards}
		@keyframes animation--flying_hearts-on-ball_1 { 100%, 0% { transform: translateY(0)} 5 {transform:  opacity: 1} 20% {opacity: 1} 25% { transform: translateY(-50px); opacity: 0}}
	</style>
	<g id="RightArm_1_">
		<path id="RightArm--bg" d="M436.6 504c-4.5 5.1-10.5 7.9-17 7.9-9.1 0-18.5-5.5-24.4-14.4-7.8-11.6-15.5-21.2-22.3-27.9l-4.8-4.7c-2-2-1.1-5.3 1.6-6.1l6.5-1.7c3.2-.9 6.4-2.7 9.1-5.5 3-3 4.8-6.7 5.2-10.4V430c0-1.3 1.5-2.1 2.5-1.3l9.3 6.9c.7.5 1.7 1.1 2.9 1.7 10.2 4.9 31.7 27.4 35.7 46.7 2.1 10.1-1.2 16.5-4.3 20z"/>
		<path id="RightArm" d="M402.1 444.1c-1.5-.7-2.9-1.5-4.2-2.4-.5 5.5-3 11-7.3 15.3-3.7 3.7-8.1 6.2-12.5 7.4 8.7 8.6 17 19.8 23.2 29.1 4.5 6.7 11.6 11.1 18.3 11.1 4.1 0 8.1-1.6 11.4-5.4 13-14.8-17.3-49.6-28.9-55.1z" class="st0" fill="#fc0"/>
	</g>
	<g id="Tail--group">
		<path id="Tail--bg" d="M599.1 649.5c-9 25.7-26.4 50-50.3 70.3-23.8 20.3-51.8 34.7-81 41.6-6.9 1.6-14.1 2.5-21.5 2.5-30.8 0-58.9-13.9-74.8-27-13.6-11.1-21.2-23.3-20.9-33.5.4-12 6.7-20.7 16.8-23.3 2.1-.5 4.3-.8 6.7-.8 11.2 0 27.2 6.7 38.5 25.7 7.8 13.2 22 20.1 41.1 20.1h1.2c40.7-.8 87.6-31.2 109.1-70.8 7.7-14.1 13.2-29.6 17.1-40.8 1.9-5.4 3.6-10.1 5.1-13.5 1.3-3.1 4.1-9.4 10.4-9.4 4.1 0 7.6 1.8 9.9 5 5.5 7.6 3.3 23.3-7.4 53.9z"/>
		<path id="Tail_2_" d="M570.5 657.8c-22.7 41.7-72.5 73.9-115.5 74.7h-1.4c-21.6 0-38.3-8.4-47.4-23.8-9-15.1-22-22.1-32.1-22.1-1.7 0-3.3.2-4.8.6-7 1.8-11 7.6-11.3 16.4-.3 7.7 6.6 18 18.2 27.5 16.8 13.7 43.2 25.3 70.1 25.3 6.6 0 13.3-.7 19.8-2.3 57.2-13.5 108.5-57.4 126-107.1 5.4-15.3 16.7-49.2 4.5-49.2-4.5.1-10.8 31.8-26.1 60z" class="st1" fill="#f80"/>
	</g>
	<g id="Body--group">
		<path id="Body--bg" d="M649.7 531.9c-2 24-6.7 45.1-13.9 62.9-8.5 20.9-20.3 36.6-35.1 46.8-34 23.4-64.8 26-76.4 26-1.3 0-2.5 0-3.8-.1-18.4-.8-26-4.4-32.7-7.5-5.9-2.8-11-5.2-24.9-5.7-37.5-1.5-67-9.9-83.1-23.6-.2-.1-.5-.4-.9-.7-4.8-3.5-19.3-14.3-25-24.7-5.3-9.7-6.2-22.3-2.3-31.4 13.4-31.2 24.5-40.5 33.5-48 3.6-3 6.4-5.3 8.8-8.7 2.2-3.1 3.8-7.1 4.9-12.2 0-.1 0-.2.1-.3 3.9-15 3.4-34.9 2.8-56-.2-5.7-.3-11.7-.4-17.5v-.1c0-18.6 9.6-40.7 25.7-59.2 18.1-20.8 41.6-33.6 66.1-36.2 20.2-2.1 34.3-3.1 45.9-3.1 43.7 0 58.6 14.8 82.2 48.4 7.5 10.6 12.1 22.5 16 33.7 11.1 30.4 15.9 76.5 12.5 117.2z"/>
		<path id="Body_1_" d="M358.5 576.7c-3 7-2.2 17.4 2 25 5.6 10.3 23 22.2 24.1 23.2 15.1 12.9 43.7 20.5 78.7 21.9 31.2 1.3 24.3 11.8 57.6 13.3 1.1 0 2.2.1 3.5.1 16.7 0 43.7-5 72.2-24.7 58-39.9 52.9-165.3 34-218.6-3.9-11.1-8.3-22.2-15.1-31.9-23.5-33.5-36.6-45.2-76.2-45.2-12.2 0-26.9 1.1-45.1 3.1-49.9 5.3-85.3 55.3-85.3 88.1.3 27.4 2.5 55.1-2.7 75.5-1.4 6.5-3.4 11.2-6 14.9-9.8 13.5-23.4 12.4-41.7 55.3z" class="st0" fill="#fc0"/>
		<g>
			<ellipse transform="matrix(.7071 -.7071 .7071 .7071 -236.41 487.81)" cx="470.6" cy="529.3" rx="133.5" ry="133.5"/>
			<circle cx="470.6" cy="529.3" r="126.1" fill="#005683"/>
			<path d="m366.5 464.5c-1.3 1.6-3.4 4.4-4.5 6.1-4.7 6.9-8.5 14.5-11.4 22.4-5.8 15.8-7.7 33.1-4.6 49.6s11.3 32.3 25.7 45.2c27.5 24.5 58.2 22.6 82.6 7.1 0 0 14.9-11.3 18.8-16.3 5.3-6.9 12.3-15.5 15.4-21.3 7.8-14.5 12.1-31.1 11.5-47.2-0.2-6.1-1.1-11.8-2.4-17.3s-3.2-10.6-5.4-15.5c-2.3-4.8-5.9-10.5-8.9-14.6 0 0-0.5-0.7-1.4-1.7 0 0-0.4-0.5-7.3-9.2s-26.1-15.1-26.1-15.1-7.7-2.2-12.2-3.2c-4.6-1-13.8-0.5-13.8-0.5-10.5 0.9-18.8 3.4-26.6 7-8.7 4.1-23.3 17.1-29.4 24.5zm28.3-18.4c9.4-5 18.8-6.8 28.9-7.1 14.2 1 17.2 3.2 23 5.4 3.4 1.3 7.6 4 12.4 7.5-4.4 1.3-7.4 3.7-8.9 5.1-4.2 3.9-6 11.3 3.6 25.5 5.2 7.7 8 14.6 8.4 22.7s-1.5 17.5-5.6 30c-1.5 6.2-2.4 10.2-3.4 14.3-0.9 4.1-1.8 8.2-3.1 14.5-6.3-15.1-12.1-29.2-17.3-43.5-5.2-14.4-9.8-29-13.9-45.5 3.6-0.5 7.4-1.1 9.8-2.1s3.4-2.5 1.3-4.8c-0.3-0.3-9.9 0.5-19.4 1.4-9.6 0.9-19.1 1.8-19.3 1.9-1.5 0.2-2.3 1.2-2.8 2.1s-0.6 1.8-0.6 1.8c-0.2 1.3-0.1 2 1 2.3s3.3 0.1 7.4-0.1c1.1 5.8 1.9 10.1 3.1 15s2.8 10.5 5.4 19c-1.9 8-3.9 16.2-5.4 25.5s-2.7 19.9-3 32.8c-8.6-17.2-14.7-31.7-18.7-45.7s-6.1-27.4-6.8-42.3c1.2-0.7 2.7-1 4-1.3 1.4-0.3 2.8-0.7 3.8-1.8 0.7-0.8 1.3-2 1.4-3.1s-0.1-2-1.1-2.2c-3.3-0.7-6.1 0.1-8.9 1.2s-5.5 2.7-8.4 3.3v-0.1c2.9-4.5 7.1-9.7 9.6-13 4.7-5.8 16.9-15.1 23.5-18.7zm-42.6 101.9c-5.7-18.9-4-39.9 3.4-58.1 0.3 18 2.9 34.1 8.9 50.6s15.1 33.4 28.4 53.2c-22-10-35-26.8-40.7-45.7zm66.5 50c-5.6 0.4-10.2 0-15.8-1.1-0.8-8.4-1.5-17.8-1-29.8s2.4-26.3 6.7-44.6c15.4 39.8 32.3 69 32.4 69.1-2.9 1.4-11.6 5.6-22.3 6.4zm60.9-43.4c-4.8 8.3-25.7 31.4-25.1 28.1 0.9-4.7 2.8-15.4 2.8-15.4 6.7-23.8 14.9-47.1 20.4-71.4 1.3-5.8 2.5-14.9 0.4-25 14.9 23 17.6 55.9 1.5 83.7z" fill="#fff"/>
		</g>
	</g>
	<g id="RightHand--group">
		<path id="RightHand--bg" d="M390.6 457c-5.2 5.1-11.7 8.1-17.8 8.1-8.1 0-14-5.1-15.6-13.3-1-5.4.9-11.3 5.4-16.7 5.8-6.9 14.9-12 21.7-12.1h.2c1.3 0 2.6.2 3.8.6h.2l.1.1c4.5 1.8 7.9 6.2 9.1 11.8 1.4 7.5-1.2 15.5-7.1 21.5z"/>
		<path id="RightHand" d="M385.4 451.7c4.2-4.2 6-9.6 5-14.7-.6-3.1-2.3-5.5-4.6-6.4-.4-.1-.9-.2-1.3-.2h-.1c-4 0-11.3 3.6-16.1 9.4-1.8 2.1-4.6 6.3-3.8 10.6 1.1 6 5.1 7.3 8.3 7.3 4.1 0 8.8-2.2 12.6-6z" class="st0" fill="#fc0"/>
	</g>
	<g id="RightFootGroup">
		<path id="RightFoot--bg" d="M384.3 648c-2.4 3.7-6.4 5.7-11.5 5.7-1.9 0-4-.3-6.2-.8-25-6-59.3-43.6-63.6-64.5-1.9-9.4-.2-18 5-24.4 4.6-5.7 11.4-8.8 18.9-8.8 6.8 0 13.6 2.5 19.8 7.3 12.2 9.4 32.9 50.5 37.3 60.7 2.5 5.8 4.9 17.7.3 24.8z"/>
		<path id="RightFoot_1_" d="M310.1 586.8c3.8 18.2 36.2 53.6 58.1 58.8 1.7.4 3.2.6 4.5.6 3.4 0 4.7-1.3 5.4-2.3 2.3-3.5 1.5-12.1-1-17.9-6.1-13.9-25.3-50.3-35.1-57.8-4.9-3.8-10.2-5.8-15.3-5.8-5.3 0-10 2.2-13.2 6.1-3.6 4.7-4.8 11.2-3.4 18.3z" class="st0" fill="#fc0"/>
	</g>
	<g id="RightEar--group">
		<path id="RightEar--bg" d="M413.3 399.4c-.4 4.4-3.8 8.4-11.1 12.9-4.7 3-10.2 5.5-13.9 6.5-6.5 1.7-12.3 2.6-17.3 2.6-6.7 0-10.6-1.6-12.7-2.9-4.8-3-4.4-7.2-4.2-8.5.5-3.1 2.9-5.5 5.9-6.2 3.5-.8 13.5-5.8 23.6-12.6 4.2-2.9 10.7-4.8 16.1-4.8 5.8 0 9.1 2.2 10.8 4.1 2.1 2.4 3.1 5.5 2.8 8.9z"/>
		<path id="RightEar" d="M361.4 411.3c0 .3.4.7.9.9 1.1.7 3.6 1.8 8.8 1.8 4.3 0 9.5-.8 15.4-2.3 5.2-1.4 19.1-8.8 19.5-13 .1-1.3-.2-2.4-.9-3.2-1-1.1-2.8-1.7-5.3-1.7-3.9 0-8.9 1.5-11.9 3.5-8.5 5.7-20.5 12.5-26.1 13.7-.3.1-.4.2-.4.3z" class="st1" fill="#f80"/>
	</g>
	<g id="Head--group">
		<path id="Head--bg" d="M516.4 328.1c1.6 0 3.2 0 4.8.1 20.6.6 39.5 6.5 55.9 17 11.2 7.2 17.5 11.4 25.9 25.2 1.5 2.5 9 .8 7.9-1.1-10.1-17.6-17.5-22.3-29.8-30.3-17.7-11.4-37.8-17.6-59.7-18.2-1.6 0-3.3-.1-5-.1-1.6 0-3.3 0-4.9.1-24.3.6-47.8 6.6-67.8 17.1-20.2 10.6-37.1 26.1-48.9 44.7-7.7 12.3-10.3 23.9-7.4 33.5 2.4 7.8 7.9 12.7 12.3 14.6 1.4.6 2.9.9 4.7.9 9.3 0 34.7-9.3 45.7-24.8 8.4 4.5 17.6 6.7 28.1 6.7 12.6 0 25-3.2 36.4-6.9 3-1 3.8-2.2 3.9-4.1 0-1.3-1.2-3.6-3.8-3.5-.3 0-.7.1-1 .2-11.2 3.6-23.3 6.9-35.4 6.9-9.3 0-18.6-2-27.4-7.4-.6-.4-1.3-.5-1.9-.5-1.3 0-2.5.6-3.2 1.8l-.1.1c-7.9 14.3-33.3 24.1-41.2 24.1-.7 0-1.3-.1-1.7-.3-2.8-1.2-6.6-4.6-8.2-10-2.3-7.5 0-17 6.6-27.4 22.5-35.7 63.4-57.1 110.6-58.3 1.4-.1 3-.1 4.6-.1"/>
		<path id="Head" d="M516.6 399.4c-1-.4-2-.7-3-.3-19.7 6.3-42.5 12-62.8-.5-1.7-1.1-4-.5-5.1 1.2l-.1.1c-8.6 15.7-38.3 26-43 23.9-2.8-1.2-6.6-4.6-8.2-10-2.3-7.5 0-17 6.6-27.4 22.5-35.7 63.4-57.1 110.6-58.3 3.1-.1 6.3-.1 9.5 0 20.6.6 39.5 6.5 55.9 17 13.2 8.5 19.7 12.7 30.6 33.6 5.6 10.5-84.4 23.5-91 20.7z" class="st0" fill="#fc0"/>
	</g>
	<g id="LeftEar--group">
		<path id="LeftEar--bg" d="M701.4 357.1c-.5 1.7-1.2 3.4-2 5.2-5 10-17.7 23-38 29.1-4.5 1.4-9.3 2-14 2h-.1c-13 0-34.2-4.9-61.6-28.3-1.9-1.7-5.1-4.8-7.1-7-2.3-2.5-2.8-6.1-1.5-9.1s4.4-5.1 7.8-5.1h.5c13.9.8 30.1 1.2 48.4 1.2 8.1 0 14.8-.1 19.3-.1h4.5c7.4 0 13.3-.1 18.2-.1 8.1 0 13.7.1 17.1.2 2.9.1 5.6 1.5 7.3 3.9 1.5 2.3 2 5.2 1.2 8.1z"/>
		<path id="LeftEar" d="M590.4 359.4c25.7 21.9 45.1 26.5 56.8 26.5h.1c4 0 8-.6 11.9-1.7 18.1-5.4 29.2-16.6 33.5-25.3.8-1.5 1.2-2.8 1.5-3.9.4-1.3-.6-2.6-1.9-2.7-3.3-.1-8.9-.2-16.7-.2-5.4 0-11.6 0-18.2.1-3.3 0-12.2.2-23.9.2-13.9 0-31.7-.2-48.8-1.2h-.1c-.9 0-1.5 1.1-.8 1.8 2 2.2 5 5.1 6.6 6.4z" class="st1" fill="#f80"/>
	</g>
	<g id="Face--group">
		<path id="RightEye" d="M417.6 376.2c-4.1 0-7.4 3.3-7.4 7.4 0 9.9 14.8 9.9 14.8 0 0-4.1-3.3-7.4-7.4-7.4z"/>
		<path id="LeftEye" d="M503.2 355.7c-4.1 0-7.4 3.3-7.4 7.4 0 9.9 14.8 9.9 14.8 0 0-4.1-3.3-7.4-7.4-7.4z"/>
		<path id="Nose" d="M457.9 375.4c-7.4.8-12.3 2.5-15.6 4.9-5.9 4.4-4.1 9.9 2.5 10.7 6.6.8 7.1 1.2 13.2-3.3 6.5-4.9 7.3-13.1-.1-12.3z"/>
	</g>
	<g id="LeftLEg--group">
		<path id="LetLeg" d="M512.4 655.2c-4.6-5.2-3.7-15.7-1.9-29.4 2.6-19.8 5-34.5 25.4-50.8 24.4-19.5 62.2-15 76.2-.5 3.6 3.7 6.7 10.9 7.3 18.8.9 11.4-22.2 42.4-44.8 51.8-22.6 9.6-54 19.3-62.2 10.1z" class="st0" fill="#fc0"/>
		<path id="LeftLeg--bg_1_" d="M512.4 658.9c-1.2 0-2.3-.5-3-1.6-4.7-6.7-4.5-17.2-2.6-32 2.5-19 4.6-35.5 26.8-53.2 26.8-21.4 63.7-14 78.4.7 1.4 1.4 1.4 3.8 0 5.2-1.4 1.4-3.8 1.4-5.2 0-12.5-12.5-45.4-18.7-68.6-.1-18.9 15.1-21.4 28.2-24.1 48.4-1.4 11-2.3 21.8 1.3 26.7 1.2 1.7.8 4-.9 5.2-.6.5-1.4.7-2.1.7z"/>
	</g>
	<g id="LeftFoot--group">
		<path id="LeftFoot--bg" d="M523.7 651.2c-.4 1.9-2 9.1-6.7 16.2-7 10.6-17.8 16.5-30.4 16.5-7.2 0-12.9-2.1-16.8-6.2-7.5-7.8-7.1-21-6.7-33.7v-.1c.2-6.4.4-13.1-.4-18.5-.7-4.4-1.8-9.1-3.1-14.5-2.4-10.2-4.6-20.1-4.3-28.7.4-10.7 4.7-18.9 12.8-24.4 3.5-2.4 7.4-3.5 11.4-3.5 9.3 0 18.9 6.2 28.7 18.6 7.1 8.9 13.1 20 15.4 28.1 6.4 21.8 4.9 34.9.1 50.2z"/>
		<path id="LeftFoot_1_" d="M477 670.8c2 2.1 5.2 3.1 9.6 3.1 22.6 0 27-23.7 27.2-24.7 0-.2.1-.4.1-.6 4.4-13.9 5.7-25.2 0-44.8-3.7-13.2-21.1-39.4-34.4-39.4-2 0-4 .6-5.8 1.9-11.7 7.8-9.3 21.8-4.4 42.4 1.2 5.1 2.5 10.4 3.2 15.3 1 6.4.8 13.5.5 20.4-.2 10.6-.6 21.6 4 26.4z" class="st0" fill="#fc0"/>
	</g>
	<g id="LeftArm--group">
		<path id="LeftArm--bg" d="M478 413.3c-6.4 2.9-12.4 6.6-17.6 11.1-12.1 10.6-12.6 19.4-10.8 24.8 2.5 7.7 11.1 13.4 21.9 14.6 7.1.7 16.2-1.3 26.7-3.6 13.9-3.1 29.7-6.6 42.9-3.9 19.6 4.1 33.3 15 53.1 32.7l10.3 9.2c1.5 1.3 3.9 1.2 5.2-.4 1.3-1.5 1.2-3.9-.4-5.2l-2.9-2.6c-24-21.7-39.9-36-63.8-41-14.8-3.1-31.3.6-46 3.9-9.5 2.1-18.5 4.1-24.3 3.5-7.8-.8-14.1-4.6-15.7-9.5-1.5-4.7 1.6-10.7 8.7-17 20.7-18.2 59.1-23.7 87.5-12.5 4.7 1.9 7.4-5.1 2.7-6.9-11.4-4.4-24.6-6.6-37.7-6.2-10.1.4-30.5 4.8-39.8 9z"/>
		<path id="LeftArm" d="M615.4 451c11.7 12.2 17 60.3-6 41.6l-2.9-2.6c-24-21.7-39.9-36-63.8-41-14.8-3.1-31.3.6-46 3.9-9.5 2.1-18.5 4.1-24.3 3.5-7.8-.8-14.1-4.6-15.7-9.5-1.5-4.7 1.6-10.7 8.7-17 20.7-18.2 59.3-24 87.5-12.5 4.6 2 46.1 16.5 62.5 33.6z" class="st0" fill="#fc0"/>
	</g>
	<g id="Front--group">
		<g class="Front--group__flying-hearts-on-ball">
			<path class="Front--group__colored-guitar_1" d="M334.906 344.511c-6.324.085-12.317 4.42-14.212 10.484-1.975 5.686-.446 12.293 3.627 16.688 6.661 7.45 16.596 11.21 22.6 19.338v.014l.047.047.046-.048v-.013c6.005-8.129 15.94-11.889 22.6-19.338 4.074-4.396 5.603-11.002 3.628-16.688-1.895-6.064-7.887-10.4-14.212-10.484-5.084-.216-9.531 3.159-12.062 7.365-2.53-4.206-6.978-7.581-12.062-7.365z" fill="#f30000" opacity="0" />
			<path class="Front--group__colored-guitar_2" d="M405.46 366.776c-4.776.063-9.301 3.337-10.733 7.916-1.49 4.293-.336 9.282 2.74 12.602 5.03 5.625 12.532 8.464 17.066 14.602v.01c.01.013.023.024.035.036.01-.012.024-.024.035-.036v-.01c4.534-6.138 12.036-8.978 17.066-14.602 3.076-3.32 4.23-8.309 2.739-12.602-1.431-4.579-5.956-7.853-10.732-7.916-3.84-.164-7.197 2.385-9.108 5.56-1.911-3.175-5.27-5.724-9.108-5.56z" fill="#f30000" opacity="0" />
			<path class="Front--group__colored-guitar_6" d="M392.48 314.623c-4.111.054-8.006 2.873-9.238 6.814-1.284 3.696-.29 7.99 2.358 10.848 4.33 4.842 10.787 7.286 14.69 12.57v.009l.03.03.03-.03v-.01c3.903-5.284 10.361-7.728 14.691-12.57 2.648-2.857 3.642-7.152 2.358-10.847-1.232-3.942-5.127-6.76-9.238-6.815-3.305-.14-6.196 2.053-7.84 4.787-1.645-2.734-4.536-4.928-7.84-4.787z" fill="#f30000" opacity="0" />
			<path class="Front--group__colored-guitar_4" d="M445.771 336.045c-3.225.043-6.28 2.254-7.246 5.346-1.007 2.898-.228 6.267 1.85 8.508 3.396 3.798 8.461 5.715 11.523 9.86v.007l.023.024.024-.024v-.007c3.061-4.145 8.127-6.062 11.523-9.86 2.077-2.241 2.857-5.61 1.85-8.509-.967-3.092-4.022-5.302-7.247-5.345-2.592-.11-4.86 1.61-6.15 3.755-1.29-2.145-3.558-3.866-6.15-3.755z" fill="#f30000" opacity="0" />
			<path class="Front--group__colored-guitar_5" d="M338.532 277.48c-4.776.063-9.301 3.337-10.732 7.916-1.491 4.293-.337 9.282 2.739 12.601 5.03 5.625 12.532 8.464 17.066 14.603v.01l.035.036v-.001l.035-.035v-.01c4.534-6.139 12.036-8.978 17.066-14.603 3.076-3.32 4.23-8.308 2.74-12.601-1.432-4.58-5.957-7.853-10.733-7.917-3.839-.163-7.197 2.385-9.108 5.561-1.91-3.176-5.27-5.724-9.108-5.561z" fill="#f30000" opacity="0" />
			<path class="Front--group__colored-guitar_3" d="M426.482 264.261c-6.327.084-12.321 4.422-14.217 10.488-1.976 5.687-.446 12.297 3.629 16.694 6.663 7.452 16.602 11.213 22.608 19.345v.014c.015.016.032.031.046.047h.001l.046-.048v-.013c6.006-8.132 15.945-11.893 22.609-19.345 4.075-4.397 5.604-11.007 3.628-16.694-1.896-6.066-7.89-10.404-14.217-10.488-5.086-.216-9.535 3.16-12.066 7.367-2.532-4.208-6.98-7.584-12.067-7.367z" fill="#f30000" opacity="0" />
			<path class="Front--group__colored-guitar_7" d="M301.535 315.051c-3.446.046-6.712 2.409-7.745 5.713-1.076 3.098-.243 6.698 1.977 9.093 3.63 4.06 9.043 6.108 12.315 10.538v.007l.025.026.026-.027v-.007c3.272-4.429 8.685-6.478 12.315-10.537 2.22-2.395 3.053-5.995 1.977-9.093-1.033-3.305-4.298-5.667-7.745-5.713-2.77-.118-5.193 1.72-6.572 4.013-1.38-2.292-3.803-4.131-6.573-4.013z" fill="#f30000" opacity="0" />
		</g>
	</g>
</svg>
