<svg xmlns="http://www.w3.org/2000/svg" viewBox="0 0 1000 1000">
  <g class="BeforeLeftArm--part">
    <path fill="#5bc130" d="M689.79 180.89c4.55 1.45 11.82 3.89 17.89 4.93 1.5.26 3.63.49 5.97.69.03 0 .06.01.09.01.45.04.9.07 1.36.11.05 0 .1 0 .14.01.32.02.66.05.99.07.05 0 .09.01.14.01 6.58.47 13.58.66 12.86.35-1.09-.47-22.38-11.54-27.8-13.14-4.66-1.37-9.92-2.93-15.18-4.89h-.01c-.87-.32-1.73-.65-2.6-1-6.11-2.45-7.93-.33-9.7 1.11-.98.8-2.73.56-2.73.56s.03.45 1.66 1.26 1.39 3.46 3.79 4.82c2.4 1.35 8.58 3.66 13.13 5.1z"/>
    <path d="M671.3 169.45c6.99 2.35 13.99 4.69 21 7l10.52 3.44c3.51 1.13 7.02 2.27 10.56 3.3-3.56-.98-7.08-2.08-10.61-3.16l-10.56-3.31c-7.04-2.23-14.06-4.47-21.09-6.74l.18-.53z"/>
    <path fill="none" stroke="#000" stroke-linecap="round" stroke-linejoin="round" stroke-miterlimit="10" d="M689.79 180.89c4.55 1.45 11.82 3.89 17.89 4.93 1.5.26 3.63.49 5.97.69.03 0 .06.01.09.01.45.04.9.07 1.36.11.05 0 .1 0 .14.01.32.02.66.05.99.07.05 0 .09.01.14.01 6.58.47 13.58.66 12.86.35-1.09-.47-22.38-11.54-27.8-13.14-4.66-1.37-9.92-2.93-15.18-4.89h-.01c-.87-.32-1.73-.65-2.6-1-6.11-2.45-7.93-.33-9.7 1.11-.98.8-2.73.56-2.73.56s.03.45 1.66 1.26 1.39 3.46 3.79 4.82c2.4 1.35 8.58 3.66 13.13 5.1z"/>
    <path fill="#5bc130" d="M661.25 212.38c4.71 3.59 12.36 9.25 17.74 14.69 1.33 1.34 3.07 3.34 4.95 5.59.02.03.05.06.08.09.36.42.71.86 1.08 1.3.04.05.07.1.11.14.25.31.51.63.77.96.04.04.08.09.12.13 5.15 6.36 10.32 13.34 9.5 12.83-1.25-.78-27.65-14.55-33.13-18.94-4.7-3.77-10.03-8.01-15.76-11.96h-.01c-.94-.65-1.9-1.3-2.87-1.93-6.83-4.47-5.97-7.83-5.77-10.66.11-1.56-1.38-3.18-1.38-3.18s.48-.29 2.46.79 4.5-1.05 7.59.43c3.08 1.48 9.82 6.13 14.52 9.72z"/>
    <path d="M636.47 201.72c7.36 5.44 14.72 10.89 22.05 16.37l10.98 8.25c3.64 2.77 7.3 5.53 10.86 8.4-3.53-2.92-7.15-5.72-10.76-8.54l-10.88-8.39c-7.27-5.57-14.55-11.12-21.85-16.65l-.4.56z"/>
    <path fill="none" stroke="#000" stroke-linecap="round" stroke-linejoin="round" stroke-miterlimit="10" d="M661.25 212.38c4.71 3.59 12.36 9.25 17.74 14.69 1.33 1.34 3.07 3.34 4.95 5.59.02.03.05.06.08.09.36.42.71.86 1.08 1.3.04.05.07.1.11.14.25.31.51.63.77.96.04.04.08.09.12.13 5.15 6.36 10.32 13.34 9.5 12.83-1.25-.78-27.65-14.55-33.13-18.94-4.7-3.77-10.03-8.01-15.76-11.96h-.01c-.94-.65-1.9-1.3-2.87-1.93-6.83-4.47-5.97-7.83-5.77-10.66.11-1.56-1.38-3.18-1.38-3.18s.48-.29 2.46.79 4.5-1.05 7.59.43c3.08 1.48 9.82 6.13 14.52 9.72z"/>
    <path fill="#5bc130" d="M648.66 162.69c1.8-5.64 4.57-14.75 7.9-21.64.82-1.7 2.12-4.02 3.6-6.53.02-.03.04-.07.06-.1.28-.48.57-.96.86-1.45.04-.05.07-.1.09-.15.21-.34.43-.7.64-1.05l.09-.15c4.26-6.99 9.1-14.2 8.9-13.25-.31 1.43-4.44 30.93-6.73 37.56-1.97 5.69-4.18 12.14-5.98 18.86v.01c-.3 1.11-.59 2.22-.86 3.35-1.92 7.93-5.38 8.25-8.11 9.01-1.51.42-2.53 2.36-2.53 2.36s-.43-.36-.08-2.58c.36-2.23-2.5-3.89-2.14-7.29.36-3.41 2.48-11.31 4.29-16.96z"/>
    <path d="M646.92 189.62c2.65-8.76 5.33-17.52 8.03-26.27l4.09-13.11c1.39-4.36 2.76-8.73 4.27-13.05-1.56 4.3-2.99 8.65-4.43 13l-4.26 13.06c-2.81 8.71-5.6 17.44-8.36 26.17l.66.2z"/>
    <path fill="none" stroke="#000" stroke-linecap="round" stroke-linejoin="round" stroke-miterlimit="10" d="M648.66 162.69c1.8-5.64 4.57-14.75 7.9-21.64.82-1.7 2.12-4.02 3.6-6.53.02-.03.04-.07.06-.1.28-.48.57-.96.86-1.45.04-.05.07-.1.09-.15.21-.34.43-.7.64-1.05l.09-.15c4.26-6.99 9.1-14.2 8.9-13.25-.31 1.43-4.44 30.93-6.73 37.56-1.97 5.69-4.18 12.14-5.98 18.86v.01c-.3 1.11-.59 2.22-.86 3.35-1.92 7.93-5.38 8.25-8.11 9.01-1.51.42-2.53 2.36-2.53 2.36s-.43-.36-.08-2.58c.36-2.23-2.5-3.89-2.14-7.29.36-3.41 2.48-11.31 4.29-16.96z"/>
    <path fill="#5bc130" d="M685.68 133.8c.24-4.88.52-12.73 1.71-18.93.29-1.53.84-3.65 1.49-5.97.01-.03.02-.06.02-.09.12-.44.25-.89.38-1.34.02-.05.03-.09.04-.14.09-.32.19-.64.29-.97.01-.05.02-.09.04-.14 1.92-6.47 4.25-13.25 4.29-12.45.05 1.21 3.01 25.6 2.59 31.38-.37 4.96-.76 10.57-.78 16.31v.01c0 .95 0 1.9.03 2.85.15 6.73-2.54 7.72-4.56 8.9-1.11.65-1.52 2.42-1.52 2.42s-.42-.19-.61-2.04c-.19-1.86-2.81-2.57-3.25-5.36-.42-2.8-.41-9.56-.16-14.44z"/>
    <path d="M690 155.64c.26-7.55.54-15.1.84-22.65l.48-11.32c.18-3.77.35-7.55.64-11.31-.34 3.76-.55 7.53-.78 11.31l-.63 11.31c-.4 7.54-.77 15.09-1.13 22.64l.58.02z"/>
    <path fill="none" stroke="#000" stroke-linecap="round" stroke-linejoin="round" stroke-miterlimit="10" d="M685.68 133.8c.24-4.88.52-12.73 1.71-18.93.29-1.53.84-3.65 1.49-5.97.01-.03.02-.06.02-.09.12-.44.25-.89.38-1.34.02-.05.03-.09.04-.14.09-.32.19-.64.29-.97.01-.05.02-.09.04-.14 1.92-6.47 4.25-13.25 4.29-12.45.05 1.21 3.01 25.6 2.59 31.38-.37 4.96-.76 10.57-.78 16.31v.01c0 .95 0 1.9.03 2.85.15 6.73-2.54 7.72-4.56 8.9-1.11.65-1.52 2.42-1.52 2.42s-.42-.19-.61-2.04c-.19-1.86-2.81-2.57-3.25-5.36-.42-2.8-.41-9.56-.16-14.44z"/>
    <path d="m595.47 260.79.05-.29.05-.23c.03-.15.06-.31.1-.45l.21-.85c.16-.54.3-1.1.47-1.62.33-1.07.7-2.1 1.07-3.14.4-1.01.78-2.05 1.22-3.04l.64-1.5.68-1.47c1.83-3.92 3.9-7.68 6.11-11.35 4.48-7.29 9.51-14.17 14.91-20.71 5.4-6.54 11.18-12.74 17.18-18.69 2.97-3.01 6.08-5.86 9.15-8.75 3.16-2.8 6.25-5.66 9.5-8.36 1.61-1.36 3.2-2.75 4.83-4.08l4.91-3.98c.82-.66 1.63-1.33 2.46-1.98l2.5-1.93 5-3.86c1.68-1.27 3.38-2.5 5.08-3.75l2.54-1.87c.85-.62 1.69-1.25 2.55-1.85l5.16-3.63c1.72-1.21 3.43-2.43 5.18-3.59 13.9-9.47 28.2-18.32 42.74-26.71-14.3 8.82-28.31 18.08-41.89 27.92-1.72 1.2-3.38 2.48-5.06 3.73l-5.03 3.77c-.85.62-1.66 1.27-2.49 1.92l-2.47 1.94c-1.65 1.3-3.31 2.57-4.94 3.88l-4.86 3.98-2.43 1.99c-.81.67-1.59 1.36-2.39 2.04l-4.76 4.09c-1.58 1.37-3.11 2.79-4.67 4.19-3.14 2.77-6.12 5.7-9.17 8.56-2.95 2.95-5.95 5.86-8.8 8.92-5.75 6.05-11.25 12.32-16.36 18.88-5.1 6.56-9.8 13.41-13.91 20.56-2.02 3.59-3.9 7.25-5.51 10.99l-.6 1.4-.56 1.42c-.39.94-.7 1.89-1.04 2.84-.31.95-.62 1.9-.88 2.85-.14.48-.24.94-.37 1.41l-.15.69c-.03.12-.04.22-.06.32l-.03.16-.02.1-.02.1c-.25 1.61-1.76 2.72-3.37 2.47s-2.72-1.76-2.47-3.37c.01-.01.02-.04.02-.07z"/>
    <path fill="#5bc130" d="M733.77 132.78c3.55-.08 9.25-.3 13.8.24 1.12.13 2.69.41 4.41.76.02 0 .05.01.07.01.33.06.66.14.99.2.04.01.07.02.11.02.24.05.48.11.72.16.03.01.07.01.1.02 4.79 1.05 9.82 2.38 9.25 2.45-.87.1-18.39 3.54-22.59 3.54-3.61 0-7.69.01-11.85.3-.69.05-1.37.1-2.07.17-4.87.46-5.73-1.43-6.69-2.83-.53-.77-1.83-.97-1.83-.97s.12-.32 1.45-.55c1.33-.24 1.72-2.17 3.71-2.64 1.98-.46 6.87-.8 10.42-.88z"/>
    <path d="M718.18 137.06c5.48-.21 10.97-.41 16.45-.59l8.23-.25c2.74-.07 5.48-.15 8.23-.14-2.74-.04-5.49 0-8.23.03l-8.23.15c-5.49.11-10.97.24-16.46.38l.01.42z"/>
    <path fill="none" stroke="#000" stroke-linecap="round" stroke-linejoin="round" stroke-miterlimit="10" d="M733.77 132.78c3.55-.08 9.25-.3 13.8.24 1.12.13 2.69.41 4.41.76.02 0 .05.01.07.01.33.06.66.14.99.2.04.01.07.02.11.02.24.05.48.11.72.16.03.01.07.01.1.02 4.79 1.05 9.82 2.38 9.25 2.45-.87.1-18.39 3.54-22.59 3.54-3.61 0-7.69.01-11.85.3 0 0 0 0 0 0-.69.05-1.37.1-2.07.17-4.87.46-5.73-1.43-6.69-2.83-.53-.77-1.83-.97-1.83-.97s.12-.32 1.45-.55c1.33-.24 1.72-2.17 3.71-2.64 1.98-.46 6.87-.8 10.42-.88z"/>
    <path fill="#5bc130" d="M494.29 270.61c-4.73.61-12.33 1.71-18.49 1.64-1.52-.02-3.66-.17-6-.4-.03 0-.07 0-.09-.01-.45-.04-.9-.09-1.35-.13-.05-.01-.1-.01-.14-.02-.32-.03-.65-.07-.98-.11-.05 0-.09-.01-.14-.01-6.56-.72-13.47-1.79-12.71-1.96 1.15-.26 24.09-7.33 29.71-7.93 4.83-.51 10.29-1.1 15.81-2.08h.01c.91-.16 1.82-.33 2.74-.52 6.45-1.31 7.86 1.1 9.34 2.84.82.96 2.59 1.04 2.59 1.04s-.11.44-1.86.94c-1.75.5-1.99 3.15-4.59 4.06-2.62.89-9.11 2.04-13.85 2.65z"/>
    <path d="M514.53 262.67c-7.3 1.06-14.61 2.1-21.91 3.12l-10.97 1.5c-3.66.48-7.31.97-10.98 1.35 3.67-.33 7.34-.78 11-1.21l10.98-1.36c7.32-.93 14.64-1.88 21.95-2.84l-.07-.56z"/>
    <path fill="none" stroke="#000" stroke-linecap="round" stroke-linejoin="round" stroke-miterlimit="10" d="M494.29 270.61c-4.73.61-12.33 1.71-18.49 1.64-1.52-.02-3.66-.17-6-.4-.03 0-.07 0-.09-.01-.45-.04-.9-.09-1.35-.13-.05-.01-.1-.01-.14-.02-.32-.03-.65-.07-.98-.11-.05 0-.09-.01-.14-.01-6.56-.72-13.47-1.79-12.71-1.96 1.15-.26 24.09-7.33 29.71-7.93 4.83-.51 10.29-1.1 15.81-2.08h.01c.91-.16 1.82-.33 2.74-.52 6.45-1.31 7.86 1.1 9.34 2.84.82.96 2.59 1.04 2.59 1.04s-.11.44-1.86.94c-1.75.5-1.99 3.15-4.59 4.06-2.62.89-9.11 2.04-13.85 2.65z"/>
    <path fill="#5bc130" d="M538.02 260.09c-.76-5.88-1.85-15.33-3.88-22.7-.5-1.82-1.36-4.33-2.37-7.07-.01-.03-.03-.08-.04-.11-.19-.52-.39-1.05-.59-1.58-.03-.06-.05-.11-.07-.17-.14-.38-.29-.76-.44-1.14-.02-.06-.04-.11-.06-.17-2.94-7.64-6.41-15.6-6.37-14.63.05 1.47-1.19 31.22-.13 38.16.92 5.95 1.93 12.69 2.5 19.63v.01c.09 1.14.18 2.29.24 3.45.47 8.15 3.81 9.08 6.36 10.32 1.41.68 2.07 2.78 2.07 2.78s.49-.27.54-2.53c.05-2.26 3.15-3.38 3.42-6.79.25-3.43-.42-11.59-1.18-17.46z"/>
    <path d="M534.89 286.89c-1.04-9.1-2.1-18.19-3.18-27.28l-1.67-13.63c-.58-4.54-1.15-9.08-1.86-13.61.77 4.51 1.39 9.05 2.03 13.58l1.84 13.61c1.2 9.08 2.37 18.16 3.53 27.24l-.69.09z"/>
    <path fill="none" stroke="#000" stroke-linecap="round" stroke-linejoin="round" stroke-miterlimit="10" d="M538.02 260.09c-.76-5.88-1.85-15.33-3.88-22.7-.5-1.82-1.36-4.33-2.37-7.07-.01-.03-.03-.08-.04-.11-.19-.52-.39-1.05-.59-1.58-.03-.06-.05-.11-.07-.17-.14-.38-.29-.76-.44-1.14-.02-.06-.04-.11-.06-.17-2.94-7.64-6.41-15.6-6.37-14.63.05 1.47-1.19 31.22-.13 38.16.92 5.95 1.93 12.69 2.5 19.63v.01c.09 1.14.18 2.29.24 3.45.47 8.15 3.81 9.08 6.36 10.32 1.41.68 2.07 2.78 2.07 2.78s.49-.27.54-2.53c.05-2.26 3.15-3.38 3.42-6.79.25-3.43-.42-11.59-1.18-17.46z"/>
    <path fill="#5bc130" d="M506.79 225.02c.64-4.85 1.77-12.62 1.71-18.93-.01-1.55-.17-3.74-.39-6.14 0-.03 0-.07-.01-.1-.04-.46-.09-.92-.13-1.39-.01-.05-.01-.1-.02-.15-.03-.33-.07-.67-.11-1.01 0-.05-.01-.1-.01-.15-.73-6.71-1.8-13.8-1.98-13.02-.27 1.18-7.56 24.64-8.18 30.4-.53 4.94-1.15 10.53-2.17 16.18v.01c-.17.93-.34 1.87-.54 2.8-1.35 6.6 1.11 8.05 2.89 9.57.98.84 1.06 2.65 1.06 2.65s.45-.11.97-1.9c.52-1.79 3.23-2.03 4.16-4.69.92-2.64 2.11-9.28 2.75-14.13z"/>
    <path d="M498.62 245.73c1.1-7.47 2.18-14.95 3.24-22.43l1.56-11.22c.5-3.74 1.01-7.49 1.4-11.24-.35 3.76-.81 7.51-1.26 11.26l-1.41 11.24c-.96 7.49-1.95 14.98-2.96 22.47l-.57-.08z"/>
    <path fill="none" stroke="#000" stroke-linecap="round" stroke-linejoin="round" stroke-miterlimit="10" d="M506.79 225.02c.64-4.85 1.77-12.62 1.71-18.93-.01-1.55-.17-3.74-.39-6.14 0-.03 0-.07-.01-.1-.04-.46-.09-.92-.13-1.39-.01-.05-.01-.1-.02-.15-.03-.33-.07-.67-.11-1.01 0-.05-.01-.1-.01-.15-.73-6.71-1.8-13.8-1.98-13.02-.27 1.18-7.56 24.64-8.18 30.4-.53 4.94-1.15 10.53-2.17 16.18v.01c-.17.93-.34 1.87-.54 2.8-1.35 6.6 1.11 8.05 2.89 9.57.98.84 1.06 2.65 1.06 2.65s.45-.11.97-1.9c.52-1.79 3.23-2.03 4.16-4.69.92-2.64 2.11-9.28 2.75-14.13z"/>
    <path d="M572.72 366.14v-.29l-.01-.23c-.01-.15-.01-.31-.02-.46l-.06-.87c-.06-.56-.1-1.13-.17-1.68-.13-1.11-.31-2.19-.49-3.28-.21-1.07-.4-2.15-.65-3.21l-.36-1.59-.41-1.57c-1.09-4.18-2.46-8.26-3.97-12.26-3.1-7.97-6.81-15.65-10.95-23.05s-8.71-14.54-13.54-21.47c-2.38-3.49-4.93-6.86-7.43-10.25-2.6-3.32-5.13-6.69-7.84-9.93-1.34-1.63-2.65-3.28-4.02-4.88l-4.12-4.79c-.69-.8-1.36-1.6-2.07-2.39l-2.11-2.35-4.22-4.69c-1.43-1.55-2.88-3.07-4.32-4.6l-2.16-2.3c-.72-.76-1.44-1.54-2.18-2.28l-4.42-4.5c-1.48-1.5-2.94-3.01-4.46-4.46-11.97-11.81-24.45-23.09-37.25-33.96 12.48 11.24 24.61 22.87 36.2 34.99 1.47 1.49 2.88 3.05 4.31 4.58l4.28 4.61c.72.76 1.41 1.55 2.1 2.33l2.09 2.35c1.39 1.57 2.79 3.13 4.16 4.71l4.06 4.79 2.03 2.4c.67.8 1.32 1.62 1.98 2.43l3.95 4.88c1.31 1.63 2.56 3.31 3.84 4.96 2.59 3.29 5 6.7 7.48 10.07 2.37 3.44 4.8 6.84 7.05 10.35 4.57 6.98 8.86 14.14 12.7 21.51 3.84 7.37 7.24 14.95 9.99 22.72 1.34 3.89 2.53 7.83 3.45 11.8l.34 1.49.29 1.49c.21.99.35 1.99.52 2.98.13.99.27 1.98.35 2.96.06.49.07.97.11 1.46l.02.7c.01.12 0 .22 0 .33v.36c-.04 1.63 1.24 2.99 2.87 3.03 1.63.04 2.99-1.24 3.03-2.87.03 0 .03-.04.03-.07z"/>
    <path fill="#5bc130" d="M459.66 215.38c-3.48-.72-9.05-1.95-13.62-2.24-1.13-.07-2.72-.08-4.47-.04h-.07c-.33 0-.67.02-1.01.02h-.11c-.24.01-.49.02-.74.03h-.11c-4.9.17-10.09.58-9.54.75.84.26 17.45 6.78 21.59 7.54 3.55.65 7.57 1.39 11.61 2.43.67.17 1.33.35 2 .54 4.71 1.33 5.89-.38 7.09-1.58.66-.66 1.98-.63 1.98-.63s-.06-.33-1.32-.8c-1.27-.47-1.3-2.45-3.18-3.26-1.87-.83-6.62-2.05-10.1-2.76z"/>
    <path d="M474.23 222.39c-5.36-1.19-10.71-2.37-16.08-3.54l-8.05-1.72c-2.69-.56-5.37-1.13-8.07-1.61 2.71.45 5.4.98 8.09 1.51l8.07 1.62c5.38 1.1 10.75 2.21 16.12 3.33l-.08.41z"/>
    <path fill="none" stroke="#000" stroke-linecap="round" stroke-linejoin="round" stroke-miterlimit="10" d="M459.66 215.38c-3.48-.72-9.05-1.95-13.62-2.24-1.13-.07-2.72-.08-4.47-.04h-.07c-.33 0-.67.02-1.01.02h-.11c-.24.01-.49.02-.74.03h-.11c-4.9.17-10.09.58-9.54.75.84.26 17.45 6.78 21.59 7.54 3.55.65 7.57 1.39 11.61 2.43 0 0 0 0 0 0 .67.17 1.33.35 2 .54 4.71 1.33 5.89-.38 7.09-1.58.66-.66 1.98-.63 1.98-.63s-.06-.33-1.32-.8c-1.27-.47-1.3-2.45-3.18-3.26-1.87-.83-6.62-2.05-10.1-2.76z"/>
    <path fill="#5bc130" d="M670.43 280.13c-1.82 5.71-4.86 14.84-6.15 22.46-.32 1.88-.6 4.55-.85 7.5 0 .04-.01.08-.01.12-.05.56-.09 1.13-.14 1.7 0 .06-.01.12-.01.18-.03.41-.06.82-.08 1.24-.01.06-.01.12-.02.18-.57 8.26-.8 17.03-.42 16.13.58-1.37 14.43-28.1 16.43-34.91 1.71-5.85 3.65-12.46 6.1-19.05v-.01c.4-1.09.82-2.18 1.25-3.26 3.06-7.67.4-9.95-1.42-12.17-1-1.23-.71-3.43-.71-3.43s-.57.04-1.58 2.08c-1.01 2.05-4.33 1.75-6.03 4.76-1.67 3.01-4.55 10.77-6.36 16.48z"/>
    <path d="M684.75 256.91c-2.94 8.78-5.86 17.56-8.75 26.36l-4.3 13.2c-1.41 4.41-2.83 8.81-4.12 13.26 1.23-4.46 2.6-8.89 3.95-13.31l4.13-13.26c2.78-8.83 5.59-17.65 8.42-26.47l.67.22z"/>
    <path fill="none" stroke="#000" stroke-linecap="round" stroke-linejoin="round" stroke-miterlimit="10" stroke-width="1.2739" d="M670.43 280.13c-1.82 5.71-4.86 14.84-6.15 22.46-.32 1.88-.6 4.55-.85 7.5 0 .04-.01.08-.01.12-.05.56-.09 1.13-.14 1.7 0 .06-.01.12-.01.18-.03.41-.06.82-.08 1.24-.01.06-.01.12-.02.18-.57 8.26-.8 17.03-.42 16.13.58-1.37 14.43-28.1 16.43-34.91 1.71-5.85 3.65-12.46 6.1-19.05v-.01c.4-1.09.82-2.18 1.25-3.26 3.06-7.67.4-9.95-1.42-12.17-1-1.23-.71-3.43-.71-3.43s-.57.04-1.58 2.08c-1.01 2.05-4.33 1.75-6.03 4.76-1.67 3.01-4.55 10.77-6.36 16.48z"/>
    <path d="M619.21 277.95c1.82-1.41 3.62-2.73 5.45-4.05.91-.66 1.83-1.32 2.76-1.96.92-.65 1.85-1.29 2.78-1.92 3.73-2.53 7.52-5 11.41-7.3.96-.59 1.95-1.15 2.93-1.71.99-.56 1.96-1.14 2.97-1.66l3.01-1.6 3.07-1.51c4.13-1.95 8.37-3.72 12.9-4.95.38-.11.77-.1 1.12 0h.01c7.25 2.19 14.47 4.43 21.68 6.68 7.22 2.26 14.42 4.55 21.61 6.88 7.19 2.33 14.37 4.71 21.52 7.16 7.15 2.46 14.29 4.97 21.3 7.79-7.14-2.48-14.38-4.63-21.63-6.74-7.25-2.1-14.53-4.14-21.82-6.11-7.29-1.98-14.59-3.92-21.89-5.82-7.31-1.9-14.62-3.78-21.94-5.62l1.13.01c-4.12 1.11-8.16 2.79-12.12 4.66l-2.95 1.45-2.91 1.55c-.98.5-1.93 1.07-2.89 1.62-.96.55-1.92 1.09-2.86 1.67-3.8 2.25-7.52 4.67-11.19 7.16-.92.62-1.83 1.25-2.74 1.89-.91.63-1.81 1.28-2.71 1.92-1.79 1.29-3.6 2.62-5.32 3.95l-.02.01c-.95.74-2.33.56-3.06-.39-.73-.95-.56-2.32.4-3.06z"/>
    <path d="m658.62 255.22.26-.77s4.58-2.92 7.52-3.34c2.94-.42 8.99 1.17 9.28 2.29.28 1.12.38 2.03-1.88 3.6-1.14.79-5.83-.23-8.63.75-2.8.98-3.68.86-4.61.74"/>
    <path fill="#5bc130" d="M620.5 403.91c-.35.05-.71.1-1.07.14h-.08l-.05.02-1.02.12h-.12l-.03.01-.93.09c-.05 0-.09 0-.17.01l-1 .08c-.07 0-.13 0-.2.01l-.95.06c-.04 0-1.15.05-1.15.05h-.18c-.31.01-.62.02-.98.03l-.08-.01-.07.01c-.35.01-.69.01-1.03.01h-.17c-.27.01-.53.01-.79.01h-.24c-.23 0-.45 0-.68-.01h-.24c-.24 0-.49-.01-.74-.01h-.05c-.02 0-.11-.01-.11-.01h-.04c-.18 0-.36-.01-.53-.01h-.06l-.06-.01-.58-.02c-.07-.01-.14-.01-.18-.01h-.03s-.45-.03-.59-.04c-.19-.01-.38-.03-.55-.04-.07-.01-.16-.02-.19-.02h-.01c-.22-.02-.43-.04-.67-.07l-.07-.02h-.04l-.69-.08-.74-.1-.17-.02c-.04-.01-.11-.03-.19-.03-.24-.03-.48-.07-.71-.11l-.25-.04c-.29-.04-.57-.09-.93-.15l-.08-.01c-.26-.04-.53-.09-.79-.14l-.27-.05c-.29-.06-.58-.11-.94-.19l-.93-.2-1.2-.27-.09-.02c-.27-.06-.55-.13-.84-.21-.04-.01-.08-.02-.17-.05l-.15-.04c-.26-.07-.52-.13-.77-.21l-.16-.05c-.27-.07-.54-.15-.8-.23l-.07-.02-.05-.02-.04-.01c-.29-.08-.56-.17-.91-.29-.04-.02-.24-.08-.24-.08-.21-.07-.41-.14-.6-.21-.05-.02-.11-.04-.17-.06-.26-.1-.51-.19-.76-.3l-.08-.03-.93-.31-.07.95c-1.52 20.91-9.18 94.04-10.05 102.32-.06.62-.12 1.17-.17 1.63l-.11 1.05.4.24c5.78 3.49 13.63 5.57 20.99 5.57 5.31 0 10.18-1.01 14.47-3.01l.39-.18 7.64-106.01-.97.21c-.66.16-1.37.28-2.07.39z"/>
    <path fill="#449b1c" d="m625.87 395.72-.81.29c-.21.08-.43.15-.71.23-.03.01-.07.02-.13.04-.26.08-.52.15-.86.23l.2.71-.28-.69c-.28.06-.56.12-.85.18l-.09.02c-.31.06-.63.12-.92.16l-.13.02.12.73-.22-.71c-.31.05-.63.1-.93.14l-.33.04c-.29.04-.57.07-.86.11-.03 0-.15.01-.15.01-.33.04-.65.07-1.05.1l-.08.01c-.34.03-.68.06-.97.08-.1 0-.19.01-.26.02-.33.02-.67.04-.97.06-.05 0-.09 0-.14.01l.05.74-.13-.73c-.66.03-1.31.06-1.94.08l-.32.01c-.3.01-.61.01-.9.01-.05 0-.09 0-.17.01h-1.75l-.58-.01c-.16-.01-.3-.01-.45-.01-.06-.01-.11-.01-.16-.01-.17 0-.34-.01-.53-.01l-.51-.01-.07-.01-.29-.01c-.06-.01-.11-.01-.15-.01h-.01c-.09-.01-.17-.01-.25-.01-.05-.01-.08-.01-.1-.01-.01 0-.77-.06-.87-.06-.04-.01-.08-.01-.1-.01l-.04-.01s-.55-.05-.7-.07c-.06-.01-.14-.02-.2-.02l-.29-.04c-.16-.02-.33-.04-.49-.07l-.32-.04c-.2-.03-.41-.05-.7-.09l-.46-.07c-.18-.03-.37-.06-.55-.09 0 0-.2-.03-.21-.03 0 0-.68-.12-1.03-.18l-.12.73v-.75c-.28-.05-.56-.1-.84-.16l-.1-.02c-.08-.02-.16-.04-.21-.04-.36-.07-.72-.15-1.02-.21-.09-.03-.19-.05-.28-.07l-1.08-.24-.18-.05c-.34-.08-.68-.16-1.02-.25-.05-.02-.11-.03-.14-.04-.23-.06-.46-.12-.68-.18l-.61-.17c-.35-.1-.69-.2-1.08-.33-.03-.01-.07-.02-.14-.05-.34-.11-.67-.22-.97-.32l-.04-.02-.04-.01c-.33-.12-.65-.24-.95-.36l-.17-.07c-.29-.12-.58-.24-.83-.36l-.1-.05-.3.67.23-.71-.11-.05c-.22-.11-.43-.21-.63-.32l-.98-.86-.21 1.56c-.09.9.16 1.74.76 2.58l.04.07c.04.07.1.13.16.2l.08.1.04.04c2.2 2.07 11.61 4.13 16.89 4.52 1.1.08 2.43.12 3.84.12 5.32 0 11.73-.55 14.07-1.78.21-.11.34-.2.45-.29.36-.31 1.43-1.25 1.1-2.98l-.19-.88z"/>
    <path fill="#449b1c" d="m625.95 387.96-.63.21c-2.46.82-5.88 1.3-10.15 1.42-.67.02-1.36.03-2.09.03-.57 0-1.16-.01-1.76-.01l-1.07-.03c-1.65-.05-2.69-.13-2.83-.15-1.12-.07-11.16-.8-17.14-3.64l-.77-.37-.25.82c-.15.5-.21 1-.17 1.51.04.27.1.51.17.72.12.38.31.73.56 1.07l.04.06c.09.12.17.24.26.33 1.58 1.85 10.89 4.16 16.96 4.6 1.21.09 2.57.13 4.02.13 4.76 0 12.5-.55 14.31-2.07l.07-.04.06-.05c1.12-1.05 1.37-2.45.69-3.92l-.28-.62z"/>
    <path fill="#5bc130" d="M619.67 287.91c-1.43 0-2.85-.04-4-.12-3.34-.25-10.03-1.39-14.43-3.13l-.93-.37-.08 1c-1.36 18-6.99 72.36-9.34 94.9l-.26 2.45.44.23c5.34 2.84 16.46 3.6 16.59 3.61l.09.01c.31.02 1.25.09 2.56.13l.47.01c.19.01.38.02.58.02.59.01 1.16.02 1.7.02.7 0 1.37-.01 2.02-.03 3.75-.11 6.74-.49 8.93-1.15l.17-.07.45-.17 7.1-98.44-.95.19c-4.05.82-9.12.91-11.11.91z"/>
    <path fill="#449b1c" d="m634.37 279.43-.79.28c-3.78 1.33-9.99 1.53-13.36 1.53-2.2 0-3.68-.08-4.07-.11-2.83-.21-11.99-1.56-16.42-4.05l-.88-.5-.2.99c-.02.1-.04.21-.05.3-.09.89.15 1.71.73 2.51.09.13.18.24.28.36l.22.27h.08c2.38 1.81 10.67 3.74 15.95 4.13 1.07.08 2.36.12 3.74.12 4.35 0 10.38-.4 13.08-1.54.29-.12.66-.3.8-.45.39-.35 1.44-1.28 1.07-3.01l-.18-.83z"/>
    <path fill="#449b1c" d="m634.44 272.01-.63.21c-2.36.79-5.63 1.25-9.72 1.37-.66.02-1.32.03-2.02.03-.54 0-1.09-.01-1.66-.01l-.87-.02-.17-.01c-1.31-.04-2.23-.1-2.56-.12-.08 0-.12-.01-.13-.01-1.78-.12-10.89-.86-16.4-3.5l-.74-.35-.28.77c-.14.39-.21.8-.21 1.2 0 .1.01.2.02.33.03.26.08.5.17.75.15.45.42.91.84 1.42 1.52 1.77 10.45 3.98 16.26 4.4 1.13.08 2.4.12 3.77.12 4.66 0 12.19-.53 13.84-2 1.19-1.04 1.45-2.45.75-3.97l-.26-.61z"/>
    <path fill="#5bc130" d="M635.92 193.01c-1.73 2.86-3.71 5.81-5.88 8.76-.68.92-1.37 1.83-2.04 2.71-6.14 7.91-15.26 17.46-20.75 18.36-.26.05-.52.07-.81.07-.16 0-.3-.01-.47-.03l-.72-.06-.07.72c-1.77 17.67-3.57 34.85-4.24 41.31l-.24 2.29.45.23c4.13 2.13 12.12 3.15 15.78 3.4l.08.01c.3.02 1.2.08 2.45.12l.16.01.84.02c.56.01 1.1.02 1.62.02.67 0 1.32-.01 1.95-.03 3.95-.11 7-.54 9.06-1.27l.46-.16 5.73-79.46-1.39-.41c-.57 1.03-1.21 2.14-1.97 3.39z"/>
    <path fill="#449b1c" d="M640.29 175.13c-.01-.07-.02-.13-.03-.15l-.01-.07v-.7l-.77.03c-.63.02-2.1.37-4.91 2.43-.51.37-1.03.77-1.59 1.23-.36.3-.73.61-1.11.93-1.88 1.64-3.97 3.7-6.04 5.96l-.83.94c-2.42 2.72-4.74 5.6-6.92 8.55-3.44 4.68-6.42 9.4-8.61 13.63-1.4 2.69-2.48 5.21-3.14 7.31 0 0-.07.19-.07.22-.04.11-.07.22-.1.33l-.2.74-.03.18c-.06.26-.12.52-.16.8l-.12 1.19c-.01.4.02.75.1 1.01l.16.53h.55c.08 0 .18-.01.35-.03 3.76-.62 11.6-7.76 19.06-17.36.66-.86 1.33-1.75 2.01-2.65 2.11-2.87 4.05-5.75 5.76-8.57 3.72-6.13 6.13-11.57 6.6-14.98l.07-1.03v-.09c0-.15-.01-.27-.02-.38z"/>
    <path fill="none" stroke="#000" stroke-linecap="round" stroke-linejoin="round" stroke-miterlimit="10" stroke-width="4" d="M617.35 510.27c-12.7 6.59-29.55 3.66-39.24-2.83 0 0 .14-1.29.38-3.59 1.82-17.4 9.65-92.6 10.27-105.75 2.58 2.42 12.65 4.49 17.74 4.86 4.87.34 15.15.04 18.72-1.83l-7.87 109.14zm9.09-116.59c-.02.02-.04.03-.07.05-2.7 2.26-14.15 2.64-19.38 2.26-5.26-.38-15.8-2.58-17.96-5.08-.13-.15-.25-.31-.36-.46-.37-.49-.62-.98-.78-1.46-.14-.38-.21-.75-.25-1.11-.24-2.37 1.36-4.21 1.54-4.39.01-.01.01-.02.02-.03 5.11 3.63 18.37 4.5 18.37 4.5s1.07.09 2.72.14c.34.01.69.02 1.07.03 1.12.02 2.42.03 3.78-.02 3.95-.11 8.52-.58 11.25-1.97.02 0 3.82 4.21.05 7.54z"/>
    <path fill="none" stroke="#000" stroke-linecap="round" stroke-linejoin="round" stroke-miterlimit="10" stroke-width="4" d="M625.94 400.65c-.19.17-.44.34-.73.48-3.57 1.87-13.85 2.17-18.72 1.83-5.09-.37-15.16-2.44-17.74-4.86-.08-.07-.15-.15-.22-.23-.12-.15-.24-.29-.34-.43-.93-1.29-1.16-2.52-1.04-3.6.14-1.42.86-2.54 1.26-3.08.13-.16.23-.28.27-.32.11.15.22.31.36.46 2.16 2.51 12.7 4.7 17.96 5.08 5.22.38 16.68 0 19.38-2.26.87 1.29 2.46 4.37-.44 6.93zM633.23 284.93l-7.3 101.13c-.78.41-1.58.77-2.4 1.1m-24.39-105.09c-.86 14.57-7.89 82.09-9.55 97.98-.23 2.15-.35 3.36-.35 3.36.48.32.99.64 1.5.94.03.01.05.03.08.04m44.01-113.9-.06-.09m-35.47-2.58c.06-.54.14-1.27.23-2.18.79-7.58 2.85-27.29 4.82-47.05.05-.45.09-.9.14-1.35.42-2.51 1.76-5.96 3.83-9.94 2.16-4.17 5.13-8.93 8.72-13.81 2.61-3.55 5.27-6.79 7.85-9.61 2.57-2.81 5.04-5.2 7.28-7.02 3.87-3.17 6.99-4.63 8.52-3.67.66.41.98 1.23.99 2.4l-6.84 94.77-.01.12"/>
    <path fill="none" stroke="#000" stroke-linecap="round" stroke-linejoin="round" stroke-miterlimit="10" stroke-width="4" d="M597.78 272.03c.04.34.11.69.24 1.05.21.6.56 1.22 1.09 1.84 2.06 2.4 12.15 4.5 17.18 4.86 5.03.36 16.11-.01 18.6-2.2 3.6-3.18-.03-7.21-.03-7.21-2.61 1.33-6.98 1.77-10.76 1.89-1.31.04-2.55.03-3.62.01-.36-.01-.71-.02-1.02-.03-1.58-.05-2.61-.13-2.61-.13s-12.68-.84-17.57-4.3l-.02.02c-.18.17-1.72 1.93-1.48 4.2z"/>
    <path fill="none" stroke="#000" stroke-linecap="round" stroke-linejoin="round" stroke-miterlimit="10" stroke-width="4" d="M598.76 274.49c-.04.04-.11.12-.21.25v.01c-.02.01-.03.03-.04.05-.39.5-1.08 1.58-1.21 2.94-.11 1.03.11 2.22 1 3.44.1.14.21.28.33.42.14.16.31.32.52.47 2.88 2.2 11.97 4.04 16.65 4.39 4.46.33 13.67.06 17.43-1.52.48-.2.88-.43 1.17-.68 2.76-2.45 1.27-5.39.42-6.62m-30.47-59.04c-.05 1.31.28 2.23.98 2.68.45.28 1.03.36 1.73.24 4.08-.67 12.07-7.78 19.89-17.85.68-.88 1.36-1.77 2.03-2.69 2.18-2.97 4.14-5.89 5.82-8.66 3.88-6.39 6.32-11.99 6.78-15.51.06-.43.09-.84.09-1.21-.01-1.17-.33-1.98-.99-2.39-1.54-.96-4.65.49-8.53 3.67-2.23 1.82-4.71 4.21-7.28 7.02-2.57 2.82-5.24 6.06-7.85 9.61-3.59 4.88-6.56 9.64-8.72 13.81-2.07 3.98-3.4 7.43-3.82 9.94-.07.47-.12.92-.13 1.34z"/>
    <path fill="#5bc130" d="M595.65 367.21c-.34.08-.7.17-1.05.25l-.08.01-.05.02-1 .22-.12.02-.03.01-.91.18c-.05 0-.09.01-.16.03l-.98.18c-.07.01-.13.02-.2.03l-.94.15c-.04 0-1.13.17-1.13.17l-.18.02c-.31.05-.61.08-.97.13h-.08l-.06.02c-.35.04-.69.08-1.03.12l-.17.02c-.27.03-.53.06-.78.09-.01 0-.23.02-.24.02-.22.02-.44.04-.68.06l-.24.02c-.24.02-.49.04-.74.06-.02 0-.04 0-.05.01h-.15c-.18.02-.36.03-.53.04l-.06.01h-.06l-.58.04h-.21s-.45.02-.59.02c-.19.01-.38.01-.55.01h-.87l-.07-.01h-.04l-.7-.01-.75-.02h-.18c-.04-.01-.11-.01-.19-.01-.24-.01-.49-.02-.72-.03l-.25-.02c-.29-.01-.58-.04-.94-.06l-.08-.01c-.26-.02-.54-.04-.8-.06l-.27-.02c-.29-.03-.59-.05-.95-.09l-.94-.1-1.22-.15-.1-.02c-.28-.04-.56-.07-.86-.12-.04 0-.08-.01-.17-.03l-.15-.02c-.26-.04-.53-.08-.79-.13l-.17-.03c-.27-.05-.55-.1-.82-.15l-.07-.01-.05-.01-.04-.01c-.29-.05-.58-.12-.93-.19-.05-.01-.25-.06-.25-.06-.21-.05-.42-.1-.62-.15-.05-.01-.11-.03-.17-.04-.27-.07-.53-.14-.79-.22l-.09-.02-.96-.22.03.96c.59 20.95.32 94.49.28 102.81v2.7l.42.2c6.1 2.89 14.12 4.17 21.45 3.43 5.28-.53 10.02-2.03 14.09-4.45l.37-.22-3.05-106.24-.94.31c-.68.19-1.36.39-2.05.56z"/>
    <path fill="#449b1c" d="m600.17 358.53-.77.37c-.21.1-.42.19-.69.3-.03.02-.06.03-.13.05-.25.1-.51.2-.84.31l.27.69-.35-.66c-.27.09-.55.18-.83.26l-.09.03c-.3.09-.61.18-.9.25l-.13.03.19.71-.29-.69c-.31.08-.62.16-.91.24l-.33.07c-.28.07-.56.13-.84.19-.03 0-.15.03-.15.03-.32.07-.64.13-1.03.21l-.08.02c-.34.06-.67.13-.96.18-.1.01-.19.03-.25.04-.33.06-.66.11-.96.16-.05 0-.09.01-.13.02l.12.73-.2-.72c-.65.1-1.3.19-1.92.27l-.32.04c-.3.04-.6.07-.89.1-.05 0-.09.01-.17.02l-1.74.18-.58.05c-.16.01-.3.02-.44.04-.06 0-.11 0-.16.01-.17.02-.34.03-.53.04l-.51.04h-.07l-.29.02c-.06 0-.11 0-.15.01h-.01c-.09 0-.17 0-.25.01h-.1c-.01 0-.78.02-.87.03h-.86c-.06 0-.14-.01-.2 0l-.29-.01c-.16 0-.33-.01-.5-.02l-.32-.01c-.2-.01-.42-.01-.7-.02l-.47-.03c-.18-.01-.37-.02-.56-.03 0 0-.2-.01-.21-.01 0 0-.69-.05-1.04-.07l-.05.74-.07-.75c-.28-.02-.57-.05-.86-.07l-.1-.01c-.08-.01-.17-.02-.21-.02-.36-.04-.73-.08-1.04-.1-.1-.02-.19-.03-.28-.04l-1.1-.13-.19-.03c-.35-.04-.69-.09-1.04-.14-.05-.01-.11-.02-.14-.02-.24-.04-.47-.08-.7-.12l-.63-.11c-.36-.07-.71-.13-1.1-.22-.03 0-.07-.01-.14-.03-.35-.07-.69-.15-.99-.22l-.04-.02-.04-.01c-.34-.08-.67-.17-.99-.26l-.18-.05c-.3-.09-.6-.18-.86-.28l-.1-.04-.23.7.15-.73-.11-.04c-.23-.08-.45-.17-.66-.26l-1.06-.76-.05 1.58c0 .9.33 1.72 1.02 2.49l.05.06c.05.06.11.12.18.18l.09.09.04.03c2.39 1.84 11.97 2.94 17.26 2.8 1.1-.03 2.43-.13 3.84-.27 5.29-.53 11.62-1.73 13.82-3.18.2-.13.32-.23.42-.33.32-.34 1.3-1.39.79-3.08l-.27-.83z"/>
    <path fill="#449b1c" d="m599.46 350.8-.6.27c-2.37 1.06-5.72 1.88-9.95 2.43-.67.09-1.35.17-2.08.24-.56.06-1.15.11-1.75.16l-1.07.08c-1.64.12-2.69.14-2.83.14-1.13.04-11.19.32-17.42-1.9l-.81-.29-.17.84c-.1.52-.11 1.01-.01 1.52.06.27.15.5.24.7.16.36.38.69.66 1.01l.04.05c.1.11.2.22.29.31 1.76 1.68 11.26 3.04 17.33 2.87 1.22-.04 2.57-.13 4.01-.27 4.74-.48 12.38-1.8 14.03-3.49l.06-.05.05-.06c1.01-1.16 1.11-2.57.29-3.97l-.31-.59z"/>
    <path fill="#5bc130" d="M583.16 251.89c-1.42.14-2.84.24-3.99.28-3.35.09-10.12-.37-14.67-1.66l-.97-.27.03 1c.45 18.04.32 72.7.25 95.36l-.01 2.46.46.19c5.6 2.29 16.74 1.93 16.87 1.93h.09c.31-.01 1.26-.04 2.56-.13l.46-.03c.19-.01.38-.02.57-.04.59-.05 1.15-.1 1.69-.16.7-.07 1.36-.15 2-.23 3.72-.49 6.66-1.17 8.76-2.04l.17-.09.43-.21-2.83-98.65-.93.29c-3.93 1.2-8.96 1.8-10.94 2z"/>
    <path fill="#449b1c" d="m596.94 241.97-.76.36c-3.63 1.7-9.79 2.52-13.14 2.86-2.19.22-3.67.29-4.06.3-2.84.08-12.09-.35-16.74-2.38l-.93-.41-.1 1.01c-.01.1-.02.21-.02.3-.01.89.32 1.69.98 2.42.1.12.2.22.31.33l.25.24.08-.01h.01c2.55 1.57 10.99 2.65 16.28 2.5 1.07-.03 2.36-.12 3.74-.26 4.32-.44 10.29-1.45 12.86-2.85.27-.15.63-.37.75-.53.36-.39 1.3-1.42.76-3.1l-.27-.78z"/>
    <path fill="#449b1c" d="m596.26 234.58-.6.27c-2.27 1.02-5.47 1.81-9.54 2.34-.65.09-1.32.16-2.01.23-.54.05-1.09.1-1.65.15l-.87.07-.17.01c-1.3.09-2.23.12-2.56.13-.08 0-.12 0-.13.01-1.79.06-10.93.24-16.67-1.83l-.77-.28-.2.79c-.1.41-.13.82-.09 1.22.01.1.03.2.05.33.05.26.13.49.25.73.2.44.51.87.98 1.32 1.69 1.61 10.8 2.91 16.62 2.74 1.14-.03 2.4-.12 3.77-.26 4.63-.47 12.07-1.76 13.57-3.38 1.08-1.16 1.2-2.59.35-4.03l-.33-.56z"/>
    <path fill="#5bc130" d="M589.79 155.83c-1.43 3.02-3.11 6.15-4.97 9.31-.58.98-1.18 1.95-1.76 2.9-5.32 8.48-13.42 18.91-18.8 20.35-.25.07-.51.12-.8.15-.16.02-.3.02-.47.02l-.73.01v.73c.01 17.76-.05 35.03-.07 41.53l-.01 2.3.47.19c4.33 1.7 12.37 1.92 16.04 1.8h.08c.3-.01 1.2-.04 2.45-.13l.16-.01.84-.06c.56-.05 1.1-.1 1.62-.15.67-.07 1.31-.14 1.93-.23 3.92-.51 6.91-1.24 8.89-2.17l.44-.21-2.29-79.63-1.42-.27c-.45 1.08-.97 2.25-1.6 3.57z"/>
    <path fill="#449b1c" d="M592.34 137.61c-.01-.07-.03-.13-.04-.15l-.02-.07-.07-.69-.76.11c-.62.09-2.05.58-4.64 2.91-.47.42-.95.87-1.46 1.38-.33.33-.66.68-1.01 1.04-1.71 1.82-3.58 4.08-5.41 6.54l-.73 1.01c-2.13 2.95-4.16 6.05-6.02 9.21-2.95 5.01-5.44 10-7.19 14.43-1.12 2.82-1.95 5.43-2.39 7.59 0 0-.05.2-.05.23-.02.12-.04.23-.06.34l-.12.75-.02.18c-.04.27-.07.53-.08.81v1.2c.03.4.09.74.2 1l.21.51.55-.06c.07-.01.18-.03.34-.07 3.68-1 10.76-8.89 17.22-19.19.57-.92 1.15-1.88 1.73-2.84 1.81-3.07 3.45-6.13 4.87-9.1 3.09-6.47 4.93-12.13 5.06-15.57l-.03-1.04-.01-.09c-.02-.14-.05-.27-.07-.37z"/>
    <path fill="none" stroke="#000" stroke-linecap="round" stroke-linejoin="round" stroke-miterlimit="10" stroke-width="4" d="M603.21 473.36c-11.98 7.84-29.03 6.61-39.32 1.13 0 0 .01-1.3.02-3.61.06-17.49.29-93.1-.41-106.25 2.81 2.15 13.03 3.2 18.13 3.05 4.88-.15 15.08-1.48 18.44-3.7l3.14 109.38zm-2.68-116.92c-.02.02-.03.03-.06.05-2.46 2.52-13.82 4.05-19.05 4.2-5.27.15-15.98-.97-18.38-3.25-.15-.14-.28-.28-.4-.42-.41-.45-.71-.92-.93-1.38-.17-.37-.28-.72-.36-1.08-.48-2.33.93-4.32 1.09-4.53.01-.01.01-.02.02-.03 5.45 3.09 18.73 2.63 18.73 2.63s1.07-.02 2.72-.14c.34-.03.69-.05 1.07-.08 1.12-.09 2.41-.22 3.76-.4 3.92-.51 8.42-1.43 11-3.09 0 .03 4.21 3.83.79 7.52z"/>
    <path fill="none" stroke="#000" stroke-linecap="round" stroke-linejoin="round" stroke-miterlimit="10" stroke-width="4" d="M600.74 363.43c-.18.19-.4.38-.68.55-3.36 2.22-13.57 3.55-18.44 3.7-5.1.15-15.33-.91-18.13-3.05-.09-.07-.17-.13-.25-.2-.14-.14-.27-.26-.38-.4-1.06-1.19-1.4-2.4-1.39-3.48 0-1.42.6-2.62.94-3.19.12-.18.2-.3.23-.35.12.14.25.28.4.42 2.4 2.28 13.11 3.4 18.38 3.25 5.23-.15 16.59-1.68 19.05-4.2 1 1.21 2.89 4.11.27 6.95zM596.35 247.56l2.91 101.35c-.74.48-1.5.93-2.27 1.34m-34.84-102.11c.61 14.58.4 82.47.35 98.45-.01 2.16-.01 3.38-.01 3.38.51.27 1.04.53 1.59.79.03.01.06.03.09.04m32.33-117.77c-.03-.03-.05-.06-.07-.08"/>
    <path fill="none" stroke="#000" stroke-linecap="round" stroke-linejoin="round" stroke-miterlimit="10" stroke-width="4" d="M560.87 233.95c0-.54.01-1.28.01-2.19.02-7.62.09-27.44.07-47.3 0-.45 0-.9.01-1.36.17-2.54 1.15-6.11 2.81-10.27 1.73-4.36 4.21-9.4 7.29-14.61 2.24-3.79 4.57-7.29 6.84-10.35 2.27-3.06 4.5-5.68 6.54-7.71 3.53-3.55 6.49-5.31 8.11-4.51.69.35 1.1 1.12 1.23 2.29l2.72 94.98.01.12"/>
    <path fill="none" stroke="#000" stroke-linecap="round" stroke-linejoin="round" stroke-miterlimit="10" stroke-width="4" d="M559.78 238.29c.07.34.18.68.34 1.03.27.58.68 1.16 1.27 1.72 2.29 2.18 12.54 3.25 17.58 3.11 5.04-.14 16.03-1.63 18.28-4.06 3.27-3.53-.76-7.17-.76-7.17-2.46 1.59-6.77 2.47-10.52 2.96-1.3.17-2.53.29-3.6.37-.36.03-.7.05-1.02.08-1.58.11-2.61.13-2.61.13s-12.7.44-17.92-2.52c-.01.01-.01.01-.01.02-.14.19-1.49 2.09-1.03 4.33z"/>
    <path fill="none" stroke="#000" stroke-linecap="round" stroke-linejoin="round" stroke-miterlimit="10" stroke-width="4" d="M561.01 240.64c-.03.04-.1.13-.18.27v.01c-.02.01-.02.04-.03.05-.33.54-.91 1.68-.91 3.05-.01 1.04.33 2.19 1.34 3.32.11.13.23.25.37.38.15.14.34.28.56.42 3.08 1.9 12.32 2.82 17.01 2.69 4.47-.12 13.61-1.31 17.19-3.27.46-.25.84-.51 1.09-.79 2.5-2.71.72-5.49-.25-6.63m-36.25-55.67c.09 1.31.5 2.2 1.25 2.57.47.23 1.06.25 1.75.07 3.99-1.07 11.23-8.96 18-19.76.58-.94 1.17-1.9 1.75-2.88 1.88-3.17 3.52-6.27 4.92-9.2 3.22-6.74 5.08-12.56 5.19-16.11.02-.44.01-.84-.03-1.21-.13-1.16-.53-1.94-1.22-2.28-1.62-.8-4.58.96-8.12 4.51-2.04 2.04-4.26 4.66-6.53 7.72-2.28 3.06-4.6 6.56-6.84 10.35-3.08 5.21-5.56 10.25-7.29 14.61-1.66 4.17-2.64 7.74-2.81 10.27-.04.47-.05.92-.02 1.34z"/>
    <path fill="#dd2c2c" d="M534.63 187.94c7.47 3.76 31.81 16.77 44.87 32.73.43.52.51 1.24.22 1.85-1.93 4.06-10.81 19.78-39.6 38.13-25.72 16.4-41.1 47.17-44.89 55.45-.48 1.05-1.82 1.36-2.71.62-6.72-5.57-30.65-25.65-41.11-38.01-.39-.46-.51-1.1-.32-1.68 1.43-4.43 9.82-23.9 53.2-55.71 22.04-16.16 26.82-27.55 27.84-32.19.25-1.1 1.47-1.71 2.5-1.19z"/>
    <path fill="#ff9d00" d="M524.98 225.95c-6.2.83-10.79 6.28-10.27 12.46.56 6.52 6.54 11.41 13.38 10.58 6.9-.83 11.49-7.07 10.27-13.6-1.15-6.17-7.13-10.27-13.38-9.44zm5.36 13.86-6.85.86-.79-6.56 6.66-.86.98 6.56z"/>
    <path fill="#ffb000" d="M525.27 228.13c-4.97.66-8.62 5.04-8.15 9.97.49 5.14 5.24 8.95 10.62 8.3 5.41-.66 9.06-5.54 8.15-10.68-.86-4.94-5.62-8.25-10.62-7.59zm5.07 11.68-6.85.86-.79-6.56 6.66-.86.98 6.56z"/>
    <path fill="none" stroke="#000" stroke-linecap="round" stroke-linejoin="round" stroke-miterlimit="10" stroke-width="4" d="M534.63 187.94c7.47 3.76 31.81 16.77 44.87 32.73.43.52.51 1.24.22 1.85-1.93 4.06-10.81 19.78-39.6 38.13-25.72 16.4-41.1 47.17-44.89 55.45-.48 1.05-1.82 1.36-2.71.62-6.72-5.57-30.65-25.65-41.11-38.01-.39-.46-.51-1.1-.32-1.68 1.43-4.43 9.82-23.9 53.2-55.71 22.04-16.16 26.82-27.55 27.84-32.19.25-1.1 1.47-1.71 2.5-1.19z"/>
    <path fill="none" stroke="#000" stroke-linecap="round" stroke-linejoin="round" stroke-miterlimit="10" d="M552.33 209.62c-.74 1.06-2.27 1.13-3.39.27-1.04-.8-1.4-2.19-.85-3.19.58-1.05 1.99-1.37 3.21-.64 1.32.8 1.81 2.44 1.03 3.56z"/>
    <path fill="#ff941f" d="m482.1 293.99-.78-5.78-1.94.25-.72-5.64-4.62.57-.24-2.2-4.57.56.5 5.51 1.91-.24.57 5.79 4.84-.64.29 2.46 4.76-.64zm-11.61-7.88-.33-3.47 2.9-.36.13 1.21-1.88.23.22 2.25-1.04.14zm2.8-1.6.13 1.24-1.04.13-.13-1.24 1.04-.13zm-.32 7.1-.48-4.71 1.9-.24-.25-2.26 3.79-.47.58 4.64-1.86.24.27 2.28-3.95.52zm5.68-1.99.15 1.23-1.01.13-.15-1.23 1.01-.13zm1.15 2.18-.29-2.3 1.09-.14.48 3.65-3 .4-.16-1.36 1.88-.25z"/>
    <path fill="#ff941f" d="m486.24 297.41-6.94.95-.17-1.37 5.36-.73-1.1-7.67-.85.11.92 6.58-5.35.72.43 3.61 7.5-1.03 6.89 6.57.5-.93zm-13.14-17.5-.11-.97-5.97.72.51 6.07-1.05.13-.62-7.79-5.97-5.66-.54.72 5.71 5.45.63 8.42 2.79-.35-.53-6.11zm73.19-50.57-5.86-4.95 5-5.5 6.06 4.88-5.2 5.57zm-4.54-5.02 4.43 3.72 3.89-4.18-4.54-3.68-3.78 4.14zm-2.06-.55-5.56-4.69 4.79-5.42 5.74 4.62-4.97 5.49zm-4.29-4.79 4.2 3.53 3.73-4.12-4.3-3.49-3.63 4.08z"/>
    <path fill="#ff941f" d="m545.84 223.86-6.77-5.58 5.77-6.46 7.04 5.48-6.04 6.56zm-5.47-5.68 5.36 4.39 4.74-5.16-5.52-4.32-4.58 5.09zm-5.51-2.47-4.31-3.57 1.63-1.88 2.43 1.98.5-.57-7.62-6.17.55-.66 8.33 6.7-1.67 1.91-2.44-1.99-.48.56 2.99 2.47 3.63-4.15 2.95 2.34 1.09-1.24.71.56-1.7 1.92-2.95-2.35zm19.62 16.24-5.05-4.18 4.01-4.28-3.25-2.59 1.81-1.96.77.61-1.17 1.26 3.28 2.6-4.04 4.3 3.52 2.89.56-.59-2.87-2.35 1.87-1.99 10.38 8.35-.71.71-9.55-7.73-.56.59 2.91 2.37z"/>
    <path fill="#fff" d="M478.65 265.78c-8.17 6.5 7.44 10.83 2.54.71 4.9 10.13 13.85-3.38 1.46-2.2 12.4-1.18 2.31-13.87-1.64-2.07 3.95-11.81-11.23-6.14-2.47.92-8.77-7.05-8.07 9.14.11 2.64z"/>
    <path fill="#ff9d00" d="M480.01 263.96c.29-.23.71-.18.94.11.23.29.18.71-.11.94-.29.23-.71.18-.94-.11s-.18-.71.11-.94zM479.39 266.99c.05-.12.21-.28.33-.24.12.04.15.26.1.38-.05.12-.18.19-.3.16-.12-.04-.18-.17-.13-.3zM480.03 267.93c.02-.18.19-.44.36-.44.18.01.29.28.27.46s-.17.32-.35.31c-.17-.01-.3-.16-.28-.33zM482.65 261.75c-.11.14-.39.28-.54.18s-.1-.39.01-.53.32-.18.46-.08.18.29.07.43zM483.42 262.83c-.15.09-.47.12-.57-.02-.1-.14.04-.4.2-.49.15-.09.36-.06.46.09.1.13.06.32-.09.42zM478.1 263.31c.12.05.27.23.22.35-.05.12-.26.13-.39.07-.12-.05-.18-.19-.14-.31.06-.11.19-.16.31-.11zM477.74 265.08c.14-.05.4-.01.46.13s-.1.33-.24.38c-.14.05-.3-.03-.36-.17-.07-.14 0-.3.14-.34zM476.85 264.09c.18 0 .46.14.48.31.01.17-.25.32-.43.32s-.34-.14-.35-.31c-.01-.17.12-.31.3-.32zM479.43 261.9c.06.13.04.4-.1.47-.14.07-.34-.07-.4-.21-.06-.14 0-.3.14-.37.14-.08.3-.03.36.11zM480.05 261.2c.03.18-.06.48-.23.52-.17.04-.36-.19-.39-.37-.03-.18.08-.36.25-.4s.34.08.37.25zM483.16 265.66c-.14-.05-.31-.25-.27-.39.04-.15.29-.19.42-.14.14.05.22.21.17.36-.04.14-.18.22-.32.17zM482.81 267.12c-.13-.13-.22-.43-.11-.56.12-.13.4-.04.53.08.13.13.13.34.02.47s-.31.14-.44.01z"/>
    <path fill="#fff" d="M503.73 266.11c-11.5 9.14 10.48 15.25 3.58.99 6.9 14.25 19.5-4.76 2.05-3.1 17.45-1.67 3.25-19.53-2.31-2.91 5.56-16.62-15.81-8.64-3.48 1.3-12.33-9.93-11.34 12.86.16 3.72z"/>
    <path fill="#ff9d00" d="M505.65 263.54c.41-.32 1-.26 1.32.15.32.41.26 1-.15 1.32-.41.32-1 .26-1.32-.15-.33-.4-.26-.99.15-1.32zM504.77 267.81c.07-.17.3-.39.47-.34.17.05.2.36.14.53-.07.17-.25.27-.42.22-.17-.05-.26-.24-.19-.41zM505.67 269.12c.03-.25.26-.62.51-.62.25.01.41.39.38.65-.03.25-.25.45-.49.44-.24 0-.42-.21-.4-.47zM509.36 260.43c-.16.2-.56.39-.76.25-.2-.14-.14-.55.02-.75.16-.2.45-.25.65-.11.21.14.25.41.09.61zM510.45 261.95c-.22.13-.66.17-.8-.03s.06-.56.28-.7c.22-.13.51-.08.65.12s.08.48-.13.61zM502.97 262.64c.17.08.37.33.31.49s-.37.18-.54.1c-.17-.08-.26-.27-.19-.44.06-.16.25-.23.42-.15zM502.45 265.11c.2-.07.56-.01.65.19.09.2-.14.46-.34.53s-.42-.04-.51-.24c-.09-.19 0-.41.2-.48zM501.21 263.73c.25 0 .65.19.67.44.02.25-.35.45-.6.45s-.47-.2-.49-.44c-.03-.24.16-.45.42-.45zM504.83 260.64c.08.19.06.56-.13.66-.19.1-.47-.1-.56-.29-.08-.19 0-.43.19-.53s.42-.03.5.16zM505.7 259.67c.04.25-.08.67-.32.73s-.5-.27-.55-.52c-.04-.25.11-.5.35-.56s.48.1.52.35zM510.08 265.94c-.2-.07-.44-.35-.38-.56.06-.21.4-.27.6-.2.2.07.3.3.24.51-.06.21-.27.32-.46.25zM509.59 267.99c-.18-.18-.31-.6-.15-.79.16-.18.56-.06.74.12s.19.48.03.66c-.17.19-.44.2-.62.01z"/>
    <path fill="#fff" d="M496.75 241.71c-6.77 5.38 6.17 8.97 2.11.58 4.06 8.39 11.47-2.8 1.21-1.82 10.27-.98 1.91-11.49-1.36-1.71 3.27-9.78-9.3-5.08-2.05.76-7.26-5.84-6.68 7.57.09 2.19z"/>
    <path fill="#ff9d00" d="M497.88 240.2c.24-.19.59-.15.78.09.19.24.15.59-.09.78-.24.19-.59.15-.78-.09s-.15-.59.09-.78zM497.36 242.71c.04-.1.18-.23.28-.2.1.03.12.21.08.31-.04.1-.15.16-.25.13s-.15-.14-.11-.24zM497.89 243.48c.01-.15.15-.37.3-.36s.24.23.23.38c-.01.15-.14.27-.29.26-.15 0-.25-.13-.24-.28zM500.06 238.37c-.09.12-.33.23-.45.15-.12-.08-.08-.32.01-.44s.26-.15.38-.07c.13.08.16.24.06.36zM500.7 239.26c-.13.08-.39.1-.47-.02-.08-.12.04-.33.16-.41.13-.08.3-.05.38.07.09.12.06.28-.07.36zM496.3 239.66c.1.05.22.19.18.29s-.22.11-.32.06-.15-.16-.11-.26c.04-.09.15-.13.25-.09zM495.99 241.12c.12-.04.33-.01.38.11.05.12-.08.27-.2.31-.12.04-.25-.02-.3-.14-.04-.11.01-.24.12-.28zM495.26 240.31c.15 0 .38.11.39.26s-.2.26-.35.27c-.15 0-.28-.12-.29-.26-.01-.15.11-.27.25-.27zM497.4 238.49c.05.11.03.33-.08.39s-.28-.06-.33-.17c-.05-.11 0-.25.11-.31.12-.06.25-.02.3.09zM497.91 237.92c.03.15-.05.4-.19.43-.14.04-.29-.16-.32-.3s.07-.29.21-.33.27.05.3.2zM500.48 241.61c-.11-.04-.26-.2-.22-.33.04-.12.24-.16.35-.12.11.04.18.18.14.3-.03.12-.15.19-.27.15zM500.2 242.82c-.1-.11-.18-.35-.09-.46s.33-.04.44.07c.1.11.11.28.01.39-.1.1-.26.1-.36 0z"/>
    <path fill="#fff" d="M493.71 286.21c-4.64 3.68 4.22 6.14 1.44.4 2.78 5.74 7.86-1.92.83-1.25 7.03-.67 1.31-7.87-.93-1.17 2.24-6.7-6.37-3.48-1.4.52-4.97-4-4.57 5.19.06 1.5z"/>
    <path fill="#ff9d00" d="M494.49 285.18c.16-.13.4-.1.53.06s.1.4-.06.53-.4.1-.53-.06-.11-.4.06-.53zM494.13 286.9c.03-.07.12-.16.19-.14.07.02.08.14.06.22-.03.07-.1.11-.17.09s-.1-.1-.08-.17zM494.5 287.43c.01-.1.11-.25.21-.25s.16.16.15.26c-.01.1-.1.18-.2.18-.1-.01-.17-.09-.16-.19zM495.98 283.92c-.06.08-.22.16-.31.1-.08-.06-.05-.22.01-.3.06-.08.18-.1.26-.05.09.06.11.17.04.25zM496.42 284.54c-.09.05-.26.07-.32-.01s.03-.23.11-.28c.09-.05.2-.03.26.05s.04.18-.05.24zM493.41 284.81c.07.03.15.13.12.2s-.15.07-.22.04-.1-.11-.08-.18.11-.09.18-.06zM493.2 285.81c.08-.03.23 0 .26.08s-.06.19-.14.21c-.08.03-.17-.01-.21-.09-.03-.08.01-.17.09-.2zM492.7 285.25c.1 0 .26.08.27.18.01.1-.14.18-.24.18-.1 0-.19-.08-.2-.18-.01-.09.07-.17.17-.18zM494.16 284.01c.03.08.02.22-.05.27s-.19-.04-.22-.12c-.03-.08 0-.17.08-.21.06-.05.15-.02.19.06zM494.51 283.62c.02.1-.03.27-.13.3-.1.02-.2-.11-.22-.21-.02-.1.05-.2.14-.23.1-.03.19.04.21.14zM496.27 286.14c-.08-.03-.18-.14-.15-.22.02-.08.16-.11.24-.08.08.03.12.12.1.2-.03.09-.11.13-.19.1zM496.07 286.97c-.07-.07-.13-.24-.06-.32s.23-.03.3.05c.07.07.08.19.01.27s-.17.07-.25 0z"/>
    <path fill="none" stroke="#000" stroke-linecap="round" stroke-linejoin="round" stroke-miterlimit="10" stroke-width="4" d="M549.89 207.76s.05-6.45 5.64-7.65c0 0 5.99-12.8 18.64-23.71"/>
    <path fill="#5bc130" d="M724.55 287.51c3.53 3.87 9.1 10.16 14.31 14.46 1.28 1.06 3.18 2.45 5.3 3.92.03.02.06.04.08.06.4.28.81.56 1.23.85.05.03.09.06.13.09.29.2.6.4.9.6.04.03.08.06.13.09 6 4.04 12.54 8.05 12.02 7.36-.78-1.04-14.96-23.19-19.24-27.68-3.68-3.84-7.83-8.21-11.75-12.94v-.01c-.65-.78-1.29-1.57-1.92-2.37-4.47-5.66-7.36-4.65-9.83-4.24-1.37.22-2.9-.96-2.9-.96s-.22.45.89 2.1c1.11 1.66-.57 4.04.97 6.65 1.53 2.6 6.15 8.16 9.68 12.02z"/>
    <path d="M713.23 266.54c5.36 6.06 10.73 12.1 16.12 18.13l8.11 9.02c2.72 2.99 5.43 5.99 8.24 8.91-2.84-2.88-5.59-5.85-8.35-8.8l-8.23-8.92c-5.47-5.96-10.92-11.94-16.35-17.93l.46-.41z"/>
    <path fill="none" stroke="#000" stroke-linecap="round" stroke-linejoin="round" stroke-miterlimit="10" stroke-width="1.1129" d="M724.55 287.51c3.53 3.87 9.1 10.16 14.31 14.46 1.28 1.06 3.18 2.45 5.3 3.92.03.02.06.04.08.06.4.28.81.56 1.23.85.05.03.09.06.13.09.29.2.6.4.9.6.04.03.08.06.13.09 6 4.04 12.54 8.05 12.02 7.36-.78-1.04-14.96-23.19-19.24-27.68-3.68-3.84-7.83-8.21-11.75-12.94v-.01c-.65-.78-1.29-1.57-1.92-2.37-4.47-5.66-7.36-4.65-9.83-4.24-1.37.22-2.9-.96-2.9-.96s-.22.45.89 2.1c1.11 1.66-.57 4.04.97 6.65 1.53 2.6 6.15 8.16 9.68 12.02z"/>
    <path fill="#5bc130" d="M711.84 238.56c3.99-4.38 10.31-11.5 16.2-16.37 1.45-1.2 3.6-2.77 6-4.43.03-.02.07-.05.1-.07.45-.32.92-.63 1.39-.96.05-.03.1-.07.15-.1.33-.23.68-.45 1.02-.68.05-.03.1-.07.14-.1 6.79-4.57 14.19-9.11 13.61-8.33-.88 1.17-16.93 26.26-21.78 31.33-4.17 4.35-8.86 9.29-13.3 14.65v.01c-.73.88-1.46 1.78-2.18 2.69-5.06 6.41-8.33 5.26-11.13 4.81-1.55-.25-3.29 1.09-3.29 1.09s-.25-.5 1.01-2.38c1.25-1.88-.65-4.58 1.09-7.52 1.75-2.97 6.97-9.27 10.97-13.64z"/>
    <path d="M699.03 262.3c6.07-6.86 12.15-13.7 18.25-20.53l9.18-10.21c3.08-3.39 6.15-6.78 9.32-10.08-3.22 3.26-6.33 6.62-9.45 9.97l-9.31 10.1c-6.19 6.75-12.36 13.51-18.51 20.3l.52.45z"/>
    <path fill="none" stroke="#000" stroke-linecap="round" stroke-linejoin="round" stroke-miterlimit="10" d="M711.84 238.56c3.99-4.38 10.31-11.5 16.2-16.37 1.45-1.2 3.6-2.77 6-4.43.03-.02.07-.05.1-.07.45-.32.92-.63 1.39-.96.05-.03.1-.07.15-.1.33-.23.68-.45 1.02-.68.05-.03.1-.07.14-.1 6.79-4.57 14.19-9.11 13.61-8.33-.88 1.17-16.93 26.26-21.78 31.33-4.17 4.35-8.86 9.29-13.3 14.65v.01c-.73.88-1.46 1.78-2.18 2.69-5.06 6.41-8.33 5.26-11.13 4.81-1.55-.25-3.29 1.09-3.29 1.09s-.25-.5 1.01-2.38c1.25-1.88-.65-4.58 1.09-7.52 1.75-2.97 6.97-9.27 10.97-13.64z"/>
    <path fill="#fff" d="M668.73 203.47c-8.35-.56-35.92-1.73-55.28 5.37-.63.23-1.07.81-1.13 1.48-.4 4.48-.74 22.53 14.71 52.97 13.81 27.2 11.4 61.51 10.46 70.57-.12 1.15.88 2.1 2.02 1.92 8.62-1.38 39.43-6.51 54.73-11.82.57-.2.99-.69 1.13-1.28 1.02-4.54 3.7-25.57-17.48-75.02-10.76-25.13-9.09-37.36-7.61-41.87.35-1.1-.4-2.24-1.55-2.32z"/>
    <path fill="#ff9d00" d="M641.38 242.44c-4.37 5-3.58 12.71 1.93 16.93 5.47 4.19 13.11 3.02 16.91-2.31 3.6-5.06 2.42-12.08-2.51-15.95-4.95-3.9-12.19-3.41-16.33 1.33zm8.85 2.73 5.3 4.13-4.02 5.25-5.46-4.22 4.18-5.16z"/>
    <path fill="#ffb000" d="M643.35 243.97c-3.4 3.97-2.74 10.03 1.59 13.35 4.3 3.3 10.32 2.44 13.36-1.74 2.91-4.01 2-9.63-1.95-12.73-3.97-3.13-9.74-2.69-13 1.12zm6.88 1.2 5.3 4.13-4.02 5.25-5.46-4.22 4.18-5.16z"/>
    <path fill="none" stroke="#000" stroke-linecap="round" stroke-linejoin="round" stroke-miterlimit="10" stroke-width="4" d="M668.73 203.47c-8.35-.56-35.92-1.73-55.28 5.37-.63.23-1.07.81-1.13 1.48-.4 4.48-.74 22.53 14.71 52.97 13.81 27.2 11.4 61.51 10.46 70.57-.12 1.15.88 2.1 2.02 1.92 8.62-1.38 39.43-6.51 54.73-11.82.57-.2.99-.69 1.13-1.28 1.02-4.54 3.7-25.57-17.48-75.02-10.76-25.13-9.09-37.36-7.61-41.87.35-1.1-.4-2.24-1.55-2.32z"/>
    <path fill="none" stroke="#000" stroke-linecap="round" stroke-linejoin="round" stroke-miterlimit="10" d="M642.47 213.14c.1 1.29 1.38 2.13 2.78 1.95 1.3-.16 2.32-1.17 2.36-2.31.04-1.19-1.01-2.19-2.44-2.18-1.55.01-2.8 1.18-2.7 2.54z"/>
    <path fill="#ff941f" d="m663.82 324.47 1.5-1.97 3.85 3.01 3.44-4.7 1.52 1.18 3.23-4.49-3.65-2.81-1.33 1.78-3.68-2.84-3.49 4.49-1.55-1.2-3.61 4.58 3.77 2.97zm9.4-4.49 1.34-1.83-1.5-1.16.73-.98 2.31 1.78-2.05 2.82-.83-.63zm.05-1.53-.74 1-.83-.64.74-1 .83.64zm-7.3 3.19 1.39-1.83-1.48-1.15 2.86-3.7 3.02 2.34-1.36 1.82 1.51 1.17-2.81 3.81-3.13-2.46zm.07-1.52-.75.98-.8-.63.76-.98.79.63zm-1.41 1.84-.84 1.09-2.38-1.87 2.27-2.9.87.68-1.42 1.83 1.5 1.17z"/>
    <path fill="#ff941f" d="m654.74 322.34 5.49 4.34.84-1.09-4.24-3.35 4.84-6.05.69.53-4.14 5.2 4.24 3.33-2.21 2.9-5.94-4.7-9.27 2.15.05-1.05zm20.21-8.38.59-.79 4.77 3.65-3.52 4.97.84.65 4.49-6.39 8.02-1.84.1.9-7.68 1.78-4.84 6.93-2.21-1.72 3.56-4.99zm-38.96-88.21 7.7-1.12 1.51 7.28-7.57 1.28-1.64-7.44zm6.97-.07-5.78.86 1.22 5.58 5.71-.95-1.15-5.49zm1.7-1.19 7.3-1.06 1.37 7.1-7.17 1.22-1.5-7.26zm6.58-.04-5.48.81 1.11 5.44 5.41-.9-1.04-5.35z"/>
    <path fill="#ff941f" d="m638.95 219.98 8.84-1.14 1.69 8.5-8.66 1.36-1.87-8.72zm8.12-.11-6.95.91 1.45 6.86 6.84-1.05-1.34-6.72zm7.34 7.4 5.53-.88-.44-2.46-3.11.47-.14-.74 9.71-1.44-.15-.85-10.58 1.54.47 2.5 3.11-.48.14.73-3.84.6-1.02-5.42-3.72.52-.32-1.62-.89.12.49 2.52 3.74-.53zm-25.15 4.01 6.48-1.04-1.28-5.72 4.11-.58-.56-2.61-.97.13.36 1.68-4.14.57 1.29 5.76-4.5.71-.18-.8 3.67-.56-.6-2.67-13.18 1.91.24.98 12.15-1.8.18.79-3.7.56z"/>
    <path fill="#dd2c2c" d="M677.36 298.97c3.74 9.75-11.92 5.54-2.55-.68-9.37 6.23-10.21-9.96-.14-2.64-10.07-7.32 5.06-13.12 2.46-.94 2.6-12.18 12.79.43 1.66 2.05 11.14-1.63 2.3 11.96-1.43 2.21z"/>
    <path fill="#ff9d00" d="M677.11 296.7c-.13-.34-.52-.52-.86-.38-.34.13-.52.52-.38.86.13.34.52.52.86.38s.51-.51.38-.86zM676.11 299.63c.02-.13-.04-.35-.16-.38-.12-.03-.25.15-.28.28s.06.26.18.29c.12.03.23-.06.26-.19zM675.08 300.11c.08-.16.06-.48-.09-.56-.15-.08-.39.09-.47.26-.08.16-.01.36.14.45s.34.01.42-.15zM675.96 293.46c.02.18.2.44.37.43.17-.01.28-.29.26-.47-.02-.18-.18-.32-.36-.3-.17 0-.29.16-.27.34zM674.75 293.99c.08.16.34.34.5.27.16-.07.16-.37.08-.53-.08-.16-.28-.23-.44-.16-.16.08-.22.27-.14.42zM679.08 297.12c-.13-.01-.35.06-.37.19-.02.12.16.24.29.26.13.01.26-.07.27-.2.03-.13-.06-.24-.19-.25zM678.5 298.82c-.1-.11-.34-.21-.46-.12s-.08.33.01.45c.1.11.27.13.4.04s.15-.26.05-.37zM679.76 298.42c-.15-.09-.47-.12-.57.03-.1.14.05.4.2.49.15.09.36.05.46-.09.11-.14.06-.33-.09-.43zM678.66 295.22c-.12.09-.24.32-.16.45.08.13.33.11.45.02s.15-.26.07-.39c-.08-.13-.24-.16-.36-.08zM678.48 294.31c-.12.14-.19.44-.07.56.12.12.4.02.52-.12.12-.14.11-.35-.01-.47s-.32-.11-.44.03zM673.54 296.57c.15.03.39-.05.43-.2.04-.15-.15-.31-.29-.34-.15-.03-.29.07-.33.22s.04.29.19.32zM673.09 298c.17-.05.41-.26.37-.43-.03-.17-.32-.24-.5-.2-.17.05-.29.22-.25.4s.21.28.38.23z"/>
    <path fill="#dd2c2c" d="M655.59 286.49c5.26 13.72-16.77 7.8-3.59-.96-13.19 8.77-14.37-14.01-.19-3.71-14.17-10.31 7.13-18.47 3.47-1.33 3.66-17.14 18 .6 2.34 2.89 15.66-2.29 3.23 16.84-2.03 3.11z"/>
    <path fill="#ff9d00" d="M655.25 283.31c-.19-.48-.73-.73-1.21-.54s-.73.73-.54 1.21c.19.48.73.73 1.21.54.48-.18.72-.73.54-1.21zM653.83 287.43c.03-.18-.06-.49-.23-.53-.17-.04-.36.21-.39.39-.03.18.08.37.25.4.18.04.34-.08.37-.26zM652.39 288.1c.11-.23.09-.67-.13-.79s-.55.13-.66.36c-.11.23-.02.51.2.63s.48.03.59-.2zM653.63 278.74c.03.25.28.62.53.6.25-.01.4-.4.36-.66-.03-.25-.26-.44-.51-.43-.24.02-.41.24-.38.49zM651.92 279.5c.12.22.48.48.7.38.23-.1.23-.52.11-.74-.12-.22-.4-.33-.62-.23-.22.1-.31.36-.19.59zM658.02 283.89c-.19-.02-.49.09-.51.26-.03.17.23.34.42.36s.36-.1.39-.28c.01-.16-.12-.32-.3-.34zM657.2 286.29c-.13-.16-.48-.29-.65-.17-.17.13-.12.47.02.63.13.16.38.18.56.06.17-.13.21-.36.07-.52zM658.97 285.73c-.22-.13-.66-.16-.8.04s.07.56.29.69.51.07.65-.13.08-.47-.14-.6zM657.43 281.22c-.17.12-.33.45-.22.64.11.18.46.15.63.03.17-.12.22-.37.1-.55-.11-.19-.34-.24-.51-.12zM657.17 279.94c-.17.19-.27.62-.1.79.18.17.57.03.73-.17.17-.19.16-.49-.02-.66-.17-.17-.44-.15-.61.04zM650.22 283.12c.2.04.56-.08.61-.29.05-.21-.21-.44-.41-.47s-.41.1-.47.31.06.41.27.45zM649.59 285.14c.24-.07.57-.36.53-.6-.05-.24-.45-.34-.7-.28-.24.07-.41.31-.36.56s.28.38.53.32z"/>
    <path fill="#dd2c2c" d="M674.01 269.03c3.09 8.08-9.87 4.59-2.11-.57-7.76 5.16-8.45-8.25-.11-2.18-8.34-6.07 4.2-10.87 2.04-.78 2.15-10.09 10.6.35 1.37 1.7 9.22-1.35 1.9 9.91-1.19 1.83z"/>
    <path fill="#ff9d00" d="M673.81 267.16c-.11-.29-.43-.43-.71-.32-.29.11-.43.43-.32.71.11.29.43.43.71.32.28-.11.43-.43.32-.71zM672.98 269.58c.02-.11-.03-.29-.14-.31-.1-.02-.21.12-.23.23-.02.11.05.21.15.24.1.02.2-.05.22-.16zM672.12 269.98c.06-.14.05-.4-.07-.47-.13-.07-.32.08-.39.21-.06.14-.01.3.12.37.13.08.28.02.34-.11zM672.85 264.47c.02.15.17.36.31.35.14-.01.23-.24.21-.39-.02-.15-.15-.26-.3-.25-.13.01-.23.14-.22.29zM671.85 264.91c.07.13.28.28.41.22.13-.06.14-.3.07-.44-.07-.13-.23-.19-.37-.13s-.18.22-.11.35zM675.44 267.5c-.11-.01-.29.05-.3.16-.02.1.13.2.24.21.11.01.21-.06.23-.16.01-.11-.06-.2-.17-.21zM674.96 268.91c-.08-.09-.28-.17-.38-.1-.1.08-.07.28.01.37.08.09.23.11.33.03.1-.07.12-.21.04-.3zM676 268.58c-.13-.08-.39-.1-.47.02-.08.12.04.33.17.41s.3.04.38-.08c.08-.11.05-.27-.08-.35zM675.09 265.93c-.1.07-.2.27-.13.37.07.11.27.09.37.02.1-.07.13-.22.06-.33-.07-.1-.2-.13-.3-.06zM674.94 265.18c-.1.11-.16.37-.06.47.1.1.33.02.43-.1.1-.11.09-.29-.01-.39-.1-.11-.26-.1-.36.02zM670.85 267.05c.12.02.33-.04.36-.17.03-.12-.12-.26-.24-.28-.12-.02-.24.06-.28.18-.04.13.04.24.16.27zM670.48 268.23c.14-.04.34-.21.31-.35-.03-.14-.27-.2-.41-.16-.14.04-.24.19-.21.33.02.14.16.22.31.18z"/>
    <path fill="#dd2c2c" d="M654 308.9c2.12 5.53-6.76 3.14-1.45-.39-5.31 3.53-5.79-5.65-.08-1.49-5.71-4.15 2.87-7.44 1.4-.54 1.47-6.91 7.25.24.94 1.16 6.31-.92 1.3 6.79-.81 1.26z"/>
    <path fill="#ff9d00" d="M653.86 307.61c-.07-.2-.29-.29-.49-.22-.2.07-.29.29-.22.49.07.2.29.29.49.22.19-.07.29-.29.22-.49zM653.29 309.27c.01-.07-.02-.2-.09-.21-.07-.02-.14.08-.16.16-.01.07.03.15.1.16.07.01.13-.03.15-.11zM652.7 309.54c.04-.09.04-.27-.05-.32s-.22.05-.27.15-.01.21.08.25.2.02.24-.08zM653.2 305.77c.01.1.11.25.21.24.1-.01.16-.16.15-.26-.01-.1-.1-.18-.2-.17-.1 0-.17.09-.16.19zM652.52 306.08c.05.09.19.19.28.15s.09-.21.05-.3c-.05-.09-.16-.13-.25-.09-.09.04-.13.15-.08.24zM654.97 307.85c-.07-.01-.2.04-.21.11-.01.07.09.14.17.15s.14-.04.16-.11c.01-.08-.04-.14-.12-.15zM654.65 308.81c-.05-.06-.19-.12-.26-.07-.07.05-.05.19.01.25.05.06.15.07.23.02.06-.04.07-.13.02-.2zM655.36 308.59c-.09-.05-.27-.07-.32.02-.06.08.03.23.12.28.09.05.2.03.26-.05.05-.09.03-.2-.06-.25zM654.74 306.77c-.07.05-.13.18-.09.26.05.07.19.06.25.01s.09-.15.04-.22c-.04-.08-.14-.1-.2-.05zM654.63 306.26c-.07.08-.11.25-.04.32s.23.01.29-.07c.07-.08.06-.2-.01-.27-.06-.07-.17-.06-.24.02zM651.83 307.54c.08.02.22-.03.25-.12.02-.08-.08-.18-.17-.19s-.17.04-.19.13c-.02.08.03.16.11.18zM651.58 308.35c.1-.03.23-.15.21-.24-.02-.1-.18-.14-.28-.11-.1.03-.16.13-.14.22.01.1.11.16.21.13z"/>
    <path fill="none" stroke="#000" stroke-linecap="round" stroke-linejoin="round" stroke-miterlimit="10" stroke-width="4" d="M645.51 212.77s3.24-5.58-.97-9.45c0 0 1.35-14.07-4-29.9"/>
  </g>
</svg>