<svg xmlns="http://www.w3.org/2000/svg" viewBox="0 0 1000 1000">
  <g class="Body--group">
    <path fill="#c59b50" d="M567.818 529.766s-142.795-76.631-162.937-112.233l-2.664 39.146s108.371 72.236 153.712 88.115c45.34 15.88 11.89-15.028 11.89-15.028"/>
    <path fill="#100f0d" d="M406.094 454.765c14.333 9.465 109.87 72.073 151.072 86.503 10.206 3.574 15.23 4.326 17.648 4.326.428 0 .762-.025 1.014-.054-.828-2.5-5.276-8.085-10.205-12.708-9.465-5.096-124.652-67.518-157.701-104.937Zm168.72 98.306c-4.421 0-11.003-1.553-20.121-4.745-45.267-15.858-150.107-85.577-154.55-88.535a3.742 3.742 0 0 1-1.655-3.364l2.662-39.149a3.738 3.738 0 0 1 2.901-3.391 3.74 3.74 0 0 1 4.083 1.804c19.384 34.261 160.036 110.021 161.451 110.784.28.15.538.334.768.548 5.796 5.353 15.144 15.289 12.642 21.686-.78 1.99-2.83 4.362-8.181 4.362"/>
  </g>
  <g class="Front--group">
    <path fill="#9f856f" d="m552.724 617.629 108.55 3.685 19.922-20.392-25.912-57.885-109.94-3.107-5.473 12.313 12.853 65.386"/>
    <path fill="#100f0d" d="m555.82 613.993 103.934 3.528 16.991-17.393-23.914-53.422-105.089-2.971-3.976 8.947zm105.455 11.06c-.043 0-.085 0-.128-.004l-108.55-3.685a3.737 3.737 0 0 1-3.54-3.015l-12.855-65.386a3.741 3.741 0 0 1 .25-2.238l5.474-12.316c.613-1.382 2.005-2.332 3.522-2.215l109.943 3.108a3.734 3.734 0 0 1 3.307 2.206l25.91 57.885a3.736 3.736 0 0 1-.738 4.14l-19.921 20.393a3.736 3.736 0 0 1-2.674 1.126"/>
    <path fill="#c59b50" d="M539.87 552.243s6.364-22.404 19.887-23.212c13.521-.806 71.844 2.032 95.995 2.715 24.151.683 31.395 70.392 31.395 70.392l-112.261-3.973s-4.93-45.608-10.073-52.14c-5.832-7.404-12.256-5.44-24.942 6.218"/>
    <path fill="#100f0d" d="m578.243 594.545 104.693 3.705c-3.265-25.709-12.912-62.362-27.289-62.771-7.349-.208-17.858-.614-29.31-1.054-21.765-.842-46.437-1.8-59.737-1.8-2.879 0-5.104.045-6.621.138-4.076.241-7.556 3.419-10.282 7.316 7.51-3.972 13.147-2.597 18.054 3.633 4.942 6.276 8.95 37.283 10.492 50.833zm108.954 11.33a.212.212 0 0 1-.047 0h-.132l-112.264-3.974a3.74 3.74 0 0 1-3.584-3.335c-2.37-21.893-6.492-46.67-9.295-50.227-2.054-2.61-3.51-2.944-4.546-2.944-4.016 0-10.445 5.48-14.931 9.6a3.735 3.735 0 0 1-4.49.43 3.74 3.74 0 0 1-1.635-4.204c.289-1.016 7.273-24.968 23.261-25.923 1.689-.102 3.998-.149 7.066-.149 13.442 0 38.194.96 60.03 1.804 11.418.441 21.9.848 29.227 1.054 26.035.738 33.872 63.265 34.944 73.13.09.32.134.657.134 1a3.736 3.736 0 0 1-3.738 3.739"/>
    <path fill="#100f0d" d="M552.722 620.12c-.421 0-.847-.106-1.237-.331a2.487 2.487 0 0 1-.922-3.4l9.294-16.205-10.01-45.494a2.49 2.49 0 0 1 1.9-2.968 2.5 2.5 0 0 1 2.968 1.9l10.217 46.432a2.481 2.481 0 0 1-.274 1.772l-9.772 17.041a2.487 2.487 0 0 1-2.164 1.254"/>
    <path fill="#100f0d" d="M563.736 602.067a2.49 2.49 0 0 1-2.385-1.771 2.489 2.489 0 0 1 1.665-3.106l11.573-3.495a2.484 2.484 0 0 1 3.105 1.664 2.489 2.489 0 0 1-1.664 3.105l-11.574 3.497a2.481 2.481 0 0 1-.72.106"/>
    <path fill="#ad7a39" d="M640.318 576.409c.17 4.695 3.532 8.632 8.262 10.385l-7.227-15.255a10.323 10.323 0 0 0-1.035 4.87m23.379-1.448c-.053-1.465-.71-2.457-1.271-3.227-.743-.952-1.438-1.754-1.473-2.731-.04-1.092.897-2.141 2.27-2.19.063-.004.12.001.182.001-2.557-1.84-5.911-2.9-9.547-2.769-4.882.178-9.099 2.46-11.479 5.767.33-.002.638-.008.9-.017 1.46-.053 3.718-.286 3.718-.286.75-.066.875.872.125.974 0 0-.755.102-1.595.172l5.555 12.658 2.774-7.893-2.36-4.982c-.756-.01-1.47-.06-1.47-.06-.753-.01-.701-.992.054-.981 0 0 2.31.067 3.683.016 1.46-.051 3.719-.286 3.719-.286.752-.064.874.872.124.975 0 0-.755.102-1.595.172l5.513 12.56 1.25-4c.544-1.665.96-2.859.923-3.873"/>
    <path fill="#ad7a39" d="m654.57 576.93-3.815 10.489a16.326 16.326 0 0 0 3.965.341 16.139 16.139 0 0 0 4.613-.842 1.158 1.158 0 0 1-.105-.16l-4.657-9.829m11.769-7.161c.073.376.123.78.138 1.215.045 1.205-.172 2.566-.907 4.287l-3.885 10.626c4.077-2.208 6.73-6.128 6.571-10.502-.074-2.06-.765-3.976-1.916-5.626"/>
    <path fill="#ad7a39" d="M654.768 589.091c-8.568.312-15.753-5.353-16.017-12.625-.264-7.272 6.49-13.44 15.057-13.751s15.755 5.351 16.02 12.623c.264 7.272-6.493 13.442-15.06 13.753zm-.982-27.012c-8.98.327-16.06 6.794-15.783 14.414.277 7.622 7.808 13.558 16.787 13.23 8.982-.325 16.062-6.792 15.783-14.413-.277-7.62-7.808-13.557-16.787-13.231"/>
  </g>
</svg>