<svg xmlns="http://www.w3.org/2000/svg" viewBox="0 0 1000 1000">
  <path d="M436.6 504c-4.5 5.1-10.5 7.9-17 7.9-9.1 0-18.5-5.5-24.4-14.4-7.8-11.6-15.5-21.2-22.3-27.9l-4.8-4.7c-2-2-1.1-5.3 1.6-6.1l6.5-1.7c3.2-.9 6.4-2.7 9.1-5.5 3-3 4.8-6.7 5.2-10.4V430c0-1.3 1.5-2.1 2.5-1.3l9.3 6.9c.7.5 1.7 1.1 2.9 1.7 10.2 4.9 31.7 27.4 35.7 46.7 2.1 10.1-1.2 16.5-4.3 20z"/>
  <path fill="#fc0" d="M402.1 444.1c-1.5-.7-2.9-1.5-4.2-2.4-.5 5.5-3 11-7.3 15.3-3.7 3.7-8.1 6.2-12.5 7.4 8.7 8.6 17 19.8 23.2 29.1 4.5 6.7 11.6 11.1 18.3 11.1 4.1 0 8.1-1.6 11.4-5.4 13-14.8-17.3-49.6-28.9-55.1z" class="st0"/>
  <g style="animation:Tail--group 3s 22s 2 normal ease-in-out forwards">
    <path d="M599.1 649.5c-9 25.7-26.4 50-50.3 70.3-23.8 20.3-51.8 34.7-81 41.6-6.9 1.6-14.1 2.5-21.5 2.5-30.8 0-58.9-13.9-74.8-27-13.6-11.1-21.2-23.3-20.9-33.5.4-12 6.7-20.7 16.8-23.3 2.1-.5 4.3-.8 6.7-.8 11.2 0 27.2 6.7 38.5 25.7 7.8 13.2 22 20.1 41.1 20.1h1.2c40.7-.8 87.6-31.2 109.1-70.8 7.7-14.1 13.2-29.6 17.1-40.8 1.9-5.4 3.6-10.1 5.1-13.5 1.3-3.1 4.1-9.4 10.4-9.4 4.1 0 7.6 1.8 9.9 5 5.5 7.6 3.3 23.3-7.4 53.9z"/>
    <path fill="#f80" d="M570.5 657.8c-22.7 41.7-72.5 73.9-115.5 74.7h-1.4c-21.6 0-38.3-8.4-47.4-23.8-9-15.1-22-22.1-32.1-22.1-1.7 0-3.3.2-4.8.6-7 1.8-11 7.6-11.3 16.4-.3 7.7 6.6 18 18.2 27.5 16.8 13.7 43.2 25.3 70.1 25.3 6.6 0 13.3-.7 19.8-2.3 57.2-13.5 108.5-57.4 126-107.1 5.4-15.3 16.7-49.2 4.5-49.2-4.5.1-10.8 31.8-26.1 60z" class="st1"/>
  </g>
  <path d="M649.7 531.9c-2 24-6.7 45.1-13.9 62.9-8.5 20.9-20.3 36.6-35.1 46.8-34 23.4-64.8 26-76.4 26-1.3 0-2.5 0-3.8-.1-18.4-.8-26-4.4-32.7-7.5-5.9-2.8-11-5.2-24.9-5.7-37.5-1.5-67-9.9-83.1-23.6-.2-.1-.5-.4-.9-.7-4.8-3.5-19.3-14.3-25-24.7-5.3-9.7-6.2-22.3-2.3-31.4 13.4-31.2 24.5-40.5 33.5-48 3.6-3 6.4-5.3 8.8-8.7 2.2-3.1 3.8-7.1 4.9-12.2 0-.1 0-.2.1-.3 3.9-15 3.4-34.9 2.8-56-.2-5.7-.3-11.7-.4-17.5v-.1c0-18.6 9.6-40.7 25.7-59.2 18.1-20.8 41.6-33.6 66.1-36.2 20.2-2.1 34.3-3.1 45.9-3.1 43.7 0 58.6 14.8 82.2 48.4 7.5 10.6 12.1 22.5 16 33.7 11.1 30.4 15.9 76.5 12.5 117.2z"/>
  <path fill="#fc0" d="M358.5 576.7c-3 7-2.2 17.4 2 25 5.6 10.3 23 22.2 24.1 23.2 15.1 12.9 43.7 20.5 78.7 21.9 31.2 1.3 24.3 11.8 57.6 13.3 1.1 0 2.2.1 3.5.1 16.7 0 43.7-5 72.2-24.7 58-39.9 52.9-165.3 34-218.6-3.9-11.1-8.3-22.2-15.1-31.9-23.5-33.5-36.6-45.2-76.2-45.2-12.2 0-26.9 1.1-45.1 3.1-49.9 5.3-85.3 55.3-85.3 88.1.3 27.4 2.5 55.1-2.7 75.5-1.4 6.5-3.4 11.2-6 14.9-9.8 13.5-23.4 12.4-41.7 55.3z" class="st0"/>
  <path fill="#c59b50" d="M567.818 529.766s-142.795-76.631-162.937-112.233l-2.664 39.146s108.371 72.236 153.712 88.115c45.34 15.88 11.89-15.028 11.89-15.028"/>
  <path fill="#100f0d" d="M406.094 454.765c14.333 9.465 109.87 72.073 151.072 86.503 10.206 3.574 15.23 4.326 17.648 4.326.428 0 .762-.025 1.014-.054-.828-2.5-5.276-8.085-10.205-12.708-9.465-5.096-124.652-67.518-157.701-104.937Zm168.72 98.306c-4.421 0-11.003-1.553-20.121-4.745-45.267-15.858-150.107-85.577-154.55-88.535a3.742 3.742 0 0 1-1.655-3.364l2.662-39.149a3.738 3.738 0 0 1 2.901-3.391 3.74 3.74 0 0 1 4.083 1.804c19.384 34.261 160.036 110.021 161.451 110.784.28.15.538.334.768.548 5.796 5.353 15.144 15.289 12.642 21.686-.78 1.99-2.83 4.362-8.181 4.362"/>
  <g style="animation:RightFoot--group 3s 12s 2 normal linear forwards">
    <path d="M384.3 648c-2.4 3.7-6.4 5.7-11.5 5.7-1.9 0-4-.3-6.2-.8-25-6-59.3-43.6-63.6-64.5-1.9-9.4-.2-18 5-24.4 4.6-5.7 11.4-8.8 18.9-8.8 6.8 0 13.6 2.5 19.8 7.3 12.2 9.4 32.9 50.5 37.3 60.7 2.5 5.8 4.9 17.7.3 24.8z"/>
    <path fill="#fc0" d="M310.1 586.8c3.8 18.2 36.2 53.6 58.1 58.8 1.7.4 3.2.6 4.5.6 3.4 0 4.7-1.3 5.4-2.3 2.3-3.5 1.5-12.1-1-17.9-6.1-13.9-25.3-50.3-35.1-57.8-4.9-3.8-10.2-5.8-15.3-5.8-5.3 0-10 2.2-13.2 6.1-3.6 4.7-4.8 11.2-3.4 18.3z" class="st0"/>
  </g>
  <g style="animation:RightEar--group .1s 2s 2 normal linear forwards">
    <path d="M413.3 399.4c-.4 4.4-3.8 8.4-11.1 12.9-4.7 3-10.2 5.5-13.9 6.5-6.5 1.7-12.3 2.6-17.3 2.6-6.7 0-10.6-1.6-12.7-2.9-4.8-3-4.4-7.2-4.2-8.5.5-3.1 2.9-5.5 5.9-6.2 3.5-.8 13.5-5.8 23.6-12.6 4.2-2.9 10.7-4.8 16.1-4.8 5.8 0 9.1 2.2 10.8 4.1 2.1 2.4 3.1 5.5 2.8 8.9z"/>
    <path fill="#f80" d="M361.4 411.3c0 .3.4.7.9.9 1.1.7 3.6 1.8 8.8 1.8 4.3 0 9.5-.8 15.4-2.3 5.2-1.4 19.1-8.8 19.5-13 .1-1.3-.2-2.4-.9-3.2-1-1.1-2.8-1.7-5.3-1.7-3.9 0-8.9 1.5-11.9 3.5-8.5 5.7-20.5 12.5-26.1 13.7-.3.1-.4.2-.4.3z" class="st1"/>
  </g>
  <path d="M516.4 328.1c1.6 0 3.2 0 4.8.1 20.6.6 39.5 6.5 55.9 17 11.2 7.2 17.5 11.4 25.9 25.2 1.5 2.5 9 .8 7.9-1.1-10.1-17.6-17.5-22.3-29.8-30.3-17.7-11.4-37.8-17.6-59.7-18.2-1.6 0-3.3-.1-5-.1-1.6 0-3.3 0-4.9.1-24.3.6-47.8 6.6-67.8 17.1-20.2 10.6-37.1 26.1-48.9 44.7-7.7 12.3-10.3 23.9-7.4 33.5 2.4 7.8 7.9 12.7 12.3 14.6 1.4.6 2.9.9 4.7.9 9.3 0 34.7-9.3 45.7-24.8 8.4 4.5 17.6 6.7 28.1 6.7 12.6 0 25-3.2 36.4-6.9 3-1 3.8-2.2 3.9-4.1 0-1.3-1.2-3.6-3.8-3.5-.3 0-.7.1-1 .2-11.2 3.6-23.3 6.9-35.4 6.9-9.3 0-18.6-2-27.4-7.4-.6-.4-1.3-.5-1.9-.5-1.3 0-2.5.6-3.2 1.8l-.1.1c-7.9 14.3-33.3 24.1-41.2 24.1-.7 0-1.3-.1-1.7-.3-2.8-1.2-6.6-4.6-8.2-10-2.3-7.5 0-17 6.6-27.4 22.5-35.7 63.4-57.1 110.6-58.3 1.4-.1 3-.1 4.6-.1"/>
  <path fill="#fc0" d="M516.6 399.4c-1-.4-2-.7-3-.3-19.7 6.3-42.5 12-62.8-.5-1.7-1.1-4-.5-5.1 1.2l-.1.1c-8.6 15.7-38.3 26-43 23.9-2.8-1.2-6.6-4.6-8.2-10-2.3-7.5 0-17 6.6-27.4 22.5-35.7 63.4-57.1 110.6-58.3 3.1-.1 6.3-.1 9.5 0 20.6.6 39.5 6.5 55.9 17 13.2 8.5 19.7 12.7 30.6 33.6 5.6 10.5-84.4 23.5-91 20.7z" class="st0"/>
  <g style="animation:LeftEar--group .1s 2s 2 normal linear forwards">
    <path d="M701.4 357.1c-.5 1.7-1.2 3.4-2 5.2-5 10-17.7 23-38 29.1-4.5 1.4-9.3 2-14 2h-.1c-13 0-34.2-4.9-61.6-28.3-1.9-1.7-5.1-4.8-7.1-7-2.3-2.5-2.8-6.1-1.5-9.1s4.4-5.1 7.8-5.1h.5c13.9.8 30.1 1.2 48.4 1.2 8.1 0 14.8-.1 19.3-.1h4.5c7.4 0 13.3-.1 18.2-.1 8.1 0 13.7.1 17.1.2 2.9.1 5.6 1.5 7.3 3.9 1.5 2.3 2 5.2 1.2 8.1z"/>
    <path fill="#f80" d="M590.4 359.4c25.7 21.9 45.1 26.5 56.8 26.5h.1c4 0 8-.6 11.9-1.7 18.1-5.4 29.2-16.6 33.5-25.3.8-1.5 1.2-2.8 1.5-3.9.4-1.3-.6-2.6-1.9-2.7-3.3-.1-8.9-.2-16.7-.2-5.4 0-11.6 0-18.2.1-3.3 0-12.2.2-23.9.2-13.9 0-31.7-.2-48.8-1.2h-.1c-.9 0-1.5 1.1-.8 1.8 2 2.2 5 5.1 6.6 6.4z" class="st1"/>
  </g>
  <path d="M417.6 376.2c-4.1 0-7.4 3.3-7.4 7.4 0 9.9 14.8 9.9 14.8 0 0-4.1-3.3-7.4-7.4-7.4zm85.6-20.5c-4.1 0-7.4 3.3-7.4 7.4 0 9.9 14.8 9.9 14.8 0 0-4.1-3.3-7.4-7.4-7.4z"/>
  <path d="M457.9 375.4c-7.4.8-12.3 2.5-15.6 4.9-5.9 4.4-4.1 9.9 2.5 10.7 6.6.8 7.1 1.2 13.2-3.3 6.5-4.9 7.3-13.1-.1-12.3z" style="animation:Face--group__nose .3s 0s 4 normal linear forwards" />
  <path fill="#fc0" d="M512.4 655.2c-4.6-5.2-3.7-15.7-1.9-29.4 2.6-19.8 5-34.5 25.4-50.8 24.4-19.5 62.2-15 76.2-.5 3.6 3.7 6.7 10.9 7.3 18.8.9 11.4-22.2 42.4-44.8 51.8-22.6 9.6-54 19.3-62.2 10.1z" class="st0"/>
  <path d="M512.4 658.9c-1.2 0-2.3-.5-3-1.6-4.7-6.7-4.5-17.2-2.6-32 2.5-19 4.6-35.5 26.8-53.2 26.8-21.4 63.7-14 78.4.7 1.4 1.4 1.4 3.8 0 5.2-1.4 1.4-3.8 1.4-5.2 0-12.5-12.5-45.4-18.7-68.6-.1-18.9 15.1-21.4 28.2-24.1 48.4-1.4 11-2.3 21.8 1.3 26.7 1.2 1.7.8 4-.9 5.2-.6.5-1.4.7-2.1.7z"/>
  <g style="animation:LeftFoot--group 3s 12s 2 normal linear forwards">
    <path d="M523.7 651.2c-.4 1.9-2 9.1-6.7 16.2-7 10.6-17.8 16.5-30.4 16.5-7.2 0-12.9-2.1-16.8-6.2-7.5-7.8-7.1-21-6.7-33.7v-.1c.2-6.4.4-13.1-.4-18.5-.7-4.4-1.8-9.1-3.1-14.5-2.4-10.2-4.6-20.1-4.3-28.7.4-10.7 4.7-18.9 12.8-24.4 3.5-2.4 7.4-3.5 11.4-3.5 9.3 0 18.9 6.2 28.7 18.6 7.1 8.9 13.1 20 15.4 28.1 6.4 21.8 4.9 34.9.1 50.2z"/>
    <path fill="#fc0" d="M477 670.8c2 2.1 5.2 3.1 9.6 3.1 22.6 0 27-23.7 27.2-24.7 0-.2.1-.4.1-.6 4.4-13.9 5.7-25.2 0-44.8-3.7-13.2-21.1-39.4-34.4-39.4-2 0-4 .6-5.8 1.9-11.7 7.8-9.3 21.8-4.4 42.4 1.2 5.1 2.5 10.4 3.2 15.3 1 6.4.8 13.5.5 20.4-.2 10.6-.6 21.6 4 26.4z" class="st0"/>
  </g>
  <path d="M478 413.3c-6.4 2.9-12.4 6.6-17.6 11.1-12.1 10.6-12.6 19.4-10.8 24.8 2.5 7.7 11.1 13.4 21.9 14.6 7.1.7 16.2-1.3 26.7-3.6 13.9-3.1 29.7-6.6 42.9-3.9 19.6 4.1 33.3 15 53.1 32.7l10.3 9.2c1.5 1.3 3.9 1.2 5.2-.4 1.3-1.5 1.2-3.9-.4-5.2l-2.9-2.6c-24-21.7-39.9-36-63.8-41-14.8-3.1-31.3.6-46 3.9-9.5 2.1-18.5 4.1-24.3 3.5-7.8-.8-14.1-4.6-15.7-9.5-1.5-4.7 1.6-10.7 8.7-17 20.7-18.2 59.1-23.7 87.5-12.5 4.7 1.9 7.4-5.1 2.7-6.9-11.4-4.4-24.6-6.6-37.7-6.2-10.1.4-30.5 4.8-39.8 9z"/>
  <path fill="#fc0" d="M615.4 451c11.7 12.2 17 60.3-6 41.6l-2.9-2.6c-24-21.7-39.9-36-63.8-41-14.8-3.1-31.3.6-46 3.9-9.5 2.1-18.5 4.1-24.3 3.5-7.8-.8-14.1-4.6-15.7-9.5-1.5-4.7 1.6-10.7 8.7-17 20.7-18.2 59.3-24 87.5-12.5 4.6 2 46.1 16.5 62.5 33.6z" class="st0"/>
  <path d="M390.6 457c-5.2 5.1-11.7 8.1-17.8 8.1-8.1 0-14-5.1-15.6-13.3-1-5.4.9-11.3 5.4-16.7 5.8-6.9 14.9-12 21.7-12.1h.2c1.3 0 2.6.2 3.8.6h.2l.1.1c4.5 1.8 7.9 6.2 9.1 11.8 1.4 7.5-1.2 15.5-7.1 21.5z"/>
  <path fill="#fc0" d="M385.4 451.7c4.2-4.2 6-9.6 5-14.7-.6-3.1-2.3-5.5-4.6-6.4-.4-.1-.9-.2-1.3-.2h-.1c-4 0-11.3 3.6-16.1 9.4-1.8 2.1-4.6 6.3-3.8 10.6 1.1 6 5.1 7.3 8.3 7.3 4.1 0 8.8-2.2 12.6-6z" class="st0"/>
  <path fill="#9f856f" d="m552.724 617.629 108.55 3.685 19.922-20.392-25.912-57.885-109.94-3.107-5.473 12.313 12.853 65.386"/>
  <path fill="#100f0d" d="m555.82 613.993 103.934 3.528 16.991-17.393-23.914-53.422-105.089-2.971-3.976 8.947zm105.455 11.06c-.043 0-.085 0-.128-.004l-108.55-3.685a3.737 3.737 0 0 1-3.54-3.015l-12.855-65.386a3.741 3.741 0 0 1 .25-2.238l5.474-12.316c.613-1.382 2.005-2.332 3.522-2.215l109.943 3.108a3.734 3.734 0 0 1 3.307 2.206l25.91 57.885a3.736 3.736 0 0 1-.738 4.14l-19.921 20.393a3.736 3.736 0 0 1-2.674 1.126"/>
  <path fill="#c59b50" d="M539.87 552.243s6.364-22.404 19.887-23.212c13.521-.806 71.844 2.032 95.995 2.715 24.151.683 31.395 70.392 31.395 70.392l-112.261-3.973s-4.93-45.608-10.073-52.14c-5.832-7.404-12.256-5.44-24.942 6.218"/>
  <path fill="#100f0d" d="m578.243 594.545 104.693 3.705c-3.265-25.709-12.912-62.362-27.289-62.771-7.349-.208-17.858-.614-29.31-1.054-21.765-.842-46.437-1.8-59.737-1.8-2.879 0-5.104.045-6.621.138-4.076.241-7.556 3.419-10.282 7.316 7.51-3.972 13.147-2.597 18.054 3.633 4.942 6.276 8.95 37.283 10.492 50.833zm108.954 11.33a.212.212 0 0 1-.047 0h-.132l-112.264-3.974a3.74 3.74 0 0 1-3.584-3.335c-2.37-21.893-6.492-46.67-9.295-50.227-2.054-2.61-3.51-2.944-4.546-2.944-4.016 0-10.445 5.48-14.931 9.6a3.735 3.735 0 0 1-4.49.43 3.74 3.74 0 0 1-1.635-4.204c.289-1.016 7.273-24.968 23.261-25.923 1.689-.102 3.998-.149 7.066-.149 13.442 0 38.194.96 60.03 1.804 11.418.441 21.9.848 29.227 1.054 26.035.738 33.872 63.265 34.944 73.13.09.32.134.657.134 1a3.736 3.736 0 0 1-3.738 3.739"/>
  <path fill="#100f0d" d="M552.722 620.12c-.421 0-.847-.106-1.237-.331a2.487 2.487 0 0 1-.922-3.4l9.294-16.205-10.01-45.494a2.49 2.49 0 0 1 1.9-2.968 2.5 2.5 0 0 1 2.968 1.9l10.217 46.432a2.481 2.481 0 0 1-.274 1.772l-9.772 17.041a2.487 2.487 0 0 1-2.164 1.254"/>
  <path fill="#100f0d" d="M563.736 602.067a2.49 2.49 0 0 1-2.385-1.771 2.489 2.489 0 0 1 1.665-3.106l11.573-3.495a2.484 2.484 0 0 1 3.105 1.664 2.489 2.489 0 0 1-1.664 3.105l-11.574 3.497a2.481 2.481 0 0 1-.72.106"/>
  <path fill="#ad7a39" d="M640.318 576.409c.17 4.695 3.532 8.632 8.262 10.385l-7.227-15.255a10.323 10.323 0 0 0-1.035 4.87m23.379-1.448c-.053-1.465-.71-2.457-1.271-3.227-.743-.952-1.438-1.754-1.473-2.731-.04-1.092.897-2.141 2.27-2.19.063-.004.12.001.182.001-2.557-1.84-5.911-2.9-9.547-2.769-4.882.178-9.099 2.46-11.479 5.767.33-.002.638-.008.9-.017 1.46-.053 3.718-.286 3.718-.286.75-.066.875.872.125.974 0 0-.755.102-1.595.172l5.555 12.658 2.774-7.893-2.36-4.982c-.756-.01-1.47-.06-1.47-.06-.753-.01-.701-.992.054-.981 0 0 2.31.067 3.683.016 1.46-.051 3.719-.286 3.719-.286.752-.064.874.872.124.975 0 0-.755.102-1.595.172l5.513 12.56 1.25-4c.544-1.665.96-2.859.923-3.873"/>
  <path fill="#ad7a39" d="m654.57 576.93-3.815 10.489a16.326 16.326 0 0 0 3.965.341 16.139 16.139 0 0 0 4.613-.842 1.158 1.158 0 0 1-.105-.16l-4.657-9.829m11.769-7.161c.073.376.123.78.138 1.215.045 1.205-.172 2.566-.907 4.287l-3.885 10.626c4.077-2.208 6.73-6.128 6.571-10.502-.074-2.06-.765-3.976-1.916-5.626"/>
  <path fill="#ad7a39" d="M654.768 589.091c-8.568.312-15.753-5.353-16.017-12.625-.264-7.272 6.49-13.44 15.057-13.751s15.755 5.351 16.02 12.623c.264 7.272-6.493 13.442-15.06 13.753zm-.982-27.012c-8.98.327-16.06 6.794-15.783 14.414.277 7.622 7.808 13.558 16.787 13.23 8.982-.325 16.062-6.792 15.783-14.413-.277-7.62-7.808-13.557-16.787-13.231"/>
</svg>