<svg xmlns="http://www.w3.org/2000/svg" xml:space="preserve" viewBox="0 0 1000 1000">
    <g class="Background--group">
        <path fill="#afbc62" d="M759.5 446.3c-2.9 5.3-5.6 10.4-8.2 15.7q-3.9 7.95-7.5 15.9c-4.8 10.7-9.3 21.5-13.4 32.5s-8 22-11.5 33.3c-1.8 5.6-3.4 11.2-5 16.9-.8 2.8-1.6 5.7-2.3 8.5l-2.2 8.5c-1.1 4 1.4 8.2 5.4 9.2 4 1.1 8.2-1.4 9.2-5.4 0-.1 0-.2.1-.3v-.2l1.8-8.4c.6-2.8 1.2-5.6 1.9-8.4 1.4-5.6 2.7-11.2 4.2-16.7 2.9-11.1 6.3-22.1 9.8-33 3.6-10.9 7.5-21.7 11.8-32.4 2.1-5.4 4.3-10.6 6.6-15.9 2.3-5.2 4.7-10.5 7.2-15.5v-.1c1.1-2.2.2-4.9-2-6-2.1-1.1-4.7-.3-5.9 1.8"/>
        <path fill="none" stroke="#000" stroke-linecap="round" stroke-linejoin="round" stroke-miterlimit="10" stroke-width="5.086" d="M759.5 446.3c-2.9 5.3-5.6 10.4-8.2 15.7q-3.9 7.95-7.5 15.9c-4.8 10.7-9.3 21.5-13.4 32.5s-8 22-11.5 33.3c-1.8 5.6-3.4 11.2-5 16.9-.8 2.8-1.6 5.7-2.3 8.5l-2.2 8.5c-1.1 4 1.4 8.2 5.4 9.2 4 1.1 8.2-1.4 9.2-5.4 0-.1 0-.2.1-.3v-.2l1.8-8.4c.6-2.8 1.2-5.6 1.9-8.4 1.4-5.6 2.7-11.2 4.2-16.7 2.9-11.1 6.3-22.1 9.8-33 3.6-10.9 7.5-21.7 11.8-32.4 2.1-5.4 4.3-10.6 6.6-15.9 2.3-5.2 4.7-10.5 7.2-15.5v-.1c1.1-2.2.2-4.9-2-6-2.1-1.1-4.7-.3-5.9 1.8"/>
        <path fill="#d95843" d="M757.9 456.9c2.7 1.6 5.4 2.7 8 3.3 14.1 3.7 26.8-5 37.5-21.8 12.6-19.9 16.8-56.3.4-53.8-4.8.7-9.8 3.6-14.4 7.2 0 0 0-.2.1-.5.2-1.7.6-8-1.6-13.1-3.9-9.2-14.2-10.4-30.5 13.3-16.4 23.9-16.8 55.5.5 65.4"/>
        <path fill="#dd6c54" d="M765.9 460.2c14.1 3.7 26.8-5 37.5-21.8 12.6-19.9 16.8-56.3.4-53.8-4.8.7-9.8 3.6-14.4 7.2 0 0 0-.2.1-.5-5.3 4.5-11.5 10.7-17.6 18.8-.3.4-.5.7-.8 1-.1.1-.2.3-.3.4-.2.3-.5.6-.7.9-.3.5-.7 1-1 1.4-14.7 21.5-14.4 37.4-3.2 46.4"/>
        <path fill="#e03c31" d="M787.8 378.4s4.3-4.5 9.8-2.3c5.5 2.3 6.2 8.6 6.2 8.6l-13.4 5.9z"/>
        <path d="M768.6 414c1.3-2.8 2.9-5.5 4.6-8 .9-1.3 1.7-2.6 2.7-3.8.9-1.2 1.9-2.5 2.9-3.6 4-4.7 8.7-9 14.1-12.4 2.8-1.7 5.8-3.1 9.1-3.9l1.3-.3c.5-.1.9-.1 1.4-.1.5-.1 1 0 1.5 0l.7.1c.2 0 .5.1.8.2 2 .4 4 1.6 5.3 3.1s2.1 3.2 2.7 4.8c.6 1.7.9 3.3 1.2 5 .4 3.3.4 6.5.2 9.7-.5 6.3-1.8 12.5-3.7 18.5s-4.4 11.8-7.8 17.2c-3.3 5.3-7.2 10.3-12 14.7l-.9.8-1 .8-1.9 1.5-2.1 1.3-1 .7-1.1.6c-2.9 1.6-6.2 2.7-9.6 3.2-3.4.6-6.9.2-10.2-.5l-2.4-.6-2.3-.9-1.2-.5-1.1-.6-2.2-1.1c-3-1.7-5.6-4.1-7.7-6.8s-3.6-5.8-4.6-8.9c-2.1-6.3-2.6-12.8-2.1-19.2s2-12.6 4.2-18.5 5.2-11.5 8.8-16.7c3.6-5.1 7.4-10 12.3-14.3 2.5-2.1 5.2-4.1 8.7-5.2 1.8-.5 3.8-.8 5.8-.3 1 .2 2 .6 2.9 1.1s1.7 1.2 2.3 1.9c2.6 2.9 3.7 6.3 4.3 9.6.3 1.6.4 3.3.4 4.9 0 1.7 0 3.2-.3 4.9-.2 1.4-1.4 2.3-2.8 2.2-1.4-.2-2.3-1.4-2.2-2.8v-.1c.1-1.3.2-2.8.1-4.1 0-1.4-.2-2.8-.4-4.1-.5-2.7-1.5-5.2-3-6.8-.4-.4-.8-.7-1.2-1-.4-.2-.9-.4-1.3-.5-.9-.2-2-.1-3.1.3-2.3.7-4.6 2.4-6.7 4.2-4.2 3.8-7.9 8.5-11.2 13.4-3.3 4.8-6 10-8 15.5s-3.4 11.2-3.8 16.9 0 11.5 1.8 16.8c1.7 5.2 5 9.8 9.6 12.3 4.9 2.7 10.3 4.2 15.6 3.4 2.6-.4 5.2-1.2 7.6-2.5l.9-.5.9-.6 1.8-1.1 1.7-1.3.8-.6.8-.7c4.3-3.8 7.9-8.4 11.1-13.3 3.1-4.8 5.5-10.2 7.4-15.8 1.8-5.6 3.1-11.4 3.6-17.1.2-2.9.2-5.8-.1-8.5-.4-2.7-1.2-5.4-2.6-7s-3.2-2-5.8-1.4c-2.6.5-5.1 1.7-7.6 3.2-4.9 3-9.3 7-13.6 11.1l-3.2 3.1-3.2 3.2-3.2 3.2c-1.1 1.1-2.1 2.2-3.2 3.3-.1.1-.4.1-.5 0 0-.4-.1-.5 0-.7"/>
        <path fill="none" stroke="#000" stroke-linecap="round" stroke-linejoin="round" stroke-miterlimit="10" stroke-width="5.086" d="M803.8 384.7s-.7-6.3-6.2-8.6-9.8 2.3-9.8 2.3"/>
        <path fill="#a9b65c" d="M714.7 561.3s7.6-28.8 29.7-55 36.3-39.5 42.7-36.5-9.1 43.2-18.2 59.1-37.6 38.3-37.6 38.3"/>
        <path fill="none" stroke="#000" stroke-linecap="round" stroke-linejoin="round" stroke-miterlimit="10" stroke-width="5.086" d="M714.7 561.3s7.6-28.8 29.7-55 36.3-39.5 42.7-36.5-9.1 43.2-18.2 59.1-37.6 38.3-37.6 38.3"/>
        <path fill="#879342" d="M723.5 559.4s42.5-60.7 46.3-64-19.7 37.2-40.7 65m-52.4-37.5s-2.6-29.6 9.4-61.8 20.8-49.4 27.9-48.7 6 43.8 2.8 61.8-22.5 48.7-22.5 48.7"/>
        <path fill="none" stroke="#000" stroke-linecap="round" stroke-linejoin="round" stroke-miterlimit="10" stroke-width="5.086" d="M676.7 522.9s-.1-14.9 6.1-48.6c4-21.7 23-58.6 31.2-61.9 6.6-2.7 5.2 44.6 1.2 62.4-7.6 34.1-20.9 48-20.9 48"/>
        <path fill="#737a32" d="M684.3 518.1s19.6-71.5 22.1-75.9-6 41.7-16.4 74.9"/>
        <path fill="#afbc62" d="M677 407.5c1 5.9 1.7 11.7 2.4 17.5.6 5.8 1.2 11.7 1.7 17.5.9 11.7 1.5 23.4 1.7 35.1s.1 23.5-.4 35.2c-.2 5.9-.6 11.7-1 17.6-.2 2.9-.5 5.9-.7 8.8l-.8 8.8c-.4 4.2-4 7.2-8.2 6.9-4.2-.4-7.2-4-6.9-8.2v-.5l1.1-8.5c.4-2.8.8-5.7 1.1-8.5.6-5.7 1.3-11.4 1.7-17.1 1-11.4 1.6-22.9 1.9-34.4s.2-23-.1-34.5c-.2-5.7-.5-11.5-.9-17.2s-.9-11.5-1.6-17v-.1c-.3-2.5 1.5-4.7 3.9-5 2.5-.4 4.7 1.2 5.1 3.6"/>
        <path fill="none" stroke="#000" stroke-linecap="round" stroke-linejoin="round" stroke-miterlimit="10" stroke-width="5.086" d="M677 407.5c1 5.9 1.7 11.7 2.4 17.5.6 5.8 1.2 11.7 1.7 17.5.9 11.7 1.5 23.4 1.7 35.1s.1 23.5-.4 35.2c-.2 5.9-.6 11.7-1 17.6-.2 2.9-.5 5.9-.7 8.8l-.8 8.8c-.4 4.2-4 7.2-8.2 6.9-4.2-.4-7.2-4-6.9-8.2v-.5l1.1-8.5c.4-2.8.8-5.7 1.1-8.5.6-5.7 1.3-11.4 1.7-17.1 1-11.4 1.6-22.9 1.9-34.4s.2-23-.1-34.5c-.2-5.7-.5-11.5-.9-17.2s-.9-11.5-1.6-17v-.1c-.3-2.5 1.5-4.7 3.9-5 2.5-.4 4.7 1.2 5.1 3.6"/>
        <path fill="#d95843" d="M674.9 418c-3.1.6-6 .7-8.7.4-14.5-1.3-23.6-13.7-27.9-33.2-5.1-23 3.1-58.6 17.7-50.8 4.3 2.3 8 6.7 11.2 11.7 0 0 0-.2.1-.4.4-1.7 2.1-7.7 5.9-11.8 6.8-7.3 16.9-5 24.2 22.8 7.4 27.9-2.9 57.8-22.5 61.3"/>
        <path fill="#dd6c54" d="M666.3 418.4c-14.5-1.3-23.6-13.7-27.9-33.2-5.1-23 3.1-58.6 17.7-50.8 4.3 2.3 8 6.7 11.2 11.7 0 0 0-.2.1-.4 3.4 6 7.2 14 10.2 23.7.1.4.3.9.4 1.2.1.2.1.3.1.5.1.4.2.7.3 1.1.2.6.3 1.1.5 1.7 6.6 24.9.9 39.8-12.6 44.5"/>
        <path fill="#e03c31" d="M673.2 333.9s-2.5-5.7-8.5-5.4c-5.9.3-8.7 6-8.7 6l10.6 10.1z"/>
        <path d="M678.6 374.2c-2.7-5.5-5.1-11-7.8-16.3s-5.5-10.5-9.1-15c-1.8-2.2-3.8-4.2-6-5.5-2.3-1.4-4.1-1.7-5.9-.7s-3.5 3.3-4.7 5.7c-1.2 2.5-2.2 5.2-3 8-1.5 5.6-2.2 11.5-2.4 17.3-.1 5.9.3 11.7 1.6 17.3 1.3 5.7 3.2 11.3 5.9 16.3l.5.9.6.9 1.1 1.8 1.3 1.6.6.8.7.7c1.8 2.1 4 3.6 6.3 4.9 4.7 2.5 10.3 2.9 15.7 2 5.2-.8 9.8-4 13.2-8.3s5.8-9.6 7.3-15.2 2.2-11.4 2.1-17.2-.8-11.6-2.3-17.3-3.3-11.4-6-16.4c-1.3-2.5-3-4.8-4.9-6.2-1.9-1.5-3.8-1.8-5.7-.8-2 1-3.8 3-5.2 5.4-.7 1.2-1.3 2.4-1.8 3.7s-1 2.7-1.3 3.9v.1c-.3 1.3-1.7 2.2-3 1.8-1.3-.3-2.2-1.6-1.9-3 .4-1.7.9-3.2 1.4-4.7q.9-2.25 2.1-4.5c1.6-2.9 3.8-5.7 7.3-7.6.9-.4 1.8-.8 2.8-1s2.1-.2 3.1-.1c2.1.3 3.9 1.2 5.4 2.3 2.9 2.2 4.8 5 6.5 7.8 3.2 5.7 5.1 11.6 6.8 17.6 1.6 6.1 2.6 12.4 2.7 18.7s-.6 12.7-2.3 18.8-4.3 12.2-8.4 17.4c-2.1 2.6-4.5 5-7.4 6.8s-6.1 3.2-9.5 3.8l-2.4.3-1.2.2h-1.2l-2.5.1-2.5-.2c-3.3-.4-6.7-1.3-9.7-2.9s-5.8-3.7-7.9-6.2l-.9-.9-.8-1-1.5-2-1.3-2.1-.6-1-.6-1.1c-3.1-5.7-5-11.8-6.4-17.8-1.4-6.2-1.8-12.6-1.6-18.8q.3-9.45 2.7-18.6c.9-3.1 1.9-6.1 3.5-9 .8-1.5 1.6-2.9 2.8-4.3 1.1-1.3 2.4-2.6 4.2-3.6 1.7-1 3.9-1.4 6-1.1.3 0 .5 0 .8.1l.7.2c.5.1 1 .3 1.4.5s.9.4 1.3.6l1.1.7c2.9 1.9 5.2 4.2 7.3 6.7 4 5.1 6.9 10.6 9.1 16.4s3.8 11.8 4.4 17.9c0 .2-.1.4-.3.4-.1.2-.2.1-.3 0"/>
        <path fill="none" stroke="#000" stroke-linecap="round" stroke-linejoin="round" stroke-miterlimit="10" stroke-width="5.086" d="M656.1 334.5s2.8-5.7 8.7-6c6-.3 8.5 5.4 8.5 5.4"/>
        <path fill="#a9b65c" d="M680.4 530.8s2.6-29.6-9.4-61.8-20.8-49.4-27.9-48.7-6 43.8-2.8 61.8 22.5 48.7 22.5 48.7"/>
        <path fill="none" stroke="#000" stroke-linecap="round" stroke-linejoin="round" stroke-miterlimit="10" stroke-width="5.086" d="M680.4 530.8s2.6-29.6-9.4-61.8-20.8-49.4-27.9-48.7-6 43.8-2.8 61.8 22.5 48.7 22.5 48.7"/>
        <path fill="#879342" d="M672.8 526.1s-19.6-71.5-22.1-75.9 6 41.7 16.4 74.9"/>
        <path fill="#d9a8b4" d="M740.2 565c0 1.9-.1 3.8-.3 5.8-.1 1.5-.3 3-.5 4.5-.4 2.7-1 5.3-1.9 7.8-.9 2.4-2 4.7-3.2 6.8-7.9 13.1-23.4 21-39.8 18.7-8.4-1.2-15.8-4.8-21.6-10.1-2-1.8-3.7-3.8-5.3-5.9-3.1-4.2-5.3-9.1-6.5-14.2-.4-1.8-.7-3.7-.9-5.6-.2-2.8-.2-5.6.2-8.5.2-1.6.5-3.2.8-4.7.3-1.8.8-3.5 1.2-5.2 1.1-4.3 2.6-8.5 4.3-12.5.8-1.7 1.5-3.4 2.4-5 1.9-3.6 4-7 6.3-10.1 1.3-1.7 2.6-3.4 4-4.9 8.5-9.3 18.8-14.6 29-13.1 6.3.9 11.9 4.1 16.6 9.1 1.3 1.4 2.5 2.9 3.7 4.5 2.2 3.1 4.1 6.6 5.7 10.4.7 1.6 1.3 3.3 1.9 5 1.1 3.4 2 7.1 2.7 10.8.3 1.8.6 3.5.8 5.3.3 3.4.5 7.2.4 11.1"/>
        <path fill="#efe5ce" d="M728.7 522.1c-14.1 4.3-26.6 5.6-36.9 5.6-6.4 0-11.9-.5-16.4-1.2 1.3-1.7 2.6-3.4 4-4.9 10.8 1.2 26.8 1.3 45.6-4 1.3 1.4 2.5 2.9 3.7 4.5m7.5 15.4c-17 5-32.2 6.5-44.5 6.5-10.9 0-19.5-1.2-25.2-2.3.8-1.7 1.5-3.4 2.4-5 11.9 2.1 35.8 4.3 65.3-4.1.9 1.5 1.5 3.2 2 4.9m3.5 16.2c-19.7 6.6-37.3 8.6-51.1 8.6-12.5 0-22-1.6-27.5-2.8.3-1.8.8-3.5 1.2-5.2 11 2.4 40.2 6.5 76.7-5.9.2 1.7.5 3.4.7 5.3m.5 11.3c0 1.9-.1 3.8-.3 5.8-21.1 7.6-39.8 9.7-54.5 9.7-10.5 0-18.8-1.1-24.5-2.2-.4-1.8-.7-3.7-.9-5.6 12.2 2.4 42.7 6.2 80.2-7.7m-2.8 18c-.9 2.4-2 4.7-3.2 6.8-20.1 6.8-37.9 8.9-52 8.9-3.4 0-6.5-.1-9.4-.3-2-1.8-3.7-3.8-5.3-5.9 15.4 1.6 40.5 1.5 69.9-9.5"/>
        <path fill="none" stroke="#000" stroke-linecap="round" stroke-linejoin="round" stroke-miterlimit="10" stroke-width="5" d="M739.3 575.2c-3 21.4-23.1 36.3-45 33.3-21.8-3.1-37.1-22.9-34.1-44.4 4.4-31.4 26.3-58.7 48.1-55.6 21.9 3.1 35.5 34.8 31 66.7"/>
        <path fill="#f19b80" d="M693.4 576.3c1.7 21.6-14.7 40.5-36.7 42.2-22 1.8-41.2-14.3-42.9-35.9-2.5-31.6 12.9-63 34.9-64.7 22-1.8 42.2 26.2 44.7 58.4"/>
        <path fill="#efe5ce" d="M648.3 598.5c3.8-2.3 3.9-6.2.1-7.4s-5.4 3.6-5.4 3.6c-.3-3.9-6.5-6.9-8.2-2.8s2.3 6.7 2.3 6.7c-2.8-.7-7.5 2.4-5.6 6.6 2 4.1 7.3.4 7.3.4-1 2.9-1.6 7.7 4 7.3 5.5-.5 3.2-7.6 3.2-7.6.6 1.4 7.4 4.6 8.1-.7.6-5.3-5.8-6.1-5.8-6.1m-3 4.2c-1 1.5-3 2-4.5 1s-2-3-1.1-4.5c1-1.5 3-2 4.5-1 1.6.9 2 3 1.1 4.5M634 563.4c3.8-2.3 3.9-6.2.1-7.4s-5.4 3.6-5.4 3.6c-.3-3.9-6.5-6.9-8.2-2.8s2.3 6.7 2.3 6.7c-2.8-.7-7.5 2.4-5.6 6.6 2 4.1 7.3.4 7.3.4-1 2.9-1.6 7.7 4 7.3 5.5-.5 3.2-7.6 3.2-7.6.6 1.4 7.4 4.6 8.1-.7.6-5.4-5.8-6.1-5.8-6.1m-3 4.1c-1 1.5-3 2-4.5 1s-2-3-1.1-4.5c1-1.5 3-2 4.5-1 1.6.9 2 3 1.1 4.5m38-32c3.8-2.3 3.9-6.2.1-7.4s-5.4 3.6-5.4 3.6c-.3-3.9-6.5-6.9-8.2-2.8s2.3 6.7 2.3 6.7c-2.8-.7-7.5 2.4-5.6 6.6 2 4.1 7.3.4 7.3.4-1 2.9-1.6 7.7 4 7.3 5.5-.5 3.2-7.6 3.2-7.6.6 1.4 7.4 4.6 8.1-.7.6-5.3-5.8-6.1-5.8-6.1m-3 4.2c-1 1.5-3 2-4.5 1s-2-3-1.1-4.5c1-1.5 3-2 4.5-1 1.6.9 2 2.9 1.1 4.5m-8.2 25.5c2.5-1.5 2.6-4.1.1-4.9s-3.6 2.4-3.6 2.4c-.2-2.6-4.3-4.6-5.4-1.9s1.5 4.4 1.5 4.4c-1.8-.5-5 1.6-3.7 4.3s4.8.3 4.8.3c-.7 1.9-1 5.1 2.6 4.8 3.7-.3 2.1-5 2.1-5 .4 1 4.9 3.1 5.3-.4.5-3.5-3.7-4-3.7-4m-2 2.8c-.6 1-2 1.3-3 .7s-1.3-2-.7-3 2-1.3 3-.7 1.3 1.9.7 3m29.7 13.9c3.8-2.3 3.9-6.2.1-7.4s-5.4 3.6-5.4 3.6c-.3-3.9-6.5-6.9-8.2-2.8s2.3 6.7 2.3 6.7c-2.8-.7-7.5 2.4-5.6 6.6 2 4.1 7.3.4 7.3.4-1 2.9-1.6 7.7 4 7.3 5.5-.5 3.2-7.6 3.2-7.6.6 1.4 7.4 4.6 8.1-.7.6-5.3-5.8-6.1-5.8-6.1m-3 4.1c-1 1.5-3 2-4.5 1s-2-3-1.1-4.5c1-1.5 3-2 4.5-1 1.6 1 2.1 3 1.1 4.5"/>
        <path fill="none" stroke="#000" stroke-linecap="round" stroke-linejoin="round" stroke-miterlimit="10" stroke-width="5" d="M693.4 576.3c1.7 21.6-14.7 40.5-36.7 42.2-22 1.8-41.2-14.3-42.9-35.9-2.5-31.6 12.9-63 34.9-64.7 22-1.8 42.2 26.2 44.7 58.4"/>
        <path fill="#fac068" d="M766.4 620.9c-4.1 21.3-25 35.1-46.7 30.9-21.6-4.2-35.8-24.8-31.7-46.1 6-31.1 29.3-57.2 51-53s33.6 36.6 27.4 68.2"/>
        <path fill="#fdd88b" d="m693.88 587.04-2.08 5.09 1.26 6.08.81.92 1.25-.04 15.84-8.57 4.65 17.51.65.85 1.57-.03 15.07-10.15 6.17 16.92.69.85 1.67-.2 13.97-11.37 7.93 16.51 1.57.55 1.55-1.3.81-5.01-2.17 2.14-7.7-16.1-.69-.68-1.5.12-13.92 11.31-6.09-16.78-.61-.74-1.52.04-14.79 9.99-4.64-17.12-.62-.94-1.66-.06-15.68 8.53z"/>
        <path fill="#eead5e" d="m703.53 570.76-1.8 2.43 20.25 7.72 22.22 6.34 22.95 4.56-.54-3.14-16.41-3.14-16.14-4.08-15.5-4.9zm59.48 60.15 1.27-2.81-19.66-3.42-19.72-4.93-19.57-6.42-17.4-7.26-.44 3.12 12.24 5.24 13.76 4.97 24.92 7.02 13.01 2.7zM711.6 570.4a2.1 2.1 0 1 0 4.2 0 2.1 2.1 0 1 0-4.2 0m10.5 3.5a2.1 2.1 0 1 0 4.2 0 2.1 2.1 0 1 0-4.2 0"/>
        <path fill="#eead5e" d="M732.6 577.2a2.1 2.1 0 1 0 4.2 0 2.1 2.1 0 1 0-4.2 0m10.6 2.9a2.1 2.1 0 1 0 4.2 0 2.1 2.1 0 1 0-4.2 0m10.9 2.6a2.1 2.1 0 1 0 4.2 0 2.1 2.1 0 1 0-4.2 0m-60.5 34.6a2.1 2.1 0 1 0 4.2 0 2.1 2.1 0 1 0-4.2 0m56.3 16a2.1 2.1 0 1 0 4.2 0 2.1 2.1 0 1 0-4.2 0m-45.1-11.7a2.1 2.1 0 1 0 4.2 0 2.1 2.1 0 1 0-4.2 0m11.3 3.6a2.1 2.1 0 1 0 4.2 0 2.1 2.1 0 1 0-4.2 0m11.3 3.1a2.1 2.1 0 1 0 4.2 0 2.1 2.1 0 1 0-4.2 0m11.2 2.7a2.1 2.1 0 1 0 4.2 0 2.1 2.1 0 1 0-4.2 0"/>
        <path d="M727.6 655.1c-2.8 0-5.5-.3-8.3-.8-11.1-2.2-20.7-8.4-27.1-17.7s-8.7-20.4-6.6-31.3c3-15.5 10.4-30.5 20.3-41 10.5-11.2 22.5-16.2 33.6-14 22.6 4.4 36 37 29.4 71.2-2.1 10.9-8.5 20.4-17.8 26.6-7.1 4.6-15.2 7-23.5 7m6.7-100.3c-8.2 0-16.9 4.5-24.8 12.9-9.2 9.8-16.2 23.9-19 38.5-1.9 9.6.2 19.4 5.8 27.5 5.6 8.2 14.1 13.7 23.9 15.6s19.8-.1 28-5.5c8.2-5.5 13.8-13.8 15.7-23.4 6-31-5.9-61.5-25.4-65.3q-1.95-.3-4.2-.3m32.1 66.1"/>
    </g>
</svg>