<svg xmlns="http://www.w3.org/2000/svg" viewBox="0 0 1000 1000">
  <g class="Body--group">
    <path transform="translate(-1.579 2.271)" d="M494.797 453.86c-18.394 5.065-26.19 8.4-40.277 15.35l-.46.21-.12.51c-1.56 6.86-5.93 11.47-10.88 11.47-5.57 0-10.32-5.83-11.31-13.86l-.09-.73-1.03-.191c-1.76-.32-3.55-.65-5.33-.95-1.66-.26-3.32-.51-4.98-.75l-2.4-.359c-2.88-.43-5.95-.78-9.67-1.08l-1.09-.09.01 1.09c.06 7.01.06 24.23-1.32 32.65l-.1.6.48.36c4.99 3.77 9.04 7.759 12.61 11.279 8.49 8.35 15.19 14.941 29.39 14.941 3.62 0 7.56-.42 12.05-1.29 34.72-6.76 67.55-10.19 97.58-10.19 15.94 0 30.94.97 44.58 2.88 20.98 2.94 34.34 7.41 40.44 9.82l1.29.51.07-1.39c.16-3.11.25-6.5.29-8.79l.02-1.12-1.11.1-8.87.129c-65.889-2.48-28.614-63.768-83.306-66.23-3.2-.65-20.518-.715-24.338-.715z" fill="#0baff0" stroke="#000" stroke-width="14" style="paint-order:stroke fill markers"/>
    <path transform="translate(-1.579 2.271)" d="M455.704 460.792c-.19-1.74-.55-3.41-1.07-4.96-.13-.34-.31-.73-.49-1.09l-.32-.66.54-.51c8.51-7.95 39.13-33.88 75.76-33.88 3.21 0 6.42.21 9.56.61l.3.04.23.2c1.29 1.14 2.67 5.52 1.83 9.52-.57 2.69-1.96 4.36-4.03 4.85l-.14.03-.14-.01c-1.14-.06-2.3-.13-3.41-.13h-.7c-2.72 0-5.4.18-7.99.52-5.46.73-10.41 2.13-14.75 4.15.94-.02 1.88-.04 2.81-.07 1.37-.04 2.73-.08 4.09-.08 1.28-.03 2.57-.05 3.86-.05 1.41 0 2.82.02 4.22.04 2.72.02 5.42.17 8.02.32 1.18.08 2.57.18 3.99.33.75.08 1.55.18 2.31.29l.9.13-.05.91c-.03.55-.13 1.03-.3 1.45-.49 1.24-1.42 2.16-2.83 2.8-1.3.59-3.05.92-4.93.93h-.29c-.43 0-.86-.02-1.35-.04-.39-.02-.81-.04-1.31-.05-.59-.04-1.14-.04-1.68-.04-.37 0-1.67.02-1.67.02-8.98.26-17.45 1.82-25.36 3.4-3.66.73-7.59 1.61-12.34 2.77-3.36.83-7.79 1.94-12.22 3.18-7.18 1.99-13.64 3.93-19.75 5.93l-1.17.38z" fill="#0baff0" stroke="#000" stroke-linejoin="round" stroke-width="14" style="paint-order:stroke fill markers"/>
    <path transform="translate(-1.579 2.271)" d="M443.06 477.4c3.62 0 7.5-5.22 7.5-12.99 0-7.77-3.88-12.99-7.5-12.99-1.97 0-3.93 1.46-5.37 4.02l-.04.07-.02.06c-1.33 2.41-2.06 5.55-2.06 8.84-.01 7.77 3.87 12.99 7.49 12.99z" fill="#ff3636"/>
    <path transform="translate(-1.579 2.271)" d="m644.27 532.01-.11-.49-.46-.2c-2.11-.94-8.08-3.41-17.86-5.95l-1.71-.45.5 1.7c.33 1.1.65 2.2.94 3.32.65 2.42 1.28 5.05 1.92 8.02 1.11 5.33 1.91 10.8 2.38 16.25.03.45.07.91.11 1.36.08.89.16 1.82.19 2.72l.16 4.12c.03.9.02 1.81.01 2.71 0 .46-.01.92-.01 1.37l-.02 2.04c-.01.38-.04.76-.06 1.14-.02.3-.04.6-.05.89l-.25 4.05-.44 3.73.1-3.75-.12-4.51c-.01-.52-.03-1.04-.06-1.58l-.16-2.01-.12-1.42c-.07-.87-.13-1.74-.24-2.62l-.51-3.95c-.1-.9-.26-1.79-.41-2.64-.08-.45-.16-.91-.24-1.38-.94-5.32-2.19-10.59-3.73-15.66-.66-2.11-1.54-4.88-2.55-7.61-.46-1.26-.94-2.5-1.43-3.74l-1.28-3.16v-.65l-.79-.17c-5.29-1.13-10.94-2.12-16.79-2.92-6.13-.85-12.67-1.51-19.43-1.97l-1.75-.1.81 1.57c.68 1.33 1.21 2.45 1.64 3.53 1.14 2.79 2.03 5.61 2.64 8.35.72 3.45 1.1 6.09 1.22 8.61.09.97.1 1.99.1 2.98v.75c-.05-.26-.09-.51-.14-.77-.17-.96-.35-1.96-.61-2.89-.63-2.92-1.66-5.69-2.58-8.04-1.01-2.46-2.29-4.94-3.8-7.38-.62-1.02-1.34-2.05-2.35-3.37l-.24-.3c-.34-.43-.68-.86-1.02-1.22a6.94 6.94 0 0 0-.65-.71c-.2-.23-.52-.56-.7-.69-.13-.11-.27-.24-.43-.43l-.28-.33-.44-.02c-4.95-.21-10.1-.32-15.3-.32-7.86 0-16.06.25-24.38.73l-1.79.1 1.28 1.83c.19.27.39.55.56.82a55.91 55.91 0 0 1 3.36 6.06 54.5 54.5 0 0 1 4.24 13c.86 4.42 1.21 8.95 1.04 13.45-.07 2.09-.24 4.2-.5 6.32.04-2.14-.02-4.24-.18-6.31a57.61 57.61 0 0 0-2.41-12.96 52.2 52.2 0 0 0-5.33-11.83 49.684 49.684 0 0 0-3.7-5.24 43.18 43.18 0 0 0-2.1-2.44l-1.09-1.18-1.05-1.12-.48.04c-14.76 1.12-30.23 2.99-45.98 5.56l-.86.14.02.87c.02.82.01 1.62 0 2.42-.01.54-.05 1.08-.08 1.61-.02.36-.04.73-.06 1.03l-.28 2.67c-.44 3.46-1.23 6.92-2.38 10.3-.38 1.24-.9 2.47-1.41 3.67-.17.41-.34.81-.47 1.13-.25.48-.49.95-.73 1.43-.56 1.12-1.09 2.17-1.79 3.21-.96 1.66-2.09 3.2-3.28 4.66.98-1.6 1.88-3.27 2.58-5 .53-1.09.92-2.22 1.29-3.31.16-.48.32-.95.5-1.42l.03-.1c.11-.42.22-.84.33-1.25.32-1.17.65-2.38.84-3.59.64-3.3.94-6.65.9-9.97l-.09-2.48-.06-.79c-.04-.55-.08-1.1-.15-1.64-.06-.54-.13-1.07-.2-1.61l-.14-1.03-1.03.18c-4.17.73-7.98 1.44-11.64 2.15-4.75.92-9.16 1.39-13.1 1.39-1.86 0-3.68-.1-5.39-.31l-.35-.02-.28.15c-.12.07-.29.18-.45.29-.08.06-.17.12-.31.22-.51.38-1.02.78-1.51 1.21-.95.83-1.92 1.73-2.96 2.75-1.74 1.72-3.52 3.64-5.6 6.06-3.49 4.04-6.88 8.49-10.07 13.24-3.32 4.95-6.05 9.68-8.34 14.44-2.44 5.03-4.32 10.06-5.58 14.96.89-4.99 2.4-10.17 4.47-15.44 1.96-4.99 4.36-9.98 7.35-15.26 2.81-4.97 5.92-9.77 9.24-14.27 2.04-2.75 3.69-4.82 5.34-6.71.52-.6 1.06-1.2 1.63-1.8l1.04-1.11-1.43-.51c-7.25-2.6-12.5-7.35-17.68-12.39l-.46-.45-.6.23c-.21.08-.99.4-.99.4-.7.29-1.41.63-2.14.97-1.71.83-3 1.51-4.17 2.2a76.474 76.474 0 0 0-7.99 5.26c-2.27 1.76-4.93 3.87-7.33 6.21-.88.8-1.7 1.65-2.5 2.48-.3.32-.61.63-.93.96-.73.77-1.44 1.57-2.12 2.35-.12.13-.23.26-.34.4.12-.19.25-.37.38-.56.56-.83 1.11-1.67 1.69-2.47.29-.38.57-.76.85-1.14.68-.92 1.38-1.87 2.15-2.77 2.2-2.81 4.69-5.38 6.6-7.29 2.26-2.23 4.78-4.42 7.5-6.51 1.16-.89 2.46-1.82 4.09-2.9.27-.18.55-.35.83-.52l1.4-.86-.93-.9c-2.18-2.1-5.14-4.85-8.59-7.5l-.49-.38-.56.28c-32.94 16.34-49.83 39.56-58.2 56.17-7.35 14.59-9.7 26.97-10.37 31.62l-.09.61.51.35c36.53 25.26 65.51 37.54 88.58 37.54 20.73 0 34.47-9.58 47.77-18.85 12.68-8.84 25.79-17.98 44.18-17.98 2.72 0 5.53.2 8.36.6 28.37 4.01 45.85 17.96 61.27 30.26 12.68 10.11 23.62 18.84 37.64 18.84 2.79 0 5.69-.35 8.62-1.04l.39-.09.22-.34c4.65-7.19 27.07-46.05 12.82-107.99zm-245.75-82.25.69-.08c.24-.03.48-.05.6-.05l.49.02.97.06.65.06c.44.04.87.08 1.28.12 1.44.19 2.68.4 3.79.66 2.83.62 5.13 1.39 7.24 2.43.06.03.08.09.06.14-.02.05-.06.06-.05.07h-.07c-2.6.26-5.13.33-7.48.35l-3.66.06h-.55c-.44 0-.87.01-1.33.02l-.86.04h-.64l-.17.07-.2.02-.16.15-.24.07-.19.39c-.08.11-.23.32-.28.55-.23.64-.17 1.37.13 1.88.21.38.67.9 1.69 1.25.25.12.53.18.75.21.07.01.13.03.2.04.15.04.3.07.54.1l.67.04.39.03.49.02c2.74.05 5.25.21 7.68.48 3.1.34 5.46.64 7.65.99 2.41.35 4.87.81 7.53 1.4 1.73.38 3.07.69 4.35 1.01l1.11.28.13-1.14c.25-2.13.75-4.13 1.49-5.93l.24-.59-.44-.47c-12.02-12.94-27.7-15.7-32.86-16.61-.14-.02-.28-.04-.42-.04-.96 0-1.83.56-2.22 1.41-.97 2.06-1.64 5.45.66 9.9z" fill="#0baff0"/>
    <path d="M447.941 451.231c-.935-.804-4.07-2.54-6.46-2.54-2.83 0-5.4 1.3-7.47 3.49-12.96-13.16-29.03-15.98-34.54-16.95a7.452 7.452 0 0 0-8.04 4.16c-1.27 2.72-2.67 8.071 1.04 14.841-.15.25-.28.51-.39.77-.9 1.96-.94 4.338.04 6.378.26.49.56.96.88 1.41.35.4.73.79 1.12 1.16.4.31.82.592 1.24.862.42.26.85.41 1.28.61.43.2.85.32 1.27.42.41.1.84.228 1.25.288l1.2.14.23.02c.07 8.98-.06 25.37-1.26 32.4-35.15 17.13-53.14 41.841-62.04 59.641-9.78 19.54-11.03 34.92-11.08 35.56-.09 1.24.47 2.43 1.49 3.14 42.88 29.93 72.12 39.77 94.03 39.77 22.38 0 37.11-10.27 50.91-19.89 14.21-9.91 27.64-19.27 48.26-16.35 26.73 3.77 43.54 17.18 58.36 29 13.41 10.69 25.32 20.2 41.2 20.2 3.64 0 7.5-.51 11.63-1.61.76-.2 1.44-.66 1.91-1.3 1.29-1.74 31.2-43.36 14.31-115 .59-5.71.7-17.15.71-17.65a3.511 3.511 0 0 0-4.02-3.49c-2.379.352-2.84 2.465-2.927 3.255l-.123 4.145c-.05 2.52-.14 5.83-.29 8.76-6.51-2.57-19.81-6.96-40.67-9.88-27.84-3.9-75.16-5.79-142.479 7.32-22.49 4.37-30.06-3.07-40.54-13.38-3.62-3.56-7.69-7.56-12.71-11.36 1.36-8.29 1.4-25.16 1.33-32.82 3.2.26 6.41.59 9.6 1.07 2.46.37 4.92.72 7.37 1.11 1.88.31 3.77.66 5.62 1 1.04 8.48 6.06 14.74 12.3 14.74 5.61 0 10.23-5.06 11.86-12.25 0 0 2.706-14.209-5.4-21.19zm-49.51-10.1c5.17.91 20.51 3.62 32.29 16.3-.77 1.87-1.3 3.95-1.56 6.2-1.46-.37-2.91-.7-4.38-1.02-2.52-.56-5.05-1.04-7.6-1.41-2.55-.4-5.12-.71-7.69-.99-2.58-.29-5.17-.44-7.77-.49l-.469-.02-.352-.03-.699-.04c-.22-.03-.4-.09-.61-.13-.2-.03-.41-.07-.55-.15-.7-.23-1.06-.54-1.21-.81-.16-.27-.19-.69-.06-1.06.05-.2.171-.299.231-.419.1-.03.12-.12.19-.11.03 0 .02-.02.07-.04h.45l.9-.04c.6-.01 1.21-.02 1.82-.01l3.69-.062c2.48-.03 5.01-.1 7.57-.36h.03c.36-.04.7-.258.88-.618.27-.55.04-1.21-.51-1.48-2.42-1.19-4.91-1.95-7.47-2.51-1.27-.29-2.57-.5-3.88-.67-.65-.07-1.31-.12-1.97-.18l-1-.06-.51-.02c-.22.01-.49.028-.75.058-2.08-4.04-1.55-7.08-.64-9.02.27-.59.91-.92 1.56-.81zm43.05 13.56c3.07 0 6.5 4.92 6.5 11.99s-3.43 11.99-6.5 11.99c-3.08 0-6.5-4.92-6.5-11.99 0-3.38.78-6.26 1.94-8.36.02-.04.04-.07.06-.12 1.25-2.21 2.92-3.51 4.5-3.51zm-40.04 50.76c3.17 2.43 5.92 4.94 8.51 7.43-.39.24-.78.47-1.16.72-1.42.94-2.82 1.91-4.15 2.94a81.292 81.292 0 0 0-7.59 6.59c-2.36 2.37-4.64 4.79-6.68 7.39-1.07 1.26-2.02 2.62-3.01 3.93-.97 1.34-1.85 2.73-2.78 4.08-.25.38-.2.89.15 1.2.37.34.95.31 1.29-.07l.04-.04c1.08-1.2 2.11-2.43 3.22-3.59 1.12-1.14 2.2-2.32 3.38-3.39 2.29-2.23 4.77-4.23 7.27-6.16a75.816 75.816 0 0 1 7.88-5.18c1.34-.79 2.73-1.5 4.11-2.17.7-.33 1.4-.66 2.09-.95.32-.13.65-.27.96-.39 5.41 5.27 10.71 9.99 18.04 12.62-.57.61-1.12 1.22-1.65 1.83-1.92 2.2-3.68 4.47-5.39 6.77-3.4 4.61-6.5 9.41-9.31 14.37-2.81 4.96-5.329 10.08-7.409 15.39-2.09 5.3-3.72 10.79-4.66 16.41a.97.97 0 0 0 1.898.4v-.01c1.32-5.37 3.291-10.55 5.701-15.52 2.39-4.97 5.2-9.739 8.27-14.319 3.08-4.58 6.41-8.99 10-13.14 1.79-2.08 3.63-4.11 5.55-6 .96-.95 1.93-1.86 2.91-2.71.49-.42.98-.812 1.45-1.162.21-.13.47-.34.64-.43l.04-.02c5.19.62 11.31.36 18.8-1.09 3.94-.77 7.81-1.48 11.62-2.15.07.53.14 1.06.2 1.59.1.8.14 1.61.21 2.41l.09 2.43c.04 3.25-.26 6.52-.88 9.74-.26 1.62-.75 3.191-1.16 4.791-.57 1.54-1.02 3.15-1.75 4.64-1.26 3.09-3.09 5.9-5.02 8.66l-.03.04c-.19.28-.16.66.09.89.28.26.71.24.97-.03 2.36-2.54 4.68-5.22 6.45-8.28.99-1.47 1.7-3.09 2.54-4.67.67-1.63 1.43-3.26 1.95-4.97a53.088 53.088 0 0 0 2.42-10.47l.28-2.69c.04-.9.12-1.81.14-2.72.01-.82.02-1.64 0-2.47 16.71-2.73 32-4.5 45.89-5.55l.13.14.59.63 1.091 1.18c.71.77 1.4 1.56 2.05 2.38a48.59 48.59 0 0 1 3.63 5.14c2.2 3.6 3.97 7.5 5.23 11.6a56.67 56.67 0 0 1 2.37 12.73c.33 4.35.22 8.76-.27 13.15-.03.31.17.61.48.68.34.07.67-.14.74-.47.98-4.38 1.58-8.87 1.73-13.41.17-4.55-.18-9.14-1.06-13.67-.87-4.54-2.32-9-4.32-13.24a57.186 57.186 0 0 0-3.422-6.17c-.27-.41-.56-.81-.84-1.21 14.94-.87 28.13-.9 39.58-.41.17.2.351.39.561.56.12.09.38.35.57.57.22.21.431.45.641.7.43.47.828.99 1.238 1.5.8 1.05 1.582 2.13 2.282 3.27 1.42 2.28 2.69 4.69 3.73 7.23 1 2.54 1.94 5.16 2.53 7.87.37 1.35.56 2.73.83 4.11.23 1.38.35 2.78.53 4.18v.05c.04.28.27.5.56.52a.6.6 0 0 0 .62-.57c.06-1.43.18-2.87.19-4.32-.03-1.44.02-2.91-.12-4.35-.14-2.92-.63-5.82-1.24-8.72a52.58 52.58 0 0 0-2.69-8.52c-.5-1.23-1.07-2.42-1.68-3.61 7.27.49 13.73 1.18 19.36 1.96 6.26.86 11.83 1.86 16.72 2.91v.02l.07.18.05.12.1.24.39.96.75 1.85c.49 1.23.96 2.46 1.42 3.71.92 2.49 1.74 5.02 2.53 7.56a134.54 134.54 0 0 1 3.7 15.54c.21 1.32.49 2.63.64 3.96l.51 3.97c.16 1.33.23 2.67.35 4l.16 2c.04.67.05 1.34.07 2.01l.11 4.021-.11 4.03-.06 2.01-.18 2.01-.36 4.03-.012.04c-.02.32.202.61.522.67.34.06.66-.17.72-.51l.73-4.03.36-2.02.24-2.04.48-4.08.25-4.11c.03-.69.09-1.37.11-2.06l.02-2.06c0-1.37.05-2.75 0-4.13l-.16-4.12c-.04-1.38-.2-2.75-.3-4.12-.47-5.49-1.27-10.97-2.4-16.38-.58-2.71-1.21-5.41-1.93-8.08-.3-1.12-.62-2.23-.95-3.34 9.36 2.43 15.21 4.78 17.7 5.89 14.22 61.81-8.43 100.64-12.68 107.2-18.01 4.24-30.14-5.43-45.41-17.61-15.53-12.39-33.13-26.42-61.75-30.47-23.34-3.29-38.55 7.3-53.25 17.55-26.48 18.46-53.86 37.56-135.21-18.69.66-4.59 2.97-16.82 10.27-31.31 8.35-16.57 25.13-39.54 57.75-55.72z"/>
  </g>
  <g class="LeftArm--group">
    <path fill="#0baff0" stroke="#000" stroke-linejoin="round" stroke-width="14" d="M556.477 413.31s-.66 19-14.04 39.86c0 0-2.64 8.96 3.66 15.39 6.29 6.42 9.84 1.68 15.66 4.53 13.99 6.86 29.89-9.58 33-19.2 4.93-15.27 4.23-28.19-8.48-34.42-6.66-3.26-5.98-7.85-11.54-9.73-9.78-3.3-14.84.6-18.26 3.57z" style="paint-order:stroke fill markers" />
  </g>
  <g class="LeftLeg--group">
    <path transform="translate(-25.625 91.455)" d="M541 500.654a55.42 55.42 0 0 0-3.482 6.906 53.104 53.104 0 0 1 7.768.53c26.73 3.77 43.54 17.18 58.36 29 3.64 2.9 7.17 5.69 10.698 8.251a96.11 96.11 0 0 0 5.518-4.674c-3.84-2.696-7.727-5.763-11.846-9.048-15.53-12.39-33.13-26.42-61.75-30.47a61.967 61.967 0 0 0-5.265-.495z"/>
    <path transform="translate(-25.625 91.455)" d="M597.788 467.427c-12.886.138-26.544 3.99-38.27 13.351-8.53 6.803-14.076 13.43-17.833 20.086 1.881.088 3.78.233 5.703.504 28.37 4.01 45.85 17.96 61.27 30.26 4.02 3.207 7.865 6.231 11.69 8.926 14.473-13.054 25.601-30.602 24.971-38.576-.547-7.203-3.179-13.793-6.367-17.71.05-1.012-.286-2.043-1.033-2.79-8.269-8.269-23.562-14.228-40.13-14.05z" fill="#0baff0" stroke="#0baff0"/>
  </g>
</svg>