<?xml version="1.0" encoding="UTF-8" standalone="no"?>
<svg
   id="wapuugotchi_svg__wapuu"
   x="0"
   y="0"
   version="1.1"
   viewBox="0 0 1000 1000"
   sodipodi:docname="wapuu.svg"
   xml:space="preserve"
   inkscape:version="1.3 (0e150ed, 2023-07-21)"
   xmlns:inkscape="http://www.inkscape.org/namespaces/inkscape"
   xmlns:sodipodi="http://sodipodi.sourceforge.net/DTD/sodipodi-0.dtd"
   xmlns="http://www.w3.org/2000/svg"
   xmlns:svg="http://www.w3.org/2000/svg"><defs
     id="defs44" /><sodipodi:namedview
     id="namedview44"
     pagecolor="#ffffff"
     bordercolor="#666666"
     borderopacity="1.0"
     inkscape:showpageshadow="2"
     inkscape:pageopacity="0.0"
     inkscape:pagecheckerboard="0"
     inkscape:deskcolor="#d1d1d1"
     inkscape:zoom="1.3222123"
     inkscape:cx="531.30651"
     inkscape:cy="405.00304"
     inkscape:window-width="1392"
     inkscape:window-height="816"
     inkscape:window-x="0"
     inkscape:window-y="38"
     inkscape:window-maximized="0"
     inkscape:current-layer="wapuugotchi_svg__wapuu" /><g
     id="wapuugotchi_type__wapuu"><g
       id="Background--group" /><g
       id="RightArm--group"><path
         d="M436.6 504c-4.5 5.1-10.5 7.9-17 7.9-9.1 0-18.5-5.5-24.4-14.4-7.8-11.6-15.5-21.2-22.3-27.9l-4.8-4.7c-2-2-1.1-5.3 1.6-6.1l6.5-1.7c3.2-.9 6.4-2.7 9.1-5.5 3-3 4.8-6.7 5.2-10.4V430c0-1.3 1.5-2.1 2.5-1.3l9.3 6.9c.7.5 1.7 1.1 2.9 1.7 10.2 4.9 31.7 27.4 35.7 46.7 2.1 10.1-1.2 16.5-4.3 20z"
         id="path1" /><path
         d="M402.1 444.1c-1.5-.7-2.9-1.5-4.2-2.4-.5 5.5-3 11-7.3 15.3-3.7 3.7-8.1 6.2-12.5 7.4 8.7 8.6 17 19.8 23.2 29.1 4.5 6.7 11.6 11.1 18.3 11.1 4.1 0 8.1-1.6 11.4-5.4 13-14.8-17.3-49.6-28.9-55.1z"
         class="st0"
         fill="#fc0"
         id="path2" /></g><g
       id="Tail--group"><path
         d="M599.1 649.5c-9 25.7-26.4 50-50.3 70.3-23.8 20.3-51.8 34.7-81 41.6-6.9 1.6-14.1 2.5-21.5 2.5-30.8 0-58.9-13.9-74.8-27-13.6-11.1-21.2-23.3-20.9-33.5.4-12 6.7-20.7 16.8-23.3 2.1-.5 4.3-.8 6.7-.8 11.2 0 27.2 6.7 38.5 25.7 7.8 13.2 22 20.1 41.1 20.1h1.2c40.7-.8 87.6-31.2 109.1-70.8 7.7-14.1 13.2-29.6 17.1-40.8 1.9-5.4 3.6-10.1 5.1-13.5 1.3-3.1 4.1-9.4 10.4-9.4 4.1 0 7.6 1.8 9.9 5 5.5 7.6 3.3 23.3-7.4 53.9z"
         id="path3" /><path
         d="M570.5 657.8c-22.7 41.7-72.5 73.9-115.5 74.7h-1.4c-21.6 0-38.3-8.4-47.4-23.8-9-15.1-22-22.1-32.1-22.1-1.7 0-3.3.2-4.8.6-7 1.8-11 7.6-11.3 16.4-.3 7.7 6.6 18 18.2 27.5 16.8 13.7 43.2 25.3 70.1 25.3 6.6 0 13.3-.7 19.8-2.3 57.2-13.5 108.5-57.4 126-107.1 5.4-15.3 16.7-49.2 4.5-49.2-4.5.1-10.8 31.8-26.1 60z"
         class="st1"
         fill="#f80"
         id="path4" /></g><g
       id="Body--group"><path
         d="M649.7 531.9c-2 24-6.7 45.1-13.9 62.9-8.5 20.9-20.3 36.6-35.1 46.8-34 23.4-64.8 26-76.4 26-1.3 0-2.5 0-3.8-.1-18.4-.8-26-4.4-32.7-7.5-5.9-2.8-11-5.2-24.9-5.7-37.5-1.5-67-9.9-83.1-23.6-.2-.1-.5-.4-.9-.7-4.8-3.5-19.3-14.3-25-24.7-5.3-9.7-6.2-22.3-2.3-31.4 13.4-31.2 24.5-40.5 33.5-48 3.6-3 6.4-5.3 8.8-8.7 2.2-3.1 3.8-7.1 4.9-12.2 0-.1 0-.2.1-.3 3.9-15 3.4-34.9 2.8-56-.2-5.7-.3-11.7-.4-17.5v-.1c0-18.6 9.6-40.7 25.7-59.2 18.1-20.8 41.6-33.6 66.1-36.2 20.2-2.1 34.3-3.1 45.9-3.1 43.7 0 58.6 14.8 82.2 48.4 7.5 10.6 12.1 22.5 16 33.7 11.1 30.4 15.9 76.5 12.5 117.2z"
         id="path5" /><path
         d="M358.5 576.7c-3 7-2.2 17.4 2 25 5.6 10.3 23 22.2 24.1 23.2 15.1 12.9 43.7 20.5 78.7 21.9 31.2 1.3 24.3 11.8 57.6 13.3 1.1 0 2.2.1 3.5.1 16.7 0 43.7-5 72.2-24.7 58-39.9 52.9-165.3 34-218.6-3.9-11.1-8.3-22.2-15.1-31.9-23.5-33.5-36.6-45.2-76.2-45.2-12.2 0-26.9 1.1-45.1 3.1-49.9 5.3-85.3 55.3-85.3 88.1.3 27.4 2.5 55.1-2.7 75.5-1.4 6.5-3.4 11.2-6 14.9-9.8 13.5-23.4 12.4-41.7 55.3z"
         class="st0"
         fill="#fc0"
         id="path6" /></g><g
       id="Ball--group" /><g
       id="RightFoot--group"><path
         d="M384.3 648c-2.4 3.7-6.4 5.7-11.5 5.7-1.9 0-4-.3-6.2-.8-25-6-59.3-43.6-63.6-64.5-1.9-9.4-.2-18 5-24.4 4.6-5.7 11.4-8.8 18.9-8.8 6.8 0 13.6 2.5 19.8 7.3 12.2 9.4 32.9 50.5 37.3 60.7 2.5 5.8 4.9 17.7.3 24.8z"
         id="path12" /><path
         d="M310.1 586.8c3.8 18.2 36.2 53.6 58.1 58.8 1.7.4 3.2.6 4.5.6 3.4 0 4.7-1.3 5.4-2.3 2.3-3.5 1.5-12.1-1-17.9-6.1-13.9-25.3-50.3-35.1-57.8-4.9-3.8-10.2-5.8-15.3-5.8-5.3 0-10 2.2-13.2 6.1-3.6 4.7-4.8 11.2-3.4 18.3z"
         class="st0"
         fill="#fc0"
         id="path13" /></g><g
       id="FullHead--group"><g
         id="BeforeHead--group" /><g
         id="RightEar--group"><path
           d="M413.3 399.4c-.4 4.4-3.8 8.4-11.1 12.9-4.7 3-10.2 5.5-13.9 6.5-6.5 1.7-12.3 2.6-17.3 2.6-6.7 0-10.6-1.6-12.7-2.9-4.8-3-4.4-7.2-4.2-8.5.5-3.1 2.9-5.5 5.9-6.2 3.5-.8 13.5-5.8 23.6-12.6 4.2-2.9 10.7-4.8 16.1-4.8 5.8 0 9.1 2.2 10.8 4.1 2.1 2.4 3.1 5.5 2.8 8.9z"
           id="path18" /><path
           d="M361.4 411.3c0 .3.4.7.9.9 1.1.7 3.6 1.8 8.8 1.8 4.3 0 9.5-.8 15.4-2.3 5.2-1.4 19.1-8.8 19.5-13 .1-1.3-.2-2.4-.9-3.2-1-1.1-2.8-1.7-5.3-1.7-3.9 0-8.9 1.5-11.9 3.5-8.5 5.7-20.5 12.5-26.1 13.7-.3.1-.4.2-.4.3z"
           class="st1"
           fill="#f80"
           id="path19" /></g><g
         id="Head--group"><path
           d="M516.4 328.1c1.6 0 3.2 0 4.8.1 20.6.6 39.5 6.5 55.9 17 11.2 7.2 17.5 11.4 25.9 25.2 1.5 2.5 9 .8 7.9-1.1-10.1-17.6-17.5-22.3-29.8-30.3-17.7-11.4-37.8-17.6-59.7-18.2-1.6 0-3.3-.1-5-.1-1.6 0-3.3 0-4.9.1-24.3.6-47.8 6.6-67.8 17.1-20.2 10.6-37.1 26.1-48.9 44.7-7.7 12.3-10.3 23.9-7.4 33.5 2.4 7.8 7.9 12.7 12.3 14.6 1.4.6 2.9.9 4.7.9 9.3 0 34.7-9.3 45.7-24.8 8.4 4.5 17.6 6.7 28.1 6.7 12.6 0 25-3.2 36.4-6.9 3-1 3.8-2.2 3.9-4.1 0-1.3-1.2-3.6-3.8-3.5-.3 0-.7.1-1 .2-11.2 3.6-23.3 6.9-35.4 6.9-9.3 0-18.6-2-27.4-7.4-.6-.4-1.3-.5-1.9-.5-1.3 0-2.5.6-3.2 1.8l-.1.1c-7.9 14.3-33.3 24.1-41.2 24.1-.7 0-1.3-.1-1.7-.3-2.8-1.2-6.6-4.6-8.2-10-2.3-7.5 0-17 6.6-27.4 22.5-35.7 63.4-57.1 110.6-58.3 1.4-.1 3-.1 4.6-.1"
           id="path20" /><path
           d="M516.6 399.4c-1-.4-2-.7-3-.3-19.7 6.3-42.5 12-62.8-.5-1.7-1.1-4-.5-5.1 1.2l-.1.1c-8.6 15.7-38.3 26-43 23.9-2.8-1.2-6.6-4.6-8.2-10-2.3-7.5 0-17 6.6-27.4 22.5-35.7 63.4-57.1 110.6-58.3 3.1-.1 6.3-.1 9.5 0 20.6.6 39.5 6.5 55.9 17 13.2 8.5 19.7 12.7 30.6 33.6 5.6 10.5-84.4 23.5-91 20.7z"
           class="st0"
           fill="#fc0"
           id="path21" /></g><g
         id="LeftEar--group"><path
           d="M701.4 357.1c-.5 1.7-1.2 3.4-2 5.2-5 10-17.7 23-38 29.1-4.5 1.4-9.3 2-14 2h-.1c-13 0-34.2-4.9-61.6-28.3-1.9-1.7-5.1-4.8-7.1-7-2.3-2.5-2.8-6.1-1.5-9.1s4.4-5.1 7.8-5.1h.5c13.9.8 30.1 1.2 48.4 1.2 8.1 0 14.8-.1 19.3-.1h4.5c7.4 0 13.3-.1 18.2-.1 8.1 0 13.7.1 17.1.2 2.9.1 5.6 1.5 7.3 3.9 1.5 2.3 2 5.2 1.2 8.1z"
           id="path22" /><path
           d="M590.4 359.4c25.7 21.9 45.1 26.5 56.8 26.5h.1c4 0 8-.6 11.9-1.7 18.1-5.4 29.2-16.6 33.5-25.3.8-1.5 1.2-2.8 1.5-3.9.4-1.3-.6-2.6-1.9-2.7-3.3-.1-8.9-.2-16.7-.2-5.4 0-11.6 0-18.2.1-3.3 0-12.2.2-23.9.2-13.9 0-31.7-.2-48.8-1.2h-.1c-.9 0-1.5 1.1-.8 1.8 2 2.2 5 5.1 6.6 6.4z"
           class="st1"
           fill="#f80"
           id="path23" /></g><g
         id="Face--group"><path
           d="M417.6 376.2c-4.1 0-7.4 3.3-7.4 7.4 0 9.9 14.8 9.9 14.8 0 0-4.1-3.3-7.4-7.4-7.4z"
           id="path24" /><path
           d="M503.2 355.7c-4.1 0-7.4 3.3-7.4 7.4 0 9.9 14.8 9.9 14.8 0 0-4.1-3.3-7.4-7.4-7.4z"
           id="path25" /><path
           id="Face--group__nose"
           d="M457.9 375.4c-7.4.8-12.3 2.5-15.6 4.9-5.9 4.4-4.1 9.9 2.5 10.7 6.6.8 7.1 1.2 13.2-3.3 6.5-4.9 7.3-13.1-.1-12.3z" /></g></g><g
       id="LeftLeg--group"><path
         d="M512.4 655.2c-4.6-5.2-3.7-15.7-1.9-29.4 2.6-19.8 5-34.5 25.4-50.8 24.4-19.5 62.2-15 76.2-.5 3.6 3.7 6.7 10.9 7.3 18.8.9 11.4-22.2 42.4-44.8 51.8-22.6 9.6-54 19.3-62.2 10.1z"
         class="st0"
         fill="#fc0"
         id="path30" /><path
         d="M512.4 658.9c-1.2 0-2.3-.5-3-1.6-4.7-6.7-4.5-17.2-2.6-32 2.5-19 4.6-35.5 26.8-53.2 26.8-21.4 63.7-14 78.4.7 1.4 1.4 1.4 3.8 0 5.2-1.4 1.4-3.8 1.4-5.2 0-12.5-12.5-45.4-18.7-68.6-.1-18.9 15.1-21.4 28.2-24.1 48.4-1.4 11-2.3 21.8 1.3 26.7 1.2 1.7.8 4-.9 5.2-.6.5-1.4.7-2.1.7z"
         id="path31" /></g><g
       id="LeftFoot--group"><path
         d="M523.7 651.2c-.4 1.9-2 9.1-6.7 16.2-7 10.6-17.8 16.5-30.4 16.5-7.2 0-12.9-2.1-16.8-6.2-7.5-7.8-7.1-21-6.7-33.7v-.1c.2-6.4.4-13.1-.4-18.5-.7-4.4-1.8-9.1-3.1-14.5-2.4-10.2-4.6-20.1-4.3-28.7.4-10.7 4.7-18.9 12.8-24.4 3.5-2.4 7.4-3.5 11.4-3.5 9.3 0 18.9 6.2 28.7 18.6 7.1 8.9 13.1 20 15.4 28.1 6.4 21.8 4.9 34.9.1 50.2z"
         id="path34" /><path
         d="M477 670.8c2 2.1 5.2 3.1 9.6 3.1 22.6 0 27-23.7 27.2-24.7 0-.2.1-.4.1-.6 4.4-13.9 5.7-25.2 0-44.8-3.7-13.2-21.1-39.4-34.4-39.4-2 0-4 .6-5.8 1.9-11.7 7.8-9.3 21.8-4.4 42.4 1.2 5.1 2.5 10.4 3.2 15.3 1 6.4.8 13.5.5 20.4-.2 10.6-.6 21.6 4 26.4z"
         class="st0"
         fill="#fc0"
         id="path35" /></g><g
       id="LeftArm--group"><g
         id="BeforeLeftArm--part" /><path
         d="M478 413.3c-6.4 2.9-12.4 6.6-17.6 11.1-12.1 10.6-12.6 19.4-10.8 24.8 2.5 7.7 11.1 13.4 21.9 14.6 7.1.7 16.2-1.3 26.7-3.6 13.9-3.1 29.7-6.6 42.9-3.9 19.6 4.1 33.3 15 53.1 32.7l10.3 9.2c1.5 1.3 3.9 1.2 5.2-.4 1.3-1.5 1.2-3.9-.4-5.2l-2.9-2.6c-24-21.7-39.9-36-63.8-41-14.8-3.1-31.3.6-46 3.9-9.5 2.1-18.5 4.1-24.3 3.5-7.8-.8-14.1-4.6-15.7-9.5-1.5-4.7 1.6-10.7 8.7-17 20.7-18.2 59.1-23.7 87.5-12.5 4.7 1.9 7.4-5.1 2.7-6.9-11.4-4.4-24.6-6.6-37.7-6.2-10.1.4-30.5 4.8-39.8 9z"
         id="path40" /><path
         d="M615.4 451c11.7 12.2 17 60.3-6 41.6l-2.9-2.6c-24-21.7-39.9-36-63.8-41-14.8-3.1-31.3.6-46 3.9-9.5 2.1-18.5 4.1-24.3 3.5-7.8-.8-14.1-4.6-15.7-9.5-1.5-4.7 1.6-10.7 8.7-17 20.7-18.2 59.3-24 87.5-12.5 4.6 2 46.1 16.5 62.5 33.6z"
         class="st0"
         fill="#fc0"
         id="path41" /></g><g
       id="RightHand--group"><g
         id="BeforeRightHand--part" /><path
         d="M390.6 457c-5.2 5.1-11.7 8.1-17.8 8.1-8.1 0-14-5.1-15.6-13.3-1-5.4.9-11.3 5.4-16.7 5.8-6.9 14.9-12 21.7-12.1h.2c1.3 0 2.6.2 3.8.6h.2l.1.1c4.5 1.8 7.9 6.2 9.1 11.8 1.4 7.5-1.2 15.5-7.1 21.5z"
         id="path43" /><path
         d="M385.4 451.7c4.2-4.2 6-9.6 5-14.7-.6-3.1-2.3-5.5-4.6-6.4-.4-.1-.9-.2-1.3-.2h-.1c-4 0-11.3 3.6-16.1 9.4-1.8 2.1-4.6 6.3-3.8 10.6 1.1 6 5.1 7.3 8.3 7.3 4.1 0 8.8-2.2 12.6-6z"
         class="st0"
         fill="#fc0"
         id="path44" /></g><g
       id="Front--group" /></g><style
     type="text/css"
     id="style1">&#10;	.st0{fill:#383434;}&#10;	.st1{opacity:0.5;}&#10;	.st2{fill:#FFFFFF;}&#10;	.st3{fill:none;stroke:#FFFFFF;stroke-width:1.7595;stroke-miterlimit:10;}&#10;	.st4{fill:#C1C1C1;}&#10;	.st5{fill:#FF8800;}&#10;</style><g
     id="g45"
     transform="translate(0.35606001,-0.35239241)">&#10;	<g
   id="g42">&#10;		<g
   id="g37">&#10;			<g
   id="g2">&#10;				<g
   id="g1">&#10;					<path
   class="st0"
   d="m 615.59,190.88 c 0,14.15 -9.67,26.04 -22.77,29.4 h -0.01 c -3.25,-10.9 -9.55,-20.66 -18.87,-22.77 -6.18,-1.4 -12.46,-2.22 -18.77,-2.49 -0.19,-1.35 -0.29,-2.74 -0.29,-4.14 0,-16.76 13.59,-30.35 30.36,-30.35 16.76,0 30.35,13.59 30.35,30.35 z"
   id="path1-3" />&#10;				</g>&#10;			</g>&#10;			<g
   id="g4">&#10;				<g
   id="g3">&#10;					<path
   class="st0"
   d="m 404.29,357.94 c -0.94,-4.32 -12.72,-15.36 -9.64,-20.47 1.75,-2.91 4.84,-6.17 9.33,-9.55 l -0.26,0.11 c 17.68,-80.91 86.64,-135.84 151.45,-133.01 6.31,0.27 12.59,1.09 18.77,2.49 9.32,2.11 15.62,11.87 18.87,22.77 h 0.01 c 2.47,8.3 3.17,17.25 2.1,23.98 14.83,29.79 15.76,70.78 18.95,91.2 v 0.01 c 2.81,3.94 2.12,4.57 3.44,8.43 0,0 -10.54,12.51 -15.72,10.75 -9.74,-3.32 -26.65,-11.98 -39.63,-13.04 -21.89,-1.79 -44.42,-3.14 -56.61,-2.44 -82.94,4.74 -100.43,30.93 -100.43,30.93 z"
   id="path2-8" />&#10;				</g>&#10;			</g>&#10;			<g
   id="g6">&#10;				<g
   id="g5">&#10;					<path
   d="m 592.82,223.98 c -1.65,0 -3.15,-1.11 -3.58,-2.78 -0.51,-1.98 0.69,-4 2.67,-4.5 11.77,-3.02 19.99,-13.63 19.99,-25.82 0,-14.69 -11.96,-26.65 -26.65,-26.65 -14.7,0 -26.66,11.96 -26.66,26.65 0,1.2 0.08,2.42 0.25,3.63 0.28,2.02 -1.13,3.89 -3.15,4.18 -2.03,0.28 -3.89,-1.13 -4.18,-3.15 -0.22,-1.54 -0.33,-3.11 -0.33,-4.65 0,-18.78 15.28,-34.05 34.06,-34.05 18.78,0 34.05,15.27 34.05,34.05 0,15.56 -10.51,29.13 -25.55,32.98 -0.31,0.07 -0.62,0.11 -0.92,0.11 z"
   id="path4-0" />&#10;				</g>&#10;			</g>&#10;			<g
   class="st1"
   id="g8">&#10;				<g
   id="g7">&#10;					<path
   class="st2"
   d="m 418.59,361.14 -1.98,-0.3 c 0.02,-0.15 2.13,-14.58 -1.67,-21.73 -3.9,-7.33 -6.65,-10.39 -6.68,-10.42 l 1.48,-1.35 c 0.12,0.13 2.96,3.27 6.97,10.83 4.1,7.74 1.97,22.36 1.88,22.97 z"
   id="path6-2" />&#10;				</g>&#10;			</g>&#10;			<g
   class="st1"
   id="g10">&#10;				<g
   id="g9">&#10;					<path
   class="st2"
   d="m 436.24,352.1 -1.98,-0.3 c 0.02,-0.15 2.13,-14.58 -1.67,-21.73 -3.9,-7.33 -6.65,-10.39 -6.68,-10.42 l 1.48,-1.35 c 0.12,0.13 2.96,3.27 6.97,10.83 4.1,7.74 1.97,22.36 1.88,22.97 z"
   id="path8" />&#10;				</g>&#10;			</g>&#10;			<g
   class="st1"
   id="g12">&#10;				<g
   id="g11">&#10;					<path
   class="st2"
   d="m 455.45,346.88 c 0,-0.18 -0.06,-17.72 -3.06,-25 -3.01,-7.32 -5.17,-10.42 -5.19,-10.45 l 1.44,-1.01 c 0.09,0.13 2.28,3.26 5.38,10.8 3.13,7.6 3.19,24.93 3.19,25.66 z"
   id="path10" />&#10;				</g>&#10;			</g>&#10;			<g
   class="st1"
   id="g14">&#10;				<g
   id="g13">&#10;					<path
   class="st2"
   d="m 479.91,340.13 -1.63,-0.66 c 0.03,-0.07 2.81,-7.32 -2.03,-21.2 -2.62,-7.52 -6.29,-13.92 -6.33,-13.99 l 1.52,-0.88 c 0.04,0.07 3.79,6.61 6.46,14.29 5.1,14.59 2.14,22.13 2.01,22.44 z"
   id="path12-4" />&#10;				</g>&#10;			</g>&#10;			<g
   class="st1"
   id="g16">&#10;				<g
   id="g15">&#10;					<path
   class="st2"
   d="m 503.57,335.52 c -1.22,-22.67 -8.22,-35.44 -8.29,-35.57 l 1.54,-0.86 c 0.3,0.53 7.27,13.22 8.52,36.34 z"
   id="path14" />&#10;				</g>&#10;			</g>&#10;			<g
   class="st1"
   id="g18">&#10;				<g
   id="g17">&#10;					<path
   class="st2"
   d="m 531.97,335.6 c -3.33,-21.87 -8.31,-35.65 -8.36,-35.78 l 1.65,-0.6 c 0.05,0.14 5.09,14.06 8.45,36.12 z"
   id="path16" />&#10;				</g>&#10;			</g>&#10;			<g
   class="st1"
   id="g20">&#10;				<g
   id="g19">&#10;					<path
   class="st2"
   d="m 555.76,338.81 c -3.36,-22.06 -2.64,-38.24 -2.63,-38.4 l 1.76,0.08 c -0.01,0.16 -0.72,16.18 2.61,38.06 z"
   id="path18-8" />&#10;				</g>&#10;			</g>&#10;			<g
   class="st1"
   id="g22">&#10;				<g
   id="g21">&#10;					<path
   class="st2"
   d="m 580.47,344.9 c -3.38,-22.26 2.41,-33.89 2.65,-34.38 l 1.57,0.8 c -0.06,0.11 -5.77,11.67 -2.48,33.31 z"
   id="path20-3" />&#10;				</g>&#10;			</g>&#10;			<g
   class="st1"
   id="g24">&#10;				<g
   id="g23">&#10;					<path
   class="st2"
   d="m 597.48,351.5 -1.65,-0.6 c 3.74,-10.25 13.35,-20.27 13.75,-20.69 l 1.27,1.22 c -0.1,0.1 -9.76,10.18 -13.37,20.07 z"
   id="path22-9" />&#10;				</g>&#10;			</g>&#10;			<g
   class="st1"
   id="g26">&#10;				<g
   id="g25">&#10;					<path
   class="st3"
   d="M 590.95,237.13"
   id="path24-0" />&#10;				</g>&#10;			</g>&#10;			<g
   class="st1"
   id="g28">&#10;				<g
   id="g27">&#10;					<path
   class="st3"
   d="M 558.19,301.43"
   id="path26" />&#10;				</g>&#10;			</g>&#10;			<g
   id="g30">&#10;				<g
   id="g29">&#10;					<path
   d="m 407.12,374.02 c -0.93,0 -1.86,-0.37 -2.55,-1.1 -1.32,-1.41 -1.25,-3.62 0.15,-4.95 8.81,-8.27 30.53,-20.6 62.77,-28.11 24.47,-5.7 62.61,-10.27 105.39,0.34 8.91,2.21 17.65,5.6 25.98,10.08 1.94,1.04 3.35,1.85 4.31,2.48 1.29,0.84 1.68,1.09 6.53,-4.17 l 1.09,-1.17 c 3.86,-4.15 3.17,-5.32 2.5,-6.45 -14.96,-25.22 -57.66,-47.01 -119.35,-38.85 -32.84,4.34 -56.01,12.68 -69.67,18.91 -17.16,7.82 -25.28,15.04 -26.36,17.75 -0.56,2.03 4.45,9.46 6.59,12.63 2.85,4.22 4.49,6.72 4.95,8.85 0.41,1.89 -0.79,3.75 -2.68,4.16 -1.89,0.41 -3.75,-0.79 -4.16,-2.67 -0.25,-0.99 -2.36,-4.13 -3.91,-6.42 -4.62,-6.84 -9.39,-13.91 -7.29,-19.15 4.19,-10.44 41.73,-33.07 101.61,-40.99 64.86,-8.58 110.16,15.02 126.29,42.22 4.04,6.81 -1.17,12.4 -3.39,14.79 l -1.06,1.15 c -4.35,4.72 -8.85,9.6 -15.49,5.3 -0.54,-0.35 -1.64,-1.02 -3.82,-2.19 -7.82,-4.21 -16.01,-7.39 -24.35,-9.46 -73.95,-18.34 -142.85,8.39 -161.68,26.08 -0.68,0.63 -1.54,0.94 -2.4,0.94 z"
   id="path28" />&#10;				</g>&#10;			</g>&#10;			<g
   id="g32">&#10;				<g
   id="g31">&#10;					<path
   d="m 613.87,338.97 c -1.7,0 -3.18,-1.23 -3.45,-2.96 -0.74,-4.73 -1.34,-10.39 -2.04,-16.95 -3.09,-29.01 -7.76,-72.86 -32.02,-94.02 -1.46,-1.27 -1.61,-3.48 -0.34,-4.94 1.27,-1.46 3.48,-1.61 4.94,-0.34 26.34,22.96 31.18,68.45 34.38,98.55 0.69,6.46 1.28,12.04 2,16.61 0.3,1.91 -1.01,3.7 -2.92,4 -0.19,0.04 -0.38,0.05 -0.55,0.05 z"
   id="path30-5" />&#10;				</g>&#10;			</g>&#10;			<g
   id="g34">&#10;				<g
   id="g33">&#10;					<path
   d="m 403.73,331.53 c -0.25,0 -0.5,-0.03 -0.75,-0.08 -1.89,-0.41 -3.08,-2.28 -2.67,-4.17 10.33,-47.3 38.66,-88.68 77.72,-113.53 31.07,-19.76 65.41,-26.74 96.69,-19.66 18.53,4.2 26.5,33.39 23.64,50.87 -0.31,1.91 -2.11,3.2 -4.02,2.89 -1.91,-0.31 -3.2,-2.11 -2.89,-4.02 2.41,-14.71 -4.36,-39.76 -18.27,-42.91 -29.45,-6.67 -61.91,-0.01 -91.39,18.74 -37.5,23.85 -64.7,63.62 -74.64,109.11 -0.37,1.64 -1.82,2.76 -3.42,2.76 z"
   id="path32" />&#10;				</g>&#10;			</g>&#10;			<g
   id="g36">&#10;				<g
   id="g35">&#10;					<path
   class="st4"
   d="m 563.54,271.68 c 6.42,1.25 18.77,4.29 29.06,10.54 1.17,0.71 1.88,1.98 1.86,3.35 l -0.19,13.48 c -0.04,2.86 -3.07,4.67 -5.61,3.36 -6.39,-3.28 -17.32,-8.31 -27.19,-10.03 -1.9,-0.33 -3.24,-2.04 -3.15,-3.96 l 0.63,-13.16 c 0.12,-2.34 2.28,-4.03 4.59,-3.58 z"
   id="path34-2" />&#10;				</g>&#10;			</g>&#10;		</g>&#10;		<g
   id="LeftEar--group_8_">&#10;			<g
   id="g39">&#10;				<g
   id="g38">&#10;					<path
   d="m 701.4,357.1 c -0.5,1.7 -1.2,3.4 -2,5.2 -5,10 -17.7,23 -38,29.1 -4.5,1.4 -9.3,2 -14,2 h -0.1 c -13,0 -34.2,-4.9 -61.6,-28.3 -1.9,-1.7 -5.1,-4.8 -7.1,-7 -2.3,-2.5 -2.8,-6.1 -1.5,-9.1 1.3,-3 4.4,-5.1 7.8,-5.1 h 0.5 c 13.9,0.8 30.1,1.2 48.4,1.2 8.1,0 14.8,-0.1 19.3,-0.1 h 4.5 c 7.4,0 13.3,-0.1 18.2,-0.1 8.1,0 13.7,0.1 17.1,0.2 2.9,0.1 5.6,1.5 7.3,3.9 1.5,2.3 2,5.2 1.2,8.1 z"
   id="path37" />&#10;				</g>&#10;			</g>&#10;			<g
   id="g41">&#10;				<g
   id="g40">&#10;					<path
   class="st5"
   d="m 590.4,359.4 c 25.7,21.9 45.1,26.5 56.8,26.5 h 0.1 c 4,0 8,-0.6 11.9,-1.7 18.1,-5.4 29.2,-16.6 33.5,-25.3 0.8,-1.5 1.2,-2.8 1.5,-3.9 0.4,-1.3 -0.6,-2.6 -1.9,-2.7 -3.3,-0.1 -8.9,-0.2 -16.7,-0.2 -5.4,0 -11.6,0 -18.2,0.1 -3.3,0 -12.2,0.2 -23.9,0.2 -13.9,0 -31.7,-0.2 -48.8,-1.2 h -0.1 c -0.9,0 -1.5,1.1 -0.8,1.8 2,2.2 5,5.1 6.6,6.4 z"
   id="path39" />&#10;				</g>&#10;			</g>&#10;		</g>&#10;	</g>&#10;	<g
   id="g44">&#10;		<g
   id="g43">&#10;			<path
   d="m 407.11,374.23 c -0.65,0 -1.31,-0.17 -1.91,-0.53 -4.67,-2.81 -3.67,-8.52 -2.8,-13.55 0.69,-3.93 1.46,-8.39 0.22,-12.09 -0.65,-1.94 0.4,-4.03 2.33,-4.68 1.94,-0.65 4.04,0.4 4.68,2.33 1.83,5.48 0.85,11.15 0.05,15.71 -0.35,2.04 -0.88,5.08 -0.56,6.01 1.66,1.08 2.18,3.3 1.15,5.01 -0.68,1.15 -1.9,1.79 -3.16,1.79 z"
   id="path42" />&#10;		</g>&#10;	</g>&#10;</g></svg>
