<svg xmlns="http://www.w3.org/2000/svg" xmlns:xlink="http://www.w3.org/1999/xlink" id="wapuugotchi_svg__wapuu" class="color_pick_able" xml:space="preserve" viewBox="0 0 1000 1000" style="--wapuu-color-1: #542f17; --wapuu-color-2: #fffcf3; --wapuu-color-3: #474747; --wapuu-color-4: #cab393;" data-color-1="Trousers" data-color-2="Shirt Body" data-color-3="Shirt Buttons" data-color-4="Shirt Collar &amp; Sleeves">
  <g class="RightArm--group">
    <path id="path4" d="m438.7 503.9-6.3 6.8c-9.4 10.1-25.6 8.9-33.5-2.4l-.5-.7c-3-6.3-8.4-14.2-12.9-20.3l-.3-.5c-4-5.4-7.2-9.4-7.2-9.4l.2-.2c.2.4.5.7.8.9.9.5 2.2.2 4.4-1.3 13.3-9.9 22.2-28.1 22.8-37.8.1-1.8-.1-2.8-.5-3.2 4.1 3.6 7.9 7.3 11.4 11 10.9 11.4 18.8 22.6 24.1 31 5.2 8.3 4.1 19-2.5 26.1" style="fill: var(--wapuu-color-2)" />
    <path id="path5" d="M417.1 446.7c-.4 4.2-2.5 12.4-10.9 24.6-11.4 16.5-20.7 16-20.7 16l-.3-.5-6.2-8.7c.9.5 2.2.2 4.4-1.3 13.3-9.9 22.2-28.1 22.8-37.8.1-1.8-.1-2.8-.5-3.2 4.1 3.6 7.9 7.3 11.4 10.9" style="fill: var(--wapuu-color-4)" />
    <path id="path6" d="M403.2 436.1s3.3-2.9 2.9 2.9c-.6 9.7-9.5 27.9-22.8 37.8-7.8 5.8-5.4-6.1-5.4-6.1" fill="none" stroke="#000" stroke-linecap="round" stroke-linejoin="round" stroke-miterlimit="10" stroke-width="7.28" />
    <path id="path7" d="M377.9 477.5s14.6 17.9 20.5 30.1" fill="none" stroke="#000" stroke-linecap="round" stroke-linejoin="round" stroke-miterlimit="10" stroke-width="7.28" />
    <path id="path8" d="M405.2 435.4s17.4 6.8 30.1 32.4" fill="none" stroke="#000" stroke-linecap="round" stroke-linejoin="round" stroke-miterlimit="10" stroke-width="7.28" />
    <path id="path9" d="M385.5 487.3s9.3.5 20.7-15.9c13-18.8 10.9-28 10.9-28" fill="none" stroke="#000" stroke-linecap="round" stroke-linejoin="round" stroke-miterlimit="10" stroke-width="3" />
  </g>
  <g class="Body--group">
    <defs>
      <clipPath id="linen_trousers__leg_cut_clip">
        <path id="linen_trousers__leg_cut_1" d="M514.4 655.2c-4.6-5.2-3.7-15.7-1.9-29.4 2.6-19.8 5-34.5 25.4-50.8 24.4-19.5 62.2-15 76.2-.5 3.6 3.7 6.7 10.9 7.3 18.8.9 11.4-22.2 42.4-44.8 51.8-22.6 9.6-54 19.3-62.2 10.1z" style="fill: var(--wapuu-color-1)"/>
        <path id="linen_trousers__leg_cut_2" d="M512.4 658.9c-1.2 0-2.3-.5-3-1.6-4.7-6.7-4.5-17.2-2.6-32 2.5-19 4.6-35.5 26.8-53.2 26.8-21.4 63.7-14 78.4.7 1.4 1.4 1.4 3.8 0 5.2-1.4 1.4-3.8 1.4-5.2 0-12.5-12.5-45.4-18.7-68.6-.1-18.9 15.1-21.4 28.2-24.1 48.4-1.4 11-2.3 21.8 1.3 26.7 1.2 1.7.8 4-.9 5.2-.6.5-1.4.7-2.1.7z"/>
      </clipPath>

      <g id="linen_trousers__full_element">
        <path id="path17" style="fill: var(--wapuu-color-1)" d="M555.5 655.2c-.1 0-21.6 3.7-21.7 3.7-.365.251-24.16.28-24.16.28-11.7-4-32.64-9.511-44.84-10.311-26.4-1.9-35.4-.569-53.8-6.169-18.3-5.6-51.9-25.3-57.9-46.9-5.7-20.6 16.3-53.5 28.3-63.9 17.3-15 16.1-19.9 16.1-19.9s88.6 32.6 252.4 6.6c.3-.1 12.7 111-94.4 136.6" />
        <path id="path18" d="M650.5 518.4c-143.4 22.8-231.5.2-251.2-5.8-2.4-.7-4.9.5-5.8 2.9v0c-2.2 6-5.9 11.4-10.7 15.6-.3.2-.6.5-.8.7-12.1 10.4-34.1 43.3-28.4 63.9 6 21.6 39.5 41.3 57.9 46.9s29.9 4 56.3 5.9 33.456 14.659 65.378 10.33C667.4 642.8 650.5 518.4 650.5 518.4" fill="none" stroke="#000" stroke-linecap="round" stroke-linejoin="round" stroke-miterlimit="10" stroke-width="6" />
        <path id="path19" d="M391.5 521.4s43.1 20 147 19.6c88.9-.4 111.5-11.3 111.5-11.3" fill="none" stroke="#000" stroke-linecap="round" stroke-linejoin="round" stroke-miterlimit="10" stroke-width="3" />
        <path id="path20" d="M633 646.2s-25.7 3.1-60.9-18.2c2.2-9.2 9.2-35.7 9.2-35.7l-27 23.5c-78.6-56.8-125.7-51.2-210.2-25.2v-.3c1.1-3.6 13.9-43.2 46.1-79.3 15.5-17.4 12.4-61.8 12.1-66v-.3c100.3-13 91-22.5 134.5-31.7 43.5-9.3 96.1-8.7 96.1-8.7s65.7 113.5.1 241.9" style="fill: var(--wapuu-color-2)" />
        <path id="path21" d="M572.2 628c2.2-9.2 9.2-35.7 9.2-35.7l-27 23.5" fill="none" stroke="#000" stroke-linecap="round" stroke-linejoin="round" stroke-miterlimit="10" stroke-width="6" />
        <path d="M633 404.3s-63-3.9-118.5 20c-48.4 20.8-66.1 19.6-66.1 19.6v-13.5s17.7 1.2 66.1-19.6C570 386.9 627 391 627 391Z" style="fill: var(--wapuu-color-4)" />
        <path d="M448.5 443.9s-1.7 42.4-3.1 53l9.6 12.7 11.8-13.5s3.4-35.2 2.9-55.7" style="fill: var(--wapuu-color-4)" />
        <path d="M446.9 447.9c-27.9 2.7-44.5-3.2-44.5-3.2l1.3-13.6c.1-1.4 1.4-2.3 2.8-1.9 5.6 1.5 20.4 4.5 42 2.5" style="fill: var(--wapuu-color-4)" />
        <path id="path25" d="M633 404.3s-63-3.9-118.5 20c-48.4 20.8-66.1 19.6-66.1 19.6v-13.5s17.7 1.2 66.1-19.6C570 386.9 627 391 627 391Z" fill="none" stroke="#000" stroke-linecap="round" stroke-linejoin="round" stroke-miterlimit="10" stroke-width="6" />
        <path id="path26" d="M448.5 443.9s-1.7 42.4-3.1 53l9.6 12.7 11.8-13.5s3.4-35.2 2.9-55.7" fill="none" stroke="#000" stroke-linecap="round" stroke-linejoin="round" stroke-miterlimit="10" stroke-width="6" />
        <path id="circle26" d="M451.5 489.1a5.3 5.3 0 1 0 10.6 0a5.3 5.3 0 1 0-10.6 0Z" style="fill: var(--wapuu-color-3)" />
        <path id="circle27" d="M453.7 440.3a5.3 5.3 0 1 0 10.6 0a5.3 5.3 0 1 0-10.6 0Z" style="fill: var(--wapuu-color-3)" />
        <path id="circle28" d="M452.9 464.7a5.3 5.3 0 1 0 10.6 0a5.3 5.3 0 1 0-10.6 0Z" style="fill: var(--wapuu-color-3)" />
        <path id="circle29" d="M451.5 489.1a5.3 5.3 0 1 0 10.6 0a5.3 5.3 0 1 0-10.6 0Z" fill="none" stroke="#000" stroke-linecap="round" stroke-linejoin="round" stroke-miterlimit="10" stroke-width="3" />
        <path id="circle30" d="M453.7 440.3a5.3 5.3 0 1 0 10.6 0a5.3 5.3 0 1 0-10.6 0Z" fill="none" stroke="#000" stroke-linecap="round" stroke-linejoin="round" stroke-miterlimit="10" stroke-width="3" />
        <path id="circle31" d="M452.9 464.7a5.3 5.3 0 1 0 10.6 0a5.3 5.3 0 1 0-10.6 0Z" fill="none" stroke="#000" stroke-linecap="round" stroke-linejoin="round" stroke-miterlimit="10" stroke-width="3" />
        <path id="path31" d="M446.9 447.9c-27.9 2.7-44.5-3.2-44.5-3.2l1.3-13.6c.1-1.4 1.4-2.3 2.8-1.9 5.6 1.5 20.4 4.5 42 2.5" fill="none" stroke="#000" stroke-linecap="round" stroke-linejoin="round" stroke-miterlimit="10" stroke-width="6" />
        <path id="path32" d="M402.4 444.7v.3c.2 4.1 2.1 46.4-14.2 66.9-32.8 41.1-43 75.1-44 78.4v.2c84.5-26 131.6-31.6 210.2 25.2" fill="none" stroke="#000" stroke-linecap="round" stroke-linejoin="round" stroke-miterlimit="10" stroke-width="6" />
        <path id="path33" d="M572.2 628c35.2 21.3 60.9 18.2 60.9 18.2 65.5-128.5 0-242 0-242" fill="none" stroke="#000" stroke-linecap="round" stroke-linejoin="round" stroke-miterlimit="10" stroke-width="6" />
      </g>
    </defs>
    <use xlink:href="#linen_trousers__full_element" />
  </g>
  <g class="LeftLeg--group">
    <path d="M512.4 655.2c-4.6-5.2-3.7-15.7-1.9-29.4 2.6-19.8 5-34.5 25.4-50.8 24.4-19.5 62.2-15 76.2-.5 3.6 3.7 6.7 10.9 7.3 18.8.9 11.4-22.2 42.4-44.8 51.8-22.6 9.6-54 19.3-62.2 10.1z" style="fill: var(--wapuu-color-1)"/>
    <path d="M512.4 658.9c-1.2 0-2.3-.5-3-1.6-4.7-6.7-4.5-17.2-2.6-32 2.5-19 4.6-35.5 26.8-53.2 26.8-21.4 63.7-14 78.4.7 1.4 1.4 1.4 3.8 0 5.2-1.4 1.4-3.8 1.4-5.2 0-12.5-12.5-45.4-18.7-68.6-.1-18.9 15.1-21.4 28.2-24.1 48.4-1.4 11-2.3 21.8 1.3 26.7 1.2 1.7.8 4-.9 5.2-.6.5-1.4.7-2.1.7z"/>

    <g class="linen_trousers__left_leg">
      <g clip-path="url(#linen_trousers__leg_cut_clip)">
        <use xlink:href="#linen_trousers__full_element" />
      </g>
    </g>

  </g>
  <g class="LeftArm--group">
    <path id="path40" d="M621.9 506c-4.3 4.3-11.4 3.9-15.3-.8-42.2-50.6-96.1-45.7-111.7-43-2.9.5-5.9-.2-8.2-2-.2-.2-.4-.4-.6-.5-13.6-12.7-12.6-32.7-11.1-42.4.5-3.6 3-6.7 6.5-8 2.5-1 5.8-2.1 9.7-3.2 18.1-5 50.2-9.2 84.3 9.4.3.2.6.3.9.4 4.7 1.9 44.8 19.6 54.7 56.8 4.4 15.6-2.6 26.8-9.2 33.3" style="fill: var(--wapuu-color-2)" />
    <path id="path41" d="m505.4 460.2-17.2 1.4c-.2-.2-1.8-1.8-2-1.9-13.6-12.7-12.6-32.7-11.1-42.4.5-3.6 3-6.7 6.5-8 2.5-1 5.8-2.1 9.7-3.2-.3.5-11 30.2 14.1 54.1" style="fill: var(--wapuu-color-4)" />
    <path id="path42" d="M605.6 504.6C553 446 504 462.9 490.6 463.1c-13.8.2-22.4-47.2-14.4-51.6 0 0 47.7-24.6 99.9 4.1" fill="none" stroke="#000" stroke-linecap="round" stroke-linejoin="round" stroke-miterlimit="10" stroke-width="7.28" />
    <path id="path43" d="M491.3 406s-11.3 30 14.1 54.2" fill="none" stroke="#000" stroke-linecap="round" stroke-linejoin="round" stroke-miterlimit="10" stroke-width="3" />
  </g>
</svg>
