<svg version="1.1" id="wapuugotchi_svg__item" viewBox="0 0 1e3 1e3" xmlns="http://www.w3.org/2000/svg">
    <g class="Ball--group">
        <path d="M564.2 563.2 513 587.4c-.5.2-1 .4-1.6.4-.6 0-1.2-.1-1.7-.4-1-.6-1.8-1.5-1.9-2.7l-4.3-26.7c-.2-1.1.2-2.2.9-3 .7-.8 1.8-1.3 2.9-1.2l55.5 2.5c1.7.1 3.1 1.3 3.5 3 .2 1.5-.6 3.2-2.1 3.9z"/>
        <path d="m547.5 562.9-36.1-1.7 2.8 17.4z" fill="#c9caca"/>
        <path d="m513.4 573.7 17.1-8-18.5-.8z" fill="gray"/>
        <path d="M514.1 586.5c-.7.8-1.7 1.2-2.8 1.2h-.1l-182.4-6.5c-1.7-.1-3.2-1.3-3.5-3l-21-117.2c-.2-1.1.1-2.2.8-3.1.7-.8 1.8-1.3 2.9-1.3l184.6 6c1.8.1 3.2 1.4 3.5 3.1L515 583.5c.2 1.1-.1 2.2-.9 3z"/>
        <path d="m312.4 464.2 19.7 109.7 174.9 6.3L489.3 470z" fill="#c9caca"/>
        <path transform="matrix(.04795 -.00012 .00013 .05073 9.186 32.195)" d="m7864.1 9618.1c27.3 146.7 140.6 276.2 281.8 340.3l-276.1-490c-13.1 45.4-15.7 96-5.7 149.7z" fill="#fff"/>
        <path transform="matrix(.04795 -.00012 .00013 .05073 9.186 32.195)" d="M8513.4 9619.7c-8.5-45.8-31.7-78-51.2-103.2-25.4-31.1-48.8-57.6-54.5-88.1-6.3-34.1 14.9-64.9 53.2-63.7 1.7.1 3.4.3 5.1.5-80.6-62.5-179.8-102.3-281.3-105.4-136.2-4.2-243.6 58.5-294.5 156.9 9.2.5 17.8 1 25.2 1.2 40.8 1.3 103-1.5 103-1.5 20.8-.5 28.7 28.9 8.2 30.6 0 0-20.7 1.7-43.9 2.2l216.7 405.7 40-240.5-90.2-160.1c-21.2-1.8-41.5-4.8-41.5-4.8-21.2-1.8-24.4-32.3-3.2-30.4 0 0 65.2 6.7 103.5 7.9 40.8 1.3 103-1.5 103-1.5 20.8-.5 28.7 28.9 8.2 30.6 0 0-20.7 1.7-43.9 2.2l215 402.7 15.9-122.3c7.2-50.9 13.1-87.3 7.2-119z" fill="#fff"/>
        <path transform="matrix(.04795 -.00012 .00013 .05073 9.186 32.195)" d="m8266.7 9662.8-56.8 319.4c36.7 10.8 74.7 17.3 112.9 18.5 45.4 1.4 87.5-4.7 125.5-17-1.3-1.6-2.6-3.3-3.7-5.2l-177.9-315.7z" fill="#fff"/>
        <path transform="matrix(.04795 -.00012 .00013 .05073 9.186 32.195)" d="m8562.7 9463c3.9 11.9 7.2 24.6 9.7 38.2 7 37.6 7.5 79.6-4.9 131.8l-58.1 323.5c103.9-60.6 159.6-177.6 134.1-314.3-12-64.3-40.6-125.5-80.8-179.2z" fill="#fff"/>
        <path transform="matrix(.04795 -.00012 .00013 .05073 9.186 32.195)" d="m8173.4 9198.3c-250.5-7.8-418.2 179.7-373.9 417.8 44.4 238.2 284.3 438.2 534.8 446s418.3-179.7 373.9-417.9c-44.4-238.1-284.4-438.2-534.8-445.9zm157.2 844c-239-7.4-467.9-198.3-510.2-425.6-42.3-227.2 117.7-406.1 356.7-398.7s467.9 198.3 510.2 425.5c42.3 227.4-117.7 406.2-356.7 398.8z" fill="#fff"/>
        <path d="M471.8 483.9c-.2.3-.5.5-.9.5-.5 0-1.1-.3-1.5-.8-.6-.7-1.1-1.2-1.5-1.6l-.3-.3c-.1-.1-.1-.3 0-.4l.4-.1c.2-.1.3-.2.5-.3.1-.2.2-.4.2-.6l-.1-.7c0-.1.1-.1.1-.1l.6.4s.1.1.2.1c.6.3 2.1 1.6 2.5 2.7.1.6 0 1-.2 1.2z"/>
        <path d="M469.3 480.4c-.1 0-.2-.1-.3-.1 0 .3-.1.6-.3.9-.2.2-.4.4-.7.4.6.5 1.2 1.1 1.6 1.7.3.4.8.6 1.2.6.2 0 .5-.1.6-.3.7-.9-1.4-2.9-2.1-3.2z" fill="#fc0"/>
        <path d="M482.5 492.3c-.3 1.5-1.1 2.9-2.3 4.1-1.2 1.2-2.7 2-4.3 2.4-.4.1-.8.1-1.2.2-1.8 0-3.5-.8-4.6-1.6-.9-.6-1.4-1.4-1.5-1.9-.1-.7.2-1.2.8-1.4h.4c.6 0 1.6.4 2.5 1.5.6.8 1.4 1.2 2.6 1.2h.1c2.3-.1 4.8-1.8 5.7-4.2.3-.8.5-1.7.6-2.4.1-.3.1-.6.2-.8 0-.2.2-.5.5-.6.2 0 .5.1.6.3.3.5.3 1.4-.1 3.2z"/>
        <path d="M480.9 492.8c-.9 2.4-3.5 4.3-6 4.4h-.1c-1.2 0-2.3-.5-2.9-1.4-.7-.9-1.5-1.3-2-1.3h-.3c-.4.1-.6.4-.5 1 .1.4.5 1 1.3 1.6 1.1.8 2.7 1.5 4.3 1.5.4 0 .8 0 1.1-.1 3.2-.8 5.8-3.4 6.3-6.3.2-.9.5-2.9-.2-2.9-.2 0-.3 1.8-1 3.5z" fill="#f80"/>
        <path d="M484.4 485.4c.1 1.4 0 2.6-.2 3.7-.3 1.2-.9 2.1-1.6 2.7-1.8 1.4-3.5 1.5-4.2 1.5h-.2c-1.1 0-1.5-.2-2-.4-.4-.2-.7-.3-1.5-.3-2.2-.1-4-.6-5-1.4h-.1c-.3-.2-1.2-.8-1.7-1.4-.4-.6-.6-1.3-.4-1.8.5-1.8 1.1-2.4 1.5-2.8.2-.2.3-.3.4-.5.1-.2.2-.4.2-.7.1-.9-.1-2-.3-3.3-.1-.3-.1-.7-.2-1-.2-1.1.2-2.4 1-3.5.9-1.2 2.1-2 3.5-2.1 1.1-.1 2-.2 2.6-.2 2.5 0 3.5.8 5.2 2.8.5.6.9 1.3 1.2 2 1 1.7 1.6 4.4 1.8 6.7z"/>
        <path d="M468 488.1c-.1.4 0 1 .3 1.5.4.6 1.5 1.3 1.6 1.3 1 .7 2.7 1.2 4.7 1.3 1.8.1 1.5.7 3.4.8h.2c1 0 2.5-.3 4-1.5 3-2.3 1.6-9.6 0-12.7-.3-.6-.7-1.3-1.2-1.9-1.7-1.9-2.5-2.6-4.8-2.6-.7 0-1.5.1-2.6.2-2.8.3-4.4 3.2-4.2 5.2.3 1.6.6 3.2.5 4.4 0 .4-.1.7-.2.9-.2.7-1 .6-1.7 3.1z" fill="#fc0"/>
        <ellipse transform="rotate(-45.645 474.01 485.34)" cx="474" cy="485.3" rx="7.2" ry="8.3"/>
        <ellipse transform="rotate(-45.645 474.01 485.34)" cx="474" cy="485.3" rx="6.8" ry="7.9" fill="#005683"/>
        <path d="m466.7 482.1c-0.5 2.1-0.4 3.4 0.3 5.3s3.4 3.7 6.2 3.2 4.6-2.7 4.1-5.8-2.8-5.4-5.1-5.8c-2.7-0.4-4.9 1.1-5.5 3.1z" clip-rule="evenodd" fill="#00709c" fill-rule="evenodd"/>
        <path d="M467.5 481.6c-.1.1-.2.3-.2.4-.2.4-.4.8-.5 1.3-.2.9-.2 1.9.2 2.9.3 1 .9 1.9 1.9 2.6 1.8 1.4 3.6 1.3 4.8.4 0 0 .8-.7.9-1 .2-.4.6-.9.7-1.2.3-.8.4-1.8.2-2.8-.1-.4-.2-.7-.3-1-.1-.3-.3-.6-.4-.9-.2-.3-.4-.6-.6-.8l-.1-.1-.5-.5c-.5-.5-1.6-.9-1.6-.9s-.5-.1-.7-.2c-.3-.1-.8 0-.8 0-.6.1-1.1.2-1.5.4-.5.2-1.3 1-1.5 1.4zm1.4-1.1c.5-.3 1-.4 1.6-.4.8.1 1 .2 1.4.3.2.1.5.2.8.4-.2.1-.4.2-.5.3-.2.2-.2.7.4 1.5.4.4.6.8.7 1.3.1.5.1 1-.1 1.7 0 .4 0 .6-.1.8 0 .2 0 .5-.1.8-.5-.9-1-1.7-1.4-2.5-.4-.8-.8-1.7-1.2-2.6.2 0 .4-.1.5-.1s.2-.1 0-.3c0 0-.6 0-1.1.1-.5.1-1.1.1-1.1.1-.1 0-.1.1-.1.1v.1c0 .1 0 .1.1.1h.4l.3.9c.1.3.3.6.5 1.1 0 .5-.1.9-.1 1.5 0 .5 0 1.2.1 1.9-.6-1-1.1-1.8-1.5-2.7-.4-.8-.6-1.6-.8-2.5.1 0 .1-.1.2-.1s.2 0 .2-.1c0 0 .1-.1.1-.2s0-.1-.1-.1c-.2 0-.4 0-.5.1-.2.1-.3.2-.5.2.1-.3.3-.6.4-.8.6-.1 1.2-.7 1.5-.9zm-1.5 6c-.5-1.1-.6-2.3-.3-3.4.2 1 .5 2 1 2.9s1.2 1.9 2.1 3.1c-1.4-.6-2.3-1.5-2.8-2.6zm4.2 2.8c-.3 0-.6 0-.9-.1-.1-.5-.2-1-.3-1.7s-.1-1.5 0-2.6c1.2 2.3 2.5 4 2.5 4-.2.1-.6.4-1.3.4zm3.2-2.5c-.2.5-1.2 1.8-1.2 1.6v-.9c.2-1.4.4-2.7.5-4.2 0-.3 0-.9-.2-1.5 1.1 1.5 1.6 3.4.9 5z" fill="#fff"/>
        <path d="M468.8 481.1c-.3.3-.6.5-1 .5-.5 0-.9-.3-1-.8-.1-.3 0-.7.2-1 .3-.4.8-.7 1.1-.7h.2c.3.1.5.4.6.7.2.5.2 1-.1 1.3z"/>
        <path d="M468.4 480.8c.2-.2.3-.6.2-.9-.1-.2-.2-.3-.3-.4h-.1c-.2 0-.6.2-.8.6-.1.1-.2.4-.1.6.1.3.4.4.5.4.2.1.4 0 .6-.3z" fill="#fc0"/>
        <path d="M470.1 492.3c-.1.2-.3.3-.6.3h-.4c-1.5-.3-3.8-2.5-4.2-3.7-.2-.5-.2-1 .1-1.4.2-.3.6-.5 1-.5s.8.1 1.2.4c.8.5 2.3 2.9 2.7 3.5.2.3.4 1 .2 1.4z"/>
        <path d="M465.3 488.7c.4 1.1 2.6 3.1 3.9 3.4h.3c.2 0 .3-.1.3-.1.1-.2 0-.7-.2-1-.5-.8-1.9-2.9-2.5-3.4-.3-.2-.6-.3-.9-.3-.3 0-.6.1-.7.4-.4.2-.4.6-.2 1z" fill="#fc0"/>
        <path d="M469.6 477.8c0 .3-.1.5-.5.8-.2.2-.5.3-.7.4-.4.1-.7.2-1 .2-.4 0-.6-.1-.8-.2-.3-.2-.3-.4-.3-.5 0-.2.1-.3.3-.4.2 0 .7-.3 1.3-.7.2-.2.6-.3.9-.3.3 0 .5.1.7.2 0 .1.1.3.1.5z"/>
        <path d="M466.7 478.5c.1.1.3.2.6.2.2 0 .5 0 .9-.1.3-.1 1-.5 1-.8 0-.1 0-.1-.1-.2s-.2-.1-.3-.1c-.2 0-.5.1-.7.2-.4.3-1.1.7-1.4.8z" fill="#f80"/>
        <path d="M474.9 473.6h.3c1.2 0 2.3.4 3.4 1 .7.4 1.1.7 1.7 1.5.1.1.5 0 .4-.1-.7-1-1.2-1.3-2-1.8-1.1-.7-2.3-1-3.6-1h-.6c-1.4 0-2.7.4-3.8 1-1.1.6-1.9 1.5-2.4 2.6-.3.7-.4 1.4-.1 2 .2.5.6.7.8.8.1 0 .2.1.3.1.5 0 1.9-.6 2.4-1.5.5.3 1.1.4 1.7.4.7 0 1.4-.2 2-.4.2-.1.2-.1.2-.2s-.1-.2-.3-.2h-.1c-.6.2-1.3.4-2 .4-.5 0-1.1-.1-1.6-.4h-.1c-.1 0-.1 0-.2.1-.3.8-1.7 1.4-2.2 1.4h-.1c-.2-.1-.4-.3-.6-.6-.2-.4-.1-1 .1-1.6 1-2.1 3.2-3.3 5.9-3.4.3-.1.4-.1.5-.1"/>
        <path d="M475.5 477.8h-.2c-1.1.4-2.3.7-3.6 0-.1-.1-.2 0-.3.1-.4.9-2 1.5-2.3 1.4-.2-.1-.4-.3-.6-.6-.2-.4-.1-1 .1-1.6 1-2.1 3.2-3.3 5.9-3.4h.5c1.2 0 2.3.4 3.4 1 .8.5 1.2.7 2.1 1.9.5.5-4.5 1.3-5 1.2z" fill="#fc0"/>
        <path d="M473.4 478.6c-.3.2-.7.4-.9.7-.6.6-.6 1.1-.4 1.4.2.4.8.8 1.4.8.4 0 .9-.1 1.5-.2.8-.2 1.7-.4 2.4-.2 1.2.2 2.1.9 3.4 1.9l.7.5c.1.1.2.1.3 0 .1-.1 0-.2-.1-.3l-.2-.2c-1.6-1.3-2.6-2.1-4-2.4-.9-.2-1.8 0-2.6.2-.5.1-1 .2-1.4.2-.5 0-.9-.3-1-.5-.1-.3 0-.6.4-1 1-1.1 3.2-1.4 4.9-.8.3.1.4-.3.1-.4-.7-.3-1.5-.4-2.2-.4-.6.2-1.8.4-2.3.7z"/>
        <path d="M481.7 480.7c.8.7 1.5 3.5 0 2.4l-.2-.2c-1.6-1.3-2.6-2.1-4-2.4-.9-.2-1.8 0-2.6.2-.5.1-1 .2-1.4.2-.5 0-.9-.3-1-.5-.1-.3 0-.6.4-1 1-1.1 3.2-1.4 4.9-.8.3.3 2.8 1.1 3.9 2.1z" fill="#fc0"/>
        <path d="M485.8 475.2c0 .1 0 .2-.1.3-.2.6-.8 1.3-1.9 1.7-.2.1-.5.1-.8.1-.8 0-2-.3-3.8-1.6-.1-.1-.3-.3-.5-.4-.2-.1-.2-.4-.2-.5 0-.2.2-.3.4-.3.8 0 1.7.1 2.8.1h3.5c.2 0 .3.1.5.2.1.1.2.3.1.4z"/>
        <path d="M479.5 475.4c1.7 1.3 2.8 1.5 3.5 1.5.2 0 .5 0 .7-.1 1-.3 1.5-1 1.7-1.5 0-.1 0-.2.1-.2 0-.1-.1-.2-.1-.2h-3.5c-.8 0-1.8 0-2.8-.1-.1 0-.1.1 0 .1.1.3.3.4.4.5z" fill="#f80"/>
        <path d="M469.6 476.4c-.2 0-.4.2-.4.4.1.6.9.6.9 0 0-.2-.2-.4-.5-.4z"/>
        <path d="M474.4 475.2c-.2 0-.4.2-.4.4.1.6.9.6.9 0-.1-.2-.3-.4-.5-.4z"/>
        <path d="M471.9 476.4c-.4 0-.7.1-.9.3-.3.3-.1.6.2.6.4 0 .4.1.7-.2.5-.3.5-.8 0-.7z"/>
        <path d="M477.6 492.7c-.3-.3-.4-.9-.4-1.7 0-1.2 0-2 1-3 1.2-1.1 3.5-.9 4.4-.1.2.2.5.6.6 1.1.2.7-.9 2.5-2.1 3-1.3.6-3 1.2-3.5.7z" fill="#fc0"/>
        <path d="M477.6 492.9c-.1 0-.1 0-.2-.1-.3-.4-.4-1-.4-1.9 0-1.1 0-2.1 1.1-3.1 1.4-1.3 3.6-.8 4.5 0 .1.1.1.2 0 .3-.1.1-.2.1-.3 0-.8-.7-2.8-1.1-4 0-1 .9-1 1.6-1 2.8 0 .6.1 1.3.3 1.6.1.1.1.2 0 .3.1.1 0 .1 0 .1z"/>
        <path d="M478.2 492.4c0 .1 0 .5-.2.9-.3.6-.9 1-1.6 1-.4 0-.8-.1-1-.4-.5-.5-.6-1.2-.7-2 0-.4-.1-.8-.2-1.1-.1-.3-.2-.5-.3-.8-.2-.6-.4-1.2-.5-1.7-.1-.6.1-1.1.5-1.4.2-.1.4-.2.6-.2.5 0 1.1.4 1.8 1.1.5.5.9 1.2 1.1 1.6.6 1.4.6 2.1.5 3z"/>
        <path d="M475.6 493.6c.1.1.3.2.6.2 1.3 0 1.4-1.4 1.4-1.4.1-.8.1-1.5-.4-2.6-.3-.8-1.6-2.3-2.3-2.3-.1 0-.2 0-.3.1-.6.5-.3 1.3.1 2.5l.3.9c.1.4.2.8.2 1.2.1.4.1 1.1.4 1.4z" fill="#fc0"/>
    </g>
</svg>
