<svg xmlns="http://www.w3.org/2000/svg" viewBox="0 0 1000 1000">
    <g class="Ball--group">
        <path d="M564.2 563.2 513 587.4c-.5.2-1 .4-1.6.4-.6 0-1.2-.1-1.7-.4-1-.6-1.8-1.5-1.9-2.7l-4.3-26.7c-.2-1.1.2-2.2.9-3 .7-.8 1.8-1.3 2.9-1.2l55.5 2.5c1.7.1 3.1 1.3 3.5 3 .2 1.5-.6 3.2-2.1 3.9z"/>
        <path fill="#c9caca" d="m547.5 562.9-36.1-1.7 2.8 17.4z"/>
        <path fill="gray" d="m513.4 573.7 17.1-8-18.5-.8z"/>
        <path d="M514.1 586.5c-.7.8-1.7 1.2-2.8 1.2h-.1l-182.4-6.5c-1.7-.1-3.2-1.3-3.5-3l-21-117.2c-.2-1.1.1-2.2.8-3.1.7-.8 1.8-1.3 2.9-1.3l184.6 6c1.8.1 3.2 1.4 3.5 3.1L515 583.5c.2 1.1-.1 2.2-.9 3z"/>
        <path fill="#c9caca" d="m312.4 464.2 19.7 109.7 174.9 6.3L489.3 470z"/>
        <path fill="#fff" d="M387.52 519.178c1.328 7.438 6.778 13.994 13.556 17.23l-13.302-24.825c-.622 2.304-.74 4.872-.254 7.595zm31.134.002c-.413-2.322-1.53-3.952-2.468-5.228-1.222-1.575-2.348-2.917-2.625-4.463-.307-1.73.706-3.294 2.543-3.238.081.005.163.015.244.025-3.873-3.161-8.635-5.168-13.502-5.314-6.531-.196-11.673 2.997-14.1 7.995.44.025.853.049 1.208.058 1.956.061 4.938-.088 4.938-.088.998-.028 1.38 1.462.398 1.551 0 0-.993.089-2.105.117l10.443 20.555 1.887-12.205-4.346-8.111a34.87 34.87 0 0 1-1.99-.239c-1.017-.089-1.175-1.635-.158-1.542 0 0 3.127.332 4.964.389 1.957.06 4.939-.089 4.939-.089.997-.028 1.38 1.463.397 1.552 0 0-.992.088-2.105.117l10.362 20.403.746-6.206c.339-2.584.617-4.43.33-6.038z"/>
        <path fill="#fff" d="m406.83 521.397-2.682 16.21a20.54 20.54 0 0 0 5.416.925c2.177.065 4.195-.25 6.016-.878a2.05 2.05 0 0 1-.178-.263l-8.572-15.994zm14.168-10.172c.188.604.348 1.248.47 1.937.34 1.907.37 4.037-.218 6.687l-2.744 16.418c4.974-3.087 7.63-9.029 6.39-15.96-.584-3.26-1.964-6.362-3.898-9.082z"/>
        <path fill="#fff" d="M402.296 497.844c-12.012-.366-20.029 9.166-17.874 21.24 2.16 12.078 13.69 22.196 25.702 22.561s20.034-9.166 17.874-21.245c-2.16-12.073-13.694-22.195-25.702-22.556zm7.648 42.797c-11.461-.347-22.462-10.003-24.52-21.53-2.057-11.52 5.591-20.615 17.052-20.268s22.462 10.003 24.52 21.524c2.058 11.531-5.591 20.62-17.052 20.274z"/>
        <path d="M471.8 483.9c-.2.3-.5.5-.9.5-.5 0-1.1-.3-1.5-.8-.6-.7-1.1-1.2-1.5-1.6l-.3-.3c-.1-.1-.1-.3 0-.4l.4-.1c.2-.1.3-.2.5-.3.1-.2.2-.4.2-.6l-.1-.7c0-.1.1-.1.1-.1l.6.4s.1.1.2.1c.6.3 2.1 1.6 2.5 2.7.1.6 0 1-.2 1.2z"/>
        <path fill="#fc0" d="M469.3 480.4c-.1 0-.2-.1-.3-.1 0 .3-.1.6-.3.9-.2.2-.4.4-.7.4.6.5 1.2 1.1 1.6 1.7.3.4.8.6 1.2.6.2 0 .5-.1.6-.3.7-.9-1.4-2.9-2.1-3.2z"/>
        <path d="M482.5 492.3c-.3 1.5-1.1 2.9-2.3 4.1-1.2 1.2-2.7 2-4.3 2.4-.4.1-.8.1-1.2.2-1.8 0-3.5-.8-4.6-1.6-.9-.6-1.4-1.4-1.5-1.9-.1-.7.2-1.2.8-1.4h.4c.6 0 1.6.4 2.5 1.5.6.8 1.4 1.2 2.6 1.2h.1c2.3-.1 4.8-1.8 5.7-4.2.3-.8.5-1.7.6-2.4.1-.3.1-.6.2-.8 0-.2.2-.5.5-.6.2 0 .5.1.6.3.3.5.3 1.4-.1 3.2z"/>
        <path fill="#f80" d="M480.9 492.8c-.9 2.4-3.5 4.3-6 4.4h-.1c-1.2 0-2.3-.5-2.9-1.4-.7-.9-1.5-1.3-2-1.3h-.3c-.4.1-.6.4-.5 1 .1.4.5 1 1.3 1.6 1.1.8 2.7 1.5 4.3 1.5.4 0 .8 0 1.1-.1 3.2-.8 5.8-3.4 6.3-6.3.2-.9.5-2.9-.2-2.9-.2 0-.3 1.8-1 3.5z"/>
        <path d="M484.4 485.4c.1 1.4 0 2.6-.2 3.7-.3 1.2-.9 2.1-1.6 2.7-1.8 1.4-3.5 1.5-4.2 1.5h-.2c-1.1 0-1.5-.2-2-.4-.4-.2-.7-.3-1.5-.3-2.2-.1-4-.6-5-1.4h-.1c-.3-.2-1.2-.8-1.7-1.4-.4-.6-.6-1.3-.4-1.8.5-1.8 1.1-2.4 1.5-2.8.2-.2.3-.3.4-.5.1-.2.2-.4.2-.7.1-.9-.1-2-.3-3.3-.1-.3-.1-.7-.2-1-.2-1.1.2-2.4 1-3.5.9-1.2 2.1-2 3.5-2.1 1.1-.1 2-.2 2.6-.2 2.5 0 3.5.8 5.2 2.8.5.6.9 1.3 1.2 2 1 1.7 1.6 4.4 1.8 6.7z"/>
        <path fill="#fc0" d="M468 488.1c-.1.4 0 1 .3 1.5.4.6 1.5 1.3 1.6 1.3 1 .7 2.7 1.2 4.7 1.3 1.8.1 1.5.7 3.4.8h.2c1 0 2.5-.3 4-1.5 3-2.3 1.6-9.6 0-12.7-.3-.6-.7-1.3-1.2-1.9-1.7-1.9-2.5-2.6-4.8-2.6-.7 0-1.5.1-2.6.2-2.8.3-4.4 3.2-4.2 5.2.3 1.6.6 3.2.5 4.4 0 .4-.1.7-.2.9-.2.7-1 .6-1.7 3.1z"/>
        <ellipse cx="474" cy="485.3" rx="7.2" ry="8.3" transform="rotate(-45.645 474.01 485.34)"/>
        <ellipse cx="474" cy="485.3" fill="#005683" rx="6.8" ry="7.9" transform="rotate(-45.645 474.01 485.34)"/>
        <path fill="#00709c" fill-rule="evenodd" d="M466.7 482.1c-.5 2.1-.4 3.4.3 5.3s3.4 3.7 6.2 3.2 4.6-2.7 4.1-5.8-2.8-5.4-5.1-5.8c-2.7-.4-4.9 1.1-5.5 3.1z" clip-rule="evenodd"/>
        <path fill="#fff" d="M467.5 481.6c-.1.1-.2.3-.2.4-.2.4-.4.8-.5 1.3-.2.9-.2 1.9.2 2.9.3 1 .9 1.9 1.9 2.6 1.8 1.4 3.6 1.3 4.8.4 0 0 .8-.7.9-1 .2-.4.6-.9.7-1.2.3-.8.4-1.8.2-2.8-.1-.4-.2-.7-.3-1-.1-.3-.3-.6-.4-.9-.2-.3-.4-.6-.6-.8l-.1-.1-.5-.5c-.5-.5-1.6-.9-1.6-.9s-.5-.1-.7-.2c-.3-.1-.8 0-.8 0-.6.1-1.1.2-1.5.4-.5.2-1.3 1-1.5 1.4zm1.4-1.1c.5-.3 1-.4 1.6-.4.8.1 1 .2 1.4.3.2.1.5.2.8.4-.2.1-.4.2-.5.3-.2.2-.2.7.4 1.5.4.4.6.8.7 1.3.1.5.1 1-.1 1.7 0 .4 0 .6-.1.8 0 .2 0 .5-.1.8-.5-.9-1-1.7-1.4-2.5-.4-.8-.8-1.7-1.2-2.6.2 0 .4-.1.5-.1s.2-.1 0-.3c0 0-.6 0-1.1.1-.5.1-1.1.1-1.1.1-.1 0-.1.1-.1.1v.1c0 .1 0 .1.1.1h.4l.3.9c.1.3.3.6.5 1.1 0 .5-.1.9-.1 1.5 0 .5 0 1.2.1 1.9-.6-1-1.1-1.8-1.5-2.7-.4-.8-.6-1.6-.8-2.5.1 0 .1-.1.2-.1s.2 0 .2-.1c0 0 .1-.1.1-.2s0-.1-.1-.1c-.2 0-.4 0-.5.1-.2.1-.3.2-.5.2.1-.3.3-.6.4-.8.6-.1 1.2-.7 1.5-.9zm-1.5 6c-.5-1.1-.6-2.3-.3-3.4.2 1 .5 2 1 2.9s1.2 1.9 2.1 3.1c-1.4-.6-2.3-1.5-2.8-2.6zm4.2 2.8c-.3 0-.6 0-.9-.1-.1-.5-.2-1-.3-1.7s-.1-1.5 0-2.6c1.2 2.3 2.5 4 2.5 4-.2.1-.6.4-1.3.4zm3.2-2.5c-.2.5-1.2 1.8-1.2 1.6v-.9c.2-1.4.4-2.7.5-4.2 0-.3 0-.9-.2-1.5 1.1 1.5 1.6 3.4.9 5z"/>
        <path d="M468.8 481.1c-.3.3-.6.5-1 .5-.5 0-.9-.3-1-.8-.1-.3 0-.7.2-1 .3-.4.8-.7 1.1-.7h.2c.3.1.5.4.6.7.2.5.2 1-.1 1.3z"/>
        <path fill="#fc0" d="M468.4 480.8c.2-.2.3-.6.2-.9-.1-.2-.2-.3-.3-.4h-.1c-.2 0-.6.2-.8.6-.1.1-.2.4-.1.6.1.3.4.4.5.4.2.1.4 0 .6-.3z"/>
        <path d="M470.1 492.3c-.1.2-.3.3-.6.3h-.4c-1.5-.3-3.8-2.5-4.2-3.7-.2-.5-.2-1 .1-1.4.2-.3.6-.5 1-.5s.8.1 1.2.4c.8.5 2.3 2.9 2.7 3.5.2.3.4 1 .2 1.4z"/>
        <path fill="#fc0" d="M465.3 488.7c.4 1.1 2.6 3.1 3.9 3.4h.3c.2 0 .3-.1.3-.1.1-.2 0-.7-.2-1-.5-.8-1.9-2.9-2.5-3.4-.3-.2-.6-.3-.9-.3-.3 0-.6.1-.7.4-.4.2-.4.6-.2 1z"/>
        <path d="M469.6 477.8c0 .3-.1.5-.5.8-.2.2-.5.3-.7.4-.4.1-.7.2-1 .2-.4 0-.6-.1-.8-.2-.3-.2-.3-.4-.3-.5 0-.2.1-.3.3-.4.2 0 .7-.3 1.3-.7.2-.2.6-.3.9-.3.3 0 .5.1.7.2 0 .1.1.3.1.5z"/>
        <path fill="#f80" d="M466.7 478.5c.1.1.3.2.6.2.2 0 .5 0 .9-.1.3-.1 1-.5 1-.8 0-.1 0-.1-.1-.2s-.2-.1-.3-.1c-.2 0-.5.1-.7.2-.4.3-1.1.7-1.4.8z"/>
        <path d="M474.9 473.6h.3c1.2 0 2.3.4 3.4 1 .7.4 1.1.7 1.7 1.5.1.1.5 0 .4-.1-.7-1-1.2-1.3-2-1.8-1.1-.7-2.3-1-3.6-1h-.6c-1.4 0-2.7.4-3.8 1-1.1.6-1.9 1.5-2.4 2.6-.3.7-.4 1.4-.1 2 .2.5.6.7.8.8.1 0 .2.1.3.1.5 0 1.9-.6 2.4-1.5.5.3 1.1.4 1.7.4.7 0 1.4-.2 2-.4.2-.1.2-.1.2-.2s-.1-.2-.3-.2h-.1c-.6.2-1.3.4-2 .4-.5 0-1.1-.1-1.6-.4h-.1c-.1 0-.1 0-.2.1-.3.8-1.7 1.4-2.2 1.4h-.1c-.2-.1-.4-.3-.6-.6-.2-.4-.1-1 .1-1.6 1-2.1 3.2-3.3 5.9-3.4.3-.1.4-.1.5-.1"/>
        <path fill="#fc0" d="M475.5 477.8h-.2c-1.1.4-2.3.7-3.6 0-.1-.1-.2 0-.3.1-.4.9-2 1.5-2.3 1.4-.2-.1-.4-.3-.6-.6-.2-.4-.1-1 .1-1.6 1-2.1 3.2-3.3 5.9-3.4h.5c1.2 0 2.3.4 3.4 1 .8.5 1.2.7 2.1 1.9.5.5-4.5 1.3-5 1.2z"/>
        <path d="M473.4 478.6c-.3.2-.7.4-.9.7-.6.6-.6 1.1-.4 1.4.2.4.8.8 1.4.8.4 0 .9-.1 1.5-.2.8-.2 1.7-.4 2.4-.2 1.2.2 2.1.9 3.4 1.9l.7.5c.1.1.2.1.3 0 .1-.1 0-.2-.1-.3l-.2-.2c-1.6-1.3-2.6-2.1-4-2.4-.9-.2-1.8 0-2.6.2-.5.1-1 .2-1.4.2-.5 0-.9-.3-1-.5-.1-.3 0-.6.4-1 1-1.1 3.2-1.4 4.9-.8.3.1.4-.3.1-.4-.7-.3-1.5-.4-2.2-.4-.6.2-1.8.4-2.3.7z"/>
        <path fill="#fc0" d="M481.7 480.7c.8.7 1.5 3.5 0 2.4l-.2-.2c-1.6-1.3-2.6-2.1-4-2.4-.9-.2-1.8 0-2.6.2-.5.1-1 .2-1.4.2-.5 0-.9-.3-1-.5-.1-.3 0-.6.4-1 1-1.1 3.2-1.4 4.9-.8.3.3 2.8 1.1 3.9 2.1z"/>
        <path d="M485.8 475.2c0 .1 0 .2-.1.3-.2.6-.8 1.3-1.9 1.7-.2.1-.5.1-.8.1-.8 0-2-.3-3.8-1.6-.1-.1-.3-.3-.5-.4-.2-.1-.2-.4-.2-.5 0-.2.2-.3.4-.3.8 0 1.7.1 2.8.1h3.5c.2 0 .3.1.5.2.1.1.2.3.1.4z"/>
        <path fill="#f80" d="M479.5 475.4c1.7 1.3 2.8 1.5 3.5 1.5.2 0 .5 0 .7-.1 1-.3 1.5-1 1.7-1.5 0-.1 0-.2.1-.2 0-.1-.1-.2-.1-.2h-3.5c-.8 0-1.8 0-2.8-.1-.1 0-.1.1 0 .1.1.3.3.4.4.5z"/>
        <path d="M469.6 476.4c-.2 0-.4.2-.4.4.1.6.9.6.9 0 0-.2-.2-.4-.5-.4zm4.8-1.2c-.2 0-.4.2-.4.4.1.6.9.6.9 0-.1-.2-.3-.4-.5-.4zm-2.5 1.2c-.4 0-.7.1-.9.3-.3.3-.1.6.2.6.4 0 .4.1.7-.2.5-.3.5-.8 0-.7z"/>
        <path fill="#fc0" d="M477.6 492.7c-.3-.3-.4-.9-.4-1.7 0-1.2 0-2 1-3 1.2-1.1 3.5-.9 4.4-.1.2.2.5.6.6 1.1.2.7-.9 2.5-2.1 3-1.3.6-3 1.2-3.5.7z"/>
        <path d="M477.6 492.9c-.1 0-.1 0-.2-.1-.3-.4-.4-1-.4-1.9 0-1.1 0-2.1 1.1-3.1 1.4-1.3 3.6-.8 4.5 0 .1.1.1.2 0 .3-.1.1-.2.1-.3 0-.8-.7-2.8-1.1-4 0-1 .9-1 1.6-1 2.8 0 .6.1 1.3.3 1.6.1.1.1.2 0 .3.1.1 0 .1 0 .1z"/>
        <path d="M478.2 492.4c0 .1 0 .5-.2.9-.3.6-.9 1-1.6 1-.4 0-.8-.1-1-.4-.5-.5-.6-1.2-.7-2 0-.4-.1-.8-.2-1.1-.1-.3-.2-.5-.3-.8-.2-.6-.4-1.2-.5-1.7-.1-.6.1-1.1.5-1.4.2-.1.4-.2.6-.2.5 0 1.1.4 1.8 1.1.5.5.9 1.2 1.1 1.6.6 1.4.6 2.1.5 3z"/>
        <path fill="#fc0" d="M475.6 493.6c.1.1.3.2.6.2 1.3 0 1.4-1.4 1.4-1.4.1-.8.1-1.5-.4-2.6-.3-.8-1.6-2.3-2.3-2.3-.1 0-.2 0-.3.1-.6.5-.3 1.3.1 2.5l.3.9c.1.4.2.8.2 1.2.1.4.1 1.1.4 1.4z"/>
    </g>
</svg>
