<svg xmlns="http://www.w3.org/2000/svg" xml:space="preserve" width="60" height="90"><g fill="none" fill-rule="evenodd" style="display:inline"><path d="M.176 27.266h24.876s.026 13.518.067 16.241c-2.248-3.447-3.598-3.116-4.312-3.02-.592.161-2.41 1.134-2.72 3.39 0 0-11.368.013-14.291.02-.557-.69-.706-1.411-1.41-1.858-.704-.448-1.432-.634-2.056-.633-.02-1.36-.05-5.828-.05-5.828l-.052-4.156z" style="display:inline;opacity:1;fill:#c9caca;stroke:#010101;stroke-width:.973458;stroke-linecap:round;stroke-linejoin:round;stroke-dasharray:none;stroke-opacity:1;paint-order:fill markers stroke;stop-color:#000" transform="matrix(1.057 .035 .17 1.004 -3.004 15.139)"/><path d="M26.322 40.288c2.922-.008 3.917 0 6.875-.006 0 0-.003.014-6.884 3.692-.212-1.888.018-.024-.435-3.685z" style="display:inline;opacity:1;fill:#c9caca;stroke:#000;stroke-width:.973458;stroke-linecap:round;stroke-linejoin:round;stroke-dasharray:none;stroke-opacity:1;paint-order:fill markers stroke;stop-color:#000" transform="matrix(1.057 .034 -.006 .998 3.306 15.33)"/><path d="M26.644 41.254c1.042 0 1.397.003 2.452.003 0 0-.001.005-2.459 1.24-.074-.638.007-.01-.151-1.244z" style="display:inline;fill:gray;stroke:#717171;stroke-width:0;stroke-linecap:round;stroke-linejoin:round;stroke-dasharray:none;stroke-opacity:1;paint-order:fill markers stroke;stop-color:#000" transform="matrix(1.057 .034 -.006 .998 3.306 15.33)"/><g style="display:inline"><path fill="#ffd200" d="M48.374 14.963a24.018 24.018 0 0 0-2.174-4.588c-1.273-.62-2.705-1.534-4.283-2.879l-.127-.108c-1.745-1.453-1.505-2.117-1.426-2.335a.82.82 0 0 1 .33-.414c-2.365-1.514-5.08-2.361-8.047-2.45-7.372-.224-13.832 2.911-17.285 8.385-.944 1.497-1.27 2.858-.943 3.936.239.784.786 1.268 1.183 1.444 1.203.858.449.663.293 2.426-2.457-2.342-3.514-2.258-5.012-1.139-2.059 1.864-1.576 2.603.032 4.354 1.59 1.732 3.643 3.962 4.943 5.755 0 0-3.194 4.588-7.284 10.239-9.302-6.156-6.07 4.771-5.079 5.088 2.432 2.908 4.637 5.66 8.838 5.46.45-.73.459-1.36.52-2.762 4.567 3.25 6.455 2.714 12.288 3.206.435 3.426 1.47 4.159 4.672 3.707 2.5-3.244 4.043.672 13.913-5.55 8.334-5.736 7.36-24.114 4.648-31.775" style="display:inline;fill:#fc0;fill-opacity:1" transform="matrix(.057 .002 .01 .055 23.813 44.276)"/><path fill="#f80" d="M42.852 48.065a21.488 21.488 0 0 1-3.109 1.538c-3.284 6.007-10.42 10.622-16.61 10.74-3.198.052-5.676-1.153-7.022-3.415-1.51-2.538-3.816-3.475-5.316-3.089-1.006.26-1.582 1.097-1.623 2.36-.036 1.11.944 2.588 2.62 3.957 3.012 2.462 8.182 4.442 12.938 3.315 8.222-1.946 15.606-8.297 18.122-15.406m6.039-42.397c-2.12 0-5.157-.017-7.04-.17a2.658 2.658 0 0 0-.403-.005c.139.227.48.624 1.023 1.077l.137.116c3.7 3.152 6.485 3.815 8.17 3.815h.374c.601 0 .81-.083 1.358-.248 2.6-.779 4.196-2.389 4.823-3.635.234-.466.281-.772.281-.916-.353-.036-1.273-.054-2.74-.054-.781 0-1.67.004-2.615.01-1.074.005-2.222.01-3.368.01m-39.19 8.454c-.05.011-.064.028-.065.028.005-.002.037.058.155.137.215.146 1.095.556 3.478-.08-.074-.552-.046-1.241.194-2.06-1.392.968-2.962 1.798-3.761 1.975" style="display:inline;fill:#f80;fill-opacity:1" transform="matrix(.057 .002 .01 .055 23.813 44.276)"/></g><g style="display:inline"><path fill="#000" d="M11.304 21.888c-1.16 0-2.02-.735-2.241-1.919-.145-.77.13-1.622.772-2.396.835-1.005 2.152-1.734 3.133-1.734.22 0 .424.036.603.107.652.261 1.14.895 1.305 1.697.221 1.075-.156 2.226-1.008 3.077-.742.742-1.677 1.168-2.564 1.168zm1.664-4.985c-.573 0-1.62.516-2.313 1.35-.253.305-.66.907-.545 1.52.163.868.74 1.05 1.194 1.05.598 0 1.275-.32 1.811-.855.598-.598.867-1.387.718-2.111-.092-.45-.338-.795-.657-.922a.576.576 0 0 0-.208-.032z" style="display:inline" transform="matrix(.057 .002 .01 .055 23.813 44.276)"/><path fill="#000" d="M15.169 16.927c1.312.582 5.576-1.107 7.256-3.439 1.3.69 2.654.954 4.024.951-.95.433-1.816.965-2.54 1.602-1.74 1.53-1.808 2.783-1.56 3.564.354 1.11 1.593 1.932 3.157 2.097 1.019.107 2.327-.184 3.842-.52 2-.443 4.266-.946 6.166-.553 2.824.584 4.789 2.153 7.638 4.706l1.48 1.33a.53.53 0 0 0 .734-.05.532.532 0 0 0-.038-.751l-.421-.38c-3.455-3.123-5.737-5.185-9.177-5.897-2.123-.44-4.508.09-6.612.557-1.365.303-2.653.588-3.5.5-1.126-.119-2.032-.666-2.254-1.361-.216-.677.228-1.544 1.249-2.442 2.976-2.618 8.505-3.407 12.589-1.797a.532.532 0 1 0 .39-.99c-1.659-.654-3.542-.94-5.418-.891a.53.53 0 0 0-.62-.777c-2.839.908-6.113 1.727-9.026-.064a.534.534 0 0 0-.746.196c-1.24 2.255-5.51 3.736-6.18 3.437-.397-.176-.944-.66-1.183-1.445-.327-1.077-.001-2.438.943-3.935 3.453-5.474 9.914-8.61 17.285-8.386 2.966.09 5.682.937 8.047 2.45a.82.82 0 0 0-.33.414c-.079.219-.32.882 1.426 2.335l.127.109c1.578 1.344 3.01 2.259 4.283 2.879a24.013 24.013 0 0 1 2.174 4.588c2.712 7.66 3.446 25.701-4.89 31.437-4.401 3.03-8.538 3.544-10.881 3.537.196-.46.328-.902.396-1.273.69-2.198.905-4.094-.007-7.22a6.005 6.005 0 0 0-.162-.486c1.74-3.456 4.812-4.263 6.497-4.433 2.315-.233 4.657.46 5.577 1.65a.532.532 0 0 0 .843-.651c-.33-.427-.791-.8-1.34-1.11l-.98-.453c-1.226-.454-2.715-.648-4.207-.496-2.946.298-5.423 1.844-6.93 4.283-1.108-2.162-3.253-5.007-5.614-5.007-.575 0-1.123.17-1.626.506-2.627 1.75-1.881 4.862-1.224 7.608.176.736.343 1.431.443 2.08.12.787.089 1.747.058 2.674-.06 1.836-.124 3.735.96 4.855.564.583 1.373.879 2.405.879 2.135 0 3.515-1.111 4.342-2.354.188.007.388.012.606.012 1.374 0 3.31-.172 5.539-.851-3.33 5.173-9.596 9.024-15.067 9.128-1.962.042-4.622-.435-6.086-2.895-1.777-2.988-4.615-4.062-6.497-3.576-1.483.382-2.365 1.606-2.422 3.357-.047 1.46 1.05 3.214 3.01 4.815 2.576 2.105 6.638 3.877 10.78 3.877 1.028 0 2.061-.11 3.078-.35 9.033-2.138 17.102-9.414 19.274-17.346 4.885-3.488 6.44-10.422 6.88-15.656.562-6.671-.475-13.294-1.75-16.898a26.132 26.132 0 0 0-1.573-3.569c1.186.398 2.186.527 2.972.527a7.1 7.1 0 0 0 2.038-.292c4.155-1.246 5.893-4.316 5.863-5.607-.011-.51-.266-.875-.68-.978-.257-.064-.87-.104-3.126-.104-.782 0-1.672.004-2.62.009-1.072.005-2.218.011-3.362.011-1.96 0-4.71-.015-6.567-.138-2.753-2.072-6.022-3.233-9.645-3.342-7.725-.237-14.514 3.064-18.18 8.823-1.41 1.39-4.119 2.933-5.029 3.136-.421.093-.739.376-.851.755-.113.385.009.805.324 1.125.29.292.892.656 2.096.656.648 0 1.473-.108 2.515-.386.391.886 1.065 1.45 1.615 1.694m-1.901-2.72c-2.382.636-3.262.226-3.478.08-.118-.08-.15-.14-.154-.137 0 0 .015-.017.065-.028.8-.178 2.37-1.007 3.761-1.975-.24.818-.267 1.507-.194 2.06zM31.63 48.28a.66.66 0 0 0-.022.092c-.026.145-.67 3.552-3.916 3.552-.642 0-1.095-.146-1.386-.447-.664-.687-.611-2.28-.56-3.82.033-.993.067-2.02-.074-2.938-.11-.706-.29-1.463-.465-2.194-.708-2.957-1.047-4.979.63-6.097.27-.18.545-.267.839-.267 1.915 0 4.422 3.774 4.95 5.671.823 2.824.637 4.445.004 6.448zm-6.901 15.19c-4.756 1.127-9.926-.853-12.94-3.315-1.675-1.369-2.654-2.848-2.618-3.956.04-1.264.617-2.102 1.622-2.36 1.5-.387 3.807.55 5.317 3.088 1.346 2.262 3.823 3.467 7.02 3.415 6.192-.117 13.327-4.733 16.612-10.74 1-.396 2.044-.902 3.108-1.538-2.515 7.108-9.9 13.46-18.122 15.406zM57.332 6.618c-.627 1.247-2.223 2.857-4.822 3.636a6.023 6.023 0 0 1-1.732.248c-1.685 0-4.47-.663-8.17-3.816l-.137-.116c-.544-.453-.884-.85-1.023-1.077.093-.007.238-.007.402.006 1.884.152 4.92.17 7.04.17 1.146 0 2.294-.006 3.369-.01.945-.006 1.833-.01 2.614-.01 1.468 0 2.387.018 2.74.054 0 .144-.047.45-.28.915z" style="display:inline;fill:#000;fill-opacity:1" transform="matrix(.057 .002 .01 .055 23.813 44.276)"/><path fill="#000" d="M21.302 9.699c-.847.635-.591 1.42.355 1.538.947.118 1.02.18 1.894-.474.946-.71 1.065-1.892 0-1.774-1.065.119-1.775.355-2.25.71m-2.484.473a1.065 1.065 0 1 1-2.13 0 1.065 1.065 0 0 1 2.13 0m12.308-2.957a1.065 1.065 0 1 1-2.13 0 1.065 1.065 0 0 1 2.13 0M11.307 49.01a3.89 3.89 0 0 1-.898-.116c-3.602-.865-8.532-6.27-9.155-9.281-.279-1.347-.023-2.592.72-3.504.658-.806 1.651-1.269 2.726-1.269.968 0 1.951.363 2.844 1.05 1.754 1.348 4.728 7.258 5.37 8.724.267.61.797 2.44.055 3.576-.245.374-.732.82-1.662.82zM4.7 35.905c-.764 0-1.439.311-1.899.876-.538.66-.717 1.589-.504 2.616.543 2.621 5.203 7.704 8.36 8.461.241.058.46.088.65.088.492 0 .675-.193.77-.338.385-.589.167-1.869-.138-2.567-.875-1.996-3.644-7.23-5.044-8.307-.705-.543-1.464-.829-2.195-.829z" style="display:inline" transform="matrix(.057 .002 .01 .055 23.813 44.276)"/><path d="m16.482 16.848-1 .007c.034 4.039.332 8.068-.359 10.733l-.002.012-.002.011c-.178.846-.419 1.374-.713 1.791-1.08 1.532-3.43 1.806-6.16 8.327l.924.386c2.657-6.345 4.66-6.16 6.055-8.136.377-.536.67-1.216.869-2.15.764-2.959.422-6.995.388-10.981z" style="color:#000;opacity:.97;fill:#000;-inkscape-stroke:none" transform="matrix(.057 .002 .01 .055 23.813 44.276)"/><path d="M24.762 48.557c-5.524-.158-10.082-1.358-12.379-3.563" style="display:inline;opacity:.97;mix-blend-mode:normal;fill:none;stroke:#000;stroke-width:1px;stroke-linecap:butt;stroke-linejoin:miter;stroke-opacity:1" transform="matrix(.057 .002 .01 .055 23.813 44.276)"/><path d="m11.158 20.955-.629.777c1.8 1.456 3.969 4.479 4.8 6.026l.88-.473c-.91-1.696-3.042-4.704-5.05-6.33Z" style="color:#000;opacity:.97;fill:#000;-inkscape-stroke:none" transform="matrix(.057 .002 .01 .055 23.813 44.276)"/><path d="M15.96 18.51c-1.112-.37-1.43-1.31-2.08-1.647" style="display:inline;opacity:.97;mix-blend-mode:normal;fill:none;stroke:#000;stroke-width:1px;stroke-linecap:butt;stroke-linejoin:miter;stroke-opacity:1" transform="matrix(.057 .002 .01 .055 23.813 44.276)"/></g><g style="display:inline"><path fill="#005683" d="M43.279 24.832c-2.85-2.554-4.714-4.005-7.539-4.589-1.899-.392-4.392-.003-6.392.44-1.515.337-2.778.628-3.796.52-1.564-.165-2.373-.625-2.727-1.734-.248-.781-.184-1.607 1.556-3.138.723-.637 3.114-1.967 4.064-2.4-3.04.22-4.816-.134-6.116-.824-2.152 2.15-5.644 3.95-6.956 3.367-.292-.13-.81-.178-1.111-.488-.029.022-.35.25-.38.273.347.324.431.921.54 1.452.221 1.075-.133 1.886-.985 2.737-.742.742-1.246.941-2.134.941-.62 0-1.195-.397-1.592-.774-2.69 4.49-2.977 7.008-3.115 10.124-.074 1.674.289 4.058.7 5.604 1.762 1.618 4.316 6.658 4.949 8.104.034.08.594.922.671.982 3.02 2.79 7.682 4.667 12.033 5.003-.054-.72-.127-2.047-.101-2.804.03-.927.08-1.905-.04-2.692-.1-.649-.322-1.381-.499-2.118-.605-2.822-1.253-5.566.975-7.149.503-.335.794-.45 1.37-.45 2.36 0 4.469 3.44 5.62 5.498 1.508-2.44 3.97-4.462 6.916-4.76 1.492-.152 2.966-.033 4.193.421.433-1.573.7-3.62.7-5.27 0-1.976-.316-4.621-.934-6.477" style="display:inline;stroke:#000;stroke-width:1;stroke-dasharray:none;stroke-opacity:1" transform="matrix(.057 .002 .01 .055 23.803 44.275)"/><path fill="#00709c" d="M30.929 20.846a65.14 65.14 0 0 0-1.58.336c-1.516.337-2.825.628-3.843.52-1.564-.165-2.803-.987-3.157-2.097-.248-.78-.18-2.033 1.56-3.564.025-.022.053-.041.079-.063-1.12-.366-2.3-.599-3.522-.681-1.93 1.303-4.362 2.045-5.297 1.63a3.038 3.038 0 0 1-.917-.66 3.923 3.923 0 0 1-.084.068c.346.324.598.778.707 1.308.221 1.075-.155 2.226-1.008 3.078-.742.742-1.676 1.167-2.564 1.167-.62 0-1.15-.216-1.548-.593a18.683 18.683 0 0 0-2.773 9.812c0 1.675.22 3.297.632 4.842 1.182.97 2.877 3.884 4.057 6.138a14.476 14.476 0 0 0 7.797 2.268c1.586 0 3.11-.257 4.54-.726-.058-.253-.119-.51-.182-.773-.657-2.746-1.403-5.857 1.224-7.608a2.892 2.892 0 0 1 1.627-.506c1.815 0 3.5 1.683 4.687 3.443a14.472 14.472 0 0 0 2.66-8.378 14.47 14.47 0 0 0-3.095-8.961" style="display:inline" transform="matrix(.057 .002 .01 .055 23.803 44.275)"/><path fill="#fff" d="M18.215 40.973a7.914 7.914 0 0 1-2.264-.16c-.12-1.205-.22-2.559-.137-4.267.082-1.709.347-3.772.954-6.393 2.205 5.708 4.633 9.893 4.65 9.916-.412.197-1.668.796-3.203.904m-3.698-.608c-3.155-1.433-5.022-3.847-5.835-6.557-.814-2.71-.574-5.716.485-8.33.04 2.587.423 4.89 1.273 7.255.85 2.365 2.167 4.793 4.077 7.632m8.61-1.305c.08-.497.1-.978.234-1.442.197-.676.408-1.043.408-1.043.955-3.418 2.143-6.759 2.931-10.236.189-.835.353-2.133.058-3.582 2.111 3.296 2.519 7.912.199 11.996 0 0 .418.061.633.126.215.064.648.265.648.265 1.119-2.1 1.741-4.462 1.649-6.776a12.627 12.627 0 0 0-.344-2.482 11.806 11.806 0 0 0-.778-2.218c-.325-.693-.843-1.506-1.278-2.098l-.94.134c-1.144.03-2.378.013-3.568-1.107-.274.175.065-.104-.239.173-.608.552-.867 1.615.51 3.652.746 1.101 1.142 2.093 1.204 3.26.063 1.165-.208 2.505-.797 4.302-.213.885-.351 1.462-.484 2.045s-.26 1.173-.45 2.085c-.91-2.173-1.735-4.184-2.48-6.243a64.432 64.432 0 0 1-1.995-6.53c.515-.076 1.065-.157 1.41-.301.346-.145.488-.353.188-.685-.038-.042-1.414.072-2.787.197a254.93 254.93 0 0 0-2.77.267.559.559 0 0 0-.401.308c-.07.132-.089.256-.09.258-.02.193-.014.29.145.328.16.038.47.02 1.059-.016.155.835.268 1.443.438 2.147.17.704.397 1.504.78 2.723-.277 1.15-.558 2.32-.78 3.663a32.536 32.536 0 0 0-.425 4.7c-1.237-2.46-2.103-4.546-2.683-6.55-.58-2.003-.875-3.926-.97-6.062.176-.107.38-.14.58-.185.2-.045.395-.104.55-.262a.816.816 0 0 0 .204-.442c.02-.156-.02-.293-.153-.32-.467-.102-.88.014-1.28.176-.4.162-.789.38-1.209.468v-.01c.413-.651 1.378-1.858 1.378-1.858a2.372 2.372 0 0 1-.695-.058c-.18.236-.48.626-.648.875a14.94 14.94 0 0 0-1.632 3.213c-.828 2.27-1.104 4.749-.656 7.12.448 2.37 1.62 4.635 3.69 6.479 3.95 3.52 8.34 3.24 11.84 1.023 0 0-.079-.539-.1-.8-.02-.26-.027-.76-.027-.76-.049.037-.028.047-.078.084m-4.38-21.745a11.12 11.12 0 0 0-3.811 1.01c.002.339-.056.571-.142.867 1.35-.726 2.7-.975 4.148-1.012 2.031.14 3.3.781 3.3.781-.013-.653.244-1.117.244-1.117s-1.1-.344-1.753-.454c-.652-.11-1.294-.104-1.944-.073" style="display:inline" transform="matrix(.057 .002 .01 .055 23.803 44.275)"/></g><g fill="#464342" style="display:inline;fill:#fff;fill-opacity:1"><path d="M8.708 61.26c0 20.802 12.089 38.779 29.619 47.298L13.258 39.872a52.354 52.354 0 0 0-4.55 21.388zm88.032-2.652c0-6.495-2.333-10.993-4.334-14.494-2.664-4.329-5.161-7.995-5.161-12.324 0-4.831 3.664-9.328 8.825-9.328.233 0 .454.029.681.042-9.35-8.566-21.807-13.796-35.489-13.796-18.36 0-34.513 9.42-43.91 23.688 1.233.037 2.395.063 3.382.063 5.497 0 14.006-.667 14.006-.667 2.833-.167 3.167 3.994.337 4.329 0 0-2.847.335-6.015.501L48.2 93.547l11.501-34.493-8.188-22.434c-2.83-.166-5.511-.501-5.511-.501-2.832-.166-2.5-4.496.332-4.329 0 0 8.679.667 13.843.667 5.496 0 14.006-.667 14.006-.667 2.835-.167 3.168 3.994.337 4.329 0 0-2.853.335-6.015.501l18.992 56.494 5.242-17.517c2.272-7.269 4.001-12.49 4.001-16.989z" style="fill:#fff;fill-opacity:1" transform="matrix(.05 .002 .01 .05 12.176 47.774)"/><path d="m62.184 65.857-15.768 45.819a52.552 52.552 0 0 0 14.846 2.141c6.12 0 11.989-1.058 17.452-2.979a4.615 4.615 0 0 1-.374-.724zm45.192-29.811c.226 1.674.354 3.471.354 5.404 0 5.333-.996 11.328-3.996 18.824l-16.053 46.413c15.624-9.111 26.133-26.038 26.133-45.426.001-9.137-2.333-17.729-6.438-25.215z" style="fill:#fff;fill-opacity:1" transform="matrix(.05 .002 .01 .05 12.176 47.774)"/><path d="M61.262 0C27.483 0 0 27.481 0 61.26c0 33.783 27.483 61.263 61.262 61.263 33.778 0 61.265-27.48 61.265-61.263C122.526 27.481 95.04 0 61.262 0Zm0 119.715c-32.23 0-58.453-26.223-58.453-58.455 0-32.23 26.222-58.451 58.453-58.451 32.229 0 58.45 26.221 58.45 58.451 0 32.232-26.221 58.455-58.45 58.455z" style="fill:#fff;fill-opacity:1" transform="matrix(.05 .002 .01 .05 12.176 47.774)"/></g></g></svg>