<svg version="1.2" xmlns="http://www.w3.org/2000/svg" viewBox="0 0 1e3 1e3">
	<g class="Coat--group">
		<defs>
			<linearGradient id="g1" x1="459.3" y1="475.3" x2="476.1" y2="516.8" gradientUnits="userSpaceOnUse">
				<stop offset="0" stop-color="#ffe27d"/>
				<stop offset=".5" stop-color="#64e3ff"/>
				<stop offset="1" stop-color="#9192ff"/>
			</linearGradient>
		</defs>
		<path id="Layer" fill="#170f1e" d="m436.6 504c-4.5 5.1-10.5 7.9-17 7.9-9.1 0-18.5-5.5-24.4-14.4-7.8-11.6-15.5-21.2-22.3-27.9l-4.8-4.7c-2-2-1.1-5.3 1.6-6.1l6.5-1.7c3.2-0.9 6.4-2.7 9.1-5.5 3-3 4.8-6.7 5.2-10.4v-11.2c0-1.3 1.5-2.1 2.5-1.3l9.3 6.9c0.7 0.5 1.7 1.1 2.9 1.7 10.2 4.9 31.7 27.4 35.7 46.7 2.1 10.1-1.2 16.5-4.3 20z"/>
		<path id="Layer" fill="#241c2a" d="m402.1 444.1q-2.3-1-4.2-2.4c-0.5 5.5-3 11-7.3 15.3-3.7 3.7-8.1 6.2-12.5 7.4 8.7 8.6 17 19.8 23.2 29.1 4.5 6.7 11.6 11.1 18.3 11.1 4.1 0 8.1-1.6 11.4-5.4 13-14.8-17.3-49.6-28.9-55.1z"/>
		<path id="Layer" fill="#170f1e" d="m448.9 445.6l-7.4-0.5c-11.1-0.8-21.4-2-30.7-3.1q-1.5-0.2-3-0.3c-0.9 25.8-10.8 49.4-18.2 67-1.8 4.3-4 9.5-5.5 13.8 13.8-4.2 32.9-5.2 48.1-5.2 13.2 0 28 0.7 44 2.2 49.1 4.5 89.4 11.7 119.9 21.3 20 6.3 34.7 13.4 44.1 21.1 10.5-66.5 0.1-120.7-8.4-150.4-11.6 2-32.4 4.3-52.2 4.3-8 0-15.2-0.4-21.5-1.1 0.1 0.3 0.1 0.6 0.2 0.9q0.9 5.3 1.2 12c0.4 13-3.5 21.7-6.8 26.6-0.8 1.2-1.6 2.2-2.5 3.2 23.2 2.9 46.3 9.2 63.9 43.4 0.9 1.8 0.2 4-1.6 5-0.5 0.3-1.1 0.4-1.7 0.4-1.3 0-2.6-0.7-3.3-2-18.3-35.4-41.3-37.8-67.9-40.5-0.2 0-0.4-0.1-0.6-0.1-0.2 0-0.4 0-0.6-0.1-5.1-1.5-7.5-7.8-7.5-8-10.6 0-22.1 2.5-32.5 4.9-10.5 2.3-19.6 4.3-26.7 3.6-10.8-1.2-19.4-6.9-21.9-14.6-0.4-1.1-0.6-2.4-0.7-3.9-0.2-0.1-0.2 0-0.2 0.1z"/>
		<g id="Logo">
			<path id="Layer" fill-rule="evenodd" fill="url(#g1)" d="m494.2 508c-8.6 9.7-23.4 10.7-33.2 2.2-9.7-8.6-10.7-23.4-2.2-33.2 8.6-9.7 23.4-10.7 33.2-2.2 9.7 8.6 10.7 23.4 2.2 33.2zm-36.3-3.7c-0.6-3.3-0.1-7.2 1.6-11.3q-1.5-2-2.5-3.9-0.9-1.7-1.5-3.4c-2 6.2-1.1 13 2.4 18.6zm-1.4-21c0.2 1.5 0.8 3.2 1.8 5.1q0.8 1.5 1.9 3.1 0.8-1.8 1.9-3.6 0.1 0.2 0.2 0.4 0.3 0.5 0.8 0.7-1.1 1.9-2 3.8 1 1.3 2.1 2.6 0 0.2-0.1 0.4l-0.3 1.4q-1.2-1.4-2.3-2.8-0.8 2.2-1.1 4.2c-0.8 4.3 0 7.9 2.2 10.1l2.7-3.1q0 0.6 0.3 1.1 0.1 0.2 0.3 0.4l-2.2 2.5c2.4 1.7 6 2 10.1 0.7q1.9-0.6 3.9-1.7-2.4-1.4-5-3.3l0.3-1.6c2.1 1.6 4.2 2.9 6.2 4.1q0.4-0.3 0.9-0.6l1.9 0.4q0 0 0.1 0-0.7 0.5-1.4 1 1.7 0.8 3.2 1.4c2.1 0.7 3.9 1.1 5.4 1.1q2.6-1.7 4.8-4.1c2-2.3 3.5-5 4.4-7.7q-1.7-0.3-3.6-1c-2.5-1-5.2-2.4-8-4.2l0.3-1.5q2.2 1.4 4.2 2.5c1.7-3 2.7-5.9 3.2-8.7 0.7-4.2 0-7.7-2-9.9l-2.9 3.3c0.1-0.5 0-1.1-0.3-1.5q-0.1-0.1-0.1-0.2l2.2-2.6c-2.4-1.8-6.1-2.1-10.3-0.8-2 0.7-4.1 1.7-6.3 3.1l-1.9-0.4q0 0-0.1 0c4.7-3.4 9.6-5.1 13.8-4.9-5.5-2.6-11.8-2.7-17.4-0.5q0.5 1.6 1.5 3.4 0.5 1 1.2 2-0.4 0.1-0.7 0.3-0.3 0.2-0.5 0.6-0.8-1.2-1.3-2.3-1-1.7-1.5-3.4c-2.6 1.3-5 3.1-7.1 5.4q-2.1 2.5-3.4 5.3zm25.9 28.1q-2-0.8-4.2-2c-3.7 2.2-7.5 3.3-10.9 3.1 6 2.8 12.9 2.7 18.7-0.1q-1.7-0.3-3.6-1zm12.7-30.7c0.8 4.3-0.4 9.7-3.4 15q1.4 0.7 2.7 1.2 1.9 0.7 3.5 1c1.4-5.8 0.5-12-2.8-17.2z"/>
			<path id="Layer" fill="#e5e1e6" d="m465.4 487.7l0.5-2.4v-0.1l2.6 0.5-0.5 2.5-2.3-0.4z"/>
			<path id="Layer" fill="#e5e1e6" d="m468.8 484l-0.3 1.7 2.6 0.5-2 10.1-2.6-0.5-0.2 1-0.3 1.5 2.3 0.5h0.3l-0.1 0.2-0.3 1.5-0.6 3.4 2.5 0.5 1.5-7.6 2.6 0.5 0.5-2.5 5.1 1-1.5 7.6 2.6 0.5 0.5-2.5 2 0.4 0.5 0.1 0.5-2.6 1.1 0.2 1.4 0.3h0.1l0.5-2.5-2.6-0.5-0.5 2.5-2.5-0.5 3.5-17.7-2.6-0.5-0.5 2.6-2.6-0.5-0.5 2.5-2.5-0.5-0.2 0.7-0.3 1.6v0.2l0.3 0.1 2.2 0.4 0.5-2.5 2.6 0.5-0.5 2.5-0.3 1.4-0.2 1.4-0.5 2.3-5.1-1-0.5 2.5-2.6-0.5 2.5-12.7-2.5-0.5-0.2 0.9-0.3 1.7-2.6-0.5z"/>
		</g>
		<path id="Layer" fill="#000000" d="m548 408c0.9 1.5 1.6 3.5 2.2 6q0.3 1.2 0.6 2.7c0.5 3 0.9 6.6 1 10.9 0.3 9.7-2.1 17.2-5.5 22.3-1.7 2.6-3.7 4.6-5.8 5.9-0.2 0.2-0.5 0.2-0.8 0.2q-0.1 0-0.3 0c-2.8-0.5-5.8-0.7-8.7-0.7 0 0 2.4 6.5 7.5 8 0.2 0.1 0.4 0.1 0.6 0.1 0.2 0.1 0.4 0.1 0.6 0.1 26.6 2.7 49.6 5.1 67.9 40.5 0.7 1.3 2 2 3.3 2 0.6 0 1.2-0.1 1.7-0.4 1.8-0.9 2.5-3.2 1.6-5-17.6-34.2-40.7-40.5-63.9-43.4 0.9-1 1.7-2.1 2.5-3.2 3.3-4.9 7.2-13.6 6.8-26.6q-0.1-6.8-1.2-12c-0.1-0.3-0.1-0.6-0.2-0.9 6.3 0.7 13.5 1.1 21.5 1.1 19.8 0 40.6-2.3 52.2-4.3 8.5 29.7 18.9 83.9 8.4 150.4-9.4-7.7-24.1-14.8-44.1-21.1-30.5-9.6-70.8-16.8-119.9-21.3-16-1.5-30.8-2.2-44-2.2-15.2 0-34.3 1-48.1 5.2 1.5-4.3 3.7-9.5 5.5-13.8 7.4-17.6 17.3-41.2 18.2-67q1.5 0.2 3 0.3c9.3 1.1 19.6 2.3 30.7 3.1l7.4 0.5c-0.1-1.7 0-3.5 0.5-5.5 0.3-1-0.4-1.9-1.4-2-17.4-1.1-33.6-3.2-45.9-4.6-0.1 0-0.1 0-0.2 0-0.9 0-1.6 0.7-1.6 1.6 1.3 44.5-28.9 84.7-25.3 97.1 0.2 0.7 0.8 1.1 1.5 1.1 0.3 0 0.6-0.1 0.9-0.2 8.2-5.1 26.3-8.6 54.7-8.6 12.5 0 26.9 0.7 43.3 2.2 104 9.6 155.8 30.3 167 48.4 0.3 0.5 0.8 0.8 1.4 0.8 0.7 0 1.4-0.5 1.6-1.3 13-68 4.6-129.1-8.1-170.5-0.2-0.7-0.8-1.1-1.5-1.1-0.1 0-0.2 0-0.4 0-9 2.1-33.1 5.2-55.9 5.2-10.8 0-21.4-0.7-29.8-2.6-1.7-0.4-3.4 0.8-3.8 1.7-0.2 1.2 2.3 0.9 2.3 0.9z"/>
	</g>
</svg>