<svg version="1.1" id="wapuugotchi_svg__item" viewBox="0 0 1e3 1e3" xmlns="http://www.w3.org/2000/svg">
<g class="RightArm--group">
  <path d="M436.59 504.77c-4.5 5.1-10.5 7.9-17 7.9-9.1 0-18.5-5.5-24.4-14.4-7.8-11.6-15.5-21.2-22.3-27.9l-4.8-4.7c-2-2-1.1-5.3 1.6-6.1l6.5-1.7c3.2-.9 6.4-2.7 9.1-5.5 3-3 4.8-6.7 5.2-10.4v-11.2c0-1.3 1.5-2.1 2.5-1.3l9.3 6.9c.7.5 1.7 1.1 2.9 1.7 10.2 4.9 31.7 27.4 35.7 46.7 2.1 10.1-1.2 16.5-4.3 20z"/>
  <path d="M402.09 444.87q-2.3-1-4.2-2.4c-.5 5.5-3 11-7.3 15.3-3.7 3.7-8.1 6.2-12.5 7.4 8.7 8.6 17 19.8 23.2 29.1 4.5 6.7 11.6 11.1 18.3 11.1 4.1 0 8.1-1.6 11.4-5.4 13-14.8-17.3-49.6-28.9-55.1z" fill="#170f1e"/>
</g>
<g class="Body--group">
  <defs>
    <linearGradient id="g1" x1="459.3" y1="475.3" x2="476.1" y2="516.8" gradientUnits="userSpaceOnUse">
      <stop offset="0" stop-color="#ffe27d"/>
      <stop offset=".5" stop-color="#64e3ff"/>
      <stop offset="1" stop-color="#9192ff"/>
    </linearGradient>
  </defs>
  <path d="M401.886 436.443h-.2c-.9 0-1.6.7-1.6 1.6 1.3 44.5-28.9 84.7-25.3 97.1.2.7.8 1.1 1.5 1.1.3 0 .6-.1.9-.2 8.2-5.1 26.3-8.6 54.7-8.6 12.5 0 26.9.7 43.3 2.2 104 9.6 155.8 30.3 167 48.4.3.5.8.8 1.4.8.7 0 1.4-.5 1.6-1.3 13-68 4.6-129.1-8.1-170.5-.2-.7-.8-1.1-1.5-1.1h-.4c-93.523 41.432-152.27 38.548-233.3 30.5z"/>
  <path d="M410.786 445.143c-1-.134-2-.234-3-.3-.9 25.8-10.8 49.4-18.2 67-1.8 4.3-4 9.5-5.5 13.8 13.8-4.2 32.9-5.2 48.1-5.2 13.2 0 28 .7 44 2.2 49.1 4.5 89.4 11.7 119.9 21.3 20 6.3 34.7 13.4 44.1 21.1 10.5-66.5.1-120.7-8.4-150.4-79.614 34.164-122.39 37.206-221 30.5z" fill="#170f1e" />
  <g id="Logo" transform="translate(15, -2.5)">
    <path id="Layer" fill-rule="evenodd" fill="url(#g1)" d="m494.2 508c-8.6 9.7-23.4 10.7-33.2 2.2-9.7-8.6-10.7-23.4-2.2-33.2 8.6-9.7 23.4-10.7 33.2-2.2 9.7 8.6 10.7 23.4 2.2 33.2zm-36.3-3.7c-0.6-3.3-0.1-7.2 1.6-11.3q-1.5-2-2.5-3.9-0.9-1.7-1.5-3.4c-2 6.2-1.1 13 2.4 18.6zm-1.4-21c0.2 1.5 0.8 3.2 1.8 5.1q0.8 1.5 1.9 3.1 0.8-1.8 1.9-3.6 0.1 0.2 0.2 0.4 0.3 0.5 0.8 0.7-1.1 1.9-2 3.8 1 1.3 2.1 2.6 0 0.2-0.1 0.4l-0.3 1.4q-1.2-1.4-2.3-2.8-0.8 2.2-1.1 4.2c-0.8 4.3 0 7.9 2.2 10.1l2.7-3.1q0 0.6 0.3 1.1 0.1 0.2 0.3 0.4l-2.2 2.5c2.4 1.7 6 2 10.1 0.7q1.9-0.6 3.9-1.7-2.4-1.4-5-3.3l0.3-1.6c2.1 1.6 4.2 2.9 6.2 4.1q0.4-0.3 0.9-0.6l1.9 0.4q0 0 0.1 0-0.7 0.5-1.4 1 1.7 0.8 3.2 1.4c2.1 0.7 3.9 1.1 5.4 1.1q2.6-1.7 4.8-4.1c2-2.3 3.5-5 4.4-7.7q-1.7-0.3-3.6-1c-2.5-1-5.2-2.4-8-4.2l0.3-1.5q2.2 1.4 4.2 2.5c1.7-3 2.7-5.9 3.2-8.7 0.7-4.2 0-7.7-2-9.9l-2.9 3.3c0.1-0.5 0-1.1-0.3-1.5q-0.1-0.1-0.1-0.2l2.2-2.6c-2.4-1.8-6.1-2.1-10.3-0.8-2 0.7-4.1 1.7-6.3 3.1l-1.9-0.4q0 0-0.1 0c4.7-3.4 9.6-5.1 13.8-4.9-5.5-2.6-11.8-2.7-17.4-0.5q0.5 1.6 1.5 3.4 0.5 1 1.2 2-0.4 0.1-0.7 0.3-0.3 0.2-0.5 0.6-0.8-1.2-1.3-2.3-1-1.7-1.5-3.4c-2.6 1.3-5 3.1-7.1 5.4q-2.1 2.5-3.4 5.3zm25.9 28.1q-2-0.8-4.2-2c-3.7 2.2-7.5 3.3-10.9 3.1 6 2.8 12.9 2.7 18.7-0.1q-1.7-0.3-3.6-1zm12.7-30.7c0.8 4.3-0.4 9.7-3.4 15q1.4 0.7 2.7 1.2 1.9 0.7 3.5 1c1.4-5.8 0.5-12-2.8-17.2z"/>
    <path id="Layer" fill="#e5e1e6" d="m465.4 487.7l0.5-2.4v-0.1l2.6 0.5-0.5 2.5-2.3-0.4z"/>
    <path id="Layer" fill="#e5e1e6" d="m468.8 484l-0.3 1.7 2.6 0.5-2 10.1-2.6-0.5-0.2 1-0.3 1.5 2.3 0.5h0.3l-0.1 0.2-0.3 1.5-0.6 3.4 2.5 0.5 1.5-7.6 2.6 0.5 0.5-2.5 5.1 1-1.5 7.6 2.6 0.5 0.5-2.5 2 0.4 0.5 0.1 0.5-2.6 1.1 0.2 1.4 0.3h0.1l0.5-2.5-2.6-0.5-0.5 2.5-2.5-0.5 3.5-17.7-2.6-0.5-0.5 2.6-2.6-0.5-0.5 2.5-2.5-0.5-0.2 0.7-0.3 1.6v0.2l0.3 0.1 2.2 0.4 0.5-2.5 2.6 0.5-0.5 2.5-0.3 1.4-0.2 1.4-0.5 2.3-5.1-1-0.5 2.5-2.6-0.5 2.5-12.7-2.5-0.5-0.2 0.9-0.3 1.7-2.6-0.5z"/>
  </g>
</g>
<g class="LeftArm--group">
  <path d="m591.41 420.96c-1.2277-0.35973-16.635-10.734-40.905-15.5-1.7-0.4-3.683 1.211-4.083 2.111 2.54 0.686 2.583 0.73 2.583 0.73 0.9 1.5 1.6 3.258 2.2 5.758 0.2 0.8 0.4 1.7 0.6 2.7 0.5 3 0.9 6.6 1 10.9 0.3 9.7-2.1 17.2-5.5 22.3-1.7 2.6-3.7 4.601-5.8 5.901-0.2 0.2-0.5 0.2-0.8 0.2h-0.3c-2.8-0.5-5.8-0.7-8.7-0.7 0 0 2.4 6.5 7.5 8 0.2 0.1 0.4 0.1 0.6 0.1 0.2 0.1 0.4 0.1 0.6 0.1 26.6 2.7 41.147 11.538 65.465 44.61 0.7 1.3 2 2 3.3 2 0.6 0 1.2-0.101 1.7-0.401 0.50795-0.26026 0.9441-0.64145 1.27-1.11 0.0628-0.09 0.12419-0.18098 0.184-0.273 4.81-11.512-4.6908-55.107-4.2398-70.343 2.6362 0.59893 5.6578-4.6047 1.485-6.8806-1.5519-0.75093-10.695-6.0373-18.159-10.203z" style="fill:#000000" />
  <path d="M612.796 440.859c-19.666-11.75-24.38-16.3-53.722-26.453.1.3.1.6.2.9.733 3.467 1.134 7.467 1.2 12 .4 13-3.5 21.7-6.8 26.6-.8 1.1-1.6 2.2-2.5 3.2 31.328 7.613 49.466 33.842 61.756 49.582 20.91-14.779 22.188-53.708-.134-65.83z" fill="#170f1e" />
</g>
</svg>
