<svg id="wapuugotchi_svg__wapuu" width="200" version="1.1" viewBox="0 0 1e3 1e3" xmlns="http://www.w3.org/2000/svg">
	<g id="RightArm--group">
		<path d="M436.6 504c-4.5 5.1-10.5 7.9-17 7.9-9.1 0-18.5-5.5-24.4-14.4-7.8-11.6-15.5-21.2-22.3-27.9l-4.8-4.7c-2-2-1.1-5.3 1.6-6.1l6.5-1.7c3.2-.9 6.4-2.7 9.1-5.5 3-3 4.8-6.7 5.2-10.4V430c0-1.3 1.5-2.1 2.5-1.3l9.3 6.9c.7.5 1.7 1.1 2.9 1.7 10.2 4.9 31.7 27.4 35.7 46.7 2.1 10.1-1.2 16.5-4.3 20z"/>
		<path class="st0" d="M402.1 444.1c-1.5-.7-2.9-1.5-4.2-2.4-.5 5.5-3 11-7.3 15.3-3.7 3.7-8.1 6.2-12.5 7.4 8.7 8.6 17 19.8 23.2 29.1 4.5 6.7 11.6 11.1 18.3 11.1 4.1 0 8.1-1.6 11.4-5.4 13-14.8-17.3-49.6-28.9-55.1z" fill="#fc0"/>
		<g class="RightArm--group">
			<path d="M436.59 504.77c-4.5 5.1-10.5 7.9-17 7.9-9.1 0-18.5-5.5-24.4-14.4-7.8-11.6-15.5-21.2-22.3-27.9l-4.8-4.7c-2-2-1.1-5.3 1.6-6.1l6.5-1.7c3.2-.9 6.4-2.7 9.1-5.5 3-3 4.8-6.7 5.2-10.4v-11.2c0-1.3 1.5-2.1 2.5-1.3l9.3 6.9c.7.5 1.7 1.1 2.9 1.7 10.2 4.9 31.7 27.4 35.7 46.7 2.1 10.1-1.2 16.5-4.3 20z"/>
			<path d="M402.09 444.87q-2.3-1-4.2-2.4c-.5 5.5-3 11-7.3 15.3-3.7 3.7-8.1 6.2-12.5 7.4 8.7 8.6 17 19.8 23.2 29.1 4.5 6.7 11.6 11.1 18.3 11.1 4.1 0 8.1-1.6 11.4-5.4 13-14.8-17.3-49.6-28.9-55.1z" fill="#170f1e"/>
		</g>
	</g>
	<g id="Tail--group">
		<path d="M599.1 649.5c-9 25.7-26.4 50-50.3 70.3-23.8 20.3-51.8 34.7-81 41.6-6.9 1.6-14.1 2.5-21.5 2.5-30.8 0-58.9-13.9-74.8-27-13.6-11.1-21.2-23.3-20.9-33.5.4-12 6.7-20.7 16.8-23.3 2.1-.5 4.3-.8 6.7-.8 11.2 0 27.2 6.7 38.5 25.7 7.8 13.2 22 20.1 41.1 20.1h1.2c40.7-.8 87.6-31.2 109.1-70.8 7.7-14.1 13.2-29.6 17.1-40.8 1.9-5.4 3.6-10.1 5.1-13.5 1.3-3.1 4.1-9.4 10.4-9.4 4.1 0 7.6 1.8 9.9 5 5.5 7.6 3.3 23.3-7.4 53.9z"/>
		<path class="st1" d="M570.5 657.8c-22.7 41.7-72.5 73.9-115.5 74.7h-1.4c-21.6 0-38.3-8.4-47.4-23.8-9-15.1-22-22.1-32.1-22.1-1.7 0-3.3.2-4.8.6-7 1.8-11 7.6-11.3 16.4-.3 7.7 6.6 18 18.2 27.5 16.8 13.7 43.2 25.3 70.1 25.3 6.6 0 13.3-.7 19.8-2.3 57.2-13.5 108.5-57.4 126-107.1 5.4-15.3 16.7-49.2 4.5-49.2-4.5.1-10.8 31.8-26.1 60z" fill="#f80"/>
	</g>
	<g id="Body--group">
		<path d="M649.7 531.9c-2 24-6.7 45.1-13.9 62.9-8.5 20.9-20.3 36.6-35.1 46.8-34 23.4-64.8 26-76.4 26-1.3 0-2.5 0-3.8-.1-18.4-.8-26-4.4-32.7-7.5-5.9-2.8-11-5.2-24.9-5.7-37.5-1.5-67-9.9-83.1-23.6-.2-.1-.5-.4-.9-.7-4.8-3.5-19.3-14.3-25-24.7-5.3-9.7-6.2-22.3-2.3-31.4 13.4-31.2 24.5-40.5 33.5-48 3.6-3 6.4-5.3 8.8-8.7 2.2-3.1 3.8-7.1 4.9-12.2 0-.1 0-.2.1-.3 3.9-15 3.4-34.9 2.8-56-.2-5.7-.3-11.7-.4-17.5v-.1c0-18.6 9.6-40.7 25.7-59.2 18.1-20.8 41.6-33.6 66.1-36.2 20.2-2.1 34.3-3.1 45.9-3.1 43.7 0 58.6 14.8 82.2 48.4 7.5 10.6 12.1 22.5 16 33.7 11.1 30.4 15.9 76.5 12.5 117.2z"/>
		<path class="st0" d="M358.5 576.7c-3 7-2.2 17.4 2 25 5.6 10.3 23 22.2 24.1 23.2 15.1 12.9 43.7 20.5 78.7 21.9 31.2 1.3 24.3 11.8 57.6 13.3 1.1 0 2.2.1 3.5.1 16.7 0 43.7-5 72.2-24.7 58-39.9 52.9-165.3 34-218.6-3.9-11.1-8.3-22.2-15.1-31.9-23.5-33.5-36.6-45.2-76.2-45.2-12.2 0-26.9 1.1-45.1 3.1-49.9 5.3-85.3 55.3-85.3 88.1.3 27.4 2.5 55.1-2.7 75.5-1.4 6.5-3.4 11.2-6 14.9-9.8 13.5-23.4 12.4-41.7 55.3z" fill="#fc0"/>
		<g class="Body--group">
			<defs>
				<linearGradient id="g1" x1="459.3" y1="475.3" x2="476.1" y2="516.8" gradientUnits="userSpaceOnUse">
					<stop offset="0" stop-color="#ffe27d"/>
					<stop offset=".5" stop-color="#64e3ff"/>
					<stop offset="1" stop-color="#9192ff"/>
				</linearGradient>
			</defs>
			<path d="M401.886 436.443h-.2c-.9 0-1.6.7-1.6 1.6 1.3 44.5-28.9 84.7-25.3 97.1.2.7.8 1.1 1.5 1.1.3 0 .6-.1.9-.2 8.2-5.1 26.3-8.6 54.7-8.6 12.5 0 26.9.7 43.3 2.2 104 9.6 155.8 30.3 167 48.4.3.5.8.8 1.4.8.7 0 1.4-.5 1.6-1.3 13-68 4.6-129.1-8.1-170.5-.2-.7-.8-1.1-1.5-1.1h-.4c-93.523 41.432-152.27 38.548-233.3 30.5z"/>
			<path d="M410.786 445.143c-1-.134-2-.234-3-.3-.9 25.8-10.8 49.4-18.2 67-1.8 4.3-4 9.5-5.5 13.8 13.8-4.2 32.9-5.2 48.1-5.2 13.2 0 28 .7 44 2.2 49.1 4.5 89.4 11.7 119.9 21.3 20 6.3 34.7 13.4 44.1 21.1 10.5-66.5.1-120.7-8.4-150.4-79.614 34.164-122.39 37.206-221 30.5z" fill="#170f1e" />
			<g id="Logo" transform="translate(15, -2.5)">
				<path id="Layer" fill-rule="evenodd" fill="url(#g1)" d="m494.2 508c-8.6 9.7-23.4 10.7-33.2 2.2-9.7-8.6-10.7-23.4-2.2-33.2 8.6-9.7 23.4-10.7 33.2-2.2 9.7 8.6 10.7 23.4 2.2 33.2zm-36.3-3.7c-0.6-3.3-0.1-7.2 1.6-11.3q-1.5-2-2.5-3.9-0.9-1.7-1.5-3.4c-2 6.2-1.1 13 2.4 18.6zm-1.4-21c0.2 1.5 0.8 3.2 1.8 5.1q0.8 1.5 1.9 3.1 0.8-1.8 1.9-3.6 0.1 0.2 0.2 0.4 0.3 0.5 0.8 0.7-1.1 1.9-2 3.8 1 1.3 2.1 2.6 0 0.2-0.1 0.4l-0.3 1.4q-1.2-1.4-2.3-2.8-0.8 2.2-1.1 4.2c-0.8 4.3 0 7.9 2.2 10.1l2.7-3.1q0 0.6 0.3 1.1 0.1 0.2 0.3 0.4l-2.2 2.5c2.4 1.7 6 2 10.1 0.7q1.9-0.6 3.9-1.7-2.4-1.4-5-3.3l0.3-1.6c2.1 1.6 4.2 2.9 6.2 4.1q0.4-0.3 0.9-0.6l1.9 0.4q0 0 0.1 0-0.7 0.5-1.4 1 1.7 0.8 3.2 1.4c2.1 0.7 3.9 1.1 5.4 1.1q2.6-1.7 4.8-4.1c2-2.3 3.5-5 4.4-7.7q-1.7-0.3-3.6-1c-2.5-1-5.2-2.4-8-4.2l0.3-1.5q2.2 1.4 4.2 2.5c1.7-3 2.7-5.9 3.2-8.7 0.7-4.2 0-7.7-2-9.9l-2.9 3.3c0.1-0.5 0-1.1-0.3-1.5q-0.1-0.1-0.1-0.2l2.2-2.6c-2.4-1.8-6.1-2.1-10.3-0.8-2 0.7-4.1 1.7-6.3 3.1l-1.9-0.4q0 0-0.1 0c4.7-3.4 9.6-5.1 13.8-4.9-5.5-2.6-11.8-2.7-17.4-0.5q0.5 1.6 1.5 3.4 0.5 1 1.2 2-0.4 0.1-0.7 0.3-0.3 0.2-0.5 0.6-0.8-1.2-1.3-2.3-1-1.7-1.5-3.4c-2.6 1.3-5 3.1-7.1 5.4q-2.1 2.5-3.4 5.3zm25.9 28.1q-2-0.8-4.2-2c-3.7 2.2-7.5 3.3-10.9 3.1 6 2.8 12.9 2.7 18.7-0.1q-1.7-0.3-3.6-1zm12.7-30.7c0.8 4.3-0.4 9.7-3.4 15q1.4 0.7 2.7 1.2 1.9 0.7 3.5 1c1.4-5.8 0.5-12-2.8-17.2z"/>
				<path id="Layer" fill="#e5e1e6" d="m465.4 487.7l0.5-2.4v-0.1l2.6 0.5-0.5 2.5-2.3-0.4z"/>
				<path id="Layer" fill="#e5e1e6" d="m468.8 484l-0.3 1.7 2.6 0.5-2 10.1-2.6-0.5-0.2 1-0.3 1.5 2.3 0.5h0.3l-0.1 0.2-0.3 1.5-0.6 3.4 2.5 0.5 1.5-7.6 2.6 0.5 0.5-2.5 5.1 1-1.5 7.6 2.6 0.5 0.5-2.5 2 0.4 0.5 0.1 0.5-2.6 1.1 0.2 1.4 0.3h0.1l0.5-2.5-2.6-0.5-0.5 2.5-2.5-0.5 3.5-17.7-2.6-0.5-0.5 2.6-2.6-0.5-0.5 2.5-2.5-0.5-0.2 0.7-0.3 1.6v0.2l0.3 0.1 2.2 0.4 0.5-2.5 2.6 0.5-0.5 2.5-0.3 1.4-0.2 1.4-0.5 2.3-5.1-1-0.5 2.5-2.6-0.5 2.5-12.7-2.5-0.5-0.2 0.9-0.3 1.7-2.6-0.5z"/>
			</g>
		</g>
	</g>
	<g id="RightHand--group">
		<path d="M390.6 457c-5.2 5.1-11.7 8.1-17.8 8.1-8.1 0-14-5.1-15.6-13.3-1-5.4.9-11.3 5.4-16.7 5.8-6.9 14.9-12 21.7-12.1h.2c1.3 0 2.6.2 3.8.6h.2l.1.1c4.5 1.8 7.9 6.2 9.1 11.8 1.4 7.5-1.2 15.5-7.1 21.5z"/>
		<path class="st0" d="M385.4 451.7c4.2-4.2 6-9.6 5-14.7-.6-3.1-2.3-5.5-4.6-6.4-.4-.1-.9-.2-1.3-.2h-.1c-4 0-11.3 3.6-16.1 9.4-1.8 2.1-4.6 6.3-3.8 10.6 1.1 6 5.1 7.3 8.3 7.3 4.1 0 8.8-2.2 12.6-6z" fill="#fc0"/>
	</g>
	<g id="RightFoot--group">
		<path d="M384.3 648c-2.4 3.7-6.4 5.7-11.5 5.7-1.9 0-4-.3-6.2-.8-25-6-59.3-43.6-63.6-64.5-1.9-9.4-.2-18 5-24.4 4.6-5.7 11.4-8.8 18.9-8.8 6.8 0 13.6 2.5 19.8 7.3 12.2 9.4 32.9 50.5 37.3 60.7 2.5 5.8 4.9 17.7.3 24.8z"/>
		<path class="st0" d="M310.1 586.8c3.8 18.2 36.2 53.6 58.1 58.8 1.7.4 3.2.6 4.5.6 3.4 0 4.7-1.3 5.4-2.3 2.3-3.5 1.5-12.1-1-17.9-6.1-13.9-25.3-50.3-35.1-57.8-4.9-3.8-10.2-5.8-15.3-5.8-5.3 0-10 2.2-13.2 6.1-3.6 4.7-4.8 11.2-3.4 18.3z" fill="#fc0"/>
	</g>
	<g id="RightEar--group">
		<path d="M413.3 399.4c-.4 4.4-3.8 8.4-11.1 12.9-4.7 3-10.2 5.5-13.9 6.5-6.5 1.7-12.3 2.6-17.3 2.6-6.7 0-10.6-1.6-12.7-2.9-4.8-3-4.4-7.2-4.2-8.5.5-3.1 2.9-5.5 5.9-6.2 3.5-.8 13.5-5.8 23.6-12.6 4.2-2.9 10.7-4.8 16.1-4.8 5.8 0 9.1 2.2 10.8 4.1 2.1 2.4 3.1 5.5 2.8 8.9z"/>
		<path class="st1" d="M361.4 411.3c0 .3.4.7.9.9 1.1.7 3.6 1.8 8.8 1.8 4.3 0 9.5-.8 15.4-2.3 5.2-1.4 19.1-8.8 19.5-13 .1-1.3-.2-2.4-.9-3.2-1-1.1-2.8-1.7-5.3-1.7-3.9 0-8.9 1.5-11.9 3.5-8.5 5.7-20.5 12.5-26.1 13.7-.3.1-.4.2-.4.3z" fill="#f80"/>
	</g>
	<g id="Head--group">
		<path d="M516.4 328.1c1.6 0 3.2 0 4.8.1 20.6.6 39.5 6.5 55.9 17 11.2 7.2 17.5 11.4 25.9 25.2 1.5 2.5 9 .8 7.9-1.1-10.1-17.6-17.5-22.3-29.8-30.3-17.7-11.4-37.8-17.6-59.7-18.2-1.6 0-3.3-.1-5-.1-1.6 0-3.3 0-4.9.1-24.3.6-47.8 6.6-67.8 17.1-20.2 10.6-37.1 26.1-48.9 44.7-7.7 12.3-10.3 23.9-7.4 33.5 2.4 7.8 7.9 12.7 12.3 14.6 1.4.6 2.9.9 4.7.9 9.3 0 34.7-9.3 45.7-24.8 8.4 4.5 17.6 6.7 28.1 6.7 12.6 0 25-3.2 36.4-6.9 3-1 3.8-2.2 3.9-4.1 0-1.3-1.2-3.6-3.8-3.5-.3 0-.7.1-1 .2-11.2 3.6-23.3 6.9-35.4 6.9-9.3 0-18.6-2-27.4-7.4-.6-.4-1.3-.5-1.9-.5-1.3 0-2.5.6-3.2 1.8l-.1.1c-7.9 14.3-33.3 24.1-41.2 24.1-.7 0-1.3-.1-1.7-.3-2.8-1.2-6.6-4.6-8.2-10-2.3-7.5 0-17 6.6-27.4 22.5-35.7 63.4-57.1 110.6-58.3 1.4-.1 3-.1 4.6-.1"/>
		<path class="st0" d="M516.6 399.4c-1-.4-2-.7-3-.3-19.7 6.3-42.5 12-62.8-.5-1.7-1.1-4-.5-5.1 1.2l-.1.1c-8.6 15.7-38.3 26-43 23.9-2.8-1.2-6.6-4.6-8.2-10-2.3-7.5 0-17 6.6-27.4 22.5-35.7 63.4-57.1 110.6-58.3 3.1-.1 6.3-.1 9.5 0 20.6.6 39.5 6.5 55.9 17 13.2 8.5 19.7 12.7 30.6 33.6 5.6 10.5-84.4 23.5-91 20.7z" fill="#fc0"/>
	</g>
	<g id="LeftEar--group">
		<path d="M701.4 357.1c-.5 1.7-1.2 3.4-2 5.2-5 10-17.7 23-38 29.1-4.5 1.4-9.3 2-14 2h-.1c-13 0-34.2-4.9-61.6-28.3-1.9-1.7-5.1-4.8-7.1-7-2.3-2.5-2.8-6.1-1.5-9.1s4.4-5.1 7.8-5.1h.5c13.9.8 30.1 1.2 48.4 1.2 8.1 0 14.8-.1 19.3-.1h4.5c7.4 0 13.3-.1 18.2-.1 8.1 0 13.7.1 17.1.2 2.9.1 5.6 1.5 7.3 3.9 1.5 2.3 2 5.2 1.2 8.1z"/>
		<path class="st1" d="M590.4 359.4c25.7 21.9 45.1 26.5 56.8 26.5h.1c4 0 8-.6 11.9-1.7 18.1-5.4 29.2-16.6 33.5-25.3.8-1.5 1.2-2.8 1.5-3.9.4-1.3-.6-2.6-1.9-2.7-3.3-.1-8.9-.2-16.7-.2-5.4 0-11.6 0-18.2.1-3.3 0-12.2.2-23.9.2-13.9 0-31.7-.2-48.8-1.2h-.1c-.9 0-1.5 1.1-.8 1.8 2 2.2 5 5.1 6.6 6.4z" fill="#f80"/>
	</g>
	<g id="Face--group">
		<path d="m417.6 376.2c-4.1 0-7.4 3.3-7.4 7.4 0 9.9 14.8 9.9 14.8 0 0-4.1-3.3-7.4-7.4-7.4z"/>
		<path d="m503.2 355.7c-4.1 0-7.4 3.3-7.4 7.4 0 9.9 14.8 9.9 14.8 0 0-4.1-3.3-7.4-7.4-7.4z"/>
		<path d="m457.9 375.4c-7.4 0.8-12.3 2.5-15.6 4.9-5.9 4.4-4.1 9.9 2.5 10.7s7.1 1.2 13.2-3.3c6.5-4.9 7.3-13.1-0.1-12.3z"/>
	</g>
	<g id="LeftLeg--group">
		<path class="st0" d="M512.4 655.2c-4.6-5.2-3.7-15.7-1.9-29.4 2.6-19.8 5-34.5 25.4-50.8 24.4-19.5 62.2-15 76.2-.5 3.6 3.7 6.7 10.9 7.3 18.8.9 11.4-22.2 42.4-44.8 51.8-22.6 9.6-54 19.3-62.2 10.1z" fill="#fc0"/>
		<path d="M512.4 658.9c-1.2 0-2.3-.5-3-1.6-4.7-6.7-4.5-17.2-2.6-32 2.5-19 4.6-35.5 26.8-53.2 26.8-21.4 63.7-14 78.4.7 1.4 1.4 1.4 3.8 0 5.2-1.4 1.4-3.8 1.4-5.2 0-12.5-12.5-45.4-18.7-68.6-.1-18.9 15.1-21.4 28.2-24.1 48.4-1.4 11-2.3 21.8 1.3 26.7 1.2 1.7.8 4-.9 5.2-.6.5-1.4.7-2.1.7z"/>
	</g>
	<g id="LeftFoot--group">
		<path d="M523.7 651.2c-.4 1.9-2 9.1-6.7 16.2-7 10.6-17.8 16.5-30.4 16.5-7.2 0-12.9-2.1-16.8-6.2-7.5-7.8-7.1-21-6.7-33.7v-.1c.2-6.4.4-13.1-.4-18.5-.7-4.4-1.8-9.1-3.1-14.5-2.4-10.2-4.6-20.1-4.3-28.7.4-10.7 4.7-18.9 12.8-24.4 3.5-2.4 7.4-3.5 11.4-3.5 9.3 0 18.9 6.2 28.7 18.6 7.1 8.9 13.1 20 15.4 28.1 6.4 21.8 4.9 34.9.1 50.2z"/>
		<path class="st0" d="M477 670.8c2 2.1 5.2 3.1 9.6 3.1 22.6 0 27-23.7 27.2-24.7 0-.2.1-.4.1-.6 4.4-13.9 5.7-25.2 0-44.8-3.7-13.2-21.1-39.4-34.4-39.4-2 0-4 .6-5.8 1.9-11.7 7.8-9.3 21.8-4.4 42.4 1.2 5.1 2.5 10.4 3.2 15.3 1 6.4.8 13.5.5 20.4-.2 10.6-.6 21.6 4 26.4z" fill="#fc0"/>
	</g>
	<g id="LeftArm--group">
		<path d="M478 413.3c-6.4 2.9-12.4 6.6-17.6 11.1-12.1 10.6-12.6 19.4-10.8 24.8 2.5 7.7 11.1 13.4 21.9 14.6 7.1.7 16.2-1.3 26.7-3.6 13.9-3.1 29.7-6.6 42.9-3.9 19.6 4.1 33.3 15 53.1 32.7l10.3 9.2c1.5 1.3 3.9 1.2 5.2-.4 1.3-1.5 1.2-3.9-.4-5.2l-2.9-2.6c-24-21.7-39.9-36-63.8-41-14.8-3.1-31.3.6-46 3.9-9.5 2.1-18.5 4.1-24.3 3.5-7.8-.8-14.1-4.6-15.7-9.5-1.5-4.7 1.6-10.7 8.7-17 20.7-18.2 59.1-23.7 87.5-12.5 4.7 1.9 7.4-5.1 2.7-6.9-11.4-4.4-24.6-6.6-37.7-6.2-10.1.4-30.5 4.8-39.8 9z"/>
		<path class="st0" d="M615.4 451c11.7 12.2 17 60.3-6 41.6l-2.9-2.6c-24-21.7-39.9-36-63.8-41-14.8-3.1-31.3.6-46 3.9-9.5 2.1-18.5 4.1-24.3 3.5-7.8-.8-14.1-4.6-15.7-9.5-1.5-4.7 1.6-10.7 8.7-17 20.7-18.2 59.3-24 87.5-12.5 4.6 2 46.1 16.5 62.5 33.6z" fill="#fc0"/>
		<g class="LeftArm--group">
			<path d="m591.41 420.96c-1.2277-0.35973-16.635-10.734-40.905-15.5-1.7-0.4-3.683 1.211-4.083 2.111 2.54 0.686 2.583 0.73 2.583 0.73 0.9 1.5 1.6 3.258 2.2 5.758 0.2 0.8 0.4 1.7 0.6 2.7 0.5 3 0.9 6.6 1 10.9 0.3 9.7-2.1 17.2-5.5 22.3-1.7 2.6-3.7 4.601-5.8 5.901-0.2 0.2-0.5 0.2-0.8 0.2h-0.3c-2.8-0.5-5.8-0.7-8.7-0.7 0 0 2.4 6.5 7.5 8 0.2 0.1 0.4 0.1 0.6 0.1 0.2 0.1 0.4 0.1 0.6 0.1 26.6 2.7 41.147 11.538 65.465 44.61 0.7 1.3 2 2 3.3 2 0.6 0 1.2-0.101 1.7-0.401 0.50795-0.26026 0.9441-0.64145 1.27-1.11 0.0628-0.09 0.12419-0.18098 0.184-0.273 4.81-11.512-4.6908-55.107-4.2398-70.343 2.6362 0.59893 5.6578-4.6047 1.485-6.8806-1.5519-0.75093-10.695-6.0373-18.159-10.203z" style="fill:#000000" />
			<path d="M612.796 440.859c-19.666-11.75-24.38-16.3-53.722-26.453.1.3.1.6.2.9.733 3.467 1.134 7.467 1.2 12 .4 13-3.5 21.7-6.8 26.6-.8 1.1-1.6 2.2-2.5 3.2 31.328 7.613 49.466 33.842 61.756 49.582 20.91-14.779 22.188-53.708-.134-65.83z" fill="#170f1e" />
		</g>
	</g>
</svg>
