<svg version="1.1" viewBox="0 0 1e3 1e3" xmlns="http://www.w3.org/2000/svg">
	<g id="Head--group">
		<path d="m515.8 324.3-5.4 6.4c-3.3 3.9-6.9 7.4-10.7 10.3-5.6 4.3-11.8 7.7-16.7 10.1-14.8 7.6-28.6 12.7-41.9 15.6-7.6 1.6-15.1 2.5-22.2 2.5h-1.5l-9.8 0.5 7-6.9c23.6-23.1 56.5-36.8 92.8-38.4l8.4-0.1z"/>
		<path d="m418.9 365.6c6.9-0.1 14.1-0.9 21.5-2.4 13-2.8 26.4-7.7 41-15.2 4.7-2.4 10.7-5.7 16.1-9.8 3.8-2.9 7.1-6.2 10.1-9.8-35.6 1.6-67.7 15.1-90.3 37.3 0.2-0.1 1.2-0.1 1.6-0.1" fill="#77604D"/>
		<path d="m583 345-7.4 2.5c-3.5 1.2-10.9 3.2-19.4 3.2-4.1 0-8.4-0.5-12.7-1.7-11.2-3.2-17.5-8.1-21.1-12.2s-4.4-7.4-4.5-7.7l-1-4.6 4.8 0.1c19.5 0.6 39 6.4 54.8 16.3l6.5 4.1z"/>
		<path d="m544.4 345.4c12.1 3.5 24.6 0.3 29.9-1.4-13.6-8.6-32.3-15.1-53-15.7 0.1-0.1 2.6 11.1 23.1 17.1" fill="#77604D"/>
		<path d="m442.6 354.2c12.2-2.4 23.6-7.6 34.9-12.8-2.3 3.7-5.3 6.9-8.8 9.4 4.3-0.7 8.6-1.8 12.9-3 4.7-2.4 10.6-5.6 15.9-9.7 3.8-2.9 7.1-6.2 10.1-9.8-22.7 1-44.1 6.9-62.2 16.8 4.9-1.1 10.3-1.9 15.3-2.5-5.9 4.2-11.9 8.1-18.1 11.6" fill="#C39F87"/>
		<path d="m546.4 339.4c-2.2-0.9-4.2-2.3-5.7-4.1 5.6 0.3 11.2 0.6 16.8 0.2-0.3-0.2-0.8-0.3-1.1-0.5-10.3-3.8-23.1-6.5-35.1-6.8 0 0 1 4.1 6.4 8.8 1.5 0.5 3 1 4.3 1.3 4.7 1 9.6 1.1 14.4 1.1" fill="#C39F87"/>
	</g>
</svg>
