<svg xmlns="http://www.w3.org/2000/svg" xml:space="preserve" width="60" height="90"><g fill="none" fill-rule="evenodd" style="display:inline"><path fill="#77604d" d="M18.03 7.557a15.553 15.553 0 0 0 3.081-.351c1.872-.397 3.8-1.113 5.89-2.188.673-.346 1.544-.82 2.31-1.407a9.226 9.226 0 0 0 1.456-1.404c-5.11.224-9.732 2.17-12.978 5.356.051-.002.196-.006.24-.006" style="display:inline;stroke:#000;stroke-width:1.95;stroke-linecap:butt;stroke-linejoin:miter;stroke-dasharray:none;stroke-opacity:1;paint-order:stroke markers fill" transform="translate(-.19 21.333)"/><path fill="#77604d" d="M36.066 4.65c1.737.504 3.527.05 4.301-.207-1.957-1.229-4.637-2.17-7.607-2.26 0 0 .358 1.61 3.306 2.467" style="display:inline;opacity:1;stroke:#000;stroke-width:1.95;stroke-linecap:butt;stroke-linejoin:miter;stroke-dasharray:none;stroke-opacity:1;paint-order:stroke markers fill" transform="translate(-.19 21.333)"/><path fill="#c39f87" d="M21.442 5.926c1.75-.344 3.388-1.098 5.007-1.845-.323.529-.757.99-1.267 1.346a18.876 18.876 0 0 0 1.847-.425c.67-.344 1.527-.811 2.283-1.391a9.22 9.22 0 0 0 1.455-1.404c-3.26.14-6.332.997-8.94 2.408.706-.156 1.473-.27 2.191-.362a27.811 27.811 0 0 1-2.576 1.673" style="display:inline;stroke-width:.132861;stroke-linecap:butt;stroke-linejoin:miter" transform="translate(-.19 21.333)"/><path fill="#c39f87" d="M36.345 3.794a2.055 2.055 0 0 1-.815-.588c.807.046 1.61.089 2.418.026-.045-.026-.116-.04-.16-.067a16.23 16.23 0 0 0-5.036-.975s.138.59.923 1.26c.213.078.425.14.614.182.672.15 1.367.156 2.056.162" style="display:inline;opacity:1;stroke-width:.132861;stroke-linecap:butt;stroke-linejoin:miter" transform="translate(-.19 21.333)"/></g></svg>