<?xml version="1.0" encoding="utf-8"?>
<!-- Generator: Adobe Illustrator 25.2.0, SVG Export Plug-In . SVG Version: 6.00 Build 0)  -->
<svg version="1.1" id="Layer_1" xmlns="http://www.w3.org/2000/svg" xmlns:xlink="http://www.w3.org/1999/xlink" x="0px" y="0px"
	 viewBox="0 0 1000 1000" style="enable-background:new 0 0 1000 1000;" xml:space="preserve">
<style type="text/css">
	.st0{fill-rule:evenodd;clip-rule:evenodd;fill:#77604D;}
	.st1{fill-rule:evenodd;clip-rule:evenodd;fill:#C39F87;}
</style>
<g id="Hair--group">
	<path id="Hair-1--bg" d="M515.8,324.3l-5.4,6.4c-3.3,3.9-6.9,7.4-10.7,10.3c-5.6,4.3-11.8,7.7-16.7,10.1
		c-14.8,7.6-28.6,12.7-41.9,15.6c-7.6,1.6-15.1,2.5-22.2,2.5h0c-0.3,0-1.2,0-1.5,0l-9.8,0.5l7-6.9c23.6-23.1,56.5-36.8,92.8-38.4
		L515.8,324.3z"/>
	<path id="Hair-1" class="st0" d="M418.9,365.6c6.9-0.1,14.1-0.9,21.5-2.4c13-2.8,26.4-7.7,41-15.2c4.7-2.4,10.7-5.7,16.1-9.8
		c3.8-2.9,7.1-6.2,10.1-9.8c-35.6,1.6-67.7,15.1-90.3,37.3C417.5,365.6,418.5,365.6,418.9,365.6"/>
	<path id="Hair-2--bg" d="M583,345l-7.4,2.5c-3.5,1.2-10.9,3.2-19.4,3.2c-4.1,0-8.4-0.5-12.7-1.7c-11.2-3.2-17.5-8.1-21.1-12.2
		c-3.6-4.1-4.4-7.4-4.5-7.7l-1-4.6l4.8,0.1c19.5,0.6,39,6.4,54.8,16.3L583,345z"/>
	<path id="Hair-2" class="st0" d="M544.4,345.4c12.1,3.5,24.6,0.3,29.9-1.4c-13.6-8.6-32.3-15.1-53-15.7
		C521.4,328.2,523.9,339.4,544.4,345.4"/>
	<path id="Hair-light-1" class="st1" d="M442.6,354.2c12.2-2.4,23.6-7.6,34.9-12.8c-2.3,3.7-5.3,6.9-8.8,9.4c4.3-0.7,8.6-1.8,12.9-3
		c4.7-2.4,10.6-5.6,15.9-9.7c3.8-2.9,7.1-6.2,10.1-9.8c-22.7,1-44.1,6.9-62.2,16.8c4.9-1.1,10.3-1.9,15.3-2.5
		C454.8,346.8,448.8,350.7,442.6,354.2"/>
	<path id="Hair-light-2" class="st1" d="M546.4,339.4c-2.2-0.9-4.2-2.3-5.7-4.1c5.6,0.3,11.2,0.6,16.8,0.2c-0.3-0.2-0.8-0.3-1.1-0.5
		c-10.3-3.8-23.1-6.5-35.1-6.8c0,0,1,4.1,6.4,8.8c1.5,0.5,3,1,4.3,1.3C536.7,339.3,541.6,339.4,546.4,339.4"/>
</g>
</svg>
