<svg xmlns="http://www.w3.org/2000/svg" viewBox="0 0 1000 1000">
	<g class="BeforeLeftArm--part">
		<path fill="#DD2C2C" d="M353.1 504.46c10.98-2.75 47.4-10.92 74.89-6.12.9.16 1.62.82 1.86 1.7 1.61 5.87 6.4 29.82-6.88 74.05-11.86 39.53-.43 84.63 3 96.47.44 1.5-.67 3.01-2.23 3.04-11.81.23-54.06.8-75.7-2.61-.81-.13-1.49-.68-1.81-1.43-2.45-5.8-11.06-33.15 5.28-104.08 8.3-36.03 3.14-51.92.09-57.57-.73-1.37-.01-3.07 1.5-3.45z"/>
		<path fill="#FF9D00" d="M376.79 551.93c-5.62 6.33-5.51 15.97.49 21.84 6.33 6.19 16.78 5.91 23.06-.98 6.33-6.94 5.53-17.39-1.49-23.01-6.64-5.32-16.39-4.23-22.06 2.15zm17.74 9.46-6.26 6.93-6.61-6.02 6.06-6.76 6.81 5.85z"/>
		<path fill="#FFB000" d="M379.02 553.9c-4.51 5.07-4.38 12.78.46 17.41 5.05 4.84 13.28 4.54 18.21-.88 4.96-5.45 4.39-13.67-1.09-18.15-5.24-4.28-13.04-3.47-17.58 1.62zm15.51 7.49-6.26 6.93-6.61-6.02 6.06-6.76 6.81 5.85z"/>
		<path fill="none" stroke="#000" stroke-linecap="round" stroke-linejoin="round" stroke-miterlimit="10" stroke-width="6" d="M353.1 504.46c10.98-2.75 47.4-10.92 74.89-6.12.9.16 1.62.82 1.86 1.7 1.61 5.87 6.4 29.82-6.88 74.05-11.86 39.53-.43 84.63 3 96.47.44 1.5-.67 3.01-2.23 3.04-11.81.23-54.06.8-75.7-2.61-.81-.13-1.49-.68-1.81-1.43-2.45-5.8-11.06-33.15 5.28-104.08 8.3-36.03 3.14-51.92.09-57.57-.73-1.37-.01-3.07 1.5-3.45z"/>
		<path fill="none" stroke="#000" stroke-linecap="round" stroke-linejoin="round" stroke-miterlimit="10" stroke-width="3" d="M390.39 511.04c.18 1.74-1.33 3.17-3.23 3.27-1.77.09-3.37-1.01-3.69-2.51-.33-1.58.82-3.16 2.72-3.49 2.05-.36 4.01.89 4.2 2.73z"/>
		<path fill="#FF941F" d="m392.98 659.51-5.91-5.23-1.77 1.97-5.72-5.14-4.22 4.67-2.19-2.05-4.19 4.61 5.38 5.2 1.74-1.93 5.7 5.43 4.4-4.93 2.47 2.26 4.31-4.86zm-18.85 2.19-3.4-3.27 2.65-2.93 1.2 1.13-1.72 1.9 2.22 2.11-.95 1.06zm1.45-4.12 1.23 1.15-.95 1.05-1.22-1.16.94-1.04zm5.95 7.56-4.65-4.4 1.73-1.93-2.25-2.1 3.46-3.84 4.7 4.25-1.7 1.89 2.29 2.1-3.58 4.03zm4.05-7.05 1.24 1.12-.92 1.03-1.24-1.13.92-1.02zm3.11 1.22-2.33-2.09.99-1.11 3.72 3.31-2.72 3.06-1.37-1.25 1.71-1.92z"/>
		<path fill="#FF941F" d="m400.24 659.36-6.27 7.1-1.38-1.25 4.85-5.48-7.91-6.89-.78.87 6.75 5.92-4.83 5.46 3.63 3.32 6.77-7.68 12.86.65-.31-1.39zm-28.92-6.31-.97-.91-5.48 6.01 5.88 5.77-.96 1.07-7.51-7.44-11.12-.52.08 1.22 10.66.53 8.09 8.07 2.55-2.82-5.94-5.79z"/>
		<path fill="#FF941F" d="m401.62 536.58-10.38.11.26-10.05 10.53-.36-.41 10.3zm-9.09-1.14 7.83-.1.29-7.73-7.91.24-.21 7.59zm-2.58 1.26-9.84.1.12-9.78 9.97-.34-.25 10.02zm-8.63-1.12 7.42-.1.17-7.52-7.49.23-.1 7.39z"/>
		<path fill="#FF941F" d="m396.31 531.36-11.86.27.21-11.72 12.05-.61-.4 12.06zm-10.61-.99 9.36-.24.29-9.48-9.48.45-.17 9.27zm-7.83 2.34-7.57.15v-3.37l4.25-.12v-1.02l-13.26.41-.01-1.16 14.46-.5-.03 3.44-4.26.11v1l5.25-.12.06-7.45 5.08-.21.03-2.23 1.22-.06-.05 3.48-5.1.19zm34.45-.7-8.87.18.33-7.92-5.62.21.12-3.61 1.33-.06-.08 2.33 5.66-.24-.35 7.98 6.16-.14.06-1.11-5.03.13.16-3.69 18.01-.61-.09 1.35-16.61.52-.05 1.1 5.07-.14z"/>
		<path fill="#FFF" d="M364.52 633.67c-2.63 13.88 17.2 4.52 3.23-1.52 13.97 6.05 11.2-15.71-.45-3.54 11.65-12.17-9.89-16.25-3.51-.67-6.38-15.59-16.93 3.64-1.72 3.13-15.2.51-.18 16.48 2.45 2.6z"/>
		<path fill="#FF9D00" d="M364.31 630.6c.09-.49.57-.81 1.06-.72.49.09.81.57.72 1.06-.09.49-.57.81-1.06.72-.49-.1-.82-.57-.72-1.06zM366.34 634.25c-.06-.17-.03-.48.13-.54.16-.07.37.13.44.3.06.17-.01.36-.17.43s-.33-.02-.4-.19zM367.83 634.64c-.14-.2-.2-.62-.02-.77.18-.15.54.03.68.23s.1.48-.08.63c-.18.15-.44.11-.58-.09zM365.06 626c.01.24-.16.63-.4.66-.24.03-.44-.31-.46-.56s.17-.46.4-.49c.25-.03.45.15.46.39zM366.8 626.42c-.07.23-.37.54-.6.48-.23-.06-.31-.45-.23-.68s.32-.38.55-.32c.23.06.35.29.28.52zM361.78 631.62c.17-.05.48 0 .53.16.06.16-.16.36-.33.42s-.36-.04-.41-.2c-.05-.16.04-.33.21-.38zM362.96 633.75c.1-.17.4-.36.59-.27.19.09.19.42.09.6-.1.17-.33.24-.52.15s-.26-.31-.16-.48zM361.19 633.52c.18-.16.59-.27.76-.1s.03.54-.15.7c-.18.16-.47.16-.64-.01s-.15-.43.03-.59zM361.89 629c.18.09.39.37.32.56-.08.19-.41.22-.59.14-.18-.09-.27-.31-.19-.51.07-.19.28-.28.46-.19zM361.91 627.74c.19.15.36.54.23.74-.14.19-.53.12-.72-.03-.19-.15-.23-.44-.1-.63.14-.2.4-.23.59-.08zM369.03 629.56c-.19.07-.54.02-.62-.17-.09-.19.12-.45.31-.52s.41.03.5.22c.08.19 0 .4-.19.47zM369.97 631.36c-.24-.02-.61-.24-.6-.48 0-.24.37-.4.61-.38.24.02.44.23.43.47 0 .24-.2.41-.44.39z"/>
		<path fill="#FFF" d="M390.51 611.84c-3.71 19.53 24.2 6.37 4.54-2.14 19.66 8.51 15.76-22.1-.63-4.98 16.4-17.12-13.92-22.88-4.94-.94-8.98-21.94-23.83 5.12-2.42 4.4-21.4.72-.26 23.19 3.45 3.66z"/>
		<path fill="#FF9D00" d="M390.2 607.52c.13-.69.8-1.14 1.49-1.01.69.13 1.14.8 1.01 1.49s-.8 1.14-1.49 1.01c-.69-.14-1.14-.8-1.01-1.49zM393.07 612.67c-.09-.24-.04-.67.18-.76.22-.09.53.19.61.43.09.24-.02.51-.24.6-.21.08-.46-.04-.55-.27zM395.16 613.21c-.2-.28-.28-.87-.02-1.08s.77.04.96.32c.2.28.15.68-.11.89-.26.21-.63.16-.83-.13zM391.26 601.05c.02.34-.23.89-.56.93-.33.04-.63-.44-.64-.79-.02-.34.24-.65.57-.69.33-.04.61.2.63.55zM393.71 601.65c-.1.33-.52.76-.85.68-.32-.08-.43-.63-.33-.96.1-.33.45-.53.77-.45.34.07.52.4.41.73zM386.65 608.96c.24-.07.67 0 .75.23.08.22-.22.51-.47.58-.24.07-.5-.05-.58-.28-.07-.22.06-.46.3-.53zM388.31 611.95c.14-.24.56-.51.83-.38s.27.6.13.84-.47.34-.73.21c-.27-.12-.37-.42-.23-.67zM385.82 611.64c.26-.23.84-.38 1.07-.14.24.24.04.77-.22.99-.26.23-.66.22-.9-.02-.22-.23-.21-.61.05-.83zM386.8 605.26c.25.12.55.52.44.79-.11.27-.57.31-.83.19-.25-.12-.37-.44-.27-.71.11-.26.41-.39.66-.27zM386.83 603.5c.27.22.51.76.32 1.04-.19.27-.75.17-1.01-.05-.27-.22-.33-.61-.13-.89.19-.27.56-.32.82-.1zM396.85 606.06c-.26.1-.76.03-.88-.23-.12-.27.17-.63.44-.73s.58.04.7.3.01.56-.26.66zM398.17 608.6c-.34-.03-.85-.34-.85-.68 0-.33.52-.56.86-.53.34.03.62.32.61.66.01.33-.27.58-.62.55z"/>
		<path fill="#FFF" d="M361.8 593.01c-2.18 11.49 14.24 3.75 2.67-1.26 11.57 5.01 9.28-13.01-.37-2.93 9.65-10.08-8.19-13.46-2.9-.55-5.29-12.91-14.02 3.01-1.42 2.59-12.61.42-.16 13.65 2.02 2.15z"/>
		<path fill="#FF9D00" d="M361.62 590.47c.08-.41.47-.67.87-.6.41.08.67.47.6.87-.08.41-.47.67-.87.6-.41-.07-.68-.47-.6-.87zM363.31 593.5c-.05-.14-.02-.39.1-.45s.31.11.36.25c.05.14-.01.3-.14.35-.13.06-.27-.01-.32-.15zM364.54 593.82c-.12-.17-.17-.51-.01-.64.15-.12.45.02.57.19.12.17.09.4-.07.52s-.38.1-.49-.07zM362.24 586.66c.01.2-.13.52-.33.55-.2.02-.37-.26-.38-.46s.14-.38.34-.41c.2-.03.36.12.37.32zM363.68 587.01c-.06.19-.31.44-.5.4s-.25-.37-.19-.56c.06-.19.26-.31.46-.27s.3.24.23.43zM359.53 591.32c.14-.04.39 0 .44.13.05.13-.13.3-.27.34-.14.04-.3-.03-.34-.16-.05-.13.03-.27.17-.31zM360.51 593.08c.08-.14.33-.3.49-.22.16.08.16.35.07.5-.08.14-.27.2-.43.12s-.22-.26-.13-.4zM359.04 592.89c.15-.13.49-.22.63-.08s.02.45-.13.58c-.15.13-.39.13-.53-.01-.13-.14-.12-.36.03-.49zM359.62 589.14c.15.07.32.31.26.47-.06.16-.34.18-.49.11-.15-.07-.22-.26-.16-.42s.24-.23.39-.16zM359.64 588.1c.16.13.3.45.19.61-.11.16-.44.1-.6-.03-.16-.13-.19-.36-.08-.52.11-.16.33-.18.49-.06zM365.53 589.61c-.15.06-.45.02-.52-.14s.1-.37.26-.43c.15-.06.34.02.41.18.08.16.01.33-.15.39zM366.31 591.1c-.2-.02-.5-.2-.5-.4s.31-.33.51-.31c.2.02.36.19.36.39s-.17.34-.37.32z"/>
		<path fill="#FFF" d="M398.01 641.29c-1.49 7.87 9.75 2.56 1.83-.86 7.92 3.43 6.35-8.91-.26-2.01 6.61-6.9-5.61-9.22-1.99-.38-3.62-8.84-9.6 2.06-.97 1.77-8.63.29-.11 9.35 1.39 1.48z"/>
		<path fill="#FF9D00" d="M397.88 639.54c.05-.28.32-.46.6-.41.28.05.46.32.41.6-.05.28-.32.46-.6.41-.28-.05-.46-.32-.41-.6zM399.04 641.62c-.04-.1-.02-.27.07-.31s.21.08.25.17-.01.2-.1.24c-.09.04-.19-.01-.22-.1zM399.88 641.84c-.08-.11-.11-.35-.01-.44s.31.02.39.13c.08.11.06.27-.05.36s-.25.06-.33-.05zM398.31 636.94c.01.14-.09.36-.22.37s-.25-.18-.26-.32.1-.26.23-.28.24.09.25.23zM399.3 637.18c-.04.13-.21.3-.34.27-.13-.03-.17-.26-.13-.39.04-.13.18-.21.31-.18s.2.17.16.3zM396.45 640.12c.1-.03.27 0 .3.09.03.09-.09.21-.19.24s-.2-.02-.23-.11.03-.19.12-.22zM397.12 641.33c.06-.1.23-.2.33-.15.11.05.11.24.05.34-.06.1-.19.14-.29.08-.1-.05-.14-.17-.09-.27zM396.12 641.2c.1-.09.34-.15.43-.06.1.09.02.31-.09.4-.1.09-.27.09-.36-.01-.09-.09-.09-.24.02-.33zM396.51 638.64c.1.05.22.21.18.32s-.23.13-.33.08-.15-.18-.11-.29.16-.16.26-.11zM396.53 637.92c.11.09.21.31.13.42s-.3.07-.41-.02c-.11-.09-.13-.25-.05-.36.07-.1.22-.12.33-.04zM400.56 638.95c-.11.04-.31.01-.35-.09-.05-.11.07-.25.18-.29.11-.04.23.01.28.12.05.11 0 .22-.11.26zM401.09 639.98c-.14-.01-.34-.14-.34-.27s.21-.23.35-.22c.14.01.25.13.25.26s-.12.24-.26.23z"/>
		<path fill="none" stroke="#000" stroke-linecap="round" stroke-linejoin="round" stroke-miterlimit="10" stroke-width="6" d="M386.25 511.28s-5.65-6.65-.98-12.82c0 0-5.16-18.4-1.85-40.76"/>
	</g>
</svg>
