<svg xmlns="http://www.w3.org/2000/svg" id="wapuugotchi_svg__wapuu" x="0" y="0" version="1.1" viewBox="0 0 1000 1000">
	<g id="RightArm_1_">
		<path id="RightArm--bg" d="M436.6 504c-4.5 5.1-10.5 7.9-17 7.9-9.1 0-18.5-5.5-24.4-14.4-7.8-11.6-15.5-21.2-22.3-27.9l-4.8-4.7c-2-2-1.1-5.3 1.6-6.1l6.5-1.7c3.2-.9 6.4-2.7 9.1-5.5 3-3 4.8-6.7 5.2-10.4V430c0-1.3 1.5-2.1 2.5-1.3l9.3 6.9c.7.5 1.7 1.1 2.9 1.7 10.2 4.9 31.7 27.4 35.7 46.7 2.1 10.1-1.2 16.5-4.3 20z"/>
		<path id="RightArm" d="M402.1 444.1c-1.5-.7-2.9-1.5-4.2-2.4-.5 5.5-3 11-7.3 15.3-3.7 3.7-8.1 6.2-12.5 7.4 8.7 8.6 17 19.8 23.2 29.1 4.5 6.7 11.6 11.1 18.3 11.1 4.1 0 8.1-1.6 11.4-5.4 13-14.8-17.3-49.6-28.9-55.1z" class="st0" fill="#fc0"/>
	</g>
	<g id="Tail--group">
		<path id="Tail--bg" d="M599.1 649.5c-9 25.7-26.4 50-50.3 70.3-23.8 20.3-51.8 34.7-81 41.6-6.9 1.6-14.1 2.5-21.5 2.5-30.8 0-58.9-13.9-74.8-27-13.6-11.1-21.2-23.3-20.9-33.5.4-12 6.7-20.7 16.8-23.3 2.1-.5 4.3-.8 6.7-.8 11.2 0 27.2 6.7 38.5 25.7 7.8 13.2 22 20.1 41.1 20.1h1.2c40.7-.8 87.6-31.2 109.1-70.8 7.7-14.1 13.2-29.6 17.1-40.8 1.9-5.4 3.6-10.1 5.1-13.5 1.3-3.1 4.1-9.4 10.4-9.4 4.1 0 7.6 1.8 9.9 5 5.5 7.6 3.3 23.3-7.4 53.9z"/>
		<path id="Tail_2_" d="M570.5 657.8c-22.7 41.7-72.5 73.9-115.5 74.7h-1.4c-21.6 0-38.3-8.4-47.4-23.8-9-15.1-22-22.1-32.1-22.1-1.7 0-3.3.2-4.8.6-7 1.8-11 7.6-11.3 16.4-.3 7.7 6.6 18 18.2 27.5 16.8 13.7 43.2 25.3 70.1 25.3 6.6 0 13.3-.7 19.8-2.3 57.2-13.5 108.5-57.4 126-107.1 5.4-15.3 16.7-49.2 4.5-49.2-4.5.1-10.8 31.8-26.1 60z" class="st1" fill="#f80"/>
	</g>
	<g id="Body--group">
		<path id="Body--bg" d="M649.7 531.9c-2 24-6.7 45.1-13.9 62.9-8.5 20.9-20.3 36.6-35.1 46.8-34 23.4-64.8 26-76.4 26-1.3 0-2.5 0-3.8-.1-18.4-.8-26-4.4-32.7-7.5-5.9-2.8-11-5.2-24.9-5.7-37.5-1.5-67-9.9-83.1-23.6-.2-.1-.5-.4-.9-.7-4.8-3.5-19.3-14.3-25-24.7-5.3-9.7-6.2-22.3-2.3-31.4 13.4-31.2 24.5-40.5 33.5-48 3.6-3 6.4-5.3 8.8-8.7 2.2-3.1 3.8-7.1 4.9-12.2 0-.1 0-.2.1-.3 3.9-15 3.4-34.9 2.8-56-.2-5.7-.3-11.7-.4-17.5v-.1c0-18.6 9.6-40.7 25.7-59.2 18.1-20.8 41.6-33.6 66.1-36.2 20.2-2.1 34.3-3.1 45.9-3.1 43.7 0 58.6 14.8 82.2 48.4 7.5 10.6 12.1 22.5 16 33.7 11.1 30.4 15.9 76.5 12.5 117.2z"/>
		<path id="Body_1_" d="M358.5 576.7c-3 7-2.2 17.4 2 25 5.6 10.3 23 22.2 24.1 23.2 15.1 12.9 43.7 20.5 78.7 21.9 31.2 1.3 24.3 11.8 57.6 13.3 1.1 0 2.2.1 3.5.1 16.7 0 43.7-5 72.2-24.7 58-39.9 52.9-165.3 34-218.6-3.9-11.1-8.3-22.2-15.1-31.9-23.5-33.5-36.6-45.2-76.2-45.2-12.2 0-26.9 1.1-45.1 3.1-49.9 5.3-85.3 55.3-85.3 88.1.3 27.4 2.5 55.1-2.7 75.5-1.4 6.5-3.4 11.2-6 14.9-9.8 13.5-23.4 12.4-41.7 55.3z" class="st0" fill="#fc0"/>
	</g>
	<g id="RightHand--group">
		<g id="BeforeRightHand--group" />
		<path id="RightHand--bg" d="M390.6 457c-5.2 5.1-11.7 8.1-17.8 8.1-8.1 0-14-5.1-15.6-13.3-1-5.4.9-11.3 5.4-16.7 5.8-6.9 14.9-12 21.7-12.1h.2c1.3 0 2.6.2 3.8.6h.2l.1.1c4.5 1.8 7.9 6.2 9.1 11.8 1.4 7.5-1.2 15.5-7.1 21.5z"/>
		<path id="RightHand" d="M385.4 451.7c4.2-4.2 6-9.6 5-14.7-.6-3.1-2.3-5.5-4.6-6.4-.4-.1-.9-.2-1.3-.2h-.1c-4 0-11.3 3.6-16.1 9.4-1.8 2.1-4.6 6.3-3.8 10.6 1.1 6 5.1 7.3 8.3 7.3 4.1 0 8.8-2.2 12.6-6z" class="st0" fill="#fc0"/>
	</g>
	<g id="RightFootGroup">
		<path id="RightFoot--bg" d="M384.3 648c-2.4 3.7-6.4 5.7-11.5 5.7-1.9 0-4-.3-6.2-.8-25-6-59.3-43.6-63.6-64.5-1.9-9.4-.2-18 5-24.4 4.6-5.7 11.4-8.8 18.9-8.8 6.8 0 13.6 2.5 19.8 7.3 12.2 9.4 32.9 50.5 37.3 60.7 2.5 5.8 4.9 17.7.3 24.8z"/>
		<path id="RightFoot_1_" d="M310.1 586.8c3.8 18.2 36.2 53.6 58.1 58.8 1.7.4 3.2.6 4.5.6 3.4 0 4.7-1.3 5.4-2.3 2.3-3.5 1.5-12.1-1-17.9-6.1-13.9-25.3-50.3-35.1-57.8-4.9-3.8-10.2-5.8-15.3-5.8-5.3 0-10 2.2-13.2 6.1-3.6 4.7-4.8 11.2-3.4 18.3z" class="st0" fill="#fc0"/>
	</g>
	<g id="RightEar--group">
		<path id="RightEar--bg" d="M413.3 399.4c-.4 4.4-3.8 8.4-11.1 12.9-4.7 3-10.2 5.5-13.9 6.5-6.5 1.7-12.3 2.6-17.3 2.6-6.7 0-10.6-1.6-12.7-2.9-4.8-3-4.4-7.2-4.2-8.5.5-3.1 2.9-5.5 5.9-6.2 3.5-.8 13.5-5.8 23.6-12.6 4.2-2.9 10.7-4.8 16.1-4.8 5.8 0 9.1 2.2 10.8 4.1 2.1 2.4 3.1 5.5 2.8 8.9z"/>
		<path id="RightEar" d="M361.4 411.3c0 .3.4.7.9.9 1.1.7 3.6 1.8 8.8 1.8 4.3 0 9.5-.8 15.4-2.3 5.2-1.4 19.1-8.8 19.5-13 .1-1.3-.2-2.4-.9-3.2-1-1.1-2.8-1.7-5.3-1.7-3.9 0-8.9 1.5-11.9 3.5-8.5 5.7-20.5 12.5-26.1 13.7-.3.1-.4.2-.4.3z" class="st1" fill="#f80"/>
	</g>
	<g id="Head--group">
		<path id="Head--bg" d="M516.4 328.1c1.6 0 3.2 0 4.8.1 20.6.6 39.5 6.5 55.9 17 11.2 7.2 17.5 11.4 25.9 25.2 1.5 2.5 9 .8 7.9-1.1-10.1-17.6-17.5-22.3-29.8-30.3-17.7-11.4-37.8-17.6-59.7-18.2-1.6 0-3.3-.1-5-.1-1.6 0-3.3 0-4.9.1-24.3.6-47.8 6.6-67.8 17.1-20.2 10.6-37.1 26.1-48.9 44.7-7.7 12.3-10.3 23.9-7.4 33.5 2.4 7.8 7.9 12.7 12.3 14.6 1.4.6 2.9.9 4.7.9 9.3 0 34.7-9.3 45.7-24.8 8.4 4.5 17.6 6.7 28.1 6.7 12.6 0 25-3.2 36.4-6.9 3-1 3.8-2.2 3.9-4.1 0-1.3-1.2-3.6-3.8-3.5-.3 0-.7.1-1 .2-11.2 3.6-23.3 6.9-35.4 6.9-9.3 0-18.6-2-27.4-7.4-.6-.4-1.3-.5-1.9-.5-1.3 0-2.5.6-3.2 1.8l-.1.1c-7.9 14.3-33.3 24.1-41.2 24.1-.7 0-1.3-.1-1.7-.3-2.8-1.2-6.6-4.6-8.2-10-2.3-7.5 0-17 6.6-27.4 22.5-35.7 63.4-57.1 110.6-58.3 1.4-.1 3-.1 4.6-.1"/>
		<path id="Head" d="M516.6 399.4c-1-.4-2-.7-3-.3-19.7 6.3-42.5 12-62.8-.5-1.7-1.1-4-.5-5.1 1.2l-.1.1c-8.6 15.7-38.3 26-43 23.9-2.8-1.2-6.6-4.6-8.2-10-2.3-7.5 0-17 6.6-27.4 22.5-35.7 63.4-57.1 110.6-58.3 3.1-.1 6.3-.1 9.5 0 20.6.6 39.5 6.5 55.9 17 13.2 8.5 19.7 12.7 30.6 33.6 5.6 10.5-84.4 23.5-91 20.7z" class="st0" fill="#fc0"/>
	</g>
	<g id="LeftEar--group">
		<path id="LeftEar--bg" d="M701.4 357.1c-.5 1.7-1.2 3.4-2 5.2-5 10-17.7 23-38 29.1-4.5 1.4-9.3 2-14 2h-.1c-13 0-34.2-4.9-61.6-28.3-1.9-1.7-5.1-4.8-7.1-7-2.3-2.5-2.8-6.1-1.5-9.1s4.4-5.1 7.8-5.1h.5c13.9.8 30.1 1.2 48.4 1.2 8.1 0 14.8-.1 19.3-.1h4.5c7.4 0 13.3-.1 18.2-.1 8.1 0 13.7.1 17.1.2 2.9.1 5.6 1.5 7.3 3.9 1.5 2.3 2 5.2 1.2 8.1z"/>
		<path id="LeftEar" d="M590.4 359.4c25.7 21.9 45.1 26.5 56.8 26.5h.1c4 0 8-.6 11.9-1.7 18.1-5.4 29.2-16.6 33.5-25.3.8-1.5 1.2-2.8 1.5-3.9.4-1.3-.6-2.6-1.9-2.7-3.3-.1-8.9-.2-16.7-.2-5.4 0-11.6 0-18.2.1-3.3 0-12.2.2-23.9.2-13.9 0-31.7-.2-48.8-1.2h-.1c-.9 0-1.5 1.1-.8 1.8 2 2.2 5 5.1 6.6 6.4z" class="st1" fill="#f80"/>
	</g>
	<g id="Face--group">
		<path id="RightEye" d="M417.6 376.2c-4.1 0-7.4 3.3-7.4 7.4 0 9.9 14.8 9.9 14.8 0 0-4.1-3.3-7.4-7.4-7.4z"/>
		<path id="LeftEye" d="M503.2 355.7c-4.1 0-7.4 3.3-7.4 7.4 0 9.9 14.8 9.9 14.8 0 0-4.1-3.3-7.4-7.4-7.4z"/>
		<path id="Nose" d="M457.9 375.4c-7.4.8-12.3 2.5-15.6 4.9-5.9 4.4-4.1 9.9 2.5 10.7 6.6.8 7.1 1.2 13.2-3.3 6.5-4.9 7.3-13.1-.1-12.3z"/>
	</g>
	<g id="LeftLEg--group">
		<path id="LetLeg" d="M512.4 655.2c-4.6-5.2-3.7-15.7-1.9-29.4 2.6-19.8 5-34.5 25.4-50.8 24.4-19.5 62.2-15 76.2-.5 3.6 3.7 6.7 10.9 7.3 18.8.9 11.4-22.2 42.4-44.8 51.8-22.6 9.6-54 19.3-62.2 10.1z" class="st0" fill="#fc0"/>
		<path id="LeftLeg--bg_1_" d="M512.4 658.9c-1.2 0-2.3-.5-3-1.6-4.7-6.7-4.5-17.2-2.6-32 2.5-19 4.6-35.5 26.8-53.2 26.8-21.4 63.7-14 78.4.7 1.4 1.4 1.4 3.8 0 5.2-1.4 1.4-3.8 1.4-5.2 0-12.5-12.5-45.4-18.7-68.6-.1-18.9 15.1-21.4 28.2-24.1 48.4-1.4 11-2.3 21.8 1.3 26.7 1.2 1.7.8 4-.9 5.2-.6.5-1.4.7-2.1.7z"/>
	</g>
	<g id="LeftFoot--group">
		<path id="LeftFoot--bg" d="M523.7 651.2c-.4 1.9-2 9.1-6.7 16.2-7 10.6-17.8 16.5-30.4 16.5-7.2 0-12.9-2.1-16.8-6.2-7.5-7.8-7.1-21-6.7-33.7v-.1c.2-6.4.4-13.1-.4-18.5-.7-4.4-1.8-9.1-3.1-14.5-2.4-10.2-4.6-20.1-4.3-28.7.4-10.7 4.7-18.9 12.8-24.4 3.5-2.4 7.4-3.5 11.4-3.5 9.3 0 18.9 6.2 28.7 18.6 7.1 8.9 13.1 20 15.4 28.1 6.4 21.8 4.9 34.9.1 50.2z"/>
		<path id="LeftFoot_1_" d="M477 670.8c2 2.1 5.2 3.1 9.6 3.1 22.6 0 27-23.7 27.2-24.7 0-.2.1-.4.1-.6 4.4-13.9 5.7-25.2 0-44.8-3.7-13.2-21.1-39.4-34.4-39.4-2 0-4 .6-5.8 1.9-11.7 7.8-9.3 21.8-4.4 42.4 1.2 5.1 2.5 10.4 3.2 15.3 1 6.4.8 13.5.5 20.4-.2 10.6-.6 21.6 4 26.4z" class="st0" fill="#fc0"/>
	</g>
	<g id="LeftArm--group">
		<g id="BeforeLeftArm--group">
			<g class="tanabata_tanzaku">
				<path fill="#DD2C2C" d="M353.1 504.46c10.98-2.75 47.4-10.92 74.89-6.12.9.16 1.62.82 1.86 1.7 1.61 5.87 6.4 29.82-6.88 74.05-11.86 39.53-.43 84.63 3 96.47.44 1.5-.67 3.01-2.23 3.04-11.81.23-54.06.8-75.7-2.61-.81-.13-1.49-.68-1.81-1.43-2.45-5.8-11.06-33.15 5.28-104.08 8.3-36.03 3.14-51.92.09-57.57-.73-1.37-.01-3.07 1.5-3.45z"/>
				<path fill="#FF9D00" d="M376.79 551.93c-5.62 6.33-5.51 15.97.49 21.84 6.33 6.19 16.78 5.91 23.06-.98 6.33-6.94 5.53-17.39-1.49-23.01-6.64-5.32-16.39-4.23-22.06 2.15zm17.74 9.46-6.26 6.93-6.61-6.02 6.06-6.76 6.81 5.85z"/>
				<path fill="#FFB000" d="M379.02 553.9c-4.51 5.07-4.38 12.78.46 17.41 5.05 4.84 13.28 4.54 18.21-.88 4.96-5.45 4.39-13.67-1.09-18.15-5.24-4.28-13.04-3.47-17.58 1.62zm15.51 7.49-6.26 6.93-6.61-6.02 6.06-6.76 6.81 5.85z"/>
				<path fill="none" stroke="#000" stroke-linecap="round" stroke-linejoin="round" stroke-miterlimit="10" stroke-width="6" d="M353.1 504.46c10.98-2.75 47.4-10.92 74.89-6.12.9.16 1.62.82 1.86 1.7 1.61 5.87 6.4 29.82-6.88 74.05-11.86 39.53-.43 84.63 3 96.47.44 1.5-.67 3.01-2.23 3.04-11.81.23-54.06.8-75.7-2.61-.81-.13-1.49-.68-1.81-1.43-2.45-5.8-11.06-33.15 5.28-104.08 8.3-36.03 3.14-51.92.09-57.57-.73-1.37-.01-3.07 1.5-3.45z"/>
				<path fill="none" stroke="#000" stroke-linecap="round" stroke-linejoin="round" stroke-miterlimit="10" stroke-width="3" d="M390.39 511.04c.18 1.74-1.33 3.17-3.23 3.27-1.77.09-3.37-1.01-3.69-2.51-.33-1.58.82-3.16 2.72-3.49 2.05-.36 4.01.89 4.2 2.73z"/>
				<path fill="#FF941F" d="m392.98 659.51-5.91-5.23-1.77 1.97-5.72-5.14-4.22 4.67-2.19-2.05-4.19 4.61 5.38 5.2 1.74-1.93 5.7 5.43 4.4-4.93 2.47 2.26 4.31-4.86zm-18.85 2.19-3.4-3.27 2.65-2.93 1.2 1.13-1.72 1.9 2.22 2.11-.95 1.06zm1.45-4.12 1.23 1.15-.95 1.05-1.22-1.16.94-1.04zm5.95 7.56-4.65-4.4 1.73-1.93-2.25-2.1 3.46-3.84 4.7 4.25-1.7 1.89 2.29 2.1-3.58 4.03zm4.05-7.05 1.24 1.12-.92 1.03-1.24-1.13.92-1.02zm3.11 1.22-2.33-2.09.99-1.11 3.72 3.31-2.72 3.06-1.37-1.25 1.71-1.92z"/>
				<path fill="#FF941F" d="m400.24 659.36-6.27 7.1-1.38-1.25 4.85-5.48-7.91-6.89-.78.87 6.75 5.92-4.83 5.46 3.63 3.32 6.77-7.68 12.86.65-.31-1.39zm-28.92-6.31-.97-.91-5.48 6.01 5.88 5.77-.96 1.07-7.51-7.44-11.12-.52.08 1.22 10.66.53 8.09 8.07 2.55-2.82-5.94-5.79z"/>
				<path fill="#FF941F" d="m401.62 536.58-10.38.11.26-10.05 10.53-.36-.41 10.3zm-9.09-1.14 7.83-.1.29-7.73-7.91.24-.21 7.59zm-2.58 1.26-9.84.1.12-9.78 9.97-.34-.25 10.02zm-8.63-1.12 7.42-.1.17-7.52-7.49.23-.1 7.39z"/>
				<path fill="#FF941F" d="m396.31 531.36-11.86.27.21-11.72 12.05-.61-.4 12.06zm-10.61-.99 9.36-.24.29-9.48-9.48.45-.17 9.27zm-7.83 2.34-7.57.15v-3.37l4.25-.12v-1.02l-13.26.41-.01-1.16 14.46-.5-.03 3.44-4.26.11v1l5.25-.12.06-7.45 5.08-.21.03-2.23 1.22-.06-.05 3.48-5.1.19zm34.45-.7-8.87.18.33-7.92-5.62.21.12-3.61 1.33-.06-.08 2.33 5.66-.24-.35 7.98 6.16-.14.06-1.11-5.03.13.16-3.69 18.01-.61-.09 1.35-16.61.52-.05 1.1 5.07-.14z"/>
				<path fill="#FFF" d="M364.52 633.67c-2.63 13.88 17.2 4.52 3.23-1.52 13.97 6.05 11.2-15.71-.45-3.54 11.65-12.17-9.89-16.25-3.51-.67-6.38-15.59-16.93 3.64-1.72 3.13-15.2.51-.18 16.48 2.45 2.6z"/>
				<path fill="#FF9D00" d="M364.31 630.6c.09-.49.57-.81 1.06-.72.49.09.81.57.72 1.06-.09.49-.57.81-1.06.72-.49-.1-.82-.57-.72-1.06zM366.34 634.25c-.06-.17-.03-.48.13-.54.16-.07.37.13.44.3.06.17-.01.36-.17.43s-.33-.02-.4-.19zM367.83 634.64c-.14-.2-.2-.62-.02-.77.18-.15.54.03.68.23s.1.48-.08.63c-.18.15-.44.11-.58-.09zM365.06 626c.01.24-.16.63-.4.66-.24.03-.44-.31-.46-.56s.17-.46.4-.49c.25-.03.45.15.46.39zM366.8 626.42c-.07.23-.37.54-.6.48-.23-.06-.31-.45-.23-.68s.32-.38.55-.32c.23.06.35.29.28.52zM361.78 631.62c.17-.05.48 0 .53.16.06.16-.16.36-.33.42s-.36-.04-.41-.2c-.05-.16.04-.33.21-.38zM362.96 633.75c.1-.17.4-.36.59-.27.19.09.19.42.09.6-.1.17-.33.24-.52.15s-.26-.31-.16-.48zM361.19 633.52c.18-.16.59-.27.76-.1s.03.54-.15.7c-.18.16-.47.16-.64-.01s-.15-.43.03-.59zM361.89 629c.18.09.39.37.32.56-.08.19-.41.22-.59.14-.18-.09-.27-.31-.19-.51.07-.19.28-.28.46-.19zM361.91 627.74c.19.15.36.54.23.74-.14.19-.53.12-.72-.03-.19-.15-.23-.44-.1-.63.14-.2.4-.23.59-.08zM369.03 629.56c-.19.07-.54.02-.62-.17-.09-.19.12-.45.31-.52s.41.03.5.22c.08.19 0 .4-.19.47zM369.97 631.36c-.24-.02-.61-.24-.6-.48 0-.24.37-.4.61-.38.24.02.44.23.43.47 0 .24-.2.41-.44.39z"/>
				<path fill="#FFF" d="M390.51 611.84c-3.71 19.53 24.2 6.37 4.54-2.14 19.66 8.51 15.76-22.1-.63-4.98 16.4-17.12-13.92-22.88-4.94-.94-8.98-21.94-23.83 5.12-2.42 4.4-21.4.72-.26 23.19 3.45 3.66z"/>
				<path fill="#FF9D00" d="M390.2 607.52c.13-.69.8-1.14 1.49-1.01.69.13 1.14.8 1.01 1.49s-.8 1.14-1.49 1.01c-.69-.14-1.14-.8-1.01-1.49zM393.07 612.67c-.09-.24-.04-.67.18-.76.22-.09.53.19.61.43.09.24-.02.51-.24.6-.21.08-.46-.04-.55-.27zM395.16 613.21c-.2-.28-.28-.87-.02-1.08s.77.04.96.32c.2.28.15.68-.11.89-.26.21-.63.16-.83-.13zM391.26 601.05c.02.34-.23.89-.56.93-.33.04-.63-.44-.64-.79-.02-.34.24-.65.57-.69.33-.04.61.2.63.55zM393.71 601.65c-.1.33-.52.76-.85.68-.32-.08-.43-.63-.33-.96.1-.33.45-.53.77-.45.34.07.52.4.41.73zM386.65 608.96c.24-.07.67 0 .75.23.08.22-.22.51-.47.58-.24.07-.5-.05-.58-.28-.07-.22.06-.46.3-.53zM388.31 611.95c.14-.24.56-.51.83-.38s.27.6.13.84-.47.34-.73.21c-.27-.12-.37-.42-.23-.67zM385.82 611.64c.26-.23.84-.38 1.07-.14.24.24.04.77-.22.99-.26.23-.66.22-.9-.02-.22-.23-.21-.61.05-.83zM386.8 605.26c.25.12.55.52.44.79-.11.27-.57.31-.83.19-.25-.12-.37-.44-.27-.71.11-.26.41-.39.66-.27zM386.83 603.5c.27.22.51.76.32 1.04-.19.27-.75.17-1.01-.05-.27-.22-.33-.61-.13-.89.19-.27.56-.32.82-.1zM396.85 606.06c-.26.1-.76.03-.88-.23-.12-.27.17-.63.44-.73s.58.04.7.3.01.56-.26.66zM398.17 608.6c-.34-.03-.85-.34-.85-.68 0-.33.52-.56.86-.53.34.03.62.32.61.66.01.33-.27.58-.62.55z"/>
				<path fill="#FFF" d="M361.8 593.01c-2.18 11.49 14.24 3.75 2.67-1.26 11.57 5.01 9.28-13.01-.37-2.93 9.65-10.08-8.19-13.46-2.9-.55-5.29-12.91-14.02 3.01-1.42 2.59-12.61.42-.16 13.65 2.02 2.15z"/>
				<path fill="#FF9D00" d="M361.62 590.47c.08-.41.47-.67.87-.6.41.08.67.47.6.87-.08.41-.47.67-.87.6-.41-.07-.68-.47-.6-.87zM363.31 593.5c-.05-.14-.02-.39.1-.45s.31.11.36.25c.05.14-.01.3-.14.35-.13.06-.27-.01-.32-.15zM364.54 593.82c-.12-.17-.17-.51-.01-.64.15-.12.45.02.57.19.12.17.09.4-.07.52s-.38.1-.49-.07zM362.24 586.66c.01.2-.13.52-.33.55-.2.02-.37-.26-.38-.46s.14-.38.34-.41c.2-.03.36.12.37.32zM363.68 587.01c-.06.19-.31.44-.5.4s-.25-.37-.19-.56c.06-.19.26-.31.46-.27s.3.24.23.43zM359.53 591.32c.14-.04.39 0 .44.13.05.13-.13.3-.27.34-.14.04-.3-.03-.34-.16-.05-.13.03-.27.17-.31zM360.51 593.08c.08-.14.33-.3.49-.22.16.08.16.35.07.5-.08.14-.27.2-.43.12s-.22-.26-.13-.4zM359.04 592.89c.15-.13.49-.22.63-.08s.02.45-.13.58c-.15.13-.39.13-.53-.01-.13-.14-.12-.36.03-.49zM359.62 589.14c.15.07.32.31.26.47-.06.16-.34.18-.49.11-.15-.07-.22-.26-.16-.42s.24-.23.39-.16zM359.64 588.1c.16.13.3.45.19.61-.11.16-.44.1-.6-.03-.16-.13-.19-.36-.08-.52.11-.16.33-.18.49-.06zM365.53 589.61c-.15.06-.45.02-.52-.14s.1-.37.26-.43c.15-.06.34.02.41.18.08.16.01.33-.15.39zM366.31 591.1c-.2-.02-.5-.2-.5-.4s.31-.33.51-.31c.2.02.36.19.36.39s-.17.34-.37.32z"/>
				<path fill="#FFF" d="M398.01 641.29c-1.49 7.87 9.75 2.56 1.83-.86 7.92 3.43 6.35-8.91-.26-2.01 6.61-6.9-5.61-9.22-1.99-.38-3.62-8.84-9.6 2.06-.97 1.77-8.63.29-.11 9.35 1.39 1.48z"/>
				<path fill="#FF9D00" d="M397.88 639.54c.05-.28.32-.46.6-.41.28.05.46.32.41.6-.05.28-.32.46-.6.41-.28-.05-.46-.32-.41-.6zM399.04 641.62c-.04-.1-.02-.27.07-.31s.21.08.25.17-.01.2-.1.24c-.09.04-.19-.01-.22-.1zM399.88 641.84c-.08-.11-.11-.35-.01-.44s.31.02.39.13c.08.11.06.27-.05.36s-.25.06-.33-.05zM398.31 636.94c.01.14-.09.36-.22.37s-.25-.18-.26-.32.1-.26.23-.28.24.09.25.23zM399.3 637.18c-.04.13-.21.3-.34.27-.13-.03-.17-.26-.13-.39.04-.13.18-.21.31-.18s.2.17.16.3zM396.45 640.12c.1-.03.27 0 .3.09.03.09-.09.21-.19.24s-.2-.02-.23-.11.03-.19.12-.22zM397.12 641.33c.06-.1.23-.2.33-.15.11.05.11.24.05.34-.06.1-.19.14-.29.08-.1-.05-.14-.17-.09-.27zM396.12 641.2c.1-.09.34-.15.43-.06.1.09.02.31-.09.4-.1.09-.27.09-.36-.01-.09-.09-.09-.24.02-.33zM396.51 638.64c.1.05.22.21.18.32s-.23.13-.33.08-.15-.18-.11-.29.16-.16.26-.11zM396.53 637.92c.11.09.21.31.13.42s-.3.07-.41-.02c-.11-.09-.13-.25-.05-.36.07-.1.22-.12.33-.04zM400.56 638.95c-.11.04-.31.01-.35-.09-.05-.11.07-.25.18-.29.11-.04.23.01.28.12.05.11 0 .22-.11.26zM401.09 639.98c-.14-.01-.34-.14-.34-.27s.21-.23.35-.22c.14.01.25.13.25.26s-.12.24-.26.23z"/>
				<path fill="none" stroke="#000" stroke-linecap="round" stroke-linejoin="round" stroke-miterlimit="10" stroke-width="6" d="M386.25 511.28s-5.65-6.65-.98-12.82c0 0-5.16-18.4-1.85-40.76"/>
			</g>
		</g>
		<path id="LeftArm--bg" d="M478 413.3c-6.4 2.9-12.4 6.6-17.6 11.1-12.1 10.6-12.6 19.4-10.8 24.8 2.5 7.7 11.1 13.4 21.9 14.6 7.1.7 16.2-1.3 26.7-3.6 13.9-3.1 29.7-6.6 42.9-3.9 19.6 4.1 33.3 15 53.1 32.7l10.3 9.2c1.5 1.3 3.9 1.2 5.2-.4 1.3-1.5 1.2-3.9-.4-5.2l-2.9-2.6c-24-21.7-39.9-36-63.8-41-14.8-3.1-31.3.6-46 3.9-9.5 2.1-18.5 4.1-24.3 3.5-7.8-.8-14.1-4.6-15.7-9.5-1.5-4.7 1.6-10.7 8.7-17 20.7-18.2 59.1-23.7 87.5-12.5 4.7 1.9 7.4-5.1 2.7-6.9-11.4-4.4-24.6-6.6-37.7-6.2-10.1.4-30.5 4.8-39.8 9z"/>
		<path id="LeftArm" d="M615.4 451c11.7 12.2 17 60.3-6 41.6l-2.9-2.6c-24-21.7-39.9-36-63.8-41-14.8-3.1-31.3.6-46 3.9-9.5 2.1-18.5 4.1-24.3 3.5-7.8-.8-14.1-4.6-15.7-9.5-1.5-4.7 1.6-10.7 8.7-17 20.7-18.2 59.3-24 87.5-12.5 4.6 2 46.1 16.5 62.5 33.6z" class="st0" fill="#fc0"/>
	</g>
</svg>
