<svg xmlns="http://www.w3.org/2000/svg" viewBox="0 0 1000 1000">
	<g class="Ball--group">
		<path fill="red" fill-rule="evenodd"
			  d="M434.352 450.454c-.415.048-.782.279-1.064.579-.84.79-1.606 1.69-2.107 2.736-.321.705-.46 1.479-.543 2.244-.033.632-.043 1.268.024 1.897.114 1.064.375 2.133.945 3.05.44.705.995 1.35 1.67 1.837.688.492 1.571.777 2.415.589.683-.14 1.315-.478 1.867-.896a4.05 4.05 0 0 0 1.526-2.963c.073-1.283-.31-2.54-.777-3.72-.513-1.257-1.162-2.452-1.803-3.648a9.605 9.605 0 0 0-.763-1.181 1.612 1.612 0 0 0-1.39-.524z"/>
		<path fill="#520" fill-rule="evenodd"
			  d="M424.934 592.924c-1.088-.043-4.593-.248-7.79-.457-3.195-.208-7.818-.49-10.273-.624-9.658-.53-18.672-1.863-31.76-4.694-13.899-3.006-19.52-5.856-22.127-11.217-1.24-2.55-1.346-4.083-1.186-17.15.09-7.39.041-11.683-.156-13.573-.159-1.52-.357-4.76-.44-7.197-.142-4.172-.122-4.475.346-5.153.874-1.265 1.077-2.387 1.006-5.555-.06-2.682-.015-3.088.403-3.558.554-.625 1.28-.455 2.33-.876 2.54-1.018 4.854 2.557 4.854 2.846 0 .068.317 3.001-.51 3.511-.825.51-1.114.822-1.262 1.153-.406.905-2.115.654-1.004.866.798.152 1.113.213 4.319-.648.737-.197 2.848.418 4.122 2.907 2.028 3.962 2.683 5.731 5.66 5.488 2.18-.178 4.021-1.205 7.07-3.945 1.407-1.263 2.983-2.517 3.503-2.787 2.521-1.307 10.453-1.14 14.266.3 1.205.455 3.063.745 5.512 4.06 3.101 4.2 3.22 5.276 3.408 7.234.078.804.495 2.03.564 2.488.158 1.057.584 1.683 1.88 2.284 1.372.634 3.338 1.628 4.68.968 1.32-.65 2.955-2.438 3.623-3.965.689-1.572.872-4.615.355-5.873-.435-1.059-1.36-.384-4.768-1.671-1.342-.508-2-1.906-2.053-1.954-.054-.047.1-.612.34-1.254.56-1.488 3.044-4.074 4.702-4.893 1.161-.574 1.472-.609 5.08-.572 4.123.041 9.897.618 12.26 1.224 1.807.464 3.779 1.312 5.679 4.748 2.19 3.961 2.68 5.346 5.57 5.612 2.705.25 4.578-.895 7.112-4.346 1.887-2.568 2.74-3.174 4.54-3.222 1.202-.032 2.636-.266 3.113.54 1.372 2.32 1.454 2.286 4.19 3.32 2.647-.188 2.424.23 5.46 2.09 2.796 1.714 3.674 2.023 5.354 1.881 1.148-.096 1.673-.362 4.282-2.16 3.873-2.67 4.47-2.905 7.036-2.765 2.536.139 4.837.662 6.215 2.18.52.574 2.105 2.325 2.843 3.764 1.591 3.102 2.807 5.046 4.206 5.472.798.243 1.102.845 1.91.444 1.422-.706 1.24-2.065 1.074-5.52-.07-1.45-.183-4.193-.521-5.96-.828-4.329 1.427-12.494 2.017-12.494.378 0 1.983 2.634 2.74 6.103.439 2.005 1.318 4.494 1.572 5.156.427 1.108.448 2.083.435 11.389-.008 5.56-.414 12.915-.53 16.51-.19 5.846-.402 6.796-.97 8.873-.348 1.277-1.555 2.554-1.902 3.252-1.738 3.485-5.748 6.325-12.573 8.904-11.086 4.19-33.727 7.603-55.05 8.301l-6.553.217a69.35 69.35 0 0 1-4.204-.003z"/>
		<path fill="#f9f9f9" fill-rule="evenodd"
			  d="M349.89 499.804c-2.125.9-1.987 3.738-2.501 5.651-.805 6.187.398 12.415.138 18.561.167 2.083 3.013 1.865 3.43.017 1.02-2.825 4.91-2.505 6.81-.823 1.606 1.283 2.973 3.001 3.398 5.02.802 1.3 2.748.966 3.383 2.51 1.875 2.294 2.7 6.315 6.14 6.73 3.63-.146 5.94-3.535 8.72-5.433 3.655-2.925 8.694-2.033 13.015-1.81 2.985.16 6.054 1.226 7.74 3.842 2.068 2.462 3.756 5.226 5.498 7.89 1.64 1.141.523 5.932 2.383 6.497 1.593.654 6.818-6.633 5.473-8.05-1.842-1.46-4.758-1.48-6.23-3.374.033-3.792 3.202-6.831 6.361-8.44 4.419-1.317 8.934-.356 13.463-.074 3.038.447 6.783.45 8.613 3.392 2.14 2.603 3.15 7.125 7.12 7.492 4.134-.132 5.257-5.036 8.452-6.823 1.97-.975 4.994-1.462 6.229.874.63 1.778 2.496 2.435 4.237 2.14 3.723.018 6.314 3.42 9.831 3.98 3.484-.8 5.88-4.067 9.462-4.747 4.835-.917 10.068 1.753 11.991 6.333 1.045 1.56 1.577 3.954 3.558 4.573 2.124.067 1.97-2.377 1.733-3.838-.564-5.93-.68-12.135 1.015-18.052.71-1.903 3.522-.736 3.844.895 1.387 2.584 1.28 5.675 2.479 8.293 1.202 1.57 3.363.062 3.23-1.619 1.041-6.853-.292-13.794-.997-20.617-.568-3.206-.427-6.365-1.266-9.483-1.33-2.055-3.843-.206-5.487.411-11.353 5.377-23.135 10.302-35.614 11.923-16.106 2.152-32.646 2.08-48.944 1.104-18.055-1.24-36.315-3.503-53.236-10.193-4.362-1.5-8.598-3.5-13.016-4.757-.146.056-.308-.04-.455.005z"/>
		<path fill="#f9f9f9" fill-rule="evenodd"
			  d="M438.275 480.818c-1.514 1.727-.313 4.243-.924 6.317-.52 3.21-1.011 7.404-4.403 8.84-2.548.5-3.04-2.708-3.48-4.52-.783-3.159-.185-6.447-.347-9.605-.863-2.005-3.596-.797-5.313-1.082-14.361.396-28.91-.202-43.057 2.738-4.476 1.072-9.144 2.264-12.83 5.141-4.553 2.078-9.238 3.913-13.438 6.687-1.6.455-3.263 2.586-1.313 3.72 12.15 4.905 24.582 9.4 37.6 11.334 11.724 1.791 23.56 2.985 35.412 3.426 10.684-.046 21.396.052 32.051-.796 9.256-.757 18.433-2.635 27.066-6.108 6.527-2.587 13.19-5.064 19.177-8.775 1.908-1.103.968-3.662-.64-4.544-5.904-3.997-12.937-5.871-19.721-7.795-14.707-3.797-30.139-4.296-45.106-5.152l-.734.174z"/>
		<path fill="none" stroke="#0b0a0a" stroke-width="4.383"
			  d="M368.275 487.852c-4.77 1.783-9.232 3.726-13.567 6.425-2.6 1.619-5.134 3.18-6.624 5.965-.909 1.696-1.251 3.11-1.51 5.055-.916 6.894.909 14.064.077 21.015-.234 1.959-.893 7.5 2.47 7.093.899-.108 1.526-.702 1.936-1.517 1.23-2.446-.743-6.327 1.106-8.462.718-.83 1.48-.895 2.545-.823 2.369.16 4.024 2.575 5.373 4.242 1.343 1.66-5.1 3.398-3.03 3.848 2.119.461 4.671-1.812 6.283-.306 2.356 2.202 2.8 7.118 6.752 7.768 1.53.252 3.189-.373 4.522-1.182 2.542-1.543 4.256-4.167 6.917-5.506 2.905-1.462 15.33-1.084 17.119 1.763 2.002 3.188 6.335 7.23 6.33 10.64 0 .916-.11 1.56.229 2.394.608 1.502 1.987 2.556 3.762 2.792 2.391.32 4.67-1.653 5.59-3.856.656-1.574.714-2.93.449-4.788-.186-1.303-7.147-2.515-7.08-3.725.134-2.392 2.12-4.771 3.98-6.203 1.058-.816 2.102-1.405 3.457-1.677 2.564-.512 16.739.305 18.531 2.04.722.698 1.222 1.28 1.742 2.116 1.743 2.807 3.019 6.881 7.04 7.157 1.933.132 3.002-.572 4.246-1.658 2.011-1.757 2.713-4.875 5.598-5.634 6.95-1.828 2.108 4.242 9.398 3.548 3.782-.36 7.859 5.55 11.173 3.75 3.301-1.793 5.718-4.805 9.577-4.78 2.807.02 6.006 1.038 7.894 3.202 1.572 1.803 2.226 4.188 3.559 6.108.694 1 2.05 2.833 3.43 2.768 1.568-.074 1.61-2.72 1.61-3.832 0-3.347-.887-6.747-.483-10.109.135-1.13.533-9.705 1.824-9.966 1.472-.297 2.09 1.37 2.504 2.53 1.112 3.11 1.318 7.271 2.806 10.108 1.76-.515 2.635-.827 3.409-2.926.624-1.692.82-3.764.842-5.586.043-3.298-.26-6.877-.572-10.11-.442-4.566-1.39-8.938-1.548-13.3-.027-.752-.04-1.163-.18-1.863-.134-.67-.246-1.184-.38-1.862-.23-1.157-1.765-1.807-1.21-2.926 2.182-4.394-8.21-9.32-25.634-13.462-15.31-3.639-42.727-3.987-43.55-4.441m-69.647 8.392c13.416-10.336 50.609-7.015 70.514-8.435m-88.22 18.797c2.968 1.316 19.276 7.54 22.628 8.534 8.88 2.635 18.21 4.368 27.4 5.471 22.703 2.725 45.948 3.382 68.635.113 10.382-1.496 28.985-9.09 38.145-14.437m-156.526 35.648c0 2.294.179 7.266.577 11.44.08.84.21 1.526.22 2.393.015 1.161 0 2.03 0 3.193v11.173c0 .915-.088 1.532-.19 2.394-.116.982-.077 1.565-.075 2.66 0 .83 0 1.295.113 2.128.091.695.137 1.177.154 1.863a11.2 11.2 0 0 0 .366 2.66c.8 3.203 2.962 5.833 5.753 7.65 4.168 2.714 9.25 4.195 14.099 5.272 5.517 1.226 10.805 2.342 16.493 3.284 4.959.821 9.84 1.476 14.632 1.86.58.047 1.018.06 1.596.136.682.09 1.133.143 1.862.152 7.958.108 16.381 1.312 24.474 1.054 13.386-.427 26.86-1.339 39.904-3.512 8.537-1.423 17.993-3.268 25.804-7.184 2.767-1.387 5.642-3.548 7.263-6.052 1.113-1.72 2.147-5.664 2.427-7.715a15.11 15.11 0 0 0 .152-2.128v-1.862c0-1.488-.102-3.815.076-5.32.135-1.151.19-1.78.19-2.927v-20.218"/>
		<path fill="green" fill-rule="evenodd"
			  d="M432.078 495.578c-.185-.057-.421-.206-.67-.423-.892-.775-1.517-2.314-1.855-4.572-.102-.678-.112-1.165-.097-4.434.023-5.077.137-7.362.468-9.412.07-.433.151-1.315.181-1.958.03-.658.1-1.372.159-1.632a13.48 13.48 0 0 1 1.334-3.463c.635-1.125 1.194-1.776 1.845-2.149.335-.191.42-.216.653-.194.693.066 1.689.66 2.108 1.256.61.866.75 1.471.835 3.598.15 3.773.338 6.102.715 8.895.185 1.365.202 1.634.197 3.073-.009 2.547-.184 3.9-.758 5.86-.727 2.477-1.612 4.022-2.83 4.937-.299.226-.685.47-.858.545-.396.169-1.014.2-1.427.073z"/>
		<path fill="none" stroke="#0b0a0a" stroke-width="2.183"
			  d="M434.565 446.397c0 1.615.355 2.51-.121 3.679-.236.58-.804.999-1.188 1.399-.649.675-1.446 1.666-1.737 2.636-.393 1.314-.4 2.669-.178 3.99.195 1.157.619 2.158 1.502 3.106.536.577 1.012.953 1.721 1.147.76.207 1.437-.02 2.118-.41.67-.385 1.087-.818 1.423-1.459 1.256-2.39-.874-6.07-2.014-8.235-.486-.922-.865-1.381-1.26-1.863m-.267 12.237.018 1.937m-.512 2.573c-2.8-.486-4.537 5.34-4.674 7.323-.04.574 0 1.005-.047 1.597-.042.605-.13.965-.198 1.596-.278 2.592-.31 5.078-.31 7.98 0 1.255-.067 1.946-.036 3.193.06 2.4.593 7.012 3.229 7.588 1.259.275 2.173-.509 2.897-1.232 1.395-1.392 2.207-4.264 2.602-6.356.275-1.455.306-2.536.348-4.257.031-1.303-.038-1.928-.186-3.192-.37-3.14-.536-6.55-.612-9.577-.03-1.198-.378-4.24-3.62-4.723m-4.56 13.709-.332 7.774"/>
	</g>
</svg>
