<?xml version="1.0" encoding="UTF-8" standalone="no"?>
<svg
   id="wapuugotchi_svg__wapuu"
   x="0"
   y="0"
   version="1.1"
   viewBox="0 0 1000 1000"
   sodipodi:docname="preview.svg"
   xml:space="preserve"
   inkscape:version="1.3.2 (1:1.3.2+202311252150+091e20ef0f)"
   xmlns:inkscape="http://www.inkscape.org/namespaces/inkscape"
   xmlns:sodipodi="http://sodipodi.sourceforge.net/DTD/sodipodi-0.dtd"
   xmlns="http://www.w3.org/2000/svg"
   xmlns:svg="http://www.w3.org/2000/svg"><defs
     id="defs35" /><sodipodi:namedview
     id="namedview35"
     pagecolor="#ffffff"
     bordercolor="#666666"
     borderopacity="1.0"
     inkscape:showpageshadow="2"
     inkscape:pageopacity="0.0"
     inkscape:pagecheckerboard="0"
     inkscape:deskcolor="#d1d1d1"
     inkscape:zoom="1.194"
     inkscape:cx="565.32663"
     inkscape:cy="634.42211"
     inkscape:window-width="1523"
     inkscape:window-height="1237"
     inkscape:window-x="124"
     inkscape:window-y="77"
     inkscape:window-maximized="0"
     inkscape:current-layer="wapuugotchi_type__wapuu" /><style
     id="animation--foot_wiggle_1">.wapuugotchi_svg__flowerpot { transform-origin: 41.5% 55%; animation: wapuugotchi_svg__flowerpot_1 5s infinite 0s normal ease-in-out forwards}@keyframes wapuugotchi_svg__flowerpot_1 { 100%, 0% {transform: rotate(0deg)} 50% {transform: rotate(20deg)} }</style><g
     id="wapuugotchi_type__wapuu"><g
       id="RightArm--group"><path
         d="M436.6 504c-4.5 5.1-10.5 7.9-17 7.9-9.1 0-18.5-5.5-24.4-14.4-7.8-11.6-15.5-21.2-22.3-27.9l-4.8-4.7c-2-2-1.1-5.3 1.6-6.1l6.5-1.7c3.2-.9 6.4-2.7 9.1-5.5 3-3 4.8-6.7 5.2-10.4V430c0-1.3 1.5-2.1 2.5-1.3l9.3 6.9c.7.5 1.7 1.1 2.9 1.7 10.2 4.9 31.7 27.4 35.7 46.7 2.1 10.1-1.2 16.5-4.3 20z"
         id="path1" /><path
         fill="#fc0"
         d="M402.1 444.1c-1.5-.7-2.9-1.5-4.2-2.4-.5 5.5-3 11-7.3 15.3-3.7 3.7-8.1 6.2-12.5 7.4 8.7 8.6 17 19.8 23.2 29.1 4.5 6.7 11.6 11.1 18.3 11.1 4.1 0 8.1-1.6 11.4-5.4 13-14.8-17.3-49.6-28.9-55.1z"
         class="st0"
         id="path2" /></g><g
       id="Tail--group"><path
         d="M599.1 649.5c-9 25.7-26.4 50-50.3 70.3-23.8 20.3-51.8 34.7-81 41.6-6.9 1.6-14.1 2.5-21.5 2.5-30.8 0-58.9-13.9-74.8-27-13.6-11.1-21.2-23.3-20.9-33.5.4-12 6.7-20.7 16.8-23.3 2.1-.5 4.3-.8 6.7-.8 11.2 0 27.2 6.7 38.5 25.7 7.8 13.2 22 20.1 41.1 20.1h1.2c40.7-.8 87.6-31.2 109.1-70.8 7.7-14.1 13.2-29.6 17.1-40.8 1.9-5.4 3.6-10.1 5.1-13.5 1.3-3.1 4.1-9.4 10.4-9.4 4.1 0 7.6 1.8 9.9 5 5.5 7.6 3.3 23.3-7.4 53.9z"
         id="path3" /><path
         fill="#f80"
         d="M570.5 657.8c-22.7 41.7-72.5 73.9-115.5 74.7h-1.4c-21.6 0-38.3-8.4-47.4-23.8-9-15.1-22-22.1-32.1-22.1-1.7 0-3.3.2-4.8.6-7 1.8-11 7.6-11.3 16.4-.3 7.7 6.6 18 18.2 27.5 16.8 13.7 43.2 25.3 70.1 25.3 6.6 0 13.3-.7 19.8-2.3 57.2-13.5 108.5-57.4 126-107.1 5.4-15.3 16.7-49.2 4.5-49.2-4.5.1-10.8 31.8-26.1 60z"
         class="st1"
         id="path4" /></g><g
       id="Body--group"><path
         d="M649.7 531.9c-2 24-6.7 45.1-13.9 62.9-8.5 20.9-20.3 36.6-35.1 46.8-34 23.4-64.8 26-76.4 26-1.3 0-2.5 0-3.8-.1-18.4-.8-26-4.4-32.7-7.5-5.9-2.8-11-5.2-24.9-5.7-37.5-1.5-67-9.9-83.1-23.6-.2-.1-.5-.4-.9-.7-4.8-3.5-19.3-14.3-25-24.7-5.3-9.7-6.2-22.3-2.3-31.4 13.4-31.2 24.5-40.5 33.5-48 3.6-3 6.4-5.3 8.8-8.7 2.2-3.1 3.8-7.1 4.9-12.2 0-.1 0-.2.1-.3 3.9-15 3.4-34.9 2.8-56-.2-5.7-.3-11.7-.4-17.5v-.1c0-18.6 9.6-40.7 25.7-59.2 18.1-20.8 41.6-33.6 66.1-36.2 20.2-2.1 34.3-3.1 45.9-3.1 43.7 0 58.6 14.8 82.2 48.4 7.5 10.6 12.1 22.5 16 33.7 11.1 30.4 15.9 76.5 12.5 117.2z"
         id="path5" /><path
         fill="#fc0"
         d="M358.5 576.7c-3 7-2.2 17.4 2 25 5.6 10.3 23 22.2 24.1 23.2 15.1 12.9 43.7 20.5 78.7 21.9 31.2 1.3 24.3 11.8 57.6 13.3 1.1 0 2.2.1 3.5.1 16.7 0 43.7-5 72.2-24.7 58-39.9 52.9-165.3 34-218.6-3.9-11.1-8.3-22.2-15.1-31.9-23.5-33.5-36.6-45.2-76.2-45.2-12.2 0-26.9 1.1-45.1 3.1-49.9 5.3-85.3 55.3-85.3 88.1.3 27.4 2.5 55.1-2.7 75.5-1.4 6.5-3.4 11.2-6 14.9-9.8 13.5-23.4 12.4-41.7 55.3z"
         class="st0"
         id="path6" /></g><g
       id="RightFoot--group"><path
         d="M384.3 648c-2.4 3.7-6.4 5.7-11.5 5.7-1.9 0-4-.3-6.2-.8-25-6-59.3-43.6-63.6-64.5-1.9-9.4-.2-18 5-24.4 4.6-5.7 11.4-8.8 18.9-8.8 6.8 0 13.6 2.5 19.8 7.3 12.2 9.4 32.9 50.5 37.3 60.7 2.5 5.8 4.9 17.7.3 24.8z"
         id="path7" /><path
         fill="#fc0"
         d="M310.1 586.8c3.8 18.2 36.2 53.6 58.1 58.8 1.7.4 3.2.6 4.5.6 3.4 0 4.7-1.3 5.4-2.3 2.3-3.5 1.5-12.1-1-17.9-6.1-13.9-25.3-50.3-35.1-57.8-4.9-3.8-10.2-5.8-15.3-5.8-5.3 0-10 2.2-13.2 6.1-3.6 4.7-4.8 11.2-3.4 18.3z"
         class="st0"
         id="path8" /></g><g
       id="FullHead--group"><g
         id="RightEar--group"><path
           d="M413.3 399.4c-.4 4.4-3.8 8.4-11.1 12.9-4.7 3-10.2 5.5-13.9 6.5-6.5 1.7-12.3 2.6-17.3 2.6-6.7 0-10.6-1.6-12.7-2.9-4.8-3-4.4-7.2-4.2-8.5.5-3.1 2.9-5.5 5.9-6.2 3.5-.8 13.5-5.8 23.6-12.6 4.2-2.9 10.7-4.8 16.1-4.8 5.8 0 9.1 2.2 10.8 4.1 2.1 2.4 3.1 5.5 2.8 8.9z"
           id="path9" /><path
           fill="#f80"
           d="M361.4 411.3c0 .3.4.7.9.9 1.1.7 3.6 1.8 8.8 1.8 4.3 0 9.5-.8 15.4-2.3 5.2-1.4 19.1-8.8 19.5-13 .1-1.3-.2-2.4-.9-3.2-1-1.1-2.8-1.7-5.3-1.7-3.9 0-8.9 1.5-11.9 3.5-8.5 5.7-20.5 12.5-26.1 13.7-.3.1-.4.2-.4.3z"
           class="st1"
           id="path10" /></g><g
         id="Head--group"><path
           d="M516.4 328.1c1.6 0 3.2 0 4.8.1 20.6.6 39.5 6.5 55.9 17 11.2 7.2 17.5 11.4 25.9 25.2 1.5 2.5 9 .8 7.9-1.1-10.1-17.6-17.5-22.3-29.8-30.3-17.7-11.4-37.8-17.6-59.7-18.2-1.6 0-3.3-.1-5-.1-1.6 0-3.3 0-4.9.1-24.3.6-47.8 6.6-67.8 17.1-20.2 10.6-37.1 26.1-48.9 44.7-7.7 12.3-10.3 23.9-7.4 33.5 2.4 7.8 7.9 12.7 12.3 14.6 1.4.6 2.9.9 4.7.9 9.3 0 34.7-9.3 45.7-24.8 8.4 4.5 17.6 6.7 28.1 6.7 12.6 0 25-3.2 36.4-6.9 3-1 3.8-2.2 3.9-4.1 0-1.3-1.2-3.6-3.8-3.5-.3 0-.7.1-1 .2-11.2 3.6-23.3 6.9-35.4 6.9-9.3 0-18.6-2-27.4-7.4-.6-.4-1.3-.5-1.9-.5-1.3 0-2.5.6-3.2 1.8l-.1.1c-7.9 14.3-33.3 24.1-41.2 24.1-.7 0-1.3-.1-1.7-.3-2.8-1.2-6.6-4.6-8.2-10-2.3-7.5 0-17 6.6-27.4 22.5-35.7 63.4-57.1 110.6-58.3 1.4-.1 3-.1 4.6-.1"
           id="path11" /><path
           fill="#fc0"
           d="M516.6 399.4c-1-.4-2-.7-3-.3-19.7 6.3-42.5 12-62.8-.5-1.7-1.1-4-.5-5.1 1.2l-.1.1c-8.6 15.7-38.3 26-43 23.9-2.8-1.2-6.6-4.6-8.2-10-2.3-7.5 0-17 6.6-27.4 22.5-35.7 63.4-57.1 110.6-58.3 3.1-.1 6.3-.1 9.5 0 20.6.6 39.5 6.5 55.9 17 13.2 8.5 19.7 12.7 30.6 33.6 5.6 10.5-84.4 23.5-91 20.7z"
           class="st0"
           id="path12" /></g><g
         id="LeftEar--group"><path
           d="M701.4 357.1c-.5 1.7-1.2 3.4-2 5.2-5 10-17.7 23-38 29.1-4.5 1.4-9.3 2-14 2h-.1c-13 0-34.2-4.9-61.6-28.3-1.9-1.7-5.1-4.8-7.1-7-2.3-2.5-2.8-6.1-1.5-9.1s4.4-5.1 7.8-5.1h.5c13.9.8 30.1 1.2 48.4 1.2 8.1 0 14.8-.1 19.3-.1h4.5c7.4 0 13.3-.1 18.2-.1 8.1 0 13.7.1 17.1.2 2.9.1 5.6 1.5 7.3 3.9 1.5 2.3 2 5.2 1.2 8.1z"
           id="path13" /><path
           fill="#f80"
           d="M590.4 359.4c25.7 21.9 45.1 26.5 56.8 26.5h.1c4 0 8-.6 11.9-1.7 18.1-5.4 29.2-16.6 33.5-25.3.8-1.5 1.2-2.8 1.5-3.9.4-1.3-.6-2.6-1.9-2.7-3.3-.1-8.9-.2-16.7-.2-5.4 0-11.6 0-18.2.1-3.3 0-12.2.2-23.9.2-13.9 0-31.7-.2-48.8-1.2h-.1c-.9 0-1.5 1.1-.8 1.8 2 2.2 5 5.1 6.6 6.4z"
           class="st1"
           id="path14" /></g><g
         id="Face--group"><path
           d="M417.6 376.2c-4.1 0-7.4 3.3-7.4 7.4 0 9.9 14.8 9.9 14.8 0 0-4.1-3.3-7.4-7.4-7.4zM503.2 355.7c-4.1 0-7.4 3.3-7.4 7.4 0 9.9 14.8 9.9 14.8 0 0-4.1-3.3-7.4-7.4-7.4z"
           id="path15" /><path
           id="Face--group__nose"
           d="M457.9 375.4c-7.4.8-12.3 2.5-15.6 4.9-5.9 4.4-4.1 9.9 2.5 10.7 6.6.8 7.1 1.2 13.2-3.3 6.5-4.9 7.3-13.1-.1-12.3z" /></g></g><g
       id="LeftLeg--group"><path
         fill="#fc0"
         d="M512.4 655.2c-4.6-5.2-3.7-15.7-1.9-29.4 2.6-19.8 5-34.5 25.4-50.8 24.4-19.5 62.2-15 76.2-.5 3.6 3.7 6.7 10.9 7.3 18.8.9 11.4-22.2 42.4-44.8 51.8-22.6 9.6-54 19.3-62.2 10.1z"
         class="st0"
         id="path16" /><path
         d="M512.4 658.9c-1.2 0-2.3-.5-3-1.6-4.7-6.7-4.5-17.2-2.6-32 2.5-19 4.6-35.5 26.8-53.2 26.8-21.4 63.7-14 78.4.7 1.4 1.4 1.4 3.8 0 5.2-1.4 1.4-3.8 1.4-5.2 0-12.5-12.5-45.4-18.7-68.6-.1-18.9 15.1-21.4 28.2-24.1 48.4-1.4 11-2.3 21.8 1.3 26.7 1.2 1.7.8 4-.9 5.2-.6.5-1.4.7-2.1.7z"
         id="path17" /></g><g
       id="LeftArm--group"><path
         d="M478 413.3c-6.4 2.9-12.4 6.6-17.6 11.1-12.1 10.6-12.6 19.4-10.8 24.8 2.5 7.7 11.1 13.4 21.9 14.6 7.1.7 16.2-1.3 26.7-3.6 13.9-3.1 29.7-6.6 42.9-3.9 19.6 4.1 33.3 15 53.1 32.7l10.3 9.2c1.5 1.3 3.9 1.2 5.2-.4 1.3-1.5 1.2-3.9-.4-5.2l-2.9-2.6c-24-21.7-39.9-36-63.8-41-14.8-3.1-31.3.6-46 3.9-9.5 2.1-18.5 4.1-24.3 3.5-7.8-.8-14.1-4.6-15.7-9.5-1.5-4.7 1.6-10.7 8.7-17 20.7-18.2 59.1-23.7 87.5-12.5 4.7 1.9 7.4-5.1 2.7-6.9-11.4-4.4-24.6-6.6-37.7-6.2-10.1.4-30.5 4.8-39.8 9z"
         id="path32" /><path
         fill="#fc0"
         d="M615.4 451c11.7 12.2 17 60.3-6 41.6l-2.9-2.6c-24-21.7-39.9-36-63.8-41-14.8-3.1-31.3.6-46 3.9-9.5 2.1-18.5 4.1-24.3 3.5-7.8-.8-14.1-4.6-15.7-9.5-1.5-4.7 1.6-10.7 8.7-17 20.7-18.2 59.3-24 87.5-12.5 4.6 2 46.1 16.5 62.5 33.6z"
         class="st0"
         id="path33" /></g><g
       id="RightHand--group"><path
         d="M390.6 457c-5.2 5.1-11.7 8.1-17.8 8.1-8.1 0-14-5.1-15.6-13.3-1-5.4.9-11.3 5.4-16.7 5.8-6.9 14.9-12 21.7-12.1h.2c1.3 0 2.6.2 3.8.6h.2l.1.1c4.5 1.8 7.9 6.2 9.1 11.8 1.4 7.5-1.2 15.5-7.1 21.5z"
         id="path34" /><path
         fill="#fc0"
         d="M385.4 451.7c4.2-4.2 6-9.6 5-14.7-.6-3.1-2.3-5.5-4.6-6.4-.4-.1-.9-.2-1.3-.2h-.1c-4 0-11.3 3.6-16.1 9.4-1.8 2.1-4.6 6.3-3.8 10.6 1.1 6 5.1 7.3 8.3 7.3 4.1 0 8.8-2.2 12.6-6z"
         class="st0"
         id="path35" /></g><g
       id="g44"
       transform="translate(-364.94147,39.856928)"><path
         style="fill:#ff0000;fill-rule:evenodd;stroke-width:0.0442127;stroke-dasharray:none"
         d="m 796.4118,407.5919 c -0.415,0.0484 -0.78206,0.27903 -1.06384,0.5791 -0.84089,0.79037 -1.60556,1.68972 -2.10697,2.73647 -0.32143,0.70492 -0.45998,1.47828 -0.54291,2.24384 -0.0326,0.63124 -0.0431,1.26734 0.0242,1.89669 0.11421,1.06389 0.37505,2.13349 0.94444,3.05087 0.44019,0.70405 0.99487,1.34835 1.67029,1.83614 0.68794,0.49214 1.57139,0.77681 2.41477,0.589 0.6835,-0.13942 1.31506,-0.47768 1.86727,-0.89645 0.9049,-0.70689 1.471,-1.81681 1.5261,-2.96253 0.0732,-1.28302 -0.3098,-2.53943 -0.7772,-3.71924 -0.51245,-1.25777 -1.16236,-2.45321 -1.80266,-3.649 -0.23168,-0.40717 -0.47434,-0.81222 -0.76315,-1.18118 -0.34282,-0.38968 -0.87626,-0.58619 -1.39036,-0.52371 z"
         id="path44" /><path
         style="fill:#552200;fill-rule:evenodd;stroke-width:0.595581;stroke-dasharray:none"
         d="m 786.99351,550.06194 c -1.08795,-0.0427 -4.59291,-0.24811 -7.78877,-0.45658 -3.19588,-0.20846 -7.81924,-0.48943 -10.27413,-0.62437 -9.65793,-0.53087 -18.67171,-1.86311 -31.76051,-4.69422 -13.89811,-3.00614 -19.51985,-5.85598 -22.12593,-11.21635 -1.24032,-2.55117 -1.34626,-4.08295 -1.18615,-17.15019 0.0906,-7.39021 0.0412,-11.68274 -0.15614,-13.57326 -0.15865,-1.52071 -0.35656,-4.75947 -0.43973,-7.19727 -0.14233,-4.17172 -0.12203,-4.47469 0.34632,-5.15281 0.87359,-1.26502 1.07658,-2.38666 1.00524,-5.55452 -0.0604,-2.68285 -0.015,-3.08831 0.40284,-3.55848 0.55461,-0.62474 1.27981,-0.45471 2.33028,-0.87591 2.53968,-1.0183 4.85427,2.55685 4.85427,2.84642 0,0.0673 0.31688,3.0008 -0.50932,3.51099 -0.82621,0.5102 -1.11493,0.82204 -1.26305,1.15249 -0.40563,0.90501 -2.11488,0.6538 -1.0036,0.86573 0.79819,0.15214 1.11287,0.21319 4.31892,-0.64717 0.7373,-0.19785 2.84838,0.41771 4.12201,2.90629 2.02794,3.96251 2.68339,5.73136 5.66056,5.48843 2.17956,-0.17785 4.02039,-1.20496 7.07008,-3.9448 1.40592,-1.26308 2.98193,-2.51728 3.50225,-2.78712 2.52108,-1.30745 10.45325,-1.14078 14.26635,0.29975 1.20468,0.45512 3.06227,0.74478 5.51153,4.06084 3.10147,4.19916 3.21987,5.27527 3.40834,7.2335 0.0774,0.804 0.49488,2.02989 0.56343,2.48743 0.15831,1.05708 0.58439,1.6835 1.88099,2.28382 1.37105,0.63475 3.33771,1.62862 4.67891,0.96871 1.32103,-0.6501 2.95579,-2.43875 3.62386,-3.96506 0.68815,-1.57213 0.87192,-4.61519 0.3547,-5.87353 -0.43506,-1.05849 -1.36,-0.38346 -4.76766,-1.6712 -1.34206,-0.50717 -2.00009,-1.90544 -2.05371,-1.9531 -0.0536,-0.0477 0.0999,-0.61222 0.34125,-1.25459 0.55882,-1.48748 3.04347,-4.07334 4.70151,-4.89303 1.16079,-0.57386 1.4711,-0.60882 5.08009,-0.57222 4.1228,0.0418 9.8967,0.61853 12.25933,1.22457 1.80679,0.46343 3.77897,1.31146 5.67914,4.74753 2.19069,3.96139 2.68086,5.34649 5.56956,5.61278 2.70496,0.24933 4.57843,-0.8954 7.11287,-4.34609 1.88643,-2.56847 2.74023,-3.17455 4.53919,-3.22222 1.20262,-0.0318 2.63679,-0.26638 3.1137,0.54071 1.37176,2.31996 1.45392,2.28533 4.1903,3.32008 2.64616,-0.18885 2.42326,0.22942 5.45902,2.08984 2.7962,1.71362 3.67475,2.02217 5.35466,1.88055 1.14785,-0.0968 1.67318,-0.36181 4.28124,-2.15999 3.87392,-2.67094 4.47132,-2.90572 7.03633,-2.76537 2.53595,0.13875 4.83762,0.6616 6.21528,2.18094 0.52003,0.57351 2.10503,2.32392 2.84332,3.7636 1.59061,3.10182 2.80662,5.04597 4.20512,5.47192 0.79809,0.24307 1.10248,0.84418 1.9096,0.4435 1.42246,-0.70616 1.24012,-2.06534 1.07484,-5.51916 -0.0694,-1.45159 -0.18328,-4.19353 -0.52121,-5.96079 -0.82767,-4.32846 1.42672,-12.49417 2.01725,-12.49417 0.37766,0 1.98325,2.63442 2.74086,6.10343 0.43779,2.00456 1.31677,4.49413 1.57155,5.15592 0.42644,1.10773 0.44792,2.08327 0.43442,11.38864 -0.008,5.55928 -0.41369,12.91521 -0.53001,16.5096 -0.18921,5.84626 -0.40227,6.79616 -0.96921,8.87376 -0.34859,1.27735 -1.55542,2.55418 -1.90317,3.2518 -1.73709,3.48477 -5.74801,6.32536 -12.57259,8.90415 -11.08586,4.18901 -33.72651,7.60305 -55.05053,8.30121 -2.37991,0.0778 -5.32851,0.17554 -6.55245,0.21695 -1.22395,0.0414 -3.11553,0.0404 -4.20347,-0.003 z"
         id="path40"
         sodipodi:nodetypes="cssssssssscssssssssssssssssssssssssssssccsssssssssssssssssssscc" /><path
         style="fill:#f9f9f9;fill-rule:evenodd;stroke-width:0.646405;stroke-dasharray:none"
         d="m 422.28292,512.93372 c -2.12496,0.89939 -1.98648,3.7385 -2.50135,5.65151 -0.80473,6.18645 0.39801,12.41475 0.13827,18.56113 0.16716,2.08292 3.01277,1.8642 3.42998,0.0169 1.02043,-2.825 4.91003,-2.50523 6.81062,-0.8231 1.60585,1.28314 2.97242,3.00082 3.39715,5.02054 0.80226,1.30016 2.74857,0.96574 3.38327,2.50998 1.8753,2.29335 2.69952,6.31406 6.14078,6.72837 3.62897,-0.14512 5.93882,-3.53381 8.719,-5.43231 3.65537,-2.92488 8.69475,-2.03294 13.01547,-1.8102 2.98526,0.1599 6.05379,1.22628 7.73958,3.84275 2.06831,2.46138 3.75628,5.22529 5.49797,7.88997 1.64027,1.14115 0.52374,5.93174 2.38371,6.49636 1.59271,0.65389 6.81724,-6.63306 5.47264,-8.05031 -1.84215,-1.4593 -4.75846,-1.47881 -6.22949,-3.37348 0.0322,-3.79151 3.20158,-6.83123 6.36055,-8.43967 4.41848,-1.31735 8.93389,-0.35588 13.46252,-0.074 3.03808,0.44713 6.78354,0.45034 8.61316,3.39137 2.13991,2.60395 3.14994,7.12581 7.11991,7.49235 4.13455,-0.13176 5.2569,-5.03578 8.45239,-6.82264 1.96933,-0.97556 4.99397,-1.46191 6.22868,0.87387 0.62965,1.77823 2.4961,2.43524 4.2369,2.13927 3.72341,0.0189 6.31425,3.4205 9.83172,3.98011 3.48366,-0.80039 5.87965,-4.06679 9.46159,-4.74641 4.8346,-0.91719 10.06833,1.75302 11.99115,6.33246 1.04478,1.56116 1.57712,3.95418 3.55743,4.57381 2.12412,0.067 1.96991,-2.37763 1.73337,-3.83867 -0.56396,-5.92909 -0.68048,-12.13511 1.01546,-18.05137 0.70936,-1.90309 3.52214,-0.7362 3.84363,0.89469 1.38685,2.58369 1.27997,5.67455 2.47875,8.29335 1.20268,1.56922 3.36341,0.0619 3.22943,-1.61934 1.042,-6.85348 -0.29161,-13.79383 -0.9966,-20.61721 -0.56732,-3.20535 -0.42628,-6.36439 -1.26585,-9.4829 -1.32981,-2.05491 -3.84253,-0.20583 -5.48657,0.41118 -11.35319,5.37657 -23.13502,10.30201 -35.61408,11.92242 -16.10566,2.15269 -32.64588,2.08038 -48.9441,1.10479 -18.05489,-1.24102 -36.31497,-3.50294 -53.23585,-10.19335 -4.36225,-1.50026 -8.59808,-3.50039 -13.0166,-4.75682 -0.146,0.0556 -0.30741,-0.0393 -0.45459,0.005 z"
         id="path45"
         transform="translate(289.66764,-55.991679)"
         sodipodi:nodetypes="cccccccccccccccccccccccscccccccccccccccc" /><path
         style="fill:#f9f9f9;fill-rule:evenodd;stroke-width:0.646405;stroke-dasharray:none"
         d="m 510.6678,493.94751 c -1.51387,1.7274 -0.31257,4.24348 -0.92416,6.31723 -0.51931,3.2101 -1.01082,7.40402 -4.40232,8.83981 -2.54863,0.5 -3.0407,-2.70735 -3.47952,-4.51892 -0.78374,-3.1594 -0.18578,-6.44753 -0.34745,-9.60536 -0.86301,-2.00535 -3.59624,-0.79763 -5.3138,-1.08217 -14.36061,0.39578 -28.90983,-0.20242 -43.05643,2.73751 -4.47615,1.07284 -9.1442,2.26423 -12.83098,5.14142 -4.55224,2.0783 -9.23749,3.9132 -13.43757,6.68725 -1.59993,0.4546 -3.26278,2.58556 -1.31211,3.71921 12.15037,4.9059 24.58192,9.40069 37.59971,11.33488 11.72413,1.7911 23.56003,2.98471 35.41216,3.42555 10.68318,-0.0461 21.39551,0.0524 32.05099,-0.79631 9.25612,-0.75613 18.43222,-2.63498 27.06615,-6.10803 6.52687,-2.58687 13.19006,-5.06315 19.17637,-8.77436 1.90852,-1.10371 0.96766,-3.66176 -0.63964,-4.54399 -5.90411,-3.99709 -12.93768,-5.87119 -19.7214,-7.79551 -14.70657,-3.79626 -30.13879,-4.29607 -45.10567,-5.15183 -0.24478,0.0579 -0.48955,0.11574 -0.73433,0.17362 z"
         id="path46"
         transform="translate(289.66764,-55.991679)" /><path
         style="fill:none;stroke:#0b0a0a;stroke-width:4.383;stroke-dasharray:none"
         d="m 730.33526,444.98985 c -4.76957,1.78305 -9.23203,3.72608 -13.56723,6.42503 -2.60019,1.61875 -5.1336,3.18052 -6.62433,5.96521 -0.90821,1.69627 -1.25115,3.11049 -1.50958,5.05446 -0.91621,6.8942 0.90851,14.06478 0.0771,21.01592 -0.23408,1.95841 -0.89297,7.49884 2.4701,7.09295 0.89861,-0.10852 1.52609,-0.70211 1.9358,-1.51713 1.22963,-2.44626 -0.74309,-6.32771 1.10568,-8.46268 0.71795,-0.82896 1.48051,-0.89502 2.54519,-0.82271 2.3686,0.1608 4.02445,2.575 5.37286,4.24162 1.34289,1.65998 -5.10072,3.39802 -3.03045,3.84851 2.11915,0.46108 4.67156,-1.8124 6.28374,-0.30563 2.35557,2.20133 2.79954,7.11758 6.75142,7.76786 1.53015,0.25179 3.18915,-0.37295 4.52245,-1.18233 2.54175,-1.54297 4.2562,-4.16684 6.9167,-5.50564 2.90512,-1.46193 15.33051,-1.08408 17.11895,1.76282 2.00257,3.18793 6.33496,7.2299 6.33104,10.63995 0,0.91619 -0.11002,1.55936 0.22826,2.39421 0.60815,1.50136 1.98702,2.55541 3.76211,2.79201 2.39138,0.31878 4.6692,-1.65282 5.58902,-3.85609 0.65731,-1.57465 0.71465,-2.92933 0.44963,-4.78844 -0.18553,-1.30278 -7.14687,-2.51444 -7.07947,-3.72434 0.1335,-2.39229 2.12024,-4.77151 3.97889,-6.20355 1.05902,-0.81593 2.10312,-1.4053 3.45826,-1.6764 2.56373,-0.51282 16.73847,0.30405 18.53067,2.03891 0.72189,0.69863 1.22225,1.28014 1.74178,2.1167 1.74288,2.80665 3.01885,6.88131 7.04096,7.15678 1.93219,0.13234 3.00158,-0.57152 4.24487,-1.65771 2.01137,-1.75723 2.71314,-4.87481 5.59799,-5.63372 6.95108,-1.82856 2.10879,4.24194 9.39796,3.5478 3.78252,-0.3602 7.85899,5.55057 11.17302,3.75011 3.30133,-1.79347 5.71849,-4.80541 9.57688,-4.77962 2.80771,0.0189 6.006,1.03768 7.89418,3.20152 1.57274,1.8023 2.22628,4.18819 3.55929,6.1081 0.69376,0.99925 2.04985,2.83287 3.42936,2.7676 1.56819,-0.0741 1.61027,-2.71974 1.61027,-3.8317 3.2e-4,-3.3471 -0.88621,-6.74703 -0.48262,-10.10891 0.13516,-1.13116 0.53338,-9.7058 1.8238,-9.96619 1.47267,-0.2971 2.08929,1.36903 2.50403,2.52931 1.11197,3.10969 1.3184,7.27188 2.80582,10.10892 1.7597,-0.51529 2.6349,-0.82716 3.4091,-2.92626 0.62401,-1.69181 0.81943,-3.7636 0.84238,-5.5865 0.0424,-3.29751 -0.25938,-6.8762 -0.57233,-10.10894 -0.44192,-4.56673 -1.38908,-8.93868 -1.54806,-13.30121 -0.0268,-0.75095 -0.0392,-1.16235 -0.17989,-1.86216 -0.1335,-0.67105 -0.24601,-1.18462 -0.38034,-1.86218 -0.22921,-1.15709 -1.76426,-1.80692 -1.20857,-2.92626 2.18113,-4.39354 -8.21182,-9.32065 -25.63509,-13.46177 -15.31032,-3.63891 -42.72684,-3.9875 -43.55011,-4.44103 m -69.64635,8.39221 c 13.41593,-10.3362 50.6085,-7.01493 70.51397,-8.43573 m -88.22095,18.79746 c 2.96857,1.31586 19.27641,7.53928 22.62879,8.53409 8.87903,2.63479 18.20973,4.3676 27.40046,5.47094 22.70269,2.72542 45.9475,3.38239 68.63431,0.11332 10.38219,-1.49606 28.985,-9.09125 38.1454,-14.43695 m -156.52612,35.64684 c 0,2.29341 0.17847,7.26614 0.57718,11.43904 0.0802,0.84142 0.20942,1.5267 0.2198,2.39423 0.0149,1.16089 0,2.02979 0,3.19227 v 7.44867 c 0,1.26411 0,2.35838 -1.7e-4,3.72436 0,0.91487 -0.088,1.53234 -0.18992,2.39419 -0.1163,0.98156 -0.0771,1.5648 -0.0754,2.66025 0,0.83025 0,1.29448 0.11315,2.12821 0.0911,0.69407 0.13665,1.1769 0.15402,1.86214 0.022,0.93321 0.11944,1.6782 0.36572,2.66025 0.80106,3.20321 2.96277,5.83323 5.75288,7.65023 4.16805,2.71437 9.25075,4.19523 14.0992,5.27206 5.51754,1.22541 10.80525,2.34162 16.49357,3.28383 4.95825,0.82129 9.83938,1.4756 14.63128,1.86074 0.58113,0.0466 1.01849,0.0596 1.59616,0.13565 0.68276,0.0898 1.13285,0.14228 1.86212,0.15204 7.95826,0.10753 16.38156,1.31175 24.47429,1.05362 13.38595,-0.42691 26.86005,-1.33858 39.90353,-3.51249 8.53779,-1.42295 17.99356,-3.26758 25.80447,-7.18306 2.76687,-1.38704 5.64149,-3.5484 7.26262,-6.05244 1.11305,-1.71932 2.14772,-5.66428 2.42688,-7.71472 0.10208,-0.75484 0.14923,-1.34849 0.15237,-2.12818 0,-0.68188 1.5e-4,-1.16203 1.5e-4,-1.86218 0,-1.48843 -0.10207,-3.81493 0.0754,-5.32049 0.13516,-1.15047 0.18962,-1.779 0.1901,-2.92626 v -2.66024 -5.85252 -11.70507"
         id="path39-6"
         sodipodi:nodetypes="csccccccscccssscccscccssccssssccssscccccscccccssccccsssccccssccccccssscccssssccsccccc" /><path
         style="fill:#008000;fill-rule:evenodd;stroke-width:0.140546;stroke-dasharray:none"
         d="m 794.13846,452.71617 c -0.18538,-0.0574 -0.42181,-0.20637 -0.67086,-0.42285 -0.89188,-0.7752 -1.51631,-2.31453 -1.85477,-4.5723 -0.10155,-0.678 -0.1123,-1.16485 -0.0972,-4.43384 0.0237,-5.07679 0.13724,-7.36177 0.46799,-9.41171 0.0699,-0.43386 0.15168,-1.31518 0.18148,-1.95851 0.0305,-0.65801 0.10003,-1.37194 0.15882,-1.63208 0.26073,-1.15264 0.7559,-2.43776 1.33447,-3.46334 0.63432,-1.12445 1.19374,-1.77599 1.84446,-2.14818 0.3349,-0.19155 0.41987,-0.21686 0.65328,-0.19457 0.69266,0.0661 1.6886,0.65953 2.10812,1.25606 0.60931,0.86642 0.74965,1.47142 0.83467,3.59798 0.15082,3.77352 0.3381,6.10195 0.7154,8.89488 0.18447,1.36547 0.20165,1.63381 0.19675,3.07376 -0.009,2.54697 -0.18374,3.8995 -0.75856,5.86005 -0.7261,2.4765 -1.61157,4.02197 -2.82856,4.93693 -0.29996,0.22552 -0.68644,0.47038 -0.85884,0.54416 -0.3959,0.16938 -1.01403,0.20126 -1.42677,0.0736 z"
         id="path41" /><path
         style="fill:none;stroke:#0b0a0a;stroke-width:2.183;stroke-dasharray:none"
         d="m 796.62476,403.53466 c 0,1.61568 0.3555,2.5102 -0.1209,3.67918 -0.236,0.57974 -0.8037,0.99875 -1.188,1.39908 -0.6484,0.67518 -1.4461,1.66627 -1.7366,2.63644 -0.3932,1.31321 -0.4006,2.66817 -0.178,3.99036 0.1947,1.15596 0.6184,2.15736 1.5013,3.10567 0.5369,0.5767 1.0125,0.95281 1.7218,1.14622 0.7599,0.20717 1.437,-0.0192 2.1173,-0.40993 0.6698,-0.38463 1.0869,-0.81734 1.4238,-1.45841 1.2555,-2.38977 -0.8745,-6.0711 -2.0146,-8.23568 -0.4856,-0.92202 -0.865,-1.38108 -1.2607,-1.86257 m -0.2659,12.2371 0.018,1.93674 m -0.5127,2.57363 c -2.7997,-0.48637 -4.537,5.33933 -4.6737,7.3229 -0.039,0.57409 0,1.00454 -0.047,1.59615 -0.042,0.60593 -0.1304,0.96497 -0.1981,1.59614 -0.2776,2.5927 -0.31,5.07783 -0.3101,7.98074 -2e-4,1.25499 -0.067,1.94588 -0.036,3.19227 0.061,2.39962 0.5932,7.01189 3.2292,7.58785 1.2588,0.27505 2.1733,-0.50841 2.8974,-1.23119 1.395,-1.39246 2.2065,-4.26418 2.6017,-6.35666 0.2748,-1.45475 0.3065,-2.53552 0.3485,-4.25637 0.031,-1.30355 -0.038,-1.92809 -0.1862,-3.19229 -0.3704,-3.13971 -0.5365,-6.55073 -0.6119,-9.57687 -0.03,-1.19839 -0.378,-4.24047 -3.6212,-4.7227 m -4.5601,13.70817 -0.3314,7.77399"
         id="path39"
         sodipodi:nodetypes="cccssssccscccccccccsssccsccc" /></g><g
       id="LeftFoot--group"><path
         d="M523.7 651.2c-.4 1.9-2 9.1-6.7 16.2-7 10.6-17.8 16.5-30.4 16.5-7.2 0-12.9-2.1-16.8-6.2-7.5-7.8-7.1-21-6.7-33.7v-.1c.2-6.4.4-13.1-.4-18.5-.7-4.4-1.8-9.1-3.1-14.5-2.4-10.2-4.6-20.1-4.3-28.7.4-10.7 4.7-18.9 12.8-24.4 3.5-2.4 7.4-3.5 11.4-3.5 9.3 0 18.9 6.2 28.7 18.6 7.1 8.9 13.1 20 15.4 28.1 6.4 21.8 4.9 34.9.1 50.2z"
         id="path30" /><path
         fill="#fc0"
         d="M477 670.8c2 2.1 5.2 3.1 9.6 3.1 22.6 0 27-23.7 27.2-24.7 0-.2.1-.4.1-.6 4.4-13.9 5.7-25.2 0-44.8-3.7-13.2-21.1-39.4-34.4-39.4-2 0-4 .6-5.8 1.9-11.7 7.8-9.3 21.8-4.4 42.4 1.2 5.1 2.5 10.4 3.2 15.3 1 6.4.8 13.5.5 20.4-.2 10.6-.6 21.6 4 26.4z"
         class="st0"
         id="path31" /></g></g><style
     id="animation--foot_wiggle_1-7">.wapuugotchi_svg__flowerpot { transform-origin: 41.5% 55%; animation: wapuugotchi_svg__flowerpot_1 5s infinite 0s normal ease-in-out forwards}@keyframes wapuugotchi_svg__flowerpot_1 { 100%, 0% {transform: rotate(0deg)} 50% {transform: rotate(20deg)} }</style></svg>
