<svg version="1.1" id="wapuugotchi_svg__item" viewBox="0 0 1e3 1e3" xmlns="http://www.w3.org/2000/svg">
	<g id="RightFoot--group">
		<path fill="#4B351F" d="m384.3 648c-2.4 3.7-6.4 5.7-11.5 5.7-1.9 0-4-0.3-6.2-0.8-25-6-59.3-43.6-63.6-64.5-1.9-9.4-0.2-18 5-24.4 4.6-5.7 11.4-8.8 18.9-8.8 6.8 0 13.6 2.5 19.8 7.3 12.2 9.4 32.9 50.5 37.3 60.7 2.5 5.8 4.9 17.7 0.3 24.8z"/>
		<path d="m309.6 580.6c-0.5 0-1-0.2-1.3-0.7-0.5-0.7-0.3-1.6 0.4-2.1l23.9-15.6c0.7-0.5 1.6-0.3 2.1 0.4s0.3 1.6-0.4 2.1l-23.9 15.6c-0.2 0.2-0.5 0.3-0.8 0.3zm2.2 10.6 32-20.9c0.7-0.5 0.9-1.4 0.4-2.1s-1.4-0.9-2.1-0.4l-32 20.9c-0.7 0.5-0.9 1.4-0.4 2.1 0.3 0.4 0.8 0.7 1.3 0.7 0.2-0.1 0.5-0.2 0.8-0.3zm4.2 8.9 34.2-22.3c0.7-0.5 0.9-1.4 0.4-2.1s-1.4-0.9-2.1-0.4l-34.2 22.3c-0.7 0.5-0.9 1.4-0.4 2.1 0.3 0.4 0.8 0.7 1.3 0.7 0.3-0.1 0.5-0.1 0.8-0.3zm5.3 8.2 34.3-22.4c0.7-0.5 0.9-1.4 0.4-2.1s-1.4-0.9-2.1-0.4l-34.3 22.4c-0.7 0.5-0.9 1.4-0.4 2.1 0.3 0.4 0.8 0.7 1.3 0.7 0.3-0.1 0.6-0.2 0.8-0.3zm6.1 7.7 33.3-21.8c0.7-0.5 0.9-1.4 0.4-2.1s-1.4-0.9-2.1-0.4l-33.3 21.8c-0.7 0.5-0.9 1.4-0.4 2.1 0.3 0.4 0.8 0.7 1.3 0.7 0.3-0.1 0.6-0.2 0.8-0.3zm6.7 7.3 31.5-20.5c0.7-0.5 0.9-1.4 0.4-2.1s-1.4-0.9-2.1-0.4l-31.5 20.5c-0.7 0.5-0.9 1.4-0.4 2.1 0.3 0.4 0.8 0.7 1.3 0.7 0.3-0.1 0.5-0.2 0.8-0.3zm7.3 6.9 28.8-18.8c0.7-0.5 0.9-1.4 0.4-2.1s-1.4-0.9-2.1-0.4l-28.8 18.8c-0.7 0.5-0.9 1.4-0.4 2.1 0.3 0.4 0.8 0.7 1.3 0.7 0.2-0.1 0.5-0.1 0.8-0.3zm7.9 6.5 25.3-16.5c0.7-0.5 0.9-1.4 0.4-2.1s-1.4-0.9-2.1-0.4l-25.3 16.5c-0.7 0.5-0.9 1.4-0.4 2.1 0.3 0.4 0.8 0.7 1.3 0.7 0.3-0.1 0.6-0.2 0.8-0.3zm9 5.8 20.4-13.3c0.7-0.5 0.9-1.4 0.4-2.1s-1.4-0.9-2.1-0.4l-20.3 13.3c-0.7 0.5-0.9 1.4-0.4 2.1 0.3 0.4 0.8 0.7 1.3 0.7 0.2-0.1 0.5-0.2 0.7-0.3zm11.1 4.4 10.9-7.1c0.7-0.5 0.9-1.4 0.4-2.1s-1.4-0.9-2.1-0.4l-10.9 7.1c-0.7 0.5-0.9 1.4-0.4 2.1 0.3 0.4 0.8 0.7 1.3 0.7 0.2 0 0.5-0.1 0.8-0.3z"/>
	</g>
	<g id="LeftFoot--group">
		<path fill="#4B351F" d="m523.7 651.2c-0.4 1.9-2 9.1-6.7 16.2-7 10.6-17.8 16.5-30.4 16.5-7.2 0-12.9-2.1-16.8-6.2-7.5-7.8-7.1-21-6.7-33.7v-0.1c0.2-6.4 0.4-13.1-0.4-18.5-0.7-4.4-1.8-9.1-3.1-14.5-2.4-10.2-4.6-20.1-4.3-28.7 0.4-10.7 4.7-18.9 12.8-24.4 3.5-2.4 7.4-3.5 11.4-3.5 9.3 0 18.9 6.2 28.7 18.6 7.1 8.9 13.1 20 15.4 28.1 6.4 21.8 4.9 34.9 0.1 50.2z"/>
		<path d="m487.9 568.8h-0.2l-13.6-1.4c-0.8-0.1-1.4-0.8-1.3-1.6s0.8-1.4 1.6-1.3l13.6 1.4c0.8 0.1 1.4 0.8 1.3 1.6 0 0.7-0.6 1.3-1.4 1.3zm14.5 11c0.1-0.8-0.5-1.6-1.3-1.6l-34.6-3.6c-0.8-0.1-1.6 0.5-1.6 1.3-0.1 0.8 0.5 1.6 1.3 1.6l34.6 3.6h0.2c0.6 0.1 1.3-0.5 1.4-1.3zm7.6 11.8c0.1-0.8-0.5-1.6-1.3-1.6l-43.2-4.5c-0.8-0.1-1.6 0.5-1.6 1.3-0.1 0.8 0.5 1.6 1.3 1.6l43.2 4.5h0.2c0.7 0.1 1.3-0.5 1.4-1.3zm5.2 11.6c0.1-0.8-0.5-1.6-1.3-1.6l-46.7-4.9c-0.8-0.1-1.6 0.5-1.6 1.3-0.1 0.8 0.5 1.6 1.3 1.6l46.7 4.9h0.2c0.6 0.1 1.3-0.5 1.4-1.3zm2.8 11.3c0.1-0.8-0.5-1.6-1.3-1.6l-47-4.9c-0.8-0.1-1.6 0.5-1.6 1.3-0.1 0.8 0.5 1.6 1.3 1.6l47 4.9h0.2c0.6 0.1 1.3-0.5 1.4-1.3zm1.2 11.2c0.1-0.8-0.5-1.6-1.3-1.6l-45.7-4.8c-0.8-0.1-1.6 0.5-1.6 1.3-0.1 0.8 0.5 1.6 1.3 1.6l45.7 4.8h0.2c0.7 0 1.3-0.5 1.4-1.3zm-0.8 10.9c0.1-0.8-0.5-1.6-1.3-1.6l-43.7-4.5c-0.8-0.1-1.6 0.5-1.6 1.3-0.1 0.8 0.5 1.6 1.3 1.6l43.7 4.5h0.2c0.7 0.1 1.3-0.5 1.4-1.3zm-2.6 10.8c0.1-0.8-0.5-1.6-1.3-1.6l-41.3-4.3c-0.8-0.1-1.6 0.5-1.6 1.3-0.1 0.8 0.5 1.6 1.3 1.6l41.3 4.3h0.2c0.7 0.1 1.3-0.5 1.4-1.3zm-3.5 10.7c0.1-0.8-0.5-1.6-1.3-1.6l-37.9-3.9c-0.8-0.1-1.6 0.5-1.6 1.3-0.1 0.8 0.5 1.6 1.3 1.6l37.9 3.9h0.2c0.7 0 1.4-0.6 1.4-1.3zm-7.7 10.2c0.1-0.8-0.5-1.6-1.3-1.6l-29.1-3c-0.8-0.1-1.6 0.5-1.6 1.3-0.1 0.8 0.5 1.6 1.3 1.6l29.1 3h0.2c0.7 0.1 1.4-0.5 1.4-1.3z"/>
	</g>
</svg>
