<?xml version="1.0" encoding="utf-8"?>
<!-- Generator: Adobe Illustrator 25.2.0, SVG Export Plug-In . SVG Version: 6.00 Build 0)  -->
<svg version="1.1" id="Layer_1" xmlns="http://www.w3.org/2000/svg" xmlns:xlink="http://www.w3.org/1999/xlink" x="0px" y="0px"
	 viewBox="0 0 1000 1000" style="enable-background:new 0 0 1000 1000;" xml:space="preserve">
<style type="text/css">
	.st0{fill:#4B351F;}
</style>
<g id="Shoes--group">
	<g id="RightShoe--group">
		<path id="RightShoe" class="st0" d="M384.3,648c-2.4,3.7-6.4,5.7-11.5,5.7c-1.9,0-4-0.3-6.2-0.8c-25-6-59.3-43.6-63.6-64.5
			c-1.9-9.4-0.2-18,5-24.4c4.6-5.7,11.4-8.8,18.9-8.8c6.8,0,13.6,2.5,19.8,7.3c12.2,9.4,32.9,50.5,37.3,60.7
			C386.5,629,388.9,640.9,384.3,648z"/>
		<path id="RightShoe--bg" d="M309.6,580.6c-0.5,0-1-0.2-1.3-0.7c-0.5-0.7-0.3-1.6,0.4-2.1l23.9-15.6c0.7-0.5,1.6-0.3,2.1,0.4
			s0.3,1.6-0.4,2.1l-23.9,15.6C310.2,580.5,309.9,580.6,309.6,580.6z M311.8,591.2l32-20.9c0.7-0.5,0.9-1.4,0.4-2.1
			c-0.5-0.7-1.4-0.9-2.1-0.4l-32,20.9c-0.7,0.5-0.9,1.4-0.4,2.1c0.3,0.4,0.8,0.7,1.3,0.7C311.2,591.4,311.5,591.3,311.8,591.2z
			 M316,600.1l34.2-22.3c0.7-0.5,0.9-1.4,0.4-2.1c-0.5-0.7-1.4-0.9-2.1-0.4l-34.2,22.3c-0.7,0.5-0.9,1.4-0.4,2.1
			c0.3,0.4,0.8,0.7,1.3,0.7C315.5,600.3,315.7,600.3,316,600.1z M321.3,608.3l34.3-22.4c0.7-0.5,0.9-1.4,0.4-2.1
			c-0.5-0.7-1.4-0.9-2.1-0.4l-34.3,22.4c-0.7,0.5-0.9,1.4-0.4,2.1c0.3,0.4,0.8,0.7,1.3,0.7C320.8,608.5,321.1,608.4,321.3,608.3z
			 M327.4,616l33.3-21.8c0.7-0.5,0.9-1.4,0.4-2.1c-0.5-0.7-1.4-0.9-2.1-0.4l-33.3,21.8c-0.7,0.5-0.9,1.4-0.4,2.1
			c0.3,0.4,0.8,0.7,1.3,0.7C326.9,616.2,327.2,616.1,327.4,616z M334.1,623.3l31.5-20.5c0.7-0.5,0.9-1.4,0.4-2.1
			c-0.5-0.7-1.4-0.9-2.1-0.4l-31.5,20.5c-0.7,0.5-0.9,1.4-0.4,2.1c0.3,0.4,0.8,0.7,1.3,0.7C333.6,623.5,333.8,623.4,334.1,623.3z
			 M341.4,630.2l28.8-18.8c0.7-0.5,0.9-1.4,0.4-2.1c-0.5-0.7-1.4-0.9-2.1-0.4l-28.8,18.8c-0.7,0.5-0.9,1.4-0.4,2.1
			c0.3,0.4,0.8,0.7,1.3,0.7C340.8,630.4,341.1,630.4,341.4,630.2z M349.3,636.7l25.3-16.5c0.7-0.5,0.9-1.4,0.4-2.1
			c-0.5-0.7-1.4-0.9-2.1-0.4l-25.3,16.5c-0.7,0.5-0.9,1.4-0.4,2.1c0.3,0.4,0.8,0.7,1.3,0.7C348.8,636.9,349.1,636.8,349.3,636.7z
			 M358.3,642.5l20.4-13.3c0.7-0.5,0.9-1.4,0.4-2.1c-0.5-0.7-1.4-0.9-2.1-0.4L356.7,640c-0.7,0.5-0.9,1.4-0.4,2.1
			c0.3,0.4,0.8,0.7,1.3,0.7C357.8,642.7,358.1,642.6,358.3,642.5z M369.4,646.9l10.9-7.1c0.7-0.5,0.9-1.4,0.4-2.1
			c-0.5-0.7-1.4-0.9-2.1-0.4l-10.9,7.1c-0.7,0.5-0.9,1.4-0.4,2.1c0.3,0.4,0.8,0.7,1.3,0.7C368.8,647.2,369.1,647.1,369.4,646.9z"/>
	</g>
	<g id="LeftShoe--group">
		<path id="LeftShoe" class="st0" d="M523.7,651.2c-0.4,1.9-2,9.1-6.7,16.2c-7,10.6-17.8,16.5-30.4,16.5c-7.2,0-12.9-2.1-16.8-6.2
			c-7.5-7.8-7.1-21-6.7-33.7v-0.1c0.2-6.4,0.4-13.1-0.4-18.5c-0.7-4.4-1.8-9.1-3.1-14.5c-2.4-10.2-4.6-20.1-4.3-28.7
			c0.4-10.7,4.7-18.9,12.8-24.4c3.5-2.4,7.4-3.5,11.4-3.5c9.3,0,18.9,6.2,28.7,18.6c7.1,8.9,13.1,20,15.4,28.1
			C530,622.8,528.5,635.9,523.7,651.2z"/>
		<path id="LeftShoe--bg" d="M487.9,568.8c-0.1,0-0.1,0-0.2,0l-13.6-1.4c-0.8-0.1-1.4-0.8-1.3-1.6s0.8-1.4,1.6-1.3l13.6,1.4
			c0.8,0.1,1.4,0.8,1.3,1.6C489.3,568.2,488.7,568.8,487.9,568.8z M502.4,579.8c0.1-0.8-0.5-1.6-1.3-1.6l-34.6-3.6
			c-0.8-0.1-1.6,0.5-1.6,1.3c-0.1,0.8,0.5,1.6,1.3,1.6l34.6,3.6c0.1,0,0.1,0,0.2,0C501.6,581.2,502.3,580.6,502.4,579.8z M510,591.6
			c0.1-0.8-0.5-1.6-1.3-1.6l-43.2-4.5c-0.8-0.1-1.6,0.5-1.6,1.3c-0.1,0.8,0.5,1.6,1.3,1.6l43.2,4.5c0.1,0,0.1,0,0.2,0
			C509.3,593,509.9,592.4,510,591.6z M515.2,603.2c0.1-0.8-0.5-1.6-1.3-1.6l-46.7-4.9c-0.8-0.1-1.6,0.5-1.6,1.3
			c-0.1,0.8,0.5,1.6,1.3,1.6l46.7,4.9c0.1,0,0.1,0,0.2,0C514.4,604.6,515.1,604,515.2,603.2z M518,614.5c0.1-0.8-0.5-1.6-1.3-1.6
			l-47-4.9c-0.8-0.1-1.6,0.5-1.6,1.3c-0.1,0.8,0.5,1.6,1.3,1.6l47,4.9c0.1,0,0.1,0,0.2,0C517.2,615.9,517.9,615.3,518,614.5z
			 M519.2,625.7c0.1-0.8-0.5-1.6-1.3-1.6l-45.7-4.8c-0.8-0.1-1.6,0.5-1.6,1.3c-0.1,0.8,0.5,1.6,1.3,1.6l45.7,4.8c0.1,0,0.1,0,0.2,0
			C518.5,627,519.1,626.5,519.2,625.7z M518.4,636.6c0.1-0.8-0.5-1.6-1.3-1.6l-43.7-4.5c-0.8-0.1-1.6,0.5-1.6,1.3
			c-0.1,0.8,0.5,1.6,1.3,1.6l43.7,4.5c0.1,0,0.1,0,0.2,0C517.7,638,518.3,637.4,518.4,636.6z M515.8,647.4c0.1-0.8-0.5-1.6-1.3-1.6
			l-41.3-4.3c-0.8-0.1-1.6,0.5-1.6,1.3c-0.1,0.8,0.5,1.6,1.3,1.6l41.3,4.3c0.1,0,0.1,0,0.2,0C515.1,648.8,515.7,648.2,515.8,647.4z
			 M512.3,658.1c0.1-0.8-0.5-1.6-1.3-1.6l-37.9-3.9c-0.8-0.1-1.6,0.5-1.6,1.3c-0.1,0.8,0.5,1.6,1.3,1.6l37.9,3.9c0.1,0,0.1,0,0.2,0
			C511.6,659.4,512.3,658.8,512.3,658.1z M504.6,668.3c0.1-0.8-0.5-1.6-1.3-1.6l-29.1-3c-0.8-0.1-1.6,0.5-1.6,1.3
			c-0.1,0.8,0.5,1.6,1.3,1.6l29.1,3c0.1,0,0.1,0,0.2,0C503.9,669.7,504.6,669.1,504.6,668.3z"/>
	</g>
</g>
</svg>
