<?xml version="1.0" encoding="UTF-8" standalone="no"?>
<svg
   xml:space="preserve"
   width="60"
   height="90"
   version="1.1"
   id="svg192"
   sodipodi:docname="1.svg"
   inkscape:version="1.2.1 (9c6d41e4, 2022-07-14)"
   xmlns:inkscape="http://www.inkscape.org/namespaces/inkscape"
   xmlns:sodipodi="http://sodipodi.sourceforge.net/DTD/sodipodi-0.dtd"
   xmlns="http://www.w3.org/2000/svg"
   xmlns:svg="http://www.w3.org/2000/svg"><defs
     id="defs196" /><sodipodi:namedview
     id="namedview194"
     pagecolor="#ffffff"
     bordercolor="#666666"
     borderopacity="1.0"
     inkscape:showpageshadow="2"
     inkscape:pageopacity="0.0"
     inkscape:pagecheckerboard="0"
     inkscape:deskcolor="#d1d1d1"
     showgrid="false"
     inkscape:zoom="15.488889"
     inkscape:cx="25.921808"
     inkscape:cy="63.819943"
     inkscape:window-width="1387"
     inkscape:window-height="1027"
     inkscape:window-x="0"
     inkscape:window-y="25"
     inkscape:window-maximized="0"
     inkscape:current-layer="svg192" /><g
     style="display:inline"
     id="g190"><g
       fill="none"
       fill-rule="evenodd"
       style="clip-rule:evenodd;display:inline;opacity:1;fill-rule:evenodd;stroke-linecap:round;stroke-linejoin:round;stroke-miterlimit:1.41421"
       id="g188"><path
         fill="#4b351f"
         d="M-30.349-37.046c-4.072 5.003-5.423 12.038-3.817 19.822C-30.058 2.631 5.222 41.135 29.12 46.872c1.825.439 3.482.662 4.92.662 3.723 0 5.11-1.46 5.83-2.561 2.914-4.46 1.261-14.157-1.05-19.441C32.203 10.403 11.235-29.248.64-37.406c-5.338-4.104-11.077-6.276-16.612-6.276-5.787 0-10.894 2.36-14.377 6.636"
         style="display:inline;stroke-width:1.00449"
         transform="matrix(.133 0 0 .133 6.595 62.98)"
         id="path182" /><path
         fill="#4b351f"
         d="m 149.907,-41.552 c -2.225,0 -4.3,0.664 -6.342,2.022 -12.672,8.451 -13.02959,23.743 -7.67459,46.101 1.32,5.53 2.691,10.767568 3.513,16.106568 1.07,6.947 1.29343,15.680864 1.04543,23.180864 -0.387,11.655 -0.786,22.733136 4.239,27.925136 2.196,2.273 8.04716,3.860432 12.89516,3.860432 24.541,0 29.408,-25.761 29.602,-26.856 0.04,-0.23 0.097,-0.474 0.168,-0.693 4.784,-15.149 6.195,-27.403 -0.036,-48.759 -3.983,-14.35 -22.936,-42.888 -37.41,-42.888"
         style="display:inline;stroke-width:1.00286"
         transform="matrix(0.133,0,0,0.133,6.595,62.98)"
         id="path184"
         sodipodi:nodetypes="ccccccscccc" /><path
         fill="#020304"
         d="M27.49 69.05c-.77 0-.906-.025-1.006-.284a.399.399 0 0 1 .11-.44.39.39 0 0 1 .4-.07c.319.023 1.65.002 2.548-.012.43-.006.829-.013 1.123-.015h.004a.391.391 0 0 1 .002.783c-.293.002-.69.009-1.117.015-.6.01-1.28.02-1.803.022h-.262m-.182-2.743c-.277 0-.524-.004-.719-.016a.392.392 0 0 1 .047-.781c.473.028 1.307.01 2.114-.008 1.05-.023 1.709-.035 1.985.012a.391.391 0 1 1-.13.772c-.217-.036-1.078-.018-1.838 0-.505.01-1.02.021-1.46.021m-1.289-2.753a.392.392 0 0 1-.02-.782l4.123-.211a.392.392 0 0 1 .04.782l-4.122.21-.02.001m-.48-2.454a.391.391 0 0 1-.017-.783c.535-.024 1.53-.147 2.257-.236.411-.051.708-.088.84-.097a.39.39 0 1 1 .053.781c-.11.008-.428.047-.797.093-.74.091-1.753.216-2.318.241h-.018m3.51 10.55c-.226 0-.484-.002-.737-.004a45.12 45.12 0 0 0-1.141 0 .387.387 0 0 1-.401-.382.392.392 0 0 1 .382-.401c.273-.007.727-.003 1.165 0 .435.003.884.006 1.146 0a.391.391 0 0 1 .02.783 18.01 18.01 0 0 1-.434.004m-19.4-3.49a.392.392 0 0 1-.23-.709l1.293-.944a.39.39 0 1 1 .461.633l-1.294.945a.388.388 0 0 1-.23.075M7.687 66.6a.391.391 0 0 1-.23-.709c.303-.219 1.824-1.32 2.04-1.446a.392.392 0 0 1 .394.678c-.126.073-1.111.777-1.975 1.403a.389.389 0 0 1-.23.074m-1.744-1.755a.391.391 0 0 1-.22-.716c.09-.062 2.225-1.51 2.778-1.87a.391.391 0 0 1 .425.658c-.545.354-2.741 1.845-2.763 1.86a.385.385 0 0 1-.22.068m-1.495-2.116a.391.391 0 0 1-.248-.695c.435-.356 1.155-.83 1.791-1.247.289-.19.56-.368.767-.51a.392.392 0 0 1 .444.645c-.213.147-.49.328-.781.52-.62.407-1.322.868-1.726 1.198a.39.39 0 0 1-.247.089M3.362 60.53a.39.39 0 0 1-.206-.723c.018-.012 1.8-1.116 2.19-1.398a.392.392 0 1 1 .457.637c-.413.296-2.16 1.38-2.235 1.426a.388.388 0 0 1-.206.059"
         id="path186" /></g></g></svg>
