<svg xmlns="http://www.w3.org/2000/svg" viewBox="0 0 1000 1000">
  <g class="LeftLeg--group">
    <path fill="#ff5159" stroke="#000" stroke-width="5" d="M582.86 556.874c1.07 2.606 3.724 4.56 6.59 4.452 3.154-.132 6.003-1.763 8.577-3.457 3.502-2.404 6.648-5.478 8.666-9.248-.613-1.708-7.59 2.84-20.121.37-1.758.234-3.554 1.242-4.09 3.04-.529 1.582-.272 3.336.378 4.843z"/>
    <path fill="#fff200" stroke="#000" stroke-linecap="round" stroke-width="5" d="M595.503 563.672c4.357.14 8.83.098 13.01 1.49 2.473.787 4.726 2.91 4.855 5.621.156 2.402-1.089 5.181-3.557 5.878-2.887.804-5.925.62-8.89.646-2.165-.065-4.344-.012-6.498-.212-2.31-.442-4.798-.72-6.739-2.162-1.417-1.246-1.456-3.34-1.324-5.088.168-1.826.91-3.797 2.669-4.635 1.993-1.034 4.284-1.24 6.474-1.538z"/>
    <path fill="#fff200" stroke="#000" stroke-width="5" d="M519.523 561.946c9.516-14.44 26.705-24.318 44.24-22.797 14.45.86 28.975 10.784 32.034 25.458 1.949 7.532-1.115 15.733-7.217 20.459-9.395 7.79-22.567 7.925-34.004 5.821-7.968-1.172-15.593-3.92-22.73-7.607 6.48 3.135 13.27 6.574 17.173 12.931 2.829 3.811 4.923 9.88 1.46 13.923-3.79 2.939-9.628 1.256-12.525-2.214-4.1-3.65-8.64-8.725-14.73-7.358-3.793.213-7.529 1.778-9.184 5.42-.943 2.317-2.6 9.668-3.305 4.794-3.614-15.606-2.092-36.62 8.788-48.83z"/>
    <path fill="#ff5159" stroke="#000" stroke-width="5" d="M520.805 556.948c5.6-1.277 10.748-3.934 16.239-5.55 1.286-.313 3.204-.719 3.98.695.626 1.83-.334 3.73-1.017 5.411-2.277 4.818-5.907 9.387-11.04 11.29-4.546 1.754-9.896 1.387-14.041-1.238-2.742-1.741-5.423-3.683-7.59-6.12-1.25-.998-.974-3.114.92-2.66 4.214-.34 8.425-.875 12.549-1.828z"/>
    <path fill="none" stroke="#000" stroke-linecap="round" stroke-linejoin="round" stroke-width="2.499" d="M558.083 559.745c2.26.78 6.06.653 7.44-1.624m16.567-.718c1.585 1.048 3.003 1.167 5.447.265m-22.422 14.76s6.274 3.34 13.08-4.849c4.802 5.43 7.482 1.702 7.482 1.702"/>
    <path fill="#ffaa7d" fill-rule="evenodd" d="M557.688 568.791a4.066 4.066 0 0 1-4.066 4.067 4.066 4.066 0 0 1-4.066-4.067 4.066 4.066 0 0 1 4.066-4.066 4.066 4.066 0 0 1 4.066 4.066zm35.202-2.752a2.956 2.956 0 0 1-2.956 2.956 2.956 2.956 0 0 1-2.958-2.956 2.956 2.956 0 0 1 2.956-2.956 2.956 2.956 0 0 1 2.958 2.956z" />
    <path d="M572.145 561.168c.76-1.45 5.427-1.833 7.004-.574 1.572 1.26.052 4.161-2.283 4.355-2.334.191-5.482-2.328-4.721-3.78z"/>
  </g>
</svg>

