<svg version="1.1" id="wapuugotchi_svg__item" viewBox="0 0 1e3 1e3" xmlns="http://www.w3.org/2000/svg">
	<g class="Body--group">
		<circle transform="rotate(-45.001 470.62 529.32)" cx="470.6" cy="529.3" r="133.5"/>
		<linearGradient id="a" x1="344.5" x2="596.7" y1="529.3" y2="529.3" gradientUnits="userSpaceOnUse">
			<stop stop-color="#3e0a66" offset="0"/>
			<stop stop-color="#1e164c" offset="1"/>
		</linearGradient>
		<circle cx="470.6" cy="529.3" r="126.1" fill="url(#a)"/>
		<path fill="#fff" d="M511.2 538.5c-.5-.5-1-.8-1.7-.8h-.6c-.6 0-1.3.3-1.7.7-1.1 1-1.2 2.8-.1 3.9.5.5 1.2.8 2 .9.8 0 1.5-.2 2-.7 1.1-1.2 1.1-2.9.1-4"/>
		<path d="M527 526.1a2.732 2.732 0 0 0-2.7-2.7c-.7 0-1.4.3-2 .8-.3.3-.5.5-.6.9-.2.3-.2.7-.2 1.1 0 .7.2 1.4.8 1.9.5.5 1.1.8 1.9.8h.2c.7 0 1.4-.3 1.9-.8.5-.6.7-1.3.7-2" fill="#cbbbda"/>
		<path fill="#fff" d="M526.1 542.7c1.2-1.1 1.1-3.1-.2-4.1-.3-.2-.7-.4-1.1-.5-.4-.1-.7-.1-1.1-.1-.9-.1-1.7-.4-2.4-.9s-1.3-1.3-1.6-2.1l-.3-1.2c0-.3 0-.7-.1-1-.1-.6-.4-1.1-.9-1.5-.5-.5-1.2-.7-1.9-.7-.8 0-1.6-.3-2.4-.7-.7-.5-1.3-1.1-1.7-1.8-.2-.4-.3-.8-.4-1.2-.1-.4 0-.7-.1-1.1 0-.7-.4-1.5-1-2-1.3-1-3.2-.8-4.1.6-.9 1.4-.4 3.2 1.1 4 .7.4 1.6.2 2.3.5.8.2 1.6.7 2.1 1.3.6.6 1 1.4 1.1 2.2.1.7 0 1.4.3 2.1.1.3.3.5.5.8.3.3.6.5 1 .7.5.2 1 .2 1.5.2 1.1.1 2.2.7 2.9 1.5.7.8 1.1 1.9 1.1 3s.6 2.1 1.6 2.5c1.7.5 3 .3 3.8-.5"/>
		<path fill="#fff" d="M526.4 535.3c1-.9 1.1-2.5.3-3.6-.4-.5-.9-.9-1.5-1-.6-.2-1.3-.1-1.9-.3-1.4-.4-2.6-1.4-3.1-2.7-.3-.6-.3-1.3-.3-1.9 0-.7-.3-1.3-.7-1.8-.9-1-2.3-1.1-3.4-.5-1.1.7-1.6 2.1-1.2 3.3.2.6.7 1.1 1.2 1.4.3.2.6.3.9.3.3 0 .7 0 1 .1 1.4.2 2.7 1.1 3.3 2.3.3.6.5 1.2.6 1.9 0 .4 0 .7.1 1 .1.3.2.6.4.9.7 1.1 2.2 1.5 3.4 1 .3 0 .6-.2.9-.4m-177.6-37.1c2.1.6 3.2.9 5.3 1.5V513c3-4.5 4.5-6.7 7.4-11.2 1.7.5 2.6.7 4.3 1.1.4 5.4.5 8.1 1 13.5 2.7-4.6 4-6.9 6.7-11.6 2.1.5 3.2.8 5.3 1.3-4.3 6.7-6.4 10-10.8 16.6-1.9-.5-2.9-.7-4.8-1.2-.5-5.2-.7-7.8-1.2-13.1-2.9 4.3-4.4 6.5-7.4 10.8-1.9-.5-2.8-.8-4.7-1.3-.5-7.9-.8-11.9-1.1-19.7zm36.9 29.4c-2.3-.5-4.2-1.4-5.7-2.5s-2.6-2.6-3.1-4.3c-.6-1.7-.6-3.5-.2-5.5.4-1.8 1.2-3.4 2.4-4.7 1.1-1.3 2.6-2.2 4.2-2.7 1.7-.5 3.4-.5 5.4-.1 1.8.4 3.3 1.1 4.5 2.1s2 2.3 2.5 3.8.5 3.2.1 5.1c-.2.8-.4 1.5-.6 2.1-5.4-1.2-8.2-1.8-13.6-3 0 2.9 1.9 4.8 5.6 5.6 1.2.3 2.3.4 3.5.4 1.2 0 2.2-.1 3.2-.3-.1 1.6-.2 2.4-.3 4.1-1 .3-2.2.4-3.6.4s-2.8-.1-4.3-.5m5.3-11c.2-1.3-.1-2.4-.6-3.2-.6-.8-1.5-1.4-2.7-1.7-1.2-.3-2.3-.2-3.2.4-.9.5-1.7 1.4-2.2 2.6 3.5.7 5.3 1.1 8.7 1.9zm17.3 15.7c-1.4-.3-2.5-.8-3.5-1.5s-1.7-1.6-2.1-2.7c-.2 1-.3 1.4-.5 2.4-2-.4-3.1-.6-5.1-1 2-9.8 4-19.6 6-29.3 2 .4 3.1.6 5.1 1-1 5.2-1.5 7.9-2.6 13.1 1.7-1.6 4-2.1 6.7-1.6 1.7.3 3.1 1 4.3 2 1.2 1 2.1 2.4 2.6 4s.6 3.4.3 5.4c-.3 1.8-1 3.4-2 4.8s-2.4 2.4-4 3c-1.7.6-3.4.8-5.2.4m-.3-4.7c1.5.3 2.9 0 4-.8s1.8-2 2.1-3.6c.3-1.6 0-3-.7-4.1-.8-1.2-1.9-1.9-3.4-2.2s-2.8 0-3.9.8-1.9 2-2.2 3.6c-.3 1.6-.1 2.9.7 4.1.7 1.2 1.8 1.9 3.4 2.2m15.4-12.4c2 .3 3 .5 5 .8-.1 1-.2 1.5-.3 2.4 1.6-1.8 3.9-2.5 6.8-2 1.7.2 3.1.9 4.4 1.9 1.2 1 2.1 2.3 2.7 3.9.6 1.6.7 3.4.5 5.4-.2 1.8-.9 3.4-1.8 4.9-1 1.4-2.3 2.5-3.9 3.2-1.6.7-3.3.9-5.1.7-1.3-.2-2.5-.6-3.5-1.3-1-.6-1.7-1.5-2.2-2.4-.7 4.5-1.1 6.7-1.8 11.2-2.2-.4-3.3-.5-5.4-.9 1.5-9.3 3.1-18.6 4.6-27.8zm7.8 16.4c1.5.2 2.9-.1 4-.9s1.8-2.1 2-3.7c.2-1.6-.1-3-.9-4.1-.8-1.1-2-1.8-3.5-2.1-1.5-.2-2.8.1-3.9.9-1.1.9-1.8 2.1-2.1 3.7-.3 1.6 0 2.9.8 4.1.9 1.1 2 1.8 3.6 2.1m15.1-13c2 .3 3 .4 5.1.6-.1 1.2-.2 1.9-.3 3.1.7-1 1.5-1.8 2.5-2.3 1-.5 2-.7 3.2-.5.8.1 1.5.3 2.2.7-.4 1.9-.6 2.9-1 4.8-.8-.4-1.5-.6-2.3-.7-1.4-.2-2.6.2-3.6 1.1-.9.9-1.5 2.3-1.7 4.1-.4 3.4-.6 5.2-1 8.6-2.2-.3-3.2-.4-5.4-.7.9-7.5 1.4-11.2 2.3-18.8zm21.8 22.3c-2-.2-3.7-.8-5.2-1.8s-2.7-2.3-3.5-4c-.8-1.6-1.1-3.4-.9-5.4.2-1.8.8-3.4 1.9-4.9 1-1.4 2.4-2.5 4.1-3.3 1.7-.8 3.5-1 5.5-.9 1.9.2 3.6.7 5.1 1.7 1.5 1 2.7 2.3 3.5 3.9.8 1.6 1.2 3.4 1 5.4-.1 1.9-.7 3.5-1.7 5s-2.4 2.6-4.1 3.4c-1.7.8-3.6 1.1-5.7.9m.5-4.7c1.5.1 2.8-.3 3.9-1.2 1.1-.9 1.7-2.2 1.8-3.8.1-1.6-.2-2.9-1.1-4.1-.9-1.1-2.1-1.7-3.6-1.9-1.5-.1-2.8.3-3.9 1.2-1.1.9-1.7 2.2-1.8 3.8-.2 1.6.2 3 1.1 4.1.8 1.1 2 1.8 3.6 1.9m19.7 6.3c-1.5-.1-2.9-.4-4.3-.8-1.3-.4-2.3-1-3-1.6.4-1.7.6-2.5 1-4.2.8.6 1.8 1.2 3 1.6 1.2.4 2.3.7 3.4.8 2.2.1 3.3-.3 3.4-1.4 0-.6-.2-1-.6-1.4-.4-.3-1.4-.7-2.8-1.2-2.3-.8-3.9-1.7-4.8-2.7-.9-1-1.3-2.4-1.2-4 .1-1.8.9-3.2 2.4-4.2s3.4-1.4 5.8-1.2c1.2.1 2.4.3 3.5.6 1.2.3 2.1.8 2.9 1.2-.3 1.6-.5 2.5-.8 4.1-.8-.5-1.7-.9-2.7-1.2-1-.3-2-.5-2.9-.6-1.9-.1-2.8.3-2.9 1.3 0 .6.2 1 .6 1.3.4.3 1.3.7 2.6 1.2 2.4.8 4.1 1.8 5.1 2.8s1.4 2.4 1.3 4c-.1 1.9-.9 3.3-2.5 4.3-1.7 1-3.8 1.5-6.5 1.3m13.9-16.9c-.5 0-.9-.2-1.3-.4s-.7-.6-1-1c-.2-.4-.3-.9-.3-1.4 0-.5.2-.9.4-1.3s.6-.7 1-.9c.4-.2.9-.3 1.4-.3.5 0 .9.2 1.3.4.4.3.7.6 1 1 .2.4.3.9.3 1.4 0 .5-.2.9-.4 1.3s-.6.7-1 1c-.4.1-.9.2-1.4.2zm0-.5c.4 0 .8-.1 1.1-.2.3-.2.6-.4.9-.8.2-.3.3-.7.4-1.2 0-.4-.1-.8-.2-1.1-.2-.3-.4-.6-.8-.9-.3-.2-.7-.3-1.1-.4-.4 0-.8.1-1.1.2-.3.2-.6.4-.9.8-.2.3-.3.7-.4 1.1 0 .4.1.8.2 1.1.2.3.4.6.8.9.3.4.7.5 1.1.5zm-.7-3.6h.9c.3 0 .6.1.7.3.2.2.3.4.2.6 0 .4-.2.6-.5.7.2.4.4.6.6 1.1h-.5l-.5-1h-.5v.9h-.5c0-1.1 0-1.6.1-2.6zm.4 1.2h.4c.2 0 .4 0 .5-.1.1-.1.1-.2.2-.3 0-.3-.2-.4-.6-.4h-.4c-.1.3-.1.5-.1.8z"/>
	</g>
</svg>
