<?xml version="1.0" encoding="utf-8"?>
<!-- Generator: Adobe Illustrator 25.2.0, SVG Export Plug-In . SVG Version: 6.00 Build 0)  -->
<svg version="1.1" id="Layer_1" xmlns="http://www.w3.org/2000/svg" xmlns:xlink="http://www.w3.org/1999/xlink" x="0px" y="0px"
	 viewBox="0 0 1000 1000" style="enable-background:new 0 0 1000 1000;" xml:space="preserve">
<style type="text/css">
	.st0{fill:url(#Ball_1_);}
	.st1{fill:#FFFFFF;}
	.st2{fill:#CBBBDA;}
</style>
<g id="Ball--group">
	
		<ellipse id="Ball--bg" transform="matrix(0.7071 -0.7071 0.7071 0.7071 -236.4377 487.8127)" cx="470.6" cy="529.3" rx="133.5" ry="133.5"/>
	<linearGradient id="Ball_1_" gradientUnits="userSpaceOnUse" x1="344.5" y1="529.3" x2="596.7" y2="529.3">
		<stop  offset="0" style="stop-color:#3E0A66"/>
		<stop  offset="1" style="stop-color:#1E164C"/>
	</linearGradient>
	<circle id="Ball" class="st0" cx="470.6" cy="529.3" r="126.1"/>
	<g id="WebPros">
		<path class="st1" d="M511.2,538.5c-0.5-0.5-1-0.8-1.7-0.8c-0.1,0-0.2,0-0.3,0c-0.1,0-0.2,0-0.3,0c-0.6,0-1.3,0.3-1.7,0.7
			c-1.1,1-1.2,2.8-0.1,3.9c0.5,0.5,1.2,0.8,2,0.9c0.8,0,1.5-0.2,2-0.7C512.2,541.3,512.2,539.6,511.2,538.5"/>
		<path class="st2" d="M527,526.1c0-0.7-0.3-1.4-0.8-1.9c-0.5-0.5-1.2-0.8-1.9-0.8c-0.7,0-1.4,0.3-2,0.8c-0.3,0.3-0.5,0.5-0.6,0.9
			c-0.2,0.3-0.2,0.7-0.2,1.1c0,0.7,0.2,1.4,0.8,1.9c0.5,0.5,1.1,0.8,1.9,0.8c0,0,0.1,0,0.1,0c0,0,0.1,0,0.1,0c0.7,0,1.4-0.3,1.9-0.8
			C526.8,527.5,527,526.8,527,526.1"/>
		<path class="st1" d="M526.1,542.7c1.2-1.1,1.1-3.1-0.2-4.1c-0.3-0.2-0.7-0.4-1.1-0.5c-0.4-0.1-0.7-0.1-1.1-0.1
			c-0.9-0.1-1.7-0.4-2.4-0.9c-0.7-0.5-1.3-1.3-1.6-2.1c-0.1-0.4-0.2-0.8-0.3-1.2c0-0.3,0-0.7-0.1-1c-0.1-0.6-0.4-1.1-0.9-1.5
			c-0.5-0.5-1.2-0.7-1.9-0.7c-0.8,0-1.6-0.3-2.4-0.7c-0.7-0.5-1.3-1.1-1.7-1.8c-0.2-0.4-0.3-0.8-0.4-1.2c-0.1-0.4,0-0.7-0.1-1.1
			c0-0.7-0.4-1.5-1-2c-1.3-1-3.2-0.8-4.1,0.6c-0.9,1.4-0.4,3.2,1.1,4c0.7,0.4,1.6,0.2,2.3,0.5c0.8,0.2,1.6,0.7,2.1,1.3
			c0.6,0.6,1,1.4,1.1,2.2c0.1,0.7,0,1.4,0.3,2.1c0.1,0.3,0.3,0.5,0.5,0.8c0.3,0.3,0.6,0.5,1,0.7c0.5,0.2,1,0.2,1.5,0.2
			c1.1,0.1,2.2,0.7,2.9,1.5c0.7,0.8,1.1,1.9,1.1,3c0,1.1,0.6,2.1,1.6,2.5C524,543.7,525.3,543.5,526.1,542.7"/>
		<path class="st1" d="M526.4,535.3c1-0.9,1.1-2.5,0.3-3.6c-0.4-0.5-0.9-0.9-1.5-1c-0.6-0.2-1.3-0.1-1.9-0.3
			c-1.4-0.4-2.6-1.4-3.1-2.7c-0.3-0.6-0.3-1.3-0.3-1.9c0-0.7-0.3-1.3-0.7-1.8c-0.9-1-2.3-1.1-3.4-0.5c-1.1,0.7-1.6,2.1-1.2,3.3
			c0.2,0.6,0.7,1.1,1.2,1.4c0.3,0.2,0.6,0.3,0.9,0.3c0.3,0,0.7,0,1,0.1c1.4,0.2,2.7,1.1,3.3,2.3c0.3,0.6,0.5,1.2,0.6,1.9
			c0,0.4,0,0.7,0.1,1c0.1,0.3,0.2,0.6,0.4,0.9c0.7,1.1,2.2,1.5,3.4,1C525.8,535.7,526.1,535.5,526.4,535.3"/>
		<path class="st1" d="M348.8,498.2c2.1,0.6,3.2,0.9,5.3,1.5c0,5.3,0,8,0,13.3c3-4.5,4.5-6.7,7.4-11.2c1.7,0.5,2.6,0.7,4.3,1.1
			c0.4,5.4,0.5,8.1,1,13.5c2.7-4.6,4-6.9,6.7-11.6c2.1,0.5,3.2,0.8,5.3,1.3c-4.3,6.7-6.4,10-10.8,16.6c-1.9-0.5-2.9-0.7-4.8-1.2
			c-0.5-5.2-0.7-7.8-1.2-13.1c-2.9,4.3-4.4,6.5-7.4,10.8c-1.9-0.5-2.8-0.8-4.7-1.3C349.4,510,349.1,506,348.8,498.2z"/>
		<path class="st1" d="M385.7,527.6c-2.3-0.5-4.2-1.4-5.7-2.5s-2.6-2.6-3.1-4.3c-0.6-1.7-0.6-3.5-0.2-5.5c0.4-1.8,1.2-3.4,2.4-4.7
			c1.1-1.3,2.6-2.2,4.2-2.7c1.7-0.5,3.4-0.5,5.4-0.1c1.8,0.4,3.3,1.1,4.5,2.1s2,2.3,2.5,3.8c0.5,1.5,0.5,3.2,0.1,5.1
			c-0.2,0.8-0.4,1.5-0.6,2.1c-5.4-1.2-8.2-1.8-13.6-3c0,2.9,1.9,4.8,5.6,5.6c1.2,0.3,2.3,0.4,3.5,0.4c1.2,0,2.2-0.1,3.2-0.3
			c-0.1,1.6-0.2,2.4-0.3,4.1c-1,0.3-2.2,0.4-3.6,0.4S387.2,528,385.7,527.6 M391,516.6c0.2-1.3-0.1-2.4-0.6-3.2
			c-0.6-0.8-1.5-1.4-2.7-1.7c-1.2-0.3-2.3-0.2-3.2,0.4c-0.9,0.5-1.7,1.4-2.2,2.6C385.8,515.4,387.6,515.8,391,516.6
			C391,516.6,391,516.6,391,516.6z"/>
		<path class="st1" d="M408.3,532.3c-1.4-0.3-2.5-0.8-3.5-1.5c-1-0.7-1.7-1.6-2.1-2.7c-0.2,1-0.3,1.4-0.5,2.4c-2-0.4-3.1-0.6-5.1-1
			c2-9.8,4-19.6,6-29.3c2,0.4,3.1,0.6,5.1,1c-1,5.2-1.5,7.9-2.6,13.1c1.7-1.6,4-2.1,6.7-1.6c1.7,0.3,3.1,1,4.3,2
			c1.2,1,2.1,2.4,2.6,4c0.5,1.6,0.6,3.4,0.3,5.4c-0.3,1.8-1,3.4-2,4.8c-1,1.4-2.4,2.4-4,3C411.8,532.5,410.1,532.7,408.3,532.3
			 M408,527.6c1.5,0.3,2.9,0,4-0.8c1.1-0.8,1.8-2,2.1-3.6c0.3-1.6,0-3-0.7-4.1c-0.8-1.2-1.9-1.9-3.4-2.2s-2.8,0-3.9,0.8
			c-1.1,0.8-1.9,2-2.2,3.6c-0.3,1.6-0.1,2.9,0.7,4.1C405.3,526.6,406.4,527.3,408,527.6"/>
		<path class="st1" d="M423.4,515.2c2,0.3,3,0.5,5,0.8c-0.1,1-0.2,1.5-0.3,2.4c1.6-1.8,3.9-2.5,6.8-2c1.7,0.2,3.1,0.9,4.4,1.9
			c1.2,1,2.1,2.3,2.7,3.9c0.6,1.6,0.7,3.4,0.5,5.4c-0.2,1.8-0.9,3.4-1.8,4.9c-1,1.4-2.3,2.5-3.9,3.2c-1.6,0.7-3.3,0.9-5.1,0.7
			c-1.3-0.2-2.5-0.6-3.5-1.3c-1-0.6-1.7-1.5-2.2-2.4c-0.7,4.5-1.1,6.7-1.8,11.2c-2.2-0.4-3.3-0.5-5.4-0.9
			C420.3,533.7,421.9,524.4,423.4,515.2C423.4,515.2,423.4,515.2,423.4,515.2z M431.2,531.6c1.5,0.2,2.9-0.1,4-0.9s1.8-2.1,2-3.7
			c0.2-1.6-0.1-3-0.9-4.1c-0.8-1.1-2-1.8-3.5-2.1c-1.5-0.2-2.8,0.1-3.9,0.9c-1.1,0.9-1.8,2.1-2.1,3.7c-0.3,1.6,0,2.9,0.8,4.1
			C428.5,530.6,429.6,531.3,431.2,531.6"/>
		<path class="st1" d="M446.3,518.6c2,0.3,3,0.4,5.1,0.6c-0.1,1.2-0.2,1.9-0.3,3.1c0.7-1,1.5-1.8,2.5-2.3c1-0.5,2-0.7,3.2-0.5
			c0.8,0.1,1.5,0.3,2.2,0.7c-0.4,1.9-0.6,2.9-1,4.8c-0.8-0.4-1.5-0.6-2.3-0.7c-1.4-0.2-2.6,0.2-3.6,1.1c-0.9,0.9-1.5,2.3-1.7,4.1
			c-0.4,3.4-0.6,5.2-1,8.6c-2.2-0.3-3.2-0.4-5.4-0.7C444.9,529.9,445.4,526.2,446.3,518.6C446.3,518.6,446.3,518.6,446.3,518.6z"/>
		<path class="st1" d="M468.1,540.9c-2-0.2-3.7-0.8-5.2-1.8c-1.5-1-2.7-2.3-3.5-4c-0.8-1.6-1.1-3.4-0.9-5.4c0.2-1.8,0.8-3.4,1.9-4.9
			c1-1.4,2.4-2.5,4.1-3.3c1.7-0.8,3.5-1,5.5-0.9c1.9,0.2,3.6,0.7,5.1,1.7c1.5,1,2.7,2.3,3.5,3.9c0.8,1.6,1.2,3.4,1,5.4
			c-0.1,1.9-0.7,3.5-1.7,5s-2.4,2.6-4.1,3.4C472.1,540.8,470.2,541.1,468.1,540.9 M468.6,536.2c1.5,0.1,2.8-0.3,3.9-1.2
			c1.1-0.9,1.7-2.2,1.8-3.8c0.1-1.6-0.2-2.9-1.1-4.1c-0.9-1.1-2.1-1.7-3.6-1.9c-1.5-0.1-2.8,0.3-3.9,1.2c-1.1,0.9-1.7,2.2-1.8,3.8
			c-0.2,1.6,0.2,3,1.1,4.1C465.8,535.4,467,536.1,468.6,536.2"/>
		<path class="st1" d="M488.3,542.5c-1.5-0.1-2.9-0.4-4.3-0.8c-1.3-0.4-2.3-1-3-1.6c0.4-1.7,0.6-2.5,1-4.2c0.8,0.6,1.8,1.2,3,1.6
			c1.2,0.4,2.3,0.7,3.4,0.8c2.2,0.1,3.3-0.3,3.4-1.4c0-0.6-0.2-1-0.6-1.4c-0.4-0.3-1.4-0.7-2.8-1.2c-2.3-0.8-3.9-1.7-4.8-2.7
			c-0.9-1-1.3-2.4-1.2-4c0.1-1.8,0.9-3.2,2.4-4.2c1.5-1,3.4-1.4,5.8-1.2c1.2,0.1,2.4,0.3,3.5,0.6c1.2,0.3,2.1,0.8,2.9,1.2
			c-0.3,1.6-0.5,2.5-0.8,4.1c-0.8-0.5-1.7-0.9-2.7-1.2c-1-0.3-2-0.5-2.9-0.6c-1.9-0.1-2.8,0.3-2.9,1.3c0,0.6,0.2,1,0.6,1.3
			c0.4,0.3,1.3,0.7,2.6,1.2c2.4,0.8,4.1,1.8,5.1,2.8s1.4,2.4,1.3,4c-0.1,1.9-0.9,3.3-2.5,4.3C493.1,542.2,491,542.7,488.3,542.5"/>
		<path class="st1" d="M502.2,525.6c-0.5,0-0.9-0.2-1.3-0.4c-0.4-0.2-0.7-0.6-1-1c-0.2-0.4-0.3-0.9-0.3-1.4c0-0.5,0.2-0.9,0.4-1.3
			c0.2-0.4,0.6-0.7,1-0.9c0.4-0.2,0.9-0.3,1.4-0.3c0.5,0,0.9,0.2,1.3,0.4c0.4,0.3,0.7,0.6,1,1c0.2,0.4,0.3,0.9,0.3,1.4
			c0,0.5-0.2,0.9-0.4,1.3c-0.2,0.4-0.6,0.7-1,1C503.2,525.5,502.7,525.6,502.2,525.6C502.2,525.6,502.2,525.6,502.2,525.6z
			 M502.2,525.1c0.4,0,0.8-0.1,1.1-0.2c0.3-0.2,0.6-0.4,0.9-0.8c0.2-0.3,0.3-0.7,0.4-1.2c0-0.4-0.1-0.8-0.2-1.1
			c-0.2-0.3-0.4-0.6-0.8-0.9c-0.3-0.2-0.7-0.3-1.1-0.4c-0.4,0-0.8,0.1-1.1,0.2c-0.3,0.2-0.6,0.4-0.9,0.8c-0.2,0.3-0.3,0.7-0.4,1.1
			c0,0.4,0.1,0.8,0.2,1.1c0.2,0.3,0.4,0.6,0.8,0.9C501.4,525,501.8,525.1,502.2,525.1C502.2,525.1,502.2,525.1,502.2,525.1z
			 M501.5,521.5c0.4,0,0.5,0,0.9,0c0.3,0,0.6,0.1,0.7,0.3c0.2,0.2,0.3,0.4,0.2,0.6c0,0.4-0.2,0.6-0.5,0.7c0.2,0.4,0.4,0.6,0.6,1.1
			c-0.2,0-0.3,0-0.5,0c-0.2-0.4-0.3-0.6-0.5-1c-0.2,0-0.3,0-0.5,0c0,0.4,0,0.6,0,0.9c-0.2,0-0.3,0-0.5,0
			C501.4,523,501.4,522.5,501.5,521.5C501.5,521.5,501.5,521.5,501.5,521.5z M501.9,522.7c0.1,0,0.2,0,0.4,0c0.2,0,0.4,0,0.5-0.1
			c0.1-0.1,0.1-0.2,0.2-0.3c0-0.3-0.2-0.4-0.6-0.4c-0.2,0-0.2,0-0.4,0C501.9,522.2,501.9,522.4,501.9,522.7
			C501.9,522.7,501.9,522.7,501.9,522.7z"/>
	</g>
</g>
</svg>
