<?xml version="1.0" encoding="utf-8"?>
<!-- Generator: Adobe Illustrator 25.2.0, SVG Export Plug-In . SVG Version: 6.00 Build 0)  -->
<svg version="1.1" id="Layer_1" xmlns="http://www.w3.org/2000/svg" xmlns:xlink="http://www.w3.org/1999/xlink" x="0px" y="0px"
	 viewBox="0 0 1000 1000" style="enable-background:new 0 0 1000 1000;" xml:space="preserve">
<style type="text/css">
	.st0{fill:#FFFFFF;}
	.st1{fill-rule:evenodd;clip-rule:evenodd;fill:#B8E1F8;}
	.st2{fill-rule:evenodd;clip-rule:evenodd;fill:#2FB56A;}
	.st3{fill-rule:evenodd;clip-rule:evenodd;fill:#4C7CBF;}
	.st4{fill:none;stroke:#010101;stroke-width:8;stroke-linejoin:round;}
	.st5{fill:none;stroke:#FFFFFF;stroke-width:8;stroke-linejoin:round;}
</style>
<g id="Ball--group">
	
		<ellipse id="Ball-bg" transform="matrix(0.7071 -0.7071 0.7071 0.7071 -236.4523 487.7926)" cx="470.6" cy="529.3" rx="133.5" ry="133.5"/>
	<circle id="Ball_1_" class="st0" cx="470.6" cy="529.3" r="126.1"/>
	<g>
		<g>
			<path class="st1" d="M459.7,518.5c2.9,7.4,8.1,10.6,16.6,7.8c-0.4,2.5-0.9,4.9-1.7,7.4c-7.8,27.7-39.7,43.5-66.8,37.1
				c-29.1-6.5-44.1-39.1-36.9-66.5c8.4-28.1,39.7-44.7,67.8-35.1c-4.5,7.1-4,14.6,2,18.6C429.7,502.9,442.1,520.5,459.7,518.5
				L459.7,518.5z"/>
			<path class="st2" d="M396.5,568.6c-29.2-6.7-44.1-39.6-36.9-67.1c8.4-28.1,39.6-44.9,67.7-35.2c-4.5,7.2-4,14.7,2,18.7"/>
			<path class="st3" d="M454.2,520.3c2.9,7.5,8.1,10.6,16.6,7.9c-0.4,2.5-0.9,4.9-1.7,7.4c-7.8,27.8-39.6,43.7-66.7,37.3
				c-29.2-6.5-44.1-39.3-36.9-66.7c8.4-28.1,39.6-44.9,67.7-35.2c-4.5,7.1-4,14.7,2,18.7C424.2,504.7,436.5,522.3,454.2,520.3
				L454.2,520.3z"/>
			<path class="st4" d="M349.1,519.1c11.3,2.9,22.7,5.6,34.1,8.3c8.3-15.2,16.7-30.4,25.2-45.6c-1.6,25.4-3.2,50.8-4.8,76.2
				c7.2-13,14.6-26.1,21.9-39.1c2.7,7.4,4.1,11.1,6.8,18.4c10.8,2.3,16.2,3.5,26.9,5.7"/>
			<path class="st5" d="M347.1,513.2c11.3,2.9,22.7,5.7,34.1,8.5c8.3-15.2,16.7-30.4,25.2-45.6c-1.6,25.4-3.2,50.9-4.8,76.3
				c7.2-13,14.6-26.1,21.9-39c2.7,7.4,4.1,11.1,6.8,18.5c10.8,2.4,16.2,3.5,26.9,5.8"/>
		</g>
	</g>
</g>
</svg>
