<svg version="1.1" id="wapuugotchi_svg__item" viewBox="0 0 1e3 1e3" xmlns="http://www.w3.org/2000/svg">
	<g class="Ball--group">
		<circle transform="rotate(-45.001 470.59 529.33)" cx="470.6" cy="529.3" r="133.5"/>
		<circle cx="470.6" cy="529.3" r="126.1" fill="#fff"/>
		<path d="M459.7 518.5c2.9 7.4 8.1 10.6 16.6 7.8-.4 2.5-.9 4.9-1.7 7.4-7.8 27.7-39.7 43.5-66.8 37.1-29.1-6.5-44.1-39.1-36.9-66.5 8.4-28.1 39.7-44.7 67.8-35.1-4.5 7.1-4 14.6 2 18.6-11 15.1 1.4 32.7 19 30.7z" clip-rule="evenodd" fill="#b8e1f8" fill-rule="evenodd"/>
		<path d="m396.5 568.6c-29.2-6.7-44.1-39.6-36.9-67.1 8.4-28.1 39.6-44.9 67.7-35.2-4.5 7.2-4 14.7 2 18.7" clip-rule="evenodd" fill="#2fb56a" fill-rule="evenodd"/>
		<path d="M454.2 520.3c2.9 7.5 8.1 10.6 16.6 7.9-.4 2.5-.9 4.9-1.7 7.4-7.8 27.8-39.6 43.7-66.7 37.3-29.2-6.5-44.1-39.3-36.9-66.7 8.4-28.1 39.6-44.9 67.7-35.2-4.5 7.1-4 14.7 2 18.7-11 15 1.3 32.6 19 30.6z" clip-rule="evenodd" fill="#4c7cbf" fill-rule="evenodd"/>
		<path d="m349.1 519.1c11.3 2.9 22.7 5.6 34.1 8.3 8.3-15.2 16.7-30.4 25.2-45.6l-4.8 76.2c7.2-13 14.6-26.1 21.9-39.1 2.7 7.4 4.1 11.1 6.8 18.4 10.8 2.3 16.2 3.5 26.9 5.7" fill="none" stroke="#010101" stroke-linejoin="round" stroke-width="8"/>
		<path d="m347.1 513.2c11.3 2.9 22.7 5.7 34.1 8.5 8.3-15.2 16.7-30.4 25.2-45.6-1.6 25.4-3.2 50.9-4.8 76.3 7.2-13 14.6-26.1 21.9-39 2.7 7.4 4.1 11.1 6.8 18.5 10.8 2.4 16.2 3.5 26.9 5.8" fill="none" stroke="#fff" stroke-linejoin="round" stroke-width="8"/>
	</g>
</svg>
