<?xml version="1.0" encoding="utf-8"?>
<!-- Generator: Adobe Illustrator 25.2.0, SVG Export Plug-In . SVG Version: 6.00 Build 0)  -->
<svg version="1.1" id="Layer_1" xmlns="http://www.w3.org/2000/svg" xmlns:xlink="http://www.w3.org/1999/xlink" x="0px" y="0px"
	 viewBox="0 0 1000 1000" style="enable-background:new 0 0 1000 1000;" xml:space="preserve">
<style type="text/css">
	.st0{fill:#8C8C8C;}
	.st1{fill:#AEAEAE;}
	.st2{clip-path:url(#ClippingPath_1_);}
	.st3{fill-rule:evenodd;clip-rule:evenodd;fill:#763422;}
	.st4{fill-rule:evenodd;clip-rule:evenodd;fill:#4E2318;}
	.st5{clip-path:url(#SVGID_2_);}
	.st6{fill-rule:evenodd;clip-rule:evenodd;fill:#1B0601;fill-opacity:0.5176;}
	.st7{fill-rule:evenodd;clip-rule:evenodd;fill:#2D0902;}
	.st8{fill-rule:evenodd;clip-rule:evenodd;fill:#AA908A;}
	.st9{clip-path:url(#SVGID_4_);}
	
		.st10{fill:none;stroke:#040100;stroke-width:2;stroke-linecap:round;stroke-linejoin:round;stroke-miterlimit:1.4142;stroke-opacity:0.2745;}
	.st11{fill-rule:evenodd;clip-rule:evenodd;fill:#161616;}
	.st12{clip-path:url(#SVGID_6_);}
	
		.st13{fill:none;stroke:#2A2A2A;stroke-width:4;stroke-linecap:round;stroke-linejoin:round;stroke-miterlimit:1.4142;stroke-opacity:0.3686;}
	.st14{fill:none;stroke:#A2A2A2;stroke-width:4;stroke-linecap:round;stroke-linejoin:round;stroke-miterlimit:1.4142;}
	.st15{fill-rule:evenodd;clip-rule:evenodd;fill:#0F0F0F;fill-opacity:0.3176;}
	.st16{fill-rule:evenodd;clip-rule:evenodd;fill:#904435;}
	.st17{fill-rule:evenodd;clip-rule:evenodd;fill:#717171;}
	.st18{clip-path:url(#SVGID_8_);}
	
		.st19{fill-rule:evenodd;clip-rule:evenodd;fill:#534340;stroke:#A3A1A1;stroke-linecap:round;stroke-linejoin:round;stroke-miterlimit:1.4142;}
	
		.st20{fill-rule:evenodd;clip-rule:evenodd;fill:#353434;stroke:#A3A1A1;stroke-linecap:round;stroke-linejoin:round;stroke-miterlimit:1.4142;}
	
		.st21{fill:none;stroke:#000000;stroke-width:0.85;stroke-linecap:round;stroke-linejoin:round;stroke-miterlimit:1.4142;stroke-opacity:0.1608;}
	.st22{fill:none;stroke:#151515;stroke-width:0.85;stroke-linecap:round;stroke-linejoin:round;stroke-miterlimit:1.4142;}
	
		.st23{fill:none;stroke:#200C08;stroke-width:0.85;stroke-linecap:round;stroke-linejoin:round;stroke-miterlimit:1.4142;stroke-opacity:0.2902;}
	
		.st24{fill:none;stroke:#2A1410;stroke-width:0.85;stroke-linecap:round;stroke-linejoin:round;stroke-miterlimit:1.4142;stroke-opacity:0.3098;}
	
		.st25{fill:none;stroke:#2E2928;stroke-width:0.95;stroke-linecap:round;stroke-linejoin:round;stroke-miterlimit:1.4142;stroke-opacity:0.4196;}
	.st26{fill:none;stroke:#2E2928;stroke-width:0.95;stroke-linecap:round;stroke-linejoin:round;stroke-miterlimit:1.4142;}
	.st27{fill-rule:evenodd;clip-rule:evenodd;fill:#222222;fill-opacity:0.4157;}
	.st28{fill-rule:evenodd;clip-rule:evenodd;fill:#E47962;}
	.st29{fill-rule:evenodd;clip-rule:evenodd;fill:#A73F29;}
	.st30{fill-rule:evenodd;clip-rule:evenodd;fill:#D0A89F;}
	.st31{fill-rule:evenodd;clip-rule:evenodd;fill:#202020;fill-opacity:0.4157;}
	.st32{fill-rule:evenodd;clip-rule:evenodd;fill:#FF6444;}
	.st33{fill-rule:evenodd;clip-rule:evenodd;fill:#FF8E77;}
	.st34{fill-rule:evenodd;clip-rule:evenodd;fill:#53261F;}
	.st35{clip-path:url(#SVGID_10_);}
	.st36{fill:none;stroke:#222222;stroke-width:0.45;stroke-linecap:round;stroke-linejoin:round;stroke-miterlimit:1.4142;}
	.st37{fill-rule:evenodd;clip-rule:evenodd;fill:#101010;fill-opacity:0.4824;}
	.st38{fill-rule:evenodd;clip-rule:evenodd;fill:#FFCEC4;}
	.st39{fill-rule:evenodd;clip-rule:evenodd;fill:#635A5A;}
	.st40{fill:none;stroke:#2B0900;stroke-width:0.85;stroke-linecap:round;stroke-linejoin:round;stroke-miterlimit:1.4142;}
	.st41{fill:none;stroke:#2B0900;stroke-linecap:round;stroke-linejoin:round;stroke-miterlimit:1.4142;stroke-opacity:0.3059;}
</style>
<g id="GearBall">
	
		<ellipse id="Ball--bg" transform="matrix(0.7071 -0.7071 0.7071 0.7071 -236.4377 487.8127)" cx="470.6" cy="529.3" rx="133.5" ry="133.5"/>
	<circle id="Grey" class="st0" cx="470.6" cy="529.3" r="126.1"/>
	
		<ellipse id="LightGrey" transform="matrix(0.1935 -0.9811 0.9811 0.1935 -151.9316 832.3439)" class="st1" cx="430.3" cy="508.6" rx="80.9" ry="73.8"/>
	<path id="MiddleLine" d="M500.2,533c-11.4,0-22.9-0.6-34.4-1.9c-40.5-4.5-80.8-17.4-116.4-37.2l0.5-0.9
		c75,41.7,164.6,50.3,246,23.6l0.3,0.9C564.9,527.8,532.7,533,500.2,533z"/>
	<g>
		<defs>
			
				<ellipse id="ClippingPath" transform="matrix(9.003421e-02 -0.9959 0.9959 9.003421e-02 -120.628 887.3195)" cx="425.3" cy="509.7" rx="69" ry="64.2"/>
		</defs>
		<clipPath id="ClippingPath_1_">
			<use xlink:href="#ClippingPath"  style="overflow:visible;"/>
		</clipPath>
		<g id="g173" class="st2">
			<path id="fond" class="st3" d="M429.8,441.5c35.4,2.3,62.1,35.1,59.5,73.1c-2.5,38-33.3,66.9-68.7,64.6
				c-35.4-2.3-62.1-35.1-59.5-73.1S394.5,439.2,429.8,441.5z"/>
			<path id="ombre" class="st4" d="M485.1,446.5c-105.9-11.4-128.2,77.1-63.6,135c-65.8,1.6-114.7-49.6-89.3-127.2
				C351.3,396.2,432.9,400.6,485.1,446.5z"/>
			<g id="Roue-fond">
				<g>
					<defs>
						<rect id="SVGID_1_" x="356.6" y="463.5" width="148.3" height="149.1"/>
					</defs>
					<clipPath id="SVGID_2_">
						<use xlink:href="#SVGID_1_"  style="overflow:visible;"/>
					</clipPath>
					<g id="g28" class="st5">
						<g id="g26">
							<g id="roue-fond-ombre">
								
									<animateTransform  accumulate="none" additive="replace" attributeName="transform" attributeType="XML" begin="4s" calcMode="linear" dur="20s" fill="remove" from="0,20.22242498397827,47.80959892272949" repeatCount="indefinite" restart="always" to="360,20.22242498397827,47.80959892272949" type="rotate">
									</animateTransform>
								<path id="path20" class="st6" d="M429.8,463.5l12.3,15.5l17.5-9.2l4.9,19.2l19.7-1.3l-3.3,19.5l18.6,6.9l-11,16.5l14.2,13.8
									L486,555l7.3,18.4l-19.6,2.9l-0.8,19.8l-19.1-5.3l-8.8,17.7l-15.2-12.6l-15.2,12.6l-8.8-17.7l-19.1,5.3l-0.8-19.8l-19.6-2.9
									l7.3-18.4L357,544.4l14.2-13.8l-11-16.5l18.6-6.9l-3.3-19.5l19.7,1.3l4.9-19.2l17.5,9.2L429.8,463.5z"/>
							</g>
							<g id="roue-fond-elem">
								
									<animateTransform  accumulate="none" additive="replace" attributeName="transform" attributeType="XML" begin="4s" calcMode="linear" dur="20s" fill="remove" from="0,20.53931474685669,48.286149978637695" repeatCount="indefinite" restart="always" to="360,20.53931474685669,48.286149978637695" type="rotate">
									</animateTransform>
								<path id="path23" class="st7" d="M431.6,466.1l12.3,15.5l17.5-9.2l4.9,19.2l19.7-1.3l-3.3,19.5l18.6,6.9l-11,16.5l14.2,13.8
									l-16.7,10.6L495,576l-19.6,2.9l-0.8,19.8l-19.1-5.3l-8.8,17.7l-15.2-12.6L416.4,611l-8.8-17.7l-19.1,5.3l-0.8-19.8
									l-19.6-2.9l7.3-18.4L358.8,547l14.2-13.8l-11-16.5l18.6-6.9l-3.3-19.5l19.7,1.3l4.9-19.2l17.5,9.2L431.6,466.1z"/>
							</g>
						</g>
					</g>
				</g>
			</g>
			<g id="Pipes">
				<g id="g55">
					<g id="Pipe2">
						
							<animateTransform  accumulate="none" additive="replace" attributeName="transform" attributeType="XML" begin="5.25s" calcMode="linear" dur=".5s" fill="remove" repeatCount="indefinite" restart="always" type="translate" values="0,0;0,-.05;0,-.1;0,-.5;0,-.1;0,-.05;0,0;0,0;0,0;0,0">
							</animateTransform>
						<path id="path31" class="st8" d="M383.5,533.7c0,0-0.1-27.4-0.1-31.6c0-2.4,1.9-4.6,5.5-4.6c3.5,0,5.6,2.3,5.6,4.7
							c0,6.1,0,31.5,0,31.5L383.5,533.7z"/>
						<g>
							<defs>
								<path id="SVGID_3_" d="M383.5,533.7c0,0-0.1-27.4-0.1-31.6c0-2.4,1.9-4.6,5.5-4.6c3.5,0,5.6,2.3,5.6,4.7
									c0,6.1,0,31.5,0,31.5L383.5,533.7z"/>
							</defs>
							<clipPath id="SVGID_4_">
								<use xlink:href="#SVGID_3_"  style="overflow:visible;"/>
							</clipPath>
							<g id="g38" class="st9">
								<path id="path36" class="st10" d="M392,492.9l-6.9,3.2l0.1,32.1"/>
							</g>
						</g>
						<ellipse id="ellipse40" class="st11" cx="388.6" cy="501.5" rx="4.2" ry="3.1"/>
					</g>
					<g id="Pipe1">
						
							<animateTransform  accumulate="none" additive="replace" attributeName="transform" attributeType="XML" begin="5s" calcMode="linear" dur=".5s" fill="remove" repeatCount="indefinite" restart="always" type="translate" values="0,0;0,-.05;0,-.1;0,-.5;0,-.1;0,-.05;0,0;0,0;0,0;0,0">
							</animateTransform>
						<path id="path43" class="st8" d="M369.6,534.9c0,0-0.1-27.4-0.1-31.6c0-2.4,1.9-4.6,5.5-4.6c3.5,0,5.6,2.3,5.6,4.7
							c0,6.1,0,31.5,0,31.5L369.6,534.9z"/>
						<g>
							<defs>
								<path id="SVGID_5_" d="M369.6,534.9c0,0-0.1-27.4-0.1-31.6c0-2.4,1.9-4.6,5.5-4.6c3.5,0,5.6,2.3,5.6,4.7
									c0,6.1,0,31.5,0,31.5L369.6,534.9z"/>
							</defs>
							<clipPath id="SVGID_6_">
								<use xlink:href="#SVGID_5_"  style="overflow:visible;"/>
							</clipPath>
							<g id="g50" class="st12">
								<path id="path48" class="st10" d="M378.1,494.1l-6.9,3.2l0.1,32.1"/>
							</g>
						</g>
						<ellipse id="ellipse52" class="st11" cx="374.8" cy="502.6" rx="4.2" ry="3.1"/>
					</g>
				</g>
			</g>
			<g id="Elements">
				<g id="g168">
					<g id="moteur-acier">
						
							<animateTransform  accumulate="none" additive="replace" attributeName="transform" attributeType="XML" begin="0s" calcMode="linear" dur=".25s" fill="remove" repeatCount="indefinite" restart="always" type="translate" values="0,0;.1,-.1;0,0">
							</animateTransform>
						<g id="gros-tuyau">
							<g id="g62">
								<path id="path58" class="st13" d="M448.2,482.3c-38.2,44.4-43.7,84-16.5,119"/>
								<path id="path60" class="st14" d="M445.1,481.1c-38.2,44.4-43.7,84-16.5,119"/>
							</g>
						</g>
						<g id="Entree-piston">
							<path id="path65" class="st15" d="M444.1,520l-29.1-24l7.8-4.4l24.1,20L444.1,520z"/>
							<path id="path67" class="st16" d="M442.6,516.9l-29.1-24l7.8-4.4l24.1,20L442.6,516.9z"/>
						</g>
						<g id="Piston">
							<path id="path70" class="st17" d="M461.3,501.9c-1.4,3-4.1,5.1-7.3,5.9c-3.2,0.7-6.6-0.1-9.1-2.2c-8.4-7-20-16.6-28.4-23.6
								c-2.5-2.1-3.9-5.3-3.8-8.6c0.1-3.3,1.7-6.3,4.4-8.3c15.3-11,40.9-29.4,40.9-29.4l24.8,20.6
								C482.7,456.3,469.3,484.8,461.3,501.9z"/>
							<g>
								<defs>
									<path id="SVGID_7_" d="M383.5,533.7c0,0-0.1-27.4-0.1-31.6c0-2.4,1.9-4.6,5.5-4.6c3.5,0,5.6,2.3,5.6,4.7
										c0,6.1,0,31.5,0,31.5L383.5,533.7z"/>
								</defs>
								<clipPath id="SVGID_8_">
									<use xlink:href="#SVGID_7_"  style="overflow:visible;"/>
								</clipPath>
								<g id="g88" class="st18">
									<path id="path76" class="st19" d="M392.8,462.3l79.6,68.2"/>
									<path id="path78" class="st19" d="M392.8,451.3l79.6,68.2"/>
									<path id="path80" class="st19" d="M403.9,449.3l79.6,68.2"/>
									<path id="path82" class="st19" d="M409.5,443.8l79.6,68.2"/>
									<path id="path84" class="st19" d="M417,439.7l79.6,68.2"/>
									<path id="path86" class="st20" d="M424.5,436.1l79.6,68.2"/>
								</g>
							</g>
						</g>
					</g>
					<g id="Calque19">
						<path id="path92" class="st21" d="M420.3,436.9c8.5,60.6,50.6,81,105.9,85.8"/>
						<path id="path94" class="st22" d="M417.4,436.6c8.5,60.6,50.6,81,105.9,85.8"/>
						<path id="path96" class="st23" d="M431.2,419.3c1.3,78.3,51.1,93.5,111.5,93.4"/>
						<path id="path98" class="st22" d="M427.6,419.3c1.3,78.3,51.1,93.5,111.5,93.4"/>
						<path id="path100" class="st24" d="M444.4,413.2c1.8,77.6,42.6,89,101.8,84.2"/>
						<path id="path102" class="st22" d="M438.9,413.2c1.8,77.6,42.6,89,101.8,84.2"/>
					</g>
					<g id="Courroie">
						
							<animateTransform  accumulate="none" additive="replace" attributeName="transform" attributeType="XML" begin=".5s" calcMode="linear" dur=".25s" fill="remove" repeatCount="indefinite" restart="always" type="translate" values="0,0;0,.2;0,0">
							</animateTransform>
						<path id="courroie-ombre" class="st25" d="M462.2,475.9L388,552.7l12.7,15.8l87.4-52"/>
						<path id="courroie-element" class="st26" d="M461.5,473.6l-74.2,76.8l12.7,15.8l87.4-52"/>
					</g>
					<g id="g109">
						
							<animateTransform  accumulate="none" additive="replace" attributeName="transform" attributeType="XML" begin="1s" calcMode="linear" dur="10s" fill="remove" from="0,11.588799715042114,54.06439781188965" repeatCount="indefinite" restart="always" to="360,11.588799715042114,54.06439781188965" type="rotate">
							</animateTransform>
						<path id="roue-dentee-gauche-ombre" class="st27" d="M385.3,513.5c-3.7-0.2-7.5-0.1-11.2,0.5l-1.3,8.9
							c-3.5,0.7-7,1.8-10.3,3.2l-6.1-6.6c-3.3,1.7-6.5,3.7-9.5,6l3.3,8.4c-2.7,2.4-5.2,5-7.3,7.9l-8.6-2.6c-2.1,3.1-3.8,6.4-5.2,9.9
							l7,5.6c-1.2,3.4-2,6.9-2.4,10.5l-8.8,2c-0.2,3.7-0.1,7.5,0.5,11.2l8.9,1.3c0.7,3.5,1.8,7,3.2,10.3l-6.6,6.1
							c1.7,3.3,3.7,6.5,6,9.5l8.4-3.3c2.4,2.7,5,5.2,7.9,7.3l-2.6,8.6c3.1,2.1,6.4,3.8,9.9,5.2l5.6-7c3.4,1.2,6.9,2,10.5,2.4l2,8.8
							c3.7,0.2,7.5,0.1,11.2-0.5l1.3-8.9c3.5-0.7,7-1.8,10.3-3.2l6.1,6.6c3.3-1.7,6.5-3.7,9.5-6l-3.3-8.4c2.7-2.4,5.2-5,7.3-7.9
							l8.6,2.6c2.1-3.1,3.8-6.4,5.2-9.9l-7-5.6c1.2-3.4,2-6.9,2.4-10.5l8.8-2c0.2-3.7,0.1-7.5-0.5-11.2l-8.9-1.3
							c-0.7-3.5-1.8-7-3.2-10.3l6.6-6.1c-1.7-3.3-3.7-6.5-6-9.5l-8.4,3.3c-2.4-2.7-5-5.2-7.9-7.3l2.6-8.6c-3.1-2.1-6.4-3.8-9.9-5.2
							l-5.6,7c-3.4-1.2-6.9-2-10.5-2.4L385.3,513.5z M381.6,559.1c6.3-0.3,11.6,4.6,11.9,10.9c0.3,6.3-4.6,11.6-10.9,11.9
							c-6.3,0.3-11.6-4.6-11.9-10.9C370.4,564.7,375.3,559.4,381.6,559.1z"/>
					</g>
					<g id="Roue-dentee-gauche">
						
							<animateTransform  accumulate="none" additive="replace" attributeName="transform" attributeType="XML" begin="1s" calcMode="linear" dur="10s" fill="remove" from="0,11.285893440246582,54.38699913024902" repeatCount="indefinite" restart="always" to="360,11.285893440246582,54.38699913024902" type="rotate">
							</animateTransform>
						<path id="path111" class="st28" d="M383.7,515.3c-3.7-0.2-7.5-0.1-11.2,0.5l-1.3,8.9c-3.5,0.7-7,1.8-10.3,3.2l-6.1-6.6
							c-3.3,1.7-6.5,3.7-9.5,6l3.3,8.4c-2.7,2.4-5.2,5-7.3,7.9l-8.6-2.6c-2.1,3.1-3.8,6.4-5.2,9.9l7,5.6c-1.2,3.4-2,6.9-2.4,10.5
							l-8.8,2c-0.2,3.7-0.1,7.5,0.5,11.2l8.9,1.3c0.7,3.5,1.8,7,3.2,10.3l-6.6,6.1c1.7,3.3,3.7,6.5,6,9.5l8.4-3.3
							c2.4,2.7,5,5.2,7.9,7.3l-2.6,8.6c3.1,2.1,6.4,3.8,9.9,5.2l5.6-7c3.4,1.2,6.9,2,10.5,2.4l2,8.8c3.7,0.2,7.5,0.1,11.2-0.5
							l1.3-8.9c3.5-0.7,7-1.8,10.3-3.2l6.1,6.6c3.3-1.7,6.5-3.7,9.5-6l-3.3-8.4c2.7-2.4,5.2-5,7.3-7.9l8.6,2.6
							c2.1-3.1,3.8-6.4,5.2-9.9l-7-5.6c1.2-3.4,2-6.9,2.4-10.5l8.8-2c0.2-3.7,0.1-7.5-0.5-11.2l-8.9-1.3c-0.7-3.5-1.8-7-3.2-10.3
							l6.6-6.1c-1.7-3.3-3.7-6.5-6-9.5l-8.4,3.3c-2.4-2.7-5-5.2-7.9-7.3l2.6-8.6c-3.1-2.1-6.4-3.8-9.9-5.2l-5.6,7
							c-3.4-1.2-6.9-2-10.5-2.4L383.7,515.3z M379.9,560.9c6.3-0.3,11.6,4.6,11.9,10.9c0.3,6.3-4.6,11.6-10.9,11.9
							c-6.3,0.3-11.6-4.6-11.9-10.9C368.7,566.5,373.6,561.2,379.9,560.9z"/>
						
							<ellipse id="circle113" transform="matrix(0.9997 -2.512634e-02 2.512634e-02 0.9997 -14.3355 9.739)" class="st29" cx="380.4" cy="575.3" rx="41.7" ry="41.7"/>
						<path id="path115" class="st30" d="M380.4,538.9l8,9.2l11.7-3.4l1.7,12.1l11.7,3.4l-5.1,11.1l8,9.2l-10.3,6.6l1.7,12.1h-12.2
							l-5.1,11.1l-10.3-6.6l-10.3,6.6l-5.1-11.1h-12.2l1.7-12.1l-10.3-6.6l8-9.2l-5.1-11.1l11.7-3.4l1.7-12.1l11.7,3.4L380.4,538.9z
							"/>
					</g>
					<g id="Carburateur">
						
							<ellipse id="circle118" transform="matrix(5.186239e-02 -0.9987 0.9987 5.186239e-02 -43.9073 944.9233)" class="st31" cx="475.7" cy="495.6" rx="31.6" ry="31.6"/>
						
							<ellipse id="circle120" transform="matrix(5.186235e-02 -0.9987 0.9987 5.186235e-02 -47.6331 945.9019)" class="st32" cx="474.3" cy="498" rx="31.6" ry="31.6"/>
						<g id="carburateur-cadre">
							
								<animateTransform  accumulate="none" additive="replace" attributeName="transform" attributeType="XML" begin="0s" calcMode="linear" dur="1s" fill="remove" from="0,27.88920021057129,41.139801025390625" repeatCount="indefinite" restart="always" to="-360,27.88920021057129,41.139801025390625" type="rotate">
								</animateTransform>
							<path id="path122" class="st33" d="M458.1,484.1c3.4-5.4,9.9-8,16.1-6.4c2.7,0.7,5.5,1.4,8.2,2.1c6.2,1.6,10.7,7,11,13.4
								c0.2,2.7,0.4,5.7,0.5,8.4c0.4,6.4-3.4,12.3-9.3,14.6c-2.6,1-5.3,2.1-7.9,3.1c-5.9,2.3-12.7,0.6-16.8-4.3
								c-1.8-2.1-3.6-4.4-5.4-6.5c-4.1-4.9-4.5-11.9-1.1-17.3C455.1,489,456.7,486.5,458.1,484.1z"/>
						</g>
						<g id="carburateur-centre">
							
								<animateTransform  accumulate="none" additive="replace" attributeName="transform" attributeType="XML" begin="0s" calcMode="linear" dur="1s" fill="remove" from="0,28.088749885559082,41.007850646972656" repeatCount="indefinite" restart="always" to="-360,28.088749885559082,41.007850646972656" type="rotate">
								</animateTransform>
							<path id="path125" class="st34" d="M459.2,483.4c3.4-5.4,9.9-8,16.1-6.4c2.7,0.7,5.5,1.4,8.2,2.1c6.2,1.6,10.7,7,11,13.4
								c0.2,2.7,0.4,5.7,0.5,8.4c0.4,6.4-3.4,12.3-9.3,14.6c-2.6,1-5.3,2.1-7.9,3.1c-5.9,2.3-12.7,0.6-16.8-4.3
								c-1.8-2.1-3.6-4.4-5.4-6.5c-4.1-4.9-4.5-11.9-1.1-17.3C456.2,488.2,457.8,485.7,459.2,483.4z"/>
							<circle id="ecrou" class="st30" cx="474.5" cy="498.5" r="4.8"/>
							<g>
								<defs>
									<path id="SVGID_9_" d="M369.6,534.9c0,0-0.1-27.4-0.1-31.6c0-2.4,1.9-4.6,5.5-4.6c3.5,0,5.6,2.3,5.6,4.7
										c0,6.1,0,31.5,0,31.5L369.6,534.9z"/>
								</defs>
								<clipPath id="SVGID_10_">
									<use xlink:href="#SVGID_9_"  style="overflow:visible;"/>
								</clipPath>
								<g id="g134" class="st35">
									<path id="path132" class="st36" d="M479.3,490.8l-9.7,15.5"/>
								</g>
							</g>
						</g>
					</g>
					<g id="Roue-dentee-droite">
						<g id="g139">
							
								<animateTransform  accumulate="none" additive="replace" attributeName="transform" attributeType="XML" begin="1s" calcMode="linear" dur="6.675s" fill="remove" from="0,27.80020046234131,50.083900451660156" repeatCount="indefinite" restart="always" to="-360,27.80020046234131,50.083900451660156" type="rotate">
								</animateTransform>
							<path id="roue-dentee-droite-ombre" class="st37" d="M471,511.1c-3.7,0.1-7.3,0.7-10.8,1.9l-0.6,6.2
								c-3.3,1.4-6.3,3.3-8.9,5.6l-5.9-2.1c-2.5,2.7-4.7,5.7-6.3,9l4,4.8c-1.3,3.3-2.1,6.8-2.3,10.3l-5.7,2.6
								c0.1,3.7,0.7,7.3,1.9,10.8l6.2,0.6c1.4,3.3,3.3,6.3,5.6,8.9l-2.1,5.9c2.7,2.5,5.7,4.7,9,6.3l4.8-4c3.3,1.3,6.8,2.1,10.3,2.3
								l2.6,5.7c3.7-0.1,7.3-0.7,10.8-1.9l0.6-6.2c3.3-1.4,6.3-3.3,8.9-5.6l5.9,2.1c2.5-2.7,4.7-5.7,6.3-9l-4-4.8
								c1.3-3.3,2.1-6.8,2.3-10.3l5.7-2.6c-0.1-3.7-0.7-7.3-1.9-10.8l-6.2-0.6c-1.4-3.3-3.3-6.3-5.6-8.9l2.1-5.9
								c-2.7-2.5-5.7-4.7-9-6.3l-4.8,4c-3.3-1.3-6.8-2.1-10.3-2.3L471,511.1z M470.5,541.1c4.1-0.7,7.9,2,8.6,6.1
								c0.7,4.1-2,7.9-6.1,8.6c-4.1,0.7-7.9-2-8.6-6.1C463.7,545.7,466.5,541.8,470.5,541.1z"/>
						</g>
						<g id="roue-dentee-droite-elem">
							
								<animateTransform  accumulate="none" additive="replace" attributeName="transform" attributeType="XML" begin="1s" calcMode="linear" dur="6.675s" fill="remove" from="0,27.412100791931152,50.342899322509766" repeatCount="indefinite" restart="always" to="-360,27.412100791931152,50.342899322509766" type="rotate">
								</animateTransform>
							<path id="path141" class="st38" d="M468.8,512.5c-3.7,0.1-7.3,0.7-10.8,1.9l-0.6,6.2c-3.3,1.4-6.3,3.3-8.9,5.6l-5.9-2.1
								c-2.5,2.7-4.7,5.7-6.3,9l4,4.8c-1.3,3.3-2.1,6.8-2.3,10.3l-5.7,2.6c0.1,3.7,0.7,7.3,1.9,10.8l6.2,0.6
								c1.4,3.3,3.3,6.3,5.6,8.9l-2.1,5.9c2.7,2.5,5.7,4.7,9,6.3l4.8-4c3.3,1.3,6.8,2.1,10.3,2.3l2.6,5.7c3.7-0.1,7.3-0.7,10.8-1.9
								l0.6-6.2c3.3-1.4,6.3-3.3,8.9-5.6l5.9,2.1c2.5-2.7,4.7-5.7,6.3-9l-4-4.8c1.3-3.3,2.1-6.8,2.3-10.3l5.7-2.6
								c-0.1-3.7-0.7-7.3-1.9-10.8l-6.2-0.6c-1.4-3.3-3.3-6.3-5.6-8.9l2.1-5.9c-2.7-2.5-5.7-4.7-9-6.3l-4.8,4
								c-3.3-1.3-6.8-2.1-10.3-2.3L468.8,512.5z M468.4,542.6c4.1-0.7,7.9,2,8.6,6.1c0.7,4.1-2,7.9-6.1,8.6c-4.1,0.7-7.9-2-8.6-6.1
								C461.6,547.1,464.3,543.3,468.4,542.6z"/>
							<g id="Calque20">
								<circle id="circle143" class="st39" cx="469.7" cy="524.6" r="1.7"/>
								<circle id="circle145" class="st39" cx="455.9" cy="528.6" r="1.7"/>
								<circle id="circle147" class="st39" cx="446.6" cy="539.4" r="1.7"/>
								<circle id="circle149" class="st39" cx="444.5" cy="553.6" r="1.7"/>
								<circle id="circle151" class="st39" cx="450.5" cy="566.6" r="1.7"/>
								<circle id="circle153" class="st39" cx="462.5" cy="574.3" r="1.7"/>
								<circle id="circle155" class="st39" cx="476.8" cy="574.3" r="1.7"/>
								<circle id="circle157" class="st39" cx="488.8" cy="566.6" r="1.7"/>
								<circle id="circle159" class="st39" cx="494.8" cy="553.6" r="1.7"/>
								<circle id="circle161" class="st39" cx="492.8" cy="539.4" r="1.7"/>
								<circle id="circle163" class="st39" cx="483.4" cy="528.6" r="1.7"/>
							</g>
						</g>
					</g>
				</g>
			</g>
			<path id="Tour" class="st40" d="M429.8,441.5c35.4,2.3,62.1,35.1,59.5,73.1c-2.5,38-33.3,66.9-68.7,64.6
				c-35.4-2.3-62.1-35.1-59.5-73.1S394.5,439.2,429.8,441.5z"/>
			<path id="Tour-ombre-inner" class="st41" d="M435.5,440.5c35.9,2.4,62.9,35.6,60.4,74.1c-2.6,38.6-33.7,67.9-69.6,65.5
				c-35.9-2.4-62.9-35.6-60.4-74.1C368.4,467.5,399.5,438.2,435.5,440.5z"/>
		</g>
	</g>
</g>
</svg>
