<svg xmlns="http://www.w3.org/2000/svg" xml:space="preserve" width="60" height="90"><defs><clipPath id="c"><path d="M6.991 34.723H33.77v26.939H6.991z"/></clipPath><clipPath id="d"><path d="M11.842 47.409s-.022-4.957-.016-5.706c.003-.43.346-.833.986-.828.641.006 1.016.412 1.015.854-.004 1.107 0 5.683 0 5.683z"/></clipPath><clipPath id="e"><path d="M9.341 47.618s-.021-4.957-.015-5.707c.003-.429.345-.832.986-.827.641.005 1.016.411 1.014.853-.003 1.108 0 5.684 0 5.684z"/></clipPath><clipPath id="b" clipPathUnits="userSpaceOnUse"><path d="M22.87 31.262c-.34.994.156 1.773.778 2.233.35.192 1.196 1.032 3.702.591 2.527 2.3 4.072 6.612 3.56 10.615-.445 2.501-.542 2.777-1.58 4.846-1.496-1.467-3.083-1.697-4.216-.686-1.773 1.405-1.443 3.597-1.069 5.71-2.04.954-3.86 1.151-5.47 1.057-6.393-.423-11.208-6.333-10.753-13.2.057-.859.193-1.691.401-2.49.208-.8.487-1.565.83-2.29.342-.724.722-1.426 1.207-2.041.483-.615.482-.64.992-1.204.653.014 2.4-.421 3.012-2.33 2.526-1.347 5.56-1.78 8.606-.811z" style="clip-rule:evenodd;display:inline;opacity:.7;fill-rule:evenodd;stroke:#e31f1f;stroke-linecap:round;stroke-linejoin:round;stroke-miterlimit:1.41421;stroke-opacity:1"/></clipPath><clipPath id="a" clipPathUnits="userSpaceOnUse"><path d="M22.87 31.262c-.34.994.156 1.773.778 2.233.35.192 1.196 1.032 3.702.591 2.527 2.3 4.072 6.612 3.56 10.615-.445 2.501-.542 2.777-1.58 4.846-1.496-1.467-3.083-1.697-4.216-.686-1.773 1.405-1.443 3.597-1.069 5.71-2.04.954-3.86 1.151-5.47 1.057-6.393-.423-11.208-6.333-10.753-13.2.057-.859.193-1.691.401-2.49.208-.8.487-1.565.83-2.29.342-.724.722-1.426 1.207-2.041.483-.615.482-.64.992-1.204.653.014 2.4-.421 3.012-2.33 2.526-1.347 5.56-1.78 8.606-.811z" style="clip-rule:evenodd;display:inline;opacity:.7;fill-rule:evenodd;stroke:#e31f1f;stroke-linecap:round;stroke-linejoin:round;stroke-miterlimit:1.41421;stroke-opacity:1"/></clipPath></defs><g style="display:inline"><g fill="none" fill-rule="evenodd" style="clip-rule:evenodd;fill-rule:evenodd;stroke-linecap:round;stroke-linejoin:round;stroke-miterlimit:1.41421"><path d="M43.166 38.327c-2.85-2.553-4.814-4.122-7.639-4.706-1.899-.392-4.165.11-6.165.553-1.515.337-2.824.628-3.842.52-1.564-.165-2.804-.987-3.157-2.097-.249-.781-.18-2.033 1.56-3.564.723-.637 1.59-1.169 2.54-1.601-1.37.002-2.724-.262-4.025-.952-1.68 2.332-5.944 4.022-7.256 3.44a3.038 3.038 0 0 1-.918-.662c-.028.022-.054.046-.083.068.347.324.599.778.708 1.309.221 1.075-.156 2.226-1.008 3.078-.742.742-1.677 1.167-2.564 1.167-.62 0-1.15-.216-1.547-.593A18.677 18.677 0 0 0 6.996 44.1c0 1.676.224 3.298.635 4.844 1.762 1.452 4.663 7.217 5.296 8.663.035.08.074.18.114.295a18.755 18.755 0 0 0 11.305 4.944c-.055-.72-.03-1.486-.005-2.243.03-.927.062-1.886-.059-2.674-.1-.648-.266-1.344-.442-2.08-.658-2.746-1.403-5.858 1.224-7.608a2.892 2.892 0 0 1 1.626-.506c2.36 0 4.506 2.845 5.613 5.008 1.507-2.44 3.985-3.986 6.93-4.284 1.493-.152 2.981.042 4.208.496.433-1.573.655-3.204.655-4.855a18.25 18.25 0 0 0-.93-5.772" style="clip-rule:evenodd;display:inline;fill:#8c8c8c;fill-rule:evenodd;stroke-linecap:round;stroke-linejoin:round;stroke-miterlimit:1.41421" transform="translate(-.202 8.338)"/><path d="M30.93 33.846c-.538.105-1.068.222-1.581.336-1.515.336-2.824.627-3.842.52-1.564-.165-2.804-.988-3.157-2.097-.25-.781-.18-2.033 1.56-3.564.024-.022.053-.042.078-.064-1.12-.365-2.3-.598-3.521-.68-1.93 1.303-4.363 2.045-5.298 1.63a3.039 3.039 0 0 1-.917-.66 3.659 3.659 0 0 1-.083.068c.346.324.598.777.707 1.308.22 1.075-.363 2.385-1.043 3.132a3.458 3.458 0 0 1-2.53 1.113c-.62 0-1.15-.216-1.547-.593a18.683 18.683 0 0 0-2.774 9.812c0 1.674.22 3.297.633 4.841 1.181.97 2.876 3.885 4.056 6.138a14.476 14.476 0 0 0 7.797 2.269 14.53 14.53 0 0 0 4.54-.726c-.058-.253-.118-.51-.182-.773-.657-2.746-1.402-5.858 1.224-7.608a2.892 2.892 0 0 1 1.627-.506c1.815 0 3.5 1.682 4.687 3.443a14.472 14.472 0 0 0 2.66-8.379c0-3.382-1.157-6.49-3.094-8.96" style="display:inline;fill:#aeaeae" transform="translate(-.202 8.338)"/><g style="display:inline"><path d="M6.947 39.607c2.68 5.38 31.594 12.19 37.307 4.797" style="fill:none;stroke:#000;stroke-width:.35px;stroke-opacity:1" transform="translate(-.202 8.338)"/></g><path d="M20.223 30.76c6.393.424 11.208 6.334 10.753 13.201-.455 6.867-6.007 12.09-12.4 11.667-6.394-.423-11.209-6.333-10.754-13.2.455-6.867 6.007-12.09 12.4-11.667Z" clip-path="url(#a)" style="display:inline;fill:#763422" transform="translate(-.202 8.338)"/><g clip-path="url(#b)" style="display:inline" transform="translate(-.202 8.338)"><g style="display:inline"><path d="M20.223 30.76c6.393.424 11.208 6.334 10.753 13.201-.455 6.867-6.007 12.09-12.4 11.667-6.394-.423-11.209-6.333-10.754-13.2.455-6.867 6.007-12.09 12.4-11.667Z" style="fill:#763422"/><path d="M30.207 31.665C11.07 29.6 7.049 45.589 18.722 56.051 6.83 56.346-2.003 47.099 2.59 33.08c3.441-10.503 18.185-9.71 27.617-1.416Z" style="fill:#4e2318"/><g clip-path="url(#c)"><g><animateTransform attributeName="transform" attributeType="XML" begin="4s" dur="20s" from="0,20.22242498397827,47.80959892272949" repeatCount="indefinite" to="360,20.22242498397827,47.80959892272949" type="rotate"/><path d="m20.222 34.723 2.217 2.804 3.165-1.66.884 3.463 3.567-.23-.601 3.524 3.352 1.241-1.982 2.975 2.557 2.497-3.02 1.911 1.32 3.322-3.537.517L28 58.658l-3.44-.966-1.586 3.204-2.75-2.282-2.752 2.282-1.584-3.204-3.442.966-.144-3.571-3.537-.517 1.32-3.322-3.02-1.91L9.62 46.84l-1.98-2.975 3.352-1.24-.601-3.524 3.567.23.884-3.464 3.165 1.66z" style="fill:#1b0601;fill-opacity:.517647"/></g><g><animateTransform attributeName="transform" attributeType="XML" begin="4s" dur="20s" from="0,20.53931474685669,48.286149978637695" repeatCount="indefinite" to="360,20.53931474685669,48.286149978637695" type="rotate"/><path d="m20.54 35.2 2.216 2.804 3.165-1.66.884 3.463 3.567-.23-.601 3.524 3.352 1.241-1.982 2.974 2.557 2.498-3.02 1.91 1.32 3.322-3.537.517-.145 3.572-3.441-.966-1.585 3.204-2.75-2.283-2.752 2.283-1.584-3.204-3.442.966-.144-3.572-3.537-.517 1.32-3.321-3.02-1.911 2.557-2.498-1.982-2.974 3.352-1.241-.601-3.524 3.567.23.884-3.464 3.165 1.661z" style="fill:#2d0902"/></g></g><g><animateTransform attributeName="transform" attributeType="XML" begin="5.25s" dur=".5s" repeatCount="indefinite" type="translate" values="0,0;0,-.05;0,-.1;0,-.5;0,-.1;0,-.05;0,0;0,0;0,0;0,0"/><path d="M11.842 47.409s-.022-4.957-.016-5.706c.003-.43.346-.833.986-.828.641.006 1.016.412 1.015.854-.004 1.107 0 5.683 0 5.683z" style="fill:#aa908a"/><g clip-path="url(#d)"><path d="m13.385 40.044-1.255.582.012 5.795" style="fill:none;stroke:#040100;stroke-width:2px;stroke-opacity:.27451"/></g><ellipse cx="12.781" cy="41.591" rx=".765" ry=".555" style="fill:#161616"/></g><g><animateTransform attributeName="transform" attributeType="XML" begin="5s" dur=".5s" repeatCount="indefinite" type="translate" values="0,0;0,-.05;0,-.1;0,-.5;0,-.1;0,-.05;0,0;0,0;0,0;0,0"/><path d="M9.341 47.618s-.021-4.957-.015-5.707c.003-.429.345-.832.986-.827.641.005 1.016.411 1.014.853-.003 1.108 0 5.684 0 5.684z" style="fill:#aa908a"/><g clip-path="url(#e)"><path d="m10.884 40.253-1.255.581.013 5.796" style="fill:none;stroke:#040100;stroke-width:2px;stroke-opacity:.27451"/></g><ellipse cx="10.28" cy="41.799" rx=".765" ry=".555" style="fill:#161616"/></g><g><animateTransform attributeName="transform" attributeType="XML" begin="0s" dur=".25s" repeatCount="indefinite" type="translate" values="0,0;.1,-.1;0,0"/><path d="M23.535 38.12c-6.904 8.016-7.897 15.182-2.98 21.499" style="fill:none;stroke:#2a2a2a;stroke-width:4px;stroke-opacity:.368627"/><path d="M22.977 37.899c-6.903 8.015-7.896 15.181-2.979 21.498" style="fill:none;stroke:#a2a2a2;stroke-width:4px"/><path d="m22.8 44.94-5.248-4.343 1.403-.793 4.362 3.61z" style="fill:#0f0f0f;fill-opacity:.317647"/><path d="m22.522 44.382-5.248-4.344 1.402-.792 4.362 3.61z" style="fill:#904435"/><path d="M25.9 41.66a1.922 1.922 0 0 1-2.967.659l-5.127-4.264a1.922 1.922 0 0 1 .107-3.038l7.389-5.31 4.473 3.72L25.9 41.66z" style="fill:#717171"/><g clip-path="url(#d)"><path d="M13.527 34.517 27.9 46.841M13.527 32.517 27.9 44.841M15.527 32.155 29.9 44.478M16.547 31.163l14.371 12.323M17.91 30.426l14.372 12.323" style="fill:#534340;stroke:#a3a1a1;stroke-width:1px"/><path d="M19.259 29.788 33.63 42.11" style="fill:#353434;stroke:#a3a1a1;stroke-width:1px"/></g></g><path d="M18.503 29.924c1.526 10.938 9.135 14.637 19.129 15.495" style="fill:none;stroke:#000;stroke-width:.85px;stroke-opacity:.160784"/><path d="M17.974 29.874c1.527 10.938 9.135 14.636 19.13 15.494" style="fill:none;stroke:#151515;stroke-width:.85px"/><path d="M20.47 26.736c.231 14.15 9.234 16.893 20.14 16.876" style="fill:none;stroke:#200c08;stroke-width:.85px;stroke-opacity:.290196"/><path d="M19.814 26.736c.232 14.15 9.234 16.893 20.14 16.876" style="fill:none;stroke:#151515;stroke-width:.85px"/><path d="M22.858 25.636c.317 14.014 7.703 16.07 18.382 15.213" style="fill:none;stroke:#2a1410;stroke-width:.85px;stroke-opacity:.309804"/><path d="M21.858 25.636c.317 14.014 7.703 16.07 18.382 15.213" style="fill:none;stroke:#151515;stroke-width:.85px"/><g><animateTransform attributeName="transform" attributeType="XML" begin=".5s" dur=".25s" repeatCount="indefinite" type="translate" values="0,0;0,.2;0,0"/><path d="M26.07 36.964 12.66 50.832l2.292 2.857 15.794-9.395" style="fill:none;stroke:#2e2928;stroke-width:.95px;stroke-opacity:.419608"/><path d="m25.944 36.56-13.41 13.867 2.291 2.858L30.62 43.89" style="fill:none;stroke:#2e2928;stroke-width:.95px"/></g><g><animateTransform attributeName="transform" attributeType="XML" begin="1s" dur="10s" from="0,11.588799715042114,54.06439781188965" repeatCount="indefinite" to="360,11.588799715042114,54.06439781188965" type="rotate"/><path d="M12.183 43.767a10.317 10.317 0 0 0-2.02.082l-.239 1.608a8.768 8.768 0 0 0-1.859.58l-1.11-1.188a10.31 10.31 0 0 0-1.709 1.082l.597 1.511a8.767 8.767 0 0 0-1.32 1.432L2.968 48.4a10.315 10.315 0 0 0-.939 1.79l1.273 1.011a8.767 8.767 0 0 0-.427 1.9l-1.583.368a10.26 10.26 0 0 0 .081 2.02l1.608.24c.124.638.318 1.262.58 1.858l-1.187 1.11c.303.604.666 1.176 1.081 1.709l1.512-.597c.426.492.906.934 1.431 1.32l-.473 1.555c.565.37 1.165.686 1.791.94l1.01-1.274a8.764 8.764 0 0 0 1.9.428l.368 1.583c.675.039 1.352.011 2.02-.082l.24-1.608a8.769 8.769 0 0 0 1.858-.58l1.11 1.187a10.31 10.31 0 0 0 1.71-1.08l-.598-1.512a8.766 8.766 0 0 0 1.32-1.432l1.555.473c.371-.565.686-1.165.94-1.79l-1.273-1.011a8.763 8.763 0 0 0 .427-1.9l1.583-.368c.039-.675.012-1.351-.082-2.02l-1.608-.24a8.77 8.77 0 0 0-.58-1.858l1.188-1.11a10.31 10.31 0 0 0-1.081-1.71l-1.512.598a8.766 8.766 0 0 0-1.431-1.32l.472-1.555a10.314 10.314 0 0 0-1.79-.94l-1.011 1.274a8.763 8.763 0 0 0-1.9-.428Zm-.678 8.236a2.063 2.063 0 1 1 .167 4.123 2.063 2.063 0 0 1-.167-4.123Z" style="fill:#222;fill-opacity:.415686"/></g><g><animateTransform attributeName="transform" attributeType="XML" begin="1s" dur="10s" from="0,11.285893440246582,54.38699913024902" repeatCount="indefinite" to="360,11.285893440246582,54.38699913024902" type="rotate"/><path d="M11.88 44.09a10.317 10.317 0 0 0-2.02.082l-.239 1.607a8.768 8.768 0 0 0-1.859.58l-1.11-1.187a10.31 10.31 0 0 0-1.709 1.081l.597 1.512a8.768 8.768 0 0 0-1.32 1.431l-1.555-.472a10.315 10.315 0 0 0-.939 1.79L3 51.524a8.767 8.767 0 0 0-.427 1.9l-1.583.369c-.04.674-.012 1.35.082 2.02l1.607.239a8.79 8.79 0 0 0 .58 1.859L2.07 59.02a10.37 10.37 0 0 0 1.081 1.709l1.512-.597c.426.491.906.934 1.431 1.32l-.473 1.555c.565.37 1.165.685 1.791.939l1.01-1.273a8.77 8.77 0 0 0 1.9.427l.369 1.583c.674.04 1.35.012 2.02-.082l.239-1.607a8.768 8.768 0 0 0 1.858-.58l1.11 1.187a10.31 10.31 0 0 0 1.71-1.081l-.598-1.512a8.766 8.766 0 0 0 1.32-1.431l1.555.472a10.31 10.31 0 0 0 .94-1.79l-1.273-1.01a8.763 8.763 0 0 0 .427-1.9l1.583-.369c.04-.674.012-1.35-.082-2.02l-1.607-.239a8.768 8.768 0 0 0-.58-1.858l1.187-1.11a10.31 10.31 0 0 0-1.081-1.71l-1.512.597a8.766 8.766 0 0 0-1.431-1.32l.472-1.555a10.321 10.321 0 0 0-1.79-.939l-1.01 1.274a8.763 8.763 0 0 0-1.9-.427zm-.678 8.236a2.063 2.063 0 1 1 .167 4.122 2.063 2.063 0 0 1-.167-4.122z" style="fill:#e47962"/><circle cx="11.286" cy="54.925" r="7.531" style="fill:#a73f29"/><path d="m11.286 48.342 1.444 1.667 2.115-.622.314 2.183 2.115.62-.916 2.006 1.444 1.666-1.855 1.192.314 2.182h-2.205l-.915 2.006-1.855-1.192-1.855 1.192-.916-2.006H6.311l.313-2.182-1.854-1.192 1.444-1.666-.916-2.005 2.115-.621.314-2.183 2.115.621Z" style="fill:#d0a89f"/></g><circle cx="28.501" cy="40.523" r="5.702" style="fill:#202020;fill-opacity:.415686"/><circle cx="28.258" cy="40.966" r="5.702" style="fill:#ff6444"/><g><animateTransform attributeName="transform" attributeType="XML" begin="0s" dur="1s" from="0,27.88920021057129,41.139801025390625" repeatCount="indefinite" to="-360,27.88920021057129,41.139801025390625" type="rotate"/><path d="M25.33 38.457a2.666 2.666 0 0 1 2.916-1.15l1.481.381a2.666 2.666 0 0 1 1.995 2.417l.095 1.527a2.666 2.666 0 0 1-1.682 2.644l-1.423.561a2.666 2.666 0 0 1-3.035-.782l-.973-1.18a2.666 2.666 0 0 1-.194-3.128l.82-1.29z" style="fill:#ff8e77"/></g><g><animateTransform attributeName="transform" attributeType="XML" begin="0s" dur="1s" from="0,28.088749885559082,41.007850646972656" repeatCount="indefinite" to="-360,28.088749885559082,41.007850646972656" type="rotate"/><path d="M25.53 38.325a2.666 2.666 0 0 1 2.916-1.15l1.48.381a2.666 2.666 0 0 1 1.996 2.417l.094 1.527a2.666 2.666 0 0 1-1.682 2.644l-1.422.562a2.666 2.666 0 0 1-3.035-.783l-.974-1.18a2.666 2.666 0 0 1-.193-3.128l.82-1.29z" style="fill:#53261f"/><circle cx="28.286" cy="41.054" r=".874" style="fill:#d0a89f"/><g clip-path="url(#e)"><path d="m29.16 39.667-1.748 2.795" style="fill:none;stroke:#222;stroke-width:.45px"/></g></g><g><animateTransform attributeName="transform" attributeType="XML" begin="1s" dur="6.675s" from="0,27.80020046234131,50.083900451660156" repeatCount="indefinite" to="-360,27.80020046234131,50.083900451660156" type="rotate"/><path d="M27.65 43.326a6.759 6.759 0 0 0-1.955.335l-.107 1.12a5.747 5.747 0 0 0-1.615 1.018l-1.057-.387a6.762 6.762 0 0 0-1.146 1.619l.717.868a5.746 5.746 0 0 0-.423 1.861l-1.021.474c.014.665.127 1.323.334 1.955l1.12.107a5.779 5.779 0 0 0 1.018 1.615l-.387 1.057a6.76 6.76 0 0 0 1.619 1.146l.868-.717a5.744 5.744 0 0 0 1.862.423l.473 1.021a6.762 6.762 0 0 0 1.955-.334l.107-1.12a5.745 5.745 0 0 0 1.615-1.018l1.057.387c.46-.48.846-1.026 1.147-1.619l-.717-.868a5.743 5.743 0 0 0 .422-1.862l1.022-.473a6.759 6.759 0 0 0-.335-1.955l-1.12-.107a5.745 5.745 0 0 0-1.018-1.615l.387-1.058a6.758 6.758 0 0 0-1.619-1.145l-.868.716a5.746 5.746 0 0 0-1.861-.422zm-.078 5.425a1.352 1.352 0 1 1 .456 2.665 1.352 1.352 0 0 1-.456-2.665z" style="fill:#101010;fill-opacity:.482353"/></g><g><animateTransform attributeName="transform" attributeType="XML" begin="1s" dur="6.675s" from="0,27.412100791931152,50.342899322509766" repeatCount="indefinite" to="-360,27.412100791931152,50.342899322509766" type="rotate"/><path d="M27.262 43.585a6.757 6.757 0 0 0-1.955.335l-.107 1.12a5.747 5.747 0 0 0-1.615 1.018l-1.057-.387a6.76 6.76 0 0 0-1.146 1.619l.717.868a5.748 5.748 0 0 0-.423 1.861l-1.021.474c.014.664.127 1.323.334 1.955l1.12.107a5.756 5.756 0 0 0 1.018 1.615l-.387 1.057c.48.46 1.026.846 1.619 1.146l.868-.717a5.748 5.748 0 0 0 1.862.423l.473 1.021a6.759 6.759 0 0 0 1.955-.334l.107-1.12a5.745 5.745 0 0 0 1.615-1.018l1.057.387c.46-.48.846-1.026 1.146-1.619l-.716-.868a5.746 5.746 0 0 0 .422-1.862l1.022-.473a6.759 6.759 0 0 0-.335-1.955l-1.12-.107a5.747 5.747 0 0 0-1.018-1.615l.387-1.057a6.757 6.757 0 0 0-1.619-1.146l-.868.716a5.745 5.745 0 0 0-1.861-.422zm-.078 5.425a1.352 1.352 0 1 1 .456 2.665 1.352 1.352 0 0 1-.456-2.665z" style="fill:#ffcec4"/><circle cx="27.412" cy="45.756" r=".311" style="fill:#635a5a"/><circle cx="24.932" cy="46.484" r=".311" style="fill:#635a5a"/><circle cx="23.239" cy="48.437" r=".311" style="fill:#635a5a"/><circle cx="22.872" cy="50.996" r=".311" style="fill:#635a5a"/><circle cx="23.945" cy="53.347" r=".311" style="fill:#635a5a"/><circle cx="26.12" cy="54.744" r=".311" style="fill:#635a5a"/><circle cx="28.704" cy="54.744" r=".311" style="fill:#635a5a"/><circle cx="30.879" cy="53.347" r=".311" style="fill:#635a5a"/><circle cx="31.953" cy="50.996" r=".311" style="fill:#635a5a"/><circle cx="31.585" cy="48.437" r=".311" style="fill:#635a5a"/><circle cx="29.892" cy="46.484" r=".311" style="fill:#635a5a"/></g><path d="M20.223 30.76c6.393.424 11.208 6.334 10.753 13.201-.455 6.867-6.007 12.09-12.4 11.667-6.394-.423-11.209-6.333-10.754-13.2.455-6.867 6.007-12.09 12.4-11.667Z" style="fill:none;stroke:#2b0900;stroke-width:.85px"/><path d="M21.234 30.582c6.486.43 11.37 6.424 10.909 13.39-.462 6.966-6.093 12.265-12.58 11.835-6.485-.43-11.369-6.425-10.907-13.39.46-6.966 6.093-12.265 12.578-11.835Z" style="fill:none;stroke:#2b0900;stroke-width:1px;stroke-opacity:.305882"/></g></g><path d="M22.87 31.262c-.34.994.156 1.773.778 2.233.35.192 1.196 1.032 3.702.591 2.527 2.3 4.072 6.612 3.56 10.615-.445 2.501-.542 2.777-1.58 4.846-1.496-1.467-3.083-1.697-4.216-.686-1.773 1.405-1.443 3.597-1.069 5.71-2.04.954-3.86 1.151-5.47 1.057-6.393-.423-11.208-6.333-10.753-13.2.057-.859.193-1.691.401-2.49.208-.8.487-1.565.83-2.29.342-.724.722-1.426 1.207-2.041.483-.615.482-.64.992-1.204.653.014 2.4-.421 3.012-2.33 2.526-1.347 5.56-1.78 8.606-.811z" style="clip-rule:evenodd;display:inline;opacity:1;fill-rule:evenodd;stroke:#000;stroke-linecap:round;stroke-linejoin:round;stroke-miterlimit:1.41421;stroke-opacity:1;stroke-width:.5;stroke-dasharray:none" transform="translate(-.202 8.338)"/><path fill="#005683" d="M43.279 24.832c-2.85-2.554-4.714-4.005-7.539-4.589-1.899-.392-4.392-.003-6.392.44-1.515.337-2.778.628-3.796.52-1.564-.165-2.373-.625-2.727-1.734-.248-.781-.184-1.607 1.556-3.138.723-.637 3.114-1.967 4.064-2.4-3.04.22-4.816-.134-6.116-.824-2.152 2.15-5.644 3.95-6.956 3.367-.292-.13-.81-.178-1.111-.488-.029.022-.35.25-.38.273.347.324.431.921.54 1.452.221 1.075-.133 1.886-.985 2.737-.742.742-1.246.941-2.134.941-.62 0-1.195-.397-1.592-.774-2.69 4.49-2.977 7.008-3.115 10.124-.074 1.674.289 4.058.7 5.604 1.762 1.618 4.316 6.658 4.949 8.104.034.08.594.922.671.982 3.02 2.79 7.682 4.667 12.033 5.003-.054-.72-.127-2.047-.101-2.804.03-.927.08-1.905-.04-2.692-.1-.649-.322-1.381-.499-2.118-.605-2.822-1.253-5.566.975-7.149.503-.335.794-.45 1.37-.45 2.36 0 4.469 3.44 5.62 5.498 1.508-2.44 3.97-4.462 6.916-4.76 1.492-.152 2.966-.033 4.193.421.433-1.573.7-3.62.7-5.27 0-1.976-.316-4.621-.934-6.477" style="display:inline;font-variation-settings:normal;opacity:1;vector-effect:none;fill:none;fill-opacity:1;stroke-width:1;stroke-linecap:butt;stroke-linejoin:miter;stroke-miterlimit:4;stroke-dasharray:none;stroke-dashoffset:0;stroke-opacity:1;-inkscape-stroke:none;stop-color:#000;stop-opacity:1;stroke:#000" transform="translate(-.19 21.333)"/></g></g></svg>