<svg version="1.2" viewBox="0 0 1e3 1e3" xmlns="http://www.w3.org/2000/svg">
    <g class="BeforeLeftArm--part">
        <path d="m475.9 445.6s12.4-44.8 57.5-73.8c10.2-6.5 24.3-11.5 41.4-14.5 1.2-0.1 2.7 20.9 3.8 20.8s2.1-21.7 3.3-21.8q5.9-0.9 12.4-1.3c1.3-0.2 2.5 20.9 3.8 20.7 1.8-0.1 1.9-21.5 3.7-21.6 42.3-1.4 100.6 23 133.2 70.7 0 0-159.9-71.2-235.7 18.6z" fill="#009de9"/>
        <path d="m490.6 433.1c45.6-50.7 102.2-53.1 104.4-53.2 26.2-1.7 71.2 1.3 133.4 42.3 0 0-153.3-68.4-229.1 21.3l-11.3-3.1z" fill="#0078b9"/>
        <path d="m488.7 445c-12.4 14.3-24.3 31.4-24.3 31.4l-13.4 1.8s14.7-20.2 28-36c13.3-15.6 88-126.1 252.6-20-162.4-94.7-230.5 8.4-242.9 22.8z" fill="#fff"/>
    </g>
</svg>
