<svg xmlns="http://www.w3.org/2000/svg" viewBox="0 0 1000 1000">
  <g class="Body--group">
    <path d="M678.293 518.645a16.452 16.452 0 0 0-2.584.103c-.95.105-1.98.277-3.08.51-1.098.233-2.263.53-3.478.877-1.215.348-2.48.75-3.777 1.197a102.348 102.348 0 0 0-8.053 3.19 112.498 112.498 0 0 0-8.057 3.966c-.18.098-.364.175-.55.237-.084 1.17-.123 2.363-.221 3.523-.55 6.61-1.31 13.01-2.27 19.17.07.39.141.78.201 1.17.504 2.973.86 5.866 1.114 8.7 2.01 2.665 4.852 6.035 7.976 8.89.098.09.198.177.297.265a38.945 38.945 0 0 0 2.174 1.83c.055.043.112.08.168.122.675.515 1.357.978 2.039 1.408.159.1.317.206.476.3.752.448 1.505.843 2.25 1.153l.106.045c.806.327 1.606.57 2.389.697.487.08.953.113 1.402.1.45-.013.882-.072 1.3-.18a5.889 5.889 0 0 0 1.223-.467 7.233 7.233 0 0 0 1.166-.754 27.667 27.667 0 0 0 2.1-1.834 29.438 29.438 0 0 0 1.887-2 31.897 31.897 0 0 0 1.683-2.14 35.07 35.07 0 0 0 1.494-2.256 40.607 40.607 0 0 0 2.461-4.734 49.44 49.44 0 0 0 1.836-4.858 58.551 58.551 0 0 0 1.301-4.756c.355-1.544.637-3.035.86-4.435.445-2.801.657-5.24.757-7.026a67.88 67.88 0 0 0 .106-4.095 61.624 61.624 0 0 0-.131-3.737 53.2 53.2 0 0 0-.326-3.347 43.558 43.558 0 0 0-.479-2.926c-.36-1.805-.797-3.31-1.254-4.47-.228-.581-.46-1.075-.691-1.48-.232-.404-.462-.717-.684-.935-.318-.313-.747-.552-1.273-.72-.526-.17-1.15-.268-1.858-.303z" fill="#fff6eb" stroke="#000" stroke-linejoin="round" stroke-width="14" style="paint-order:stroke fill markers"/>
    <path d="M336.62 600.24c-.54 4.47-.33 11.45 5.44 14.49 1.88.99 3.84 1.38 5.76 1.38 3.73 0 7.31-1.47 9.86-2.87-6.61-3.73-13.62-8.05-21.06-13z" fill="#fff6eb" style="paint-order:stroke fill markers"/>
    <path d="M366.58 618.08c-.4 5.41.27 14.92 9.28 17.74 3.69 1.16 6.77 1.02 9.42-.41 1.5-.81 2.7-1.97 3.66-3.18.95-1.21 1.66-2.49 2.14-3.53-.96-.32-1.92-.66-2.9-1.02-6.67-2.44-13.84-5.61-21.6-9.6zm33.77 13.41c2.03 5.07 6.19 12.28 13.48 12.28h.14c3.59-.05 6.25-1.39 8.21-3.22 1.96-1.83 3.22-4.14 4.01-6.12-1.16.07-2.35.1-3.56.1-6.69 0-14.06-.92-22.28-3.04z" fill="#fff6eb" style="paint-order:stroke fill markers"/>
    <path d="M461.14 622.9c-7.13 4.34-14.91 8.11-24.09 10.1 3.23 3.23 8.89 6.64 16.83 3.19 3.45-1.5 5.65-3.57 6.73-6.33.93-2.4.85-4.95.53-6.96z" fill="#fff6eb" style="paint-order:stroke fill markers"/>
    <path d="M494.64 601.92c-7.46 3.21-14.19 7.9-21.11 12.72-1.33.92-2.66 1.86-4.01 2.78 3.82 1.82 9.88 3.63 15.98 1.06 3.19-1.34 5.3-4.18 6.71-7.33 1.4-3.15 2.09-6.62 2.43-9.23zm18.135-4.15a47.144 47.144 0 0 0-10.384 1.48c1.18 4.25 4.89 13.72 14.68 14.22 9.47.48 15.14-8.22 17.39-12.61-3.87-1.06-8.08-1.92-12.66-2.57a54.527 54.527 0 0 0-5.272-.495 49.915 49.915 0 0 0-3.754-.025z" fill="#fff6eb" style="paint-order:stroke fill markers"/>
    <path d="M541.89 603.19c-.51 4.93-.56 15.06 6.47 20.21 7 5.12 17.02-.73 21.53-3.91-3.77-2.99-7.79-5.98-12.37-8.77-4.57-2.79-9.69-5.38-15.63-7.53z" fill="#fff6eb" style="paint-order:stroke fill markers"/>
    <path d="M576.96 625.22c-.9 5.24-1.2 14.61 6.66 19.31 7.01 4.2 14.68-.94 19.46-5.4a35.859 35.859 0 0 1-8.38-2.34c-3.2-1.32-6.19-3.04-9.1-5.02-2.92-1.98-5.75-4.21-8.64-6.55z" fill="#fff6eb" style="paint-order:stroke fill markers"/>
    <path d="M479.388 437.139c-6.54 6.51-15.57 14.42-25.01 19.37-.01 0-.02-.01-.02-.01l-5.27 3.39c-1.86-3.92-4.09-7.14-5.96-9.47l6.08-1.96v-.02c5.3-1.65 19.3-7.04 30.18-11.3z" fill="#ff6687" stroke="#000" stroke-linejoin="round" stroke-width="14" style="paint-order:stroke fill markers"/>
    <path d="m414.12 439.8c3.67 7.5 7.49 12.97 9.97 16.14a55.24 55.24 0 0 1 6.5-6.73z" fill="#ff6687" stroke="#000" stroke-linejoin="round" stroke-width="14" style="paint-order:stroke fill markers"/>
    <path d="M499.147 429.741c-7.75 23.4-26.93 33.47-27.22 33.62-.23.11-.43.25-.63.41h-.01c-17.82 11.09-32.08 12.06-34.76 12.14-18.53-6.13-25.63-19.75-26.92-22.55-.09-1.89-.06-4.38 0-6.98 5.97 11.18 11.8 17.29 12.13 17.63.66.69 1.57 1.07 2.52 1.07.1 0 .2-.01.3-.01 1.05-.1 2-.66 2.59-1.53 3.29-4.84 7.02-8.26 9.34-10.14 2.14 2.44 5.58 6.96 7.69 12.87.35 1.01 1.15 1.8 2.17 2.14.36.13.74.19 1.12.19.67 0 1.33-.19 1.9-.56l8.3-5.35c17.64-9.26 33.22-27.3 36.61-31.38 1-.33 2.73-.9 4.87-1.57z" fill="#ff6687" stroke="#000" stroke-linejoin="round" stroke-width="14" style="paint-order:stroke fill markers"/>
    <path d="M521.232 551.929c-23.35-4.27-39.21.13-54.56 4.4-16.58 4.61-32.23 8.96-57.17 2.68-17.52-4.42-27.31-9.9-32.79-14.56-2.43-2.06-4.01-3.95-5.03-5.52-1.03-1.57-1.5-2.81-1.71-3.55 8.13-12.7 20.25-22.19 28.12-27.48 4.58-3.09 7.72-4.75 7.81-4.79.56-.29 1.01-.72 1.33-1.22.5-.77.69-1.73.47-2.66a1.9 1.9 0 0 0-.11-.39c-5.41-15.4-3.11-28.93-.83-36.54.8 1.16 1.74 2.4 2.84 3.7 4.94 5.88 12.99 12.8 25.33 16.75.32.1.65.15.98.16.82.02 17.94.24 39.75-13.61 3.8-2.08 24.53-14.53 31.48-41.96.74-.22 1.49-.42 2.23-.62-1.57 11.18-3.35 27.97-3.75 31.86h-.02c-.93 10.08-1.74 31.86 6.72 46.52.65 1.13 1.26 2.28 1.83 3.45 8.05 16.5 7.67 35.54 7.08 43.38z" fill="#fff6eb" stroke="#000" stroke-linejoin="round" stroke-width="14" style="paint-order:stroke fill markers"/>
    <path d="M530.54 510.152a145.526 145.526 0 0 0-8.03.008c8.79 22 5.44 45.38 5.27 46.48a3.53 3.53 0 0 1-1.47 2.36c-.8.55-1.79.74-2.73.54-23.79-5.15-38.97-.93-55.04 3.54-10.76 2.99-21.77 6.051-35.38 6.051-7.52 0-15.85-.932-25.37-3.342-18-4.53-28.81-10.298-35.29-15.648-2.25-1.85-3.98-3.65-5.31-5.33-4.08-5.17-4.38-9.212-4.39-10.112-.01-.66.16-1.319.51-1.879 3.4-5.54 7.46-10.51 11.67-14.85-16.25 10.55-27.89 24.05-34.75 40.31-6.22 14.75-6.4 27.43-6.25 31.7 6.43 4.46 12.53 8.44 18.32 12 5.42 3.33 10.57 6.28 15.47 8.88 56.18 29.82 79.29 13.71 101.76-1.96 14.7-10.25 29.9-20.84 53.25-17.55 28.71 4.06 44.08 16.6 56.44 26.68 7.81 6.37 14.29 11.66 22.42 13.65 3.08.76 6.39 1.04 10.1.74 2.23-.18 4.61-.58 7.16-1.22 3.43-3.58 20.65-23.04 22.97-54.26.52-6.88.3-14.34-.95-22.33-.42-.42-.85-.829-1.27-1.229-38.543-36.715-86.513-42.653-109.11-43.228z" fill="#ff6687" stroke="#000" stroke-width="14" style="paint-order:stroke fill markers"/>
    <path d="M517.61 424.721c-.29.05-.598.11-.908.17-1.462 9.637-3.222 25.93-3.883 32.142l-.068.877c-.623 6.006-1.403 18.511.94 30.21 7.447.129 46.514 1.57 86.062 17.741 1.41.577 2.695 1.13 4.027 1.692-16.631-10.976-20.746-24.51-21.586-29.039 0 0-4.343-27.788 5.688-47.097-22.102-13.062-44.416-9.793-70.272-6.696zm106.987 92.469c8.73 4.504 14.442 8.176 18.043 10.824.124-1.702.25-3.402.36-5.104.027-.476.063-.951.087-1.427-6.945-1.093-13.037-2.574-18.49-4.293z" fill="#ff6687" stroke="#000" stroke-linejoin="round" stroke-width="14" style="paint-order:stroke fill markers"/>
    <path d="M515.59 495.21c.76 2.258 1.656 4.423 2.79 6.39.32.55.63 1.11.93 1.67 5.82-.36 21.56-.78 41.77 3.1 21.72 4.16 52.57 14.27 79.84 38.66.389-2.847.715-5.715 1.012-8.59-2.748-2.52-13.744-11.376-44.842-24.09-35.08-14.344-70.76-16.733-81.5-17.14z" fill="#fff6eb" stroke="#000" stroke-linejoin="round" stroke-width="14" style="paint-order:stroke fill markers"/>
    <path d="M516.408 417.9c-8.142 1.472-15.828 3.966-25.32 7.11-.02.01-.04.029-.07.039l-.1.031c-.36.14-35.64 14.22-43.99 16.76-.08.02-.15.06-.23.09l-9.43 3.049-28.311-16.17-.389-.22c-.05-.03-.11-.059-.17-.089-.12-.06-.25-.12-.38-.17a3.485 3.485 0 0 0-2.28-.04c-.08.02-.16.05-.23.08-.82.33-1.44.94-1.81 1.67-.06.11-.11.219-.16.339-.13.35-.2.71-.22 1.08-.09 1.31-.98 14.87-.72 22-.2.42-.44.97-.73 1.64-2.56 6.15-7.89 22.671-1.93 42.811-.06.01-.13.039-.19.059-41.01 15.19-58.591 39.91-66.121 57.97-8.2 19.7-6.59 35.67-6.52 36.34.11 1.01.65 1.92 1.48 2.5.56.39 1.12.78 1.68 1.16-1.12 4.96-3.07 18.89 8.53 25 7.56 3.98 15.39 1.82 20.68-.74.01 8.44 3.04 18.81 14.29 22.32 5.55 1.74 10.56 1.41 14.91-.97 2.57-1.42 4.55-3.38 6.05-5.36 3.04 6.57 8.92 14.74 19.32 14.6 9.75-.13 15.38-6.589 18.18-12.709 5.21 5.05 13.711 9.199 24.431 4.549 5.18-2.25 8.699-5.68 10.469-10.2 1.05-2.7 1.311-5.419 1.201-7.839 5.08 2.07 12.3 3.55 19.879.36 6.44-2.71 9.871-8.74 11.691-14.44 3.46 5.13 8.869 9.569 16.819 9.969 8.23.42 14.22-3.569 18.32-8.069.82 5.82 3.21 12.279 9.18 16.649 8.51 6.23 18.68 2.68 25.38-1.09-.45 7.8 1.56 17.28 10.42 22.59 3.12 1.87 6.23 2.63 9.21 2.63 10.9 0 20.25-10.169 23.22-13.779 2.85-.25 5.89-.79 9.16-1.66.56-.15 1.07-.44 1.49-.83 1.41-1.32 33.42-32.18 24.53-84.66-.06-.39-.13-.78-.2-1.17.96-6.16 1.72-12.56 2.27-19.17.33-3.91.643-16.572.533-16.752l-6.992-.728s.09 2.93-.15 7.07c-.4 7.89-1.11 15.779-2.17 23.539-27.27-24.39-58.12-34.5-79.84-38.66-20.21-3.88-35.951-3.46-41.771-3.1-.3-.56-.61-1.12-.93-1.67-7.58-13.14-6.599-33.99-5.729-42.99.56-5.29 2.51-23.51 4.05-33.66.31-.06.62-.12.91-.17zm-7.041 8.84c-1.57 11.18-3.35 27.97-3.75 31.86h-.02c-.93 10.08-1.739 31.86 6.721 46.52.65 1.13 1.26 2.28 1.83 3.45 8.05 16.5 7.669 35.54 7.079 43.38-23.35-4.27-39.21.13-54.559 4.4-16.58 4.61-32.23 8.96-57.17 2.68-17.52-4.42-27.31-9.901-32.79-14.561-2.43-2.06-4.01-3.95-5.03-5.52-1.03-1.57-1.501-2.809-1.711-3.549 8.13-12.7 20.25-22.19 28.12-27.48 4.58-3.09 7.721-4.751 7.811-4.791a3.475 3.475 0 0 0 1.329-1.219c.5-.77.69-1.73.47-2.66a1.9 1.9 0 0 0-.11-.39c-5.41-15.4-3.11-28.93-.83-36.54.8 1.16 1.74 2.4 2.84 3.7 4.94 5.88 12.99 12.8 25.33 16.75.32.1.651.15.981.16.82.02 17.94.24 39.75-13.61 3.8-2.08 24.529-14.53 31.479-41.96.74-.22 1.49-.42 2.23-.62zm-10.219 3.02c-7.75 23.4-26.93 33.469-27.22 33.619-.23.11-.431.25-.631.41h-.01c-17.82 11.09-32.08 12.06-34.76 12.14-18.53-6.13-25.63-19.75-26.92-22.55-.09-1.89-.06-4.379 0-6.979 5.97 11.18 11.801 17.29 12.131 17.63.66.69 1.57 1.07 2.52 1.07.1 0 .198-.01.298-.01 1.05-.099 2-.66 2.592-1.532 3.29-4.84 7.02-8.258 9.34-10.138 2.14 2.44 5.58 6.959 7.69 12.869.35 1.01 1.15 1.8 2.17 2.14.36.13.739.19 1.119.19.67 0 1.33-.19 1.9-.56l8.3-5.35c17.64-9.26 33.22-27.3 36.61-31.38 1-.33 2.731-.9 4.871-1.57zm-19.761 7.4c-6.54 6.51-15.57 14.42-25.01 19.37-.01 0-.02-.01-.02-.01l-5.27 3.39c-1.86-3.92-4.09-7.14-5.96-9.47l6.08-1.962v-.02c5.3-1.65 19.3-7.038 30.18-11.298zm-65.27 2.66 16.47 9.409a55.24 55.24 0 0 0-6.5 6.73c-2.48-3.17-6.3-8.639-9.97-16.139zm198.755 73.545c8.447 2.07 6.571 1.1 13.617-2.916 0 0-11.39-3.057-18.567-8.531 0 0-2.33 7.49 4.95 11.447zm-82.335-3.193c22.598.575 70.568 6.514 109.111 43.228.42.4.85.809 1.27 1.229 1.25 7.99 1.47 15.45.95 22.33-2.32 31.22-19.54 50.68-22.97 54.26-2.55.64-4.93 1.04-7.16 1.22-3.71.3-7.021.02-10.101-.74-8.13-1.99-14.61-7.28-22.42-13.65-12.36-10.08-27.73-22.62-56.44-26.68-23.35-3.29-38.55 7.3-53.25 17.55-22.47 15.67-45.58 31.78-101.76 1.96-4.9-2.6-10.05-5.549-15.47-8.879-5.79-3.56-11.89-7.54-18.32-12-.15-4.27.03-16.951 6.25-31.701 6.86-16.26 18.5-29.759 34.75-40.309-4.21 4.34-8.27 9.31-11.67 14.85-.35.56-.52 1.219-.51 1.879.01.9.31 4.941 4.39 10.111 1.33 1.68 3.061 3.48 5.311 5.33 6.48 5.35 17.29 11.119 35.29 15.649 9.52 2.41 17.85 3.341 25.37 3.341 13.61 0 24.62-3.06 35.38-6.05 16.069-4.47 31.25-8.691 55.04-3.541.94.2 1.929.01 2.729-.54a3.531 3.531 0 0 0 1.47-2.359c.17-1.1 3.52-24.48-5.27-46.48 2.092-.063 4.802-.09 8.03-.008zm-17.764 87.617a49.94 49.94 0 0 1 3.754.025c1.764.08 3.522.245 5.27.495 4.58.65 8.79 1.51 12.66 2.57-2.25 4.39-7.919 13.091-17.389 12.611-9.79-.5-13.501-9.97-14.681-14.22a47.157 47.157 0 0 1 10.386-1.48zm-176.156 2.47c7.44 4.95 14.45 9.27 21.06 13-2.55 1.4-6.129 2.87-9.859 2.87-1.92 0-3.881-.389-5.761-1.379-5.77-3.04-5.98-10.02-5.44-14.49zm158.02 1.68c-.34 2.61-1.03 6.081-2.43 9.23-1.41 3.15-3.519 5.991-6.709 7.331-6.1 2.57-12.16.76-15.98-1.06 1.35-.92 2.68-1.86 4.01-2.78 6.92-4.82 13.649-9.51 21.109-12.72zm47.25 1.27c5.94 2.15 11.06 4.741 15.63 7.531 4.58 2.79 8.6 5.78 12.37 8.77-4.51 3.18-14.53 9.03-21.53 3.91-7.03-5.15-6.98-15.281-6.47-20.211zm-175.309 14.89c7.76 3.99 14.93 7.16 21.6 9.6.98.36 1.94.7 2.9 1.02a18.081 18.081 0 0 1-2.14 3.531c-.96 1.21-2.16 2.37-3.66 3.18-2.65 1.43-5.73 1.57-9.42.41-9.01-2.82-9.68-12.33-9.28-17.74zm94.559 4.82c.32 2.01.4 4.56-.53 6.96-1.08 2.76-3.28 4.83-6.73 6.33-7.94 3.45-13.6.04-16.83-3.19 9.18-1.99 16.96-5.76 24.09-10.1zm115.82 2.321c2.89 2.34 5.72 4.57 8.64 6.55 2.91 1.98 5.9 3.699 9.1 5.019a35.858 35.858 0 0 0 8.381 2.341c-4.78 4.46-12.45 9.599-19.46 5.399-7.86-4.7-7.561-14.069-6.661-19.309zm-176.61 6.27c8.22 2.12 15.59 3.039 22.28 3.039 1.21 0 2.4-.03 3.56-.1-.79 1.98-2.05 4.291-4.01 6.121s-4.62 3.17-8.21 3.22h-.139c-7.29 0-11.45-7.21-13.48-12.28z"/>
    <path d="M663.652 533.469c-.49.003-.982.016-1.472.04-1.96.07-3.93.24-5.88.51a64.352 64.352 0 0 0-8.74 1.782c-.99.27-1.89.53-2.97.92l-.06.039a3.526 3.526 0 0 0-2.168 4.295 3.565 3.565 0 0 0 1.088 5.615l.21.1c.76.36 1.35.59 2.01.86l1.93.74c1.28.47 2.56.91 3.84 1.34a199.8 199.8 0 0 0 7.69 2.37c.4.11.85-.03 1.1-.4a.996.996 0 0 0-.27-1.38c-2.19-1.49-4.35-3.01-6.46-4.57-1.06-.79-2.1-1.58-3.11-2.38l-1.343-1.084c.27-.141.539-.285.803-.416a60.214 60.214 0 0 1 7.541-3.129c1.72-.59 3.48-1.1 5.27-1.51 1.79-.44 3.599-.711 5.429-.951l.06-.01c.61-.08 1.1-.59 1.14-1.23.05-.73-.5-1.35-1.23-1.4-1.462-.09-2.935-.163-4.408-.151z"/>
  </g>
  <g class="LeftLeg--group">
    <path d="M576.96 625.22c-.763 4.451-1.093 11.878 3.64 16.895 3.488-2 6.93-4.44 10.248-7.15a57.046 57.046 0 0 1-5.248-3.195c-2.92-1.98-5.75-4.21-8.64-6.55z" fill="#fff6eb"/>
    <path d="M571.87 558.75c-12.887.138-26.545 3.987-38.27 13.35-7.939 6.329-13.277 12.505-17.012 18.697 2.002.08 4.059.252 6.191.553 28.71 4.06 44.082 16.6 56.442 26.68 6.108 4.981 11.413 9.277 17.32 11.876 13.422-12.8 23.458-29.025 22.86-36.605-.548-7.203-3.18-13.792-6.368-17.71.05-1.012-.286-2.043-1.033-2.79-8.269-8.269-23.562-14.228-40.13-14.051z" fill="#ff6687"/>
    <path d="M513.012 597.771c-1.774 4.18-2.972 8.398-3.875 12.7 2.05 1.652 4.648 2.832 7.933 3 9.47.48 15.14-8.222 17.39-12.612-3.87-1.06-8.08-1.92-12.66-2.57a54.527 54.527 0 0 0-5.27-.494 49.915 49.915 0 0 0-3.518-.023z" fill="#fff6eb"/>
    <path d="M541.89 603.19c-.51 4.93-.56 15.06 6.47 20.21 7 5.12 17.02-.73 21.53-3.91-3.77-2.99-7.79-5.98-12.37-8.77-4.57-2.79-9.69-5.38-15.63-7.53z" fill="#fff6eb" style="paint-order:stroke fill markers"/>
    <path d="M516.582 590.807a55.398 55.398 0 0 0-3.576 6.98 50 50 0 0 1 3.521.027c1.764.08 3.522.245 5.27.495 4.58.65 8.79 1.51 12.66 2.57-2.25 4.39-7.919 13.091-17.389 12.611-3.29-.168-5.88-1.36-7.931-3.015-.518 2.468-.95 4.964-1.328 7.5 2.53 1.404 5.481 2.331 8.908 2.503 8.23.42 14.22-3.568 18.32-8.068.82 5.82 3.21 12.279 9.18 16.649 8.51 6.23 18.68 2.68 25.38-1.09-.324 5.633.65 12.134 4.546 17.316.147-.062.31-.123.457-.185 2.002-.833 4.008-1.843 6.002-2.987-4.72-5.017-4.409-12.426-3.645-16.873 2.89 2.34 5.72 4.569 8.64 6.549a56.977 56.977 0 0 0 5.247 3.178 99.64 99.64 0 0 0 5.668-5.031c-5.9-2.6-11.193-6.91-17.295-11.887-12.36-10.08-27.73-22.62-56.44-26.68a62.097 62.097 0 0 0-6.195-.562zm25.305 12.402c5.94 2.15 11.06 4.741 15.63 7.531 4.58 2.79 8.6 5.78 12.37 8.77-4.51 3.18-14.53 9.03-21.53 3.91-7.03-5.15-6.98-15.281-6.47-20.211z"/>
  </g>
  <g class="LeftArm--group">
    <path d="m547.16 410.2s-0.66 19-14.04 39.86c0 0-2.64 8.96 3.66 15.39 6.29 6.42 9.84 1.68 15.66 4.53 13.99 6.86 29.89-9.58 33-19.2 4.93-15.27 4.23-28.19-8.48-34.42-6.66-3.26-5.98-7.85-11.54-9.73-9.78-3.3-14.84 0.6-18.26 3.57z" fill="#ff6687" stroke="#000" stroke-linejoin="round" stroke-width="14" style="paint-order:stroke fill markers"/>
  </g>
</svg>