<svg viewBox="0 0 1e3 1e3" xmlns="http://www.w3.org/2000/svg">
    <g>
        <path d="M436.6 504c-4.5 5.1-10.5 7.9-17 7.9-9.1 0-18.5-5.5-24.4-14.4-7.8-11.6-15.5-21.2-22.3-27.9l-4.8-4.7c-2-2-1.1-5.3 1.6-6.1l6.5-1.7c3.2-.9 6.4-2.7 9.1-5.5 3-3 4.8-6.7 5.2-10.4V430c0-1.3 1.5-2.1 2.5-1.3l9.3 6.9c.7.5 1.7 1.1 2.9 1.7 10.2 4.9 31.7 27.4 35.7 46.7 2.1 10.1-1.2 16.5-4.3 20z"/>
        <path d="M402.1 444.1c-1.5-.7-2.9-1.5-4.2-2.4-.5 5.5-3 11-7.3 15.3-3.7 3.7-8.1 6.2-12.5 7.4 8.7 8.6 17 19.8 23.2 29.1 4.5 6.7 11.6 11.1 18.3 11.1 4.1 0 8.1-1.6 11.4-5.4 13-14.8-17.3-49.6-28.9-55.1z" fill="#fc0"/>
        <path d="M599.1 649.5c-9 25.7-26.4 50-50.3 70.3-23.8 20.3-51.8 34.7-81 41.6-6.9 1.6-14.1 2.5-21.5 2.5-30.8 0-58.9-13.9-74.8-27-13.6-11.1-21.2-23.3-20.9-33.5.4-12 6.7-20.7 16.8-23.3 2.1-.5 4.3-.8 6.7-.8 11.2 0 27.2 6.7 38.5 25.7 7.8 13.2 22 20.1 41.1 20.1h1.2c40.7-.8 87.6-31.2 109.1-70.8 7.7-14.1 13.2-29.6 17.1-40.8 1.9-5.4 3.6-10.1 5.1-13.5 1.3-3.1 4.1-9.4 10.4-9.4 4.1 0 7.6 1.8 9.9 5 5.5 7.6 3.3 23.3-7.4 53.9z"/>
        <path d="M570.5 657.8c-22.7 41.7-72.5 73.9-115.5 74.7h-1.4c-21.6 0-38.3-8.4-47.4-23.8-9-15.1-22-22.1-32.1-22.1-1.7 0-3.3.2-4.8.6-7 1.8-11 7.6-11.3 16.4-.3 7.7 6.6 18 18.2 27.5 16.8 13.7 43.2 25.3 70.1 25.3 6.6 0 13.3-.7 19.8-2.3 57.2-13.5 108.5-57.4 126-107.1 5.4-15.3 16.7-49.2 4.5-49.2-4.5.1-10.8 31.8-26.1 60z" fill="#f80"/>
        <path d="M649.7 531.9c-2 24-6.7 45.1-13.9 62.9-8.5 20.9-20.3 36.6-35.1 46.8-34 23.4-64.8 26-76.4 26-1.3 0-2.5 0-3.8-.1-18.4-.8-26-4.4-32.7-7.5-5.9-2.8-11-5.2-24.9-5.7-37.5-1.5-67-9.9-83.1-23.6-.2-.1-.5-.4-.9-.7-4.8-3.5-19.3-14.3-25-24.7-5.3-9.7-6.2-22.3-2.3-31.4 13.4-31.2 24.5-40.5 33.5-48 3.6-3 6.4-5.3 8.8-8.7 2.2-3.1 3.8-7.1 4.9-12.2 0-.1 0-.2.1-.3 3.9-15 3.4-34.9 2.8-56-.2-5.7-.3-11.7-.4-17.5v-.1c0-18.6 9.6-40.7 25.7-59.2 18.1-20.8 41.6-33.6 66.1-36.2 20.2-2.1 34.3-3.1 45.9-3.1 43.7 0 58.6 14.8 82.2 48.4 7.5 10.6 12.1 22.5 16 33.7 11.1 30.4 15.9 76.5 12.5 117.2z"/>
        <path d="M358.5 576.7c-3 7-2.2 17.4 2 25 5.6 10.3 23 22.2 24.1 23.2 15.1 12.9 43.7 20.5 78.7 21.9 31.2 1.3 24.3 11.8 57.6 13.3 1.1 0 2.2.1 3.5.1 16.7 0 43.7-5 72.2-24.7 58-39.9 52.9-165.3 34-218.6-3.9-11.1-8.3-22.2-15.1-31.9-23.5-33.5-36.6-45.2-76.2-45.2-12.2 0-26.9 1.1-45.1 3.1-49.9 5.3-85.3 55.3-85.3 88.1.3 27.4 2.5 55.1-2.7 75.5-1.4 6.5-3.4 11.2-6 14.9-9.8 13.5-23.4 12.4-41.7 55.3z" fill="#fc0"/>
        <path d="M678.293 518.645a16.452 16.452 0 0 0-2.584.103c-.95.105-1.98.277-3.08.51-1.098.233-2.263.53-3.478.877-1.215.348-2.48.75-3.777 1.197a102.348 102.348 0 0 0-8.053 3.19 112.498 112.498 0 0 0-8.057 3.966 3.38 3.38 0 0 1-.55.237c-.084 1.17-.123 2.363-.221 3.523a270.01 270.01 0 0 1-2.27 19.17c.07.39.141.78.201 1.17.504 2.973.86 5.866 1.114 8.7 2.01 2.665 4.852 6.035 7.976 8.89.098.09.198.177.297.265a38.945 38.945 0 0 0 2.174 1.83c.055.043.112.08.168.122.675.515 1.357.978 2.039 1.408.159.1.317.206.476.3.752.448 1.505.843 2.25 1.153l.106.045c.806.327 1.606.57 2.389.697.487.08.953.113 1.402.1.45-.013.882-.072 1.3-.18a5.889 5.889 0 0 0 1.223-.467 7.233 7.233 0 0 0 1.166-.754 27.667 27.667 0 0 0 2.1-1.834 29.438 29.438 0 0 0 1.887-2 31.897 31.897 0 0 0 1.683-2.14 35.07 35.07 0 0 0 1.494-2.256 40.607 40.607 0 0 0 2.461-4.734 49.44 49.44 0 0 0 1.836-4.858 58.551 58.551 0 0 0 1.301-4.756 66.55 66.55 0 0 0 .86-4.435c.445-2.801.657-5.24.757-7.026a67.88 67.88 0 0 0 .106-4.095 61.624 61.624 0 0 0-.131-3.737 53.2 53.2 0 0 0-.326-3.347 43.558 43.558 0 0 0-.479-2.926c-.36-1.805-.797-3.31-1.254-4.47a11.477 11.477 0 0 0-.691-1.48c-.232-.404-.462-.717-.684-.935-.318-.313-.747-.552-1.273-.72-.526-.17-1.15-.268-1.858-.303z" fill="#fff6eb" stroke="#000" stroke-linejoin="round" stroke-width="14" style="paint-order:stroke fill markers"/>
        <path d="M336.62 600.24c-.54 4.47-.33 11.45 5.44 14.49 1.88.99 3.84 1.38 5.76 1.38 3.73 0 7.31-1.47 9.86-2.87-6.61-3.73-13.62-8.05-21.06-13zM366.58 618.08c-.4 5.41.27 14.92 9.28 17.74 3.69 1.16 6.77 1.02 9.42-.41 1.5-.81 2.7-1.97 3.66-3.18.95-1.21 1.66-2.49 2.14-3.53-.96-.32-1.92-.66-2.9-1.02-6.67-2.44-13.84-5.61-21.6-9.6zm33.77 13.41c2.03 5.07 6.19 12.28 13.48 12.28h.14c3.59-.05 6.25-1.39 8.21-3.22 1.96-1.83 3.22-4.14 4.01-6.12-1.16.07-2.35.1-3.56.1-6.69 0-14.06-.92-22.28-3.04zM461.14 622.9c-7.13 4.34-14.91 8.11-24.09 10.1 3.23 3.23 8.89 6.64 16.83 3.19 3.45-1.5 5.65-3.57 6.73-6.33.93-2.4.85-4.95.53-6.96zM494.64 601.92c-7.46 3.21-14.19 7.9-21.11 12.72-1.33.92-2.66 1.86-4.01 2.78 3.82 1.82 9.88 3.63 15.98 1.06 3.19-1.34 5.3-4.18 6.71-7.33 1.4-3.15 2.09-6.62 2.43-9.23zm18.135-4.15a47.144 47.144 0 0 0-10.384 1.48c1.18 4.25 4.89 13.72 14.68 14.22 9.47.48 15.14-8.22 17.39-12.61-3.87-1.06-8.08-1.92-12.66-2.57a54.527 54.527 0 0 0-5.272-.495 49.915 49.915 0 0 0-3.754-.025zM541.89 603.19c-.51 4.93-.56 15.06 6.47 20.21 7 5.12 17.02-.73 21.53-3.91-3.77-2.99-7.79-5.98-12.37-8.77-4.57-2.79-9.69-5.38-15.63-7.53zM576.96 625.22c-.9 5.24-1.2 14.61 6.66 19.31 7.01 4.2 14.68-.94 19.46-5.4a35.859 35.859 0 0 1-8.38-2.34c-3.2-1.32-6.19-3.04-9.1-5.02-2.92-1.98-5.75-4.21-8.64-6.55z" fill="#fff6eb" style="paint-order:stroke fill markers"/>
        <path d="M479.388 437.139c-6.54 6.51-15.57 14.42-25.01 19.37-.01 0-.02-.01-.02-.01l-5.27 3.39c-1.86-3.92-4.09-7.14-5.96-9.47l6.08-1.96v-.02c5.3-1.65 19.3-7.04 30.18-11.3zM414.12 439.8c3.67 7.5 7.49 12.97 9.97 16.14a55.24 55.24 0 0 1 6.5-6.73z" fill="#ff6687" stroke="#000" stroke-linejoin="round" stroke-width="14" style="paint-order:stroke fill markers"/>
        <path d="M499.147 429.741c-7.75 23.4-26.93 33.47-27.22 33.62-.23.11-.43.25-.63.41h-.01c-17.82 11.09-32.08 12.06-34.76 12.14-18.53-6.13-25.63-19.75-26.92-22.55-.09-1.89-.06-4.38 0-6.98 5.97 11.18 11.8 17.29 12.13 17.63.66.69 1.57 1.07 2.52 1.07.1 0 .2-.01.3-.01 1.05-.1 2-.66 2.59-1.53 3.29-4.84 7.02-8.26 9.34-10.14 2.14 2.44 5.58 6.96 7.69 12.87.35 1.01 1.15 1.8 2.17 2.14.36.13.74.19 1.12.19.67 0 1.33-.19 1.9-.56l8.3-5.35c17.64-9.26 33.22-27.3 36.61-31.38 1-.33 2.73-.9 4.87-1.57z" fill="#ff6687" stroke="#000" stroke-linejoin="round" stroke-width="14" style="paint-order:stroke fill markers"/>
        <path d="M521.232 551.929c-23.35-4.27-39.21.13-54.56 4.4-16.58 4.61-32.23 8.96-57.17 2.68-17.52-4.42-27.31-9.9-32.79-14.56-2.43-2.06-4.01-3.95-5.03-5.52-1.03-1.57-1.5-2.81-1.71-3.55 8.13-12.7 20.25-22.19 28.12-27.48 4.58-3.09 7.72-4.75 7.81-4.79.56-.29 1.01-.72 1.33-1.22.5-.77.69-1.73.47-2.66a1.9 1.9 0 0 0-.11-.39c-5.41-15.4-3.11-28.93-.83-36.54.8 1.16 1.74 2.4 2.84 3.7 4.94 5.88 12.99 12.8 25.33 16.75.32.1.65.15.98.16.82.02 17.94.24 39.75-13.61 3.8-2.08 24.53-14.53 31.48-41.96.74-.22 1.49-.42 2.23-.62-1.57 11.18-3.35 27.97-3.75 31.86h-.02c-.93 10.08-1.74 31.86 6.72 46.52.65 1.13 1.26 2.28 1.83 3.45 8.05 16.5 7.67 35.54 7.08 43.38z" fill="#fff6eb" stroke="#000" stroke-linejoin="round" stroke-width="14" style="paint-order:stroke fill markers"/>
        <path d="M530.54 510.152a145.526 145.526 0 0 0-8.03.008c8.79 22 5.44 45.38 5.27 46.48a3.53 3.53 0 0 1-1.47 2.36c-.8.55-1.79.74-2.73.54-23.79-5.15-38.97-.93-55.04 3.54-10.76 2.99-21.77 6.051-35.38 6.051-7.52 0-15.85-.932-25.37-3.342-18-4.53-28.81-10.298-35.29-15.648-2.25-1.85-3.98-3.65-5.31-5.33-4.08-5.17-4.38-9.212-4.39-10.112-.01-.66.16-1.319.51-1.879 3.4-5.54 7.46-10.51 11.67-14.85-16.25 10.55-27.89 24.05-34.75 40.31-6.22 14.75-6.4 27.43-6.25 31.7 6.43 4.46 12.53 8.44 18.32 12 5.42 3.33 10.57 6.28 15.47 8.88 56.18 29.82 79.29 13.71 101.76-1.96 14.7-10.25 29.9-20.84 53.25-17.55 28.71 4.06 44.08 16.6 56.44 26.68 7.81 6.37 14.29 11.66 22.42 13.65 3.08.76 6.39 1.04 10.1.74 2.23-.18 4.61-.58 7.16-1.22 3.43-3.58 20.65-23.04 22.97-54.26.52-6.88.3-14.34-.95-22.33-.42-.42-.85-.829-1.27-1.229-38.543-36.715-86.513-42.653-109.11-43.228z" fill="#ff6687" stroke="#000" stroke-width="14" style="paint-order:stroke fill markers"/>
        <path d="M517.61 424.721c-.29.05-.598.11-.908.17-1.462 9.637-3.222 25.93-3.883 32.142l-.068.877c-.623 6.006-1.403 18.511.94 30.21 7.447.129 46.514 1.57 86.062 17.741 1.41.577 2.695 1.13 4.027 1.692-16.631-10.976-20.746-24.51-21.586-29.039 0 0-4.343-27.788 5.688-47.097-22.102-13.062-44.416-9.793-70.272-6.696zm106.987 92.469c8.73 4.504 14.442 8.176 18.043 10.824.124-1.702.25-3.402.36-5.104.027-.476.063-.951.087-1.427-6.945-1.093-13.037-2.574-18.49-4.293z" fill="#ff6687" stroke="#000" stroke-linejoin="round" stroke-width="14" style="paint-order:stroke fill markers"/>
        <path d="M515.59 495.21c.76 2.258 1.656 4.423 2.79 6.39.32.55.63 1.11.93 1.67 5.82-.36 21.56-.78 41.77 3.1 21.72 4.16 52.57 14.27 79.84 38.66.389-2.847.715-5.715 1.012-8.59-2.748-2.52-13.744-11.376-44.842-24.09-35.08-14.344-70.76-16.733-81.5-17.14z" fill="#fff6eb" stroke="#000" stroke-linejoin="round" stroke-width="14" style="paint-order:stroke fill markers"/>
        <path d="M516.408 417.9c-8.142 1.472-15.828 3.966-25.32 7.11-.02.01-.04.029-.07.039l-.1.031c-.36.14-35.64 14.22-43.99 16.76-.08.02-.15.06-.23.09l-9.43 3.049-28.311-16.17-.389-.22c-.05-.03-.11-.059-.17-.089-.12-.06-.25-.12-.38-.17a3.485 3.485 0 0 0-2.28-.04c-.08.02-.16.05-.23.08-.82.33-1.44.94-1.81 1.67-.06.11-.11.219-.16.339-.13.35-.2.71-.22 1.08-.09 1.31-.98 14.87-.72 22-.2.42-.44.97-.73 1.64-2.56 6.15-7.89 22.671-1.93 42.811-.06.01-.13.039-.19.059-41.01 15.19-58.591 39.91-66.121 57.97-8.2 19.7-6.59 35.67-6.52 36.34.11 1.01.65 1.92 1.48 2.5.56.39 1.12.78 1.68 1.16-1.12 4.96-3.07 18.89 8.53 25 7.56 3.98 15.39 1.82 20.68-.74.01 8.44 3.04 18.81 14.29 22.32 5.55 1.74 10.56 1.41 14.91-.97 2.57-1.42 4.55-3.38 6.05-5.36 3.04 6.57 8.92 14.74 19.32 14.6 9.75-.13 15.38-6.589 18.18-12.709 5.21 5.05 13.711 9.199 24.431 4.549 5.18-2.25 8.699-5.68 10.469-10.2 1.05-2.7 1.311-5.419 1.201-7.839 5.08 2.07 12.3 3.55 19.879.36 6.44-2.71 9.871-8.74 11.691-14.44 3.46 5.13 8.869 9.569 16.819 9.969 8.23.42 14.22-3.569 18.32-8.069.82 5.82 3.21 12.279 9.18 16.649 8.51 6.23 18.68 2.68 25.38-1.09-.45 7.8 1.56 17.28 10.42 22.59 3.12 1.87 6.23 2.63 9.21 2.63 10.9 0 20.25-10.169 23.22-13.779 2.85-.25 5.89-.79 9.16-1.66.56-.15 1.07-.44 1.49-.83 1.41-1.32 33.42-32.18 24.53-84.66-.06-.39-.13-.78-.2-1.17.96-6.16 1.72-12.56 2.27-19.17.33-3.91.643-16.572.533-16.752l-6.992-.728s.09 2.93-.15 7.07c-.4 7.89-1.11 15.779-2.17 23.539-27.27-24.39-58.12-34.5-79.84-38.66-20.21-3.88-35.951-3.46-41.771-3.1-.3-.56-.61-1.12-.93-1.67-7.58-13.14-6.599-33.99-5.729-42.99.56-5.29 2.51-23.51 4.05-33.66.31-.06.62-.12.91-.17zm-7.041 8.84c-1.57 11.18-3.35 27.97-3.75 31.86h-.02c-.93 10.08-1.739 31.86 6.721 46.52.65 1.13 1.26 2.28 1.83 3.45 8.05 16.5 7.669 35.54 7.079 43.38-23.35-4.27-39.21.13-54.559 4.4-16.58 4.61-32.23 8.96-57.17 2.68-17.52-4.42-27.31-9.901-32.79-14.561-2.43-2.06-4.01-3.95-5.03-5.52-1.03-1.57-1.501-2.809-1.711-3.549 8.13-12.7 20.25-22.19 28.12-27.48 4.58-3.09 7.721-4.751 7.811-4.791a3.475 3.475 0 0 0 1.329-1.219c.5-.77.69-1.73.47-2.66a1.9 1.9 0 0 0-.11-.39c-5.41-15.4-3.11-28.93-.83-36.54.8 1.16 1.74 2.4 2.84 3.7 4.94 5.88 12.99 12.8 25.33 16.75.32.1.651.15.981.16.82.02 17.94.24 39.75-13.61 3.8-2.08 24.529-14.53 31.479-41.96.74-.22 1.49-.42 2.23-.62zm-10.219 3.02c-7.75 23.4-26.93 33.469-27.22 33.619-.23.11-.431.25-.631.41h-.01c-17.82 11.09-32.08 12.06-34.76 12.14-18.53-6.13-25.63-19.75-26.92-22.55-.09-1.89-.06-4.379 0-6.979 5.97 11.18 11.801 17.29 12.131 17.63.66.69 1.57 1.07 2.52 1.07.1 0 .198-.01.298-.01 1.05-.099 2-.66 2.592-1.532 3.29-4.84 7.02-8.258 9.34-10.138 2.14 2.44 5.58 6.959 7.69 12.869.35 1.01 1.15 1.8 2.17 2.14.36.13.739.19 1.119.19.67 0 1.33-.19 1.9-.56l8.3-5.35c17.64-9.26 33.22-27.3 36.61-31.38 1-.33 2.731-.9 4.871-1.57zm-19.761 7.4c-6.54 6.51-15.57 14.42-25.01 19.37-.01 0-.02-.01-.02-.01l-5.27 3.39c-1.86-3.92-4.09-7.14-5.96-9.47l6.08-1.962v-.02c5.3-1.65 19.3-7.038 30.18-11.298zm-65.27 2.66 16.47 9.409a55.24 55.24 0 0 0-6.5 6.73c-2.48-3.17-6.3-8.639-9.97-16.139zm198.755 73.545c8.447 2.07 6.571 1.1 13.617-2.916 0 0-11.39-3.057-18.567-8.531 0 0-2.33 7.49 4.95 11.447zm-82.335-3.193c22.598.575 70.568 6.514 109.111 43.228.42.4.85.809 1.27 1.229 1.25 7.99 1.47 15.45.95 22.33-2.32 31.22-19.54 50.68-22.97 54.26-2.55.64-4.93 1.04-7.16 1.22-3.71.3-7.021.02-10.101-.74-8.13-1.99-14.61-7.28-22.42-13.65-12.36-10.08-27.73-22.62-56.44-26.68-23.35-3.29-38.55 7.3-53.25 17.55-22.47 15.67-45.58 31.78-101.76 1.96-4.9-2.6-10.05-5.549-15.47-8.879-5.79-3.56-11.89-7.54-18.32-12-.15-4.27.03-16.951 6.25-31.701 6.86-16.26 18.5-29.759 34.75-40.309-4.21 4.34-8.27 9.31-11.67 14.85-.35.56-.52 1.219-.51 1.879.01.9.31 4.941 4.39 10.111 1.33 1.68 3.061 3.48 5.311 5.33 6.48 5.35 17.29 11.119 35.29 15.649 9.52 2.41 17.85 3.341 25.37 3.341 13.61 0 24.62-3.06 35.38-6.05 16.069-4.47 31.25-8.691 55.04-3.541.94.2 1.929.01 2.729-.54a3.531 3.531 0 0 0 1.47-2.359c.17-1.1 3.52-24.48-5.27-46.48 2.092-.063 4.802-.09 8.03-.008zm-17.764 87.617a49.94 49.94 0 0 1 3.754.025c1.764.08 3.522.245 5.27.495 4.58.65 8.79 1.51 12.66 2.57-2.25 4.39-7.919 13.091-17.389 12.611-9.79-.5-13.501-9.97-14.681-14.22a47.157 47.157 0 0 1 10.386-1.48zm-176.156 2.47c7.44 4.95 14.45 9.27 21.06 13-2.55 1.4-6.129 2.87-9.859 2.87-1.92 0-3.881-.389-5.761-1.379-5.77-3.04-5.98-10.02-5.44-14.49zm158.02 1.68c-.34 2.61-1.03 6.081-2.43 9.23-1.41 3.15-3.519 5.991-6.709 7.331-6.1 2.57-12.16.76-15.98-1.06 1.35-.92 2.68-1.86 4.01-2.78 6.92-4.82 13.649-9.51 21.109-12.72zm47.25 1.27c5.94 2.15 11.06 4.741 15.63 7.531 4.58 2.79 8.6 5.78 12.37 8.77-4.51 3.18-14.53 9.03-21.53 3.91-7.03-5.15-6.98-15.281-6.47-20.211zm-175.309 14.89c7.76 3.99 14.93 7.16 21.6 9.6.98.36 1.94.7 2.9 1.02a18.081 18.081 0 0 1-2.14 3.531c-.96 1.21-2.16 2.37-3.66 3.18-2.65 1.43-5.73 1.57-9.42.41-9.01-2.82-9.68-12.33-9.28-17.74zm94.559 4.82c.32 2.01.4 4.56-.53 6.96-1.08 2.76-3.28 4.83-6.73 6.33-7.94 3.45-13.6.04-16.83-3.19 9.18-1.99 16.96-5.76 24.09-10.1zm115.82 2.321c2.89 2.34 5.72 4.57 8.64 6.55 2.91 1.98 5.9 3.699 9.1 5.019a35.858 35.858 0 0 0 8.381 2.341c-4.78 4.46-12.45 9.599-19.46 5.399-7.86-4.7-7.561-14.069-6.661-19.309zm-176.61 6.27c8.22 2.12 15.59 3.039 22.28 3.039 1.21 0 2.4-.03 3.56-.1-.79 1.98-2.05 4.291-4.01 6.121s-4.62 3.17-8.21 3.22h-.139c-7.29 0-11.45-7.21-13.48-12.28z"/>
        <path d="M663.652 533.469c-.49.003-.982.016-1.472.04-1.96.07-3.93.24-5.88.51a64.352 64.352 0 0 0-8.74 1.782c-.99.27-1.89.53-2.97.92l-.06.039a3.526 3.526 0 0 0-2.168 4.295 3.565 3.565 0 0 0 1.088 5.615l.21.1c.76.36 1.35.59 2.01.86l1.93.74c1.28.47 2.56.91 3.84 1.34a199.8 199.8 0 0 0 7.69 2.37c.4.11.85-.03 1.1-.4a.996.996 0 0 0-.27-1.38c-2.19-1.49-4.35-3.01-6.46-4.57-1.06-.79-2.1-1.58-3.11-2.38l-1.343-1.084c.27-.141.539-.285.803-.416a60.214 60.214 0 0 1 7.541-3.129c1.72-.59 3.48-1.1 5.27-1.51 1.79-.44 3.599-.711 5.429-.951l.06-.01c.61-.08 1.1-.59 1.14-1.23.05-.73-.5-1.35-1.23-1.4-1.462-.09-2.935-.163-4.408-.151z"/>
        <path d="M384.3 648c-2.4 3.7-6.4 5.7-11.5 5.7-1.9 0-4-.3-6.2-.8-25-6-59.3-43.6-63.6-64.5-1.9-9.4-.2-18 5-24.4 4.6-5.7 11.4-8.8 18.9-8.8 6.8 0 13.6 2.5 19.8 7.3 12.2 9.4 32.9 50.5 37.3 60.7 2.5 5.8 4.9 17.7.3 24.8z"/>
        <path d="M310.1 586.8c3.8 18.2 36.2 53.6 58.1 58.8 1.7.4 3.2.6 4.5.6 3.4 0 4.7-1.3 5.4-2.3 2.3-3.5 1.5-12.1-1-17.9-6.1-13.9-25.3-50.3-35.1-57.8-4.9-3.8-10.2-5.8-15.3-5.8-5.3 0-10 2.2-13.2 6.1-3.6 4.7-4.8 11.2-3.4 18.3z" fill="#fc0"/>
        <path d="M413.3 399.4c-.4 4.4-3.8 8.4-11.1 12.9-4.7 3-10.2 5.5-13.9 6.5-6.5 1.7-12.3 2.6-17.3 2.6-6.7 0-10.6-1.6-12.7-2.9-4.8-3-4.4-7.2-4.2-8.5.5-3.1 2.9-5.5 5.9-6.2 3.5-.8 13.5-5.8 23.6-12.6 4.2-2.9 10.7-4.8 16.1-4.8 5.8 0 9.1 2.2 10.8 4.1 2.1 2.4 3.1 5.5 2.8 8.9z"/>
        <path d="M361.4 411.3c0 .3.4.7.9.9 1.1.7 3.6 1.8 8.8 1.8 4.3 0 9.5-.8 15.4-2.3 5.2-1.4 19.1-8.8 19.5-13 .1-1.3-.2-2.4-.9-3.2-1-1.1-2.8-1.7-5.3-1.7-3.9 0-8.9 1.5-11.9 3.5-8.5 5.7-20.5 12.5-26.1 13.7-.3.1-.4.2-.4.3z" fill="#f80"/>
        <path d="M516.4 328.1c1.6 0 3.2 0 4.8.1 20.6.6 39.5 6.5 55.9 17 11.2 7.2 17.5 11.4 25.9 25.2 1.5 2.5 9 .8 7.9-1.1-10.1-17.6-17.5-22.3-29.8-30.3-17.7-11.4-37.8-17.6-59.7-18.2-1.6 0-3.3-.1-5-.1-1.6 0-3.3 0-4.9.1-24.3.6-47.8 6.6-67.8 17.1-20.2 10.6-37.1 26.1-48.9 44.7-7.7 12.3-10.3 23.9-7.4 33.5 2.4 7.8 7.9 12.7 12.3 14.6 1.4.6 2.9.9 4.7.9 9.3 0 34.7-9.3 45.7-24.8 8.4 4.5 17.6 6.7 28.1 6.7 12.6 0 25-3.2 36.4-6.9 3-1 3.8-2.2 3.9-4.1 0-1.3-1.2-3.6-3.8-3.5-.3 0-.7.1-1 .2-11.2 3.6-23.3 6.9-35.4 6.9-9.3 0-18.6-2-27.4-7.4-.6-.4-1.3-.5-1.9-.5-1.3 0-2.5.6-3.2 1.8l-.1.1c-7.9 14.3-33.3 24.1-41.2 24.1-.7 0-1.3-.1-1.7-.3-2.8-1.2-6.6-4.6-8.2-10-2.3-7.5 0-17 6.6-27.4 22.5-35.7 63.4-57.1 110.6-58.3 1.4-.1 3-.1 4.6-.1"/>
        <path d="M516.6 399.4c-1-.4-2-.7-3-.3-19.7 6.3-42.5 12-62.8-.5-1.7-1.1-4-.5-5.1 1.2l-.1.1c-8.6 15.7-38.3 26-43 23.9-2.8-1.2-6.6-4.6-8.2-10-2.3-7.5 0-17 6.6-27.4 22.5-35.7 63.4-57.1 110.6-58.3 3.1-.1 6.3-.1 9.5 0 20.6.6 39.5 6.5 55.9 17 13.2 8.5 19.7 12.7 30.6 33.6 5.6 10.5-84.4 23.5-91 20.7z" fill="#fc0"/>
        <path d="M701.4 357.1c-.5 1.7-1.2 3.4-2 5.2-5 10-17.7 23-38 29.1-4.5 1.4-9.3 2-14 2h-.1c-13 0-34.2-4.9-61.6-28.3-1.9-1.7-5.1-4.8-7.1-7-2.3-2.5-2.8-6.1-1.5-9.1 1.3-3 4.4-5.1 7.8-5.1h.5c13.9.8 30.1 1.2 48.4 1.2 8.1 0 14.8-.1 19.3-.1h4.5c7.4 0 13.3-.1 18.2-.1 8.1 0 13.7.1 17.1.2 2.9.1 5.6 1.5 7.3 3.9 1.5 2.3 2 5.2 1.2 8.1z"/>
        <path d="M590.4 359.4c25.7 21.9 45.1 26.5 56.8 26.5h.1c4 0 8-.6 11.9-1.7 18.1-5.4 29.2-16.6 33.5-25.3.8-1.5 1.2-2.8 1.5-3.9.4-1.3-.6-2.6-1.9-2.7-3.3-.1-8.9-.2-16.7-.2-5.4 0-11.6 0-18.2.1-3.3 0-12.2.2-23.9.2-13.9 0-31.7-.2-48.8-1.2h-.1c-.9 0-1.5 1.1-.8 1.8 2 2.2 5 5.1 6.6 6.4z" fill="#f80"/>
        <path d="m417.6 376.2c-4.1 0-7.4 3.3-7.4 7.4 0 9.9 14.8 9.9 14.8 0 0-4.1-3.3-7.4-7.4-7.4zm85.6-20.5c-4.1 0-7.4 3.3-7.4 7.4 0 9.9 14.8 9.9 14.8 0 0-4.1-3.3-7.4-7.4-7.4z"/>
        <path d="m457.9 375.4c-7.4 0.8-12.3 2.5-15.6 4.9-5.9 4.4-4.1 9.9 2.5 10.7s7.1 1.2 13.2-3.3c6.5-4.9 7.3-13.1-0.1-12.3z"/>
        <path d="M512.4 655.2c-4.6-5.2-3.7-15.7-1.9-29.4 2.6-19.8 5-34.5 25.4-50.8 24.4-19.5 62.2-15 76.2-.5 3.6 3.7 6.7 10.9 7.3 18.8.9 11.4-22.2 42.4-44.8 51.8-22.6 9.6-54 19.3-62.2 10.1z" fill="#fc0"/>
        <path d="M512.4 658.9c-1.2 0-2.3-.5-3-1.6-4.7-6.7-4.5-17.2-2.6-32 2.5-19 4.6-35.5 26.8-53.2 26.8-21.4 63.7-14 78.4.7 1.4 1.4 1.4 3.8 0 5.2-1.4 1.4-3.8 1.4-5.2 0-12.5-12.5-45.4-18.7-68.6-.1-18.9 15.1-21.4 28.2-24.1 48.4-1.4 11-2.3 21.8 1.3 26.7 1.2 1.7.8 4-.9 5.2-.6.5-1.4.7-2.1.7z"/>
        <path d="M576.96 625.22c-.763 4.451-1.093 11.878 3.64 16.895 3.488-2 6.93-4.44 10.248-7.15a57.046 57.046 0 0 1-5.248-3.195c-2.92-1.98-5.75-4.21-8.64-6.55z" fill="#fff6eb"/>
        <path d="M571.87 558.75c-12.887.138-26.545 3.987-38.27 13.35-7.939 6.329-13.277 12.505-17.012 18.697 2.002.08 4.059.252 6.191.553 28.71 4.06 44.082 16.6 56.442 26.68 6.108 4.981 11.413 9.277 17.32 11.876 13.422-12.8 23.458-29.025 22.86-36.605-.548-7.203-3.18-13.792-6.368-17.71.05-1.012-.286-2.043-1.033-2.79-8.269-8.269-23.562-14.228-40.13-14.051z" fill="#ff6687"/>
        <path d="M513.012 597.771c-1.774 4.18-2.972 8.398-3.875 12.7 2.05 1.652 4.648 2.832 7.933 3 9.47.48 15.14-8.222 17.39-12.612-3.87-1.06-8.08-1.92-12.66-2.57a54.527 54.527 0 0 0-5.27-.494 49.915 49.915 0 0 0-3.518-.023z" fill="#fff6eb"/>
        <path d="M541.89 603.19c-.51 4.93-.56 15.06 6.47 20.21 7 5.12 17.02-.73 21.53-3.91-3.77-2.99-7.79-5.98-12.37-8.77-4.57-2.79-9.69-5.38-15.63-7.53z" fill="#fff6eb" style="paint-order:stroke fill markers"/>
        <path d="M516.582 590.807a55.398 55.398 0 0 0-3.576 6.98 50 50 0 0 1 3.521.027c1.764.08 3.522.245 5.27.495 4.58.65 8.79 1.51 12.66 2.57-2.25 4.39-7.919 13.091-17.389 12.611-3.29-.168-5.88-1.36-7.931-3.015-.518 2.468-.95 4.964-1.328 7.5 2.53 1.404 5.481 2.331 8.908 2.503 8.23.42 14.22-3.568 18.32-8.068.82 5.82 3.21 12.279 9.18 16.649 8.51 6.23 18.68 2.68 25.38-1.09-.324 5.633.65 12.134 4.546 17.316.147-.062.31-.123.457-.185 2.002-.833 4.008-1.843 6.002-2.987-4.72-5.017-4.409-12.426-3.645-16.873 2.89 2.34 5.72 4.569 8.64 6.549a56.977 56.977 0 0 0 5.247 3.178 99.64 99.64 0 0 0 5.668-5.031c-5.9-2.6-11.193-6.91-17.295-11.887-12.36-10.08-27.73-22.62-56.44-26.68a62.097 62.097 0 0 0-6.195-.562zm25.305 12.402c5.94 2.15 11.06 4.741 15.63 7.531 4.58 2.79 8.6 5.78 12.37 8.77-4.51 3.18-14.53 9.03-21.53 3.91-7.03-5.15-6.98-15.281-6.47-20.211z"/>
        <path d="M523.7 651.2c-.4 1.9-2 9.1-6.7 16.2-7 10.6-17.8 16.5-30.4 16.5-7.2 0-12.9-2.1-16.8-6.2-7.5-7.8-7.1-21-6.7-33.7v-.1c.2-6.4.4-13.1-.4-18.5-.7-4.4-1.8-9.1-3.1-14.5-2.4-10.2-4.6-20.1-4.3-28.7.4-10.7 4.7-18.9 12.8-24.4 3.5-2.4 7.4-3.5 11.4-3.5 9.3 0 18.9 6.2 28.7 18.6 7.1 8.9 13.1 20 15.4 28.1 6.4 21.8 4.9 34.9.1 50.2z"/>
        <path d="M477 670.8c2 2.1 5.2 3.1 9.6 3.1 22.6 0 27-23.7 27.2-24.7 0-.2.1-.4.1-.6 4.4-13.9 5.7-25.2 0-44.8-3.7-13.2-21.1-39.4-34.4-39.4-2 0-4 .6-5.8 1.9-11.7 7.8-9.3 21.8-4.4 42.4 1.2 5.1 2.5 10.4 3.2 15.3 1 6.4.8 13.5.5 20.4-.2 10.6-.6 21.6 4 26.4z" fill="#fc0"/>
        <path d="M478 413.3c-6.4 2.9-12.4 6.6-17.6 11.1-12.1 10.6-12.6 19.4-10.8 24.8 2.5 7.7 11.1 13.4 21.9 14.6 7.1.7 16.2-1.3 26.7-3.6 13.9-3.1 29.7-6.6 42.9-3.9 19.6 4.1 33.3 15 53.1 32.7l10.3 9.2c1.5 1.3 3.9 1.2 5.2-.4 1.3-1.5 1.2-3.9-.4-5.2l-2.9-2.6c-24-21.7-39.9-36-63.8-41-14.8-3.1-31.3.6-46 3.9-9.5 2.1-18.5 4.1-24.3 3.5-7.8-.8-14.1-4.6-15.7-9.5-1.5-4.7 1.6-10.7 8.7-17 20.7-18.2 59.1-23.7 87.5-12.5 4.7 1.9 7.4-5.1 2.7-6.9-11.4-4.4-24.6-6.6-37.7-6.2-10.1.4-30.5 4.8-39.8 9z"/>
        <path d="M615.4 451c11.7 12.2 17 60.3-6 41.6l-2.9-2.6c-24-21.7-39.9-36-63.8-41-14.8-3.1-31.3.6-46 3.9-9.5 2.1-18.5 4.1-24.3 3.5-7.8-.8-14.1-4.6-15.7-9.5-1.5-4.7 1.6-10.7 8.7-17 20.7-18.2 59.3-24 87.5-12.5 4.6 2 46.1 16.5 62.5 33.6z" fill="#fc0"/>
        <path d="m547.16 410.2s-0.66 19-14.04 39.86c0 0-2.64 8.96 3.66 15.39 6.29 6.42 9.84 1.68 15.66 4.53 13.99 6.86 29.89-9.58 33-19.2 4.93-15.27 4.23-28.19-8.48-34.42-6.66-3.26-5.98-7.85-11.54-9.73-9.78-3.3-14.84 0.6-18.26 3.57z" fill="#ff6687" stroke="#000" stroke-linejoin="round" stroke-width="14" style="paint-order:stroke fill markers"/>
        <path d="M390.6 457c-5.2 5.1-11.7 8.1-17.8 8.1-8.1 0-14-5.1-15.6-13.3-1-5.4.9-11.3 5.4-16.7 5.8-6.9 14.9-12 21.7-12.1h.2c1.3 0 2.6.2 3.8.6h.2l.1.1c4.5 1.8 7.9 6.2 9.1 11.8 1.4 7.5-1.2 15.5-7.1 21.5z"/>
        <path d="M385.4 451.7c4.2-4.2 6-9.6 5-14.7-.6-3.1-2.3-5.5-4.6-6.4-.4-.1-.9-.2-1.3-.2h-.1c-4 0-11.3 3.6-16.1 9.4-1.8 2.1-4.6 6.3-3.8 10.6 1.1 6 5.1 7.3 8.3 7.3 4.1 0 8.8-2.2 12.6-6z" fill="#fc0"/>
    </g>
</svg>
