<svg viewBox="0 0 1e3 1e3" xmlns="http://www.w3.org/2000/svg">
    <path d="M449.783 505.883c-4.5 5.1-10.5 7.9-17 7.9-9.1 0-18.5-5.5-24.4-14.4-7.8-11.6-15.5-21.2-22.3-27.9l-4.8-4.7c-2-2-1.1-5.3 1.6-6.1l6.5-1.7c3.2-.9 6.4-2.7 9.1-5.5 3-3 4.8-6.7 5.2-10.4v-11.2c0-1.3 1.5-2.1 2.5-1.3l9.3 6.9c.7.5 1.7 1.1 2.9 1.7 10.2 4.9 31.7 27.4 35.7 46.7 2.1 10.1-1.2 16.5-4.3 20z"/>
    <path d="m415.28 445.98c-1.5-0.7-2.9-1.5-4.2-2.4-0.5 5.5-3 11-7.3 15.3-3.7 3.7-8.1 6.2-12.5 7.4 8.7 8.6 17 19.8 23.2 29.1 4.5 6.7 11.6 11.1 18.3 11.1 4.1 0 8.1-1.6 11.4-5.4 13-14.8-17.3-49.6-28.9-55.1z" fill="#fc0"/>
    <path d="M612.283 651.383c-9 25.7-26.4 50-50.3 70.3-23.8 20.3-51.8 34.7-81 41.6-6.9 1.6-14.1 2.5-21.5 2.5-30.8 0-58.9-13.9-74.8-27-13.6-11.1-21.2-23.3-20.9-33.5.4-12 6.7-20.7 16.8-23.3 2.1-.5 4.3-.8 6.7-.8 11.2 0 27.2 6.7 38.5 25.7 7.8 13.2 22 20.1 41.1 20.1h1.2c40.7-.8 87.6-31.2 109.1-70.8 7.7-14.1 13.2-29.6 17.1-40.8 1.9-5.4 3.6-10.1 5.1-13.5 1.3-3.1 4.1-9.4 10.4-9.4 4.1 0 7.6 1.8 9.9 5 5.5 7.6 3.3 23.3-7.4 53.9z"/>
    <path d="M583.683 659.683c-22.7 41.7-72.5 73.9-115.5 74.7h-1.4c-21.6 0-38.3-8.4-47.4-23.8-9-15.1-22-22.1-32.1-22.1-1.7 0-3.3.2-4.8.6-7 1.8-11 7.6-11.3 16.4-.3 7.7 6.6 18 18.2 27.5 16.8 13.7 43.2 25.3 70.1 25.3 6.6 0 13.3-.7 19.8-2.3 57.2-13.5 108.5-57.4 126-107.1 5.4-15.3 16.7-49.2 4.5-49.2-4.5.1-10.8 31.8-26.1 60z" fill="#f80"/>
    <path transform="translate(13.183 1.883)" d="M649.7 531.9c-2 24-6.7 45.1-13.9 62.9-8.5 20.9-20.3 36.6-35.1 46.8-34 23.4-64.8 26-76.4 26-1.3 0-2.5 0-3.8-.1-18.4-.8-26-4.4-32.7-7.5-5.9-2.8-11-5.2-24.9-5.7-37.5-1.5-67-9.9-83.1-23.6-.2-.1-.5-.4-.9-.7-4.8-3.5-19.3-14.3-25-24.7-5.3-9.7-6.2-22.3-2.3-31.4 13.4-31.2 24.5-40.5 33.5-48 3.6-3 6.4-5.3 8.8-8.7 2.2-3.1 3.8-7.1 4.9-12.2 0-.1 0-.2.1-.3 3.9-15 3.4-34.9 2.8-56-.2-5.7-.3-11.7-.4-17.5v-.1c0-18.6 9.6-40.7 25.7-59.2 18.1-20.8 41.6-33.6 66.1-36.2 20.2-2.1 34.3-3.1 45.9-3.1 43.7 0 58.6 14.8 82.2 48.4 7.5 10.6 12.1 22.5 16 33.7 11.1 30.4 15.9 76.5 12.5 117.2z"/>
    <path transform="translate(13.183 1.883)" d="M358.5 576.7c-3 7-2.2 17.4 2 25 5.6 10.3 23 22.2 24.1 23.2 15.1 12.9 43.7 20.5 78.7 21.9 31.2 1.3 24.3 11.8 57.6 13.3 1.1 0 2.2.1 3.5.1 16.7 0 43.7-5 72.2-24.7 58-39.9 52.9-165.3 34-218.6-3.9-11.1-8.3-22.2-15.1-31.9-23.5-33.5-36.6-45.2-76.2-45.2-12.2 0-26.9 1.1-45.1 3.1-49.9 5.3-85.3 55.3-85.3 88.1.3 27.4 2.5 55.1-2.7 75.5-1.4 6.5-3.4 11.2-6 14.9-9.8 13.5-23.4 12.4-41.7 55.3z" fill="#fc0"/>
    <path transform="translate(14.337 1.898)" d="M520.16 552c-23.35-4.27-39.21.13-54.56 4.4-16.58 4.61-32.23 8.96-57.17 2.68-17.52-4.42-27.31-9.9-32.79-14.56-2.43-2.06-4.01-3.95-5.03-5.52-1.03-1.57-1.5-2.81-1.71-3.55 8.13-12.7 20.25-22.19 28.12-27.48 4.58-3.09 7.72-4.75 7.81-4.79.56-.29 1.01-.72 1.33-1.22.5-.77.69-1.73.47-2.66a1.9 1.9 0 0 0-.11-.39c-5.41-15.4-3.11-28.93-.83-36.54.8 1.16 1.74 2.4 2.84 3.7 4.94 5.88 12.99 12.8 25.33 16.75.32.1.65.15.98.16.82.02 17.94.24 39.75-13.61 3.8-2.08 24.53-14.53 31.48-41.96.74-.22 1.49-.42 2.23-.62-1.57 11.18-3.35 27.97-3.75 31.86h-.02c-.93 10.08-1.74 31.86 6.72 46.52.65 1.13 1.26 2.28 1.83 3.45 8.05 16.5 7.67 35.54 7.08 43.38z" fill="#fff6eb"/>
    <path transform="translate(14.337 1.898)" d="M498.08 429.81c-7.75 23.4-26.93 33.47-27.22 33.62-.23.11-.43.25-.63.41h-.01c-17.82 11.09-32.08 12.06-34.76 12.14-18.53-6.13-25.63-19.75-26.92-22.55-.09-1.89-.06-4.38 0-6.98 5.97 11.18 11.8 17.29 12.13 17.63.66.69 1.57 1.07 2.52 1.07.1 0 .2-.01.3-.01 1.05-.1 2-.66 2.59-1.53 3.29-4.84 7.02-8.26 9.34-10.14 2.14 2.44 5.58 6.96 7.69 12.87.35 1.01 1.15 1.8 2.17 2.14.36.13.74.19 1.12.19.67 0 1.33-.19 1.9-.56l8.3-5.35c17.64-9.26 33.22-27.3 36.61-31.38 1-.33 2.73-.9 4.87-1.57z" fill="#ff6687"/>
    <path transform="translate(14.337 1.898)" d="M478.32 437.21c-6.54 6.51-15.57 14.42-25.01 19.37-.01 0-.02-.01-.02-.01l-5.27 3.39c-1.86-3.92-4.09-7.14-5.96-9.47l6.08-1.96v-.02c5.3-1.65 19.3-7.04 30.18-11.3zm163.7 84.35c-.4 7.89-1.11 15.78-2.17 23.54-27.27-24.39-58.12-34.5-79.84-38.66-20.21-3.88-35.95-3.46-41.77-3.1-.3-.56-.61-1.12-.93-1.67-7.58-13.14-6.6-33.99-5.73-42.99.56-5.29 2.51-23.51 4.05-33.66.31-.06.62-.12.91-.17 36.55-6.39 86.079-8.997 119.83 21.004 0 0 12.108 5.768 5.8 68.636 0 0 .09 2.93-.15 7.07z" fill="#ff6687"/>
    <path transform="translate(14.337 1.898)" d="m647.72 525.12s28.76-15.65 36.29-8.24c6.9 6.8 8.14 45.04-11.21 60.27-12.49 9.83-30.18-17.19-30.18-17.19" fill="#fff6eb"/>
    <path d="M681.057 584.708c-.76 0-1.53-.06-2.31-.19-12.12-1.98-23.46-18.82-24.71-20.73a3.49 3.49 0 0 1 1.01-4.84 3.501 3.501 0 0 1 4.85 1.01c2.94 4.49 12.28 16.4 19.99 17.66 1.95.32 3.56-.1 5.09-1.3 11.79-9.28 13.98-26.9 14.38-34.04.63-11.37-1.69-19.25-3.46-20.99-3.39-3.34-19.37 1.86-32.16 8.82-1.7.92-3.82.3-4.75-1.4-.92-1.7-.3-3.82 1.4-4.75.3-.17 7.51-4.07 15.79-7.11 12.34-4.53 20.4-4.71 24.63-.55 4.9 4.82 6.04 17.21 5.54 26.36-.45 8.09-3.01 28.12-17.04 39.16-2.44 1.91-5.25 2.89-8.25 2.89z"/>
    <path transform="translate(14.337 1.898)" d="m336.1 599.48-1.35-.9-.19 1.61c-.9 7.49 1.21 12.99 5.97 15.5 1.89.99 3.98 1.5 6.23 1.5 4.04 0 7.85-1.63 10.34-2.99l1.58-.87-1.56-.88c-6.64-3.75-13.71-8.11-21.02-12.97zm51.35 27.33c-6.7-2.45-13.93-5.66-21.49-9.55l-1.34-.69-.11 1.51c-.42 5.71.31 15.74 9.98 18.77 1.74.55 3.38.82 4.9.82 1.91 0 3.69-.44 5.3-1.31 1.44-.78 2.77-1.93 3.97-3.44 1.08-1.38 1.83-2.79 2.26-3.73l.47-1.01-1.06-.35c-.95-.32-1.91-.66-2.88-1.02zm34.11 6.79c-6.88 0-14.29-1.01-22.03-3.01l-1.91-.49.73 1.83c3.33 8.32 8.45 12.91 14.41 12.91h.16c3.46-.05 6.45-1.22 8.88-3.49 1.77-1.65 3.2-3.83 4.26-6.48l.58-1.46-1.57.1c-1.09.06-2.27.09-3.51.09zm39.26-12.25-1.27.77c-8.39 5.11-15.95 8.28-23.78 9.98l-1.79.39 1.3 1.3c2.25 2.25 5.99 4.93 11.08 4.93 2.22 0 4.53-.51 6.86-1.53 3.7-1.61 6.08-3.86 7.26-6.88.84-2.16 1.03-4.67.58-7.48zm11.07-7.46-1.41.98c-.86.6-1.72 1.2-2.59 1.8l-1.44.98 1.57.75c2.33 1.11 5.96 2.43 9.99 2.43 2.38 0 4.67-.46 6.8-1.35 3.04-1.28 5.48-3.92 7.24-7.85 1.48-3.34 2.18-7.01 2.51-9.51l.23-1.74-1.61.69c-7.54 3.25-14.2 7.88-21.29 12.82zm48.98-16.52c-2.59-.37-5.16-.55-7.65-.55-4.17 0-8.15.5-12.15 1.54l-.99.25.27.98c1.2 4.32 5.12 14.42 15.59 14.95.27.01.54.02.8.02 9.38 0 15.01-8.25 17.53-13.17l.56-1.1-1.19-.33c-3.92-1.07-8.22-1.94-12.77-2.59zm36.1 12.57c-5.13-3.13-10.3-5.62-15.81-7.62l-1.2-.44-.13 1.27c-.58 5.58-.45 15.75 6.87 21.12 2.01 1.47 4.39 2.21 7.07 2.21 6.05 0 12.39-3.83 15.63-6.11l1.09-.77-1.05-.83c-3.15-2.49-7.41-5.75-12.47-8.83zm37.04 26c-2.88-1.19-5.8-2.8-8.92-4.92-2.95-2-5.87-4.31-8.57-6.5l-1.33-1.07-.29 1.68c-.94 5.44-1.25 15.32 7.13 20.34a11.67 11.67 0 0 0 6.09 1.7c5.64 0 11.04-3.93 14.57-7.23l1.51-1.41-2.05-.31c-2.78-.42-5.44-1.17-8.14-2.28z" fill="#fff6eb"/>
    <path transform="translate(14.337 1.898)" d="m422.23 456.63.77.99.79-.97c1.92-2.37 4.07-4.59 6.38-6.61l1.06-.92-20.51-11.72 1.43 2.92c3.71 7.57 7.53 13.05 10.08 16.31zm218.56 97.58-.23-.23c-.41-.41-.82-.81-1.29-1.25-41.27-39.31-93.31-43.55-113.77-43.55-1.55 0-2.92.02-4.09.06l-1.43.04.53 1.33c8.78 21.99 5.25 45.72 5.21 45.95-.11.68-.49 1.3-1.05 1.69-.42.29-.91.44-1.43.44-.18 0-.35-.02-.52-.05-7.42-1.61-14.33-2.39-21.11-2.39-13.05 0-23.43 2.89-34.41 5.94-10.64 2.96-21.64 6.01-35.11 6.01-8.11 0-16.33-1.08-25.13-3.31-15.45-3.89-27.19-9.09-34.9-15.45-2.02-1.66-3.75-3.4-5.16-5.18-3.93-4.98-4.17-8.79-4.18-9.51-.01-.48.12-.95.36-1.34 3.09-5.03 6.97-9.97 11.54-14.68l-1.26-1.54c-16.39 10.64-28.2 24.35-35.13 40.76-6.21 14.73-6.49 27.37-6.33 32.12l.02.5.41.29c6.22 4.32 12.4 8.36 18.37 12.03 5.32 3.27 10.55 6.27 15.52 8.91 21.33 11.32 39.34 16.83 55.04 16.83 20.73 0 34.47-9.58 47.76-18.85 12.68-8.84 25.79-17.98 44.18-17.98 2.72 0 5.53.2 8.36.6 28.43 4.02 43.68 16.46 55.97 26.48 7.75 6.33 14.45 11.79 22.79 13.83 2.42.6 4.87.89 7.48.89.96 0 1.95-.04 2.94-.12 2.3-.19 4.76-.61 7.32-1.25l.28-.07.2-.21c3.47-3.62 20.9-23.29 23.25-54.88.56-7.35.23-14.94-.96-22.56z" fill="#ff6687"/>
    <path transform="translate(14.337 1.898)" d="m641.06 530.66.96 20.06s-23.27-20.71-64.32-34.83c-41.06-14.11-60.42-8.75-60.42-8.75l-4.87-15.15-.1-.31c7.57.16 46.58 1.77 85.03 17.49 5.74 2.35 10.81 4.29 15.29 5.9z" fill="#fff6eb"/>
    <path d="M657.857 538.698c1.08-.39 1.98-.65 2.97-.92a64.352 64.352 0 0 1 8.74-1.78c1.95-.27 3.92-.44 5.88-.51 1.96-.1 3.93-.01 5.88.11.73.05 1.28.67 1.23 1.4-.04.64-.53 1.15-1.14 1.23l-.06.01c-1.83.24-3.64.51-5.43.95-1.79.41-3.55.92-5.27 1.51a60.227 60.227 0 0 0-7.54 3.13c-.78.39-1.63.84-2.28 1.23a3.526 3.526 0 0 1-4.84-1.18 3.526 3.526 0 0 1 1.8-5.14z"/>
    <path d="M660.807 542.918c.35.35.88.8 1.35 1.19l1.5 1.21c1.01.8 2.05 1.59 3.11 2.38 2.11 1.56 4.27 3.08 6.46 4.57.46.31.57.93.27 1.38-.25.37-.7.51-1.1.4-2.57-.74-5.13-1.52-7.69-2.37-1.28-.43-2.56-.87-3.84-1.34l-1.93-.74c-.66-.27-1.25-.5-2.01-.86l-.21-.1a3.566 3.566 0 0 1-1.66-4.77 3.566 3.566 0 0 1 4.77-1.66c.37.19.7.44.98.71zm-4.77-3.71c-.06-.06-8.83-9.82-45.69-24.89-41.65-17.03-84.59-17.25-85.02-17.25v-7c1.81 0 44.7.2 87.67 17.77 39.06 15.97 48.06 26.46 48.43 26.9z"/>
    <path d="M663.537 518.738c-.11-30.09 5.481-59.37-16.689-78-25.11-21.1-78.55-27.64-117.17-20.89-.83.15-1.72.33-2.65.53-.63-.02-1.23.12-1.76.4-2.42.58-5.04 1.29-7.58 2.02-.78-.03-1.53.2-2.15.63-5.85 1.74-10.81 3.41-11.18 3.53-.02.01-.04.03-.07.04l-.1.03c-.36.14-35.64 14.22-43.99 16.76-.08.02-.15.06-.23.09l-9.43 3.05-28.31-16.17-.39-.22c-.05-.03-.11-.06-.17-.09-.12-.06-.25-.12-.38-.17-.71-.26-1.51-.29-2.28-.04-.08.02-.16.05-.23.08-.82.33-1.44.94-1.81 1.67-.06.11-.11.22-.16.34-.13.35-.2.71-.22 1.08-.09 1.31-.98 14.87-.72 22-.2.42-.44.97-.73 1.64-2.56 6.15-7.89 22.67-1.93 42.81-.06.01-.13.04-.19.06-41.01 15.19-58.59 39.91-66.12 57.97-8.2 19.7-6.59 35.67-6.52 36.34.11 1.01.65 1.92 1.48 2.5.56.39 1.12.78 1.68 1.16-1.12 4.96-3.07 18.89 8.53 25 7.56 3.98 15.39 1.82 20.68-.74.01 8.44 3.04 18.81 14.29 22.32 5.55 1.74 10.56 1.41 14.91-.97 2.57-1.42 4.55-3.38 6.05-5.36 3.04 6.57 8.92 14.74 19.32 14.6 9.75-.13 15.38-6.59 18.18-12.71 5.21 5.05 13.71 9.2 24.43 4.55 5.18-2.25 8.7-5.68 10.47-10.2 1.05-2.7 1.31-5.42 1.2-7.84 5.08 2.07 12.3 3.55 19.88.36 6.44-2.71 9.87-8.74 11.69-14.44 3.46 5.13 8.87 9.57 16.82 9.97 8.23.42 14.22-3.57 18.32-8.07.82 5.82 3.21 12.28 9.18 16.65 8.51 6.23 18.68 2.68 25.38-1.09-.45 7.8 1.56 17.28 10.42 22.59 3.12 1.87 6.23 2.63 9.21 2.63 10.9 0 20.25-10.17 23.22-13.78 2.85-.25 5.89-.79 9.16-1.66.56-.15 1.07-.44 1.49-.83 1.41-1.32 33.42-32.18 24.53-84.66-.06-.39-.13-.78-.2-1.17.96-6.16 1.72-12.56 2.27-19.17.33-3.91.68-14.95.57-15.13zm-201.06-68.31v-.02c5.3-1.65 19.3-7.04 30.18-11.3-6.54 6.51-15.57 14.42-25.01 19.37-.01 0-.02-.01-.02-.01l-5.27 3.39c-1.86-3.92-4.09-7.14-5.96-9.47zm-18.62.75a55.24 55.24 0 0 0-6.5 6.73c-2.48-3.17-6.3-8.64-9.97-16.14zm-20.98-2.83c5.97 11.18 11.8 17.29 12.13 17.63.66.69 1.57 1.07 2.52 1.07.1 0 .2-.01.3-.01 1.05-.1 2-.66 2.59-1.53 3.29-4.84 7.02-8.26 9.34-10.14 2.14 2.44 5.58 6.96 7.69 12.87.35 1.01 1.15 1.8 2.17 2.14.36.13.74.19 1.12.19.67 0 1.33-.19 1.9-.56l8.3-5.35c17.64-9.26 33.22-27.3 36.61-31.38 1-.33 2.73-.9 4.87-1.57-7.75 23.4-26.93 33.47-27.22 33.62-.23.11-.43.25-.63.41h-.01c-17.82 11.09-32.08 12.06-34.76 12.14-18.53-6.13-25.63-19.75-26.92-22.55-.09-1.89-.06-4.38 0-6.98zm-11.52 61.52c4.58-3.09 7.72-4.75 7.81-4.79.56-.29 1.01-.72 1.33-1.22.5-.77.69-1.73.47-2.66a1.9 1.9 0 0 0-.11-.39c-5.41-15.4-3.11-28.93-.83-36.54.8 1.16 1.74 2.4 2.84 3.7 4.94 5.88 12.99 12.8 25.33 16.75.32.1.65.15.98.16.82.02 17.94.24 39.75-13.61 3.8-2.08 24.53-14.53 31.48-41.96.74-.22 1.49-.42 2.23-.62-1.57 11.18-3.35 27.97-3.75 31.86h-.02c-.93 10.08-1.74 31.86 6.72 46.52.65 1.13 1.26 2.28 1.83 3.45 8.05 16.5 7.67 35.54 7.08 43.38-23.35-4.27-39.21.13-54.56 4.4-16.58 4.61-32.23 8.96-57.17 2.68-17.52-4.42-27.31-9.9-32.79-14.56-2.43-2.06-4.01-3.95-5.03-5.52-1.03-1.57-1.5-2.81-1.71-3.55 8.13-12.7 20.25-22.19 28.12-27.48zm-50.27 108.21c-1.92 0-3.88-.39-5.76-1.38-5.77-3.04-5.98-10.02-5.44-14.49 7.44 4.95 14.45 9.27 21.06 13-2.55 1.4-6.13 2.87-9.86 2.87zm41.12 16.12c-.96 1.21-2.16 2.37-3.66 3.18-2.65 1.43-5.73 1.57-9.42.41-9.01-2.82-9.68-12.33-9.28-17.74 7.76 3.99 14.93 7.16 21.6 9.6.98.36 1.94.7 2.9 1.02-.48 1.04-1.19 2.32-2.14 3.53zm33.24 8.32c-1.96 1.83-4.62 3.17-8.21 3.22h-.14c-7.29 0-11.45-7.21-13.48-12.28 8.22 2.12 15.59 3.04 22.28 3.04 1.21 0 2.4-.03 3.56-.1-.79 1.98-2.05 4.29-4.01 6.12zm38.43-10.69c-1.08 2.76-3.28 4.83-6.73 6.33-7.94 3.45-13.6.04-16.83-3.19 9.18-1.99 16.96-5.76 24.09-10.1.32 2.01.4 4.56-.53 6.96zm31.6-18.71c-1.41 3.15-3.52 5.99-6.71 7.33-6.1 2.57-12.16.76-15.98-1.06 1.35-.92 2.68-1.86 4.01-2.78 6.92-4.82 13.65-9.51 21.11-12.72-.34 2.61-1.03 6.08-2.43 9.23zm24.86 2.32c-9.79-.5-13.5-9.97-14.68-14.22 5.81-1.5 12.17-1.99 19.41-.96 4.58.65 8.79 1.51 12.66 2.57-2.25 4.39-7.92 13.09-17.39 12.61zm31.29 9.93c-7.03-5.15-6.98-15.28-6.47-20.21 5.94 2.15 11.06 4.74 15.63 7.53 4.58 2.79 8.6 5.78 12.37 8.77-4.51 3.18-14.53 9.03-21.53 3.91zm35.26 21.13c-7.86-4.7-7.56-14.07-6.66-19.31 2.89 2.34 5.72 4.57 8.64 6.55 2.91 1.98 5.9 3.7 9.1 5.02a35.85 35.85 0 0 0 8.38 2.34c-4.78 4.46-12.45 9.6-19.46 5.4zm58.25-67.59c-2.32 31.22-19.54 50.68-22.97 54.26-2.55.64-4.93 1.04-7.16 1.22-3.71.3-7.02.02-10.1-.74-8.13-1.99-14.61-7.28-22.42-13.65-12.36-10.08-27.73-22.62-56.44-26.68-23.35-3.29-38.55 7.3-53.25 17.55-22.47 15.67-45.58 31.78-101.76 1.96-4.9-2.6-10.05-5.55-15.47-8.88-5.79-3.56-11.89-7.54-18.32-12-.15-4.27.03-16.95 6.25-31.7 6.86-16.26 18.5-29.76 34.75-40.31-4.21 4.34-8.27 9.31-11.67 14.85-.35.56-.52 1.22-.51 1.88.01.9.31 4.94 4.39 10.11 1.33 1.68 3.06 3.48 5.31 5.33 6.48 5.35 17.29 11.12 35.29 15.65 9.52 2.41 17.85 3.34 25.37 3.34 13.61 0 24.62-3.06 35.38-6.05 16.07-4.47 31.25-8.69 55.04-3.54.94.2 1.93.01 2.73-.54.79-.55 1.32-1.4 1.47-2.36.17-1.1 3.52-24.48-5.27-46.48 16.73-.5 73.09 1.26 117.14 43.22.42.4.85.81 1.27 1.23 1.25 7.99 1.47 15.45.95 22.33zm1.22-55.45c-.4 7.89-1.11 15.78-2.17 23.54-27.27-24.39-58.12-34.5-79.84-38.66-20.21-3.88-35.95-3.46-41.77-3.1-.3-.56-.61-1.12-.93-1.67-7.58-13.14-6.6-33.99-5.73-42.99.56-5.29 2.51-23.51 4.05-33.66.31-.06.62-.12.91-.17 36.55-6.39 87.971-.4 111.471 19.35 20 16.81 13.41 43.18 14.16 70.29 0 0 .09 2.93-.15 7.07z"/>
    <path d="M397.483 649.883c-2.4 3.7-6.4 5.7-11.5 5.7-1.9 0-4-.3-6.2-.8-25-6-59.3-43.6-63.6-64.5-1.9-9.4-.2-18 5-24.4 4.6-5.7 11.4-8.8 18.9-8.8 6.8 0 13.6 2.5 19.8 7.3 12.2 9.4 32.9 50.5 37.3 60.7 2.5 5.8 4.9 17.7.3 24.8z"/>
    <path d="M323.283 588.683c3.8 18.2 36.2 53.6 58.1 58.8 1.7.4 3.2.6 4.5.6 3.4 0 4.7-1.3 5.4-2.3 2.3-3.5 1.5-12.1-1-17.9-6.1-13.9-25.3-50.3-35.1-57.8-4.9-3.8-10.2-5.8-15.3-5.8-5.3 0-10 2.2-13.2 6.1-3.6 4.7-4.8 11.2-3.4 18.3z" fill="#fc0"/>
    <path d="M426.483 401.283c-.4 4.4-3.8 8.4-11.1 12.9-4.7 3-10.2 5.5-13.9 6.5-6.5 1.7-12.3 2.6-17.3 2.6-6.7 0-10.6-1.6-12.7-2.9-4.8-3-4.4-7.2-4.2-8.5.5-3.1 2.9-5.5 5.9-6.2 3.5-.8 13.5-5.8 23.6-12.6 4.2-2.9 10.7-4.8 16.1-4.8 5.8 0 9.1 2.2 10.8 4.1 2.1 2.4 3.1 5.5 2.8 8.9z"/>
    <path d="M374.583 413.183c0 .3.4.7.9.9 1.1.7 3.6 1.8 8.8 1.8 4.3 0 9.5-.8 15.4-2.3 5.2-1.4 19.1-8.8 19.5-13 .1-1.3-.2-2.4-.9-3.2-1-1.1-2.8-1.7-5.3-1.7-3.9 0-8.9 1.5-11.9 3.5-8.5 5.7-20.5 12.5-26.1 13.7-.3.1-.4.2-.4.3z" fill="#f80"/>
    <path d="M529.583 329.983c1.6 0 3.2 0 4.8.1 20.6.6 39.5 6.5 55.9 17 11.2 7.2 17.5 11.4 25.9 25.2 1.5 2.5 9 .8 7.9-1.1-10.1-17.6-17.5-22.3-29.8-30.3-17.7-11.4-37.8-17.6-59.7-18.2-1.6 0-3.3-.1-5-.1-1.6 0-3.3 0-4.9.1-24.3.6-47.8 6.6-67.8 17.1-20.2 10.6-37.1 26.1-48.9 44.7-7.7 12.3-10.3 23.9-7.4 33.5 2.4 7.8 7.9 12.7 12.3 14.6 1.4.6 2.9.9 4.7.9 9.3 0 34.7-9.3 45.7-24.8 8.4 4.5 17.6 6.7 28.1 6.7 12.6 0 25-3.2 36.4-6.9 3-1 3.8-2.2 3.9-4.1 0-1.3-1.2-3.6-3.8-3.5-.3 0-.7.1-1 .2-11.2 3.6-23.3 6.9-35.4 6.9-9.3 0-18.6-2-27.4-7.4-.6-.4-1.3-.5-1.9-.5-1.3 0-2.5.6-3.2 1.8l-.1.1c-7.9 14.3-33.3 24.1-41.2 24.1-.7 0-1.3-.1-1.7-.3-2.8-1.2-6.6-4.6-8.2-10-2.3-7.5 0-17 6.6-27.4 22.5-35.7 63.4-57.1 110.6-58.3 1.4-.1 3-.1 4.6-.1"/>
    <path d="M529.783 401.283c-1-.4-2-.7-3-.3-19.7 6.3-42.5 12-62.8-.5-1.7-1.1-4-.5-5.1 1.2l-.1.1c-8.6 15.7-38.3 26-43 23.9-2.8-1.2-6.6-4.6-8.2-10-2.3-7.5 0-17 6.6-27.4 22.5-35.7 63.4-57.1 110.6-58.3 3.1-.1 6.3-.1 9.5 0 20.6.6 39.5 6.5 55.9 17 13.2 8.5 19.7 12.7 30.6 33.6 5.6 10.5-84.4 23.5-91 20.7z" fill="#fc0"/>
    <path d="M714.583 358.983c-.5 1.7-1.2 3.4-2 5.2-5 10-17.7 23-38 29.1-4.5 1.4-9.3 2-14 2h-.1c-13 0-34.2-4.9-61.6-28.3-1.9-1.7-5.1-4.8-7.1-7-2.3-2.5-2.8-6.1-1.5-9.1 1.3-3 4.4-5.1 7.8-5.1h.5c13.9.8 30.1 1.2 48.4 1.2 8.1 0 14.8-.1 19.3-.1h4.5c7.4 0 13.3-.1 18.2-.1 8.1 0 13.7.1 17.1.2 2.9.1 5.6 1.5 7.3 3.9 1.5 2.3 2 5.2 1.2 8.1z"/>
    <path d="M603.583 361.283c25.7 21.9 45.1 26.5 56.8 26.5h.1c4 0 8-.6 11.9-1.7 18.1-5.4 29.2-16.6 33.5-25.3.8-1.5 1.2-2.8 1.5-3.9.4-1.3-.6-2.6-1.9-2.7-3.3-.1-8.9-.2-16.7-.2-5.4 0-11.6 0-18.2.1-3.3 0-12.2.2-23.9.2-13.9 0-31.7-.2-48.8-1.2h-.1c-.9 0-1.5 1.1-.8 1.8 2 2.2 5 5.1 6.6 6.4z" fill="#f80"/>
    <path d="m430.78 378.08c-4.1 0-7.4 3.3-7.4 7.4 0 9.9 14.8 9.9 14.8 0 0-4.1-3.3-7.4-7.4-7.4zm85.6-20.5c-4.1 0-7.4 3.3-7.4 7.4 0 9.9 14.8 9.9 14.8 0 0-4.1-3.3-7.4-7.4-7.4zm-45.3 19.7c-7.4 0.8-12.3 2.5-15.6 4.9-5.9 4.4-4.1 9.9 2.5 10.7s7.1 1.2 13.2-3.3c6.5-4.9 7.3-13.1-0.1-12.3z"/>
    <path d="M525.583 657.083c-4.6-5.2-3.7-15.7-1.9-29.4 2.6-19.8 5-34.5 25.4-50.8 24.4-19.5 62.2-15 76.2-.5 3.6 3.7 6.7 10.9 7.3 18.8.9 11.4-22.2 42.4-44.8 51.8-22.6 9.6-54 19.3-62.2 10.1z" fill="#fc0"/>
    <path d="M525.583 660.783c-1.2 0-2.3-.5-3-1.6-4.7-6.7-4.5-17.2-2.6-32 2.5-19 4.6-35.5 26.8-53.2 26.8-21.4 63.7-14 78.4.7 1.4 1.4 1.4 3.8 0 5.2-1.4 1.4-3.8 1.4-5.2 0-12.5-12.5-45.4-18.7-68.6-.1-18.9 15.1-21.4 28.2-24.1 48.4-1.4 11-2.3 21.8 1.3 26.7 1.2 1.7.8 4-.9 5.2-.6.5-1.4.7-2.1.7z"/>
    <path transform="translate(13.183 1.883)" d="M576.96 625.22c-.763 4.451-1.093 11.878 3.64 16.895 3.488-2 6.93-4.44 10.248-7.15a57.046 57.046 0 0 1-5.248-3.195c-2.92-1.98-5.75-4.21-8.64-6.55z" fill="#fff6eb"/>
    <path transform="translate(13.183 1.883)" d="M571.87 558.75c-12.887.138-26.545 3.987-38.27 13.35-7.939 6.329-13.277 12.505-17.012 18.697 2.002.08 4.059.252 6.191.553 28.71 4.06 44.082 16.6 56.442 26.68 6.108 4.981 11.413 9.277 17.32 11.876 13.422-12.8 23.458-29.025 22.86-36.605-.548-7.203-3.18-13.792-6.368-17.71.05-1.012-.286-2.043-1.033-2.79-8.269-8.269-23.562-14.228-40.13-14.051z" fill="#ff6687"/>
    <path transform="translate(13.183 1.883)" d="M513.012 597.771c-1.774 4.18-2.972 8.398-3.875 12.7 2.05 1.652 4.648 2.832 7.933 3 9.47.48 15.14-8.222 17.39-12.612-3.87-1.06-8.08-1.92-12.66-2.57a54.527 54.527 0 0 0-5.27-.494 49.915 49.915 0 0 0-3.518-.023z" fill="#fff6eb"/>
    <path transform="translate(13.183 1.883)" d="M541.89 603.19c-.51 4.93-.56 15.06 6.47 20.21 7 5.12 17.02-.73 21.53-3.91-3.77-2.99-7.79-5.98-12.37-8.77-4.57-2.79-9.69-5.38-15.63-7.53z" fill="#fff6eb" style="paint-order:stroke fill markers"/>
    <path transform="translate(13.183 1.883)" d="M516.582 590.807a55.398 55.398 0 0 0-3.576 6.98 50 50 0 0 1 3.521.027c1.764.08 3.522.245 5.27.495 4.58.65 8.79 1.51 12.66 2.57-2.25 4.39-7.919 13.091-17.389 12.611-3.29-.168-5.88-1.36-7.931-3.015-.518 2.468-.95 4.964-1.328 7.5 2.53 1.404 5.481 2.331 8.908 2.503 8.23.42 14.22-3.568 18.32-8.068.82 5.82 3.21 12.279 9.18 16.649 8.51 6.23 18.68 2.68 25.38-1.09-.324 5.633.65 12.134 4.546 17.316.147-.062.31-.123.457-.185 2.002-.833 4.008-1.843 6.002-2.987-4.72-5.017-4.409-12.426-3.645-16.873 2.89 2.34 5.72 4.569 8.64 6.549a56.977 56.977 0 0 0 5.247 3.178 99.64 99.64 0 0 0 5.668-5.031c-5.9-2.6-11.193-6.91-17.295-11.887-12.36-10.08-27.73-22.62-56.44-26.68a62.097 62.097 0 0 0-6.195-.562zm25.305 12.402c5.94 2.15 11.06 4.741 15.63 7.531 4.58 2.79 8.6 5.78 12.37 8.77-4.51 3.18-14.53 9.03-21.53 3.91-7.03-5.15-6.98-15.281-6.47-20.211z"/>
    <path d="M536.883 653.083c-.4 1.9-2 9.1-6.7 16.2-7 10.6-17.8 16.5-30.4 16.5-7.2 0-12.9-2.1-16.8-6.2-7.5-7.8-7.1-21-6.7-33.7v-.1c.2-6.4.4-13.1-.4-18.5-.7-4.4-1.8-9.1-3.1-14.5-2.4-10.2-4.6-20.1-4.3-28.7.4-10.7 4.7-18.9 12.8-24.4 3.5-2.4 7.4-3.5 11.4-3.5 9.3 0 18.9 6.2 28.7 18.6 7.1 8.9 13.1 20 15.4 28.1 6.4 21.8 4.9 34.9.1 50.2z"/>
    <path d="M490.183 672.683c2 2.1 5.2 3.1 9.6 3.1 22.6 0 27-23.7 27.2-24.7 0-.2.1-.4.1-.6 4.4-13.9 5.7-25.2 0-44.8-3.7-13.2-21.1-39.4-34.4-39.4-2 0-4 .6-5.8 1.9-11.7 7.8-9.3 21.8-4.4 42.4 1.2 5.1 2.5 10.4 3.2 15.3 1 6.4.8 13.5.5 20.4-.2 10.6-.6 21.6 4 26.4z" fill="#fc0"/>
    <path d="M491.183 415.183c-6.4 2.9-12.4 6.6-17.6 11.1-12.1 10.6-12.6 19.4-10.8 24.8 2.5 7.7 11.1 13.4 21.9 14.6 7.1.7 16.2-1.3 26.7-3.6 13.9-3.1 29.7-6.6 42.9-3.9 19.6 4.1 33.3 15 53.1 32.7l10.3 9.2c1.5 1.3 3.9 1.2 5.2-.4 1.3-1.5 1.2-3.9-.4-5.2l-2.9-2.6c-24-21.7-39.9-36-63.8-41-14.8-3.1-31.3.6-46 3.9-9.5 2.1-18.5 4.1-24.3 3.5-7.8-.8-14.1-4.6-15.7-9.5-1.5-4.7 1.6-10.7 8.7-17 20.7-18.2 59.1-23.7 87.5-12.5 4.7 1.9 7.4-5.1 2.7-6.9-11.4-4.4-24.6-6.6-37.7-6.2-10.1.4-30.5 4.8-39.8 9z"/>
    <path d="M628.583 452.883c11.7 12.2 17 60.3-6 41.6l-2.9-2.6c-24-21.7-39.9-36-63.8-41-14.8-3.1-31.3.6-46 3.9-9.5 2.1-18.5 4.1-24.3 3.5-7.8-.8-14.1-4.6-15.7-9.5-1.5-4.7 1.6-10.7 8.7-17 20.7-18.2 59.3-24 87.5-12.5 4.6 2 46.1 16.5 62.5 33.6z" fill="#fc0"/>
    <path transform="translate(13.183 1.883)" d="m577.78 427.68c-8.358 8.68-24.825 18.587-27.633 23.282 19.956 6.229 34.938 19.677 56.354 39.04l2.898 2.6c23 18.7 17.7-29.4 6-41.6-8.626-8.994-24.126-17.207-37.619-23.322z" fill="#ff6687"/>
    <path transform="translate(13.183 1.883)" d="M556.477 413.31s-.66 19-14.04 39.86c0 0-2.64 8.96 3.66 15.39 6.29 6.42 9.84 1.68 15.66 4.53 13.99 6.86 29.89-9.58 33-19.2 4.93-15.27 4.23-28.19-8.48-34.42-6.66-3.26-5.98-7.85-11.54-9.73-9.78-3.3-14.84.6-18.26 3.57z" fill="#ff6687" stroke="#000" stroke-linejoin="round" stroke-width="14" style="paint-order:stroke fill markers"/>
    <path d="M403.783 458.883c-5.2 5.1-11.7 8.1-17.8 8.1-8.1 0-14-5.1-15.6-13.3-1-5.4.9-11.3 5.4-16.7 5.8-6.9 14.9-12 21.7-12.1h.2c1.3 0 2.6.2 3.8.6h.2l.1.1c4.5 1.8 7.9 6.2 9.1 11.8 1.4 7.5-1.2 15.5-7.1 21.5z"/>
    <path d="M398.583 453.583c4.2-4.2 6-9.6 5-14.7-.6-3.1-2.3-5.5-4.6-6.4-.4-.1-.9-.2-1.3-.2h-.1c-4 0-11.3 3.6-16.1 9.4-1.8 2.1-4.6 6.3-3.8 10.6 1.1 6 5.1 7.3 8.3 7.3 4.1 0 8.8-2.2 12.6-6z" fill="#fc0"/>
</svg>
