<svg version="1.1" id="wapuugotchi_svg__item" viewBox="0 0 1e3 1e3" xmlns="http://www.w3.org/2000/svg">
	<g class="Face--group">
		<path d="m606.2 343.4c-1.8-5.2-4.8-8.6-9-10.6-11.4-5.2-30.2 2.3-64.3 16-5.2 2.1-10.8 4.4-16.9 6.7-3.9-7.8-12.1-13.2-21.4-13.2-11.9 0-21.8 8.7-23.7 20.1-0.8-0.5-1.6-0.9-2.4-1.3-5.9-2.6-12.9-3.2-20-1.7-7.7 1.7-14.1 5.7-18.1 10.7-4.4-5.6-11.2-9.1-18.8-9.1-13.2 0-24 10.7-24 24s10.7 24 24 24 24-10.7 24-24c0-2.6-0.4-5.1-1.2-7.5 2.5-4.9 8.4-9.3 15.7-10.8 5.5-1.2 11-0.8 15.4 1.2 2.7 1.2 4.8 3 6.1 5 2.9 10 12.1 17.3 23 17.3 13.2 0 24-10.7 24-24 0-1.3-0.1-2.5-0.3-3.7 6.2-2.5 12.1-4.8 17.4-6.9 30-12.1 49.9-20 58.5-16.1 2.3 1 3.9 3 5 6.3 0.7 1.9 2.8 2.9 4.7 2.3 2-0.6 3-2.7 2.3-4.7z" fill="#010101"/>
	</g>
</svg>
