<svg xmlns="http://www.w3.org/2000/svg" xml:space="preserve" id="wapuugotchi_svg__wapuu" x="0" y="0" version="1.1"
     viewBox="0 0 1000 1000">
<g class="Front--group">
      <path d="m661.3 452.7-.2-.3c-2.4-3.2-5.3-5.8-8.6-7.6l-.1-.1v-.2c.1-.5.3-1 .4-1.4.3-.9.6-1.8 1-2.7.4-1 .9-1.9 1.3-2.6-.6.7-1.1 1.5-1.7 2.4-.5.8-.9 1.6-1.4 2.6-.2.4-.4.8-.5 1.2l-.1.2-.2-.1-2.1-.9-.2-.1v-.2c.6-2.4 2.7-8.5 9.2-11.7l.2-.1.1.2c1.9 3.5 5.9 12.7 3 20.9l-.1.5zm-39.5-5.3-.2.1-.1-.2c-.2-.3-.5-.7-.7-1-.6-.7-1.2-1.5-1.9-2.2-.8-.8-1.5-1.4-2.2-2 .6.6 1.2 1.4 1.9 2.3.5.7 1 1.5 1.6 2.4.2.4.5.8.7 1.3l.1.1-.1.1c-2.9 2.5-5.1 5.7-6.7 9.3l-.2.3-.2-.3c-4.7-7.4-2.7-17.2-1.7-21.1l.1-.2h.2c7 1.7 10.4 7.1 11.5 9.4l.1.2-.1.1c-1 .6-1.5 1-2.1 1.4z"
            fill="#6a564f"/>
    <path fill="#fea495"
          d="M621.8 448.2s-3.6-5.7-7.4-7.6c0 0-2.8 6.1.6 15.8 0-.1 5.8-7.4 6.8-8.2zm29.6-3.3s2.2-6.3 5.5-9.1c0 0 4.1 5.3 2.9 15.5 0 0-7.3-5.8-8.4-6.4z"/>
    <path d="M542.3 476c1-1.8 1.9-3.6 2.9-5.4l1-1.9c.6-1.1 1.2-2.1 1.8-3.2 1-1.8 2.1-3.7 3.2-5.5l.7-1.2c1.5-2.4 3-4.9 4.6-7.2.4-.5.7-1 1-1.6.6-.9 1.1-1.7 1.7-2.6l2.9-4c4.2-5.5 8.6-10.5 13-14.9 1.9-1.9 3.9-3.7 6.2-5.6l.3.3c-1.4 2-2.6 4-3.7 6-3 5.4-5.3 11.3-6.7 17.4-1.4 5.8-2 12-1.7 18.5.2 5.2.9 10.6 2.2 16.1l.1.6-.5-.4c-2.9-2.5-10.9-8.2-21.2-7-2.5.3-5.1 1-7.6 2.1l-.5.2.3-.7z"
          fill="#877873"/>
    <path d="M571.8 465c.2-6.1 1-12.1 2.4-17.7.2-.5.3-1.1.5-1.6.2-.9.5-1.8.8-2.7.2-.5.4-1 .5-1.5.3-.9.6-1.8 1-2.7.2-.5.4-.9.6-1.4.4-.9.7-1.8 1.2-2.7l.3-.7c.5-1.1 1-2.2 1.7-3.3.3-.5.6-1.1.9-1.6l.4-.6.4.1c-.4 2.1-.6 4.3-.7 6.5-.3 5.7.2 11.7 1.6 18.4 1.3 6.1 3.3 12 5.8 17.4l.3.7c.5 1.1 1.1 2.3 1.8 3.4l1.1 2 .6 1 .6 1c.3.5.6.9.9 1.4.5.8 1.1 1.6 1.7 2.4l.4.5-.3.3c-3.1-2-8.3-4.1-15.7-3.3-2.5.3-5 .9-7.6 1.8l-.2.1v-.3c-.9-6.4-1.1-11.9-1-16.9z"
          fill="#877873"/>
    <path d="m594.4 478.3-.6-1-1.5-3c-.6-1.1-1.1-2.3-1.5-3.5l-.2-.6c-2.3-5.6-3.9-11.4-5-17.2-1.1-6-1.5-11.9-1.2-17.7v-.4h.4c.4 4.2 1.4 8.2 3.1 12 1 2.1 2.4 4.8 4.4 7.2 2.1 2.6 4.1 4.4 6.4 5.7l2 1 .4.1 1.5.6c1.1.5 2.3 1 3.5 1.7 1.2.7 2.3 1.4 3.1 2.2.5.4.9.9 1.3 1.3.2.2.4.4.6.7.1.1.1.2.2.3v.2c-.3 2-.4 3.8-.3 5.6v.1l-.1.1c-2.6 1-8.9 4-12.1 11.4l-.1.3-1.9-2.9c-.5-.8-1-1.6-1.4-2.5-.4-.7-.7-1.2-1-1.7z"
          fill="#877873"/>
    <path d="m625.7 447.8.1-.1c.2 0 .3-.1.4-.3 4.5-2.7 8.6-3.3 9.7-3.4l.5-.1c1.2-.1 5.3-.4 10.3 1.2.1.1.3.1.5.1h.2c5.4 1.9 9.8 5.5 13 10.7 7.8 12.7 6.3 22.7-4.5 31.3-7.8 6.2-12 9.2-13.5 10.2l-.1.1h-.1c-1.6-.6-6.3-2.5-15.4-6.9-12.5-6-16.1-15.4-11.4-29.6 2-5.6 5.4-10.1 10.3-13.2z"
          fill="#6a564f"/>
    <path fill="#59313e"
          d="M626.8 490.7c9.1 4.4 13.8 6.3 15.4 6.9h.1l.1-.1c1.4-1 5.7-3.9 13.5-10.2 7.6-6.1 10.6-12.8 9-20.7.1 6.3-3 11.9-9.4 17-.1.1-.2.1-.3.2-8.1 6.5-19.2 7.7-28.6 3.2-.1 0-.2-.1-.3-.1-7.4-3.5-11.6-8.3-12.9-14.5.3 8.1 4.7 14 13.4 18.3z"/>
    <path d="M666 461.2c0-.1.1-.2.1-.2l.3-.6.1-.2c.3-.5.6-1 1-1.5.7-.9 1.5-1.8 2.6-2.8.9-.8 1.8-1.6 3-2.5l1.2-.9.4-.2 1.8-1.4c1.9-1.7 3.5-3.9 5-6.9 1.4-2.7 2.2-5.7 2.7-7.9.8-4.1.9-8.2.4-12.4l.4-.1.1.4c1.6 5.6 2.5 11.5 2.7 17.6.3 5.9-.1 11.9-1 17.8l-.1.5c-.2 1.3-.4 2.6-.7 3.9l-.8 3.3-.3 1.1c-.2.5-.3 1.1-.5 1.6-.3.9-.5 1.8-.8 2.7l-1.2 3.3-.2-.3c-4.7-6.4-11.6-8-14.3-8.4h-.1v-.1c-.3-1.7-.8-3.6-1.5-5.4l-.3-.4z"
          fill="#877873"/>
    <path d="M685.3 470.1c.2-.5.4-1 .6-1.6l.4-1.1 1-3.3c.4-1.3.7-2.8 1-4.1l.1-.3c1.3-5.9 1.9-12 1.8-18.2-.2-6.8-1-12.8-2.5-18.3-.6-2.2-1.4-4.3-2.2-6.2l.3-.2.5.5c.4.4.8.9 1.2 1.4.9 1 1.8 2.1 2.6 3.2l.2.3c.7.8 1.2 1.6 1.8 2.4.3.4.5.8.8 1.2.6.8 1.1 1.6 1.5 2.4.3.5.6.9.9 1.4.5.8.9 1.6 1.4 2.4.3.5.5 1 .8 1.5 2.6 5.2 4.7 10.8 6.3 16.8 1.3 4.8 2.3 10.2 3.1 16.5v.3h-.3c-2.7-.3-5.4-.3-7.8-.1-7.4.8-12 4.1-14.6 6.7l-.3-.2.3-.5c.4-1.1.8-2 1.1-2.9z"
          fill="#877873"/>
    <path d="M706.2 449.6c-1.2-6.4-3.2-12.3-5.8-17.6-2.7-5.6-6.2-10.8-10.4-15.5-1.5-1.7-3.1-3.3-5-5.1l.2-.3c2.7 1.4 5.1 2.8 7.2 4.1 5.3 3.3 10.7 7.3 16 11.7l3.7 3.3c.8.7 1.5 1.4 2.2 2.1.5.5.9.9 1.4 1.3 2.1 1.9 4.1 4 6.1 6l1 1c1.4 1.5 2.8 3.1 4.2 4.6.8.9 1.7 1.9 2.5 2.8l.9 1.1c1.5 1.7 3 3.5 4.5 5.2l.4.4-.6-.1c-2.7-.5-5.3-.6-7.8-.3-10.3 1.2-16.8 8.5-19.1 11.6l-.4.5v-.6c.2-5.6-.3-11-1.2-16.2z"
          fill="#877873"/>
    <circle cx="626" cy="463.1" r="5.4"/>
    <circle cx="627.5" cy="460.8" r="1.8" fill="#fff"/>
    <path d="M638.9 471.2c.2 0 .4-.1.5-.1.4-.1.7-.5.6-.9-.1-.4-.5-.7-.9-.6-.1 0-2.5.5-3.1-1.2-.1-.4-.6-.6-1-.4-.4.1-.6.6-.4 1 .7 2.1 2.9 2.4 4.3 2.2z"/>
    <circle cx="650.6" cy="460.4" r="5.4"/>
    <circle cx="648.6" cy="458.4" r="1.8" fill="#fff"/>
    <path d="M541.3 477.7c.1 0 .2 0 .3-.1.1-.2.2-.3.3-.5h.1c15.5-7.2 27.8 3.6 29.7 5.3.1.3.1.6.2.9.1.2.3.4.6.3.2-.1.4-.3.3-.5 0-.2 0-.4-.1-.5 14.7-5.3 23.4 1.3 25.2 3l.7.9c.2.2.4.2.6.1.2-.1.2-.4.1-.6l-.2-.4c2.9-7.3 9.2-10.5 11.7-11.5.7 8.3 5.7 14.8 14.8 19.1 11.6 5.6 16.2 7.2 16.4 7.3.2.1.4.1.7.1.2 0 .4-.1.6-.2.2-.1 4.3-2.7 14.3-10.7 7.9-6.3 11.3-13.6 10.2-21.9 2.7.4 9.5 2.1 14 8.6l-.2.4c-.1.2 0 .5.2.5.2.1.5 0 .6-.2l.5-1c1.4-2 8.4-10.4 23.9-8.5 0 .2.1.4.1.5 0 .2.2.4.4.4.3 0 .5-.2.5-.4v-.9c1.4-2.1 11-15.4 27.7-11.8h.2c.1.1.2.3.3.4.1.1.2.1.3 0 .1-.1.1-.2.1-.3l-2.8-4.2c-.9-1.4-1.8-2.8-2.9-4.1l-3.1-4-1.5-2c-.5-.7-1.1-1.3-1.6-1.9-4.4-5.1-9.1-10-14.2-14.4s-10.5-8.6-16.2-12.2c-1.5-.9-2.9-1.8-4.4-2.6l-2.2-1.2-2.3-1.1c-3.1-1.5-6.2-2.8-9.6-3.8-.4-.1-.9-.1-1.3.2-.7.5-.8 1.4-.4 2.1l.1.1c3.2 4.1 5.6 8.8 6.8 13.9 1.3 5 1.4 10.3.4 15.4-.6 2.5-1.3 5-2.4 7.3-1.1 2.3-2.5 4.4-4.3 6.1l-1.4 1.1c-.6.4-1.1.8-1.7 1.2-1.1.8-2.2 1.7-3.3 2.7-1 1-2 2-2.9 3.2l-.6.9c-.4-.9-.9-1.7-1.4-2.6 5.9-12-2.7-25.9-3.1-26.5-.4-.6-1.2-.9-1.8-.6-8.4 3.4-11.1 10.6-12 13.9-5.6-1.5-10-1-10.3-1-.3 0-4.8.5-9.9 3.2-1.6-3-5.9-9.5-14.8-10.9-.7-.1-1.4.3-1.6 1-.2.7-5.5 16.2 2.9 26.6-.3 1-.6 1.9-.8 2.8-.3-.3-.5-.5-.8-.7-1.1-1-2.3-1.7-3.5-2.5-1.2-.7-2.5-1.3-3.8-1.9-.6-.3-1.3-.5-1.9-.8l-1.6-.8c-2.1-1.2-4-3-5.6-5-1.6-1.9-2.9-4.2-4-6.6-2.1-4.7-3.1-9.9-3-15.1.1-2.6.4-5.2 1-7.7s1.5-5 2.6-7.4v-.1c.3-.8-.1-1.6-.8-1.9-.4-.2-.9-.1-1.3.1-3.1 1.7-5.8 3.7-8.5 5.8l-2 1.6-1.9 1.7c-1.3 1.1-2.5 2.3-3.7 3.5-4.8 4.8-9.1 10-13.1 15.5s-7.5 11.2-10.6 17.2c-.4.7-.8 1.5-1.2 2.2l-1.1 2.3-2.1 4.6c-.7 1.5-1.3 3.1-1.9 4.7l-1.8 4.7s0 .2.1.2zm159.2-45.8c-2.7-5.6-6.2-10.9-10.4-15.5-1.6-1.8-3.2-3.5-5-5.1 2.4 1.3 4.9 2.6 7.2 4.1 5.6 3.5 10.9 7.4 16 11.7l3.7 3.3c1.3 1.1 2.4 2.3 3.6 3.4 2.5 2.2 4.7 4.6 7 7 2.3 2.4 4.5 4.9 6.8 7.4l5.4 6.3c-15.1-2.9-24.4 7.7-27.1 11.3 0-5.4-.4-10.8-1.5-16.2-1-6.1-2.9-12.1-5.7-17.7zm-16.4 41.5.3-.6c.6-1.4 1.1-2.8 1.7-4.3l.4-1.1.3-1.1.6-2.2c.5-1.5.8-3 1.1-4.5 1.3-6 1.9-12.1 1.8-18.3-.1-6.2-.9-12.3-2.5-18.3-.6-2.1-1.3-4.2-2.2-6.2.6.6 1.2 1.2 1.7 1.9 1 1.1 1.9 2.3 2.8 3.5 1 1.1 1.7 2.4 2.6 3.6.9 1.2 1.6 2.5 2.4 3.8.8 1.3 1.4 2.6 2.2 3.9 2.7 5.3 4.8 10.9 6.3 16.7 1.4 5.4 2.4 10.9 3.1 16.5-12.3-1.4-19.3 3.5-22.6 6.7zm-17.9-12c0-.1.1-.2.1-.3.1-.3.2-.5.4-.8.3-.5.6-1 1-1.5.7-1 1.6-1.9 2.5-2.8.9-.9 1.9-1.7 3-2.4.5-.4 1.1-.7 1.6-1.1l1.8-1.4c2.2-2 3.7-4.5 5-7 1.3-2.5 2.1-5.3 2.7-8 .8-4.1.9-8.3.4-12.4 0 .1.1.2.1.4 1.6 5.7 2.5 11.6 2.7 17.5.3 5.9-.1 11.9-1 17.8-.2 1.5-.5 3-.8 4.4l-.5 2.2-.2 1.1-.3 1.1c-.4 1.4-.8 2.9-1.3 4.3l-1.1 3c-4.8-6.5-11.8-8.1-14.4-8.5-.5-1.9-1-3.7-1.7-5.6zm-42.7-15.5c-.6.4-1.2.9-1.8 1.3-.3-.4-.5-.7-.8-1-.6-.8-1.2-1.5-1.9-2.2-1.4-1.4-2.9-2.7-4.6-3.5 1.6 1 2.9 2.5 4 4l1.5 2.4c.2.4.5.9.7 1.3-2.6 2.3-5 5.4-6.8 9.4-4.7-7.5-2.6-17.5-1.7-20.9 7 1.6 10.3 7 11.4 9.2zm37.7 6.4c-2.6-3.5-5.7-6-8.7-7.7.1-.5.3-.9.4-1.4.3-.9.6-1.8 1-2.6.7-1.7 1.7-3.4 3-4.8-1.5 1.2-2.7 2.7-3.7 4.4-.5.8-1 1.7-1.4 2.6-.2.4-.4.8-.5 1.2l-2.1-.9c.6-2.5 2.7-8.4 9-11.6 1.7 3.2 5.9 12.5 3 20.8zm-45.6 8.9c2.3-6.8 6.3-10.8 10.3-13.3.2-.1.3-.2.5-.3 4.9-2.9 9.5-3.4 9.9-3.4h.2c.3 0 4.9-.6 10.4 1.1.2.1.3.2.5.2 4.4 1.5 9.3 4.6 13 10.7 7.7 12.6 6.3 22.5-4.5 31.1-7.8 6.2-12 9.2-13.5 10.2-1.6-.6-6.4-2.6-15.4-6.9-12.5-6.1-16-15.4-11.4-29.4zm-18.8 20.9c-.8-1.3-1.5-2.6-2.2-3.9l-.6-1-1.5-3c-.7-1.3-1.2-2.7-1.8-4.1-2.2-5.5-3.9-11.3-5-17.1-1.1-5.8-1.5-11.8-1.2-17.7v-.4c.4 4.1 1.4 8.2 3.1 12 1.2 2.5 2.6 5 4.4 7.2 1.8 2.2 3.9 4.2 6.4 5.7l2 1c.6.2 1.2.5 1.8.7 1.2.5 2.4 1.1 3.5 1.7 1.1.6 2.2 1.3 3.1 2.1.5.4.9.8 1.3 1.3.2.2.4.4.5.7.1.1.1.2.2.3-.3 2-.4 3.9-.3 5.7-2.5.9-9 4-12.2 11.5l-1.5-2.7zm-24.1-.3c-.5-5.6-.8-11.2-.7-16.8.2-6 .9-11.9 2.4-17.7.4-1.4.8-2.9 1.2-4.3.5-1.4.9-2.8 1.5-4.2.6-1.4 1.1-2.8 1.7-4.1.6-1.3 1.2-2.7 2-4 .4-.8.8-1.5 1.3-2.2-.4 2.2-.6 4.4-.7 6.6-.3 6.2.4 12.4 1.6 18.4 1.3 6 3.2 11.9 5.8 17.4.7 1.4 1.3 2.8 2.1 4.1l1.1 2 .6 1 .6 1c.9 1.3 1.7 2.6 2.6 3.8l.4.5c-3.9-2.4-11.8-5.6-23.5-1.5zm-30.3-5.7c1.3-2.5 2.6-4.9 3.9-7.4 1.7-2.9 3.2-5.8 5-8.7 1.7-2.8 3.4-5.7 5.3-8.4.9-1.4 1.8-2.8 2.8-4.1l2.9-4c4-5.3 8.3-10.3 13-14.9 2-2 4-3.8 6.1-5.6-1.3 2-2.6 4-3.7 6.1-3 5.4-5.3 11.4-6.7 17.4-1.4 6.1-2 12.3-1.8 18.5.2 5.5 1 10.8 2.2 16.1-3.5-2.9-14.9-11.1-29-5z"/>
    <path d="M639.8 471.1h-.5c-.4 0-.7-.3-.7-.8 0-.4.3-.7.8-.7.1 0 2.5 0 2.8-1.9.1-.4.4-.7.8-.6.4.1.7.4.6.8-.4 2.3-2.4 3.1-3.8 3.2z"/>
    <path d="M552.6 662.5c1.1 1.3 2.2 2.3 3.4 3.1l1.4-1.3c-1.6-2.7-2.8-5.7-3.8-9.2-.7-2.6-1.2-5.3-1.6-8 .8 2.4 1.7 5.1 2.8 7.6.9 1.9 1.8 3.9 3 5.8.9 1.7 2.2 3.4 3.7 5.2 2.7 3.2 6.1 5.8 10 7.4.4.2.8.3 1.2.4l1-1.7c-.6-.5-1.3-1-1.9-1.6-1-.9-1.9-1.8-2.6-2.6 1.1.7 2.2 1.4 3.1 1.9 2.3 1.3 4.7 2.5 7.6 3.8 1.5.6 2.9 1.2 4.2 1.7h.1v.3h.8c3.3 1.2 6.8 2.3 10.8 3.4 10 2.7 20 4.1 29.5 4.1 1.4 0 2.8 0 4.1-.1 10.5-.5 21.4-2.4 33.4-5.9 1.7-.5 3.2-1 4.6-1.4.7-.2 1.4-.5 2.1-.7 6.6-2.2 13.1-4.9 19.3-7.8-2.8 1.8-5.8 3.6-9.4 5.5l-.2.1c-.6.3-1.3.7-1.9 1l.4 1.9c.9 0 1.7 0 2.5-.1 3.9-.2 7.6-.8 11-1.9 1.4-.5 2.8-1.1 4-1.8l.1-.1.1-.1c.1-.1.3-.2.5-.3h.1l.1-.1h.2l.1-.1c1.6-.9 3.1-2 4.4-3.2 2-1.8 3.7-3.9 5.1-5.9-.2.7-.4 1.3-.7 1.9-.4.9-.8 1.9-1.4 2.9l1.4 1.3c4.7-3.2 11.2-10.1 15.3-25.4 6.1-22.6-5.2-58.6-18.7-72.3-2.8-2.8-5.4-4.5-7.9-5l-1.9-.4.8 1.8c.7 1.6 1.3 3.3 1.9 5 .9 3 1.6 6.1 2 9.1-.1-.3-.2-.7-.3-1.1-.8-2.4-1.7-4.8-2.9-7.6-1-2.2-2.1-4.3-3.3-6.4l-.4-.7c-.4-.7-.9-1.3-1.3-1.9-1.2-1.6-2.4-3-3.6-4.3-2-2-4.2-3.4-6.1-4.6l-1.7-.8c-.3-.2-.7-.3-1-.4-.2-.1-.4-.1-.6-.2-.5-.2-1.1-.4-1.6-.5l-.6-.1c-.2-.1-.4-.1-.7-.1l-.9-.1c-.5 0-1-.1-1.4-.1-3.4 0-7.1 1.1-11 3.2.3-.4.7-.8 1-1.3.5-.5 1-1 1.5-1.4.4-.3.8-.6 1.5-1.1l1.1-.7-1-.9c-1.3-1.2-2.5-2-3.7-2.7-2.1-1.1-3.7-1.9-5.3-2.4-3.6-1.1-7.4-1.7-11.3-1.7h-.4c-2.6 0-5.4.3-8.9.8-1 .1-1.9.3-2.9.5l-.4.1c-2.8.5-5.7 1.1-9.1 2 1.2-.7 2.4-1.4 3.7-1.9l2.9-1.3-3.2-.6c-2.5-.4-5.2-.7-8-.7-10.7 0-22 3.2-33.7 9.6-22.5 12.3-38.3 38.4-41.3 68.2-1.7 16 2.9 34 10.8 43zm122.8-6.2c-8.1 7.3-23.3 16.1-49.8 16.1-5.9 0-12.1-.4-18.6-1.3-18.4-2.4-31.9-12.9-39-30.5-3.4-8.3-4.7-16.3-5.1-21.5l-.1-1.8-1.6 1.2-.1.1h-.2c-.6.5-1.2 1-1.9 1.5.2-.8.6-1.5.9-2.3.6-1 1.1-1.9 1.7-2.7.3-.4.7-.8 1.1-1.2l.6-.6c.1-.1.6-.5.6-.5.3-.3.6-.5.9-.7l.4-.3c.4-.2.8-.5 1.1-.7l.3-.2c2.1-1.2 4.3-1.8 6.4-1.9h.6c2.1 0 3.9.5 5.4 1.4-.6 0-1.2.1-1.7.1l-1.2.1.4 1.2c1.5 4.8 8.5 20.8 37.6 26.1 7.7 1.4 15.1 2.1 21.8 2.1 28.7 0 39.4-12.7 41.3-15.3l.5-.7-.6-.6-1.3-1.3c1.9.4 3.9 1.3 6.1 2.8 2.2 1.5 4.1 3.5 5.8 5.8l.3.4c.7 1 1.4 2 1.9 3.1l.2.5c.2.5.5.9.7 1.4l.2.6c.2.4.4.9.5 1.3l.4 1 .3 1.1c.2.6.3 1.2.4 1.8.2.8.3 1.6.4 2.4-.3-.4-.5-.9-.8-1.3l-.5-.8c-.4-.6-.7-1.1-1-1.6-.4-.6-.7-1.2-1.1-1.8l-1.1-1.5-.7 1.7c-1.9 4.3-5.5 11-12.4 17.3zm-44.2-42.2c.1-.6.5-1 1-1.2 31.7-11.3 41.3-33.9 41.4-34.1.2-.5.7-.9 1.3-.9h.1c.5 0 1 .3 1.3.8.4.6 9.3 16.3 5.4 29.2-1.7 5.5-5.5 9.7-11.3 12.5-4.5 2.1-9.3 3.2-14.2 3.2-13.2 0-23.8-7.7-24.3-8-.6-.4-.8-.9-.7-1.5zm-40-51.1c.2-.1.5-.2.8-.2.3 0 .6.1.9.3.5.4.7 1 .6 1.6 0 .2-4.9 19.6 9.3 40.3.3.4.3 1 .1 1.4-.2.5-.7.8-1.2.9 0 0-1.3.2-3.4.2-6.1 0-17.3-1.6-23-12.2-7.4-14 7.2-27.2 15.9-32.3z"
          fill="#fe8301"/>
    <path fill="#95b13c"
          d="M683.7 553.7c-1-.9-2.2-1.7-3.3-2.4l-.1-.1-2.1-1.1c-.3-.1-.6-.3-1-.4-.3-.1-.7-.2-1.1-.4-.5-.2-1.1-.3-1.8-.4l-.7-.1c-.3 0-.5-.1-.7-.1h-1.6c-1.2 0-2.4.2-3.6.5l-.8.2-.4-.7c-.1-.1-.1-.2-.2-.3-1.4-1.6-3.1-3.1-5-4.4-1.2-.8-2.6-1.5-4.1-2.1l-2.3-.9 2.3-.9c.8-.3 1.7-.6 2.9-.8l.6-.1c1.2-.3 2.6-.6 3.9-1.4.3-.2.7-.5 1.1-.8.3-.2.5-.6.8-1 .5-.7.8-1.3 1.1-2.1 1.3-2.8 2.1-5.6 2.8-8.5.6-2.1 1.1-4.4 1.7-7.1l.3-1.3 1.2.6 1.2.6c-.5-.6-1-1.1-1.6-1.6-1.4-1.3-2.9-2.4-4.3-3.4-2.8-1.9-5.9-3.6-9.5-5.2-6-2.8-12.4-5.4-20.1-8.3l-5.8-2.2-.4-.2c-.3-.1-.6-.3-.8-.5-.6-.5-1.1-1-1.5-1.6-.2-.3-.4-.5-.5-.8l-1-1.7 2 .2c.6.1 1.2.1 1.8.2 6.5.9 13.5 2.3 21 4.1 5.8 1.4 13.3 3.5 20.2 6.6 1.5.6 3 1.4 4.6 2.4 1.5.9 2.9 1.9 4 3l.2.2c.2.2.4.4.5.6 0 .1.1.1.1.2.1.2.3.4.4.7.4.7.7 1.4 1 2.2.5 1.4.9 3 1.2 4.9.4 2.9.5 6.2.3 10.4-.2 3.3-.5 6.6-.9 10l-.1 1.1c-.2 1.6-.4 3.3-.5 5.1-.1.9-.1 1.9-.1 2.9 0 .6.1 1.1.2 1.6l.3.9c.1.3.4.8.5.9.9 1.4 1.5 2.8 1.8 4.2l.5 3.3-2.3-2.5c-.7-.8-1.4-1.5-2.3-2.2z"/>
    <path d="m674 584.4 1-1.7.8 1.8c2.6 6.1 5.3 14.9 2.9 22.5-1.5 4.8-4.6 8.2-9.7 10.6-4 1.9-8.3 2.9-12.9 2.9-7.5 0-14-2.6-18.2-4.8l-1.9-1 2-.8c21.2-8.9 31.6-22.3 36-29.5z"/>
    <path d="m635.9 614.7 1.9 1c1.1.6 2.5 1.2 3.9 1.8 20.7-8.7 31.1-21.6 35.6-28.9-.5-1.5-1-2.8-1.6-4.1l-.8-1.8-1 1.7c-4.3 7.2-14.8 20.6-36 29.5l-2 .8z"
          fill="#d85e0b"/>
    <path d="m588.1 568.8 1.8-1.4-.2 2.2c-.5 6.5 0 19.4 8.2 33.2l.9 1.6-1.8-.1c-5.1-.2-14.3-1.8-19-10.6-5.6-10.3 3.9-20 10.1-24.9z"/>
    <path d="M578 593.8c1.7 3.1 3.9 5.4 6.4 6.9-1.1-1.1-2-2.5-2.8-4-5-9.3 2.1-18.1 8.1-23.3 0-1.4 0-2.7.1-3.8l.2-2.2-1.8 1.4c-6.3 4.9-15.8 14.6-10.2 25z"
          fill="#d85e0b"/>
    <path d="m584.4 646.7.3-.3h.4c3.3 0 13.2 7.1 15.1 10l.3.4-.2.5c-.6 1.5-2.9 4.6-5 7l-.5.6-.7-.3c-5.4-2.3-10.1-5.6-14-9.8l-.5-.5.3-.6c1.7-3.1 3.6-6 4.5-7zm82.7-2.5c-2.1 2.7-13.2 6.6-16.7 6.6h-.6l-.3-.5c-.5-.7-.9-1.9-1.3-2.8-.5-1.3-.9-2.7-1.3-4.2l-.3-1.1 1.1-.2c5.7-.8 10.9-2.1 15.6-4l.7-.3.5.7c1.4 2 2.4 3.9 2.7 4.9l.2.5-.3.4z"
          fill="#fe8301"/>
    <path d="M673.1 654.3c-11.2 10-27.2 15.1-47.6 15.1-5.7 0-11.9-.4-18.2-1.2-2.7-.4-5.3-.9-7.9-1.7l-1.5-.4 1-1.2c3.6-4.3 5.1-7.3 4.5-8.9-1.2-3.2-12.9-12.4-18.6-12.4-.3 0-.6 0-.9.1-1.4.4-3.3 2.6-5.6 6.8l-.8 1.4-.9-1.3c-2.3-3.2-4.3-6.9-6-10.8-4.4-10.8-5-21.1-5.1-24.1v-.5l1.2-.9h.1c.3-.2.6-.3.8-.5l.3-.2c1.3-.8 2.7-1.4 4.1-1.9l1-.4.3 1c1.5 5.3 8.9 22.9 40.1 28.5 8 1.4 15.6 2.2 22.6 2.2 2.2 0 4.4-.1 6.7-.2l.8-.1.2.8c1.6 6.4 3.4 9.9 5.2 10.3.3.1.6.1 1.1.1 5.1 0 18.5-4.6 20.2-9 .5-1.4-.4-3.9-2.7-7.4l-.2-.3v-.9l.5-.3c6.2-3.3 9.7-7.1 11.2-9l.7-.9.8.9c1.7 1.8 3.2 3.6 4.6 5.4l1.1 1.5-.1.5c-.7 2.5-3.8 11.7-13 19.9z"/>
    <path d="M648.6 654.6c.6.5 6.9.5 7.3.5 5.1 0 18.5-4.6 20.2-9 .5-1.4-.4-3.9-2.7-7.4l-.2-.3v-.9l.5-.3c4.6-2.5 7.7-5.2 9.6-7.2-.9-1-1.8-2.1-2.8-3.2l-.8-.9-.7 1.1c-1.5 1.9-4.9 5.7-11.2 9l-.5.3v.9l.2.3c2.3 3.5 3.3 6 2.7 7.4-1.4 3.6-15.5 8.6-21.6 9.7zm-35.1-13.9c-.2 0-.4-.1-.6-.1 2 .5 4.2 1 6.5 1.4 8 1.5 15.6 2.2 22.6 2.2h2.1c-.1-.2-.1-.5-.2-.8l-.2-.8-.8.1c-2.3.2-4.5.2-6.7.2-7.1 0-14.7-.8-22.7-2.2zm-10.1 15.2c.6 1.6-.9 4.6-4.5 8.9l-1 1.2 1.5.4c2.1.6 4.1 1.1 6.2 1.4-.1 0-.3-.1-.4-.1l-1.5-.4 1-1.2c3.6-4.3 5.1-7.3 4.5-9-1.2-3.2-16-14.2-23.8-14.7-.3 0 4.6 2.3 4.3 2.4 5.8 2.8 12.8 8.7 13.7 11.1zm-37.8-40.8v.5c.1 2.9.7 13.3 5.1 24.1 1.6 4 3.6 7.6 6 10.8l.9 1.3.8-1.4c.5-1 1-1.9 1.5-2.6-1.2-2.1-2.4-4.4-3.4-6.8-4.4-10.8-5.1-21.1-5.1-24.1v-.5l1.2-.9h.1c.3-.2.6-.3.9-.5l.3-.2c.1-.1.2-.1.4-.2-.4-1-.6-1.8-.8-2.4l-.3-1-1 .4c-1.4.5-2.7 1.1-4 1.9l-.3.2c-.3.2-.6.3-.8.5h-.1l-1.4.9z"
          fill="#d85e0b"/>
    <path d="M631.1 616.3c.6.4 11.3 8.2 24.9 8.2 4.6 0 9.6-.9 14.7-3.3 6.1-2.9 10-7.3 11.8-13.1 4.1-13.4-5.1-29.3-5.4-30-.5-.8-1.4-1.3-2.3-1.2-.9.1-1.8.7-2.1 1.5-.1.2-9.5 22.4-40.8 33.5-.9.3-1.5 1.1-1.6 2-.3 1 .1 1.9.8 2.4zm7.2-1.5c21.6-9 32.2-22.8 36.5-29.9 2.2 5.2 5.2 14.2 2.9 21.8-1.4 4.5-4.4 7.8-9.2 10-12 5.7-24 1.3-30.2-1.9zm-63.8-19.1c6 11.2 17.9 12.8 23.8 12.8 2 0 3.4-.2 3.6-.2.8-.1 1.6-.7 1.9-1.5.3-.8.3-1.7-.2-2.4-13.8-20-9.2-39.2-9.2-39.4.2-1-.1-2-.9-2.6-.8-.6-1.9-.7-2.8-.2-9 5.2-24 18.9-16.2 33.5zm14.2-26.1c-.5 7.2.2 20.1 8.3 33.8-5.2-.2-13.8-1.8-18.2-10.1-5.2-9.8 4-19 9.9-23.7z"/>
    <path d="M558.4 621.5c.2 0 .4 0 .5-.1 1-.6 1.8-1.3 2.6-1.9.1-.1.2-.2.3-.2.4 4.9 1.6 13.2 5.2 21.8 7.3 17.9 21.1 28.6 39.8 31.1 6.8.9 13 1.3 18.7 1.3 26.3 0 41.8-8.4 50.5-16.3 7.1-6.5 10.8-13.4 12.6-17.9.8 1.1 1.3 2.2 2.1 3.3.7 1.1 1.3 2.3 2.1 3.4.2.3.6.3.8.1.2-.1.3-.3.2-.5-.1-1.4-.3-2.8-.5-4.2-.1-.7-.3-1.4-.5-2l-.3-1-.4-1c-.2-.7-.5-1.3-.8-2-.3-.6-.6-1.3-.9-1.9-.6-1.3-1.4-2.4-2.2-3.6-1.7-2.3-3.7-4.4-6.1-6.1-2.4-1.6-5-2.9-8-3.1-.3 0-.6.2-.6.5 0 .2.1.3.2.4l.1.1c.8.7 1.6 1.5 2.3 2.2-2.2 3-17.3 20.9-62.1 12.8-28.6-5.2-35.4-20.7-36.8-25.4.6 0 1.2-.1 1.8-.1h.2c.5 0 .9-.4.9-.9 0-.3-.2-.6-.4-.7-2.1-1.4-4.5-1.9-6.9-1.8-2.4.1-4.8.9-6.9 2.1l-1.5.9c-.4.4-.9.7-1.4 1.1-.2.2-.4.4-.7.6l-.6.6c-.4.4-.8.9-1.1 1.3-.7.9-1.3 1.9-1.8 2.9-.4 1-.9 2.1-1.2 3.2.1.5.4.9.8 1zm107.9 22.1c-1.8 2.3-12.5 6.2-15.9 6.2-.3-.5-.7-1.4-1.2-2.6s-.9-2.6-1.3-4.1c6.3-.8 11.6-2.3 15.8-4.1 1.3 1.9 2.4 3.7 2.6 4.6zM581 654.1c1.5-2.9 3.3-5.8 4.2-6.6 2.8 0 12.4 6.8 14.3 9.5-.5 1.2-2.5 4-4.8 6.7-5.3-2.2-9.9-5.4-13.7-9.6zm-14.4-38.5c.2-.2.5-.4.8-.5.4-.2.8-.5 1.2-.7 1.2-.7 2.5-1.4 3.9-1.8 1.6 5.4 9.1 23.5 40.9 29.2 8.6 1.6 16.1 2.2 22.8 2.2 2.4 0 4.6-.1 6.8-.2 2.6 10.2 5 10.8 5.9 11.1.3.1.8.1 1.3.1 5.4 0 19.2-4.7 21.1-9.7.3-.7 1-2.6-2.8-8.3 6.3-3.4 9.8-7.2 11.5-9.3 1.6 1.7 3.1 3.5 4.5 5.3l.8 1.1c-.7 2.6-3.7 11.5-12.7 19.5-14.1 12.6-36.6 17.3-65 13.6-2.7-.4-5.3-.9-7.8-1.6 5.8-7 5-9.1 4.7-9.9-1.5-3.9-15-14.3-20.6-13-.7.2-2.6.6-6.2 7.3-2.2-3.1-4.2-6.7-5.8-10.6-4.6-10.8-5.2-21.1-5.3-23.8z"/>
    <path d="M549.6 665.1c3.7 4.2 8 6.5 12.5 6.7 2.2 2.1 4.8 3.9 7.7 5.1 2.2 1 4.6 1.6 7 2 1.2.2 2.4.2 3.7.2.6 0 1.2 0 1.9-.1.4 0 .8-.1 1.2-.2 3.5 1.6 7.2 2.9 11 3.9 5.7 1.5 11.5 2.3 17.3 2.9 5.8.6 11.7.9 17.5.7 11.7-.4 23.4-2.5 34.4-6.4 1.5-.5 2.9-1 4.3-1.6 2.1.6 4 .9 6 1.2 2.1.2 4.2.3 6.2.2 2.1-.1 4.2-.3 6.3-.8 2.1-.4 4.1-1 6.1-1.9 1.5-.6 2.9-1.4 4.2-2.2 3.6-.2 19.6-2.8 27.3-31.4 6.4-23.8-5.5-61.7-19.7-76.1-5.5-5.6-10.2-6.6-13.6-6.3-.1-.1-.1-.2-.2-.4 0-.1.1-.1.1-.2.1-.3.2-.6.3-.8.2-.5.3-1.1.4-1.7.2-1.1.2-2.2.1-3.4-.3-2.2-1.1-4.3-2.3-6.1 0-.1-.1-.1-.1-.1v-.2c0-.2-.1-.6-.1-.9 0-.7 0-1.6.1-2.4.1-1.7.4-3.5.6-5.3.5-3.6 1-7.2 1.2-10.9.3-3.7.4-7.5-.1-11.4-.3-1.9-.7-3.9-1.4-5.9-.3-1-.8-2-1.3-2.9-.2-.5-.6-1-1-1.4-.3-.5-.7-.9-1.1-1.3-3.1-3.1-6.6-4.8-10-6.4-6.9-3.1-14-5.1-21.1-6.9-7.1-1.7-14.3-3.1-21.6-4-.9-.1-1.9-.2-2.8-.3h-2.2c-.3 0-.7.1-1 .2-.7.3-1.3.6-1.8 1.3-.1.2-.2.3-.3.5-.1.1-.2.3-.2.5l-.3.9c-.1.5-.1 1.1-.1 1.4 0 .2 0 .4.1.6l.1.5c.1.4.2.7.3 1 .4 1.2 1.1 2.2 1.8 3.1.7.9 1.5 1.7 2.5 2.4.5.4 1 .7 1.6 1 .3.1.6.3.9.4l.7.2 5.1 1.8c6.8 2.4 13.5 5 20 7.8l9.8 4.2 2.1.9c-.6 2.5-1.3 5.1-2.1 7.6-.9 2.7-1.8 5.5-2.9 7.9-.3.6-.6 1.1-.9 1.5-.2.2-.2.3-.4.4-.1.1-.3.2-.5.4-.7.4-2 .7-3.4 1-1.4.3-3.2.6-4.9 1.4-1.1.5-2.1 1.3-2.9 2.2-3.1-.6-6.3-.7-9.4-.5-3.3.2-6.6.8-9.7 1.6-3.4-1.5-22.5-8.5-51.5 7.4-23.6 12.9-40.2 40.2-43.3 71.3-1.8 17.3 3.1 36.3 11.8 46.1zm137.1-109.9c-.7-.8-1.5-1.6-2.3-2.2-1.1-1-2.4-1.8-3.7-2.7l-2.1-1c-.3-.2-.7-.3-1.1-.4-.4-.1-.8-.3-1.1-.4-.7-.3-1.5-.4-2.3-.5-.4-.1-.8-.1-1.2-.2h-1.2c-1.5 0-2.9.1-4.3.5-.1-.2-.2-.3-.3-.5-1.5-1.7-3.3-3.3-5.2-4.6-1.4-.9-2.8-1.6-4.3-2.2.8-.3 1.7-.5 2.8-.8 1.4-.3 3.1-.6 4.8-1.6l1.2-.9c.4-.3.7-.8 1-1.1.5-.8.9-1.5 1.2-2.2 1.3-2.9 2.1-5.8 2.9-8.7.6-2.4 1.2-4.7 1.7-7.1 1.3.6 2.5 1.4 3.7 2.3.2.1.4.1.5-.1.1-.1.1-.2 0-.4-.8-1.8-2.2-3.2-3.5-4.5-1.4-1.2-2.9-2.4-4.4-3.4-3.1-2.1-6.3-3.8-9.7-5.3-6.7-3-13.4-5.8-20.2-8.4l-5.1-1.9-.6-.2-.4-.2c-.2-.1-.5-.2-.7-.5-.5-.4-.9-.8-1.3-1.4-.2-.2-.3-.5-.5-.7.6.1 1.2.1 1.8.2 7 1 14 2.4 20.9 4.1 6.9 1.7 13.8 3.7 20.1 6.5 1.6.7 3.1 1.5 4.5 2.3 1.4.8 2.7 1.8 3.7 2.8l.7.7c.2.3.4.4.5.8.4.6.7 1.3.9 2 .5 1.4.9 3 1.1 4.6.5 3.3.5 6.8.3 10.2-.2 3.5-.6 7-1 10.6-.2 1.8-.4 3.6-.5 5.5-.1 1-.1 1.9-.1 3 0 .5.1 1.1.2 1.8.1.3.2.7.3 1.1.2.5.5 1 .6 1.1.9 1.4 1.5 2.7 1.7 4zm-144 64.3c2.9-29.4 18.6-55.3 40.7-67.4 18.9-10.4 33.4-10.2 41.1-8.8-2.3 1-4.5 2.3-6.6 3.7-.2.2-.3.5-.1.7.1.2.3.2.5.2 4-1.1 8-2.1 12-2.8.1 0 .2 0 .4-.1.9-.2 1.9-.3 2.8-.5 2.9-.4 5.9-.7 8.8-.8 4 0 7.8.5 11.4 1.6 1.8.6 3.5 1.4 5.1 2.3 1.2.8 2.4 1.7 3.5 2.6-.5.4-1.1.7-1.5 1.1-.6.5-1.1 1-1.6 1.5-1 1.1-1.9 2.2-2.5 3.6-.1.2 0 .4.2.5h.3c4.7-2.8 9.5-4.7 14.1-4.2l.9.1c.3 0 .6.1.8.2.6.1 1.1.2 1.7.5.5.2 1.1.3 1.6.6l1.6.8c2.1 1.2 4.1 2.6 5.9 4.4 1.3 1.3 2.4 2.7 3.5 4.2l1.2 1.8c.1.2.3.5.4.7 1.2 2 2.3 4.1 3.3 6.2 1.1 2.4 2 4.9 2.9 7.5.8 2.5 1.6 5.1 2.2 7.8.1.2.2.3.4.3s.3-.2.3-.3c-.1-5.5-1.1-11-2.7-16.4-.6-1.7-1.2-3.4-1.9-5 2.8.6 5.5 2.8 7.4 4.7 13.3 13.5 24.4 49 18.4 71.3-3.9 14.6-10 21.5-14.9 24.8.6-1 1.1-2 1.5-3 .8-1.9 1.3-3.9 1.5-5.9 0-.2-.1-.3-.3-.3-.1 0-.2 0-.3.1-2 3.4-4.2 6.6-6.9 9-1.4 1.2-2.8 2.3-4.3 3.2-.4.1-.7.3-1 .5-1.2.7-2.6 1.2-3.9 1.7-3.4 1.1-7 1.7-10.7 1.9-.8 0-1.6.1-2.5.1.7-.4 1.4-.7 2.1-1.1 5.1-2.7 10.1-5.7 14.7-9.3.2-.2.2-.5.1-.7-.2-.2-.4-.2-.6-.1-8 4.2-16.4 7.7-24.9 10.6-.7.2-1.4.5-2.1.7-1.5.5-3 1-4.5 1.4-10.8 3.2-21.9 5.3-33.1 5.8-11.2.5-22.6-1-33.3-3.9-3.7-1-7.3-2.1-10.9-3.4h-.1c-.2-.1-.4-.2-.6-.2-1.4-.5-2.8-1.1-4.2-1.7-2.5-1.1-5.1-2.3-7.5-3.7-2.4-1.4-4.8-2.9-6.9-4.8-.1-.1-.2-.1-.3 0-.1.1-.1.2 0 .2.7 1.3 1.6 2.5 2.5 3.7 1 1.1 2 2.2 3.1 3.2.6.6 1.3 1.1 2 1.7-.4-.1-.8-.3-1.1-.4-3.7-1.6-6.9-4-9.6-7.1-1.3-1.6-2.6-3.2-3.6-5.1-1.1-1.8-2-3.7-2.9-5.7-1.7-4-3-8.1-4.2-12.4-.1-.2-.3-.4-.5-.3-.2.1-.3.2-.3.4.1 4.5.7 9 2 13.4.9 3.2 2.2 6.4 3.9 9.4-1.1-.8-2.2-1.7-3.2-2.9-7.8-8.8-12.3-26.6-10.7-42.4z"/>
    <path d="M652.8 562.2c-1.7 2.6-3.5 5.1-5.2 7.6-.8 1.3-1.7 2.5-2.6 3.7l-1.3 1.8c-.4.6-.8 1.3-1.3 1.9-1.7 2.5-3.4 5-5 7.5-1.7 2.5-3.3 5.1-5.3 7.6l-.1.1c-.2.2-.5.3-.7.1-.2-.1-.2-.4-.2-.6 1.2-2.9 2.5-5.7 4-8.4 1.4-2.7 3.1-5.4 4.8-8 1.7-2.6 3.6-5 5.6-7.4 2-2.4 4.1-4.6 6.5-6.7.2-.2.5-.2.7 0 .1.2.2.4 0 .6l.1.2zm47.6 71.8c-.2-3.1-.3-6.2-.4-9.2-.1-1.5-.1-3-.2-4.5l-.1-2.2c0-.7-.1-1.5-.1-2.2-.1-3-.3-6-.5-9-.1-3-.4-6.1-.4-9.2v-.1c0-.3.2-.5.5-.5.2 0 .4.2.5.4.7 3 1.4 6 1.9 9.1.5 3.1.8 6.2 1 9.3.2 3.1.1 6.2 0 9.3-.2 3.1-.5 6.2-1.1 9.3-.1.3-.3.4-.6.4-.2 0-.4-.2-.4-.4l-.1-.5z"/>
    </g>
</svg>