<?xml version="1.0" encoding="utf-8"?>
<!-- Generator: Adobe Illustrator 25.2.0, SVG Export Plug-In . SVG Version: 6.00 Build 0)  -->
<svg version="1.1" id="Layer_1" xmlns="http://www.w3.org/2000/svg" xmlns:xlink="http://www.w3.org/1999/xlink" x="0px" y="0px"
	 viewBox="0 0 1000 1000" style="enable-background:new 0 0 1000 1000;" xml:space="preserve">
<style type="text/css">
	.st0{fill-rule:evenodd;clip-rule:evenodd;fill-opacity:0.987;stroke:#000000;stroke-miterlimit:10;}
	.st1{fill-rule:evenodd;clip-rule:evenodd;fill:#FEFEFE;}
	.st2{fill-rule:evenodd;clip-rule:evenodd;fill:#CB9866;}
	.st3{fill-rule:evenodd;clip-rule:evenodd;fill:#8181BD;}
	.st4{fill-rule:evenodd;clip-rule:evenodd;fill:#B2B2D9;}
	.st5{fill-rule:evenodd;clip-rule:evenodd;fill:#4B4C8F;}
	.st6{fill-rule:evenodd;clip-rule:evenodd;fill:#E9E9E9;}
</style>
<g id="Feather--group" transform="matrix(0.15099275,0,0,0.15099275,9.2309483,-8.4400404)">
	<path id="Feather-2--gb" class="st0" d="M3738,2192.6c-111.1-17.3-165.2-21.9-267.6,20c23.8,12.5-29.3,76.8-27.9,84.8
		c1.4,7.8,339.4,47.6,611.3,56.8C3968.9,2266.7,3859.1,2211.5,3738,2192.6"/>
	<path id="Fether-2" class="st1" d="M3738.2,2301.4c112.5-4.1,225.9,31.2,316.2,98.4c-82.1-98.7-200.4-166.7-327-187.7
		c-116.1-19.4-238.1,1.2-342.1,56.2c24.9,14,41.8,40.3,41.8,70.8c0,14.6-4.2,28.1-10.9,40c112.3,14.8,218.8,70.6,294,155.4
		c-29.8-72-82.5-134.3-148.7-175.5c116.6-0.4,232.9,40.8,323.3,114.6C3846.4,2408.3,3796.5,2349.8,3738.2,2301.4"/>
	<path id="Feather-1--bg" d="M3649.8,1800.2c-3.7-11.9-15.8-19-27.9-16.8c-12.2,2.3-20.7,13.4-19.9,25.8c4.3,64-7.9,128.2-35,186
		c-9.9-40.1-24.2-78.8-42.8-115.9c-5.4-10.6-17.5-15.9-28.9-12.5c-11.4,3.4-18.7,14.4-17.4,26.3c6.9,61.4-1.9,125.4-24.3,183.5
		c-9.6-38.7-26.1-75.7-48.8-108.5c-6.8-9.7-19.5-13.2-30.3-8.3c-10.8,4.9-16.6,16.8-13.6,28.3c20.3,80.3,13.2,123.1,3.5,182.5
		l-2.6,15.6c-1.1,6.5,0.6,13.1,4.4,18.4c3.9,5.3,9.7,8.8,16.2,9.7c25.8,3.8,59.7,28.7,64.7,47.7c1.9,7.4,7.2,13.4,14.2,16.3
		c3,1.3,6.3,1.9,9.5,1.9c4.2,0,8.3-1.1,12.1-3.2l1.5-0.9c83.2-47.1,108.3-61.3,148.8-155.1
		C3676.5,2021.1,3682.4,1904.1,3649.8,1800.2z M3413.7,2172.3c0.4-2.3,0.8-4.5,1.1-6.8c0.9,3.2,2.3,6.3,4.4,8.9
		C3417.4,2173.7,3415.6,2173,3413.7,2172.3z"/>
	<path id="Feather-1" class="st2" d="M3626.4,1807.6c6.1,90.6-19.6,183-71.4,257.4c-7.4-60.7-25.3-120.1-52.7-174.7
		c10.5,93.5-12.3,190.4-63.6,269.3c1-62.8-18.2-125.9-54-177.5c25.5,91.3,15.6,192.1-27.3,276.6c32.5,4.7,58.6,28.4,66.8,59.6
		c82.3-46.6,149.2-120.1,186.6-206.9C3651.8,2016.3,3657.4,1906.4,3626.4,1807.6"/>
	<g id="Diamond--group">
		<path id="color--3" class="st3" d="M3427.2,2339c0,45-36.5,81.5-81.5,81.5c-45,0-81.5-36.5-81.5-81.5s36.5-81.5,81.5-81.5
			C3390.7,2257.5,3427.2,2294,3427.2,2339"/>
		<polygon id="color--2" class="st4" points="3309.3,2315.9 3348.3,2293.4 3387.2,2315.9 3387.2,2360.9 3348.3,2383.3 
			3309.3,2360.9 		"/>
		<path id="color--1-3" class="st5" d="M3348.3,2257.6v35.9l38.9,22.5l30.3-15.5C3404,2275.7,3378.2,2257.9,3348.3,2257.6"/>
		<path id="color--1-2" class="st5" d="M3387.2,2360.9l-38.9,22.5l3.9,37c30.3-2.3,55.2-19.8,67.1-46.3L3387.2,2360.9z"/>
		<path id="color--1-1" class="st5" d="M3277.9,2293.7c-9.2,13.2-13.8,29.6-13.8,46.9c0,14.9,4.4,28.9,11.9,40.9l33.3-20.6v-45
			L3277.9,2293.7z"/>
	</g>
	<path id="Feather-3" class="st6" d="M3727.4,2212c-116.1-19.4-238.1,1.2-342.1,56.2c24.9,14,41.8,40.3,41.8,70.8
		c0,5.5-0.6,11-1.6,16.3c192.9-176.9,489.6-72.8,628.9,44.5C3972.4,2301,3854.1,2233.1,3727.4,2212"/>
	<path id="Feather-4" class="st1" d="M3264.1,2339.2c-165.4,60.7-377.9,117-531,125.8c-18.9,17.3-36.9,35.5-53.9,54.5
		c4.5,0.1,9.1,0.2,13.9,0.2c121.4,0,303.2-35.4,492-96.3c31.8-10.2,64.7-21.6,97.3-33.6C3271.2,2376,3264.2,2358.5,3264.1,2339.2"/>
</g>
</svg>
