<svg version="1.1" viewBox="0 0 1e3 1e3" xmlns="http://www.w3.org/2000/svg">
	<g id="Head--group">
		<g transform="matrix(.15099 0 0 .15099 9.2309 -8.44)">
			<path d="m3738 2192.6c-111.1-17.3-165.2-21.9-267.6 20 23.8 12.5-29.3 76.8-27.9 84.8 1.4 7.8 339.4 47.6 611.3 56.8-84.9-87.5-194.7-142.7-315.8-161.6" fill="#fff"/>
			<path d="m3738.2 2301.4c112.5-4.1 225.9 31.2 316.2 98.4-82.1-98.7-200.4-166.7-327-187.7-116.1-19.4-238.1 1.2-342.1 56.2 24.9 14 41.8 40.3 41.8 70.8 0 14.6-4.2 28.1-10.9 40 112.3 14.8 218.8 70.6 294 155.4-29.8-72-82.5-134.3-148.7-175.5 116.6-0.4 232.9 40.8 323.3 114.6-38.4-65.3-88.3-123.8-146.6-172.2" fill="#FEFEFE"/>
			<path d="m3649.8 1800.2c-3.7-11.9-15.8-19-27.9-16.8-12.2 2.3-20.7 13.4-19.9 25.8 4.3 64-7.9 128.2-35 186-9.9-40.1-24.2-78.8-42.8-115.9-5.4-10.6-17.5-15.9-28.9-12.5s-18.7 14.4-17.4 26.3c6.9 61.4-1.9 125.4-24.3 183.5-9.6-38.7-26.1-75.7-48.8-108.5-6.8-9.7-19.5-13.2-30.3-8.3s-16.6 16.8-13.6 28.3c20.3 80.3 13.2 123.1 3.5 182.5l-2.6 15.6c-1.1 6.5 0.6 13.1 4.4 18.4 3.9 5.3 9.7 8.8 16.2 9.7 25.8 3.8 59.7 28.7 64.7 47.7 1.9 7.4 7.2 13.4 14.2 16.3 3 1.3 6.3 1.9 9.5 1.9 4.2 0 8.3-1.1 12.1-3.2l1.5-0.9c83.2-47.1 108.3-61.3 148.8-155.1 43.3-99.9 49.2-216.9 16.6-320.8zm-236.1 372.1c0.4-2.3 0.8-4.5 1.1-6.8 0.9 3.2 2.3 6.3 4.4 8.9-1.8-0.7-3.6-1.4-5.5-2.1z"/>
			<path d="m3626.4 1807.6c6.1 90.6-19.6 183-71.4 257.4-7.4-60.7-25.3-120.1-52.7-174.7 10.5 93.5-12.3 190.4-63.6 269.3 1-62.8-18.2-125.9-54-177.5 25.5 91.3 15.6 192.1-27.3 276.6 32.5 4.7 58.6 28.4 66.8 59.6 82.3-46.6 149.2-120.1 186.6-206.9 41-95.1 46.6-205 15.6-303.8" fill="#CB9866"/>
			<path d="m3427.2 2339c0 45-36.5 81.5-81.5 81.5s-81.5-36.5-81.5-81.5 36.5-81.5 81.5-81.5 81.5 36.5 81.5 81.5" fill="#8181BD"/>
			<polygon points="3309.3 2315.9 3348.3 2293.4 3387.2 2315.9 3387.2 2360.9 3348.3 2383.3 3309.3 2360.9" fill="#B2B2D9"/>
			<path d="m3348.3 2257.6v35.9l38.9 22.5 30.3-15.5c-13.5-24.8-39.3-42.6-69.2-42.9" fill="#4B4C8F"/>
			<path d="m3387.2 2360.9-38.9 22.5 3.9 37c30.3-2.3 55.2-19.8 67.1-46.3l-32.1-13.2z" fill="#4B4C8F"/>
			<path d="m3277.9 2293.7c-9.2 13.2-13.8 29.6-13.8 46.9 0 14.9 4.4 28.9 11.9 40.9l33.3-20.6v-45l-31.4-22.2z" fill="#4B4C8F"/>
			<path d="m3727.4 2212c-116.1-19.4-238.1 1.2-342.1 56.2 24.9 14 41.8 40.3 41.8 70.8 0 5.5-0.6 11-1.6 16.3 192.9-176.9 489.6-72.8 628.9 44.5-82-98.8-200.3-166.7-327-187.8" fill="#E9E9E9"/>
			<path d="m3264.1 2339.2c-165.4 60.7-377.9 117-531 125.8-18.9 17.3-36.9 35.5-53.9 54.5 4.5 0.1 9.1 0.2 13.9 0.2 121.4 0 303.2-35.4 492-96.3 31.8-10.2 64.7-21.6 97.3-33.6-11.2-13.8-18.2-31.3-18.3-50.6" fill="#FEFEFE"/>
		</g>
	</g>
</svg>