<svg xmlns="http://www.w3.org/2000/svg" xml:space="preserve" width="60" height="90">
    <path d="M210.888 57.97c-15.998-2.49-23.794-3.155-38.542 2.877 3.429 1.795-2.833 9.528-2.833 13.458 0 .713-2.547-3.49-2.695-2.814 66.083 8.69 50.4 8.418 89.564 9.745-12.232-12.601-28.045-20.553-45.494-23.266"
        style="stroke:#000;stroke-width:6.62283454;" transform="matrix(.151 0 0 .151 8.032 13.823)"/>
    <path d="M194.806 2.498c.88 13.045-2.817 26.355-10.293 37.084a76.942 76.942 0 0 0-7.591-25.165c1.517 13.464-1.778 27.426-9.159 38.792.141-9.053-2.62-18.13-7.778-25.57 3.366 13.306 1.795 20.026.196 29.967 4.676.68 11.034 4.963 12.22 9.456 11.853-6.708 14.76-8.293 20.158-20.8 5.912-13.701 6.722-29.532 2.247-43.764"
        style="stroke:#000;stroke-width:13.2457;stroke-linecap:round;stroke-linejoin:round;" transform="matrix(.151 0 0 .151 8.032 13.823)"/>
    <path fill="#cb9866" d="M37.446 14.2a8.843 8.843 0 0 1-1.554 5.6c-.16-1.32-.55-2.612-1.146-3.8a9.005 9.005 0 0 1-1.383 5.857 6.648 6.648 0 0 0-1.175-3.861 8.43 8.43 0 0 1-.593 6.016 1.765 1.765 0 0 1 1.453 1.296 9.59 9.59 0 0 0 4.059-4.5 9.587 9.587 0 0 0 .34-6.608"/>
    <path fill="#fefefe" d="M39.88 24.94c2.445-.089 4.913.68 6.877 2.14a11.88 11.88 0 0 0-7.112-4.082c-2.526-.422-5.18.026-7.442 1.222.54.303.91.875.91 1.54 0 .318-.09.612-.237.87 2.443.322 4.76 1.536 6.395 3.38a8.238 8.238 0 0 0-3.234-3.817 11.166 11.166 0 0 1 7.032 2.492 14.395 14.395 0 0 0-3.19-3.745"/>
    <path fill="#e9e9e9" d="M39.644 22.997c-2.525-.42-5.179.027-7.441 1.223a1.764 1.764 0 0 1 .874 1.893c4.195-3.848 10.649-1.582 13.68.968a11.88 11.88 0 0 0-7.113-4.084"/>
    <path fill="#fefefe" d="M29.567 25.764c-3.596 1.32-8.219 2.545-11.549 2.736-.41.375-.801.772-1.173 1.186.099.002.199.005.302.005 2.64 0 6.596-.771 10.702-2.094a53.88 53.88 0 0 0 2.115-.731 1.756 1.756 0 0 1-.397-1.102"/>
    <path fill="#8181bd" d="M33.113 25.76a1.773 1.773 0 1 1-3.546 0 1.773 1.773 0 0 1 3.546 0"/>
    <path fill="#b2b2d9" d="m30.55 25.257.847-.489.847.489v.977l-.847.49-.847-.49z"/>
    <path fill="#4b4c8f" d="M31.397 23.987v.781l.846.49.658-.34c-.291-.536-.853-.922-1.504-.93m.847 2.247-.847.489.085.804c.66-.051 1.2-.432 1.46-1.007zm-2.377-1.462c-.2.287-.3.643-.3 1.02 0 .323.097.628.258.889l.725-.447v-.978z"/>
</svg>