<svg version="1.1" id="wapuugotchi_svg__item" xmlns="http://www.w3.org/2000/svg" viewBox="0 0 1000 1000">
    <g class="Background--group">
        <g class="wapuugotchi-item-leaf__element_9">
            <path fill="#B2B70B" d="M567 630.5s25.9 43.9 66.1 37.7c48.4-7.5 43.7-25.3 84.6-29.4 0 0-36.8-55.1-84.8-53.1-55.7 2.3-65.9 44.8-65.9 44.8z"/>
            <path fill="none" stroke="#000" stroke-width="4" d="M567 630.5s25.9 43.9 66.1 37.7c48.4-7.5 43.7-25.3 84.6-29.4 0 0-36.8-55.1-84.8-53.1-55.7 2.3-65.9 44.8-65.9 44.8z"/>
            <path d="M545.9 633.8c6.6-2.4 13.1-4.4 19.8-6.2 6.6-1.8 13.3-3.3 20.1-4.7 13.5-2.7 27.1-4.4 40.9-5 6.9-.3 13.7-.2 20.6.2 6.9.4 13.7 1.2 20.4 2.4 6.8 1.2 13.4 2.9 19.9 5 6.5 2.2 12.8 4.9 18.9 8-6.2-2.9-12.5-5.4-19.1-7.4-6.6-1.9-13.2-3.4-19.9-4.3-6.7-.9-13.5-1.6-20.3-1.7-6.8-.2-13.6 0-20.4.4-13.5 1-27 3.1-40.2 6.1-6.6 1.5-13.2 3.2-19.7 5.2s-13 4.1-19.1 6.6h-.1c-1.3.5-2.7-.1-3.2-1.4-.5-1.2.1-2.6 1.4-3.2 0 .1 0 0 0 0z"/>
            <path d="M585.8 625c2 3.9 4.4 7.8 7 11.5 2.6 3.7 5.4 7.3 8.5 10.6 3.1 3.3 6.5 6.3 10.3 8.8 1.9 1.2 3.9 2.4 6 3.3 2.1.9 4.3 1.6 6.5 2.1-2.3-.3-4.5-.9-6.7-1.7-2.2-.8-4.2-1.8-6.3-2.9-4-2.3-7.7-5.2-11.1-8.3-3.4-3.1-6.5-6.6-9.4-10.2-2.9-3.6-5.6-7.4-8-11.5l3.2-1.7zM609.6 619.9c2.2 3.6 4.8 7.2 7.6 10.6 2.8 3.4 5.8 6.6 9 9.6s6.7 5.7 10.5 7.9c1.9 1.1 3.9 2.1 5.9 2.9 2.1.8 4.2 1.5 6.3 2-2.2-.3-4.4-.8-6.5-1.5-2.1-.7-4.2-1.6-6.2-2.6-4-2-7.8-4.5-11.3-7.3-3.5-2.8-6.8-5.9-9.9-9.2-3.1-3.3-6-6.7-8.6-10.5l3.2-1.9zM639.4 619.1c.6 1.5 1.5 3.1 2.4 4.5l1.5 2.1.8 1 .9 1c2.3 2.7 5 5 7.8 7.1 1.5 1 2.9 2 4.5 2.9.8.4 1.5.9 2.3 1.3l2.4 1.2c.8.4 1.6.7 2.5 1l2.5 1c1.7.6 3.4 1.1 5.1 1.6-1.7-.4-3.5-.8-5.2-1.3l-2.6-.8c-.9-.3-1.7-.6-2.5-.9l-2.5-1c-.8-.3-1.6-.8-2.4-1.2-1.7-.8-3.2-1.7-4.8-2.6-3-2-5.9-4.2-8.5-6.9l-1-1-.9-1c-.6-.7-1.2-1.4-1.7-2.2-1.1-1.5-2.1-3-3-4.8l2.4-1zM671.6 621.4c.9 2 2.3 4 3.7 5.8 1.4 1.8 3.1 3.5 4.8 5 1.7 1.5 3.6 3 5.5 4.3.9.7 2 1.2 2.9 1.9 1 .6 2 1.1 3.1 1.7-1-.5-2.1-1-3.1-1.6-1-.6-2.1-1.1-3-1.8-2-1.2-3.9-2.6-5.7-4.1-1.8-1.5-3.5-3.1-5.1-4.9-1.6-1.8-3-3.7-4.1-5.9l1-.4zM588.8 623.2c.5-1.9 1-3.6 1.7-5.3.3-.9.7-1.7 1.1-2.5l1.2-2.5c1.7-3.2 3.7-6.3 6.1-9 1.1-1.4 2.5-2.7 3.8-3.9l2.1-1.7c.4-.3.7-.6 1.1-.8l1.1-.8c2.9-2.1 6.2-3.6 9.5-4.9-3.2 1.6-6.3 3.3-8.9 5.7l-1 .8c-.3.3-.6.6-1 .9l-1.9 1.8c-1.1 1.3-2.3 2.6-3.3 4.1-2 2.8-3.7 5.9-5 9.1l-.9 2.4c-.3.8-.6 1.6-.8 2.5-.5 1.6-.9 3.4-1.1 4.9l-3.8-.8zM614.5 619.1c.6-1.8 1.3-3.3 2.1-4.9.8-1.5 1.7-3 2.6-4.5 1.9-2.9 4.1-5.5 6.6-7.8s5.2-4.5 8.1-6.2c1.4-.9 3-1.6 4.4-2.4.7-.4 1.5-.7 2.3-1l2.3-.9-2.2 1.1c-.7.4-1.5.7-2.2 1.2-1.4.9-2.8 1.7-4.1 2.8-2.7 1.9-5.1 4.2-7.3 6.7-2.2 2.4-4 5.2-5.6 8-.8 1.4-1.5 2.9-2.1 4.4-.6 1.5-1.1 3.1-1.5 4.5l-3.4-1zM647.8 618.6c1.4-2.2 2.9-4.1 4.6-6 1.7-1.9 3.5-3.6 5.5-5.1 2-1.5 4.1-2.8 6.4-3.9 2.3-1 4.7-1.7 7.1-2-2.4.6-4.7 1.4-6.8 2.6-2.1 1.2-4.1 2.6-5.9 4.3-1.8 1.6-3.4 3.4-4.9 5.3-1.5 1.9-2.8 4-3.9 6l-2.1-1.2zM673.6 621.9c1.1-1.1 2.3-2 3.6-2.9 1.3-.9 2.6-1.6 3.9-2.3 1.4-.7 2.8-1.2 4.2-1.6 1.5-.4 3-.6 4.5-.7-1.5.2-3 .5-4.4 1-1.4.5-2.8 1.1-4 1.9-1.3.8-2.5 1.6-3.7 2.5-1.2.9-2.3 1.9-3.2 3l-.9-.9z"/>
        </g>
        <g class="wapuugotchi-item-leaf__element_8">
            <path fill="#F57610" d="M386.2 635.7s-29.1 41.8-68.7 32.6c-47.7-11.1-41.6-28.5-82.1-35.7 0 0 40.8-52.1 88.5-46.5 55.3 6.5 62.3 49.6 62.3 49.6z"/>
            <path fill="none" stroke="#000" stroke-width="4" d="M386.2 635.7s-29.1 41.8-68.7 32.6c-47.7-11.1-41.6-28.5-82.1-35.7 0 0 40.8-52.1 88.5-46.5 55.3 6.5 62.3 49.6 62.3 49.6z"/>
            <path d="M404.7 645c-6-2.9-12.3-5.6-18.6-8-6.3-2.4-12.7-4.7-19.2-6.7-13-4-26.2-7.1-39.7-9.1-6.7-1-13.5-1.6-20.3-2-6.8-.3-13.6-.2-20.4.2-6.8.5-13.5 1.5-20.2 2.8-6.7 1.4-13.2 3.5-19.6 5.9 6.3-2.6 12.8-4.9 19.4-6.5 6.7-1.6 13.4-2.8 20.2-3.5 6.8-.6 13.7-1 20.5-.8 6.9.2 13.7.6 20.5 1.4 13.6 1.6 27.1 4.3 40.4 8 6.6 1.8 13.2 3.9 19.7 6.2 6.5 2.3 12.9 4.8 19.3 7.7 1.2.6 1.8 2 1.2 3.3-.6 1.2-2 1.8-3.3 1.2.2 0 .2 0 .1-.1z"/>
            <path d="M371 630.7c-2.7 3.9-5.7 7.4-8.8 10.8-3.2 3.4-6.5 6.6-10.2 9.5-3.6 2.9-7.5 5.5-11.7 7.4-2.1 1-4.2 1.8-6.5 2.5-2.2.6-4.5 1-6.8 1.2 2.3-.3 4.5-.9 6.6-1.6 2.1-.8 4.2-1.7 6.2-2.8 4-2.2 7.6-5 10.9-8 3.4-3 6.4-6.4 9.3-9.9 2.8-3.5 5.5-7.2 7.8-11l3.2 1.9zM347.4 624.2c-2.9 3.6-6.1 6.7-9.4 9.8-3.3 3-6.8 5.9-10.5 8.4s-7.6 4.7-11.8 6.4c-2.1.8-4.2 1.5-6.4 2.1-2.2.5-4.4.9-6.6 1 2.2-.3 4.4-.8 6.5-1.5 2.1-.7 4.1-1.5 6.1-2.5 3.9-2 7.6-4.4 11.1-7.1 3.4-2.7 6.7-5.7 9.7-8.9 3-3.2 5.9-6.6 8.4-10l2.9 2.3zM317 619.9c-1 1.7-2.1 3.2-3.3 4.6-.6.7-1.2 1.4-1.9 2l-1 1-1 .9c-2.8 2.4-5.8 4.5-9 6.2-1.6.8-3.2 1.7-4.9 2.3-.8.3-1.7.7-2.5 1l-2.6.8c-.9.3-1.7.5-2.6.7l-2.6.6c-1.8.4-3.5.6-5.3.9 1.8-.4 3.5-.8 5.2-1.2l2.6-.8c.9-.3 1.7-.5 2.5-.9l2.5-1c.8-.3 1.6-.7 2.4-1.1 1.6-.7 3.2-1.6 4.7-2.5 3-1.9 5.8-4 8.4-6.5l.9-.9.9-1c.6-.6 1.1-1.3 1.7-2 1-1.4 2.1-2.9 2.8-4.3l2.1 1.2zM283.7 619.3c-1.3 2.1-2.9 3.9-4.5 5.5-1.7 1.7-3.5 3.1-5.4 4.5-1.9 1.3-3.9 2.6-6 3.6-1 .6-2.1 1-3.2 1.5s-2.2.9-3.2 1.3c1.1-.5 2.1-1 3.2-1.5 1-.6 2.1-1 3.1-1.7 2-1.1 4-2.5 5.8-3.9 1.8-1.4 3.6-3 5.1-4.7 1.6-1.7 3-3.5 4.1-5.5l1 .9zM361.2 627.2c-.1-1.6-.4-3.3-.8-5-.2-.8-.4-1.7-.6-2.5l-.7-2.5c-1.1-3.3-2.5-6.5-4.3-9.4-.9-1.5-1.9-2.9-3-4.3l-1.7-2c-.3-.3-.6-.7-.9-1l-1-.9c-2.5-2.5-5.4-4.5-8.5-6.3 3.2 1.6 6.4 3.3 9.1 5.6l1.1.8c.4.3.7.6 1 .9l1.9 1.9c1.2 1.4 2.4 2.7 3.4 4.2 2.1 2.9 4 6.1 5.4 9.5l1 2.6c.3.9.6 1.7.9 2.6.5 1.8 1 3.5 1.3 5.5l-3.6.3zM336 621.4c-.2-1.4-.6-3-1.1-4.6-.5-1.5-1.1-3-1.7-4.5-1.3-3-3-5.8-5-8.4-2-2.6-4.2-5.1-6.7-7.2-1.2-1.1-2.6-2.1-3.9-3.1-.7-.5-1.4-.9-2.1-1.4l-2.1-1.3 2.3 1.1c.7.4 1.5.7 2.2 1.2 1.4.9 2.9 1.7 4.3 2.7 2.8 1.9 5.3 4.2 7.6 6.8 2.3 2.5 4.3 5.3 6 8.3.9 1.5 1.6 3.1 2.3 4.6.7 1.6 1.3 3.2 1.7 5l-3.8.8zM304.2 618.8c-.9-2.1-2.1-4.3-3.4-6.3-1.3-2-2.8-3.9-4.5-5.7-1.6-1.8-3.5-3.3-5.5-4.7-2-1.4-4.3-2.3-6.6-3.1 2.4.6 4.8 1.3 6.9 2.6 2.2 1.2 4.2 2.6 6.1 4.3 1.9 1.7 3.6 3.5 5.1 5.5 1.5 2 2.9 4 4.2 6.3l-2.3 1.1zM279.5 619.9c-.9-1.1-1.9-2.2-3-3.2s-2.2-1.9-3.5-2.8c-1.2-.9-2.5-1.6-3.9-2.2-1.4-.6-2.8-1-4.3-1.3 1.5.2 3 .5 4.4 1 1.4.5 2.8 1.2 4.1 2 1.3.8 2.6 1.7 3.7 2.6 1.2 1 2.3 2 3.4 3.1l-.9.8z"/>
        </g>
        <g class="wapuugotchi-item-leaf__element_7">
            <path fill="#F44024" d="M558.3 666.7s7.5 50.4 47.1 59.7c47.7 11.2 50-7.1 89.4 4.4 0 0-13.5-64.8-58.7-81-52.4-18.7-77.8 16.9-77.8 16.9z"/>
            <path fill="none" stroke="#000" stroke-width="4" d="M558.3 666.7s7.5 50.4 47.1 59.7c47.7 11.2 50-7.1 89.4 4.4 0 0-13.5-64.8-58.7-81-52.4-18.7-77.8 16.9-77.8 16.9z"/>
            <path d="M537.6 661.8c7 .2 13.8.9 20.6 1.7 6.8.8 13.6 1.9 20.4 3.2 13.5 2.6 26.8 6.1 39.7 10.7 6.5 2.3 12.8 5 19 7.9 6.2 2.9 12.2 6.2 18.1 9.8 5.8 3.6 11.3 7.7 16.6 12.1 5.2 4.4 10 9.3 14.5 14.4-4.6-5-9.6-9.7-14.9-14-5.4-4.2-11-8.1-16.9-11.5-5.9-3.4-11.9-6.5-18.2-9.2-6.2-2.7-12.6-5.1-19-7.2-12.9-4.2-26.2-7.3-39.6-9.4-6.7-1.1-13.4-1.9-20.2-2.5-6.7-.6-13.6-1-20.2-1h-.1c-1.4 0-2.5-1.1-2.5-2.5.1-1.4 1.2-2.5 2.7-2.5-.1 0-.1 0 0 0z"/>
            <path d="M577.8 668.5c.4 4.4 1.1 8.9 2.1 13.3s2.3 8.8 3.9 13c1.6 4.2 3.7 8.3 6.2 12 1.3 1.9 2.7 3.7 4.3 5.3 1.6 1.6 3.3 3.1 5.2 4.4-2-1.2-3.8-2.5-5.5-4.1-1.7-1.5-3.3-3.3-4.7-5.1-2.9-3.6-5.2-7.7-7.2-11.9s-3.6-8.6-4.9-13c-1.3-4.5-2.4-8.9-3.1-13.6l3.7-.3zM601.8 672.8c.7 4.2 1.8 8.5 3.1 12.7 1.3 4.2 2.9 8.3 4.7 12.3 1.9 4 4.1 7.8 6.8 11.3 1.4 1.7 2.8 3.4 4.4 4.9 1.6 1.5 3.3 2.9 5.1 4.2-1.9-1.1-3.7-2.4-5.5-3.8-1.7-1.5-3.3-3-4.8-4.7-3-3.4-5.5-7.1-7.7-11-2.2-3.9-4.1-8-5.7-12.2-1.6-4.2-3-8.5-4.1-12.9l3.7-.8zM629.8 683.2c0 1.6.2 3.4.6 5.1.2.9.4 1.7.6 2.5l.4 1.3.4 1.2c1.2 3.3 2.7 6.5 4.6 9.5 1 1.5 2 3 3.1 4.3.6.7 1.1 1.4 1.7 2.1l1.8 2c.6.7 1.2 1.3 1.9 1.9l2 1.8c1.4 1.2 2.8 2.3 4.2 3.4-1.4-1.1-2.9-2.1-4.4-3.2l-2.1-1.7c-.7-.6-1.4-1.2-2-1.8l-1.9-1.9c-.7-.6-1.2-1.3-1.8-2-1.2-1.3-2.3-2.8-3.4-4.2-2.1-3-3.9-6.2-5.3-9.6l-.5-1.3-.4-1.3c-.3-.9-.6-1.8-.8-2.6-.5-1.8-.8-3.6-.9-5.6l2.2.1zM658.7 697.4c.1 2.2.6 4.5 1.3 6.7.7 2.2 1.5 4.4 2.5 6.5 1 2.1 2.2 4.1 3.5 6 .6 1 1.4 1.9 2 2.8.7.9 1.5 1.8 2.2 2.7-.8-.9-1.6-1.7-2.3-2.6-.7-.9-1.5-1.8-2.2-2.8-1.4-1.9-2.6-3.9-3.8-5.9-1.1-2.1-2.1-4.2-2.9-6.5-.8-2.2-1.4-4.5-1.6-7l1.3.1zM581.3 668.1c1.2-1.6 2.3-3 3.6-4.3.6-.7 1.3-1.3 1.9-2l2-1.8c2.8-2.4 5.8-4.4 9-6.1 1.6-.9 3.3-1.5 4.9-2.2l2.6-.8c.4-.1.9-.3 1.3-.4l1.3-.3c3.5-.9 7.1-1 10.7-1-3.5.3-7.1.7-10.4 1.9l-1.3.4c-.4.1-.8.3-1.2.5l-2.4 1c-1.5.8-3.1 1.6-4.6 2.6-2.9 1.9-5.7 4.1-8.1 6.5l-1.8 1.9c-.6.7-1.1 1.3-1.7 2-1.1 1.3-2.1 2.8-2.9 4.1l-2.9-2zM606.6 673.9c1.2-1.5 2.5-2.6 3.8-3.8 1.3-1.1 2.7-2.2 4.1-3.1 2.9-1.9 5.9-3.6 9.1-4.8 3.2-1.2 6.4-2.2 9.8-2.7 1.7-.3 3.3-.4 5-.6.8-.1 1.7 0 2.5-.1h2.5l-2.5.2c-.8.1-1.7.1-2.5.3-1.6.3-3.3.5-4.9 1-3.2.8-6.3 2-9.2 3.5-2.9 1.5-5.7 3.3-8.2 5.3-1.3 1-2.4 2.1-3.6 3.3-1.1 1.1-2.2 2.4-3 3.6l-2.9-2.1zM637.7 685.9c2.1-1.5 4.3-2.7 6.5-3.8 2.3-1.1 4.6-2 7-2.7 2.4-.7 4.9-1.1 7.4-1.2 2.5-.1 5 .2 7.4.8-2.4-.4-4.9-.5-7.3-.2-2.4.3-4.8.9-7 1.7-2.3.9-4.4 1.9-6.5 3.1-2.1 1.2-4.1 2.6-5.9 4.1l-1.6-1.8zM660.4 698.7c1.5-.6 2.9-1 4.4-1.3 1.5-.3 3-.6 4.5-.7 1.5-.1 3-.1 4.5.1s3 .5 4.4 1c-1.5-.4-2.9-.7-4.4-.7-1.5 0-3 0-4.5.2s-2.9.5-4.3 1c-1.4.4-2.8.9-4.1 1.6l-.5-1.2z"/>
        </g>
        <g class="wapuugotchi-item-leaf__element_6">
            <path fill="#B2B70B" d="M409.9 672.5s-7.5 50.4-47.1 59.7c-47.7 11.2-50-7.1-89.4 4.4 0 0 13.5-64.8 58.7-81 52.4-18.6 77.8 16.9 77.8 16.9z"/>
            <path fill="none" stroke="#000" stroke-width="4" d="M409.9 672.5s-7.5 50.4-47.1 59.7c-47.7 11.2-50-7.1-89.4 4.4 0 0 13.5-64.8 58.7-81 52.4-18.6 77.8 16.9 77.8 16.9z"/>
            <path d="M430.7 672.7c-6.7 0-13.5.4-20.2 1-6.7.6-13.5 1.5-20.2 2.5-13.4 2.1-26.7 5.3-39.6 9.4-6.5 2.1-12.8 4.5-19 7.2-6.2 2.7-12.3 5.8-18.2 9.2-5.9 3.4-11.5 7.3-16.9 11.5-5.3 4.3-10.3 9-14.9 14 4.5-5.2 9.3-10 14.5-14.4 5.3-4.4 10.8-8.4 16.6-12.1 5.8-3.6 11.8-6.9 18.1-9.8 6.2-2.9 12.6-5.5 19-7.9 12.9-4.6 26.2-8.2 39.7-10.7 6.7-1.3 13.5-2.4 20.4-3.2 6.8-.8 13.6-1.5 20.6-1.7 1.4 0 2.5 1 2.5 2.4s-1 2.5-2.4 2.5c.1.1.1.1 0 .1z"/>
            <path d="M394.1 674.8c-.7 4.7-1.8 9.2-3.1 13.6s-2.9 8.8-4.9 13c-2 4.2-4.3 8.2-7.2 11.9-1.4 1.8-3 3.5-4.7 5.1-1.7 1.5-3.6 2.9-5.5 4.1 1.9-1.3 3.6-2.8 5.2-4.4 1.6-1.6 3-3.4 4.3-5.3 2.6-3.7 4.6-7.8 6.2-12 1.7-4.2 2.9-8.6 3.9-13s1.7-8.9 2.1-13.3l3.7.3zM370.1 679.4c-1.1 4.5-2.5 8.7-4.1 12.9-1.6 4.2-3.5 8.3-5.7 12.2-2.2 3.9-4.8 7.6-7.7 11-1.5 1.7-3.1 3.3-4.8 4.7-1.7 1.4-3.5 2.7-5.5 3.8 1.8-1.3 3.5-2.7 5.1-4.2 1.6-1.6 3-3.2 4.4-4.9 2.7-3.5 4.9-7.3 6.8-11.3 1.9-4 3.5-8.1 4.7-12.3 1.3-4.2 2.4-8.5 3.1-12.7l3.7.8zM340.9 689.1c-.1 2-.5 3.8-.9 5.6-.2.9-.5 1.8-.8 2.6l-.4 1.3-.5 1.3c-1.4 3.4-3.2 6.6-5.3 9.6-1.1 1.4-2.2 2.9-3.4 4.2-.6.7-1.2 1.4-1.8 2l-1.9 1.9c-.6.6-1.3 1.2-2 1.8l-2.1 1.7c-1.4 1.1-2.9 2.1-4.4 3.2 1.4-1.1 2.8-2.2 4.2-3.4l2-1.8c.7-.6 1.3-1.2 1.9-1.9l1.8-2c.6-.7 1.1-1.4 1.7-2.1 1.2-1.4 2.1-2.9 3.1-4.3 1.9-3 3.5-6.2 4.6-9.5l.4-1.2.4-1.3c.3-.8.4-1.7.6-2.5.3-1.7.6-3.5.6-5.1l2.2-.1zM310.8 703.3c-.2 2.5-.9 4.7-1.6 7-.8 2.2-1.8 4.4-2.9 6.5-1.1 2.1-2.4 4.1-3.8 5.9-.7 1-1.4 1.8-2.2 2.8-.8.9-1.6 1.8-2.3 2.6.7-.9 1.5-1.8 2.2-2.7.7-1 1.4-1.9 2-2.8 1.3-1.9 2.5-4 3.5-6 1-2.1 1.9-4.3 2.5-6.5.7-2.2 1.2-4.5 1.3-6.7l1.3-.1zM383.8 675.9c-.8-1.4-1.8-2.8-2.9-4.1-.5-.7-1.1-1.3-1.7-2l-1.8-1.9c-2.4-2.5-5.1-4.7-8.1-6.5-1.4-1-3-1.7-4.6-2.6l-2.4-1c-.4-.2-.8-.4-1.2-.5l-1.3-.4c-3.3-1.2-6.9-1.6-10.4-1.9 3.5 0 7.2.1 10.7 1l1.3.3c.4.1.9.3 1.3.4l2.6.8c1.7.7 3.4 1.3 4.9 2.2 3.2 1.7 6.3 3.7 9 6.1l2 1.8c.6.7 1.3 1.3 1.9 2 1.3 1.3 2.4 2.7 3.6 4.3l-2.9 2zM358.6 682c-.8-1.2-1.9-2.4-3-3.6-1.1-1.1-2.3-2.2-3.6-3.3-2.5-2.1-5.2-3.9-8.2-5.3-2.9-1.5-6-2.7-9.2-3.5-1.6-.5-3.2-.7-4.9-1-.8-.2-1.7-.2-2.5-.3l-2.5-.2h2.5c.8 0 1.7 0 2.5.1 1.7.1 3.4.2 5 .6 3.3.5 6.6 1.5 9.8 2.7 3.2 1.2 6.2 2.9 9.1 4.8 1.4 1 2.8 2 4.1 3.1 1.3 1.2 2.5 2.3 3.8 3.8l-2.9 2.1zM328.9 693.7c-1.8-1.5-3.8-2.9-5.9-4.1-2.1-1.2-4.3-2.3-6.5-3.1-2.3-.9-4.6-1.4-7-1.7-2.4-.3-4.9-.2-7.3.2 2.4-.6 4.9-.9 7.4-.8 2.5.1 5 .5 7.4 1.2 2.4.7 4.8 1.6 7 2.7 2.3 1.1 4.4 2.3 6.5 3.8l-1.6 1.8zM307.3 705.7c-1.3-.6-2.7-1.1-4.1-1.6-1.4-.4-2.9-.7-4.3-1-1.5-.2-3-.3-4.5-.2-1.5.1-3 .3-4.4.7 1.4-.5 2.9-.9 4.4-1 1.5-.2 3-.2 4.5-.1s3 .3 4.5.7c1.5.3 2.9.8 4.4 1.3l-.5 1.2z"/>
        </g>
        <g class="wapuugotchi-item-leaf__element_5">
            <path fill="#FEB20F" d="M470 636.6s17.7 29.8-1.7 57.7c0 0 1.2-8.6-1.7-14.4 0 0-3.9 18.4-33.9 31 0 0 8-8.1 8.8-12.5 0 0-20.9 13.2-43.3 12.5 0 0 6.1-5 8.3-8.5 0 0-13.8 7.9-45.2-.9 0 0 8.3-9.4 9.6-23.5 2-21.5 12.1-32.7 12.1-32.7s-5.3.6-11.3 5.9c0 0 13.1-24.4 23.4-32.2 0 0-5.7-1.4-11.6.1 0 0 21.1-19.2 45.8-7.2 0 0-6.8-7.7-9.7-7.7.2 0 32.1-1.6 50.4 32.4z"/>
            <path fill="none" stroke="#000" stroke-width="3" d="M470 636.6s17.7 29.8-1.7 57.7c0 0 1.2-8.6-1.7-14.4 0 0-3.9 18.4-33.9 31 0 0 8-8.1 8.8-12.5 0 0-20.9 13.2-43.3 12.5 0 0 6.1-5 8.3-8.5 0 0-13.8 7.9-45.2-.9 0 0 8.3-9.4 9.6-23.5 2-21.5 12.1-32.7 12.1-32.7s-5.3.6-11.3 5.9c0 0 13.1-24.4 23.4-32.2 0 0-5.7-1.4-11.6.1 0 0 21.1-19.2 45.8-7.2 0 0-6.8-7.7-9.7-7.7.2 0 32.1-1.6 50.4 32.4z"/>
            <path d="M469.4 635.9c-4.3 2.2-8.6 4.4-12.9 6.8-4.3 2.3-8.5 4.7-12.7 7.3-4.2 2.5-8.3 5.1-12.4 7.7-4.1 2.6-8.1 5.4-12.2 8.2-8.1 5.5-16.2 11-24.4 16.4-8.2 5.4-16.4 10.8-25 15.6 4.1-2.8 8-5.6 12-8.5l11.8-8.7c7.8-5.9 15.8-11.6 23.7-17.5 7.8-5.9 16-11.5 24.5-16.6 8.5-5.1 17.1-9.8 26.2-13.8.9-.4 2 0 2.4.9.3.8-.1 1.8-1 2.2z"/>
            <path d="M404.8 674.7c.2 1.2.2 2.2.2 3.3 0 1.1-.1 2.1-.3 3.1-.3 2.1-.8 4.1-1.5 6-.8 1.9-1.6 3.7-2.8 5.4-.5.9-1.2 1.6-1.8 2.4-.6.8-1.3 1.5-2 2.2.5-.8 1.1-1.6 1.6-2.5.5-.9 1-1.7 1.3-2.6.9-1.7 1.4-3.6 1.8-5.5.4-1.9.6-3.8.6-5.6 0-.9-.1-1.9-.2-2.8-.1-.9-.3-1.9-.6-2.6-.3-.9.2-2 1.1-2.3.9-.3 2 .2 2.3 1.1.3.2.3.3.3.4zM414.8 667.2c.2.4.4.7.5 1.1.2.3.3.7.4 1 .3.7.5 1.3.7 2 .2.7.4 1.3.5 2 .2.7.2 1.4.3 2 .3 2.7.2 5.4-.1 8.1l-.3 2c-.1.7-.3 1.3-.5 1.9-.3 1.3-.8 2.5-1.2 3.8-.4 1.2-1 2.4-1.5 3.6-.6 1.2-1.2 2.3-1.8 3.5h-.1v-.1c.5-1.2 1-2.4 1.4-3.6.4-1.2.8-2.5 1.1-3.7.3-1.3.6-2.5.7-3.8.1-.6.2-1.3.2-1.9l.1-1.9c.1-2.5-.1-5.1-.7-7.5-.1-.6-.3-1.2-.5-1.8-.2-.6-.4-1.2-.6-1.7-.2-.6-.5-1.1-.8-1.6-.3-.5-.6-1.1-.9-1.4-.6-.8-.4-1.9.4-2.5.8-.6 1.9-.4 2.5.4.1 0 .1.1.2.1zM432 655.2c.9 1.9 1.5 3.7 2 5.6.3.9.5 1.9.7 2.8.2.9.4 1.9.5 2.8.6 3.8.7 7.7.4 11.5-.4 3.8-1.1 7.5-2.5 11.1-.6 1.8-1.4 3.5-2.2 5.2-.4.9-.9 1.6-1.4 2.5L428 699l1.2-2.5c.4-.8.9-1.6 1.2-2.5.7-1.7 1.4-3.5 1.8-5.3 1-3.5 1.5-7.2 1.5-10.9.1-3.7-.4-7.3-1.2-10.8-.2-.9-.5-1.8-.7-2.6-.3-.9-.6-1.7-.9-2.6-.6-1.7-1.4-3.4-2.2-4.8v-.1c-.5-.9-.2-2 .7-2.5.9-.5 2-.2 2.5.7l.1.1zM451.4 643c.9 2 1.6 3.9 2.3 5.9.6 2 1.2 4 1.6 6 .8 4.1 1.3 8.2 1.2 12.4-.1 4.1-.7 8.3-1.9 12.2-1.2 3.9-3 7.7-5.2 11.1 2-3.6 3.5-7.3 4.3-11.3.9-3.9 1.2-7.9 1-11.9-.2-4-.9-7.9-2-11.7-.5-1.9-1.2-3.8-1.9-5.6-.7-1.8-1.6-3.7-2.5-5.3v-.1c-.5-.9-.2-2 .7-2.5.9-.5 2-.2 2.5.7-.1 0-.1.1-.1.1z"/>
            <path d="M401.2 676.5c-.4-.6-1.1-1.3-1.7-2l-2.1-1.8c-1.5-1.1-3.1-2.1-4.9-2.9-1.7-.7-3.6-1.4-5.5-1.7-.9-.2-1.9-.3-2.9-.4-1-.1-2-.1-2.9-.2l3-.3c1 0 2-.1 3 0 2 .1 4 .4 6 .9s3.9 1.3 5.7 2.3c.9.5 1.8 1 2.7 1.6.9.6 1.7 1.2 2.5 2.1.7.7.7 1.9 0 2.6s-1.9.7-2.6 0c-.1 0-.2 0-.3-.2zM411.5 669c-.2-.4-.5-1-.8-1.4-.3-.5-.7-1-1.1-1.4-.4-.5-.8-.9-1.2-1.4-.4-.5-.9-.9-1.3-1.3-1.8-1.7-3.9-3-6.2-4.2l-1.7-.8c-.6-.3-1.2-.5-1.8-.7-1.2-.5-2.4-.8-3.7-1.2-1.2-.4-2.5-.5-3.8-.8-1.3-.2-2.6-.3-3.9-.5 0 0-.1 0-.1-.1 0 0 0-.1.1-.1 1.3 0 2.6 0 3.9.1 1.3.1 2.6.2 3.9.4 1.3.2 2.6.4 3.9.8.6.2 1.3.3 1.9.5l1.9.6c2.5 1 4.9 2.2 7.2 3.8.6.4 1.1.8 1.6 1.3.5.4 1 .9 1.5 1.4.5.5 1 1 1.4 1.6.2.3.5.5.7.8.2.3.4.6.7 1 .5.9.2 2-.6 2.5-.9.5-2 .2-2.5-.6v-.3zM428.8 656.9c-.7-1.5-1.8-3-2.8-4.5-.5-.7-1.1-1.4-1.7-2.1-.6-.7-1.2-1.4-1.8-2-2.5-2.7-5.3-5-8.4-7-3.1-2-6.4-3.6-10-4.7-1.7-.6-3.6-1-5.4-1.4-.9-.2-1.8-.3-2.8-.4l-2.8-.3 2.8.1c.9.1 1.9 0 2.8.2 1.9.3 3.7.5 5.6 1 3.7.8 7.3 2.2 10.6 4 3.4 1.8 6.5 4 9.4 6.6.7.6 1.4 1.3 2.1 2 .7.7 1.3 1.4 2 2.1 1.3 1.5 2.4 3 3.5 4.7.5.8.3 2-.6 2.5-.8.5-2 .3-2.5-.6.1 0 .1-.1 0-.2zM447.7 644.8c-.8-1.7-1.8-3.5-2.8-5.1-1-1.7-2.2-3.3-3.4-4.9-2.4-3.1-5.2-6-8.3-8.5-3.1-2.5-6.5-4.7-10.2-6.3-3.7-1.6-7.6-2.7-11.7-3.2 4.1.2 8.1.9 12 2.3 3.9 1.4 7.6 3.3 10.9 5.7 3.4 2.4 6.5 5.2 9.3 8.2 1.4 1.5 2.7 3.2 3.9 4.8 1.2 1.7 2.4 3.4 3.4 5.3.5.9.2 2-.7 2.4-.9.5-2 .2-2.4-.7 0 .1 0 .1 0 0z"/>
        </g>
        <g class="wapuugotchi-item-leaf__element_4">
            <path fill="#F57610" d="M514.4 627s-24.6 24.4-12.8 56.3c0 0 1-8.6 5.3-13.5 0 0-.9 18.8 25 38.5 0 0-5.7-9.8-5.4-14.3 0 0 16.9 18 38.8 22.9 0 0-4.6-6.4-5.9-10.3 0 0 11.4 11.1 44 10.5 0 0-5.7-11.2-3.4-25.2 3.5-21.3-3.5-34.7-3.5-34.7s4.9 1.9 9.4 8.6c0 0-6.6-26.9-14.6-37.1 0 0 5.9.1 11.2 3 0 0-15.6-23.9-42.6-18.4 0 0 8.5-5.8 11.3-5.1-.1-.1-30.6-9.6-56.8 18.8z"/>
            <path fill="none" stroke="#000" stroke-width="3" d="M514.4 627s-24.6 24.4-12.8 56.3c0 0 1-8.6 5.3-13.5 0 0-.9 18.8 25 38.5 0 0-5.7-9.8-5.4-14.3 0 0 16.9 18 38.8 22.9 0 0-4.6-6.4-5.9-10.3 0 0 11.4 11.1 44 10.5 0 0-5.7-11.2-3.4-25.2 3.5-21.3-3.5-34.7-3.5-34.7s4.9 1.9 9.4 8.6c0 0-6.6-26.9-14.6-37.1 0 0 5.9.1 11.2 3 0 0-15.6-23.9-42.6-18.4 0 0 8.5-5.8 11.3-5.1-.1-.1-30.6-9.6-56.8 18.8z"/>
            <path d="M517.4 623.6c7.8 6.2 14.9 12.9 21.9 20 6.9 7 13.4 14.5 19.5 22.2l18.6 22.8 9.3 11.4c3.1 3.8 6.2 7.6 9.5 11.3-7.1-6.8-13.7-14.1-20.3-21.4-6.6-7.2-13-14.7-19.6-22-3.3-3.7-6.5-7.4-9.8-10.9-3.3-3.6-6.7-7.1-10.1-10.6-3.4-3.5-6.9-6.9-10.5-10.2-3.5-3.3-7.2-6.6-10.8-9.8-.8-.7-.8-1.8-.2-2.5.6-.8 1.7-.9 2.5-.3z"/>
            <path d="M571.1 681.9c-.4.6-.8 1.5-1.2 2.3-.3.9-.6 1.7-.9 2.6-.5 1.8-.8 3.7-.9 5.6 0 1.9 0 3.8.4 5.7.1 1 .4 1.9.7 2.8.3.9.6 1.9.9 2.8-.4-.9-.9-1.7-1.4-2.6-.4-.9-.8-1.8-1.1-2.8-.7-1.9-1.1-3.9-1.3-5.9-.3-2-.2-4.1 0-6.2.1-1 .3-2.1.5-3.1.3-1 .5-2 1-3.1.4-.9 1.5-1.3 2.4-.9.9.4 1.3 1.5.9 2.4.1.2.1.2 0 .4zM562.6 673.1c-.3.3-.8.7-1.2 1.1-.4.4-.8.9-1.1 1.4-.4.5-.7 1-1 1.5-.3.5-.6 1.1-.9 1.6-1.2 2.2-2 4.6-2.5 7l-.4 1.9c-.1.6-.2 1.3-.2 1.9-.2 1.3-.2 2.6-.2 3.8 0 1.3.1 2.6.1 3.9.1 1.3.3 2.6.5 3.9v.1h-.1c-.3-1.3-.6-2.5-.9-3.8-.2-1.3-.5-2.6-.6-3.9-.1-1.3-.3-2.6-.2-4v-2l.2-2c.3-2.7.9-5.3 1.9-7.9.3-.6.5-1.3.8-1.9.3-.6.6-1.2 1-1.8.3-.6.7-1.2 1.1-1.8.2-.3.4-.6.7-.9.2-.3.4-.5.8-.9.7-.7 1.9-.7 2.6 0s.7 1.9 0 2.6c-.3.1-.3.1-.4.2zM549.2 656.9c-1.1 1.2-2.3 2.7-3.3 4.1-.5.7-1 1.5-1.5 2.3-.4.8-.9 1.6-1.3 2.4-1.7 3.2-3 6.6-3.9 10.2-.9 3.6-1.4 7.2-1.2 10.9-.1 1.9.2 3.7.4 5.5.1.9.3 1.8.5 2.7l.6 2.7-.8-2.7c-.3-.9-.6-1.8-.7-2.7-.3-1.8-.8-3.7-.9-5.6-.4-3.8-.2-7.6.4-11.3.6-3.8 1.7-7.5 3.2-11 .4-.9.8-1.7 1.2-2.6.4-.9.9-1.7 1.4-2.5 1-1.7 2-3.3 3.4-4.9.6-.8 1.8-.9 2.5-.2.8.6.9 1.8.2 2.5l-.2.2zM533.4 640.2c-1.3 1.3-2.6 2.9-3.7 4.5-1.2 1.6-2.3 3.2-3.3 5-2 3.4-3.7 7.1-4.9 10.9-1.2 3.8-1.9 7.8-2.1 11.8-.2 4 .3 8.1 1.4 12-1.3-3.8-2.1-7.9-2.3-12-.2-4.1.3-8.2 1.2-12.3.9-4 2.4-7.9 4.2-11.7.9-1.9 1.9-3.7 3-5.4 1.1-1.8 2.3-3.5 3.7-5.2.6-.8 1.8-.9 2.5-.2.8.6.9 1.8.2 2.5.2 0 .2 0 .1.1z"/>
            <path d="M568.9 679.9c1.1-.6 2-1 3-1.4 1-.4 2-.7 3-.9 2-.5 4.1-.8 6.1-.8s4.1.1 6 .6c1 .2 1.9.5 2.9.7.9.3 1.9.7 2.8 1-1-.2-1.9-.4-2.9-.6-1-.1-1.9-.3-2.9-.3-1.9-.1-3.9 0-5.7.3-1.9.3-3.7.8-5.4 1.5-.9.3-1.7.8-2.5 1.2-.8.4-1.6 1-2.2 1.5-.8.6-1.9.6-2.5-.2s-.6-1.9.2-2.5c-.1 0 0-.1.1-.1zM560.3 670.6c.3-.3.6-.5.9-.8.3-.2.6-.4.9-.7.6-.4 1.2-.8 1.8-1.1.6-.3 1.2-.7 1.8-1 .6-.3 1.3-.6 1.9-.8 2.6-1 5.2-1.6 7.9-1.9l2-.1c.7-.1 1.3 0 2 0 1.3 0 2.6.1 4 .2 1.3.1 2.6.4 3.9.6 1.3.3 2.5.6 3.8.9 0 0 .1 0 0 .1h-.1c-1.3-.2-2.6-.3-3.9-.5-1.3 0-2.6-.2-3.9-.1-1.3 0-2.6 0-3.8.2-.6.1-1.3.1-1.9.2l-1.9.4c-2.5.6-4.9 1.4-7.1 2.5-.5.3-1.1.6-1.6.9-.5.3-1 .7-1.5 1-.5.4-1 .7-1.4 1.1-.4.4-.9.8-1.2 1.2-.6.8-1.8.9-2.5.3-.8-.6-.9-1.8-.3-2.5.1 0 .1-.1.2-.1zM546.5 654.4c1.5-1.5 3-2.6 4.6-3.7.8-.5 1.6-1.1 2.4-1.6.8-.5 1.7-1 2.5-1.4 3.4-1.8 7-3.2 10.7-4 3.7-.9 7.5-1.4 11.3-1.2 1.9 0 3.8.2 5.6.5.9.1 1.8.3 2.8.5l2.7.6-2.8-.4c-.9-.1-1.8-.3-2.8-.3-1.9-.1-3.7-.2-5.6 0-3.7.2-7.3.9-10.8 2-3.5 1.1-6.8 2.7-9.9 4.6-.8.5-1.5 1-2.3 1.5-.7.5-1.4 1.1-2.1 1.6-1.4 1.1-2.8 2.4-3.8 3.6l-.1.1c-.7.7-1.8.8-2.5.2-.7-.7-.8-1.8-.2-2.5.3 0 .3 0 .3-.1zM531.2 638.1c1.5-1.6 3-3 4.7-4.3 1.6-1.3 3.3-2.6 5-3.7 3.5-2.3 7.2-4.2 11-5.7 3.9-1.4 7.9-2.4 12-2.8 4.1-.4 8.2-.1 12.2.7-4-.5-8.1-.5-12.1.2-4 .6-7.8 1.9-11.4 3.5-3.6 1.7-7 3.8-10.2 6.2-1.6 1.2-3.1 2.5-4.5 3.9-1.4 1.3-2.8 2.8-4 4.3v.1c-.6.8-1.8.9-2.5.3-.8-.6-.9-1.8-.3-2.5 0-.1.1-.1.1-.2z"/>
        </g>
        <g class="wapuugotchi-item-leaf__element_3">
            <path fill="#FEB20F" d="M516 694.6s-7.6 40.7 20.4 58.3c33.7 21.2 40.3 7.8 67.6 27.1 0 0 6.8-53.4-23.7-77.8-35.3-28.2-64.3-7.6-64.3-7.6z"/>
            <path fill="none" stroke="#000" stroke-width="4" d="M516 694.6s-7.6 40.7 20.4 58.3c33.7 21.2 40.3 7.8 67.6 27.1 0 0 6.8-53.4-23.7-77.8-35.3-28.2-64.3-7.6-64.3-7.6z"/>
            <path d="M501.4 685.4c10.5 4.1 20.5 9.1 30.2 14.6s19 11.8 27.7 18.8c4.3 3.5 8.5 7.2 12.5 11.1 4 3.9 7.7 8 11.3 12.3 3.5 4.3 6.7 8.9 9.6 13.7 2.8 4.8 5.3 9.8 7.3 15-2.2-5.1-4.8-10-7.8-14.7-3-4.6-6.3-9.1-9.9-13.3-3.6-4.2-7.5-8.2-11.5-11.9-4.1-3.7-8.3-7.3-12.7-10.6-8.8-6.6-18.2-12.5-27.9-17.7-9.7-5.2-19.8-9.8-30.1-13.5h-.1c-1-.4-1.6-1.5-1.2-2.6s1.5-1.6 2.6-1.2z"/>
            <path d="M530.6 701.2c-.9 3.5-1.5 7.2-1.9 10.8-.4 3.7-.6 7.3-.4 11 .1 3.7.6 7.3 1.6 10.9.5 1.8 1.1 3.5 1.9 5.2.8 1.7 1.7 3.3 2.9 4.8-1.2-1.4-2.3-3-3.2-4.6-.9-1.6-1.6-3.4-2.3-5.1-1.2-3.6-2-7.3-2.4-11-.4-3.7-.5-7.5-.3-11.3.2-3.8.5-7.5 1.2-11.3l2.9.6zM547.9 710.8c-.6 3.4-.9 7-1 10.6-.1 3.6 0 7.1.4 10.7.4 3.5 1.1 7.1 2.2 10.5 1.2 3.4 2.8 6.6 4.9 9.5-2.3-2.8-4.2-5.9-5.6-9.3-1.4-3.4-2.3-6.9-3-10.5-.7-3.6-1-7.2-1.2-10.9-.1-3.7-.1-7.3.3-11l3 .4zM566.6 726.2c-.4 1.2-.7 2.7-.9 4.1-.1.7-.2 1.4-.2 2.1-.1.7-.1 1.4-.1 2.1 0 2.9.4 5.7 1 8.5.4 1.4.7 2.8 1.2 4.2.3.7.5 1.4.7 2l.9 2c.3.7.6 1.3 1 2l1 1.9c.7 1.3 1.5 2.5 2.3 3.7-.8-1.2-1.7-2.4-2.5-3.6l-1.1-1.9c-.4-.6-.8-1.3-1.1-1.9l-1-2c-.3-.7-.6-1.4-.9-2-.6-1.3-1-2.8-1.5-4.2-.8-2.8-1.4-5.8-1.5-8.8-.2-3 0-6 .8-9l1.9.8zM585.1 744.8c-.5 1.7-.7 3.6-.8 5.5-.1 1.9 0 3.8.2 5.6.3 1.9.6 3.7 1.1 5.6.2.9.5 1.8.8 2.7.3.9.6 1.8 1 2.7-.4-.9-.7-1.7-1.1-2.6-.3-.9-.7-1.8-.9-2.7-.6-1.8-1-3.7-1.3-5.6-.3-1.9-.5-3.8-.5-5.7 0-1.9.1-3.8.6-5.8l.9.3zM533.4 701.8c1.3-.9 2.6-1.7 3.9-2.4.7-.4 1.3-.7 2-1l2.1-.9c2.8-1.1 5.6-1.9 8.6-2.3 1.5-.3 2.9-.3 4.4-.4 1.5.1 2.9 0 4.4.2 2.9.2 5.7 1.1 8.5 2-2.8-.7-5.6-1.3-8.5-1.3-1.4-.1-2.9.1-4.3.2-1.4.2-2.8.4-4.2.8-2.8.7-5.4 1.6-7.9 2.9-2.5 1.2-5 2.8-7 4.5l-2-2.3zM551.3 713c2.6-1.5 5.2-2.5 7.9-3.2 2.7-.7 5.5-1.2 8.2-1.3 2.8-.1 5.5 0 8.2.5 1.4.2 2.7.6 4 .9 1.3.4 2.6.9 3.9 1.3-1.3-.3-2.6-.7-4-.9-1.3-.2-2.7-.5-4-.5-2.7-.3-5.4-.1-8 .2-2.6.3-5.2 1-7.7 1.9-1.2.5-2.4 1-3.6 1.6-1.1.6-2.3 1.3-3.3 2l-1.6-2.5zM572 730.4c2-.6 4-1 6-1.2 2-.2 4.1-.3 6.1-.2 2 .1 4 .5 6 1 1.9.6 3.8 1.5 5.4 2.6-1.8-.9-3.6-1.7-5.6-2.1-1.9-.4-3.9-.6-5.9-.5-2 .1-3.9.3-5.8.7-1.9.4-3.8.9-5.6 1.6l-.6-1.9zM586.1 746.2c1.3-.1 2.5 0 3.7.1 1.2.1 2.5.4 3.7.7 1.2.3 2.4.7 3.5 1.3 1.1.5 2.1 1.2 3.1 2-1-.7-2.1-1.3-3.2-1.7-1.1-.4-2.3-.8-3.5-1-1.2-.2-2.4-.4-3.6-.4-1.2 0-2.4 0-3.6.1l-.1-1.1z"/>
        </g>
        <g class="wapuugotchi-item-leaf__element_2">
            <path fill="#F57610" d="M450.1 682.6s17.4 37.6-5.3 61.6c-27.4 28.9-37.1 17.5-58.7 43 0 0-19.9-50 3.6-81.2 27.3-36.1 60.4-23.4 60.4-23.4z"/>
            <path fill="none" stroke="#000" stroke-width="4" d="M450.1 682.6s17.4 37.6-5.3 61.6c-27.4 28.9-37.1 17.5-58.7 43 0 0-19.9-50 3.6-81.2 27.3-36.1 60.4-23.4 60.4-23.4z"/>
            <path d="M464.3 673.4c-9 6.1-17.7 13.1-25.8 20.5-8.1 7.4-15.7 15.5-22.7 24.1-3.4 4.3-6.7 8.8-9.7 13.4-3 4.6-5.7 9.4-8.2 14.4-2.5 5-4.5 10.1-6.3 15.3-1.7 5.3-3 10.7-3.9 16.2.7-5.5 1.8-11 3.4-16.3 1.6-5.3 3.5-10.6 5.9-15.6 2.4-5 4.9-10 7.8-14.8 2.9-4.8 6-9.4 9.4-13.8 6.7-8.9 14.2-17.3 22.2-25 8-7.8 16.5-15.1 25.7-21.7.9-.6 2.1-.4 2.8.5.6.9.4 2.1-.5 2.8h-.1z"/>
            <path d="M440.4 691.3c1.6 3.5 2.9 7 4 10.6 1.1 3.6 2 7.3 2.5 11s.7 7.5.4 11.3c-.2 1.9-.5 3.7-.9 5.5-.5 1.8-1.1 3.6-1.9 5.2.7-1.7 1.2-3.5 1.6-5.3.3-1.8.5-3.7.5-5.5.1-3.7-.4-7.4-1.2-11-.8-3.6-1.9-7.1-3.1-10.6-1.3-3.4-2.8-6.8-4.5-10l2.6-1.2zM426.1 705.1c1.3 3.5 2.2 7 3 10.6.8 3.6 1.3 7.2 1.6 10.8.2 3.6.2 7.3-.3 10.9-.6 3.6-1.6 7.1-3.1 10.4 1.3-3.4 2.1-6.9 2.4-10.5.2-3.6 0-7.2-.4-10.7-.5-3.5-1.3-7-2.3-10.4-1-3.4-2.2-6.8-3.6-10l2.7-1.1zM410.7 724.7c1.6 2.8 2.4 5.6 3 8.5.6 2.9.8 5.9.7 8.9-.1 1.5-.2 3-.4 4.4-.1.7-.2 1.5-.3 2.2l-.5 2.2c-.1.7-.3 1.4-.6 2.1l-.6 2.1c-.5 1.4-1 2.7-1.5 4.1.4-1.4.9-2.8 1.3-4.2l.5-2.1c.2-.7.3-1.4.4-2.1l.3-2.2c.1-.7.1-1.4.2-2.2.2-1.4.1-2.9.2-4.3-.1-2.9-.4-5.8-1.1-8.5l-.6-2.1c-.2-.7-.5-1.3-.7-2-.5-1.3-1.2-2.6-1.9-3.7l1.6-1.1zM396.6 747.9c.9 1.8 1.5 3.6 2 5.5s.8 3.8.9 5.7c.1 1.9.2 3.8.1 5.7 0 1-.2 1.9-.2 2.8-.1.9-.3 1.9-.4 2.8.1-.9.2-1.9.3-2.8 0-.9.1-1.9.1-2.8 0-1.9-.1-3.8-.3-5.7-.3-1.9-.6-3.7-1.2-5.5-.5-1.8-1.2-3.6-2.1-5.1l.8-.6zM433.9 696.6c-2.4-1.1-5.2-2-7.9-2.6-2.8-.6-5.6-.9-8.4-.8-1.4 0-2.8.2-4.2.3-1.4.3-2.8.4-4.2.9-2.8.7-5.4 2-7.9 3.4 2.4-1.6 4.9-3.1 7.7-4.1 1.3-.6 2.8-.9 4.2-1.3 1.4-.3 2.9-.6 4.4-.7 2.9-.3 5.9-.3 8.9.1l2.2.3c.7.2 1.5.3 2.2.5 1.5.3 2.9.7 4.4 1.3l-1.4 2.7zM419.5 712c-1.1-.4-2.4-.8-3.7-1.1-1.3-.3-2.6-.5-3.9-.6-2.6-.3-5.3-.3-7.9 0-2.6.3-5.3.9-7.8 1.8-1.3.4-2.5 1-3.8 1.5-1.2.6-2.4 1.3-3.6 1.9 1.1-.7 2.2-1.5 3.4-2.2 1.2-.6 2.4-1.4 3.7-1.9 2.5-1.2 5.1-2 7.9-2.6 2.7-.6 5.5-.8 8.3-.8 2.8 0 5.6.3 8.5 1.1l-1.1 2.9zM404.6 733.2c-1.9-.2-3.9-.3-5.8-.2-2 .1-3.9.4-5.8.8s-3.8 1.1-5.6 2c-1.8.9-3.4 2.1-4.9 3.4 1.4-1.5 2.9-2.8 4.6-3.8 1.7-1 3.6-1.9 5.5-2.5 1.9-.6 3.9-1.1 6-1.3 2-.3 4-.4 6.2-.3l-.2 1.9zM395.3 751c-1.2.2-2.4.4-3.5.8-1.2.3-2.3.8-3.4 1.3s-2.1 1.1-3.1 1.8-1.9 1.6-2.7 2.5c.7-1 1.6-1.9 2.5-2.7 1-.8 2-1.5 3.1-2.1 1.1-.6 2.2-1.1 3.4-1.6 1.2-.4 2.3-.8 3.6-1.1l.1 1.1z"/>
        </g>
        <g class="wapuugotchi-item-leaf__element_1">
            <path fill="#000" fill-opacity=".2" d="M450.1 682.6s17.4 37.6-5.3 61.6c-27.4 28.9-37.1 17.5-58.7 43 0 0-19.9-50 3.6-81.2 27.3-36.1 60.4-23.4 60.4-23.4z"/>
            <path fill="#F44024" d="M487 658.8s38.3-2.6 56.2 30.7c0 0-7.9-5.5-15.1-5.5 0 0 16.3 13.1 13.7 49.1 0 0-4-11.9-8-15.1 0 0 2.6 27.3-9.4 49.1 0 0-1.9-8.6-4.3-12.5 0 0 .9 17.6-23.6 44.3 0 0-5.1-12.9-18.5-21.3-20.3-12.8-26.3-28.4-26.3-28.4s-2 5.5.2 14.2c0 0-17.6-25.2-20.1-39.4 0 0-4.3 5-5.7 11.5 0 0-8.4-30.6 15.9-49 0 0-11.1 2.8-12.5 5.7.1-.1 14.6-32.4 57.5-33.4z"/>
            <path fill="none" stroke="#000" stroke-width="4" d="M487 658.8s38.3-2.6 56.2 30.7c0 0-7.9-5.5-15.1-5.5 0 0 16.3 13.1 13.7 49.1 0 0-4-11.9-8-15.1 0 0 2.6 27.3-9.4 49.1 0 0-1.9-8.6-4.3-12.5 0 0 .9 17.6-23.6 44.3 0 0-5.1-12.9-18.5-21.3-20.3-12.8-26.3-28.4-26.3-28.4s-2 5.5.2 14.2c0 0-17.6-25.2-20.1-39.4 0 0-4.3 5-5.7 11.5 0 0-8.4-30.6 15.9-49 0 0-11.1 2.8-12.5 5.7.1-.1 14.6-32.4 57.5-33.4z"/>
            <path d="M486 659c0 5.4 0 10.8.2 16.2.1 5.4.4 10.8.8 16.2.3 5.4.8 10.8 1.4 16.2.6 5.4 1.3 10.7 2 16.2l2 16.2c.7 5.4 1.3 10.8 1.9 16.2 1.2 10.8 2.5 21.7 2.9 32.6-.7-5.4-1.5-10.8-2.4-16.1l-2.7-16.1c-1.9-10.7-3.7-21.5-5.4-32.2-1.8-10.7-3.4-21.6-4.1-32.5-.4-5.5-.6-10.9-.8-16.4-.1-2.7-.1-5.5 0-8.2 0-2.7.1-5.5.2-8.2.1-1.1 1-1.9 2.1-1.9 1.1-.2 1.9.7 1.9 1.8z"/>
            <path d="M491.9 742.4c.7.2 1.2.4 1.8.7.6.2 1.1.5 1.6.8l3 1.8c1.9 1.3 3.6 2.8 5.1 4.5 1.5 1.7 2.9 3.5 3.9 5.4.6.9 1 2 1.5 3s.8 2.1 1.2 3.1c-.6-.9-1.1-1.9-1.6-2.8-.6-.9-1.2-1.8-1.9-2.6-1.3-1.7-2.9-3.2-4.5-4.6-1.6-1.4-3.4-2.5-5.3-3.4-.9-.5-1.9-.9-2.8-1.2-.5-.2-1-.3-1.4-.4-.5-.1-1-.2-1.4-.3-1.1-.2-1.9-1.2-1.7-2.3s1.2-1.9 2.3-1.7c0-.1.1 0 .2 0zM489.5 728.8h1.3c.4 0 .8 0 1.2.1.8.1 1.6.2 2.3.3.8.1 1.5.3 2.2.5.7.2 1.5.4 2.2.7 2.9 1 5.5 2.5 8 4.2l1.8 1.3c.6.4 1.1 1 1.7 1.4 1.1.9 2.1 2 3.1 3.1s1.9 2.2 2.8 3.3c.9 1.2 1.7 2.4 2.5 3.5v.1h-.1c-1-1.1-1.9-2.2-2.9-3.2-1.1-1-2-2-3.1-3-1.1-.9-2.2-1.9-3.4-2.6-.6-.4-1.1-.8-1.8-1.2l-1.8-1.1c-2.5-1.3-5.1-2.4-7.7-3.1-.7-.2-1.3-.3-2-.4-.7-.1-1.3-.2-2-.3-.7-.1-1.3-.1-2-.1h-1c-.3 0-.7.1-.9.1-1.1.2-2.1-.5-2.4-1.6-.2-1.1.5-2.1 1.6-2.4.2.4.3.4.4.4zM486.2 705.7c1.2 0 2.2.1 3.3.3 1.1.1 2.1.3 3.2.5s2.1.5 3.1.7c1 .3 2.1.6 3.1.9 4.1 1.3 8 3.1 11.5 5.4 3.6 2.3 6.9 4.9 9.7 8 1.5 1.5 2.7 3.2 4 4.8.7.8 1.2 1.7 1.7 2.6l1.7 2.6-1.9-2.5c-.6-.8-1.2-1.7-1.9-2.4-1.4-1.5-2.7-3.1-4.3-4.4-3-2.8-6.4-5.1-10-7-3.6-1.9-7.4-3.3-11.3-4.2l-3-.6c-1-.2-2-.3-3-.4-2-.2-4-.3-5.9-.2h-.1c-1.1.1-2-.8-2.1-1.9-.1-1.1.8-2 1.9-2.1.2-.1.3-.1.3-.1zM483.9 680.4c2.5.1 4.7.3 7 .7 2.3.4 4.5.9 6.8 1.5 4.4 1.2 8.8 2.9 12.8 5 4.1 2.2 7.8 4.8 11.1 8 3.3 3.1 6.1 6.8 8.3 10.7-2.5-3.7-5.5-7.1-9-9.9-3.4-2.8-7.3-5.1-11.3-6.9-4-1.8-8.3-3.1-12.6-3.9-2.2-.4-4.3-.7-6.5-.9-2.2-.2-4.4-.3-6.5-.2h-.1c-1.1 0-2-.8-2.1-1.9 0-1.1.8-2 1.9-2.1.1-.1.2-.1.2-.1z"/>
            <path d="M491.9 746.9c-.4.1-.9.2-1.4.3-.5.1-1 .3-1.4.4-1 .3-1.9.7-2.8 1.2-1.9.9-3.6 2-5.3 3.4-1.6 1.4-3.2 2.8-4.5 4.6-.7.8-1.3 1.7-1.9 2.6-.6.9-1.1 1.9-1.6 2.8.4-1 .8-2.1 1.2-3.1.5-1 .9-2 1.5-3 1.1-2 2.4-3.7 3.9-5.4 1.5-1.7 3.2-3.2 5.1-4.5.9-.7 1.9-1.3 3-1.8.5-.3 1-.5 1.6-.8.6-.3 1.1-.5 1.8-.7 1.1-.3 2.2.3 2.5 1.3.3 1.1-.3 2.2-1.3 2.5-.1.1-.2.2-.4.2zM489.6 733h-.9c-.3 0-.6 0-1 .1-.7.1-1.3.2-2 .3-.7.1-1.3.3-2 .5s-1.3.4-1.9.7c-2.6 1-5 2.4-7.3 4l-1.7 1.3c-.6.4-1.1.9-1.6 1.4-1.1.9-2 2-3 3-1 1.1-1.8 2.2-2.7 3.3l-2.4 3.6h-.1v-.1c.7-1.3 1.3-2.6 2-3.8.8-1.2 1.5-2.5 2.4-3.7.9-1.2 1.7-2.4 2.7-3.5.5-.5.9-1.1 1.5-1.6l1.6-1.6c2.2-2 4.6-3.8 7.3-5.2.7-.3 1.4-.7 2.1-1 .7-.3 1.4-.6 2.2-.8.7-.2 1.5-.5 2.3-.6.4-.1.8-.2 1.2-.2.4-.1.8-.1 1.3-.2 1.1-.1 2.1.8 2.1 1.9.1 1.1-.8 2.1-1.9 2.1 0 .1-.1.1-.2.1zM486.3 709.7c-1.8 0-3.9.2-5.8.5l-3 .6c-1 .3-2 .5-2.9.8-3.9 1.1-7.6 2.7-11.1 4.8-3.5 2.1-6.8 4.5-9.6 7.5-1.5 1.4-2.8 3-4.1 4.6-.7.8-1.2 1.7-1.8 2.5l-1.7 2.6 1.5-2.7c.5-.9 1-1.8 1.6-2.7 1.2-1.7 2.3-3.5 3.8-5 2.7-3.3 5.8-6.1 9.3-8.5 3.4-2.5 7.2-4.5 11.2-6 1-.4 2-.7 3-1.1 1-.3 2.1-.6 3.1-.9 1-.2 2.1-.5 3.2-.7 1.1-.2 2.1-.3 3.3-.4 1.1-.1 2.1.7 2.2 1.8.1 1.1-.7 2.1-1.8 2.2-.2.1-.2.1-.4.1zM483.8 685c-2-.1-4.3 0-6.5.2s-4.4.5-6.5.9c-4.3.8-8.6 2.1-12.6 3.9-4 1.8-7.9 4.1-11.3 6.9-3.5 2.8-6.5 6.2-9 9.9 2.2-3.9 5-7.6 8.3-10.7 3.3-3.2 7.1-5.8 11.1-8s8.4-3.8 12.8-5c2.2-.6 4.5-1.1 6.8-1.5 2.3-.4 4.5-.6 7-.7 1.1 0 2 .8 2.1 1.9 0 1.1-.8 2-1.9 2.1-.1.1-.1.1-.3.1z"/>
        </g>
    </g>
    <g id="front--group">
        <style id="wapuugotchi_svg_animation-autumn__storm_1">
            @keyframes leaf-wiggle{0%{transform:rotate(0deg)}5%{opacity:1}50%{transform:rotate(180deg);transform-origin:60% 55%}95%{opacity:1}100%{transform:rotate(360deg);transform-origin:25% 150%;opacity:0}}
            .wapuugotchi-item-leaf_storm__element_1,.wapuugotchi-item-leaf_storm__element_2,.wapuugotchi-item-leaf_storm__element_3{opacity:0;transform-origin:100% -50%;animation:leaf-wiggle 10s 1 linear forwards;scale:.7}
            .wapuugotchi-item-leaf_storm__element_1{animation-delay:0.5s}
            .wapuugotchi-item-leaf_storm__element_2{animation-delay:1s}
            .wapuugotchi-item-leaf_storm__element_3{animation-delay:1.5s}
        </style>
        <g class="wapuugotchi-item-leaf_storm__element_1" opacity="0">
            <path id="path85" fill="#f44024" d="M487 658.8s38.3-2.6 56.2 30.7c0 0-7.9-5.5-15.1-5.5 0 0 16.3 13.1 13.7 49.1 0 0-4-11.9-8-15.1 0 0 2.6 27.3-9.4 49.1 0 0-1.9-8.6-4.3-12.5 0 0 .9 17.6-23.6 44.3 0 0-5.1-12.9-18.5-21.3-20.3-12.8-26.3-28.4-26.3-28.4s-2 5.5.2 14.2c0 0-17.6-25.2-20.1-39.4 0 0-4.3 5-5.7 11.5 0 0-8.4-30.6 15.9-49 0 0-11.1 2.8-12.5 5.7.1-.1 14.6-32.4 57.5-33.4z" transform="matrix(-.799 -.5424 -.5424 .799 1700.3187 431.08561)"/>
            <path id="path86" fill="none" stroke="#000" stroke-width="4" d="M487 658.8s38.3-2.6 56.2 30.7c0 0-7.9-5.5-15.1-5.5 0 0 16.3 13.1 13.7 49.1 0 0-4-11.9-8-15.1 0 0 2.6 27.3-9.4 49.1 0 0-1.9-8.6-4.3-12.5 0 0 .9 17.6-23.6 44.3 0 0-5.1-12.9-18.5-21.3-20.3-12.8-26.3-28.4-26.3-28.4s-2 5.5.2 14.2c0 0-17.6-25.2-20.1-39.4 0 0-4.3 5-5.7 11.5 0 0-8.4-30.6 15.9-49 0 0-11.1 2.8-12.5 5.7.1-.1 14.6-32.4 57.5-33.4z" transform="matrix(-.799 -.5424 -.5424 .799 1700.3187 431.08561)"/>
            <path id="path87" d="M486 659c0 5.4 0 10.8.2 16.2.1 5.4.4 10.8.8 16.2.3 5.4.8 10.8 1.4 16.2.6 5.4 1.3 10.7 2 16.2l2 16.2c.7 5.4 1.3 10.8 1.9 16.2 1.2 10.8 2.5 21.7 2.9 32.6-.7-5.4-1.5-10.8-2.4-16.1l-2.7-16.1c-1.9-10.7-3.7-21.5-5.4-32.2-1.8-10.7-3.4-21.6-4.1-32.5-.4-5.5-.6-10.9-.8-16.4-.1-2.7-.1-5.5 0-8.2 0-2.7.1-5.5.2-8.2.1-1.1 1-1.9 2.1-1.9 1.1-.2 1.9.7 1.9 1.8z" transform="matrix(-.799 -.5424 -.5424 .799 1700.3187 431.08561)"/>
            <path id="path88" d="M491.9 742.4c.7.2 1.2.4 1.8.7.6.2 1.1.5 1.6.8l3 1.8c1.9 1.3 3.6 2.8 5.1 4.5 1.5 1.7 2.9 3.5 3.9 5.4.6.9 1 2 1.5 3s.8 2.1 1.2 3.1c-.6-.9-1.1-1.9-1.6-2.8-.6-.9-1.2-1.8-1.9-2.6-1.3-1.7-2.9-3.2-4.5-4.6-1.6-1.4-3.4-2.5-5.3-3.4-.9-.5-1.9-.9-2.8-1.2-.5-.2-1-.3-1.4-.4-.5-.1-1-.2-1.4-.3-1.1-.2-1.9-1.2-1.7-2.3.2-1.1 1.2-1.9 2.3-1.7 0-.1.1 0 .2 0zm-2.4-13.6h1.3c.4 0 .8 0 1.2.1.8.1 1.6.2 2.3.3.8.1 1.5.3 2.2.5.7.2 1.5.4 2.2.7 2.9 1 5.5 2.5 8 4.2l1.8 1.3c.6.4 1.1 1 1.7 1.4 1.1.9 2.1 2 3.1 3.1s1.9 2.2 2.8 3.3c.9 1.2 1.7 2.4 2.5 3.5v.1h-.1c-1-1.1-1.9-2.2-2.9-3.2-1.1-1-2-2-3.1-3-1.1-.9-2.2-1.9-3.4-2.6-.6-.4-1.1-.8-1.8-1.2l-1.8-1.1c-2.5-1.3-5.1-2.4-7.7-3.1-.7-.2-1.3-.3-2-.4-.7-.1-1.3-.2-2-.3-.7-.1-1.3-.1-2-.1h-1c-.3 0-.7.1-.9.1-1.1.2-2.1-.5-2.4-1.6-.2-1.1.5-2.1 1.6-2.4.2.4.3.4.4.4zm-3.3-23.1c1.2 0 2.2.1 3.3.3 1.1.1 2.1.3 3.2.5s2.1.5 3.1.7c1 .3 2.1.6 3.1.9 4.1 1.3 8 3.1 11.5 5.4 3.6 2.3 6.9 4.9 9.7 8 1.5 1.5 2.7 3.2 4 4.8.7.8 1.2 1.7 1.7 2.6l1.7 2.6-1.9-2.5c-.6-.8-1.2-1.7-1.9-2.4-1.4-1.5-2.7-3.1-4.3-4.4-3-2.8-6.4-5.1-10-7-3.6-1.9-7.4-3.3-11.3-4.2l-3-.6c-1-.2-2-.3-3-.4-2-.2-4-.3-5.9-.2h-.1c-1.1.1-2-.8-2.1-1.9-.1-1.1.8-2 1.9-2.1.2-.1.3-.1.3-.1zm-2.3-25.3c2.5.1 4.7.3 7 .7 2.3.4 4.5.9 6.8 1.5 4.4 1.2 8.8 2.9 12.8 5 4.1 2.2 7.8 4.8 11.1 8 3.3 3.1 6.1 6.8 8.3 10.7-2.5-3.7-5.5-7.1-9-9.9-3.4-2.8-7.3-5.1-11.3-6.9-4-1.8-8.3-3.1-12.6-3.9-2.2-.4-4.3-.7-6.5-.9-2.2-.2-4.4-.3-6.5-.2h-.1c-1.1 0-2-.8-2.1-1.9 0-1.1.8-2 1.9-2.1.1-.1.2-.1.2-.1z" transform="matrix(-.799 -.5424 -.5424 .799 1700.3187 431.08561)"/>
            <path id="path89" d="M491.9 746.9c-.4.1-.9.2-1.4.3-.5.1-1 .3-1.4.4-1 .3-1.9.7-2.8 1.2-1.9.9-3.6 2-5.3 3.4-1.6 1.4-3.2 2.8-4.5 4.6-.7.8-1.3 1.7-1.9 2.6-.6.9-1.1 1.9-1.6 2.8.4-1 .8-2.1 1.2-3.1.5-1 .9-2 1.5-3 1.1-2 2.4-3.7 3.9-5.4 1.5-1.7 3.2-3.2 5.1-4.5.9-.7 1.9-1.3 3-1.8.5-.3 1-.5 1.6-.8.6-.3 1.1-.5 1.8-.7 1.1-.3 2.2.3 2.5 1.3.3 1.1-.3 2.2-1.3 2.5-.1.1-.2.2-.4.2zm-2.3-13.9h-.9c-.3 0-.6 0-1 .1-.7.1-1.3.2-2 .3-.7.1-1.3.3-2 .5s-1.3.4-1.9.7c-2.6 1-5 2.4-7.3 4l-1.7 1.3c-.6.4-1.1.9-1.6 1.4-1.1.9-2 2-3 3-1 1.1-1.8 2.2-2.7 3.3l-2.4 3.6h-.1v-.1c.7-1.3 1.3-2.6 2-3.8.8-1.2 1.5-2.5 2.4-3.7.9-1.2 1.7-2.4 2.7-3.5.5-.5.9-1.1 1.5-1.6l1.6-1.6c2.2-2 4.6-3.8 7.3-5.2.7-.3 1.4-.7 2.1-1 .7-.3 1.4-.6 2.2-.8.7-.2 1.5-.5 2.3-.6.4-.1.8-.2 1.2-.2.4-.1.8-.1 1.3-.2 1.1-.1 2.1.8 2.1 1.9.1 1.1-.8 2.1-1.9 2.1 0 .1-.1.1-.2.1zm-3.3-23.3c-1.8 0-3.9.2-5.8.5l-3 .6c-1 .3-2 .5-2.9.8-3.9 1.1-7.6 2.7-11.1 4.8-3.5 2.1-6.8 4.5-9.6 7.5-1.5 1.4-2.8 3-4.1 4.6-.7.8-1.2 1.7-1.8 2.5l-1.7 2.6 1.5-2.7c.5-.9 1-1.8 1.6-2.7 1.2-1.7 2.3-3.5 3.8-5 2.7-3.3 5.8-6.1 9.3-8.5 3.4-2.5 7.2-4.5 11.2-6 1-.4 2-.7 3-1.1 1-.3 2.1-.6 3.1-.9 1-.2 2.1-.5 3.2-.7 1.1-.2 2.1-.3 3.3-.4 1.1-.1 2.1.7 2.2 1.8.1 1.1-.7 2.1-1.8 2.2-.2.1-.2.1-.4.1zm-2.5-24.7c-2-.1-4.3 0-6.5.2s-4.4.5-6.5.9c-4.3.8-8.6 2.1-12.6 3.9-4 1.8-7.9 4.1-11.3 6.9-3.5 2.8-6.5 6.2-9 9.9 2.2-3.9 5-7.6 8.3-10.7 3.3-3.2 7.1-5.8 11.1-8s8.4-3.8 12.8-5c2.2-.6 4.5-1.1 6.8-1.5 2.3-.4 4.5-.6 7-.7 1.1 0 2 .8 2.1 1.9 0 1.1-.8 2-1.9 2.1-.1.1-.1.1-.3.1z" transform="matrix(-.799 -.5424 -.5424 .799 1700.3187 431.08561)"/>
        </g>
        <g class="wapuugotchi-item-leaf_storm__element_2" opacity="0">
            <path id="path95" fill="#feb20f" d="M516 694.6s-7.6 40.7 20.4 58.3c33.7 21.2 40.3 7.8 67.6 27.1 0 0 6.8-53.4-23.7-77.8-35.3-28.2-64.3-7.6-64.3-7.6Z" transform="matrix(-.799 -.5424 -.5424 .799 1800.3187 431.08561)"/>
            <path id="path96" fill="none" stroke="#000" stroke-width="4" d="M516 694.6s-7.6 40.7 20.4 58.3c33.7 21.2 40.3 7.8 67.6 27.1 0 0 6.8-53.4-23.7-77.8-35.3-28.2-64.3-7.6-64.3-7.6Z" transform="matrix(-.799 -.5424 -.5424 .799 1800.3187 431.08561)"/>
            <path id="path97" d="M501.4 685.4c10.5 4.1 20.5 9.1 30.2 14.6s19 11.8 27.7 18.8c4.3 3.5 8.5 7.2 12.5 11.1 4 3.9 7.7 8 11.3 12.3 3.5 4.3 6.7 8.9 9.6 13.7 2.8 4.8 5.3 9.8 7.3 15-2.2-5.1-4.8-10-7.8-14.7-3-4.6-6.3-9.1-9.9-13.3-3.6-4.2-7.5-8.2-11.5-11.9-4.1-3.7-8.3-7.3-12.7-10.6-8.8-6.6-18.2-12.5-27.9-17.7-9.7-5.2-19.8-9.8-30.1-13.5h-.1c-1-.4-1.6-1.5-1.2-2.6.4-1.1 1.5-1.6 2.6-1.2z" transform="matrix(-.799 -.5424 -.5424 .799 1800.3187 431.08561)"/>
            <path id="path98" d="M530.6 701.2c-.9 3.5-1.5 7.2-1.9 10.8-.4 3.7-.6 7.3-.4 11 .1 3.7.6 7.3 1.6 10.9.5 1.8 1.1 3.5 1.9 5.2.8 1.7 1.7 3.3 2.9 4.8-1.2-1.4-2.3-3-3.2-4.6-.9-1.6-1.6-3.4-2.3-5.1-1.2-3.6-2-7.3-2.4-11-.4-3.7-.5-7.5-.3-11.3.2-3.8.5-7.5 1.2-11.3zm17.3 9.6c-.6 3.4-.9 7-1 10.6-.1 3.6 0 7.1.4 10.7.4 3.5 1.1 7.1 2.2 10.5 1.2 3.4 2.8 6.6 4.9 9.5-2.3-2.8-4.2-5.9-5.6-9.3-1.4-3.4-2.3-6.9-3-10.5-.7-3.6-1-7.2-1.2-10.9-.1-3.7-.1-7.3.3-11zm18.7 15.4c-.4 1.2-.7 2.7-.9 4.1-.1.7-.2 1.4-.2 2.1-.1.7-.1 1.4-.1 2.1 0 2.9.4 5.7 1 8.5.4 1.4.7 2.8 1.2 4.2.3.7.5 1.4.7 2l.9 2c.3.7.6 1.3 1 2l1 1.9c.7 1.3 1.5 2.5 2.3 3.7-.8-1.2-1.7-2.4-2.5-3.6l-1.1-1.9c-.4-.6-.8-1.3-1.1-1.9l-1-2c-.3-.7-.6-1.4-.9-2-.6-1.3-1-2.8-1.5-4.2-.8-2.8-1.4-5.8-1.5-8.8-.2-3 0-6 .8-9zm18.5 18.6c-.5 1.7-.7 3.6-.8 5.5-.1 1.9 0 3.8.2 5.6.3 1.9.6 3.7 1.1 5.6.2.9.5 1.8.8 2.7.3.9.6 1.8 1 2.7-.4-.9-.7-1.7-1.1-2.6-.3-.9-.7-1.8-.9-2.7-.6-1.8-1-3.7-1.3-5.6-.3-1.9-.5-3.8-.5-5.7 0-1.9.1-3.8.6-5.8zm-51.7-43c1.3-.9 2.6-1.7 3.9-2.4.7-.4 1.3-.7 2-1l2.1-.9c2.8-1.1 5.6-1.9 8.6-2.3 1.5-.3 2.9-.3 4.4-.4 1.5.1 2.9 0 4.4.2 2.9.2 5.7 1.1 8.5 2-2.8-.7-5.6-1.3-8.5-1.3-1.4-.1-2.9.1-4.3.2-1.4.2-2.8.4-4.2.8-2.8.7-5.4 1.6-7.9 2.9-2.5 1.2-5 2.8-7 4.5zm17.9 11.2c2.6-1.5 5.2-2.5 7.9-3.2 2.7-.7 5.5-1.2 8.2-1.3 2.8-.1 5.5 0 8.2.5 1.4.2 2.7.6 4 .9 1.3.4 2.6.9 3.9 1.3-1.3-.3-2.6-.7-4-.9-1.3-.2-2.7-.5-4-.5-2.7-.3-5.4-.1-8 .2-2.6.3-5.2 1-7.7 1.9-1.2.5-2.4 1-3.6 1.6-1.1.6-2.3 1.3-3.3 2zm20.7 17.4c2-.6 4-1 6-1.2 2-.2 4.1-.3 6.1-.2 2 .1 4 .5 6 1 1.9.6 3.8 1.5 5.4 2.6-1.8-.9-3.6-1.7-5.6-2.1-1.9-.4-3.9-.6-5.9-.5-2 .1-3.9.3-5.8.7-1.9.4-3.8.9-5.6 1.6zm14.1 15.8c1.3-.1 2.5 0 3.7.1 1.2.1 2.5.4 3.7.7 1.2.3 2.4.7 3.5 1.3 1.1.5 2.1 1.2 3.1 2-1-.7-2.1-1.3-3.2-1.7-1.1-.4-2.3-.8-3.5-1-1.2-.2-2.4-.4-3.6-.4-1.2 0-2.4 0-3.6.1z" transform="matrix(-.799 -.5424 -.5424 .799 1800.3187 431.08561)"/>
        </g>
        <g class="wapuugotchi-item-leaf_storm__element_3" opacity="0">
            <path id="path1" fill="#b2b70b" d="M567 630.5s25.9 43.9 66.1 37.7c48.4-7.5 43.7-25.3 84.6-29.4 0 0-36.8-55.1-84.8-53.1-55.7 2.3-65.9 44.8-65.9 44.8z" transform="rotate(180 690.3773 535.2648) scale(.6593)"/>
            <path id="path2" fill="none" stroke="#000" stroke-width="4" d="M567 630.5s25.9 43.9 66.1 37.7c48.4-7.5 43.7-25.3 84.6-29.4 0 0-36.8-55.1-84.8-53.1-55.7 2.3-65.9 44.8-65.9 44.8z" transform="rotate(180 690.3773 535.2648) scale(.6593)"/>
            <path id="path3" d="M545.9 633.8c6.6-2.4 13.1-4.4 19.8-6.2 6.6-1.8 13.3-3.3 20.1-4.7 13.5-2.7 27.1-4.4 40.9-5 6.9-.3 13.7-.2 20.6.2 6.9.4 13.7 1.2 20.4 2.4 6.8 1.2 13.4 2.9 19.9 5 6.5 2.2 12.8 4.9 18.9 8-6.2-2.9-12.5-5.4-19.1-7.4-6.6-1.9-13.2-3.4-19.9-4.3-6.7-.9-13.5-1.6-20.3-1.7-6.8-.2-13.6 0-20.4.4-13.5 1-27 3.1-40.2 6.1-6.6 1.5-13.2 3.2-19.7 5.2s-13 4.1-19.1 6.6h-.1c-1.3.5-2.7-.1-3.2-1.4-.5-1.2.1-2.6 1.4-3.2 0 .1 0 0 0 0z" transform="rotate(180 690.3773 535.2648) scale(.6593)"/>
            <path id="path4" d="M585.8 625c2 3.9 4.4 7.8 7 11.5 2.6 3.7 5.4 7.3 8.5 10.6 3.1 3.3 6.5 6.3 10.3 8.8 1.9 1.2 3.9 2.4 6 3.3 2.1.9 4.3 1.6 6.5 2.1-2.3-.3-4.5-.9-6.7-1.7-2.2-.8-4.2-1.8-6.3-2.9-4-2.3-7.7-5.2-11.1-8.3-3.4-3.1-6.5-6.6-9.4-10.2-2.9-3.6-5.6-7.4-8-11.5zm23.8-5.1c2.2 3.6 4.8 7.2 7.6 10.6 2.8 3.4 5.8 6.6 9 9.6s6.7 5.7 10.5 7.9c1.9 1.1 3.9 2.1 5.9 2.9 2.1.8 4.2 1.5 6.3 2-2.2-.3-4.4-.8-6.5-1.5-2.1-.7-4.2-1.6-6.2-2.6-4-2-7.8-4.5-11.3-7.3-3.5-2.8-6.8-5.9-9.9-9.2-3.1-3.3-6-6.7-8.6-10.5zm29.8-.8c.6 1.5 1.5 3.1 2.4 4.5l1.5 2.1.8 1 .9 1c2.3 2.7 5 5 7.8 7.1 1.5 1 2.9 2 4.5 2.9.8.4 1.5.9 2.3 1.3l2.4 1.2c.8.4 1.6.7 2.5 1l2.5 1c1.7.6 3.4 1.1 5.1 1.6-1.7-.4-3.5-.8-5.2-1.3l-2.6-.8c-.9-.3-1.7-.6-2.5-.9l-2.5-1c-.8-.3-1.6-.8-2.4-1.2-1.7-.8-3.2-1.7-4.8-2.6-3-2-5.9-4.2-8.5-6.9l-1-1-.9-1c-.6-.7-1.2-1.4-1.7-2.2-1.1-1.5-2.1-3-3-4.8zm32.2 2.3c.9 2 2.3 4 3.7 5.8 1.4 1.8 3.1 3.5 4.8 5 1.7 1.5 3.6 3 5.5 4.3.9.7 2 1.2 2.9 1.9 1 .6 2 1.1 3.1 1.7-1-.5-2.1-1-3.1-1.6-1-.6-2.1-1.1-3-1.8-2-1.2-3.9-2.6-5.7-4.1-1.8-1.5-3.5-3.1-5.1-4.9-1.6-1.8-3-3.7-4.1-5.9zm-82.8 1.8c.5-1.9 1-3.6 1.7-5.3.3-.9.7-1.7 1.1-2.5l1.2-2.5c1.7-3.2 3.7-6.3 6.1-9 1.1-1.4 2.5-2.7 3.8-3.9l2.1-1.7c.4-.3.7-.6 1.1-.8l1.1-.8c2.9-2.1 6.2-3.6 9.5-4.9-3.2 1.6-6.3 3.3-8.9 5.7l-1 .8c-.3.3-.6.6-1 .9l-1.9 1.8c-1.1 1.3-2.3 2.6-3.3 4.1-2 2.8-3.7 5.9-5 9.1l-.9 2.4c-.3.8-.6 1.6-.8 2.5-.5 1.6-.9 3.4-1.1 4.9zm25.7-4.1c.6-1.8 1.3-3.3 2.1-4.9.8-1.5 1.7-3 2.6-4.5 1.9-2.9 4.1-5.5 6.6-7.8s5.2-4.5 8.1-6.2c1.4-.9 3-1.6 4.4-2.4.7-.4 1.5-.7 2.3-1l2.3-.9-2.2 1.1c-.7.4-1.5.7-2.2 1.2-1.4.9-2.8 1.7-4.1 2.8-2.7 1.9-5.1 4.2-7.3 6.7-2.2 2.4-4 5.2-5.6 8-.8 1.4-1.5 2.9-2.1 4.4-.6 1.5-1.1 3.1-1.5 4.5zm33.3-.5c1.4-2.2 2.9-4.1 4.6-6 1.7-1.9 3.5-3.6 5.5-5.1 2-1.5 4.1-2.8 6.4-3.9 2.3-1 4.7-1.7 7.1-2-2.4.6-4.7 1.4-6.8 2.6-2.1 1.2-4.1 2.6-5.9 4.3-1.8 1.6-3.4 3.4-4.9 5.3-1.5 1.9-2.8 4-3.9 6zm25.8 3.3c1.1-1.1 2.3-2 3.6-2.9 1.3-.9 2.6-1.6 3.9-2.3 1.4-.7 2.8-1.2 4.2-1.6 1.5-.4 3-.6 4.5-.7-1.5.2-3 .5-4.4 1-1.4.5-2.8 1.1-4 1.9-1.3.8-2.5 1.6-3.7 2.5-1.2.9-2.3 1.9-3.2 3z" transform="rotate(180 690.3773 535.2648) scale(.6593)"/>
        </g>
    </g>
</svg>
