<svg xmlns="http://www.w3.org/2000/svg" xmlns:xlink="http://www.w3.org/1999/xlink"  xml:space="preserve" viewBox="0 0 1000 1000">
  <g class="Body--group">
    <g class="kilt_1__body">
      <defs>
        <g id="kilt_1__full_element">
          <path fill="#E54C4B" d="M646.6 614.6c-.4 1.3-.9 2.7-1.3 3.9-.3.9-.7 1.8-1 2.7-.7 1.9-1.4 3.6-2.1 5.2-4.2 9.6-7.9 14.8-7.9 14.8-2.2.6-4.2 1.1-6.2 1.4-1.5.3-3 .4-4.4.5-.8.1-1.5.1-2.2.1-7.7.1-14-2.3-19.9-6.1-1.4-.9-2.8-1.8-4.2-2.9-1.9-1.4-3.8-2.9-5.7-4.5-1.7-1.4-3.4-2.9-5.2-4.5-1.4-1.2-2.8-2.4-4.3-3.7-7.6-6.4-16.5-13.2-28.3-18.8-1.5-.7-3-1.3-4.5-2-4.7-1.9-9.1-3.3-13.4-4.1-5.7-1.1-11.1-1.4-16.4-1-2.5.2-4.9.5-7.3 1-1.3.2-2.6.5-3.9.9-7.6 1.9-14.9 5-22.1 8.6-2.1 1-4.2 2.1-6.2 3.1-2.4 1.2-4.9 2.5-7.4 3.8-3.5 1.8-7 3.6-10.6 5.4-2.5 1.2-5 2.3-7.5 3.5-2.5 1.1-5 2.1-7.6 3-7.1 2.6-14.5 4.6-22.5 5.6-.8.1-1.5.2-2.3.2-1.8.2-3.7.3-5.4.4-3.7.2-7.2.2-10.6.1-10.5-.4-19.7-2.1-27.9-4.6-2.3-.7-4.5-1.5-6.6-2.3-1.3-.5-2.5-1-3.7-1.5-7.1-3.1-13.1-6.8-18-10.5-1.6-1.2-3.1-2.4-4.5-3.5-2.1-1.8-3.9-3.5-5.6-5.1-6.6-6.6-9.7-11.8-9.7-11.8 4-15.7 9.8-29.1 16.4-40.4 1.4-2.4 2.9-4.8 4.4-7.1 1-1.5 2-2.9 3-4.3 4.4-6.1 8.9-11.5 13.4-16.1 1.4-1.5 2.8-2.9 4.2-4.2 1.8-1.8 3.7-3.4 5.5-5 14.4-12.4 26.1-17.3 26.1-17.3l14.3 1.6 9.7 1.1 71.4 8.2 5.8.7 2.1.2 5.4.6 1.4.2 9 1 21.8 2.5 7.7.9 49.2 5.7 7.3.8 6 .7 19.5 2.2 7.6.9 5.8.7c1.3 4.5 2.4 8.9 3.3 13.2 6.4 31.8 2 57.9-3.9 75.9z"/>
          <path fill="#8F4253" d="M377 600c-4.8 9.9-7.7 17.9-9.3 22.8-7.1-3.1-13.1-6.8-18-10.5 3.8-10.8 8.7-21.1 14.1-30.8 3.9 6 8.3 12.2 13.2 18.5zm6.3-12c-1 1.7-1.9 3.4-2.8 5-4.8-6.3-9-12.5-12.8-18.3 1-1.6 1.9-3.1 2.9-4.7 3.8 5.6 8 11.7 12.7 18zm14.6-22.6c-1.2 1.6-2.3 3.2-3.4 4.8-3.9-5.3-7.9-11.1-11.8-17.4 1.2-1.6 2.5-3.2 3.7-4.8.9 1.5 1.9 3 2.8 4.6 2.6 4 5.5 8.3 8.7 12.8zm47.9-50.6c-18.2 15-32.4 30.3-43.5 44.6-4.2-6-7.9-11.8-11.2-17.3 18.7-22.4 35.5-36 35.5-36l19.2 8.7zM634 608.5c-6.8-3.5-13.3-7.1-19.4-10.8 4-19.8 5.6-45.2-.5-76l19.5 2.2c3.2 13.5 9.2 47.1.4 84.6zm-12 33.6c-.2.4-.4.7-.5 1.1-7.7.1-14-2.3-19.9-6.1.8-1.8 1.7-3.8 2.6-6 5.6 3.7 11.6 7.4 17.8 11zm10.2-26.7c-.5 1.8-1.1 3.7-1.7 5.6-6.4-3.1-12.8-6.5-19.2-10.2.5-1.9 1.1-3.8 1.6-5.9 6.2 3.6 12.6 7.1 19.3 10.5zM513 572.9c-2.4 8.9-3.9 17.2-4.8 24.8-7.6 1.9-14.9 5-22.1 8.6 1.2-20.2 6.1-38.4 11.7-53 4.4 6.1 9.4 12.8 15.2 19.6zm15.9-40.5c-1 1.9-1.9 3.8-2.9 5.7-4.3-5.5-8.5-11.1-12.4-17 1.5-2.5 2.7-4.2 3.3-5 3.4 4.9 7.3 10.4 12 16.3zM517.3 559c-.7 1.9-1.3 3.8-1.9 5.6-5.5-6.8-10.4-13.3-14.4-19.2.7-1.5 1.3-3 2-4.4 3.8 5.2 8.5 11.3 14.3 18zm21.1-43.1c-2.1 3.3-4 6.6-5.9 9.8-2.8-3.5-5.2-6.9-7.4-10.1l13.3.3zM426.9 500.2c-.3.3-18.4 14-38.4 37.2-1.3-2.3-2.6-4.5-3.7-6.7 13.3-15.1 25.5-26 32.4-31.7l9.7 1.2zm-66.4 76.2c-5.9 10.1-11.1 20.9-15.3 32.4-2.1-1.8-3.9-3.5-5.6-5.1 4.6-12.2 10.3-23.6 16.6-34.1 1.4 2.2 2.8 4.5 4.3 6.8zm7.1-11.4c-1 1.5-2 3-3 4.6-1.4-2.4-2.8-4.6-4.1-6.9l3-4.5c1.3 2.2 2.6 4.4 4.1 6.8zm16-21.8c-1.3 1.6-2.5 3.1-3.8 4.8-1.3-2.2-2.6-4.4-3.9-6.7l3.9-4.8c1.2 2.2 2.5 4.4 3.8 6.7zM461 518.9c-.4.3-26.5 19.5-50.9 51.1-1.5-2-3-3.9-4.4-5.9 4.9-6.3 9.8-12 14.3-16.9 19.4-21.3 36.1-33.4 36.8-33.9l4.2 5.6zm-69.7 79.2c-.9 1.6-1.9 3.3-2.7 5-1.6-2-3.2-3.9-4.8-5.9.9-1.7 1.8-3.3 2.8-4.9 1.5 1.9 3.1 3.8 4.7 5.8zm-6.2 11.9c-2.6 5.4-5 11-7.1 16.8-2.3-.7-4.5-1.5-6.6-2.3 2.6-7 5.5-13.8 8.8-20.3 1.6 1.9 3.2 3.8 4.9 5.8z"/>
          <path fill="#8F4253" d="M388.6 603.1c-1.2 2.3-2.4 4.6-3.5 6.9-1.7-1.9-3.3-3.9-4.9-5.9 1.2-2.3 2.4-4.7 3.6-6.9 1.6 1.9 3.2 3.9 4.8 5.9zm17.1-27.3c-1.1 1.5-2.2 3-3.3 4.6-1.5-1.8-3-3.8-4.6-5.7 1.1-1.6 2.2-3.2 3.4-4.7 1.5 1.9 3 3.9 4.5 5.8zM376 541.3c-4.2 5.3-8.4 10.9-12.5 16.9-4.6-7.8-7.9-14.1-9.8-18.2 4.4-6.1 8.9-11.5 13.4-16.1 2.8 6.1 5.8 11.9 8.9 17.4z"/>
          <path fill="#013C51" d="M379.8 548c-4.2 5.3-8.3 11-12.2 17-1.5-2.3-2.8-4.6-4.1-6.8 4.1-6 8.3-11.7 12.5-16.9 1.2 2.3 2.5 4.5 3.8 6.7z"/>
          <path fill="#8F4253" d="M382.7 552.8c-4.1 5.4-8.1 11.1-12 17.2-1.1-1.7-2.1-3.3-3.1-4.9 4-6 8.1-11.7 12.2-17 1 1.5 2 3.1 2.9 4.7z"/>
          <path fill="#013C51" d="M394.5 570.2c-4.3 6.2-8 12.2-11.2 17.8-4.7-6.2-8.9-12.3-12.6-18 3.9-6.1 7.9-11.8 12-17.2 3.9 6.2 7.9 12 11.8 17.4z"/>
          <path fill="#8F4253" d="M397.9 574.7c-3.9 5.5-7.7 11.4-11.3 17.6-1.1-1.4-2.2-2.8-3.3-4.3 3.2-5.6 6.9-11.5 11.2-17.8 1.1 1.5 2.3 3 3.4 4.5z"/>
          <path fill="#013C51" d="M402.5 580.4c-3.9 5.6-7.6 11.5-11.1 17.7-1.6-2-3.2-3.9-4.7-5.8 3.6-6.2 7.4-12.1 11.3-17.6 1.4 2 2.9 3.9 4.5 5.7z"/>
          <path fill="#8F4253" d="M448.6 622.9c-.6.7-1.2 1.5-1.8 2.1-7.1 2.6-14.5 4.6-22.5 5.6-12.5-9.9-23.5-21.3-32.9-32.6 3.5-6.2 7.2-12.1 11.1-17.7 19.4 23.8 37.5 37.1 46.1 42.6zm-88.1-60.2c-1.5 2.2-2.9 4.5-4.3 6.9-4-6.8-7.4-13-9.9-18.1 1.4-2.4 2.9-4.8 4.4-7.1 2.4 4.9 5.7 11.2 9.8 18.3zm7.3 11.9c-1.4 2.3-2.7 4.6-4 6.9l-3.3-5.1c1.3-2.3 2.7-4.6 4.2-6.9.9 1.7 2 3.4 3.1 5.1z"/>
          <path fill="#013C51" d="M364.6 569.6c-1.4 2.2-2.8 4.5-4.2 6.9-1.5-2.3-2.9-4.6-4.2-6.9 1.4-2.3 2.8-4.6 4.3-6.9 1.3 2.2 2.7 4.5 4.1 6.9zm16 23.4c-1.3 2.4-2.5 4.8-3.6 7.1-4.9-6.3-9.3-12.5-13.2-18.5 1.3-2.4 2.7-4.7 4-6.9 3.8 5.8 8 12 12.8 18.3z"/>
          <path fill="#8F4253" d="M383.8 597.2c-1.2 2.3-2.5 4.6-3.6 6.9-1.1-1.4-2.2-2.7-3.2-4.1 1.1-2.3 2.3-4.6 3.6-7.1 1 1.5 2.1 2.9 3.2 4.3zm32.7 34.1c-3.7.2-7.2.2-10.6.1-7.6-6.9-14.5-14.1-20.8-21.4 1.1-2.3 2.3-4.6 3.5-6.9 8.1 9.7 17.4 19.4 27.9 28.2z"/>
          <path fill="#013C51" d="M388.6 603.1c-1.2 2.3-2.4 4.6-3.5 6.9-1.7-1.9-3.3-3.9-4.9-5.9 1.2-2.3 2.4-4.7 3.6-6.9 1.6 1.9 3.2 3.9 4.8 5.9z"/>
          <path fill="#8F4253" d="M391.2 542.1c-1.6 1.9-3.2 3.8-4.7 5.8-1-1.6-1.9-3.2-2.8-4.7 1.6-2 3.2-3.9 4.8-5.8.8 1.6 1.7 3.1 2.7 4.7z"/>
          <path fill="#013C51" d="M388.5 537.5c-1.6 1.9-3.2 3.8-4.8 5.8-1.4-2.3-2.6-4.5-3.8-6.7 1.6-2 3.3-3.9 4.9-5.8 1.1 2.1 2.4 4.3 3.7 6.7z"/>
          <path fill="#8F4253" d="M384.8 530.8c-1.6 1.8-3.3 3.8-4.9 5.8-3.6-6.5-6.4-12.2-8.6-16.8 1.8-1.8 3.7-3.4 5.5-5 1.9 4.2 4.5 9.7 8 16z"/>
          <path fill="#013C51" d="M402.4 559.4c-1.6 2-3 4-4.5 5.9-3.2-4.5-6.1-8.8-8.6-12.8-1-1.6-1.9-3.1-2.8-4.6 1.6-2 3.2-4 4.7-5.8 3.3 5.5 7 11.3 11.2 17.3zm7.7 10.6c-1.5 1.9-2.9 3.9-4.4 5.9-1.5-2-3-3.9-4.4-5.8 1.5-2 3-4 4.4-5.9 1.4 1.9 2.9 3.8 4.4 5.8z"/>
          <path fill="#8F4253" d="M405.7 564.1c-1.5 1.9-3 3.9-4.4 5.9-1.2-1.6-2.3-3.1-3.4-4.6 1.4-2 2.9-3.9 4.5-5.9 1.1 1.5 2.2 3 3.3 4.6zm56.1 54.5c-2.5 1.2-5 2.3-7.5 3.5-19.9-13.4-36.1-30.2-48.6-46.2 1.4-2 2.9-4 4.4-5.9 13.5 17.4 30.7 35.2 51.7 48.6zM504 509c-2.9 5.4-6.1 11.9-9.3 19.2-3.2-5.4-4.4-8.4-4.4-8.4l8-11.5 5.7.7zm9.7 12.1c-2.7 4.4-6.6 11.2-10.6 19.9-1.4-1.9-2.6-3.7-3.7-5.4 3.4-8.1 6.9-15.3 10-21.2 1.3 2.2 2.8 4.5 4.3 6.7z"/>
          <path fill="#013C51" d="M526.1 538.1c-3.5 7.2-6.4 14.2-8.7 20.8-5.9-6.7-10.6-12.8-14.3-18 4-8.7 7.9-15.5 10.6-19.9 3.9 6 8.1 11.7 12.4 17.1z"/>
          <path fill="#8F4253" d="M529.3 542.1c-.1.2-.2.4-.2.6-2.7 6.1-5.4 12.9-8 20.4-1.3-1.4-2.5-2.8-3.7-4.2 2.4-6.7 5.2-13.6 8.7-20.8 1 1.4 2.1 2.7 3.2 4zm70.7 61.8c-1.6 6.8-3.6 13.7-6.2 20.5-29.9-20.1-51.7-39.2-67.3-55.5 2.4-7.4 5.1-14.4 7.9-20.8 19.4 22.3 41.9 40.9 65.6 55.8zm11.4 6.9c-2.3 8-4.9 14.8-7.3 20.4-1.5-.9-2.9-1.9-4.3-2.8 2.7-6.9 4.8-13.8 6.5-20.6l5.1 3z"/>
          <path fill="#013C51" d="M630.5 621c-2.2 7-5.1 14.1-8.6 21.2-6.2-3.7-12.2-7.3-17.8-11 2.4-5.6 5-12.4 7.3-20.4 6.3 3.6 12.7 7 19.1 10.2z"/>
          <path fill="#8F4253" d="M636.3 623.7c-2.2 6.5-4.9 12.8-8.2 18.9-.4.8-.8 1.6-1.3 2.3-1.1-.6-2.1-1.2-3.1-1.8-.6-.3-1.1-.7-1.7-1 3.5-7.1 6.3-14.2 8.6-21.2 1.9 1 3.8 1.9 5.7 2.8zm-143.6-90.9c-1.1 2.6-2.2 5.3-3.3 8.1-6.9-10.8-10.7-18.2-11.1-19.2l6.3-3.1c0 .2 2.8 5.6 8.1 14.2z"/>
          <path fill="#013C51" d="M515.5 564.6c-.9 2.8-1.7 5.6-2.4 8.3-5.8-6.8-10.9-13.5-15.2-19.6 1-2.8 2.1-5.4 3.2-7.9 4 5.9 8.8 12.4 14.4 19.2z"/>
          <path fill="#8F4253" d="M501 545.4c-1.1 2.5-2.2 5.1-3.2 7.9-1.2-1.7-2.4-3.4-3.5-5.1 1-2.8 2.1-5.5 3.1-8.1 1.1 1.7 2.4 3.5 3.6 5.3zm18.1 23.6c-.8 2.6-1.7 5.4-2.4 8.2-1.3-1.4-2.5-2.8-3.7-4.3.7-2.7 1.5-5.5 2.4-8.3 1.2 1.5 2.5 2.9 3.7 4.4zm34.7 33.9c-1.5-.7-3-1.3-4.5-2-4.7-1.9-9.1-3.3-13.4-4.1-4.8-4.4-9.3-8.9-13.5-13.5.7-2.8 1.5-5.5 2.3-8.1 8.4 9.4 18.1 19 29.1 27.7zm33.2 21.3-.6 1.2c-1.4-1.2-2.8-2.4-4.3-3.7 1.6.8 3.2 1.7 4.9 2.5zm-61.8-108.6-7.7-.2s-.2.2-.5.6c-1.4-2.1-2.7-4.1-3.9-6l9 1c.9 1.6 2 3.1 3.1 4.6z"/>
          <path fill="#013C51" d="M532.6 525.7c-1.3 2.3-2.5 4.5-3.7 6.7-4.7-5.9-8.6-11.4-12-16.3.3-.4.5-.6.5-.6l7.7.2c2.3 3.1 4.7 6.5 7.5 10z"/>
          <path fill="#8F4253" d="M535.4 529.3c-1.1 2.2-2.2 4.5-3.4 6.9-1.1-1.3-2.1-2.6-3.1-3.8 1.2-2.2 2.4-4.4 3.7-6.7.9 1.2 1.8 2.4 2.8 3.6zm67.1 60.8c-.4 2.5-.8 5-1.3 7.5-29-18.8-50-39.1-64.2-55.5 1.1-2.4 2.2-4.7 3.3-6.9.2.2.4.5.6.7 13.5 15.8 33.6 35.7 61.6 54.2zm37.4 21.3-1.8 6.9c-2-1-3.9-1.9-5.9-2.9.7-2.3 1.2-4.6 1.8-6.9 1.9 1 3.9 2 5.9 2.9z"/>
          <path fill="#013C51" d="M634 608.5c-.5 2.3-1.1 4.6-1.8 6.9-6.7-3.4-13.1-6.9-19.2-10.5.6-2.3 1.1-4.7 1.6-7.2 6.1 3.7 12.6 7.3 19.4 10.8z"/>
          <path fill="#8F4253" d="M614.6 597.7c-.5 2.5-1.1 4.9-1.6 7.2-1.8-1.1-3.6-2.1-5.3-3.2.5-2.5 1-5 1.4-7.4 1.7 1.1 3.6 2.3 5.5 3.4zm32 16.9c-.4 1.3-.9 2.7-1.3 3.9.4-1.3.7-2.7 1.1-4 0 0 .1.1.2.1zm-135-104.7c-.8 1.4-1.5 2.9-2.3 4.4-1.1-1.7-2.1-3.4-3.1-5.1l5.4.7z"/>
          <path fill="#013C51" d="M509.3 514.4c-3.1 6-6.5 13.2-10 21.2-1.9-2.8-3.4-5.3-4.6-7.4 3.2-7.3 6.5-13.8 9.3-19.2l.9-1.8c.4.7.8 1.4 1.2 2 1.1 1.8 2.1 3.5 3.2 5.2z"/>
          <path fill="#8F4253" d="M499.3 535.6c-.6 1.5-1.2 3-1.9 4.5-1.8-2.6-3.3-5.1-4.7-7.3.7-1.6 1.3-3.1 2-4.6 1.2 2.1 2.7 4.6 4.6 7.4z"/>
          <path fill="#013C51" d="M497.4 540.1c-1.1 2.6-2.1 5.3-3.1 8.1-1.8-2.6-3.4-5.1-4.9-7.4 1.1-2.8 2.2-5.5 3.3-8.1 1.4 2.3 3 4.8 4.7 7.4z"/>
          <path fill="#8F4253" d="M494.3 548.2c-6.6 17.8-12.4 38.9-14.4 61.2-2.4 1.2-4.9 2.5-7.4 3.8 1.8-26.9 9-52 16.9-72.3 1.5 2.3 3.1 4.8 4.9 7.3zm57.2-33.7c-3.2 5.3-7.1 12.3-11.2 20.7-1.7-2-3.4-4-4.9-6 3-6 5.9-11.3 8.5-15.6l7.6.9z"/>
          <path fill="#013C51" d="M540.3 535.2c-1.1 2.2-2.2 4.5-3.3 6.9-.6-.6-1.1-1.3-1.7-1.9-1.2-1.4-2.3-2.7-3.4-4.1 1.1-2.4 2.3-4.7 3.4-6.9 1.6 2 3.3 4 5 6zm-5.9 12.9c-2.8 6.4-5.4 13.4-7.9 20.8-1.9-2-3.7-3.9-5.5-5.8 2.6-7.5 5.3-14.4 8-20.4.1-.2.2-.4.2-.6 1.8 2.1 3.5 4.1 5.2 6z"/>
          <path fill="#8F4253" d="M526.5 569c-.7 2.1-1.3 4.2-2 6.3-1.9-2.1-3.7-4.2-5.5-6.2.6-2 1.3-4 1.9-5.9 1.9 1.8 3.7 3.8 5.6 5.8z"/>
          <path fill="#013C51" d="M524.6 575.2c-.8 2.7-1.6 5.4-2.3 8.1-1.9-2.1-3.8-4.1-5.6-6.2.8-2.8 1.6-5.5 2.4-8.2 1.8 2.2 3.6 4.2 5.5 6.3z"/>
          <path fill="#8F4253" d="M522.3 583.3c-1.1 4.1-2 8.2-2.8 12.5-2.5.2-4.9.5-7.3 1 1.3-6.8 2.8-13.4 4.6-19.7 1.7 2.1 3.6 4.2 5.5 6.2zm14.7-41.1c-.9 1.9-1.8 3.9-2.6 6l-5.1-6c.9-2 1.8-4 2.7-5.9 1.1 1.3 2.2 2.7 3.4 4.1.5.5 1.1 1.1 1.6 1.8zm109.4 72.3c-2.2-1-4.3-2-6.5-3 8-33 4.6-67 1.3-86.6l5.8.7c1.3 4.5 2.4 8.9 3.3 13.2.7 6.3 1.3 13.4 1.5 20.9.5 15.6-.5 35.1-5.4 54.8z"/>
          <path fill="#013C51" d="M646.4 614.5c-.3 1.3-.7 2.7-1.1 4-.3.9-.5 1.8-.8 2.8-.1 0-.1-.1-.2-.1-2.1-.9-4.2-1.9-6.2-2.9.7-2.3 1.3-4.6 1.8-6.9 2.1 1 4.3 2.1 6.5 3.1zm-3.7 12.1c-2 5.7-4.3 11.3-7.1 16.7-1.6 1.6-3.3 1.7-4.5 2.8-1.5-.9-2.8-.3-4.3-1.2.4-.8.9-1.6 1.3-2.3 3.3-6.1 6-12.4 8.2-18.9 1.9.9 3.9 1.8 5.8 2.7.2.1.4.2.6.2z"/>
          <path fill="#8F4253" d="M644.5 621.3c-.5 1.8-1.1 3.6-1.7 5.3-.2-.1-.4-.2-.6-.2-1.9-.9-3.9-1.7-5.8-2.7.6-1.8 1.2-3.6 1.7-5.4 2 1 4.1 1.9 6.2 2.9 0 0 .1.1.2.1zm-35.5-27c-2.2-1.4-4.3-2.8-6.4-4.2 4.1-28.5 1.1-54.6-1.8-70l7.3.8c1.5 8.5 3 19.7 3.4 32.6.4 11.8 0 25.8-2.5 40.8z"/>
          <path fill="#013C51" d="M609 594.3c-.4 2.4-.8 4.9-1.4 7.4-2.2-1.3-4.3-2.7-6.3-4 .5-2.5.9-5 1.3-7.5 2 1.3 4.2 2.7 6.4 4.1z"/>
          <path fill="#8F4253" d="M607.6 601.7c-.4 2-.9 4-1.4 6.1l-6.3-3.9c.5-2.1.9-4.2 1.3-6.2 2.1 1.3 4.3 2.7 6.4 4z"/>
          <path fill="#013C51" d="M606.3 607.8c-1.7 6.8-3.8 13.7-6.5 20.6-2-1.3-4-2.6-6-4 2.6-6.8 4.6-13.7 6.2-20.5l6.3 3.9z"/>
          <path fill="#8F4253" d="M599.8 628.4c-.8 2-1.6 4-2.5 5.9-1.9-1.4-3.8-2.9-5.7-4.5.8-1.8 1.5-3.6 2.2-5.4 2 1.4 4 2.7 6 4z"/>
          <path fill="none" stroke="#FFF" stroke-width="2" d="M359.6 530.8s31.7 67.3 78.9 97"/>
          <path fill="none" stroke="#FFF" stroke-width="2" d="M435.4 510.1S377 557 358 618.7m171.3-103.9s-27.3 33.4-32.6 87.5M625.4 523s13.2 77.9-14.9 117.2"/>
          <path fill="none" stroke="#FFF" stroke-width="2" d="M495.3 512.7s45.6 81 143.3 122.3"/>
          <path fill="#086B08" d="M647 525.5c-208.7 18.8-244.2-28-244.2-28l1.5-21.2s34.9 46.3 243.6 27.6l-.9 21.6z"/>
          <path fill="#F75407" d="m422.1 507.7 2.5-16.6 30.7 9.8-2.3 17.4z"/>
          <path fill="none" stroke="#000" stroke-width="7" d="M647 525.5c-208.7 18.8-244.2-28-244.2-28l1.5-21.2s34.9 46.3 243.6 27.6l-.9 21.6z"/>
          <path fill="none" stroke="#000" stroke-width="7" d="M402.8 497.4s-54.7 23.1-72.9 94.4c0 0 26.8 45.2 92.1 39.1 50-4.7 77.6-50.5 127.3-30 42.1 17.3 48.2 50.9 85 40.3 0 0 33-46.6 12.7-115.7m-222.9-35.3-2.3 19.6m33.5-10-2.3 20.1"/>
          <circle cx="488.8" cy="515.3" r="2.9" fill="#F75407"/>
          <circle cx="488.8" cy="515.3" r="2.9" fill="none" stroke="#000"/>
          <circle cx="554.6" cy="519.9" r="2.9" fill="#F75407"/>
          <circle cx="554.6" cy="519.9" r="2.9" fill="none" stroke="#000"/>
          <circle cx="619.4" cy="518.2" r="2.9" fill="#F75407"/>
          <circle cx="619.4" cy="518.2" r="2.9" fill="none" stroke="#000"/>
          <path fill="#086B08" d="m426.3 495.3-1.1 10.5s8.4 3.5 25.5 8.1l1.4-10.4c.1.1-19.4-4.8-25.8-8.2z"/>
          <path fill="none" stroke="#000" d="m426.3 495.3-1.1 10.5s8.4 3.5 25.5 8.1l1.4-10.4c.1.1-19.4-4.8-25.8-8.2z"/>
        </g>
        <path id="kilt_1__leg_cut" fill="" d="M 571.86914 558.75 C 558.98257 558.88791 545.32459 562.73713 533.59961 572.09961 C 525.2756 578.73632 519.77808 585.20467 516.02539 591.69922 L 516.90039 591.69922 C 517.70039 591.69922 518.49922 591.70078 519.19922 591.80078 L 520.30078 591.90039 C 522.10078 592.10039 523.99922 592.19961 525.69922 592.59961 L 528.90039 593.09961 L 532.19922 593.80078 C 533.59922 594.10078 535.1 594.50039 536.5 594.90039 C 537.2 595.10039 537.8 595.30039 538.5 595.40039 C 539.2 595.60039 539.8 595.8 540.5 596 C 540.9 596.1 541.80078 596.40039 541.80078 596.40039 C 542.80078 596.70039 543.79922 597.00039 544.69922 597.40039 L 547.69922 598.59961 L 550.69922 599.90039 C 551.59922 600.30039 552.59961 600.80078 553.59961 601.30078 C 553.99961 601.50078 554.29922 601.70078 554.69922 601.80078 L 556.5 602.69922 C 560 604.59922 563.69961 606.70039 567.59961 609.40039 C 573.7996 613.60039 579.7004 618.30079 585.40039 622.80078 L 588 624.90039 C 590.54664 626.9109 593.11777 628.83483 595.72461 630.69531 C 609.55973 617.7834 620.01107 601.036 619.40039 593.30078 C 618.85333 586.09789 616.22089 579.50859 613.0332 575.5918 C 613.0836 574.57891 612.74724 573.54802 612 572.80078 C 603.73127 564.53205 588.43759 558.57268 571.86914 558.75" />
        <clipPath id="kilt_1__leg_cut_clip">
            <use xlink:href="#kilt_1__leg_cut"/>
        </clipPath>
      </defs>
      <use xlink:href="#kilt_1__full_element" />
    </g>
  </g>
  <g class="LeftLeg--group">
    <g class="kilt_1__left_leg">
      <path d="M 517.5 590.67578 C 517.21448 590.67578 516.93871 590.68129 516.65625 590.6875 C 515.22064 593.05498 514.00503 595.42538 512.99609 597.80664 C 513.03074 597.80491 513.06496 597.80251 513.09961 597.80078 C 514.09961 597.70078 515.09961 597.80078 516.09961 597.80078 C 517.09961 597.80078 518.09961 597.80039 519.09961 597.90039 C 521.09961 598.10039 523.09961 598.19961 525.09961 598.59961 L 528.09961 599.09961 L 531.09961 599.80078 C 533.09961 600.20078 535 600.80039 537 601.40039 C 538 601.70039 538.90039 602.00078 539.90039 602.30078 C 540.90039 602.60078 541.80078 602.90078 542.80078 603.30078 L 545.69922 604.40039 L 548.5 605.59961 C 549.4 605.99961 550.40078 606.40039 551.30078 606.90039 C 552.20078 607.40039 553.1 607.80078 554 608.30078 C 557.6 610.20078 561.09961 612.39922 564.59961 614.69922 C 571.4996 619.29921 577.99923 624.6004 584.69922 629.90039 C 586.77786 631.57671 588.91933 633.19094 591.08789 634.77734 C 592.90525 633.28214 594.66505 631.69178 596.38672 630.05664 C 593.80822 628.22522 591.24756 626.31263 588.69922 624.30078 C 582.09923 619.10079 575.39921 613.60078 568.19922 608.80078 C 564.59922 606.40078 560.8 604.1 557 602 L 554 600.5 C 553 600 552 599.49961 551 599.09961 L 548 597.80078 L 544.90039 596.59961 C 543.90039 596.19961 542.80078 595.8 541.80078 595.5 C 540.70078 595.2 539.69961 594.8 538.59961 594.5 C 536.49961 593.9 534.39922 593.30078 532.19922 592.80078 L 529 592.09961 L 525.80078 591.59961 C 523.70078 591.19961 521.39922 591.00078 519.19922 590.80078 C 518.64922 590.70078 518.075 590.67578 517.5 590.67578"/>
      <g clip-path="url(#kilt_1__leg_cut_clip)">
          <use xlink:href="#kilt_1__full_element" />
      </g>
    </g>
  </g>
</svg>