<?xml version="1.0" encoding="UTF-8"?>
<svg viewBox="0 0 1e3 1e3" xmlns="http://www.w3.org/2000/svg" xmlns:xlink="http://www.w3.org/1999/xlink">
  <path d="M436.6 504c-4.5 5.1-10.5 7.9-17 7.9-9.1 0-18.5-5.5-24.4-14.4-7.8-11.6-15.5-21.2-22.3-27.9l-4.8-4.7c-2-2-1.1-5.3 1.6-6.1l6.5-1.7c3.2-.9 6.4-2.7 9.1-5.5 3-3 4.8-6.7 5.2-10.4V430c0-1.3 1.5-2.1 2.5-1.3l9.3 6.9c.7.5 1.7 1.1 2.9 1.7 10.2 4.9 31.7 27.4 35.7 46.7 2.1 10.1-1.2 16.5-4.3 20z"/>
  <path class="st0" d="M402.1 444.1c-1.5-.7-2.9-1.5-4.2-2.4-.5 5.5-3 11-7.3 15.3-3.7 3.7-8.1 6.2-12.5 7.4 8.7 8.6 17 19.8 23.2 29.1 4.5 6.7 11.6 11.1 18.3 11.1 4.1 0 8.1-1.6 11.4-5.4 13-14.8-17.3-49.6-28.9-55.1z" fill="#fc0"/>
  <path d="M599.1 649.5c-9 25.7-26.4 50-50.3 70.3-23.8 20.3-51.8 34.7-81 41.6-6.9 1.6-14.1 2.5-21.5 2.5-30.8 0-58.9-13.9-74.8-27-13.6-11.1-21.2-23.3-20.9-33.5.4-12 6.7-20.7 16.8-23.3 2.1-.5 4.3-.8 6.7-.8 11.2 0 27.2 6.7 38.5 25.7 7.8 13.2 22 20.1 41.1 20.1h1.2c40.7-.8 87.6-31.2 109.1-70.8 7.7-14.1 13.2-29.6 17.1-40.8 1.9-5.4 3.6-10.1 5.1-13.5 1.3-3.1 4.1-9.4 10.4-9.4 4.1 0 7.6 1.8 9.9 5 5.5 7.6 3.3 23.3-7.4 53.9z"/>
  <path class="st1" d="M570.5 657.8c-22.7 41.7-72.5 73.9-115.5 74.7h-1.4c-21.6 0-38.3-8.4-47.4-23.8-9-15.1-22-22.1-32.1-22.1-1.7 0-3.3.2-4.8.6-7 1.8-11 7.6-11.3 16.4-.3 7.7 6.6 18 18.2 27.5 16.8 13.7 43.2 25.3 70.1 25.3 6.6 0 13.3-.7 19.8-2.3 57.2-13.5 108.5-57.4 126-107.1 5.4-15.3 16.7-49.2 4.5-49.2-4.5.1-10.8 31.8-26.1 60z" fill="#f80"/>
  <path d="M649.7 531.9c-2 24-6.7 45.1-13.9 62.9-8.5 20.9-20.3 36.6-35.1 46.8-34 23.4-64.8 26-76.4 26-1.3 0-2.5 0-3.8-.1-18.4-.8-26-4.4-32.7-7.5-5.9-2.8-11-5.2-24.9-5.7-37.5-1.5-67-9.9-83.1-23.6-.2-.1-.5-.4-.9-.7-4.8-3.5-19.3-14.3-25-24.7-5.3-9.7-6.2-22.3-2.3-31.4 13.4-31.2 24.5-40.5 33.5-48 3.6-3 6.4-5.3 8.8-8.7 2.2-3.1 3.8-7.1 4.9-12.2 0-.1 0-.2.1-.3 3.9-15 3.4-34.9 2.8-56-.2-5.7-.3-11.7-.4-17.5v-.1c0-18.6 9.6-40.7 25.7-59.2 18.1-20.8 41.6-33.6 66.1-36.2 20.2-2.1 34.3-3.1 45.9-3.1 43.7 0 58.6 14.8 82.2 48.4 7.5 10.6 12.1 22.5 16 33.7 11.1 30.4 15.9 76.5 12.5 117.2z"/>
  <path class="st0" d="M358.5 576.7c-3 7-2.2 17.4 2 25 5.6 10.3 23 22.2 24.1 23.2 15.1 12.9 43.7 20.5 78.7 21.9 31.2 1.3 24.3 11.8 57.6 13.3 1.1 0 2.2.1 3.5.1 16.7 0 43.7-5 72.2-24.7 58-39.9 52.9-165.3 34-218.6-3.9-11.1-8.3-22.2-15.1-31.9-23.5-33.5-36.6-45.2-76.2-45.2-12.2 0-26.9 1.1-45.1 3.1-49.9 5.3-85.3 55.3-85.3 88.1.3 27.4 2.5 55.1-2.7 75.5-1.4 6.5-3.4 11.2-6 14.9-9.8 13.5-23.4 12.4-41.7 55.3z" fill="#fc0"/>
  <g class="kilt_1__body">
    <defs>
      <clipPath id="e">
        <use xlink:href="#f"/>
      </clipPath>
      <path id="f" d="m571.87 558.75c-12.887 0.13791-26.545 3.9871-38.27 13.35-8.324 6.6367-13.822 13.105-17.574 19.6h0.875c0.8 0 1.5988 0.00156 2.2988 0.10156l1.1016 0.09961c1.8 0.2 3.6984 0.29922 5.3984 0.69922l3.2012 0.5 3.2988 0.70117c1.4 0.3 2.9008 0.69961 4.3008 1.0996 0.7 0.2 1.3 0.4 2 0.5 0.7 0.2 1.3 0.39961 2 0.59961 0.4 0.1 1.3008 0.40039 1.3008 0.40039 1 0.3 1.9984 0.6 2.8984 1l3 1.1992 3 1.3008c0.9 0.4 1.9004 0.90039 2.9004 1.4004 0.4 0.2 0.69961 0.4 1.0996 0.5l1.8008 0.89844c3.5 1.9 7.1996 4.0012 11.1 6.7012 6.2 4.2 12.101 8.9004 17.801 13.4l2.5996 2.0996c2.5466 2.0105 5.1178 3.9344 7.7246 5.7949 13.835-12.912 24.286-29.659 23.676-37.395-0.54706-7.2029-3.1795-13.792-6.3672-17.709 0.0504-1.0129-0.28596-2.0438-1.0332-2.791-8.2687-8.2687-23.562-14.228-40.131-14.051"/>
      <g id="d">
        <path d="M646.6 614.6c-.4 1.3-.9 2.7-1.3 3.9-.3.9-.7 1.8-1 2.7-.7 1.9-1.4 3.6-2.1 5.2-4.2 9.6-7.9 14.8-7.9 14.8-2.2.6-4.2 1.1-6.2 1.4-1.5.3-3 .4-4.4.5-.8.1-1.5.1-2.2.1-7.7.1-14-2.3-19.9-6.1-1.4-.9-2.8-1.8-4.2-2.9-1.9-1.4-3.8-2.9-5.7-4.5-1.7-1.4-3.4-2.9-5.2-4.5-1.4-1.2-2.8-2.4-4.3-3.7-7.6-6.4-16.5-13.2-28.3-18.8-1.5-.7-3-1.3-4.5-2-4.7-1.9-9.1-3.3-13.4-4.1-5.7-1.1-11.1-1.4-16.4-1-2.5.2-4.9.5-7.3 1-1.3.2-2.6.5-3.9.9-7.6 1.9-14.9 5-22.1 8.6-2.1 1-4.2 2.1-6.2 3.1-2.4 1.2-4.9 2.5-7.4 3.8-3.5 1.8-7 3.6-10.6 5.4-2.5 1.2-5 2.3-7.5 3.5-2.5 1.1-5 2.1-7.6 3-7.1 2.6-14.5 4.6-22.5 5.6-.8.1-1.5.2-2.3.2-1.8.2-3.7.3-5.4.4-3.7.2-7.2.2-10.6.1-10.5-.4-19.7-2.1-27.9-4.6-2.3-.7-4.5-1.5-6.6-2.3-1.3-.5-2.5-1-3.7-1.5-7.1-3.1-13.1-6.8-18-10.5-1.6-1.2-3.1-2.4-4.5-3.5-2.1-1.8-3.9-3.5-5.6-5.1-6.6-6.6-9.7-11.8-9.7-11.8 4-15.7 9.8-29.1 16.4-40.4 1.4-2.4 2.9-4.8 4.4-7.1 1-1.5 2-2.9 3-4.3 4.4-6.1 8.9-11.5 13.4-16.1 1.4-1.5 2.8-2.9 4.2-4.2 1.8-1.8 3.7-3.4 5.5-5 14.4-12.4 26.1-17.3 26.1-17.3l14.3 1.6 9.7 1.1 71.4 8.2 5.8.7 2.1.2 5.4.6 1.4.2 9 1 21.8 2.5 7.7.9 49.2 5.7 7.3.8 6 .7 19.5 2.2 7.6.9 5.8.7c1.3 4.5 2.4 8.9 3.3 13.2 6.4 31.8 2 57.9-3.9 75.9z" fill="#E54C4B"/>
        <path d="M377 600c-4.8 9.9-7.7 17.9-9.3 22.8-7.1-3.1-13.1-6.8-18-10.5 3.8-10.8 8.7-21.1 14.1-30.8 3.9 6 8.3 12.2 13.2 18.5zm6.3-12c-1 1.7-1.9 3.4-2.8 5-4.8-6.3-9-12.5-12.8-18.3 1-1.6 1.9-3.1 2.9-4.7 3.8 5.6 8 11.7 12.7 18zm14.6-22.6c-1.2 1.6-2.3 3.2-3.4 4.8-3.9-5.3-7.9-11.1-11.8-17.4 1.2-1.6 2.5-3.2 3.7-4.8.9 1.5 1.9 3 2.8 4.6 2.6 4 5.5 8.3 8.7 12.8zm47.9-50.6c-18.2 15-32.4 30.3-43.5 44.6-4.2-6-7.9-11.8-11.2-17.3 18.7-22.4 35.5-36 35.5-36l19.2 8.7zM634 608.5c-6.8-3.5-13.3-7.1-19.4-10.8 4-19.8 5.6-45.2-.5-76l19.5 2.2c3.2 13.5 9.2 47.1.4 84.6zm-12 33.6c-.2.4-.4.7-.5 1.1-7.7.1-14-2.3-19.9-6.1.8-1.8 1.7-3.8 2.6-6 5.6 3.7 11.6 7.4 17.8 11zm10.2-26.7c-.5 1.8-1.1 3.7-1.7 5.6-6.4-3.1-12.8-6.5-19.2-10.2.5-1.9 1.1-3.8 1.6-5.9 6.2 3.6 12.6 7.1 19.3 10.5zM513 572.9c-2.4 8.9-3.9 17.2-4.8 24.8-7.6 1.9-14.9 5-22.1 8.6 1.2-20.2 6.1-38.4 11.7-53 4.4 6.1 9.4 12.8 15.2 19.6zm15.9-40.5c-1 1.9-1.9 3.8-2.9 5.7-4.3-5.5-8.5-11.1-12.4-17 1.5-2.5 2.7-4.2 3.3-5 3.4 4.9 7.3 10.4 12 16.3zM517.3 559c-.7 1.9-1.3 3.8-1.9 5.6-5.5-6.8-10.4-13.3-14.4-19.2.7-1.5 1.3-3 2-4.4 3.8 5.2 8.5 11.3 14.3 18zm21.1-43.1c-2.1 3.3-4 6.6-5.9 9.8-2.8-3.5-5.2-6.9-7.4-10.1l13.3.3zm-111.5-15.7c-.3.3-18.4 14-38.4 37.2-1.3-2.3-2.6-4.5-3.7-6.7 13.3-15.1 25.5-26 32.4-31.7l9.7 1.2zm-66.4 76.2c-5.9 10.1-11.1 20.9-15.3 32.4-2.1-1.8-3.9-3.5-5.6-5.1 4.6-12.2 10.3-23.6 16.6-34.1 1.4 2.2 2.8 4.5 4.3 6.8zm7.1-11.4c-1 1.5-2 3-3 4.6-1.4-2.4-2.8-4.6-4.1-6.9l3-4.5c1.3 2.2 2.6 4.4 4.1 6.8zm16-21.8c-1.3 1.6-2.5 3.1-3.8 4.8-1.3-2.2-2.6-4.4-3.9-6.7l3.9-4.8c1.2 2.2 2.5 4.4 3.8 6.7zm77.4-24.3c-.4.3-26.5 19.5-50.9 51.1-1.5-2-3-3.9-4.4-5.9 4.9-6.3 9.8-12 14.3-16.9 19.4-21.3 36.1-33.4 36.8-33.9l4.2 5.6zm-69.7 79.2c-.9 1.6-1.9 3.3-2.7 5-1.6-2-3.2-3.9-4.8-5.9.9-1.7 1.8-3.3 2.8-4.9 1.5 1.9 3.1 3.8 4.7 5.8zm-6.2 11.9c-2.6 5.4-5 11-7.1 16.8-2.3-.7-4.5-1.5-6.6-2.3 2.6-7 5.5-13.8 8.8-20.3 1.6 1.9 3.2 3.8 4.9 5.8z" fill="#8F4253"/>
        <path d="M388.6 603.1c-1.2 2.3-2.4 4.6-3.5 6.9-1.7-1.9-3.3-3.9-4.9-5.9 1.2-2.3 2.4-4.7 3.6-6.9 1.6 1.9 3.2 3.9 4.8 5.9zm17.1-27.3c-1.1 1.5-2.2 3-3.3 4.6-1.5-1.8-3-3.8-4.6-5.7 1.1-1.6 2.2-3.2 3.4-4.7 1.5 1.9 3 3.9 4.5 5.8zM376 541.3c-4.2 5.3-8.4 10.9-12.5 16.9-4.6-7.8-7.9-14.1-9.8-18.2 4.4-6.1 8.9-11.5 13.4-16.1 2.8 6.1 5.8 11.9 8.9 17.4z" fill="#8F4253"/>
        <path d="m379.8 548c-4.2 5.3-8.3 11-12.2 17-1.5-2.3-2.8-4.6-4.1-6.8 4.1-6 8.3-11.7 12.5-16.9 1.2 2.3 2.5 4.5 3.8 6.7z" fill="#013C51"/>
        <path d="m382.7 552.8c-4.1 5.4-8.1 11.1-12 17.2-1.1-1.7-2.1-3.3-3.1-4.9 4-6 8.1-11.7 12.2-17 1 1.5 2 3.1 2.9 4.7z" fill="#8F4253"/>
        <path d="m394.5 570.2c-4.3 6.2-8 12.2-11.2 17.8-4.7-6.2-8.9-12.3-12.6-18 3.9-6.1 7.9-11.8 12-17.2 3.9 6.2 7.9 12 11.8 17.4z" fill="#013C51"/>
        <path d="m397.9 574.7c-3.9 5.5-7.7 11.4-11.3 17.6-1.1-1.4-2.2-2.8-3.3-4.3 3.2-5.6 6.9-11.5 11.2-17.8 1.1 1.5 2.3 3 3.4 4.5z" fill="#8F4253"/>
        <path d="m402.5 580.4c-3.9 5.6-7.6 11.5-11.1 17.7-1.6-2-3.2-3.9-4.7-5.8 3.6-6.2 7.4-12.1 11.3-17.6 1.4 2 2.9 3.9 4.5 5.7z" fill="#013C51"/>
        <path d="M448.6 622.9c-.6.7-1.2 1.5-1.8 2.1-7.1 2.6-14.5 4.6-22.5 5.6-12.5-9.9-23.5-21.3-32.9-32.6 3.5-6.2 7.2-12.1 11.1-17.7 19.4 23.8 37.5 37.1 46.1 42.6zm-88.1-60.2c-1.5 2.2-2.9 4.5-4.3 6.9-4-6.8-7.4-13-9.9-18.1 1.4-2.4 2.9-4.8 4.4-7.1 2.4 4.9 5.7 11.2 9.8 18.3zm7.3 11.9c-1.4 2.3-2.7 4.6-4 6.9l-3.3-5.1c1.3-2.3 2.7-4.6 4.2-6.9.9 1.7 2 3.4 3.1 5.1z" fill="#8F4253"/>
        <path d="m364.6 569.6c-1.4 2.2-2.8 4.5-4.2 6.9-1.5-2.3-2.9-4.6-4.2-6.9 1.4-2.3 2.8-4.6 4.3-6.9 1.3 2.2 2.7 4.5 4.1 6.9zm16 23.4c-1.3 2.4-2.5 4.8-3.6 7.1-4.9-6.3-9.3-12.5-13.2-18.5 1.3-2.4 2.7-4.7 4-6.9 3.8 5.8 8 12 12.8 18.3z" fill="#013C51"/>
        <path d="M383.8 597.2c-1.2 2.3-2.5 4.6-3.6 6.9-1.1-1.4-2.2-2.7-3.2-4.1 1.1-2.3 2.3-4.6 3.6-7.1 1 1.5 2.1 2.9 3.2 4.3zm32.7 34.1c-3.7.2-7.2.2-10.6.1-7.6-6.9-14.5-14.1-20.8-21.4 1.1-2.3 2.3-4.6 3.5-6.9 8.1 9.7 17.4 19.4 27.9 28.2z" fill="#8F4253"/>
        <path d="m388.6 603.1c-1.2 2.3-2.4 4.6-3.5 6.9-1.7-1.9-3.3-3.9-4.9-5.9 1.2-2.3 2.4-4.7 3.6-6.9 1.6 1.9 3.2 3.9 4.8 5.9z" fill="#013C51"/>
        <path d="M391.2 542.1c-1.6 1.9-3.2 3.8-4.7 5.8-1-1.6-1.9-3.2-2.8-4.7 1.6-2 3.2-3.9 4.8-5.8.8 1.6 1.7 3.1 2.7 4.7z" fill="#8F4253"/>
        <path d="m388.5 537.5c-1.6 1.9-3.2 3.8-4.8 5.8-1.4-2.3-2.6-4.5-3.8-6.7 1.6-2 3.3-3.9 4.9-5.8 1.1 2.1 2.4 4.3 3.7 6.7z" fill="#013C51"/>
        <path d="m384.8 530.8c-1.6 1.8-3.3 3.8-4.9 5.8-3.6-6.5-6.4-12.2-8.6-16.8 1.8-1.8 3.7-3.4 5.5-5 1.9 4.2 4.5 9.7 8 16z" fill="#8F4253"/>
        <path d="m402.4 559.4c-1.6 2-3 4-4.5 5.9-3.2-4.5-6.1-8.8-8.6-12.8-1-1.6-1.9-3.1-2.8-4.6 1.6-2 3.2-4 4.7-5.8 3.3 5.5 7 11.3 11.2 17.3zm7.7 10.6c-1.5 1.9-2.9 3.9-4.4 5.9-1.5-2-3-3.9-4.4-5.8 1.5-2 3-4 4.4-5.9 1.4 1.9 2.9 3.8 4.4 5.8z" fill="#013C51"/>
        <path d="M405.7 564.1c-1.5 1.9-3 3.9-4.4 5.9-1.2-1.6-2.3-3.1-3.4-4.6 1.4-2 2.9-3.9 4.5-5.9 1.1 1.5 2.2 3 3.3 4.6zm56.1 54.5c-2.5 1.2-5 2.3-7.5 3.5-19.9-13.4-36.1-30.2-48.6-46.2 1.4-2 2.9-4 4.4-5.9 13.5 17.4 30.7 35.2 51.7 48.6zM504 509c-2.9 5.4-6.1 11.9-9.3 19.2-3.2-5.4-4.4-8.4-4.4-8.4l8-11.5 5.7.7zm9.7 12.1c-2.7 4.4-6.6 11.2-10.6 19.9-1.4-1.9-2.6-3.7-3.7-5.4 3.4-8.1 6.9-15.3 10-21.2 1.3 2.2 2.8 4.5 4.3 6.7z" fill="#8F4253"/>
        <path d="m526.1 538.1c-3.5 7.2-6.4 14.2-8.7 20.8-5.9-6.7-10.6-12.8-14.3-18 4-8.7 7.9-15.5 10.6-19.9 3.9 6 8.1 11.7 12.4 17.1z" fill="#013C51"/>
        <path d="M529.3 542.1c-.1.2-.2.4-.2.6-2.7 6.1-5.4 12.9-8 20.4-1.3-1.4-2.5-2.8-3.7-4.2 2.4-6.7 5.2-13.6 8.7-20.8 1 1.4 2.1 2.7 3.2 4zm70.7 61.8c-1.6 6.8-3.6 13.7-6.2 20.5-29.9-20.1-51.7-39.2-67.3-55.5 2.4-7.4 5.1-14.4 7.9-20.8 19.4 22.3 41.9 40.9 65.6 55.8zm11.4 6.9c-2.3 8-4.9 14.8-7.3 20.4-1.5-.9-2.9-1.9-4.3-2.8 2.7-6.9 4.8-13.8 6.5-20.6l5.1 3z" fill="#8F4253"/>
        <path d="m630.5 621c-2.2 7-5.1 14.1-8.6 21.2-6.2-3.7-12.2-7.3-17.8-11 2.4-5.6 5-12.4 7.3-20.4 6.3 3.6 12.7 7 19.1 10.2z" fill="#013C51"/>
        <path d="M636.3 623.7c-2.2 6.5-4.9 12.8-8.2 18.9-.4.8-.8 1.6-1.3 2.3-1.1-.6-2.1-1.2-3.1-1.8-.6-.3-1.1-.7-1.7-1 3.5-7.1 6.3-14.2 8.6-21.2 1.9 1 3.8 1.9 5.7 2.8zm-143.6-90.9c-1.1 2.6-2.2 5.3-3.3 8.1-6.9-10.8-10.7-18.2-11.1-19.2l6.3-3.1c0 .2 2.8 5.6 8.1 14.2z" fill="#8F4253"/>
        <path d="M515.5 564.6c-.9 2.8-1.7 5.6-2.4 8.3-5.8-6.8-10.9-13.5-15.2-19.6 1-2.8 2.1-5.4 3.2-7.9 4 5.9 8.8 12.4 14.4 19.2z" fill="#013C51"/>
        <path d="M501 545.4c-1.1 2.5-2.2 5.1-3.2 7.9-1.2-1.7-2.4-3.4-3.5-5.1 1-2.8 2.1-5.5 3.1-8.1 1.1 1.7 2.4 3.5 3.6 5.3zm18.1 23.6c-.8 2.6-1.7 5.4-2.4 8.2-1.3-1.4-2.5-2.8-3.7-4.3.7-2.7 1.5-5.5 2.4-8.3 1.2 1.5 2.5 2.9 3.7 4.4zm34.7 33.9c-1.5-.7-3-1.3-4.5-2-4.7-1.9-9.1-3.3-13.4-4.1-4.8-4.4-9.3-8.9-13.5-13.5.7-2.8 1.5-5.5 2.3-8.1 8.4 9.4 18.1 19 29.1 27.7zm33.2 21.3-.6 1.2c-1.4-1.2-2.8-2.4-4.3-3.7 1.6.8 3.2 1.7 4.9 2.5zm-61.8-108.6-7.7-.2s-.2.2-.5.6c-1.4-2.1-2.7-4.1-3.9-6l9 1c.9 1.6 2 3.1 3.1 4.6z" fill="#8F4253"/>
        <path d="M532.6 525.7c-1.3 2.3-2.5 4.5-3.7 6.7-4.7-5.9-8.6-11.4-12-16.3.3-.4.5-.6.5-.6l7.7.2c2.3 3.1 4.7 6.5 7.5 10z" fill="#013C51"/>
        <path d="M535.4 529.3c-1.1 2.2-2.2 4.5-3.4 6.9-1.1-1.3-2.1-2.6-3.1-3.8 1.2-2.2 2.4-4.4 3.7-6.7.9 1.2 1.8 2.4 2.8 3.6zm67.1 60.8c-.4 2.5-.8 5-1.3 7.5-29-18.8-50-39.1-64.2-55.5 1.1-2.4 2.2-4.7 3.3-6.9.2.2.4.5.6.7 13.5 15.8 33.6 35.7 61.6 54.2zm37.4 21.3-1.8 6.9c-2-1-3.9-1.9-5.9-2.9.7-2.3 1.2-4.6 1.8-6.9 1.9 1 3.9 2 5.9 2.9z" fill="#8F4253"/>
        <path d="M634 608.5c-.5 2.3-1.1 4.6-1.8 6.9-6.7-3.4-13.1-6.9-19.2-10.5.6-2.3 1.1-4.7 1.6-7.2 6.1 3.7 12.6 7.3 19.4 10.8z" fill="#013C51"/>
        <path d="M614.6 597.7c-.5 2.5-1.1 4.9-1.6 7.2-1.8-1.1-3.6-2.1-5.3-3.2.5-2.5 1-5 1.4-7.4 1.7 1.1 3.6 2.3 5.5 3.4zm32 16.9c-.4 1.3-.9 2.7-1.3 3.9.4-1.3.7-2.7 1.1-4 0 0 .1.1.2.1zm-135-104.7c-.8 1.4-1.5 2.9-2.3 4.4-1.1-1.7-2.1-3.4-3.1-5.1l5.4.7z" fill="#8F4253"/>
        <path d="M509.3 514.4c-3.1 6-6.5 13.2-10 21.2-1.9-2.8-3.4-5.3-4.6-7.4 3.2-7.3 6.5-13.8 9.3-19.2l.9-1.8c.4.7.8 1.4 1.2 2 1.1 1.8 2.1 3.5 3.2 5.2z" fill="#013C51"/>
        <path d="M499.3 535.6c-.6 1.5-1.2 3-1.9 4.5-1.8-2.6-3.3-5.1-4.7-7.3.7-1.6 1.3-3.1 2-4.6 1.2 2.1 2.7 4.6 4.6 7.4z" fill="#8F4253"/>
        <path d="m497.4 540.1c-1.1 2.6-2.1 5.3-3.1 8.1-1.8-2.6-3.4-5.1-4.9-7.4 1.1-2.8 2.2-5.5 3.3-8.1 1.4 2.3 3 4.8 4.7 7.4z" fill="#013C51"/>
        <path d="M494.3 548.2c-6.6 17.8-12.4 38.9-14.4 61.2-2.4 1.2-4.9 2.5-7.4 3.8 1.8-26.9 9-52 16.9-72.3 1.5 2.3 3.1 4.8 4.9 7.3zm57.2-33.7c-3.2 5.3-7.1 12.3-11.2 20.7-1.7-2-3.4-4-4.9-6 3-6 5.9-11.3 8.5-15.6l7.6.9z" fill="#8F4253"/>
        <path d="M540.3 535.2c-1.1 2.2-2.2 4.5-3.3 6.9-.6-.6-1.1-1.3-1.7-1.9-1.2-1.4-2.3-2.7-3.4-4.1 1.1-2.4 2.3-4.7 3.4-6.9 1.6 2 3.3 4 5 6zm-5.9 12.9c-2.8 6.4-5.4 13.4-7.9 20.8-1.9-2-3.7-3.9-5.5-5.8 2.6-7.5 5.3-14.4 8-20.4.1-.2.2-.4.2-.6 1.8 2.1 3.5 4.1 5.2 6z" fill="#013C51"/>
        <path d="M526.5 569c-.7 2.1-1.3 4.2-2 6.3-1.9-2.1-3.7-4.2-5.5-6.2.6-2 1.3-4 1.9-5.9 1.9 1.8 3.7 3.8 5.6 5.8z" fill="#8F4253"/>
        <path d="M524.6 575.2c-.8 2.7-1.6 5.4-2.3 8.1-1.9-2.1-3.8-4.1-5.6-6.2.8-2.8 1.6-5.5 2.4-8.2 1.8 2.2 3.6 4.2 5.5 6.3z" fill="#013C51"/>
        <path d="M522.3 583.3c-1.1 4.1-2 8.2-2.8 12.5-2.5.2-4.9.5-7.3 1 1.3-6.8 2.8-13.4 4.6-19.7 1.7 2.1 3.6 4.2 5.5 6.2zm14.7-41.1c-.9 1.9-1.8 3.9-2.6 6l-5.1-6c.9-2 1.8-4 2.7-5.9 1.1 1.3 2.2 2.7 3.4 4.1.5.5 1.1 1.1 1.6 1.8zm109.4 72.3c-2.2-1-4.3-2-6.5-3 8-33 4.6-67 1.3-86.6l5.8.7c1.3 4.5 2.4 8.9 3.3 13.2.7 6.3 1.3 13.4 1.5 20.9.5 15.6-.5 35.1-5.4 54.8z" fill="#8F4253"/>
        <path d="M646.4 614.5c-.3 1.3-.7 2.7-1.1 4-.3.9-.5 1.8-.8 2.8-.1 0-.1-.1-.2-.1-2.1-.9-4.2-1.9-6.2-2.9.7-2.3 1.3-4.6 1.8-6.9 2.1 1 4.3 2.1 6.5 3.1zm-3.7 12.1c-2 5.7-4.3 11.3-7.1 16.7-1.6 1.6-3.3 1.7-4.5 2.8-1.5-.9-2.8-.3-4.3-1.2.4-.8.9-1.6 1.3-2.3 3.3-6.1 6-12.4 8.2-18.9 1.9.9 3.9 1.8 5.8 2.7.2.1.4.2.6.2z" fill="#013C51"/>
        <path d="M644.5 621.3c-.5 1.8-1.1 3.6-1.7 5.3-.2-.1-.4-.2-.6-.2-1.9-.9-3.9-1.7-5.8-2.7.6-1.8 1.2-3.6 1.7-5.4 2 1 4.1 1.9 6.2 2.9 0 0 .1.1.2.1zm-35.5-27c-2.2-1.4-4.3-2.8-6.4-4.2 4.1-28.5 1.1-54.6-1.8-70l7.3.8c1.5 8.5 3 19.7 3.4 32.6.4 11.8 0 25.8-2.5 40.8z" fill="#8F4253"/>
        <path d="M609 594.3c-.4 2.4-.8 4.9-1.4 7.4-2.2-1.3-4.3-2.7-6.3-4 .5-2.5.9-5 1.3-7.5 2 1.3 4.2 2.7 6.4 4.1z" fill="#013C51"/>
        <path d="M607.6 601.7c-.4 2-.9 4-1.4 6.1l-6.3-3.9c.5-2.1.9-4.2 1.3-6.2 2.1 1.3 4.3 2.7 6.4 4z" fill="#8F4253"/>
        <path d="m606.3 607.8c-1.7 6.8-3.8 13.7-6.5 20.6-2-1.3-4-2.6-6-4 2.6-6.8 4.6-13.7 6.2-20.5l6.3 3.9z" fill="#013C51"/>
        <path d="M599.8 628.4c-.8 2-1.6 4-2.5 5.9-1.9-1.4-3.8-2.9-5.7-4.5.8-1.8 1.5-3.6 2.2-5.4 2 1.4 4 2.7 6 4z" fill="#8F4253"/>
        <path d="m359.6 530.8s31.7 67.3 78.9 97" fill="none" stroke="#FFF" stroke-width="2"/>
        <path d="M435.4 510.1S377 557 358 618.7m171.3-103.9s-27.3 33.4-32.6 87.5M625.4 523s13.2 77.9-14.9 117.2" fill="none" stroke="#FFF" stroke-width="2"/>
        <path d="m495.3 512.7s45.6 81 143.3 122.3" fill="none" stroke="#FFF" stroke-width="2"/>
        <path d="M647 525.5c-208.7 18.8-244.2-28-244.2-28l1.5-21.2s34.9 46.3 243.6 27.6l-.9 21.6z" fill="#086B08"/>
        <path d="m422.1 507.7 2.5-16.6 30.7 9.8-2.3 17.4z" fill="#F75407"/>
        <path d="M647 525.5c-208.7 18.8-244.2-28-244.2-28l1.5-21.2s34.9 46.3 243.6 27.6l-.9 21.6z" fill="none" stroke="#000" stroke-width="7"/>
        <path d="m402.8 497.4s-54.7 23.1-72.9 94.4c0 0 26.8 45.2 92.1 39.1 50-4.7 77.6-50.5 127.3-30 42.1 17.3 48.2 50.9 85 40.3 0 0 33-46.6 12.7-115.7m-222.9-35.3-2.3 19.6m33.5-10-2.3 20.1" fill="none" stroke="#000" stroke-width="7"/>
        <circle cx="488.8" cy="515.3" r="2.9" fill="#F75407"/>
        <circle cx="488.8" cy="515.3" r="2.9" fill="none" stroke="#000"/>
        <circle cx="554.6" cy="519.9" r="2.9" fill="#F75407"/>
        <circle cx="554.6" cy="519.9" r="2.9" fill="none" stroke="#000"/>
        <circle cx="619.4" cy="518.2" r="2.9" fill="#F75407"/>
        <circle cx="619.4" cy="518.2" r="2.9" fill="none" stroke="#000"/>
        <path d="m426.3 495.3-1.1 10.5s8.4 3.5 25.5 8.1l1.4-10.4c.1.1-19.4-4.8-25.8-8.2z" fill="#086B08"/>
        <path d="m426.3 495.3-1.1 10.5s8.4 3.5 25.5 8.1l1.4-10.4c.1.1-19.4-4.8-25.8-8.2z" fill="none" stroke="#000"/>
      </g>
    </defs>
    <use xlink:href="#d"/>
  </g>
  <path d="M390.6 457c-5.2 5.1-11.7 8.1-17.8 8.1-8.1 0-14-5.1-15.6-13.3-1-5.4.9-11.3 5.4-16.7 5.8-6.9 14.9-12 21.7-12.1h.2c1.3 0 2.6.2 3.8.6h.2l.1.1c4.5 1.8 7.9 6.2 9.1 11.8 1.4 7.5-1.2 15.5-7.1 21.5z"/>
  <path class="st0" d="M385.4 451.7c4.2-4.2 6-9.6 5-14.7-.6-3.1-2.3-5.5-4.6-6.4-.4-.1-.9-.2-1.3-.2h-.1c-4 0-11.3 3.6-16.1 9.4-1.8 2.1-4.6 6.3-3.8 10.6 1.1 6 5.1 7.3 8.3 7.3 4.1 0 8.8-2.2 12.6-6z" fill="#fc0"/>
  <path d="M384.3 648c-2.4 3.7-6.4 5.7-11.5 5.7-1.9 0-4-.3-6.2-.8-25-6-59.3-43.6-63.6-64.5-1.9-9.4-.2-18 5-24.4 4.6-5.7 11.4-8.8 18.9-8.8 6.8 0 13.6 2.5 19.8 7.3 12.2 9.4 32.9 50.5 37.3 60.7 2.5 5.8 4.9 17.7.3 24.8z"/>
  <path class="st0" d="M310.1 586.8c3.8 18.2 36.2 53.6 58.1 58.8 1.7.4 3.2.6 4.5.6 3.4 0 4.7-1.3 5.4-2.3 2.3-3.5 1.5-12.1-1-17.9-6.1-13.9-25.3-50.3-35.1-57.8-4.9-3.8-10.2-5.8-15.3-5.8-5.3 0-10 2.2-13.2 6.1-3.6 4.7-4.8 11.2-3.4 18.3z" fill="#fc0"/>
  <path d="M413.3 399.4c-.4 4.4-3.8 8.4-11.1 12.9-4.7 3-10.2 5.5-13.9 6.5-6.5 1.7-12.3 2.6-17.3 2.6-6.7 0-10.6-1.6-12.7-2.9-4.8-3-4.4-7.2-4.2-8.5.5-3.1 2.9-5.5 5.9-6.2 3.5-.8 13.5-5.8 23.6-12.6 4.2-2.9 10.7-4.8 16.1-4.8 5.8 0 9.1 2.2 10.8 4.1 2.1 2.4 3.1 5.5 2.8 8.9z"/>
  <path class="st1" d="M361.4 411.3c0 .3.4.7.9.9 1.1.7 3.6 1.8 8.8 1.8 4.3 0 9.5-.8 15.4-2.3 5.2-1.4 19.1-8.8 19.5-13 .1-1.3-.2-2.4-.9-3.2-1-1.1-2.8-1.7-5.3-1.7-3.9 0-8.9 1.5-11.9 3.5-8.5 5.7-20.5 12.5-26.1 13.7-.3.1-.4.2-.4.3z" fill="#f80"/>
  <path d="M516.4 328.1c1.6 0 3.2 0 4.8.1 20.6.6 39.5 6.5 55.9 17 11.2 7.2 17.5 11.4 25.9 25.2 1.5 2.5 9 .8 7.9-1.1-10.1-17.6-17.5-22.3-29.8-30.3-17.7-11.4-37.8-17.6-59.7-18.2-1.6 0-3.3-.1-5-.1-1.6 0-3.3 0-4.9.1-24.3.6-47.8 6.6-67.8 17.1-20.2 10.6-37.1 26.1-48.9 44.7-7.7 12.3-10.3 23.9-7.4 33.5 2.4 7.8 7.9 12.7 12.3 14.6 1.4.6 2.9.9 4.7.9 9.3 0 34.7-9.3 45.7-24.8 8.4 4.5 17.6 6.7 28.1 6.7 12.6 0 25-3.2 36.4-6.9 3-1 3.8-2.2 3.9-4.1 0-1.3-1.2-3.6-3.8-3.5-.3 0-.7.1-1 .2-11.2 3.6-23.3 6.9-35.4 6.9-9.3 0-18.6-2-27.4-7.4-.6-.4-1.3-.5-1.9-.5-1.3 0-2.5.6-3.2 1.8l-.1.1c-7.9 14.3-33.3 24.1-41.2 24.1-.7 0-1.3-.1-1.7-.3-2.8-1.2-6.6-4.6-8.2-10-2.3-7.5 0-17 6.6-27.4 22.5-35.7 63.4-57.1 110.6-58.3 1.4-.1 3-.1 4.6-.1"/>
  <path class="st0" d="M516.6 399.4c-1-.4-2-.7-3-.3-19.7 6.3-42.5 12-62.8-.5-1.7-1.1-4-.5-5.1 1.2l-.1.1c-8.6 15.7-38.3 26-43 23.9-2.8-1.2-6.6-4.6-8.2-10-2.3-7.5 0-17 6.6-27.4 22.5-35.7 63.4-57.1 110.6-58.3 3.1-.1 6.3-.1 9.5 0 20.6.6 39.5 6.5 55.9 17 13.2 8.5 19.7 12.7 30.6 33.6 5.6 10.5-84.4 23.5-91 20.7z" fill="#fc0"/>
  <path d="M701.4 357.1c-.5 1.7-1.2 3.4-2 5.2-5 10-17.7 23-38 29.1-4.5 1.4-9.3 2-14 2h-.1c-13 0-34.2-4.9-61.6-28.3-1.9-1.7-5.1-4.8-7.1-7-2.3-2.5-2.8-6.1-1.5-9.1s4.4-5.1 7.8-5.1h.5c13.9.8 30.1 1.2 48.4 1.2 8.1 0 14.8-.1 19.3-.1h4.5c7.4 0 13.3-.1 18.2-.1 8.1 0 13.7.1 17.1.2 2.9.1 5.6 1.5 7.3 3.9 1.5 2.3 2 5.2 1.2 8.1z"/>
  <path class="st1" d="M590.4 359.4c25.7 21.9 45.1 26.5 56.8 26.5h.1c4 0 8-.6 11.9-1.7 18.1-5.4 29.2-16.6 33.5-25.3.8-1.5 1.2-2.8 1.5-3.9.4-1.3-.6-2.6-1.9-2.7-3.3-.1-8.9-.2-16.7-.2-5.4 0-11.6 0-18.2.1-3.3 0-12.2.2-23.9.2-13.9 0-31.7-.2-48.8-1.2h-.1c-.9 0-1.5 1.1-.8 1.8 2 2.2 5 5.1 6.6 6.4z" fill="#f80"/>
  <path d="m417.6 376.2c-4.1 0-7.4 3.3-7.4 7.4 0 9.9 14.8 9.9 14.8 0 0-4.1-3.3-7.4-7.4-7.4zm85.6-20.5c-4.1 0-7.4 3.3-7.4 7.4 0 9.9 14.8 9.9 14.8 0 0-4.1-3.3-7.4-7.4-7.4zm-45.3 19.7c-7.4 0.8-12.3 2.5-15.6 4.9-5.9 4.4-4.1 9.9 2.5 10.7s7.1 1.2 13.2-3.3c6.5-4.9 7.3-13.1-0.1-12.3z"/>
  <path class="st0" d="M512.4 655.2c-4.6-5.2-3.7-15.7-1.9-29.4 2.6-19.8 5-34.5 25.4-50.8 24.4-19.5 62.2-15 76.2-.5 3.6 3.7 6.7 10.9 7.3 18.8.9 11.4-22.2 42.4-44.8 51.8-22.6 9.6-54 19.3-62.2 10.1z" fill="#fc0"/>
  <path d="M512.4 658.9c-1.2 0-2.3-.5-3-1.6-4.7-6.7-4.5-17.2-2.6-32 2.5-19 4.6-35.5 26.8-53.2 26.8-21.4 63.7-14 78.4.7 1.4 1.4 1.4 3.8 0 5.2-1.4 1.4-3.8 1.4-5.2 0-12.5-12.5-45.4-18.7-68.6-.1-18.9 15.1-21.4 28.2-24.1 48.4-1.4 11-2.3 21.8 1.3 26.7 1.2 1.7.8 4-.9 5.2-.6.5-1.4.7-2.1.7z"/>
  <g class="kilt_1__left_leg">
    <path d="m517.5 590.68c-0.28552 0-0.56129 0.00551-0.84375 0.01172-1.4356 2.3675-2.6512 4.7379-3.6602 7.1191 0.03465-0.00173 0.06887-0.00413 0.10352-0.00586 1-0.1 2 0 3 0s2-3.9e-4 3 0.09961c2 0.2 4 0.29922 6 0.69922l3 0.5 3 0.70117c2 0.4 3.9004 0.99961 5.9004 1.5996 1 0.3 1.9004 0.60039 2.9004 0.90039s1.9004 0.6 2.9004 1l2.8984 1.0996 2.8008 1.1992c0.9 0.4 1.9008 0.80078 2.8008 1.3008s1.7992 0.90039 2.6992 1.4004c3.6 1.9 7.0996 4.0984 10.6 6.3984 6.9 4.6 13.4 9.9012 20.1 15.201 2.0786 1.6763 4.2201 3.2906 6.3887 4.877 1.8174-1.4952 3.5772-3.0856 5.2988-4.7207-2.5785-1.8314-5.1392-3.744-7.6875-5.7559-6.6-5.2-13.3-10.7-20.5-15.5-3.6-2.4-7.3992-4.7008-11.199-6.8008l-3-1.5c-1-0.5-2-1.0004-3-1.4004l-3-1.2988-3.0996-1.2012c-1-0.4-2.0996-0.79961-3.0996-1.0996-1.1-0.3-2.1012-0.7-3.2012-1-2.1-0.6-4.2004-1.1992-6.4004-1.6992l-3.1992-0.70117-3.1992-0.5c-2.1-0.4-4.4016-0.59883-6.6016-0.79883-0.55-0.1-1.1242-0.125-1.6992-0.125"/>
    <g clip-path="url(#e)">
      <use xlink:href="#d"/>
    </g>
  </g>
  <path d="M523.7 651.2c-.4 1.9-2 9.1-6.7 16.2-7 10.6-17.8 16.5-30.4 16.5-7.2 0-12.9-2.1-16.8-6.2-7.5-7.8-7.1-21-6.7-33.7v-.1c.2-6.4.4-13.1-.4-18.5-.7-4.4-1.8-9.1-3.1-14.5-2.4-10.2-4.6-20.1-4.3-28.7.4-10.7 4.7-18.9 12.8-24.4 3.5-2.4 7.4-3.5 11.4-3.5 9.3 0 18.9 6.2 28.7 18.6 7.1 8.9 13.1 20 15.4 28.1 6.4 21.8 4.9 34.9.1 50.2z"/>
  <path class="st0" d="M477 670.8c2 2.1 5.2 3.1 9.6 3.1 22.6 0 27-23.7 27.2-24.7 0-.2.1-.4.1-.6 4.4-13.9 5.7-25.2 0-44.8-3.7-13.2-21.1-39.4-34.4-39.4-2 0-4 .6-5.8 1.9-11.7 7.8-9.3 21.8-4.4 42.4 1.2 5.1 2.5 10.4 3.2 15.3 1 6.4.8 13.5.5 20.4-.2 10.6-.6 21.6 4 26.4z" fill="#fc0"/>
  <path d="M478 413.3c-6.4 2.9-12.4 6.6-17.6 11.1-12.1 10.6-12.6 19.4-10.8 24.8 2.5 7.7 11.1 13.4 21.9 14.6 7.1.7 16.2-1.3 26.7-3.6 13.9-3.1 29.7-6.6 42.9-3.9 19.6 4.1 33.3 15 53.1 32.7l10.3 9.2c1.5 1.3 3.9 1.2 5.2-.4 1.3-1.5 1.2-3.9-.4-5.2l-2.9-2.6c-24-21.7-39.9-36-63.8-41-14.8-3.1-31.3.6-46 3.9-9.5 2.1-18.5 4.1-24.3 3.5-7.8-.8-14.1-4.6-15.7-9.5-1.5-4.7 1.6-10.7 8.7-17 20.7-18.2 59.1-23.7 87.5-12.5 4.7 1.9 7.4-5.1 2.7-6.9-11.4-4.4-24.6-6.6-37.7-6.2-10.1.4-30.5 4.8-39.8 9z"/>
  <path class="st0" d="M615.4 451c11.7 12.2 17 60.3-6 41.6l-2.9-2.6c-24-21.7-39.9-36-63.8-41-14.8-3.1-31.3.6-46 3.9-9.5 2.1-18.5 4.1-24.3 3.5-7.8-.8-14.1-4.6-15.7-9.5-1.5-4.7 1.6-10.7 8.7-17 20.7-18.2 59.3-24 87.5-12.5 4.6 2 46.1 16.5 62.5 33.6z" fill="#fc0"/>
</svg>
