<?xml version="1.0" encoding="utf-8"?>
<!-- Generator: Adobe Illustrator 25.2.0, SVG Export Plug-In . SVG Version: 6.00 Build 0)  -->
<svg version="1.1" id="Layer_1" xmlns="http://www.w3.org/2000/svg" xmlns:xlink="http://www.w3.org/1999/xlink" x="0px" y="0px"
	 viewBox="0 0 1000 1000" style="enable-background:new 0 0 1000 1000;" xml:space="preserve">
<style type="text/css">
	.st0{fill:#7F7F7F;}
	.st1{fill:#5E5E5E;}
	.st2{fill:#FFB199;}
	.st3{fill:#FFFFFF;}
</style>
<g id="Notebook--group">
	<g id="PalmRest--group">
		<path id="PalmRest--bg" d="M564.2,563.2L513,587.4c-0.5,0.2-1,0.4-1.6,0.4s-1.2-0.1-1.7-0.4c-1-0.6-1.8-1.5-1.9-2.7l-4.3-26.7
			c-0.2-1.1,0.2-2.2,0.9-3c0.7-0.8,1.8-1.3,2.9-1.2l55.5,2.5c1.7,0.1,3.1,1.3,3.5,3C566.5,560.8,565.7,562.5,564.2,563.2z"/>
		<polygon id="PalmRest" class="st0" points="547.5,562.9 511.4,561.2 514.2,578.6 		"/>
	</g>
	<polygon id="Keyboard" class="st1" points="513.4,573.7 530.5,565.7 512,564.9 	"/>
	<g id="Screen--group">
		<path id="Screen--bg" d="M514.1,586.5c-0.7,0.8-1.7,1.2-2.8,1.2h-0.1l-182.4-6.5c-1.7-0.1-3.2-1.3-3.5-3l-21-117.2
			c-0.2-1.1,0.1-2.2,0.8-3.1c0.7-0.8,1.8-1.3,2.9-1.3l184.6,6c1.8,0.1,3.2,1.4,3.5,3.1L515,583.5
			C515.2,584.6,514.9,585.7,514.1,586.5z"/>
		<polygon id="Screen" class="st0" points="312.4,464.2 332.1,573.9 507,580.2 489.3,470 		"/>
	</g>
	<polygon id="CodeableHeart" class="st2" points="384.5,481 369.5,495.6 403.8,523.5 433.7,494.3 416.6,480.3 401.6,494.9 	"/>
	<g id="Text">
		<path class="st3" d="M350.7,537.1c0.7-0.1,1.9-0.2,3.1-0.1c1.6,0.1,2.6,0.3,3.4,0.9c0.8,0.4,1.3,1.2,1.4,2.2c0.1,1-0.5,2-1.7,2.4
			l0,0c1.3,0.4,2.5,1.3,2.6,2.9c0.1,1-0.3,1.8-0.9,2.3c-0.8,0.7-2.1,1-4.2,0.9c-1.2,0-2.1-0.2-2.6-0.3L350.7,537.1z M353.3,541.7
			l1.1,0c1.5,0.1,2.2-0.6,2.1-1.5c-0.1-1.1-1-1.6-2.3-1.6c-0.6,0-1,0-1.2,0L353.3,541.7z M353.8,546.9c0.3,0.1,0.6,0.1,1.1,0.1
			c1.4,0.1,2.5-0.4,2.4-1.8c-0.1-1.3-1.4-1.9-2.8-2l-1.1,0L353.8,546.9z"/>
		<path class="st3" d="M368.8,546.5c0.1,1,0.2,1.8,0.3,2.5l-1.9-0.1l-0.2-1.2l0,0c-0.3,0.6-1.1,1.4-2.6,1.3c-1.5-0.1-3-1-3.3-3.7
			l-0.5-4.8l2.1,0.1l0.4,4.4c0.1,1.4,0.7,2.2,1.8,2.3c0.8,0,1.3-0.5,1.5-1c0.1-0.2,0.1-0.4,0.1-0.6l-0.5-4.9l2.1,0.1L368.8,546.5z"
			/>
		<path class="st3" d="M372.4,538.7c0.1,0.6-0.4,1.1-1.1,1.1c-0.7,0-1.2-0.5-1.3-1.2c-0.1-0.6,0.4-1.1,1.1-1.1
			C371.8,537.5,372.3,538.1,372.4,538.7z M371.2,549.1l-0.8-8.2l2.1,0.1l0.8,8.2L371.2,549.1z"/>
		<path class="st3" d="M374.3,537.3l2.1,0.1l1.2,11.9l-2.1-0.1L374.3,537.3z"/>
		<path class="st3" d="M386.3,537.8l1,9.6c0.1,0.8,0.2,1.7,0.3,2.3l-1.9-0.1l-0.2-1.3l0,0c-0.4,0.9-1.4,1.4-2.6,1.4
			c-2-0.1-3.8-1.8-4-4.3c-0.3-2.7,1.3-4.3,3.3-4.2c1.2,0,2,0.5,2.5,1.2l0,0l-0.5-4.6L386.3,537.8z M384.9,544.9
			c0-0.2-0.1-0.4-0.1-0.5c-0.3-0.8-1-1.5-2-1.5c-1.4-0.1-2,1.1-1.9,2.6c0.1,1.5,1,2.6,2.4,2.7c0.9,0,1.6-0.5,1.7-1.4
			c0-0.2,0-0.4,0-0.6L384.9,544.9z"/>
		<path class="st3" d="M393.5,541.8l1.3,3.7c0.3,0.9,0.6,1.8,0.8,2.7l0,0c0.1-0.9,0.3-1.8,0.4-2.6l0.7-3.7l1.7,0.1l1.4,3.7
			c0.4,1,0.7,1.9,0.9,2.8l0,0c0-0.9,0.1-1.8,0.3-2.7l0.6-3.6l2.1,0.1l-1.8,8.1l-2-0.1l-1.3-3.4c-0.3-0.9-0.6-1.6-0.9-2.6l0,0
			c-0.1,1-0.2,1.8-0.4,2.6l-0.7,3.3l-2-0.1l-3.3-8.3L393.5,541.8z"/>
		<path class="st3" d="M407,540.1c0.1,0.6-0.4,1.1-1.1,1.1c-0.7,0-1.2-0.5-1.3-1.2c-0.1-0.6,0.4-1.1,1.1-1.1
			C406.4,538.9,406.9,539.4,407,540.1z M405.8,550.4l-0.8-8.2l2.1,0.1l0.8,8.2L405.8,550.4z"/>
		<path class="st3" d="M411.5,540.4l0.2,2.1l2,0.1l0.2,1.5l-2-0.1l0.4,3.6c0.1,1,0.4,1.5,1.2,1.6c0.4,0,0.6,0,0.8-0.1l0.2,1.6
			c-0.3,0.1-0.8,0.2-1.5,0.2c-0.8,0-1.5-0.3-1.9-0.8c-0.5-0.5-0.8-1.2-0.9-2.3l-0.4-3.8l-1.2,0l-0.2-1.5l1.2,0l-0.2-1.5L411.5,540.4
			z"/>
		<path class="st3" d="M414.8,538.9l2.1,0.1l0.5,4.9l0,0c0.2-0.4,0.6-0.7,1-0.9c0.4-0.2,0.9-0.3,1.4-0.3c1.4,0.1,3,1,3.3,3.7
			l0.5,4.8l-2.1-0.1l-0.5-4.6c-0.1-1.2-0.7-2.1-1.8-2.1c-0.8,0-1.4,0.5-1.5,1.1c-0.1,0.2,0,0.4,0,0.6l0.5,4.9l-2.1-0.1L414.8,538.9z
			"/>
		<path class="st3" d="M427.9,539.5l2.1,0.1l0.5,4.9l0,0c0.2-0.4,0.6-0.7,1-0.9c0.4-0.2,0.9-0.3,1.4-0.3c1.4,0.1,3,1,3.3,3.7
			l0.5,4.8l-2.1-0.1l-0.5-4.6c-0.1-1.2-0.7-2.1-1.8-2.1c-0.8,0-1.4,0.5-1.5,1.1c-0.1,0.2,0,0.4,0,0.6l0.5,4.9l-2.1-0.1L427.9,539.5z
			"/>
		<path class="st3" d="M439.9,548.3c0.2,1.5,1.5,2.2,2.8,2.2c1,0,1.7-0.1,2.3-0.3l0.5,1.4c-0.7,0.3-1.7,0.5-2.9,0.4
			c-2.7-0.1-4.5-1.8-4.8-4.3c-0.2-2.3,1-4.3,3.7-4.2c2.8,0.1,3.9,2.3,4,4.1c0,0.4,0,0.7,0,0.9L439.9,548.3z M443.5,547
			c-0.1-0.8-0.5-2-1.9-2.1c-1.3-0.1-1.8,1.1-1.8,1.9L443.5,547z"/>
		<path class="st3" d="M453.9,550.4c0.1,0.7,0.2,1.5,0.3,2l-1.9-0.1l-0.2-0.9l-0.1,0c-0.5,0.6-1.3,1-2.4,1c-1.7-0.1-2.8-1.3-2.9-2.5
			c-0.2-2.1,1.6-3,4.7-2.9l0-0.1c-0.1-0.5-0.4-1.4-1.9-1.5c-0.8,0-1.7,0.2-2.2,0.5l-0.6-1.4c0.6-0.3,1.6-0.7,3-0.6
			c2.7,0.1,3.6,1.8,3.8,3.6L453.9,550.4z M451.6,548.3c-1.5-0.1-2.9,0.2-2.8,1.4c0.1,0.8,0.7,1.2,1.3,1.2c0.8,0,1.4-0.5,1.5-1.1
			c0-0.1,0-0.3,0-0.5L451.6,548.3z"/>
		<path class="st3" d="M455.6,546.9c-0.1-1.1-0.2-1.9-0.3-2.6l1.9,0.1l0.2,1.6l0.1,0c0.3-1.1,1.2-1.7,2.1-1.7c0.2,0,0.3,0,0.5,0.1
			l0.2,1.9c-0.2,0-0.4-0.1-0.6-0.1c-1,0-1.6,0.6-1.7,1.5c0,0.2,0,0.4,0,0.6l0.4,4.2l-2.1-0.1L455.6,546.9z"/>
		<path class="st3" d="M464,542.5l0.2,2.1l2,0.1l0.2,1.5l-2-0.1l0.4,3.6c0.1,1,0.4,1.5,1.2,1.6c0.4,0,0.6,0,0.8-0.1l0.2,1.6
			c-0.3,0.1-0.8,0.2-1.5,0.2c-0.8,0-1.5-0.3-1.9-0.8c-0.5-0.5-0.8-1.2-0.9-2.3l-0.4-3.8l-1.2,0l-0.2-1.5l1.2,0l-0.2-1.5L464,542.5z"
			/>
	</g>
</g>
</svg>
