<svg version="1.1" id="wapuugotchi_svg__item" viewBox="0 0 1e3 1e3" xmlns="http://www.w3.org/2000/svg">
	<g class="Body--group">
		<path d="m564.2 563.2-51.2 24.2c-0.5 0.2-1 0.4-1.6 0.4s-1.2-0.1-1.7-0.4c-1-0.6-1.8-1.5-1.9-2.7l-4.3-26.7c-0.2-1.1 0.2-2.2 0.9-3s1.8-1.3 2.9-1.2l55.5 2.5c1.7 0.1 3.1 1.3 3.5 3 0.2 1.5-0.6 3.2-2.1 3.9z"/>
		<polygon points="547.5 562.9 511.4 561.2 514.2 578.6" fill="#7F7F7F"/>
		<polygon points="513.4 573.7 530.5 565.7 512 564.9" fill="#5E5E5E"/>
		<path d="m514.1 586.5c-0.7 0.8-1.7 1.2-2.8 1.2h-0.1l-182.4-6.5c-1.7-0.1-3.2-1.3-3.5-3l-21-117.2c-0.2-1.1 0.1-2.2 0.8-3.1 0.7-0.8 1.8-1.3 2.9-1.3l184.6 6c1.8 0.1 3.2 1.4 3.5 3.1l18.9 117.8c0.2 1.1-0.1 2.2-0.9 3z"/>
		<polygon points="312.4 464.2 332.1 573.9 507 580.2 489.3 470" fill="#7F7F7F"/>
		<polygon points="384.5 481 369.5 495.6 403.8 523.5 433.7 494.3 416.6 480.3 401.6 494.9" fill="#FFB199"/>
		<path d="m350.7 537.1c0.7-0.1 1.9-0.2 3.1-0.1 1.6 0.1 2.6 0.3 3.4 0.9 0.8 0.4 1.3 1.2 1.4 2.2s-0.5 2-1.7 2.4c1.3 0.4 2.5 1.3 2.6 2.9 0.1 1-0.3 1.8-0.9 2.3-0.8 0.7-2.1 1-4.2 0.9-1.2 0-2.1-0.2-2.6-0.3l-1.1-11.2zm2.6 4.6h1.1c1.5 0.1 2.2-0.6 2.1-1.5-0.1-1.1-1-1.6-2.3-1.6h-1.2l0.3 3.1zm0.5 5.2c0.3 0.1 0.6 0.1 1.1 0.1 1.4 0.1 2.5-0.4 2.4-1.8-0.1-1.3-1.4-1.9-2.8-2h-1.1l0.4 3.7z" fill="#fff"/>
		<path d="m368.8 546.5c0.1 1 0.2 1.8 0.3 2.5l-1.9-0.1-0.2-1.2c-0.3 0.6-1.1 1.4-2.6 1.3s-3-1-3.3-3.7l-0.5-4.8 2.1 0.1 0.4 4.4c0.1 1.4 0.7 2.2 1.8 2.3 0.8 0 1.3-0.5 1.5-1 0.1-0.2 0.1-0.4 0.1-0.6l-0.5-4.9 2.1 0.1 0.7 5.6z" fill="#fff"/>
		<path d="m372.4 538.7c0.1 0.6-0.4 1.1-1.1 1.1s-1.2-0.5-1.3-1.2c-0.1-0.6 0.4-1.1 1.1-1.1s1.2 0.6 1.3 1.2zm-1.2 10.4-0.8-8.2 2.1 0.1 0.8 8.2-2.1-0.1z" fill="#fff"/>
		<path d="m374.3 537.3 2.1 0.1 1.2 11.9-2.1-0.1-1.2-11.9z" fill="#fff"/>
		<path d="m386.3 537.8 1 9.6c0.1 0.8 0.2 1.7 0.3 2.3l-1.9-0.1-0.2-1.3c-0.4 0.9-1.4 1.4-2.6 1.4-2-0.1-3.8-1.8-4-4.3-0.3-2.7 1.3-4.3 3.3-4.2 1.2 0 2 0.5 2.5 1.2l-0.5-4.6h2.1zm-1.4 7.1c0-0.2-0.1-0.4-0.1-0.5-0.3-0.8-1-1.5-2-1.5-1.4-0.1-2 1.1-1.9 2.6s1 2.6 2.4 2.7c0.9 0 1.6-0.5 1.7-1.4v-0.6l-0.1-1.3z" fill="#fff"/>
		<path d="m393.5 541.8 1.3 3.7c0.3 0.9 0.6 1.8 0.8 2.7 0.1-0.9 0.3-1.8 0.4-2.6l0.7-3.7 1.7 0.1 1.4 3.7c0.4 1 0.7 1.9 0.9 2.8 0-0.9 0.1-1.8 0.3-2.7l0.6-3.6 2.1 0.1-1.8 8.1-2-0.1-1.3-3.4c-0.3-0.9-0.6-1.6-0.9-2.6-0.1 1-0.2 1.8-0.4 2.6l-0.7 3.3-2-0.1-3.3-8.3h2.2z" fill="#fff"/>
		<path d="m407 540.1c0.1 0.6-0.4 1.1-1.1 1.1s-1.2-0.5-1.3-1.2c-0.1-0.6 0.4-1.1 1.1-1.1s1.2 0.5 1.3 1.2zm-1.2 10.3-0.8-8.2 2.1 0.1 0.8 8.2-2.1-0.1z" fill="#fff"/>
		<path d="m411.5 540.4 0.2 2.1 2 0.1 0.2 1.5-2-0.1 0.4 3.6c0.1 1 0.4 1.5 1.2 1.6 0.4 0 0.6 0 0.8-0.1l0.2 1.6c-0.3 0.1-0.8 0.2-1.5 0.2-0.8 0-1.5-0.3-1.9-0.8-0.5-0.5-0.8-1.2-0.9-2.3l-0.4-3.8h-1.2l-0.2-1.5h1.2l-0.2-1.5 2.1-0.6z" fill="#fff"/>
		<path d="m414.8 538.9 2.1 0.1 0.5 4.9c0.2-0.4 0.6-0.7 1-0.9s0.9-0.3 1.4-0.3c1.4 0.1 3 1 3.3 3.7l0.5 4.8-2.1-0.1-0.5-4.6c-0.1-1.2-0.7-2.1-1.8-2.1-0.8 0-1.4 0.5-1.5 1.1-0.1 0.2 0 0.4 0 0.6l0.5 4.9-2.1-0.1-1.3-12z" fill="#fff"/>
		<path d="m427.9 539.5 2.1 0.1 0.5 4.9c0.2-0.4 0.6-0.7 1-0.9s0.9-0.3 1.4-0.3c1.4 0.1 3 1 3.3 3.7l0.5 4.8-2.1-0.1-0.5-4.6c-0.1-1.2-0.7-2.1-1.8-2.1-0.8 0-1.4 0.5-1.5 1.1-0.1 0.2 0 0.4 0 0.6l0.5 4.9-2.1-0.1-1.3-12z" fill="#fff"/>
		<path d="m439.9 548.3c0.2 1.5 1.5 2.2 2.8 2.2 1 0 1.7-0.1 2.3-0.3l0.5 1.4c-0.7 0.3-1.7 0.5-2.9 0.4-2.7-0.1-4.5-1.8-4.8-4.3-0.2-2.3 1-4.3 3.7-4.2 2.8 0.1 3.9 2.3 4 4.1v0.9l-5.6-0.2zm3.6-1.3c-0.1-0.8-0.5-2-1.9-2.1-1.3-0.1-1.8 1.1-1.8 1.9l3.7 0.2z" fill="#fff"/>
		<path d="m453.9 550.4c0.1 0.7 0.2 1.5 0.3 2l-1.9-0.1-0.2-0.9h-0.1c-0.5 0.6-1.3 1-2.4 1-1.7-0.1-2.8-1.3-2.9-2.5-0.2-2.1 1.6-3 4.7-2.9v-0.1c-0.1-0.5-0.4-1.4-1.9-1.5-0.8 0-1.7 0.2-2.2 0.5l-0.6-1.4c0.6-0.3 1.6-0.7 3-0.6 2.7 0.1 3.6 1.8 3.8 3.6l0.4 2.9zm-2.3-2.1c-1.5-0.1-2.9 0.2-2.8 1.4 0.1 0.8 0.7 1.2 1.3 1.2 0.8 0 1.4-0.5 1.5-1.1v-0.5-1z" fill="#fff"/>
		<path d="m455.6 546.9c-0.1-1.1-0.2-1.9-0.3-2.6l1.9 0.1 0.2 1.6h0.1c0.3-1.1 1.2-1.7 2.1-1.7 0.2 0 0.3 0 0.5 0.1l0.2 1.9c-0.2 0-0.4-0.1-0.6-0.1-1 0-1.6 0.6-1.7 1.5v0.6l0.4 4.2-2.1-0.1-0.7-5.5z" fill="#fff"/>
		<path d="m464 542.5 0.2 2.1 2 0.1 0.2 1.5-2-0.1 0.4 3.6c0.1 1 0.4 1.5 1.2 1.6 0.4 0 0.6 0 0.8-0.1l0.2 1.6c-0.3 0.1-0.8 0.2-1.5 0.2-0.8 0-1.5-0.3-1.9-0.8-0.5-0.5-0.8-1.2-0.9-2.3l-0.4-3.8h-1.2l-0.2-1.5h1.2l-0.2-1.5 2.1-0.6z" fill="#fff"/>
	</g>
</svg>
