<svg xmlns="http://www.w3.org/2000/svg" xml:space="preserve" width="60" height="90"><g style="display:inline"><g fill="none" fill-rule="evenodd" style="clip-rule:evenodd;display:inline;opacity:1;fill-rule:evenodd;stroke-linecap:round;stroke-linejoin:round;stroke-miterlimit:1.41421"><g style="opacity:1"><g style="display:inline"><path d="m24.615 34.466-4.261 10.246-.262.207-.31 1.15.457.19.593-1.031-.035-.332 4.3-10.289z" style="display:inline;fill:#dcdcdc;stroke:#000;stroke-width:1.5px" transform="translate(-.255 8.359)"/><path d="m23.59 33.653-.023.047 2.931 1.227s.024-.029.247-.582c-1.692.159-2.365-.282-3.155-.692z" style="display:inline;fill:#c37531;stroke:#000;stroke-width:1.5px" transform="translate(-.255 8.359)"/></g><path d="M24.608 34.465c-.097.25-4.254 10.247-4.254 10.247l-.262.207-.31 1.15.457.19.593-1.031-.035-.332 4.298-10.29s-.167-.001-.487-.14z" style="opacity:1;fill:#dcdcdc" transform="translate(-.255 8.359)"/><path d="m25.33 34.43 1.168.497.18-.392c-.583-.018-.928-.002-1.348-.104z" style="display:inline;fill:#c37531" transform="translate(-.255 8.359)"/></g><g style="clip-rule:evenodd;display:inline;opacity:1;fill-rule:evenodd;stroke-linecap:round;stroke-linejoin:round;stroke-miterlimit:1.41421"><path d="m27.555 24.082-1.741 4.03s1.887-1.063 4.097-1.42l.576-1.384-.846-.797-1.026-.429z" style="fill:#c37531;stroke:#000;stroke-width:1.5px;stroke-opacity:1" transform="translate(-.249 8.338)"/><path d="m25.614 27.943-.369.762Z" style="fill:none;stroke:#000;stroke-width:1px;stroke-linecap:butt;stroke-linejoin:miter;stroke-opacity:1" transform="translate(-.249 8.338)"/><path d="m27.544 24.06-1.547 3.627c1.742-.776 3.916-.962 3.916-.962l.563-1.44-.846-.796-1.026-.43Z" style="fill:#c37531" transform="translate(-.249 8.338)"/><path d="m27.314 27.204 1.241-.275 1.075-2.44-1.026-.43Z" style="fill:#aa5700" transform="translate(-.249 8.338)"/></g></g></g></svg>