<svg xmlns="http://www.w3.org/2000/svg" viewBox="0 0 1000 1000">
    <g class="BeforeLeftArm--part">
        <path fill="#525851" d="m566.451 522.904.07.414c1.312 7.117-.415 13.405-7.532 14.717l-74.207 13.75c-4.283.83-6.149-2.487-5.734-6.564l-18.656-109.998 78.146-14.993c4.974-.898 9.742 4.146 11.193 12.022l16.72 90.652"/><path fill="#525851" d="m557.124 520.624-75.52 13.957c-4.284.829-8.43-2.073-9.259-6.357l-15.684-84.71c-.829-4.283 2.073-8.429 6.357-9.258l75.52-14.026z"/><path fill="#ffe9b9" d="M557.124 520.624s.207.069.483.207c2.004.967 3.386 2.902 3.8 5.113.277 1.59.484 3.455-.276 4.836-.69 1.313-2.073 2.488-3.109 2.695l-79.596 14.026-.76-13.197z"/><path fill="#8d441d" d="M473.451 432.322s1.796 16.237-15.339 19.415l-1.59-14.993zm-1.866 85.538s16.238-1.797 19.416 15.339l-13.957 1.313-5.044-3.593zm67.298 6.426s-1.796-16.237 15.339-19.416l2.833 15.685zm1.935-85.47s-16.237 1.797-19.416-15.338l16.168-2.073z"/><path fill="none" stroke="#000" stroke-linecap="round" stroke-linejoin="round" stroke-miterlimit="10" stroke-width="4.363" d="m557.124 520.624-75.52 13.957c-4.284.829-8.43-2.073-9.259-6.357l-15.684-84.71c-.829-4.283 2.073-8.429 6.357-9.258l75.52-14.026z"/><path fill="none" stroke="#000" stroke-linecap="round" stroke-linejoin="round" stroke-miterlimit="10" stroke-width="3.116" d="m478.426 547.501 79.596-14.026c1.036-.207 2.35-1.382 3.11-2.694.76-1.382.552-3.317.276-4.837v0a7.216 7.216 0 0 0-3.8-5.113 4.152 4.152 0 0 0-.484-.207v0"/><path d="M478.288 545.636c-.07.622.069 1.243.483 1.796.346.622.968 1.106 1.658 1.52.691.415 1.52.691 2.35.76.414.07.829.07 1.174 0 .07 0 .208 0 .277-.069l.345-.069.83-.138 13.127-2.418 26.325-4.906 26.325-4.906 6.564-1.243.829-.139c.207-.069.483-.069.69-.138.415-.138.899-.276 1.244-.414.83-.346 1.52-.83 2.073-1.382 1.175-1.175 1.866-2.833 2.073-4.699.138-.967.138-1.934.07-2.902a22.945 22.945 0 0 0-.415-3.04c-.208-1.174.552-2.349 1.727-2.556 1.175-.208 2.35.553 2.556 1.727.415 2.28.691 4.768.346 7.324a13 13 0 0 1-1.037 3.8 12.496 12.496 0 0 1-2.28 3.455c-1.036.967-2.21 1.796-3.454 2.28a9.043 9.043 0 0 1-1.935.622c-.345.069-.622.138-.967.207l-.83.138-6.563 1.244-26.325 4.906-26.325 4.905-13.128 2.419-.829.138-.484.069c-.207.07-.345.07-.552.07-.691.068-1.451.068-2.142.068-1.451-.069-2.833-.483-4.077-1.313-1.174-.829-2.21-2.003-2.625-3.385-.484-1.382-.346-3.04.621-4.077l.484-.552c.346-.415.967-.415 1.382-.07.276.346.415.622.415.968z"/><path fill="none" stroke="#000" stroke-linecap="round" stroke-linejoin="round" stroke-miterlimit="10" stroke-width="4.363" d="m566.451 522.904-16.79-90.652c-1.45-7.876-6.218-12.92-11.193-12.022"/><path fill="none" stroke="#000" stroke-linecap="round" stroke-linejoin="round" stroke-miterlimit="10" stroke-width="2.493" d="M550.905 441.926c-2.003-7.048-7.462-13.543-10.847-12.852m12.852 23.63c-2.005-7.047-7.463-13.542-10.849-12.851m21.558 70.407c-2.004-7.048-7.463-13.543-10.848-12.852M565.622 520.97c-2.003-7.048-7.462-13.543-10.847-12.852"/><path fill="#8d441d" stroke="#000" stroke-linecap="round" stroke-linejoin="round" stroke-miterlimit="10" stroke-width="2.493" d="M473.451 432.322s1.796 16.237-15.339 19.415m13.473 66.123s16.238-1.797 19.416 15.339m47.882-8.913s-1.796-16.237 15.339-19.416m-13.404-66.054s-16.237 1.797-19.416-15.338"/><path fill="#6b7069" d="m473.17 454.882 53.803-9.988 5.057 27.241-53.803 9.988z"/><path fill="#6b7069" stroke="#000" stroke-linecap="round" stroke-linejoin="round" stroke-miterlimit="10" stroke-width="3.116" d="m473.17 454.882 53.803-9.988 5.057 27.241-53.803 9.988z"/><path d="m561.27 525.737-17.827 2.694 17.62-3.869c.345-.07.69.138.76.484.068.345-.139.622-.554.69.07 0 .07 0 0 0zm-.484 3.454-41.042 6.979 40.765-8.222c.346-.07.691.138.76.483.07.346-.069.691-.483.76.069 0 .069 0 0 0zm-80.84 14.51 31.161-5.113-30.885 6.357a.637.637 0 0 1-.76-.484c-.069-.414.138-.69.484-.76zm-2.142-4.975 45.118-7.738-44.842 8.982a.636.636 0 0 1-.76-.484c-.069-.414.138-.69.484-.76zm.622 3.317 20.244-3.11-19.968 4.354a.638.638 0 0 1-.276-1.244z"/>
    </g>
</svg>
