<?xml version="1.0" encoding="utf-8"?>
<!-- Generator: Adobe Illustrator 25.2.0, SVG Export Plug-In . SVG Version: 6.00 Build 0)  -->
<svg version="1.1" id="Layer_1" xmlns="http://www.w3.org/2000/svg" xmlns:xlink="http://www.w3.org/1999/xlink" x="0px" y="0px"
	 viewBox="0 0 1000 1000" style="enable-background:new 0 0 1000 1000;" xml:space="preserve">
<style type="text/css">
	.st0{fill:#FFFFFF;}
	.st1{fill:#EA4335;}
	.st2{fill:#FBBC05;}
	.st3{fill:#4285F4;}
	.st4{fill:#34A853;}
</style>
<g id="Ball--group">
	
		<ellipse id="Ball-bg" transform="matrix(0.7071 -0.7071 0.7071 0.7071 -236.4377 487.8127)" cx="470.6" cy="529.3" rx="133.5" ry="133.5"/>
	<circle id="Ball_1_" class="st0" cx="470.6" cy="529.3" r="126.1"/>
	<g>
		<path class="st1" d="M413.7,524.6c-1.4,6.7-7.8,10.6-14.2,9.1c-6.5-1.4-10.7-7.7-9.3-14.5c1.4-6.9,7.7-10.6,14.2-9.1
			S415.2,517.8,413.7,524.6z M408.5,523.5c0.9-4.2-1.6-7.8-5.1-8.7s-7.2,1.4-8.1,5.6c-0.9,4.2,1.6,7.9,5.1,8.7
			C404,529.9,407.7,527.7,408.5,523.5z"/>
		<path class="st2" d="M439.1,530.2c-1.5,6.6-7.9,10.4-14.4,9.1c-6.5-1.4-10.7-7.5-9.2-14.2c1.5-6.8,7.8-10.5,14.4-9
			C436.4,517.5,440.7,523.5,439.1,530.2z M434,529.1c0.9-4.2-1.5-7.7-5.1-8.5c-3.6-0.8-7.3,1.4-8.2,5.6c-0.9,4.2,1.5,7.7,5.1,8.5
			S433.1,533.2,434,529.1z"/>
		<path class="st3" d="M466.1,524.5c-1.9,8.1-2.9,12.2-4.8,20.3c-2,8.4-7.9,10.8-13.9,9.7c-5.7-1.1-8.2-5.5-8.8-8.8
			c2-0.4,2.9-0.6,4.9-0.9c0.4,2,1.8,4.6,5,5.2c3.9,0.8,6.8-1.1,7.8-5.5c0.2-0.7,0.2-1,0.4-1.6c-0.1,0-0.1,0-0.2,0
			c-1.5,1.2-4,1.9-6.8,1.4c-5.9-1.2-10.1-7.3-8.7-13.7c1.5-6.5,8-10.4,13.9-9.1c2.8,0.6,4.8,2.3,5.6,3.9c0.1,0,0.1,0,0.2,0
			c0.2-0.7,0.3-1.1,0.4-1.9C463.2,523.9,464.1,524.1,466.1,524.5C466.1,524.5,466.1,524.5,466.1,524.5z M459,534.3
			c0.9-4-1.1-7.5-4.7-8.2c-3.6-0.7-7.3,1.6-8.2,5.6c-0.9,4,1.4,7.5,5,8.2C454.7,540.6,458.1,538.3,459,534.3z"/>
		<path class="st4" d="M477.1,514.3c-2.7,11-5.3,22-8,33c-2-0.4-3-0.6-5-1c2.6-11,5.3-22.1,7.9-33.1
			C474.1,513.7,475.1,513.9,477.1,514.3z"/>
		<path class="st1" d="M490.5,544.2c1.4,1.3,2,2,3.4,3.3c-1.8,1.6-5.7,4.1-11.1,3.1c-6.7-1.2-10.5-7.1-9-13.4
			c1.6-6.7,7.8-10.2,13.9-9c6.2,1.2,8,6.4,8.4,9c0.1,0.5,0.1,0.8,0.2,1.4c-7,1.3-10.4,1.9-17.3,3.2c0.7,2.5,2.3,4,4.9,4.5
			C486.6,546.7,488.7,545.8,490.5,544.2L490.5,544.2z M479.1,537.9c4.6-0.8,7-1.3,11.6-2.1c-0.2-1.5-1.7-2.8-3.8-3.2
			C484.3,532,480,533.5,479.1,537.9z"/>
		<path class="st3" d="M371.8,511.6c0.4-2,0.6-3.1,1-5.1c6.7,1.7,10.1,2.5,16.8,4.1c0,0.9-0.1,2-0.4,3.1c-0.8,3.8-2.7,8.2-6.7,10.8
			c-3.9,2.6-8.3,3.5-13.7,2.3c-10.3-2.7-16.6-13.1-14.8-23.3c1.9-10.1,12.1-16.6,22.1-14.1c5.6,1.4,9.1,4.7,11.5,8.3
			c-1.7,1.1-2.5,1.6-4.2,2.7c-1.7-2.6-4.3-4.9-8.3-5.9c-7.3-1.9-14.3,2.7-15.7,10.3c-1.5,7.6,3.1,15.1,10.4,16.8
			c4.7,1.1,7.8-0.2,9.9-1.6c1.7-1.1,3-2.9,4-5.6C378.9,513.3,376.5,512.8,371.8,511.6z"/>
	</g>
</g>
</svg>
