<svg version="1.1" id="wapuugotchi_svg__item" viewBox="0 0 1e3 1e3" xmlns="http://www.w3.org/2000/svg">
	<g class="Body--group">
		<ellipse transform="matrix(.7071 -.7071 .7071 .7071 -236.44 487.81)" cx="470.6" cy="529.3" rx="133.5" ry="133.5"/>
		<circle cx="470.6" cy="529.3" r="126.1" fill="#fff"/>
		<path d="m413.7 524.6c-1.4 6.7-7.8 10.6-14.2 9.1-6.5-1.4-10.7-7.7-9.3-14.5 1.4-6.9 7.7-10.6 14.2-9.1s10.8 7.7 9.3 14.5zm-5.2-1.1c0.9-4.2-1.6-7.8-5.1-8.7s-7.2 1.4-8.1 5.6 1.6 7.9 5.1 8.7c3.6 0.8 7.3-1.4 8.1-5.6z" fill="#EA4335"/>
		<path d="m439.1 530.2c-1.5 6.6-7.9 10.4-14.4 9.1-6.5-1.4-10.7-7.5-9.2-14.2 1.5-6.8 7.8-10.5 14.4-9 6.5 1.4 10.8 7.4 9.2 14.1zm-5.1-1.1c0.9-4.2-1.5-7.7-5.1-8.5s-7.3 1.4-8.2 5.6 1.5 7.7 5.1 8.5 7.3-1.5 8.2-5.6z" fill="#FBBC05"/>
		<path d="m466.1 524.5c-1.9 8.1-2.9 12.2-4.8 20.3-2 8.4-7.9 10.8-13.9 9.7-5.7-1.1-8.2-5.5-8.8-8.8 2-0.4 2.9-0.6 4.9-0.9 0.4 2 1.8 4.6 5 5.2 3.9 0.8 6.8-1.1 7.8-5.5 0.2-0.7 0.2-1 0.4-1.6h-0.2c-1.5 1.2-4 1.9-6.8 1.4-5.9-1.2-10.1-7.3-8.7-13.7 1.5-6.5 8-10.4 13.9-9.1 2.8 0.6 4.8 2.3 5.6 3.9h0.2c0.2-0.7 0.3-1.1 0.4-1.9 2.1 0.4 3 0.6 5 1zm-7.1 9.8c0.9-4-1.1-7.5-4.7-8.2s-7.3 1.6-8.2 5.6 1.4 7.5 5 8.2 7-1.6 7.9-5.6z" fill="#4285F4"/>
		<path d="m477.1 514.3c-2.7 11-5.3 22-8 33l-5-1c2.6-11 5.3-22.1 7.9-33.1 2.1 0.5 3.1 0.7 5.1 1.1z" fill="#34A853"/>
		<path d="m490.5 544.2c1.4 1.3 2 2 3.4 3.3-1.8 1.6-5.7 4.1-11.1 3.1-6.7-1.2-10.5-7.1-9-13.4 1.6-6.7 7.8-10.2 13.9-9 6.2 1.2 8 6.4 8.4 9 0.1 0.5 0.1 0.8 0.2 1.4-7 1.3-10.4 1.9-17.3 3.2 0.7 2.5 2.3 4 4.9 4.5 2.7 0.4 4.8-0.5 6.6-2.1zm-11.4-6.3c4.6-0.8 7-1.3 11.6-2.1-0.2-1.5-1.7-2.8-3.8-3.2-2.6-0.6-6.9 0.9-7.8 5.3z" fill="#EA4335"/>
		<path d="m371.8 511.6c0.4-2 0.6-3.1 1-5.1 6.7 1.7 10.1 2.5 16.8 4.1 0 0.9-0.1 2-0.4 3.1-0.8 3.8-2.7 8.2-6.7 10.8-3.9 2.6-8.3 3.5-13.7 2.3-10.3-2.7-16.6-13.1-14.8-23.3 1.9-10.1 12.1-16.6 22.1-14.1 5.6 1.4 9.1 4.7 11.5 8.3-1.7 1.1-2.5 1.6-4.2 2.7-1.7-2.6-4.3-4.9-8.3-5.9-7.3-1.9-14.3 2.7-15.7 10.3-1.5 7.6 3.1 15.1 10.4 16.8 4.7 1.1 7.8-0.2 9.9-1.6 1.7-1.1 3-2.9 4-5.6-4.8-1.1-7.2-1.6-11.9-2.8z" fill="#4285F4"/>
	</g>
</svg>
