<svg version="1.1" xmlns="http://www.w3.org/2000/svg" xmlns:xlink="http://www.w3.org/1999/xlink" x="0px" y="0px" viewBox="0 0 1000 1000" enable-background="new 0 0 1000 1000" xml:space="preserve">
  <g transform="translate(-41.363 -69.849) scale(1.60847)">
    <defs>
      <path id="a" d="M84.834 176.837c-3.676-.323-7.047-.834-10.021-1.518a95.819 95.819 0 0 1-5.892-1.585c-1.378-.421-3.172-1.112-4.528-1.598a46.665 46.665 0 0 1-5.677-2.517c-4.438-2.379-6.463-3.464-8.966-5.332-1.242-.927-2.915-2.144-4.113-3.127a73.703 73.703 0 0 1-3.778-3.353 63.777 63.777 0 0 1-6.73-7.511c-6.125-8.038-8.638-15.249-9.464-17.618-1.543-4.428-2.186-8.229-2.46-9.852-.463-2.737-.657-6.447-.766-9.22-.061-1.564.002-3.661.192-5.214.188-1.531.376-3.581.631-5.102a66.288 66.288 0 0 1 1.056-4.989 58.63 58.63 0 0 1 3.307-9.508 60.535 60.535 0 0 1 4.789-8.795c2.473-3.811 6.817-9.493 13.467-14.922 1.198-.978 2.815-2.269 4.115-3.107 2.565-1.655 6.066-3.74 8.752-5.192 1.217-.658 5.819-2.76 9.991-4.059 5.692-1.772 9.613-2.46 13.75-2.948 6.65-.784 11.679-.377 13.331-.244 1.709.173 3.988.417 5.683.694 1.775.29 4.123.793 5.877 1.192a53.95 53.95 0 0 1 3.787 1.041c1.436.451 3.32 1.141 4.74 1.637 3.996 1.395 11.047 5.127 14.114 7.377 1.229.901 2.9 2.059 4.093 3.007a75.813 75.813 0 0 1 3.892 3.338 65.93 65.93 0 0 1 6.853 7.398c.789 1 3.188 4.041 5.586 8.322 2.791 4.983 4.168 9.077 4.182 9.118 1.154 3.465 1.917 5.755 2.638 9.784.546 3.056.849 7.202.953 10.305.001.035-.038 4.665-.362 7.021-.42 3.051-.896 6.51-1.979 10.001-.902 2.911-1.683 5.425-3.575 9.396-1.29 2.706-3.32 6.171-5.021 8.641a64.705 64.705 0 0 1-6.347 7.788c-2.991 3.145-5.191 4.913-7.521 6.786-2.47 1.986-6.95 4.833-8.65 5.709-1.343.693-3.095 1.701-4.486 2.293-1.4.595-3.249 1.433-4.67 1.978a70.827 70.827 0 0 1-4.613 1.581c-1.834.546-4.3 1.216-6.177 1.589-2.435.484-4.114.766-7.625 1.155a64.16 64.16 0 0 1-12.358.16z"/>
    </defs>
	  <clipPath id="b">
      <use xlink:href="#a" overflow="visible"/>
    </clipPath>
	  <circle cx="90.851" cy="112.888" r="58.495" fill="none" stroke="#000" stroke-linejoin="bevel" stroke-opacity=".993" stroke-width="5" paint-order="stroke fill markers"/>
	  <g stroke="#e3e3e3" clip-path="url(#b)">
      <path fill="#030309" stroke="#020202" d="M66.059 134.228c-2.511.915-4.543.983-5.635 1.021-2.119-.024-3.456-.231-5.5-.85.623-5.702 1.161-10.626 3.809-20.397 2.036 6.028 3.643 10.79 7.896 19.636.056.088.13.207.187.295-.228.088-.528.212-.757.295m-15.448-1.856c-8.225-5.178-13.712-17.17-8.288-30.074 1.287 8.829 2.891 17.24 9.526 30.792-.37-.215-.874-.49-1.238-.718m29.287-19.23c-.226 5.535-2.104 13.32-9.768 18.983 1.842-8.276 4.707-16.28 6.547-24.557.259-1.162.863-3.883.525-7.261.886 1.898 2.96 6.343 2.696 12.835m-7.256-1.893c-.141 2.6-1.044 5.613-1.479 7.062a486.103 486.103 0 0 0-1.687 7.934c-2.014-5.304-5.385-14.181-7.811-25.418 1.677-.133 4.21-.335 3-1.861-.129-.163-10.876-.178-10.979-.171-.707.044-.861.823-.876.912-.167.973.139.996 2.521 1.177 1.37 6.225 1.396 6.344 2.459 9.999-1.288 4.748-2.503 9.231-3.519 15.734-2.11-5.612-5.298-14.093-6.723-25.715 2.142-.164 2.299-.29 2.366-.343.658-.522.592-1.443.18-1.681-.215-.125-.58-.049-.827-.027-2.424.213-3.29.224-4.128.235a40.442 40.442 0 0 1-1.046-.036c6.407-9.287 18.237-14.64 29.074-4.447-.075-.002-6.936.705-2.592 8.68 1.099 2.018 2.256 4.466 2.067 7.966m9.736 2.913c.828-12.133-6.791-28.364-23.247-27.279-21.746 3.904-28.361 33.583-10.41 46.7 14.103 10.307 32.347-.221 33.657-19.421"/>
    </g>
  </g>
</svg>