<?xml version="1.0" encoding="utf-8"?>
<!-- Svg Vector Icons : http://www.onlinewebfonts.com/icon -->
<!DOCTYPE svg PUBLIC "-//W3C//DTD SVG 1.1//EN" "http://www.w3.org/Graphics/SVG/1.1/DTD/svg11.dtd">
<svg version="1.1" xmlns="http://www.w3.org/2000/svg" xmlns:xlink="http://www.w3.org/1999/xlink" x="0px" y="0px" viewBox="0 0 1000 1000" enable-background="new 0 0 1000 1000" xml:space="preserve">
<metadata> Svg Vector Icons : http://www.onlinewebfonts.com/icon </metadata>
<g><g transform="translate(0.000000,511.000000) scale(0.100000,-0.100000)"><path d="M3852.6,3567.6c-36.4-3.8-153.2-17.2-258.5-28.7C2594.6,3431.6,1639,3077.4,1095.2,2614c-147.4-124.5-365.7-375.3-492.1-564.9C141.7,1355.9,0,423.4,168.5-825.1c38.3-281.5,116.8-674,155.1-769.8C373.3-1719.3,398.2-1725,944-1725h480.6l266.1-258.5c775.5-748.7,1583.6-1219.8,2305.5-1342.3c268.1-46,706.6-28.7,986.1,38.3c584,137.9,1055.1,377.2,2056.5,1053.2l497.9,333.2l210.6-197.2c407.9-381,737.2-626.2,1024.4-764c149.4-70.8,178.1-78.5,317.9-78.5c135.9,0,168.5,7.7,281.5,63.2c231.7,113,409.8,371.5,495.9,714.2c88.1,344.7-5.7,771.7-222.1,1011c-34.5,38.3-501.7,365.7-1039.8,729.6l-976.6,660.6l-338.9,1101c-185.7,605.1-361.9,1145.1-386.8,1196.8c-141.7,281.5-381,520.8-649.1,656.8c-109.2,55.5-499.8,187.7-716.2,243.2c-409.8,105.3-591.7,128.3-1120.2,134C4143.7,3573.3,3889,3571.4,3852.6,3567.6z M5039.8,3123.3c411.7-70.8,854-203,1080-323.6c141.7-78.5,335.1-279.6,402.1-421.3c30.6-65.1,191.5-557.2,356.2-1091.5l298.7-972.7L7052.3,299C6012.5,176.4,4900-55.3,3737.7-386.6c-442.3-126.4-1120.2-354.2-1413.1-473c-155.1-63.2-239.4-88.1-243.2-74.7c-109.2,333.2-203,706.6-266.2,1047.4c-235.5,1282.9,15.3,2196.3,733.4,2676.9c342.8,229.8,620.4,302.5,1418.9,375.3C4183.9,3184.6,4825.3,3159.7,5039.8,3123.3z M1709.9,2508.7c-128.3-178.1-281.5-591.7-338.9-911.5c-42.1-239.4-55.5-739.1-28.7-1034C1384.4,117,1495.4-421,1650.5-922.7c32.6-101.5,57.4-193.4,57.4-203c0-9.6-63.2-59.4-141.7-107.2l-141.7-90h-373.4H675.9l-19.1,72.8c-9.6,38.3-36.4,178.1-57.4,310.2C430.8,101.7,499.7,974.9,800.4,1572.3c172.3,342.8,465.3,681.7,760.2,878.9c93.8,61.3,174.2,113,178.1,113C1744.4,2564.2,1731,2539.3,1709.9,2508.7z M7994.4-501.4c329.4-222.1,608.9-415.5,622.3-428.9c21.1-19.2,1.9-30.6-107.2-57.5c-386.8-93.8-788.9-306.4-1612.3-854c-758.3-501.7-968.9-630-1302.1-790.8c-430.8-204.9-735.3-291-1110.6-310.2c-731.5-38.3-1547.2,360-2441.4,1187.2c-111.1,103.4-201.1,193.4-201.1,203c0,23,308.3,176.2,580.2,285.3c1302.1,526.6,3891,1150.8,4835,1168.1l141.7,1.9L7994.4-501.4z M9246.7-1355.5c141.7-67,239.4-281.5,243.2-532.3c3.8-338.9-235.5-693.2-438.5-649.1c-116.8,24.9-354.2,170.4-603.2,371.5c-166.6,132.1-536.2,463.4-536.2,478.7c0,19.2,432.7,220.2,576.4,266.2C8792.9-1321,9116.5-1292.3,9246.7-1355.5z"/></g></g>
</svg>