<svg width="60" height="32" viewBox="0 0 60 32" fill="none" xmlns="http://www.w3.org/2000/svg">
    <path d="M50.5429 21.2339C49.3559 21.0469 48.0805 20.8796 46.7428 20.7296L45.9252 16.7552V16.7544L42.8023 1.56862C42.7353 1.25058 42.5459 0.971205 42.2728 0.793636C42.0005 0.616066 41.6667 0.556082 41.3494 0.626326C41.2626 0.646845 32.5253 2.56223 29.7175 2.56223C26.8259 2.56223 17.8432 0.645258 17.7531 0.62554C17.4327 0.55688 17.0973 0.620804 16.8234 0.80311C16.5496 0.985416 16.3618 1.27031 16.3018 1.59389L13.5105 16.752V16.7551L12.7686 20.7833C11.6069 20.9191 10.499 21.0706 9.45707 21.234C4.77955 21.9719 0 23.0728 0 25.6456C0 28.2183 4.78096 29.3202 9.45707 30.058C14.953 30.9262 22.2507 31.4021 30 31.4021C37.7515 31.4021 45.0462 30.9246 50.5429 30.058C55.2205 29.3202 60 28.2184 60 25.6456C59.9992 23.0713 55.219 21.9718 50.5423 21.234L50.5429 21.2339ZM49.1555 27.8071C43.908 28.5569 37.1051 28.9704 29.9977 28.9704C22.8901 28.9704 16.0872 28.5577 10.8407 27.8071C5.0607 26.98 3.17753 26.0433 2.61021 25.6464C3.17844 25.2494 5.0607 24.3126 10.8407 23.4864C11.3158 23.4177 11.8067 23.3538 12.3039 23.2915L11.9914 24.9906C11.9259 25.3458 12.0222 25.7127 12.2526 25.9898C12.483 26.2668 12.8263 26.4286 13.187 26.4286H46.4198C46.7844 26.4286 47.1316 26.2636 47.3621 25.9803C47.5925 25.6962 47.6833 25.3245 47.6107 24.9662L47.2556 23.237C47.9075 23.3152 48.5428 23.3988 49.1552 23.4856C54.9344 24.3119 56.8192 25.2495 57.3873 25.6456C56.8214 26.0434 54.936 26.9793 49.156 27.8072L49.1555 27.8071ZM40.6645 3.25986L43.2397 15.782H16.1609L18.4678 3.25824C21.1013 3.79806 27.2248 4.9929 29.7163 4.9929C32.1423 4.99448 38.0928 3.802 40.6648 3.25982L40.6645 3.25986ZM14.699 23.7159L15.7131 18.2159H43.7394L44.9287 23.9951H14.6477L14.699 23.7159Z" fill="white"/>
</svg>
