<svg width="60" height="50" viewBox="0 0 60 50" fill="none" xmlns="http://www.w3.org/2000/svg">
    <path d="M59.9505 24.4076L55.7312 11.6068C55.6466 11.3511 55.4634 11.1418 55.2206 11.0291L46.5852 6.9777L46.1425 6.06211C45.4105 4.54812 44.1809 3.48285 42.5878 2.98031L33.2642 0.0443523C33.1037 -0.00539242 32.933 -0.0143088 32.7689 0.0227648C27.978 1.08243 22.9142 1.08243 18.1232 0.0227648C17.959 -0.0143088 17.7893 -0.00539363 17.627 0.0443523L8.30422 2.98031C6.71096 3.48198 5.48236 4.54872 4.74995 6.06211L0.0971941 15.6858C0.0325529 15.8191 0 15.9655 0 16.1138V20.0949C0 20.6336 0.432489 21.071 0.967291 21.071H9.21158L11.4963 41.1534C11.553 41.6457 11.9655 42.0188 12.4575 42.0188H15.7495L15.6835 45.3677C15.6747 45.8637 16.0355 46.2894 16.5229 46.3546L43.5309 49.992C43.5736 49.9972 43.6164 50 43.6587 50C44.0959 50 44.4874 49.7006 44.5963 49.2627L49.7443 28.6625L58.3564 29.8226C58.8912 29.8921 59.373 29.518 59.4432 28.983L59.9906 24.8449C60.0115 24.6975 59.9971 24.5487 59.9511 24.4075L59.9505 24.4076ZM31.0711 2.32972C29.7299 4.03845 27.6698 5.08066 25.445 5.08066C23.2137 5.08066 21.1582 4.04071 19.8179 2.32972C23.5336 2.91727 27.3567 2.91727 31.071 2.32972H31.0711ZM11.0407 20.0394V15.177C11.0407 14.6373 10.6083 14.1999 10.0735 14.1999C9.53819 14.1999 9.10616 14.6364 9.10616 15.177V19.1186H1.93429V16.3395L6.48751 6.91794C6.65819 6.5655 6.86606 6.2553 7.10695 5.98123C9.1257 7.24413 10.6082 9.17476 11.2979 11.4884C11.4239 11.9103 11.8085 12.1834 12.2247 12.1834C12.3173 12.1834 12.4112 12.1698 12.5042 12.1426C13.0158 11.9873 13.3055 11.4415 13.153 10.9257C12.415 8.45205 10.9184 6.34397 8.88904 4.84128L17.4036 2.16026C18.9764 5.14403 22.0536 7.03381 25.4451 7.03381C28.8288 7.03381 31.9171 5.14211 33.4908 2.16074L42.0025 4.84092C39.9726 6.34409 38.4766 8.45301 37.7386 10.9254C37.5851 11.4416 37.8744 11.9869 38.3864 12.1422C38.4803 12.1699 38.5729 12.1831 38.6659 12.1831C39.0821 12.1831 39.4672 11.9099 39.5932 11.488C40.2824 9.17488 41.7659 7.24425 43.7841 5.98087C44.0241 6.25446 44.2334 6.56421 44.4027 6.91758L48.9568 16.3391V19.1183L41.785 19.1188V15.1771C41.785 14.6374 41.3511 14.2001 40.8167 14.2001C40.2829 14.2001 39.8485 14.6365 39.8485 15.1771V20.04L37.5698 40.0671H13.319L11.0407 20.0394ZM57.6528 27.7578L49.1444 26.6113C48.6584 26.5527 48.1985 26.8596 48.0776 27.3406L42.9296 47.9408L17.636 44.5351L17.6852 42.0188H38.4323C38.9243 42.0188 39.3377 41.6462 39.3945 41.1535L41.6797 21.071H49.9225C50.4573 21.071 50.8907 20.6346 50.8907 20.0949V16.1139C50.8907 15.966 50.8568 15.8192 50.7935 15.6859L47.9293 9.76292L54.0255 12.6223L58.0421 24.8104L57.6528 27.7578Z" fill="white"/>
</svg>
