<svg version="1.1" viewBox="0 0 60 66" xml:space="preserve" xmlns="http://www.w3.org/2000/svg" xmlns:xlink="http://www.w3.org/1999/xlink"><defs><linearGradient id="linearGradient1038" x1="1.1441" x2="58.68" y1="32.985" y2="32.985" gradientUnits="userSpaceOnUse"><stop style="stop-color:#ffffff" offset="0"/></linearGradient></defs><title>Artboard</title><desc>Created with Sketch.</desc><g fill="none" fill-rule="evenodd"><g><a><path d="m31.242 1.1211c-7.1246 0.1887-13.306 3.4267-16.742 8.8262-1.4098 1.3906-4.1194 2.9321-5.0293 3.1348-0.42142 0.09332-0.73937 0.37618-0.85156 0.75586-0.1129 0.38429 0.0086 0.80527 0.32422 1.125 0.28935 0.29168 0.89108 0.65625 2.0957 0.65625 0.64793 0 1.4739-0.10782 2.5156-0.38672 0.39124 0.88639 1.064 1.4512 1.6133 1.6953 0.19096 0.08474 0.45109 0.11583 0.75 0.10938l-0.39062 1.1309-0.65039-0.51562c-6.57e-4 -0.0032-0.0013-0.0065-2e-3 -0.0098-0.1647-0.8012-0.6525-1.4345-1.3047-1.6953-0.17929-0.07168-0.38073-0.10938-0.60156-0.10938-0.9806 0-2.2981 0.72948-3.1328 1.7344-0.6426 0.7743-0.91794 1.6258-0.77344 2.3965 0.22046 1.1745 1.0684 1.9085 2.2148 1.9199 0 0 3.5216 2.8457 4.191 4.5411 0.66931 1.6954-6.5835 10.98-6.5835 10.98-0.4812-0.66883-0.94264-1.2142-1.3398-1.5195-0.8929-0.6866-1.8759-1.0508-2.8438-1.0508-1.0751 0-2.0694 0.46334-2.7266 1.2695-0.74343 0.9126-0.9994 2.1573-0.7207 3.5039 0.6234 3.0112 5.5525 8.4169 9.1543 9.2812 0.32272 0.07736 0.62507 0.11524 0.89844 0.11524 0.92978 0 1.4175-0.44631 1.6621-0.82031 0.46786-0.71528 0.42982-1.704 0.27148-2.4922 2.3979 1.7027 6.3631 2.6561 11.068 2.8418-0.02416 1.5241 0.07816 2.9952 0.97852 3.9258 0.5645 0.58335 1.3723 0.87891 2.4043 0.87891 2.1344 0 3.5145-1.1113 4.3418-2.3535 0.18852 0.0071 0.38943 0.01172 0.60742 0.01172 1.3736 0 3.3102-0.17205 5.5391-0.85156-3.3305 5.1728-9.5971 9.0249-15.068 9.1289-1.9622 0.04258-4.6221-0.43441-6.0859-2.8945-1.7776-2.9881-4.6137-4.062-6.4961-3.5762-1.4826 0.38145-2.3655 1.6059-2.4219 3.3574-0.047219 1.4591 1.0504 3.2138 3.0098 4.8145 2.5761 2.1045 6.6376 3.877 10.779 3.877 1.0282 0 2.0613-0.10903 3.0781-0.34961 9.033-2.1386 17.103-9.4143 19.275-17.346 4.8852-3.4884 6.4386-10.422 6.8789-15.656 0.56095-6.6717-0.47398-13.294-1.75-16.898-0.45089-1.2735-0.98046-2.4595-1.5723-3.5684 1.1865 0.39777 2.1846 0.52539 2.9707 0.52539h2e-3c0.70544 0 1.3899-0.09728 2.0371-0.29102 4.1546-1.2458 5.8931-4.3161 5.8633-5.6074-0.011767-0.50884-0.26612-0.87526-0.67974-0.97852h-2e-3c-0.2574-0.064581-0.86983-0.10352-3.125-0.10352-0.78249 0-1.6722 0.0048-2.6191 0.00977-1.0733 0.00532-2.219 0.00977-3.3633 0.00977-1.9605 0-4.7086-0.01554-6.5664-0.13867-2.7536-2.0712-6.0235-3.2321-9.6465-3.3418-0.48282-0.014792-0.96058-0.014533-1.4355-0.00195zm0.0332 1.0645c3.6246-0.096297 0.91039-0.010044 1.3711 0.00391 2.9663 0.089419 5.6832 0.93514 8.0488 2.4492-0.15479 0.10219-0.26688 0.23913-0.33008 0.41406-0.07882 0.21823-0.3211 0.88327 1.4238 2.3359l0.12891 0.10742c1.5781 1.3445 3.01 2.259 4.2832 2.8789 0.8471 1.3757 1.5785 2.9063 2.1738 4.5879h-2e-3c2.7128 7.661 3.446 25.702-4.8887 31.438-4.402 3.0293-8.5377 3.5439-10.881 3.5371 0.19669-0.46058 0.32672-0.90265 0.39453-1.2734 0.68982-2.1979 0.90652-4.0934-0.0059-7.2188-0.04012-0.14442-0.09572-0.30891-0.16211-0.48633 1.7404-3.4558 4.8108-4.2629 6.4961-4.4336 2.3144-0.23313 4.6582 0.46062 5.5781 1.6504 0.17929 0.23277 0.5139 0.2756 0.74609 0.0957 0.23254-0.17919 0.2757-0.51367 0.0957-0.74609-0.33018-0.42723-0.7894-0.79929-1.3379-1.1094l-0.98047-0.45508c-1.227-0.45419-2.7151-0.64761-4.207-0.49609-2.946 0.29842-5.4241 1.8464-6.9316 4.2852-1.107-2.1627-3.253-5.0078-5.6133-5.0078-0.5755 0-1.1216 0.17018-1.625 0.50586-2.6269 1.7501-1.8818 4.862-1.2246 7.6074 0.17645 0.73629 0.3436 1.4318 0.44336 2.0801 0.12107 0.78774 0.08912 1.7466 0.05859 2.6738-0.0091 0.27289-0.01218 0.54549-0.01758 0.81836l-11.189-3.2207c-0.0703-0.24482-0.14588-0.45403-0.20703-0.59375-0.49375-1.1278-3.624-6.4479-3.624-6.4479 5.3398-6.4772 5.3024-7.0911 6.5078-8.8005 2.0753-5.1262 0.06983-11.786 0.25863-12.68 0.48133 0.80367 0.33801 8.3282 0.25138 10.142-1.6605 3.9138-0.31774-9.5385-0.32343-9.7919 1.7712-0.07358 5.0217-1.5789 6.4395-3.5469 1.3008 0.69016 2.6557 0.9533 4.0254 0.95117-0.9497 0.43255-1.8171 0.96467-2.541 1.6016-1.74 1.5304-1.8075 2.7831-1.5586 3.5645 0.35325 1.1092 1.5924 1.931 3.1562 2.0957 1.0182 0.10787 2.3266-0.18315 3.8418-0.51953 1.9995-0.44319 4.2669-0.94519 6.166-0.55274 2.8246 0.58406 4.7892 2.154 7.6387 4.707l1.4805 1.3301c0.0987 0.08197 0.21718 0.125 0.33789 0.125 0.14521 0 0.28944-0.05903 0.39453-0.17578 0.19704-0.21787 0.18088-0.55501-0.03711-0.75195l-0.42188-0.37891c-3.4544-3.1222-5.7355-5.185-9.1758-5.8965-2.1227-0.43929-4.5077 0.09002-6.6113 0.55664-1.3651 0.30303-2.6553 0.58605-3.502 0.49805-1.1265-0.11816-2.0301-0.6639-2.252-1.3594-0.21586-0.67668 0.22732-1.5437 1.248-2.4414 2.9766-2.6184 8.5047-3.4072 12.588-1.7969 0.27337 0.10858 0.58348-0.0272 0.69141-0.30078 0.10793-0.27358-0.02546-0.58158-0.29883-0.68945-1.6594-0.65468-3.5432-0.94191-5.4199-0.89258 0.0742-0.12632 0.09871-0.28119 0.05078-0.43164-0.08982-0.27997-0.38873-0.43282-0.66992-0.34375-2.8395 0.90803-6.1146 1.7268-9.0273-0.06445-0.12391-0.07629-0.2724-0.0994-0.41406-0.0625-0.14095 0.0369-0.25943 0.13042-0.33008 0.25781-1.2405 2.2543-5.5106 3.7363-6.1816 3.4375-0.39621-0.176-0.94311-0.66041-1.1816-1.4453-0.32769-1.0776-0.0026-2.4384 0.94141-3.9355 3.2376-5.132 12.289-8.2924 15.914-8.3887zm10.172 3.3086c0.09373-0.00781 0.23832-0.00922 0.40234 0.00391 1.8834 0.15258 4.9208 0.17188 7.041 0.17188 1.1457 0 2.2944-0.0064 3.3691-0.011719 0.94473-0.00497 1.8322-0.00977 2.6133-0.00977 1.4677 0 2.3866 0.018849 2.7402 0.054687 0 0.14371-0.04728 0.45012-0.28125 0.91602-0.62698 1.2465-2.2232 2.8556-4.8223 3.6348-0.54781 0.16429-1.1307 0.24805-1.7324 0.24805-1.6846-3.55e-4 -4.4702-0.66369-8.1699-3.8164l-0.13672-0.11523c-0.54391-0.45313-0.88462-0.84946-1.0234-1.0762zm-11.387 0.65625c-0.5883 0-1.0664 0.4765-1.0664 1.0645 0 0.58795 0.47813 1.0645 1.0664 1.0645 0.5883 0 1.0645-0.47648 1.0645-1.0645 0-0.58795-0.47617-1.0645-1.0645-1.0645zm-6.4141 2.832c-0.03098 0.00122-0.06242 0.00216-0.0957 0.00586-1.0651 0.11852-1.7743 0.3561-2.248 0.71094-0.84675 0.63481-0.59299 1.4189 0.35352 1.5371 0.94686 0.11816 1.0215 0.18166 1.8945-0.47266 0.91693-0.6875 1.0562-1.8189 0.0957-1.7813zm-5.8945 0.125c-0.58794 0-1.0645 0.47648-1.0645 1.0645 0 0.58795 0.47652 1.0645 1.0645 1.0645 0.5883 0 1.0645-0.47648 1.0645-1.0645 0-0.58795-0.47617-1.0645-1.0645-1.0645zm-4.2891 3.0391c-0.23964 0.81826-0.26845 1.5084-0.19531 2.0605-2.3822 0.63623-3.2607 0.22592-3.4766 0.08008-0.11787-0.07948-0.15128-0.1385-0.15625-0.13672 3.55e-4 0 0.016702-0.0183 0.066406-0.0293 0.79917-0.17742 2.3696-1.007 3.7617-1.9746zm-0.49414 4.7559c0.08378 0 0.15484 0.01226 0.20703 0.0332 0.31917 0.12739 0.56394 0.4723 0.65625 0.92188 0.14876 0.7242-0.11858 1.5115-0.7168 2.1094-0.5361 0.53616-1.2127 0.85742-1.8105 0.85742-0.45483 0-1.0324-0.18284-1.1953-1.0508-0.11539-0.61278 0.29214-1.2147 0.54492-1.5195 0.6923-0.83386 1.7411-1.3516 2.3145-1.3516zm1.9414 0.94141c0.16421 0.16237 0.5922 0.19108 0.57422 0.45117-0.18284 2.6445 0.22166 8.8822-0.06747 8.6149-0.75616-0.69893-3.7301-4.0636-4.4142-4.7063 0.84071-0.04567 2.165-0.78339 2.8645-1.4828 0.79962-0.79887 1.1814-1.8606 1.043-2.877zm-10.209 18.061c0.731 0 1.4886 0.28789 2.1934 0.83008 1.3999 1.0765 4.1708 6.3099 5.0449 8.3066 0.30533 0.6976 0.52352 1.9777 0.13867 2.5664-0.09514 0.14513-0.27942 0.33789-0.77148 0.33789-0.18994 0-0.40737-0.0281-0.64844-0.08594-3.1569-0.7572-7.8188-5.8421-8.3613-8.4629-0.21266-1.0273-0.033963-1.9549 0.50391-2.6152 0.4598-0.56455 1.136-0.87695 1.9004-0.87695zm21.975 0.25781c1.915 0 4.4219 3.7743 4.9492 5.6719 0.82402 2.8238 0.63889 4.4439 0.0059 6.4473-0.0096 0.0291-0.01811 0.06128-0.02344 0.0918-0.02592 0.14477-0.66961 3.5508-3.916 3.5508-0.64154 0-1.0941-0.14476-1.3848-0.44531-0.66462-0.68661-0.61168-2.2816-0.56055-3.8223 0.03302-0.99213 0.06744-2.0188-0.07422-2.9375-0.10864-0.70613-0.28981-1.462-0.46484-2.1934-0.70828-2.9569-1.0459-4.9779 0.63086-6.0957 0.27018-0.1799 0.54358-0.26758 0.83789-0.26758zm16.174 11.902c-2.5157 7.1081-9.8995 13.46-18.121 15.406-4.756 1.1263-9.9264-0.85258-12.939-3.3145-1.6757-1.369-2.6549-2.8484-2.6191-3.957 0.040828-1.2636 0.61759-2.1004 1.623-2.3594 1.5004-0.38606 3.8064 0.54975 5.3164 3.0879 1.3459 2.2621 3.8237 3.4685 7.0215 3.416 6.191-0.11745 13.326-4.733 16.611-10.74 1.0008-0.396 2.0427-0.90316 3.1074-1.5391z" style="fill:#ffffff;stroke:url(#linearGradient1038)"/></a></g><g style="display:none"><path d="m58.258 3.6552c-0.36923-0.091903-0.97136-0.13626-3.3923-0.13626-0.78178 0-1.6704 0.00461-2.6151 0.00923-1.0665 0.00532-2.2051 0.011-3.3415 0.011-1.827 0-4.3853-0.013129-6.2059-0.11745-2.9159-2.1187-6.2748-3.2496-9.9916-3.3617-8.0546-0.24661-15.186 3.2336-19.048 9.2162-1.3051 1.2405-3.7605 2.6198-4.4244 2.767-1.113 0.24732-1.8341 1.2217-1.7137 2.3164 0.086627 0.78916 0.64793 1.6759 1.9005 2.0882-0.1445 0.14194-0.28225 0.29097-0.41041 0.44532-0.84888 1.0223-1.2039 2.1844-0.99976 3.2727 0.041183 0.21823 0.098343 0.42687 0.17112 0.62523-1.8362 3.124-2.8022 6.6703-2.8022 10.316 0 0.92081 0.06213 1.837 0.18533 2.7443-0.28899-0.05003-0.57941-0.07558-0.86982-0.07558-1.3967 0-2.6915 0.60535-3.5514 1.6606-0.9497 1.166-1.2827 2.7259-0.93763 4.3922 0.7026 3.394 5.847 9.1158 9.949 10.1 0.40402 0.09652 0.78994 0.14584 1.1467 0.14584 1.0974 0 2.0038-0.46235 2.553-1.3019 0.17432-0.26684 0.30036-0.55 0.38769-0.83955 2.7994 1.9296 6.0355 3.1247 9.4637 3.4717 0.74272 2.4221 2.7369 2.8259 3.9813 2.8259 1.876 0 3.4967-0.76219 4.6523-2.1674 0.10438 0.0014 0.20911 0.0025 0.3142 0.0025 0.79314 0 1.7787-0.05429 2.9063-0.22816-3.6092 4.048-8.8232 6.3775-12.662 6.3782h-0.0011c-1.6182 0-3.7921-0.41268-4.9601-2.3764-1.5454-2.5981-4.0228-4.2123-6.4647-4.2123-2.5651 0-4.3473 1.81-4.4343 4.5036-0.047219 1.458 0.71716 3.0438 2.2108 4.5852 2.5125 2.5935 7.3846 5.2105 12.606 5.2105 1.1538 0 2.2846-0.12916 3.3607-0.38394 9.2535-2.1904 17.544-9.5952 19.956-17.739 8.8324-6.7441 8.1323-25.284 5.2054-33.551-0.20308-0.57377-0.42249-1.1358-0.65787-1.6844 0.35609 0.04116 0.70828 0.06174 1.0548 0.06174 0.80911 0 1.5973-0.11355 2.3432-0.3371 4.5909-1.3764 6.665-4.7825 6.6217-6.6515-0.02272-0.98645-0.60639-1.766-1.4862-1.986" fill="#000000" style="display:none;fill:#000000"/><path d="m10.294 41.757c-0.46047-0.84629-0.96107-1.7181-1.4521-2.5016 0.42107 0.87326 0.90604 1.7096 1.4521 2.5016" fill="#005683" style="display:none"/><path d="m43.193 24.763c-2.8495-2.5531-4.628-3.9352-7.4527-4.5192-1.8991-0.39245-4.3923-0.0033-6.3918 0.43985-1.5153 0.33639-2.7786 0.62735-3.7968 0.51948-1.5639-0.16465-2.373-0.62448-2.7262-1.7337-0.24888-0.78135-0.1849-1.6072 1.5551-3.1376 0.72391-0.63694 3.1146-1.9677 4.0643-2.4002-3.0392 0.21987-4.8155-0.13408-6.1163-0.82424-2.1518 2.1505-5.6437 3.9491-6.9559 3.3668-0.29148-0.12952-0.81029-0.17792-1.111-0.48768-0.0284 0.022-0.35042 0.25046-0.37882 0.27281 0.34615 0.32397 0.43022 0.92109 0.53921 1.4516 0.22118 1.0755-0.13283 1.8863-0.98523 2.7379-0.74201 0.74197-1.2461 0.94073-2.1333 0.94073-0.62059 0-1.1958-0.39735-1.5927-0.77419-2.6897 4.4903-2.9771 7.0077-3.115 10.124-0.074031 1.6739 0.28878 4.0581 0.70026 5.6041 1.7617 1.6185 4.316 6.6576 4.949 8.1039 0.03444 0.07913 0.59368 0.92236 0.67095 0.98231 3.0195 2.7905 7.6819 4.6671 12.033 5.0028-0.05467-0.71926-0.12679-2.0469-0.10161-2.8038 0.03053-0.92719 0.08106-1.9049-0.04-2.6927-0.09976-0.64829-0.322-1.381-0.49846-2.1173-0.60559-2.8228-1.2527-5.5664 0.9744-7.1489 0.50343-0.33568 0.7949-0.45132 1.3704-0.45132 2.3602 0 4.4688 3.4401 5.6205 5.4986 1.5075-2.4388 3.97-4.4615 6.916-4.7599 1.4918-0.15152 2.9656-0.03256 4.1926 0.42164 0.43278-1.5734 0.69968-3.621 0.69968-5.2713 0-1.9747-0.27226-4.4887-0.88965-6.3445" fill="#005683" style="display:none;stroke:#000000"/><path d="m30.929 20.846c-0.53716 0.10539-1.0676 0.22248-1.5806 0.33639-1.5153 0.33639-2.8239 0.62735-3.8421 0.51948-1.5639-0.16465-2.8037-0.98716-3.1569-2.0964-0.24888-0.78135-0.18071-2.0336 1.5593-3.564 0.02521-0.022 0.05361-0.04187 0.07882-0.06387-1.1201-0.36513-2.2999-0.59826-3.5212-0.68094-1.9303 1.3033-4.3626 2.0456-5.2978 1.6308-0.29112-0.12952-0.61633-0.35129-0.91669-0.66071-0.02769 0.02306-0.05539 0.04577-0.08379 0.06813 0.34615 0.32397 0.59822 0.77781 0.70722 1.3079 0.22118 1.0755-0.1555 2.2263-1.0079 3.0779-0.74201 0.74197-1.6768 1.1674-2.564 1.1674-0.62095 0-1.151-0.2161-1.5479-0.59329-1.7549 2.8568-2.7735 6.2139-2.7735 9.8127 0 1.6741 0.22012 3.2968 0.63231 4.8411 1.1815 0.97048 2.8764 3.8848 4.0566 6.138 2.2541 1.4339 4.9267 2.2685 7.7968 2.2685 1.5859 0 3.1111-0.2569 4.5405-0.72565-0.05823-0.253-0.11893-0.50955-0.18213-0.77355-0.65716-2.7454-1.4027-5.8573 1.2241-7.6074 0.50343-0.33568 1.0509-0.506 1.6264-0.506 1.8153 0 3.5009 1.6823 4.6871 3.443 1.6736-2.3693 2.6602-5.258 2.6602-8.3788 0-3.382-1.1578-6.4911-3.0948-8.9607" fill="#00709c" style="display:none"/><path d="m18.215 40.973c-0.80627 0.05216-1.4624 0.0057-2.2637-0.16039-0.12089-1.2042-0.2203-2.5583-0.13775-4.2668 0.08254-1.7085 0.34704-3.7715 0.95396-6.3932 2.2051 5.7079 4.6338 9.8936 4.6512 9.9167-0.4129 0.19694-1.669 0.7959-3.2038 0.90413m-3.698-0.60819c-3.1546-1.4328-5.0214-3.8475-5.835-6.5576s-0.57382-5.7157 0.48468-8.3304c0.040296 2.5875 0.42292 4.89 1.2729 7.2553s2.1675 4.7936 4.0774 7.6327m8.6095-1.3052c0.08118-0.4968 0.09983-0.97822 0.23484-1.4425 0.19647-0.67558 0.40737-1.0427 0.40737-1.0427 0.95525-3.4179 2.143-6.7585 2.9315-10.236 0.18888-0.83458 0.35254-2.1333 0.05823-3.5814 2.111 3.2959 2.5182 7.912 0.19828 11.995 0 0 0.41794 0.06123 0.63331 0.12578 0.21538 0.06455 0.64774 0.26513 0.64774 0.26513 1.1191-2.1004 1.7418-4.4613 1.6493-6.7759-0.03475-0.86856-0.15319-1.6973-0.34402-2.482-0.19083-0.78475-0.45404-1.5255-0.77834-2.2183-0.3243-0.69275-0.84249-1.5054-1.2776-2.098l-0.93966 0.13426c-1.1445 0.03007-2.3784 0.0127-3.5681-1.1068-0.27412 0.17524 0.06527-0.10363-0.23898 0.17268-0.60852 0.55262-0.86752 1.6148 0.51053 3.6524 0.74485 1.101 1.141 2.0933 1.2036 3.2593 0.06262 1.166-0.20827 2.5059-0.79744 4.3023-0.21266 0.8857-0.35113 1.4622-0.48391 2.0453-0.13277 0.58297-0.25987 1.1726-0.44981 2.0846-0.9094-2.1723-1.7352-4.1832-2.4802-6.2422-0.74499-2.059-1.4092-4.1661-1.9953-6.5308 0.51535-0.07558 1.0649-0.15622 1.4107-0.30082 0.34574-0.1446 0.48764-0.35316 0.18764-0.68458-0.03781-0.0417-1.414 0.07203-2.7872 0.19729-1.3732 0.12526-2.7435 0.26205-2.7694 0.26648-0.2084 0.03548-0.33088 0.17582-0.40136 0.30787-0.07047 0.13204-0.08894 0.25579-0.08929 0.2581-0.02165 0.19356-0.01491 0.28937 0.14428 0.32792 0.15919 0.03855 0.47081 0.01983 1.0589-0.01566 0.15497 0.83495 0.26778 1.443 0.4377 2.1471 0.16992 0.70404 0.39696 1.504 0.7804 2.7227-0.27674 1.1502-0.55837 2.32-0.78062 3.6627-0.22225 1.3427-0.38513 2.8583-0.42438 4.7001-1.2369-2.4606-2.1029-4.5455-2.6833-6.5493-0.58039-2.0038-0.87516-3.9264-0.96961-6.0627 0.17556-0.10663 0.38059-0.13901 0.58052-0.18443s0.39474-0.10388 0.54988-0.26267c0.1058-0.1084 0.18444-0.28485 0.20366-0.44129 0.01922-0.15644-0.02099-0.29287-0.15289-0.32126-0.46775-0.10078-0.88012 0.01446-1.2805 0.1768-0.40039 0.16234-0.78852 0.38063-1.2083 0.46828l-6.08e-4 -0.0097c0.41268-0.65186 1.3786-1.858 1.3786-1.858-0.39303 0.02382-0.69498-0.05853-0.69498-0.05853-0.18108 0.23637-0.48117 0.62629-0.64807 0.87461-0.6676 0.9933-1.219 2.0774-1.6327 3.213-0.82731 2.2713-1.1035 4.749-0.65541 7.12 0.44804 2.3709 1.6203 4.6351 3.6897 6.4794 3.9509 3.5206 8.3399 3.2409 11.841 1.0234 0 0-0.07941-0.53908-0.1002-0.79973-0.0208-0.26065-0.02734-0.76072-0.02734-0.76072-0.04873 0.03735-0.02822 0.04671-0.07768 0.08377m-4.3799-21.744c-1.5017 0.12854-2.6824 0.49462-3.8115 1.0092 0.0021 0.3393-0.05588 0.57198-0.14205 0.86796 1.3496-0.7266 2.6995-0.97512 4.148-1.0122 2.0312 0.1402 3.3002 0.78083 3.3002 0.78083-0.01352-0.6533 0.2436-1.1175 0.2436-1.1175s-1.1001-0.34328-1.7527-0.45326c-0.65251-0.10998-1.2938-0.10414-1.9441-0.07302" fill="#ffffff" style="display:none"/></g></g></svg>
