<svg width="60" height="28" viewBox="0 0 60 28" fill="none" xmlns="http://www.w3.org/2000/svg">
    <path fill-rule="evenodd" clip-rule="evenodd" d="M2.26157 1.05089C-0.767046 9.67615 -0.740176 18.3021 2.26018 26.9266C2.39058 27.3256 2.75862 27.6211 3.20251 27.6386C10.4753 27.9281 17.6401 25.2203 24.7056 20.2072H35.3524C42.4019 25.2208 49.5485 27.9282 56.8034 27.6386C57.2477 27.621 57.6153 27.3251 57.7457 26.9256C60.7382 18.3013 60.7651 9.67676 57.7443 1.05115C57.595 0.597092 57.1437 0.292845 56.6494 0.34694C48.5387 1.23333 41.4862 4.29339 35.4044 9.34495H24.6526C18.5546 4.29292 11.4851 1.23294 3.35428 0.346467C2.86045 0.292831 2.40963 0.596156 2.25982 1.05021L2.26157 1.05089ZM56.0536 2.50234C48.7719 3.44607 42.4032 6.26757 36.8753 10.8151V14.0009H41.1366C41.7077 14.0009 42.171 14.4642 42.171 15.0353C42.171 15.6063 41.7077 16.0696 41.1366 16.0696H36.8753V18.7496C43.1748 23.1635 49.5409 25.6609 56.0145 25.5901C58.5428 17.8946 58.5784 10.1973 56.0529 2.50324L56.0536 2.50234ZM3.95426 2.50188C1.42221 10.1978 1.45784 17.8947 3.99264 25.5899C10.4845 25.6616 16.8677 23.1638 23.1851 18.749V16.0699H18.9238C18.3528 16.0699 17.8895 15.6066 17.8895 15.0356C17.8895 14.4645 18.3528 14.0012 18.9238 14.0012H23.1851V10.8163C17.6421 6.26786 11.257 3.4464 3.95357 2.50275L3.95426 2.50188ZM34.715 11.4143V18.1383H25.3467V11.4143H34.715Z" fill="white"/>
</svg>
