<?xml version="1.0" encoding="utf-8"?>
<!-- Svg Vector Icons : http://www.onlinewebfonts.com/icon -->
<!DOCTYPE svg PUBLIC "-//W3C//DTD SVG 1.1//EN" "http://www.w3.org/Graphics/SVG/1.1/DTD/svg11.dtd">
<svg version="1.1" xmlns="http://www.w3.org/2000/svg" xmlns:xlink="http://www.w3.org/1999/xlink" x="0px" y="0px" viewBox="0 0 1000 1000" enable-background="new 0 0 1000 1000" xml:space="preserve">
<metadata> Svg Vector Icons : http://www.onlinewebfonts.com/icon </metadata>
<g><g transform="translate(0.000000,512.000000) scale(0.100000,-0.100000)"><path d="M3055.3,4983.5c-82.3-49.8-103.3-126.3-103.3-369.4c0-199.1-7.7-237.3-201-1014.4L2548.1,2792L2751-883c111-2023.1,210.5-3709.4,222-3749.6c13.4-49.8,38.3-84.2,80.4-109.1c57.4-36.4,101.5-38.3,823-38.3c834.5,0,842.2,0,893.9,112.9c15.3,34.5,57.4,792.4,124.4,2317.9c55.5,1248,103.4,2264.3,105.3,2258.6c1.9-5.7,49.8-1025.9,105.3-2268.1c72.8-1642.2,107.2-2273.9,126.3-2312.2c49.8-107.2,61.3-109.1,892-109.1c721.6,0,765.6,1.9,823,38.3c42.1,24.9,67,59.3,80.4,109.1c11.5,40.2,111,1728.4,222,3749.6l202.9,3678.8L7249,3601.6c-195.2,779-201,811.6-201,1016.4c0,139.7-9.6,233.5-26.8,277.5c-55.5,132.1,61.3,124.4-2025,124.4C3179.7,5019.9,3112.8,5018,3055.3,4983.5z M3775,4493.6c0-155,36.4-231.6,128.2-269.9c51.7-23,80.4-24.9,130.2-7.7c105.3,34.5,132.1,82.3,143.6,246.9l9.6,145.5H5000h813.5l9.6-145.5c11.5-164.6,38.3-212.5,143.6-246.9c49.8-17.2,78.5-15.3,130.2,7.7c91.9,38.3,128.2,114.8,128.2,269.9V4618h201h201v-109.1c0-76.6,67-375.1,206.7-934l206.7-823L6845.2-760.5c-109.1-1931.3-197.2-3535.3-199.1-3565.9v-51.7l-520.6,3.8l-522.5,5.7l-99.5,2277.7l-99.5,2277.7l-103.3,1033.6l-105.3,1031.7l-59.3,53.6c-82.3,74.6-189.5,74.6-271.8,0l-61.2-53.6l-101.5-1004.9L4600,244.4l-97.6-2268.1c-55.5-1248-103.3-2287.3-107.2-2310.3l-7.7-44h-516.8h-516.8v53.6c-1.9,28.7-90,1632.7-199.1,3564l-195.2,3512.3l206.7,823c139.7,558.9,206.7,857.5,206.7,934V4618h201h201V4493.6z"/></g></g>
</svg>