<svg width="60" height="31" viewBox="0 0 60 31" fill="none" xmlns="http://www.w3.org/2000/svg">
    <path d="M59.0325 21.5572V18.9151C59.0325 14.5051 58.2082 10.2162 56.5842 6.16551C56.1081 4.97591 55.0181 4.20743 53.8076 4.20743C52.4653 4.20743 51.2711 5.17172 50.9026 6.55069L50.3889 8.47283C49.9202 10.224 48.4029 11.4488 46.6977 11.4488C45.5895 11.4488 44.5376 10.9376 43.8092 10.0481L41.6396 7.39767L42.4215 4.89315C42.527 4.5477 42.581 4.19071 42.581 3.82957V3.43147C42.581 1.57768 41.1699 0.0693359 39.4357 0.0693359C38.7592 0.0693359 38.0886 0.308095 37.5495 0.741752L34.4575 3.22038C34.1827 3.19544 33.9079 3.17281 33.6301 3.17281C31.7033 3.17281 29.8279 3.76164 28.206 4.87552L23.0317 8.43202C19.0687 11.1549 14.7073 12.9796 10.0684 13.8538L4.95494 14.819C2.08368 15.3598 0 18.0157 0 21.1313C0 23.8168 1.58732 26.2376 3.94738 27.1553C8.92046 29.0898 14.125 30.0693 19.4168 30.0693H57.0968C58.6975 30.0693 60 28.677 60 26.9659V26.1757C60 24.5866 59.666 22.9956 59.0323 21.5566L59.0325 21.5572ZM46.6974 13.5183C49.2611 13.5183 51.5448 11.678 52.2494 9.0409L52.7631 7.11877C52.8957 6.62231 53.3255 6.27687 53.8073 6.27687C54.2419 6.27687 54.6337 6.55303 54.8048 6.98114C56.3255 10.7727 57.0967 14.7873 57.0967 18.915V20.8703C54.8428 21.1299 48.3318 21.794 40.6452 21.794C40.4931 21.794 40.3605 21.7991 40.2127 21.8L34.4024 12.0398C36.2091 10.8344 37.5998 9.01066 38.3209 6.8516C38.8298 7.23861 39.3033 7.68519 39.7224 8.19738L42.3526 11.4094C43.4478 12.7496 45.032 13.5181 46.6974 13.5181L46.6974 13.5183ZM28.7406 23.0688L24.5301 15.8676L27.6683 14.7495L32.4461 22.4098C31.4995 22.5599 30.6083 22.722 29.7346 22.8845C29.4024 22.9478 29.0724 23.0087 28.7406 23.0688ZM34.5894 22.1169L29.5718 14.072L32.3986 13.0643C32.4859 13.0333 32.565 12.9876 32.6501 12.9534L37.9502 21.8573C36.712 21.9132 35.5977 22.001 34.5894 22.1169ZM38.7101 2.39787C38.9183 2.23115 39.1745 2.13925 39.435 2.13925C40.1016 2.13925 40.6448 2.71977 40.6448 3.43242V3.83051C40.6448 3.96999 40.6245 4.109 40.5838 4.24015L40.1164 5.7369C39.1806 4.88668 38.1161 4.22761 36.9673 3.79396L38.7101 2.39787ZM24.0779 10.1732L29.2522 6.61669C30.5608 5.71751 32.0755 5.24277 33.6295 5.24277C34.6543 5.24277 35.654 5.46214 36.5867 5.85423C35.8695 8.30602 34.0948 10.2799 31.7869 11.1024L20.3101 15.1919C18.6969 15.7669 16.9269 15.711 15.3487 15.0367L14.74 14.7763C18.026 13.7132 21.1569 12.1799 24.0783 10.1732L24.0779 10.1732ZM5.29153 16.8567L10.405 15.8915C10.7921 15.819 11.1735 15.728 11.5567 15.643L14.6293 16.9569C15.715 17.4205 16.8581 17.6565 18.0272 17.6565C19.0122 17.6565 19.9851 17.488 20.9209 17.155L22.6425 16.5417L26.6625 23.4168C24.8895 23.6782 22.919 23.8634 20.3226 23.8634C13.2166 23.8634 4.65514 20.9987 2.07266 20.0731C2.455 18.4466 3.68408 17.1599 5.2913 16.8565L5.29153 16.8567ZM58.0649 26.967C58.0649 27.5378 57.6311 28.0015 57.0971 28.0015H19.4172C14.3521 28.0015 9.36909 27.063 4.60913 25.2134C3.35107 24.7239 2.42702 23.6016 2.08615 22.261C5.32028 23.3929 13.3506 25.9325 20.3228 25.9325C24.6465 25.9325 27.402 25.4194 30.0671 24.9229C32.8675 24.4025 35.763 23.8635 40.6453 23.8635C48.6012 23.8635 55.3196 23.1602 57.4608 22.9098C57.85 23.9471 58.0648 25.0605 58.0648 26.1768L58.0649 26.967Z" fill="white"/>
</svg>
