<?xml version="1.0" encoding="utf-8"?>
<!-- Svg Vector Icons : http://www.onlinewebfonts.com/icon -->
<!DOCTYPE svg PUBLIC "-//W3C//DTD SVG 1.1//EN" "http://www.w3.org/Graphics/SVG/1.1/DTD/svg11.dtd">
<svg version="1.1" xmlns="http://www.w3.org/2000/svg" xmlns:xlink="http://www.w3.org/1999/xlink" x="0px" y="0px" viewBox="0 0 1000 1000" enable-background="new 0 0 1000 1000" xml:space="preserve">
<metadata> Svg Vector Icons : http://www.onlinewebfonts.com/icon </metadata>
<g><g transform="translate(0.000000,511.000000) scale(0.100000,-0.100000)"><path d="M191.2,2320.6c-26.8-15.3-59.4-51.7-72.8-80.5c-15.3-40.2-21.1-557.7-17.2-1989.3l5.7-1935.6l53.7-109.2c57.5-118.8,159.1-220.4,285.6-287.5l82.4-44.1h4474.9h4474.9l82.4,44.1c126.5,67.1,228.1,168.7,285.6,287.5l53.7,109.2v412c0,467.6-17.2,563.4-145.6,839.4c-97.8,212.7-208.9,366.1-394.8,542.4c-176.3,168.6-318.1,268.3-532.8,375.6c-153.3,78.6-239.6,107.3-632.4,216.6C7696.1,841,7629,871.7,6201.2,1634.5c-676.5,360.3-1205.5,632.4-1284,657.3c-182.1,57.5-454.2,70.9-642,30.7c-245.3-51.7-427.4-153.3-647.8-362.2c-149.5-141.8-230-201.2-352.6-260.6c-253-124.6-360.3-145.6-724.4-145.6c-366,0-471.5,21.1-728.3,147.6c-161,78.6-222.3,132.2-488.7,421.6c-59.4,63.2-139.9,126.5-210.8,161c-115,55.6-116.9,55.6-498.3,59.4C317.7,2347.4,231.5,2343.5,191.2,2320.6z M952.1,1908.5c44.1-23,95.8-63.2,115-92c61.3-92,245.3-274.1,366-360.3c590.3-423.5,1604.1-435,2203.9-24.9c49.8,34.5,166.7,134.2,258.7,222.3c182.1,174.4,300.9,241.5,486.8,276c138,26.8,320,9.6,456.1-40.2c187.8-70.9,189.7-47.9-36.4-389C4631.7,1241.6,4601,1186,4601,1118.9c0-145.6,151.4-231.9,293.2-166.7c26.8,11.5,132.3,149.5,254.9,335.4c115,172.5,216.6,314.3,226.1,314.3c15.4,0,408.2-201.2,429.3-220.4c3.8-3.8-80.5-136.1-185.9-293.2c-105.4-159.1-197.4-310.5-203.1-335.4c-30.7-116.9,115-260.6,235.7-233.8c82.4,17.2,99.7,40.2,310.5,354.5c107.3,162.9,199.3,300.9,203.1,304.7c5.8,7.7,218.5-99.6,366.1-184l80.5-46l-191.6-287.5c-220.4-335.4-231.9-381.4-124.6-488.7c72.8-72.8,153.3-86.2,237.6-34.5c28.8,15.3,139.9,162.9,247.2,323.9l195.5,293.2l224.2-111.1c122.7-61.3,310.5-145.7,417.8-184l197.4-72.8L7642.4,222c-254.9-241.5-649.7-728.3-850.9-1046.4l-53.7-84.3H4438.1H2136.4l-42.2,187.8C1935.2-23.3,1398.6,515.2,704.8,670.5l-195.5,44.1l-5.7,617.1l-3.8,615.2h185.9C833.2,1946.8,886.9,1939.2,952.1,1908.5z M791.1,222c427.4-155.2,774.2-530.9,889.2-962.1c47.9-185.9,107.3-168.6-576.9-168.6H499.8V-305v605.6l72.8-13.4C610.9,279.5,710.6,250.8,791.1,222z M8568.1,158.8c456.1-199.3,808.8-588.4,898.8-992.7l17.2-74.7H8364.9c-615.2,0-1119.2,5.7-1119.2,13.4c0,24.9,327.7,446.5,486.8,624.8C8014.2,45.7,8242.3,222,8366.8,222C8399.4,222,8489.5,193.3,8568.1,158.8z M9507.1-1435.7c0-59.4-11.5-136.1-26.8-172.5c-57.5-136.1,327.7-124.6-4476.9-124.6c-4804.6,0-4419.4-11.5-4476.8,124.6c-15.3,36.4-26.8,113.1-26.8,172.5v105.4h4503.7h4503.7V-1435.7z"/></g></g>
</svg>