<svg version="1.1" id="wapuugotchi_svg__item" viewBox="0 0 1e3 1e3" xmlns="http://www.w3.org/2000/svg">
 <circle cx="469.96" cy="527.84" r="122.77" style="fill-opacity:.99675;fill-rule:evenodd;fill:#ffffff;paint-order:markers stroke fill;stop-color:#000000;stroke-linecap:round;stroke-linejoin:round;stroke-opacity:.993;stroke-width:14.049;stroke:#000000"/>
 <path d="m388.4 501.6 16 1.5 14.1-18-5.7-14.9s-21.3 6.7-24.4 31.4zm77.7 11.2-16.1-1.6-14.1 18 5.7 14.9s21.3-6.7 24.5-31.3zm-55.6 4.6-5.8-4.6 23.2-29.2 5.8 4.6zm8.5 6.7-5.8-4.6 23.2-29.2 5.8 4.6zm8.5 6.7-5.8-4.6 23.2-29.2 5.8 4.6z" fill="#9fa0a0"/>
 <path d="m549.04 433.85c-0.30903-0.26025-0.60439-0.53572-0.91602-0.79297-1.5168-1.2521-3.0638-2.4691-4.6406-3.6484-1.5768-1.1794-3.1821-2.3217-4.8164-3.4258-1.6343-1.104-3.2971-2.1691-4.9863-3.1953-0.0448-0.0272-0.0919-0.051-0.13671-0.0781-16.463 20.602-20.352 51.747-7.4473 79.99 8.3 18.3 22.401 32.702 39.701 40.602 8.2434 3.6737 16.726 5.7268 25.092 6.1172 0.16269-0.92503 0.35218-1.8413 0.49414-2.7734 0.3102-2.0368 0.56995-4.0895 0.7793-6.1582s0.36865-4.1538 0.4746-6.252c0.0645-1.2771 0.0722-2.5682 0.0977-3.8555-6.2898-0.15251-12.726-1.6452-19.039-4.4785-13-6-23.799-17.101-30.199-31.201-9.986-21.878-7.0987-45.818 5.543-60.85zm21.594 164.52c-20.581-21.572-56.348-27.37-87.736-11.967-18.1 8.9-32.1 23.4-39.5 40.9-2.7026 6.4008-4.3703 12.913-5.0957 19.389 0.29309 0.0776 0.5791 0.17257 0.87304 0.24805 1.9638 0.50424 3.9467 0.9626 5.9473 1.3711 2.0005 0.4085 4.018 0.76793 6.0527 1.0781 1.9901 0.3034 3.9972 0.55477 6.0176 0.76172 0.40784-5.1066 1.647-10.273 3.8047-15.348 5.6-13.3 16.301-24.401 30.301-31.201 24.647-12.106 52.541-7.5118 67.064 9.6602 0.85571-0.88676 1.7219-1.7636 2.5508-2.6758 1.3214-1.4542 2.6082-2.9403 3.8594-4.457s2.4662-3.0638 3.6445-4.6406c0.76306-1.0211 1.4851-2.0738 2.2168-3.1191zm-143.04-158.97c-36.8 0-66.6 29.8-66.6 66.6s29.8 66.6 66.6 66.6 66.6-29.8 66.6-66.6-29.8-66.6-66.6-66.6zm-0.90039 20.5h0.90039c22.3 0 40.901 15.8 45.201 36.9l-13-0.10156h-0.10156c-2.5 0-4.5992 2.0016-4.6992 4.6016 0 2.6 2.0992 4.6992 4.6992 4.6992l14 0.19922c-0.1 22.3-16 40.9-37.1 45l-3.7988-11.699c-0.8-2.5-3.5004-3.8-5.9004-3-2.5 0.8-3.8996 3.4004-3.0996 5.9004l3.1992 9.6992c-21.2-0.3-38.9-14.8-44-34.5l12.301 0.20117h0.0996c2.5 0 4.5992-2.0016 4.6992-4.6016 0-2.6-2.0992-4.6988-4.6992-4.7988l-13.801-0.20117c-0.0667-0.73333-0.0996-1.4659-0.0996-2.1992 0-21.9 15.199-40.2 35.699-44.9l4.2012 13.5c0.6 2 2.5 3.3008 4.5 3.3008 0.46667 0 0.93373-0.0678 1.4004-0.20117 2.5-0.7 3.7996-3.3984 3.0996-5.8984z" style="fill:#f47725"/>
 <path d="m558.1 442.3s14.5 58.9-27 124.3c-40.8 64.2-111.8 73.4-111.8 73.4s28.7 14.3 61.8 10.4c0 0 51.9-1.2 86.6-49.4 34.4-47.9 26.6-81.4 22.4-98.9-7.7-36.7-32-59.8-32-59.8z" fill="#231815" opacity=".1"/>
 <animateTransform attributeName="transform" attributeType="XML" dur="10s" repeatCount="indefinite" type="rotate"/>
</svg>
