<svg version="1.2" xmlns="http://www.w3.org/2000/svg" viewBox="0 0 1000 1000" width="1000" height="1000"><defs><clipPath clipPathUnits="userSpaceOnUse" id="cp1"><path d="m469.94 653.69c-69.91 0-126.41-56.51-126.41-126.41 0-69.91 56.5-126.42 126.41-126.42 69.9 0 126.41 56.51 126.41 126.42 0 69.9-56.51 126.41-126.41 126.41z"/></clipPath></defs><style>.a{fill:#f9fafa}.b{fill:#f47725}.c{fill:#9fa0a0}.d{opacity:.1;fill:#231815}.e{fill:#030505}</style><g clip-path="url(#cp1)"><path class="a" d="m469.9 653.7c-69.9 0-126.4-56.5-126.4-126.4 0-69.9 56.5-126.4 126.4-126.4 69.9 0 126.4 56.5 126.4 126.4 0 69.9-56.5 126.4-126.4 126.4z"/><path fill-rule="evenodd" class="b" d="m444.1 680.6c-8.1-16.4-8.3-35.3-0.7-53.3 7.4-17.5 21.4-32 39.5-40.9 37.7-18.5 81.8-6.5 98.2 26.8l-17.2 8.5c-11.7-23.9-44.3-32-72.6-18.1-14 6.8-24.7 17.9-30.3 31.2-5.4 12.7-5.3 26 0.2 37.4zm149.7-131.1c-9.3 0-18.8-2.1-28-6.2-17.3-7.9-31.4-22.3-39.7-40.6-17.5-38.3-4.2-82 29.6-97.4l7.9 17.4c-24.2 11-33.2 43.3-20.1 72 6.4 14.1 17.2 25.2 30.2 31.2 12.7 5.7 25.9 6 37.4 0.8l8 17.4c-8.1 3.6-16.6 5.4-25.3 5.4zm-166.2 23.1c-36.8 0-66.6-29.8-66.6-66.6 0-36.8 29.8-66.6 66.6-66.6 36.8 0 66.6 29.8 66.6 66.6 0 36.8-29.8 66.6-66.6 66.6zm0-112.7q-0.4 0-0.9 0l3.7 11.9c0.7 2.5-0.6 5.2-3.1 5.9q-0.7 0.2-1.4 0.2c-2 0-3.9-1.3-4.5-3.3l-4.2-13.5c-20.5 4.7-35.7 23-35.7 44.9q0 1.1 0.1 2.2l13.8 0.2c2.6 0.1 4.7 2.2 4.7 4.8-0.1 2.6-2.2 4.6-4.7 4.6q-0.1 0-0.1 0l-12.3-0.2c5.1 19.7 22.8 34.2 44 34.5l-3.2-9.7c-0.8-2.5 0.6-5.1 3.1-5.9 2.4-0.8 5.1 0.5 5.9 3l3.8 11.7c21.1-4.1 37-22.7 37.1-45l-14-0.2c-2.6 0-4.7-2.1-4.7-4.7 0.1-2.6 2.2-4.6 4.7-4.6h0.1l13 0.1c-4.3-21.1-22.9-36.9-45.2-36.9z"/><path class="c" d="m388.4 501.6l16 1.5 14.1-18-5.7-14.9c0 0-21.3 6.7-24.4 31.4zm77.7 11.2l-16.1-1.6-14.1 18 5.7 14.9c0 0 21.3-6.7 24.5-31.3zm-55.6 4.6l-5.8-4.6 23.2-29.2 5.8 4.6zm8.5 6.7l-5.8-4.6 23.2-29.2 5.8 4.6zm8.5 6.7l-5.8-4.6 23.2-29.2 5.8 4.6z"/><path class="d" d="m558.1 442.3c0 0 14.5 58.9-27 124.3-40.8 64.2-111.8 73.4-111.8 73.4 0 0 28.7 14.3 61.8 10.4 0 0 51.9-1.2 86.6-49.4 34.4-47.9 26.6-81.4 22.4-98.9-7.7-36.7-32-59.8-32-59.8z"/></g><path fill-rule="evenodd" class="e" d="m469.9 657.9c-71.8 0-129.9-58.1-129.9-130 0-71.8 58.1-129.9 129.9-129.9 71.9 0 130 58.1 130 129.9 0 71.9-58.1 130-130 130zm122.9-130c0-67.9-54.9-122.9-122.9-122.9-67.9 0-122.9 55-122.9 122.9 0 68 55 122.9 122.9 122.9 68 0 122.9-54.9 122.9-122.9z"/></svg>