<svg version="1.1" id="wapuugotchi_svg__item" viewBox="0 0 1e3 1e3" xmlns="http://www.w3.org/2000/svg">
    <g class="Ball--group">
        <circle transform="rotate(-45)" cx="-40.709" cy="705.59" r="132.76" style="paint-order:stroke fill markers;stroke-width:0"/>
        <circle cx="469.96" cy="527.84" r="122.77" fill="#ffffff" fill-opacity=".997" fill-rule="evenodd" stroke="#000000" stroke-linecap="round" stroke-linejoin="round" stroke-opacity=".993" stroke-width="14.049" style="fill-opacity:.997;fill:#ffffff;stroke-width:0"/>
        <path d="m388.4 501.6 16 1.5 14.1-18-5.7-14.9s-21.3 6.7-24.4 31.4zm77.7 11.2-16.1-1.6-14.1 18 5.7 14.9s21.3-6.7 24.5-31.3zm-55.6 4.6-5.8-4.6 23.2-29.2 5.8 4.6zm8.5 6.7-5.8-4.6 23.2-29.2 5.8 4.6zm8.5 6.7-5.8-4.6 23.2-29.2 5.8 4.6z" fill="#9fa0a0"/>
        <path d="M549.04 433.85c-.309-.26-.604-.536-.916-.793a123.174 123.174 0 0 0-9.457-7.074 122.92 122.92 0 0 0-4.986-3.195c-.045-.028-.092-.051-.137-.079-16.463 20.602-20.352 51.747-7.447 79.99 8.3 18.3 22.4 32.702 39.7 40.602 8.244 3.674 16.727 5.727 25.093 6.118.162-.925.352-1.842.494-2.774a123.6 123.6 0 0 0 1.254-12.41c.064-1.277.072-2.568.097-3.855-6.29-.153-12.726-1.646-19.039-4.479-13-6-23.799-17.101-30.199-31.201-9.986-21.878-7.098-45.818 5.543-60.85zm21.594 164.52c-20.581-21.572-56.348-27.37-87.736-11.967-18.1 8.9-32.1 23.4-39.5 40.9-2.703 6.4-4.37 12.913-5.096 19.389.293.078.58.173.873.248a122.28 122.28 0 0 0 12 2.45c1.99.303 3.998.554 6.018.761.408-5.107 1.647-10.273 3.805-15.348 5.6-13.3 16.3-24.401 30.3-31.201 24.648-12.106 52.542-7.512 67.065 9.66.855-.887 1.722-1.763 2.55-2.676a123.303 123.303 0 0 0 7.504-9.097c.763-1.021 1.485-2.074 2.217-3.12zM427.594 439.4c-36.8 0-66.6 29.8-66.6 66.6s29.8 66.6 66.6 66.6 66.6-29.8 66.6-66.6-29.8-66.6-66.6-66.6zm-.9 20.5h.9c22.3 0 40.901 15.8 45.201 36.9l-13-.102h-.102c-2.5 0-4.599 2.002-4.699 4.602 0 2.6 2.1 4.7 4.7 4.7l14 .198c-.1 22.3-16 40.9-37.1 45l-3.8-11.699c-.8-2.5-3.5-3.8-5.9-3-2.5.8-3.9 3.4-3.1 5.9l3.2 9.7c-21.2-.3-38.9-14.8-44-34.5l12.3.201h.1c2.5 0 4.6-2.001 4.7-4.601 0-2.6-2.1-4.7-4.7-4.8l-13.8-.2c-.067-.734-.1-1.466-.1-2.2 0-21.9 15.199-40.2 35.699-44.9l4.201 13.5c.6 2 2.5 3.301 4.5 3.301a5.12 5.12 0 0 0 1.4-.2c2.5-.7 3.8-3.4 3.1-5.9z" fill="#f47725"/>
        <path d="M558.1 442.3s14.5 58.9-27 124.3C490.3 630.8 419.3 640 419.3 640s28.7 14.3 61.8 10.4c0 0 51.9-1.2 86.6-49.4 34.4-47.9 26.6-81.4 22.4-98.9-7.7-36.7-32-59.8-32-59.8z" fill="#231815" opacity=".1"/>
    </g>
 </svg>
