<svg xmlns="http://www.w3.org/2000/svg" viewBox="0 0 1000 1000">
	<g class="Head--group">
		<path d="M401.367 1739.18s128.473 248.46 180.02 258.98c51.551 10.52 185.441 39.49 296.429 12.9 101.52-24.33 182.874-226.04 182.874-226.04l-659.323-45.84"
			  style="fill:#383333;fill-opacity:1;fill-rule:nonzero;stroke:none"
			  transform="matrix(.26512 0 0 -.26512 306.781 800.727)"/>
		<path d="M775.016 2006.99c-75.887 0-147.391-14.66-185.809-22.54l-4.824-.99c-25.625-5.23-98.653-117.86-157.223-227.44l611.26 42.48c-22.72 49.63-88.822 179.93-164.096 197.97-29.133 6.98-62.539 10.52-99.308 10.52zm-373.657-282.8c-5.023 0-9.746 2.52-12.531 6.76a15.01 15.01 0 0 0-.789 15.13c30.914 59.78 136 255.69 190.348 266.78l4.793.98c39.465 8.09 112.91 23.15 191.836 23.15 39.121 0 74.882-3.82 106.3-11.35 107.793-25.83 189.844-226.49 193.294-235.01 1.78-4.46 1.34-9.5-1.2-13.57a14.98 14.98 0 0 0-11.68-7.01l-659.328-45.83c-.343-.02-.695-.03-1.043-.03"
			  style="fill:#100f0d;fill-opacity:1;fill-rule:nonzero;stroke:none"
			  transform="matrix(.26512 0 0 -.26512 306.781 800.727)"/>
		<path d="m1051.24 1807.5-649.873-68.32 61.578 102.59s133.711 114.96 532.391 58.3l55.904-92.57"
			  style="fill:#8f4149;fill-opacity:1;fill-rule:nonzero;stroke:none"
			  transform="matrix(.26512 0 0 -.26512 306.781 800.727)"/>
		<path d="m474.367 1831.66-44.668-74.41 596.501 62.7-40.012 66.25c-70 9.67-136.336 14.57-197.274 14.57-212.316 0-301.484-59.47-314.547-69.11zm-73.008-107.47c-5.082 0-9.875 2.58-12.644 6.94a15 15 0 0 0-.211 15.78l61.582 102.59a14.99 14.99 0 0 0 3.086 3.65c3.687 3.17 93.086 77.62 335.742 77.62 64.383 0 134.551-5.34 208.535-15.86a14.946 14.946 0 0 0 10.731-7.09l55.9-92.57a14.99 14.99 0 0 0 .59-14.43c-2.29-4.6-6.76-7.7-11.86-8.24l-649.876-68.31c-.532-.05-1.051-.08-1.575-.08"
			  style="fill:#100f0d;fill-opacity:1;fill-rule:nonzero;stroke:none"
			  transform="matrix(.26512 0 0 -.26512 306.781 800.727)"/>
		<path d="M1018.26 1813.11c-73.885 14.44-168.049 25.15-253.662 22.03-174.614-6.34-412.086-103.43-478.91-164.8-66.825-61.38 90.003-53.2 90.003-53.2l56.532 56.12s259.449 119.16 552.113 73.79c0 0 100.374-72.62 128.014-74.3 263.83-16.02-20.2 125.92-94.09 140.36"
			  style="fill:#383333;fill-opacity:1;fill-rule:nonzero;stroke:none"
			  transform="matrix(.26512 0 0 -.26512 306.781 800.727)"/>
		<path d="M795.152 1820.69c-10.086 0-20.105-.17-30.007-.54-169.075-6.14-404.934-101.73-469.309-160.86-11.328-10.4-11.719-15.24-11.723-15.28 1.77-2.77 19.524-12.23 74.285-12.23 4.36 0 8.082.06 10.887.14l52.371 51.98a14.913 14.913 0 0 0 4.309 2.99c7.598 3.49 188.769 85.46 421.426 85.46 47.527 0 94.375-3.53 139.238-10.48 2.344-.37 4.57-1.28 6.492-2.67 46.579-33.7 105.759-70.61 120.139-71.48 13.44-.82 25.79-1.23 36.7-1.23h.02c43.26 0 54.84 6.57 57.27 8.46-5.18 23.17-131.81 91.7-191.87 103.44-42.591 8.33-127.845 22.3-220.228 22.3zm-436.754-218.91c-89.949 0-99.269 23.92-102.332 31.78-5.699 14.63.856 30.72 19.477 47.83 67.328 61.84 307.434 162.16 488.508 168.75 10.262.37 20.644.55 31.101.55 94.914 0 182.325-14.32 225.988-22.85 38.74-7.58 221.47-81.15 216.12-136.45-3-30.93-48.21-34.9-87.27-34.9h-.03c-11.52 0-24.47.43-38.52 1.29-28.58 1.73-105.52 55.27-132.948 74.98-42.265 6.37-86.355 9.59-131.101 9.59-212.207 0-384.602-72.1-406.559-81.68l-54.574-54.17a15.045 15.045 0 0 0-9.785-4.34s-7.258-.38-18.075-.38"
			  style="display:inline;fill:#100f0d;fill-opacity:1;fill-rule:nonzero;stroke:none"
			  transform="matrix(.26512 0 0 -.26512 306.781 800.727)"/>
	</g>
</svg>